#usda 1.0
(
    defaultPrim = "Vehicle"
    metersPerUnit = 1
    upAxis = "Y"
)
def Xform "Vehicle" {
    def Mesh "mesh_leafsFall" {
        int[] faceVertexCounts = [3, 3, 3, 3, 3, 3, 3, 3, 3, 3, 3, 3, 3, 3, 3, 3, 3, 3, 3, 3, 3, 3, 3, 3, 3, 3, 3, 3, 3, 3, 3, 3, 3, 3, 3, 3, 3, 3, 3, 3]
        int[] faceVertexIndices = [2, 1, 0, 1, 2, 3, 4, 3, 2, 6, 5, 4, 8, 4, 7, 5, 10, 9, 10, 5, 6, 7, 0, 11, 0, 7, 2, 14, 13, 12, 13, 14, 15, 15, 14, 16, 15, 16, 17, 17, 16, 18, 19, 13, 15, 13, 19, 20, 20, 19, 18, 20, 18, 16, 20, 16, 21, 20, 22, 11, 22, 20, 21, 9, 12, 1, 12, 9, 14, 10, 8, 22, 8, 10, 6, 9, 16, 14, 16, 9, 10, 22, 7, 11, 7, 22, 8, 4, 5, 3, 1, 13, 0, 13, 1, 12, 7, 4, 2, 11, 13, 20, 13, 11, 0, 5, 1, 3, 1, 5, 9, 16, 22, 21, 22, 16, 10, 8, 6, 4]
        point3f[] points = [(0.18875, 0.397888, -0.326925), (0.3775, 0.397888, 0), (0.145338, 0.942887, -0.251732), (0.290675, 0.942887, 0), (0, 1.15039, 0), (0.145338, 0.942887, 0.251732), (-0.145338, 0.942887, 0.251732), (-0.145338, 0.942887, -0.251732), (-0.290675, 0.942887, 0), (0.18875, 0.397888, 0.326925), (-0.18875, 0.397888, 0.326925), (-0.18875, 0.397888, -0.326925), (0.29445, 0.242888, 0), (0.147225, 0.242888, -0.255001), (0.147225, 0.242888, 0.255001), (0.0437029, 0.242888, 0.0437029), (-0.147225, 0.242888, 0.255001), (-0.0437029, 0.242888, 0.0437029), (-0.0437029, 0.242888, -0.0437029), (0.0437029, 0.242888, -0.0437029), (-0.147225, 0.242888, -0.255001), (-0.29445, 0.242888, 0), (-0.3775, 0.397888, 0), (0.0688234, 0, -0.0688234), (0.0688234, 0, 0.0688234), (-0.0688234, 0, 0.0688234), (-0.0688234, 0, -0.0688234)]
        normal3f[] normals = [(0.857899, 0.136674, -0.495308), (0.857899, 0.136674, -0.495308), (0.857899, 0.136674, -0.495308), (0.857899, 0.136674, -0.495308), (0.857899, 0.136674, -0.495308), (0.857899, 0.136674, -0.495308), (0.550841, 0.771642, -0.318028), (0.550841, 0.771642, -0.318028), (0.550841, 0.771642, -0.318028), (0, 0.771642, 0.636057), (0, 0.771642, 0.636057), (0, 0.771642, 0.636057), (-0.550841, 0.771642, -0.318028), (-0.550841, 0.771642, -0.318028), (-0.550841, 0.771642, -0.318028), (0, 0.136673, 0.990616), (0, 0.136673, 0.990616), (0, 0.136673, 0.990616), (0, 0.136673, 0.990616), (0, 0.136673, 0.990616), (0, 0.136673, 0.990616), (0, 0.136673, -0.990616), (0, 0.136673, -0.990616), (0, 0.136673, -0.990616), (0, 0.136673, -0.990616), (0, 0.136673, -0.990616), (0, 0.136673, -0.990616), (0, -1, 0), (0, -1, 0), (0, -1, 0), (0, -1, 0), (0, -1, 0), (0, -1, 0), (0, -1, 0), (0, -1, 0), (0, -1, 0), (0, -1, 0), (0, -1, 0), (0, -1, 0), (0, -1, 0), (0, -1, 0), (0, -1, 0), (0, -1, 0), (0, -1, 0), (0, -1, 0), (0, -1, 0), (0, -1, 0), (0, -1, 0), (0, -1, 0), (0, -1, 0), (0, -1, 0), (0, -1, 0), (0, -1, 0), (0, -1, 0), (0, -1, 0), (0, -1, 0), (0, -1, 0), (-0.785572, -0.420914, -0.45355), (-0.785572, -0.420914, -0.45355), (-0.785572, -0.420914, -0.45355), (-0.785572, -0.420914, -0.45355), (-0.785572, -0.420914, -0.45355), (-0.785572, -0.420914, -0.45355), (0.785572, -0.420914, 0.45355), (0.785572, -0.420914, 0.45355), (0.785572, -0.420914, 0.45355), (0.785572, -0.420914, 0.45355), (0.785572, -0.420914, 0.45355), (0.785572, -0.420914, 0.45355), (-0.857899, 0.136674, 0.495308), (-0.857899, 0.136674, 0.495308), (-0.857899, 0.136674, 0.495308), (-0.857899, 0.136674, 0.495308), (-0.857899, 0.136674, 0.495308), (-0.857899, 0.136674, 0.495308), (0, -0.420914, 0.907101), (0, -0.420914, 0.907101), (0, -0.420914, 0.907101), (0, -0.420914, 0.907101), (0, -0.420914, 0.907101), (0, -0.420914, 0.907101), (-0.857899, 0.136674, -0.495308), (-0.857899, 0.136674, -0.495308), (-0.857899, 0.136674, -0.495308), (-0.857899, 0.136674, -0.495308), (-0.857899, 0.136674, -0.495308), (-0.857899, 0.136674, -0.495308), (0.550841, 0.771642, 0.318028), (0.550841, 0.771642, 0.318028), (0.550841, 0.771642, 0.318028), (0.785572, -0.420914, -0.45355), (0.785572, -0.420914, -0.45355), (0.785572, -0.420914, -0.45355), (0.785572, -0.420914, -0.45355), (0.785572, -0.420914, -0.45355), (0.785572, -0.420914, -0.45355), (0, 0.771642, -0.636057), (0, 0.771642, -0.636057), (0, 0.771642, -0.636057), (0, -0.420914, -0.907101), (0, -0.420914, -0.907101), (0, -0.420914, -0.907101), (0, -0.420914, -0.907101), (0, -0.420914, -0.907101), (0, -0.420914, -0.907101), (0.857899, 0.136674, 0.495308), (0.857899, 0.136674, 0.495308), (0.857899, 0.136674, 0.495308), (0.857899, 0.136674, 0.495308), (0.857899, 0.136674, 0.495308), (0.857899, 0.136674, 0.495308), (-0.785572, -0.420914, 0.45355), (-0.785572, -0.420914, 0.45355), (-0.785572, -0.420914, 0.45355), (-0.785572, -0.420914, 0.45355), (-0.785572, -0.420914, 0.45355), (-0.785572, -0.420914, 0.45355), (-0.550841, 0.771642, 0.318028), (-0.550841, 0.771642, 0.318028), (-0.550841, 0.771642, 0.318028)] (interpolation = "faceVarying")
        texCoord2f[] primvars:st = [(5.72195, 35.4187), (-7.4311, 13.7587), (7.4311, 13.7587), (-7.4311, 13.7587), (5.72195, 35.4187), (-5.72195, 35.4187), (1.77636e-15, 28.8075), (-5.72195, 15.9639), (5.72195, 15.9639), (-5.72195, 15.9639), (5.72195, 15.9639), (0, 28.8075), (5.72195, 15.9639), (0, 28.8075), (-5.72195, 15.9639), (5.72195, 35.4187), (-7.4311, 13.7587), (7.4311, 13.7587), (-7.4311, 13.7587), (5.72195, 35.4187), (-5.72195, 35.4187), (5.72195, 35.4187), (-7.4311, 13.7587), (7.4311, 13.7587), (-7.4311, 13.7587), (5.72195, 35.4187), (-5.72195, 35.4187), (5.79626, 10.0394), (5.79626, -10.0394), (11.5925, 0), (5.79626, -10.0394), (5.79626, 10.0394), (1.72059, 1.72059), (1.72059, 1.72059), (5.79626, 10.0394), (-5.79626, 10.0394), (1.72059, 1.72059), (-5.79626, 10.0394), (-1.72059, 1.72059), (-1.72059, 1.72059), (-5.79626, 10.0394), (-1.72059, -1.72059), (1.72059, -1.72059), (5.79626, -10.0394), (1.72059, 1.72059), (5.79626, -10.0394), (1.72059, -1.72059), (-5.79626, -10.0394), (-5.79626, -10.0394), (1.72059, -1.72059), (-1.72059, -1.72059), (-5.79626, -10.0394), (-1.72059, -1.72059), (-5.79626, 10.0394), (-5.79626, -10.0394), (-5.79626, 10.0394), (-11.5925, 0), (-5.79626, 12.8999), (7.4311, 19.6272), (-7.4311, 19.6272), (7.4311, 19.6272), (-5.79626, 12.8999), (5.79626, 12.8999), (-7.4311, 19.6272), (5.79626, 12.8999), (7.4311, 19.6272), (5.79626, 12.8999), (-7.4311, 19.6272), (-5.79626, 12.8999), (7.4311, 13.7587), (-5.72195, 35.4187), (-7.4311, 13.7587), (-5.72195, 35.4187), (7.4311, 13.7587), (5.72195, 35.4187), (7.4311, 19.6272), (-5.79626, 12.8999), (5.79626, 12.8999), (-5.79626, 12.8999), (7.4311, 19.6272), (-7.4311, 19.6272), (7.4311, 13.7587), (-5.72195, 35.4187), (-7.4311, 13.7587), (-5.72195, 35.4187), (7.4311, 13.7587), (5.72195, 35.4187), (0, 28.8075), (-5.72195, 15.9639), (5.72195, 15.9639), (-7.4311, 19.6272), (5.79626, 12.8999), (7.4311, 19.6272), (5.79626, 12.8999), (-7.4311, 19.6272), (-5.79626, 12.8999), (5.72195, 15.9639), (0, 28.8075), (-5.72195, 15.9639), (7.4311, 19.6272), (-5.79626, 12.8999), (5.79626, 12.8999), (-5.79626, 12.8999), (7.4311, 19.6272), (-7.4311, 19.6272), (-5.72195, 35.4187), (7.4311, 13.7587), (5.72195, 35.4187), (7.4311, 13.7587), (-5.72195, 35.4187), (-7.4311, 13.7587), (5.79626, 12.8999), (-7.4311, 19.6272), (-5.79626, 12.8999), (-7.4311, 19.6272), (5.79626, 12.8999), (7.4311, 19.6272), (-5.72195, 15.9639), (5.72195, 15.9639), (0, 28.8075)] (interpolation = "faceVarying")
        uniform token subdivisionScheme = "none"
        rel material:binding = </Vehicle/Materials/leafsFall>
    }
    def Mesh "mesh_woodBirch" {
        int[] faceVertexCounts = [3, 3, 3, 3, 3, 3, 3, 3, 3, 3]
        int[] faceVertexIndices = [19, 24, 23, 24, 19, 15, 15, 25, 24, 25, 15, 17, 25, 18, 26, 18, 25, 17, 25, 23, 24, 23, 25, 26, 18, 23, 26, 23, 18, 19]
        point3f[] points = [(0.18875, 0.397888, -0.326925), (0.3775, 0.397888, 0), (0.145338, 0.942887, -0.251732), (0.290675, 0.942887, 0), (0, 1.15039, 0), (0.145338, 0.942887, 0.251732), (-0.145338, 0.942887, 0.251732), (-0.145338, 0.942887, -0.251732), (-0.290675, 0.942887, 0), (0.18875, 0.397888, 0.326925), (-0.18875, 0.397888, 0.326925), (-0.18875, 0.397888, -0.326925), (0.29445, 0.242888, 0), (0.147225, 0.242888, -0.255001), (0.147225, 0.242888, 0.255001), (0.0437029, 0.242888, 0.0437029), (-0.147225, 0.242888, 0.255001), (-0.0437029, 0.242888, 0.0437029), (-0.0437029, 0.242888, -0.0437029), (0.0437029, 0.242888, -0.0437029), (-0.147225, 0.242888, -0.255001), (-0.29445, 0.242888, 0), (-0.3775, 0.397888, 0), (0.0688234, 0, -0.0688234), (0.0688234, 0, 0.0688234), (-0.0688234, 0, 0.0688234), (-0.0688234, 0, -0.0688234)]
        normal3f[] normals = [(0.994694, 0.102876, 0), (0.994694, 0.102876, 0), (0.994694, 0.102876, 0), (0.994694, 0.102876, 0), (0.994694, 0.102876, 0), (0.994694, 0.102876, 0), (0, 0.102876, 0.994694), (0, 0.102876, 0.994694), (0, 0.102876, 0.994694), (0, 0.102876, 0.994694), (0, 0.102876, 0.994694), (0, 0.102876, 0.994694), (-0.994694, 0.102876, 0), (-0.994694, 0.102876, 0), (-0.994694, 0.102876, 0), (-0.994694, 0.102876, 0), (-0.994694, 0.102876, 0), (-0.994694, 0.102876, 0), (0, -1, 0), (0, -1, 0), (0, -1, 0), (0, -1, 0), (0, -1, 0), (0, -1, 0), (0, 0.102876, -0.994694), (0, 0.102876, -0.994694), (0, 0.102876, -0.994694), (0, 0.102876, -0.994694), (0, 0.102876, -0.994694), (0, 0.102876, -0.994694)] (interpolation = "faceVarying")
        texCoord2f[] primvars:st = [(1.72059, 9.33476), (-2.70958, -0.27875), (2.70958, -0.27875), (-2.70958, -0.27875), (1.72059, 9.33476), (-1.72059, 9.33476), (1.72059, 9.33476), (-2.70958, -0.27875), (2.70958, -0.27875), (-2.70958, -0.27875), (1.72059, 9.33476), (-1.72059, 9.33476), (2.70958, -0.27875), (-1.72059, 9.33476), (-2.70958, -0.27875), (-1.72059, 9.33476), (2.70958, -0.27875), (1.72059, 9.33476), (-2.70958, 2.70958), (2.70958, -2.70958), (2.70958, 2.70958), (2.70958, -2.70958), (-2.70958, 2.70958), (-2.70958, -2.70958), (1.72059, 9.33476), (-2.70958, -0.27875), (2.70958, -0.27875), (-2.70958, -0.27875), (1.72059, 9.33476), (-1.72059, 9.33476)] (interpolation = "faceVarying")
        uniform token subdivisionScheme = "none"
        rel material:binding = </Vehicle/Materials/woodBirch>
    }
    def Scope "Materials" {
        def Material "leafsFall" {
            token outputs:surface.connect = </Vehicle/Materials/leafsFall/surface.outputs:surface>
            def Shader "surface" {
                uniform token info:id = "UsdPreviewSurface"
                float inputs:roughness = 0.7
                float inputs:metallic = 0
                color3f inputs:diffuseColor = (1, 0.287441, 0.0528607)
                token outputs:surface
            }
        }
        def Material "woodBirch" {
            token outputs:surface.connect = </Vehicle/Materials/woodBirch/surface.outputs:surface>
            def Shader "surface" {
                uniform token info:id = "UsdPreviewSurface"
                float inputs:roughness = 0.7
                float inputs:metallic = 0
                color3f inputs:diffuseColor = (1, 0.887923, 0.730461)
                token outputs:surface
            }
        }
    }
}
