#usda 1.0
(
    defaultPrim = "Vehicle"
    metersPerUnit = 1
    upAxis = "Y"
)
def Xform "Vehicle" {
    def Mesh "mesh_woodBark" {
        int[] faceVertexCounts = [3, 3, 3, 3, 3, 3, 3, 3, 3, 3, 3, 3, 3, 3, 3, 3, 3, 3]
        int[] faceVertexIndices = [2, 1, 0, 1, 2, 3, 2, 5, 4, 5, 2, 0, 1, 5, 0, 5, 1, 6, 7, 2, 4, 2, 7, 8, 3, 10, 9, 10, 3, 11, 9, 5, 6, 5, 9, 4, 8, 3, 2, 3, 8, 11, 10, 4, 9, 4, 10, 7, 6, 3, 9, 3, 6, 1]
        point3f[] points = [(0.031, 0, 0.031), (-0.031, 0, 0.031), (0.053816, 0.06036, 0.053816), (-0.053816, 0.06036, 0.053816), (0.053816, 0.06036, -0.053816), (0.031, 0, -0.031), (-0.031, 0, -0.031), (0.017794, 1.43468, -0.017794), (0.017794, 1.43468, 0.017794), (-0.053816, 0.06036, -0.053816), (-0.017794, 1.43468, -0.017794), (-0.017794, 1.43468, 0.017794), (0.39196, 1.41419, 0.132717), (0.310917, 1.41419, 0.273089), (0.267738, 1.4887, 0.060997), (0.186694, 1.4887, 0.201369), (-3.29192e-13, 1.43468, -0.05), (0.0288675, 1.43468, -0.05), (-0.0288675, 1.43468, -0.05), (-0.0288675, 1.43468, 0.05), (-0.0433013, 1.43468, 0.025), (-0.0433013, 1.43468, -0.025), (-0.057735, 1.43468, -4.33147e-15), (0.0288675, 1.43468, 0.05), (0.0433013, 1.43468, -0.025), (0.0433013, 1.43468, 0.025), (0.057735, 1.43468, -3.68175e-13), (-2.88765e-15, 1.43468, 0.05), (0.145128, 1.4887, -0.00979168), (0.0640842, 1.4887, 0.13058), (0.0736927, 1.43468, -0.0276395), (0.0129099, 1.43468, 0.0776395), (-0.0584108, 1.26918, -0.506382), (0.0388417, 1.26918, -0.506382), (-0.0810438, 1.41419, -0.405806), (0.0810436, 1.41419, -0.405806), (0.0810436, 1.4887, -0.262366), (-0.0810438, 1.4887, -0.262366), (-0.186694, 1.51459, -0.201369), (-0.267738, 1.51459, -0.060997), (-0.310917, 1.45437, -0.273089), (-0.39196, 1.45437, -0.132717), (0.0810436, 1.4887, -0.120789), (0.0607828, 1.43468, -0.05), (-0.0810438, 1.4887, -0.120789), (-0.0607828, 1.43468, -0.05), (0.267738, 1.51459, -0.0609971), (0.145128, 1.51459, 0.00979152), (0.186694, 1.51459, -0.201369), (0.0640842, 1.51459, -0.13058), (0.0810438, 1.45437, 0.405806), (-0.0810436, 1.45437, 0.405806), (0.0810438, 1.51459, 0.262366), (-0.0810436, 1.51459, 0.262366), (0.39196, 1.45437, -0.132717), (0.310917, 1.45437, -0.273089), (-0.0640842, 1.51459, -0.13058), (-0.145128, 1.51459, 0.00979168), (0.0584108, 1.28988, 0.506382), (-0.0388417, 1.28988, 0.506382), (0.111831, 1.47734, 0.0181106), (0.0402314, 1.47734, -0.105904), (0.467745, 1.26918, 0.202606), (0.419119, 1.26918, 0.286829), (-0.0715999, 1.47734, 0.0877934), (0.0716, 1.47734, 0.0877935), (-0.0810436, 1.51459, 0.120789), (0.0810438, 1.51459, 0.120789), (-0.0129099, 1.43468, 0.0776395), (-0.0640842, 1.4887, 0.13058), (-0.0736927, 1.43468, -0.0276395), (-0.145128, 1.4887, -0.00979152), (-0.186694, 1.4887, 0.201369), (-0.310917, 1.41419, 0.273089), (-0.267738, 1.4887, 0.0609971), (-0.39196, 1.41419, 0.132717), (-0.45796, 1.26918, 0.219553), (-0.409334, 1.26918, 0.303776), (-0.0402314, 1.47734, -0.105904), (-0.111831, 1.47734, 0.0181107), (-0.419119, 1.28988, -0.286829), (-0.467745, 1.28988, -0.202606), (0.409334, 1.28988, -0.303776), (0.45796, 1.28988, -0.219553)]
        normal3f[] normals = [(0, -0.353581, 0.935404), (0, -0.353581, 0.935404), (0, -0.353581, 0.935404), (0, -0.353581, 0.935404), (0, -0.353581, 0.935404), (0, -0.353581, 0.935404), (0.935404, -0.353581, 0), (0.935404, -0.353581, 0), (0.935404, -0.353581, 0), (0.935404, -0.353581, 0), (0.935404, -0.353581, 0), (0.935404, -0.353581, 0), (0, -1, 0), (0, -1, 0), (0, -1, 0), (0, -1, 0), (0, -1, 0), (0, -1, 0), (0.999657, 0.0262018, 0), (0.999657, 0.0262018, 0), (0.999657, 0.0262018, 0), (0.999657, 0.0262018, 0), (0.999657, 0.0262018, 0), (0.999657, 0.0262018, 0), (-0.999657, 0.0262018, 0), (-0.999657, 0.0262018, 0), (-0.999657, 0.0262018, 0), (-0.999657, 0.0262018, 0), (-0.999657, 0.0262018, 0), (-0.999657, 0.0262018, 0), (0, -0.353581, -0.935404), (0, -0.353581, -0.935404), (0, -0.353581, -0.935404), (0, -0.353581, -0.935404), (0, -0.353581, -0.935404), (0, -0.353581, -0.935404), (0, 0.0262018, 0.999657), (0, 0.0262018, 0.999657), (0, 0.0262018, 0.999657), (0, 0.0262018, 0.999657), (0, 0.0262018, 0.999657), (0, 0.0262018, 0.999657), (0, 0.0262018, -0.999657), (0, 0.0262018, -0.999657), (0, 0.0262018, -0.999657), (0, 0.0262018, -0.999657), (0, 0.0262018, -0.999657), (0, 0.0262018, -0.999657), (-0.935404, -0.353581, 0), (-0.935404, -0.353581, 0), (-0.935404, -0.353581, 0), (-0.935404, -0.353581, 0), (-0.935404, -0.353581, 0), (-0.935404, -0.353581, 0)] (interpolation = "faceVarying")
        texCoord2f[] primvars:st = [(2.11874, 2.97202), (-1.22047, 0.431536), (1.22047, 0.431536), (-1.22047, 0.431536), (2.11874, 2.97202), (-2.11874, 2.97202), (-2.11874, 2.97202), (1.22047, 0.431536), (2.11874, 2.97202), (1.22047, 0.431536), (-2.11874, 2.97202), (-1.22047, 0.431536), (-1.22047, 1.22047), (1.22047, -1.22047), (1.22047, 1.22047), (1.22047, -1.22047), (-1.22047, 1.22047), (-1.22047, -1.22047), (0.700551, 56.4457), (-2.11874, 2.32005), (2.11874, 2.32005), (-2.11874, 2.32005), (0.700551, 56.4457), (-0.700551, 56.4457), (2.11874, 2.32005), (-0.700551, 56.4457), (-2.11874, 2.32005), (-0.700551, 56.4457), (2.11874, 2.32005), (0.700551, 56.4457), (2.11874, 2.97202), (-1.22047, 0.431536), (1.22047, 0.431536), (-1.22047, 0.431536), (2.11874, 2.97202), (-2.11874, 2.97202), (0.700551, 56.4457), (-2.11874, 2.32005), (2.11874, 2.32005), (-2.11874, 2.32005), (0.700551, 56.4457), (-0.700551, 56.4457), (0.700551, 56.4457), (-2.11874, 2.32005), (2.11874, 2.32005), (-2.11874, 2.32005), (0.700551, 56.4457), (-0.700551, 56.4457), (-1.22047, 0.431536), (2.11874, 2.97202), (-2.11874, 2.97202), (2.11874, 2.97202), (-1.22047, 0.431536), (1.22047, 0.431536)] (interpolation = "faceVarying")
        uniform token subdivisionScheme = "none"
        rel material:binding = </Vehicle/Materials/woodBark>
    }
    def Mesh "mesh_leafsGreen" {
        int[] faceVertexCounts = [3, 3, 3, 3, 3, 3, 3, 3, 3, 3, 3, 3, 3, 3, 3, 3, 3, 3, 3, 3, 3, 3, 3, 3, 3, 3, 3, 3, 3, 3, 3, 3, 3, 3, 3, 3, 3, 3, 3, 3, 3, 3, 3, 3, 3, 3, 3, 3, 3, 3, 3, 3, 3, 3, 3, 3, 3, 3, 3, 3, 3, 3, 3, 3, 3, 3, 3, 3, 3, 3, 3, 3, 3, 3, 3, 3, 3, 3, 3, 3, 3, 3, 3, 3, 3, 3, 3, 3, 3, 3, 3, 3, 3, 3, 3, 3, 3, 3, 3, 3, 3, 3, 3, 3, 3, 3, 3, 3, 3, 3, 3, 3, 3, 3, 3, 3, 3, 3, 3, 3, 3, 3, 3, 3, 3, 3, 3, 3, 3, 3, 3, 3, 3, 3, 3, 3, 3, 3, 3, 3, 3, 3, 3, 3, 3, 3, 3, 3, 3, 3, 3, 3, 3, 3, 3, 3, 3, 3, 3, 3, 3, 3, 3, 3, 3, 3, 3, 3]
        int[] faceVertexIndices = [14, 13, 12, 13, 14, 15, 12, 13, 14, 15, 14, 13, 10, 8, 7, 8, 10, 11, 7, 16, 10, 16, 7, 17, 8, 17, 7, 10, 16, 18, 10, 18, 11, 11, 18, 19, 19, 18, 20, 20, 18, 21, 20, 21, 22, 23, 17, 8, 23, 24, 17, 25, 24, 23, 24, 25, 26, 23, 8, 27, 27, 8, 11, 27, 11, 19, 7, 8, 10, 11, 10, 8, 10, 16, 7, 17, 7, 16, 7, 17, 8, 18, 16, 10, 11, 18, 10, 19, 18, 11, 20, 18, 19, 21, 18, 20, 22, 21, 20, 8, 17, 23, 17, 24, 23, 23, 24, 25, 26, 25, 24, 27, 8, 23, 11, 8, 27, 19, 11, 27, 30, 29, 28, 29, 30, 26, 29, 26, 25, 29, 25, 31, 31, 25, 23, 28, 29, 30, 26, 30, 29, 25, 26, 29, 31, 25, 29, 23, 25, 31, 34, 33, 32, 33, 34, 35, 32, 33, 34, 35, 34, 33, 28, 15, 14, 15, 28, 29, 14, 15, 28, 29, 28, 15, 34, 36, 35, 36, 34, 37, 35, 36, 34, 37, 34, 36, 40, 39, 38, 39, 40, 41, 38, 39, 40, 41, 40, 39, 44, 43, 42, 43, 44, 17, 17, 44, 16, 16, 44, 18, 18, 44, 45, 42, 43, 44, 17, 44, 43, 16, 44, 17, 18, 44, 16, 45, 44, 18, 48, 47, 46, 47, 48, 49, 46, 47, 48, 49, 48, 47, 52, 51, 50, 51, 52, 53, 50, 51, 52, 53, 52, 51, 55, 46, 54, 46, 55, 48, 54, 46, 55, 48, 55, 46, 38, 57, 56, 57, 38, 39, 56, 57, 38, 39, 38, 57, 50, 59, 58, 59, 50, 51, 58, 59, 50, 51, 50, 59, 49, 60, 47, 60, 49, 26, 26, 49, 61, 26, 61, 24, 24, 61, 17, 47, 60, 49, 26, 49, 60, 61, 49, 26, 24, 61, 26, 17, 61, 24, 13, 62, 12, 62, 13, 63, 12, 62, 13, 63, 13, 62, 64, 27, 19, 27, 64, 23, 23, 64, 65, 65, 64, 66, 65, 66, 67, 19, 27, 64, 23, 64, 27, 65, 64, 23, 66, 64, 65, 67, 66, 65, 19, 69, 68, 69, 19, 20, 69, 20, 22, 69, 22, 70, 69, 70, 71, 68, 69, 19, 20, 19, 69, 22, 20, 69, 70, 22, 69, 71, 70, 69, 74, 73, 72, 73, 74, 75, 72, 73, 74, 75, 74, 73, 76, 73, 75, 73, 76, 77, 75, 73, 76, 77, 76, 73, 78, 21, 18, 21, 78, 56, 21, 56, 22, 22, 56, 79, 79, 56, 57, 18, 21, 78, 56, 78, 21, 22, 56, 21, 79, 56, 22, 57, 56, 79, 71, 72, 69, 72, 71, 74, 69, 72, 71, 74, 71, 72, 37, 42, 36, 42, 37, 44, 36, 42, 37, 44, 37, 42, 67, 53, 52, 53, 67, 66, 52, 53, 67, 66, 67, 53, 81, 40, 80, 40, 81, 41, 80, 40, 81, 41, 81, 40, 55, 83, 82, 83, 55, 54, 82, 83, 55, 54, 55, 83]
        point3f[] points = [(0.031, 0, 0.031), (-0.031, 0, 0.031), (0.053816, 0.06036, 0.053816), (-0.053816, 0.06036, 0.053816), (0.053816, 0.06036, -0.053816), (0.031, 0, -0.031), (-0.031, 0, -0.031), (0.017794, 1.43468, -0.017794), (0.017794, 1.43468, 0.017794), (-0.053816, 0.06036, -0.053816), (-0.017794, 1.43468, -0.017794), (-0.017794, 1.43468, 0.017794), (0.39196, 1.41419, 0.132717), (0.310917, 1.41419, 0.273089), (0.267738, 1.4887, 0.060997), (0.186694, 1.4887, 0.201369), (-3.29192e-13, 1.43468, -0.05), (0.0288675, 1.43468, -0.05), (-0.0288675, 1.43468, -0.05), (-0.0288675, 1.43468, 0.05), (-0.0433013, 1.43468, 0.025), (-0.0433013, 1.43468, -0.025), (-0.057735, 1.43468, -4.33147e-15), (0.0288675, 1.43468, 0.05), (0.0433013, 1.43468, -0.025), (0.0433013, 1.43468, 0.025), (0.057735, 1.43468, -3.68175e-13), (-2.88765e-15, 1.43468, 0.05), (0.145128, 1.4887, -0.00979168), (0.0640842, 1.4887, 0.13058), (0.0736927, 1.43468, -0.0276395), (0.0129099, 1.43468, 0.0776395), (-0.0584108, 1.26918, -0.506382), (0.0388417, 1.26918, -0.506382), (-0.0810438, 1.41419, -0.405806), (0.0810436, 1.41419, -0.405806), (0.0810436, 1.4887, -0.262366), (-0.0810438, 1.4887, -0.262366), (-0.186694, 1.51459, -0.201369), (-0.267738, 1.51459, -0.060997), (-0.310917, 1.45437, -0.273089), (-0.39196, 1.45437, -0.132717), (0.0810436, 1.4887, -0.120789), (0.0607828, 1.43468, -0.05), (-0.0810438, 1.4887, -0.120789), (-0.0607828, 1.43468, -0.05), (0.267738, 1.51459, -0.0609971), (0.145128, 1.51459, 0.00979152), (0.186694, 1.51459, -0.201369), (0.0640842, 1.51459, -0.13058), (0.0810438, 1.45437, 0.405806), (-0.0810436, 1.45437, 0.405806), (0.0810438, 1.51459, 0.262366), (-0.0810436, 1.51459, 0.262366), (0.39196, 1.45437, -0.132717), (0.310917, 1.45437, -0.273089), (-0.0640842, 1.51459, -0.13058), (-0.145128, 1.51459, 0.00979168), (0.0584108, 1.28988, 0.506382), (-0.0388417, 1.28988, 0.506382), (0.111831, 1.47734, 0.0181106), (0.0402314, 1.47734, -0.105904), (0.467745, 1.26918, 0.202606), (0.419119, 1.26918, 0.286829), (-0.0715999, 1.47734, 0.0877934), (0.0716, 1.47734, 0.0877935), (-0.0810436, 1.51459, 0.120789), (0.0810438, 1.51459, 0.120789), (-0.0129099, 1.43468, 0.0776395), (-0.0640842, 1.4887, 0.13058), (-0.0736927, 1.43468, -0.0276395), (-0.145128, 1.4887, -0.00979152), (-0.186694, 1.4887, 0.201369), (-0.310917, 1.41419, 0.273089), (-0.267738, 1.4887, 0.0609971), (-0.39196, 1.41419, 0.132717), (-0.45796, 1.26918, 0.219553), (-0.409334, 1.26918, 0.303776), (-0.0402314, 1.47734, -0.105904), (-0.111831, 1.47734, 0.0181107), (-0.419119, 1.28988, -0.286829), (-0.467745, 1.28988, -0.202606), (0.409334, 1.28988, -0.303776), (0.45796, 1.28988, -0.219553)]
        normal3f[] normals = [(0.399229, 0.887405, 0.230495), (0.399229, 0.887405, 0.230495), (0.399229, 0.887405, 0.230495), (0.399229, 0.887405, 0.230495), (0.399229, 0.887405, 0.230495), (0.399229, 0.887405, 0.230495), (-0.399229, -0.887405, -0.230495), (-0.399229, -0.887405, -0.230495), (-0.399229, -0.887405, -0.230495), (-0.399229, -0.887405, -0.230495), (-0.399229, -0.887405, -0.230495), (-0.399229, -0.887405, -0.230495), (0, 1, 0), (0, 1, 0), (0, 1, 0), (0, 1, 0), (0, 1, 0), (0, 1, 0), (0, 1, 0), (0, 1, 0), (0, 1, 0), (0, 1, 0), (0, 1, 0), (0, 1, 0), (0, 1, 0), (0, 1, 0), (0, 1, 0), (0, 1, 0), (0, 1, 0), (0, 1, 0), (0, 1, 0), (0, 1, 0), (0, 1, 0), (0, 1, 0), (0, 1, 0), (0, 1, 0), (0, 1, 0), (0, 1, 0), (0, 1, 0), (0, 1, 0), (0, 1, 0), (0, 1, 0), (0, 1, 0), (0, 1, 0), (0, 1, 0), (0, 1, 0), (0, 1, 0), (0, 1, 0), (0, 1, 0), (0, 1, 0), (0, 1, 0), (0, 1, 0), (0, 1, 0), (0, 1, 0), (0, 1, 0), (0, 1, 0), (0, 1, 0), (0, 1, 0), (0, 1, 0), (0, 1, 0), (0, 1, 0), (0, 1, 0), (0, 1, 0), (0, 1, 0), (0, 1, 0), (0, 1, 0), (0, -1, 0), (0, -1, 0), (0, -1, 0), (0, -1, 0), (0, -1, 0), (0, -1, 0), (0, -1, 0), (0, -1, 0), (0, -1, 0), (0, -1, 0), (0, -1, 0), (0, -1, 0), (0, -1, 0), (0, -1, 0), (0, -1, 0), (0, -1, 0), (0, -1, 0), (0, -1, 0), (0, -1, 0), (0, -1, 0), (0, -1, 0), (0, -1, 0), (0, -1, 0), (0, -1, 0), (0, -1, 0), (0, -1, 0), (0, -1, 0), (0, -1, 0), (0, -1, 0), (0, -1, 0), (0, -1, 0), (0, -1, 0), (0, -1, 0), (0, -1, 0), (0, -1, 0), (0, -1, 0), (0, -1, 0), (0, -1, 0), (0, -1, 0), (0, -1, 0), (0, -1, 0), (0, -1, 0), (0, -1, 0), (0, -1, 0), (0, -1, 0), (0, -1, 0), (0, -1, 0), (0, -1, 0), (0, -1, 0), (0, -1, 0), (0, -1, 0), (0, -1, 0), (0, -1, 0), (0, -1, 0), (-0.525395, 0.794951, -0.303337), (-0.525395, 0.794951, -0.303337), (-0.525395, 0.794951, -0.303337), (-0.525395, 0.794951, -0.303337), (-0.525395, 0.794951, -0.303337), (-0.525395, 0.794951, -0.303337), (-0.525395, 0.794951, -0.303337), (-0.525395, 0.794951, -0.303337), (-0.525395, 0.794951, -0.303337), (-0.525395, 0.794951, -0.303337), (-0.525395, 0.794951, -0.303337), (-0.525395, 0.794951, -0.303337), (-0.525395, 0.794951, -0.303337), (-0.525395, 0.794951, -0.303337), (-0.525395, 0.794951, -0.303337), (0.525395, -0.794951, 0.303337), (0.525395, -0.794951, 0.303337), (0.525395, -0.794951, 0.303337), (0.525395, -0.794951, 0.303337), (0.525395, -0.794951, 0.303337), (0.525395, -0.794951, 0.303337), (0.525395, -0.794951, 0.303337), (0.525395, -0.794951, 0.303337), (0.525395, -0.794951, 0.303337), (0.525395, -0.794951, 0.303337), (0.525395, -0.794951, 0.303337), (0.525395, -0.794951, 0.303337), (0.525395, -0.794951, 0.303337), (0.525395, -0.794951, 0.303337), (0.525395, -0.794951, 0.303337), (0, 0.569925, -0.821697), (0, 0.569925, -0.821697), (0, 0.569925, -0.821697), (0, 0.569925, -0.821697), (0, 0.569925, -0.821697), (0, 0.569925, -0.821697), (0, -0.569925, 0.821697), (0, -0.569925, 0.821697), (0, -0.569925, 0.821697), (0, -0.569925, 0.821697), (0, -0.569925, 0.821697), (0, -0.569925, 0.821697), (0, 1, 0), (0, 1, 0), (0, 1, 0), (0, 1, 0), (0, 1, 0), (0, 1, 0), (0, -1, 0), (0, -1, 0), (0, -1, 0), (0, -1, 0), (0, -1, 0), (0, -1, 0), (0, 0.887405, -0.46099), (0, 0.887405, -0.46099), (0, 0.887405, -0.46099), (0, 0.887405, -0.46099), (0, 0.887405, -0.46099), (0, 0.887405, -0.46099), (0, -0.887405, 0.46099), (0, -0.887405, 0.46099), (0, -0.887405, 0.46099), (0, -0.887405, 0.46099), (0, -0.887405, 0.46099), (0, -0.887405, 0.46099), (-0.335243, 0.922035, -0.193553), (-0.335243, 0.922035, -0.193553), (-0.335243, 0.922035, -0.193553), (-0.335243, 0.922035, -0.193553), (-0.335243, 0.922035, -0.193553), (-0.335243, 0.922035, -0.193553), (0.335243, -0.922035, 0.193553), (0.335243, -0.922035, 0.193553), (0.335243, -0.922035, 0.193553), (0.335243, -0.922035, 0.193553), (0.335243, -0.922035, 0.193553), (0.335243, -0.922035, 0.193553), (0, 0.794951, 0.606673), (0, 0.794951, 0.606673), (0, 0.794951, 0.606673), (0, 0.794951, 0.606673), (0, 0.794951, 0.606673), (0, 0.794951, 0.606673), (0, 0.794951, 0.606673), (0, 0.794951, 0.606673), (0, 0.794951, 0.606673), (0, 0.794951, 0.606673), (0, 0.794951, 0.606673), (0, 0.794951, 0.606673), (0, 0.794951, 0.606673), (0, 0.794951, 0.606673), (0, 0.794951, 0.606673), (0, -0.794951, -0.606673), (0, -0.794951, -0.606673), (0, -0.794951, -0.606673), (0, -0.794951, -0.606673), (0, -0.794951, -0.606673), (0, -0.794951, -0.606673), (0, -0.794951, -0.606673), (0, -0.794951, -0.606673), (0, -0.794951, -0.606673), (0, -0.794951, -0.606673), (0, -0.794951, -0.606673), (0, -0.794951, -0.606673), (0, -0.794951, -0.606673), (0, -0.794951, -0.606673), (0, -0.794951, -0.606673), (0, 1, 0), (0, 1, 0), (0, 1, 0), (0, 1, 0), (0, 1, 0), (0, 1, 0), (0, -1, 0), (0, -1, 0), (0, -1, 0), (0, -1, 0), (0, -1, 0), (0, -1, 0), (0, 0.922035, 0.387106), (0, 0.922035, 0.387106), (0, 0.922035, 0.387106), (0, 0.922035, 0.387106), (0, 0.922035, 0.387106), (0, 0.922035, 0.387106), (0, -0.922035, -0.387106), (0, -0.922035, -0.387106), (0, -0.922035, -0.387106), (0, -0.922035, -0.387106), (0, -0.922035, -0.387106), (0, -0.922035, -0.387106), (0.335243, 0.922035, -0.193553), (0.335243, 0.922035, -0.193553), (0.335243, 0.922035, -0.193553), (0.335243, 0.922035, -0.193553), (0.335243, 0.922035, -0.193553), (0.335243, 0.922035, -0.193553), (-0.335243, -0.922035, 0.193553), (-0.335243, -0.922035, 0.193553), (-0.335243, -0.922035, 0.193553), (-0.335243, -0.922035, 0.193553), (-0.335243, -0.922035, 0.193553), (-0.335243, -0.922035, 0.193553), (0, 1, 0), (0, 1, 0), (0, 1, 0), (0, 1, 0), (0, 1, 0), (0, 1, 0), (0, -1, 0), (0, -1, 0), (0, -1, 0), (0, -1, 0), (0, -1, 0), (0, -1, 0), (0, 0.521647, 0.853162), (0, 0.521647, 0.853162), (0, 0.521647, 0.853162), (0, 0.521647, 0.853162), (0, 0.521647, 0.853162), (0, 0.521647, 0.853162), (0, -0.521647, -0.853162), (0, -0.521647, -0.853162), (0, -0.521647, -0.853162), (0, -0.521647, -0.853162), (0, -0.521647, -0.853162), (0, -0.521647, -0.853162), (-0.648254, 0.663091, 0.374269), (-0.648254, 0.663091, 0.374269), (-0.648254, 0.663091, 0.374269), (-0.648254, 0.663091, 0.374269), (-0.648254, 0.663091, 0.374269), (-0.648254, 0.663091, 0.374269), (-0.648254, 0.663091, 0.374269), (-0.648254, 0.663091, 0.374269), (-0.648254, 0.663091, 0.374269), (-0.648254, 0.663091, 0.374269), (-0.648254, 0.663091, 0.374269), (-0.648254, 0.663091, 0.374269), (-0.648254, 0.663091, 0.374269), (-0.648254, 0.663091, 0.374269), (-0.648254, 0.663091, 0.374269), (0.648254, -0.663091, -0.374269), (0.648254, -0.663091, -0.374269), (0.648254, -0.663091, -0.374269), (0.648254, -0.663091, -0.374269), (0.648254, -0.663091, -0.374269), (0.648254, -0.663091, -0.374269), (0.648254, -0.663091, -0.374269), (0.648254, -0.663091, -0.374269), (0.648254, -0.663091, -0.374269), (0.648254, -0.663091, -0.374269), (0.648254, -0.663091, -0.374269), (0.648254, -0.663091, -0.374269), (0.648254, -0.663091, -0.374269), (0.648254, -0.663091, -0.374269), (0.648254, -0.663091, -0.374269), (0.71161, 0.569925, 0.410848), (0.71161, 0.569925, 0.410848), (0.71161, 0.569925, 0.410848), (0.71161, 0.569925, 0.410848), (0.71161, 0.569925, 0.410848), (0.71161, 0.569925, 0.410848), (-0.71161, -0.569925, -0.410848), (-0.71161, -0.569925, -0.410848), (-0.71161, -0.569925, -0.410848), (-0.71161, -0.569925, -0.410848), (-0.71161, -0.569925, -0.410848), (-0.71161, -0.569925, -0.410848), (0, 0.663091, -0.748539), (0, 0.663091, -0.748539), (0, 0.663091, -0.748539), (0, 0.663091, -0.748539), (0, 0.663091, -0.748539), (0, 0.663091, -0.748539), (0, 0.663091, -0.748539), (0, 0.663091, -0.748539), (0, 0.663091, -0.748539), (0, 0.663091, -0.748539), (0, 0.663091, -0.748539), (0, 0.663091, -0.748539), (0, 0.663091, -0.748539), (0, 0.663091, -0.748539), (0, 0.663091, -0.748539), (0, -0.663091, 0.748539), (0, -0.663091, 0.748539), (0, -0.663091, 0.748539), (0, -0.663091, 0.748539), (0, -0.663091, 0.748539), (0, -0.663091, 0.748539), (0, -0.663091, 0.748539), (0, -0.663091, 0.748539), (0, -0.663091, 0.748539), (0, -0.663091, 0.748539), (0, -0.663091, 0.748539), (0, -0.663091, 0.748539), (0, -0.663091, 0.748539), (0, -0.663091, 0.748539), (0, -0.663091, 0.748539), (0.525395, 0.794951, -0.303337), (0.525395, 0.794951, -0.303337), (0.525395, 0.794951, -0.303337), (0.525395, 0.794951, -0.303337), (0.525395, 0.794951, -0.303337), (0.525395, 0.794951, -0.303337), (0.525395, 0.794951, -0.303337), (0.525395, 0.794951, -0.303337), (0.525395, 0.794951, -0.303337), (0.525395, 0.794951, -0.303337), (0.525395, 0.794951, -0.303337), (0.525395, 0.794951, -0.303337), (0.525395, 0.794951, -0.303337), (0.525395, 0.794951, -0.303337), (0.525395, 0.794951, -0.303337), (-0.525395, -0.794951, 0.303337), (-0.525395, -0.794951, 0.303337), (-0.525395, -0.794951, 0.303337), (-0.525395, -0.794951, 0.303337), (-0.525395, -0.794951, 0.303337), (-0.525395, -0.794951, 0.303337), (-0.525395, -0.794951, 0.303337), (-0.525395, -0.794951, 0.303337), (-0.525395, -0.794951, 0.303337), (-0.525395, -0.794951, 0.303337), (-0.525395, -0.794951, 0.303337), (-0.525395, -0.794951, 0.303337), (-0.525395, -0.794951, 0.303337), (-0.525395, -0.794951, 0.303337), (-0.525395, -0.794951, 0.303337), (-0.399229, 0.887405, 0.230495), (-0.399229, 0.887405, 0.230495), (-0.399229, 0.887405, 0.230495), (-0.399229, 0.887405, 0.230495), (-0.399229, 0.887405, 0.230495), (-0.399229, 0.887405, 0.230495), (0.399229, -0.887405, -0.230495), (0.399229, -0.887405, -0.230495), (0.399229, -0.887405, -0.230495), (0.399229, -0.887405, -0.230495), (0.399229, -0.887405, -0.230495), (0.399229, -0.887405, -0.230495), (-0.71161, 0.569925, 0.410848), (-0.71161, 0.569925, 0.410848), (-0.71161, 0.569925, 0.410848), (-0.71161, 0.569925, 0.410848), (-0.71161, 0.569925, 0.410848), (-0.71161, 0.569925, 0.410848), (0.71161, -0.569925, -0.410848), (0.71161, -0.569925, -0.410848), (0.71161, -0.569925, -0.410848), (0.71161, -0.569925, -0.410848), (0.71161, -0.569925, -0.410848), (0.71161, -0.569925, -0.410848), (0.648254, 0.663091, 0.374269), (0.648254, 0.663091, 0.374269), (0.648254, 0.663091, 0.374269), (0.648254, 0.663091, 0.374269), (0.648254, 0.663091, 0.374269), (0.648254, 0.663091, 0.374269), (0.648254, 0.663091, 0.374269), (0.648254, 0.663091, 0.374269), (0.648254, 0.663091, 0.374269), (0.648254, 0.663091, 0.374269), (0.648254, 0.663091, 0.374269), (0.648254, 0.663091, 0.374269), (0.648254, 0.663091, 0.374269), (0.648254, 0.663091, 0.374269), (0.648254, 0.663091, 0.374269), (-0.648254, -0.663091, -0.374269), (-0.648254, -0.663091, -0.374269), (-0.648254, -0.663091, -0.374269), (-0.648254, -0.663091, -0.374269), (-0.648254, -0.663091, -0.374269), (-0.648254, -0.663091, -0.374269), (-0.648254, -0.663091, -0.374269), (-0.648254, -0.663091, -0.374269), (-0.648254, -0.663091, -0.374269), (-0.648254, -0.663091, -0.374269), (-0.648254, -0.663091, -0.374269), (-0.648254, -0.663091, -0.374269), (-0.648254, -0.663091, -0.374269), (-0.648254, -0.663091, -0.374269), (-0.648254, -0.663091, -0.374269), (0, 1, 0), (0, 1, 0), (0, 1, 0), (0, 1, 0), (0, 1, 0), (0, 1, 0), (0, -1, 0), (0, -1, 0), (0, -1, 0), (0, -1, 0), (0, -1, 0), (0, -1, 0), (0, 1, 0), (0, 1, 0), (0, 1, 0), (0, 1, 0), (0, 1, 0), (0, 1, 0), (0, -1, 0), (0, -1, 0), (0, -1, 0), (0, -1, 0), (0, -1, 0), (0, -1, 0), (0, 1, 0), (0, 1, 0), (0, 1, 0), (0, 1, 0), (0, 1, 0), (0, 1, 0), (0, -1, 0), (0, -1, 0), (0, -1, 0), (0, -1, 0), (0, -1, 0), (0, -1, 0), (-0.73886, 0.521647, -0.426581), (-0.73886, 0.521647, -0.426581), (-0.73886, 0.521647, -0.426581), (-0.73886, 0.521647, -0.426581), (-0.73886, 0.521647, -0.426581), (-0.73886, 0.521647, -0.426581), (0.73886, -0.521647, 0.426581), (0.73886, -0.521647, 0.426581), (0.73886, -0.521647, 0.426581), (0.73886, -0.521647, 0.426581), (0.73886, -0.521647, 0.426581), (0.73886, -0.521647, 0.426581), (0.73886, 0.521647, -0.426581), (0.73886, 0.521647, -0.426581), (0.73886, 0.521647, -0.426581), (0.73886, 0.521647, -0.426581), (0.73886, 0.521647, -0.426581), (0.73886, 0.521647, -0.426581), (-0.73886, -0.521647, 0.426581), (-0.73886, -0.521647, 0.426581), (-0.73886, -0.521647, 0.426581), (-0.73886, -0.521647, 0.426581), (-0.73886, -0.521647, 0.426581), (-0.73886, -0.521647, 0.426581)] (interpolation = "faceVarying")
        texCoord2f[] primvars:st = [(3.1907, 17.8524), (-3.19069, 11.4886), (3.1907, 11.4886), (-3.19069, 11.4886), (3.1907, 17.8524), (-3.19069, 17.8524), (3.1907, 11.4886), (-3.19069, 11.4886), (3.1907, 17.8524), (-3.19069, 17.8524), (3.1907, 17.8524), (-3.19069, 11.4886), (0.700551, -0.700551), (-0.700551, 0.700551), (-0.700551, -0.700551), (-0.700551, 0.700551), (0.700551, -0.700551), (0.700551, 0.700551), (-0.700551, -0.700551), (1.29603e-11, -1.9685), (0.700551, -0.700551), (1.29603e-11, -1.9685), (-0.700551, -0.700551), (-1.13652, -1.9685), (-0.700551, 0.700551), (-1.13652, -1.9685), (-0.700551, -0.700551), (0.700551, -0.700551), (1.29603e-11, -1.9685), (1.13652, -1.9685), (0.700551, -0.700551), (1.13652, -1.9685), (0.700551, 0.700551), (0.700551, 0.700551), (1.13652, -1.9685), (1.13652, 1.9685), (1.13652, 1.9685), (1.13652, -1.9685), (1.70477, 0.984252), (1.70477, 0.984252), (1.13652, -1.9685), (1.70477, -0.984252), (1.70477, 0.984252), (1.70477, -0.984252), (2.27303, -1.7053e-13), (-1.13652, 1.9685), (-1.13652, -1.9685), (-0.700551, 0.700551), (-1.13652, 1.9685), (-1.70477, -0.984252), (-1.13652, -1.9685), (-1.70477, 0.984252), (-1.70477, -0.984252), (-1.13652, 1.9685), (-1.70477, -0.984252), (-1.70477, 0.984252), (-2.27303, -1.44951e-11), (-1.13652, 1.9685), (-0.700551, 0.700551), (1.13687e-13, 1.9685), (1.13687e-13, 1.9685), (-0.700551, 0.700551), (0.700551, 0.700551), (1.13687e-13, 1.9685), (0.700551, 0.700551), (1.13652, 1.9685), (-0.700551, -0.700551), (-0.700551, 0.700551), (0.700551, -0.700551), (0.700551, 0.700551), (0.700551, -0.700551), (-0.700551, 0.700551), (0.700551, -0.700551), (1.29603e-11, -1.9685), (-0.700551, -0.700551), (-1.13652, -1.9685), (-0.700551, -0.700551), (1.29603e-11, -1.9685), (-0.700551, -0.700551), (-1.13652, -1.9685), (-0.700551, 0.700551), (1.13652, -1.9685), (1.29603e-11, -1.9685), (0.700551, -0.700551), (0.700551, 0.700551), (1.13652, -1.9685), (0.700551, -0.700551), (1.13652, 1.9685), (1.13652, -1.9685), (0.700551, 0.700551), (1.70477, 0.984252), (1.13652, -1.9685), (1.13652, 1.9685), (1.70477, -0.984252), (1.13652, -1.9685), (1.70477, 0.984252), (2.27303, -1.7053e-13), (1.70477, -0.984252), (1.70477, 0.984252), (-0.700551, 0.700551), (-1.13652, -1.9685), (-1.13652, 1.9685), (-1.13652, -1.9685), (-1.70477, -0.984252), (-1.13652, 1.9685), (-1.13652, 1.9685), (-1.70477, -0.984252), (-1.70477, 0.984252), (-2.27303, -1.44951e-11), (-1.70477, 0.984252), (-1.70477, -0.984252), (1.13687e-13, 1.9685), (-0.700551, 0.700551), (-1.13652, 1.9685), (0.700551, 0.700551), (-0.700551, 0.700551), (1.13687e-13, 1.9685), (1.13652, 1.9685), (0.700551, 0.700551), (1.13687e-13, 1.9685), (-2.39302, 35.8319), (3.19069, 39.3377), (-3.1907, 39.3377), (3.19069, 39.3377), (-2.39302, 35.8319), (-1.13652, 35.8319), (3.19069, 39.3377), (-1.13652, 35.8319), (3.90798e-14, 35.8319), (3.19069, 39.3377), (3.90798e-14, 35.8319), (2.39302, 35.8319), (2.39302, 35.8319), (3.90798e-14, 35.8319), (1.13652, 35.8319), (-3.1907, 39.3377), (3.19069, 39.3377), (-2.39302, 35.8319), (-1.13652, 35.8319), (-2.39302, 35.8319), (3.19069, 39.3377), (3.90798e-14, 35.8319), (-1.13652, 35.8319), (3.19069, 39.3377), (2.39302, 35.8319), (3.90798e-14, 35.8319), (3.19069, 39.3377), (1.13652, 35.8319), (3.90798e-14, 35.8319), (2.39302, 35.8319), (3.1907, 36.6439), (-1.5292, 29.6962), (2.29964, 29.6962), (-1.5292, 29.6962), (3.1907, 36.6439), (-3.19069, 36.6439), (2.29964, 29.6962), (-1.5292, 29.6962), (3.1907, 36.6439), (-3.19069, 36.6439), (3.1907, 36.6439), (-1.5292, 29.6962), (-5.7137, -0.385499), (-7.35015, 7.92791), (-10.5409, 2.40146), (-7.35015, 7.92791), (-5.7137, -0.385499), (-2.523, 5.14095), (-10.5409, 2.40146), (-7.35015, 7.92791), (-5.7137, -0.385499), (-2.523, 5.14095), (-5.7137, -0.385499), (-7.35015, 7.92791), (3.1907, 11.4886), (-3.19069, 17.8524), (-3.19069, 11.4886), (-3.19069, 17.8524), (3.1907, 11.4886), (3.1907, 17.8524), (-3.19069, 11.4886), (-3.19069, 17.8524), (3.1907, 11.4886), (3.1907, 17.8524), (3.1907, 11.4886), (-3.19069, 17.8524), (-3.19069, 7.43413), (3.1907, 13.5589), (-3.19069, 13.5589), (3.1907, 13.5589), (-3.19069, 7.43413), (3.1907, 7.43413), (-3.19069, 13.5589), (3.1907, 13.5589), (-3.19069, 7.43413), (3.1907, 7.43413), (-3.19069, 7.43413), (3.1907, 13.5589), (-3.1907, 39.3377), (2.39302, 35.8319), (3.19069, 39.3377), (2.39302, 35.8319), (-3.1907, 39.3377), (1.13652, 35.8319), (1.13652, 35.8319), (-3.1907, 39.3377), (-1.29603e-11, 35.8319), (-1.29603e-11, 35.8319), (-3.1907, 39.3377), (-1.13652, 35.8319), (-1.13652, 35.8319), (-3.1907, 39.3377), (-2.39302, 35.8319), (3.19069, 39.3377), (2.39302, 35.8319), (-3.1907, 39.3377), (1.13652, 35.8319), (-3.1907, 39.3377), (2.39302, 35.8319), (-1.29603e-11, 35.8319), (-3.1907, 39.3377), (1.13652, 35.8319), (-1.13652, 35.8319), (-3.1907, 39.3377), (-1.29603e-11, 35.8319), (-2.39302, 35.8319), (-3.1907, 39.3377), (-1.13652, 35.8319), (-7.35015, -7.92791), (-5.7137, 0.385493), (-10.5409, -2.40146), (-5.7137, 0.385493), (-7.35015, -7.92791), (-2.523, -5.14096), (-10.5409, -2.40146), (-5.7137, 0.385493), (-7.35015, -7.92791), (-2.523, -5.14096), (-7.35015, -7.92791), (-5.7137, 0.385493), (3.1907, 13.5589), (-3.19069, 7.43413), (3.1907, 7.43413), (-3.19069, 7.43413), (3.1907, 13.5589), (-3.19069, 13.5589), (3.1907, 7.43413), (-3.19069, 7.43413), (3.1907, 13.5589), (-3.19069, 13.5589), (3.1907, 13.5589), (-3.19069, 7.43413), (3.1907, 7.43413), (-3.19069, 13.5589), (-3.19069, 7.43413), (-3.19069, 13.5589), (3.1907, 7.43413), (3.1907, 13.5589), (-3.19069, 7.43413), (-3.19069, 13.5589), (3.1907, 7.43413), (3.1907, 13.5589), (3.1907, 7.43413), (-3.19069, 13.5589), (7.35015, -7.92791), (5.7137, 0.385499), (2.523, -5.14095), (5.7137, 0.385499), (7.35015, -7.92791), (10.5409, -2.40146), (2.523, -5.14095), (5.7137, 0.385499), (7.35015, -7.92791), (10.5409, -2.40146), (7.35015, -7.92791), (5.7137, 0.385499), (3.1907, 40.5167), (-1.5292, 32.926), (2.29964, 32.926), (-1.5292, 32.926), (3.1907, 40.5167), (-3.19069, 40.5167), (2.29964, 32.926), (-1.5292, 32.926), (3.1907, 40.5167), (-3.19069, 40.5167), (3.1907, 40.5167), (-1.5292, 32.926), (-3.1907, 47.7884), (2.81889, 45.8293), (3.19069, 47.7884), (2.81889, 45.8293), (-3.1907, 47.7884), (1.13652, 43.5854), (1.13652, 43.5854), (-3.1907, 47.7884), (-2.8189, 45.8293), (1.13652, 43.5854), (-2.8189, 45.8293), (-1.29565e-11, 43.5854), (-1.29565e-11, 43.5854), (-2.8189, 45.8293), (-1.13652, 43.5854), (3.19069, 47.7884), (2.81889, 45.8293), (-3.1907, 47.7884), (1.13652, 43.5854), (-3.1907, 47.7884), (2.81889, 45.8293), (-2.8189, 45.8293), (-3.1907, 47.7884), (1.13652, 43.5854), (-1.29565e-11, 43.5854), (-2.8189, 45.8293), (1.13652, 43.5854), (-1.13652, 43.5854), (-2.8189, 45.8293), (-1.29565e-11, 43.5854), (-3.19069, 36.6439), (2.29964, 29.6962), (3.1907, 36.6439), (2.29964, 29.6962), (-3.19069, 36.6439), (-1.5292, 29.6962), (3.1907, 36.6439), (2.29964, 29.6962), (-3.19069, 36.6439), (-1.5292, 29.6962), (-3.19069, 36.6439), (2.29964, 29.6962), (2.81889, 45.8293), (1.28079e-11, 43.5854), (1.13652, 43.5854), (1.28079e-11, 43.5854), (2.81889, 45.8293), (-1.13652, 43.5854), (-1.13652, 43.5854), (2.81889, 45.8293), (-2.8189, 45.8293), (-2.8189, 45.8293), (2.81889, 45.8293), (3.19069, 47.7884), (-2.8189, 45.8293), (3.19069, 47.7884), (-3.1907, 47.7884), (1.13652, 43.5854), (1.28079e-11, 43.5854), (2.81889, 45.8293), (-1.13652, 43.5854), (2.81889, 45.8293), (1.28079e-11, 43.5854), (-2.8189, 45.8293), (2.81889, 45.8293), (-1.13652, 43.5854), (3.19069, 47.7884), (2.81889, 45.8293), (-2.8189, 45.8293), (-3.1907, 47.7884), (3.19069, 47.7884), (-2.8189, 45.8293), (-1.13652, 35.8319), (-3.1907, 39.3377), (-2.39302, 35.8319), (-3.1907, 39.3377), (-1.13652, 35.8319), (1.29035e-11, 35.8319), (-3.1907, 39.3377), (1.29035e-11, 35.8319), (1.13652, 35.8319), (-3.1907, 39.3377), (1.13652, 35.8319), (2.39302, 35.8319), (-3.1907, 39.3377), (2.39302, 35.8319), (3.19069, 39.3377), (-2.39302, 35.8319), (-3.1907, 39.3377), (-1.13652, 35.8319), (1.29035e-11, 35.8319), (-1.13652, 35.8319), (-3.1907, 39.3377), (1.13652, 35.8319), (1.29035e-11, 35.8319), (-3.1907, 39.3377), (2.39302, 35.8319), (1.13652, 35.8319), (-3.1907, 39.3377), (3.19069, 39.3377), (2.39302, 35.8319), (-3.1907, 39.3377), (-3.19069, 17.8524), (3.1907, 11.4886), (3.1907, 17.8524), (3.1907, 11.4886), (-3.19069, 17.8524), (-3.19069, 11.4886), (3.1907, 17.8524), (3.1907, 11.4886), (-3.19069, 17.8524), (-3.19069, 11.4886), (-3.19069, 17.8524), (3.1907, 11.4886), (-1.5292, 29.6962), (3.1907, 36.6439), (-3.19069, 36.6439), (3.1907, 36.6439), (-1.5292, 29.6962), (2.29964, 29.6962), (-3.19069, 36.6439), (3.1907, 36.6439), (-1.5292, 29.6962), (2.29964, 29.6962), (-1.5292, 29.6962), (3.1907, 36.6439), (2.81889, 45.8293), (-3.44169e-15, 43.5854), (1.13652, 43.5854), (-3.44169e-15, 43.5854), (2.81889, 45.8293), (3.19069, 47.7884), (-3.44169e-15, 43.5854), (3.19069, 47.7884), (-1.13652, 43.5854), (-1.13652, 43.5854), (3.19069, 47.7884), (-2.8189, 45.8293), (-2.8189, 45.8293), (3.19069, 47.7884), (-3.1907, 47.7884), (1.13652, 43.5854), (-3.44169e-15, 43.5854), (2.81889, 45.8293), (3.19069, 47.7884), (2.81889, 45.8293), (-3.44169e-15, 43.5854), (-1.13652, 43.5854), (3.19069, 47.7884), (-3.44169e-15, 43.5854), (-2.8189, 45.8293), (3.19069, 47.7884), (-1.13652, 43.5854), (-3.1907, 47.7884), (3.19069, 47.7884), (-2.8189, 45.8293), (5.7137, -0.385493), (7.35015, 7.92791), (2.523, 5.14096), (7.35015, 7.92791), (5.7137, -0.385493), (10.5409, 2.40146), (2.523, 5.14096), (7.35015, 7.92791), (5.7137, -0.385493), (10.5409, 2.40146), (5.7137, -0.385493), (7.35015, 7.92791), (3.1907, -10.3294), (-3.19069, -4.75546), (-3.19069, -10.3294), (-3.19069, -4.75546), (3.1907, -10.3294), (3.1907, -4.75546), (-3.19069, -10.3294), (-3.19069, -4.75546), (3.1907, -10.3294), (3.1907, -4.75546), (3.1907, -10.3294), (-3.19069, -4.75546), (-3.1907, 4.75546), (3.19069, 10.3294), (-3.1907, 10.3294), (3.19069, 10.3294), (-3.1907, 4.75546), (3.19069, 4.75546), (-3.1907, 10.3294), (3.19069, 10.3294), (-3.1907, 4.75546), (3.19069, 4.75546), (-3.1907, 4.75546), (3.19069, 10.3294), (2.29964, 32.926), (-3.19069, 40.5167), (-1.5292, 32.926), (-3.19069, 40.5167), (2.29964, 32.926), (3.1907, 40.5167), (-1.5292, 32.926), (-3.19069, 40.5167), (2.29964, 32.926), (3.1907, 40.5167), (2.29964, 32.926), (-3.19069, 40.5167), (3.1907, 40.5167), (-1.5292, 32.926), (2.29964, 32.926), (-1.5292, 32.926), (3.1907, 40.5167), (-3.19069, 40.5167), (2.29964, 32.926), (-1.5292, 32.926), (3.1907, 40.5167), (-3.19069, 40.5167), (3.1907, 40.5167), (-1.5292, 32.926)] (interpolation = "faceVarying")
        uniform token subdivisionScheme = "none"
        rel material:binding = </Vehicle/Materials/leafsGreen>
    }
    def Scope "Materials" {
        def Material "woodBark" {
            token outputs:surface.connect = </Vehicle/Materials/woodBark/surface.outputs:surface>
            def Shader "surface" {
                uniform token info:id = "UsdPreviewSurface"
                float inputs:roughness = 0.7
                float inputs:metallic = 0
                color3f inputs:diffuseColor = (0.886274, 0.513725, 0.341176)
                token outputs:surface
            }
        }
        def Material "leafsGreen" {
            token outputs:surface.connect = </Vehicle/Materials/leafsGreen/surface.outputs:surface>
            def Shader "surface" {
                uniform token info:id = "UsdPreviewSurface"
                float inputs:roughness = 0.7
                float inputs:metallic = 0
                color3f inputs:diffuseColor = (0.160784, 0.788235, 0.670588)
                token outputs:surface
            }
        }
    }
}
