#usda 1.0
(
    defaultPrim = "Vehicle"
    metersPerUnit = 1
    upAxis = "Y"
)
def Xform "Vehicle" {
    def Mesh "mesh_leafsFall" {
        int[] faceVertexCounts = [3, 3, 3, 3, 3, 3, 3, 3, 3, 3, 3, 3, 3, 3, 3, 3, 3, 3, 3, 3, 3, 3, 3, 3, 3, 3, 3, 3, 3, 3, 3, 3, 3, 3, 3, 3, 3, 3, 3, 3, 3, 3, 3, 3, 3, 3, 3, 3, 3, 3, 3, 3, 3, 3, 3, 3, 3, 3, 3, 3, 3, 3, 3, 3, 3, 3, 3, 3, 3, 3, 3, 3, 3, 3, 3, 3, 3, 3, 3, 3, 3, 3, 3, 3, 3, 3, 3, 3, 3, 3, 3, 3, 3, 3, 3, 3, 3, 3, 3, 3, 3, 3, 3, 3, 3, 3, 3, 3, 3, 3, 3, 3, 3, 3, 3, 3, 3, 3, 3, 3, 3, 3, 3, 3, 3, 3, 3, 3, 3, 3, 3, 3, 3, 3, 3, 3, 3, 3, 3, 3, 3, 3, 3, 3, 3, 3, 3, 3, 3, 3, 3, 3, 3, 3, 3, 3, 3, 3, 3, 3, 3, 3, 3, 3, 3, 3, 3, 3, 3, 3, 3, 3, 3, 3, 3, 3, 3, 3, 3, 3, 3, 3, 3, 3, 3, 3, 3, 3, 3, 3, 3, 3, 3, 3, 3, 3, 3, 3, 3, 3, 3, 3, 3, 3, 3, 3, 3, 3, 3, 3, 3, 3, 3, 3, 3, 3, 3, 3, 3, 3, 3, 3, 3, 3, 3, 3, 3, 3, 3, 3, 3, 3, 3, 3, 3, 3, 3, 3, 3, 3, 3, 3, 3, 3, 3, 3, 3, 3, 3, 3, 3, 3, 3, 3, 3, 3, 3, 3, 3, 3, 3, 3, 3, 3, 3, 3, 3, 3, 3, 3, 3, 3, 3, 3, 3, 3, 3, 3, 3, 3]
        int[] faceVertexIndices = [2, 1, 0, 1, 2, 3, 6, 5, 4, 5, 6, 7, 10, 9, 8, 9, 10, 11, 9, 11, 12, 12, 11, 13, 13, 11, 14, 15, 14, 11, 14, 15, 16, 17, 10, 8, 17, 18, 10, 18, 17, 19, 22, 21, 20, 21, 22, 23, 21, 5, 20, 5, 21, 4, 24, 16, 15, 16, 24, 25, 25, 24, 26, 27, 26, 24, 18, 26, 27, 26, 18, 19, 29, 13, 28, 13, 29, 12, 32, 31, 30, 31, 32, 33, 32, 35, 34, 35, 32, 30, 38, 37, 36, 41, 40, 39, 36, 42, 40, 42, 36, 43, 44, 42, 43, 42, 44, 45, 46, 5, 7, 44, 43, 47, 48, 3, 2, 3, 48, 49, 52, 51, 50, 51, 52, 53, 56, 55, 54, 55, 56, 57, 10, 18, 58, 23, 59, 21, 31, 61, 60, 61, 31, 33, 37, 62, 47, 62, 37, 63, 65, 7, 64, 7, 65, 46, 65, 64, 66, 44, 67, 45, 67, 44, 34, 45, 67, 68, 67, 34, 69, 68, 35, 45, 35, 69, 34, 35, 68, 70, 35, 70, 69, 41, 36, 40, 36, 41, 38, 73, 72, 71, 72, 73, 74, 28, 76, 75, 76, 28, 22, 78, 77, 10, 77, 78, 79, 77, 79, 80, 80, 79, 81, 82, 10, 77, 10, 82, 11, 11, 82, 81, 11, 81, 79, 33, 63, 61, 72, 78, 71, 78, 72, 79, 54, 84, 83, 84, 54, 55, 38, 63, 37, 63, 38, 61, 45, 85, 42, 49, 86, 3, 83, 18, 27, 18, 83, 58, 48, 2, 87, 72, 89, 88, 89, 72, 74, 46, 20, 5, 20, 46, 76, 90, 41, 39, 41, 90, 60, 88, 79, 72, 62, 44, 47, 44, 62, 34, 30, 90, 91, 90, 30, 31, 30, 91, 35, 24, 54, 27, 54, 24, 56, 62, 33, 32, 33, 62, 63, 92, 57, 56, 57, 92, 89, 55, 73, 84, 51, 94, 93, 94, 51, 95, 52, 49, 96, 49, 52, 86, 99, 98, 97, 102, 101, 100, 101, 102, 103, 28, 23, 22, 23, 28, 14, 14, 28, 13, 104, 17, 6, 17, 104, 19, 19, 104, 26, 87, 106, 105, 106, 87, 107, 103, 109, 108, 109, 103, 110, 110, 103, 111, 102, 111, 103, 111, 102, 112, 112, 102, 113, 113, 102, 114, 117, 116, 115, 116, 117, 118, 120, 105, 119, 95, 105, 106, 105, 95, 119, 115, 122, 121, 122, 115, 123, 1, 125, 124, 55, 74, 73, 74, 55, 57, 120, 87, 105, 87, 120, 48, 126, 24, 15, 24, 126, 92, 1, 86, 125, 86, 1, 3, 0, 127, 107, 31, 60, 90, 37, 43, 36, 43, 37, 47, 21, 104, 4, 104, 21, 59, 90, 85, 91, 85, 90, 39, 88, 92, 126, 92, 88, 89, 28, 75, 29, 129, 98, 128, 98, 129, 97, 125, 93, 124, 93, 125, 50, 125, 52, 50, 52, 125, 86, 126, 15, 11, 87, 0, 107, 0, 87, 2, 95, 106, 94, 124, 94, 127, 94, 124, 93, 130, 114, 102, 114, 130, 116, 45, 91, 85, 91, 45, 35, 131, 121, 129, 121, 131, 117, 51, 132, 95, 132, 51, 53, 132, 53, 133, 134, 95, 132, 95, 134, 119, 119, 133, 53, 119, 134, 135, 119, 135, 133, 103, 108, 101, 96, 53, 52, 22, 20, 76, 40, 85, 39, 85, 40, 42, 110, 136, 109, 137, 109, 136, 109, 137, 138, 60, 38, 41, 38, 60, 61, 88, 11, 79, 11, 88, 126, 54, 83, 27, 114, 116, 118, 139, 97, 122, 97, 139, 99, 32, 34, 62, 104, 6, 4, 139, 140, 99, 140, 139, 100, 140, 100, 141, 141, 100, 142, 143, 99, 140, 99, 143, 101, 101, 143, 142, 101, 142, 100, 17, 7, 6, 7, 17, 64, 64, 17, 8, 29, 65, 66, 65, 29, 144, 65, 144, 145, 144, 29, 146, 146, 29, 75, 75, 147, 146, 131, 129, 128, 71, 113, 148, 113, 71, 112, 112, 71, 78, 89, 74, 57, 109, 131, 128, 131, 109, 138, 59, 26, 104, 26, 59, 25, 96, 48, 120, 48, 96, 49, 102, 100, 130, 139, 122, 123, 127, 106, 107, 106, 127, 94, 9, 64, 8, 64, 9, 66, 78, 111, 112, 10, 111, 78, 10, 110, 111, 58, 110, 10, 110, 58, 136, 9, 29, 66, 29, 9, 12, 96, 119, 53, 119, 96, 120, 130, 139, 123, 139, 130, 100, 23, 25, 59, 25, 23, 16, 16, 23, 14, 117, 115, 121, 109, 98, 108, 98, 109, 128, 121, 97, 129, 97, 121, 122, 115, 130, 123, 130, 115, 116, 92, 56, 24, 0, 124, 127, 124, 0, 1, 138, 117, 131, 117, 138, 118, 84, 58, 83, 58, 84, 136, 136, 84, 137, 137, 84, 149, 137, 118, 138, 118, 137, 149, 118, 149, 114, 114, 149, 148, 114, 148, 113, 99, 108, 98, 108, 99, 101, 51, 93, 50, 73, 149, 84, 149, 73, 148, 148, 73, 71, 145, 46, 65, 46, 145, 150, 150, 76, 46, 76, 150, 151, 76, 151, 147, 76, 147, 75]
        point3f[] points = [(0.0604338, 0.619032, 0.225391), (0.0604338, 0.619032, 0.346259), (-0.0604338, 0.619032, 0.225391), (-0.0604338, 0.619032, 0.346259), (0.124875, 0.921732, -0.389466), (0.124875, 0.761982, -0.389466), (0.158806, 0.921571, -0.355374), (0.158806, 0.762143, -0.355374), (0.158806, 0.911659, -0.195946), (0.124875, 0.877755, -0.161854), (0.159372, 0.877192, -0.161288), (-0.159372, 0.877192, -0.161288), (-0.0348748, 0.877755, -0.161854), (-0.0688062, 0.911659, -0.195946), (-0.0688062, 0.921571, -0.205914), (-0.159749, 0.945055, -0.229528), (-0.045303, 0.945055, -0.229528), (0.158806, 0.921571, -0.205914), (0.159749, 0.945055, -0.229528), (0.135303, 0.945055, -0.229528), (-0.0348748, 0.761982, -0.389466), (-0.0348748, 0.921732, -0.389466), (-0.0688062, 0.762143, -0.355374), (-0.0688062, 0.921571, -0.355374), (-0.159749, 1.26455, -0.229528), (-0.0346859, 0.955663, -0.229528), (0.124686, 0.955663, -0.229528), (0.159749, 1.26455, -0.229528), (-0.0688062, 0.762143, -0.195946), (-0.0348748, 0.761982, -0.161854), (-0.414632, 0.600422, -0.0209216), (-0.414632, 0.791736, -0.0209216), (-0.414632, 0.600422, 0.170392), (-0.414632, 0.791736, 0.170392), (-0.373688, 0.559512, 0.170358), (-0.373688, 0.559512, -0.0208878), (-0.141497, 0.791736, 0.170392), (-0.182215, 0.791929, 0.211303), (-0.182442, 0.832646, 0.170358), (-0.182215, 0.791929, -0.0618322), (-0.141497, 0.791736, -0.0209216), (-0.182442, 0.832646, -0.0208878), (-0.141497, 0.600422, -0.0209216), (-0.141497, 0.600422, 0.170392), (-0.182442, 0.559512, 0.170358), (-0.182442, 0.559512, -0.0208878), (0.124686, 0.728051, -0.355346), (-0.182215, 0.600229, 0.211303), (-0.0863107, 0.593176, 0.22537), (-0.0863107, 0.593176, 0.34628), (0.060577, 0.472144, 0.372136), (0.0604338, 0.44641, 0.346259), (-0.060577, 0.472144, 0.372136), (-0.0604338, 0.44641, 0.346259), (0.159372, 1.33242, -0.161288), (0.159372, 1.33242, 0.157456), (-0.159372, 1.33242, -0.161288), (-0.159372, 1.33242, 0.157456), (0.227612, 0.945376, -0.161344), (-0.0346859, 0.955663, -0.355346), (-0.373688, 0.832646, -0.0208878), (-0.373688, 0.832646, 0.170358), (-0.373915, 0.600229, 0.211303), (-0.373915, 0.791929, 0.211303), (0.158806, 0.762143, -0.195946), (0.124686, 0.728051, -0.195974), (0.124875, 0.761982, -0.161854), (-0.22156, 0.559512, 0.0656028), (-0.212643, 0.559512, 0.0138126), (-0.30479, 0.559512, 0.0887508), (-0.29529, 0.559512, 0.0335771), (0.159749, 0.945055, 0.225697), (-0.159749, 0.945055, 0.225697), (0.159749, 1.26455, 0.225697), (-0.159749, 1.26455, 0.225697), (-0.0346859, 0.728051, -0.195974), (-0.0346859, 0.728051, -0.355346), (0.0296032, 0.877192, 0.0382415), (0.159372, 0.877192, 0.157456), (-0.159372, 0.877192, 0.157456), (-0.0296031, 0.877192, 0.0382415), (-0.0296031, 0.877192, -0.0209648), (0.0296032, 0.877192, -0.0209648), (0.227612, 1.26423, -0.161344), (0.227612, 1.26423, 0.157512), (-0.182215, 0.600229, -0.0618322), (-0.060577, 0.593298, 0.372136), (-0.060577, 0.593298, 0.199515), (-0.227612, 0.945376, 0.157512), (-0.227612, 1.26423, 0.157512), (-0.373915, 0.791929, -0.0618322), (-0.373915, 0.600229, -0.0618322), (-0.227612, 1.26423, -0.161344), (0.0863107, 0.472266, 0.34628), (0.0863107, 0.472266, 0.22537), (0.0604338, 0.44641, 0.225391), (-0.0863107, 0.472266, 0.34628), (0.432483, 0.787843, 0.0222911), (0.399908, 0.787689, -0.0104374), (0.399727, 0.755115, 0.0223182), (0.24673, 0.755115, 0.175315), (0.24673, 0.755115, 0.0223182), (0.213975, 0.787843, 0.175342), (0.213975, 0.787843, 0.0222911), (0.124686, 0.955663, -0.355346), (-0.060577, 0.472144, 0.199515), (0.060577, 0.472144, 0.199515), (0.060577, 0.593298, 0.199515), (0.246549, 0.787689, -0.0104374), (0.246549, 0.941049, -0.0104374), (0.22317, 0.940938, 0.0130515), (0.213975, 0.93175, 0.0222911), (0.213975, 0.93175, 0.157501), (0.213975, 0.940894, 0.166748), (0.213975, 0.940894, 0.175342), (0.399908, 0.941049, 0.208071), (0.246549, 0.941049, 0.208071), (0.399727, 0.973623, 0.175315), (0.24673, 0.973623, 0.175315), (-0.0604338, 0.44641, 0.225391), (-0.0863107, 0.472266, 0.22537), (0.432483, 0.940894, 0.175342), (0.432483, 0.787843, 0.175342), (0.399908, 0.787689, 0.208071), (0.0863107, 0.593176, 0.34628), (0.060577, 0.593298, 0.372136), (-0.227612, 0.945376, -0.161344), (0.0863107, 0.593176, 0.22537), (0.399908, 0.941049, -0.0104374), (0.432483, 0.940894, 0.0222911), (0.246549, 0.787689, 0.208071), (0.399727, 0.973623, 0.0223182), (0.026828, 0.44641, 0.30334), (-0.026828, 0.44641, 0.30334), (0.0255977, 0.44641, 0.246345), (-0.0255977, 0.44641, 0.246345), (0.227612, 0.945376, 0.0130552), (0.227612, 0.954521, 0.0223023), (0.24673, 0.973623, 0.0223182), (0.399727, 0.755115, 0.175315), (0.350435, 0.755115, 0.119305), (0.285468, 0.755115, 0.104613), (0.285468, 0.755115, 0.0577836), (0.350435, 0.755115, 0.0693091), (0.0386991, 0.73029, -0.193722), (0.0393555, 0.728051, -0.195974), (-0.00957122, 0.73029, -0.193722), (-0.00916253, 0.728051, -0.195974), (0.218417, 0.945333, 0.166752), (0.227612, 0.954521, 0.157512), (0.0604429, 0.728051, -0.263453), (0.00833632, 0.728051, -0.263453), (0.350712, 0.746749, 0.118405), (0.350712, 0.746749, 0.0678542), (0.190801, 0.62644, 0.0684054), (0.190801, 0.62644, 0.0178542), (-0.0274026, 0.361126, 0.189624), (-0.0255977, 0.415492, 0.195468), (-0.0274026, 0.429101, 0.301479), (-0.0260533, 0.631715, -0.159927), (-0.0241352, 0.689493, -0.149879), (0.18894, 0.682492, 0.0276019), (0.045671, 0.356899, 0.0584202), (0.0274026, 0.361126, 0.189624), (0.0426629, 0.44751, 0.0681612), (0.0255977, 0.415492, 0.195468), (-0.054369, 0, -0.054369), (0.054369, 0, -0.054369), (-0.0632197, 0.0498095, -0.0632198), (0.0632197, 0.0498095, -0.0632198), (0.0486792, 0.266289, -0.0486792), (0.0486792, 0.266289, 0.0486792), (0.0388855, 0.561289, 0.00262195), (0.0388855, 0.561289, 0.080393), (0.0241352, 0.689493, -0.149879), (-0.045671, 0.356899, 0.0584202), (0.054369, 0, 0.054369), (-0.054369, 0, 0.054369), (0.0632197, 0.0498095, 0.0632197), (-0.0632197, 0.0498095, 0.0632197), (-0.204523, 0.499479, 0.0538562), (-0.202901, 0.548339, 0.059109), (0.0274026, 0.429101, 0.301479), (0.0360226, 0.647524, 0.0896636), (-0.0360226, 0.647524, 0.0896636), (-0.0486792, 0.266289, -0.0486792), (-0.0423643, 0.456504, -0.0156003), (-0.0397662, 0.53476, -0.00199144), (-0.0388855, 0.561289, 0.00262195), (0.18894, 0.682492, 0.0744313), (-0.0360226, 0.647524, 0.0176184), (-0.0426629, 0.44751, 0.0681612), (-0.204338, 0.505056, 0.00192409), (-0.202727, 0.553574, 0.0103616), (-0.0486792, 0.266289, 0.0486792), (-0.0400465, 0.526317, 0.0766334), (0.0260533, 0.631715, -0.159927), (0.0360226, 0.647524, 0.0176184)]
        normal3f[] normals = [(0, 1, 0), (0, 1, 0), (0, 1, 0), (0, 1, 0), (0, 1, 0), (0, 1, 0), (0.708776, 0, -0.705433), (0.708776, 0, -0.705433), (0.708776, 0, -0.705433), (0.708776, 0, -0.705433), (0.708776, 0, -0.705433), (0.708776, 0, -0.705433), (0, -0.709066, -0.705142), (0, -0.709066, -0.705142), (0, -0.709066, -0.705142), (0, -0.709066, -0.705142), (0, -0.709066, -0.705142), (0, -0.709066, -0.705142), (0, -0.709066, -0.705142), (0, -0.709066, -0.705142), (0, -0.709066, -0.705142), (0, -0.709066, -0.705142), (0, -0.709066, -0.705142), (0, -0.709066, -0.705142), (0, -0.709066, -0.705142), (0, -0.709066, -0.705142), (0, -0.709066, -0.705142), (0, -0.709066, -0.705142), (0, -0.709066, -0.705142), (0, -0.709066, -0.705142), (0, -0.709066, -0.705142), (0, -0.709066, -0.705142), (0, -0.709066, -0.705142), (0, -0.709066, -0.705142), (0, -0.709066, -0.705142), (0, -0.709066, -0.705142), (0, -0.709066, -0.705142), (0, -0.709066, -0.705142), (0, -0.709066, -0.705142), (0, -0.709066, -0.705142), (0, -0.709066, -0.705142), (0, -0.709066, -0.705142), (-0.708776, 0, -0.705433), (-0.708776, 0, -0.705433), (-0.708776, 0, -0.705433), (-0.708776, 0, -0.705433), (-0.708776, 0, -0.705433), (-0.708776, 0, -0.705433), (0, 0, -1), (0, 0, -1), (0, 0, -1), (0, 0, -1), (0, 0, -1), (0, 0, -1), (0, 0, -1), (0, 0, -1), (0, 0, -1), (0, 0, -1), (0, 0, -1), (0, 0, -1), (0, 0, -1), (0, 0, -1), (0, 0, -1), (0, 0, -1), (0, 0, -1), (0, 0, -1), (0, 0, -1), (0, 0, -1), (0, 0, -1), (0, 0, -1), (0, 0, -1), (0, 0, -1), (-0.708775, 0, 0.705435), (-0.708775, 0, 0.705435), (-0.708775, 0, 0.705435), (-0.708775, 0, 0.705435), (-0.708775, 0, 0.705435), (-0.708775, 0, 0.705435), (-1, 0, 0), (-1, 0, 0), (-1, 0, 0), (-1, 0, 0), (-1, 0, 0), (-1, 0, 0), (-0.706815, -0.707399, 0), (-0.706815, -0.707399, 0), (-0.706815, -0.707399, 0), (-0.706815, -0.707399, 0), (-0.706815, -0.707399, 0), (-0.706815, -0.707399, 0), (0.578845, 0.5798, 0.573385), (0.578845, 0.5798, 0.573385), (0.578845, 0.5798, 0.573385), (0.578845, 0.5798, -0.573385), (0.578845, 0.5798, -0.573385), (0.578845, 0.5798, -0.573385), (1, 0, 0), (1, 0, 0), (1, 0, 0), (1, 0, 0), (1, 0, 0), (1, 0, 0), (0.706815, -0.707398, 0), (0.706815, -0.707398, 0), (0.706815, -0.707398, 0), (0.706815, -0.707398, 0), (0.706815, -0.707398, 0), (0.706815, -0.707398, 0), (0.578849, -0.579797, -0.573385), (0.578849, -0.579797, -0.573385), (0.578849, -0.579797, -0.573385), (0.578847, -0.579799, 0.573384), (0.578847, -0.579799, 0.573384), (0.578847, -0.579799, 0.573384), (-0.706814, 0.707399, 0), (-0.706814, 0.707399, 0), (-0.706814, 0.707399, 0), (-0.706814, 0.707399, 0), (-0.706814, 0.707399, 0), (-0.706814, 0.707399, 0), (0, -0.709071, 0.705138), (0, -0.709071, 0.705138), (0, -0.709071, 0.705138), (0, -0.709071, 0.705138), (0, -0.709071, 0.705138), (0, -0.709071, 0.705138), (0, 1, 0), (0, 1, 0), (0, 1, 0), (0, 1, 0), (0, 1, 0), (0, 1, 0), (0.578845, -0.5798, -0.573386), (0.578845, -0.5798, -0.573386), (0.578845, -0.5798, -0.573386), (-0.578849, 0.579797, -0.573384), (-0.578849, 0.579797, -0.573384), (-0.578849, 0.579797, -0.573384), (-0.706813, 0.707401, 0), (-0.706813, 0.707401, 0), (-0.706813, 0.707401, 0), (-0.706813, 0.707401, 0), (-0.706813, 0.707401, 0), (-0.706813, 0.707401, 0), (0, 0, 1), (0, 0, 1), (0, 0, 1), (0, 0, 1), (0, 0, 1), (0, 0, 1), (0.706815, -0.707398, 0), (0.706815, -0.707398, 0), (0.706815, -0.707398, 0), (0.706815, -0.707398, 0), (0.706815, -0.707398, 0), (0.706815, -0.707398, 0), (0.578847, -0.579799, 0.573385), (0.578847, -0.579799, 0.573385), (0.578847, -0.579799, 0.573385), (0, -1, 0), (0, -1, 0), (0, -1, 0), (0, -1, 0), (0, -1, 0), (0, -1, 0), (0, -1, 0), (0, -1, 0), (0, -1, 0), (0, -1, 0), (0, -1, 0), (0, -1, 0), (0, -1, 0), (0, -1, 0), (0, -1, 0), (0, -1, 0), (0, -1, 0), (0, -1, 0), (0, -1, 0), (0, -1, 0), (0, -1, 0), (0, -1, 0), (0, -1, 0), (0, -1, 0), (0.706813, 0.7074, 0), (0.706813, 0.7074, 0), (0.706813, 0.7074, 0), (0.706813, 0.7074, 0), (0.706813, 0.7074, 0), (0.706813, 0.7074, 0), (0, 0, 1), (0, 0, 1), (0, 0, 1), (0, 0, 1), (0, 0, 1), (0, 0, 1), (-0.706815, -0.707398, 0), (-0.706815, -0.707398, 0), (-0.706815, -0.707398, 0), (-0.706815, -0.707398, 0), (-0.706815, -0.707398, 0), (-0.706815, -0.707398, 0), (0, -1, 0), (0, -1, 0), (0, -1, 0), (0, -1, 0), (0, -1, 0), (0, -1, 0), (0, -1, 0), (0, -1, 0), (0, -1, 0), (0, -1, 0), (0, -1, 0), (0, -1, 0), (0, -1, 0), (0, -1, 0), (0, -1, 0), (0, -1, 0), (0, -1, 0), (0, -1, 0), (0, -1, 0), (0, -1, 0), (0, -1, 0), (0, -1, 0), (0, -1, 0), (0, -1, 0), (-0.578845, 0.579801, 0.573384), (-0.578845, 0.579801, 0.573384), (-0.578845, 0.579801, 0.573384), (0, -0.709067, 0.705142), (0, -0.709067, 0.705142), (0, -0.709067, 0.705142), (0, -0.709067, 0.705142), (0, -0.709067, 0.705142), (0, -0.709067, 0.705142), (0.706814, 0.707399, 0), (0.706814, 0.707399, 0), (0.706814, 0.707399, 0), (0.706814, 0.707399, 0), (0.706814, 0.707399, 0), (0.706814, 0.707399, 0), (0, 0.709067, 0.705141), (0, 0.709067, 0.705141), (0, 0.709067, 0.705141), (0, 0.709067, 0.705141), (0, 0.709067, 0.705141), (0, 0.709067, 0.705141), (0.578847, -0.579799, -0.573384), (0.578847, -0.579799, -0.573384), (0.578847, -0.579799, -0.573384), (-0.578846, 0.579802, 0.573383), (-0.578846, 0.579802, 0.573383), (-0.578846, 0.579802, 0.573383), (0.708775, 0, -0.705435), (0.708775, 0, -0.705435), (0.708775, 0, -0.705435), (0.708775, 0, -0.705435), (0.708775, 0, -0.705435), (0.708775, 0, -0.705435), (-0.578847, 0.5798, -0.573384), (-0.578847, 0.5798, -0.573384), (-0.578847, 0.5798, -0.573384), (-0.708775, 0, 0.705435), (-0.708775, 0, 0.705435), (-0.708775, 0, 0.705435), (-0.708775, 0, 0.705435), (-0.708775, 0, 0.705435), (-0.708775, 0, 0.705435), (0, -0.709065, -0.705143), (0, -0.709065, -0.705143), (0, -0.709065, -0.705143), (0, -0.709065, -0.705143), (0, -0.709065, -0.705143), (0, -0.709065, -0.705143), (0, 0.709067, -0.705141), (0, 0.709067, -0.705141), (0, 0.709067, -0.705141), (0, 0.709067, -0.705141), (0, 0.709067, -0.705141), (0, 0.709067, -0.705141), (-0.578845, -0.5798, 0.573386), (-0.578845, -0.5798, 0.573386), (-0.578845, -0.5798, 0.573386), (0, -0.709067, 0.705141), (0, -0.709067, 0.705141), (0, -0.709067, 0.705141), (0, -0.709067, 0.705141), (0, -0.709067, 0.705141), (0, -0.709067, 0.705141), (-0.708775, 0, -0.705434), (-0.708775, 0, -0.705434), (-0.708775, 0, -0.705434), (-0.708775, 0, -0.705434), (-0.708775, 0, -0.705434), (-0.708775, 0, -0.705434), (-0.578847, -0.5798, -0.573384), (-0.578847, -0.5798, -0.573384), (-0.578847, -0.5798, -0.573384), (0, 0.709067, -0.705141), (0, 0.709067, -0.705141), (0, 0.709067, -0.705141), (0, 0.709067, -0.705141), (0, 0.709067, -0.705141), (0, 0.709067, -0.705141), (-0.708775, 0, 0.705434), (-0.708775, 0, 0.705434), (-0.708775, 0, 0.705434), (-0.708775, 0, 0.705434), (-0.708775, 0, 0.705434), (-0.708775, 0, 0.705434), (-0.706814, 0.707399, 0), (-0.706814, 0.707399, 0), (-0.706814, 0.707399, 0), (-0.706814, 0.707399, 0), (-0.706814, 0.707399, 0), (-0.706814, 0.707399, 0), (0.578845, 0.579799, 0.573385), (0.578845, 0.579799, 0.573385), (0.578845, 0.579799, 0.573385), (0.706814, -0.707399, 0), (0.706814, -0.707399, 0), (0.706814, -0.707399, 0), (0.706814, -0.707399, 0), (0.706814, -0.707399, 0), (0.706814, -0.707399, 0), (-0.708775, 0, 0.705435), (-0.708775, 0, 0.705435), (-0.708775, 0, 0.705435), (-0.708775, 0, 0.705435), (-0.708775, 0, 0.705435), (-0.708775, 0, 0.705435), (0.578841, -0.579803, -0.573386), (0.578841, -0.579803, -0.573386), (0.578841, -0.579803, -0.573386), (-0.706812, -0.707402, 0), (-0.706812, -0.707402, 0), (-0.706812, -0.707402, 0), (-0.706812, -0.707402, 0), (-0.706812, -0.707402, 0), (-0.706812, -0.707402, 0), (-1, 0, 0), (-1, 0, 0), (-1, 0, 0), (-1, 0, 0), (-1, 0, 0), (-1, 0, 0), (-1, 0, 0), (-1, 0, 0), (-1, 0, 0), (0.706816, 0.707398, 0), (0.706816, 0.707398, 0), (0.706816, 0.707398, 0), (0.706816, 0.707398, 0), (0.706816, 0.707398, 0), (0.706816, 0.707398, 0), (0.706816, 0.707398, 0), (0.706816, 0.707398, 0), (0.706816, 0.707398, 0), (0, 0, -1), (0, 0, -1), (0, 0, -1), (0, 0, -1), (0, 0, -1), (0, 0, -1), (-0.708775, 0, -0.705435), (-0.708775, 0, -0.705435), (-0.708775, 0, -0.705435), (-0.708775, 0, -0.705435), (-0.708775, 0, -0.705435), (-0.708775, 0, -0.705435), (-0.708775, 0, -0.705435), (-0.708775, 0, -0.705435), (-0.708775, 0, -0.705435), (-1, 0, 0), (-1, 0, 0), (-1, 0, 0), (-1, 0, 0), (-1, 0, 0), (-1, 0, 0), (-1, 0, 0), (-1, 0, 0), (-1, 0, 0), (-1, 0, 0), (-1, 0, 0), (-1, 0, 0), (0, 0.709066, 0.705142), (0, 0.709066, 0.705142), (0, 0.709066, 0.705142), (0, 0.709066, 0.705142), (0, 0.709066, 0.705142), (0, 0.709066, 0.705142), (-0.578847, -0.5798, -0.573383), (-0.578847, -0.5798, -0.573383), (-0.578847, -0.5798, -0.573383), (0, -0.709069, -0.705139), (0, -0.709069, -0.705139), (0, -0.709069, -0.705139), (0, -0.709069, -0.705139), (0, -0.709069, -0.705139), (0, -0.709069, -0.705139), (0.708775, 0, 0.705435), (0.708775, 0, 0.705435), (0.708775, 0, 0.705435), (0.708775, 0, 0.705435), (0.708775, 0, 0.705435), (0.708775, 0, 0.705435), (0.578846, 0.579801, 0.573383), (0.578846, 0.579801, 0.573383), (0.578846, 0.579801, 0.573383), (0, 0.709067, 0.705142), (0, 0.709067, 0.705142), (0, 0.709067, 0.705142), (0, 0.709067, 0.705142), (0, 0.709067, 0.705142), (0, 0.709067, 0.705142), (-0.708775, 0, -0.705435), (-0.708775, 0, -0.705435), (-0.708775, 0, -0.705435), (-0.708775, 0, -0.705435), (-0.708775, 0, -0.705435), (-0.708775, 0, -0.705435), (-0.708775, 0, -0.705435), (-0.708775, 0, -0.705435), (-0.708775, 0, -0.705435), (-0.708775, 0, -0.705435), (-0.708775, 0, -0.705435), (-0.708775, 0, -0.705435), (0, 0.70907, 0.705138), (0, 0.70907, 0.705138), (0, 0.70907, 0.705138), (0, 0.70907, 0.705138), (0, 0.70907, 0.705138), (0, 0.70907, 0.705138), (0.578847, 0.5798, -0.573384), (0.578847, 0.5798, -0.573384), (0.578847, 0.5798, -0.573384), (-0.578845, 0.579801, -0.573384), (-0.578845, 0.579801, -0.573384), (-0.578845, 0.579801, -0.573384), (0.708775, 0, 0.705435), (0.708775, 0, 0.705435), (0.708775, 0, 0.705435), (0.708775, 0, 0.705435), (0.708775, 0, 0.705435), (0.708775, 0, 0.705435), (0, 0.709066, -0.705142), (0, 0.709066, -0.705142), (0, 0.709066, -0.705142), (0, 0.709066, -0.705142), (0, 0.709066, -0.705142), (0, 0.709066, -0.705142), (0, 0, -1), (0, 0, -1), (0, 0, -1), (0, 0, -1), (0, 0, -1), (0, 0, -1), (-1, 0, 0), (-1, 0, 0), (-1, 0, 0), (-1, 0, 0), (-1, 0, 0), (-1, 0, 0), (-0.578847, -0.579799, 0.573385), (-0.578847, -0.579799, 0.573385), (-0.578847, -0.579799, 0.573385), (0.708774, 0, -0.705435), (0.708774, 0, -0.705435), (0.708774, 0, -0.705435), (0.708774, 0, -0.705435), (0.708774, 0, -0.705435), (0.708774, 0, -0.705435), (0.708775, 0, 0.705435), (0.708775, 0, 0.705435), (0.708775, 0, 0.705435), (0.708775, 0, 0.705435), (0.708775, 0, 0.705435), (0.708775, 0, 0.705435), (0, 0, 1), (0, 0, 1), (0, 0, 1), (0, 0, 1), (0, 0, 1), (0, 0, 1), (-0.578845, -0.5798, -0.573386), (-0.578845, -0.5798, -0.573386), (-0.578845, -0.5798, -0.573386), (0, 0.709068, -0.70514), (0, 0.709068, -0.70514), (0, 0.709068, -0.70514), (0, 0.709068, -0.70514), (0, 0.709068, -0.70514), (0, 0.709068, -0.70514), (0.578847, -0.5798, -0.573383), (0.578847, -0.5798, -0.573383), (0.578847, -0.5798, -0.573383), (1, 0, 0), (1, 0, 0), (1, 0, 0), (1, 0, 0), (1, 0, 0), (1, 0, 0), (-0.708775, 0, 0.705434), (-0.708775, 0, 0.705434), (-0.708775, 0, 0.705434), (-0.708775, 0, 0.705434), (-0.708775, 0, 0.705434), (-0.708775, 0, 0.705434), (0, -0.709067, -0.705141), (0, -0.709067, -0.705141), (0, -0.709067, -0.705141), (0, -0.709067, -0.705141), (0, -0.709067, -0.705141), (0, -0.709067, -0.705141), (0.706812, 0.707402, 0), (0.706812, 0.707402, 0), (0.706812, 0.707402, 0), (0.706812, 0.707402, 0), (0.706812, 0.707402, 0), (0.706812, 0.707402, 0), (0, -1, 0), (0, -1, 0), (0, -1, 0), (0, -1, 0), (0, -1, 0), (0, -1, 0), (0, -1, 0), (0, -1, 0), (0, -1, 0), (0, -1, 0), (0, -1, 0), (0, -1, 0), (0, -1, 0), (0, -1, 0), (0, -1, 0), (0, -1, 0), (0, -1, 0), (0, -1, 0), (0, -1, 0), (0, -1, 0), (0, -1, 0), (0, -1, 0), (0, -1, 0), (0, -1, 0), (-0.578843, -0.579801, -0.573387), (-0.578843, -0.579801, -0.573387), (-0.578843, -0.579801, -0.573387), (-0.578846, -0.579802, 0.573382), (-0.578846, -0.579802, 0.573382), (-0.578846, -0.579802, 0.573382), (-0.578848, -0.579797, -0.573385), (-0.578848, -0.579797, -0.573385), (-0.578848, -0.579797, -0.573385), (0.708775, 0, -0.705435), (0.708775, 0, -0.705435), (0.708775, 0, -0.705435), (0.708775, 0, -0.705435), (0.708775, 0, -0.705435), (0.708775, 0, -0.705435), (-0.578846, 0.579798, -0.573386), (-0.578846, 0.579798, -0.573386), (-0.578846, 0.579798, -0.573386), (-0.578846, 0.579798, -0.573386), (-0.578846, 0.579798, -0.573386), (-0.578846, 0.579798, -0.573386), (-0.578846, 0.579798, -0.573386), (-0.578846, 0.579798, -0.573386), (-0.578846, 0.579798, -0.573386), (0, 1, 0), (0, 1, 0), (0, 1, 0), (0, 1, 0), (0, 1, 0), (0, 1, 0), (-0.706813, -0.7074, 0), (-0.706813, -0.7074, 0), (-0.706813, -0.7074, 0), (-0.706813, -0.7074, 0), (-0.706813, -0.7074, 0), (-0.706813, -0.7074, 0), (0.578845, 0.579799, -0.573385), (0.578845, 0.579799, -0.573385), (0.578845, 0.579799, -0.573385), (-0.578846, 0.579799, 0.573385), (-0.578846, 0.579799, 0.573385), (-0.578846, 0.579799, 0.573385), (0.706809, -0.707404, 0), (0.706809, -0.707404, 0), (0.706809, -0.707404, 0), (0.706809, -0.707404, 0), (0.706809, -0.707404, 0), (0.706809, -0.707404, 0), (-0.578847, -0.5798, 0.573384), (-0.578847, -0.5798, 0.573384), (-0.578847, -0.5798, 0.573384), (0.578849, 0.579797, -0.573384), (0.578849, 0.579797, -0.573384), (0.578849, 0.579797, -0.573384), (0, -1, 0), (0, -1, 0), (0, -1, 0), (0, -1, 0), (0, -1, 0), (0, -1, 0), (0, -1, 0), (0, -1, 0), (0, -1, 0), (0, -1, 0), (0, -1, 0), (0, -1, 0), (0, -1, 0), (0, -1, 0), (0, -1, 0), (0, -1, 0), (0, -1, 0), (0, -1, 0), (0, -1, 0), (0, -1, 0), (0, -1, 0), (0, -1, 0), (0, -1, 0), (0, -1, 0), (1, 0, 0), (1, 0, 0), (1, 0, 0), (1, 0, 0), (1, 0, 0), (1, 0, 0), (1, 0, 0), (1, 0, 0), (1, 0, 0), (0, -0.709067, 0.705141), (0, -0.709067, 0.705141), (0, -0.709067, 0.705141), (0, -0.709067, 0.705141), (0, -0.709067, 0.705141), (0, -0.709067, 0.705141), (0, -0.709067, 0.705141), (0, -0.709067, 0.705141), (0, -0.709067, 0.705141), (0, -0.709067, 0.705141), (0, -0.709067, 0.705141), (0, -0.709067, 0.705141), (0, -0.709067, 0.705141), (0, -0.709067, 0.705141), (0, -0.709067, 0.705141), (0, -0.709067, 0.705141), (0, -0.709067, 0.705141), (0, -0.709067, 0.705141), (0.578844, 0.579801, -0.573385), (0.578844, 0.579801, -0.573385), (0.578844, 0.579801, -0.573385), (0.578845, -0.579799, 0.573385), (0.578845, -0.579799, 0.573385), (0.578845, -0.579799, 0.573385), (0.578845, -0.579799, 0.573385), (0.578845, -0.579799, 0.573385), (0.578845, -0.579799, 0.573385), (0.578845, -0.579799, 0.573385), (0.578845, -0.579799, 0.573385), (0.578845, -0.579799, 0.573385), (-0.578845, 0.579799, 0.573386), (-0.578845, 0.579799, 0.573386), (-0.578845, 0.579799, 0.573386), (0, 0.709066, -0.705142), (0, 0.709066, -0.705142), (0, 0.709066, -0.705142), (0, 0.709066, -0.705142), (0, 0.709066, -0.705142), (0, 0.709066, -0.705142), (0, 1, 0), (0, 1, 0), (0, 1, 0), (0, 1, 0), (0, 1, 0), (0, 1, 0), (-1, 0, 0), (-1, 0, 0), (-1, 0, 0), (-1, 0, 0), (-1, 0, 0), (-1, 0, 0), (-0.578843, -0.579801, 0.573387), (-0.578843, -0.579801, 0.573387), (-0.578843, -0.579801, 0.573387), (0.578841, -0.579803, 0.573386), (0.578841, -0.579803, 0.573386), (0.578841, -0.579803, 0.573386), (0.708775, 0, -0.705435), (0.708775, 0, -0.705435), (0.708775, 0, -0.705435), (0.708775, 0, -0.705435), (0.708775, 0, -0.705435), (0.708775, 0, -0.705435), (0.708775, 0, 0.705435), (0.708775, 0, 0.705435), (0.708775, 0, 0.705435), (0.708775, 0, 0.705435), (0.708775, 0, 0.705435), (0.708775, 0, 0.705435), (0.706814, -0.707399, 0), (0.706814, -0.707399, 0), (0.706814, -0.707399, 0), (0.706814, -0.707399, 0), (0.706814, -0.707399, 0), (0.706814, -0.707399, 0), (0.706814, -0.707399, 0), (0.706814, -0.707399, 0), (0.706814, -0.707399, 0), (0.706814, -0.707399, 0), (0.706814, -0.707399, 0), (0.706814, -0.707399, 0), (0.706814, -0.707399, 0), (0.706814, -0.707399, 0), (0.706814, -0.707399, 0), (0, 0, 1), (0, 0, 1), (0, 0, 1), (0, 0, 1), (0, 0, 1), (0, 0, 1), (-0.706814, -0.707399, 0), (-0.706814, -0.707399, 0), (-0.706814, -0.707399, 0), (-0.706814, -0.707399, 0), (-0.706814, -0.707399, 0), (-0.706814, -0.707399, 0), (0, -0.709066, 0.705142), (0, -0.709066, 0.705142), (0, -0.709066, 0.705142), (0, -0.709066, 0.705142), (0, -0.709066, 0.705142), (0, -0.709066, 0.705142), (-0.706816, 0.707398, 0), (-0.706816, 0.707398, 0), (-0.706816, 0.707398, 0), (-0.706816, 0.707398, 0), (-0.706816, 0.707398, 0), (-0.706816, 0.707398, 0), (-0.706816, 0.707398, 0), (-0.706816, 0.707398, 0), (-0.706816, 0.707398, 0), (0.578844, 0.579801, 0.573385), (0.578844, 0.579801, 0.573385), (0.578844, 0.579801, 0.573385), (0, 0, -1), (0, 0, -1), (0, 0, -1), (0, 0, -1), (0, 0, -1), (0, 0, -1), (1, 0, 0), (1, 0, 0), (1, 0, 0), (1, 0, 0), (1, 0, 0), (1, 0, 0), (0, 0, 1), (0, 0, 1), (0, 0, 1), (0, 0, 1), (0, 0, 1), (0, 0, 1), (-0.578845, 0.579799, -0.573386), (-0.578845, 0.579799, -0.573386), (-0.578845, 0.579799, -0.573386), (0.706814, 0.707399, 0), (0.706814, 0.707399, 0), (0.706814, 0.707399, 0), (0.706814, 0.707399, 0), (0.706814, 0.707399, 0), (0.706814, 0.707399, 0), (0, 1, 0), (0, 1, 0), (0, 1, 0), (0, 1, 0), (0, 1, 0), (0, 1, 0), (1, 0, 0), (1, 0, 0), (1, 0, 0), (1, 0, 0), (1, 0, 0), (1, 0, 0), (1, 0, 0), (1, 0, 0), (1, 0, 0), (1, 0, 0), (1, 0, 0), (1, 0, 0), (-0.706814, 0.707399, 0), (-0.706814, 0.707399, 0), (-0.706814, 0.707399, 0), (-0.706814, 0.707399, 0), (-0.706814, 0.707399, 0), (-0.706814, 0.707399, 0), (-0.706814, 0.707399, 0), (-0.706814, 0.707399, 0), (-0.706814, 0.707399, 0), (-0.706814, 0.707399, 0), (-0.706814, 0.707399, 0), (-0.706814, 0.707399, 0), (-0.706814, 0.707399, 0), (-0.706814, 0.707399, 0), (-0.706814, 0.707399, 0), (0, -0.709066, -0.705142), (0, -0.709066, -0.705142), (0, -0.709066, -0.705142), (0, -0.709066, -0.705142), (0, -0.709066, -0.705142), (0, -0.709066, -0.705142), (0.578846, -0.579802, 0.573382), (0.578846, -0.579802, 0.573382), (0.578846, -0.579802, 0.573382), (0.708775, 0, 0.705435), (0.708775, 0, 0.705435), (0.708775, 0, 0.705435), (0.708775, 0, 0.705435), (0.708775, 0, 0.705435), (0.708775, 0, 0.705435), (0.708775, 0, 0.705435), (0.708775, 0, 0.705435), (0.708775, 0, 0.705435), (0, -1, 0), (0, -1, 0), (0, -1, 0), (0, -1, 0), (0, -1, 0), (0, -1, 0), (0, -1, 0), (0, -1, 0), (0, -1, 0), (0, -1, 0), (0, -1, 0), (0, -1, 0), (0, -1, 0), (0, -1, 0), (0, -1, 0), (0, -1, 0), (0, -1, 0), (0, -1, 0)] (interpolation = "faceVarying")
        texCoord2f[] primvars:st = [(2.37928, 8.87368), (-2.37928, 13.6322), (-2.37928, 8.87368), (-2.37928, 13.6322), (2.37928, 8.87368), (2.37928, 13.6322), (5.50605, 36.2823), (7.39975, 29.9993), (7.39975, 36.2886), (7.39975, 29.9993), (5.50605, 36.2823), (5.50605, 30.0056), (-6.27448, 28.8547), (-4.91633, 28.8861), (-6.25221, 30.779), (-4.91633, 28.8861), (-6.27448, 28.8547), (6.27448, 28.8547), (-4.91633, 28.8861), (6.27448, 28.8547), (1.37302, 28.8861), (1.37302, 28.8861), (6.27448, 28.8547), (2.70891, 30.779), (2.70891, 30.779), (6.27448, 28.8547), (2.70891, 31.3325), (6.28935, 32.6436), (2.70891, 31.3325), (6.27448, 28.8547), (2.70891, 31.3325), (6.28935, 32.6436), (1.78358, 32.6436), (-6.25221, 31.3325), (-6.27448, 28.8547), (-6.25221, 30.779), (-6.25221, 31.3325), (-6.28935, 32.6436), (-6.27448, 28.8547), (-6.28935, 32.6436), (-6.25221, 31.3325), (-5.32689, 32.6436), (-8.00561, 30.0056), (-9.89932, 36.2886), (-9.89932, 29.9993), (-9.89932, 36.2886), (-8.00561, 30.0056), (-8.00561, 36.2823), (1.37302, 36.2886), (-4.91633, 29.9993), (1.37302, 29.9993), (-4.91633, 29.9993), (1.37302, 36.2886), (-4.91633, 36.2886), (6.28935, 49.7856), (1.78358, 37.2069), (6.28935, 37.2069), (1.78358, 37.2069), (6.28935, 49.7856), (1.36559, 37.6245), (1.36559, 37.6245), (6.28935, 49.7856), (-4.90889, 37.6245), (-6.28935, 49.7856), (-4.90889, 37.6245), (6.28935, 49.7856), (-6.28935, 37.2069), (-4.90889, 37.6245), (-6.28935, 49.7856), (-4.90889, 37.6245), (-6.28935, 37.2069), (-5.32689, 37.2069), (-5.48504, 29.9993), (-7.37874, 35.8921), (-7.37874, 30.0056), (-7.37874, 35.8921), (-5.48504, 29.9993), (-5.48504, 34.5573), (6.70835, 23.6387), (-0.823687, 31.1707), (-0.823687, 23.6387), (-0.823687, 31.1707), (6.70835, 23.6387), (6.70835, 31.1707), (6.70835, 28.2558), (-0.822354, 25.9771), (6.70702, 25.9771), (-0.822354, 25.9771), (6.70835, 28.2558), (-0.823687, 28.2558), (-9.81984, 26.9309), (-10.9588, 24.9634), (-8.68636, 24.9541), (5.63908, 29.332), (4.5056, 27.3552), (6.77804, 27.3645), (-6.70835, 31.1707), (0.823687, 23.6387), (0.823687, 31.1707), (0.823687, 23.6387), (-6.70835, 31.1707), (-6.70835, 23.6387), (-6.70702, 10.4887), (0.823687, 12.7674), (-6.70835, 12.7674), (0.823687, 12.7674), (-6.70702, 10.4887), (0.822354, 10.4887), (6.48461, 31.0842), (7.43374, 32.7238), (5.54004, 32.7316), (-9.81984, 17.7255), (-8.68636, 19.7023), (-10.9588, 19.693), (8.87284, 14.1027), (13.6322, 15.5429), (8.87368, 15.5429), (13.6322, 15.5429), (8.87284, 14.1027), (13.6331, 14.1027), (-2.38492, 23.496), (2.37928, 22.0592), (2.38492, 23.496), (2.37928, 22.0592), (-2.38492, 23.496), (-2.37928, 22.0592), (6.27448, -6.3499), (-6.27448, 6.19906), (-6.27448, -6.3499), (-6.27448, 6.19906), (6.27448, -6.3499), (6.27448, 6.19906), (0.0956262, 33.3133), (1.99388, 36.5926), (-1.79351, 36.6081), (-8.03364, 22.7368), (-8.97821, 24.3842), (-9.92734, 22.7446), (-0.823687, 10.4842), (6.70702, 12.7629), (-0.822354, 12.7629), (6.70702, 12.7629), (-0.823687, 10.4842), (6.70835, 10.4842), (-7.17382, 31.1783), (-14.721, 23.6311), (-7.17382, 23.6311), (-14.721, 23.6311), (-7.17382, 31.1783), (-14.721, 31.1783), (7.71553, 23.7323), (13.9911, 25.6312), (7.71442, 25.6312), (13.9911, 25.6312), (7.71553, 23.7323), (13.99, 23.7323), (8.93612, 22.2277), (9.88069, 23.8751), (7.98699, 23.8673), (-7.18275, 6.70702), (-8.72285, 2.58279), (-7.18275, -0.822354), (-8.72285, 2.58279), (-7.18275, 6.70702), (-14.7121, 6.70702), (-7.18275, -0.822354), (-8.72285, 2.58279), (-8.37178, 0.543804), (-8.72285, 2.58279), (-14.7121, 6.70702), (-11.9996, 3.49413), (-8.37178, 0.543804), (-14.7121, -0.822354), (-7.18275, -0.822354), (-14.7121, -0.822354), (-11.9996, 3.49413), (-14.7121, 6.70702), (-14.7121, -0.822354), (-8.37178, 0.543804), (-11.6256, 1.32193), (-14.7121, -0.822354), (-11.6256, 1.32193), (-11.9996, 3.49413), (0.822354, 28.2514), (-6.70835, 25.9726), (0.823687, 25.9726), (-6.70835, 25.9726), (0.822354, 28.2514), (-6.70702, 28.2514), (6.28935, 49.7856), (-6.28935, 37.2069), (6.28935, 37.2069), (-6.28935, 37.2069), (6.28935, 49.7856), (-6.28935, 49.7856), (-7.71442, 23.1247), (-13.99, 21.2258), (-7.71553, 21.2258), (-13.99, 21.2258), (-7.71442, 23.1247), (-13.9911, 23.1247), (6.27448, 6.19906), (1.16548, 1.50557), (6.27448, -6.3499), (1.16548, 1.50557), (6.27448, 6.19906), (-6.27448, 6.19906), (1.16548, 1.50557), (-6.27448, 6.19906), (-1.16548, 1.50557), (-1.16548, 1.50557), (-6.27448, 6.19906), (-1.16548, -0.825384), (1.16548, -0.825384), (6.27448, -6.3499), (1.16548, 1.50557), (6.27448, -6.3499), (1.16548, -0.825384), (-6.27448, -6.3499), (-6.27448, -6.3499), (1.16548, -0.825384), (-1.16548, -0.825384), (-6.27448, -6.3499), (-1.16548, -0.825384), (-6.27448, 6.19906), (-6.72211, 15.9351), (-4.44967, 15.9444), (-5.58863, 17.912), (-6.28935, 32.5367), (6.27448, 28.7477), (6.28935, 32.5367), (6.27448, 28.7477), (-6.28935, 32.5367), (-6.27448, 28.7477), (6.3499, 32.639), (-6.20128, 28.8411), (6.35213, 28.8411), (-6.20128, 28.8411), (6.3499, 32.639), (-6.19906, 32.639), (-7.18275, 18.3597), (-14.721, 16.0863), (-7.17382, 16.0863), (-14.721, 16.0863), (-7.18275, 18.3597), (-14.7121, 18.3597), (5.63907, 15.3244), (6.77803, 17.2919), (4.50559, 17.3012), (7.29428, 12.0649), (8.73046, 12.0708), (8.01064, 13.3142), (-1.81926, 49.7729), (1.96815, 37.2069), (1.96815, 49.7856), (1.96815, 37.2069), (-1.81926, 49.7729), (-1.81926, 37.2195), (8.69509, 21.2481), (7.97873, 22.4974), (7.25891, 21.254), (1.86123, 37.2069), (-1.92618, 49.7729), (-1.92618, 37.2195), (-1.92618, 49.7729), (1.86123, 37.2069), (1.86123, 49.7856), (-4.90889, 30.1316), (1.37302, 32.0261), (-4.91633, 32.0261), (1.37302, 32.0261), (-4.90889, 30.1316), (1.36559, 30.1316), (14.721, 20.259), (7.18275, 22.5324), (7.17382, 20.259), (7.18275, 22.5324), (14.721, 20.259), (14.7121, 22.5324), (-1.90069, 36.5465), (-0.0115461, 33.2518), (1.88671, 36.531), (-14.721, 22.562), (-7.18275, 20.2886), (-7.17382, 22.562), (-7.18275, 20.2886), (-14.721, 22.562), (-14.7121, 20.2886), (10.9318, 23.6387), (8.65934, 31.1783), (8.65934, 23.6311), (8.65934, 31.1783), (10.9318, 23.6387), (10.9318, 31.1707), (10.9028, 26.3201), (8.6304, 26.3108), (9.76936, 24.3433), (6.28935, 28.6984), (-6.27448, 32.4874), (-6.28935, 28.6984), (-6.27448, 32.4874), (6.28935, 28.6984), (6.27448, 32.4874), (-4.48843, 23.6311), (-6.76088, 31.1707), (-6.76088, 23.6387), (-6.76088, 31.1707), (-4.48843, 23.6311), (-4.48843, 31.1783), (-6.35213, 28.8411), (6.19906, 32.639), (-6.3499, 32.639), (6.19906, 32.639), (-6.35213, 28.8411), (6.20128, 28.8411), (0.0115361, 37.6261), (-1.88672, 34.3469), (1.90068, 34.3314), (-13.6322, 14.1055), (-8.87284, 15.5457), (-13.6331, 15.5457), (-8.87284, 15.5457), (-13.6322, 14.1055), (-8.87368, 14.1055), (8.70187, 18.5883), (7.26568, 23.3534), (7.26568, 18.5932), (7.26568, 23.3534), (8.70187, 18.5883), (8.70187, 23.3582), (-11.6994, 30.3458), (-10.7882, 31.9198), (-12.6062, 31.9273), (6.90323, 15.9642), (0.878668, 14.1412), (6.90217, 14.1412), (0.878668, 14.1412), (6.90323, 15.9642), (0.877601, 15.9642), (-7.71442, 30.0056), (-13.9911, 36.2823), (-13.9911, 30.0056), (-13.9911, 36.2823), (-7.71442, 30.0056), (-8.10684, 36.2823), (-8.10684, 36.2823), (-7.71442, 30.0056), (-7.71442, 35.8921), (13.99, 23.1211), (8.10684, 21.2221), (13.9911, 21.2221), (8.10684, 21.2221), (13.99, 23.1211), (9.03654, 22.5302), (9.03654, 22.5302), (13.99, 23.1211), (9.03654, 23.1211), (2.38492, 23.3582), (-2.38492, 18.5883), (2.38492, 18.5883), (-2.38492, 18.5883), (2.38492, 23.3582), (-2.38492, 23.3582), (-5.3207, 31.0175), (-7.13865, 37.0492), (-7.13865, 31.0114), (-7.13865, 37.0492), (-5.3207, 31.0175), (-5.83392, 37.0448), (-5.83392, 37.0448), (-5.3207, 31.0175), (-5.3207, 36.6831), (6.90323, 31.0175), (0.877601, 36.6831), (0.877601, 31.0175), (0.877601, 36.6831), (6.90323, 31.0175), (6.20083, 36.6831), (6.20083, 36.6831), (6.90323, 31.0175), (6.56489, 37.0431), (6.56489, 37.0431), (6.90323, 31.0175), (6.90323, 37.0431), (15.7373, 22.1351), (9.70664, 20.3164), (15.7444, 20.3164), (9.70664, 20.3164), (15.7373, 22.1351), (9.71378, 22.1351), (8.6951, 12.9283), (7.25891, 12.9224), (7.97873, 11.6789), (-2.37928, 6.10092), (2.38492, 7.5377), (-2.38492, 7.5377), (2.38492, 7.5377), (-2.37928, 6.10092), (2.37928, 6.10092), (5.30056, 37.0492), (7.11852, 31.0175), (7.11852, 37.0431), (7.11852, 31.0175), (5.30056, 37.0492), (5.30056, 31.0114), (-8.01063, 13.3142), (-8.73046, 12.0708), (-7.29428, 12.0649), (6.27448, 32.5943), (-6.28935, 28.8053), (6.28935, 28.8053), (-6.28935, 28.8053), (6.27448, 32.5943), (-6.27448, 32.5943), (8.68595, 18.5932), (7.24977, 23.3582), (7.24977, 18.5883), (7.24977, 23.3582), (8.68595, 18.5932), (8.68595, 23.3534), (1.81926, 37.2195), (-1.96815, 49.7856), (-1.96815, 37.2069), (-1.96815, 49.7856), (1.81926, 37.2195), (1.81926, 49.7729), (2.37928, 7.51895), (-2.38492, 6.08216), (2.38492, 6.08216), (-2.38492, 6.08216), (2.37928, 7.51895), (-2.37928, 7.51895), (-7.97873, 22.4974), (-8.69509, 21.2481), (-7.25891, 21.254), (10.9029, 18.3363), (9.76938, 20.3131), (8.63043, 18.3456), (-10.957, 31.1783), (-8.68452, 23.6387), (-8.68452, 31.1707), (-8.68452, 23.6387), (-10.957, 31.1783), (-10.957, 23.6311), (1.37302, 14.7163), (-4.90889, 16.6108), (-4.91633, 14.7163), (-4.90889, 16.6108), (1.37302, 14.7163), (1.36559, 16.6108), (14.721, 31.1783), (7.17382, 23.6311), (14.721, 23.6311), (7.17382, 23.6311), (14.721, 31.1783), (7.17382, 31.1783), (6.20128, 37.2195), (-6.35213, 49.7729), (-6.35213, 37.2195), (-6.35213, 49.7729), (6.20128, 37.2195), (6.20128, 49.7729), (-7.3871, 22.4155), (-6.44253, 20.7681), (-5.4934, 22.4077), (-12.6334, 37.0431), (-10.8154, 31.0114), (-10.8154, 37.0492), (-10.8154, 31.0114), (-12.6334, 37.0431), (-12.6334, 31.0175), (-8.70187, 23.3582), (-7.26568, 18.5932), (-7.26568, 23.3534), (-7.26568, 18.5932), (-8.70187, 23.3582), (-8.70187, 18.5883), (2.38492, 23.3582), (-2.38492, 18.5883), (2.38492, 18.5883), (-2.38492, 18.5883), (2.38492, 23.3582), (-2.38492, 23.3582), (1.79352, 36.6081), (-1.99388, 36.5926), (-0.0956223, 33.3133), (2.38492, 22.0405), (-2.37928, 23.4772), (-2.38492, 22.0405), (-2.37928, 23.4772), (2.38492, 22.0405), (2.37928, 23.4772), (-7.97874, 11.6789), (-7.25891, 12.9224), (-8.6951, 12.9283), (-13.6331, 23.3534), (-8.87284, 18.5932), (-8.87284, 23.3534), (-8.87284, 18.5932), (-13.6331, 23.3534), (-13.6331, 18.5932), (12.6535, 31.0114), (10.8356, 37.0431), (10.8356, 31.0175), (10.8356, 37.0431), (12.6535, 31.0114), (12.6535, 37.0492), (7.18275, 16.116), (14.721, 18.3894), (7.17382, 18.3894), (14.721, 18.3894), (7.18275, 16.116), (14.7121, 16.116), (-0.878668, 15.9607), (-6.90323, 14.1377), (-0.877601, 14.1377), (-6.90323, 14.1377), (-0.878668, 15.9607), (-6.90217, 15.9607), (2.37928, 13.6322), (1.05622, 11.9425), (2.37928, 8.87368), (1.05622, 11.9425), (2.37928, 13.6322), (-2.37928, 13.6322), (1.05622, 11.9425), (-2.37928, 13.6322), (-1.05622, 11.9425), (1.00778, 9.69864), (2.37928, 8.87368), (1.05622, 11.9425), (2.37928, 8.87368), (1.00778, 9.69864), (-2.37928, 8.87368), (-2.37928, 8.87368), (-1.05622, 11.9425), (-2.37928, 13.6322), (-2.37928, 8.87368), (1.00778, 9.69864), (-1.00778, 9.69864), (-2.37928, 8.87368), (-1.00778, 9.69864), (-1.05622, 11.9425), (-5.30504, 21.4436), (-7.123, 21.4361), (-6.21184, 19.8621), (7.29429, 22.1114), (8.01065, 20.862), (8.73047, 22.1055), (-8.03363, 31.2721), (-9.92733, 31.2643), (-8.9782, 29.6247), (4.51362, 31.1707), (6.78606, 23.6311), (6.78606, 31.1783), (6.78606, 23.6311), (4.51362, 31.1707), (4.51362, 23.6387), (-5.81824, 34.0115), (-5.94121, 34.2259), (-7.12297, 34.0168), (-5.68256, 34.6679), (-7.12297, 34.0168), (-5.94121, 34.2259), (-7.12297, 34.0168), (-5.68256, 34.6679), (-6.21181, 35.5909), (14.7121, -0.822354), (7.18275, 6.70702), (7.18275, -0.822354), (7.18275, 6.70702), (14.7121, -0.822354), (14.7121, 6.70702), (6.20128, 32.6464), (-6.3499, 28.8485), (6.19906, 28.8485), (-6.3499, 28.8485), (6.20128, 32.6464), (-6.35213, 32.6464), (0.0956325, 37.5646), (-1.79351, 34.2698), (1.99389, 34.2854), (10.8329, 30.8345), (12.6509, 30.842), (11.7397, 32.416), (-6.90217, 32.1453), (-0.877601, 33.9683), (-6.90323, 33.9683), (-0.877601, 33.9683), (-6.90217, 32.1453), (-0.878668, 32.1453), (-6.72207, 28.7213), (-5.58859, 26.7444), (-4.44963, 28.7119), (6.48462, 22.9246), (5.54005, 21.2772), (7.43375, 21.285), (15.7373, 6.90217), (13.7966, 4.69704), (15.7373, 0.878668), (13.7966, 4.69704), (15.7373, 6.90217), (9.71378, 6.90217), (13.7966, 4.69704), (9.71378, 6.90217), (11.2389, 4.11862), (11.2389, 4.11862), (9.71378, 6.90217), (11.2389, 2.27494), (13.7966, 2.72871), (15.7373, 0.878668), (13.7966, 4.69704), (15.7373, 0.878668), (13.7966, 2.72871), (9.71378, 0.878668), (9.71378, 0.878668), (13.7966, 2.72871), (11.2389, 2.27494), (9.71378, 0.878668), (11.2389, 2.27494), (9.71378, 6.90217), (8.10684, 36.2823), (13.9911, 30.0056), (13.9911, 36.2823), (13.9911, 30.0056), (8.10684, 36.2823), (7.71442, 30.0056), (7.71442, 30.0056), (8.10684, 36.2823), (7.71442, 35.8921), (-1.37302, 16.6354), (4.90889, 14.7409), (4.91633, 16.6354), (4.90889, 14.7409), (-1.37302, 16.6354), (1.52358, 14.866), (4.90889, 14.7409), (1.52358, 14.866), (1.54943, 14.7409), (1.52358, 14.866), (-1.37302, 16.6354), (-0.37682, 14.866), (-0.37682, 14.866), (-1.37302, 16.6354), (-1.36559, 14.7409), (-1.36559, 14.7409), (-0.36073, 14.7409), (-0.37682, 14.866), (-11.6993, 25.107), (-12.6061, 23.5255), (-10.7882, 23.533), (-1.88672, 36.531), (1.26448, 36.33), (1.38745, 36.5444), (1.26448, 36.33), (-1.88672, 36.531), (1.52313, 35.8881), (1.52313, 35.8881), (-1.88672, 36.531), (0.0115364, 33.2518), (-1.90068, 34.3314), (1.88672, 34.3469), (-0.0115399, 37.6261), (-9.70664, 25.8335), (-15.7373, 27.6523), (-15.7444, 25.8335), (-15.7373, 27.6523), (-9.70664, 25.8335), (-9.71378, 27.6523), (1.36559, -13.99), (-4.90889, -9.03655), (-4.90889, -13.99), (-4.90889, -9.03655), (1.36559, -13.99), (1.36559, -9.03655), (13.6331, 18.5932), (8.87284, 23.3534), (8.87284, 18.5932), (8.87284, 23.3534), (13.6331, 18.5932), (13.6331, 23.3534), (10.8329, 24.6184), (11.7397, 23.037), (12.6509, 24.611), (6.17151, 33.5207), (7.07831, 35.1022), (5.26035, 35.0947), (-8.68595, 23.3534), (-7.24977, 18.5883), (-7.24977, 23.3582), (-7.24977, 18.5883), (-8.68595, 23.3534), (-8.68595, 18.5932), (7.98461, 34.5573), (9.87831, 30.0056), (9.87831, 35.8921), (9.87831, 30.0056), (7.98461, 34.5573), (7.98461, 29.9993), (-6.19906, 28.8485), (-0.8776, 31.8874), (-6.20083, 31.8874), (6.3499, 28.8485), (-0.8776, 31.8874), (-6.19906, 28.8485), (6.3499, 28.8485), (-0.513838, 32.3992), (-0.8776, 31.8874), (6.35213, 32.6464), (-0.513838, 32.3992), (6.3499, 28.8485), (-0.513838, 32.3992), (6.35213, 32.6464), (-0.513983, 32.6464), (4.91633, 34.5573), (-1.37302, 29.9993), (4.91633, 29.9993), (-1.37302, 29.9993), (4.91633, 34.5573), (-1.37302, 34.5573), (13.6331, 15.5457), (8.87368, 14.1055), (13.6322, 14.1055), (8.87368, 14.1055), (13.6331, 15.5457), (8.87284, 15.5457), (9.70664, 27.6759), (15.7373, 25.8572), (15.7444, 27.6759), (15.7373, 25.8572), (9.70664, 27.6759), (9.71378, 25.8572), (-13.9911, 23.7286), (-9.03655, 25.6276), (-13.99, 25.6276), (-9.03655, 25.6276), (-13.9911, 23.7286), (-9.03655, 25.0367), (-9.03655, 25.0367), (-13.9911, 23.7286), (-8.10684, 23.7286), (6.17145, 21.9322), (5.26029, 20.3581), (7.07824, 20.3507), (-9.70664, 37.0492), (-15.7444, 31.0114), (-9.70664, 31.0114), (-15.7444, 31.0114), (-9.70664, 37.0492), (-15.7444, 37.0492), (-6.90323, 37.0431), (-0.877601, 31.0175), (-0.877601, 37.0431), (-0.877601, 31.0175), (-6.90323, 37.0431), (-6.90323, 31.0175), (15.7444, 37.0492), (9.70664, 31.0114), (15.7444, 31.0114), (9.70664, 31.0114), (15.7444, 37.0492), (9.70664, 37.0492), (1.79351, 34.2698), (-0.0956286, 37.5646), (-1.99389, 34.2854), (-8.87368, 15.5429), (-13.6331, 14.1027), (-8.87284, 14.1027), (-13.6331, 14.1027), (-8.87368, 15.5429), (-13.6322, 15.5429), (-9.71378, 0.878668), (-15.7373, 6.90217), (-15.7373, 0.878668), (-15.7373, 6.90217), (-9.71378, 0.878668), (-9.71378, 6.90217), (-6.20128, 49.7729), (6.35213, 37.2195), (6.35213, 49.7729), (6.35213, 37.2195), (-6.20128, 49.7729), (-0.513983, 37.2195), (-0.513983, 37.2195), (-6.20128, 49.7729), (-0.878045, 37.5796), (-0.878045, 37.5796), (-6.20128, 49.7729), (-6.20128, 37.5796), (0.878047, 32.9009), (6.90217, 33.9649), (0.87867, 33.9649), (6.90217, 33.9649), (0.878047, 32.9009), (6.20128, 32.9009), (6.90217, 33.9649), (6.20128, 32.9009), (6.90324, 32.1418), (6.90324, 32.1418), (6.20128, 32.9009), (6.56504, 32.3891), (6.90324, 32.1418), (6.56504, 32.3891), (6.5649, 32.1418), (-15.7373, 20.3401), (-9.70664, 22.1588), (-15.7444, 22.1588), (-9.70664, 22.1588), (-15.7373, 20.3401), (-9.71378, 20.3401), (-8.01065, 20.862), (-7.29429, 22.1114), (-8.73047, 22.1055), (-1.86123, 49.7856), (1.92617, 37.5796), (1.92617, 49.7729), (1.92617, 37.5796), (-1.86123, 49.7856), (1.41295, 37.2178), (1.41295, 37.2178), (-1.86123, 49.7856), (-1.86123, 37.2069), (1.54943, -7.71553), (4.90889, -13.99), (4.90889, -7.71553), (4.90889, -13.99), (1.54943, -7.71553), (2.37964, -10.3721), (2.37964, -10.3721), (-1.36559, -13.99), (4.90889, -13.99), (-1.36559, -13.99), (2.37964, -10.3721), (0.328201, -10.3721), (-1.36559, -13.99), (0.328201, -10.3721), (-0.36073, -7.71553), (-1.36559, -13.99), (-0.36073, -7.71553), (-1.36559, -7.71553)] (interpolation = "faceVarying")
        uniform token subdivisionScheme = "none"
        rel material:binding = </Vehicle/Materials/leafsFall>
    }
    def Mesh "mesh_woodBirch" {
        int[] faceVertexCounts = [3, 3, 3, 3, 3, 3, 3, 3, 3, 3, 3, 3, 3, 3, 3, 3, 3, 3, 3, 3, 3, 3, 3, 3, 3, 3, 3, 3, 3, 3, 3, 3, 3, 3, 3, 3, 3, 3, 3, 3, 3, 3, 3, 3, 3, 3, 3, 3, 3, 3, 3, 3, 3, 3, 3, 3, 3, 3, 3, 3, 3, 3, 3, 3, 3, 3, 3, 3, 3, 3, 3, 3, 3, 3, 3, 3, 3, 3, 3, 3, 3, 3, 3, 3, 3, 3, 3, 3, 3, 3, 3, 3, 3, 3, 3, 3, 3, 3, 3, 3, 3, 3, 3, 3, 3, 3, 3, 3, 3, 3, 3, 3, 3, 3, 3, 3, 3, 3, 3, 3]
        int[] faceVertexIndices = [154, 153, 152, 153, 154, 155, 158, 157, 156, 157, 158, 135, 135, 158, 133, 159, 147, 151, 147, 159, 146, 146, 159, 160, 161, 153, 155, 153, 161, 142, 153, 142, 143, 164, 163, 162, 163, 164, 165, 168, 167, 166, 167, 168, 169, 172, 171, 170, 171, 172, 162, 162, 172, 164, 164, 172, 173, 146, 174, 144, 174, 146, 160, 143, 152, 153, 152, 143, 140, 163, 175, 162, 175, 163, 156, 178, 177, 176, 177, 178, 179, 178, 167, 169, 167, 178, 176, 181, 69, 180, 69, 181, 67, 165, 182, 163, 182, 165, 134, 182, 134, 132, 77, 184, 183, 184, 77, 80, 166, 179, 168, 179, 166, 177, 186, 170, 185, 170, 186, 172, 172, 186, 187, 172, 187, 188, 152, 189, 154, 189, 152, 141, 141, 152, 140, 177, 167, 176, 167, 177, 166, 157, 134, 165, 134, 157, 135, 173, 155, 154, 155, 173, 172, 190, 80, 81, 80, 190, 184, 188, 160, 159, 160, 188, 190, 191, 165, 164, 165, 191, 157, 192, 187, 186, 187, 192, 193, 162, 194, 171, 194, 162, 175, 185, 169, 168, 169, 185, 170, 173, 191, 164, 191, 173, 195, 195, 173, 184, 184, 173, 183, 188, 196, 172, 196, 188, 159, 197, 189, 161, 189, 197, 183, 174, 190, 197, 190, 174, 160, 179, 185, 168, 185, 179, 194, 158, 163, 182, 163, 158, 156, 68, 181, 193, 181, 68, 67, 193, 195, 187, 195, 193, 181, 195, 180, 191, 180, 195, 181, 171, 179, 178, 179, 171, 194, 145, 196, 150, 196, 145, 144, 196, 144, 174, 154, 183, 173, 183, 154, 189, 161, 141, 142, 141, 161, 189, 81, 197, 190, 197, 81, 82, 195, 188, 187, 188, 195, 190, 190, 195, 184, 170, 178, 169, 178, 170, 171, 77, 197, 82, 197, 77, 183, 174, 172, 196, 172, 174, 197, 70, 193, 192, 193, 70, 68, 197, 155, 172, 155, 197, 161, 156, 191, 175, 191, 156, 157, 191, 192, 186, 192, 191, 180, 196, 151, 150, 151, 196, 159, 132, 158, 182, 158, 132, 133, 180, 70, 192, 70, 180, 69, 194, 186, 185, 186, 194, 175, 186, 175, 191]
        point3f[] points = [(0.0604338, 0.619032, 0.225391), (0.0604338, 0.619032, 0.346259), (-0.0604338, 0.619032, 0.225391), (-0.0604338, 0.619032, 0.346259), (0.124875, 0.921732, -0.389466), (0.124875, 0.761982, -0.389466), (0.158806, 0.921571, -0.355374), (0.158806, 0.762143, -0.355374), (0.158806, 0.911659, -0.195946), (0.124875, 0.877755, -0.161854), (0.159372, 0.877192, -0.161288), (-0.159372, 0.877192, -0.161288), (-0.0348748, 0.877755, -0.161854), (-0.0688062, 0.911659, -0.195946), (-0.0688062, 0.921571, -0.205914), (-0.159749, 0.945055, -0.229528), (-0.045303, 0.945055, -0.229528), (0.158806, 0.921571, -0.205914), (0.159749, 0.945055, -0.229528), (0.135303, 0.945055, -0.229528), (-0.0348748, 0.761982, -0.389466), (-0.0348748, 0.921732, -0.389466), (-0.0688062, 0.762143, -0.355374), (-0.0688062, 0.921571, -0.355374), (-0.159749, 1.26455, -0.229528), (-0.0346859, 0.955663, -0.229528), (0.124686, 0.955663, -0.229528), (0.159749, 1.26455, -0.229528), (-0.0688062, 0.762143, -0.195946), (-0.0348748, 0.761982, -0.161854), (-0.414632, 0.600422, -0.0209216), (-0.414632, 0.791736, -0.0209216), (-0.414632, 0.600422, 0.170392), (-0.414632, 0.791736, 0.170392), (-0.373688, 0.559512, 0.170358), (-0.373688, 0.559512, -0.0208878), (-0.141497, 0.791736, 0.170392), (-0.182215, 0.791929, 0.211303), (-0.182442, 0.832646, 0.170358), (-0.182215, 0.791929, -0.0618322), (-0.141497, 0.791736, -0.0209216), (-0.182442, 0.832646, -0.0208878), (-0.141497, 0.600422, -0.0209216), (-0.141497, 0.600422, 0.170392), (-0.182442, 0.559512, 0.170358), (-0.182442, 0.559512, -0.0208878), (0.124686, 0.728051, -0.355346), (-0.182215, 0.600229, 0.211303), (-0.0863107, 0.593176, 0.22537), (-0.0863107, 0.593176, 0.34628), (0.060577, 0.472144, 0.372136), (0.0604338, 0.44641, 0.346259), (-0.060577, 0.472144, 0.372136), (-0.0604338, 0.44641, 0.346259), (0.159372, 1.33242, -0.161288), (0.159372, 1.33242, 0.157456), (-0.159372, 1.33242, -0.161288), (-0.159372, 1.33242, 0.157456), (0.227612, 0.945376, -0.161344), (-0.0346859, 0.955663, -0.355346), (-0.373688, 0.832646, -0.0208878), (-0.373688, 0.832646, 0.170358), (-0.373915, 0.600229, 0.211303), (-0.373915, 0.791929, 0.211303), (0.158806, 0.762143, -0.195946), (0.124686, 0.728051, -0.195974), (0.124875, 0.761982, -0.161854), (-0.22156, 0.559512, 0.0656028), (-0.212643, 0.559512, 0.0138126), (-0.30479, 0.559512, 0.0887508), (-0.29529, 0.559512, 0.0335771), (0.159749, 0.945055, 0.225697), (-0.159749, 0.945055, 0.225697), (0.159749, 1.26455, 0.225697), (-0.159749, 1.26455, 0.225697), (-0.0346859, 0.728051, -0.195974), (-0.0346859, 0.728051, -0.355346), (0.0296032, 0.877192, 0.0382415), (0.159372, 0.877192, 0.157456), (-0.159372, 0.877192, 0.157456), (-0.0296031, 0.877192, 0.0382415), (-0.0296031, 0.877192, -0.0209648), (0.0296032, 0.877192, -0.0209648), (0.227612, 1.26423, -0.161344), (0.227612, 1.26423, 0.157512), (-0.182215, 0.600229, -0.0618322), (-0.060577, 0.593298, 0.372136), (-0.060577, 0.593298, 0.199515), (-0.227612, 0.945376, 0.157512), (-0.227612, 1.26423, 0.157512), (-0.373915, 0.791929, -0.0618322), (-0.373915, 0.600229, -0.0618322), (-0.227612, 1.26423, -0.161344), (0.0863107, 0.472266, 0.34628), (0.0863107, 0.472266, 0.22537), (0.0604338, 0.44641, 0.225391), (-0.0863107, 0.472266, 0.34628), (0.432483, 0.787843, 0.0222911), (0.399908, 0.787689, -0.0104374), (0.399727, 0.755115, 0.0223182), (0.24673, 0.755115, 0.175315), (0.24673, 0.755115, 0.0223182), (0.213975, 0.787843, 0.175342), (0.213975, 0.787843, 0.0222911), (0.124686, 0.955663, -0.355346), (-0.060577, 0.472144, 0.199515), (0.060577, 0.472144, 0.199515), (0.060577, 0.593298, 0.199515), (0.246549, 0.787689, -0.0104374), (0.246549, 0.941049, -0.0104374), (0.22317, 0.940938, 0.0130515), (0.213975, 0.93175, 0.0222911), (0.213975, 0.93175, 0.157501), (0.213975, 0.940894, 0.166748), (0.213975, 0.940894, 0.175342), (0.399908, 0.941049, 0.208071), (0.246549, 0.941049, 0.208071), (0.399727, 0.973623, 0.175315), (0.24673, 0.973623, 0.175315), (-0.0604338, 0.44641, 0.225391), (-0.0863107, 0.472266, 0.22537), (0.432483, 0.940894, 0.175342), (0.432483, 0.787843, 0.175342), (0.399908, 0.787689, 0.208071), (0.0863107, 0.593176, 0.34628), (0.060577, 0.593298, 0.372136), (-0.227612, 0.945376, -0.161344), (0.0863107, 0.593176, 0.22537), (0.399908, 0.941049, -0.0104374), (0.432483, 0.940894, 0.0222911), (0.246549, 0.787689, 0.208071), (0.399727, 0.973623, 0.0223182), (0.026828, 0.44641, 0.30334), (-0.026828, 0.44641, 0.30334), (0.0255977, 0.44641, 0.246345), (-0.0255977, 0.44641, 0.246345), (0.227612, 0.945376, 0.0130552), (0.227612, 0.954521, 0.0223023), (0.24673, 0.973623, 0.0223182), (0.399727, 0.755115, 0.175315), (0.350435, 0.755115, 0.119305), (0.285468, 0.755115, 0.104613), (0.285468, 0.755115, 0.0577836), (0.350435, 0.755115, 0.0693091), (0.0386991, 0.73029, -0.193722), (0.0393555, 0.728051, -0.195974), (-0.00957122, 0.73029, -0.193722), (-0.00916253, 0.728051, -0.195974), (0.218417, 0.945333, 0.166752), (0.227612, 0.954521, 0.157512), (0.0604429, 0.728051, -0.263453), (0.00833632, 0.728051, -0.263453), (0.350712, 0.746749, 0.118405), (0.350712, 0.746749, 0.0678542), (0.190801, 0.62644, 0.0684054), (0.190801, 0.62644, 0.0178542), (-0.0274026, 0.361126, 0.189624), (-0.0255977, 0.415492, 0.195468), (-0.0274026, 0.429101, 0.301479), (-0.0260533, 0.631715, -0.159927), (-0.0241352, 0.689493, -0.149879), (0.18894, 0.682492, 0.0276019), (0.045671, 0.356899, 0.0584202), (0.0274026, 0.361126, 0.189624), (0.0426629, 0.44751, 0.0681612), (0.0255977, 0.415492, 0.195468), (-0.054369, 0, -0.054369), (0.054369, 0, -0.054369), (-0.0632197, 0.0498095, -0.0632198), (0.0632197, 0.0498095, -0.0632198), (0.0486792, 0.266289, -0.0486792), (0.0486792, 0.266289, 0.0486792), (0.0388855, 0.561289, 0.00262195), (0.0388855, 0.561289, 0.080393), (0.0241352, 0.689493, -0.149879), (-0.045671, 0.356899, 0.0584202), (0.054369, 0, 0.054369), (-0.054369, 0, 0.054369), (0.0632197, 0.0498095, 0.0632197), (-0.0632197, 0.0498095, 0.0632197), (-0.204523, 0.499479, 0.0538562), (-0.202901, 0.548339, 0.059109), (0.0274026, 0.429101, 0.301479), (0.0360226, 0.647524, 0.0896636), (-0.0360226, 0.647524, 0.0896636), (-0.0486792, 0.266289, -0.0486792), (-0.0423643, 0.456504, -0.0156003), (-0.0397662, 0.53476, -0.00199144), (-0.0388855, 0.561289, 0.00262195), (0.18894, 0.682492, 0.0744313), (-0.0360226, 0.647524, 0.0176184), (-0.0426629, 0.44751, 0.0681612), (-0.204338, 0.505056, 0.00192409), (-0.202727, 0.553574, 0.0103616), (-0.0486792, 0.266289, 0.0486792), (-0.0400465, 0.526317, 0.0766334), (0.0260533, 0.631715, -0.159927), (0.0360226, 0.647524, 0.0176184)]
        normal3f[] normals = [(0.601199, -0.799099, 0), (0.601199, -0.799099, 0), (0.601199, -0.799099, 0), (0.601199, -0.799099, 0), (0.601199, -0.799099, 0), (0.601199, -0.799099, 0), (-0.999137, 0.0354894, -0.021567), (-0.999137, 0.0354894, -0.021567), (-0.999137, 0.0354894, -0.021567), (-0.999137, 0.0354894, -0.021567), (-0.999137, 0.0354894, -0.021567), (-0.999137, 0.0354894, -0.021567), (-0.999137, 0.0354894, -0.021567), (-0.999137, 0.0354894, -0.021567), (-0.999137, 0.0354894, -0.021567), (-0.965213, 0.0755727, -0.250305), (-0.965213, 0.0755727, -0.250305), (-0.965213, 0.0755727, -0.250305), (-0.965213, 0.0755727, -0.250305), (-0.965213, 0.0755727, -0.250305), (-0.965213, 0.0755727, -0.250305), (-0.965213, 0.0755727, -0.250305), (-0.965213, 0.0755727, -0.250305), (-0.965213, 0.0755727, -0.250305), (0.172005, 0.174317, -0.96955), (0.172005, 0.174317, -0.96955), (0.172005, 0.174317, -0.96955), (0.172005, 0.174317, -0.96955), (0.172005, 0.174317, -0.96955), (0.172005, 0.174317, -0.96955), (0.172005, 0.174317, -0.96955), (0.172005, 0.174317, -0.96955), (0.172005, 0.174317, -0.96955), (0.990362, 0.0181175, 0.137312), (0.990362, 0.0181175, 0.137312), (0.990362, 0.0181175, 0.137312), (0.990362, 0.0181175, 0.137312), (0.990362, 0.0181175, 0.137312), (0.990362, 0.0181175, 0.137312), (0, -0.174952, -0.984577), (0, -0.174952, -0.984577), (0, -0.174952, -0.984577), (0, -0.174952, -0.984577), (0, -0.174952, -0.984577), (0, -0.174952, -0.984577), (0.999449, 0.0331808, 0), (0.999449, 0.0331808, 0), (0.999449, 0.0331808, 0), (0.999449, 0.0331808, 0), (0.999449, 0.0331808, 0), (0.999449, 0.0331808, 0), (0.999449, 0.0331808, 0), (0.999449, 0.0331808, 0), (0.999449, 0.0331808, 0), (0.999449, 0.0331808, 0), (0.999449, 0.0331808, 0), (0.999449, 0.0331808, 0), (0, 0.732073, 0.681226), (0, 0.732073, 0.681226), (0, 0.732073, 0.681226), (0, 0.732073, 0.681226), (0, 0.732073, 0.681226), (0, 0.732073, 0.681226), (0.999449, 0.0331798, 0), (0.999449, 0.0331798, 0), (0.999449, 0.0331798, 0), (0.999449, 0.0331798, 0), (0.999449, 0.0331798, 0), (0.999449, 0.0331798, 0), (0, -0.999482, 0.0321966), (0, -0.999482, 0.0321966), (0, -0.999482, 0.0321966), (0, -0.999482, 0.0321966), (0, -0.999482, 0.0321966), (0, -0.999482, 0.0321966), (0, -0.174952, 0.984577), (0, -0.174952, 0.984577), (0, -0.174952, 0.984577), (0, -0.174952, 0.984577), (0, -0.174952, 0.984577), (0, -0.174952, 0.984577), (0.984577, -0.174952, 0), (0.984577, -0.174952, 0), (0.984577, -0.174952, 0), (0.984577, -0.174952, 0), (0.984577, -0.174952, 0), (0.984577, -0.174952, 0), (0.266274, -0.111764, 0.957396), (0.266274, -0.111764, 0.957396), (0.266274, -0.111764, 0.957396), (0.266274, -0.111764, 0.957396), (0.266274, -0.111764, 0.957396), (0.266274, -0.111764, 0.957396), (0.999137, 0.0354889, -0.0215667), (0.999137, 0.0354889, -0.0215667), (0.999137, 0.0354889, -0.0215667), (0.999137, 0.0354889, -0.0215667), (0.999137, 0.0354889, -0.0215667), (0.999137, 0.0354889, -0.0215667), (0.999137, 0.0354889, -0.0215667), (0.999137, 0.0354889, -0.0215667), (0.999137, 0.0354889, -0.0215667), (0, 0.218488, 0.97584), (0, 0.218488, 0.97584), (0, 0.218488, 0.97584), (0, 0.218488, 0.97584), (0, 0.218488, 0.97584), (0, 0.218488, 0.97584), (-0.984577, -0.174951, 0), (-0.984577, -0.174951, 0), (-0.984577, -0.174951, 0), (-0.984577, -0.174951, 0), (-0.984577, -0.174951, 0), (-0.984577, -0.174951, 0), (0, 0.171331, -0.985213), (0, 0.171331, -0.985213), (0, 0.171331, -0.985213), (0, 0.171331, -0.985213), (0, 0.171331, -0.985213), (0, 0.171331, -0.985213), (0, 0.171331, -0.985213), (0, 0.171331, -0.985213), (0, 0.171331, -0.985213), (0, 0.171331, -0.985213), (0, 0.171331, -0.985213), (0, 0.171331, -0.985213), (-0.219199, -0.11148, 0.96929), (-0.219199, -0.11148, 0.96929), (-0.219199, -0.11148, 0.96929), (-0.219199, -0.11148, 0.96929), (-0.219199, -0.11148, 0.96929), (-0.219199, -0.11148, 0.96929), (-0.219199, -0.11148, 0.96929), (-0.219199, -0.11148, 0.96929), (-0.219199, -0.11148, 0.96929), (0, -1, 0), (0, -1, 0), (0, -1, 0), (0, -1, 0), (0, -1, 0), (0, -1, 0), (0, 0.854573, -0.519331), (0, 0.854573, -0.519331), (0, 0.854573, -0.519331), (0, 0.854573, -0.519331), (0, 0.854573, -0.519331), (0, 0.854573, -0.519331), (0.394148, -0.919047, 0), (0.394148, -0.919047, 0), (0.394148, -0.919047, 0), (0.394148, -0.919047, 0), (0.394148, -0.919047, 0), (0.394148, -0.919047, 0), (-0.99961, 0.0279401, 0), (-0.99961, 0.0279401, 0), (-0.99961, 0.0279401, 0), (-0.99961, 0.0279401, 0), (-0.99961, 0.0279401, 0), (-0.99961, 0.0279401, 0), (-0.997257, 0.0435196, -0.0598717), (-0.997257, 0.0435196, -0.0598717), (-0.997257, 0.0435196, -0.0598717), (-0.997257, 0.0435196, -0.0598717), (-0.997257, 0.0435196, -0.0598717), (-0.997257, 0.0435196, -0.0598717), (0, 0.969799, 0.243905), (0, 0.969799, 0.243905), (0, 0.969799, 0.243905), (0, 0.969799, 0.243905), (0, 0.969799, 0.243905), (0, 0.969799, 0.243905), (-0.0545938, 0.172835, -0.983437), (-0.0545938, 0.172835, -0.983437), (-0.0545938, 0.172835, -0.983437), (-0.0545938, 0.172835, -0.983437), (-0.0545938, 0.172835, -0.983437), (-0.0545938, 0.172835, -0.983437), (0, -0.106888, 0.994271), (0, -0.106888, 0.994271), (0, -0.106888, 0.994271), (0, -0.106888, 0.994271), (0, -0.106888, 0.994271), (0, -0.106888, 0.994271), (0, 0.0670172, -0.997752), (0, 0.0670172, -0.997752), (0, 0.0670172, -0.997752), (0, 0.0670172, -0.997752), (0, 0.0670172, -0.997752), (0, 0.0670172, -0.997752), (0, -0.106889, 0.994271), (0, -0.106889, 0.994271), (0, -0.106889, 0.994271), (0, -0.106889, 0.994271), (0, -0.106889, 0.994271), (0, -0.106889, 0.994271), (0, -0.106889, 0.994271), (0, -0.106889, 0.994271), (0, -0.106889, 0.994271), (0, -0.106889, 0.994271), (0, -0.106889, 0.994271), (0, -0.106889, 0.994271), (0, -0.917578, -0.397555), (0, -0.917578, -0.397555), (0, -0.917578, -0.397555), (0, -0.917578, -0.397555), (0, -0.917578, -0.397555), (0, -0.917578, -0.397555), (-0.222925, 0.974835, 0), (-0.222925, 0.974835, 0), (-0.222925, 0.974835, 0), (-0.222925, 0.974835, 0), (-0.222925, 0.974835, 0), (-0.222925, 0.974835, 0), (0, 0.970013, 0.243053), (0, 0.970013, 0.243053), (0, 0.970013, 0.243053), (0, 0.970013, 0.243053), (0, 0.970013, 0.243053), (0, 0.970013, 0.243053), (-0.997752, 0.067017, 0), (-0.997752, 0.067017, 0), (-0.997752, 0.067017, 0), (-0.997752, 0.067017, 0), (-0.997752, 0.067017, 0), (-0.997752, 0.067017, 0), (0, -0.854575, 0.519328), (0, -0.854575, 0.519328), (0, -0.854575, 0.519328), (0, -0.854575, 0.519328), (0, -0.854575, 0.519328), (0, -0.854575, 0.519328), (0.53491, 0.839875, 0.0920997), (0.53491, 0.839875, 0.0920997), (0.53491, 0.839875, 0.0920997), (0.53491, 0.839875, 0.0920997), (0.53491, 0.839875, 0.0920997), (0.53491, 0.839875, 0.0920997), (0.121995, 0.98681, 0.106406), (0.121995, 0.98681, 0.106406), (0.121995, 0.98681, 0.106406), (0.121995, 0.98681, 0.106406), (0.121995, 0.98681, 0.106406), (0.121995, 0.98681, 0.106406), (-0.120079, -0.102174, 0.987493), (-0.120079, -0.102174, 0.987493), (-0.120079, -0.102174, 0.987493), (-0.120079, -0.102174, 0.987493), (-0.120079, -0.102174, 0.987493), (-0.120079, -0.102174, 0.987493), (0, 0.067017, 0.997752), (0, 0.067017, 0.997752), (0, 0.067017, 0.997752), (0, 0.067017, 0.997752), (0, 0.067017, 0.997752), (0, 0.067017, 0.997752), (0.954284, -0.0201799, 0.29822), (0.954284, -0.0201799, 0.29822), (0.954284, -0.0201799, 0.29822), (0.954284, -0.0201799, 0.29822), (0.954284, -0.0201799, 0.29822), (0.954284, -0.0201799, 0.29822), (0.954284, -0.0201799, 0.29822), (0.954284, -0.0201799, 0.29822), (0.954284, -0.0201799, 0.29822), (0.121695, -0.102099, 0.987302), (0.121695, -0.102099, 0.987302), (0.121695, -0.102099, 0.987302), (0.121695, -0.102099, 0.987302), (0.121695, -0.102099, 0.987302), (0.121695, -0.102099, 0.987302), (-0.601198, 0.7991, 0), (-0.601198, 0.7991, 0), (-0.601198, 0.7991, 0), (-0.601198, 0.7991, 0), (-0.601198, 0.7991, 0), (-0.601198, 0.7991, 0), (0, -0.165673, -0.986181), (0, -0.165673, -0.986181), (0, -0.165673, -0.986181), (0, -0.165673, -0.986181), (0, -0.165673, -0.986181), (0, -0.165673, -0.986181), (-0.999449, 0.0331807, 0), (-0.999449, 0.0331807, 0), (-0.999449, 0.0331807, 0), (-0.999449, 0.0331807, 0), (-0.999449, 0.0331807, 0), (-0.999449, 0.0331807, 0), (-0.999449, 0.0331807, 0), (-0.999449, 0.0331807, 0), (-0.999449, 0.0331807, 0), (0.997752, 0.0670171, 0), (0.997752, 0.0670171, 0), (0.997752, 0.0670171, 0), (0.997752, 0.0670171, 0), (0.997752, 0.0670171, 0), (0.997752, 0.0670171, 0), (0.99961, 0.0279401, 0), (0.99961, 0.0279401, 0), (0.99961, 0.0279401, 0), (0.99961, 0.0279401, 0), (0.99961, 0.0279401, 0), (0.99961, 0.0279401, 0), (0.997257, 0.0435197, -0.0598717), (0.997257, 0.0435197, -0.0598717), (0.997257, 0.0435197, -0.0598717), (0.997257, 0.0435197, -0.0598717), (0.997257, 0.0435197, -0.0598717), (0.997257, 0.0435197, -0.0598717), (-0.229032, 0.174153, -0.957713), (-0.229032, 0.174153, -0.957713), (-0.229032, 0.174153, -0.957713), (-0.229032, 0.174153, -0.957713), (-0.229032, 0.174153, -0.957713), (-0.229032, 0.174153, -0.957713), (0.0249411, 0.172081, -0.984767), (0.0249411, 0.172081, -0.984767), (0.0249411, 0.172081, -0.984767), (0.0249411, 0.172081, -0.984767), (0.0249411, 0.172081, -0.984767), (0.0249411, 0.172081, -0.984767), (-0.990362, 0.0181174, 0.137312), (-0.990362, 0.0181174, 0.137312), (-0.990362, 0.0181174, 0.137312), (-0.990362, 0.0181174, 0.137312), (-0.990362, 0.0181174, 0.137312), (-0.990362, 0.0181174, 0.137312), (-0.295811, -0.949673, -0.103037), (-0.295811, -0.949673, -0.103037), (-0.295811, -0.949673, -0.103037), (-0.295811, -0.949673, -0.103037), (-0.295811, -0.949673, -0.103037), (-0.295811, -0.949673, -0.103037), (0, -0.732073, -0.681227), (0, -0.732073, -0.681227), (0, -0.732073, -0.681227), (0, -0.732073, -0.681227), (0, -0.732073, -0.681227), (0, -0.732073, -0.681227), (0, -0.106884, 0.994271), (0, -0.106884, 0.994271), (0, -0.106884, 0.994271), (0, -0.106884, 0.994271), (0, -0.106884, 0.994271), (0, -0.106884, 0.994271), (-0.534909, -0.839875, -0.0920993), (-0.534909, -0.839875, -0.0920993), (-0.534909, -0.839875, -0.0920993), (-0.534909, -0.839875, -0.0920993), (-0.534909, -0.839875, -0.0920993), (-0.534909, -0.839875, -0.0920993), (-0.999449, 0.0331807, 0), (-0.999449, 0.0331807, 0), (-0.999449, 0.0331807, 0), (-0.999449, 0.0331807, 0), (-0.999449, 0.0331807, 0), (-0.999449, 0.0331807, 0), (-0.999449, 0.0331807, 0), (-0.999449, 0.0331807, 0), (-0.999449, 0.0331807, 0)] (interpolation = "faceVarying")
        texCoord2f[] primvars:st = [(-2.69313, 20.8301), (-2.67143, 28.7086), (-4.66163, 28.7086), (-2.67143, 28.7086), (-2.69313, 20.8301), (-0.702923, 20.8301), (11.8898, 16.8539), (7.71556, 16.3178), (7.48704, 14.176), (7.71556, 16.3178), (11.8898, 16.8539), (9.71813, 17.5358), (9.71813, 17.5358), (11.8898, 16.8539), (11.9625, 17.5358), (-5.83725, 24.6051), (-7.37793, 28.4087), (-10.1224, 28.4087), (-7.37793, 28.4087), (-5.83725, 24.6051), (-7.28806, 28.4971), (-7.28806, 28.4971), (-5.83725, 24.6051), (-5.4733, 26.8863), (-7.51403, 26.4184), (-14.0619, 28.9875), (-7.51913, 24.1773), (-14.0619, 28.9875), (-7.51403, 26.4184), (-11.4635, 29.322), (-14.0619, 28.9875), (-11.4635, 29.322), (-14.0612, 29.322), (-2.42741, 17.5788), (-7.2466, 14.1773), (-2.03128, 14.0109), (-7.2466, 14.1773), (-2.42741, 17.5788), (-7.48428, 16.318), (2.48897, 2.36621), (-2.14051, 0.374487), (2.14051, 0.374487), (-2.14051, 0.374487), (2.48897, 2.36621), (-2.48897, 2.36621), (-0.103226, 22.035), (-1.9165, 10.4145), (1.9165, 10.4145), (-1.9165, 10.4145), (-0.103226, 22.035), (-2.30001, 13.9838), (-2.30001, 13.9838), (-0.103226, 22.035), (-2.68351, 17.5531), (-2.68351, 17.5531), (-0.103226, 22.035), (-3.16508, 22.035), (-0.37682, 25.1698), (0.950203, 22.8119), (1.52358, 25.1698), (0.950203, 22.8119), (-0.37682, 25.1698), (-0.950203, 22.8119), (-2.72871, 29.2548), (-4.66163, 28.9252), (-2.67143, 28.9252), (-4.66163, 28.9252), (-2.72871, 29.2548), (-4.69704, 29.2548), (1.07884, 7.91938), (-1.79807, 2.75122), (1.79807, 2.75122), (-1.79807, 2.75122), (1.07884, 7.91938), (-1.07884, 7.91938), (2.48897, 2.36621), (-2.14051, 0.374486), (2.14051, 0.374486), (-2.14051, 0.374486), (2.48897, 2.36621), (-2.48897, 2.36621), (-2.48897, 2.36621), (2.14051, 0.374486), (2.48897, 2.36621), (2.14051, 0.374486), (-2.48897, 2.36621), (-2.14051, 0.374486), (-8.31967, 21.4643), (-12.497, 21.9069), (-8.32579, 19.5285), (-12.497, 21.9069), (-8.31967, 21.4643), (-9.09594, 21.9069), (-7.71556, 16.3178), (-11.8898, 16.8539), (-7.48704, 14.176), (-11.8898, 16.8539), (-7.71556, 16.3178), (-9.71813, 17.5358), (-11.8898, 16.8539), (-9.71813, 17.5358), (-11.9625, 17.5358), (1.16548, 33.3718), (-1.41821, 24.1059), (1.41821, 24.1059), (-1.41821, 24.1059), (1.16548, 33.3718), (-1.16548, 33.3718), (-2.14051, 0.374486), (2.48897, 2.36621), (-2.48897, 2.36621), (2.48897, 2.36621), (-2.14051, 0.374486), (2.14051, 0.374486), (1.66788, 17.6016), (-1.9165, 10.0005), (1.9165, 10.0005), (-1.9165, 10.0005), (1.66788, 17.6016), (-1.53093, 21.7889), (-1.53093, 21.7889), (1.66788, 17.6016), (1.5656, 20.7288), (-1.53093, 21.7889), (1.5656, 20.7288), (1.53093, 21.7889), (14.4957, 29.3837), (7.90172, 26.838), (7.92085, 24.6174), (7.90172, 26.838), (14.4957, 29.3837), (11.8705, 29.7151), (11.8705, 29.7151), (14.4957, 29.3837), (14.4929, 29.7151), (-2.14051, 2.14051), (2.14051, -2.14051), (2.14051, 2.14051), (2.14051, -2.14051), (-2.14051, 2.14051), (-2.14051, -2.14051), (1.00778, 15.0716), (-1.00778, 17.4155), (-1.00778, 15.0716), (-1.00778, 17.4155), (1.00778, 15.0716), (1.00778, 17.4155), (-3.16508, 10.1169), (-0.702923, 16.6246), (-2.69313, 16.6246), (-0.702923, 16.6246), (-3.16508, 10.1169), (-0.103226, 10.1169), (0.693637, 25.4435), (1.50557, 34.4891), (-0.825384, 34.4891), (1.50557, 34.4891), (0.693637, 25.4435), (3.53006, 25.4435), (0.194787, 22.0108), (-5.83321, 27.063), (-6.22355, 24.7861), (-5.83321, 27.063), (0.194787, 22.0108), (0.777382, 25.4091), (-1.67964, 1.69477), (1.00778, -3.4734), (1.67964, 1.69477), (1.00778, -3.4734), (-1.67964, 1.69477), (-1.00778, -3.4734), (8.03663, 19.5209), (1.55885, 20.7082), (1.63128, 17.5802), (1.55885, 20.7082), (8.03663, 19.5209), (7.99172, 21.4602), (1.79807, 14.2165), (-1.9165, 10.6286), (1.9165, 10.6286), (-1.9165, 10.6286), (1.79807, 14.2165), (-1.79807, 14.2165), (1.9165, 10.3318), (-2.48897, 1.78979), (2.48897, 1.78979), (-2.48897, 1.78979), (1.9165, 10.3318), (-1.9165, 10.3318), (1.53093, 22.3097), (-1.67964, 17.8044), (1.67964, 17.8044), (-1.67964, 17.8044), (1.53093, 22.3097), (-1.57664, 20.9249), (-1.57664, 20.9249), (1.53093, 22.3097), (-1.41821, 25.7243), (-1.41821, 25.7243), (1.53093, 22.3097), (1.41821, 25.7243), (1.53093, 8.69044), (-1.02572, 15.6648), (-1.53093, 8.69044), (-1.02572, 15.6648), (1.53093, 8.69044), (1.02572, 15.6648), (0.693637, 7.06556), (2.93037, 13.2413), (1.08669, 13.2413), (2.93037, 13.2413), (0.693637, 7.06556), (3.53006, 7.06556), (0.950203, 12.3216), (-1.41821, 5.52331), (1.41821, 5.52331), (-1.41821, 5.52331), (0.950203, 12.3216), (-0.950203, 12.3216), (2.48897, 1.78979), (-1.9165, 10.3318), (-2.48897, 1.78979), (-1.9165, 10.3318), (2.48897, 1.78979), (1.9165, 10.3318), (-1.07884, 18.9166), (1.07884, 13.7634), (1.07884, 18.9166), (1.07884, 13.7634), (-1.07884, 18.9166), (-1.07884, 13.7634), (-1.95645, 18.8082), (-3.64883, 17.9978), (-1.75631, 18.3775), (-3.64883, 17.9978), (-1.95645, 18.8082), (-4.02544, 18.8082), (-5.55372, 9.19901), (-3.31005, 2.56984), (-0.970007, 4.6233), (-3.31005, 2.56984), (-5.55372, 9.19901), (-7.00454, 7.92586), (-1.20092, 20.9382), (-7.73726, 19.876), (-1.34343, 17.8192), (-7.73726, 19.876), (-1.20092, 20.9382), (-7.64891, 21.8097), (1.9165, 10.3318), (-2.48897, 1.78979), (2.48897, 1.78979), (-2.48897, 1.78979), (1.9165, 10.3318), (-1.9165, 10.3318), (7.82647, 28.641), (6.31567, 24.8475), (10.6098, 28.641), (6.31567, 24.8475), (7.82647, 28.641), (7.73412, 28.7292), (6.31567, 24.8475), (7.73412, 28.7292), (5.91557, 27.1226), (7.12595, 24.9008), (0.975714, 25.7353), (1.13223, 22.3224), (0.975714, 25.7353), (7.12595, 24.9008), (7.02421, 27.1192), (1.08669, 22.0982), (4.11862, 26.854), (2.27494, 26.854), (4.11862, 26.854), (1.08669, 22.0982), (2.93037, 22.0982), (1.16548, 34.1946), (-1.41821, 25.0258), (1.41821, 25.0258), (-1.41821, 25.0258), (1.16548, 34.1946), (-1.16548, 34.1946), (3.01706, 20.6574), (0.103226, 22.035), (-0.0784033, 20.99), (0.103226, 22.035), (3.01706, 20.6574), (0.693637, 25.432), (0.693637, 25.432), (3.01706, 20.6574), (3.53006, 25.432), (1.9165, 10.3318), (-2.48897, 1.78979), (2.48897, 1.78979), (-2.48897, 1.78979), (1.9165, 10.3318), (-1.9165, 10.3318), (-1.50557, 34.4891), (-0.693637, 25.4435), (0.825384, 34.4891), (-0.693637, 25.4435), (-1.50557, 34.4891), (-3.53006, 25.4435), (5.83321, 27.063), (-0.194787, 22.0108), (6.22355, 24.7861), (-0.194787, 22.0108), (5.83321, 27.063), (-0.777382, 25.4091), (11.6142, 21.4444), (7.85738, 21.207), (7.8418, 19.2672), (7.85738, 21.207), (11.6142, 21.4444), (8.26868, 21.4444), (-1.43532, 25.2259), (-7.52722, 24.3833), (-1.53305, 21.7794), (-7.52722, 24.3833), (-1.43532, 25.2259), (-7.4637, 26.6235), (7.2466, 14.1773), (2.42741, 17.5788), (2.03128, 14.0109), (2.42741, 17.5788), (7.2466, 14.1773), (7.48428, 16.318), (3.08668, 6.18692), (2.71776, 13.4197), (-0.0313809, 7.31745), (2.71776, 13.4197), (3.08668, 6.18692), (4.65095, 12.7187), (-1.02572, 21.552), (-0.328201, 27.1195), (-2.37964, 27.1195), (-0.328201, 27.1195), (-1.02572, 21.552), (1.02572, 21.552), (1.05622, 18.751), (-1.07884, 18.0656), (1.07884, 18.0656), (-1.07884, 18.0656), (1.05622, 18.751), (-1.05622, 18.751), (3.45586, 17.036), (3.27541, 21.3904), (1.4397, 17.4405), (3.27541, 21.3904), (3.45586, 17.036), (5.47956, 21.3904), (1.9165, 10.4145), (-0.614185, 17.9074), (-1.9165, 10.4145), (-0.614185, 17.9074), (1.9165, 10.4145), (2.30001, 13.9838), (-0.614185, 17.9074), (2.30001, 13.9838), (2.68351, 17.5531)] (interpolation = "faceVarying")
        uniform token subdivisionScheme = "none"
        rel material:binding = </Vehicle/Materials/woodBirch>
    }
    def Mesh "mesh__defaultMat" {
        int[] faceVertexCounts = [3, 3]
        int[] faceVertexIndices = [190, 183, 197, 183, 190, 184]
        point3f[] points = [(0.0604338, 0.619032, 0.225391), (0.0604338, 0.619032, 0.346259), (-0.0604338, 0.619032, 0.225391), (-0.0604338, 0.619032, 0.346259), (0.124875, 0.921732, -0.389466), (0.124875, 0.761982, -0.389466), (0.158806, 0.921571, -0.355374), (0.158806, 0.762143, -0.355374), (0.158806, 0.911659, -0.195946), (0.124875, 0.877755, -0.161854), (0.159372, 0.877192, -0.161288), (-0.159372, 0.877192, -0.161288), (-0.0348748, 0.877755, -0.161854), (-0.0688062, 0.911659, -0.195946), (-0.0688062, 0.921571, -0.205914), (-0.159749, 0.945055, -0.229528), (-0.045303, 0.945055, -0.229528), (0.158806, 0.921571, -0.205914), (0.159749, 0.945055, -0.229528), (0.135303, 0.945055, -0.229528), (-0.0348748, 0.761982, -0.389466), (-0.0348748, 0.921732, -0.389466), (-0.0688062, 0.762143, -0.355374), (-0.0688062, 0.921571, -0.355374), (-0.159749, 1.26455, -0.229528), (-0.0346859, 0.955663, -0.229528), (0.124686, 0.955663, -0.229528), (0.159749, 1.26455, -0.229528), (-0.0688062, 0.762143, -0.195946), (-0.0348748, 0.761982, -0.161854), (-0.414632, 0.600422, -0.0209216), (-0.414632, 0.791736, -0.0209216), (-0.414632, 0.600422, 0.170392), (-0.414632, 0.791736, 0.170392), (-0.373688, 0.559512, 0.170358), (-0.373688, 0.559512, -0.0208878), (-0.141497, 0.791736, 0.170392), (-0.182215, 0.791929, 0.211303), (-0.182442, 0.832646, 0.170358), (-0.182215, 0.791929, -0.0618322), (-0.141497, 0.791736, -0.0209216), (-0.182442, 0.832646, -0.0208878), (-0.141497, 0.600422, -0.0209216), (-0.141497, 0.600422, 0.170392), (-0.182442, 0.559512, 0.170358), (-0.182442, 0.559512, -0.0208878), (0.124686, 0.728051, -0.355346), (-0.182215, 0.600229, 0.211303), (-0.0863107, 0.593176, 0.22537), (-0.0863107, 0.593176, 0.34628), (0.060577, 0.472144, 0.372136), (0.0604338, 0.44641, 0.346259), (-0.060577, 0.472144, 0.372136), (-0.0604338, 0.44641, 0.346259), (0.159372, 1.33242, -0.161288), (0.159372, 1.33242, 0.157456), (-0.159372, 1.33242, -0.161288), (-0.159372, 1.33242, 0.157456), (0.227612, 0.945376, -0.161344), (-0.0346859, 0.955663, -0.355346), (-0.373688, 0.832646, -0.0208878), (-0.373688, 0.832646, 0.170358), (-0.373915, 0.600229, 0.211303), (-0.373915, 0.791929, 0.211303), (0.158806, 0.762143, -0.195946), (0.124686, 0.728051, -0.195974), (0.124875, 0.761982, -0.161854), (-0.22156, 0.559512, 0.0656028), (-0.212643, 0.559512, 0.0138126), (-0.30479, 0.559512, 0.0887508), (-0.29529, 0.559512, 0.0335771), (0.159749, 0.945055, 0.225697), (-0.159749, 0.945055, 0.225697), (0.159749, 1.26455, 0.225697), (-0.159749, 1.26455, 0.225697), (-0.0346859, 0.728051, -0.195974), (-0.0346859, 0.728051, -0.355346), (0.0296032, 0.877192, 0.0382415), (0.159372, 0.877192, 0.157456), (-0.159372, 0.877192, 0.157456), (-0.0296031, 0.877192, 0.0382415), (-0.0296031, 0.877192, -0.0209648), (0.0296032, 0.877192, -0.0209648), (0.227612, 1.26423, -0.161344), (0.227612, 1.26423, 0.157512), (-0.182215, 0.600229, -0.0618322), (-0.060577, 0.593298, 0.372136), (-0.060577, 0.593298, 0.199515), (-0.227612, 0.945376, 0.157512), (-0.227612, 1.26423, 0.157512), (-0.373915, 0.791929, -0.0618322), (-0.373915, 0.600229, -0.0618322), (-0.227612, 1.26423, -0.161344), (0.0863107, 0.472266, 0.34628), (0.0863107, 0.472266, 0.22537), (0.0604338, 0.44641, 0.225391), (-0.0863107, 0.472266, 0.34628), (0.432483, 0.787843, 0.0222911), (0.399908, 0.787689, -0.0104374), (0.399727, 0.755115, 0.0223182), (0.24673, 0.755115, 0.175315), (0.24673, 0.755115, 0.0223182), (0.213975, 0.787843, 0.175342), (0.213975, 0.787843, 0.0222911), (0.124686, 0.955663, -0.355346), (-0.060577, 0.472144, 0.199515), (0.060577, 0.472144, 0.199515), (0.060577, 0.593298, 0.199515), (0.246549, 0.787689, -0.0104374), (0.246549, 0.941049, -0.0104374), (0.22317, 0.940938, 0.0130515), (0.213975, 0.93175, 0.0222911), (0.213975, 0.93175, 0.157501), (0.213975, 0.940894, 0.166748), (0.213975, 0.940894, 0.175342), (0.399908, 0.941049, 0.208071), (0.246549, 0.941049, 0.208071), (0.399727, 0.973623, 0.175315), (0.24673, 0.973623, 0.175315), (-0.0604338, 0.44641, 0.225391), (-0.0863107, 0.472266, 0.22537), (0.432483, 0.940894, 0.175342), (0.432483, 0.787843, 0.175342), (0.399908, 0.787689, 0.208071), (0.0863107, 0.593176, 0.34628), (0.060577, 0.593298, 0.372136), (-0.227612, 0.945376, -0.161344), (0.0863107, 0.593176, 0.22537), (0.399908, 0.941049, -0.0104374), (0.432483, 0.940894, 0.0222911), (0.246549, 0.787689, 0.208071), (0.399727, 0.973623, 0.0223182), (0.026828, 0.44641, 0.30334), (-0.026828, 0.44641, 0.30334), (0.0255977, 0.44641, 0.246345), (-0.0255977, 0.44641, 0.246345), (0.227612, 0.945376, 0.0130552), (0.227612, 0.954521, 0.0223023), (0.24673, 0.973623, 0.0223182), (0.399727, 0.755115, 0.175315), (0.350435, 0.755115, 0.119305), (0.285468, 0.755115, 0.104613), (0.285468, 0.755115, 0.0577836), (0.350435, 0.755115, 0.0693091), (0.0386991, 0.73029, -0.193722), (0.0393555, 0.728051, -0.195974), (-0.00957122, 0.73029, -0.193722), (-0.00916253, 0.728051, -0.195974), (0.218417, 0.945333, 0.166752), (0.227612, 0.954521, 0.157512), (0.0604429, 0.728051, -0.263453), (0.00833632, 0.728051, -0.263453), (0.350712, 0.746749, 0.118405), (0.350712, 0.746749, 0.0678542), (0.190801, 0.62644, 0.0684054), (0.190801, 0.62644, 0.0178542), (-0.0274026, 0.361126, 0.189624), (-0.0255977, 0.415492, 0.195468), (-0.0274026, 0.429101, 0.301479), (-0.0260533, 0.631715, -0.159927), (-0.0241352, 0.689493, -0.149879), (0.18894, 0.682492, 0.0276019), (0.045671, 0.356899, 0.0584202), (0.0274026, 0.361126, 0.189624), (0.0426629, 0.44751, 0.0681612), (0.0255977, 0.415492, 0.195468), (-0.054369, 0, -0.054369), (0.054369, 0, -0.054369), (-0.0632197, 0.0498095, -0.0632198), (0.0632197, 0.0498095, -0.0632198), (0.0486792, 0.266289, -0.0486792), (0.0486792, 0.266289, 0.0486792), (0.0388855, 0.561289, 0.00262195), (0.0388855, 0.561289, 0.080393), (0.0241352, 0.689493, -0.149879), (-0.045671, 0.356899, 0.0584202), (0.054369, 0, 0.054369), (-0.054369, 0, 0.054369), (0.0632197, 0.0498095, 0.0632197), (-0.0632197, 0.0498095, 0.0632197), (-0.204523, 0.499479, 0.0538562), (-0.202901, 0.548339, 0.059109), (0.0274026, 0.429101, 0.301479), (0.0360226, 0.647524, 0.0896636), (-0.0360226, 0.647524, 0.0896636), (-0.0486792, 0.266289, -0.0486792), (-0.0423643, 0.456504, -0.0156003), (-0.0397662, 0.53476, -0.00199144), (-0.0388855, 0.561289, 0.00262195), (0.18894, 0.682492, 0.0744313), (-0.0360226, 0.647524, 0.0176184), (-0.0426629, 0.44751, 0.0681612), (-0.204338, 0.505056, 0.00192409), (-0.202727, 0.553574, 0.0103616), (-0.0486792, 0.266289, 0.0486792), (-0.0400465, 0.526317, 0.0766334), (0.0260533, 0.631715, -0.159927), (0.0360226, 0.647524, 0.0176184)]
        normal3f[] normals = [(0, 1, 0), (0, 1, 0), (0, 1, 0), (0, 1, 0), (0, 1, 0), (0, 1, 0)] (interpolation = "faceVarying")
        texCoord2f[] primvars:st = [(-1.07884, 18.0656), (1.05622, 18.751), (-1.05622, 18.751), (-1.07884, 18.0656), (1.05622, 18.751), (-1.05622, 18.751)] (interpolation = "faceVarying")
        uniform token subdivisionScheme = "none"
        rel material:binding = </Vehicle/Materials/_defaultMat>
    }
    def Scope "Materials" {
        def Material "leafsFall" {
            token outputs:surface.connect = </Vehicle/Materials/leafsFall/surface.outputs:surface>
            def Shader "surface" {
                uniform token info:id = "UsdPreviewSurface"
                float inputs:roughness = 0.7
                float inputs:metallic = 0
                color3f inputs:diffuseColor = (1, 0.287441, 0.0528607)
                token outputs:surface
            }
        }
        def Material "woodBirch" {
            token outputs:surface.connect = </Vehicle/Materials/woodBirch/surface.outputs:surface>
            def Shader "surface" {
                uniform token info:id = "UsdPreviewSurface"
                float inputs:roughness = 0.7
                float inputs:metallic = 0
                color3f inputs:diffuseColor = (1, 0.887923, 0.730461)
                token outputs:surface
            }
        }
        def Material "_defaultMat" {
            token outputs:surface.connect = </Vehicle/Materials/_defaultMat/surface.outputs:surface>
            def Shader "surface" {
                uniform token info:id = "UsdPreviewSurface"
                float inputs:roughness = 0.7
                float inputs:metallic = 0
                color3f inputs:diffuseColor = (1, 1, 1)
                token outputs:surface
            }
        }
    }
}
