#usda 1.0
(
    defaultPrim = "Vehicle"
    metersPerUnit = 1
    upAxis = "Y"
)
def Xform "Vehicle" {
    def Mesh "mesh_colormap" {
        int[] faceVertexCounts = [3, 3, 3, 3, 3, 3, 3, 3, 3, 3, 3, 3, 3, 3, 3, 3, 3, 3, 3, 3, 3, 3, 3, 3, 3, 3, 3, 3, 3, 3, 3, 3, 3, 3, 3, 3, 3, 3, 3, 3, 3, 3, 3, 3, 3, 3, 3, 3, 3, 3, 3, 3, 3, 3, 3, 3, 3, 3, 3, 3, 3, 3, 3, 3, 3, 3, 3, 3, 3, 3, 3, 3, 3, 3, 3, 3, 3, 3, 3, 3, 3, 3, 3, 3, 3, 3, 3, 3, 3, 3, 3, 3, 3, 3, 3, 3, 3, 3, 3, 3, 3, 3, 3, 3, 3, 3, 3, 3, 3, 3, 3, 3, 3, 3, 3, 3, 3, 3, 3, 3, 3, 3, 3, 3, 3, 3, 3, 3, 3, 3, 3, 3, 3, 3, 3, 3, 3, 3, 3, 3, 3, 3, 3, 3, 3, 3, 3, 3, 3, 3, 3, 3, 3, 3, 3, 3, 3, 3, 3, 3, 3, 3, 3, 3, 3, 3, 3, 3, 3, 3, 3, 3, 3, 3, 3, 3, 3, 3, 3, 3, 3, 3, 3, 3, 3, 3, 3, 3, 3, 3, 3, 3, 3, 3, 3, 3, 3, 3, 3, 3, 3, 3, 3, 3, 3, 3, 3, 3, 3, 3, 3, 3, 3, 3, 3, 3, 3, 3, 3, 3, 3, 3, 3, 3, 3, 3, 3, 3, 3, 3, 3, 3, 3, 3, 3, 3, 3, 3, 3, 3, 3, 3, 3, 3, 3, 3, 3, 3, 3, 3, 3, 3, 3, 3, 3, 3, 3, 3, 3, 3, 3, 3, 3, 3, 3, 3, 3, 3, 3, 3, 3, 3, 3, 3, 3, 3, 3, 3, 3, 3, 3, 3, 3, 3, 3, 3, 3, 3, 3, 3, 3, 3, 3, 3, 3, 3, 3, 3, 3, 3, 3, 3, 3, 3, 3, 3, 3, 3, 3, 3, 3, 3, 3, 3, 3, 3, 3, 3, 3, 3, 3, 3, 3, 3, 3, 3, 3, 3, 3, 3]
        int[] faceVertexIndices = [2, 1, 0, 1, 2, 3, 6, 5, 4, 5, 6, 7, 10, 9, 8, 9, 10, 11, 14, 13, 12, 13, 14, 15, 17, 14, 16, 14, 17, 15, 18, 11, 10, 11, 18, 19, 1, 21, 20, 21, 1, 3, 22, 7, 6, 7, 22, 23, 24, 2, 0, 2, 24, 25, 4, 27, 26, 27, 4, 5, 30, 29, 28, 29, 30, 31, 34, 33, 32, 33, 34, 35, 38, 37, 36, 37, 38, 39, 35, 40, 33, 40, 35, 41, 37, 43, 42, 43, 37, 39, 42, 34, 32, 34, 42, 43, 32, 37, 42, 37, 32, 33, 37, 33, 36, 36, 33, 40, 36, 40, 31, 31, 40, 29, 28, 40, 41, 40, 28, 29, 30, 36, 31, 36, 30, 38, 45, 22, 44, 22, 45, 23, 13, 44, 12, 44, 13, 45, 26, 25, 24, 25, 26, 27, 17, 19, 18, 19, 17, 16, 16, 11, 19, 11, 16, 9, 9, 16, 46, 46, 16, 20, 20, 16, 14, 20, 14, 1, 1, 14, 12, 1, 12, 0, 0, 12, 44, 0, 44, 24, 24, 44, 22, 24, 22, 26, 26, 22, 4, 4, 22, 6, 21, 46, 20, 46, 21, 47, 23, 5, 7, 23, 27, 5, 28, 27, 23, 28, 25, 27, 23, 30, 28, 45, 30, 23, 41, 25, 28, 41, 2, 25, 41, 3, 2, 35, 3, 41, 35, 21, 3, 34, 21, 35, 34, 47, 21, 45, 38, 30, 13, 38, 45, 15, 38, 13, 15, 39, 38, 47, 34, 43, 17, 39, 15, 17, 43, 39, 43, 8, 47, 43, 10, 8, 17, 10, 43, 10, 17, 18, 8, 46, 47, 46, 8, 9, 2, 1, 0, 1, 2, 3, 6, 5, 4, 5, 6, 7, 10, 9, 8, 9, 10, 11, 14, 13, 12, 13, 14, 15, 17, 14, 16, 14, 17, 15, 18, 11, 10, 11, 18, 19, 1, 21, 20, 21, 1, 3, 22, 7, 6, 7, 22, 23, 24, 2, 0, 2, 24, 25, 4, 27, 26, 27, 4, 5, 30, 29, 28, 29, 30, 31, 34, 33, 32, 33, 34, 35, 38, 37, 36, 37, 38, 39, 35, 40, 33, 40, 35, 41, 37, 43, 42, 43, 37, 39, 42, 34, 32, 34, 42, 43, 32, 37, 42, 37, 32, 33, 37, 33, 36, 36, 33, 40, 36, 40, 31, 31, 40, 29, 28, 40, 41, 40, 28, 29, 30, 36, 31, 36, 30, 38, 45, 22, 44, 22, 45, 23, 13, 44, 12, 44, 13, 45, 26, 25, 24, 25, 26, 27, 17, 19, 18, 19, 17, 16, 16, 11, 19, 11, 16, 9, 9, 16, 46, 46, 16, 20, 20, 16, 14, 20, 14, 1, 1, 14, 12, 1, 12, 0, 0, 12, 44, 0, 44, 24, 24, 44, 22, 24, 22, 26, 26, 22, 4, 4, 22, 6, 21, 46, 20, 46, 21, 47, 23, 5, 7, 23, 27, 5, 28, 27, 23, 28, 25, 27, 23, 30, 28, 45, 30, 23, 41, 25, 28, 41, 2, 25, 41, 3, 2, 35, 3, 41, 35, 21, 3, 34, 21, 35, 34, 47, 21, 45, 38, 30, 13, 38, 45, 15, 38, 13, 15, 39, 38, 47, 34, 43, 17, 39, 15, 17, 43, 39, 43, 8, 47, 43, 10, 8, 17, 10, 43, 10, 17, 18, 8, 46, 47, 46, 8, 9, 50, 49, 48, 49, 50, 51, 51, 50, 52, 52, 50, 53, 53, 50, 54, 53, 54, 55, 55, 54, 56, 55, 56, 57, 57, 56, 58, 57, 58, 59, 59, 58, 60, 59, 60, 61, 61, 60, 62, 62, 60, 63, 66, 65, 64, 65, 66, 67, 67, 66, 68, 67, 60, 58, 60, 67, 68, 50, 69, 54, 69, 50, 70, 70, 48, 71, 48, 70, 50, 72, 52, 53, 52, 72, 73, 61, 74, 59, 74, 61, 75, 63, 68, 66, 68, 63, 60, 65, 58, 56, 58, 65, 67, 76, 53, 55, 53, 76, 72, 59, 77, 57, 77, 59, 74, 78, 52, 73, 52, 78, 51, 71, 49, 79, 49, 71, 48, 62, 75, 61, 75, 62, 80, 79, 70, 71, 70, 79, 81, 70, 81, 69, 73, 82, 78, 82, 73, 72, 82, 72, 76, 74, 83, 77, 83, 74, 80, 80, 74, 75, 86, 85, 84, 85, 86, 87, 90, 89, 88, 89, 90, 91, 94, 93, 92, 93, 94, 95, 89, 95, 94, 89, 86, 95, 91, 86, 89, 96, 86, 91, 97, 86, 96, 86, 97, 87, 96, 98, 97, 98, 96, 99, 99, 100, 98, 100, 99, 101, 102, 92, 93, 92, 102, 103, 106, 105, 104, 105, 106, 107, 104, 109, 108, 109, 104, 105, 108, 111, 110, 111, 108, 109, 110, 113, 112, 113, 110, 111, 113, 114, 112, 114, 113, 115, 118, 117, 116, 117, 118, 119, 117, 120, 116, 120, 117, 121, 120, 107, 106, 107, 120, 121, 105, 122, 109, 109, 122, 111, 123, 111, 122, 124, 111, 123, 124, 113, 111, 125, 113, 124, 125, 115, 113, 115, 125, 119, 126, 119, 125, 126, 125, 127, 119, 126, 117, 117, 126, 128, 126, 127, 129, 122, 129, 127, 129, 122, 105, 117, 128, 121, 121, 128, 130, 105, 131, 129, 121, 130, 131, 131, 105, 107, 131, 107, 121, 110, 133, 132, 110, 132, 134, 112, 133, 110, 134, 108, 110, 112, 135, 133, 134, 104, 108, 114, 135, 112, 104, 134, 136, 135, 114, 137, 135, 137, 136, 136, 138, 104, 138, 136, 137, 104, 138, 106, 106, 138, 120, 139, 120, 138, 137, 114, 140, 118, 140, 114, 139, 116, 120, 140, 118, 116, 141, 116, 139, 140, 116, 141, 131, 139, 138, 139, 131, 130, 130, 141, 139, 141, 130, 128, 134, 127, 136, 127, 134, 122, 135, 127, 125, 127, 135, 136, 124, 132, 133, 132, 124, 123, 122, 132, 123, 132, 122, 134, 128, 140, 141, 140, 128, 126, 140, 129, 137, 129, 140, 126, 137, 131, 138, 131, 137, 129, 135, 124, 133, 124, 135, 125]
        point3f[] points = [(-0.05, 0, -0.249447), (0.05, 4.84911e-17, -0.249447), (-0.05, 0.2, -0.249447), (0.05, 0.2, -0.249447), (-0.249447, 4.84911e-17, -0.05), (-0.249447, 0.2, -0.05), (-0.249447, 0, 0.05), (-0.249447, 0.2, 0.05), (0.249447, 0.2, -0.05), (0.249447, 7.10508e-17, -0.05), (0.249447, 0.2, 0.05), (0.249447, 2.25597e-17, 0.05), (-0.05, 2.08739e-17, 0.249447), (-0.05, 0.2, 0.249447), (0.05, 6.9365e-17, 0.249447), (0.05, 0.2, 0.249447), (0.103324, 4.51195e-17, 0.249447), (0.103324, 0.2, 0.249447), (0.249447, 0.2, 0.103324), (0.249447, 4.51195e-17, 0.103324), (0.103324, 4.51195e-17, -0.249447), (0.103324, 0.2, -0.249447), (-0.249447, 4.51195e-17, 0.103324), (-0.249447, 0.2, 0.103324), (-0.103324, 4.51195e-17, -0.249447), (-0.103324, 0.2, -0.249447), (-0.249447, 4.51195e-17, -0.103324), (-0.249447, 0.2, -0.103324), (-0.199447, 0.2, -0.0826139), (-0.199447, 0.1, -0.0826139), (-0.199447, 0.2, 0.0826139), (-0.199447, 0.1, 0.0826139), (0.199447, 0.1, -0.0826139), (0.0826139, 0.1, -0.199447), (0.199447, 0.2, -0.0826139), (0.0826139, 0.2, -0.199447), (-0.0826139, 0.1, 0.199447), (0.0826139, 0.1, 0.199447), (-0.0826139, 0.2, 0.199447), (0.0826139, 0.2, 0.199447), (-0.0826139, 0.1, -0.199447), (-0.0826139, 0.2, -0.199447), (0.199447, 0.1, 0.0826139), (0.199447, 0.2, 0.0826139), (-0.103324, 4.51195e-17, 0.249447), (-0.103324, 0.2, 0.249447), (0.249447, 4.51195e-17, -0.103324), (0.249447, 0.2, -0.103324), (0.274448, 0.2, 0.11368), (0.274448, 0.2, 0.05), (0.11368, 0.2, 0.274448), (0.274448, 0.2, -0.05), (0.274448, 0.2, -0.11368), (0.11368, 0.2, -0.274448), (0.05, 0.2, 0.274448), (0.05, 0.2, -0.274448), (-0.05, 0.2, 0.274448), (-0.05, 0.2, -0.274448), (-0.11368, 0.2, 0.274448), (-0.11368, 0.2, -0.274448), (-0.274448, 0.2, 0.11368), (-0.274448, 0.2, -0.11368), (-0.274448, 0.2, -0.05), (-0.274448, 0.2, 0.05), (-0.05, 0.3, 0.05), (-0.05, 0.3, 0.274448), (-0.274448, 0.3, 0.05), (-0.11368, 0.3, 0.274448), (-0.274448, 0.3, 0.11368), (0.05, 0.3, 0.274448), (0.11368, 0.3, 0.274448), (0.274448, 0.3, 0.11368), (0.11368, 0.3, -0.274448), (0.274448, 0.3, -0.11368), (-0.11368, 0.3, -0.274448), (-0.274448, 0.3, -0.11368), (0.05, 0.3, -0.274448), (-0.05, 0.3, -0.274448), (0.274448, 0.3, -0.05), (0.274448, 0.3, 0.05), (-0.274448, 0.3, -0.05), (0.05, 0.3, 0.05), (0.05, 0.3, -0.05), (-0.05, 0.3, -0.05), (-0.05, 0.2, -0.274447), (0.05, 0.2, -0.274447), (-0.05, 0.3, -0.274447), (0.05, 0.3, -0.274447), (-0.05, 0.2, 0.274448), (-0.05, 0.3, 0.274448), (0.05, 0.2, 0.274448), (0.05, 0.3, 0.274448), (-0.274448, 0.3, 0.05), (-0.274448, 0.3, -0.05), (-0.05, 0.3, 0.05), (-0.05, 0.3, -0.05), (0.05, 0.3, 0.05), (0.05, 0.3, -0.05), (0.274447, 0.3, -0.05), (0.274447, 0.3, 0.05), (0.274447, 0.2, -0.05), (0.274447, 0.2, 0.05), (-0.274448, 0.2, -0.05), (-0.274448, 0.2, 0.05), (0, 0.4, -0.05), (0, 0.4, 0.05), (-0.0707107, 0.470711, -0.05), (-0.0707107, 0.470711, 0.05), (0.0707107, 0.470711, -0.05), (0.0707107, 0.470711, 0.05), (0.141421, 0.441421, -0.05), (0.141421, 0.441421, 0.05), (0.170711, 0.370711, -0.05), (0.170711, 0.370711, 0.05), (0.141421, 0.3, -0.05), (0.141421, 0.3, 0.05), (-0.170711, 0.370711, -0.05), (-0.170711, 0.370711, 0.05), (-0.141421, 0.3, -0.05), (-0.141421, 0.3, 0.05), (-0.141421, 0.441421, -0.05), (-0.141421, 0.441421, 0.05), (0.0824423, 0.411732, 0.05), (0.103153, 0.403153, 0.05), (0.116591, 0.370711, 0.05), (0.108012, 0.35, 0.05), (-0.108012, 0.35, 0.05), (0.0207107, 0.35, 0.05), (-0.116591, 0.370711, 0.05), (-0.0207107, 0.35, 0.05), (-0.103153, 0.403153, 0.05), (-0.0824423, 0.411732, 0.05), (0.103153, 0.403153, -0.05), (0.116591, 0.370711, -0.05), (0.0824423, 0.411732, -0.05), (0.108012, 0.35, -0.05), (0.0207107, 0.35, -0.05), (-0.0207107, 0.35, -0.05), (-0.0824423, 0.411732, -0.05), (-0.103153, 0.403153, -0.05), (-0.108012, 0.35, -0.05), (-0.116591, 0.370711, -0.05)]
        normal3f[] normals = [(0, 0, -1), (0, 0, -1), (0, 0, -1), (0, 0, -1), (0, 0, -1), (0, 0, -1), (-1, 0, 0), (-1, 0, 0), (-1, 0, 0), (-1, 0, 0), (-1, 0, 0), (-1, 0, 0), (1, 0, 0), (1, 0, 0), (1, 0, 0), (1, 0, 0), (1, 0, 0), (1, 0, 0), (0, 0, 1), (0, 0, 1), (0, 0, 1), (0, 0, 1), (0, 0, 1), (0, 0, 1), (0.382683, 0, 0.923879), (0, 0, 1), (0.382683, 0, 0.923879), (0, 0, 1), (0.382683, 0, 0.923879), (0, 0, 1), (0.923879, 0, 0.382683), (1, 0, 0), (1, 0, 0), (1, 0, 0), (0.923879, 0, 0.382683), (0.923879, 0, 0.382683), (0, 0, -1), (0.382683, 0, -0.923879), (0.382683, 0, -0.923879), (0.382683, 0, -0.923879), (0, 0, -1), (0, 0, -1), (-0.923879, 0, 0.382683), (-1, 0, 0), (-1, 0, 0), (-1, 0, 0), (-0.923879, 0, 0.382683), (-0.923879, 0, 0.382683), (-0.382683, 0, -0.923879), (0, 0, -1), (0, 0, -1), (0, 0, -1), (-0.382683, 0, -0.923879), (-0.382683, 0, -0.923879), (-1, 0, 0), (-0.923879, 0, -0.382683), (-0.923879, 0, -0.382683), (-0.923879, 0, -0.382683), (-1, 0, 0), (-1, 0, 0), (0.923879, 0, -0.382683), (0.923879, 0, 0.382683), (0.923879, 0, 0.382683), (0.923879, 0, 0.382683), (0.923879, 0, -0.382683), (0.923879, 0, -0.382683), (-0.923879, 0, 0.382683), (-0.382683, 0, 0.923879), (-0.923879, 0, 0.382683), (-0.382683, 0, 0.923879), (-0.923879, 0, 0.382683), (-0.382683, 0, 0.923879), (0.382683, 0, -0.923879), (-0.382683, 0, -0.923879), (0.382683, 0, -0.923879), (-0.382683, 0, -0.923879), (0.382683, 0, -0.923879), (-0.382683, 0, -0.923879), (-0.382683, 0, 0.923879), (0.382683, 0, 0.923879), (-0.382683, 0, 0.923879), (0.382683, 0, 0.923879), (-0.382683, 0, 0.923879), (0.382683, 0, 0.923879), (-0.382683, 0, -0.923879), (-0.923879, 0, -0.382683), (-0.923879, 0, -0.382683), (-0.923879, 0, -0.382683), (-0.382683, 0, -0.923879), (-0.382683, 0, -0.923879), (-0.923879, 0, -0.382683), (-0.923879, 0, 0.382683), (-0.923879, 0, 0.382683), (-0.923879, 0, 0.382683), (-0.923879, 0, -0.382683), (-0.923879, 0, -0.382683), (0, 1, 0), (0, 1, 0), (0, 1, 0), (0, 1, 0), (0, 1, 0), (0, 1, 0), (0, 1, 0), (0, 1, 0), (0, 1, 0), (0, 1, 0), (0, 1, 0), (0, 1, 0), (0, 1, 0), (0, 1, 0), (0, 1, 0), (0, 1, 0), (0, 1, 0), (0, 1, 0), (0.923879, 0, 0.382683), (0.382683, 0, 0.923879), (0.382683, 0, 0.923879), (0.382683, 0, 0.923879), (0.923879, 0, 0.382683), (0.923879, 0, 0.382683), (0.923879, 0, -0.382683), (0.382683, 0, -0.923879), (0.923879, 0, -0.382683), (0.382683, 0, -0.923879), (0.923879, 0, -0.382683), (0.382683, 0, -0.923879), (-0.382683, 0, 0.923879), (-0.923879, 0, 0.382683), (-0.382683, 0, 0.923879), (-0.923879, 0, 0.382683), (-0.382683, 0, 0.923879), (-0.923879, 0, 0.382683), (0, 0, 1), (-0.382683, 0, 0.923879), (0, 0, 1), (-0.382683, 0, 0.923879), (0, 0, 1), (-0.382683, 0, 0.923879), (-0.923879, 0, -0.382683), (-0.382683, 0, -0.923879), (-0.382683, 0, -0.923879), (-0.382683, 0, -0.923879), (-0.923879, 0, -0.382683), (-0.923879, 0, -0.382683), (0.382683, 0, 0.923879), (0.923879, 0, 0.382683), (0.923879, 0, 0.382683), (0.923879, 0, 0.382683), (0.382683, 0, 0.923879), (0.382683, 0, 0.923879), (0, -1, 0), (0, -1, 0), (0, -1, 0), (0, -1, 0), (0, -1, 0), (0, -1, 0), (0, -1, 0), (0, -1, 0), (0, -1, 0), (0, -1, 0), (0, -1, 0), (0, -1, 0), (0, -1, 0), (0, -1, 0), (0, -1, 0), (0, -1, 0), (0, -1, 0), (0, -1, 0), (0, -1, 0), (0, -1, 0), (0, -1, 0), (0, -1, 0), (0, -1, 0), (0, -1, 0), (0, -1, 0), (0, -1, 0), (0, -1, 0), (0, -1, 0), (0, -1, 0), (0, -1, 0), (0, -1, 0), (0, -1, 0), (0, -1, 0), (0, -1, 0), (0, -1, 0), (0, -1, 0), (0, -1, 0), (0, -1, 0), (0, -1, 0), (0, -1, 0), (0, -1, 0), (0, -1, 0), (0.382683, 0, -0.923879), (0.923879, 0, -0.382683), (0.382683, 0, -0.923879), (0.923879, 0, -0.382683), (0.382683, 0, -0.923879), (0.923879, 0, -0.382683), (0, 1, 0), (0, 1, 0), (0, 1, 0), (0, 1, 0), (0, 1, 0), (0, 1, 0), (0, 1, 0), (0, 1, 0), (0, 1, 0), (0, 1, 0), (0, 1, 0), (0, 1, 0), (0, 1, 0), (0, 1, 0), (0, 1, 0), (0, 1, 0), (0, 1, 0), (0, 1, 0), (0, 1, 0), (0, 1, 0), (0, 1, 0), (0, 1, 0), (0, 1, 0), (0, 1, 0), (0, 1, 0), (0, 1, 0), (0, 1, 0), (0, 1, 0), (0, 1, 0), (0, 1, 0), (0, 1, 0), (0, 1, 0), (0, 1, 0), (0, 1, 0), (0, 1, 0), (0, 1, 0), (0, 1, 0), (0, 1, 0), (0, 1, 0), (0, 1, 0), (0, 1, 0), (0, 1, 0), (0, 1, 0), (0, 1, 0), (0, 1, 0), (0, 1, 0), (0, 1, 0), (0, 1, 0), (0, 1, 0), (0, 1, 0), (0, 1, 0), (0, 1, 0), (0, 1, 0), (0, 1, 0), (0, 1, 0), (0, 1, 0), (0, 1, 0), (0, 1, 0), (0, 1, 0), (0, 1, 0), (0, 1, 0), (0, 1, 0), (0, 1, 0), (0, 1, 0), (0, 1, 0), (0, 1, 0), (0, 1, 0), (0, 1, 0), (0, 1, 0), (0, 1, 0), (0, 1, 0), (0, 1, 0), (1, 0, 0), (0.923879, 0, -0.382683), (0.923879, 0, -0.382683), (0.923879, 0, -0.382683), (1, 0, 0), (1, 0, 0), (0, 0, -1), (0, 0, -1), (0, 0, -1), (0, 0, -1), (0, 0, -1), (0, 0, -1), (-1, 0, 0), (-1, 0, 0), (-1, 0, 0), (-1, 0, 0), (-1, 0, 0), (-1, 0, 0), (1, 0, 0), (1, 0, 0), (1, 0, 0), (1, 0, 0), (1, 0, 0), (1, 0, 0), (0, 0, 1), (0, 0, 1), (0, 0, 1), (0, 0, 1), (0, 0, 1), (0, 0, 1), (0.382683, 0, 0.923879), (0, 0, 1), (0.382683, 0, 0.923879), (0, 0, 1), (0.382683, 0, 0.923879), (0, 0, 1), (0.923879, 0, 0.382683), (1, 0, 0), (1, 0, 0), (1, 0, 0), (0.923879, 0, 0.382683), (0.923879, 0, 0.382683), (0, 0, -1), (0.382683, 0, -0.923879), (0.382683, 0, -0.923879), (0.382683, 0, -0.923879), (0, 0, -1), (0, 0, -1), (-0.923879, 0, 0.382683), (-1, 0, 0), (-1, 0, 0), (-1, 0, 0), (-0.923879, 0, 0.382683), (-0.923879, 0, 0.382683), (-0.382683, 0, -0.923879), (0, 0, -1), (0, 0, -1), (0, 0, -1), (-0.382683, 0, -0.923879), (-0.382683, 0, -0.923879), (-1, 0, 0), (-0.923879, 0, -0.382683), (-0.923879, 0, -0.382683), (-0.923879, 0, -0.382683), (-1, 0, 0), (-1, 0, 0), (0.923879, 0, -0.382683), (0.923879, 0, 0.382683), (0.923879, 0, 0.382683), (0.923879, 0, 0.382683), (0.923879, 0, -0.382683), (0.923879, 0, -0.382683), (-0.923879, 0, 0.382683), (-0.382683, 0, 0.923879), (-0.923879, 0, 0.382683), (-0.382683, 0, 0.923879), (-0.923879, 0, 0.382683), (-0.382683, 0, 0.923879), (0.382683, 0, -0.923879), (-0.382683, 0, -0.923879), (0.382683, 0, -0.923879), (-0.382683, 0, -0.923879), (0.382683, 0, -0.923879), (-0.382683, 0, -0.923879), (-0.382683, 0, 0.923879), (0.382683, 0, 0.923879), (-0.382683, 0, 0.923879), (0.382683, 0, 0.923879), (-0.382683, 0, 0.923879), (0.382683, 0, 0.923879), (-0.382683, 0, -0.923879), (-0.923879, 0, -0.382683), (-0.923879, 0, -0.382683), (-0.923879, 0, -0.382683), (-0.382683, 0, -0.923879), (-0.382683, 0, -0.923879), (-0.923879, 0, -0.382683), (-0.923879, 0, 0.382683), (-0.923879, 0, 0.382683), (-0.923879, 0, 0.382683), (-0.923879, 0, -0.382683), (-0.923879, 0, -0.382683), (0, 1, 0), (0, 1, 0), (0, 1, 0), (0, 1, 0), (0, 1, 0), (0, 1, 0), (0, 1, 0), (0, 1, 0), (0, 1, 0), (0, 1, 0), (0, 1, 0), (0, 1, 0), (0, 1, 0), (0, 1, 0), (0, 1, 0), (0, 1, 0), (0, 1, 0), (0, 1, 0), (0.923879, 0, 0.382683), (0.382683, 0, 0.923879), (0.382683, 0, 0.923879), (0.382683, 0, 0.923879), (0.923879, 0, 0.382683), (0.923879, 0, 0.382683), (0.923879, 0, -0.382683), (0.382683, 0, -0.923879), (0.923879, 0, -0.382683), (0.382683, 0, -0.923879), (0.923879, 0, -0.382683), (0.382683, 0, -0.923879), (-0.382683, 0, 0.923879), (-0.923879, 0, 0.382683), (-0.382683, 0, 0.923879), (-0.923879, 0, 0.382683), (-0.382683, 0, 0.923879), (-0.923879, 0, 0.382683), (0, 0, 1), (-0.382683, 0, 0.923879), (0, 0, 1), (-0.382683, 0, 0.923879), (0, 0, 1), (-0.382683, 0, 0.923879), (-0.923879, 0, -0.382683), (-0.382683, 0, -0.923879), (-0.382683, 0, -0.923879), (-0.382683, 0, -0.923879), (-0.923879, 0, -0.382683), (-0.923879, 0, -0.382683), (0.382683, 0, 0.923879), (0.923879, 0, 0.382683), (0.923879, 0, 0.382683), (0.923879, 0, 0.382683), (0.382683, 0, 0.923879), (0.382683, 0, 0.923879), (0, -1, 0), (0, -1, 0), (0, -1, 0), (0, -1, 0), (0, -1, 0), (0, -1, 0), (0, -1, 0), (0, -1, 0), (0, -1, 0), (0, -1, 0), (0, -1, 0), (0, -1, 0), (0, -1, 0), (0, -1, 0), (0, -1, 0), (0, -1, 0), (0, -1, 0), (0, -1, 0), (0, -1, 0), (0, -1, 0), (0, -1, 0), (0, -1, 0), (0, -1, 0), (0, -1, 0), (0, -1, 0), (0, -1, 0), (0, -1, 0), (0, -1, 0), (0, -1, 0), (0, -1, 0), (0, -1, 0), (0, -1, 0), (0, -1, 0), (0, -1, 0), (0, -1, 0), (0, -1, 0), (0, -1, 0), (0, -1, 0), (0, -1, 0), (0, -1, 0), (0, -1, 0), (0, -1, 0), (0.382683, 0, -0.923879), (0.923879, 0, -0.382683), (0.382683, 0, -0.923879), (0.923879, 0, -0.382683), (0.382683, 0, -0.923879), (0.923879, 0, -0.382683), (0, 1, 0), (0, 1, 0), (0, 1, 0), (0, 1, 0), (0, 1, 0), (0, 1, 0), (0, 1, 0), (0, 1, 0), (0, 1, 0), (0, 1, 0), (0, 1, 0), (0, 1, 0), (0, 1, 0), (0, 1, 0), (0, 1, 0), (0, 1, 0), (0, 1, 0), (0, 1, 0), (0, 1, 0), (0, 1, 0), (0, 1, 0), (0, 1, 0), (0, 1, 0), (0, 1, 0), (0, 1, 0), (0, 1, 0), (0, 1, 0), (0, 1, 0), (0, 1, 0), (0, 1, 0), (0, 1, 0), (0, 1, 0), (0, 1, 0), (0, 1, 0), (0, 1, 0), (0, 1, 0), (0, 1, 0), (0, 1, 0), (0, 1, 0), (0, 1, 0), (0, 1, 0), (0, 1, 0), (0, 1, 0), (0, 1, 0), (0, 1, 0), (0, 1, 0), (0, 1, 0), (0, 1, 0), (0, 1, 0), (0, 1, 0), (0, 1, 0), (0, 1, 0), (0, 1, 0), (0, 1, 0), (0, 1, 0), (0, 1, 0), (0, 1, 0), (0, 1, 0), (0, 1, 0), (0, 1, 0), (0, 1, 0), (0, 1, 0), (0, 1, 0), (0, 1, 0), (0, 1, 0), (0, 1, 0), (0, 1, 0), (0, 1, 0), (0, 1, 0), (0, 1, 0), (0, 1, 0), (0, 1, 0), (1, 0, 0), (0.923879, 0, -0.382683), (0.923879, 0, -0.382683), (0.923879, 0, -0.382683), (1, 0, 0), (1, 0, 0), (0, -1, 0), (0, -1, 0), (0, -1, 0), (0, -1, 0), (0, -1, 0), (0, -1, 0), (0, -1, 0), (0, -1, 0), (0, -1, 0), (0, -1, 0), (0, -1, 0), (0, -1, 0), (0, -1, 0), (0, -1, 0), (0, -1, 0), (0, -1, 0), (0, -1, 0), (0, -1, 0), (0, -1, 0), (0, -1, 0), (0, -1, 0), (0, -1, 0), (0, -1, 0), (0, -1, 0), (0, -1, 0), (0, -1, 0), (0, -1, 0), (0, -1, 0), (0, -1, 0), (0, -1, 0), (0, -1, 0), (0, -1, 0), (0, -1, 0), (0, -1, 0), (0, -1, 0), (0, -1, 0), (0, -1, 0), (0, -1, 0), (0, -1, 0), (0, -1, 0), (0, -1, 0), (0, -1, 0), (0, 1, 0), (0, 1, 0), (0, 1, 0), (0, 1, 0), (0, 1, 0), (0, 1, 0), (0, 1, 0), (0, 1, 0), (0, 1, 0), (-0.382683, 0, 0.923879), (-0.923879, 0, 0.382683), (-0.382683, 0, 0.923879), (-0.923879, 0, 0.382683), (-0.382683, 0, 0.923879), (-0.923879, 0, 0.382683), (0.382683, 0, 0.923879), (0, 0, 1), (0, 0, 1), (0, 0, 1), (0.382683, 0, 0.923879), (0.382683, 0, 0.923879), (0.382683, 0, 0.923879), (0.923879, 0, 0.382683), (0.923879, 0, 0.382683), (0.923879, 0, 0.382683), (0.382683, 0, 0.923879), (0.382683, 0, 0.923879), (0.382683, 0, -0.923879), (0.923879, 0, -0.382683), (0.382683, 0, -0.923879), (0.923879, 0, -0.382683), (0.382683, 0, -0.923879), (0.923879, 0, -0.382683), (-0.923879, 0, -0.382683), (-0.382683, 0, -0.923879), (-0.382683, 0, -0.923879), (-0.382683, 0, -0.923879), (-0.923879, 0, -0.382683), (-0.923879, 0, -0.382683), (-1, 0, 0), (-0.923879, 0, 0.382683), (-1, 0, 0), (-0.923879, 0, 0.382683), (-1, 0, 0), (-0.923879, 0, 0.382683), (0, 0, 1), (-0.382683, 0, 0.923879), (0, 0, 1), (-0.382683, 0, 0.923879), (0, 0, 1), (-0.382683, 0, 0.923879), (0, 0, -1), (0.382683, 0, -0.923879), (0, 0, -1), (0.382683, 0, -0.923879), (0, 0, -1), (0.382683, 0, -0.923879), (-0.382683, 0, -0.923879), (0, 0, -1), (0, 0, -1), (0, 0, -1), (-0.382683, 0, -0.923879), (-0.382683, 0, -0.923879), (1, 0, 0), (0.923879, 0, -0.382683), (0.923879, 0, -0.382683), (0.923879, 0, -0.382683), (1, 0, 0), (1, 0, 0), (0.923879, 0, 0.382683), (1, 0, 0), (1, 0, 0), (1, 0, 0), (0.923879, 0, 0.382683), (0.923879, 0, 0.382683), (-1, 0, 0), (-0.923879, 0, -0.382683), (-0.923879, 0, -0.382683), (-0.923879, 0, -0.382683), (-1, 0, 0), (-1, 0, 0), (0, 1, 0), (0, 1, 0), (0, 1, 0), (0, 1, 0), (0, 1, 0), (0, 1, 0), (0, 1, 0), (0, 1, 0), (0, 1, 0), (0, 1, 0), (0, 1, 0), (0, 1, 0), (0, 1, 0), (0, 1, 0), (0, 1, 0), (0, 1, 0), (0, 1, 0), (0, 1, 0), (0, 1, 0), (0, 1, 0), (0, 1, 0), (0, 1, 0), (0, 1, 0), (0, 1, 0), (0, 1, 0), (0, 1, 0), (0, 1, 0), (0, 0, -1), (0, 0, -1), (0, 0, -1), (0, 0, -1), (0, 0, -1), (0, 0, -1), (0, 0, 1), (0, 0, 1), (0, 0, 1), (0, 0, 1), (0, 0, 1), (0, 0, 1), (0, 1, 0), (0, 1, 0), (0, 1, 0), (0, 1, 0), (0, 1, 0), (0, 1, 0), (0, 1, 0), (0, 1, 0), (0, 1, 0), (0, 1, 0), (0, 1, 0), (0, 1, 0), (0, 1, 0), (0, 1, 0), (0, 1, 0), (0, 1, 0), (0, 1, 0), (0, 1, 0), (0, 1, 0), (0, 1, 0), (0, 1, 0), (0, 1, 0), (0, 1, 0), (0, 1, 0), (0, 1, 0), (0, 1, 0), (0, 1, 0), (0, 1, 0), (0, 1, 0), (0, 1, 0), (1, 0, 0), (1, 0, 0), (1, 0, 0), (1, 0, 0), (1, 0, 0), (1, 0, 0), (-1, 0, 0), (-1, 0, 0), (-1, 0, 0), (-1, 0, 0), (-1, 0, 0), (-1, 0, 0), (0.19509, 0.980785, 0), (0.707107, 0.707107, 0), (0.707107, 0.707107, 0), (0.707107, 0.707107, 0), (0.19509, 0.980785, 0), (0.19509, 0.980785, 0), (-0.707107, 0.707107, 0), (-0.19509, 0.980785, 0), (-0.19509, 0.980785, 0), (-0.19509, 0.980785, 0), (-0.707107, 0.707107, 0), (-0.707107, 0.707107, 0), (-0.19509, 0.980785, 0), (0.707107, 0.707107, 0), (0.707107, 0.707107, 0), (0.707107, 0.707107, 0), (-0.19509, 0.980785, 0), (-0.19509, 0.980785, 0), (0.707107, 0.707107, 0), (1, 0, 0), (1, 0, 0), (1, 0, 0), (0.707107, 0.707107, 0), (0.707107, 0.707107, 0), (1, 0, 0), (0.923879, -0.382683, 0), (1, 0, 0), (0.923879, -0.382683, 0), (1, 0, 0), (0.923879, -0.382683, 0), (-0.923879, -0.382683, 0), (-1, 0, 0), (-1, 0, 0), (-1, 0, 0), (-0.923879, -0.382683, 0), (-0.923879, -0.382683, 0), (-1, 0, 0), (-0.707107, 0.707107, 0), (-1, 0, 0), (-0.707107, 0.707107, 0), (-1, 0, 0), (-0.707107, 0.707107, 0), (-0.707107, 0.707107, 0), (0.19509, 0.980785, 0), (0.19509, 0.980785, 0), (0.19509, 0.980785, 0), (-0.707107, 0.707107, 0), (-0.707107, 0.707107, 0), (0, 0, 1), (0, 0, 1), (0, 0, 1), (0, 0, 1), (0, 0, 1), (0, 0, 1), (0, 0, 1), (0, 0, 1), (0, 0, 1), (0, 0, 1), (0, 0, 1), (0, 0, 1), (0, 0, 1), (0, 0, 1), (0, 0, 1), (0, 0, 1), (0, 0, 1), (0, 0, 1), (0, 0, 1), (0, 0, 1), (0, 0, 1), (0, 0, 1), (0, 0, 1), (0, 0, 1), (0, 0, 1), (0, 0, 1), (0, 0, 1), (0, 0, 1), (0, 0, 1), (0, 0, 1), (0, 0, 1), (0, 0, 1), (0, 0, 1), (0, 0, 1), (0, 0, 1), (0, 0, 1), (0, 0, 1), (0, 0, 1), (0, 0, 1), (0, 0, 1), (0, 0, 1), (0, 0, 1), (0, 0, 1), (0, 0, 1), (0, 0, 1), (0, 0, 1), (0, 0, 1), (0, 0, 1), (0, 0, 1), (0, 0, 1), (0, 0, 1), (0, 0, 1), (0, 0, 1), (0, 0, 1), (0, 0, 1), (0, 0, 1), (0, 0, 1), (0, 0, 1), (0, 0, 1), (0, 0, 1), (0, 0, 1), (0, 0, 1), (0, 0, 1), (0, 0, -1), (0, 0, -1), (0, 0, -1), (0, 0, -1), (0, 0, -1), (0, 0, -1), (0, 0, -1), (0, 0, -1), (0, 0, -1), (0, 0, -1), (0, 0, -1), (0, 0, -1), (0, 0, -1), (0, 0, -1), (0, 0, -1), (0, 0, -1), (0, 0, -1), (0, 0, -1), (0, 0, -1), (0, 0, -1), (0, 0, -1), (0, 0, -1), (0, 0, -1), (0, 0, -1), (0, 0, -1), (0, 0, -1), (0, 0, -1), (0, 0, -1), (0, 0, -1), (0, 0, -1), (0, 0, -1), (0, 0, -1), (0, 0, -1), (0, 0, -1), (0, 0, -1), (0, 0, -1), (0, 0, -1), (0, 0, -1), (0, 0, -1), (0, 0, -1), (0, 0, -1), (0, 0, -1), (0, 0, -1), (0, 0, -1), (0, 0, -1), (0, 0, -1), (0, 0, -1), (0, 0, -1), (0, 0, -1), (0, 0, -1), (0, 0, -1), (0, 0, -1), (0, 0, -1), (0, 0, -1), (0, 0, -1), (0, 0, -1), (0, 0, -1), (0, 0, -1), (0, 0, -1), (0, 0, -1), (0, 0, -1), (0, 0, -1), (0, 0, -1), (-0.19509, -0.980785, 0), (0.707107, -0.707107, 0), (-0.19509, -0.980785, 0), (0.707107, -0.707107, 0), (-0.19509, -0.980785, 0), (0.707107, -0.707107, 0), (0.707107, -0.707107, 0), (1, 0, 0), (0.707107, -0.707107, 0), (1, 0, 0), (0.707107, -0.707107, 0), (1, 0, 0), (0.19509, -0.980785, 0), (0.707107, -0.707107, 0), (0.707107, -0.707107, 0), (0.707107, -0.707107, 0), (0.19509, -0.980785, 0), (0.19509, -0.980785, 0), (-0.55557, 0.83147, 0), (0, 1, 0), (-0.55557, 0.83147, 0), (0, 1, 0), (-0.55557, 0.83147, 0), (0, 1, 0), (-1, 0, 0), (-0.707107, -0.707107, 0), (-1, 0, 0), (-0.707107, -0.707107, 0), (-1, 0, 0), (-0.707107, -0.707107, 0), (0.19509, -0.980785, 0), (-0.707107, -0.707107, 0), (-0.707107, -0.707107, 0), (-0.707107, -0.707107, 0), (0.19509, -0.980785, 0), (0.19509, -0.980785, 0), (1, 0, 0), (0.55557, 0.83147, 0), (1, 0, 0), (0.55557, 0.83147, 0), (1, 0, 0), (0.55557, 0.83147, 0), (0.55557, 0.83147, 0), (0, 1, 0), (0, 1, 0), (0, 1, 0), (0.55557, 0.83147, 0), (0.55557, 0.83147, 0), (-0.707107, -0.707107, 0), (-0.19509, -0.980785, 0), (-0.19509, -0.980785, 0), (-0.19509, -0.980785, 0), (-0.707107, -0.707107, 0), (-0.707107, -0.707107, 0), (-0.55557, 0.83147, 0), (-1, 0, 0), (-1, 0, 0), (-1, 0, 0), (-0.55557, 0.83147, 0), (-0.55557, 0.83147, 0)] (interpolation = "faceVarying")
        texCoord2f[] primvars:st = [(0.46875, 0.475), (0.46875, 0.275), (0.46875, 0.275), (0.46875, 0.275), (0.46875, 0.475), (0.46875, 0.475), (0.46875, 0.275), (0.46875, 0.475), (0.46875, 0.275), (0.46875, 0.475), (0.46875, 0.275), (0.46875, 0.475), (0.46875, 0.475), (0.46875, 0.275), (0.46875, 0.475), (0.46875, 0.275), (0.46875, 0.475), (0.46875, 0.275), (0.46875, 0.275), (0.46875, 0.475), (0.46875, 0.275), (0.46875, 0.475), (0.46875, 0.275), (0.46875, 0.475), (0.21875, 0.025), (0.21875, 0.225), (0.21875, 0.225), (0.21875, 0.225), (0.21875, 0.025), (0.21875, 0.025), (0.21875, 0.025), (0.21875, 0.225), (0.21875, 0.025), (0.21875, 0.225), (0.21875, 0.025), (0.21875, 0.225), (0.21875, 0.225), (0.21875, 0.025), (0.21875, 0.225), (0.21875, 0.025), (0.21875, 0.225), (0.21875, 0.025), (0.21875, 0.225), (0.21875, 0.025), (0.21875, 0.225), (0.21875, 0.025), (0.21875, 0.225), (0.21875, 0.025), (0.21875, 0.225), (0.21875, 0.025), (0.21875, 0.225), (0.21875, 0.025), (0.21875, 0.225), (0.21875, 0.025), (0.21875, 0.225), (0.21875, 0.025), (0.21875, 0.225), (0.21875, 0.025), (0.21875, 0.225), (0.21875, 0.025), (0.21875, 0.025), (0.21875, 0.125), (0.21875, 0.025), (0.21875, 0.125), (0.21875, 0.025), (0.21875, 0.125), (0.21875, 0.025), (0.21875, 0.125), (0.21875, 0.125), (0.21875, 0.125), (0.21875, 0.025), (0.21875, 0.025), (0.21875, 0.025), (0.21875, 0.125), (0.21875, 0.125), (0.21875, 0.125), (0.21875, 0.025), (0.21875, 0.025), (0.21875, 0.025), (0.21875, 0.125), (0.21875, 0.125), (0.21875, 0.125), (0.21875, 0.025), (0.21875, 0.025), (0.21875, 0.125), (0.21875, 0.025), (0.21875, 0.125), (0.21875, 0.025), (0.21875, 0.125), (0.21875, 0.025), (0.21875, 0.125), (0.21875, 0.025), (0.21875, 0.125), (0.21875, 0.025), (0.21875, 0.125), (0.21875, 0.025), (0.21875, 0.125), (0.21875, 0.125), (0.21875, 0.125), (0.21875, 0.125), (0.21875, 0.125), (0.21875, 0.125), (0.21875, 0.125), (0.21875, 0.125), (0.21875, 0.125), (0.21875, 0.125), (0.21875, 0.125), (0.21875, 0.125), (0.21875, 0.125), (0.21875, 0.125), (0.21875, 0.125), (0.21875, 0.125), (0.21875, 0.125), (0.21875, 0.125), (0.21875, 0.025), (0.21875, 0.125), (0.21875, 0.025), (0.21875, 0.125), (0.21875, 0.025), (0.21875, 0.125), (0.21875, 0.025), (0.21875, 0.125), (0.21875, 0.125), (0.21875, 0.125), (0.21875, 0.025), (0.21875, 0.025), (0.21875, 0.025), (0.21875, 0.225), (0.21875, 0.225), (0.21875, 0.225), (0.21875, 0.025), (0.21875, 0.025), (0.21875, 0.025), (0.21875, 0.225), (0.21875, 0.225), (0.21875, 0.225), (0.21875, 0.025), (0.21875, 0.025), (0.21875, 0.225), (0.21875, 0.025), (0.21875, 0.225), (0.21875, 0.025), (0.21875, 0.225), (0.21875, 0.025), (0.21875, 0.025), (0.21875, 0.225), (0.21875, 0.025), (0.21875, 0.225), (0.21875, 0.025), (0.21875, 0.225), (0.21875, 0.225), (0.21875, 0.225), (0.21875, 0.225), (0.21875, 0.225), (0.21875, 0.225), (0.21875, 0.225), (0.21875, 0.225), (0.21875, 0.225), (0.21875, 0.225), (0.21875, 0.225), (0.21875, 0.225), (0.21875, 0.225), (0.21875, 0.225), (0.21875, 0.225), (0.21875, 0.225), (0.21875, 0.225), (0.21875, 0.225), (0.21875, 0.225), (0.21875, 0.225), (0.21875, 0.225), (0.21875, 0.225), (0.21875, 0.225), (0.21875, 0.225), (0.21875, 0.225), (0.21875, 0.225), (0.21875, 0.225), (0.21875, 0.225), (0.21875, 0.225), (0.21875, 0.225), (0.21875, 0.225), (0.21875, 0.225), (0.21875, 0.225), (0.21875, 0.225), (0.21875, 0.225), (0.21875, 0.225), (0.21875, 0.225), (0.21875, 0.225), (0.21875, 0.225), (0.21875, 0.225), (0.21875, 0.225), (0.21875, 0.225), (0.21875, 0.225), (0.21875, 0.025), (0.21875, 0.225), (0.21875, 0.225), (0.21875, 0.225), (0.21875, 0.025), (0.21875, 0.025), (0.21875, 0.025), (0.21875, 0.025), (0.21875, 0.025), (0.21875, 0.025), (0.21875, 0.025), (0.21875, 0.025), (0.21875, 0.025), (0.21875, 0.025), (0.21875, 0.025), (0.21875, 0.025), (0.21875, 0.025), (0.21875, 0.025), (0.21875, 0.025), (0.21875, 0.025), (0.21875, 0.025), (0.21875, 0.025), (0.21875, 0.025), (0.21875, 0.025), (0.21875, 0.025), (0.21875, 0.025), (0.21875, 0.025), (0.21875, 0.025), (0.21875, 0.025), (0.21875, 0.025), (0.21875, 0.025), (0.21875, 0.025), (0.21875, 0.025), (0.21875, 0.025), (0.21875, 0.025), (0.21875, 0.025), (0.21875, 0.025), (0.21875, 0.025), (0.21875, 0.025), (0.21875, 0.025), (0.21875, 0.025), (0.21875, 0.025), (0.21875, 0.025), (0.21875, 0.025), (0.21875, 0.025), (0.21875, 0.025), (0.21875, 0.025), (0.21875, 0.025), (0.21875, 0.025), (0.21875, 0.025), (0.21875, 0.025), (0.21875, 0.025), (0.21875, 0.025), (0.21875, 0.025), (0.21875, 0.025), (0.21875, 0.025), (0.21875, 0.025), (0.21875, 0.025), (0.21875, 0.025), (0.21875, 0.025), (0.21875, 0.025), (0.21875, 0.025), (0.21875, 0.025), (0.21875, 0.025), (0.21875, 0.025), (0.21875, 0.025), (0.21875, 0.025), (0.21875, 0.025), (0.21875, 0.025), (0.21875, 0.025), (0.21875, 0.025), (0.21875, 0.025), (0.21875, 0.025), (0.21875, 0.025), (0.21875, 0.025), (0.21875, 0.025), (0.21875, 0.025), (0.21875, 0.025), (0.21875, 0.025), (0.21875, 0.225), (0.21875, 0.025), (0.21875, 0.225), (0.21875, 0.025), (0.21875, 0.225), (0.46875, 0.475), (0.46875, 0.275), (0.46875, 0.275), (0.46875, 0.275), (0.46875, 0.475), (0.46875, 0.475), (0.46875, 0.275), (0.46875, 0.475), (0.46875, 0.275), (0.46875, 0.475), (0.46875, 0.275), (0.46875, 0.475), (0.46875, 0.475), (0.46875, 0.275), (0.46875, 0.475), (0.46875, 0.275), (0.46875, 0.475), (0.46875, 0.275), (0.46875, 0.275), (0.46875, 0.475), (0.46875, 0.275), (0.46875, 0.475), (0.46875, 0.275), (0.46875, 0.475), (0.21875, 0.025), (0.21875, 0.225), (0.21875, 0.225), (0.21875, 0.225), (0.21875, 0.025), (0.21875, 0.025), (0.21875, 0.025), (0.21875, 0.225), (0.21875, 0.025), (0.21875, 0.225), (0.21875, 0.025), (0.21875, 0.225), (0.21875, 0.225), (0.21875, 0.025), (0.21875, 0.225), (0.21875, 0.025), (0.21875, 0.225), (0.21875, 0.025), (0.21875, 0.225), (0.21875, 0.025), (0.21875, 0.225), (0.21875, 0.025), (0.21875, 0.225), (0.21875, 0.025), (0.21875, 0.225), (0.21875, 0.025), (0.21875, 0.225), (0.21875, 0.025), (0.21875, 0.225), (0.21875, 0.025), (0.21875, 0.225), (0.21875, 0.025), (0.21875, 0.225), (0.21875, 0.025), (0.21875, 0.225), (0.21875, 0.025), (0.21875, 0.025), (0.21875, 0.125), (0.21875, 0.025), (0.21875, 0.125), (0.21875, 0.025), (0.21875, 0.125), (0.21875, 0.025), (0.21875, 0.125), (0.21875, 0.125), (0.21875, 0.125), (0.21875, 0.025), (0.21875, 0.025), (0.21875, 0.025), (0.21875, 0.125), (0.21875, 0.125), (0.21875, 0.125), (0.21875, 0.025), (0.21875, 0.025), (0.21875, 0.025), (0.21875, 0.125), (0.21875, 0.125), (0.21875, 0.125), (0.21875, 0.025), (0.21875, 0.025), (0.21875, 0.125), (0.21875, 0.025), (0.21875, 0.125), (0.21875, 0.025), (0.21875, 0.125), (0.21875, 0.025), (0.21875, 0.125), (0.21875, 0.025), (0.21875, 0.125), (0.21875, 0.025), (0.21875, 0.125), (0.21875, 0.025), (0.21875, 0.125), (0.21875, 0.125), (0.21875, 0.125), (0.21875, 0.125), (0.21875, 0.125), (0.21875, 0.125), (0.21875, 0.125), (0.21875, 0.125), (0.21875, 0.125), (0.21875, 0.125), (0.21875, 0.125), (0.21875, 0.125), (0.21875, 0.125), (0.21875, 0.125), (0.21875, 0.125), (0.21875, 0.125), (0.21875, 0.125), (0.21875, 0.125), (0.21875, 0.025), (0.21875, 0.125), (0.21875, 0.025), (0.21875, 0.125), (0.21875, 0.025), (0.21875, 0.125), (0.21875, 0.025), (0.21875, 0.125), (0.21875, 0.125), (0.21875, 0.125), (0.21875, 0.025), (0.21875, 0.025), (0.21875, 0.025), (0.21875, 0.225), (0.21875, 0.225), (0.21875, 0.225), (0.21875, 0.025), (0.21875, 0.025), (0.21875, 0.025), (0.21875, 0.225), (0.21875, 0.225), (0.21875, 0.225), (0.21875, 0.025), (0.21875, 0.025), (0.21875, 0.225), (0.21875, 0.025), (0.21875, 0.225), (0.21875, 0.025), (0.21875, 0.225), (0.21875, 0.025), (0.21875, 0.025), (0.21875, 0.225), (0.21875, 0.025), (0.21875, 0.225), (0.21875, 0.025), (0.21875, 0.225), (0.21875, 0.225), (0.21875, 0.225), (0.21875, 0.225), (0.21875, 0.225), (0.21875, 0.225), (0.21875, 0.225), (0.21875, 0.225), (0.21875, 0.225), (0.21875, 0.225), (0.21875, 0.225), (0.21875, 0.225), (0.21875, 0.225), (0.21875, 0.225), (0.21875, 0.225), (0.21875, 0.225), (0.21875, 0.225), (0.21875, 0.225), (0.21875, 0.225), (0.21875, 0.225), (0.21875, 0.225), (0.21875, 0.225), (0.21875, 0.225), (0.21875, 0.225), (0.21875, 0.225), (0.21875, 0.225), (0.21875, 0.225), (0.21875, 0.225), (0.21875, 0.225), (0.21875, 0.225), (0.21875, 0.225), (0.21875, 0.225), (0.21875, 0.225), (0.21875, 0.225), (0.21875, 0.225), (0.21875, 0.225), (0.21875, 0.225), (0.21875, 0.225), (0.21875, 0.225), (0.21875, 0.225), (0.21875, 0.225), (0.21875, 0.225), (0.21875, 0.225), (0.21875, 0.025), (0.21875, 0.225), (0.21875, 0.225), (0.21875, 0.225), (0.21875, 0.025), (0.21875, 0.025), (0.21875, 0.025), (0.21875, 0.025), (0.21875, 0.025), (0.21875, 0.025), (0.21875, 0.025), (0.21875, 0.025), (0.21875, 0.025), (0.21875, 0.025), (0.21875, 0.025), (0.21875, 0.025), (0.21875, 0.025), (0.21875, 0.025), (0.21875, 0.025), (0.21875, 0.025), (0.21875, 0.025), (0.21875, 0.025), (0.21875, 0.025), (0.21875, 0.025), (0.21875, 0.025), (0.21875, 0.025), (0.21875, 0.025), (0.21875, 0.025), (0.21875, 0.025), (0.21875, 0.025), (0.21875, 0.025), (0.21875, 0.025), (0.21875, 0.025), (0.21875, 0.025), (0.21875, 0.025), (0.21875, 0.025), (0.21875, 0.025), (0.21875, 0.025), (0.21875, 0.025), (0.21875, 0.025), (0.21875, 0.025), (0.21875, 0.025), (0.21875, 0.025), (0.21875, 0.025), (0.21875, 0.025), (0.21875, 0.025), (0.21875, 0.025), (0.21875, 0.025), (0.21875, 0.025), (0.21875, 0.025), (0.21875, 0.025), (0.21875, 0.025), (0.21875, 0.025), (0.21875, 0.025), (0.21875, 0.025), (0.21875, 0.025), (0.21875, 0.025), (0.21875, 0.025), (0.21875, 0.025), (0.21875, 0.025), (0.21875, 0.025), (0.21875, 0.025), (0.21875, 0.025), (0.21875, 0.025), (0.21875, 0.025), (0.21875, 0.025), (0.21875, 0.025), (0.21875, 0.025), (0.21875, 0.025), (0.21875, 0.025), (0.21875, 0.025), (0.21875, 0.025), (0.21875, 0.025), (0.21875, 0.025), (0.21875, 0.025), (0.21875, 0.025), (0.21875, 0.025), (0.21875, 0.025), (0.21875, 0.025), (0.21875, 0.225), (0.21875, 0.025), (0.21875, 0.225), (0.21875, 0.025), (0.21875, 0.225), (0.21875, 0.075), (0.21875, 0.075), (0.21875, 0.075), (0.21875, 0.075), (0.21875, 0.075), (0.21875, 0.075), (0.21875, 0.075), (0.21875, 0.075), (0.21875, 0.075), (0.21875, 0.075), (0.21875, 0.075), (0.21875, 0.075), (0.21875, 0.075), (0.21875, 0.075), (0.21875, 0.075), (0.21875, 0.075), (0.21875, 0.075), (0.21875, 0.075), (0.21875, 0.075), (0.21875, 0.075), (0.21875, 0.075), (0.21875, 0.075), (0.21875, 0.075), (0.21875, 0.075), (0.21875, 0.075), (0.21875, 0.075), (0.21875, 0.075), (0.21875, 0.075), (0.21875, 0.075), (0.21875, 0.075), (0.21875, 0.075), (0.21875, 0.075), (0.21875, 0.075), (0.21875, 0.075), (0.21875, 0.075), (0.21875, 0.075), (0.21875, 0.075), (0.21875, 0.075), (0.21875, 0.075), (0.21875, 0.075), (0.21875, 0.075), (0.21875, 0.075), (0.21875, 0.175), (0.21875, 0.175), (0.21875, 0.175), (0.21875, 0.175), (0.21875, 0.175), (0.21875, 0.175), (0.21875, 0.175), (0.21875, 0.175), (0.21875, 0.175), (0.21875, 0.175), (0.21875, 0.075), (0.21875, 0.075), (0.21875, 0.075), (0.21875, 0.175), (0.21875, 0.175), (0.21875, 0.075), (0.21875, 0.175), (0.21875, 0.075), (0.21875, 0.175), (0.21875, 0.075), (0.21875, 0.175), (0.21875, 0.175), (0.21875, 0.075), (0.21875, 0.175), (0.21875, 0.075), (0.21875, 0.175), (0.21875, 0.075), (0.21875, 0.175), (0.21875, 0.075), (0.21875, 0.075), (0.21875, 0.075), (0.21875, 0.175), (0.21875, 0.175), (0.21875, 0.075), (0.21875, 0.175), (0.21875, 0.075), (0.21875, 0.175), (0.21875, 0.075), (0.21875, 0.175), (0.21875, 0.075), (0.21875, 0.175), (0.21875, 0.175), (0.21875, 0.175), (0.21875, 0.075), (0.21875, 0.075), (0.21875, 0.175), (0.21875, 0.075), (0.21875, 0.075), (0.21875, 0.075), (0.21875, 0.175), (0.21875, 0.175), (0.21875, 0.175), (0.21875, 0.075), (0.21875, 0.075), (0.21875, 0.075), (0.21875, 0.175), (0.21875, 0.175), (0.21875, 0.075), (0.21875, 0.175), (0.21875, 0.075), (0.21875, 0.175), (0.21875, 0.075), (0.21875, 0.175), (0.21875, 0.175), (0.21875, 0.075), (0.21875, 0.175), (0.21875, 0.075), (0.21875, 0.175), (0.21875, 0.075), (0.21875, 0.175), (0.21875, 0.075), (0.21875, 0.175), (0.21875, 0.075), (0.21875, 0.175), (0.21875, 0.075), (0.21875, 0.075), (0.21875, 0.175), (0.21875, 0.075), (0.21875, 0.175), (0.21875, 0.075), (0.21875, 0.175), (0.21875, 0.175), (0.21875, 0.175), (0.21875, 0.175), (0.21875, 0.175), (0.21875, 0.175), (0.21875, 0.175), (0.21875, 0.175), (0.21875, 0.175), (0.21875, 0.175), (0.21875, 0.175), (0.21875, 0.175), (0.21875, 0.175), (0.21875, 0.175), (0.21875, 0.175), (0.21875, 0.175), (0.21875, 0.175), (0.21875, 0.175), (0.21875, 0.175), (0.21875, 0.175), (0.21875, 0.175), (0.21875, 0.175), (0.21875, 0.175), (0.21875, 0.175), (0.21875, 0.175), (0.21875, 0.175), (0.21875, 0.175), (0.21875, 0.175), (0.46875, 0.475), (0.46875, 0.275), (0.46875, 0.275), (0.46875, 0.275), (0.46875, 0.475), (0.46875, 0.475), (0.46875, 0.275), (0.46875, 0.475), (0.46875, 0.275), (0.46875, 0.475), (0.46875, 0.275), (0.46875, 0.475), (0.46875, 0.475), (0.46875, 0.475), (0.46875, 0.475), (0.46875, 0.475), (0.46875, 0.475), (0.46875, 0.475), (0.46875, 0.475), (0.46875, 0.475), (0.46875, 0.475), (0.46875, 0.475), (0.46875, 0.475), (0.46875, 0.475), (0.46875, 0.475), (0.46875, 0.475), (0.46875, 0.475), (0.46875, 0.475), (0.46875, 0.475), (0.46875, 0.475), (0.46875, 0.475), (0.46875, 0.475), (0.46875, 0.475), (0.46875, 0.475), (0.46875, 0.475), (0.46875, 0.475), (0.46875, 0.475), (0.46875, 0.475), (0.46875, 0.475), (0.46875, 0.475), (0.46875, 0.475), (0.46875, 0.475), (0.46875, 0.475), (0.46875, 0.275), (0.46875, 0.475), (0.46875, 0.275), (0.46875, 0.475), (0.46875, 0.275), (0.46875, 0.275), (0.46875, 0.475), (0.46875, 0.475), (0.46875, 0.475), (0.46875, 0.275), (0.46875, 0.275), (0.46875, 0.475), (0.46875, 0.433579), (0.46875, 0.433579), (0.46875, 0.433579), (0.46875, 0.475), (0.46875, 0.475), (0.46875, 0.433579), (0.46875, 0.475), (0.46875, 0.475), (0.46875, 0.475), (0.46875, 0.433579), (0.46875, 0.433579), (0.46875, 0.475), (0.46875, 0.457843), (0.46875, 0.457843), (0.46875, 0.457843), (0.46875, 0.475), (0.46875, 0.475), (0.46875, 0.457843), (0.46875, 0.416421), (0.46875, 0.416421), (0.46875, 0.416421), (0.46875, 0.457843), (0.46875, 0.457843), (0.46875, 0.416421), (0.46875, 0.375), (0.46875, 0.416421), (0.46875, 0.375), (0.46875, 0.416421), (0.46875, 0.375), (0.46875, 0.375), (0.46875, 0.416421), (0.46875, 0.416421), (0.46875, 0.416421), (0.46875, 0.375), (0.46875, 0.375), (0.46875, 0.416421), (0.46875, 0.457843), (0.46875, 0.416421), (0.46875, 0.457843), (0.46875, 0.416421), (0.46875, 0.457843), (0.46875, 0.457843), (0.46875, 0.475), (0.46875, 0.475), (0.46875, 0.475), (0.46875, 0.457843), (0.46875, 0.457843), (0.46875, 0.433579), (0.46875, 0.440451), (0.46875, 0.475), (0.46875, 0.475), (0.46875, 0.440451), (0.46875, 0.457843), (0.46875, 0.435426), (0.46875, 0.457843), (0.46875, 0.440451), (0.46875, 0.416421), (0.46875, 0.457843), (0.46875, 0.435426), (0.46875, 0.416421), (0.46875, 0.416421), (0.46875, 0.457843), (0.46875, 0.404289), (0.46875, 0.416421), (0.46875, 0.416421), (0.46875, 0.404289), (0.46875, 0.375), (0.46875, 0.416421), (0.46875, 0.375), (0.46875, 0.404289), (0.46875, 0.375), (0.46875, 0.404289), (0.46875, 0.375), (0.46875, 0.404289), (0.46875, 0.404289), (0.46875, 0.404289), (0.46875, 0.404289), (0.46875, 0.375), (0.46875, 0.404289), (0.46875, 0.416421), (0.46875, 0.416421), (0.46875, 0.404289), (0.46875, 0.416421), (0.46875, 0.404289), (0.46875, 0.404289), (0.46875, 0.404289), (0.46875, 0.440451), (0.46875, 0.404289), (0.46875, 0.404289), (0.46875, 0.404289), (0.46875, 0.440451), (0.46875, 0.433579), (0.46875, 0.416421), (0.46875, 0.416421), (0.46875, 0.457843), (0.46875, 0.457843), (0.46875, 0.416421), (0.46875, 0.435426), (0.46875, 0.433579), (0.46875, 0.440451), (0.46875, 0.404289), (0.46875, 0.457843), (0.46875, 0.435426), (0.46875, 0.440451), (0.46875, 0.440451), (0.46875, 0.433579), (0.46875, 0.475), (0.46875, 0.440451), (0.46875, 0.475), (0.46875, 0.457843), (0.46875, 0.457843), (0.46875, 0.416421), (0.46875, 0.435426), (0.46875, 0.457843), (0.46875, 0.435426), (0.46875, 0.440451), (0.46875, 0.416421), (0.46875, 0.416421), (0.46875, 0.457843), (0.46875, 0.440451), (0.46875, 0.475), (0.46875, 0.457843), (0.46875, 0.416421), (0.46875, 0.404289), (0.46875, 0.416421), (0.46875, 0.440451), (0.46875, 0.433579), (0.46875, 0.475), (0.46875, 0.375), (0.46875, 0.404289), (0.46875, 0.416421), (0.46875, 0.433579), (0.46875, 0.440451), (0.46875, 0.404289), (0.46875, 0.404289), (0.46875, 0.375), (0.46875, 0.404289), (0.46875, 0.404289), (0.46875, 0.404289), (0.46875, 0.404289), (0.46875, 0.404289), (0.46875, 0.440451), (0.46875, 0.433579), (0.46875, 0.440451), (0.46875, 0.404289), (0.46875, 0.404289), (0.46875, 0.433579), (0.46875, 0.440451), (0.46875, 0.475), (0.46875, 0.475), (0.46875, 0.440451), (0.46875, 0.457843), (0.46875, 0.435426), (0.46875, 0.457843), (0.46875, 0.440451), (0.46875, 0.404289), (0.46875, 0.375), (0.46875, 0.404289), (0.46875, 0.375), (0.46875, 0.404289), (0.46875, 0.375), (0.46875, 0.435426), (0.46875, 0.416421), (0.46875, 0.457843), (0.46875, 0.404289), (0.46875, 0.375), (0.46875, 0.416421), (0.46875, 0.416421), (0.46875, 0.416421), (0.46875, 0.435426), (0.46875, 0.404289), (0.46875, 0.416421), (0.46875, 0.416421), (0.46875, 0.375), (0.46875, 0.361103), (0.46875, 0.375), (0.46875, 0.361103), (0.46875, 0.375), (0.46875, 0.361103), (0.46875, 0.361103), (0.46875, 0.308549), (0.46875, 0.361103), (0.46875, 0.308549), (0.46875, 0.361103), (0.46875, 0.308549), (0.46875, 0.375), (0.46875, 0.275), (0.46875, 0.275), (0.46875, 0.275), (0.46875, 0.375), (0.46875, 0.375), (0.46875, 0.275), (0.46875, 0.275), (0.46875, 0.275), (0.46875, 0.275), (0.46875, 0.275), (0.46875, 0.275), (0.46875, 0.308549), (0.46875, 0.361103), (0.46875, 0.308549), (0.46875, 0.361103), (0.46875, 0.308549), (0.46875, 0.361103), (0.46875, 0.375), (0.46875, 0.361103), (0.46875, 0.361103), (0.46875, 0.361103), (0.46875, 0.375), (0.46875, 0.375), (0.46875, 0.308549), (0.46875, 0.275), (0.46875, 0.308549), (0.46875, 0.275), (0.46875, 0.308549), (0.46875, 0.275), (0.46875, 0.275), (0.46875, 0.275), (0.46875, 0.275), (0.46875, 0.275), (0.46875, 0.275), (0.46875, 0.275), (0.46875, 0.275), (0.46875, 0.375), (0.46875, 0.375), (0.46875, 0.375), (0.46875, 0.275), (0.46875, 0.275), (0.46875, 0.275), (0.46875, 0.308549), (0.46875, 0.308549), (0.46875, 0.308549), (0.46875, 0.275), (0.46875, 0.275)] (interpolation = "faceVarying")
        uniform token subdivisionScheme = "none"
        rel material:binding = </Vehicle/Materials/colormap>
    }
    def Scope "Materials" {
        def Material "colormap" {
            token outputs:surface.connect = </Vehicle/Materials/colormap/surface.outputs:surface>
            def Shader "surface" {
                uniform token info:id = "UsdPreviewSurface"
                float inputs:roughness = 0.7
                float inputs:metallic = 0
                color3f inputs:diffuseColor.connect = </Vehicle/Materials/colormap/texture.outputs:rgb>
                token outputs:surface
            }
            def Shader "stReader" {
                uniform token info:id = "UsdPrimvarReader_float2"
                token inputs:varname = "st"
                float2 outputs:result
            }
            def Shader "texture" {
                uniform token info:id = "UsdUVTexture"
                asset inputs:file = @kenney-holiday-colormap.png@
                float2 inputs:st.connect = </Vehicle/Materials/colormap/stReader.outputs:result>
                token inputs:wrapS = "repeat"
                token inputs:wrapT = "repeat"
                float3 outputs:rgb
            }
        }
    }
}
