#usda 1.0
(
    defaultPrim = "Vehicle"
    metersPerUnit = 1
    upAxis = "Y"
)
def Xform "Vehicle" {
    def Mesh "mesh_colormap" {
        int[] faceVertexCounts = [3, 3, 3, 3, 3, 3, 3, 3, 3, 3, 3, 3, 3, 3, 3, 3, 3, 3, 3, 3, 3, 3, 3, 3, 3, 3, 3, 3, 3, 3, 3, 3, 3, 3, 3, 3, 3, 3, 3, 3, 3, 3, 3, 3, 3, 3, 3, 3, 3, 3, 3, 3, 3, 3, 3, 3, 3, 3, 3, 3, 3, 3, 3, 3, 3, 3, 3, 3, 3, 3, 3, 3, 3, 3, 3, 3, 3, 3, 3, 3, 3, 3, 3, 3, 3, 3, 3, 3, 3, 3, 3, 3, 3, 3, 3, 3, 3, 3, 3, 3, 3, 3, 3, 3, 3, 3, 3, 3, 3, 3, 3, 3, 3, 3, 3, 3, 3, 3, 3, 3, 3, 3, 3, 3, 3, 3, 3, 3, 3, 3, 3, 3, 3, 3, 3, 3, 3, 3, 3, 3, 3, 3, 3, 3, 3, 3, 3, 3, 3, 3, 3, 3, 3, 3, 3, 3, 3, 3, 3, 3, 3, 3, 3, 3, 3, 3, 3, 3, 3, 3, 3, 3, 3, 3, 3, 3, 3, 3, 3, 3, 3, 3, 3, 3, 3, 3, 3, 3, 3, 3, 3, 3, 3, 3, 3, 3, 3, 3, 3, 3, 3, 3, 3, 3, 3, 3, 3, 3, 3, 3, 3, 3, 3, 3, 3, 3, 3, 3, 3, 3, 3, 3, 3, 3, 3, 3, 3, 3, 3, 3, 3, 3, 3, 3, 3, 3, 3, 3, 3, 3, 3, 3, 3, 3, 3, 3, 3, 3, 3, 3, 3, 3, 3, 3, 3, 3, 3, 3, 3, 3, 3, 3, 3, 3, 3, 3, 3, 3, 3, 3, 3, 3, 3, 3, 3, 3, 3, 3, 3, 3, 3, 3, 3, 3, 3, 3, 3, 3, 3, 3, 3, 3, 3, 3, 3, 3, 3, 3, 3, 3, 3, 3, 3, 3, 3, 3, 3, 3, 3, 3, 3, 3, 3, 3, 3, 3, 3, 3, 3, 3, 3, 3, 3, 3, 3, 3, 3, 3, 3, 3, 3, 3, 3, 3, 3, 3, 3, 3, 3, 3, 3, 3, 3, 3, 3, 3, 3, 3, 3, 3, 3, 3, 3, 3, 3, 3, 3, 3, 3, 3, 3, 3, 3, 3, 3, 3, 3, 3, 3, 3, 3, 3, 3, 3, 3, 3, 3, 3, 3, 3, 3, 3, 3, 3, 3, 3, 3, 3, 3, 3, 3, 3, 3, 3, 3, 3, 3, 3, 3, 3, 3, 3, 3, 3, 3, 3, 3, 3, 3, 3, 3, 3, 3, 3, 3, 3, 3, 3, 3, 3, 3, 3, 3, 3, 3, 3, 3, 3, 3, 3, 3, 3, 3, 3, 3, 3, 3, 3, 3, 3, 3, 3, 3, 3, 3, 3, 3, 3, 3, 3, 3, 3, 3, 3, 3, 3, 3, 3, 3, 3, 3, 3, 3, 3, 3, 3, 3, 3]
        int[] faceVertexIndices = [2, 1, 0, 1, 2, 3, 3, 2, 4, 3, 4, 5, 3, 5, 6, 6, 5, 7, 8, 2, 0, 2, 8, 9, 10, 3, 6, 3, 10, 11, 9, 4, 2, 4, 9, 12, 6, 13, 10, 13, 6, 7, 12, 5, 4, 5, 12, 14, 8, 1, 15, 1, 8, 0, 11, 1, 3, 1, 11, 15, 5, 13, 7, 13, 5, 14, 18, 17, 16, 17, 18, 19, 17, 19, 20, 20, 19, 21, 20, 21, 22, 22, 21, 23, 13, 25, 24, 25, 13, 14, 13, 26, 10, 26, 13, 24, 27, 8, 15, 8, 27, 28, 26, 11, 10, 11, 26, 29, 17, 31, 30, 31, 17, 20, 17, 28, 16, 28, 17, 30, 18, 28, 27, 28, 18, 16, 19, 27, 29, 27, 19, 18, 20, 25, 31, 25, 20, 22, 24, 22, 23, 22, 24, 25, 24, 21, 26, 21, 24, 23, 30, 8, 28, 8, 30, 9, 30, 12, 9, 12, 30, 31, 29, 15, 11, 15, 29, 27, 21, 29, 26, 29, 21, 19, 31, 14, 12, 14, 31, 25, 34, 33, 32, 33, 34, 35, 35, 34, 36, 35, 36, 37, 35, 37, 38, 38, 37, 39, 40, 34, 32, 34, 40, 41, 42, 35, 38, 35, 42, 43, 41, 36, 34, 36, 41, 44, 38, 45, 42, 45, 38, 39, 44, 37, 36, 37, 44, 46, 40, 33, 47, 33, 40, 32, 43, 33, 35, 33, 43, 47, 37, 45, 39, 45, 37, 46, 48, 43, 42, 43, 48, 49, 45, 48, 42, 48, 45, 50, 51, 44, 41, 44, 51, 52, 49, 47, 43, 47, 49, 53, 46, 50, 45, 50, 46, 54, 53, 40, 47, 40, 53, 55, 52, 46, 44, 46, 52, 54, 51, 40, 55, 40, 51, 41, 58, 57, 56, 57, 58, 59, 57, 59, 60, 60, 59, 61, 60, 61, 62, 62, 61, 63, 64, 49, 48, 49, 64, 65, 66, 55, 53, 55, 66, 67, 54, 68, 50, 68, 54, 69, 65, 53, 49, 53, 65, 66, 70, 54, 52, 54, 70, 69, 50, 64, 48, 64, 50, 68, 67, 51, 55, 51, 67, 71, 71, 52, 51, 52, 71, 70, 68, 62, 63, 62, 68, 69, 61, 65, 64, 65, 61, 59, 57, 70, 71, 70, 57, 60, 60, 69, 70, 69, 60, 62, 57, 67, 56, 67, 57, 71, 59, 66, 65, 66, 59, 58, 68, 61, 64, 61, 68, 63, 58, 67, 66, 67, 58, 56, 74, 73, 72, 73, 74, 75, 75, 74, 76, 75, 76, 77, 75, 77, 78, 78, 77, 79, 80, 74, 72, 74, 80, 81, 82, 75, 78, 75, 82, 83, 81, 76, 74, 76, 81, 84, 78, 85, 82, 85, 78, 79, 84, 77, 76, 77, 84, 86, 80, 73, 87, 73, 80, 72, 83, 73, 75, 73, 83, 87, 77, 85, 79, 85, 77, 86, 90, 89, 88, 89, 90, 91, 89, 91, 92, 92, 91, 93, 92, 93, 94, 94, 93, 95, 85, 97, 96, 97, 85, 86, 85, 98, 82, 98, 85, 96, 99, 80, 87, 80, 99, 100, 98, 83, 82, 83, 98, 101, 89, 103, 102, 103, 89, 92, 89, 100, 88, 100, 89, 102, 90, 100, 99, 100, 90, 88, 91, 99, 101, 99, 91, 90, 92, 97, 103, 97, 92, 94, 96, 94, 95, 94, 96, 97, 96, 93, 98, 93, 96, 95, 102, 80, 100, 80, 102, 81, 102, 84, 81, 84, 102, 103, 101, 87, 83, 87, 101, 99, 93, 101, 98, 101, 93, 91, 103, 86, 84, 86, 103, 97, 106, 105, 104, 105, 106, 107, 110, 109, 108, 109, 110, 104, 109, 104, 111, 111, 104, 105, 111, 105, 112, 112, 105, 113, 114, 110, 108, 110, 114, 115, 115, 104, 110, 104, 115, 106, 116, 108, 109, 108, 116, 114, 117, 107, 106, 107, 117, 118, 120, 118, 119, 118, 120, 107, 122, 114, 121, 114, 122, 115, 124, 116, 123, 116, 124, 125, 120, 127, 126, 127, 120, 119, 122, 106, 115, 106, 122, 117, 125, 114, 116, 114, 125, 121, 127, 123, 126, 123, 127, 124, 105, 120, 113, 120, 105, 107, 126, 111, 112, 111, 126, 123, 113, 126, 112, 126, 113, 120, 123, 109, 111, 109, 123, 116, 2, 1, 0, 1, 2, 3, 3, 2, 4, 3, 4, 5, 3, 5, 6, 6, 5, 7, 8, 2, 0, 2, 8, 9, 10, 3, 6, 3, 10, 11, 9, 4, 2, 4, 9, 12, 6, 13, 10, 13, 6, 7, 12, 5, 4, 5, 12, 14, 8, 1, 15, 1, 8, 0, 11, 1, 3, 1, 11, 15, 5, 13, 7, 13, 5, 14, 18, 17, 16, 17, 18, 19, 17, 19, 20, 20, 19, 21, 20, 21, 22, 22, 21, 23, 13, 25, 24, 25, 13, 14, 13, 26, 10, 26, 13, 24, 27, 8, 15, 8, 27, 28, 26, 11, 10, 11, 26, 29, 17, 31, 30, 31, 17, 20, 17, 28, 16, 28, 17, 30, 18, 28, 27, 28, 18, 16, 19, 27, 29, 27, 19, 18, 20, 25, 31, 25, 20, 22, 24, 22, 23, 22, 24, 25, 24, 21, 26, 21, 24, 23, 30, 8, 28, 8, 30, 9, 30, 12, 9, 12, 30, 31, 29, 15, 11, 15, 29, 27, 21, 29, 26, 29, 21, 19, 31, 14, 12, 14, 31, 25, 34, 33, 32, 33, 34, 35, 35, 34, 36, 35, 36, 37, 35, 37, 38, 38, 37, 39, 40, 34, 32, 34, 40, 41, 42, 35, 38, 35, 42, 43, 41, 36, 34, 36, 41, 44, 38, 45, 42, 45, 38, 39, 44, 37, 36, 37, 44, 46, 40, 33, 47, 33, 40, 32, 43, 33, 35, 33, 43, 47, 37, 45, 39, 45, 37, 46, 48, 43, 42, 43, 48, 49, 45, 48, 42, 48, 45, 50, 51, 44, 41, 44, 51, 52, 49, 47, 43, 47, 49, 53, 46, 50, 45, 50, 46, 54, 53, 40, 47, 40, 53, 55, 52, 46, 44, 46, 52, 54, 51, 40, 55, 40, 51, 41, 58, 57, 56, 57, 58, 59, 57, 59, 60, 60, 59, 61, 60, 61, 62, 62, 61, 63, 64, 49, 48, 49, 64, 65, 66, 55, 53, 55, 66, 67, 54, 68, 50, 68, 54, 69, 65, 53, 49, 53, 65, 66, 70, 54, 52, 54, 70, 69, 50, 64, 48, 64, 50, 68, 67, 51, 55, 51, 67, 71, 71, 52, 51, 52, 71, 70, 68, 62, 63, 62, 68, 69, 61, 65, 64, 65, 61, 59, 57, 70, 71, 70, 57, 60, 60, 69, 70, 69, 60, 62, 57, 67, 56, 67, 57, 71, 59, 66, 65, 66, 59, 58, 68, 61, 64, 61, 68, 63, 58, 67, 66, 67, 58, 56, 74, 73, 72, 73, 74, 75, 75, 74, 76, 75, 76, 77, 75, 77, 78, 78, 77, 79, 80, 74, 72, 74, 80, 81, 82, 75, 78, 75, 82, 83, 81, 76, 74, 76, 81, 84, 78, 85, 82, 85, 78, 79, 84, 77, 76, 77, 84, 86, 80, 73, 87, 73, 80, 72, 83, 73, 75, 73, 83, 87, 77, 85, 79, 85, 77, 86, 90, 89, 88, 89, 90, 91, 89, 91, 92, 92, 91, 93, 92, 93, 94, 94, 93, 95, 85, 97, 96, 97, 85, 86, 85, 98, 82, 98, 85, 96, 99, 80, 87, 80, 99, 100, 98, 83, 82, 83, 98, 101, 89, 103, 102, 103, 89, 92, 89, 100, 88, 100, 89, 102, 90, 100, 99, 100, 90, 88, 91, 99, 101, 99, 91, 90, 92, 97, 103, 97, 92, 94, 96, 94, 95, 94, 96, 97, 96, 93, 98, 93, 96, 95, 102, 80, 100, 80, 102, 81, 102, 84, 81, 84, 102, 103, 101, 87, 83, 87, 101, 99, 93, 101, 98, 101, 93, 91, 103, 86, 84, 86, 103, 97, 106, 105, 104, 105, 106, 107, 110, 109, 108, 109, 110, 104, 109, 104, 111, 111, 104, 105, 111, 105, 112, 112, 105, 113, 114, 110, 108, 110, 114, 115, 115, 104, 110, 104, 115, 106, 116, 108, 109, 108, 116, 114, 117, 107, 106, 107, 117, 118, 120, 118, 119, 118, 120, 107, 122, 114, 121, 114, 122, 115, 124, 116, 123, 116, 124, 125, 120, 127, 126, 127, 120, 119, 122, 106, 115, 106, 122, 117, 125, 114, 116, 114, 125, 121, 127, 123, 126, 123, 127, 124, 105, 120, 113, 120, 105, 107, 126, 111, 112, 111, 126, 123, 113, 126, 112, 126, 113, 120, 123, 109, 111, 109, 123, 116]
        point3f[] points = [(0.54145, 0.345, 7.67031e-17), (0.382863, 0.345, -0.382863), (0.382863, 0.345, 0.382863), (4.60219e-16, 0.345, -0.54145), (4.60219e-16, 0.345, 0.54145), (-0.382863, 0.345, 0.382863), (-0.382863, 0.345, -0.382863), (-0.54145, 0.345, -7.67031e-17), (0.595, 0.43, 2.30109e-16), (0.420729, 0.43, 0.420729), (-0.420729, 0.43, -0.420729), (-1.53406e-16, 0.43, -0.595), (-1.53406e-16, 0.43, 0.595), (-0.595, 0.43, 7.67031e-17), (-0.420729, 0.43, 0.420729), (0.420729, 0.43, -0.420729), (0.34748, 0.9825, -6.90328e-16), (0.245705, 0.9825, 0.245705), (0.245705, 0.9825, -0.245705), (-1.07384e-15, 0.9825, -0.34748), (-1.07384e-15, 0.9825, 0.34748), (-0.245705, 0.9825, -0.245705), (-0.245705, 0.9825, 0.245705), (-0.34748, 0.9825, -6.90328e-16), (-0.434588, 0.6425, -7.67031e-17), (-0.3073, 0.6425, 0.3073), (-0.3073, 0.6425, -0.3073), (0.3073, 0.6425, -0.3073), (0.434588, 0.6425, 2.30109e-16), (-1.53406e-16, 0.6425, -0.434588), (0.3073, 0.6425, 0.3073), (-1.53406e-16, 0.6425, 0.434588), (0.325087, 1.27237, -7.21911e-16), (0.229871, 1.27237, -0.229871), (0.229871, 1.27237, 0.229871), (1.44382e-15, 1.27237, -0.325087), (1.44382e-15, 1.27237, 0.325087), (-0.229871, 1.27237, 0.229871), (-0.229871, 1.27237, -0.229871), (-0.325087, 1.27237, -7.21911e-16), (0.357238, 1.32341, -3.53491e-16), (0.252605, 1.32341, 0.252605), (-0.252605, 1.32341, -0.252605), (1.44382e-15, 1.32341, -0.357238), (1.44382e-15, 1.32341, 0.357238), (-0.357238, 1.32341, -7.21911e-16), (-0.252605, 1.32341, 0.252605), (0.252605, 1.32341, -0.252605), (-0.184503, 1.45099, -0.184503), (1.44382e-15, 1.45099, -0.260927), (-0.260927, 1.45099, -7.21911e-16), (0.184503, 1.45099, 0.184503), (1.44382e-15, 1.45099, 0.260927), (0.184503, 1.45099, -0.184503), (-0.184503, 1.45099, 0.184503), (0.260927, 1.45099, -3.53491e-16), (0.0344235, 1.92045, 3.83349e-16), (0.024341, 1.92045, 0.024341), (0.024341, 1.92045, -0.024341), (1.17596e-14, 1.92045, -0.0344235), (1.17596e-14, 1.92045, 0.0344235), (-0.024341, 1.92045, -0.024341), (-0.024341, 1.92045, 0.024341), (-0.0344235, 1.92045, 3.83349e-16), (-0.0995771, 1.72045, -0.0995771), (1.32333e-14, 1.72045, -0.140823), (0.0995771, 1.72045, -0.0995771), (0.140823, 1.72045, 3.33071e-15), (-0.140823, 1.72045, 3.33071e-15), (-0.0995771, 1.72045, 0.0995771), (1.32333e-14, 1.72045, 0.140823), (0.0995771, 1.72045, 0.0995771), (0.411502, 0.8215, -3.02661e-16), (0.290976, 0.8215, -0.290976), (0.290976, 0.8215, 0.290976), (1.79359e-15, 0.8215, -0.411502), (1.79359e-15, 0.8215, 0.411502), (-0.290976, 0.8215, 0.290976), (-0.290976, 0.8215, -0.290976), (-0.411502, 0.8215, -4.1925e-16), (0.4522, 0.8861, -1.86073e-16), (0.319754, 0.8861, 0.319754), (-0.319754, 0.8861, -0.319754), (1.32723e-15, 0.8861, -0.4522), (1.32723e-15, 0.8861, 0.4522), (-0.4522, 0.8861, -3.02661e-16), (-0.319754, 0.8861, 0.319754), (0.319754, 0.8861, -0.319754), (0.264085, 1.306, -8.85605e-16), (0.186736, 1.306, 0.186736), (0.186736, 1.306, -0.186736), (6.27702e-16, 1.306, -0.264085), (6.27702e-16, 1.306, 0.264085), (-0.186736, 1.306, -0.186736), (-0.186736, 1.306, 0.186736), (-0.264085, 1.306, -8.85605e-16), (-0.330287, 1.0476, -4.1925e-16), (-0.233548, 1.0476, 0.233548), (-0.233548, 1.0476, -0.233548), (0.233548, 1.0476, -0.233548), (0.330287, 1.0476, -1.86073e-16), (1.32723e-15, 1.0476, -0.330287), (0.233548, 1.0476, 0.233548), (1.32723e-15, 1.0476, 0.330287), (-1.80478e-15, 0, 0.234), (-0.165463, 0, 0.165463), (-3.60956e-16, 0.1035, 0.164), (-0.115965, 0.1035, 0.115965), (0.234, 0, 9.02389e-16), (0.165463, 0, -0.165463), (0.165463, 0, 0.165463), (-1.80478e-15, 0, -0.234), (-0.165463, 0, -0.165463), (-0.234, 0, 9.02389e-16), (0.164, 0.1035, 2.34621e-15), (0.115965, 0.1035, 0.115965), (0.115965, 0.1035, -0.115965), (3.97051e-15, 0.345, 0.114), (-0.0806102, 0.345, 0.0806102), (-0.114, 0.345, 1.26335e-15), (-0.164, 0.1035, 2.34621e-15), (0.114, 0.345, 1.26335e-15), (0.0806102, 0.345, 0.0806102), (-3.60956e-16, 0.1035, -0.164), (3.97051e-15, 0.345, -0.114), (0.0806102, 0.345, -0.0806102), (-0.115965, 0.1035, -0.115965), (-0.0806102, 0.345, -0.0806102)]
        normal3f[] normals = [(0, -1, 0), (0, -1, 0), (0, -1, 0), (0, -1, 0), (0, -1, 0), (0, -1, 0), (0, -1, 0), (0, -1, 0), (0, -1, 0), (0, -1, 0), (0, -1, 0), (0, -1, 0), (0, -1, 0), (0, -1, 0), (0, -1, 0), (0, -1, 0), (0, -1, 0), (0, -1, 0), (0.999302, 0.0373437, 0), (0.598277, -0.533038, 0.598277), (0.846091, -0.533038, 0), (0.598277, -0.533038, 0.598277), (0.999302, 0.0373437, 0), (0.706614, 0.0373437, 0.706614), (-0.706614, 0.0373437, -0.706614), (0, -0.533038, -0.846091), (-0.598277, -0.533038, -0.598277), (0, -0.533038, -0.846091), (-0.706614, 0.0373437, -0.706614), (0, 0.0373437, -0.999302), (0.706614, 0.0373437, 0.706614), (0, -0.533038, 0.846091), (0.598277, -0.533038, 0.598277), (0, -0.533038, 0.846091), (0.706614, 0.0373437, 0.706614), (0, 0.0373437, 0.999302), (-0.598277, -0.533038, -0.598277), (-0.999302, 0.0373437, 0), (-0.706614, 0.0373437, -0.706614), (-0.999302, 0.0373437, 0), (-0.598277, -0.533038, -0.598277), (-0.846091, -0.533038, 0), (0, 0.0373437, 0.999302), (-0.598277, -0.533038, 0.598277), (0, -0.533038, 0.846091), (-0.598277, -0.533038, 0.598277), (0, 0.0373437, 0.999302), (-0.706614, 0.0373437, 0.706614), (0.999302, 0.0373437, 0), (0.598277, -0.533038, -0.598277), (0.706614, 0.0373437, -0.706614), (0.598277, -0.533038, -0.598277), (0.999302, 0.0373437, 0), (0.846091, -0.533038, 0), (0, 0.0373437, -0.999302), (0.598277, -0.533038, -0.598277), (0, -0.533038, -0.846091), (0.598277, -0.533038, -0.598277), (0, 0.0373437, -0.999302), (0.706614, 0.0373437, -0.706614), (-0.598277, -0.533038, 0.598277), (-0.999302, 0.0373437, 0), (-0.846091, -0.533038, 0), (-0.999302, 0.0373437, 0), (-0.598277, -0.533038, 0.598277), (-0.706614, 0.0373437, 0.706614), (0, 1, 0), (0, 1, 0), (0, 1, 0), (0, 1, 0), (0, 1, 0), (0, 1, 0), (0, 1, 0), (0, 1, 0), (0, 1, 0), (0, 1, 0), (0, 1, 0), (0, 1, 0), (0, 1, 0), (0, 1, 0), (0, 1, 0), (0, 1, 0), (0, 1, 0), (0, 1, 0), (-0.999302, 0.0373437, 0), (-0.63011, 0.453787, 0.63011), (-0.89111, 0.453787, 0), (-0.63011, 0.453787, 0.63011), (-0.999302, 0.0373437, 0), (-0.706614, 0.0373437, 0.706614), (-0.999302, 0.0373437, 0), (-0.63011, 0.453787, -0.63011), (-0.706614, 0.0373437, -0.706614), (-0.63011, 0.453787, -0.63011), (-0.999302, 0.0373437, 0), (-0.89111, 0.453787, 0), (0.63011, 0.453787, -0.63011), (0.999302, 0.0373437, 0), (0.706614, 0.0373437, -0.706614), (0.999302, 0.0373437, 0), (0.63011, 0.453787, -0.63011), (0.89111, 0.453787, 0), (-0.63011, 0.453787, -0.63011), (0, 0.0373437, -0.999302), (-0.706614, 0.0373437, -0.706614), (0, 0.0373437, -0.999302), (-0.63011, 0.453787, -0.63011), (0, 0.453787, -0.89111), (0.684983, 0.248184, 0.684983), (0, 0.453787, 0.89111), (0.63011, 0.453787, 0.63011), (0, 0.453787, 0.89111), (0.684983, 0.248184, 0.684983), (0, 0.248184, 0.968713), (0.684983, 0.248184, 0.684983), (0.89111, 0.453787, 0), (0.968713, 0.248184, 0), (0.89111, 0.453787, 0), (0.684983, 0.248184, 0.684983), (0.63011, 0.453787, 0.63011), (0.684983, 0.248184, -0.684983), (0.89111, 0.453787, 0), (0.63011, 0.453787, -0.63011), (0.89111, 0.453787, 0), (0.684983, 0.248184, -0.684983), (0.968713, 0.248184, 0), (0, 0.248184, -0.968713), (0.63011, 0.453787, -0.63011), (0, 0.453787, -0.89111), (0.63011, 0.453787, -0.63011), (0, 0.248184, -0.968713), (0.684983, 0.248184, -0.684983), (0, 0.248184, 0.968713), (-0.63011, 0.453787, 0.63011), (0, 0.453787, 0.89111), (-0.63011, 0.453787, 0.63011), (0, 0.248184, 0.968713), (-0.684983, 0.248184, 0.684983), (-0.89111, 0.453787, 0), (-0.684983, 0.248184, 0.684983), (-0.968713, 0.248184, 0), (-0.684983, 0.248184, 0.684983), (-0.89111, 0.453787, 0), (-0.63011, 0.453787, 0.63011), (-0.89111, 0.453787, 0), (-0.684983, 0.248184, -0.684983), (-0.63011, 0.453787, -0.63011), (-0.684983, 0.248184, -0.684983), (-0.89111, 0.453787, 0), (-0.968713, 0.248184, 0), (0.63011, 0.453787, 0.63011), (0.999302, 0.0373437, 0), (0.89111, 0.453787, 0), (0.999302, 0.0373437, 0), (0.63011, 0.453787, 0.63011), (0.706614, 0.0373437, 0.706614), (0.63011, 0.453787, 0.63011), (0, 0.0373437, 0.999302), (0.706614, 0.0373437, 0.706614), (0, 0.0373437, 0.999302), (0.63011, 0.453787, 0.63011), (0, 0.453787, 0.89111), (0, 0.453787, -0.89111), (0.706614, 0.0373437, -0.706614), (0, 0.0373437, -0.999302), (0.706614, 0.0373437, -0.706614), (0, 0.453787, -0.89111), (0.63011, 0.453787, -0.63011), (-0.684983, 0.248184, -0.684983), (0, 0.453787, -0.89111), (-0.63011, 0.453787, -0.63011), (0, 0.453787, -0.89111), (-0.684983, 0.248184, -0.684983), (0, 0.248184, -0.968713), (0, 0.453787, 0.89111), (-0.706614, 0.0373437, 0.706614), (0, 0.0373437, 0.999302), (-0.706614, 0.0373437, 0.706614), (0, 0.453787, 0.89111), (-0.63011, 0.453787, 0.63011), (0, -1, 0), (0, -1, 0), (0, -1, 0), (0, -1, 0), (0, -1, 0), (0, -1, 0), (0, -1, 0), (0, -1, 0), (0, -1, 0), (0, -1, 0), (0, -1, 0), (0, -1, 0), (0, -1, 0), (0, -1, 0), (0, -1, 0), (0, -1, 0), (0, -1, 0), (0, -1, 0), (0.999302, 0.0373437, 0), (0.598277, -0.533038, 0.598277), (0.846091, -0.533038, 0), (0.598277, -0.533038, 0.598277), (0.999302, 0.0373437, 0), (0.706614, 0.0373437, 0.706614), (-0.706614, 0.0373437, -0.706614), (0, -0.533038, -0.846091), (-0.598277, -0.533038, -0.598277), (0, -0.533038, -0.846091), (-0.706614, 0.0373437, -0.706614), (0, 0.0373437, -0.999302), (0.706614, 0.0373437, 0.706614), (0, -0.533038, 0.846091), (0.598277, -0.533038, 0.598277), (0, -0.533038, 0.846091), (0.706614, 0.0373437, 0.706614), (0, 0.0373437, 0.999302), (-0.598277, -0.533038, -0.598277), (-0.999302, 0.0373437, 0), (-0.706614, 0.0373437, -0.706614), (-0.999302, 0.0373437, 0), (-0.598277, -0.533038, -0.598277), (-0.846091, -0.533038, 0), (0, 0.0373437, 0.999302), (-0.598277, -0.533038, 0.598277), (0, -0.533038, 0.846091), (-0.598277, -0.533038, 0.598277), (0, 0.0373437, 0.999302), (-0.706614, 0.0373437, 0.706614), (0.999302, 0.0373437, 0), (0.598277, -0.533038, -0.598277), (0.706614, 0.0373437, -0.706614), (0.598277, -0.533038, -0.598277), (0.999302, 0.0373437, 0), (0.846091, -0.533038, 0), (0, 0.0373437, -0.999302), (0.598277, -0.533038, -0.598277), (0, -0.533038, -0.846091), (0.598277, -0.533038, -0.598277), (0, 0.0373437, -0.999302), (0.706614, 0.0373437, -0.706614), (-0.598277, -0.533038, 0.598277), (-0.999302, 0.0373437, 0), (-0.846091, -0.533038, 0), (-0.999302, 0.0373437, 0), (-0.598277, -0.533038, 0.598277), (-0.706614, 0.0373437, 0.706614), (-0.603711, 0.520639, -0.603711), (0, 0.0373437, -0.999302), (-0.706614, 0.0373437, -0.706614), (0, 0.0373437, -0.999302), (-0.603711, 0.520639, -0.603711), (0, 0.520639, -0.853777), (-0.999302, 0.0373437, 0), (-0.603711, 0.520639, -0.603711), (-0.706614, 0.0373437, -0.706614), (-0.603711, 0.520639, -0.603711), (-0.999302, 0.0373437, 0), (-0.853777, 0.520639, 0), (0.603711, 0.520639, 0.603711), (0, 0.0373437, 0.999302), (0.706614, 0.0373437, 0.706614), (0, 0.0373437, 0.999302), (0.603711, 0.520639, 0.603711), (0, 0.520639, 0.853777), (0, 0.520639, -0.853777), (0.706614, 0.0373437, -0.706614), (0, 0.0373437, -0.999302), (0.706614, 0.0373437, -0.706614), (0, 0.520639, -0.853777), (0.603711, 0.520639, -0.603711), (-0.706614, 0.0373437, 0.706614), (-0.853777, 0.520639, 0), (-0.999302, 0.0373437, 0), (-0.853777, 0.520639, 0), (-0.706614, 0.0373437, 0.706614), (-0.603711, 0.520639, 0.603711), (0.603711, 0.520639, -0.603711), (0.999302, 0.0373437, 0), (0.706614, 0.0373437, -0.706614), (0.999302, 0.0373437, 0), (0.603711, 0.520639, -0.603711), (0.853777, 0.520639, 0), (0, 0.520639, 0.853777), (-0.706614, 0.0373437, 0.706614), (0, 0.0373437, 0.999302), (-0.706614, 0.0373437, 0.706614), (0, 0.520639, 0.853777), (-0.603711, 0.520639, 0.603711), (0.603711, 0.520639, 0.603711), (0.999302, 0.0373437, 0), (0.853777, 0.520639, 0), (0.999302, 0.0373437, 0), (0.603711, 0.520639, 0.603711), (0.706614, 0.0373437, 0.706614), (0, 1, 0), (0, 1, 0), (0, 1, 0), (0, 1, 0), (0, 1, 0), (0, 1, 0), (0, 1, 0), (0, 1, 0), (0, 1, 0), (0, 1, 0), (0, 1, 0), (0, 1, 0), (0, 1, 0), (0, 1, 0), (0, 1, 0), (0, 1, 0), (0, 1, 0), (0, 1, 0), (-0.636587, 0.435333, -0.636587), (0, 0.520639, -0.853777), (-0.603711, 0.520639, -0.603711), (0, 0.520639, -0.853777), (-0.636587, 0.435333, -0.636587), (0, 0.435333, -0.90027), (0.636587, 0.435333, -0.636587), (0.853777, 0.520639, 0), (0.603711, 0.520639, -0.603711), (0.853777, 0.520639, 0), (0.636587, 0.435333, -0.636587), (0.90027, 0.435333, 0), (-0.603711, 0.520639, 0.603711), (-0.90027, 0.435333, 0), (-0.853777, 0.520639, 0), (-0.90027, 0.435333, 0), (-0.603711, 0.520639, 0.603711), (-0.636587, 0.435333, 0.636587), (0, 0.435333, -0.90027), (0.603711, 0.520639, -0.603711), (0, 0.520639, -0.853777), (0.603711, 0.520639, -0.603711), (0, 0.435333, -0.90027), (0.636587, 0.435333, -0.636587), (0, 0.435333, 0.90027), (-0.603711, 0.520639, 0.603711), (0, 0.520639, 0.853777), (-0.603711, 0.520639, 0.603711), (0, 0.435333, 0.90027), (-0.636587, 0.435333, 0.636587), (-0.853777, 0.520639, 0), (-0.636587, 0.435333, -0.636587), (-0.603711, 0.520639, -0.603711), (-0.636587, 0.435333, -0.636587), (-0.853777, 0.520639, 0), (-0.90027, 0.435333, 0), (0.90027, 0.435333, 0), (0.603711, 0.520639, 0.603711), (0.853777, 0.520639, 0), (0.603711, 0.520639, 0.603711), (0.90027, 0.435333, 0), (0.636587, 0.435333, 0.636587), (0.636587, 0.435333, 0.636587), (0, 0.520639, 0.853777), (0.603711, 0.520639, 0.603711), (0, 0.520639, 0.853777), (0.636587, 0.435333, 0.636587), (0, 0.435333, 0.90027), (-0.90027, 0.435333, 0), (-0.624263, 0.469671, 0.624263), (-0.882842, 0.469671, 0), (-0.624263, 0.469671, 0.624263), (-0.90027, 0.435333, 0), (-0.636587, 0.435333, 0.636587), (-0.624263, 0.469671, -0.624263), (0, 0.435333, -0.90027), (-0.636587, 0.435333, -0.636587), (0, 0.435333, -0.90027), (-0.624263, 0.469671, -0.624263), (0, 0.469671, -0.882842), (0.624263, 0.469671, 0.624263), (0, 0.435333, 0.90027), (0.636587, 0.435333, 0.636587), (0, 0.435333, 0.90027), (0.624263, 0.469671, 0.624263), (0, 0.469671, 0.882842), (0, 0.469671, 0.882842), (-0.636587, 0.435333, 0.636587), (0, 0.435333, 0.90027), (-0.636587, 0.435333, 0.636587), (0, 0.469671, 0.882842), (-0.624263, 0.469671, 0.624263), (0.624263, 0.469671, 0.624263), (0.90027, 0.435333, 0), (0.882842, 0.469671, 0), (0.90027, 0.435333, 0), (0.624263, 0.469671, 0.624263), (0.636587, 0.435333, 0.636587), (0, 0.469671, -0.882842), (0.636587, 0.435333, -0.636587), (0, 0.435333, -0.90027), (0.636587, 0.435333, -0.636587), (0, 0.469671, -0.882842), (0.624263, 0.469671, -0.624263), (-0.90027, 0.435333, 0), (-0.624263, 0.469671, -0.624263), (-0.636587, 0.435333, -0.636587), (-0.624263, 0.469671, -0.624263), (-0.90027, 0.435333, 0), (-0.882842, 0.469671, 0), (0.624263, 0.469671, -0.624263), (0.90027, 0.435333, 0), (0.636587, 0.435333, -0.636587), (0.90027, 0.435333, 0), (0.624263, 0.469671, -0.624263), (0.882842, 0.469671, 0), (0, -1, 0), (0, -1, 0), (0, -1, 0), (0, -1, 0), (0, -1, 0), (0, -1, 0), (0, -1, 0), (0, -1, 0), (0, -1, 0), (0, -1, 0), (0, -1, 0), (0, -1, 0), (0, -1, 0), (0, -1, 0), (0, -1, 0), (0, -1, 0), (0, -1, 0), (0, -1, 0), (0.999302, 0.0373437, 0), (0.598277, -0.533038, 0.598277), (0.846091, -0.533038, 0), (0.598277, -0.533038, 0.598277), (0.999302, 0.0373437, 0), (0.706614, 0.0373437, 0.706614), (-0.706614, 0.0373437, -0.706614), (0, -0.533038, -0.846091), (-0.598277, -0.533038, -0.598277), (0, -0.533038, -0.846091), (-0.706614, 0.0373437, -0.706614), (0, 0.0373437, -0.999302), (0.706614, 0.0373437, 0.706614), (0, -0.533038, 0.846091), (0.598277, -0.533038, 0.598277), (0, -0.533038, 0.846091), (0.706614, 0.0373437, 0.706614), (0, 0.0373437, 0.999302), (-0.598277, -0.533038, -0.598277), (-0.999302, 0.0373437, 0), (-0.706614, 0.0373437, -0.706614), (-0.999302, 0.0373437, 0), (-0.598277, -0.533038, -0.598277), (-0.846091, -0.533038, 0), (0, 0.0373437, 0.999302), (-0.598277, -0.533038, 0.598277), (0, -0.533038, 0.846091), (-0.598277, -0.533038, 0.598277), (0, 0.0373437, 0.999302), (-0.706614, 0.0373437, 0.706614), (0.999302, 0.0373437, 0), (0.598277, -0.533038, -0.598277), (0.706614, 0.0373437, -0.706614), (0.598277, -0.533038, -0.598277), (0.999302, 0.0373437, 0), (0.846091, -0.533038, 0), (0, 0.0373437, -0.999302), (0.598277, -0.533038, -0.598277), (0, -0.533038, -0.846091), (0.598277, -0.533038, -0.598277), (0, 0.0373437, -0.999302), (0.706614, 0.0373437, -0.706614), (-0.598277, -0.533038, 0.598277), (-0.999302, 0.0373437, 0), (-0.846091, -0.533038, 0), (-0.999302, 0.0373437, 0), (-0.598277, -0.533038, 0.598277), (-0.706614, 0.0373437, 0.706614), (0, 1, 0), (0, 1, 0), (0, 1, 0), (0, 1, 0), (0, 1, 0), (0, 1, 0), (0, 1, 0), (0, 1, 0), (0, 1, 0), (0, 1, 0), (0, 1, 0), (0, 1, 0), (0, 1, 0), (0, 1, 0), (0, 1, 0), (0, 1, 0), (0, 1, 0), (0, 1, 0), (-0.999302, 0.0373437, 0), (-0.63011, 0.453787, 0.63011), (-0.89111, 0.453787, 0), (-0.63011, 0.453787, 0.63011), (-0.999302, 0.0373437, 0), (-0.706614, 0.0373437, 0.706614), (-0.999302, 0.0373437, 0), (-0.63011, 0.453787, -0.63011), (-0.706614, 0.0373437, -0.706614), (-0.63011, 0.453787, -0.63011), (-0.999302, 0.0373437, 0), (-0.89111, 0.453787, 0), (0.63011, 0.453787, -0.63011), (0.999302, 0.0373437, 0), (0.706614, 0.0373437, -0.706614), (0.999302, 0.0373437, 0), (0.63011, 0.453787, -0.63011), (0.89111, 0.453787, 0), (-0.63011, 0.453787, -0.63011), (0, 0.0373437, -0.999302), (-0.706614, 0.0373437, -0.706614), (0, 0.0373437, -0.999302), (-0.63011, 0.453787, -0.63011), (0, 0.453787, -0.89111), (0.684983, 0.248184, 0.684983), (0, 0.453787, 0.89111), (0.63011, 0.453787, 0.63011), (0, 0.453787, 0.89111), (0.684983, 0.248184, 0.684983), (0, 0.248184, 0.968713), (0.684983, 0.248184, 0.684983), (0.89111, 0.453787, 0), (0.968713, 0.248184, 0), (0.89111, 0.453787, 0), (0.684983, 0.248184, 0.684983), (0.63011, 0.453787, 0.63011), (0.684983, 0.248184, -0.684983), (0.89111, 0.453787, 0), (0.63011, 0.453787, -0.63011), (0.89111, 0.453787, 0), (0.684983, 0.248184, -0.684983), (0.968713, 0.248184, 0), (0, 0.248184, -0.968713), (0.63011, 0.453787, -0.63011), (0, 0.453787, -0.89111), (0.63011, 0.453787, -0.63011), (0, 0.248184, -0.968713), (0.684983, 0.248184, -0.684983), (0, 0.248184, 0.968713), (-0.63011, 0.453787, 0.63011), (0, 0.453787, 0.89111), (-0.63011, 0.453787, 0.63011), (0, 0.248184, 0.968713), (-0.684983, 0.248184, 0.684983), (-0.89111, 0.453787, 0), (-0.684983, 0.248184, 0.684983), (-0.968713, 0.248184, 0), (-0.684983, 0.248184, 0.684983), (-0.89111, 0.453787, 0), (-0.63011, 0.453787, 0.63011), (-0.89111, 0.453787, 0), (-0.684983, 0.248184, -0.684983), (-0.63011, 0.453787, -0.63011), (-0.684983, 0.248184, -0.684983), (-0.89111, 0.453787, 0), (-0.968713, 0.248184, 0), (0.63011, 0.453787, 0.63011), (0.999302, 0.0373437, 0), (0.89111, 0.453787, 0), (0.999302, 0.0373437, 0), (0.63011, 0.453787, 0.63011), (0.706614, 0.0373437, 0.706614), (0.63011, 0.453787, 0.63011), (0, 0.0373437, 0.999302), (0.706614, 0.0373437, 0.706614), (0, 0.0373437, 0.999302), (0.63011, 0.453787, 0.63011), (0, 0.453787, 0.89111), (0, 0.453787, -0.89111), (0.706614, 0.0373437, -0.706614), (0, 0.0373437, -0.999302), (0.706614, 0.0373437, -0.706614), (0, 0.453787, -0.89111), (0.63011, 0.453787, -0.63011), (-0.684983, 0.248184, -0.684983), (0, 0.453787, -0.89111), (-0.63011, 0.453787, -0.63011), (0, 0.453787, -0.89111), (-0.684983, 0.248184, -0.684983), (0, 0.248184, -0.968713), (0, 0.453787, 0.89111), (-0.706614, 0.0373437, 0.706614), (0, 0.0373437, 0.999302), (-0.706614, 0.0373437, 0.706614), (0, 0.453787, 0.89111), (-0.63011, 0.453787, 0.63011), (0, 0.560229, 0.828338), (-0.585723, 0.560229, 0.585723), (0, 0.560229, 0.828338), (-0.585723, 0.560229, 0.585723), (0, 0.560229, 0.828338), (-0.585723, 0.560229, 0.585723), (0, -1, 0), (0, -1, 0), (0, -1, 0), (0, -1, 0), (0, -1, 0), (0, -1, 0), (0, -1, 0), (0, -1, 0), (0, -1, 0), (0, -1, 0), (0, -1, 0), (0, -1, 0), (0, -1, 0), (0, -1, 0), (0, -1, 0), (0, -1, 0), (0, -1, 0), (0, -1, 0), (0.828338, 0.560229, 0), (0.585723, 0.560229, 0.585723), (0.828338, 0.560229, 0), (0.585723, 0.560229, 0.585723), (0.828338, 0.560229, 0), (0.585723, 0.560229, 0.585723), (0.585723, 0.560229, 0.585723), (0, 0.560229, 0.828338), (0.585723, 0.560229, 0.585723), (0, 0.560229, 0.828338), (0.585723, 0.560229, 0.585723), (0, 0.560229, 0.828338), (0.585723, 0.560229, -0.585723), (0.828338, 0.560229, 0), (0.585723, 0.560229, -0.585723), (0.828338, 0.560229, 0), (0.585723, 0.560229, -0.585723), (0.828338, 0.560229, 0), (0, 0.20274, 0.979233), (-0.692422, 0.20274, 0.692422), (0, 0.20274, 0.979233), (-0.692422, 0.20274, 0.692422), (0, 0.20274, 0.979233), (-0.692422, 0.20274, 0.692422), (-0.979233, 0.20274, 0), (-0.692422, 0.20274, 0.692422), (-0.979233, 0.20274, 0), (-0.692422, 0.20274, 0.692422), (-0.979233, 0.20274, 0), (-0.692422, 0.20274, 0.692422), (0.692422, 0.20274, 0.692422), (0.979233, 0.20274, 0), (0.979233, 0.20274, 0), (0.979233, 0.20274, 0), (0.692422, 0.20274, 0.692422), (0.692422, 0.20274, 0.692422), (0, 0.20274, -0.979233), (0.692422, 0.20274, -0.692422), (0, 0.20274, -0.979233), (0.692422, 0.20274, -0.692422), (0, 0.20274, -0.979233), (0.692422, 0.20274, -0.692422), (-0.979233, 0.20274, 0), (-0.692422, 0.20274, -0.692422), (-0.692422, 0.20274, -0.692422), (-0.692422, 0.20274, -0.692422), (-0.979233, 0.20274, 0), (-0.979233, 0.20274, 0), (0.692422, 0.20274, 0.692422), (0, 0.20274, 0.979233), (0.692422, 0.20274, 0.692422), (0, 0.20274, 0.979233), (0.692422, 0.20274, 0.692422), (0, 0.20274, 0.979233), (0.692422, 0.20274, -0.692422), (0.979233, 0.20274, 0), (0.692422, 0.20274, -0.692422), (0.979233, 0.20274, 0), (0.692422, 0.20274, -0.692422), (0.979233, 0.20274, 0), (-0.692422, 0.20274, -0.692422), (0, 0.20274, -0.979233), (-0.692422, 0.20274, -0.692422), (0, 0.20274, -0.979233), (-0.692422, 0.20274, -0.692422), (0, 0.20274, -0.979233), (-0.585723, 0.560229, 0.585723), (-0.828338, 0.560229, 0), (-0.828338, 0.560229, 0), (-0.828338, 0.560229, 0), (-0.585723, 0.560229, 0.585723), (-0.585723, 0.560229, 0.585723), (-0.585723, 0.560229, -0.585723), (0, 0.560229, -0.828338), (-0.585723, 0.560229, -0.585723), (0, 0.560229, -0.828338), (-0.585723, 0.560229, -0.585723), (0, 0.560229, -0.828338), (-0.828338, 0.560229, 0), (-0.585723, 0.560229, -0.585723), (-0.585723, 0.560229, -0.585723), (-0.585723, 0.560229, -0.585723), (-0.828338, 0.560229, 0), (-0.828338, 0.560229, 0), (0, 0.560229, -0.828338), (0.585723, 0.560229, -0.585723), (0, 0.560229, -0.828338), (0.585723, 0.560229, -0.585723), (0, 0.560229, -0.828338), (0.585723, 0.560229, -0.585723), (0, -1, 0), (0, -1, 0), (0, -1, 0), (0, -1, 0), (0, -1, 0), (0, -1, 0), (0, -1, 0), (0, -1, 0), (0, -1, 0), (0, -1, 0), (0, -1, 0), (0, -1, 0), (0, -1, 0), (0, -1, 0), (0, -1, 0), (0, -1, 0), (0, -1, 0), (0, -1, 0), (0.999302, 0.0373437, 0), (0.598277, -0.533038, 0.598277), (0.846091, -0.533038, 0), (0.598277, -0.533038, 0.598277), (0.999302, 0.0373437, 0), (0.706614, 0.0373437, 0.706614), (-0.706614, 0.0373437, -0.706614), (0, -0.533038, -0.846091), (-0.598277, -0.533038, -0.598277), (0, -0.533038, -0.846091), (-0.706614, 0.0373437, -0.706614), (0, 0.0373437, -0.999302), (0.706614, 0.0373437, 0.706614), (0, -0.533038, 0.846091), (0.598277, -0.533038, 0.598277), (0, -0.533038, 0.846091), (0.706614, 0.0373437, 0.706614), (0, 0.0373437, 0.999302), (-0.598277, -0.533038, -0.598277), (-0.999302, 0.0373437, 0), (-0.706614, 0.0373437, -0.706614), (-0.999302, 0.0373437, 0), (-0.598277, -0.533038, -0.598277), (-0.846091, -0.533038, 0), (0, 0.0373437, 0.999302), (-0.598277, -0.533038, 0.598277), (0, -0.533038, 0.846091), (-0.598277, -0.533038, 0.598277), (0, 0.0373437, 0.999302), (-0.706614, 0.0373437, 0.706614), (0.999302, 0.0373437, 0), (0.598277, -0.533038, -0.598277), (0.706614, 0.0373437, -0.706614), (0.598277, -0.533038, -0.598277), (0.999302, 0.0373437, 0), (0.846091, -0.533038, 0), (0, 0.0373437, -0.999302), (0.598277, -0.533038, -0.598277), (0, -0.533038, -0.846091), (0.598277, -0.533038, -0.598277), (0, 0.0373437, -0.999302), (0.706614, 0.0373437, -0.706614), (-0.598277, -0.533038, 0.598277), (-0.999302, 0.0373437, 0), (-0.846091, -0.533038, 0), (-0.999302, 0.0373437, 0), (-0.598277, -0.533038, 0.598277), (-0.706614, 0.0373437, 0.706614), (0, 1, 0), (0, 1, 0), (0, 1, 0), (0, 1, 0), (0, 1, 0), (0, 1, 0), (0, 1, 0), (0, 1, 0), (0, 1, 0), (0, 1, 0), (0, 1, 0), (0, 1, 0), (0, 1, 0), (0, 1, 0), (0, 1, 0), (0, 1, 0), (0, 1, 0), (0, 1, 0), (-0.999302, 0.0373437, 0), (-0.63011, 0.453787, 0.63011), (-0.89111, 0.453787, 0), (-0.63011, 0.453787, 0.63011), (-0.999302, 0.0373437, 0), (-0.706614, 0.0373437, 0.706614), (-0.999302, 0.0373437, 0), (-0.63011, 0.453787, -0.63011), (-0.706614, 0.0373437, -0.706614), (-0.63011, 0.453787, -0.63011), (-0.999302, 0.0373437, 0), (-0.89111, 0.453787, 0), (0.63011, 0.453787, -0.63011), (0.999302, 0.0373437, 0), (0.706614, 0.0373437, -0.706614), (0.999302, 0.0373437, 0), (0.63011, 0.453787, -0.63011), (0.89111, 0.453787, 0), (-0.63011, 0.453787, -0.63011), (0, 0.0373437, -0.999302), (-0.706614, 0.0373437, -0.706614), (0, 0.0373437, -0.999302), (-0.63011, 0.453787, -0.63011), (0, 0.453787, -0.89111), (0.684983, 0.248184, 0.684983), (0, 0.453787, 0.89111), (0.63011, 0.453787, 0.63011), (0, 0.453787, 0.89111), (0.684983, 0.248184, 0.684983), (0, 0.248184, 0.968713), (0.684983, 0.248184, 0.684983), (0.89111, 0.453787, 0), (0.968713, 0.248184, 0), (0.89111, 0.453787, 0), (0.684983, 0.248184, 0.684983), (0.63011, 0.453787, 0.63011), (0.684983, 0.248184, -0.684983), (0.89111, 0.453787, 0), (0.63011, 0.453787, -0.63011), (0.89111, 0.453787, 0), (0.684983, 0.248184, -0.684983), (0.968713, 0.248184, 0), (0, 0.248184, -0.968713), (0.63011, 0.453787, -0.63011), (0, 0.453787, -0.89111), (0.63011, 0.453787, -0.63011), (0, 0.248184, -0.968713), (0.684983, 0.248184, -0.684983), (0, 0.248184, 0.968713), (-0.63011, 0.453787, 0.63011), (0, 0.453787, 0.89111), (-0.63011, 0.453787, 0.63011), (0, 0.248184, 0.968713), (-0.684983, 0.248184, 0.684983), (-0.89111, 0.453787, 0), (-0.684983, 0.248184, 0.684983), (-0.968713, 0.248184, 0), (-0.684983, 0.248184, 0.684983), (-0.89111, 0.453787, 0), (-0.63011, 0.453787, 0.63011), (-0.89111, 0.453787, 0), (-0.684983, 0.248184, -0.684983), (-0.63011, 0.453787, -0.63011), (-0.684983, 0.248184, -0.684983), (-0.89111, 0.453787, 0), (-0.968713, 0.248184, 0), (0.63011, 0.453787, 0.63011), (0.999302, 0.0373437, 0), (0.89111, 0.453787, 0), (0.999302, 0.0373437, 0), (0.63011, 0.453787, 0.63011), (0.706614, 0.0373437, 0.706614), (0.63011, 0.453787, 0.63011), (0, 0.0373437, 0.999302), (0.706614, 0.0373437, 0.706614), (0, 0.0373437, 0.999302), (0.63011, 0.453787, 0.63011), (0, 0.453787, 0.89111), (0, 0.453787, -0.89111), (0.706614, 0.0373437, -0.706614), (0, 0.0373437, -0.999302), (0.706614, 0.0373437, -0.706614), (0, 0.453787, -0.89111), (0.63011, 0.453787, -0.63011), (-0.684983, 0.248184, -0.684983), (0, 0.453787, -0.89111), (-0.63011, 0.453787, -0.63011), (0, 0.453787, -0.89111), (-0.684983, 0.248184, -0.684983), (0, 0.248184, -0.968713), (0, 0.453787, 0.89111), (-0.706614, 0.0373437, 0.706614), (0, 0.0373437, 0.999302), (-0.706614, 0.0373437, 0.706614), (0, 0.453787, 0.89111), (-0.63011, 0.453787, 0.63011), (0, -1, 0), (0, -1, 0), (0, -1, 0), (0, -1, 0), (0, -1, 0), (0, -1, 0), (0, -1, 0), (0, -1, 0), (0, -1, 0), (0, -1, 0), (0, -1, 0), (0, -1, 0), (0, -1, 0), (0, -1, 0), (0, -1, 0), (0, -1, 0), (0, -1, 0), (0, -1, 0), (0.999302, 0.0373437, 0), (0.598277, -0.533038, 0.598277), (0.846091, -0.533038, 0), (0.598277, -0.533038, 0.598277), (0.999302, 0.0373437, 0), (0.706614, 0.0373437, 0.706614), (-0.706614, 0.0373437, -0.706614), (0, -0.533038, -0.846091), (-0.598277, -0.533038, -0.598277), (0, -0.533038, -0.846091), (-0.706614, 0.0373437, -0.706614), (0, 0.0373437, -0.999302), (0.706614, 0.0373437, 0.706614), (0, -0.533038, 0.846091), (0.598277, -0.533038, 0.598277), (0, -0.533038, 0.846091), (0.706614, 0.0373437, 0.706614), (0, 0.0373437, 0.999302), (-0.598277, -0.533038, -0.598277), (-0.999302, 0.0373437, 0), (-0.706614, 0.0373437, -0.706614), (-0.999302, 0.0373437, 0), (-0.598277, -0.533038, -0.598277), (-0.846091, -0.533038, 0), (0, 0.0373437, 0.999302), (-0.598277, -0.533038, 0.598277), (0, -0.533038, 0.846091), (-0.598277, -0.533038, 0.598277), (0, 0.0373437, 0.999302), (-0.706614, 0.0373437, 0.706614), (0.999302, 0.0373437, 0), (0.598277, -0.533038, -0.598277), (0.706614, 0.0373437, -0.706614), (0.598277, -0.533038, -0.598277), (0.999302, 0.0373437, 0), (0.846091, -0.533038, 0), (0, 0.0373437, -0.999302), (0.598277, -0.533038, -0.598277), (0, -0.533038, -0.846091), (0.598277, -0.533038, -0.598277), (0, 0.0373437, -0.999302), (0.706614, 0.0373437, -0.706614), (-0.598277, -0.533038, 0.598277), (-0.999302, 0.0373437, 0), (-0.846091, -0.533038, 0), (-0.999302, 0.0373437, 0), (-0.598277, -0.533038, 0.598277), (-0.706614, 0.0373437, 0.706614), (-0.603711, 0.520639, -0.603711), (0, 0.0373437, -0.999302), (-0.706614, 0.0373437, -0.706614), (0, 0.0373437, -0.999302), (-0.603711, 0.520639, -0.603711), (0, 0.520639, -0.853777), (-0.999302, 0.0373437, 0), (-0.603711, 0.520639, -0.603711), (-0.706614, 0.0373437, -0.706614), (-0.603711, 0.520639, -0.603711), (-0.999302, 0.0373437, 0), (-0.853777, 0.520639, 0), (0.603711, 0.520639, 0.603711), (0, 0.0373437, 0.999302), (0.706614, 0.0373437, 0.706614), (0, 0.0373437, 0.999302), (0.603711, 0.520639, 0.603711), (0, 0.520639, 0.853777), (0, 0.520639, -0.853777), (0.706614, 0.0373437, -0.706614), (0, 0.0373437, -0.999302), (0.706614, 0.0373437, -0.706614), (0, 0.520639, -0.853777), (0.603711, 0.520639, -0.603711), (-0.706614, 0.0373437, 0.706614), (-0.853777, 0.520639, 0), (-0.999302, 0.0373437, 0), (-0.853777, 0.520639, 0), (-0.706614, 0.0373437, 0.706614), (-0.603711, 0.520639, 0.603711), (0.603711, 0.520639, -0.603711), (0.999302, 0.0373437, 0), (0.706614, 0.0373437, -0.706614), (0.999302, 0.0373437, 0), (0.603711, 0.520639, -0.603711), (0.853777, 0.520639, 0), (0, 0.520639, 0.853777), (-0.706614, 0.0373437, 0.706614), (0, 0.0373437, 0.999302), (-0.706614, 0.0373437, 0.706614), (0, 0.520639, 0.853777), (-0.603711, 0.520639, 0.603711), (0.603711, 0.520639, 0.603711), (0.999302, 0.0373437, 0), (0.853777, 0.520639, 0), (0.999302, 0.0373437, 0), (0.603711, 0.520639, 0.603711), (0.706614, 0.0373437, 0.706614), (0, 1, 0), (0, 1, 0), (0, 1, 0), (0, 1, 0), (0, 1, 0), (0, 1, 0), (0, 1, 0), (0, 1, 0), (0, 1, 0), (0, 1, 0), (0, 1, 0), (0, 1, 0), (0, 1, 0), (0, 1, 0), (0, 1, 0), (0, 1, 0), (0, 1, 0), (0, 1, 0), (-0.636587, 0.435333, -0.636587), (0, 0.520639, -0.853777), (-0.603711, 0.520639, -0.603711), (0, 0.520639, -0.853777), (-0.636587, 0.435333, -0.636587), (0, 0.435333, -0.90027), (0.636587, 0.435333, -0.636587), (0.853777, 0.520639, 0), (0.603711, 0.520639, -0.603711), (0.853777, 0.520639, 0), (0.636587, 0.435333, -0.636587), (0.90027, 0.435333, 0), (-0.603711, 0.520639, 0.603711), (-0.90027, 0.435333, 0), (-0.853777, 0.520639, 0), (-0.90027, 0.435333, 0), (-0.603711, 0.520639, 0.603711), (-0.636587, 0.435333, 0.636587), (0, 0.435333, -0.90027), (0.603711, 0.520639, -0.603711), (0, 0.520639, -0.853777), (0.603711, 0.520639, -0.603711), (0, 0.435333, -0.90027), (0.636587, 0.435333, -0.636587), (0, 0.435333, 0.90027), (-0.603711, 0.520639, 0.603711), (0, 0.520639, 0.853777), (-0.603711, 0.520639, 0.603711), (0, 0.435333, 0.90027), (-0.636587, 0.435333, 0.636587), (-0.853777, 0.520639, 0), (-0.636587, 0.435333, -0.636587), (-0.603711, 0.520639, -0.603711), (-0.636587, 0.435333, -0.636587), (-0.853777, 0.520639, 0), (-0.90027, 0.435333, 0), (0.90027, 0.435333, 0), (0.603711, 0.520639, 0.603711), (0.853777, 0.520639, 0), (0.603711, 0.520639, 0.603711), (0.90027, 0.435333, 0), (0.636587, 0.435333, 0.636587), (0.636587, 0.435333, 0.636587), (0, 0.520639, 0.853777), (0.603711, 0.520639, 0.603711), (0, 0.520639, 0.853777), (0.636587, 0.435333, 0.636587), (0, 0.435333, 0.90027), (-0.90027, 0.435333, 0), (-0.624263, 0.469671, 0.624263), (-0.882842, 0.469671, 0), (-0.624263, 0.469671, 0.624263), (-0.90027, 0.435333, 0), (-0.636587, 0.435333, 0.636587), (-0.624263, 0.469671, -0.624263), (0, 0.435333, -0.90027), (-0.636587, 0.435333, -0.636587), (0, 0.435333, -0.90027), (-0.624263, 0.469671, -0.624263), (0, 0.469671, -0.882842), (0.624263, 0.469671, 0.624263), (0, 0.435333, 0.90027), (0.636587, 0.435333, 0.636587), (0, 0.435333, 0.90027), (0.624263, 0.469671, 0.624263), (0, 0.469671, 0.882842), (0, 0.469671, 0.882842), (-0.636587, 0.435333, 0.636587), (0, 0.435333, 0.90027), (-0.636587, 0.435333, 0.636587), (0, 0.469671, 0.882842), (-0.624263, 0.469671, 0.624263), (0.624263, 0.469671, 0.624263), (0.90027, 0.435333, 0), (0.882842, 0.469671, 0), (0.90027, 0.435333, 0), (0.624263, 0.469671, 0.624263), (0.636587, 0.435333, 0.636587), (0, 0.469671, -0.882842), (0.636587, 0.435333, -0.636587), (0, 0.435333, -0.90027), (0.636587, 0.435333, -0.636587), (0, 0.469671, -0.882842), (0.624263, 0.469671, -0.624263), (-0.90027, 0.435333, 0), (-0.624263, 0.469671, -0.624263), (-0.636587, 0.435333, -0.636587), (-0.624263, 0.469671, -0.624263), (-0.90027, 0.435333, 0), (-0.882842, 0.469671, 0), (0.624263, 0.469671, -0.624263), (0.90027, 0.435333, 0), (0.636587, 0.435333, -0.636587), (0.90027, 0.435333, 0), (0.624263, 0.469671, -0.624263), (0.882842, 0.469671, 0), (0, -1, 0), (0, -1, 0), (0, -1, 0), (0, -1, 0), (0, -1, 0), (0, -1, 0), (0, -1, 0), (0, -1, 0), (0, -1, 0), (0, -1, 0), (0, -1, 0), (0, -1, 0), (0, -1, 0), (0, -1, 0), (0, -1, 0), (0, -1, 0), (0, -1, 0), (0, -1, 0), (0.999302, 0.0373437, 0), (0.598277, -0.533038, 0.598277), (0.846091, -0.533038, 0), (0.598277, -0.533038, 0.598277), (0.999302, 0.0373437, 0), (0.706614, 0.0373437, 0.706614), (-0.706614, 0.0373437, -0.706614), (0, -0.533038, -0.846091), (-0.598277, -0.533038, -0.598277), (0, -0.533038, -0.846091), (-0.706614, 0.0373437, -0.706614), (0, 0.0373437, -0.999302), (0.706614, 0.0373437, 0.706614), (0, -0.533038, 0.846091), (0.598277, -0.533038, 0.598277), (0, -0.533038, 0.846091), (0.706614, 0.0373437, 0.706614), (0, 0.0373437, 0.999302), (-0.598277, -0.533038, -0.598277), (-0.999302, 0.0373437, 0), (-0.706614, 0.0373437, -0.706614), (-0.999302, 0.0373437, 0), (-0.598277, -0.533038, -0.598277), (-0.846091, -0.533038, 0), (0, 0.0373437, 0.999302), (-0.598277, -0.533038, 0.598277), (0, -0.533038, 0.846091), (-0.598277, -0.533038, 0.598277), (0, 0.0373437, 0.999302), (-0.706614, 0.0373437, 0.706614), (0.999302, 0.0373437, 0), (0.598277, -0.533038, -0.598277), (0.706614, 0.0373437, -0.706614), (0.598277, -0.533038, -0.598277), (0.999302, 0.0373437, 0), (0.846091, -0.533038, 0), (0, 0.0373437, -0.999302), (0.598277, -0.533038, -0.598277), (0, -0.533038, -0.846091), (0.598277, -0.533038, -0.598277), (0, 0.0373437, -0.999302), (0.706614, 0.0373437, -0.706614), (-0.598277, -0.533038, 0.598277), (-0.999302, 0.0373437, 0), (-0.846091, -0.533038, 0), (-0.999302, 0.0373437, 0), (-0.598277, -0.533038, 0.598277), (-0.706614, 0.0373437, 0.706614), (0, 1, 0), (0, 1, 0), (0, 1, 0), (0, 1, 0), (0, 1, 0), (0, 1, 0), (0, 1, 0), (0, 1, 0), (0, 1, 0), (0, 1, 0), (0, 1, 0), (0, 1, 0), (0, 1, 0), (0, 1, 0), (0, 1, 0), (0, 1, 0), (0, 1, 0), (0, 1, 0), (-0.999302, 0.0373437, 0), (-0.63011, 0.453787, 0.63011), (-0.89111, 0.453787, 0), (-0.63011, 0.453787, 0.63011), (-0.999302, 0.0373437, 0), (-0.706614, 0.0373437, 0.706614), (-0.999302, 0.0373437, 0), (-0.63011, 0.453787, -0.63011), (-0.706614, 0.0373437, -0.706614), (-0.63011, 0.453787, -0.63011), (-0.999302, 0.0373437, 0), (-0.89111, 0.453787, 0), (0.63011, 0.453787, -0.63011), (0.999302, 0.0373437, 0), (0.706614, 0.0373437, -0.706614), (0.999302, 0.0373437, 0), (0.63011, 0.453787, -0.63011), (0.89111, 0.453787, 0), (-0.63011, 0.453787, -0.63011), (0, 0.0373437, -0.999302), (-0.706614, 0.0373437, -0.706614), (0, 0.0373437, -0.999302), (-0.63011, 0.453787, -0.63011), (0, 0.453787, -0.89111), (0.684983, 0.248184, 0.684983), (0, 0.453787, 0.89111), (0.63011, 0.453787, 0.63011), (0, 0.453787, 0.89111), (0.684983, 0.248184, 0.684983), (0, 0.248184, 0.968713), (0.684983, 0.248184, 0.684983), (0.89111, 0.453787, 0), (0.968713, 0.248184, 0), (0.89111, 0.453787, 0), (0.684983, 0.248184, 0.684983), (0.63011, 0.453787, 0.63011), (0.684983, 0.248184, -0.684983), (0.89111, 0.453787, 0), (0.63011, 0.453787, -0.63011), (0.89111, 0.453787, 0), (0.684983, 0.248184, -0.684983), (0.968713, 0.248184, 0), (0, 0.248184, -0.968713), (0.63011, 0.453787, -0.63011), (0, 0.453787, -0.89111), (0.63011, 0.453787, -0.63011), (0, 0.248184, -0.968713), (0.684983, 0.248184, -0.684983), (0, 0.248184, 0.968713), (-0.63011, 0.453787, 0.63011), (0, 0.453787, 0.89111), (-0.63011, 0.453787, 0.63011), (0, 0.248184, 0.968713), (-0.684983, 0.248184, 0.684983), (-0.89111, 0.453787, 0), (-0.684983, 0.248184, 0.684983), (-0.968713, 0.248184, 0), (-0.684983, 0.248184, 0.684983), (-0.89111, 0.453787, 0), (-0.63011, 0.453787, 0.63011), (-0.89111, 0.453787, 0), (-0.684983, 0.248184, -0.684983), (-0.63011, 0.453787, -0.63011), (-0.684983, 0.248184, -0.684983), (-0.89111, 0.453787, 0), (-0.968713, 0.248184, 0), (0.63011, 0.453787, 0.63011), (0.999302, 0.0373437, 0), (0.89111, 0.453787, 0), (0.999302, 0.0373437, 0), (0.63011, 0.453787, 0.63011), (0.706614, 0.0373437, 0.706614), (0.63011, 0.453787, 0.63011), (0, 0.0373437, 0.999302), (0.706614, 0.0373437, 0.706614), (0, 0.0373437, 0.999302), (0.63011, 0.453787, 0.63011), (0, 0.453787, 0.89111), (0, 0.453787, -0.89111), (0.706614, 0.0373437, -0.706614), (0, 0.0373437, -0.999302), (0.706614, 0.0373437, -0.706614), (0, 0.453787, -0.89111), (0.63011, 0.453787, -0.63011), (-0.684983, 0.248184, -0.684983), (0, 0.453787, -0.89111), (-0.63011, 0.453787, -0.63011), (0, 0.453787, -0.89111), (-0.684983, 0.248184, -0.684983), (0, 0.248184, -0.968713), (0, 0.453787, 0.89111), (-0.706614, 0.0373437, 0.706614), (0, 0.0373437, 0.999302), (-0.706614, 0.0373437, 0.706614), (0, 0.453787, 0.89111), (-0.63011, 0.453787, 0.63011), (0, 0.560229, 0.828338), (-0.585723, 0.560229, 0.585723), (0, 0.560229, 0.828338), (-0.585723, 0.560229, 0.585723), (0, 0.560229, 0.828338), (-0.585723, 0.560229, 0.585723), (0, -1, 0), (0, -1, 0), (0, -1, 0), (0, -1, 0), (0, -1, 0), (0, -1, 0), (0, -1, 0), (0, -1, 0), (0, -1, 0), (0, -1, 0), (0, -1, 0), (0, -1, 0), (0, -1, 0), (0, -1, 0), (0, -1, 0), (0, -1, 0), (0, -1, 0), (0, -1, 0), (0.828338, 0.560229, 0), (0.585723, 0.560229, 0.585723), (0.828338, 0.560229, 0), (0.585723, 0.560229, 0.585723), (0.828338, 0.560229, 0), (0.585723, 0.560229, 0.585723), (0.585723, 0.560229, 0.585723), (0, 0.560229, 0.828338), (0.585723, 0.560229, 0.585723), (0, 0.560229, 0.828338), (0.585723, 0.560229, 0.585723), (0, 0.560229, 0.828338), (0.585723, 0.560229, -0.585723), (0.828338, 0.560229, 0), (0.585723, 0.560229, -0.585723), (0.828338, 0.560229, 0), (0.585723, 0.560229, -0.585723), (0.828338, 0.560229, 0), (0, 0.20274, 0.979233), (-0.692422, 0.20274, 0.692422), (0, 0.20274, 0.979233), (-0.692422, 0.20274, 0.692422), (0, 0.20274, 0.979233), (-0.692422, 0.20274, 0.692422), (-0.979233, 0.20274, 0), (-0.692422, 0.20274, 0.692422), (-0.979233, 0.20274, 0), (-0.692422, 0.20274, 0.692422), (-0.979233, 0.20274, 0), (-0.692422, 0.20274, 0.692422), (0.692422, 0.20274, 0.692422), (0.979233, 0.20274, 0), (0.979233, 0.20274, 0), (0.979233, 0.20274, 0), (0.692422, 0.20274, 0.692422), (0.692422, 0.20274, 0.692422), (0, 0.20274, -0.979233), (0.692422, 0.20274, -0.692422), (0, 0.20274, -0.979233), (0.692422, 0.20274, -0.692422), (0, 0.20274, -0.979233), (0.692422, 0.20274, -0.692422), (-0.979233, 0.20274, 0), (-0.692422, 0.20274, -0.692422), (-0.692422, 0.20274, -0.692422), (-0.692422, 0.20274, -0.692422), (-0.979233, 0.20274, 0), (-0.979233, 0.20274, 0), (0.692422, 0.20274, 0.692422), (0, 0.20274, 0.979233), (0.692422, 0.20274, 0.692422), (0, 0.20274, 0.979233), (0.692422, 0.20274, 0.692422), (0, 0.20274, 0.979233), (0.692422, 0.20274, -0.692422), (0.979233, 0.20274, 0), (0.692422, 0.20274, -0.692422), (0.979233, 0.20274, 0), (0.692422, 0.20274, -0.692422), (0.979233, 0.20274, 0), (-0.692422, 0.20274, -0.692422), (0, 0.20274, -0.979233), (-0.692422, 0.20274, -0.692422), (0, 0.20274, -0.979233), (-0.692422, 0.20274, -0.692422), (0, 0.20274, -0.979233), (-0.585723, 0.560229, 0.585723), (-0.828338, 0.560229, 0), (-0.828338, 0.560229, 0), (-0.828338, 0.560229, 0), (-0.585723, 0.560229, 0.585723), (-0.585723, 0.560229, 0.585723), (-0.585723, 0.560229, -0.585723), (0, 0.560229, -0.828338), (-0.585723, 0.560229, -0.585723), (0, 0.560229, -0.828338), (-0.585723, 0.560229, -0.585723), (0, 0.560229, -0.828338), (-0.828338, 0.560229, 0), (-0.585723, 0.560229, -0.585723), (-0.585723, 0.560229, -0.585723), (-0.585723, 0.560229, -0.585723), (-0.828338, 0.560229, 0), (-0.828338, 0.560229, 0), (0, 0.560229, -0.828338), (0.585723, 0.560229, -0.585723), (0, 0.560229, -0.828338), (0.585723, 0.560229, -0.585723), (0, 0.560229, -0.828338), (0.585723, 0.560229, -0.585723)] (interpolation = "faceVarying")
        texCoord2f[] primvars:st = [(0.71875, 0.275), (0.71875, 0.275), (0.71875, 0.275), (0.71875, 0.275), (0.71875, 0.275), (0.71875, 0.275), (0.71875, 0.275), (0.71875, 0.275), (0.71875, 0.275), (0.71875, 0.275), (0.71875, 0.275), (0.71875, 0.275), (0.71875, 0.275), (0.71875, 0.275), (0.71875, 0.275), (0.71875, 0.275), (0.71875, 0.275), (0.71875, 0.275), (0.71875, 0.301667), (0.71875, 0.275), (0.71875, 0.275), (0.71875, 0.275), (0.71875, 0.301667), (0.71875, 0.301667), (0.71875, 0.301667), (0.71875, 0.275), (0.71875, 0.275), (0.71875, 0.275), (0.71875, 0.301667), (0.71875, 0.301667), (0.71875, 0.301667), (0.71875, 0.275), (0.71875, 0.275), (0.71875, 0.275), (0.71875, 0.301667), (0.71875, 0.301667), (0.71875, 0.275), (0.71875, 0.301667), (0.71875, 0.301667), (0.71875, 0.301667), (0.71875, 0.275), (0.71875, 0.275), (0.71875, 0.301667), (0.71875, 0.275), (0.71875, 0.275), (0.71875, 0.275), (0.71875, 0.301667), (0.71875, 0.301667), (0.71875, 0.301667), (0.71875, 0.275), (0.71875, 0.301667), (0.71875, 0.275), (0.71875, 0.301667), (0.71875, 0.275), (0.71875, 0.301667), (0.71875, 0.275), (0.71875, 0.275), (0.71875, 0.275), (0.71875, 0.301667), (0.71875, 0.301667), (0.71875, 0.275), (0.71875, 0.301667), (0.71875, 0.275), (0.71875, 0.301667), (0.71875, 0.275), (0.71875, 0.301667), (0.71875, 0.475), (0.71875, 0.475), (0.71875, 0.475), (0.71875, 0.475), (0.71875, 0.475), (0.71875, 0.475), (0.71875, 0.475), (0.71875, 0.475), (0.71875, 0.475), (0.71875, 0.475), (0.71875, 0.475), (0.71875, 0.475), (0.71875, 0.475), (0.71875, 0.475), (0.71875, 0.475), (0.71875, 0.475), (0.71875, 0.475), (0.71875, 0.475), (0.71875, 0.301667), (0.71875, 0.368333), (0.71875, 0.368333), (0.71875, 0.368333), (0.71875, 0.301667), (0.71875, 0.301667), (0.71875, 0.301667), (0.71875, 0.368333), (0.71875, 0.301667), (0.71875, 0.368333), (0.71875, 0.301667), (0.71875, 0.368333), (0.71875, 0.368333), (0.71875, 0.301667), (0.71875, 0.301667), (0.71875, 0.301667), (0.71875, 0.368333), (0.71875, 0.368333), (0.71875, 0.368333), (0.71875, 0.301667), (0.71875, 0.301667), (0.71875, 0.301667), (0.71875, 0.368333), (0.71875, 0.368333), (0.71875, 0.475), (0.71875, 0.368333), (0.71875, 0.368333), (0.71875, 0.368333), (0.71875, 0.475), (0.71875, 0.475), (0.71875, 0.475), (0.71875, 0.368333), (0.71875, 0.475), (0.71875, 0.368333), (0.71875, 0.475), (0.71875, 0.368333), (0.71875, 0.475), (0.71875, 0.368333), (0.71875, 0.368333), (0.71875, 0.368333), (0.71875, 0.475), (0.71875, 0.475), (0.71875, 0.475), (0.71875, 0.368333), (0.71875, 0.368333), (0.71875, 0.368333), (0.71875, 0.475), (0.71875, 0.475), (0.71875, 0.475), (0.71875, 0.368333), (0.71875, 0.368333), (0.71875, 0.368333), (0.71875, 0.475), (0.71875, 0.475), (0.71875, 0.368333), (0.71875, 0.475), (0.71875, 0.475), (0.71875, 0.475), (0.71875, 0.368333), (0.71875, 0.368333), (0.71875, 0.368333), (0.71875, 0.475), (0.71875, 0.368333), (0.71875, 0.475), (0.71875, 0.368333), (0.71875, 0.475), (0.71875, 0.368333), (0.71875, 0.301667), (0.71875, 0.368333), (0.71875, 0.301667), (0.71875, 0.368333), (0.71875, 0.301667), (0.71875, 0.368333), (0.71875, 0.301667), (0.71875, 0.301667), (0.71875, 0.301667), (0.71875, 0.368333), (0.71875, 0.368333), (0.71875, 0.368333), (0.71875, 0.301667), (0.71875, 0.301667), (0.71875, 0.301667), (0.71875, 0.368333), (0.71875, 0.368333), (0.71875, 0.475), (0.71875, 0.368333), (0.71875, 0.368333), (0.71875, 0.368333), (0.71875, 0.475), (0.71875, 0.475), (0.71875, 0.368333), (0.71875, 0.301667), (0.71875, 0.301667), (0.71875, 0.301667), (0.71875, 0.368333), (0.71875, 0.368333), (0.71875, 0.275), (0.71875, 0.275), (0.71875, 0.275), (0.71875, 0.275), (0.71875, 0.275), (0.71875, 0.275), (0.71875, 0.275), (0.71875, 0.275), (0.71875, 0.275), (0.71875, 0.275), (0.71875, 0.275), (0.71875, 0.275), (0.71875, 0.275), (0.71875, 0.275), (0.71875, 0.275), (0.71875, 0.275), (0.71875, 0.275), (0.71875, 0.275), (0.71875, 0.290749), (0.71875, 0.275), (0.71875, 0.275), (0.71875, 0.275), (0.71875, 0.290749), (0.71875, 0.290749), (0.71875, 0.290749), (0.71875, 0.275), (0.71875, 0.275), (0.71875, 0.275), (0.71875, 0.290749), (0.71875, 0.290749), (0.71875, 0.290749), (0.71875, 0.275), (0.71875, 0.275), (0.71875, 0.275), (0.71875, 0.290749), (0.71875, 0.290749), (0.71875, 0.275), (0.71875, 0.290749), (0.71875, 0.290749), (0.71875, 0.290749), (0.71875, 0.275), (0.71875, 0.275), (0.71875, 0.290749), (0.71875, 0.275), (0.71875, 0.275), (0.71875, 0.275), (0.71875, 0.290749), (0.71875, 0.290749), (0.71875, 0.290749), (0.71875, 0.275), (0.71875, 0.290749), (0.71875, 0.275), (0.71875, 0.290749), (0.71875, 0.275), (0.71875, 0.290749), (0.71875, 0.275), (0.71875, 0.275), (0.71875, 0.275), (0.71875, 0.290749), (0.71875, 0.290749), (0.71875, 0.275), (0.71875, 0.290749), (0.71875, 0.275), (0.71875, 0.290749), (0.71875, 0.275), (0.71875, 0.290749), (0.71875, 0.330123), (0.71875, 0.290749), (0.71875, 0.290749), (0.71875, 0.290749), (0.71875, 0.330123), (0.71875, 0.330123), (0.71875, 0.290749), (0.71875, 0.330123), (0.71875, 0.290749), (0.71875, 0.330123), (0.71875, 0.290749), (0.71875, 0.330123), (0.71875, 0.330123), (0.71875, 0.290749), (0.71875, 0.290749), (0.71875, 0.290749), (0.71875, 0.330123), (0.71875, 0.330123), (0.71875, 0.330123), (0.71875, 0.290749), (0.71875, 0.290749), (0.71875, 0.290749), (0.71875, 0.330123), (0.71875, 0.330123), (0.71875, 0.290749), (0.71875, 0.330123), (0.71875, 0.290749), (0.71875, 0.330123), (0.71875, 0.290749), (0.71875, 0.330123), (0.71875, 0.330123), (0.71875, 0.290749), (0.71875, 0.290749), (0.71875, 0.290749), (0.71875, 0.330123), (0.71875, 0.330123), (0.71875, 0.330123), (0.71875, 0.290749), (0.71875, 0.290749), (0.71875, 0.290749), (0.71875, 0.330123), (0.71875, 0.330123), (0.71875, 0.330123), (0.71875, 0.290749), (0.71875, 0.330123), (0.71875, 0.290749), (0.71875, 0.330123), (0.71875, 0.290749), (0.71875, 0.475), (0.71875, 0.475), (0.71875, 0.475), (0.71875, 0.475), (0.71875, 0.475), (0.71875, 0.475), (0.71875, 0.475), (0.71875, 0.475), (0.71875, 0.475), (0.71875, 0.475), (0.71875, 0.475), (0.71875, 0.475), (0.71875, 0.475), (0.71875, 0.475), (0.71875, 0.475), (0.71875, 0.475), (0.71875, 0.475), (0.71875, 0.475), (0.71875, 0.413279), (0.71875, 0.330123), (0.71875, 0.330123), (0.71875, 0.330123), (0.71875, 0.413279), (0.71875, 0.413279), (0.71875, 0.413279), (0.71875, 0.330123), (0.71875, 0.330123), (0.71875, 0.330123), (0.71875, 0.413279), (0.71875, 0.413279), (0.71875, 0.330123), (0.71875, 0.413279), (0.71875, 0.330123), (0.71875, 0.413279), (0.71875, 0.330123), (0.71875, 0.413279), (0.71875, 0.413279), (0.71875, 0.330123), (0.71875, 0.330123), (0.71875, 0.330123), (0.71875, 0.413279), (0.71875, 0.413279), (0.71875, 0.413279), (0.71875, 0.330123), (0.71875, 0.330123), (0.71875, 0.330123), (0.71875, 0.413279), (0.71875, 0.413279), (0.71875, 0.330123), (0.71875, 0.413279), (0.71875, 0.330123), (0.71875, 0.413279), (0.71875, 0.330123), (0.71875, 0.413279), (0.71875, 0.413279), (0.71875, 0.330123), (0.71875, 0.330123), (0.71875, 0.330123), (0.71875, 0.413279), (0.71875, 0.413279), (0.71875, 0.413279), (0.71875, 0.330123), (0.71875, 0.330123), (0.71875, 0.330123), (0.71875, 0.413279), (0.71875, 0.413279), (0.71875, 0.413279), (0.71875, 0.475), (0.71875, 0.475), (0.71875, 0.475), (0.71875, 0.413279), (0.71875, 0.413279), (0.71875, 0.475), (0.71875, 0.413279), (0.71875, 0.413279), (0.71875, 0.413279), (0.71875, 0.475), (0.71875, 0.475), (0.71875, 0.475), (0.71875, 0.413279), (0.71875, 0.413279), (0.71875, 0.413279), (0.71875, 0.475), (0.71875, 0.475), (0.71875, 0.475), (0.71875, 0.413279), (0.71875, 0.413279), (0.71875, 0.413279), (0.71875, 0.475), (0.71875, 0.475), (0.71875, 0.475), (0.71875, 0.413279), (0.71875, 0.475), (0.71875, 0.413279), (0.71875, 0.475), (0.71875, 0.413279), (0.71875, 0.475), (0.71875, 0.413279), (0.71875, 0.413279), (0.71875, 0.413279), (0.71875, 0.475), (0.71875, 0.475), (0.71875, 0.413279), (0.71875, 0.475), (0.71875, 0.413279), (0.71875, 0.475), (0.71875, 0.413279), (0.71875, 0.475), (0.71875, 0.475), (0.71875, 0.413279), (0.71875, 0.413279), (0.71875, 0.413279), (0.71875, 0.475), (0.71875, 0.475), (0.71875, 0.275), (0.71875, 0.275), (0.71875, 0.275), (0.71875, 0.275), (0.71875, 0.275), (0.71875, 0.275), (0.71875, 0.275), (0.71875, 0.275), (0.71875, 0.275), (0.71875, 0.275), (0.71875, 0.275), (0.71875, 0.275), (0.71875, 0.275), (0.71875, 0.275), (0.71875, 0.275), (0.71875, 0.275), (0.71875, 0.275), (0.71875, 0.275), (0.71875, 0.288333), (0.71875, 0.275), (0.71875, 0.275), (0.71875, 0.275), (0.71875, 0.288333), (0.71875, 0.288333), (0.71875, 0.288333), (0.71875, 0.275), (0.71875, 0.275), (0.71875, 0.275), (0.71875, 0.288333), (0.71875, 0.288333), (0.71875, 0.288333), (0.71875, 0.275), (0.71875, 0.275), (0.71875, 0.275), (0.71875, 0.288333), (0.71875, 0.288333), (0.71875, 0.275), (0.71875, 0.288333), (0.71875, 0.288333), (0.71875, 0.288333), (0.71875, 0.275), (0.71875, 0.275), (0.71875, 0.288333), (0.71875, 0.275), (0.71875, 0.275), (0.71875, 0.275), (0.71875, 0.288333), (0.71875, 0.288333), (0.71875, 0.288333), (0.71875, 0.275), (0.71875, 0.288333), (0.71875, 0.275), (0.71875, 0.288333), (0.71875, 0.275), (0.71875, 0.288333), (0.71875, 0.275), (0.71875, 0.275), (0.71875, 0.275), (0.71875, 0.288333), (0.71875, 0.288333), (0.71875, 0.275), (0.71875, 0.288333), (0.71875, 0.275), (0.71875, 0.288333), (0.71875, 0.275), (0.71875, 0.288333), (0.71875, 0.375), (0.71875, 0.375), (0.71875, 0.375), (0.71875, 0.375), (0.71875, 0.375), (0.71875, 0.375), (0.71875, 0.375), (0.71875, 0.375), (0.71875, 0.375), (0.71875, 0.375), (0.71875, 0.375), (0.71875, 0.375), (0.71875, 0.375), (0.71875, 0.375), (0.71875, 0.375), (0.71875, 0.375), (0.71875, 0.375), (0.71875, 0.375), (0.71875, 0.288333), (0.71875, 0.321667), (0.71875, 0.321667), (0.71875, 0.321667), (0.71875, 0.288333), (0.71875, 0.288333), (0.71875, 0.288333), (0.71875, 0.321667), (0.71875, 0.288333), (0.71875, 0.321667), (0.71875, 0.288333), (0.71875, 0.321667), (0.71875, 0.321667), (0.71875, 0.288333), (0.71875, 0.288333), (0.71875, 0.288333), (0.71875, 0.321667), (0.71875, 0.321667), (0.71875, 0.321667), (0.71875, 0.288333), (0.71875, 0.288333), (0.71875, 0.288333), (0.71875, 0.321667), (0.71875, 0.321667), (0.71875, 0.375), (0.71875, 0.321667), (0.71875, 0.321667), (0.71875, 0.321667), (0.71875, 0.375), (0.71875, 0.375), (0.71875, 0.375), (0.71875, 0.321667), (0.71875, 0.375), (0.71875, 0.321667), (0.71875, 0.375), (0.71875, 0.321667), (0.71875, 0.375), (0.71875, 0.321667), (0.71875, 0.321667), (0.71875, 0.321667), (0.71875, 0.375), (0.71875, 0.375), (0.71875, 0.375), (0.71875, 0.321667), (0.71875, 0.321667), (0.71875, 0.321667), (0.71875, 0.375), (0.71875, 0.375), (0.71875, 0.375), (0.71875, 0.321667), (0.71875, 0.321667), (0.71875, 0.321667), (0.71875, 0.375), (0.71875, 0.375), (0.71875, 0.321667), (0.71875, 0.375), (0.71875, 0.375), (0.71875, 0.375), (0.71875, 0.321667), (0.71875, 0.321667), (0.71875, 0.321667), (0.71875, 0.375), (0.71875, 0.321667), (0.71875, 0.375), (0.71875, 0.321667), (0.71875, 0.375), (0.71875, 0.321667), (0.71875, 0.288333), (0.71875, 0.321667), (0.71875, 0.288333), (0.71875, 0.321667), (0.71875, 0.288333), (0.71875, 0.321667), (0.71875, 0.288333), (0.71875, 0.288333), (0.71875, 0.288333), (0.71875, 0.321667), (0.71875, 0.321667), (0.71875, 0.321667), (0.71875, 0.288333), (0.71875, 0.288333), (0.71875, 0.288333), (0.71875, 0.321667), (0.71875, 0.321667), (0.71875, 0.375), (0.71875, 0.321667), (0.71875, 0.321667), (0.71875, 0.321667), (0.71875, 0.375), (0.71875, 0.375), (0.71875, 0.321667), (0.71875, 0.288333), (0.71875, 0.288333), (0.71875, 0.288333), (0.71875, 0.321667), (0.71875, 0.321667), (0.21875, 0.415), (0.21875, 0.475), (0.21875, 0.475), (0.21875, 0.475), (0.21875, 0.415), (0.21875, 0.415), (0.21875, 0.475), (0.21875, 0.475), (0.21875, 0.475), (0.21875, 0.475), (0.21875, 0.475), (0.21875, 0.475), (0.21875, 0.475), (0.21875, 0.475), (0.21875, 0.475), (0.21875, 0.475), (0.21875, 0.475), (0.21875, 0.475), (0.21875, 0.475), (0.21875, 0.475), (0.21875, 0.475), (0.21875, 0.475), (0.21875, 0.475), (0.21875, 0.475), (0.21875, 0.415), (0.21875, 0.475), (0.21875, 0.475), (0.21875, 0.475), (0.21875, 0.415), (0.21875, 0.415), (0.21875, 0.415), (0.21875, 0.475), (0.21875, 0.475), (0.21875, 0.475), (0.21875, 0.415), (0.21875, 0.415), (0.21875, 0.415), (0.21875, 0.475), (0.21875, 0.475), (0.21875, 0.475), (0.21875, 0.415), (0.21875, 0.415), (0.21875, 0.275), (0.21875, 0.415), (0.21875, 0.415), (0.21875, 0.415), (0.21875, 0.275), (0.21875, 0.275), (0.21875, 0.415), (0.21875, 0.275), (0.21875, 0.275), (0.21875, 0.275), (0.21875, 0.415), (0.21875, 0.415), (0.21875, 0.275), (0.21875, 0.415), (0.21875, 0.275), (0.21875, 0.415), (0.21875, 0.275), (0.21875, 0.415), (0.21875, 0.275), (0.21875, 0.415), (0.21875, 0.415), (0.21875, 0.415), (0.21875, 0.275), (0.21875, 0.275), (0.21875, 0.415), (0.21875, 0.275), (0.21875, 0.415), (0.21875, 0.275), (0.21875, 0.415), (0.21875, 0.275), (0.21875, 0.275), (0.21875, 0.415), (0.21875, 0.415), (0.21875, 0.415), (0.21875, 0.275), (0.21875, 0.275), (0.21875, 0.275), (0.21875, 0.415), (0.21875, 0.415), (0.21875, 0.415), (0.21875, 0.275), (0.21875, 0.275), (0.21875, 0.275), (0.21875, 0.415), (0.21875, 0.415), (0.21875, 0.415), (0.21875, 0.275), (0.21875, 0.275), (0.21875, 0.475), (0.21875, 0.415), (0.21875, 0.475), (0.21875, 0.415), (0.21875, 0.475), (0.21875, 0.415), (0.21875, 0.415), (0.21875, 0.475), (0.21875, 0.475), (0.21875, 0.475), (0.21875, 0.415), (0.21875, 0.415), (0.21875, 0.475), (0.21875, 0.415), (0.21875, 0.475), (0.21875, 0.415), (0.21875, 0.475), (0.21875, 0.415), (0.21875, 0.415), (0.21875, 0.475), (0.21875, 0.475), (0.21875, 0.475), (0.21875, 0.415), (0.21875, 0.415), (0.71875, 0.275), (0.71875, 0.275), (0.71875, 0.275), (0.71875, 0.275), (0.71875, 0.275), (0.71875, 0.275), (0.71875, 0.275), (0.71875, 0.275), (0.71875, 0.275), (0.71875, 0.275), (0.71875, 0.275), (0.71875, 0.275), (0.71875, 0.275), (0.71875, 0.275), (0.71875, 0.275), (0.71875, 0.275), (0.71875, 0.275), (0.71875, 0.275), (0.71875, 0.301667), (0.71875, 0.275), (0.71875, 0.275), (0.71875, 0.275), (0.71875, 0.301667), (0.71875, 0.301667), (0.71875, 0.301667), (0.71875, 0.275), (0.71875, 0.275), (0.71875, 0.275), (0.71875, 0.301667), (0.71875, 0.301667), (0.71875, 0.301667), (0.71875, 0.275), (0.71875, 0.275), (0.71875, 0.275), (0.71875, 0.301667), (0.71875, 0.301667), (0.71875, 0.275), (0.71875, 0.301667), (0.71875, 0.301667), (0.71875, 0.301667), (0.71875, 0.275), (0.71875, 0.275), (0.71875, 0.301667), (0.71875, 0.275), (0.71875, 0.275), (0.71875, 0.275), (0.71875, 0.301667), (0.71875, 0.301667), (0.71875, 0.301667), (0.71875, 0.275), (0.71875, 0.301667), (0.71875, 0.275), (0.71875, 0.301667), (0.71875, 0.275), (0.71875, 0.301667), (0.71875, 0.275), (0.71875, 0.275), (0.71875, 0.275), (0.71875, 0.301667), (0.71875, 0.301667), (0.71875, 0.275), (0.71875, 0.301667), (0.71875, 0.275), (0.71875, 0.301667), (0.71875, 0.275), (0.71875, 0.301667), (0.71875, 0.475), (0.71875, 0.475), (0.71875, 0.475), (0.71875, 0.475), (0.71875, 0.475), (0.71875, 0.475), (0.71875, 0.475), (0.71875, 0.475), (0.71875, 0.475), (0.71875, 0.475), (0.71875, 0.475), (0.71875, 0.475), (0.71875, 0.475), (0.71875, 0.475), (0.71875, 0.475), (0.71875, 0.475), (0.71875, 0.475), (0.71875, 0.475), (0.71875, 0.301667), (0.71875, 0.368333), (0.71875, 0.368333), (0.71875, 0.368333), (0.71875, 0.301667), (0.71875, 0.301667), (0.71875, 0.301667), (0.71875, 0.368333), (0.71875, 0.301667), (0.71875, 0.368333), (0.71875, 0.301667), (0.71875, 0.368333), (0.71875, 0.368333), (0.71875, 0.301667), (0.71875, 0.301667), (0.71875, 0.301667), (0.71875, 0.368333), (0.71875, 0.368333), (0.71875, 0.368333), (0.71875, 0.301667), (0.71875, 0.301667), (0.71875, 0.301667), (0.71875, 0.368333), (0.71875, 0.368333), (0.71875, 0.475), (0.71875, 0.368333), (0.71875, 0.368333), (0.71875, 0.368333), (0.71875, 0.475), (0.71875, 0.475), (0.71875, 0.475), (0.71875, 0.368333), (0.71875, 0.475), (0.71875, 0.368333), (0.71875, 0.475), (0.71875, 0.368333), (0.71875, 0.475), (0.71875, 0.368333), (0.71875, 0.368333), (0.71875, 0.368333), (0.71875, 0.475), (0.71875, 0.475), (0.71875, 0.475), (0.71875, 0.368333), (0.71875, 0.368333), (0.71875, 0.368333), (0.71875, 0.475), (0.71875, 0.475), (0.71875, 0.475), (0.71875, 0.368333), (0.71875, 0.368333), (0.71875, 0.368333), (0.71875, 0.475), (0.71875, 0.475), (0.71875, 0.368333), (0.71875, 0.475), (0.71875, 0.475), (0.71875, 0.475), (0.71875, 0.368333), (0.71875, 0.368333), (0.71875, 0.368333), (0.71875, 0.475), (0.71875, 0.368333), (0.71875, 0.475), (0.71875, 0.368333), (0.71875, 0.475), (0.71875, 0.368333), (0.71875, 0.301667), (0.71875, 0.368333), (0.71875, 0.301667), (0.71875, 0.368333), (0.71875, 0.301667), (0.71875, 0.368333), (0.71875, 0.301667), (0.71875, 0.301667), (0.71875, 0.301667), (0.71875, 0.368333), (0.71875, 0.368333), (0.71875, 0.368333), (0.71875, 0.301667), (0.71875, 0.301667), (0.71875, 0.301667), (0.71875, 0.368333), (0.71875, 0.368333), (0.71875, 0.475), (0.71875, 0.368333), (0.71875, 0.368333), (0.71875, 0.368333), (0.71875, 0.475), (0.71875, 0.475), (0.71875, 0.368333), (0.71875, 0.301667), (0.71875, 0.301667), (0.71875, 0.301667), (0.71875, 0.368333), (0.71875, 0.368333), (0.71875, 0.275), (0.71875, 0.275), (0.71875, 0.275), (0.71875, 0.275), (0.71875, 0.275), (0.71875, 0.275), (0.71875, 0.275), (0.71875, 0.275), (0.71875, 0.275), (0.71875, 0.275), (0.71875, 0.275), (0.71875, 0.275), (0.71875, 0.275), (0.71875, 0.275), (0.71875, 0.275), (0.71875, 0.275), (0.71875, 0.275), (0.71875, 0.275), (0.71875, 0.290749), (0.71875, 0.275), (0.71875, 0.275), (0.71875, 0.275), (0.71875, 0.290749), (0.71875, 0.290749), (0.71875, 0.290749), (0.71875, 0.275), (0.71875, 0.275), (0.71875, 0.275), (0.71875, 0.290749), (0.71875, 0.290749), (0.71875, 0.290749), (0.71875, 0.275), (0.71875, 0.275), (0.71875, 0.275), (0.71875, 0.290749), (0.71875, 0.290749), (0.71875, 0.275), (0.71875, 0.290749), (0.71875, 0.290749), (0.71875, 0.290749), (0.71875, 0.275), (0.71875, 0.275), (0.71875, 0.290749), (0.71875, 0.275), (0.71875, 0.275), (0.71875, 0.275), (0.71875, 0.290749), (0.71875, 0.290749), (0.71875, 0.290749), (0.71875, 0.275), (0.71875, 0.290749), (0.71875, 0.275), (0.71875, 0.290749), (0.71875, 0.275), (0.71875, 0.290749), (0.71875, 0.275), (0.71875, 0.275), (0.71875, 0.275), (0.71875, 0.290749), (0.71875, 0.290749), (0.71875, 0.275), (0.71875, 0.290749), (0.71875, 0.275), (0.71875, 0.290749), (0.71875, 0.275), (0.71875, 0.290749), (0.71875, 0.330123), (0.71875, 0.290749), (0.71875, 0.290749), (0.71875, 0.290749), (0.71875, 0.330123), (0.71875, 0.330123), (0.71875, 0.290749), (0.71875, 0.330123), (0.71875, 0.290749), (0.71875, 0.330123), (0.71875, 0.290749), (0.71875, 0.330123), (0.71875, 0.330123), (0.71875, 0.290749), (0.71875, 0.290749), (0.71875, 0.290749), (0.71875, 0.330123), (0.71875, 0.330123), (0.71875, 0.330123), (0.71875, 0.290749), (0.71875, 0.290749), (0.71875, 0.290749), (0.71875, 0.330123), (0.71875, 0.330123), (0.71875, 0.290749), (0.71875, 0.330123), (0.71875, 0.290749), (0.71875, 0.330123), (0.71875, 0.290749), (0.71875, 0.330123), (0.71875, 0.330123), (0.71875, 0.290749), (0.71875, 0.290749), (0.71875, 0.290749), (0.71875, 0.330123), (0.71875, 0.330123), (0.71875, 0.330123), (0.71875, 0.290749), (0.71875, 0.290749), (0.71875, 0.290749), (0.71875, 0.330123), (0.71875, 0.330123), (0.71875, 0.330123), (0.71875, 0.290749), (0.71875, 0.330123), (0.71875, 0.290749), (0.71875, 0.330123), (0.71875, 0.290749), (0.71875, 0.475), (0.71875, 0.475), (0.71875, 0.475), (0.71875, 0.475), (0.71875, 0.475), (0.71875, 0.475), (0.71875, 0.475), (0.71875, 0.475), (0.71875, 0.475), (0.71875, 0.475), (0.71875, 0.475), (0.71875, 0.475), (0.71875, 0.475), (0.71875, 0.475), (0.71875, 0.475), (0.71875, 0.475), (0.71875, 0.475), (0.71875, 0.475), (0.71875, 0.413279), (0.71875, 0.330123), (0.71875, 0.330123), (0.71875, 0.330123), (0.71875, 0.413279), (0.71875, 0.413279), (0.71875, 0.413279), (0.71875, 0.330123), (0.71875, 0.330123), (0.71875, 0.330123), (0.71875, 0.413279), (0.71875, 0.413279), (0.71875, 0.330123), (0.71875, 0.413279), (0.71875, 0.330123), (0.71875, 0.413279), (0.71875, 0.330123), (0.71875, 0.413279), (0.71875, 0.413279), (0.71875, 0.330123), (0.71875, 0.330123), (0.71875, 0.330123), (0.71875, 0.413279), (0.71875, 0.413279), (0.71875, 0.413279), (0.71875, 0.330123), (0.71875, 0.330123), (0.71875, 0.330123), (0.71875, 0.413279), (0.71875, 0.413279), (0.71875, 0.330123), (0.71875, 0.413279), (0.71875, 0.330123), (0.71875, 0.413279), (0.71875, 0.330123), (0.71875, 0.413279), (0.71875, 0.413279), (0.71875, 0.330123), (0.71875, 0.330123), (0.71875, 0.330123), (0.71875, 0.413279), (0.71875, 0.413279), (0.71875, 0.413279), (0.71875, 0.330123), (0.71875, 0.330123), (0.71875, 0.330123), (0.71875, 0.413279), (0.71875, 0.413279), (0.71875, 0.413279), (0.71875, 0.475), (0.71875, 0.475), (0.71875, 0.475), (0.71875, 0.413279), (0.71875, 0.413279), (0.71875, 0.475), (0.71875, 0.413279), (0.71875, 0.413279), (0.71875, 0.413279), (0.71875, 0.475), (0.71875, 0.475), (0.71875, 0.475), (0.71875, 0.413279), (0.71875, 0.413279), (0.71875, 0.413279), (0.71875, 0.475), (0.71875, 0.475), (0.71875, 0.475), (0.71875, 0.413279), (0.71875, 0.413279), (0.71875, 0.413279), (0.71875, 0.475), (0.71875, 0.475), (0.71875, 0.475), (0.71875, 0.413279), (0.71875, 0.475), (0.71875, 0.413279), (0.71875, 0.475), (0.71875, 0.413279), (0.71875, 0.475), (0.71875, 0.413279), (0.71875, 0.413279), (0.71875, 0.413279), (0.71875, 0.475), (0.71875, 0.475), (0.71875, 0.413279), (0.71875, 0.475), (0.71875, 0.413279), (0.71875, 0.475), (0.71875, 0.413279), (0.71875, 0.475), (0.71875, 0.475), (0.71875, 0.413279), (0.71875, 0.413279), (0.71875, 0.413279), (0.71875, 0.475), (0.71875, 0.475), (0.71875, 0.275), (0.71875, 0.275), (0.71875, 0.275), (0.71875, 0.275), (0.71875, 0.275), (0.71875, 0.275), (0.71875, 0.275), (0.71875, 0.275), (0.71875, 0.275), (0.71875, 0.275), (0.71875, 0.275), (0.71875, 0.275), (0.71875, 0.275), (0.71875, 0.275), (0.71875, 0.275), (0.71875, 0.275), (0.71875, 0.275), (0.71875, 0.275), (0.71875, 0.288333), (0.71875, 0.275), (0.71875, 0.275), (0.71875, 0.275), (0.71875, 0.288333), (0.71875, 0.288333), (0.71875, 0.288333), (0.71875, 0.275), (0.71875, 0.275), (0.71875, 0.275), (0.71875, 0.288333), (0.71875, 0.288333), (0.71875, 0.288333), (0.71875, 0.275), (0.71875, 0.275), (0.71875, 0.275), (0.71875, 0.288333), (0.71875, 0.288333), (0.71875, 0.275), (0.71875, 0.288333), (0.71875, 0.288333), (0.71875, 0.288333), (0.71875, 0.275), (0.71875, 0.275), (0.71875, 0.288333), (0.71875, 0.275), (0.71875, 0.275), (0.71875, 0.275), (0.71875, 0.288333), (0.71875, 0.288333), (0.71875, 0.288333), (0.71875, 0.275), (0.71875, 0.288333), (0.71875, 0.275), (0.71875, 0.288333), (0.71875, 0.275), (0.71875, 0.288333), (0.71875, 0.275), (0.71875, 0.275), (0.71875, 0.275), (0.71875, 0.288333), (0.71875, 0.288333), (0.71875, 0.275), (0.71875, 0.288333), (0.71875, 0.275), (0.71875, 0.288333), (0.71875, 0.275), (0.71875, 0.288333), (0.71875, 0.375), (0.71875, 0.375), (0.71875, 0.375), (0.71875, 0.375), (0.71875, 0.375), (0.71875, 0.375), (0.71875, 0.375), (0.71875, 0.375), (0.71875, 0.375), (0.71875, 0.375), (0.71875, 0.375), (0.71875, 0.375), (0.71875, 0.375), (0.71875, 0.375), (0.71875, 0.375), (0.71875, 0.375), (0.71875, 0.375), (0.71875, 0.375), (0.71875, 0.288333), (0.71875, 0.321667), (0.71875, 0.321667), (0.71875, 0.321667), (0.71875, 0.288333), (0.71875, 0.288333), (0.71875, 0.288333), (0.71875, 0.321667), (0.71875, 0.288333), (0.71875, 0.321667), (0.71875, 0.288333), (0.71875, 0.321667), (0.71875, 0.321667), (0.71875, 0.288333), (0.71875, 0.288333), (0.71875, 0.288333), (0.71875, 0.321667), (0.71875, 0.321667), (0.71875, 0.321667), (0.71875, 0.288333), (0.71875, 0.288333), (0.71875, 0.288333), (0.71875, 0.321667), (0.71875, 0.321667), (0.71875, 0.375), (0.71875, 0.321667), (0.71875, 0.321667), (0.71875, 0.321667), (0.71875, 0.375), (0.71875, 0.375), (0.71875, 0.375), (0.71875, 0.321667), (0.71875, 0.375), (0.71875, 0.321667), (0.71875, 0.375), (0.71875, 0.321667), (0.71875, 0.375), (0.71875, 0.321667), (0.71875, 0.321667), (0.71875, 0.321667), (0.71875, 0.375), (0.71875, 0.375), (0.71875, 0.375), (0.71875, 0.321667), (0.71875, 0.321667), (0.71875, 0.321667), (0.71875, 0.375), (0.71875, 0.375), (0.71875, 0.375), (0.71875, 0.321667), (0.71875, 0.321667), (0.71875, 0.321667), (0.71875, 0.375), (0.71875, 0.375), (0.71875, 0.321667), (0.71875, 0.375), (0.71875, 0.375), (0.71875, 0.375), (0.71875, 0.321667), (0.71875, 0.321667), (0.71875, 0.321667), (0.71875, 0.375), (0.71875, 0.321667), (0.71875, 0.375), (0.71875, 0.321667), (0.71875, 0.375), (0.71875, 0.321667), (0.71875, 0.288333), (0.71875, 0.321667), (0.71875, 0.288333), (0.71875, 0.321667), (0.71875, 0.288333), (0.71875, 0.321667), (0.71875, 0.288333), (0.71875, 0.288333), (0.71875, 0.288333), (0.71875, 0.321667), (0.71875, 0.321667), (0.71875, 0.321667), (0.71875, 0.288333), (0.71875, 0.288333), (0.71875, 0.288333), (0.71875, 0.321667), (0.71875, 0.321667), (0.71875, 0.375), (0.71875, 0.321667), (0.71875, 0.321667), (0.71875, 0.321667), (0.71875, 0.375), (0.71875, 0.375), (0.71875, 0.321667), (0.71875, 0.288333), (0.71875, 0.288333), (0.71875, 0.288333), (0.71875, 0.321667), (0.71875, 0.321667), (0.21875, 0.415), (0.21875, 0.475), (0.21875, 0.475), (0.21875, 0.475), (0.21875, 0.415), (0.21875, 0.415), (0.21875, 0.475), (0.21875, 0.475), (0.21875, 0.475), (0.21875, 0.475), (0.21875, 0.475), (0.21875, 0.475), (0.21875, 0.475), (0.21875, 0.475), (0.21875, 0.475), (0.21875, 0.475), (0.21875, 0.475), (0.21875, 0.475), (0.21875, 0.475), (0.21875, 0.475), (0.21875, 0.475), (0.21875, 0.475), (0.21875, 0.475), (0.21875, 0.475), (0.21875, 0.415), (0.21875, 0.475), (0.21875, 0.475), (0.21875, 0.475), (0.21875, 0.415), (0.21875, 0.415), (0.21875, 0.415), (0.21875, 0.475), (0.21875, 0.475), (0.21875, 0.475), (0.21875, 0.415), (0.21875, 0.415), (0.21875, 0.415), (0.21875, 0.475), (0.21875, 0.475), (0.21875, 0.475), (0.21875, 0.415), (0.21875, 0.415), (0.21875, 0.275), (0.21875, 0.415), (0.21875, 0.415), (0.21875, 0.415), (0.21875, 0.275), (0.21875, 0.275), (0.21875, 0.415), (0.21875, 0.275), (0.21875, 0.275), (0.21875, 0.275), (0.21875, 0.415), (0.21875, 0.415), (0.21875, 0.275), (0.21875, 0.415), (0.21875, 0.275), (0.21875, 0.415), (0.21875, 0.275), (0.21875, 0.415), (0.21875, 0.275), (0.21875, 0.415), (0.21875, 0.415), (0.21875, 0.415), (0.21875, 0.275), (0.21875, 0.275), (0.21875, 0.415), (0.21875, 0.275), (0.21875, 0.415), (0.21875, 0.275), (0.21875, 0.415), (0.21875, 0.275), (0.21875, 0.275), (0.21875, 0.415), (0.21875, 0.415), (0.21875, 0.415), (0.21875, 0.275), (0.21875, 0.275), (0.21875, 0.275), (0.21875, 0.415), (0.21875, 0.415), (0.21875, 0.415), (0.21875, 0.275), (0.21875, 0.275), (0.21875, 0.275), (0.21875, 0.415), (0.21875, 0.415), (0.21875, 0.415), (0.21875, 0.275), (0.21875, 0.275), (0.21875, 0.475), (0.21875, 0.415), (0.21875, 0.475), (0.21875, 0.415), (0.21875, 0.475), (0.21875, 0.415), (0.21875, 0.415), (0.21875, 0.475), (0.21875, 0.475), (0.21875, 0.475), (0.21875, 0.415), (0.21875, 0.415), (0.21875, 0.475), (0.21875, 0.415), (0.21875, 0.475), (0.21875, 0.415), (0.21875, 0.475), (0.21875, 0.415), (0.21875, 0.415), (0.21875, 0.475), (0.21875, 0.475), (0.21875, 0.475), (0.21875, 0.415), (0.21875, 0.415)] (interpolation = "faceVarying")
        uniform token subdivisionScheme = "none"
        rel material:binding = </Vehicle/Materials/colormap>
    }
    def Scope "Materials" {
        def Material "colormap" {
            token outputs:surface.connect = </Vehicle/Materials/colormap/surface.outputs:surface>
            def Shader "surface" {
                uniform token info:id = "UsdPreviewSurface"
                float inputs:roughness = 0.7
                float inputs:metallic = 0
                color3f inputs:diffuseColor.connect = </Vehicle/Materials/colormap/texture.outputs:rgb>
                token outputs:surface
            }
            def Shader "stReader" {
                uniform token info:id = "UsdPrimvarReader_float2"
                token inputs:varname = "st"
                float2 outputs:result
            }
            def Shader "texture" {
                uniform token info:id = "UsdUVTexture"
                asset inputs:file = @kenney-holiday-colormap.png@
                float2 inputs:st.connect = </Vehicle/Materials/colormap/stReader.outputs:result>
                token inputs:wrapS = "repeat"
                token inputs:wrapT = "repeat"
                float3 outputs:rgb
            }
        }
    }
}
