#usda 1.0
(
    defaultPrim = "Vehicle"
    metersPerUnit = 1
    upAxis = "Y"
)
def Xform "Vehicle" {
    def Mesh "mesh_woodBirch" {
        int[] faceVertexCounts = [3, 3, 3, 3, 3, 3, 3, 3, 3, 3, 3, 3, 3, 3, 3, 3, 3, 3, 3, 3, 3, 3, 3, 3, 3, 3, 3, 3, 3, 3, 3, 3, 3, 3, 3, 3, 3, 3, 3, 3, 3, 3, 3, 3, 3, 3, 3, 3, 3, 3, 3, 3, 3, 3, 3, 3, 3, 3, 3, 3, 3, 3, 3, 3, 3, 3, 3, 3, 3, 3, 3, 3, 3, 3, 3, 3, 3, 3, 3, 3, 3, 3, 3, 3, 3, 3, 3, 3, 3, 3, 3, 3, 3, 3, 3, 3, 3, 3, 3, 3, 3, 3, 3, 3, 3, 3, 3, 3, 3, 3, 3, 3, 3, 3, 3, 3, 3, 3, 3, 3, 3, 3, 3, 3, 3, 3, 3, 3, 3, 3, 3, 3, 3, 3, 3, 3, 3, 3, 3, 3, 3, 3, 3, 3, 3, 3, 3, 3, 3, 3, 3, 3, 3, 3, 3, 3, 3, 3, 3, 3, 3, 3, 3, 3, 3, 3, 3, 3, 3, 3, 3, 3, 3, 3, 3, 3, 3, 3, 3, 3, 3, 3, 3, 3, 3, 3, 3, 3]
        int[] faceVertexIndices = [2, 1, 0, 1, 2, 3, 0, 1, 2, 3, 2, 1, 6, 5, 4, 5, 6, 7, 4, 5, 6, 7, 6, 5, 6, 8, 7, 8, 6, 9, 7, 8, 6, 9, 6, 8, 12, 11, 10, 11, 12, 13, 10, 11, 12, 13, 12, 11, 1, 15, 14, 15, 1, 3, 14, 15, 1, 3, 1, 15, 18, 17, 16, 19, 16, 17, 22, 21, 20, 23, 20, 21, 25, 12, 24, 12, 25, 26, 12, 26, 27, 27, 26, 28, 10, 24, 12, 24, 10, 29, 29, 10, 28, 29, 28, 26, 24, 12, 25, 26, 25, 12, 27, 26, 12, 28, 26, 27, 12, 24, 10, 29, 10, 24, 28, 10, 29, 26, 28, 29, 30, 10, 11, 10, 30, 28, 11, 10, 30, 28, 30, 10, 8, 5, 7, 5, 8, 31, 7, 5, 8, 31, 8, 5, 21, 32, 23, 33, 23, 32, 16, 23, 33, 34, 16, 33, 26, 16, 34, 33, 32, 29, 35, 29, 32, 26, 29, 35, 16, 26, 35, 18, 16, 35, 38, 37, 36, 37, 38, 39, 36, 37, 38, 39, 38, 37, 42, 41, 40, 25, 43, 26, 43, 25, 44, 43, 44, 36, 36, 44, 38, 38, 44, 34, 26, 45, 34, 45, 26, 43, 34, 45, 38, 26, 43, 25, 44, 25, 43, 36, 44, 43, 38, 44, 36, 34, 44, 38, 34, 45, 26, 43, 26, 45, 38, 45, 34, 46, 5, 31, 5, 46, 4, 31, 5, 46, 4, 46, 5, 12, 47, 13, 47, 12, 27, 13, 47, 12, 27, 12, 47, 44, 24, 48, 24, 44, 25, 48, 24, 44, 25, 44, 24, 31, 9, 46, 9, 31, 8, 46, 9, 31, 8, 31, 9, 49, 32, 22, 21, 22, 32, 51, 0, 50, 0, 51, 2, 50, 0, 51, 2, 51, 0, 53, 52, 17, 54, 17, 52, 48, 0, 44, 0, 48, 33, 0, 33, 50, 50, 33, 14, 1, 44, 0, 44, 1, 34, 34, 1, 14, 34, 14, 33, 44, 0, 48, 33, 48, 0, 50, 33, 0, 14, 33, 50, 0, 44, 1, 34, 1, 44, 14, 1, 34, 33, 14, 34, 49, 22, 55, 56, 55, 22, 56, 22, 41, 20, 41, 22, 14, 51, 50, 51, 14, 15, 50, 51, 14, 15, 14, 51, 30, 27, 28, 27, 30, 47, 28, 27, 30, 47, 30, 27, 56, 41, 42, 33, 6, 29, 6, 33, 9, 9, 33, 46, 4, 29, 6, 48, 29, 4, 48, 4, 46, 48, 46, 33, 29, 48, 24, 29, 6, 33, 9, 33, 6, 46, 33, 9, 6, 29, 4, 4, 29, 48, 46, 4, 48, 33, 46, 48, 24, 48, 29, 20, 19, 41, 40, 41, 19, 35, 32, 53, 49, 53, 32, 53, 17, 35, 18, 35, 17, 51, 3, 2, 3, 51, 15, 2, 3, 51, 15, 51, 3, 23, 16, 20, 19, 20, 16, 47, 11, 13, 11, 47, 30, 13, 11, 47, 30, 47, 11, 37, 43, 36, 43, 37, 57, 36, 43, 37, 57, 37, 43, 57, 45, 43, 45, 57, 58, 43, 45, 57, 58, 57, 45, 17, 54, 19, 40, 19, 54, 52, 42, 54, 53, 49, 52, 55, 52, 49, 58, 38, 45, 38, 58, 39, 45, 38, 58, 39, 58, 38, 55, 42, 52, 55, 56, 42, 37, 58, 57, 58, 37, 39, 57, 58, 37, 39, 37, 58, 42, 40, 54]
        point3f[] points = [(0.0294194, 0.536235, 0.0519934), (-0.0280806, 0.536235, 0.0519934), (0.0216569, 0.54666, 0.136708), (-0.0203181, 0.54666, 0.136708), (0.047391, 0.682875, -0.0202873), (0.122183, 0.690688, -0.0148248), (0.045901, 0.730352, -0.0202873), (0.121035, 0.727245, -0.0148248), (0.121035, 0.727245, 0.0217502), (0.045901, 0.730352, 0.0272127), (0.0329891, 0.192552, -0.0627801), (0.0239141, 0.203897, -0.13496), (-0.0220109, 0.192552, -0.0627801), (-0.0129359, 0.203897, -0.13496), (-0.0280806, 0.593707, 0.0501896), (-0.0203181, 0.588615, 0.135391), (-0.147225, 0.800388, 0.255001), (-0.3775, 0.955387, 0), (-0.29445, 0.800388, 0), (-0.18875, 0.955387, 0.326925), (0.18875, 0.955387, 0.326925), (0.29445, 0.800388, 0), (0.3775, 0.955387, 0), (0.147225, 0.800388, 0.255001), (0.0688234, 0, -0.0688234), (-0.0688234, 0, -0.0688234), (-0.0437029, 0.800388, -0.0437029), (-0.0220109, 0.247525, -0.0610547), (0.0329891, 0.247525, -0.0610547), (0.0437029, 0.800388, -0.0437029), (0.0239141, 0.240729, -0.133804), (0.122183, 0.690688, 0.0217502), (0.147225, 0.800388, -0.255001), (0.0437029, 0.800388, 0.0437029), (-0.0437029, 0.800388, 0.0437029), (-0.147225, 0.800388, -0.255001), (-0.0598158, 0.286998, 0.036044), (-0.144463, 0.299559, 0.026144), (-0.0579337, 0.346968, 0.036044), (-0.143202, 0.33974, 0.026144), (-0.145338, 1.50039, 0.251732), (0.145338, 1.50039, 0.251732), (0, 1.70789, 0), (-0.0598158, 0.286998, -0.023956), (-0.0688234, 0, 0.0688234), (-0.0579337, 0.346968, -0.023956), (0.047391, 0.682875, 0.0272127), (-0.0129359, 0.240729, -0.133804), (0.0688234, 0, 0.0688234), (0.18875, 0.955387, -0.326925), (0.0294194, 0.593707, 0.0501896), (0.0216569, 0.588615, 0.135391), (-0.145338, 1.50039, -0.251732), (-0.18875, 0.955387, -0.326925), (-0.290675, 1.50039, 0), (0.145338, 1.50039, -0.251732), (0.290675, 1.50039, 0), (-0.144463, 0.299559, -0.014056), (-0.143202, 0.33974, -0.014056)]
        normal3f[] normals = [(0, -0.992513, 0.122139), (0, -0.992513, 0.122139), (0, -0.992513, 0.122139), (0, -0.992513, 0.122139), (0, -0.992513, 0.122139), (0, -0.992513, 0.122139), (0, 0.992513, -0.122139), (0, 0.992513, -0.122139), (0, 0.992513, -0.122139), (0, 0.992513, -0.122139), (0, 0.992513, -0.122139), (0, 0.992513, -0.122139), (0.0726052, 0.00227876, -0.997358), (0.0726052, 0.00227876, -0.997358), (0.0726052, 0.00227876, -0.997358), (0.0726052, 0.00227876, -0.997358), (0.0726052, 0.00227876, -0.997358), (0.0726052, 0.00227876, -0.997358), (-0.0726052, -0.00227876, 0.997358), (-0.0726052, -0.00227876, 0.997358), (-0.0726052, -0.00227876, 0.997358), (-0.0726052, -0.00227876, 0.997358), (-0.0726052, -0.00227876, 0.997358), (-0.0726052, -0.00227876, 0.997358), (0.0413175, 0.999146, 0), (0.0413175, 0.999146, 0), (0.0413175, 0.999146, 0), (0.0413175, 0.999146, 0), (0.0413175, 0.999146, 0), (0.0413175, 0.999146, 0), (-0.0413175, -0.999146, 0), (-0.0413175, -0.999146, 0), (-0.0413175, -0.999146, 0), (-0.0413175, -0.999146, 0), (-0.0413175, -0.999146, 0), (-0.0413175, -0.999146, 0), (0, -0.987872, -0.155269), (0, -0.987872, -0.155269), (0, -0.987872, -0.155269), (0, -0.987872, -0.155269), (0, -0.987872, -0.155269), (0, -0.987872, -0.155269), (0, 0.987872, 0.155269), (0, 0.987872, 0.155269), (0, 0.987872, 0.155269), (0, 0.987872, 0.155269), (0, 0.987872, 0.155269), (0, 0.987872, 0.155269), (-0.995856, 0.00285294, 0.0909002), (-0.995856, 0.00285294, 0.0909002), (-0.995856, 0.00285294, 0.0909002), (-0.995856, 0.00285294, 0.0909002), (-0.995856, 0.00285294, 0.0909002), (-0.995856, 0.00285294, 0.0909002), (0.995856, -0.00285294, -0.0909002), (0.995856, -0.00285294, -0.0909002), (0.995856, -0.00285294, -0.0909002), (0.995856, -0.00285294, -0.0909002), (0.995856, -0.00285294, -0.0909002), (0.995856, -0.00285294, -0.0909002), (0.785572, 0.420914, -0.45355), (0.785572, 0.420914, -0.45355), (0.785572, 0.420914, -0.45355), (0.785572, 0.420914, -0.45355), (0.785572, 0.420914, -0.45355), (0.785572, 0.420914, -0.45355), (-0.785572, 0.420914, -0.45355), (-0.785572, 0.420914, -0.45355), (-0.785572, 0.420914, -0.45355), (-0.785572, 0.420914, -0.45355), (-0.785572, 0.420914, -0.45355), (-0.785572, 0.420914, -0.45355), (0, 0.03137, -0.999508), (0, 0.03137, -0.999508), (0, 0.03137, -0.999508), (0, 0.03137, -0.999508), (0, 0.03137, -0.999508), (0, 0.03137, -0.999508), (0, 0.03137, -0.999508), (0, 0.03137, -0.999508), (0, 0.03137, -0.999508), (0, 0.03137, -0.999508), (0, 0.03137, -0.999508), (0, 0.03137, -0.999508), (0, 0.03137, -0.999508), (0, 0.03137, -0.999508), (0, 0.03137, -0.999508), (0, 0.03137, -0.999508), (0, 0.03137, -0.999508), (0, 0.03137, -0.999508), (0, 0.03137, -0.999508), (0, 0.03137, -0.999508), (0, 0.03137, -0.999508), (0, 0.03137, -0.999508), (0, 0.03137, -0.999508), (0, 0.03137, -0.999508), (0, -0.03137, 0.999508), (0, -0.03137, 0.999508), (0, -0.03137, 0.999508), (0, -0.03137, 0.999508), (0, -0.03137, 0.999508), (0, -0.03137, 0.999508), (0, -0.03137, 0.999508), (0, -0.03137, 0.999508), (0, -0.03137, 0.999508), (0, -0.03137, 0.999508), (0, -0.03137, 0.999508), (0, -0.03137, 0.999508), (0, -0.03137, 0.999508), (0, -0.03137, 0.999508), (0, -0.03137, 0.999508), (0, -0.03137, 0.999508), (0, -0.03137, 0.999508), (0, -0.03137, 0.999508), (0, -0.03137, 0.999508), (0, -0.03137, 0.999508), (0, -0.03137, 0.999508), (0, -0.03137, 0.999508), (0, -0.03137, 0.999508), (0, -0.03137, 0.999508), (0.992257, 0.00389625, -0.124142), (0.992257, 0.00389625, -0.124142), (0.992257, 0.00389625, -0.124142), (0.992257, 0.00389625, -0.124142), (0.992257, 0.00389625, -0.124142), (0.992257, 0.00389625, -0.124142), (-0.992257, -0.00389625, 0.124142), (-0.992257, -0.00389625, 0.124142), (-0.992257, -0.00389625, 0.124142), (-0.992257, -0.00389625, 0.124142), (-0.992257, -0.00389625, 0.124142), (-0.992257, -0.00389625, 0.124142), (0.999508, 0.0313705, 0), (0.999508, 0.0313705, 0), (0.999508, 0.0313705, 0), (0.999508, 0.0313705, 0), (0.999508, 0.0313705, 0), (0.999508, 0.0313705, 0), (-0.999508, -0.0313705, 0), (-0.999508, -0.0313705, 0), (-0.999508, -0.0313705, 0), (-0.999508, -0.0313705, 0), (-0.999508, -0.0313705, 0), (-0.999508, -0.0313705, 0), (0, 1, 0), (0, 1, 0), (0, 1, 0), (0, 1, 0), (0, 1, 0), (0, 1, 0), (0, 1, 0), (0, 1, 0), (0, 1, 0), (0, 1, 0), (0, 1, 0), (0, 1, 0), (0, 1, 0), (0, 1, 0), (0, 1, 0), (0, 1, 0), (0, 1, 0), (0, 1, 0), (0, 1, 0), (0, 1, 0), (0, 1, 0), (0, 1, 0), (0, 1, 0), (0, 1, 0), (0, 1, 0), (0, 1, 0), (0, 1, 0), (0, 1, 0), (0, 1, 0), (0, 1, 0), (-0.115632, 0.00362915, 0.993286), (-0.115632, 0.00362915, 0.993286), (-0.115632, 0.00362915, 0.993286), (-0.115632, 0.00362915, 0.993286), (-0.115632, 0.00362915, 0.993286), (-0.115632, 0.00362915, 0.993286), (0.115632, -0.00362915, -0.993286), (0.115632, -0.00362915, -0.993286), (0.115632, -0.00362915, -0.993286), (0.115632, -0.00362915, -0.993286), (0.115632, -0.00362915, -0.993286), (0.115632, -0.00362915, -0.993286), (0, -0.771642, -0.636057), (0, -0.771642, -0.636057), (0, -0.771642, -0.636057), (-0.999508, 0.03137, 0), (-0.999508, 0.03137, 0), (-0.999508, 0.03137, 0), (-0.999508, 0.03137, 0), (-0.999508, 0.03137, 0), (-0.999508, 0.03137, 0), (-0.999508, 0.03137, 0), (-0.999508, 0.03137, 0), (-0.999508, 0.03137, 0), (-0.999508, 0.03137, 0), (-0.999508, 0.03137, 0), (-0.999508, 0.03137, 0), (-0.999508, 0.03137, 0), (-0.999508, 0.03137, 0), (-0.999508, 0.03137, 0), (-0.999508, 0.03137, 0), (-0.999508, 0.03137, 0), (-0.999508, 0.03137, 0), (-0.999508, 0.03137, 0), (-0.999508, 0.03137, 0), (-0.999508, 0.03137, 0), (-0.999508, 0.03137, 0), (-0.999508, 0.03137, 0), (-0.999508, 0.03137, 0), (0.999508, -0.03137, 0), (0.999508, -0.03137, 0), (0.999508, -0.03137, 0), (0.999508, -0.03137, 0), (0.999508, -0.03137, 0), (0.999508, -0.03137, 0), (0.999508, -0.03137, 0), (0.999508, -0.03137, 0), (0.999508, -0.03137, 0), (0.999508, -0.03137, 0), (0.999508, -0.03137, 0), (0.999508, -0.03137, 0), (0.999508, -0.03137, 0), (0.999508, -0.03137, 0), (0.999508, -0.03137, 0), (0.999508, -0.03137, 0), (0.999508, -0.03137, 0), (0.999508, -0.03137, 0), (0.999508, -0.03137, 0), (0.999508, -0.03137, 0), (0.999508, -0.03137, 0), (0.999508, -0.03137, 0), (0.999508, -0.03137, 0), (0.999508, -0.03137, 0), (0.103891, -0.994589, 0), (0.103891, -0.994589, 0), (0.103891, -0.994589, 0), (0.103891, -0.994589, 0), (0.103891, -0.994589, 0), (0.103891, -0.994589, 0), (-0.103891, 0.994589, 0), (-0.103891, 0.994589, 0), (-0.103891, 0.994589, 0), (-0.103891, 0.994589, 0), (-0.103891, 0.994589, 0), (-0.103891, 0.994589, 0), (-0.992257, 0.00389625, -0.124142), (-0.992257, 0.00389625, -0.124142), (-0.992257, 0.00389625, -0.124142), (-0.992257, 0.00389625, -0.124142), (-0.992257, 0.00389625, -0.124142), (-0.992257, 0.00389625, -0.124142), (0.992257, -0.00389625, 0.124142), (0.992257, -0.00389625, 0.124142), (0.992257, -0.00389625, 0.124142), (0.992257, -0.00389625, 0.124142), (0.992257, -0.00389625, 0.124142), (0.992257, -0.00389625, 0.124142), (0, -1, 0), (0, -1, 0), (0, -1, 0), (0, -1, 0), (0, -1, 0), (0, -1, 0), (0, 1, 0), (0, 1, 0), (0, 1, 0), (0, 1, 0), (0, 1, 0), (0, 1, 0), (0.0726051, 0.00227876, 0.997358), (0.0726051, 0.00227876, 0.997358), (0.0726051, 0.00227876, 0.997358), (0.0726051, 0.00227876, 0.997358), (0.0726051, 0.00227876, 0.997358), (0.0726051, 0.00227876, 0.997358), (-0.0726051, -0.00227876, -0.997358), (-0.0726051, -0.00227876, -0.997358), (-0.0726051, -0.00227876, -0.997358), (-0.0726051, -0.00227876, -0.997358), (-0.0726051, -0.00227876, -0.997358), (-0.0726051, -0.00227876, -0.997358), (-0.785572, 0.420914, 0.45355), (-0.785572, 0.420914, 0.45355), (-0.785572, 0.420914, 0.45355), (-0.785572, 0.420914, 0.45355), (-0.785572, 0.420914, 0.45355), (-0.785572, 0.420914, 0.45355), (0.995856, 0.00285294, 0.0909004), (0.995856, 0.00285294, 0.0909004), (0.995856, 0.00285294, 0.0909004), (0.995856, 0.00285294, 0.0909004), (0.995856, 0.00285294, 0.0909004), (0.995856, 0.00285294, 0.0909004), (-0.995856, -0.00285294, -0.0909004), (-0.995856, -0.00285294, -0.0909004), (-0.995856, -0.00285294, -0.0909004), (-0.995856, -0.00285294, -0.0909004), (-0.995856, -0.00285294, -0.0909004), (-0.995856, -0.00285294, -0.0909004), (0.857899, -0.136674, 0.495308), (0.857899, -0.136674, 0.495308), (0.857899, -0.136674, 0.495308), (0.857899, -0.136674, 0.495308), (0.857899, -0.136674, 0.495308), (0.857899, -0.136674, 0.495308), (0, 0.03137, 0.999508), (0, 0.03137, 0.999508), (0, 0.03137, 0.999508), (0, 0.03137, 0.999508), (0, 0.03137, 0.999508), (0, 0.03137, 0.999508), (0, 0.03137, 0.999508), (0, 0.03137, 0.999508), (0, 0.03137, 0.999508), (0, 0.03137, 0.999508), (0, 0.03137, 0.999508), (0, 0.03137, 0.999508), (0, 0.03137, 0.999508), (0, 0.03137, 0.999508), (0, 0.03137, 0.999508), (0, 0.03137, 0.999508), (0, 0.03137, 0.999508), (0, 0.03137, 0.999508), (0, 0.03137, 0.999508), (0, 0.03137, 0.999508), (0, 0.03137, 0.999508), (0, 0.03137, 0.999508), (0, 0.03137, 0.999508), (0, 0.03137, 0.999508), (0, -0.03137, -0.999508), (0, -0.03137, -0.999508), (0, -0.03137, -0.999508), (0, -0.03137, -0.999508), (0, -0.03137, -0.999508), (0, -0.03137, -0.999508), (0, -0.03137, -0.999508), (0, -0.03137, -0.999508), (0, -0.03137, -0.999508), (0, -0.03137, -0.999508), (0, -0.03137, -0.999508), (0, -0.03137, -0.999508), (0, -0.03137, -0.999508), (0, -0.03137, -0.999508), (0, -0.03137, -0.999508), (0, -0.03137, -0.999508), (0, -0.03137, -0.999508), (0, -0.03137, -0.999508), (0, -0.03137, -0.999508), (0, -0.03137, -0.999508), (0, -0.03137, -0.999508), (0, -0.03137, -0.999508), (0, -0.03137, -0.999508), (0, -0.03137, -0.999508), (-0.857899, -0.136674, 0.495308), (-0.857899, -0.136674, 0.495308), (-0.857899, -0.136674, 0.495308), (-0.857899, -0.136674, 0.495308), (-0.857899, -0.136674, 0.495308), (-0.857899, -0.136674, 0.495308), (-0.857899, -0.136674, -0.495308), (-0.857899, -0.136674, -0.495308), (-0.857899, -0.136674, -0.495308), (-0.857899, -0.136674, -0.495308), (-0.857899, -0.136674, -0.495308), (-0.857899, -0.136674, -0.495308), (0, 0.998219, 0.0596604), (0, 0.998219, 0.0596604), (0, 0.998219, 0.0596604), (0, 0.998219, 0.0596604), (0, 0.998219, 0.0596604), (0, 0.998219, 0.0596604), (0, -0.998219, -0.0596604), (0, -0.998219, -0.0596604), (0, -0.998219, -0.0596604), (0, -0.998219, -0.0596604), (0, -0.998219, -0.0596604), (0, -0.998219, -0.0596604), (0, 0.995665, -0.0930144), (0, 0.995665, -0.0930144), (0, 0.995665, -0.0930144), (0, 0.995665, -0.0930144), (0, 0.995665, -0.0930144), (0, 0.995665, -0.0930144), (0, -0.995665, 0.0930144), (0, -0.995665, 0.0930144), (0, -0.995665, 0.0930144), (0, -0.995665, 0.0930144), (0, -0.995665, 0.0930144), (0, -0.995665, 0.0930144), (-0.550841, -0.771642, -0.318028), (-0.550841, -0.771642, -0.318028), (-0.550841, -0.771642, -0.318028), (0.999508, 0.03137, 0), (0.999508, 0.03137, 0), (0.999508, 0.03137, 0), (0.999508, 0.03137, 0), (0.999508, 0.03137, 0), (0.999508, 0.03137, 0), (0.999508, 0.03137, 0), (0.999508, 0.03137, 0), (0.999508, 0.03137, 0), (0.999508, 0.03137, 0), (0.999508, 0.03137, 0), (0.999508, 0.03137, 0), (0.999508, 0.03137, 0), (0.999508, 0.03137, 0), (0.999508, 0.03137, 0), (0.999508, 0.03137, 0), (0.999508, 0.03137, 0), (0.999508, 0.03137, 0), (0.999508, 0.03137, 0), (0.999508, 0.03137, 0), (0.999508, 0.03137, 0), (0.999508, 0.03137, 0), (0.999508, 0.03137, 0), (0.999508, 0.03137, 0), (-0.999508, -0.03137, 0), (-0.999508, -0.03137, 0), (-0.999508, -0.03137, 0), (-0.999508, -0.03137, 0), (-0.999508, -0.03137, 0), (-0.999508, -0.03137, 0), (-0.999508, -0.03137, 0), (-0.999508, -0.03137, 0), (-0.999508, -0.03137, 0), (-0.999508, -0.03137, 0), (-0.999508, -0.03137, 0), (-0.999508, -0.03137, 0), (-0.999508, -0.03137, 0), (-0.999508, -0.03137, 0), (-0.999508, -0.03137, 0), (-0.999508, -0.03137, 0), (-0.999508, -0.03137, 0), (-0.999508, -0.03137, 0), (-0.999508, -0.03137, 0), (-0.999508, -0.03137, 0), (-0.999508, -0.03137, 0), (-0.999508, -0.03137, 0), (-0.999508, -0.03137, 0), (-0.999508, -0.03137, 0), (0, -0.136673, -0.990616), (0, -0.136673, -0.990616), (0, -0.136673, -0.990616), (0, -0.136673, -0.990616), (0, -0.136673, -0.990616), (0, -0.136673, -0.990616), (0, 0.420914, 0.907101), (0, 0.420914, 0.907101), (0, 0.420914, 0.907101), (0, 0.420914, 0.907101), (0, 0.420914, 0.907101), (0, 0.420914, 0.907101), (0.785572, 0.420914, 0.45355), (0.785572, 0.420914, 0.45355), (0.785572, 0.420914, 0.45355), (0.785572, 0.420914, 0.45355), (0.785572, 0.420914, 0.45355), (0.785572, 0.420914, 0.45355), (0, 0.0313698, 0.999508), (0, 0.0313698, 0.999508), (0, 0.0313698, 0.999508), (0, 0.0313698, 0.999508), (0, 0.0313698, 0.999508), (0, 0.0313698, 0.999508), (0, -0.0313698, -0.999508), (0, -0.0313698, -0.999508), (0, -0.0313698, -0.999508), (0, -0.0313698, -0.999508), (0, -0.0313698, -0.999508), (0, -0.0313698, -0.999508), (0, 0.420914, -0.907101), (0, 0.420914, -0.907101), (0, 0.420914, -0.907101), (0, 0.420914, -0.907101), (0, 0.420914, -0.907101), (0, 0.420914, -0.907101), (0, 0.0313697, -0.999508), (0, 0.0313697, -0.999508), (0, 0.0313697, -0.999508), (0, 0.0313697, -0.999508), (0, 0.0313697, -0.999508), (0, 0.0313697, -0.999508), (0, -0.0313697, 0.999508), (0, -0.0313697, 0.999508), (0, -0.0313697, 0.999508), (0, -0.0313697, 0.999508), (0, -0.0313697, 0.999508), (0, -0.0313697, 0.999508), (-0.14679, -0.989168, 0), (-0.14679, -0.989168, 0), (-0.14679, -0.989168, 0), (-0.14679, -0.989168, 0), (-0.14679, -0.989168, 0), (-0.14679, -0.989168, 0), (0.14679, 0.989168, 0), (0.14679, 0.989168, 0), (0.14679, 0.989168, 0), (0.14679, 0.989168, 0), (0.14679, 0.989168, 0), (0.14679, 0.989168, 0), (-0.115632, 0.00362915, -0.993286), (-0.115632, 0.00362915, -0.993286), (-0.115632, 0.00362915, -0.993286), (-0.115632, 0.00362915, -0.993286), (-0.115632, 0.00362915, -0.993286), (-0.115632, 0.00362915, -0.993286), (0.115632, -0.00362915, 0.993286), (0.115632, -0.00362915, 0.993286), (0.115632, -0.00362915, 0.993286), (0.115632, -0.00362915, 0.993286), (0.115632, -0.00362915, 0.993286), (0.115632, -0.00362915, 0.993286), (0.857899, -0.136674, -0.495308), (0.857899, -0.136674, -0.495308), (0.857899, -0.136674, -0.495308), (0.857899, -0.136674, -0.495308), (0.857899, -0.136674, -0.495308), (0.857899, -0.136674, -0.495308), (0.550841, -0.771642, 0.318028), (0.550841, -0.771642, 0.318028), (0.550841, -0.771642, 0.318028), (0, -0.136673, 0.990616), (0, -0.136673, 0.990616), (0, -0.136673, 0.990616), (0, -0.136673, 0.990616), (0, -0.136673, 0.990616), (0, -0.136673, 0.990616), (-0.0844732, 0.996426, 0), (-0.0844732, 0.996426, 0), (-0.0844732, 0.996426, 0), (-0.0844732, 0.996426, 0), (-0.0844732, 0.996426, 0), (-0.0844732, 0.996426, 0), (0.0844732, -0.996426, 0), (0.0844732, -0.996426, 0), (0.0844732, -0.996426, 0), (0.0844732, -0.996426, 0), (0.0844732, -0.996426, 0), (0.0844732, -0.996426, 0), (0, -0.771642, 0.636057), (0, -0.771642, 0.636057), (0, -0.771642, 0.636057), (-0.550841, -0.771642, 0.318028), (-0.550841, -0.771642, 0.318028), (-0.550841, -0.771642, 0.318028), (-0.999508, 0.0313701, 0), (-0.999508, 0.0313701, 0), (-0.999508, 0.0313701, 0), (-0.999508, 0.0313701, 0), (-0.999508, 0.0313701, 0), (-0.999508, 0.0313701, 0), (0.999508, -0.0313701, 0), (0.999508, -0.0313701, 0), (0.999508, -0.0313701, 0), (0.999508, -0.0313701, 0), (0.999508, -0.0313701, 0), (0.999508, -0.0313701, 0), (0.550841, -0.771642, -0.318028), (0.550841, -0.771642, -0.318028), (0.550841, -0.771642, -0.318028)] (interpolation = "faceVarying")
        texCoord2f[] primvars:st = [(0.852633, 7.97059), (-1.10554, 4.61021), (1.15824, 4.61021), (-1.10554, 4.61021), (0.852633, 7.97059), (-0.799926, 7.97059), (1.15824, 4.61021), (-1.10554, 4.61021), (0.852633, 7.97059), (-0.799926, 7.97059), (0.852633, 7.97059), (-1.10554, 4.61021), (-1.74436, 28.7518), (-4.75527, 27.1902), (-1.80287, 26.8827), (-4.75527, 27.1902), (-1.74436, 28.7518), (-4.71022, 28.6295), (-1.80287, 26.8827), (-4.75527, 27.1902), (-1.74436, 28.7518), (-4.71022, 28.6295), (-1.74436, 28.7518), (-4.75527, 27.1902), (0.798713, -0.617536), (-0.856306, -3.57811), (0.583654, -3.57811), (-0.856306, -3.57811), (0.798713, -0.617536), (-1.07136, -0.617536), (0.583654, -3.57811), (-0.856306, -3.57811), (0.798713, -0.617536), (-1.07136, -0.617536), (0.798713, -0.617536), (-0.856306, -3.57811), (0.866572, 3.61874), (-0.941499, 6.49535), (-1.29878, 3.61874), (-0.941499, 6.49535), (0.866572, 3.61874), (0.509289, 6.49535), (-1.29878, 3.61874), (-0.941499, 6.49535), (0.866572, 3.61874), (0.509289, 6.49535), (0.866572, 3.61874), (-0.941499, 6.49535), (1.93802, 21.1079), (5.23558, 23.1701), (1.86729, 23.3706), (5.23558, 23.1701), (1.93802, 21.1079), (5.28721, 21.5183), (1.86729, 23.3706), (5.23558, 23.1701), (1.93802, 21.1079), (5.28721, 21.5183), (1.93802, 21.1079), (5.23558, 23.1701), (-5.79626, 32.8097), (-7.4311, 39.537), (5.79626, 32.8097), (7.4311, 39.537), (5.79626, 32.8097), (-7.4311, 39.537), (7.4311, 39.537), (5.79626, 32.8097), (-7.4311, 39.537), (-5.79626, 32.8097), (-7.4311, 39.537), (5.79626, 32.8097), (2.70958, -0.0849996), (0.866572, 7.49951), (-2.70958, -0.0849996), (0.866572, 7.49951), (2.70958, -0.0849996), (1.72059, 31.4418), (0.866572, 7.49951), (1.72059, 31.4418), (0.866572, 9.66487), (0.866572, 9.66487), (1.72059, 31.4418), (-1.29878, 9.66487), (-1.29878, 7.49951), (-2.70958, -0.0849996), (0.866572, 7.49951), (-2.70958, -0.0849996), (-1.29878, 7.49951), (-1.72059, 31.4418), (-1.72059, 31.4418), (-1.29878, 7.49951), (-1.29878, 9.66487), (-1.72059, 31.4418), (-1.29878, 9.66487), (1.72059, 31.4418), (-2.70958, -0.0849996), (0.866572, 7.49951), (2.70958, -0.0849996), (1.72059, 31.4418), (2.70958, -0.0849996), (0.866572, 7.49951), (0.866572, 9.66487), (1.72059, 31.4418), (0.866572, 7.49951), (-1.29878, 9.66487), (1.72059, 31.4418), (0.866572, 9.66487), (0.866572, 7.49951), (-2.70958, -0.0849996), (-1.29878, 7.49951), (-1.72059, 31.4418), (-1.29878, 7.49951), (-2.70958, -0.0849996), (-1.29878, 9.66487), (-1.29878, 7.49951), (-1.72059, 31.4418), (1.72059, 31.4418), (-1.29878, 9.66487), (-1.72059, 31.4418), (5.11023, 9.47124), (2.2913, 7.57451), (5.15539, 8.02116), (2.2913, 7.57451), (5.11023, 9.47124), (2.2239, 9.73881), (5.15539, 8.02116), (2.2913, 7.57451), (5.11023, 9.47124), (2.2239, 9.73881), (5.11023, 9.47124), (2.2913, 7.57451), (-0.856306, 28.4681), (0.583654, 27.0282), (0.583654, 28.4681), (0.583654, 27.0282), (-0.856306, 28.4681), (-0.856306, 27.0282), (0.583654, 28.4681), (0.583654, 27.0282), (-0.856306, 28.4681), (-0.856306, 27.0282), (-0.856306, 28.4681), (0.583654, 27.0282), (11.5925, 0), (5.79626, -10.0394), (5.79626, 10.0394), (1.72059, 1.72059), (5.79626, 10.0394), (5.79626, -10.0394), (-5.79626, 10.0394), (5.79626, 10.0394), (1.72059, 1.72059), (-1.72059, 1.72059), (-5.79626, 10.0394), (1.72059, 1.72059), (-1.72059, -1.72059), (-5.79626, 10.0394), (-1.72059, 1.72059), (1.72059, 1.72059), (5.79626, -10.0394), (1.72059, -1.72059), (-5.79626, -10.0394), (1.72059, -1.72059), (5.79626, -10.0394), (-1.72059, -1.72059), (1.72059, -1.72059), (-5.79626, -10.0394), (-5.79626, 10.0394), (-1.72059, -1.72059), (-5.79626, -10.0394), (-11.5925, 0), (-5.79626, 10.0394), (-5.79626, -10.0394), (-2.10146, 13.654), (-5.53037, 11.7875), (-2.17507, 11.2929), (-5.53037, 11.7875), (-2.10146, 13.654), (-5.48105, 13.3694), (-2.17507, 11.2929), (-5.53037, 11.7875), (-2.10146, 13.654), (-5.48105, 13.3694), (-2.10146, 13.654), (-5.53037, 11.7875), (0, 42.7682), (5.72195, 29.9246), (-5.72195, 29.9246), (-2.70958, -0.0849996), (-0.943148, 11.2197), (-1.72059, 31.4418), (-0.943148, 11.2197), (-2.70958, -0.0849996), (2.70958, -0.0849996), (-0.943148, 11.2197), (2.70958, -0.0849996), (1.41906, 11.2197), (1.41906, 11.2197), (2.70958, -0.0849996), (1.41906, 13.5819), (1.41906, 13.5819), (2.70958, -0.0849996), (1.72059, 31.4418), (-1.72059, 31.4418), (-0.943148, 13.5819), (1.72059, 31.4418), (-0.943148, 13.5819), (-1.72059, 31.4418), (-0.943148, 11.2197), (1.72059, 31.4418), (-0.943148, 13.5819), (1.41906, 13.5819), (-1.72059, 31.4418), (-0.943148, 11.2197), (-2.70958, -0.0849996), (2.70958, -0.0849996), (-2.70958, -0.0849996), (-0.943148, 11.2197), (1.41906, 11.2197), (2.70958, -0.0849996), (-0.943148, 11.2197), (1.41906, 13.5819), (2.70958, -0.0849996), (1.41906, 11.2197), (1.72059, 31.4418), (2.70958, -0.0849996), (1.41906, 13.5819), (1.72059, 31.4418), (-0.943148, 13.5819), (-1.72059, 31.4418), (-0.943148, 11.2197), (-1.72059, 31.4418), (-0.943148, 13.5819), (1.41906, 13.5819), (-0.943148, 13.5819), (1.72059, 31.4418), (-1.07136, 4.6488), (0.583654, 7.60938), (-0.856306, 7.60938), (0.583654, 7.60938), (-1.07136, 4.6488), (0.798713, 4.6488), (-0.856306, 7.60938), (0.583654, 7.60938), (-1.07136, 4.6488), (0.798713, 4.6488), (-1.07136, 4.6488), (0.583654, 7.60938), (-2.34496, 7.57618), (-5.16389, 9.47291), (-5.20905, 8.02283), (-5.16389, 9.47291), (-2.34496, 7.57618), (-2.27756, 9.74048), (-5.20905, 8.02283), (-5.16389, 9.47291), (-2.34496, 7.57618), (-2.27756, 9.74048), (-2.34496, 7.57618), (-5.16389, 9.47291), (-2.70958, 2.70958), (2.70958, -2.70958), (2.70958, 2.70958), (2.70958, -2.70958), (-2.70958, 2.70958), (-2.70958, -2.70958), (2.70958, 2.70958), (2.70958, -2.70958), (-2.70958, 2.70958), (-2.70958, -2.70958), (-2.70958, 2.70958), (2.70958, -2.70958), (4.73548, 27.1896), (1.72457, 28.7512), (1.78308, 26.882), (1.72457, 28.7512), (4.73548, 27.1896), (4.69042, 28.6289), (1.78308, 26.882), (1.72457, 28.7512), (4.73548, 27.1896), (4.69042, 28.6289), (4.73548, 27.1896), (1.72457, 28.7512), (7.4311, 39.537), (5.79626, 32.8097), (-7.4311, 39.537), (-5.79626, 32.8097), (-7.4311, 39.537), (5.79626, 32.8097), (-5.23079, 23.1699), (-1.93322, 21.1077), (-1.8625, 23.3704), (-1.93322, 21.1077), (-5.23079, 23.1699), (-5.28242, 21.5182), (-1.8625, 23.3704), (-1.93322, 21.1077), (-5.23079, 23.1699), (-5.28242, 21.5182), (-5.23079, 23.1699), (-1.93322, 21.1077), (-7.4311, 35.5016), (-5.72195, 57.1615), (7.4311, 35.5016), (5.72195, 57.1615), (7.4311, 35.5016), (-5.72195, 57.1615), (2.70958, -0.0849996), (1.15824, 21.037), (-2.70958, -0.0849996), (1.15824, 21.037), (2.70958, -0.0849996), (1.72059, 31.4418), (1.15824, 21.037), (1.72059, 31.4418), (1.15824, 23.3008), (1.15824, 23.3008), (1.72059, 31.4418), (-1.10554, 23.3008), (-1.10554, 21.037), (-2.70958, -0.0849996), (1.15824, 21.037), (-2.70958, -0.0849996), (-1.10554, 21.037), (-1.72059, 31.4418), (-1.72059, 31.4418), (-1.10554, 21.037), (-1.10554, 23.3008), (-1.72059, 31.4418), (-1.10554, 23.3008), (1.72059, 31.4418), (-2.70958, -0.0849996), (1.15824, 21.037), (2.70958, -0.0849996), (1.72059, 31.4418), (2.70958, -0.0849996), (1.15824, 21.037), (1.15824, 23.3008), (1.72059, 31.4418), (1.15824, 21.037), (-1.10554, 23.3008), (1.72059, 31.4418), (1.15824, 23.3008), (1.15824, 21.037), (-2.70958, -0.0849996), (-1.10554, 21.037), (-1.72059, 31.4418), (-1.10554, 21.037), (-2.70958, -0.0849996), (-1.10554, 23.3008), (-1.10554, 21.037), (-1.72059, 31.4418), (1.72059, 31.4418), (-1.10554, 23.3008), (-1.72059, 31.4418), (7.4311, 35.5016), (-7.4311, 35.5016), (5.72195, 57.1615), (-5.72195, 57.1615), (5.72195, 57.1615), (-7.4311, 35.5016), (5.72195, 57.1615), (7.4311, 35.5016), (-5.72195, 57.1615), (-7.4311, 35.5016), (-5.72195, 57.1615), (7.4311, 35.5016), (-1.10554, -0.577929), (0.852633, -3.93831), (1.15824, -0.577929), (0.852633, -3.93831), (-1.10554, -0.577929), (-0.799926, -3.93831), (1.15824, -0.577929), (0.852633, -3.93831), (-1.10554, -0.577929), (-0.799926, -3.93831), (-1.10554, -0.577929), (0.852633, -3.93831), (-0.941499, -4.36348), (0.866572, -1.48688), (-1.29878, -1.48688), (0.866572, -1.48688), (-0.941499, -4.36348), (0.509289, -4.36348), (-1.29878, -1.48688), (0.866572, -1.48688), (-0.941499, -4.36348), (0.509289, -4.36348), (-0.941499, -4.36348), (0.866572, -1.48688), (5.72195, 29.9246), (-5.72195, 29.9246), (-1.77636e-15, 42.7682), (-1.72059, 31.4418), (0.798713, 28.6832), (1.72059, 31.4418), (0.798713, 28.6832), (-1.72059, 31.4418), (-1.07136, 28.6832), (-1.07136, 28.6832), (-1.72059, 31.4418), (-1.07136, 26.8131), (0.798713, 26.8131), (1.72059, 31.4418), (0.798713, 28.6832), (-2.70958, -0.0849997), (1.72059, 31.4418), (0.798713, 26.8131), (-2.70958, -0.0849997), (0.798713, 26.8131), (-1.07136, 26.8131), (-2.70958, -0.0849997), (-1.07136, 26.8131), (-1.72059, 31.4418), (1.72059, 31.4418), (-2.70958, -0.0849997), (2.70958, -0.0849996), (1.72059, 31.4418), (0.798713, 28.6832), (-1.72059, 31.4418), (-1.07136, 28.6832), (-1.72059, 31.4418), (0.798713, 28.6832), (-1.07136, 26.8131), (-1.72059, 31.4418), (-1.07136, 28.6832), (0.798713, 28.6832), (1.72059, 31.4418), (0.798713, 26.8131), (0.798713, 26.8131), (1.72059, 31.4418), (-2.70958, -0.0849997), (-1.07136, 26.8131), (0.798713, 26.8131), (-2.70958, -0.0849997), (-1.72059, 31.4418), (-1.07136, 26.8131), (-2.70958, -0.0849997), (2.70958, -0.0849996), (-2.70958, -0.0849997), (1.72059, 31.4418), (7.4311, 35.5016), (-7.4311, 35.5016), (5.72195, 57.1615), (-5.72195, 57.1615), (5.72195, 57.1615), (-7.4311, 35.5016), (5.79626, 32.8097), (-5.79626, 32.8097), (7.4311, 39.537), (-7.4311, 39.537), (7.4311, 39.537), (-5.79626, 32.8097), (-7.4311, 39.537), (7.4311, 39.537), (-5.79626, 32.8097), (5.79626, 32.8097), (-5.79626, 32.8097), (7.4311, 39.537), (0.852633, 22.9952), (-0.799926, 21.3426), (0.852633, 21.3426), (-0.799926, 21.3426), (0.852633, 22.9952), (-0.799926, 22.9952), (0.852633, 21.3426), (-0.799926, 21.3426), (0.852633, 22.9952), (-0.799926, 22.9952), (0.852633, 22.9952), (-0.799926, 21.3426), (5.79626, 32.8097), (-5.79626, 32.8097), (7.4311, 39.537), (-7.4311, 39.537), (7.4311, 39.537), (-5.79626, 32.8097), (0.509289, 9.30759), (-0.941499, 7.8568), (0.509289, 7.8568), (-0.941499, 7.8568), (0.509289, 9.30759), (-0.941499, 9.30759), (0.509289, 7.8568), (-0.941499, 7.8568), (0.509289, 9.30759), (-0.941499, 9.30759), (0.509289, 9.30759), (-0.941499, 7.8568), (1.02929, 7.35712), (-0.943148, 3.98805), (1.41906, 3.98805), (-0.943148, 3.98805), (1.02929, 7.35712), (-0.553385, 7.35712), (1.41906, 3.98805), (-0.943148, 3.98805), (1.02929, 7.35712), (-0.553385, 7.35712), (1.02929, 7.35712), (-0.943148, 3.98805), (5.5854, 11.7892), (2.15649, 13.6557), (2.2301, 11.2947), (2.15649, 13.6557), (5.5854, 11.7892), (5.53608, 13.3711), (2.2301, 11.2947), (2.15649, 13.6557), (5.5854, 11.7892), (5.53608, 13.3711), (5.5854, 11.7892), (2.15649, 13.6557), (-7.4311, 35.5016), (-5.72195, 57.1615), (7.4311, 35.5016), (5.72195, 57.1615), (7.4311, 35.5016), (-5.72195, 57.1615), (-5.72195, 29.9246), (0, 42.7682), (5.72195, 29.9246), (7.4311, 35.5016), (-7.4311, 35.5016), (5.72195, 57.1615), (-5.72195, 57.1615), (5.72195, 57.1615), (-7.4311, 35.5016), (-0.553385, -4.48786), (1.41906, -1.11878), (-0.943148, -1.11878), (1.41906, -1.11878), (-0.553385, -4.48786), (1.02929, -4.48786), (-0.943148, -1.11878), (1.41906, -1.11878), (-0.553385, -4.48786), (1.02929, -4.48786), (-0.553385, -4.48786), (1.41906, -1.11878), (-5.72195, 29.9246), (0, 42.7682), (5.72195, 29.9246), (5.72195, 29.9246), (-5.72195, 29.9246), (1.77636e-15, 42.7682), (1.02929, 11.6095), (-0.553385, 13.1921), (-0.553385, 11.6095), (-0.553385, 13.1921), (1.02929, 11.6095), (1.02929, 13.1921), (-0.553385, 11.6095), (-0.553385, 13.1921), (1.02929, 11.6095), (1.02929, 13.1921), (1.02929, 11.6095), (-0.553385, 13.1921), (-1.77636e-15, 42.7682), (5.72195, 29.9246), (-5.72195, 29.9246)] (interpolation = "faceVarying")
        uniform token subdivisionScheme = "none"
        rel material:binding = </Vehicle/Materials/woodBirch>
    }
    def Mesh "mesh_leafsFall" {
        int[] faceVertexCounts = [3, 3, 3, 3, 3, 3, 3, 3, 3, 3, 3, 3, 3, 3, 3, 3, 3, 3, 3, 3, 3, 3, 3, 3, 3, 3, 3, 3, 3, 3, 3, 3, 3, 3, 3, 3, 3, 3, 3, 3]
        int[] faceVertexIndices = [16, 17, 18, 17, 16, 19, 20, 21, 22, 21, 20, 23, 23, 32, 21, 32, 23, 33, 33, 23, 16, 33, 16, 34, 34, 16, 26, 29, 32, 33, 32, 29, 35, 35, 29, 26, 35, 26, 16, 35, 16, 18, 40, 41, 42, 22, 32, 49, 32, 22, 21, 17, 52, 53, 52, 17, 54, 55, 22, 49, 22, 55, 56, 41, 22, 56, 22, 41, 20, 42, 41, 56, 41, 19, 20, 19, 41, 40, 53, 32, 35, 32, 53, 49, 35, 17, 53, 17, 35, 18, 20, 16, 23, 16, 20, 19, 19, 54, 17, 54, 19, 40, 54, 42, 52, 52, 49, 53, 49, 52, 55, 52, 42, 55, 42, 56, 55, 54, 40, 42]
        point3f[] points = [(0.0294194, 0.536235, 0.0519934), (-0.0280806, 0.536235, 0.0519934), (0.0216569, 0.54666, 0.136708), (-0.0203181, 0.54666, 0.136708), (0.047391, 0.682875, -0.0202873), (0.122183, 0.690688, -0.0148248), (0.045901, 0.730352, -0.0202873), (0.121035, 0.727245, -0.0148248), (0.121035, 0.727245, 0.0217502), (0.045901, 0.730352, 0.0272127), (0.0329891, 0.192552, -0.0627801), (0.0239141, 0.203897, -0.13496), (-0.0220109, 0.192552, -0.0627801), (-0.0129359, 0.203897, -0.13496), (-0.0280806, 0.593707, 0.0501896), (-0.0203181, 0.588615, 0.135391), (-0.147225, 0.800388, 0.255001), (-0.3775, 0.955387, 0), (-0.29445, 0.800388, 0), (-0.18875, 0.955387, 0.326925), (0.18875, 0.955387, 0.326925), (0.29445, 0.800388, 0), (0.3775, 0.955387, 0), (0.147225, 0.800388, 0.255001), (0.0688234, 0, -0.0688234), (-0.0688234, 0, -0.0688234), (-0.0437029, 0.800388, -0.0437029), (-0.0220109, 0.247525, -0.0610547), (0.0329891, 0.247525, -0.0610547), (0.0437029, 0.800388, -0.0437029), (0.0239141, 0.240729, -0.133804), (0.122183, 0.690688, 0.0217502), (0.147225, 0.800388, -0.255001), (0.0437029, 0.800388, 0.0437029), (-0.0437029, 0.800388, 0.0437029), (-0.147225, 0.800388, -0.255001), (-0.0598158, 0.286998, 0.036044), (-0.144463, 0.299559, 0.026144), (-0.0579337, 0.346968, 0.036044), (-0.143202, 0.33974, 0.026144), (-0.145338, 1.50039, 0.251732), (0.145338, 1.50039, 0.251732), (0, 1.70789, 0), (-0.0598158, 0.286998, -0.023956), (-0.0688234, 0, 0.0688234), (-0.0579337, 0.346968, -0.023956), (0.047391, 0.682875, 0.0272127), (-0.0129359, 0.240729, -0.133804), (0.0688234, 0, 0.0688234), (0.18875, 0.955387, -0.326925), (0.0294194, 0.593707, 0.0501896), (0.0216569, 0.588615, 0.135391), (-0.145338, 1.50039, -0.251732), (-0.18875, 0.955387, -0.326925), (-0.290675, 1.50039, 0), (0.145338, 1.50039, -0.251732), (0.290675, 1.50039, 0), (-0.144463, 0.299559, -0.014056), (-0.143202, 0.33974, -0.014056)]
        normal3f[] normals = [(-0.785572, -0.420914, 0.45355), (-0.785572, -0.420914, 0.45355), (-0.785572, -0.420914, 0.45355), (-0.785572, -0.420914, 0.45355), (-0.785572, -0.420914, 0.45355), (-0.785572, -0.420914, 0.45355), (0.785572, -0.420914, 0.45355), (0.785572, -0.420914, 0.45355), (0.785572, -0.420914, 0.45355), (0.785572, -0.420914, 0.45355), (0.785572, -0.420914, 0.45355), (0.785572, -0.420914, 0.45355), (0, -1, 0), (0, -1, 0), (0, -1, 0), (0, -1, 0), (0, -1, 0), (0, -1, 0), (0, -1, 0), (0, -1, 0), (0, -1, 0), (0, -1, 0), (0, -1, 0), (0, -1, 0), (0, -1, 0), (0, -1, 0), (0, -1, 0), (0, -1, 0), (0, -1, 0), (0, -1, 0), (0, -1, 0), (0, -1, 0), (0, -1, 0), (0, -1, 0), (0, -1, 0), (0, -1, 0), (0, -1, 0), (0, -1, 0), (0, -1, 0), (0, -1, 0), (0, -1, 0), (0, -1, 0), (0, 0.771642, 0.636057), (0, 0.771642, 0.636057), (0, 0.771642, 0.636057), (0.785572, -0.420914, -0.45355), (0.785572, -0.420914, -0.45355), (0.785572, -0.420914, -0.45355), (0.785572, -0.420914, -0.45355), (0.785572, -0.420914, -0.45355), (0.785572, -0.420914, -0.45355), (-0.857899, 0.136674, -0.495308), (-0.857899, 0.136674, -0.495308), (-0.857899, 0.136674, -0.495308), (-0.857899, 0.136674, -0.495308), (-0.857899, 0.136674, -0.495308), (-0.857899, 0.136674, -0.495308), (0.857899, 0.136674, -0.495308), (0.857899, 0.136674, -0.495308), (0.857899, 0.136674, -0.495308), (0.857899, 0.136674, -0.495308), (0.857899, 0.136674, -0.495308), (0.857899, 0.136674, -0.495308), (0.857899, 0.136674, 0.495308), (0.857899, 0.136674, 0.495308), (0.857899, 0.136674, 0.495308), (0.857899, 0.136674, 0.495308), (0.857899, 0.136674, 0.495308), (0.857899, 0.136674, 0.495308), (0.550841, 0.771642, 0.318028), (0.550841, 0.771642, 0.318028), (0.550841, 0.771642, 0.318028), (0, 0.136673, 0.990616), (0, 0.136673, 0.990616), (0, 0.136673, 0.990616), (0, 0.136673, 0.990616), (0, 0.136673, 0.990616), (0, 0.136673, 0.990616), (0, -0.420914, -0.907101), (0, -0.420914, -0.907101), (0, -0.420914, -0.907101), (0, -0.420914, -0.907101), (0, -0.420914, -0.907101), (0, -0.420914, -0.907101), (-0.785572, -0.420914, -0.45355), (-0.785572, -0.420914, -0.45355), (-0.785572, -0.420914, -0.45355), (-0.785572, -0.420914, -0.45355), (-0.785572, -0.420914, -0.45355), (-0.785572, -0.420914, -0.45355), (0, -0.420914, 0.907101), (0, -0.420914, 0.907101), (0, -0.420914, 0.907101), (0, -0.420914, 0.907101), (0, -0.420914, 0.907101), (0, -0.420914, 0.907101), (-0.857899, 0.136674, 0.495308), (-0.857899, 0.136674, 0.495308), (-0.857899, 0.136674, 0.495308), (-0.857899, 0.136674, 0.495308), (-0.857899, 0.136674, 0.495308), (-0.857899, 0.136674, 0.495308), (-0.550841, 0.771642, -0.318028), (-0.550841, 0.771642, -0.318028), (-0.550841, 0.771642, -0.318028), (0, 0.136673, -0.990616), (0, 0.136673, -0.990616), (0, 0.136673, -0.990616), (0, 0.136673, -0.990616), (0, 0.136673, -0.990616), (0, 0.136673, -0.990616), (0, 0.771642, -0.636057), (0, 0.771642, -0.636057), (0, 0.771642, -0.636057), (0.550841, 0.771642, -0.318028), (0.550841, 0.771642, -0.318028), (0.550841, 0.771642, -0.318028), (-0.550841, 0.771642, 0.318028), (-0.550841, 0.771642, 0.318028), (-0.550841, 0.771642, 0.318028)] (interpolation = "faceVarying")
        texCoord2f[] primvars:st = [(5.79626, 32.8097), (-7.4311, 39.537), (-5.79626, 32.8097), (-7.4311, 39.537), (5.79626, 32.8097), (7.4311, 39.537), (-7.4311, 39.537), (5.79626, 32.8097), (7.4311, 39.537), (5.79626, 32.8097), (-7.4311, 39.537), (-5.79626, 32.8097), (5.79626, 10.0394), (5.79626, -10.0394), (11.5925, 0), (5.79626, -10.0394), (5.79626, 10.0394), (1.72059, 1.72059), (1.72059, 1.72059), (5.79626, 10.0394), (-5.79626, 10.0394), (1.72059, 1.72059), (-5.79626, 10.0394), (-1.72059, 1.72059), (-1.72059, 1.72059), (-5.79626, 10.0394), (-1.72059, -1.72059), (1.72059, -1.72059), (5.79626, -10.0394), (1.72059, 1.72059), (5.79626, -10.0394), (1.72059, -1.72059), (-5.79626, -10.0394), (-5.79626, -10.0394), (1.72059, -1.72059), (-1.72059, -1.72059), (-5.79626, -10.0394), (-1.72059, -1.72059), (-5.79626, 10.0394), (-5.79626, -10.0394), (-5.79626, 10.0394), (-11.5925, 0), (-5.72195, 29.9246), (5.72195, 29.9246), (0, 42.7682), (-7.4311, 39.537), (5.79626, 32.8097), (7.4311, 39.537), (5.79626, 32.8097), (-7.4311, 39.537), (-5.79626, 32.8097), (7.4311, 35.5016), (-5.72195, 57.1615), (-7.4311, 35.5016), (-5.72195, 57.1615), (7.4311, 35.5016), (5.72195, 57.1615), (5.72195, 57.1615), (-7.4311, 35.5016), (7.4311, 35.5016), (-7.4311, 35.5016), (5.72195, 57.1615), (-5.72195, 57.1615), (-5.72195, 57.1615), (7.4311, 35.5016), (5.72195, 57.1615), (7.4311, 35.5016), (-5.72195, 57.1615), (-7.4311, 35.5016), (-1.77636e-15, 42.7682), (-5.72195, 29.9246), (5.72195, 29.9246), (5.72195, 57.1615), (-7.4311, 35.5016), (7.4311, 35.5016), (-7.4311, 35.5016), (5.72195, 57.1615), (-5.72195, 57.1615), (7.4311, 39.537), (-5.79626, 32.8097), (5.79626, 32.8097), (-5.79626, 32.8097), (7.4311, 39.537), (-7.4311, 39.537), (-5.79626, 32.8097), (7.4311, 39.537), (-7.4311, 39.537), (7.4311, 39.537), (-5.79626, 32.8097), (5.79626, 32.8097), (7.4311, 39.537), (-5.79626, 32.8097), (5.79626, 32.8097), (-5.79626, 32.8097), (7.4311, 39.537), (-7.4311, 39.537), (7.4311, 35.5016), (-5.72195, 57.1615), (-7.4311, 35.5016), (-5.72195, 57.1615), (7.4311, 35.5016), (5.72195, 57.1615), (5.72195, 29.9246), (0, 42.7682), (-5.72195, 29.9246), (5.72195, 57.1615), (-7.4311, 35.5016), (7.4311, 35.5016), (-7.4311, 35.5016), (5.72195, 57.1615), (-5.72195, 57.1615), (5.72195, 29.9246), (0, 42.7682), (-5.72195, 29.9246), (1.77636e-15, 42.7682), (-5.72195, 29.9246), (5.72195, 29.9246), (-5.72195, 29.9246), (5.72195, 29.9246), (-1.77636e-15, 42.7682)] (interpolation = "faceVarying")
        uniform token subdivisionScheme = "none"
        rel material:binding = </Vehicle/Materials/leafsFall>
    }
    def Scope "Materials" {
        def Material "woodBirch" {
            token outputs:surface.connect = </Vehicle/Materials/woodBirch/surface.outputs:surface>
            def Shader "surface" {
                uniform token info:id = "UsdPreviewSurface"
                float inputs:roughness = 0.7
                float inputs:metallic = 0
                color3f inputs:diffuseColor = (1, 0.94902, 0.870588)
                token outputs:surface
            }
        }
        def Material "leafsFall" {
            token outputs:surface.connect = </Vehicle/Materials/leafsFall/surface.outputs:surface>
            def Shader "surface" {
                uniform token info:id = "UsdPreviewSurface"
                float inputs:roughness = 0.7
                float inputs:metallic = 0
                color3f inputs:diffuseColor = (1, 0.572549, 0.254902)
                token outputs:surface
            }
        }
    }
}
