#usda 1.0
(
    defaultPrim = "Vehicle"
    metersPerUnit = 1
    upAxis = "Y"
)
def Xform "Vehicle" {
    def Mesh "mesh_colormap" {
        int[] faceVertexCounts = [3, 3, 3, 3, 3, 3, 3, 3, 3, 3, 3, 3, 3, 3, 3, 3, 3, 3, 3, 3, 3, 3, 3, 3, 3, 3, 3, 3, 3, 3, 3, 3, 3, 3, 3, 3, 3, 3, 3, 3, 3, 3, 3, 3, 3, 3, 3, 3, 3, 3, 3, 3, 3, 3, 3, 3, 3, 3, 3, 3, 3, 3, 3, 3, 3, 3, 3, 3, 3, 3, 3, 3, 3, 3, 3, 3, 3, 3, 3, 3, 3, 3, 3, 3, 3, 3, 3, 3, 3, 3, 3, 3, 3, 3, 3, 3, 3, 3, 3, 3, 3, 3, 3, 3, 3, 3, 3, 3, 3, 3, 3, 3, 3, 3, 3, 3, 3, 3, 3, 3, 3, 3, 3, 3, 3, 3, 3, 3, 3, 3, 3, 3, 3, 3, 3, 3, 3, 3, 3, 3, 3, 3, 3, 3, 3, 3, 3, 3, 3, 3, 3, 3, 3, 3, 3, 3, 3, 3, 3, 3, 3, 3, 3, 3, 3, 3, 3, 3, 3, 3, 3, 3, 3, 3, 3, 3, 3, 3, 3, 3, 3, 3, 3, 3]
        int[] faceVertexIndices = [2, 1, 0, 1, 2, 3, 2, 4, 3, 4, 2, 5, 4, 5, 6, 6, 5, 7, 6, 7, 8, 8, 7, 9, 8, 9, 10, 10, 9, 11, 11, 9, 12, 11, 12, 13, 13, 12, 14, 14, 12, 15, 15, 12, 16, 15, 16, 17, 18, 6, 8, 6, 18, 19, 9, 20, 12, 20, 9, 21, 24, 23, 22, 23, 24, 25, 27, 14, 26, 14, 27, 13, 28, 3, 4, 3, 28, 29, 0, 23, 25, 23, 0, 1, 17, 30, 15, 30, 17, 31, 32, 7, 5, 7, 32, 33, 16, 31, 17, 31, 16, 34, 35, 13, 27, 13, 35, 11, 29, 37, 36, 37, 29, 38, 33, 9, 7, 9, 33, 21, 36, 24, 22, 24, 36, 37, 19, 4, 6, 4, 19, 28, 24, 0, 25, 0, 24, 2, 2, 24, 38, 38, 24, 37, 39, 11, 35, 11, 39, 10, 12, 34, 16, 34, 12, 20, 18, 10, 39, 10, 18, 8, 2, 32, 5, 32, 2, 38, 30, 27, 26, 27, 30, 20, 20, 35, 27, 20, 30, 34, 34, 30, 31, 21, 35, 20, 21, 39, 35, 21, 18, 39, 33, 18, 21, 33, 19, 18, 32, 19, 33, 32, 28, 19, 38, 28, 32, 28, 38, 29, 42, 41, 40, 41, 42, 43, 46, 45, 44, 45, 46, 47, 41, 45, 40, 45, 41, 44, 42, 45, 47, 45, 42, 40, 14, 46, 44, 46, 14, 15, 43, 26, 41, 26, 43, 30, 46, 42, 47, 42, 46, 43, 26, 44, 41, 44, 26, 14, 15, 43, 46, 43, 15, 30, 50, 49, 48, 49, 50, 51, 51, 50, 52, 51, 52, 53, 2, 1, 0, 1, 2, 3, 2, 4, 3, 4, 2, 5, 4, 5, 6, 6, 5, 7, 6, 7, 8, 8, 7, 9, 8, 9, 10, 10, 9, 11, 11, 9, 12, 11, 12, 13, 13, 12, 14, 14, 12, 15, 15, 12, 16, 15, 16, 17, 18, 6, 8, 6, 18, 19, 9, 20, 12, 20, 9, 21, 24, 23, 22, 23, 24, 25, 27, 14, 26, 14, 27, 13, 28, 3, 4, 3, 28, 29, 0, 23, 25, 23, 0, 1, 17, 30, 15, 30, 17, 31, 32, 7, 5, 7, 32, 33, 16, 31, 17, 31, 16, 34, 35, 13, 27, 13, 35, 11, 29, 37, 36, 37, 29, 38, 33, 9, 7, 9, 33, 21, 36, 24, 22, 24, 36, 37, 19, 4, 6, 4, 19, 28, 24, 0, 25, 0, 24, 2, 2, 24, 38, 38, 24, 37, 39, 11, 35, 11, 39, 10, 12, 34, 16, 34, 12, 20, 18, 10, 39, 10, 18, 8, 2, 32, 5, 32, 2, 38, 30, 27, 26, 27, 30, 20, 20, 35, 27, 20, 30, 34, 34, 30, 31, 21, 35, 20, 21, 39, 35, 21, 18, 39, 33, 18, 21, 33, 19, 18, 32, 19, 33, 32, 28, 19, 38, 28, 32, 28, 38, 29, 42, 41, 40, 41, 42, 43, 46, 45, 44, 45, 46, 47, 41, 45, 40, 45, 41, 44, 42, 45, 47, 45, 42, 40, 14, 46, 44, 46, 14, 15, 43, 26, 41, 26, 43, 30, 46, 42, 47, 42, 46, 43, 26, 44, 41, 44, 26, 14, 15, 43, 46, 43, 15, 30, 50, 49, 48, 49, 50, 51, 51, 50, 52, 51, 52, 53]
        point3f[] points = [(0.025, 0.675, -0.15), (0.025, 0.652778, -0.15), (0.0125, 0.675, -0.1), (0.0125, 0.652778, -0.1), (0.0125, 0.650206, -0.0788671), (0.0125, 0.671693, -0.0728292), (0.0125, 0.64264, -0.0589681), (0.0125, 0.661966, -0.0472446), (0.0125, 0.630523, -0.0414645), (0.0125, 0.646386, -0.02474), (0.0125, 0.61456, -0.0273783), (0.0125, 0.595686, -0.0175318), (0.0125, 0.625863, -0.00662921), (0.0125, 0.575, -0.0125), (0.0125, 0.15, -0.0125), (0.0125, 0.15, 0.0125), (0.0125, 0.601596, 0.0060305), (0.0125, 0.575, 0.0125), (-0.0125, 0.630523, -0.0414645), (-0.0125, 0.64264, -0.0589681), (-0.0125, 0.625863, -0.00662921), (-0.0125, 0.646386, -0.02474), (-0.025, 0.652778, -0.2), (0.025, 0.652778, -0.2), (-0.025, 0.675, -0.2), (0.025, 0.675, -0.2), (-0.0125, 0.15, -0.0125), (-0.0125, 0.575, -0.0125), (-0.0125, 0.650206, -0.0788671), (-0.0125, 0.652778, -0.1), (-0.0125, 0.15, 0.0125), (-0.0125, 0.575, 0.0125), (-0.0125, 0.671693, -0.0728292), (-0.0125, 0.661966, -0.0472446), (-0.0125, 0.601596, 0.0060305), (-0.0125, 0.595686, -0.0175318), (-0.025, 0.652778, -0.15), (-0.025, 0.675, -0.15), (-0.0125, 0.675, -0.1), (-0.0125, 0.61456, -0.0273783), (-0.025, 0, -0.025), (-0.025, 0.1, -0.025), (-0.025, 0, 0.025), (-0.025, 0.1, 0.025), (0.025, 0.1, -0.025), (0.025, 0, -0.025), (0.025, 0.1, 0.025), (0.025, 0, 0.025), (0.025, 0.652778, -0.15), (0.025, 0.652778, -0.2), (0.0125, 0.652778, -0.1), (-0.025, 0.652778, -0.2), (-0.0125, 0.652778, -0.1), (-0.025, 0.652778, -0.15)]
        normal3f[] normals = [(0.970143, 0, 0.242536), (0.992508, 0, 0.122183), (0.992508, 0, 0.122183), (0.992508, 0, 0.122183), (0.970143, 0, 0.242536), (0.970143, 0, 0.242536), (1, 0, 0), (1, 0, 0), (1, 0, 0), (1, 0, 0), (1, 0, 0), (1, 0, 0), (1, 0, 0), (1, 0, 0), (1, 0, 0), (1, 0, 0), (1, 0, 0), (1, 0, 0), (1, 0, 0), (1, 0, 0), (1, 0, 0), (1, 0, 0), (1, 0, 0), (1, 0, 0), (1, 0, 0), (1, 0, 0), (1, 0, 0), (1, 0, 0), (1, 0, 0), (1, 0, 0), (1, 0, 0), (1, 0, 0), (1, 0, 0), (1, 0, 0), (1, 0, 0), (1, 0, 0), (1, 0, 0), (1, 0, 0), (1, 0, 0), (1, 0, 0), (1, 0, 0), (1, 0, 0), (1, 0, 0), (1, 0, 0), (1, 0, 0), (1, 0, 0), (1, 0, 0), (1, 0, 0), (0, -0.747409, -0.664364), (0, -0.884941, -0.465702), (0, -0.747409, -0.664364), (0, -0.884941, -0.465702), (0, -0.747409, -0.664364), (0, -0.884941, -0.465702), (0, 0.747409, 0.664364), (0, 0.566242, 0.824239), (0, 0.566242, 0.824239), (0, 0.566242, 0.824239), (0, 0.747409, 0.664364), (0, 0.747409, 0.664364), (0, 0, -1), (0, 0, -1), (0, 0, -1), (0, 0, -1), (0, 0, -1), (0, 0, -1), (0, 0, -1), (0, 0, -1), (0, 0, -1), (0, 0, -1), (0, 0, -1), (0, 0, -1), (0, -0.970809, -0.239853), (0, -0.992676, -0.120811), (0, -0.970809, -0.239853), (0, -0.992676, -0.120811), (0, -0.970809, -0.239853), (0, -0.992676, -0.120811), (0.992508, 0, 0.122183), (1, 0, 0), (1, 0, 0), (1, 0, 0), (0.992508, 0, 0.122183), (0.992508, 0, 0.122183), (0, 0.119026, 0.992891), (0, 0, 1), (0, 0, 1), (0, 0, 1), (0, 0.119026, 0.992891), (0, 0.119026, 0.992891), (0, 0.970809, 0.239853), (0, 0.884941, 0.465702), (0, 0.970809, 0.239853), (0, 0.884941, 0.465702), (0, 0.970809, 0.239853), (0, 0.884941, 0.465702), (0, 0.352018, 0.935993), (0, 0.119026, 0.992891), (0, 0.119026, 0.992891), (0, 0.119026, 0.992891), (0, 0.352018, 0.935993), (0, 0.352018, 0.935993), (0, -0.352018, -0.935993), (0, -0.236361, -0.971665), (0, -0.236361, -0.971665), (0, -0.236361, -0.971665), (0, -0.352018, -0.935993), (0, -0.352018, -0.935993), (-0.970143, 0, 0.242536), (-0.992508, 0, 0.122183), (-0.992508, 0, 0.122183), (-0.992508, 0, 0.122183), (-0.970143, 0, 0.242536), (-0.970143, 0, 0.242536), (0, 0.884941, 0.465702), (0, 0.747409, 0.664364), (0, 0.884941, 0.465702), (0, 0.747409, 0.664364), (0, 0.884941, 0.465702), (0, 0.747409, 0.664364), (-0.992508, 0, 0.122183), (-1, 0, 0), (-1, 0, 0), (-1, 0, 0), (-0.992508, 0, 0.122183), (-0.992508, 0, 0.122183), (0, -0.884941, -0.465702), (0, -0.970809, -0.239853), (0, -0.884941, -0.465702), (0, -0.970809, -0.239853), (0, -0.884941, -0.465702), (0, -0.970809, -0.239853), (0, 1, 0), (0, 1, 0), (0, 1, 0), (0, 1, 0), (0, 1, 0), (0, 0.998423, 0.0561383), (0, 0.998423, 0.0561383), (0, 1, 0), (0, 0.998423, 0.0561383), (0, 0.998423, 0.0561383), (0, 1, 0), (0, 1, 0), (0, -0.566242, -0.824239), (0, -0.352018, -0.935993), (0, -0.352018, -0.935993), (0, -0.352018, -0.935993), (0, -0.566242, -0.824239), (0, -0.566242, -0.824239), (0, 0.566242, 0.824239), (0, 0.352018, 0.935993), (0, 0.352018, 0.935993), (0, 0.352018, 0.935993), (0, 0.566242, 0.824239), (0, 0.566242, 0.824239), (0, -0.747409, -0.664364), (0, -0.566242, -0.824239), (0, -0.566242, -0.824239), (0, -0.566242, -0.824239), (0, -0.747409, -0.664364), (0, -0.747409, -0.664364), (0, 0.998423, 0.0561383), (0, 0.970809, 0.239853), (0, 0.970809, 0.239853), (0, 0.970809, 0.239853), (0, 0.998423, 0.0561383), (0, 0.998423, 0.0561383), (-1, 0, 0), (-1, 0, 0), (-1, 0, 0), (-1, 0, 0), (-1, 0, 0), (-1, 0, 0), (-1, 0, 0), (-1, 0, 0), (-1, 0, 0), (-1, 0, 0), (-1, 0, 0), (-1, 0, 0), (-1, 0, 0), (-1, 0, 0), (-1, 0, 0), (-1, 0, 0), (-1, 0, 0), (-1, 0, 0), (-1, 0, 0), (-1, 0, 0), (-1, 0, 0), (-1, 0, 0), (-1, 0, 0), (-1, 0, 0), (-1, 0, 0), (-1, 0, 0), (-1, 0, 0), (-1, 0, 0), (-1, 0, 0), (-1, 0, 0), (-1, 0, 0), (-1, 0, 0), (-1, 0, 0), (-1, 0, 0), (-1, 0, 0), (-1, 0, 0), (-1, 0, 0), (-1, 0, 0), (-1, 0, 0), (-1, 0, 0), (-1, 0, 0), (-1, 0, 0), (-1, 0, 0), (-0.99369, 0.112165, 0), (-1, 0, 0), (-0.99369, 0.112165, 0), (-1, 0, 0), (-0.99369, 0.112165, 0), (0.99369, 0.112165, 0), (1, 0, 0), (0.99369, 0.112165, 0), (1, 0, 0), (0.99369, 0.112165, 0), (1, 0, 0), (0, 0.112165, -0.99369), (0, 0, -1), (0, 0, -1), (0, 0, -1), (0, 0.112165, -0.99369), (0, 0.112165, -0.99369), (0, -1, 0), (0, -1, 0), (0, -1, 0), (0, -1, 0), (0, -1, 0), (0, -1, 0), (0.970143, 0.242536, 0), (0.99369, 0.112165, 0), (0.99369, 0.112165, 0), (0.99369, 0.112165, 0), (0.970143, 0.242536, 0), (0.970143, 0.242536, 0), (-0.99369, 0.112165, 0), (-0.970143, 0.242536, 0), (-0.99369, 0.112165, 0), (-0.970143, 0.242536, 0), (-0.99369, 0.112165, 0), (-0.970143, 0.242536, 0), (0, 0.112165, 0.99369), (0, 0, 1), (0, 0, 1), (0, 0, 1), (0, 0.112165, 0.99369), (0, 0.112165, 0.99369), (0, 0.242536, -0.970143), (0, 0.112165, -0.99369), (0, 0.112165, -0.99369), (0, 0.112165, -0.99369), (0, 0.242536, -0.970143), (0, 0.242536, -0.970143), (0, 0.242536, 0.970143), (0, 0.112165, 0.99369), (0, 0.112165, 0.99369), (0, 0.112165, 0.99369), (0, 0.242536, 0.970143), (0, 0.242536, 0.970143), (0, -1, 0), (0, -1, 0), (0, -1, 0), (0, -1, 0), (0, -1, 0), (0, -1, 0), (0, -1, 0), (0, -1, 0), (0, -1, 0), (0, -1, 0), (0, -1, 0), (0, -1, 0), (0.970143, 0, 0.242536), (0.992508, 0, 0.122183), (0.992508, 0, 0.122183), (0.992508, 0, 0.122183), (0.970143, 0, 0.242536), (0.970143, 0, 0.242536), (1, 0, 0), (1, 0, 0), (1, 0, 0), (1, 0, 0), (1, 0, 0), (1, 0, 0), (1, 0, 0), (1, 0, 0), (1, 0, 0), (1, 0, 0), (1, 0, 0), (1, 0, 0), (1, 0, 0), (1, 0, 0), (1, 0, 0), (1, 0, 0), (1, 0, 0), (1, 0, 0), (1, 0, 0), (1, 0, 0), (1, 0, 0), (1, 0, 0), (1, 0, 0), (1, 0, 0), (1, 0, 0), (1, 0, 0), (1, 0, 0), (1, 0, 0), (1, 0, 0), (1, 0, 0), (1, 0, 0), (1, 0, 0), (1, 0, 0), (1, 0, 0), (1, 0, 0), (1, 0, 0), (1, 0, 0), (1, 0, 0), (1, 0, 0), (1, 0, 0), (1, 0, 0), (1, 0, 0), (0, -0.747409, -0.664364), (0, -0.884941, -0.465702), (0, -0.747409, -0.664364), (0, -0.884941, -0.465702), (0, -0.747409, -0.664364), (0, -0.884941, -0.465702), (0, 0.747409, 0.664364), (0, 0.566242, 0.824239), (0, 0.566242, 0.824239), (0, 0.566242, 0.824239), (0, 0.747409, 0.664364), (0, 0.747409, 0.664364), (0, 0, -1), (0, 0, -1), (0, 0, -1), (0, 0, -1), (0, 0, -1), (0, 0, -1), (0, 0, -1), (0, 0, -1), (0, 0, -1), (0, 0, -1), (0, 0, -1), (0, 0, -1), (0, -0.970809, -0.239853), (0, -0.992676, -0.120811), (0, -0.970809, -0.239853), (0, -0.992676, -0.120811), (0, -0.970809, -0.239853), (0, -0.992676, -0.120811), (0.992508, 0, 0.122183), (1, 0, 0), (1, 0, 0), (1, 0, 0), (0.992508, 0, 0.122183), (0.992508, 0, 0.122183), (0, 0.119026, 0.992891), (0, 0, 1), (0, 0, 1), (0, 0, 1), (0, 0.119026, 0.992891), (0, 0.119026, 0.992891), (0, 0.970809, 0.239853), (0, 0.884941, 0.465702), (0, 0.970809, 0.239853), (0, 0.884941, 0.465702), (0, 0.970809, 0.239853), (0, 0.884941, 0.465702), (0, 0.352018, 0.935993), (0, 0.119026, 0.992891), (0, 0.119026, 0.992891), (0, 0.119026, 0.992891), (0, 0.352018, 0.935993), (0, 0.352018, 0.935993), (0, -0.352018, -0.935993), (0, -0.236361, -0.971665), (0, -0.236361, -0.971665), (0, -0.236361, -0.971665), (0, -0.352018, -0.935993), (0, -0.352018, -0.935993), (-0.970143, 0, 0.242536), (-0.992508, 0, 0.122183), (-0.992508, 0, 0.122183), (-0.992508, 0, 0.122183), (-0.970143, 0, 0.242536), (-0.970143, 0, 0.242536), (0, 0.884941, 0.465702), (0, 0.747409, 0.664364), (0, 0.884941, 0.465702), (0, 0.747409, 0.664364), (0, 0.884941, 0.465702), (0, 0.747409, 0.664364), (-0.992508, 0, 0.122183), (-1, 0, 0), (-1, 0, 0), (-1, 0, 0), (-0.992508, 0, 0.122183), (-0.992508, 0, 0.122183), (0, -0.884941, -0.465702), (0, -0.970809, -0.239853), (0, -0.884941, -0.465702), (0, -0.970809, -0.239853), (0, -0.884941, -0.465702), (0, -0.970809, -0.239853), (0, 1, 0), (0, 1, 0), (0, 1, 0), (0, 1, 0), (0, 1, 0), (0, 0.998423, 0.0561383), (0, 0.998423, 0.0561383), (0, 1, 0), (0, 0.998423, 0.0561383), (0, 0.998423, 0.0561383), (0, 1, 0), (0, 1, 0), (0, -0.566242, -0.824239), (0, -0.352018, -0.935993), (0, -0.352018, -0.935993), (0, -0.352018, -0.935993), (0, -0.566242, -0.824239), (0, -0.566242, -0.824239), (0, 0.566242, 0.824239), (0, 0.352018, 0.935993), (0, 0.352018, 0.935993), (0, 0.352018, 0.935993), (0, 0.566242, 0.824239), (0, 0.566242, 0.824239), (0, -0.747409, -0.664364), (0, -0.566242, -0.824239), (0, -0.566242, -0.824239), (0, -0.566242, -0.824239), (0, -0.747409, -0.664364), (0, -0.747409, -0.664364), (0, 0.998423, 0.0561383), (0, 0.970809, 0.239853), (0, 0.970809, 0.239853), (0, 0.970809, 0.239853), (0, 0.998423, 0.0561383), (0, 0.998423, 0.0561383), (-1, 0, 0), (-1, 0, 0), (-1, 0, 0), (-1, 0, 0), (-1, 0, 0), (-1, 0, 0), (-1, 0, 0), (-1, 0, 0), (-1, 0, 0), (-1, 0, 0), (-1, 0, 0), (-1, 0, 0), (-1, 0, 0), (-1, 0, 0), (-1, 0, 0), (-1, 0, 0), (-1, 0, 0), (-1, 0, 0), (-1, 0, 0), (-1, 0, 0), (-1, 0, 0), (-1, 0, 0), (-1, 0, 0), (-1, 0, 0), (-1, 0, 0), (-1, 0, 0), (-1, 0, 0), (-1, 0, 0), (-1, 0, 0), (-1, 0, 0), (-1, 0, 0), (-1, 0, 0), (-1, 0, 0), (-1, 0, 0), (-1, 0, 0), (-1, 0, 0), (-1, 0, 0), (-1, 0, 0), (-1, 0, 0), (-1, 0, 0), (-1, 0, 0), (-1, 0, 0), (-1, 0, 0), (-0.99369, 0.112165, 0), (-1, 0, 0), (-0.99369, 0.112165, 0), (-1, 0, 0), (-0.99369, 0.112165, 0), (0.99369, 0.112165, 0), (1, 0, 0), (0.99369, 0.112165, 0), (1, 0, 0), (0.99369, 0.112165, 0), (1, 0, 0), (0, 0.112165, -0.99369), (0, 0, -1), (0, 0, -1), (0, 0, -1), (0, 0.112165, -0.99369), (0, 0.112165, -0.99369), (0, -1, 0), (0, -1, 0), (0, -1, 0), (0, -1, 0), (0, -1, 0), (0, -1, 0), (0.970143, 0.242536, 0), (0.99369, 0.112165, 0), (0.99369, 0.112165, 0), (0.99369, 0.112165, 0), (0.970143, 0.242536, 0), (0.970143, 0.242536, 0), (-0.99369, 0.112165, 0), (-0.970143, 0.242536, 0), (-0.99369, 0.112165, 0), (-0.970143, 0.242536, 0), (-0.99369, 0.112165, 0), (-0.970143, 0.242536, 0), (0, 0.112165, 0.99369), (0, 0, 1), (0, 0, 1), (0, 0, 1), (0, 0.112165, 0.99369), (0, 0.112165, 0.99369), (0, 0.242536, -0.970143), (0, 0.112165, -0.99369), (0, 0.112165, -0.99369), (0, 0.112165, -0.99369), (0, 0.242536, -0.970143), (0, 0.242536, -0.970143), (0, 0.242536, 0.970143), (0, 0.112165, 0.99369), (0, 0.112165, 0.99369), (0, 0.112165, 0.99369), (0, 0.242536, 0.970143), (0, 0.242536, 0.970143), (0, -1, 0), (0, -1, 0), (0, -1, 0), (0, -1, 0), (0, -1, 0), (0, -1, 0), (0, -1, 0), (0, -1, 0), (0, -1, 0), (0, -1, 0), (0, -1, 0), (0, -1, 0)] (interpolation = "faceVarying")
        texCoord2f[] primvars:st = [(0.46875, 0.475), (0.46875, 0.468416), (0.46875, 0.475), (0.46875, 0.468416), (0.46875, 0.475), (0.46875, 0.468416), (0.46875, 0.475), (0.46875, 0.467654), (0.46875, 0.468416), (0.46875, 0.467654), (0.46875, 0.475), (0.46875, 0.47402), (0.46875, 0.467654), (0.46875, 0.47402), (0.46875, 0.465412), (0.46875, 0.465412), (0.46875, 0.47402), (0.46875, 0.471138), (0.46875, 0.465412), (0.46875, 0.471138), (0.46875, 0.461821), (0.46875, 0.461821), (0.46875, 0.471138), (0.46875, 0.466522), (0.46875, 0.461821), (0.46875, 0.466522), (0.46875, 0.457092), (0.46875, 0.457092), (0.46875, 0.466522), (0.46875, 0.451499), (0.46875, 0.451499), (0.46875, 0.466522), (0.46875, 0.460441), (0.46875, 0.451499), (0.46875, 0.460441), (0.46875, 0.44537), (0.46875, 0.44537), (0.46875, 0.460441), (0.46875, 0.319444), (0.46875, 0.319444), (0.46875, 0.460441), (0.46875, 0.319444), (0.46875, 0.319444), (0.46875, 0.460441), (0.46875, 0.453251), (0.46875, 0.319444), (0.46875, 0.453251), (0.46875, 0.44537), (0.46875, 0.461821), (0.46875, 0.465412), (0.46875, 0.461821), (0.46875, 0.465412), (0.46875, 0.461821), (0.46875, 0.465412), (0.46875, 0.466522), (0.46875, 0.460441), (0.46875, 0.460441), (0.46875, 0.460441), (0.46875, 0.466522), (0.46875, 0.466522), (0.46875, 0.475), (0.46875, 0.468416), (0.46875, 0.468416), (0.46875, 0.468416), (0.46875, 0.475), (0.46875, 0.475), (0.46875, 0.44537), (0.46875, 0.319444), (0.46875, 0.319444), (0.46875, 0.319444), (0.46875, 0.44537), (0.46875, 0.44537), (0.46875, 0.467654), (0.46875, 0.468416), (0.46875, 0.467654), (0.46875, 0.468416), (0.46875, 0.467654), (0.46875, 0.468416), (0.46875, 0.475), (0.46875, 0.468416), (0.46875, 0.475), (0.46875, 0.468416), (0.46875, 0.475), (0.46875, 0.468416), (0.46875, 0.44537), (0.46875, 0.319444), (0.46875, 0.319444), (0.46875, 0.319444), (0.46875, 0.44537), (0.46875, 0.44537), (0.46875, 0.47402), (0.46875, 0.471138), (0.46875, 0.47402), (0.46875, 0.471138), (0.46875, 0.47402), (0.46875, 0.471138), (0.46875, 0.453251), (0.46875, 0.44537), (0.46875, 0.44537), (0.46875, 0.44537), (0.46875, 0.453251), (0.46875, 0.453251), (0.46875, 0.451499), (0.46875, 0.44537), (0.46875, 0.44537), (0.46875, 0.44537), (0.46875, 0.451499), (0.46875, 0.451499), (0.46875, 0.468416), (0.46875, 0.475), (0.46875, 0.468416), (0.46875, 0.475), (0.46875, 0.468416), (0.46875, 0.475), (0.46875, 0.471138), (0.46875, 0.466522), (0.46875, 0.471138), (0.46875, 0.466522), (0.46875, 0.471138), (0.46875, 0.466522), (0.46875, 0.468416), (0.46875, 0.475), (0.46875, 0.468416), (0.46875, 0.475), (0.46875, 0.468416), (0.46875, 0.475), (0.46875, 0.465412), (0.46875, 0.467654), (0.46875, 0.465412), (0.46875, 0.467654), (0.46875, 0.465412), (0.46875, 0.467654), (0.46875, 0.475), (0.46875, 0.475), (0.46875, 0.475), (0.46875, 0.475), (0.46875, 0.475), (0.46875, 0.475), (0.46875, 0.475), (0.46875, 0.475), (0.46875, 0.475), (0.46875, 0.475), (0.46875, 0.475), (0.46875, 0.475), (0.46875, 0.457092), (0.46875, 0.451499), (0.46875, 0.451499), (0.46875, 0.451499), (0.46875, 0.457092), (0.46875, 0.457092), (0.46875, 0.460441), (0.46875, 0.453251), (0.46875, 0.453251), (0.46875, 0.453251), (0.46875, 0.460441), (0.46875, 0.460441), (0.46875, 0.461821), (0.46875, 0.457092), (0.46875, 0.457092), (0.46875, 0.457092), (0.46875, 0.461821), (0.46875, 0.461821), (0.46875, 0.475), (0.46875, 0.47402), (0.46875, 0.47402), (0.46875, 0.47402), (0.46875, 0.475), (0.46875, 0.475), (0.46875, 0.319444), (0.46875, 0.44537), (0.46875, 0.319444), (0.46875, 0.44537), (0.46875, 0.319444), (0.46875, 0.460441), (0.46875, 0.460441), (0.46875, 0.451499), (0.46875, 0.44537), (0.46875, 0.460441), (0.46875, 0.319444), (0.46875, 0.453251), (0.46875, 0.453251), (0.46875, 0.319444), (0.46875, 0.44537), (0.46875, 0.466522), (0.46875, 0.451499), (0.46875, 0.460441), (0.46875, 0.466522), (0.46875, 0.457092), (0.46875, 0.451499), (0.46875, 0.466522), (0.46875, 0.461821), (0.46875, 0.457092), (0.46875, 0.471138), (0.46875, 0.461821), (0.46875, 0.466522), (0.46875, 0.471138), (0.46875, 0.465412), (0.46875, 0.461821), (0.46875, 0.47402), (0.46875, 0.465412), (0.46875, 0.471138), (0.46875, 0.47402), (0.46875, 0.467654), (0.46875, 0.465412), (0.46875, 0.475), (0.46875, 0.467654), (0.46875, 0.47402), (0.46875, 0.467654), (0.46875, 0.475), (0.46875, 0.468416), (0.46875, 0.325), (0.46875, 0.391667), (0.46875, 0.325), (0.46875, 0.391667), (0.46875, 0.325), (0.46875, 0.391667), (0.46875, 0.391667), (0.46875, 0.325), (0.46875, 0.391667), (0.46875, 0.325), (0.46875, 0.391667), (0.46875, 0.325), (0.46875, 0.391667), (0.46875, 0.325), (0.46875, 0.325), (0.46875, 0.325), (0.46875, 0.391667), (0.46875, 0.391667), (0.46875, 0.325), (0.46875, 0.325), (0.46875, 0.325), (0.46875, 0.325), (0.46875, 0.325), (0.46875, 0.325), (0.46875, 0.425), (0.46875, 0.391667), (0.46875, 0.391667), (0.46875, 0.391667), (0.46875, 0.425), (0.46875, 0.425), (0.46875, 0.391667), (0.46875, 0.425), (0.46875, 0.391667), (0.46875, 0.425), (0.46875, 0.391667), (0.46875, 0.425), (0.46875, 0.391667), (0.46875, 0.325), (0.46875, 0.325), (0.46875, 0.325), (0.46875, 0.391667), (0.46875, 0.391667), (0.46875, 0.425), (0.46875, 0.391667), (0.46875, 0.391667), (0.46875, 0.391667), (0.46875, 0.425), (0.46875, 0.425), (0.46875, 0.425), (0.46875, 0.391667), (0.46875, 0.391667), (0.46875, 0.391667), (0.46875, 0.425), (0.46875, 0.425), (0.53125, 0.375), (0.53125, 0.375), (0.53125, 0.375), (0.53125, 0.375), (0.53125, 0.375), (0.53125, 0.375), (0.53125, 0.375), (0.53125, 0.375), (0.53125, 0.375), (0.53125, 0.375), (0.53125, 0.375), (0.53125, 0.375), (0.46875, 0.475), (0.46875, 0.468416), (0.46875, 0.475), (0.46875, 0.468416), (0.46875, 0.475), (0.46875, 0.468416), (0.46875, 0.475), (0.46875, 0.467654), (0.46875, 0.468416), (0.46875, 0.467654), (0.46875, 0.475), (0.46875, 0.47402), (0.46875, 0.467654), (0.46875, 0.47402), (0.46875, 0.465412), (0.46875, 0.465412), (0.46875, 0.47402), (0.46875, 0.471138), (0.46875, 0.465412), (0.46875, 0.471138), (0.46875, 0.461821), (0.46875, 0.461821), (0.46875, 0.471138), (0.46875, 0.466522), (0.46875, 0.461821), (0.46875, 0.466522), (0.46875, 0.457092), (0.46875, 0.457092), (0.46875, 0.466522), (0.46875, 0.451499), (0.46875, 0.451499), (0.46875, 0.466522), (0.46875, 0.460441), (0.46875, 0.451499), (0.46875, 0.460441), (0.46875, 0.44537), (0.46875, 0.44537), (0.46875, 0.460441), (0.46875, 0.319444), (0.46875, 0.319444), (0.46875, 0.460441), (0.46875, 0.319444), (0.46875, 0.319444), (0.46875, 0.460441), (0.46875, 0.453251), (0.46875, 0.319444), (0.46875, 0.453251), (0.46875, 0.44537), (0.46875, 0.461821), (0.46875, 0.465412), (0.46875, 0.461821), (0.46875, 0.465412), (0.46875, 0.461821), (0.46875, 0.465412), (0.46875, 0.466522), (0.46875, 0.460441), (0.46875, 0.460441), (0.46875, 0.460441), (0.46875, 0.466522), (0.46875, 0.466522), (0.46875, 0.475), (0.46875, 0.468416), (0.46875, 0.468416), (0.46875, 0.468416), (0.46875, 0.475), (0.46875, 0.475), (0.46875, 0.44537), (0.46875, 0.319444), (0.46875, 0.319444), (0.46875, 0.319444), (0.46875, 0.44537), (0.46875, 0.44537), (0.46875, 0.467654), (0.46875, 0.468416), (0.46875, 0.467654), (0.46875, 0.468416), (0.46875, 0.467654), (0.46875, 0.468416), (0.46875, 0.475), (0.46875, 0.468416), (0.46875, 0.475), (0.46875, 0.468416), (0.46875, 0.475), (0.46875, 0.468416), (0.46875, 0.44537), (0.46875, 0.319444), (0.46875, 0.319444), (0.46875, 0.319444), (0.46875, 0.44537), (0.46875, 0.44537), (0.46875, 0.47402), (0.46875, 0.471138), (0.46875, 0.47402), (0.46875, 0.471138), (0.46875, 0.47402), (0.46875, 0.471138), (0.46875, 0.453251), (0.46875, 0.44537), (0.46875, 0.44537), (0.46875, 0.44537), (0.46875, 0.453251), (0.46875, 0.453251), (0.46875, 0.451499), (0.46875, 0.44537), (0.46875, 0.44537), (0.46875, 0.44537), (0.46875, 0.451499), (0.46875, 0.451499), (0.46875, 0.468416), (0.46875, 0.475), (0.46875, 0.468416), (0.46875, 0.475), (0.46875, 0.468416), (0.46875, 0.475), (0.46875, 0.471138), (0.46875, 0.466522), (0.46875, 0.471138), (0.46875, 0.466522), (0.46875, 0.471138), (0.46875, 0.466522), (0.46875, 0.468416), (0.46875, 0.475), (0.46875, 0.468416), (0.46875, 0.475), (0.46875, 0.468416), (0.46875, 0.475), (0.46875, 0.465412), (0.46875, 0.467654), (0.46875, 0.465412), (0.46875, 0.467654), (0.46875, 0.465412), (0.46875, 0.467654), (0.46875, 0.475), (0.46875, 0.475), (0.46875, 0.475), (0.46875, 0.475), (0.46875, 0.475), (0.46875, 0.475), (0.46875, 0.475), (0.46875, 0.475), (0.46875, 0.475), (0.46875, 0.475), (0.46875, 0.475), (0.46875, 0.475), (0.46875, 0.457092), (0.46875, 0.451499), (0.46875, 0.451499), (0.46875, 0.451499), (0.46875, 0.457092), (0.46875, 0.457092), (0.46875, 0.460441), (0.46875, 0.453251), (0.46875, 0.453251), (0.46875, 0.453251), (0.46875, 0.460441), (0.46875, 0.460441), (0.46875, 0.461821), (0.46875, 0.457092), (0.46875, 0.457092), (0.46875, 0.457092), (0.46875, 0.461821), (0.46875, 0.461821), (0.46875, 0.475), (0.46875, 0.47402), (0.46875, 0.47402), (0.46875, 0.47402), (0.46875, 0.475), (0.46875, 0.475), (0.46875, 0.319444), (0.46875, 0.44537), (0.46875, 0.319444), (0.46875, 0.44537), (0.46875, 0.319444), (0.46875, 0.460441), (0.46875, 0.460441), (0.46875, 0.451499), (0.46875, 0.44537), (0.46875, 0.460441), (0.46875, 0.319444), (0.46875, 0.453251), (0.46875, 0.453251), (0.46875, 0.319444), (0.46875, 0.44537), (0.46875, 0.466522), (0.46875, 0.451499), (0.46875, 0.460441), (0.46875, 0.466522), (0.46875, 0.457092), (0.46875, 0.451499), (0.46875, 0.466522), (0.46875, 0.461821), (0.46875, 0.457092), (0.46875, 0.471138), (0.46875, 0.461821), (0.46875, 0.466522), (0.46875, 0.471138), (0.46875, 0.465412), (0.46875, 0.461821), (0.46875, 0.47402), (0.46875, 0.465412), (0.46875, 0.471138), (0.46875, 0.47402), (0.46875, 0.467654), (0.46875, 0.465412), (0.46875, 0.475), (0.46875, 0.467654), (0.46875, 0.47402), (0.46875, 0.467654), (0.46875, 0.475), (0.46875, 0.468416), (0.46875, 0.325), (0.46875, 0.391667), (0.46875, 0.325), (0.46875, 0.391667), (0.46875, 0.325), (0.46875, 0.391667), (0.46875, 0.391667), (0.46875, 0.325), (0.46875, 0.391667), (0.46875, 0.325), (0.46875, 0.391667), (0.46875, 0.325), (0.46875, 0.391667), (0.46875, 0.325), (0.46875, 0.325), (0.46875, 0.325), (0.46875, 0.391667), (0.46875, 0.391667), (0.46875, 0.325), (0.46875, 0.325), (0.46875, 0.325), (0.46875, 0.325), (0.46875, 0.325), (0.46875, 0.325), (0.46875, 0.425), (0.46875, 0.391667), (0.46875, 0.391667), (0.46875, 0.391667), (0.46875, 0.425), (0.46875, 0.425), (0.46875, 0.391667), (0.46875, 0.425), (0.46875, 0.391667), (0.46875, 0.425), (0.46875, 0.391667), (0.46875, 0.425), (0.46875, 0.391667), (0.46875, 0.325), (0.46875, 0.325), (0.46875, 0.325), (0.46875, 0.391667), (0.46875, 0.391667), (0.46875, 0.425), (0.46875, 0.391667), (0.46875, 0.391667), (0.46875, 0.391667), (0.46875, 0.425), (0.46875, 0.425), (0.46875, 0.425), (0.46875, 0.391667), (0.46875, 0.391667), (0.46875, 0.391667), (0.46875, 0.425), (0.46875, 0.425), (0.53125, 0.375), (0.53125, 0.375), (0.53125, 0.375), (0.53125, 0.375), (0.53125, 0.375), (0.53125, 0.375), (0.53125, 0.375), (0.53125, 0.375), (0.53125, 0.375), (0.53125, 0.375), (0.53125, 0.375), (0.53125, 0.375)] (interpolation = "faceVarying")
        uniform token subdivisionScheme = "none"
        rel material:binding = </Vehicle/Materials/colormap>
    }
    def Scope "Materials" {
        def Material "colormap" {
            token outputs:surface.connect = </Vehicle/Materials/colormap/surface.outputs:surface>
            def Shader "surface" {
                uniform token info:id = "UsdPreviewSurface"
                float inputs:roughness = 0.7
                float inputs:metallic = 0
                color3f inputs:diffuseColor.connect = </Vehicle/Materials/colormap/texture.outputs:rgb>
                token outputs:surface
            }
            def Shader "stReader" {
                uniform token info:id = "UsdPrimvarReader_float2"
                token inputs:varname = "st"
                float2 outputs:result
            }
            def Shader "texture" {
                uniform token info:id = "UsdUVTexture"
                asset inputs:file = @kenney-cityroads-colormap.png@
                float2 inputs:st.connect = </Vehicle/Materials/colormap/stReader.outputs:result>
                token inputs:wrapS = "repeat"
                token inputs:wrapT = "repeat"
                float3 outputs:rgb
            }
        }
    }
}
