#usda 1.0
(
    defaultPrim = "Vehicle"
    metersPerUnit = 1
    upAxis = "Y"
)
def Xform "Vehicle" {
    def Mesh "mesh_colormap" {
        int[] faceVertexCounts = [3, 3, 3, 3, 3, 3, 3, 3, 3, 3, 3, 3, 3, 3, 3, 3, 3, 3, 3, 3, 3, 3, 3, 3, 3, 3, 3, 3, 3, 3, 3, 3, 3, 3, 3, 3, 3, 3, 3, 3, 3, 3, 3, 3, 3, 3, 3, 3, 3, 3, 3, 3, 3, 3, 3, 3, 3, 3, 3, 3, 3, 3, 3, 3, 3, 3, 3, 3, 3, 3, 3, 3, 3, 3, 3, 3, 3, 3, 3, 3, 3, 3, 3, 3, 3, 3, 3, 3, 3, 3, 3, 3, 3, 3, 3, 3, 3, 3, 3, 3, 3, 3, 3, 3, 3, 3, 3, 3, 3, 3, 3, 3, 3, 3, 3, 3, 3, 3, 3, 3, 3, 3, 3, 3, 3, 3, 3, 3, 3, 3, 3, 3, 3, 3, 3, 3, 3, 3, 3, 3, 3, 3, 3, 3, 3, 3, 3, 3, 3, 3, 3, 3, 3, 3, 3, 3, 3, 3, 3, 3, 3, 3, 3, 3, 3, 3, 3, 3, 3, 3, 3, 3, 3, 3, 3, 3, 3, 3, 3, 3, 3, 3, 3, 3, 3, 3, 3, 3, 3, 3, 3, 3, 3, 3, 3, 3, 3, 3, 3, 3, 3, 3, 3, 3, 3, 3, 3, 3, 3, 3, 3, 3, 3, 3, 3, 3, 3, 3, 3, 3, 3, 3, 3, 3, 3, 3, 3, 3, 3, 3, 3, 3, 3, 3, 3, 3, 3, 3, 3, 3, 3, 3, 3, 3, 3, 3, 3, 3, 3, 3, 3, 3, 3, 3, 3, 3, 3, 3, 3, 3, 3, 3, 3, 3, 3, 3, 3, 3, 3, 3, 3, 3, 3, 3, 3, 3, 3, 3, 3, 3, 3, 3, 3, 3, 3, 3, 3, 3, 3, 3, 3, 3, 3, 3, 3, 3, 3, 3, 3, 3, 3, 3, 3, 3, 3, 3, 3, 3, 3, 3, 3, 3, 3, 3, 3, 3, 3, 3, 3, 3, 3, 3, 3, 3, 3, 3, 3, 3, 3, 3]
        int[] faceVertexIndices = [2, 1, 0, 1, 2, 3, 6, 5, 4, 5, 6, 7, 10, 9, 8, 9, 10, 11, 14, 13, 12, 13, 14, 15, 16, 15, 14, 15, 16, 17, 18, 17, 16, 17, 18, 19, 18, 2, 19, 2, 18, 3, 1, 20, 0, 20, 1, 21, 22, 20, 21, 20, 22, 23, 11, 23, 22, 23, 11, 10, 25, 12, 24, 12, 25, 14, 18, 14, 25, 14, 18, 16, 18, 25, 26, 25, 27, 26, 18, 26, 28, 27, 25, 7, 18, 28, 29, 18, 29, 3, 27, 7, 30, 30, 7, 6, 30, 6, 31, 30, 31, 32, 3, 29, 33, 3, 33, 1, 32, 31, 34, 1, 33, 21, 21, 33, 35, 32, 34, 35, 35, 34, 21, 21, 34, 22, 22, 34, 9, 22, 9, 11, 19, 15, 17, 15, 19, 13, 13, 19, 36, 36, 19, 37, 37, 19, 2, 37, 2, 5, 5, 2, 0, 5, 0, 4, 4, 0, 20, 4, 20, 38, 38, 20, 23, 38, 23, 10, 8, 38, 10, 38, 8, 39, 42, 41, 40, 41, 42, 43, 43, 42, 44, 43, 44, 45, 45, 44, 46, 45, 46, 47, 36, 12, 13, 12, 36, 24, 37, 24, 36, 24, 37, 25, 5, 25, 37, 25, 5, 7, 34, 8, 9, 8, 34, 39, 31, 39, 34, 39, 31, 38, 31, 4, 38, 4, 31, 6, 41, 29, 28, 26, 41, 28, 29, 41, 43, 41, 26, 40, 26, 42, 40, 42, 26, 27, 43, 33, 29, 33, 43, 45, 47, 33, 45, 33, 47, 35, 46, 35, 47, 35, 46, 32, 27, 44, 42, 44, 32, 46, 44, 27, 30, 32, 44, 30, 2, 1, 0, 1, 2, 3, 6, 5, 4, 5, 6, 7, 10, 9, 8, 9, 10, 11, 14, 13, 12, 13, 14, 15, 16, 15, 14, 15, 16, 17, 18, 17, 16, 17, 18, 19, 18, 2, 19, 2, 18, 3, 1, 20, 0, 20, 1, 21, 22, 20, 21, 20, 22, 23, 11, 23, 22, 23, 11, 10, 25, 12, 24, 12, 25, 14, 18, 14, 25, 14, 18, 16, 18, 25, 26, 25, 27, 26, 18, 26, 28, 27, 25, 7, 18, 28, 29, 18, 29, 3, 27, 7, 30, 30, 7, 6, 30, 6, 31, 30, 31, 32, 3, 29, 33, 3, 33, 1, 32, 31, 34, 1, 33, 21, 21, 33, 35, 32, 34, 35, 35, 34, 21, 21, 34, 22, 22, 34, 9, 22, 9, 11, 19, 15, 17, 15, 19, 13, 13, 19, 36, 36, 19, 37, 37, 19, 2, 37, 2, 5, 5, 2, 0, 5, 0, 4, 4, 0, 20, 4, 20, 38, 38, 20, 23, 38, 23, 10, 8, 38, 10, 38, 8, 39, 42, 41, 40, 41, 42, 43, 43, 42, 44, 43, 44, 45, 45, 44, 46, 45, 46, 47, 36, 12, 13, 12, 36, 24, 37, 24, 36, 24, 37, 25, 5, 25, 37, 25, 5, 7, 34, 8, 9, 8, 34, 39, 31, 39, 34, 39, 31, 38, 31, 4, 38, 4, 31, 6, 41, 29, 28, 26, 41, 28, 29, 41, 43, 41, 26, 40, 26, 42, 40, 42, 26, 27, 43, 33, 29, 33, 43, 45, 47, 33, 45, 33, 47, 35, 46, 35, 47, 35, 46, 32, 27, 44, 42, 44, 32, 46, 44, 27, 30, 32, 44, 30, 50, 49, 48, 49, 50, 51, 52, 49, 51, 49, 52, 53, 52, 51, 54, 52, 54, 55, 55, 54, 56, 56, 54, 57, 56, 57, 58, 58, 57, 59, 58, 59, 60, 58, 60, 61, 61, 62, 58, 62, 61, 63, 66, 65, 64, 65, 66, 67, 67, 66, 68, 54, 70, 69, 70, 54, 51, 50, 70, 51, 70, 50, 71, 48, 71, 50, 71, 48, 72, 74, 63, 73, 63, 74, 62, 75, 62, 74, 62, 75, 58, 75, 56, 58, 56, 75, 76, 78, 57, 77, 57, 78, 59, 79, 59, 78, 59, 79, 60, 80, 60, 79, 60, 80, 61, 53, 65, 49, 65, 53, 64, 52, 64, 53, 64, 52, 66, 52, 68, 66, 68, 52, 55, 75, 81, 76, 81, 75, 73, 73, 75, 74, 82, 71, 72, 71, 82, 70, 70, 82, 69, 80, 77, 83, 77, 80, 78, 78, 80, 79, 72, 49, 65, 49, 72, 48, 83, 73, 80, 73, 83, 81, 77, 81, 83, 77, 76, 81, 69, 76, 77, 82, 76, 69, 67, 76, 82, 76, 67, 68, 82, 65, 67, 65, 82, 72, 61, 73, 63, 73, 61, 80, 76, 55, 56, 55, 76, 68, 69, 57, 54, 57, 69, 77, 86, 85, 84, 85, 86, 87, 84, 89, 88, 89, 84, 85, 88, 91, 90, 91, 88, 89, 90, 93, 92, 93, 90, 91, 93, 94, 92, 94, 93, 95, 98, 97, 96, 97, 98, 99, 97, 100, 96, 100, 97, 101, 100, 87, 86, 87, 100, 101, 85, 102, 89, 89, 102, 91, 103, 91, 102, 104, 91, 103, 104, 93, 91, 105, 93, 104, 105, 95, 93, 95, 105, 99, 106, 99, 105, 106, 105, 107, 99, 106, 97, 97, 106, 108, 97, 108, 109, 97, 109, 101, 106, 107, 110, 102, 110, 107, 110, 102, 85, 101, 109, 111, 85, 111, 110, 111, 87, 101, 111, 85, 87, 90, 113, 112, 90, 112, 114, 92, 113, 90, 114, 88, 90, 92, 115, 113, 114, 84, 88, 94, 115, 92, 84, 114, 116, 115, 94, 117, 115, 117, 116, 116, 118, 84, 118, 116, 117, 84, 118, 86, 86, 118, 100, 119, 100, 118, 117, 94, 120, 98, 120, 94, 119, 96, 100, 120, 98, 96, 121, 96, 119, 120, 96, 121, 111, 119, 118, 119, 111, 109, 109, 121, 119, 121, 109, 108, 114, 107, 116, 107, 114, 102, 115, 107, 105, 107, 115, 116, 104, 112, 113, 112, 104, 103, 102, 112, 103, 112, 102, 114, 108, 120, 121, 120, 108, 106, 120, 110, 117, 110, 120, 106, 117, 111, 118, 111, 117, 110, 115, 104, 113, 104, 115, 105]
        point3f[] points = [(-0.05, 0, 0.2), (-0.05, 0.3, 0.2), (0.05, 4.84911e-17, 0.2), (0.05, 0.3, 0.2), (-0.05, 0, -0.2), (0.05, 4.84911e-17, -0.2), (-0.05, 0.3, -0.2), (0.05, 0.3, -0.2), (-0.2, 0, -0.05), (-0.2, 0.3, -0.05), (-0.2, 0, 0.05), (-0.2, 0.3, 0.05), (0.2, 0.3, -0.05), (0.2, 0, -0.05), (0.2, 0.3, 0.05), (0.2, 0, 0.05), (0.2, 0.3, 0.15), (0.2, 0, 0.15), (0.15, 0.3, 0.2), (0.15, 0, 0.2), (-0.15, 0, 0.2), (-0.15, 0.3, 0.2), (-0.2, 0.3, 0.15), (-0.2, 0, 0.15), (0.2, 0.3, -0.15), (0.15, 0.3, -0.2), (0.15, 0.3, -0.129289), (0.129289, 0.3, -0.15), (0.15, 0.3, 0.129289), (0.129289, 0.3, 0.15), (-0.129289, 0.3, -0.15), (-0.15, 0.3, -0.2), (-0.15, 0.3, -0.129289), (-0.129289, 0.3, 0.15), (-0.2, 0.3, -0.15), (-0.15, 0.3, 0.129289), (0.2, 0, -0.15), (0.15, 0, -0.2), (-0.15, 0, -0.2), (-0.2, 0, -0.15), (0.15, 0.1, -0.129289), (0.15, 0.1, 0.129289), (0.129289, 0.1, -0.15), (0.129289, 0.1, 0.15), (-0.129289, 0.1, -0.15), (-0.129289, 0.1, 0.15), (-0.15, 0.1, -0.129289), (-0.15, 0.1, 0.129289), (0.225, 0.3, 0.05), (0.225, 0.3, -0.05), (0.225, 0.3, 0.160355), (0.160355, 0.3, 0.225), (0.160355, 0.3, -0.225), (0.225, 0.3, -0.160355), (0.05, 0.3, 0.225), (0.05, 0.3, -0.225), (-0.05, 0.3, -0.225), (-0.05, 0.3, 0.225), (-0.160355, 0.3, -0.225), (-0.160355, 0.3, 0.225), (-0.225, 0.3, 0.160355), (-0.225, 0.3, 0.05), (-0.225, 0.3, -0.160355), (-0.225, 0.3, -0.05), (0.225, 0.4, -0.160355), (0.225, 0.4, -0.05), (0.160355, 0.4, -0.225), (0.05, 0.4, -0.05), (0.05, 0.4, -0.225), (0.05, 0.4, 0.225), (0.160355, 0.4, 0.225), (0.225, 0.4, 0.160355), (0.225, 0.4, 0.05), (-0.225, 0.4, -0.05), (-0.225, 0.4, -0.160355), (-0.160355, 0.4, -0.225), (-0.05, 0.4, -0.225), (-0.05, 0.4, 0.225), (-0.160355, 0.4, 0.225), (-0.225, 0.4, 0.160355), (-0.225, 0.4, 0.05), (-0.05, 0.4, -0.05), (0.05, 0.4, 0.05), (-0.05, 0.4, 0.05), (0, 0.5, -0.05), (0, 0.5, 0.05), (-0.0707107, 0.570711, -0.05), (-0.0707107, 0.570711, 0.05), (0.0707107, 0.570711, -0.05), (0.0707107, 0.570711, 0.05), (0.141421, 0.541421, -0.05), (0.141421, 0.541421, 0.05), (0.170711, 0.470711, -0.05), (0.170711, 0.470711, 0.05), (0.141421, 0.4, -0.05), (0.141421, 0.4, 0.05), (-0.170711, 0.470711, -0.05), (-0.170711, 0.470711, 0.05), (-0.141421, 0.4, -0.05), (-0.141421, 0.4, 0.05), (-0.141421, 0.541421, -0.05), (-0.141421, 0.541421, 0.05), (0.0824423, 0.511732, 0.05), (0.103153, 0.503153, 0.05), (0.116591, 0.470711, 0.05), (0.108012, 0.45, 0.05), (-0.108012, 0.45, 0.05), (0.0207107, 0.45, 0.05), (-0.116591, 0.470711, 0.05), (-0.103153, 0.503153, 0.05), (-0.0207107, 0.45, 0.05), (-0.0824423, 0.511732, 0.05), (0.103153, 0.503153, -0.05), (0.116591, 0.470711, -0.05), (0.0824423, 0.511732, -0.05), (0.108012, 0.45, -0.05), (0.0207107, 0.45, -0.05), (-0.0207107, 0.45, -0.05), (-0.0824423, 0.511732, -0.05), (-0.103153, 0.503153, -0.05), (-0.108012, 0.45, -0.05), (-0.116591, 0.470711, -0.05)]
        normal3f[] normals = [(0, 0, 1), (0, 0, 1), (0, 0, 1), (0, 0, 1), (0, 0, 1), (0, 0, 1), (0, 0, -1), (0, 0, -1), (0, 0, -1), (0, 0, -1), (0, 0, -1), (0, 0, -1), (-1, 0, 0), (-1, 0, 0), (-1, 0, 0), (-1, 0, 0), (-1, 0, 0), (-1, 0, 0), (1, 0, 0), (1, 0, 0), (1, 0, 0), (1, 0, 0), (1, 0, 0), (1, 0, 0), (0.923879, 0, 0.382683), (1, 0, 0), (1, 0, 0), (1, 0, 0), (0.923879, 0, 0.382683), (0.923879, 0, 0.382683), (0.382683, 0, 0.923879), (0.923879, 0, 0.382683), (0.923879, 0, 0.382683), (0.923879, 0, 0.382683), (0.382683, 0, 0.923879), (0.382683, 0, 0.923879), (0.382683, 0, 0.923879), (0, 0, 1), (0.382683, 0, 0.923879), (0, 0, 1), (0.382683, 0, 0.923879), (0, 0, 1), (0, 0, 1), (-0.382683, 0, 0.923879), (0, 0, 1), (-0.382683, 0, 0.923879), (0, 0, 1), (-0.382683, 0, 0.923879), (-0.923879, 0, 0.382683), (-0.382683, 0, 0.923879), (-0.382683, 0, 0.923879), (-0.382683, 0, 0.923879), (-0.923879, 0, 0.382683), (-0.923879, 0, 0.382683), (-1, 0, 0), (-0.923879, 0, 0.382683), (-0.923879, 0, 0.382683), (-0.923879, 0, 0.382683), (-1, 0, 0), (-1, 0, 0), (0, 1, 0), (0, 1, 0), (0, 1, 0), (0, 1, 0), (0, 1, 0), (0, 1, 0), (0, 1, 0), (0, 1, 0), (0, 1, 0), (0, 1, 0), (0, 1, 0), (0, 1, 0), (0, 1, 0), (0, 1, 0), (0, 1, 0), (0, 1, 0), (0, 1, 0), (0, 1, 0), (0, 1, 0), (0, 1, 0), (0, 1, 0), (0, 1, 0), (0, 1, 0), (0, 1, 0), (0, 1, 0), (0, 1, 0), (0, 1, 0), (0, 1, 0), (0, 1, 0), (0, 1, 0), (0, 1, 0), (0, 1, 0), (0, 1, 0), (0, 1, 0), (0, 1, 0), (0, 1, 0), (0, 1, 0), (0, 1, 0), (0, 1, 0), (0, 1, 0), (0, 1, 0), (0, 1, 0), (0, 1, 0), (0, 1, 0), (0, 1, 0), (0, 1, 0), (0, 1, 0), (0, 1, 0), (0, 1, 0), (0, 1, 0), (0, 1, 0), (0, 1, 0), (0, 1, 0), (0, 1, 0), (0, 1, 0), (0, 1, 0), (0, 1, 0), (0, 1, 0), (0, 1, 0), (0, 1, 0), (0, 1, 0), (0, 1, 0), (0, 1, 0), (0, 1, 0), (0, 1, 0), (0, 1, 0), (0, 1, 0), (0, 1, 0), (0, 1, 0), (0, 1, 0), (0, 1, 0), (0, 1, 0), (0, -1, 0), (0, -1, 0), (0, -1, 0), (0, -1, 0), (0, -1, 0), (0, -1, 0), (0, -1, 0), (0, -1, 0), (0, -1, 0), (0, -1, 0), (0, -1, 0), (0, -1, 0), (0, -1, 0), (0, -1, 0), (0, -1, 0), (0, -1, 0), (0, -1, 0), (0, -1, 0), (0, -1, 0), (0, -1, 0), (0, -1, 0), (0, -1, 0), (0, -1, 0), (0, -1, 0), (0, -1, 0), (0, -1, 0), (0, -1, 0), (0, -1, 0), (0, -1, 0), (0, -1, 0), (0, -1, 0), (0, -1, 0), (0, -1, 0), (0, -1, 0), (0, -1, 0), (0, -1, 0), (0, -1, 0), (0, -1, 0), (0, -1, 0), (0, -1, 0), (0, -1, 0), (0, -1, 0), (0, 1, 0), (0, 1, 0), (0, 1, 0), (0, 1, 0), (0, 1, 0), (0, 1, 0), (0, 1, 0), (0, 1, 0), (0, 1, 0), (0, 1, 0), (0, 1, 0), (0, 1, 0), (0, 1, 0), (0, 1, 0), (0, 1, 0), (0, 1, 0), (0, 1, 0), (0, 1, 0), (0.923879, 0, -0.382683), (1, 0, 0), (1, 0, 0), (1, 0, 0), (0.923879, 0, -0.382683), (0.923879, 0, -0.382683), (0.382683, 0, -0.923879), (0.923879, 0, -0.382683), (0.923879, 0, -0.382683), (0.923879, 0, -0.382683), (0.382683, 0, -0.923879), (0.382683, 0, -0.923879), (0, 0, -1), (0.382683, 0, -0.923879), (0.382683, 0, -0.923879), (0.382683, 0, -0.923879), (0, 0, -1), (0, 0, -1), (-0.923879, 0, -0.382683), (-1, 0, 0), (-1, 0, 0), (-1, 0, 0), (-0.923879, 0, -0.382683), (-0.923879, 0, -0.382683), (-0.382683, 0, -0.923879), (-0.923879, 0, -0.382683), (-0.923879, 0, -0.382683), (-0.923879, 0, -0.382683), (-0.382683, 0, -0.923879), (-0.382683, 0, -0.923879), (-0.382683, 0, -0.923879), (0, 0, -1), (-0.382683, 0, -0.923879), (0, 0, -1), (-0.382683, 0, -0.923879), (0, 0, -1), (-0.923879, 0, -0.382683), (-0.382683, 0, -0.923879), (-0.923879, 0, -0.382683), (-0.923879, 0, 0.382683), (-0.923879, 0, -0.382683), (-0.923879, 0, -0.382683), (-0.382683, 0, -0.923879), (-0.923879, 0, -0.382683), (-0.382683, 0, -0.923879), (-0.923879, 0, -0.382683), (-0.923879, 0, 0.382683), (-0.923879, 0, 0.382683), (-0.923879, 0, 0.382683), (-0.382683, 0, 0.923879), (-0.923879, 0, 0.382683), (-0.382683, 0, 0.923879), (-0.923879, 0, 0.382683), (-0.382683, 0, 0.923879), (-0.382683, 0, -0.923879), (0.382683, 0, -0.923879), (-0.382683, 0, -0.923879), (0.382683, 0, -0.923879), (-0.382683, 0, -0.923879), (0.382683, 0, -0.923879), (0.923879, 0, -0.382683), (0.382683, 0, -0.923879), (0.382683, 0, -0.923879), (0.382683, 0, -0.923879), (0.923879, 0, -0.382683), (0.923879, 0, -0.382683), (0.923879, 0, 0.382683), (0.923879, 0, -0.382683), (0.923879, 0, -0.382683), (0.923879, 0, -0.382683), (0.923879, 0, 0.382683), (0.923879, 0, 0.382683), (-0.382683, 0, 0.923879), (0.382683, 0, 0.923879), (-0.382683, 0, 0.923879), (0.382683, 0, 0.923879), (0.923879, 0, 0.382683), (0.923879, 0, 0.382683), (0.382683, 0, 0.923879), (-0.382683, 0, 0.923879), (0.382683, 0, 0.923879), (0.923879, 0, 0.382683), (0.382683, 0, 0.923879), (0.382683, 0, 0.923879), (0, 0, 1), (0, 0, 1), (0, 0, 1), (0, 0, 1), (0, 0, 1), (0, 0, 1), (0, 0, -1), (0, 0, -1), (0, 0, -1), (0, 0, -1), (0, 0, -1), (0, 0, -1), (-1, 0, 0), (-1, 0, 0), (-1, 0, 0), (-1, 0, 0), (-1, 0, 0), (-1, 0, 0), (1, 0, 0), (1, 0, 0), (1, 0, 0), (1, 0, 0), (1, 0, 0), (1, 0, 0), (0.923879, 0, 0.382683), (1, 0, 0), (1, 0, 0), (1, 0, 0), (0.923879, 0, 0.382683), (0.923879, 0, 0.382683), (0.382683, 0, 0.923879), (0.923879, 0, 0.382683), (0.923879, 0, 0.382683), (0.923879, 0, 0.382683), (0.382683, 0, 0.923879), (0.382683, 0, 0.923879), (0.382683, 0, 0.923879), (0, 0, 1), (0.382683, 0, 0.923879), (0, 0, 1), (0.382683, 0, 0.923879), (0, 0, 1), (0, 0, 1), (-0.382683, 0, 0.923879), (0, 0, 1), (-0.382683, 0, 0.923879), (0, 0, 1), (-0.382683, 0, 0.923879), (-0.923879, 0, 0.382683), (-0.382683, 0, 0.923879), (-0.382683, 0, 0.923879), (-0.382683, 0, 0.923879), (-0.923879, 0, 0.382683), (-0.923879, 0, 0.382683), (-1, 0, 0), (-0.923879, 0, 0.382683), (-0.923879, 0, 0.382683), (-0.923879, 0, 0.382683), (-1, 0, 0), (-1, 0, 0), (0, 1, 0), (0, 1, 0), (0, 1, 0), (0, 1, 0), (0, 1, 0), (0, 1, 0), (0, 1, 0), (0, 1, 0), (0, 1, 0), (0, 1, 0), (0, 1, 0), (0, 1, 0), (0, 1, 0), (0, 1, 0), (0, 1, 0), (0, 1, 0), (0, 1, 0), (0, 1, 0), (0, 1, 0), (0, 1, 0), (0, 1, 0), (0, 1, 0), (0, 1, 0), (0, 1, 0), (0, 1, 0), (0, 1, 0), (0, 1, 0), (0, 1, 0), (0, 1, 0), (0, 1, 0), (0, 1, 0), (0, 1, 0), (0, 1, 0), (0, 1, 0), (0, 1, 0), (0, 1, 0), (0, 1, 0), (0, 1, 0), (0, 1, 0), (0, 1, 0), (0, 1, 0), (0, 1, 0), (0, 1, 0), (0, 1, 0), (0, 1, 0), (0, 1, 0), (0, 1, 0), (0, 1, 0), (0, 1, 0), (0, 1, 0), (0, 1, 0), (0, 1, 0), (0, 1, 0), (0, 1, 0), (0, 1, 0), (0, 1, 0), (0, 1, 0), (0, 1, 0), (0, 1, 0), (0, 1, 0), (0, 1, 0), (0, 1, 0), (0, 1, 0), (0, 1, 0), (0, 1, 0), (0, 1, 0), (0, 1, 0), (0, 1, 0), (0, 1, 0), (0, 1, 0), (0, 1, 0), (0, 1, 0), (0, -1, 0), (0, -1, 0), (0, -1, 0), (0, -1, 0), (0, -1, 0), (0, -1, 0), (0, -1, 0), (0, -1, 0), (0, -1, 0), (0, -1, 0), (0, -1, 0), (0, -1, 0), (0, -1, 0), (0, -1, 0), (0, -1, 0), (0, -1, 0), (0, -1, 0), (0, -1, 0), (0, -1, 0), (0, -1, 0), (0, -1, 0), (0, -1, 0), (0, -1, 0), (0, -1, 0), (0, -1, 0), (0, -1, 0), (0, -1, 0), (0, -1, 0), (0, -1, 0), (0, -1, 0), (0, -1, 0), (0, -1, 0), (0, -1, 0), (0, -1, 0), (0, -1, 0), (0, -1, 0), (0, -1, 0), (0, -1, 0), (0, -1, 0), (0, -1, 0), (0, -1, 0), (0, -1, 0), (0, 1, 0), (0, 1, 0), (0, 1, 0), (0, 1, 0), (0, 1, 0), (0, 1, 0), (0, 1, 0), (0, 1, 0), (0, 1, 0), (0, 1, 0), (0, 1, 0), (0, 1, 0), (0, 1, 0), (0, 1, 0), (0, 1, 0), (0, 1, 0), (0, 1, 0), (0, 1, 0), (0.923879, 0, -0.382683), (1, 0, 0), (1, 0, 0), (1, 0, 0), (0.923879, 0, -0.382683), (0.923879, 0, -0.382683), (0.382683, 0, -0.923879), (0.923879, 0, -0.382683), (0.923879, 0, -0.382683), (0.923879, 0, -0.382683), (0.382683, 0, -0.923879), (0.382683, 0, -0.923879), (0, 0, -1), (0.382683, 0, -0.923879), (0.382683, 0, -0.923879), (0.382683, 0, -0.923879), (0, 0, -1), (0, 0, -1), (-0.923879, 0, -0.382683), (-1, 0, 0), (-1, 0, 0), (-1, 0, 0), (-0.923879, 0, -0.382683), (-0.923879, 0, -0.382683), (-0.382683, 0, -0.923879), (-0.923879, 0, -0.382683), (-0.923879, 0, -0.382683), (-0.923879, 0, -0.382683), (-0.382683, 0, -0.923879), (-0.382683, 0, -0.923879), (-0.382683, 0, -0.923879), (0, 0, -1), (-0.382683, 0, -0.923879), (0, 0, -1), (-0.382683, 0, -0.923879), (0, 0, -1), (-0.923879, 0, -0.382683), (-0.382683, 0, -0.923879), (-0.923879, 0, -0.382683), (-0.923879, 0, 0.382683), (-0.923879, 0, -0.382683), (-0.923879, 0, -0.382683), (-0.382683, 0, -0.923879), (-0.923879, 0, -0.382683), (-0.382683, 0, -0.923879), (-0.923879, 0, -0.382683), (-0.923879, 0, 0.382683), (-0.923879, 0, 0.382683), (-0.923879, 0, 0.382683), (-0.382683, 0, 0.923879), (-0.923879, 0, 0.382683), (-0.382683, 0, 0.923879), (-0.923879, 0, 0.382683), (-0.382683, 0, 0.923879), (-0.382683, 0, -0.923879), (0.382683, 0, -0.923879), (-0.382683, 0, -0.923879), (0.382683, 0, -0.923879), (-0.382683, 0, -0.923879), (0.382683, 0, -0.923879), (0.923879, 0, -0.382683), (0.382683, 0, -0.923879), (0.382683, 0, -0.923879), (0.382683, 0, -0.923879), (0.923879, 0, -0.382683), (0.923879, 0, -0.382683), (0.923879, 0, 0.382683), (0.923879, 0, -0.382683), (0.923879, 0, -0.382683), (0.923879, 0, -0.382683), (0.923879, 0, 0.382683), (0.923879, 0, 0.382683), (-0.382683, 0, 0.923879), (0.382683, 0, 0.923879), (-0.382683, 0, 0.923879), (0.382683, 0, 0.923879), (0.923879, 0, 0.382683), (0.923879, 0, 0.382683), (0.382683, 0, 0.923879), (-0.382683, 0, 0.923879), (0.382683, 0, 0.923879), (0.923879, 0, 0.382683), (0.382683, 0, 0.923879), (0.382683, 0, 0.923879), (0, -1, 0), (0, -1, 0), (0, -1, 0), (0, -1, 0), (0, -1, 0), (0, -1, 0), (0, -1, 0), (0, -1, 0), (0, -1, 0), (0, -1, 0), (0, -1, 0), (0, -1, 0), (0, -1, 0), (0, -1, 0), (0, -1, 0), (0, -1, 0), (0, -1, 0), (0, -1, 0), (0, -1, 0), (0, -1, 0), (0, -1, 0), (0, -1, 0), (0, -1, 0), (0, -1, 0), (0, -1, 0), (0, -1, 0), (0, -1, 0), (0, -1, 0), (0, -1, 0), (0, -1, 0), (0, -1, 0), (0, -1, 0), (0, -1, 0), (0, -1, 0), (0, -1, 0), (0, -1, 0), (0, -1, 0), (0, -1, 0), (0, -1, 0), (0, -1, 0), (0, -1, 0), (0, -1, 0), (0, 1, 0), (0, 1, 0), (0, 1, 0), (0, 1, 0), (0, 1, 0), (0, 1, 0), (0, 1, 0), (0, 1, 0), (0, 1, 0), (0, 0, 1), (0.382683, 0, 0.923879), (0, 0, 1), (0.382683, 0, 0.923879), (0, 0, 1), (0.382683, 0, 0.923879), (0.923879, 0, 0.382683), (0.382683, 0, 0.923879), (0.382683, 0, 0.923879), (0.382683, 0, 0.923879), (0.923879, 0, 0.382683), (0.923879, 0, 0.382683), (1, 0, 0), (0.923879, 0, 0.382683), (0.923879, 0, 0.382683), (0.923879, 0, 0.382683), (1, 0, 0), (1, 0, 0), (-0.923879, 0, -0.382683), (-1, 0, 0), (-1, 0, 0), (-1, 0, 0), (-0.923879, 0, -0.382683), (-0.923879, 0, -0.382683), (-0.382683, 0, -0.923879), (-0.923879, 0, -0.382683), (-0.923879, 0, -0.382683), (-0.923879, 0, -0.382683), (-0.382683, 0, -0.923879), (-0.382683, 0, -0.923879), (-0.382683, 0, -0.923879), (0, 0, -1), (-0.382683, 0, -0.923879), (0, 0, -1), (-0.382683, 0, -0.923879), (0, 0, -1), (-0.382683, 0, 0.923879), (0, 0, 1), (0, 0, 1), (0, 0, 1), (-0.382683, 0, 0.923879), (-0.382683, 0, 0.923879), (-0.923879, 0, 0.382683), (-0.382683, 0, 0.923879), (-0.382683, 0, 0.923879), (-0.382683, 0, 0.923879), (-0.923879, 0, 0.382683), (-0.923879, 0, 0.382683), (-1, 0, 0), (-0.923879, 0, 0.382683), (-0.923879, 0, 0.382683), (-0.923879, 0, 0.382683), (-1, 0, 0), (-1, 0, 0), (0.923879, 0, -0.382683), (1, 0, 0), (1, 0, 0), (1, 0, 0), (0.923879, 0, -0.382683), (0.923879, 0, -0.382683), (0.382683, 0, -0.923879), (0.923879, 0, -0.382683), (0.923879, 0, -0.382683), (0.923879, 0, -0.382683), (0.382683, 0, -0.923879), (0.382683, 0, -0.923879), (0.382683, 0, -0.923879), (0, 0, -1), (0.382683, 0, -0.923879), (0, 0, -1), (0.382683, 0, -0.923879), (0, 0, -1), (0, 1, 0), (0, 1, 0), (0, 1, 0), (0, 1, 0), (0, 1, 0), (0, 1, 0), (0, 1, 0), (0, 1, 0), (0, 1, 0), (0, 1, 0), (0, 1, 0), (0, 1, 0), (0, 1, 0), (0, 1, 0), (0, 1, 0), (0, 1, 0), (0, 1, 0), (0, 1, 0), (0, 1, 0), (0, 1, 0), (0, 1, 0), (0, 1, 0), (0, 1, 0), (0, 1, 0), (0, 1, 0), (0, 1, 0), (0, 1, 0), (1, 0, 0), (1, 0, 0), (1, 0, 0), (1, 0, 0), (1, 0, 0), (1, 0, 0), (0, 1, 0), (0, 1, 0), (0, 1, 0), (0, 1, 0), (0, 1, 0), (0, 1, 0), (0, 1, 0), (0, 1, 0), (0, 1, 0), (0, 1, 0), (0, 1, 0), (0, 1, 0), (0, 1, 0), (0, 1, 0), (0, 1, 0), (0, 1, 0), (0, 1, 0), (0, 1, 0), (0, 1, 0), (0, 1, 0), (0, 1, 0), (0, 1, 0), (0, 1, 0), (0, 1, 0), (0, 1, 0), (0, 1, 0), (0, 1, 0), (0, 1, 0), (0, 1, 0), (0, 1, 0), (-1, 0, 0), (-1, 0, 0), (-1, 0, 0), (-1, 0, 0), (-1, 0, 0), (-1, 0, 0), (0, 0, -1), (0, 0, -1), (0, 0, -1), (0, 0, -1), (0, 0, -1), (0, 0, -1), (0, 0, 1), (0, 0, 1), (0, 0, 1), (0, 0, 1), (0, 0, 1), (0, 0, 1), (0.19509, 0.980785, 0), (0.707107, 0.707107, 0), (0.707107, 0.707107, 0), (0.707107, 0.707107, 0), (0.19509, 0.980785, 0), (0.19509, 0.980785, 0), (-0.707107, 0.707107, 0), (-0.19509, 0.980785, 0), (-0.19509, 0.980785, 0), (-0.19509, 0.980785, 0), (-0.707107, 0.707107, 0), (-0.707107, 0.707107, 0), (-0.19509, 0.980785, 0), (0.707107, 0.707107, 0), (0.707107, 0.707107, 0), (0.707107, 0.707107, 0), (-0.19509, 0.980785, 0), (-0.19509, 0.980785, 0), (0.707107, 0.707107, 0), (1, 0, 0), (1, 0, 0), (1, 0, 0), (0.707107, 0.707107, 0), (0.707107, 0.707107, 0), (1, 0, 0), (0.923879, -0.382683, 0), (1, 0, 0), (0.923879, -0.382683, 0), (1, 0, 0), (0.923879, -0.382683, 0), (-0.923879, -0.382683, 0), (-1, 0, 0), (-1, 0, 0), (-1, 0, 0), (-0.923879, -0.382683, 0), (-0.923879, -0.382683, 0), (-1, 0, 0), (-0.707107, 0.707107, 0), (-1, 0, 0), (-0.707107, 0.707107, 0), (-1, 0, 0), (-0.707107, 0.707107, 0), (-0.707107, 0.707107, 0), (0.19509, 0.980785, 0), (0.19509, 0.980785, 0), (0.19509, 0.980785, 0), (-0.707107, 0.707107, 0), (-0.707107, 0.707107, 0), (0, 0, 1), (0, 0, 1), (0, 0, 1), (0, 0, 1), (0, 0, 1), (0, 0, 1), (0, 0, 1), (0, 0, 1), (0, 0, 1), (0, 0, 1), (0, 0, 1), (0, 0, 1), (0, 0, 1), (0, 0, 1), (0, 0, 1), (0, 0, 1), (0, 0, 1), (0, 0, 1), (0, 0, 1), (0, 0, 1), (0, 0, 1), (0, 0, 1), (0, 0, 1), (0, 0, 1), (0, 0, 1), (0, 0, 1), (0, 0, 1), (0, 0, 1), (0, 0, 1), (0, 0, 1), (0, 0, 1), (0, 0, 1), (0, 0, 1), (0, 0, 1), (0, 0, 1), (0, 0, 1), (0, 0, 1), (0, 0, 1), (0, 0, 1), (0, 0, 1), (0, 0, 1), (0, 0, 1), (0, 0, 1), (0, 0, 1), (0, 0, 1), (0, 0, 1), (0, 0, 1), (0, 0, 1), (0, 0, 1), (0, 0, 1), (0, 0, 1), (0, 0, 1), (0, 0, 1), (0, 0, 1), (0, 0, 1), (0, 0, 1), (0, 0, 1), (0, 0, 1), (0, 0, 1), (0, 0, 1), (0, 0, 1), (0, 0, 1), (0, 0, 1), (0, 0, -1), (0, 0, -1), (0, 0, -1), (0, 0, -1), (0, 0, -1), (0, 0, -1), (0, 0, -1), (0, 0, -1), (0, 0, -1), (0, 0, -1), (0, 0, -1), (0, 0, -1), (0, 0, -1), (0, 0, -1), (0, 0, -1), (0, 0, -1), (0, 0, -1), (0, 0, -1), (0, 0, -1), (0, 0, -1), (0, 0, -1), (0, 0, -1), (0, 0, -1), (0, 0, -1), (0, 0, -1), (0, 0, -1), (0, 0, -1), (0, 0, -1), (0, 0, -1), (0, 0, -1), (0, 0, -1), (0, 0, -1), (0, 0, -1), (0, 0, -1), (0, 0, -1), (0, 0, -1), (0, 0, -1), (0, 0, -1), (0, 0, -1), (0, 0, -1), (0, 0, -1), (0, 0, -1), (0, 0, -1), (0, 0, -1), (0, 0, -1), (0, 0, -1), (0, 0, -1), (0, 0, -1), (0, 0, -1), (0, 0, -1), (0, 0, -1), (0, 0, -1), (0, 0, -1), (0, 0, -1), (0, 0, -1), (0, 0, -1), (0, 0, -1), (0, 0, -1), (0, 0, -1), (0, 0, -1), (0, 0, -1), (0, 0, -1), (0, 0, -1), (-0.19509, -0.980785, 0), (0.707107, -0.707107, 0), (-0.19509, -0.980785, 0), (0.707107, -0.707107, 0), (-0.19509, -0.980785, 0), (0.707107, -0.707107, 0), (0.707107, -0.707107, 0), (1, 0, 0), (0.707107, -0.707107, 0), (1, 0, 0), (0.707107, -0.707107, 0), (1, 0, 0), (0.19509, -0.980785, 0), (0.707107, -0.707107, 0), (0.707107, -0.707107, 0), (0.707107, -0.707107, 0), (0.19509, -0.980785, 0), (0.19509, -0.980785, 0), (-0.55557, 0.83147, 0), (0, 1, 0), (-0.55557, 0.83147, 0), (0, 1, 0), (-0.55557, 0.83147, 0), (0, 1, 0), (-1, 0, 0), (-0.707107, -0.707107, 0), (-1, 0, 0), (-0.707107, -0.707107, 0), (-1, 0, 0), (-0.707107, -0.707107, 0), (0.19509, -0.980785, 0), (-0.707107, -0.707107, 0), (-0.707107, -0.707107, 0), (-0.707107, -0.707107, 0), (0.19509, -0.980785, 0), (0.19509, -0.980785, 0), (1, 0, 0), (0.55557, 0.83147, 0), (1, 0, 0), (0.55557, 0.83147, 0), (1, 0, 0), (0.55557, 0.83147, 0), (0.55557, 0.83147, 0), (0, 1, 0), (0, 1, 0), (0, 1, 0), (0.55557, 0.83147, 0), (0.55557, 0.83147, 0), (-0.707107, -0.707107, 0), (-0.19509, -0.980785, 0), (-0.19509, -0.980785, 0), (-0.19509, -0.980785, 0), (-0.707107, -0.707107, 0), (-0.707107, -0.707107, 0), (-0.55557, 0.83147, 0), (-1, 0, 0), (-1, 0, 0), (-1, 0, 0), (-0.55557, 0.83147, 0), (-0.55557, 0.83147, 0)] (interpolation = "faceVarying")
        texCoord2f[] primvars:st = [(0.46875, 0.025), (0.46875, 0.225), (0.46875, 0.025), (0.46875, 0.225), (0.46875, 0.025), (0.46875, 0.225), (0.46875, 0.225), (0.46875, 0.025), (0.46875, 0.025), (0.46875, 0.025), (0.46875, 0.225), (0.46875, 0.225), (0.46875, 0.025), (0.46875, 0.225), (0.46875, 0.025), (0.46875, 0.225), (0.46875, 0.025), (0.46875, 0.225), (0.46875, 0.225), (0.46875, 0.025), (0.46875, 0.225), (0.46875, 0.025), (0.46875, 0.225), (0.46875, 0.025), (0.09375, 0.275), (0.09375, 0.475), (0.09375, 0.275), (0.09375, 0.475), (0.09375, 0.275), (0.09375, 0.475), (0.09375, 0.275), (0.09375, 0.475), (0.09375, 0.275), (0.09375, 0.475), (0.09375, 0.275), (0.09375, 0.475), (0.09375, 0.275), (0.09375, 0.475), (0.09375, 0.475), (0.09375, 0.475), (0.09375, 0.275), (0.09375, 0.275), (0.09375, 0.275), (0.09375, 0.475), (0.09375, 0.475), (0.09375, 0.475), (0.09375, 0.275), (0.09375, 0.275), (0.09375, 0.275), (0.09375, 0.475), (0.09375, 0.275), (0.09375, 0.475), (0.09375, 0.275), (0.09375, 0.475), (0.09375, 0.275), (0.09375, 0.475), (0.09375, 0.275), (0.09375, 0.475), (0.09375, 0.275), (0.09375, 0.475), (0.09375, 0.275), (0.09375, 0.275), (0.09375, 0.275), (0.09375, 0.275), (0.09375, 0.275), (0.09375, 0.275), (0.09375, 0.275), (0.09375, 0.275), (0.09375, 0.275), (0.09375, 0.275), (0.09375, 0.275), (0.09375, 0.275), (0.09375, 0.275), (0.09375, 0.275), (0.09375, 0.275), (0.09375, 0.275), (0.09375, 0.275), (0.09375, 0.275), (0.09375, 0.275), (0.09375, 0.275), (0.09375, 0.275), (0.09375, 0.275), (0.09375, 0.275), (0.09375, 0.275), (0.09375, 0.275), (0.09375, 0.275), (0.09375, 0.275), (0.09375, 0.275), (0.09375, 0.275), (0.09375, 0.275), (0.09375, 0.275), (0.09375, 0.275), (0.09375, 0.275), (0.09375, 0.275), (0.09375, 0.275), (0.09375, 0.275), (0.09375, 0.275), (0.09375, 0.275), (0.09375, 0.275), (0.09375, 0.275), (0.09375, 0.275), (0.09375, 0.275), (0.09375, 0.275), (0.09375, 0.275), (0.09375, 0.275), (0.09375, 0.275), (0.09375, 0.275), (0.09375, 0.275), (0.09375, 0.275), (0.09375, 0.275), (0.09375, 0.275), (0.09375, 0.275), (0.09375, 0.275), (0.09375, 0.275), (0.09375, 0.275), (0.09375, 0.275), (0.09375, 0.275), (0.09375, 0.275), (0.09375, 0.275), (0.09375, 0.275), (0.09375, 0.275), (0.09375, 0.275), (0.09375, 0.275), (0.09375, 0.275), (0.09375, 0.275), (0.09375, 0.275), (0.09375, 0.275), (0.09375, 0.275), (0.09375, 0.275), (0.09375, 0.275), (0.09375, 0.275), (0.09375, 0.275), (0.09375, 0.475), (0.09375, 0.475), (0.09375, 0.475), (0.09375, 0.475), (0.09375, 0.475), (0.09375, 0.475), (0.09375, 0.475), (0.09375, 0.475), (0.09375, 0.475), (0.09375, 0.475), (0.09375, 0.475), (0.09375, 0.475), (0.09375, 0.475), (0.09375, 0.475), (0.09375, 0.475), (0.09375, 0.475), (0.09375, 0.475), (0.09375, 0.475), (0.09375, 0.475), (0.09375, 0.475), (0.09375, 0.475), (0.09375, 0.475), (0.09375, 0.475), (0.09375, 0.475), (0.09375, 0.475), (0.09375, 0.475), (0.09375, 0.475), (0.09375, 0.475), (0.09375, 0.475), (0.09375, 0.475), (0.09375, 0.475), (0.09375, 0.475), (0.09375, 0.475), (0.09375, 0.475), (0.09375, 0.475), (0.09375, 0.475), (0.09375, 0.475), (0.09375, 0.475), (0.09375, 0.475), (0.09375, 0.475), (0.09375, 0.475), (0.09375, 0.475), (0.09375, 0.408333), (0.09375, 0.408333), (0.09375, 0.408333), (0.09375, 0.408333), (0.09375, 0.408333), (0.09375, 0.408333), (0.09375, 0.408333), (0.09375, 0.408333), (0.09375, 0.408333), (0.09375, 0.408333), (0.09375, 0.408333), (0.09375, 0.408333), (0.09375, 0.408333), (0.09375, 0.408333), (0.09375, 0.408333), (0.09375, 0.408333), (0.09375, 0.408333), (0.09375, 0.408333), (0.09375, 0.475), (0.09375, 0.275), (0.09375, 0.475), (0.09375, 0.275), (0.09375, 0.475), (0.09375, 0.275), (0.09375, 0.475), (0.09375, 0.275), (0.09375, 0.475), (0.09375, 0.275), (0.09375, 0.475), (0.09375, 0.275), (0.09375, 0.475), (0.09375, 0.275), (0.09375, 0.475), (0.09375, 0.275), (0.09375, 0.475), (0.09375, 0.275), (0.09375, 0.275), (0.09375, 0.475), (0.09375, 0.275), (0.09375, 0.475), (0.09375, 0.275), (0.09375, 0.475), (0.09375, 0.275), (0.09375, 0.475), (0.09375, 0.275), (0.09375, 0.475), (0.09375, 0.275), (0.09375, 0.475), (0.09375, 0.275), (0.09375, 0.475), (0.09375, 0.475), (0.09375, 0.475), (0.09375, 0.275), (0.09375, 0.275), (0.09375, 0.408333), (0.09375, 0.275), (0.09375, 0.275), (0.09375, 0.275), (0.09375, 0.408333), (0.09375, 0.275), (0.09375, 0.275), (0.09375, 0.408333), (0.09375, 0.408333), (0.09375, 0.408333), (0.09375, 0.275), (0.09375, 0.408333), (0.09375, 0.275), (0.09375, 0.408333), (0.09375, 0.408333), (0.09375, 0.408333), (0.09375, 0.275), (0.09375, 0.275), (0.09375, 0.408333), (0.09375, 0.275), (0.09375, 0.275), (0.09375, 0.275), (0.09375, 0.408333), (0.09375, 0.408333), (0.09375, 0.408333), (0.09375, 0.275), (0.09375, 0.408333), (0.09375, 0.275), (0.09375, 0.408333), (0.09375, 0.275), (0.09375, 0.408333), (0.09375, 0.275), (0.09375, 0.408333), (0.09375, 0.275), (0.09375, 0.408333), (0.09375, 0.275), (0.09375, 0.275), (0.09375, 0.408333), (0.09375, 0.408333), (0.09375, 0.408333), (0.09375, 0.275), (0.09375, 0.408333), (0.09375, 0.408333), (0.09375, 0.275), (0.09375, 0.275), (0.09375, 0.275), (0.09375, 0.408333), (0.09375, 0.275), (0.46875, 0.025), (0.46875, 0.225), (0.46875, 0.025), (0.46875, 0.225), (0.46875, 0.025), (0.46875, 0.225), (0.46875, 0.225), (0.46875, 0.025), (0.46875, 0.025), (0.46875, 0.025), (0.46875, 0.225), (0.46875, 0.225), (0.46875, 0.025), (0.46875, 0.225), (0.46875, 0.025), (0.46875, 0.225), (0.46875, 0.025), (0.46875, 0.225), (0.46875, 0.225), (0.46875, 0.025), (0.46875, 0.225), (0.46875, 0.025), (0.46875, 0.225), (0.46875, 0.025), (0.09375, 0.275), (0.09375, 0.475), (0.09375, 0.275), (0.09375, 0.475), (0.09375, 0.275), (0.09375, 0.475), (0.09375, 0.275), (0.09375, 0.475), (0.09375, 0.275), (0.09375, 0.475), (0.09375, 0.275), (0.09375, 0.475), (0.09375, 0.275), (0.09375, 0.475), (0.09375, 0.475), (0.09375, 0.475), (0.09375, 0.275), (0.09375, 0.275), (0.09375, 0.275), (0.09375, 0.475), (0.09375, 0.475), (0.09375, 0.475), (0.09375, 0.275), (0.09375, 0.275), (0.09375, 0.275), (0.09375, 0.475), (0.09375, 0.275), (0.09375, 0.475), (0.09375, 0.275), (0.09375, 0.475), (0.09375, 0.275), (0.09375, 0.475), (0.09375, 0.275), (0.09375, 0.475), (0.09375, 0.275), (0.09375, 0.475), (0.09375, 0.275), (0.09375, 0.275), (0.09375, 0.275), (0.09375, 0.275), (0.09375, 0.275), (0.09375, 0.275), (0.09375, 0.275), (0.09375, 0.275), (0.09375, 0.275), (0.09375, 0.275), (0.09375, 0.275), (0.09375, 0.275), (0.09375, 0.275), (0.09375, 0.275), (0.09375, 0.275), (0.09375, 0.275), (0.09375, 0.275), (0.09375, 0.275), (0.09375, 0.275), (0.09375, 0.275), (0.09375, 0.275), (0.09375, 0.275), (0.09375, 0.275), (0.09375, 0.275), (0.09375, 0.275), (0.09375, 0.275), (0.09375, 0.275), (0.09375, 0.275), (0.09375, 0.275), (0.09375, 0.275), (0.09375, 0.275), (0.09375, 0.275), (0.09375, 0.275), (0.09375, 0.275), (0.09375, 0.275), (0.09375, 0.275), (0.09375, 0.275), (0.09375, 0.275), (0.09375, 0.275), (0.09375, 0.275), (0.09375, 0.275), (0.09375, 0.275), (0.09375, 0.275), (0.09375, 0.275), (0.09375, 0.275), (0.09375, 0.275), (0.09375, 0.275), (0.09375, 0.275), (0.09375, 0.275), (0.09375, 0.275), (0.09375, 0.275), (0.09375, 0.275), (0.09375, 0.275), (0.09375, 0.275), (0.09375, 0.275), (0.09375, 0.275), (0.09375, 0.275), (0.09375, 0.275), (0.09375, 0.275), (0.09375, 0.275), (0.09375, 0.275), (0.09375, 0.275), (0.09375, 0.275), (0.09375, 0.275), (0.09375, 0.275), (0.09375, 0.275), (0.09375, 0.275), (0.09375, 0.275), (0.09375, 0.275), (0.09375, 0.275), (0.09375, 0.275), (0.09375, 0.275), (0.09375, 0.475), (0.09375, 0.475), (0.09375, 0.475), (0.09375, 0.475), (0.09375, 0.475), (0.09375, 0.475), (0.09375, 0.475), (0.09375, 0.475), (0.09375, 0.475), (0.09375, 0.475), (0.09375, 0.475), (0.09375, 0.475), (0.09375, 0.475), (0.09375, 0.475), (0.09375, 0.475), (0.09375, 0.475), (0.09375, 0.475), (0.09375, 0.475), (0.09375, 0.475), (0.09375, 0.475), (0.09375, 0.475), (0.09375, 0.475), (0.09375, 0.475), (0.09375, 0.475), (0.09375, 0.475), (0.09375, 0.475), (0.09375, 0.475), (0.09375, 0.475), (0.09375, 0.475), (0.09375, 0.475), (0.09375, 0.475), (0.09375, 0.475), (0.09375, 0.475), (0.09375, 0.475), (0.09375, 0.475), (0.09375, 0.475), (0.09375, 0.475), (0.09375, 0.475), (0.09375, 0.475), (0.09375, 0.475), (0.09375, 0.475), (0.09375, 0.475), (0.09375, 0.408333), (0.09375, 0.408333), (0.09375, 0.408333), (0.09375, 0.408333), (0.09375, 0.408333), (0.09375, 0.408333), (0.09375, 0.408333), (0.09375, 0.408333), (0.09375, 0.408333), (0.09375, 0.408333), (0.09375, 0.408333), (0.09375, 0.408333), (0.09375, 0.408333), (0.09375, 0.408333), (0.09375, 0.408333), (0.09375, 0.408333), (0.09375, 0.408333), (0.09375, 0.408333), (0.09375, 0.475), (0.09375, 0.275), (0.09375, 0.475), (0.09375, 0.275), (0.09375, 0.475), (0.09375, 0.275), (0.09375, 0.475), (0.09375, 0.275), (0.09375, 0.475), (0.09375, 0.275), (0.09375, 0.475), (0.09375, 0.275), (0.09375, 0.475), (0.09375, 0.275), (0.09375, 0.475), (0.09375, 0.275), (0.09375, 0.475), (0.09375, 0.275), (0.09375, 0.275), (0.09375, 0.475), (0.09375, 0.275), (0.09375, 0.475), (0.09375, 0.275), (0.09375, 0.475), (0.09375, 0.275), (0.09375, 0.475), (0.09375, 0.275), (0.09375, 0.475), (0.09375, 0.275), (0.09375, 0.475), (0.09375, 0.275), (0.09375, 0.475), (0.09375, 0.475), (0.09375, 0.475), (0.09375, 0.275), (0.09375, 0.275), (0.09375, 0.408333), (0.09375, 0.275), (0.09375, 0.275), (0.09375, 0.275), (0.09375, 0.408333), (0.09375, 0.275), (0.09375, 0.275), (0.09375, 0.408333), (0.09375, 0.408333), (0.09375, 0.408333), (0.09375, 0.275), (0.09375, 0.408333), (0.09375, 0.275), (0.09375, 0.408333), (0.09375, 0.408333), (0.09375, 0.408333), (0.09375, 0.275), (0.09375, 0.275), (0.09375, 0.408333), (0.09375, 0.275), (0.09375, 0.275), (0.09375, 0.275), (0.09375, 0.408333), (0.09375, 0.408333), (0.09375, 0.408333), (0.09375, 0.275), (0.09375, 0.408333), (0.09375, 0.275), (0.09375, 0.408333), (0.09375, 0.275), (0.09375, 0.408333), (0.09375, 0.275), (0.09375, 0.408333), (0.09375, 0.275), (0.09375, 0.408333), (0.09375, 0.275), (0.09375, 0.275), (0.09375, 0.408333), (0.09375, 0.408333), (0.09375, 0.408333), (0.09375, 0.275), (0.09375, 0.408333), (0.09375, 0.408333), (0.09375, 0.275), (0.09375, 0.275), (0.09375, 0.275), (0.09375, 0.408333), (0.09375, 0.275), (0.09375, 0.325), (0.09375, 0.325), (0.09375, 0.325), (0.09375, 0.325), (0.09375, 0.325), (0.09375, 0.325), (0.09375, 0.325), (0.09375, 0.325), (0.09375, 0.325), (0.09375, 0.325), (0.09375, 0.325), (0.09375, 0.325), (0.09375, 0.325), (0.09375, 0.325), (0.09375, 0.325), (0.09375, 0.325), (0.09375, 0.325), (0.09375, 0.325), (0.09375, 0.325), (0.09375, 0.325), (0.09375, 0.325), (0.09375, 0.325), (0.09375, 0.325), (0.09375, 0.325), (0.09375, 0.325), (0.09375, 0.325), (0.09375, 0.325), (0.09375, 0.325), (0.09375, 0.325), (0.09375, 0.325), (0.09375, 0.325), (0.09375, 0.325), (0.09375, 0.325), (0.09375, 0.325), (0.09375, 0.325), (0.09375, 0.325), (0.09375, 0.325), (0.09375, 0.325), (0.09375, 0.325), (0.09375, 0.325), (0.09375, 0.325), (0.09375, 0.325), (0.09375, 0.425), (0.09375, 0.425), (0.09375, 0.425), (0.09375, 0.425), (0.09375, 0.425), (0.09375, 0.425), (0.09375, 0.425), (0.09375, 0.425), (0.09375, 0.425), (0.09375, 0.325), (0.09375, 0.425), (0.09375, 0.425), (0.09375, 0.425), (0.09375, 0.325), (0.09375, 0.325), (0.09375, 0.325), (0.09375, 0.425), (0.09375, 0.325), (0.09375, 0.425), (0.09375, 0.325), (0.09375, 0.425), (0.09375, 0.325), (0.09375, 0.425), (0.09375, 0.325), (0.09375, 0.425), (0.09375, 0.325), (0.09375, 0.425), (0.09375, 0.425), (0.09375, 0.325), (0.09375, 0.425), (0.09375, 0.325), (0.09375, 0.425), (0.09375, 0.325), (0.09375, 0.425), (0.09375, 0.325), (0.09375, 0.425), (0.09375, 0.325), (0.09375, 0.425), (0.09375, 0.325), (0.09375, 0.425), (0.09375, 0.325), (0.09375, 0.325), (0.09375, 0.325), (0.09375, 0.425), (0.09375, 0.425), (0.09375, 0.425), (0.09375, 0.325), (0.09375, 0.425), (0.09375, 0.325), (0.09375, 0.425), (0.09375, 0.325), (0.09375, 0.425), (0.09375, 0.325), (0.09375, 0.425), (0.09375, 0.325), (0.09375, 0.425), (0.09375, 0.325), (0.09375, 0.425), (0.09375, 0.325), (0.09375, 0.425), (0.09375, 0.325), (0.09375, 0.425), (0.09375, 0.325), (0.09375, 0.325), (0.09375, 0.425), (0.09375, 0.325), (0.09375, 0.425), (0.09375, 0.325), (0.09375, 0.425), (0.09375, 0.325), (0.09375, 0.425), (0.09375, 0.325), (0.09375, 0.425), (0.09375, 0.325), (0.09375, 0.425), (0.09375, 0.325), (0.09375, 0.425), (0.09375, 0.425), (0.09375, 0.425), (0.09375, 0.325), (0.09375, 0.325), (0.09375, 0.425), (0.09375, 0.425), (0.09375, 0.425), (0.09375, 0.425), (0.09375, 0.425), (0.09375, 0.425), (0.09375, 0.425), (0.09375, 0.425), (0.09375, 0.425), (0.09375, 0.425), (0.09375, 0.425), (0.09375, 0.425), (0.09375, 0.425), (0.09375, 0.425), (0.09375, 0.425), (0.09375, 0.425), (0.09375, 0.425), (0.09375, 0.425), (0.09375, 0.425), (0.09375, 0.425), (0.09375, 0.425), (0.09375, 0.425), (0.09375, 0.425), (0.09375, 0.425), (0.09375, 0.425), (0.09375, 0.425), (0.09375, 0.425), (0.46875, 0.225), (0.46875, 0.025), (0.46875, 0.225), (0.46875, 0.025), (0.46875, 0.225), (0.46875, 0.025), (0.46875, 0.225), (0.46875, 0.225), (0.46875, 0.225), (0.46875, 0.225), (0.46875, 0.225), (0.46875, 0.225), (0.46875, 0.225), (0.46875, 0.225), (0.46875, 0.225), (0.46875, 0.225), (0.46875, 0.225), (0.46875, 0.225), (0.46875, 0.225), (0.46875, 0.225), (0.46875, 0.225), (0.46875, 0.225), (0.46875, 0.225), (0.46875, 0.225), (0.46875, 0.225), (0.46875, 0.225), (0.46875, 0.225), (0.46875, 0.225), (0.46875, 0.225), (0.46875, 0.225), (0.46875, 0.225), (0.46875, 0.225), (0.46875, 0.225), (0.46875, 0.225), (0.46875, 0.225), (0.46875, 0.225), (0.46875, 0.025), (0.46875, 0.225), (0.46875, 0.025), (0.46875, 0.225), (0.46875, 0.025), (0.46875, 0.225), (0.46875, 0.225), (0.46875, 0.025), (0.46875, 0.025), (0.46875, 0.025), (0.46875, 0.225), (0.46875, 0.225), (0.46875, 0.225), (0.46875, 0.025), (0.46875, 0.025), (0.46875, 0.025), (0.46875, 0.225), (0.46875, 0.225), (0.46875, 0.225), (0.46875, 0.183579), (0.46875, 0.183579), (0.46875, 0.183579), (0.46875, 0.225), (0.46875, 0.225), (0.46875, 0.183579), (0.46875, 0.225), (0.46875, 0.225), (0.46875, 0.225), (0.46875, 0.183579), (0.46875, 0.183579), (0.46875, 0.225), (0.46875, 0.207843), (0.46875, 0.207843), (0.46875, 0.207843), (0.46875, 0.225), (0.46875, 0.225), (0.46875, 0.207843), (0.46875, 0.166421), (0.46875, 0.166421), (0.46875, 0.166421), (0.46875, 0.207843), (0.46875, 0.207843), (0.46875, 0.166421), (0.46875, 0.125), (0.46875, 0.166421), (0.46875, 0.125), (0.46875, 0.166421), (0.46875, 0.125), (0.46875, 0.125), (0.46875, 0.166421), (0.46875, 0.166421), (0.46875, 0.166421), (0.46875, 0.125), (0.46875, 0.125), (0.46875, 0.166421), (0.46875, 0.207843), (0.46875, 0.166421), (0.46875, 0.207843), (0.46875, 0.166421), (0.46875, 0.207843), (0.46875, 0.207843), (0.46875, 0.225), (0.46875, 0.225), (0.46875, 0.225), (0.46875, 0.207843), (0.46875, 0.207843), (0.46875, 0.183579), (0.46875, 0.190451), (0.46875, 0.225), (0.46875, 0.225), (0.46875, 0.190451), (0.46875, 0.207843), (0.46875, 0.185426), (0.46875, 0.207843), (0.46875, 0.190451), (0.46875, 0.166421), (0.46875, 0.207843), (0.46875, 0.185426), (0.46875, 0.166421), (0.46875, 0.166421), (0.46875, 0.207843), (0.46875, 0.154289), (0.46875, 0.166421), (0.46875, 0.166421), (0.46875, 0.154289), (0.46875, 0.125), (0.46875, 0.166421), (0.46875, 0.125), (0.46875, 0.154289), (0.46875, 0.125), (0.46875, 0.154289), (0.46875, 0.125), (0.46875, 0.154289), (0.46875, 0.154289), (0.46875, 0.154289), (0.46875, 0.154289), (0.46875, 0.125), (0.46875, 0.154289), (0.46875, 0.166421), (0.46875, 0.166421), (0.46875, 0.154289), (0.46875, 0.166421), (0.46875, 0.166421), (0.46875, 0.166421), (0.46875, 0.185426), (0.46875, 0.166421), (0.46875, 0.185426), (0.46875, 0.207843), (0.46875, 0.154289), (0.46875, 0.154289), (0.46875, 0.154289), (0.46875, 0.190451), (0.46875, 0.154289), (0.46875, 0.154289), (0.46875, 0.154289), (0.46875, 0.190451), (0.46875, 0.183579), (0.46875, 0.207843), (0.46875, 0.185426), (0.46875, 0.190451), (0.46875, 0.183579), (0.46875, 0.190451), (0.46875, 0.154289), (0.46875, 0.190451), (0.46875, 0.225), (0.46875, 0.207843), (0.46875, 0.190451), (0.46875, 0.183579), (0.46875, 0.225), (0.46875, 0.207843), (0.46875, 0.166421), (0.46875, 0.185426), (0.46875, 0.207843), (0.46875, 0.185426), (0.46875, 0.190451), (0.46875, 0.166421), (0.46875, 0.166421), (0.46875, 0.207843), (0.46875, 0.190451), (0.46875, 0.225), (0.46875, 0.207843), (0.46875, 0.166421), (0.46875, 0.154289), (0.46875, 0.166421), (0.46875, 0.190451), (0.46875, 0.183579), (0.46875, 0.225), (0.46875, 0.125), (0.46875, 0.154289), (0.46875, 0.166421), (0.46875, 0.183579), (0.46875, 0.190451), (0.46875, 0.154289), (0.46875, 0.154289), (0.46875, 0.125), (0.46875, 0.154289), (0.46875, 0.154289), (0.46875, 0.154289), (0.46875, 0.154289), (0.46875, 0.154289), (0.46875, 0.190451), (0.46875, 0.183579), (0.46875, 0.190451), (0.46875, 0.154289), (0.46875, 0.154289), (0.46875, 0.183579), (0.46875, 0.190451), (0.46875, 0.225), (0.46875, 0.225), (0.46875, 0.190451), (0.46875, 0.207843), (0.46875, 0.185426), (0.46875, 0.207843), (0.46875, 0.190451), (0.46875, 0.154289), (0.46875, 0.125), (0.46875, 0.154289), (0.46875, 0.125), (0.46875, 0.154289), (0.46875, 0.125), (0.46875, 0.185426), (0.46875, 0.166421), (0.46875, 0.207843), (0.46875, 0.154289), (0.46875, 0.125), (0.46875, 0.166421), (0.46875, 0.166421), (0.46875, 0.166421), (0.46875, 0.185426), (0.46875, 0.154289), (0.46875, 0.166421), (0.46875, 0.166421), (0.46875, 0.125), (0.46875, 0.111103), (0.46875, 0.125), (0.46875, 0.111103), (0.46875, 0.125), (0.46875, 0.111103), (0.46875, 0.111103), (0.46875, 0.0585495), (0.46875, 0.111103), (0.46875, 0.0585495), (0.46875, 0.111103), (0.46875, 0.0585495), (0.46875, 0.125), (0.46875, 0.025), (0.46875, 0.025), (0.46875, 0.025), (0.46875, 0.125), (0.46875, 0.125), (0.46875, 0.025), (0.46875, 0.025), (0.46875, 0.025), (0.46875, 0.025), (0.46875, 0.025), (0.46875, 0.025), (0.46875, 0.0585495), (0.46875, 0.111103), (0.46875, 0.0585495), (0.46875, 0.111103), (0.46875, 0.0585495), (0.46875, 0.111103), (0.46875, 0.125), (0.46875, 0.111103), (0.46875, 0.111103), (0.46875, 0.111103), (0.46875, 0.125), (0.46875, 0.125), (0.46875, 0.0585495), (0.46875, 0.025), (0.46875, 0.0585495), (0.46875, 0.025), (0.46875, 0.0585495), (0.46875, 0.025), (0.46875, 0.025), (0.46875, 0.025), (0.46875, 0.025), (0.46875, 0.025), (0.46875, 0.025), (0.46875, 0.025), (0.46875, 0.025), (0.46875, 0.125), (0.46875, 0.125), (0.46875, 0.125), (0.46875, 0.025), (0.46875, 0.025), (0.46875, 0.025), (0.46875, 0.0585495), (0.46875, 0.0585495), (0.46875, 0.0585495), (0.46875, 0.025), (0.46875, 0.025)] (interpolation = "faceVarying")
        uniform token subdivisionScheme = "none"
        rel material:binding = </Vehicle/Materials/colormap>
    }
    def Scope "Materials" {
        def Material "colormap" {
            token outputs:surface.connect = </Vehicle/Materials/colormap/surface.outputs:surface>
            def Shader "surface" {
                uniform token info:id = "UsdPreviewSurface"
                float inputs:roughness = 0.7
                float inputs:metallic = 0
                color3f inputs:diffuseColor.connect = </Vehicle/Materials/colormap/texture.outputs:rgb>
                token outputs:surface
            }
            def Shader "stReader" {
                uniform token info:id = "UsdPrimvarReader_float2"
                token inputs:varname = "st"
                float2 outputs:result
            }
            def Shader "texture" {
                uniform token info:id = "UsdUVTexture"
                asset inputs:file = @kenney-holiday-colormap.png@
                float2 inputs:st.connect = </Vehicle/Materials/colormap/stReader.outputs:result>
                token inputs:wrapS = "repeat"
                token inputs:wrapT = "repeat"
                float3 outputs:rgb
            }
        }
    }
}
