#usda 1.0
(
    defaultPrim = "Vehicle"
    metersPerUnit = 1
    upAxis = "Y"
)
def Xform "Vehicle" {
    def Mesh "mesh_colormap" {
        int[] faceVertexCounts = [3, 3, 3, 3, 3, 3, 3, 3, 3, 3, 3, 3, 3, 3, 3, 3, 3, 3, 3, 3, 3, 3, 3, 3, 3, 3, 3, 3, 3, 3, 3, 3, 3, 3, 3, 3, 3, 3, 3, 3, 3, 3, 3, 3, 3, 3, 3, 3, 3, 3, 3, 3, 3, 3, 3, 3, 3, 3, 3, 3, 3, 3, 3, 3, 3, 3, 3, 3, 3, 3, 3, 3, 3, 3, 3, 3, 3, 3, 3, 3, 3, 3, 3, 3, 3, 3, 3, 3, 3, 3, 3, 3, 3, 3, 3, 3, 3, 3, 3, 3, 3, 3, 3, 3, 3, 3, 3, 3, 3, 3, 3, 3, 3, 3, 3, 3, 3, 3, 3, 3, 3, 3, 3, 3, 3, 3, 3, 3, 3, 3, 3, 3, 3, 3, 3, 3, 3, 3, 3, 3, 3, 3, 3, 3, 3, 3, 3, 3, 3, 3, 3, 3, 3, 3, 3, 3, 3, 3, 3, 3, 3, 3, 3, 3, 3, 3, 3, 3, 3, 3, 3, 3, 3, 3, 3, 3, 3, 3, 3, 3, 3, 3, 3, 3, 3, 3, 3, 3, 3, 3, 3, 3, 3, 3, 3, 3, 3, 3, 3, 3, 3, 3, 3, 3, 3, 3, 3, 3, 3, 3, 3, 3, 3, 3, 3, 3, 3, 3, 3, 3, 3, 3, 3, 3, 3, 3, 3, 3, 3, 3, 3, 3, 3, 3, 3, 3, 3, 3, 3, 3, 3, 3, 3, 3, 3, 3, 3, 3, 3, 3, 3, 3, 3, 3, 3, 3, 3, 3, 3, 3, 3, 3, 3, 3, 3, 3, 3, 3, 3, 3, 3, 3, 3, 3, 3, 3, 3, 3, 3, 3, 3, 3, 3, 3, 3, 3, 3, 3, 3, 3, 3, 3, 3, 3, 3, 3, 3, 3, 3, 3, 3, 3, 3, 3, 3, 3, 3, 3, 3, 3, 3, 3, 3, 3, 3, 3, 3, 3, 3, 3, 3, 3, 3, 3, 3, 3, 3, 3, 3, 3, 3, 3, 3, 3, 3, 3, 3, 3, 3, 3, 3, 3, 3, 3]
        int[] faceVertexIndices = [2, 1, 0, 1, 2, 3, 6, 5, 4, 5, 6, 7, 8, 1, 3, 1, 8, 9, 12, 11, 10, 11, 12, 13, 11, 13, 14, 14, 13, 15, 18, 17, 16, 17, 18, 19, 20, 17, 19, 17, 20, 21, 23, 3, 22, 3, 23, 8, 20, 23, 21, 23, 20, 8, 22, 2, 24, 2, 22, 3, 2, 16, 24, 16, 2, 18, 25, 13, 5, 13, 25, 15, 27, 19, 26, 19, 27, 20, 26, 18, 28, 18, 26, 19, 5, 29, 25, 29, 5, 7, 32, 31, 30, 31, 32, 33, 6, 35, 34, 35, 6, 4, 33, 35, 31, 35, 33, 34, 14, 25, 30, 25, 14, 15, 27, 8, 20, 8, 27, 9, 11, 35, 10, 35, 11, 31, 0, 18, 2, 18, 0, 28, 35, 12, 10, 12, 35, 4, 25, 32, 30, 32, 25, 29, 14, 31, 11, 31, 14, 30, 33, 6, 34, 6, 33, 32, 6, 32, 7, 7, 32, 29, 4, 13, 12, 13, 4, 5, 36, 23, 22, 24, 36, 22, 37, 23, 36, 24, 38, 36, 39, 23, 37, 24, 40, 38, 39, 21, 23, 16, 40, 24, 41, 21, 39, 16, 41, 40, 21, 41, 17, 41, 16, 17, 44, 43, 42, 43, 44, 45, 48, 47, 46, 47, 48, 49, 42, 51, 50, 51, 42, 43, 54, 53, 52, 53, 54, 55, 58, 57, 56, 57, 58, 59, 56, 60, 58, 60, 56, 61, 62, 61, 56, 61, 62, 63, 55, 64, 57, 64, 55, 65, 67, 46, 66, 46, 67, 48, 70, 69, 68, 69, 70, 71, 73, 66, 72, 66, 73, 67, 63, 74, 61, 74, 63, 75, 53, 57, 59, 57, 53, 55, 76, 55, 54, 55, 76, 65, 76, 74, 75, 74, 76, 54, 74, 60, 61, 60, 74, 77, 54, 77, 74, 77, 54, 52, 70, 44, 71, 44, 70, 45, 47, 73, 72, 73, 47, 49, 47, 66, 46, 66, 47, 72, 43, 78, 51, 78, 43, 79, 78, 80, 51, 80, 78, 81, 51, 82, 50, 82, 51, 80, 83, 45, 70, 45, 83, 84, 81, 68, 80, 68, 81, 85, 83, 68, 85, 68, 83, 70, 45, 79, 43, 79, 45, 84, 57, 62, 56, 62, 57, 64, 68, 82, 80, 82, 68, 69, 50, 63, 62, 50, 62, 64, 82, 63, 50, 50, 64, 42, 82, 75, 63, 75, 82, 69, 71, 75, 69, 75, 71, 76, 64, 44, 42, 76, 71, 44, 65, 44, 64, 76, 44, 65, 49, 52, 53, 49, 53, 59, 48, 52, 49, 52, 48, 77, 67, 77, 48, 77, 67, 60, 49, 59, 73, 60, 67, 73, 58, 73, 59, 60, 73, 58, 88, 87, 86, 87, 88, 89, 90, 87, 89, 87, 90, 91, 86, 92, 88, 92, 86, 93, 94, 91, 90, 91, 94, 95, 94, 96, 95, 96, 94, 97, 96, 92, 93, 92, 96, 97, 9, 99, 98, 99, 9, 100, 0, 99, 101, 99, 0, 98, 103, 28, 102, 28, 103, 104, 105, 9, 27, 9, 105, 100, 105, 104, 103, 104, 105, 27, 101, 28, 0, 28, 101, 102, 2, 1, 0, 1, 2, 3, 6, 5, 4, 5, 6, 7, 8, 1, 3, 1, 8, 9, 12, 11, 10, 11, 12, 13, 11, 13, 14, 14, 13, 15, 18, 17, 16, 17, 18, 19, 20, 17, 19, 17, 20, 21, 23, 3, 22, 3, 23, 8, 20, 23, 21, 23, 20, 8, 22, 2, 24, 2, 22, 3, 2, 16, 24, 16, 2, 18, 25, 13, 5, 13, 25, 15, 27, 19, 26, 19, 27, 20, 26, 18, 28, 18, 26, 19, 5, 29, 25, 29, 5, 7, 32, 31, 30, 31, 32, 33, 6, 35, 34, 35, 6, 4, 33, 35, 31, 35, 33, 34, 14, 25, 30, 25, 14, 15, 27, 8, 20, 8, 27, 9, 11, 35, 10, 35, 11, 31, 0, 18, 2, 18, 0, 28, 35, 12, 10, 12, 35, 4, 25, 32, 30, 32, 25, 29, 14, 31, 11, 31, 14, 30, 33, 6, 34, 6, 33, 32, 6, 32, 7, 7, 32, 29, 4, 13, 12, 13, 4, 5, 36, 23, 22, 24, 36, 22, 37, 23, 36, 24, 38, 36, 39, 23, 37, 24, 40, 38, 39, 21, 23, 16, 40, 24, 41, 21, 39, 16, 41, 40, 21, 41, 17, 41, 16, 17, 44, 43, 42, 43, 44, 45, 48, 47, 46, 47, 48, 49, 42, 51, 50, 51, 42, 43, 54, 53, 52, 53, 54, 55, 58, 57, 56, 57, 58, 59, 56, 60, 58, 60, 56, 61, 62, 61, 56, 61, 62, 63, 55, 64, 57, 64, 55, 65, 67, 46, 66, 46, 67, 48, 70, 69, 68, 69, 70, 71, 73, 66, 72, 66, 73, 67, 63, 74, 61, 74, 63, 75, 53, 57, 59, 57, 53, 55, 76, 55, 54, 55, 76, 65, 76, 74, 75, 74, 76, 54, 74, 60, 61, 60, 74, 77, 54, 77, 74, 77, 54, 52, 70, 44, 71, 44, 70, 45, 47, 73, 72, 73, 47, 49, 47, 66, 46, 66, 47, 72, 43, 78, 51, 78, 43, 79, 78, 80, 51, 80, 78, 81, 51, 82, 50, 82, 51, 80, 83, 45, 70, 45, 83, 84, 81, 68, 80, 68, 81, 85, 83, 68, 85, 68, 83, 70, 45, 79, 43, 79, 45, 84, 57, 62, 56, 62, 57, 64, 68, 82, 80, 82, 68, 69, 50, 63, 62, 50, 62, 64, 82, 63, 50, 50, 64, 42, 82, 75, 63, 75, 82, 69, 71, 75, 69, 75, 71, 76, 64, 44, 42, 76, 71, 44, 65, 44, 64, 76, 44, 65, 49, 52, 53, 49, 53, 59, 48, 52, 49, 52, 48, 77, 67, 77, 48, 77, 67, 60, 49, 59, 73, 60, 67, 73, 58, 73, 59, 60, 73, 58, 88, 87, 86, 87, 88, 89, 90, 87, 89, 87, 90, 91, 86, 92, 88, 92, 86, 93, 94, 91, 90, 91, 94, 95, 94, 96, 95, 96, 94, 97, 96, 92, 93, 92, 96, 97, 9, 99, 98, 99, 9, 100, 0, 99, 101, 99, 0, 98, 103, 28, 102, 28, 103, 104, 105, 9, 27, 9, 105, 100, 105, 104, 103, 104, 105, 27, 101, 28, 0, 28, 101, 102]
        point3f[] points = [(-0.0588141, 1.28704, -0.101868), (-0.117628, 1.28704, 0), (-0.0408421, 1.23074, -0.0707414), (-0.0816864, 1.23074, 0), (0.076015, 1.61824, 0.131662), (-0.076015, 1.61824, 0.131662), (0.0380075, 1.73728, 0.065832), (-0.0380075, 1.73728, 0.065832), (-0.0408421, 1.23074, 0.0707414), (-0.0588141, 1.28704, 0.101868), (0.262597, 1.54976, 0), (0.1313, 1.54976, -0.227416), (0.1313, 1.54976, 0.227416), (-0.1313, 1.54976, 0.227416), (-0.1313, 1.54976, -0.227416), (-0.262597, 1.54976, 0), (0.0510526, 1.18422, -0.0884268), (0.102108, 1.18422, 0), (0.0408421, 1.23074, -0.0707414), (0.0816864, 1.23074, 0), (0.0408421, 1.23074, 0.0707414), (0.0510526, 1.18422, 0.0884268), (-0.102108, 1.18422, 0), (-0.0510526, 1.18422, 0.0884268), (-0.0510526, 1.18422, -0.0884268), (-0.15203, 1.61824, 0), (0.117628, 1.28704, 0), (0.0588141, 1.28704, 0.101868), (0.0588141, 1.28704, -0.101868), (-0.076015, 1.73728, 0), (-0.076015, 1.61824, -0.131662), (0.076015, 1.61824, -0.131662), (-0.0380075, 1.73728, -0.065832), (0.0380075, 1.73728, -0.065832), (0.076015, 1.73728, 0), (0.15203, 1.61824, 0), (-0.0717993, 1.18422, 0), (-0.0358976, 1.18422, 0.0621769), (-0.0358976, 1.18422, -0.0621769), (0.0358976, 1.18422, 0.0621769), (0.0358976, 1.18422, -0.0621769), (0.0717993, 1.18422, 0), (-0.103636, 0.541386, 2.12964e-15), (-0.103636, 0.580973, 2.12964e-15), (-0.0518164, 0.541386, 0.0897507), (-0.0518164, 0.580973, 0.0897507), (0.149682, 0, 0.149682), (-0.149682, 0, 0.149682), (0.137707, 0.0816602, 0.137707), (-0.137707, 0.0816602, 0.137707), (-0.0518164, 0.541386, -0.0897507), (-0.0518164, 0.580973, -0.0897507), (0.0482742, 0.0816602, 0.0836141), (-0.0482742, 0.0816602, 0.0836141), (0.0587693, 0.445351, 0.10179), (-0.0587693, 0.445351, 0.10179), (-0.0587693, 0.445351, -0.10179), (-0.117536, 0.445351, 2.12964e-15), (-0.0482742, 0.0816602, -0.0836141), (-0.0965484, 0.0816602, 2.12964e-15), (0.0482742, 0.0816602, -0.0836141), (0.0587693, 0.445351, -0.10179), (-0.041029, 0.541386, -0.0710658), (0.041029, 0.541386, -0.0710658), (-0.082058, 0.541386, 2.12964e-15), (-0.041029, 0.541386, 0.0710658), (0.149682, 0, -0.149682), (0.137707, 0.0816602, -0.137707), (0.103636, 0.580973, 2.12964e-15), (0.103636, 0.541386, 2.12964e-15), (0.0518164, 0.580973, 0.0897507), (0.0518164, 0.541386, 0.0897507), (-0.149682, 0, -0.149682), (-0.137707, 0.0816602, -0.137707), (0.117536, 0.445351, 2.12964e-15), (0.082058, 0.541386, 2.12964e-15), (0.041029, 0.541386, 0.0710658), (0.0965484, 0.0816602, 2.12964e-15), (-0.0281628, 0.653818, -0.0487785), (-0.0563257, 0.653818, 2.12964e-15), (0.0518164, 0.580973, -0.0897507), (0.0281628, 0.653818, -0.0487785), (0.0518164, 0.541386, -0.0897507), (0.0281628, 0.653818, 0.0487785), (-0.0281628, 0.653818, 0.0487785), (0.0563257, 0.653818, 2.12964e-15), (-0.0281628, 0.653818, -0.0487785), (0.0281628, 0.653818, -0.0487785), (-0.0395482, 1.18422, -0.0685), (0.0395482, 1.18422, -0.0685), (0.079101, 1.18422, 2.05745e-15), (0.0563257, 0.653818, 2.05745e-15), (-0.079101, 1.18422, 2.05745e-15), (-0.0563257, 0.653818, 2.05745e-15), (0.0395482, 1.18422, 0.0685), (0.0281628, 0.653818, 0.0487785), (-0.0281628, 0.653818, 0.0487785), (-0.0395482, 1.18422, 0.0685), (-0.117628, 1.28704, -3.60958e-17), (-0.163373, 1.54976, -3.60958e-17), (-0.0816864, 1.54976, 0.141485), (-0.0816864, 1.54976, -0.141485), (0.0816864, 1.54976, -0.141485), (0.163373, 1.54976, -3.60958e-17), (0.117628, 1.28704, -3.60958e-17), (0.0816864, 1.54976, 0.141485)]
        normal3f[] normals = [(-0.421426, -0.538122, -0.729948), (-0.842864, -0.538127, 0), (-0.421434, -0.538122, -0.729944), (-0.842864, -0.538127, 0), (-0.421426, -0.538122, -0.729948), (-0.842864, -0.538127, 0), (0.421408, 0.5382, 0.729901), (-0.42141, 0.5382, 0.7299), (0.42141, 0.5382, 0.7299), (-0.42141, 0.5382, 0.7299), (0.421408, 0.5382, 0.729901), (-0.421408, 0.5382, 0.729901), (-0.421426, -0.538122, 0.729948), (-0.842864, -0.538127, 0), (-0.842864, -0.538127, 0), (-0.842864, -0.538127, 0), (-0.421426, -0.538122, 0.729948), (-0.421434, -0.538122, 0.729944), (0, -1, 0), (0, -1, 0), (0, -1, 0), (0, -1, 0), (0, -1, 0), (0, -1, 0), (0, -1, 0), (0, -1, 0), (0, -1, 0), (0, -1, 0), (0, -1, 0), (0, -1, 0), (0.45783, 0.401919, -0.793003), (0.915673, 0.401926, 0), (0.45783, 0.401919, -0.793002), (0.915673, 0.401926, 0), (0.45783, 0.401919, -0.793003), (0.915673, 0.401926, 0), (0.45783, 0.401919, 0.793003), (0.915673, 0.401926, 0), (0.915673, 0.401926, 0), (0.915673, 0.401926, 0), (0.45783, 0.401919, 0.793003), (0.45783, 0.401919, 0.793002), (-0.45783, 0.401919, 0.793002), (-0.915673, 0.401926, 0), (-0.915673, 0.401926, 0), (-0.915673, 0.401926, 0), (-0.45783, 0.401919, 0.793002), (-0.45783, 0.401919, 0.793003), (0.45783, 0.401919, 0.793003), (-0.45783, 0.401919, 0.793002), (0.45783, 0.401919, 0.793002), (-0.45783, 0.401919, 0.793002), (0.45783, 0.401919, 0.793003), (-0.45783, 0.401919, 0.793003), (-0.915673, 0.401926, 0), (-0.45783, 0.401919, -0.793003), (-0.45783, 0.401919, -0.793002), (-0.45783, 0.401919, -0.793003), (-0.915673, 0.401926, 0), (-0.915673, 0.401926, 0), (-0.45783, 0.401919, -0.793003), (0.45783, 0.401919, -0.793002), (-0.45783, 0.401919, -0.793002), (0.45783, 0.401919, -0.793002), (-0.45783, 0.401919, -0.793003), (0.45783, 0.401919, -0.793003), (-0.526552, 0.850143, 0), (-0.263278, 0.850142, 0.456008), (-0.263275, 0.850142, 0.456009), (-0.263278, 0.850142, 0.456008), (-0.526552, 0.850143, 0), (-0.526552, 0.850143, 0), (0.421434, -0.538122, 0.729944), (0.842864, -0.538127, 0), (0.842864, -0.538127, 0), (0.842864, -0.538127, 0), (0.421434, -0.538122, 0.729944), (0.421426, -0.538122, 0.729948), (0.842864, -0.538127, 0), (0.421426, -0.538122, -0.729948), (0.421434, -0.538122, -0.729944), (0.421426, -0.538122, -0.729948), (0.842864, -0.538127, 0), (0.842864, -0.538127, 0), (-0.42141, 0.5382, 0.7299), (-0.842816, 0.538203, 0), (-0.842816, 0.538203, 0), (-0.842816, 0.538203, 0), (-0.42141, 0.5382, 0.7299), (-0.421408, 0.5382, 0.729901), (-0.421408, 0.5382, -0.729901), (0.42141, 0.5382, -0.7299), (-0.42141, 0.5382, -0.7299), (0.42141, 0.5382, -0.7299), (-0.421408, 0.5382, -0.729901), (0.421408, 0.5382, -0.729901), (0.421408, 0.5382, 0.729901), (0.842816, 0.538203, 0), (0.842816, 0.538203, 0), (0.842816, 0.538203, 0), (0.421408, 0.5382, 0.729901), (0.42141, 0.5382, 0.7299), (0.421408, 0.5382, -0.729901), (0.842816, 0.538203, 0), (0.42141, 0.5382, -0.7299), (0.842816, 0.538203, 0), (0.421408, 0.5382, -0.729901), (0.842816, 0.538203, 0), (-0.263278, 0.850142, -0.456008), (-0.526552, 0.850143, 0), (-0.263275, 0.850142, -0.456009), (-0.526552, 0.850143, 0), (-0.263278, 0.850142, -0.456008), (-0.526552, 0.850143, 0), (0.421434, -0.538122, 0.729944), (-0.421426, -0.538122, 0.729948), (0.421426, -0.538122, 0.729948), (-0.421426, -0.538122, 0.729948), (0.421434, -0.538122, 0.729944), (-0.421434, -0.538122, 0.729944), (0.263278, 0.850142, -0.456008), (0.526552, 0.850143, 0), (0.526552, 0.850143, 0), (0.526552, 0.850143, 0), (0.263278, 0.850142, -0.456008), (0.263275, 0.850142, -0.456009), (-0.421434, -0.538122, -0.729944), (0.421426, -0.538122, -0.729948), (-0.421426, -0.538122, -0.729948), (0.421426, -0.538122, -0.729948), (-0.421434, -0.538122, -0.729944), (0.421434, -0.538122, -0.729944), (0.526552, 0.850143, 0), (0.263278, 0.850142, 0.456008), (0.526552, 0.850143, 0), (0.263278, 0.850142, 0.456008), (0.526552, 0.850143, 0), (0.263275, 0.850142, 0.456009), (-0.842816, 0.538203, 0), (-0.421408, 0.5382, -0.729901), (-0.42141, 0.5382, -0.7299), (-0.421408, 0.5382, -0.729901), (-0.842816, 0.538203, 0), (-0.842816, 0.538203, 0), (-0.263278, 0.850142, -0.456008), (0.263275, 0.850142, -0.456009), (0.263278, 0.850142, -0.456008), (0.263275, 0.850142, -0.456009), (-0.263278, 0.850142, -0.456008), (-0.263275, 0.850142, -0.456009), (0, 1, 0), (0, 1, 0), (0, 1, 0), (0, 1, 0), (0, 1, 0), (0, 1, 0), (0, 1, 0), (0, 1, 0), (0, 1, 0), (0, 1, 0), (0, 1, 0), (0, 1, 0), (0.263275, 0.850142, 0.456009), (-0.263278, 0.850142, 0.456008), (0.263278, 0.850142, 0.456008), (-0.263278, 0.850142, 0.456008), (0.263275, 0.850142, 0.456009), (-0.263275, 0.850142, 0.456009), (0, -1, 0), (0, -1, 0), (0, -1, 0), (0, -1, 0), (0, -1, 0), (0, -1, 0), (0, -1, 0), (0, -1, 0), (0, -1, 0), (0, -1, 0), (0, -1, 0), (0, -1, 0), (0, -1, 0), (0, -1, 0), (0, -1, 0), (0, -1, 0), (0, -1, 0), (0, -1, 0), (0, -1, 0), (0, -1, 0), (0, -1, 0), (0, -1, 0), (0, -1, 0), (0, -1, 0), (0, -1, 0), (0, -1, 0), (0, -1, 0), (0, -1, 0), (0, -1, 0), (0, -1, 0), (0, -1, 0), (0, -1, 0), (0, -1, 0), (0, -1, 0), (0, -1, 0), (0, -1, 0), (-0.499994, 0, 0.866029), (-1, 0, 0), (-1, 0, 0), (-1, 0, 0), (-0.499994, 0, 0.866029), (-0.499994, 0, 0.866029), (0, 0.145092, 0.989418), (0, 0.145092, 0.989418), (0, 0.145092, 0.989418), (0, 0.145092, 0.989418), (0, 0.145092, 0.989418), (0, 0.145092, 0.989418), (-1, 0, 0), (-0.499994, 0, -0.866029), (-0.499994, 0, -0.866029), (-0.499994, 0, -0.866029), (-1, 0, 0), (-1, 0, 0), (0.499173, -0.0576123, 0.864585), (-0.499172, -0.0576123, 0.864586), (0.499172, -0.0576123, 0.864586), (-0.499172, -0.0576123, 0.864586), (0.499173, -0.0576123, 0.864585), (-0.499173, -0.0576123, 0.864585), (-0.499172, -0.0576123, -0.864586), (-0.998339, -0.0576133, 0), (-0.499173, -0.0576123, -0.864585), (-0.998339, -0.0576133, 0), (-0.499172, -0.0576123, -0.864586), (-0.998339, -0.0576133, 0), (-0.499173, -0.0576123, -0.864585), (0.499172, -0.0576123, -0.864586), (-0.499172, -0.0576123, -0.864586), (0.499172, -0.0576123, -0.864586), (-0.499173, -0.0576123, -0.864585), (0.499173, -0.0576123, -0.864585), (-0.469018, 0.346535, -0.812364), (0.469025, 0.346535, -0.81236), (-0.469025, 0.346535, -0.81236), (0.469025, 0.346535, -0.81236), (-0.469018, 0.346535, -0.812364), (0.469018, 0.346535, -0.812364), (-0.469025, 0.346535, 0.81236), (-0.938035, 0.34654, 0), (-0.938035, 0.34654, 0), (-0.938035, 0.34654, 0), (-0.469025, 0.346535, 0.81236), (-0.469018, 0.346535, 0.812364), (0.989418, 0.145092, 0), (0.989418, 0.145092, 0), (0.989418, 0.145092, 0), (0.989418, 0.145092, 0), (0.989418, 0.145092, 0), (0.989418, 0.145092, 0), (0.499994, 0, 0.866029), (1, 0, 0), (1, 0, 0), (1, 0, 0), (0.499994, 0, 0.866029), (0.499994, 0, 0.866029), (0, 0.145092, -0.989418), (0, 0.145092, -0.989418), (0, 0.145092, -0.989418), (0, 0.145092, -0.989418), (0, 0.145092, -0.989418), (0, 0.145092, -0.989418), (0.469018, 0.346535, -0.812364), (0.938035, 0.34654, 0), (0.469025, 0.346535, -0.81236), (0.938035, 0.34654, 0), (0.469018, 0.346535, -0.812364), (0.938035, 0.34654, 0), (-0.499172, -0.0576123, 0.864586), (-0.998339, -0.0576133, 0), (-0.998339, -0.0576133, 0), (-0.998339, -0.0576133, 0), (-0.499172, -0.0576123, 0.864586), (-0.499173, -0.0576123, 0.864585), (0.469018, 0.346535, 0.812364), (-0.469025, 0.346535, 0.81236), (0.469025, 0.346535, 0.81236), (-0.469025, 0.346535, 0.81236), (0.469018, 0.346535, 0.812364), (-0.469018, 0.346535, 0.812364), (0.469018, 0.346535, 0.812364), (0.938035, 0.34654, 0), (0.938035, 0.34654, 0), (0.938035, 0.34654, 0), (0.469018, 0.346535, 0.812364), (0.469025, 0.346535, 0.81236), (0.998339, -0.0576133, 0), (0.499172, -0.0576123, -0.864586), (0.499173, -0.0576123, -0.864585), (0.499172, -0.0576123, -0.864586), (0.998339, -0.0576133, 0), (0.998339, -0.0576133, 0), (0.499173, -0.0576123, 0.864585), (0.998339, -0.0576133, 0), (0.998339, -0.0576133, 0), (0.998339, -0.0576133, 0), (0.499173, -0.0576123, 0.864585), (0.499172, -0.0576123, 0.864586), (0.499994, 0, 0.866029), (-0.499994, 0, 0.866029), (0.499994, 0, 0.866029), (-0.499994, 0, 0.866029), (0.499994, 0, 0.866029), (-0.499994, 0, 0.866029), (-0.989418, 0.145092, 0), (-0.989418, 0.145092, 0), (-0.989418, 0.145092, 0), (-0.989418, 0.145092, 0), (-0.989418, 0.145092, 0), (-0.989418, 0.145092, 0), (0, -1, 0), (0, -1, 0), (0, -1, 0), (0, -1, 0), (0, -1, 0), (0, -1, 0), (-0.838652, 0.544667, 0), (-0.419326, 0.544668, -0.726294), (-0.419319, 0.544668, -0.726298), (-0.419326, 0.544668, -0.726294), (-0.838652, 0.544667, 0), (-0.838652, 0.544667, 0), (-0.419326, 0.544668, -0.726294), (0.419319, 0.544668, -0.726298), (-0.419319, 0.544668, -0.726298), (0.419319, 0.544668, -0.726298), (-0.419326, 0.544668, -0.726294), (0.419326, 0.544668, -0.726294), (-0.499994, 0, -0.866029), (0, 0, -1), (-0.499994, 0, -0.866029), (0, 0, -1), (-0.499994, 0, -0.866029), (0, 0, -1), (0.419326, 0.544668, 0.726294), (-0.419319, 0.544668, 0.726298), (0.419319, 0.544668, 0.726298), (-0.419319, 0.544668, 0.726298), (0.419326, 0.544668, 0.726294), (-0.419326, 0.544668, 0.726294), (0.419326, 0.544668, -0.726294), (0.838652, 0.544667, 0), (0.419319, 0.544668, -0.726298), (0.838652, 0.544667, 0), (0.419326, 0.544668, -0.726294), (0.838652, 0.544667, 0), (0.419326, 0.544668, 0.726294), (0.838652, 0.544667, 0), (0.838652, 0.544667, 0), (0.838652, 0.544667, 0), (0.419326, 0.544668, 0.726294), (0.419319, 0.544668, 0.726298), (-0.419319, 0.544668, 0.726298), (-0.838652, 0.544667, 0), (-0.838652, 0.544667, 0), (-0.838652, 0.544667, 0), (-0.419319, 0.544668, 0.726298), (-0.419326, 0.544668, 0.726294), (-0.938035, 0.34654, 0), (-0.469018, 0.346535, -0.812364), (-0.469025, 0.346535, -0.81236), (-0.469018, 0.346535, -0.812364), (-0.938035, 0.34654, 0), (-0.938035, 0.34654, 0), (1, 0, 0), (0.866018, 0, -0.500012), (0.866018, 0, -0.500012), (0.866018, 0, -0.500012), (1, 0, 0), (1, 0, 0), (0, -1, 0), (0, -1, 0), (0, -1, 0), (0, -1, 0), (0, -1, 0), (0, -1, 0), (0, -1, 0), (0, -1, 0), (0, -1, 0), (0, -1, 0), (0, -1, 0), (0, -1, 0), (0, -1, 0), (0, -1, 0), (0, -1, 0), (0, -1, 0), (0, -1, 0), (0, -1, 0), (0, -1, 0), (0, -1, 0), (0, -1, 0), (0, -1, 0), (0, -1, 0), (0, -1, 0), (0, -1, 0), (0, -1, 0), (0, -1, 0), (0, -1, 0), (0, -1, 0), (0, -1, 0), (0, -1, 0), (0, -1, 0), (0, -1, 0), (0, -1, 0), (0, -1, 0), (0, -1, 0), (0, 1, 0), (0, 1, 0), (0, 1, 0), (0, 1, 0), (0, 1, 0), (0, 1, 0), (0, 1, 0), (0, 1, 0), (0, 1, 0), (0, 1, 0), (0, 1, 0), (0, 1, 0), (0, 1, 0), (0, 1, 0), (0, 1, 0), (0, 1, 0), (0, 1, 0), (0, 1, 0), (0, 1, 0), (0, 1, 0), (0, 1, 0), (0, 1, 0), (0, 1, 0), (0, 1, 0), (0, 1, 0), (0, 1, 0), (0, 1, 0), (0, 1, 0), (0, 1, 0), (0, 1, 0), (-0.499525, -0.0428957, -0.865237), (0.499525, -0.0428957, -0.865237), (-0.499525, -0.0428957, -0.865237), (0.499525, -0.0428957, -0.865237), (-0.499525, -0.0428957, -0.865237), (0.499525, -0.0428957, -0.865237), (0.99908, -0.0428979, 0), (0.499525, -0.0428957, -0.865237), (0.499525, -0.0428957, -0.865237), (0.499525, -0.0428957, -0.865237), (0.99908, -0.0428979, 0), (0.99908, -0.0428979, 0), (-0.499525, -0.0428957, -0.865237), (-0.99908, -0.0428979, 0), (-0.499525, -0.0428957, -0.865237), (-0.99908, -0.0428979, 0), (-0.499525, -0.0428957, -0.865237), (-0.99908, -0.0428979, 0), (0.499525, -0.0428957, 0.865237), (0.99908, -0.0428979, 0), (0.99908, -0.0428979, 0), (0.99908, -0.0428979, 0), (0.499525, -0.0428957, 0.865237), (0.499525, -0.0428957, 0.865237), (0.499525, -0.0428957, 0.865237), (-0.499525, -0.0428957, 0.865237), (0.499525, -0.0428957, 0.865237), (-0.499525, -0.0428957, 0.865237), (0.499525, -0.0428957, 0.865237), (-0.499525, -0.0428957, 0.865237), (-0.499525, -0.0428957, 0.865237), (-0.99908, -0.0428979, 0), (-0.99908, -0.0428979, 0), (-0.99908, -0.0428979, 0), (-0.499525, -0.0428957, 0.865237), (-0.499525, -0.0428957, 0.865237), (-0.856344, -0.149106, 0.494412), (-0.856344, -0.149106, 0.494412), (-0.856344, -0.149106, 0.494412), (-0.856344, -0.149106, 0.494412), (-0.856344, -0.149106, 0.494412), (-0.856344, -0.149106, 0.494412), (-0.856344, -0.149106, -0.494412), (-0.856344, -0.149106, -0.494412), (-0.856344, -0.149106, -0.494412), (-0.856344, -0.149106, -0.494412), (-0.856344, -0.149106, -0.494412), (-0.856344, -0.149106, -0.494412), (0.856344, -0.149106, -0.494412), (0.856344, -0.149106, -0.494412), (0.856344, -0.149106, -0.494412), (0.856344, -0.149106, -0.494412), (0.856344, -0.149106, -0.494412), (0.856344, -0.149106, -0.494412), (0, -0.149108, 0.988821), (0, -0.149108, 0.988821), (0, -0.149108, 0.988821), (0, -0.149108, 0.988821), (0, -0.149108, 0.988821), (0, -0.149108, 0.988821), (0.856344, -0.149106, 0.494412), (0.856344, -0.149106, 0.494412), (0.856344, -0.149106, 0.494412), (0.856344, -0.149106, 0.494412), (0.856344, -0.149106, 0.494412), (0.856344, -0.149106, 0.494412), (0, -0.149108, -0.988821), (0, -0.149108, -0.988821), (0, -0.149108, -0.988821), (0, -0.149108, -0.988821), (0, -0.149108, -0.988821), (0, -0.149108, -0.988821), (-0.421426, -0.538122, -0.729948), (-0.842864, -0.538127, 0), (-0.421434, -0.538122, -0.729944), (-0.842864, -0.538127, 0), (-0.421426, -0.538122, -0.729948), (-0.842864, -0.538127, 0), (0.421408, 0.5382, 0.729901), (-0.42141, 0.5382, 0.7299), (0.42141, 0.5382, 0.7299), (-0.42141, 0.5382, 0.7299), (0.421408, 0.5382, 0.729901), (-0.421408, 0.5382, 0.729901), (-0.421426, -0.538122, 0.729948), (-0.842864, -0.538127, 0), (-0.842864, -0.538127, 0), (-0.842864, -0.538127, 0), (-0.421426, -0.538122, 0.729948), (-0.421434, -0.538122, 0.729944), (0, -1, 0), (0, -1, 0), (0, -1, 0), (0, -1, 0), (0, -1, 0), (0, -1, 0), (0, -1, 0), (0, -1, 0), (0, -1, 0), (0, -1, 0), (0, -1, 0), (0, -1, 0), (0.45783, 0.401919, -0.793003), (0.915673, 0.401926, 0), (0.45783, 0.401919, -0.793002), (0.915673, 0.401926, 0), (0.45783, 0.401919, -0.793003), (0.915673, 0.401926, 0), (0.45783, 0.401919, 0.793003), (0.915673, 0.401926, 0), (0.915673, 0.401926, 0), (0.915673, 0.401926, 0), (0.45783, 0.401919, 0.793003), (0.45783, 0.401919, 0.793002), (-0.45783, 0.401919, 0.793002), (-0.915673, 0.401926, 0), (-0.915673, 0.401926, 0), (-0.915673, 0.401926, 0), (-0.45783, 0.401919, 0.793002), (-0.45783, 0.401919, 0.793003), (0.45783, 0.401919, 0.793003), (-0.45783, 0.401919, 0.793002), (0.45783, 0.401919, 0.793002), (-0.45783, 0.401919, 0.793002), (0.45783, 0.401919, 0.793003), (-0.45783, 0.401919, 0.793003), (-0.915673, 0.401926, 0), (-0.45783, 0.401919, -0.793003), (-0.45783, 0.401919, -0.793002), (-0.45783, 0.401919, -0.793003), (-0.915673, 0.401926, 0), (-0.915673, 0.401926, 0), (-0.45783, 0.401919, -0.793003), (0.45783, 0.401919, -0.793002), (-0.45783, 0.401919, -0.793002), (0.45783, 0.401919, -0.793002), (-0.45783, 0.401919, -0.793003), (0.45783, 0.401919, -0.793003), (-0.526552, 0.850143, 0), (-0.263278, 0.850142, 0.456008), (-0.263275, 0.850142, 0.456009), (-0.263278, 0.850142, 0.456008), (-0.526552, 0.850143, 0), (-0.526552, 0.850143, 0), (0.421434, -0.538122, 0.729944), (0.842864, -0.538127, 0), (0.842864, -0.538127, 0), (0.842864, -0.538127, 0), (0.421434, -0.538122, 0.729944), (0.421426, -0.538122, 0.729948), (0.842864, -0.538127, 0), (0.421426, -0.538122, -0.729948), (0.421434, -0.538122, -0.729944), (0.421426, -0.538122, -0.729948), (0.842864, -0.538127, 0), (0.842864, -0.538127, 0), (-0.42141, 0.5382, 0.7299), (-0.842816, 0.538203, 0), (-0.842816, 0.538203, 0), (-0.842816, 0.538203, 0), (-0.42141, 0.5382, 0.7299), (-0.421408, 0.5382, 0.729901), (-0.421408, 0.5382, -0.729901), (0.42141, 0.5382, -0.7299), (-0.42141, 0.5382, -0.7299), (0.42141, 0.5382, -0.7299), (-0.421408, 0.5382, -0.729901), (0.421408, 0.5382, -0.729901), (0.421408, 0.5382, 0.729901), (0.842816, 0.538203, 0), (0.842816, 0.538203, 0), (0.842816, 0.538203, 0), (0.421408, 0.5382, 0.729901), (0.42141, 0.5382, 0.7299), (0.421408, 0.5382, -0.729901), (0.842816, 0.538203, 0), (0.42141, 0.5382, -0.7299), (0.842816, 0.538203, 0), (0.421408, 0.5382, -0.729901), (0.842816, 0.538203, 0), (-0.263278, 0.850142, -0.456008), (-0.526552, 0.850143, 0), (-0.263275, 0.850142, -0.456009), (-0.526552, 0.850143, 0), (-0.263278, 0.850142, -0.456008), (-0.526552, 0.850143, 0), (0.421434, -0.538122, 0.729944), (-0.421426, -0.538122, 0.729948), (0.421426, -0.538122, 0.729948), (-0.421426, -0.538122, 0.729948), (0.421434, -0.538122, 0.729944), (-0.421434, -0.538122, 0.729944), (0.263278, 0.850142, -0.456008), (0.526552, 0.850143, 0), (0.526552, 0.850143, 0), (0.526552, 0.850143, 0), (0.263278, 0.850142, -0.456008), (0.263275, 0.850142, -0.456009), (-0.421434, -0.538122, -0.729944), (0.421426, -0.538122, -0.729948), (-0.421426, -0.538122, -0.729948), (0.421426, -0.538122, -0.729948), (-0.421434, -0.538122, -0.729944), (0.421434, -0.538122, -0.729944), (0.526552, 0.850143, 0), (0.263278, 0.850142, 0.456008), (0.526552, 0.850143, 0), (0.263278, 0.850142, 0.456008), (0.526552, 0.850143, 0), (0.263275, 0.850142, 0.456009), (-0.842816, 0.538203, 0), (-0.421408, 0.5382, -0.729901), (-0.42141, 0.5382, -0.7299), (-0.421408, 0.5382, -0.729901), (-0.842816, 0.538203, 0), (-0.842816, 0.538203, 0), (-0.263278, 0.850142, -0.456008), (0.263275, 0.850142, -0.456009), (0.263278, 0.850142, -0.456008), (0.263275, 0.850142, -0.456009), (-0.263278, 0.850142, -0.456008), (-0.263275, 0.850142, -0.456009), (0, 1, 0), (0, 1, 0), (0, 1, 0), (0, 1, 0), (0, 1, 0), (0, 1, 0), (0, 1, 0), (0, 1, 0), (0, 1, 0), (0, 1, 0), (0, 1, 0), (0, 1, 0), (0.263275, 0.850142, 0.456009), (-0.263278, 0.850142, 0.456008), (0.263278, 0.850142, 0.456008), (-0.263278, 0.850142, 0.456008), (0.263275, 0.850142, 0.456009), (-0.263275, 0.850142, 0.456009), (0, -1, 0), (0, -1, 0), (0, -1, 0), (0, -1, 0), (0, -1, 0), (0, -1, 0), (0, -1, 0), (0, -1, 0), (0, -1, 0), (0, -1, 0), (0, -1, 0), (0, -1, 0), (0, -1, 0), (0, -1, 0), (0, -1, 0), (0, -1, 0), (0, -1, 0), (0, -1, 0), (0, -1, 0), (0, -1, 0), (0, -1, 0), (0, -1, 0), (0, -1, 0), (0, -1, 0), (0, -1, 0), (0, -1, 0), (0, -1, 0), (0, -1, 0), (0, -1, 0), (0, -1, 0), (0, -1, 0), (0, -1, 0), (0, -1, 0), (0, -1, 0), (0, -1, 0), (0, -1, 0), (-0.499994, 0, 0.866029), (-1, 0, 0), (-1, 0, 0), (-1, 0, 0), (-0.499994, 0, 0.866029), (-0.499994, 0, 0.866029), (0, 0.145092, 0.989418), (0, 0.145092, 0.989418), (0, 0.145092, 0.989418), (0, 0.145092, 0.989418), (0, 0.145092, 0.989418), (0, 0.145092, 0.989418), (-1, 0, 0), (-0.499994, 0, -0.866029), (-0.499994, 0, -0.866029), (-0.499994, 0, -0.866029), (-1, 0, 0), (-1, 0, 0), (0.499173, -0.0576123, 0.864585), (-0.499172, -0.0576123, 0.864586), (0.499172, -0.0576123, 0.864586), (-0.499172, -0.0576123, 0.864586), (0.499173, -0.0576123, 0.864585), (-0.499173, -0.0576123, 0.864585), (-0.499172, -0.0576123, -0.864586), (-0.998339, -0.0576133, 0), (-0.499173, -0.0576123, -0.864585), (-0.998339, -0.0576133, 0), (-0.499172, -0.0576123, -0.864586), (-0.998339, -0.0576133, 0), (-0.499173, -0.0576123, -0.864585), (0.499172, -0.0576123, -0.864586), (-0.499172, -0.0576123, -0.864586), (0.499172, -0.0576123, -0.864586), (-0.499173, -0.0576123, -0.864585), (0.499173, -0.0576123, -0.864585), (-0.469018, 0.346535, -0.812364), (0.469025, 0.346535, -0.81236), (-0.469025, 0.346535, -0.81236), (0.469025, 0.346535, -0.81236), (-0.469018, 0.346535, -0.812364), (0.469018, 0.346535, -0.812364), (-0.469025, 0.346535, 0.81236), (-0.938035, 0.34654, 0), (-0.938035, 0.34654, 0), (-0.938035, 0.34654, 0), (-0.469025, 0.346535, 0.81236), (-0.469018, 0.346535, 0.812364), (0.989418, 0.145092, 0), (0.989418, 0.145092, 0), (0.989418, 0.145092, 0), (0.989418, 0.145092, 0), (0.989418, 0.145092, 0), (0.989418, 0.145092, 0), (0.499994, 0, 0.866029), (1, 0, 0), (1, 0, 0), (1, 0, 0), (0.499994, 0, 0.866029), (0.499994, 0, 0.866029), (0, 0.145092, -0.989418), (0, 0.145092, -0.989418), (0, 0.145092, -0.989418), (0, 0.145092, -0.989418), (0, 0.145092, -0.989418), (0, 0.145092, -0.989418), (0.469018, 0.346535, -0.812364), (0.938035, 0.34654, 0), (0.469025, 0.346535, -0.81236), (0.938035, 0.34654, 0), (0.469018, 0.346535, -0.812364), (0.938035, 0.34654, 0), (-0.499172, -0.0576123, 0.864586), (-0.998339, -0.0576133, 0), (-0.998339, -0.0576133, 0), (-0.998339, -0.0576133, 0), (-0.499172, -0.0576123, 0.864586), (-0.499173, -0.0576123, 0.864585), (0.469018, 0.346535, 0.812364), (-0.469025, 0.346535, 0.81236), (0.469025, 0.346535, 0.81236), (-0.469025, 0.346535, 0.81236), (0.469018, 0.346535, 0.812364), (-0.469018, 0.346535, 0.812364), (0.469018, 0.346535, 0.812364), (0.938035, 0.34654, 0), (0.938035, 0.34654, 0), (0.938035, 0.34654, 0), (0.469018, 0.346535, 0.812364), (0.469025, 0.346535, 0.81236), (0.998339, -0.0576133, 0), (0.499172, -0.0576123, -0.864586), (0.499173, -0.0576123, -0.864585), (0.499172, -0.0576123, -0.864586), (0.998339, -0.0576133, 0), (0.998339, -0.0576133, 0), (0.499173, -0.0576123, 0.864585), (0.998339, -0.0576133, 0), (0.998339, -0.0576133, 0), (0.998339, -0.0576133, 0), (0.499173, -0.0576123, 0.864585), (0.499172, -0.0576123, 0.864586), (0.499994, 0, 0.866029), (-0.499994, 0, 0.866029), (0.499994, 0, 0.866029), (-0.499994, 0, 0.866029), (0.499994, 0, 0.866029), (-0.499994, 0, 0.866029), (-0.989418, 0.145092, 0), (-0.989418, 0.145092, 0), (-0.989418, 0.145092, 0), (-0.989418, 0.145092, 0), (-0.989418, 0.145092, 0), (-0.989418, 0.145092, 0), (0, -1, 0), (0, -1, 0), (0, -1, 0), (0, -1, 0), (0, -1, 0), (0, -1, 0), (-0.838652, 0.544667, 0), (-0.419326, 0.544668, -0.726294), (-0.419319, 0.544668, -0.726298), (-0.419326, 0.544668, -0.726294), (-0.838652, 0.544667, 0), (-0.838652, 0.544667, 0), (-0.419326, 0.544668, -0.726294), (0.419319, 0.544668, -0.726298), (-0.419319, 0.544668, -0.726298), (0.419319, 0.544668, -0.726298), (-0.419326, 0.544668, -0.726294), (0.419326, 0.544668, -0.726294), (-0.499994, 0, -0.866029), (0, 0, -1), (-0.499994, 0, -0.866029), (0, 0, -1), (-0.499994, 0, -0.866029), (0, 0, -1), (0.419326, 0.544668, 0.726294), (-0.419319, 0.544668, 0.726298), (0.419319, 0.544668, 0.726298), (-0.419319, 0.544668, 0.726298), (0.419326, 0.544668, 0.726294), (-0.419326, 0.544668, 0.726294), (0.419326, 0.544668, -0.726294), (0.838652, 0.544667, 0), (0.419319, 0.544668, -0.726298), (0.838652, 0.544667, 0), (0.419326, 0.544668, -0.726294), (0.838652, 0.544667, 0), (0.419326, 0.544668, 0.726294), (0.838652, 0.544667, 0), (0.838652, 0.544667, 0), (0.838652, 0.544667, 0), (0.419326, 0.544668, 0.726294), (0.419319, 0.544668, 0.726298), (-0.419319, 0.544668, 0.726298), (-0.838652, 0.544667, 0), (-0.838652, 0.544667, 0), (-0.838652, 0.544667, 0), (-0.419319, 0.544668, 0.726298), (-0.419326, 0.544668, 0.726294), (-0.938035, 0.34654, 0), (-0.469018, 0.346535, -0.812364), (-0.469025, 0.346535, -0.81236), (-0.469018, 0.346535, -0.812364), (-0.938035, 0.34654, 0), (-0.938035, 0.34654, 0), (1, 0, 0), (0.866018, 0, -0.500012), (0.866018, 0, -0.500012), (0.866018, 0, -0.500012), (1, 0, 0), (1, 0, 0), (0, -1, 0), (0, -1, 0), (0, -1, 0), (0, -1, 0), (0, -1, 0), (0, -1, 0), (0, -1, 0), (0, -1, 0), (0, -1, 0), (0, -1, 0), (0, -1, 0), (0, -1, 0), (0, -1, 0), (0, -1, 0), (0, -1, 0), (0, -1, 0), (0, -1, 0), (0, -1, 0), (0, -1, 0), (0, -1, 0), (0, -1, 0), (0, -1, 0), (0, -1, 0), (0, -1, 0), (0, -1, 0), (0, -1, 0), (0, -1, 0), (0, -1, 0), (0, -1, 0), (0, -1, 0), (0, -1, 0), (0, -1, 0), (0, -1, 0), (0, -1, 0), (0, -1, 0), (0, -1, 0), (0, 1, 0), (0, 1, 0), (0, 1, 0), (0, 1, 0), (0, 1, 0), (0, 1, 0), (0, 1, 0), (0, 1, 0), (0, 1, 0), (0, 1, 0), (0, 1, 0), (0, 1, 0), (0, 1, 0), (0, 1, 0), (0, 1, 0), (0, 1, 0), (0, 1, 0), (0, 1, 0), (0, 1, 0), (0, 1, 0), (0, 1, 0), (0, 1, 0), (0, 1, 0), (0, 1, 0), (0, 1, 0), (0, 1, 0), (0, 1, 0), (0, 1, 0), (0, 1, 0), (0, 1, 0), (-0.499525, -0.0428957, -0.865237), (0.499525, -0.0428957, -0.865237), (-0.499525, -0.0428957, -0.865237), (0.499525, -0.0428957, -0.865237), (-0.499525, -0.0428957, -0.865237), (0.499525, -0.0428957, -0.865237), (0.99908, -0.0428979, 0), (0.499525, -0.0428957, -0.865237), (0.499525, -0.0428957, -0.865237), (0.499525, -0.0428957, -0.865237), (0.99908, -0.0428979, 0), (0.99908, -0.0428979, 0), (-0.499525, -0.0428957, -0.865237), (-0.99908, -0.0428979, 0), (-0.499525, -0.0428957, -0.865237), (-0.99908, -0.0428979, 0), (-0.499525, -0.0428957, -0.865237), (-0.99908, -0.0428979, 0), (0.499525, -0.0428957, 0.865237), (0.99908, -0.0428979, 0), (0.99908, -0.0428979, 0), (0.99908, -0.0428979, 0), (0.499525, -0.0428957, 0.865237), (0.499525, -0.0428957, 0.865237), (0.499525, -0.0428957, 0.865237), (-0.499525, -0.0428957, 0.865237), (0.499525, -0.0428957, 0.865237), (-0.499525, -0.0428957, 0.865237), (0.499525, -0.0428957, 0.865237), (-0.499525, -0.0428957, 0.865237), (-0.499525, -0.0428957, 0.865237), (-0.99908, -0.0428979, 0), (-0.99908, -0.0428979, 0), (-0.99908, -0.0428979, 0), (-0.499525, -0.0428957, 0.865237), (-0.499525, -0.0428957, 0.865237), (-0.856344, -0.149106, 0.494412), (-0.856344, -0.149106, 0.494412), (-0.856344, -0.149106, 0.494412), (-0.856344, -0.149106, 0.494412), (-0.856344, -0.149106, 0.494412), (-0.856344, -0.149106, 0.494412), (-0.856344, -0.149106, -0.494412), (-0.856344, -0.149106, -0.494412), (-0.856344, -0.149106, -0.494412), (-0.856344, -0.149106, -0.494412), (-0.856344, -0.149106, -0.494412), (-0.856344, -0.149106, -0.494412), (0.856344, -0.149106, -0.494412), (0.856344, -0.149106, -0.494412), (0.856344, -0.149106, -0.494412), (0.856344, -0.149106, -0.494412), (0.856344, -0.149106, -0.494412), (0.856344, -0.149106, -0.494412), (0, -0.149108, 0.988821), (0, -0.149108, 0.988821), (0, -0.149108, 0.988821), (0, -0.149108, 0.988821), (0, -0.149108, 0.988821), (0, -0.149108, 0.988821), (0.856344, -0.149106, 0.494412), (0.856344, -0.149106, 0.494412), (0.856344, -0.149106, 0.494412), (0.856344, -0.149106, 0.494412), (0.856344, -0.149106, 0.494412), (0.856344, -0.149106, 0.494412), (0, -0.149108, -0.988821), (0, -0.149108, -0.988821), (0, -0.149108, -0.988821), (0, -0.149108, -0.988821), (0, -0.149108, -0.988821), (0, -0.149108, -0.988821)] (interpolation = "faceVarying")
        texCoord2f[] primvars:st = [(0.71875, 0.0418244), (0.71875, 0.0621824), (0.71875, 0.0621824), (0.71875, 0.0621824), (0.71875, 0.0418244), (0.71875, 0.0418244), (0.71875, 0.225), (0.71875, 0.181953), (0.71875, 0.181953), (0.71875, 0.181953), (0.71875, 0.225), (0.71875, 0.225), (0.71875, 0.0418244), (0.71875, 0.0621824), (0.71875, 0.0418244), (0.71875, 0.0621824), (0.71875, 0.0418244), (0.71875, 0.0621824), (0.71875, 0.157189), (0.71875, 0.157189), (0.71875, 0.157189), (0.71875, 0.157189), (0.71875, 0.157189), (0.71875, 0.157189), (0.71875, 0.157189), (0.71875, 0.157189), (0.71875, 0.157189), (0.71875, 0.157189), (0.71875, 0.157189), (0.71875, 0.157189), (0.71875, 0.0418244), (0.71875, 0.025), (0.71875, 0.025), (0.71875, 0.025), (0.71875, 0.0418244), (0.71875, 0.0418244), (0.71875, 0.0418244), (0.71875, 0.025), (0.71875, 0.0418244), (0.71875, 0.025), (0.71875, 0.0418244), (0.71875, 0.025), (0.71875, 0.025), (0.71875, 0.0418244), (0.71875, 0.025), (0.71875, 0.0418244), (0.71875, 0.025), (0.71875, 0.0418244), (0.71875, 0.0418244), (0.71875, 0.025), (0.71875, 0.025), (0.71875, 0.025), (0.71875, 0.0418244), (0.71875, 0.0418244), (0.71875, 0.025), (0.71875, 0.0418244), (0.71875, 0.025), (0.71875, 0.0418244), (0.71875, 0.025), (0.71875, 0.0418244), (0.71875, 0.0418244), (0.71875, 0.025), (0.71875, 0.025), (0.71875, 0.025), (0.71875, 0.0418244), (0.71875, 0.0418244), (0.71875, 0.181953), (0.71875, 0.157189), (0.71875, 0.181953), (0.71875, 0.157189), (0.71875, 0.181953), (0.71875, 0.157189), (0.71875, 0.0621824), (0.71875, 0.0418244), (0.71875, 0.0621824), (0.71875, 0.0418244), (0.71875, 0.0621824), (0.71875, 0.0418244), (0.71875, 0.0621824), (0.71875, 0.0418244), (0.71875, 0.0621824), (0.71875, 0.0418244), (0.71875, 0.0621824), (0.71875, 0.0418244), (0.71875, 0.181953), (0.71875, 0.225), (0.71875, 0.181953), (0.71875, 0.225), (0.71875, 0.181953), (0.71875, 0.225), (0.71875, 0.225), (0.71875, 0.181953), (0.71875, 0.181953), (0.71875, 0.181953), (0.71875, 0.225), (0.71875, 0.225), (0.71875, 0.225), (0.71875, 0.181953), (0.71875, 0.225), (0.71875, 0.181953), (0.71875, 0.225), (0.71875, 0.181953), (0.71875, 0.225), (0.71875, 0.181953), (0.71875, 0.181953), (0.71875, 0.181953), (0.71875, 0.225), (0.71875, 0.225), (0.71875, 0.157189), (0.71875, 0.181953), (0.71875, 0.181953), (0.71875, 0.181953), (0.71875, 0.157189), (0.71875, 0.157189), (0.71875, 0.0621824), (0.71875, 0.0418244), (0.71875, 0.0418244), (0.71875, 0.0418244), (0.71875, 0.0621824), (0.71875, 0.0621824), (0.71875, 0.157189), (0.71875, 0.181953), (0.71875, 0.157189), (0.71875, 0.181953), (0.71875, 0.157189), (0.71875, 0.181953), (0.71875, 0.0621824), (0.71875, 0.0418244), (0.71875, 0.0418244), (0.71875, 0.0418244), (0.71875, 0.0621824), (0.71875, 0.0621824), (0.71875, 0.181953), (0.71875, 0.157189), (0.71875, 0.157189), (0.71875, 0.157189), (0.71875, 0.181953), (0.71875, 0.181953), (0.71875, 0.181953), (0.71875, 0.225), (0.71875, 0.181953), (0.71875, 0.225), (0.71875, 0.181953), (0.71875, 0.225), (0.71875, 0.157189), (0.71875, 0.181953), (0.71875, 0.157189), (0.71875, 0.181953), (0.71875, 0.157189), (0.71875, 0.181953), (0.71875, 0.225), (0.71875, 0.225), (0.71875, 0.225), (0.71875, 0.225), (0.71875, 0.225), (0.71875, 0.225), (0.71875, 0.225), (0.71875, 0.225), (0.71875, 0.225), (0.71875, 0.225), (0.71875, 0.225), (0.71875, 0.225), (0.71875, 0.181953), (0.71875, 0.157189), (0.71875, 0.157189), (0.71875, 0.157189), (0.71875, 0.181953), (0.71875, 0.181953), (0.71875, 0.025), (0.71875, 0.025), (0.71875, 0.025), (0.71875, 0.025), (0.71875, 0.025), (0.71875, 0.025), (0.71875, 0.025), (0.71875, 0.025), (0.71875, 0.025), (0.71875, 0.025), (0.71875, 0.025), (0.71875, 0.025), (0.71875, 0.025), (0.71875, 0.025), (0.71875, 0.025), (0.71875, 0.025), (0.71875, 0.025), (0.71875, 0.025), (0.71875, 0.025), (0.71875, 0.025), (0.71875, 0.025), (0.71875, 0.025), (0.71875, 0.025), (0.71875, 0.025), (0.71875, 0.025), (0.71875, 0.025), (0.71875, 0.025), (0.71875, 0.025), (0.71875, 0.025), (0.71875, 0.025), (0.71875, 0.025), (0.71875, 0.025), (0.71875, 0.025), (0.71875, 0.025), (0.71875, 0.025), (0.71875, 0.025), (0.71875, 0.107804), (0.71875, 0.113859), (0.71875, 0.107804), (0.71875, 0.113859), (0.71875, 0.107804), (0.71875, 0.113859), (0.71875, 0.0374897), (0.71875, 0.025), (0.71875, 0.025), (0.71875, 0.025), (0.71875, 0.0374897), (0.71875, 0.0374897), (0.71875, 0.107804), (0.71875, 0.113859), (0.71875, 0.107804), (0.71875, 0.113859), (0.71875, 0.107804), (0.71875, 0.113859), (0.71875, 0.0931154), (0.71875, 0.0374897), (0.71875, 0.0374897), (0.71875, 0.0374897), (0.71875, 0.0931154), (0.71875, 0.0931154), (0.71875, 0.0374897), (0.71875, 0.0931154), (0.71875, 0.0931154), (0.71875, 0.0931154), (0.71875, 0.0374897), (0.71875, 0.0374897), (0.71875, 0.0931154), (0.71875, 0.0374897), (0.71875, 0.0374897), (0.71875, 0.0374897), (0.71875, 0.0931154), (0.71875, 0.0931154), (0.71875, 0.107804), (0.71875, 0.0931154), (0.71875, 0.0931154), (0.71875, 0.0931154), (0.71875, 0.107804), (0.71875, 0.107804), (0.71875, 0.0931154), (0.71875, 0.107804), (0.71875, 0.0931154), (0.71875, 0.107804), (0.71875, 0.0931154), (0.71875, 0.107804), (0.71875, 0.0374897), (0.71875, 0.025), (0.71875, 0.025), (0.71875, 0.025), (0.71875, 0.0374897), (0.71875, 0.0374897), (0.71875, 0.113859), (0.71875, 0.107804), (0.71875, 0.113859), (0.71875, 0.107804), (0.71875, 0.113859), (0.71875, 0.107804), (0.71875, 0.0374897), (0.71875, 0.025), (0.71875, 0.025), (0.71875, 0.025), (0.71875, 0.0374897), (0.71875, 0.0374897), (0.71875, 0.107804), (0.71875, 0.0931154), (0.71875, 0.0931154), (0.71875, 0.0931154), (0.71875, 0.107804), (0.71875, 0.107804), (0.71875, 0.0374897), (0.71875, 0.0931154), (0.71875, 0.0374897), (0.71875, 0.0931154), (0.71875, 0.0374897), (0.71875, 0.0931154), (0.71875, 0.107804), (0.71875, 0.0931154), (0.71875, 0.0931154), (0.71875, 0.0931154), (0.71875, 0.107804), (0.71875, 0.107804), (0.71875, 0.107804), (0.71875, 0.0931154), (0.71875, 0.107804), (0.71875, 0.0931154), (0.71875, 0.107804), (0.71875, 0.0931154), (0.71875, 0.0931154), (0.71875, 0.0374897), (0.71875, 0.0931154), (0.71875, 0.0374897), (0.71875, 0.0931154), (0.71875, 0.0374897), (0.71875, 0.0931154), (0.71875, 0.0374897), (0.71875, 0.0931154), (0.71875, 0.0374897), (0.71875, 0.0931154), (0.71875, 0.0374897), (0.71875, 0.113859), (0.71875, 0.107804), (0.71875, 0.107804), (0.71875, 0.107804), (0.71875, 0.113859), (0.71875, 0.113859), (0.71875, 0.025), (0.71875, 0.0374897), (0.71875, 0.025), (0.71875, 0.0374897), (0.71875, 0.025), (0.71875, 0.0374897), (0.71875, 0.025), (0.71875, 0.025), (0.71875, 0.025), (0.71875, 0.025), (0.71875, 0.025), (0.71875, 0.025), (0.71875, 0.113859), (0.71875, 0.125), (0.71875, 0.113859), (0.71875, 0.125), (0.71875, 0.113859), (0.71875, 0.125), (0.71875, 0.125), (0.71875, 0.113859), (0.71875, 0.113859), (0.71875, 0.113859), (0.71875, 0.125), (0.71875, 0.125), (0.71875, 0.113859), (0.71875, 0.107804), (0.71875, 0.107804), (0.71875, 0.107804), (0.71875, 0.113859), (0.71875, 0.113859), (0.71875, 0.125), (0.71875, 0.113859), (0.71875, 0.113859), (0.71875, 0.113859), (0.71875, 0.125), (0.71875, 0.125), (0.71875, 0.125), (0.71875, 0.113859), (0.71875, 0.113859), (0.71875, 0.113859), (0.71875, 0.125), (0.71875, 0.125), (0.71875, 0.125), (0.71875, 0.113859), (0.71875, 0.125), (0.71875, 0.113859), (0.71875, 0.125), (0.71875, 0.113859), (0.71875, 0.113859), (0.71875, 0.125), (0.71875, 0.113859), (0.71875, 0.125), (0.71875, 0.113859), (0.71875, 0.125), (0.71875, 0.0931154), (0.71875, 0.107804), (0.71875, 0.0931154), (0.71875, 0.107804), (0.71875, 0.0931154), (0.71875, 0.107804), (0.71875, 0.113859), (0.71875, 0.107804), (0.71875, 0.113859), (0.71875, 0.107804), (0.71875, 0.113859), (0.71875, 0.107804), (0.71875, 0.107804), (0.71875, 0.107804), (0.71875, 0.107804), (0.71875, 0.107804), (0.71875, 0.107804), (0.71875, 0.107804), (0.71875, 0.107804), (0.71875, 0.107804), (0.71875, 0.107804), (0.71875, 0.107804), (0.71875, 0.107804), (0.71875, 0.107804), (0.71875, 0.107804), (0.71875, 0.107804), (0.71875, 0.107804), (0.71875, 0.107804), (0.71875, 0.107804), (0.71875, 0.107804), (0.71875, 0.107804), (0.71875, 0.107804), (0.71875, 0.107804), (0.71875, 0.107804), (0.71875, 0.107804), (0.71875, 0.107804), (0.71875, 0.107804), (0.71875, 0.107804), (0.71875, 0.107804), (0.71875, 0.107804), (0.71875, 0.107804), (0.71875, 0.107804), (0.71875, 0.107804), (0.71875, 0.107804), (0.71875, 0.107804), (0.71875, 0.107804), (0.71875, 0.107804), (0.71875, 0.107804), (0.71875, 0.0374897), (0.71875, 0.0374897), (0.71875, 0.0374897), (0.71875, 0.0374897), (0.71875, 0.0374897), (0.71875, 0.0374897), (0.71875, 0.0374897), (0.71875, 0.0374897), (0.71875, 0.0374897), (0.71875, 0.0374897), (0.71875, 0.0374897), (0.71875, 0.0374897), (0.71875, 0.0374897), (0.71875, 0.0374897), (0.71875, 0.0374897), (0.71875, 0.0374897), (0.71875, 0.0374897), (0.71875, 0.0374897), (0.71875, 0.0374897), (0.71875, 0.0374897), (0.71875, 0.0374897), (0.71875, 0.0374897), (0.71875, 0.0374897), (0.71875, 0.0374897), (0.71875, 0.0374897), (0.71875, 0.0374897), (0.71875, 0.0374897), (0.71875, 0.0374897), (0.71875, 0.0374897), (0.71875, 0.0374897), (0.71875, 0.025), (0.71875, 0.225), (0.71875, 0.225), (0.71875, 0.225), (0.71875, 0.025), (0.71875, 0.025), (0.71875, 0.025), (0.71875, 0.225), (0.71875, 0.025), (0.71875, 0.225), (0.71875, 0.025), (0.71875, 0.225), (0.71875, 0.225), (0.71875, 0.025), (0.71875, 0.025), (0.71875, 0.025), (0.71875, 0.225), (0.71875, 0.225), (0.71875, 0.025), (0.71875, 0.225), (0.71875, 0.025), (0.71875, 0.225), (0.71875, 0.025), (0.71875, 0.225), (0.71875, 0.025), (0.71875, 0.225), (0.71875, 0.225), (0.71875, 0.225), (0.71875, 0.025), (0.71875, 0.025), (0.71875, 0.225), (0.71875, 0.025), (0.71875, 0.225), (0.71875, 0.025), (0.71875, 0.225), (0.71875, 0.025), (0.84375, 0.475), (0.84375, 0.275), (0.84375, 0.475), (0.84375, 0.275), (0.84375, 0.475), (0.84375, 0.275), (0.84375, 0.475), (0.84375, 0.275), (0.84375, 0.275), (0.84375, 0.275), (0.84375, 0.475), (0.84375, 0.475), (0.84375, 0.275), (0.84375, 0.475), (0.84375, 0.275), (0.84375, 0.475), (0.84375, 0.275), (0.84375, 0.475), (0.84375, 0.275), (0.84375, 0.475), (0.84375, 0.475), (0.84375, 0.475), (0.84375, 0.275), (0.84375, 0.275), (0.84375, 0.275), (0.84375, 0.475), (0.84375, 0.275), (0.84375, 0.475), (0.84375, 0.275), (0.84375, 0.475), (0.84375, 0.275), (0.84375, 0.475), (0.84375, 0.475), (0.84375, 0.475), (0.84375, 0.275), (0.84375, 0.275), (0.71875, 0.0418244), (0.71875, 0.0621824), (0.71875, 0.0621824), (0.71875, 0.0621824), (0.71875, 0.0418244), (0.71875, 0.0418244), (0.71875, 0.225), (0.71875, 0.181953), (0.71875, 0.181953), (0.71875, 0.181953), (0.71875, 0.225), (0.71875, 0.225), (0.71875, 0.0418244), (0.71875, 0.0621824), (0.71875, 0.0418244), (0.71875, 0.0621824), (0.71875, 0.0418244), (0.71875, 0.0621824), (0.71875, 0.157189), (0.71875, 0.157189), (0.71875, 0.157189), (0.71875, 0.157189), (0.71875, 0.157189), (0.71875, 0.157189), (0.71875, 0.157189), (0.71875, 0.157189), (0.71875, 0.157189), (0.71875, 0.157189), (0.71875, 0.157189), (0.71875, 0.157189), (0.71875, 0.0418244), (0.71875, 0.025), (0.71875, 0.025), (0.71875, 0.025), (0.71875, 0.0418244), (0.71875, 0.0418244), (0.71875, 0.0418244), (0.71875, 0.025), (0.71875, 0.0418244), (0.71875, 0.025), (0.71875, 0.0418244), (0.71875, 0.025), (0.71875, 0.025), (0.71875, 0.0418244), (0.71875, 0.025), (0.71875, 0.0418244), (0.71875, 0.025), (0.71875, 0.0418244), (0.71875, 0.0418244), (0.71875, 0.025), (0.71875, 0.025), (0.71875, 0.025), (0.71875, 0.0418244), (0.71875, 0.0418244), (0.71875, 0.025), (0.71875, 0.0418244), (0.71875, 0.025), (0.71875, 0.0418244), (0.71875, 0.025), (0.71875, 0.0418244), (0.71875, 0.0418244), (0.71875, 0.025), (0.71875, 0.025), (0.71875, 0.025), (0.71875, 0.0418244), (0.71875, 0.0418244), (0.71875, 0.181953), (0.71875, 0.157189), (0.71875, 0.181953), (0.71875, 0.157189), (0.71875, 0.181953), (0.71875, 0.157189), (0.71875, 0.0621824), (0.71875, 0.0418244), (0.71875, 0.0621824), (0.71875, 0.0418244), (0.71875, 0.0621824), (0.71875, 0.0418244), (0.71875, 0.0621824), (0.71875, 0.0418244), (0.71875, 0.0621824), (0.71875, 0.0418244), (0.71875, 0.0621824), (0.71875, 0.0418244), (0.71875, 0.181953), (0.71875, 0.225), (0.71875, 0.181953), (0.71875, 0.225), (0.71875, 0.181953), (0.71875, 0.225), (0.71875, 0.225), (0.71875, 0.181953), (0.71875, 0.181953), (0.71875, 0.181953), (0.71875, 0.225), (0.71875, 0.225), (0.71875, 0.225), (0.71875, 0.181953), (0.71875, 0.225), (0.71875, 0.181953), (0.71875, 0.225), (0.71875, 0.181953), (0.71875, 0.225), (0.71875, 0.181953), (0.71875, 0.181953), (0.71875, 0.181953), (0.71875, 0.225), (0.71875, 0.225), (0.71875, 0.157189), (0.71875, 0.181953), (0.71875, 0.181953), (0.71875, 0.181953), (0.71875, 0.157189), (0.71875, 0.157189), (0.71875, 0.0621824), (0.71875, 0.0418244), (0.71875, 0.0418244), (0.71875, 0.0418244), (0.71875, 0.0621824), (0.71875, 0.0621824), (0.71875, 0.157189), (0.71875, 0.181953), (0.71875, 0.157189), (0.71875, 0.181953), (0.71875, 0.157189), (0.71875, 0.181953), (0.71875, 0.0621824), (0.71875, 0.0418244), (0.71875, 0.0418244), (0.71875, 0.0418244), (0.71875, 0.0621824), (0.71875, 0.0621824), (0.71875, 0.181953), (0.71875, 0.157189), (0.71875, 0.157189), (0.71875, 0.157189), (0.71875, 0.181953), (0.71875, 0.181953), (0.71875, 0.181953), (0.71875, 0.225), (0.71875, 0.181953), (0.71875, 0.225), (0.71875, 0.181953), (0.71875, 0.225), (0.71875, 0.157189), (0.71875, 0.181953), (0.71875, 0.157189), (0.71875, 0.181953), (0.71875, 0.157189), (0.71875, 0.181953), (0.71875, 0.225), (0.71875, 0.225), (0.71875, 0.225), (0.71875, 0.225), (0.71875, 0.225), (0.71875, 0.225), (0.71875, 0.225), (0.71875, 0.225), (0.71875, 0.225), (0.71875, 0.225), (0.71875, 0.225), (0.71875, 0.225), (0.71875, 0.181953), (0.71875, 0.157189), (0.71875, 0.157189), (0.71875, 0.157189), (0.71875, 0.181953), (0.71875, 0.181953), (0.71875, 0.025), (0.71875, 0.025), (0.71875, 0.025), (0.71875, 0.025), (0.71875, 0.025), (0.71875, 0.025), (0.71875, 0.025), (0.71875, 0.025), (0.71875, 0.025), (0.71875, 0.025), (0.71875, 0.025), (0.71875, 0.025), (0.71875, 0.025), (0.71875, 0.025), (0.71875, 0.025), (0.71875, 0.025), (0.71875, 0.025), (0.71875, 0.025), (0.71875, 0.025), (0.71875, 0.025), (0.71875, 0.025), (0.71875, 0.025), (0.71875, 0.025), (0.71875, 0.025), (0.71875, 0.025), (0.71875, 0.025), (0.71875, 0.025), (0.71875, 0.025), (0.71875, 0.025), (0.71875, 0.025), (0.71875, 0.025), (0.71875, 0.025), (0.71875, 0.025), (0.71875, 0.025), (0.71875, 0.025), (0.71875, 0.025), (0.71875, 0.107804), (0.71875, 0.113859), (0.71875, 0.107804), (0.71875, 0.113859), (0.71875, 0.107804), (0.71875, 0.113859), (0.71875, 0.0374897), (0.71875, 0.025), (0.71875, 0.025), (0.71875, 0.025), (0.71875, 0.0374897), (0.71875, 0.0374897), (0.71875, 0.107804), (0.71875, 0.113859), (0.71875, 0.107804), (0.71875, 0.113859), (0.71875, 0.107804), (0.71875, 0.113859), (0.71875, 0.0931154), (0.71875, 0.0374897), (0.71875, 0.0374897), (0.71875, 0.0374897), (0.71875, 0.0931154), (0.71875, 0.0931154), (0.71875, 0.0374897), (0.71875, 0.0931154), (0.71875, 0.0931154), (0.71875, 0.0931154), (0.71875, 0.0374897), (0.71875, 0.0374897), (0.71875, 0.0931154), (0.71875, 0.0374897), (0.71875, 0.0374897), (0.71875, 0.0374897), (0.71875, 0.0931154), (0.71875, 0.0931154), (0.71875, 0.107804), (0.71875, 0.0931154), (0.71875, 0.0931154), (0.71875, 0.0931154), (0.71875, 0.107804), (0.71875, 0.107804), (0.71875, 0.0931154), (0.71875, 0.107804), (0.71875, 0.0931154), (0.71875, 0.107804), (0.71875, 0.0931154), (0.71875, 0.107804), (0.71875, 0.0374897), (0.71875, 0.025), (0.71875, 0.025), (0.71875, 0.025), (0.71875, 0.0374897), (0.71875, 0.0374897), (0.71875, 0.113859), (0.71875, 0.107804), (0.71875, 0.113859), (0.71875, 0.107804), (0.71875, 0.113859), (0.71875, 0.107804), (0.71875, 0.0374897), (0.71875, 0.025), (0.71875, 0.025), (0.71875, 0.025), (0.71875, 0.0374897), (0.71875, 0.0374897), (0.71875, 0.107804), (0.71875, 0.0931154), (0.71875, 0.0931154), (0.71875, 0.0931154), (0.71875, 0.107804), (0.71875, 0.107804), (0.71875, 0.0374897), (0.71875, 0.0931154), (0.71875, 0.0374897), (0.71875, 0.0931154), (0.71875, 0.0374897), (0.71875, 0.0931154), (0.71875, 0.107804), (0.71875, 0.0931154), (0.71875, 0.0931154), (0.71875, 0.0931154), (0.71875, 0.107804), (0.71875, 0.107804), (0.71875, 0.107804), (0.71875, 0.0931154), (0.71875, 0.107804), (0.71875, 0.0931154), (0.71875, 0.107804), (0.71875, 0.0931154), (0.71875, 0.0931154), (0.71875, 0.0374897), (0.71875, 0.0931154), (0.71875, 0.0374897), (0.71875, 0.0931154), (0.71875, 0.0374897), (0.71875, 0.0931154), (0.71875, 0.0374897), (0.71875, 0.0931154), (0.71875, 0.0374897), (0.71875, 0.0931154), (0.71875, 0.0374897), (0.71875, 0.113859), (0.71875, 0.107804), (0.71875, 0.107804), (0.71875, 0.107804), (0.71875, 0.113859), (0.71875, 0.113859), (0.71875, 0.025), (0.71875, 0.0374897), (0.71875, 0.025), (0.71875, 0.0374897), (0.71875, 0.025), (0.71875, 0.0374897), (0.71875, 0.025), (0.71875, 0.025), (0.71875, 0.025), (0.71875, 0.025), (0.71875, 0.025), (0.71875, 0.025), (0.71875, 0.113859), (0.71875, 0.125), (0.71875, 0.113859), (0.71875, 0.125), (0.71875, 0.113859), (0.71875, 0.125), (0.71875, 0.125), (0.71875, 0.113859), (0.71875, 0.113859), (0.71875, 0.113859), (0.71875, 0.125), (0.71875, 0.125), (0.71875, 0.113859), (0.71875, 0.107804), (0.71875, 0.107804), (0.71875, 0.107804), (0.71875, 0.113859), (0.71875, 0.113859), (0.71875, 0.125), (0.71875, 0.113859), (0.71875, 0.113859), (0.71875, 0.113859), (0.71875, 0.125), (0.71875, 0.125), (0.71875, 0.125), (0.71875, 0.113859), (0.71875, 0.113859), (0.71875, 0.113859), (0.71875, 0.125), (0.71875, 0.125), (0.71875, 0.125), (0.71875, 0.113859), (0.71875, 0.125), (0.71875, 0.113859), (0.71875, 0.125), (0.71875, 0.113859), (0.71875, 0.113859), (0.71875, 0.125), (0.71875, 0.113859), (0.71875, 0.125), (0.71875, 0.113859), (0.71875, 0.125), (0.71875, 0.0931154), (0.71875, 0.107804), (0.71875, 0.0931154), (0.71875, 0.107804), (0.71875, 0.0931154), (0.71875, 0.107804), (0.71875, 0.113859), (0.71875, 0.107804), (0.71875, 0.113859), (0.71875, 0.107804), (0.71875, 0.113859), (0.71875, 0.107804), (0.71875, 0.107804), (0.71875, 0.107804), (0.71875, 0.107804), (0.71875, 0.107804), (0.71875, 0.107804), (0.71875, 0.107804), (0.71875, 0.107804), (0.71875, 0.107804), (0.71875, 0.107804), (0.71875, 0.107804), (0.71875, 0.107804), (0.71875, 0.107804), (0.71875, 0.107804), (0.71875, 0.107804), (0.71875, 0.107804), (0.71875, 0.107804), (0.71875, 0.107804), (0.71875, 0.107804), (0.71875, 0.107804), (0.71875, 0.107804), (0.71875, 0.107804), (0.71875, 0.107804), (0.71875, 0.107804), (0.71875, 0.107804), (0.71875, 0.107804), (0.71875, 0.107804), (0.71875, 0.107804), (0.71875, 0.107804), (0.71875, 0.107804), (0.71875, 0.107804), (0.71875, 0.107804), (0.71875, 0.107804), (0.71875, 0.107804), (0.71875, 0.107804), (0.71875, 0.107804), (0.71875, 0.107804), (0.71875, 0.0374897), (0.71875, 0.0374897), (0.71875, 0.0374897), (0.71875, 0.0374897), (0.71875, 0.0374897), (0.71875, 0.0374897), (0.71875, 0.0374897), (0.71875, 0.0374897), (0.71875, 0.0374897), (0.71875, 0.0374897), (0.71875, 0.0374897), (0.71875, 0.0374897), (0.71875, 0.0374897), (0.71875, 0.0374897), (0.71875, 0.0374897), (0.71875, 0.0374897), (0.71875, 0.0374897), (0.71875, 0.0374897), (0.71875, 0.0374897), (0.71875, 0.0374897), (0.71875, 0.0374897), (0.71875, 0.0374897), (0.71875, 0.0374897), (0.71875, 0.0374897), (0.71875, 0.0374897), (0.71875, 0.0374897), (0.71875, 0.0374897), (0.71875, 0.0374897), (0.71875, 0.0374897), (0.71875, 0.0374897), (0.71875, 0.025), (0.71875, 0.225), (0.71875, 0.225), (0.71875, 0.225), (0.71875, 0.025), (0.71875, 0.025), (0.71875, 0.025), (0.71875, 0.225), (0.71875, 0.025), (0.71875, 0.225), (0.71875, 0.025), (0.71875, 0.225), (0.71875, 0.225), (0.71875, 0.025), (0.71875, 0.025), (0.71875, 0.025), (0.71875, 0.225), (0.71875, 0.225), (0.71875, 0.025), (0.71875, 0.225), (0.71875, 0.025), (0.71875, 0.225), (0.71875, 0.025), (0.71875, 0.225), (0.71875, 0.025), (0.71875, 0.225), (0.71875, 0.225), (0.71875, 0.225), (0.71875, 0.025), (0.71875, 0.025), (0.71875, 0.225), (0.71875, 0.025), (0.71875, 0.225), (0.71875, 0.025), (0.71875, 0.225), (0.71875, 0.025), (0.84375, 0.475), (0.84375, 0.275), (0.84375, 0.475), (0.84375, 0.275), (0.84375, 0.475), (0.84375, 0.275), (0.84375, 0.475), (0.84375, 0.275), (0.84375, 0.275), (0.84375, 0.275), (0.84375, 0.475), (0.84375, 0.475), (0.84375, 0.275), (0.84375, 0.475), (0.84375, 0.275), (0.84375, 0.475), (0.84375, 0.275), (0.84375, 0.475), (0.84375, 0.275), (0.84375, 0.475), (0.84375, 0.475), (0.84375, 0.475), (0.84375, 0.275), (0.84375, 0.275), (0.84375, 0.275), (0.84375, 0.475), (0.84375, 0.275), (0.84375, 0.475), (0.84375, 0.275), (0.84375, 0.475), (0.84375, 0.275), (0.84375, 0.475), (0.84375, 0.475), (0.84375, 0.475), (0.84375, 0.275), (0.84375, 0.275)] (interpolation = "faceVarying")
        uniform token subdivisionScheme = "none"
        rel material:binding = </Vehicle/Materials/colormap>
    }
    def Scope "Materials" {
        def Material "colormap" {
            token outputs:surface.connect = </Vehicle/Materials/colormap/surface.outputs:surface>
            def Shader "surface" {
                uniform token info:id = "UsdPreviewSurface"
                float inputs:roughness = 0.7
                float inputs:metallic = 0
                color3f inputs:diffuseColor.connect = </Vehicle/Materials/colormap/texture.outputs:rgb>
                token outputs:surface
            }
            def Shader "stReader" {
                uniform token info:id = "UsdPrimvarReader_float2"
                token inputs:varname = "st"
                float2 outputs:result
            }
            def Shader "texture" {
                uniform token info:id = "UsdUVTexture"
                asset inputs:file = @kenney-holiday-colormap.png@
                float2 inputs:st.connect = </Vehicle/Materials/colormap/stReader.outputs:result>
                token inputs:wrapS = "repeat"
                token inputs:wrapT = "repeat"
                float3 outputs:rgb
            }
        }
    }
}
