#usda 1.0
(
    defaultPrim = "Vehicle"
    metersPerUnit = 1
    upAxis = "Y"
)
def Xform "Vehicle" {
    def Mesh "mesh_metalDark" {
        int[] faceVertexCounts = [3, 3, 3, 3, 3, 3, 3, 3, 3, 3, 3, 3, 3, 3, 3, 3, 3, 3, 3, 3, 3, 3, 3, 3, 3, 3, 3, 3, 3, 3, 3, 3, 3, 3, 3, 3, 3, 3, 3, 3, 3, 3, 3, 3, 3, 3, 3, 3, 3, 3, 3, 3, 3, 3, 3, 3, 3, 3, 3, 3, 3, 3, 3, 3, 3, 3, 3, 3, 3, 3, 3, 3, 3, 3, 3, 3, 3, 3, 3, 3, 3, 3, 3, 3, 3, 3, 3, 3, 3, 3, 3, 3, 3, 3, 3, 3, 3, 3, 3, 3, 3, 3, 3, 3, 3, 3, 3, 3, 3, 3, 3, 3, 3, 3, 3, 3, 3, 3, 3, 3, 3, 3, 3, 3, 3, 3, 3, 3, 3, 3, 3, 3, 3, 3, 3, 3, 3, 3, 3, 3]
        int[] faceVertexIndices = [2, 1, 0, 1, 2, 3, 3, 4, 1, 5, 1, 4, 1, 5, 6, 8, 2, 7, 2, 8, 3, 3, 8, 9, 3, 9, 4, 12, 11, 10, 11, 12, 13, 13, 14, 11, 15, 14, 13, 15, 1, 14, 1, 15, 0, 14, 1, 6, 14, 6, 16, 14, 16, 17, 18, 12, 10, 12, 18, 19, 19, 18, 20, 13, 22, 21, 22, 13, 12, 22, 12, 23, 23, 12, 24, 25, 21, 22, 21, 25, 19, 19, 25, 24, 19, 24, 12, 28, 27, 26, 27, 28, 29, 27, 29, 30, 30, 31, 27, 17, 31, 30, 31, 17, 16, 31, 16, 32, 34, 8, 33, 8, 34, 9, 35, 5, 4, 37, 36, 35, 36, 37, 38, 36, 38, 28, 28, 38, 29, 34, 4, 9, 4, 34, 35, 39, 35, 34, 35, 39, 37, 39, 34, 40, 41, 40, 34, 39, 38, 37, 38, 39, 42, 40, 41, 43, 44, 39, 40, 39, 44, 42, 42, 44, 45, 45, 44, 46, 48, 41, 47, 49, 41, 48, 41, 49, 43, 51, 47, 50, 47, 51, 48, 54, 53, 52, 53, 54, 55, 53, 55, 56, 59, 58, 57, 60, 58, 59, 60, 61, 58, 62, 61, 60, 62, 63, 61, 45, 63, 62, 63, 45, 46, 65, 64, 51, 64, 65, 66, 51, 64, 48, 48, 64, 49, 49, 64, 59, 64, 66, 67, 67, 66, 55, 55, 66, 56, 60, 59, 64, 69, 68, 66, 68, 69, 53, 68, 53, 70, 70, 53, 71, 72, 66, 68, 66, 72, 56, 56, 72, 71, 56, 71, 53, 41, 34, 47, 33, 47, 34, 73, 47, 33, 47, 73, 50, 21, 75, 74, 75, 21, 20, 20, 21, 19, 53, 76, 52, 76, 53, 69, 69, 77, 76, 76, 74, 75, 74, 76, 77, 20, 78, 75, 78, 20, 79, 79, 20, 80, 81, 75, 78, 81, 76, 75, 76, 81, 52, 52, 81, 82, 52, 82, 83, 85, 84, 80, 84, 85, 86, 84, 86, 87, 87, 86, 82, 82, 86, 83, 79, 80, 84, 69, 88, 77, 88, 69, 89, 89, 69, 33, 33, 69, 73, 73, 69, 65, 65, 69, 66, 21, 15, 13, 15, 21, 90, 90, 21, 74, 91, 90, 74, 8, 15, 90, 15, 8, 7, 89, 8, 90, 8, 89, 33, 94, 93, 92, 93, 94, 95, 91, 92, 90, 92, 91, 94, 95, 89, 93, 89, 95, 88, 91, 95, 94, 95, 91, 88, 77, 91, 74, 91, 77, 88, 89, 92, 93, 92, 89, 90]
        point3f[] points = [(0.7, 0.6, -1.25), (0.7, 0.6, -1.15), (0.3, 0.6, -1.25), (0.3, 0.6, -1.15), (0.3, 0.566667, -0.916667), (0.3, 0.557143, -0.85), (0.7, 0.557143, -0.85), (0.3, 0.1, -1.25), (0.3, 0.1, -1.05), (0.3, 0.5, -1.05), (0.7, 0.5, 0.6), (0.7, 0.3, 0.6), (0.7, 0.5, 1.25), (0.7, 0.1, 1.05), (0.7, 0.3, 0.1), (0.7, 0.1, -1.25), (0.7, 0.5, -0.45), (0.7, 0.5, 0.1), (0.3, 0.5, 0.6), (0.3, 0.5, 1.25), (0.3, 0.5, 0.85), (0.3, 0.1, 1.05), (0.6, 0.189443, 1.09472), (0.6, 0.410557, 1.20528), (0.4, 0.410557, 1.20528), (0.4, 0.189443, 1.09472), (0.45, 0.5, -0.45), (0.45, 0.5, -0.15), (0.3, 0.5, -0.45), (0.3, 0.5, -0.25), (0.3, 0.5, 0.1), (0.55, 0.5, -0.15), (0.55, 0.5, -0.45), (-0.3, 0.1, -1.05), (-0.3, 0.5, -1.05), (0.3, 0.6, -0.85), (0.3, 0.6, -0.45), (0.3, 0.7, -0.65), (0.3, 0.7, -0.25), (-0.3, 0.7, -0.65), (-0.3, 0.6, -0.85), (-0.3, 0.566667, -0.916667), (-0.3, 0.7, -0.25), (-0.3, 0.557143, -0.85), (-0.3, 0.6, -0.45), (-0.3, 0.5, -0.25), (-0.3, 0.5, -0.45), (-0.3, 0.6, -1.15), (-0.7, 0.6, -1.15), (-0.7, 0.557143, -0.85), (-0.3, 0.6, -1.25), (-0.7, 0.6, -1.25), (-0.3, 0.5, 0.85), (-0.3, 0.5, 1.25), (-0.3, 0.5, 0.6), (-0.7, 0.5, 0.6), (-0.7, 0.5, 1.25), (-0.55, 0.5, -0.45), (-0.55, 0.5, -0.15), (-0.7, 0.5, -0.45), (-0.7, 0.5, 0.1), (-0.45, 0.5, -0.15), (-0.3, 0.5, 0.1), (-0.45, 0.5, -0.45), (-0.7, 0.3, 0.1), (-0.7, 0.1, -1.25), (-0.7, 0.1, 1.05), (-0.7, 0.3, 0.6), (-0.4, 0.189443, 1.09472), (-0.3, 0.1, 1.05), (-0.4, 0.410557, 1.20528), (-0.6, 0.410557, 1.20528), (-0.6, 0.189443, 1.09472), (-0.3, 0.1, -1.25), (0.3, 0.1, 0.55), (0.3, 0.22, 0.85), (-0.3, 0.22, 0.85), (-0.3, 0.1, 0.55), (0.25, 0.27, 0.85), (0.25, 0.6, 0.85), (0.3, 0.6, 0.85), (-0.25, 0.27, 0.85), (-0.25, 0.6, 0.85), (-0.3, 0.6, 0.85), (0.25, 0.6, 1), (0.3, 0.6, 1.05), (-0.3, 0.6, 1.05), (-0.25, 0.6, 1), (-0.3, 0.1, 0.45), (-0.3, 0.1, -0.95), (0.3, 0.1, -0.95), (0.3, 0.1, 0.45), (0.3, 7.78311e-16, -0.95), (-0.3, 3.38396e-17, -0.95), (0.3, 0, 0.45), (-0.3, 2.00782e-15, 0.45), (0.7, 0.6, -0.85), (0.7, 0.6, -0.45), (0.55, 0.6, -0.45), (0.55, 0.6, -0.25), (0.45, 0.6, -0.45), (0.45, 0.6, -0.25), (0.4, 0.2, -1.25), (0.4, 0.5, -1.25), (0.6, 0.5, -1.25), (0.6, 0.2, -1.25), (0.55, 0.55, -0.15), (0.45, 0.55, -0.15), (-0.6, 0.2, -1.25), (-0.6, 0.5, -1.25), (-0.4, 0.5, -1.25), (-0.4, 0.2, -1.25), (-0.7, 0.6, -0.85), (-0.45, 0.6, -0.45), (-0.45, 0.6, -0.25), (-0.55, 0.6, -0.45), (-0.7, 0.6, -0.45), (-0.55, 0.6, -0.25), (-0.55, 0.55, -0.15), (-0.45, 0.55, -0.15), (0.2, 0.8, 0.15), (0.1, 0.8, 0.15), (0.2, 0.85, 0.15), (0.1, 0.9, 0.15), (0.2, 0.85, 0.05), (0.2, 0.8, 0.05), (0.1, 0.9, 0.05), (0.1, 0.8, 0.05), (-0.0999999, 0.8, -0.05), (0.1, 0.8, -0.05), (-0.0999999, 0.9, -0.05), (0.1, 0.9, -0.05), (-0.0999999, 0.8, 0.05), (-0.0999999, 0.9, 0.05), (-0.2, 0.8, 0.05), (-0.2, 0.85, 0.05), (-0.2, 0.8, 0.15), (-0.2, 0.85, 0.15), (0.2, 0.8, 0.65), (0.1, 0.8, 0.65), (0.2, 0.85, 0.65), (0.1, 0.9, 0.65), (0.1, 0.8, 0.75), (-0.0999999, 0.8, 0.75), (0.1, 0.9, 0.75), (-0.0999999, 0.9, 0.75), (0.2, 0.85, 0.55), (0.1, 0.9, 0.55), (0.2, 0.8, 0.55), (-0.0999999, 0.8, 0.15), (-0.0999999, 0.9, 0.15), (-0.0999999, 0.8, 0.55), (-0.0999999, 0.9, 0.55), (-0.0999999, 0.9, 0.65), (-0.0999999, 0.8, 0.65), (-0.2, 0.8, 0.65), (-0.2, 0.85, 0.65), (0.1, 0.8, 0.55), (-0.2, 0.85, 0.55), (-0.2, 0.8, 0.55), (0.4, 0.410557, 1.09472), (0.6, 0.410557, 1.09472), (0.6, 0.2, -1.05), (0.4, 0.2, -1.05), (0.4, 0.5, -1.05), (0.6, 0.5, -1.05), (-0.4, 0.2, -1.05), (-0.6, 0.2, -1.05), (-0.4, 0.5, -1.05), (-0.6, 0.5, -1.05), (-0.4, 0.410557, 1.09472), (-0.6, 0.410557, 1.09472), (-0.25, 0.3, 1), (0.25, 0.3, 1), (0.75, 0.3, 0.6), (0.75, 0.55, 0.6), (0.3, 0.55, 0.6), (0.75, 0.3, 0.1), (0.75, 0.55, 0.1), (0.3, 0.55, 0.1), (-0.75, 0.3, 0.1), (-0.75, 0.55, 0.1), (-0.75, 0.3, 0.6), (-0.75, 0.55, 0.6), (-0.3, 0.55, 0.1), (-0.3, 0.55, 0.6), (0.3, 0.8, 0.95), (-0.3, 0.8, 0.95), (0.3, 0.8, -0.25), (-0.3, 0.8, -0.25), (0.3, 0.7, 1.05), (-0.3, 0.7, 1.05)]
        normal3f[] normals = [(0, 1, 0), (0, 1, 0), (0, 1, 0), (0, 1, 0), (0, 1, 0), (0, 1, 0), (0, 0.98995, 0.141421), (0, 0.98995, 0.141421), (0, 0.98995, 0.141421), (0, 0.98995, 0.141421), (0, 0.98995, 0.141421), (0, 0.98995, 0.141421), (0, 0.98995, 0.141421), (0, 0.98995, 0.141421), (0, 0.98995, 0.141421), (-1, 0, 0), (-1, 0, 0), (-1, 0, 0), (-1, 0, 0), (-1, 0, 0), (-1, 0, 0), (-1, 0, 0), (-1, 0, 0), (-1, 0, 0), (-1, 0, 0), (-1, 0, 0), (-1, 0, 0), (1, 0, 0), (1, 0, 0), (1, 0, 0), (1, 0, 0), (1, 0, 0), (1, 0, 0), (1, 0, 0), (1, 0, 0), (1, 0, 0), (1, 0, 0), (1, 0, 0), (1, 0, 0), (1, 0, 0), (1, 0, 0), (1, 0, 0), (1, 0, 0), (1, 0, 0), (1, 0, 0), (1, 0, 0), (1, 0, 0), (1, 0, 0), (1, 0, 0), (1, 0, 0), (1, 0, 0), (1, 0, 0), (1, 0, 0), (1, 0, 0), (0, 1, 0), (0, 1, 0), (0, 1, 0), (0, 1, 0), (0, 1, 0), (0, 1, 0), (0, 1, 0), (0, 1, 0), (0, 1, 0), (0, -0.447214, 0.894427), (0, -0.447214, 0.894427), (0, -0.447214, 0.894427), (0, -0.447214, 0.894427), (0, -0.447214, 0.894427), (0, -0.447214, 0.894427), (0, -0.447214, 0.894427), (0, -0.447214, 0.894427), (0, -0.447214, 0.894427), (0, -0.447214, 0.894427), (0, -0.447214, 0.894427), (0, -0.447214, 0.894427), (0, -0.447214, 0.894427), (0, -0.447214, 0.894427), (0, -0.447214, 0.894427), (0, -0.447214, 0.894427), (0, -0.447214, 0.894427), (0, -0.447214, 0.894427), (0, -0.447214, 0.894427), (0, -0.447214, 0.894427), (0, -0.447214, 0.894427), (0, -0.447214, 0.894427), (0, -0.447214, 0.894427), (0, -0.447214, 0.894427), (0, 1, 0), (0, 1, 0), (0, 1, 0), (0, 1, 0), (0, 1, 0), (0, 1, 0), (0, 1, 0), (0, 1, 0), (0, 1, 0), (0, 1, 0), (0, 1, 0), (0, 1, 0), (0, 1, 0), (0, 1, 0), (0, 1, 0), (0, 1, 0), (0, 1, 0), (0, 1, 0), (0, 1, 0), (0, 1, 0), (0, 1, 0), (0, 0, -1), (0, 0, -1), (0, 0, -1), (0, 0, -1), (0, 0, -1), (0, 0, -1), (1, 0, 0), (1, 0, 0), (1, 0, 0), (1, 0, 0), (1, 0, 0), (1, 0, 0), (1, 0, 0), (1, 0, 0), (1, 0, 0), (1, 0, 0), (1, 0, 0), (1, 0, 0), (1, 0, 0), (1, 0, 0), (1, 0, 0), (0, 0.894427, -0.447214), (0, 0.894427, -0.447214), (0, 0.894427, -0.447214), (0, 0.894427, -0.447214), (0, 0.894427, -0.447214), (0, 0.894427, -0.447214), (0, 0.894427, -0.447214), (0, 0.894427, -0.447214), (0, 0.894427, -0.447214), (0, 0.894427, -0.447214), (0, 0.894427, -0.447214), (0, 0.894427, -0.447214), (0, 0.894427, -0.447214), (0, 0.894427, -0.447214), (0, 0.894427, -0.447214), (0, 0.894427, -0.447214), (0, 0.894427, -0.447214), (0, 0.894427, -0.447214), (0, 1, 0), (0, 1, 0), (0, 1, 0), (0, 1, 0), (0, 1, 0), (0, 1, 0), (-1, 0, 0), (-1, 0, 0), (-1, 0, 0), (-1, 0, 0), (-1, 0, 0), (-1, 0, 0), (-1, 0, 0), (-1, 0, 0), (-1, 0, 0), (-1, 0, 0), (-1, 0, 0), (-1, 0, 0), (-1, 0, 0), (-1, 0, 0), (-1, 0, 0), (0, 0.98995, 0.141421), (0, 0.98995, 0.141421), (0, 0.98995, 0.141421), (0, 0.98995, 0.141421), (0, 0.98995, 0.141421), (0, 0.98995, 0.141421), (0, 0.98995, 0.141421), (0, 0.98995, 0.141421), (0, 0.98995, 0.141421), (0, 1, 0), (0, 1, 0), (0, 1, 0), (0, 1, 0), (0, 1, 0), (0, 1, 0), (0, 1, 0), (0, 1, 0), (0, 1, 0), (0, 1, 0), (0, 1, 0), (0, 1, 0), (0, 1, 0), (0, 1, 0), (0, 1, 0), (0, 1, 0), (0, 1, 0), (0, 1, 0), (0, 1, 0), (0, 1, 0), (0, 1, 0), (0, 1, 0), (0, 1, 0), (0, 1, 0), (0, 1, 0), (0, 1, 0), (0, 1, 0), (0, 1, 0), (0, 1, 0), (0, 1, 0), (0, 1, 0), (0, 1, 0), (0, 1, 0), (0, 1, 0), (0, 1, 0), (0, 1, 0), (-1, 0, 0), (-1, 0, 0), (-1, 0, 0), (-1, 0, 0), (-1, 0, 0), (-1, 0, 0), (-1, 0, 0), (-1, 0, 0), (-1, 0, 0), (-1, 0, 0), (-1, 0, 0), (-1, 0, 0), (-1, 0, 0), (-1, 0, 0), (-1, 0, 0), (-1, 0, 0), (-1, 0, 0), (-1, 0, 0), (-1, 0, 0), (-1, 0, 0), (-1, 0, 0), (-1, 0, 0), (-1, 0, 0), (-1, 0, 0), (-1, 0, 0), (-1, 0, 0), (-1, 0, 0), (0, -0.447214, 0.894427), (0, -0.447214, 0.894427), (0, -0.447214, 0.894427), (0, -0.447214, 0.894427), (0, -0.447214, 0.894427), (0, -0.447214, 0.894427), (0, -0.447214, 0.894427), (0, -0.447214, 0.894427), (0, -0.447214, 0.894427), (0, -0.447214, 0.894427), (0, -0.447214, 0.894427), (0, -0.447214, 0.894427), (0, -0.447214, 0.894427), (0, -0.447214, 0.894427), (0, -0.447214, 0.894427), (0, -0.447214, 0.894427), (0, -0.447214, 0.894427), (0, -0.447214, 0.894427), (0, -0.447214, 0.894427), (0, -0.447214, 0.894427), (0, -0.447214, 0.894427), (0, -0.447214, 0.894427), (0, -0.447214, 0.894427), (0, -0.447214, 0.894427), (1, 0, 0), (1, 0, 0), (1, 0, 0), (1, 0, 0), (1, 0, 0), (1, 0, 0), (1, 0, 0), (1, 0, 0), (1, 0, 0), (1, 0, 0), (1, 0, 0), (1, 0, 0), (-1, 0, 0), (-1, 0, 0), (-1, 0, 0), (-1, 0, 0), (-1, 0, 0), (-1, 0, 0), (-1, 0, 0), (-1, 0, 0), (-1, 0, 0), (1, 0, 0), (1, 0, 0), (1, 0, 0), (1, 0, 0), (1, 0, 0), (1, 0, 0), (1, 0, 0), (1, 0, 0), (1, 0, 0), (0, -0.928477, 0.371391), (0, -0.928477, 0.371391), (0, -0.928477, 0.371391), (0, -0.928477, 0.371391), (0, -0.928477, 0.371391), (0, -0.928477, 0.371391), (0, 0, 1), (0, 0, 1), (0, 0, 1), (0, 0, 1), (0, 0, 1), (0, 0, 1), (0, 0, 1), (0, 0, 1), (0, 0, 1), (0, 0, 1), (0, 0, 1), (0, 0, 1), (0, 0, 1), (0, 0, 1), (0, 0, 1), (0, 0, 1), (0, 0, 1), (0, 0, 1), (0, 0, 1), (0, 0, 1), (0, 0, 1), (0, 0, 1), (0, 0, 1), (0, 0, 1), (0, -1, 0), (0, -1, 0), (0, -1, 0), (0, -1, 0), (0, -1, 0), (0, -1, 0), (0, -1, 0), (0, -1, 0), (0, -1, 0), (0, -1, 0), (0, -1, 0), (0, -1, 0), (0, -1, 0), (0, -1, 0), (0, -1, 0), (0, -1, 0), (0, -1, 0), (0, -1, 0), (0, -1, 0), (0, -1, 0), (0, -1, 0), (0, -1, 0), (0, -1, 0), (0, -1, 0), (0, -1, 0), (0, -1, 0), (0, -1, 0), (0, -1, 0), (0, -1, 0), (0, -1, 0), (0, -1, 0), (0, -1, 0), (0, -1, 0), (0, -1, 0), (0, -1, 0), (0, -1, 0), (0, -1, 0), (0, -1, 0), (0, -1, 0), (0, -1, 0), (0, -1, 0), (0, -1, 0), (0, -1, 0), (0, -1, 0), (0, -1, 0), (0, -1, 0), (0, -1, 0), (0, -1, 0), (0, -1, 0), (0, -1, 0), (0, -1, 0), (0, -1, 0), (0, -1, 0), (0, -1, 0), (0, -1, 0), (0, -1, 0), (0, -1, 0), (0, -1, 0), (0, -1, 0), (0, -1, 0), (0, -1, 0), (0, -1, 0), (0, -1, 0), (0, -1, 0), (0, -1, 0), (0, -1, 0), (1, 0, 0), (1, 0, 0), (1, 0, 0), (1, 0, 0), (1, 0, 0), (1, 0, 0), (-1, 0, 0), (-1, 0, 0), (-1, 0, 0), (-1, 0, 0), (-1, 0, 0), (-1, 0, 0), (0, 0, 1), (0, 0, 1), (0, 0, 1), (0, 0, 1), (0, 0, 1), (0, 0, 1), (0, -1, 0), (0, -1, 0), (0, -1, 0), (0, -1, 0), (0, -1, 0), (0, -1, 0), (0, 0, -1), (0, 0, -1), (0, 0, -1), (0, 0, -1), (0, 0, -1), (0, 0, -1)] (interpolation = "faceVarying")
        texCoord2f[] primvars:st = [(-11.811, -49.2126), (-27.5591, -45.2756), (-27.5591, -49.2126), (-27.5591, -45.2756), (-11.811, -49.2126), (-11.811, -45.2756), (11.811, 48.1612), (11.811, 38.8816), (27.5591, 48.1612), (11.811, 36.2303), (27.5591, 48.1612), (11.811, 38.8816), (27.5591, 48.1612), (11.811, 36.2303), (27.5591, 36.2303), (-41.3386, 3.93701), (-49.2126, 23.6221), (-49.2126, 3.93701), (-49.2126, 23.6221), (-41.3386, 3.93701), (-45.2756, 23.6221), (-45.2756, 23.6221), (-41.3386, 3.93701), (-41.3386, 19.685), (-45.2756, 23.6221), (-41.3386, 19.685), (-36.0892, 22.3097), (-49.2126, 19.685), (-23.6221, 11.811), (-23.6221, 19.685), (-23.6221, 11.811), (-49.2126, 19.685), (-41.3386, 3.93701), (-41.3386, 3.93701), (-3.93701, 11.811), (-23.6221, 11.811), (49.2126, 3.93701), (-3.93701, 11.811), (-41.3386, 3.93701), (49.2126, 3.93701), (45.2756, 23.6221), (-3.93701, 11.811), (45.2756, 23.6221), (49.2126, 3.93701), (49.2126, 23.6221), (-3.93701, 11.811), (45.2756, 23.6221), (33.4646, 21.9348), (-3.93701, 11.811), (33.4646, 21.9348), (17.7165, 19.685), (-3.93701, 11.811), (17.7165, 19.685), (-3.93701, 19.685), (-11.811, 23.6221), (-27.5591, 49.2126), (-27.5591, 23.6221), (-27.5591, 49.2126), (-11.811, 23.6221), (-11.811, 49.2126), (-11.811, 49.2126), (-11.811, 23.6221), (-11.811, 33.4646), (27.5591, 22.0085), (23.6221, 25.9456), (11.811, 22.0085), (23.6221, 25.9456), (27.5591, 22.0085), (27.5591, 39.6154), (23.6221, 25.9456), (27.5591, 39.6154), (23.6221, 35.6784), (23.6221, 35.6784), (27.5591, 39.6154), (15.748, 35.6784), (15.748, 25.9456), (11.811, 22.0085), (23.6221, 25.9456), (11.811, 22.0085), (15.748, 25.9456), (11.811, 39.6154), (11.811, 39.6154), (15.748, 25.9456), (15.748, 35.6784), (11.811, 39.6154), (15.748, 35.6784), (27.5591, 39.6154), (-11.811, -17.7165), (-17.7165, -5.90551), (-17.7165, -17.7165), (-17.7165, -5.90551), (-11.811, -17.7165), (-11.811, -9.84252), (-17.7165, -5.90551), (-11.811, -9.84252), (-11.811, 3.93701), (-11.811, 3.93701), (-21.6535, -5.90551), (-17.7165, -5.90551), (-27.5591, 3.93701), (-21.6535, -5.90551), (-11.811, 3.93701), (-21.6535, -5.90551), (-27.5591, 3.93701), (-27.5591, -17.7165), (-21.6535, -5.90551), (-27.5591, -17.7165), (-21.6535, -17.7165), (11.811, 19.685), (-11.811, 3.93701), (11.811, 3.93701), (-11.811, 3.93701), (11.811, 19.685), (-11.811, 19.685), (33.4646, 23.6221), (33.4646, 21.9348), (36.0892, 22.3097), (25.5906, 27.5591), (17.7165, 23.6221), (33.4646, 23.6221), (17.7165, 23.6221), (25.5906, 27.5591), (9.84252, 27.5591), (17.7165, 23.6221), (9.84252, 27.5591), (17.7165, 19.685), (17.7165, 19.685), (9.84252, 27.5591), (9.84252, 19.685), (11.811, -28.1709), (-11.811, -22.302), (-11.811, -28.1709), (-11.811, -22.302), (11.811, -28.1709), (-11.811, -19.3675), (11.811, -10.5641), (-11.811, -19.3675), (11.811, -28.1709), (-11.811, -19.3675), (11.811, -10.5641), (-11.811, -10.5641), (11.811, -10.5641), (11.811, -28.1709), (11.811, -19.3675), (11.811, -22.302), (11.811, -19.3675), (11.811, -28.1709), (11.811, -25.5906), (-11.811, -9.84252), (-11.811, -25.5906), (-11.811, -9.84252), (11.811, -25.5906), (11.811, -9.84252), (-33.4646, 23.6221), (-36.0892, 22.3097), (-33.4646, 21.9348), (-17.7165, 23.6221), (-25.5906, 27.5591), (-33.4646, 23.6221), (-25.5906, 27.5591), (-17.7165, 23.6221), (-9.84252, 27.5591), (-9.84252, 27.5591), (-17.7165, 23.6221), (-9.84252, 19.685), (-9.84252, 19.685), (-17.7165, 23.6221), (-17.7165, 19.685), (-27.5591, 48.1612), (-11.811, 38.8816), (-11.811, 48.1612), (-27.5591, 36.2303), (-11.811, 38.8816), (-27.5591, 48.1612), (-11.811, 38.8816), (-27.5591, 36.2303), (-11.811, 36.2303), (27.5591, -49.2126), (11.811, -45.2756), (11.811, -49.2126), (11.811, -45.2756), (27.5591, -49.2126), (27.5591, -45.2756), (11.811, 23.6221), (11.811, 49.2126), (11.811, 33.4646), (11.811, 49.2126), (11.811, 23.6221), (27.5591, 23.6221), (11.811, 49.2126), (27.5591, 23.6221), (27.5591, 49.2126), (27.5591, -17.7165), (21.6535, -5.90551), (21.6535, -17.7165), (27.5591, 3.93701), (21.6535, -5.90551), (27.5591, -17.7165), (27.5591, 3.93701), (17.7165, -5.90551), (21.6535, -5.90551), (11.811, 3.93701), (17.7165, -5.90551), (27.5591, 3.93701), (11.811, 3.93701), (17.7165, -17.7165), (17.7165, -5.90551), (11.811, -9.84252), (17.7165, -17.7165), (11.811, 3.93701), (17.7165, -17.7165), (11.811, -9.84252), (11.811, -17.7165), (-49.2126, 3.93701), (3.93701, 11.811), (-49.2126, 23.6221), (3.93701, 11.811), (-49.2126, 3.93701), (41.3386, 3.93701), (-49.2126, 23.6221), (3.93701, 11.811), (-45.2756, 23.6221), (-45.2756, 23.6221), (3.93701, 11.811), (-33.4646, 21.9348), (-33.4646, 21.9348), (3.93701, 11.811), (-17.7165, 19.685), (3.93701, 11.811), (41.3386, 3.93701), (23.6221, 11.811), (23.6221, 11.811), (41.3386, 3.93701), (23.6221, 19.685), (23.6221, 19.685), (41.3386, 3.93701), (49.2126, 19.685), (3.93701, 19.685), (-17.7165, 19.685), (3.93701, 11.811), (-11.811, 22.0085), (-15.748, 25.9456), (-27.5591, 22.0085), (-15.748, 25.9456), (-11.811, 22.0085), (-11.811, 39.6154), (-15.748, 25.9456), (-11.811, 39.6154), (-15.748, 35.6784), (-15.748, 35.6784), (-11.811, 39.6154), (-23.6221, 35.6784), (-23.6221, 25.9456), (-27.5591, 22.0085), (-15.748, 25.9456), (-27.5591, 22.0085), (-23.6221, 25.9456), (-27.5591, 39.6154), (-27.5591, 39.6154), (-23.6221, 25.9456), (-23.6221, 35.6784), (-27.5591, 39.6154), (-23.6221, 35.6784), (-11.811, 39.6154), (36.0892, 22.3097), (41.3386, 19.685), (45.2756, 23.6221), (41.3386, 3.93701), (45.2756, 23.6221), (41.3386, 19.685), (49.2126, 3.93701), (45.2756, 23.6221), (41.3386, 3.93701), (45.2756, 23.6221), (49.2126, 3.93701), (49.2126, 23.6221), (41.3386, 3.93701), (33.4646, 8.66142), (21.6535, 3.93701), (33.4646, 8.66142), (41.3386, 3.93701), (33.4646, 19.685), (33.4646, 19.685), (41.3386, 3.93701), (49.2126, 19.685), (-49.2126, 19.685), (-33.4646, 8.66142), (-33.4646, 19.685), (-33.4646, 8.66142), (-49.2126, 19.685), (-41.3386, 3.93701), (-41.3386, 3.93701), (-21.6535, 3.93701), (-33.4646, 8.66142), (-11.811, 34.2878), (11.811, 21.567), (11.811, 34.2878), (11.811, 21.567), (-11.811, 34.2878), (-11.811, 21.567), (11.811, 19.685), (9.84252, 10.6299), (11.811, 8.66142), (9.84252, 10.6299), (11.811, 19.685), (9.84252, 23.6221), (9.84252, 23.6221), (11.811, 19.685), (11.811, 23.6221), (-9.84252, 10.6299), (11.811, 8.66142), (9.84252, 10.6299), (-9.84252, 10.6299), (-11.811, 8.66142), (11.811, 8.66142), (-11.811, 8.66142), (-9.84252, 10.6299), (-11.811, 19.685), (-11.811, 19.685), (-9.84252, 10.6299), (-9.84252, 23.6221), (-11.811, 19.685), (-9.84252, 23.6221), (-11.811, 23.6221), (11.811, 41.3386), (9.84252, 39.3701), (11.811, 33.4646), (9.84252, 39.3701), (11.811, 41.3386), (-11.811, 41.3386), (9.84252, 39.3701), (-11.811, 41.3386), (-9.84252, 39.3701), (-9.84252, 39.3701), (-11.811, 41.3386), (-9.84252, 33.4646), (-9.84252, 33.4646), (-11.811, 41.3386), (-11.811, 33.4646), (9.84252, 33.4646), (11.811, 33.4646), (9.84252, 39.3701), (-11.811, 41.3386), (-11.811, 17.7165), (-11.811, 21.6535), (-11.811, 17.7165), (-11.811, 41.3386), (-11.811, -37.4016), (-11.811, -37.4016), (-11.811, 41.3386), (-11.811, -41.3386), (-11.811, -41.3386), (-11.811, 41.3386), (-11.811, -49.2126), (-11.811, -49.2126), (-11.811, 41.3386), (-27.5591, -49.2126), (-27.5591, -49.2126), (-11.811, 41.3386), (-27.5591, 41.3386), (11.811, 41.3386), (27.5591, -49.2126), (27.5591, 41.3386), (27.5591, -49.2126), (11.811, 41.3386), (11.811, -37.4016), (11.811, -37.4016), (11.811, 41.3386), (11.811, 21.6535), (11.811, 17.7165), (11.811, -37.4016), (11.811, 21.6535), (11.811, -41.3386), (27.5591, -49.2126), (11.811, -37.4016), (27.5591, -49.2126), (11.811, -41.3386), (11.811, -49.2126), (-11.811, -37.4016), (11.811, -41.3386), (11.811, -37.4016), (11.811, -41.3386), (-11.811, -37.4016), (-11.811, -41.3386), (11.811, 17.7165), (-11.811, -37.4016), (11.811, -37.4016), (-11.811, -37.4016), (11.811, 17.7165), (-11.811, 17.7165), (-17.7165, 3.93701), (37.4016, 4.30637e-14), (37.4016, 3.93701), (37.4016, 4.30637e-14), (-17.7165, 3.93701), (-17.7165, 1.24216e-14), (17.7165, 6.66263e-14), (-37.4016, 3.93701), (-37.4016, -1.10893e-14), (-37.4016, 3.93701), (17.7165, 6.66263e-14), (17.7165, 3.93701), (11.811, 3.93701), (-11.811, 7.20607e-14), (11.811, -6.98714e-15), (-11.811, 7.20607e-14), (11.811, 3.93701), (-11.811, 3.93701), (-11.811, 21.6535), (11.811, 17.7165), (11.811, 21.6535), (11.811, 17.7165), (-11.811, 21.6535), (-11.811, 17.7165), (11.811, 3.93701), (-11.811, 3.06422e-14), (11.811, 1.33227e-15), (-11.811, 3.06422e-14), (11.811, 3.93701), (-11.811, 3.93701)] (interpolation = "faceVarying")
        uniform token subdivisionScheme = "none"
        rel material:binding = </Vehicle/Materials/metalDark>
    }
    def Mesh "mesh_metal" {
        int[] faceVertexCounts = [3, 3, 3, 3, 3, 3, 3, 3, 3, 3, 3, 3, 3, 3, 3, 3, 3, 3, 3, 3, 3, 3, 3, 3, 3, 3, 3, 3, 3, 3, 3, 3, 3, 3, 3, 3, 3, 3, 3, 3, 3, 3, 3, 3, 3, 3, 3, 3, 3, 3, 3, 3, 3, 3, 3, 3, 3, 3, 3, 3, 3, 3, 3, 3, 3, 3, 3, 3, 3, 3, 3, 3, 3, 3, 3, 3, 3, 3, 3, 3, 3, 3, 3, 3, 3, 3, 3, 3, 3, 3, 3, 3, 3, 3, 3, 3, 3, 3, 3, 3, 3, 3, 3, 3, 3, 3, 3, 3, 3, 3, 3, 3, 3, 3, 3, 3, 3, 3, 3, 3, 3, 3]
        int[] faceVertexIndices = [35, 6, 5, 6, 35, 96, 96, 16, 6, 16, 96, 97, 35, 97, 96, 97, 35, 98, 98, 35, 99, 99, 35, 100, 100, 35, 36, 101, 99, 100, 97, 32, 16, 32, 97, 98, 100, 28, 26, 28, 100, 36, 7, 102, 15, 102, 7, 2, 102, 2, 103, 103, 2, 104, 105, 15, 102, 15, 105, 0, 0, 105, 104, 0, 104, 2, 99, 32, 98, 32, 99, 31, 31, 99, 106, 106, 27, 31, 27, 106, 107, 27, 100, 26, 100, 27, 101, 101, 27, 107, 101, 106, 99, 106, 101, 107, 65, 108, 73, 108, 65, 51, 108, 51, 109, 109, 51, 110, 111, 73, 108, 73, 111, 50, 50, 111, 110, 50, 110, 51, 49, 40, 43, 40, 49, 112, 112, 44, 40, 44, 112, 113, 113, 112, 114, 114, 112, 115, 115, 112, 116, 117, 114, 115, 59, 112, 49, 112, 59, 116, 58, 115, 57, 115, 58, 117, 117, 58, 118, 117, 119, 114, 119, 117, 118, 44, 63, 46, 63, 44, 113, 114, 63, 113, 63, 114, 61, 61, 114, 119, 119, 58, 61, 58, 119, 118, 57, 116, 59, 116, 57, 115, 122, 121, 120, 121, 122, 123, 122, 125, 124, 125, 122, 120, 126, 122, 124, 122, 126, 123, 126, 125, 127, 125, 126, 124, 130, 129, 128, 129, 130, 131, 132, 130, 128, 130, 132, 133, 136, 135, 134, 135, 136, 137, 140, 139, 138, 139, 140, 141, 144, 143, 142, 143, 144, 145, 147, 140, 146, 140, 147, 141, 126, 129, 131, 129, 126, 127, 140, 148, 146, 148, 140, 138, 150, 136, 149, 136, 150, 137, 151, 150, 149, 150, 151, 152, 123, 141, 147, 145, 141, 123, 141, 145, 144, 145, 123, 130, 126, 130, 123, 130, 126, 131, 145, 130, 133, 145, 133, 150, 145, 150, 152, 145, 152, 153, 153, 155, 154, 155, 153, 156, 135, 132, 134, 132, 135, 133, 123, 157, 121, 157, 123, 147, 147, 148, 157, 148, 147, 146, 143, 153, 154, 153, 143, 145, 158, 153, 152, 153, 158, 156, 135, 150, 133, 150, 135, 137, 158, 151, 159, 151, 158, 152, 155, 158, 159, 158, 155, 156, 144, 139, 141, 139, 144, 142]
        point3f[] points = [(0.7, 0.6, -1.25), (0.7, 0.6, -1.15), (0.3, 0.6, -1.25), (0.3, 0.6, -1.15), (0.3, 0.566667, -0.916667), (0.3, 0.557143, -0.85), (0.7, 0.557143, -0.85), (0.3, 0.1, -1.25), (0.3, 0.1, -1.05), (0.3, 0.5, -1.05), (0.7, 0.5, 0.6), (0.7, 0.3, 0.6), (0.7, 0.5, 1.25), (0.7, 0.1, 1.05), (0.7, 0.3, 0.1), (0.7, 0.1, -1.25), (0.7, 0.5, -0.45), (0.7, 0.5, 0.1), (0.3, 0.5, 0.6), (0.3, 0.5, 1.25), (0.3, 0.5, 0.85), (0.3, 0.1, 1.05), (0.6, 0.189443, 1.09472), (0.6, 0.410557, 1.20528), (0.4, 0.410557, 1.20528), (0.4, 0.189443, 1.09472), (0.45, 0.5, -0.45), (0.45, 0.5, -0.15), (0.3, 0.5, -0.45), (0.3, 0.5, -0.25), (0.3, 0.5, 0.1), (0.55, 0.5, -0.15), (0.55, 0.5, -0.45), (-0.3, 0.1, -1.05), (-0.3, 0.5, -1.05), (0.3, 0.6, -0.85), (0.3, 0.6, -0.45), (0.3, 0.7, -0.65), (0.3, 0.7, -0.25), (-0.3, 0.7, -0.65), (-0.3, 0.6, -0.85), (-0.3, 0.566667, -0.916667), (-0.3, 0.7, -0.25), (-0.3, 0.557143, -0.85), (-0.3, 0.6, -0.45), (-0.3, 0.5, -0.25), (-0.3, 0.5, -0.45), (-0.3, 0.6, -1.15), (-0.7, 0.6, -1.15), (-0.7, 0.557143, -0.85), (-0.3, 0.6, -1.25), (-0.7, 0.6, -1.25), (-0.3, 0.5, 0.85), (-0.3, 0.5, 1.25), (-0.3, 0.5, 0.6), (-0.7, 0.5, 0.6), (-0.7, 0.5, 1.25), (-0.55, 0.5, -0.45), (-0.55, 0.5, -0.15), (-0.7, 0.5, -0.45), (-0.7, 0.5, 0.1), (-0.45, 0.5, -0.15), (-0.3, 0.5, 0.1), (-0.45, 0.5, -0.45), (-0.7, 0.3, 0.1), (-0.7, 0.1, -1.25), (-0.7, 0.1, 1.05), (-0.7, 0.3, 0.6), (-0.4, 0.189443, 1.09472), (-0.3, 0.1, 1.05), (-0.4, 0.410557, 1.20528), (-0.6, 0.410557, 1.20528), (-0.6, 0.189443, 1.09472), (-0.3, 0.1, -1.25), (0.3, 0.1, 0.55), (0.3, 0.22, 0.85), (-0.3, 0.22, 0.85), (-0.3, 0.1, 0.55), (0.25, 0.27, 0.85), (0.25, 0.6, 0.85), (0.3, 0.6, 0.85), (-0.25, 0.27, 0.85), (-0.25, 0.6, 0.85), (-0.3, 0.6, 0.85), (0.25, 0.6, 1), (0.3, 0.6, 1.05), (-0.3, 0.6, 1.05), (-0.25, 0.6, 1), (-0.3, 0.1, 0.45), (-0.3, 0.1, -0.95), (0.3, 0.1, -0.95), (0.3, 0.1, 0.45), (0.3, 7.78311e-16, -0.95), (-0.3, 3.38396e-17, -0.95), (0.3, 0, 0.45), (-0.3, 2.00782e-15, 0.45), (0.7, 0.6, -0.85), (0.7, 0.6, -0.45), (0.55, 0.6, -0.45), (0.55, 0.6, -0.25), (0.45, 0.6, -0.45), (0.45, 0.6, -0.25), (0.4, 0.2, -1.25), (0.4, 0.5, -1.25), (0.6, 0.5, -1.25), (0.6, 0.2, -1.25), (0.55, 0.55, -0.15), (0.45, 0.55, -0.15), (-0.6, 0.2, -1.25), (-0.6, 0.5, -1.25), (-0.4, 0.5, -1.25), (-0.4, 0.2, -1.25), (-0.7, 0.6, -0.85), (-0.45, 0.6, -0.45), (-0.45, 0.6, -0.25), (-0.55, 0.6, -0.45), (-0.7, 0.6, -0.45), (-0.55, 0.6, -0.25), (-0.55, 0.55, -0.15), (-0.45, 0.55, -0.15), (0.2, 0.8, 0.15), (0.1, 0.8, 0.15), (0.2, 0.85, 0.15), (0.1, 0.9, 0.15), (0.2, 0.85, 0.05), (0.2, 0.8, 0.05), (0.1, 0.9, 0.05), (0.1, 0.8, 0.05), (-0.0999999, 0.8, -0.05), (0.1, 0.8, -0.05), (-0.0999999, 0.9, -0.05), (0.1, 0.9, -0.05), (-0.0999999, 0.8, 0.05), (-0.0999999, 0.9, 0.05), (-0.2, 0.8, 0.05), (-0.2, 0.85, 0.05), (-0.2, 0.8, 0.15), (-0.2, 0.85, 0.15), (0.2, 0.8, 0.65), (0.1, 0.8, 0.65), (0.2, 0.85, 0.65), (0.1, 0.9, 0.65), (0.1, 0.8, 0.75), (-0.0999999, 0.8, 0.75), (0.1, 0.9, 0.75), (-0.0999999, 0.9, 0.75), (0.2, 0.85, 0.55), (0.1, 0.9, 0.55), (0.2, 0.8, 0.55), (-0.0999999, 0.8, 0.15), (-0.0999999, 0.9, 0.15), (-0.0999999, 0.8, 0.55), (-0.0999999, 0.9, 0.55), (-0.0999999, 0.9, 0.65), (-0.0999999, 0.8, 0.65), (-0.2, 0.8, 0.65), (-0.2, 0.85, 0.65), (0.1, 0.8, 0.55), (-0.2, 0.85, 0.55), (-0.2, 0.8, 0.55), (0.4, 0.410557, 1.09472), (0.6, 0.410557, 1.09472), (0.6, 0.2, -1.05), (0.4, 0.2, -1.05), (0.4, 0.5, -1.05), (0.6, 0.5, -1.05), (-0.4, 0.2, -1.05), (-0.6, 0.2, -1.05), (-0.4, 0.5, -1.05), (-0.6, 0.5, -1.05), (-0.4, 0.410557, 1.09472), (-0.6, 0.410557, 1.09472), (-0.25, 0.3, 1), (0.25, 0.3, 1), (0.75, 0.3, 0.6), (0.75, 0.55, 0.6), (0.3, 0.55, 0.6), (0.75, 0.3, 0.1), (0.75, 0.55, 0.1), (0.3, 0.55, 0.1), (-0.75, 0.3, 0.1), (-0.75, 0.55, 0.1), (-0.75, 0.3, 0.6), (-0.75, 0.55, 0.6), (-0.3, 0.55, 0.1), (-0.3, 0.55, 0.6), (0.3, 0.8, 0.95), (-0.3, 0.8, 0.95), (0.3, 0.8, -0.25), (-0.3, 0.8, -0.25), (0.3, 0.7, 1.05), (-0.3, 0.7, 1.05)]
        normal3f[] normals = [(0, 0, -1), (0, 0, -1), (0, 0, -1), (0, 0, -1), (0, 0, -1), (0, 0, -1), (1, 0, 0), (1, 0, 0), (1, 0, 0), (1, 0, 0), (1, 0, 0), (1, 0, 0), (0, 1, 0), (0, 1, 0), (0, 1, 0), (0, 1, 0), (0, 1, 0), (0, 1, 0), (0, 1, 0), (0, 1, 0), (0, 1, 0), (0, 1, 0), (0, 1, 0), (0, 1, 0), (0, 1, 0), (0, 1, 0), (0, 1, 0), (0, 1, 0), (0, 1, 0), (0, 1, 0), (0, 0, 1), (0, 0, 1), (0, 0, 1), (0, 0, 1), (0, 0, 1), (0, 0, 1), (0, 0, 1), (0, 0, 1), (0, 0, 1), (0, 0, 1), (0, 0, 1), (0, 0, 1), (0, 0, -1), (0, 0, -1), (0, 0, -1), (0, 0, -1), (0, 0, -1), (0, 0, -1), (0, 0, -1), (0, 0, -1), (0, 0, -1), (0, 0, -1), (0, 0, -1), (0, 0, -1), (0, 0, -1), (0, 0, -1), (0, 0, -1), (0, 0, -1), (0, 0, -1), (0, 0, -1), (0, 0, -1), (0, 0, -1), (0, 0, -1), (0, 0, -1), (0, 0, -1), (0, 0, -1), (1, 0, 0), (1, 0, 0), (1, 0, 0), (1, 0, 0), (1, 0, 0), (1, 0, 0), (1, 0, 0), (1, 0, 0), (1, 0, 0), (0, 0, 1), (0, 0, 1), (0, 0, 1), (0, 0, 1), (0, 0, 1), (0, 0, 1), (-1, 0, 0), (-1, 0, 0), (-1, 0, 0), (-1, 0, 0), (-1, 0, 0), (-1, 0, 0), (-1, 0, 0), (-1, 0, 0), (-1, 0, 0), (0, 0.894427, 0.447214), (0, 0.894427, 0.447214), (0, 0.894427, 0.447214), (0, 0.894427, 0.447214), (0, 0.894427, 0.447214), (0, 0.894427, 0.447214), (0, 0, -1), (0, 0, -1), (0, 0, -1), (0, 0, -1), (0, 0, -1), (0, 0, -1), (0, 0, -1), (0, 0, -1), (0, 0, -1), (0, 0, -1), (0, 0, -1), (0, 0, -1), (0, 0, -1), (0, 0, -1), (0, 0, -1), (0, 0, -1), (0, 0, -1), (0, 0, -1), (0, 0, -1), (0, 0, -1), (0, 0, -1), (0, 0, -1), (0, 0, -1), (0, 0, -1), (0, 0, -1), (0, 0, -1), (0, 0, -1), (0, 0, -1), (0, 0, -1), (0, 0, -1), (0, 1, 0), (0, 1, 0), (0, 1, 0), (0, 1, 0), (0, 1, 0), (0, 1, 0), (0, 1, 0), (0, 1, 0), (0, 1, 0), (0, 1, 0), (0, 1, 0), (0, 1, 0), (0, 1, 0), (0, 1, 0), (0, 1, 0), (0, 1, 0), (0, 1, 0), (0, 1, 0), (-1, 0, 0), (-1, 0, 0), (-1, 0, 0), (-1, 0, 0), (-1, 0, 0), (-1, 0, 0), (-1, 0, 0), (-1, 0, 0), (-1, 0, 0), (-1, 0, 0), (-1, 0, 0), (-1, 0, 0), (-1, 0, 0), (-1, 0, 0), (-1, 0, 0), (0, 0.894427, 0.447214), (0, 0.894427, 0.447214), (0, 0.894427, 0.447214), (0, 0.894427, 0.447214), (0, 0.894427, 0.447214), (0, 0.894427, 0.447214), (0, 0, 1), (0, 0, 1), (0, 0, 1), (0, 0, 1), (0, 0, 1), (0, 0, 1), (1, 0, 0), (1, 0, 0), (1, 0, 0), (1, 0, 0), (1, 0, 0), (1, 0, 0), (1, 0, 0), (1, 0, 0), (1, 0, 0), (0, 0, 1), (0, 0, 1), (0, 0, 1), (0, 0, 1), (0, 0, 1), (0, 0, 1), (0, 0, 1), (0, 0, 1), (0, 0, 1), (0, 0, 1), (0, 0, 1), (0, 0, 1), (0, 0, 1), (0, 0, 1), (0, 0, 1), (0, 0, 1), (0, 0, 1), (0, 0, 1), (1, 0, 0), (1, 0, 0), (1, 0, 0), (1, 0, 0), (1, 0, 0), (1, 0, 0), (0.447214, 0.894427, 0), (0.447214, 0.894427, 0), (0.447214, 0.894427, 0), (0.447214, 0.894427, 0), (0.447214, 0.894427, 0), (0.447214, 0.894427, 0), (0, 0, -1), (0, 0, -1), (0, 0, -1), (0, 0, -1), (0, 0, -1), (0, 0, -1), (0, 0, -1), (0, 0, -1), (0, 0, -1), (0, 0, -1), (0, 0, -1), (0, 0, -1), (-1, 0, 0), (-1, 0, 0), (-1, 0, 0), (-1, 0, 0), (-1, 0, 0), (-1, 0, 0), (-1, 0, 0), (-1, 0, 0), (-1, 0, 0), (-1, 0, 0), (-1, 0, 0), (-1, 0, 0), (0, 0, 1), (0, 0, 1), (0, 0, 1), (0, 0, 1), (0, 0, 1), (0, 0, 1), (0, 0, 1), (0, 0, 1), (0, 0, 1), (0, 0, 1), (0, 0, 1), (0, 0, 1), (0.447214, 0.894427, 0), (0.447214, 0.894427, 0), (0.447214, 0.894427, 0), (0.447214, 0.894427, 0), (0.447214, 0.894427, 0), (0.447214, 0.894427, 0), (1, 0, 0), (1, 0, 0), (1, 0, 0), (1, 0, 0), (1, 0, 0), (1, 0, 0), (1, 0, 0), (1, 0, 0), (1, 0, 0), (1, 0, 0), (1, 0, 0), (1, 0, 0), (0, 0, 1), (0, 0, 1), (0, 0, 1), (0, 0, 1), (0, 0, 1), (0, 0, 1), (-1, 0, 0), (-1, 0, 0), (-1, 0, 0), (-1, 0, 0), (-1, 0, 0), (-1, 0, 0), (0, 1, 0), (0, 1, 0), (0, 1, 0), (0, 1, 0), (0, 1, 0), (0, 1, 0), (0, 1, 0), (0, 1, 0), (0, 1, 0), (0, 1, 0), (0, 1, 0), (0, 1, 0), (0, 1, 0), (0, 1, 0), (0, 1, 0), (0, 1, 0), (0, 1, 0), (0, 1, 0), (0, 1, 0), (0, 1, 0), (0, 1, 0), (0, 1, 0), (0, 1, 0), (0, 1, 0), (0, 1, 0), (0, 1, 0), (0, 1, 0), (0, 1, 0), (0, 1, 0), (0, 1, 0), (0, 0, 1), (0, 0, 1), (0, 0, 1), (0, 0, 1), (0, 0, 1), (0, 0, 1), (0, 0, -1), (0, 0, -1), (0, 0, -1), (0, 0, -1), (0, 0, -1), (0, 0, -1), (1, 0, 0), (1, 0, 0), (1, 0, 0), (1, 0, 0), (1, 0, 0), (1, 0, 0), (0, 0, -1), (0, 0, -1), (0, 0, -1), (0, 0, -1), (0, 0, -1), (0, 0, -1), (-1, 0, 0), (-1, 0, 0), (-1, 0, 0), (-1, 0, 0), (-1, 0, 0), (-1, 0, 0), (-0.447214, 0.894427, 0), (-0.447214, 0.894427, 0), (-0.447214, 0.894427, 0), (-0.447214, 0.894427, 0), (-0.447214, 0.894427, 0), (-0.447214, 0.894427, 0), (-0.447214, 0.894427, 0), (-0.447214, 0.894427, 0), (-0.447214, 0.894427, 0), (-0.447214, 0.894427, 0), (-0.447214, 0.894427, 0), (-0.447214, 0.894427, 0), (0, 0, -1), (0, 0, -1), (0, 0, -1), (0, 0, -1), (0, 0, -1), (0, 0, -1), (-1, 0, 0), (-1, 0, 0), (-1, 0, 0), (-1, 0, 0), (-1, 0, 0), (-1, 0, 0), (1, 0, 0), (1, 0, 0), (1, 0, 0), (1, 0, 0), (1, 0, 0), (1, 0, 0)] (interpolation = "faceVarying")
        texCoord2f[] primvars:st = [(-11.811, 23.6221), (-27.5591, 21.9348), (-11.811, 21.9348), (-27.5591, 21.9348), (-11.811, 23.6221), (-27.5591, 23.6221), (33.4646, 23.6221), (17.7165, 19.685), (33.4646, 21.9348), (17.7165, 19.685), (33.4646, 23.6221), (17.7165, 23.6221), (-11.811, -33.4646), (-27.5591, -17.7165), (-27.5591, -33.4646), (-27.5591, -17.7165), (-11.811, -33.4646), (-21.6535, -17.7165), (-21.6535, -17.7165), (-11.811, -33.4646), (-21.6535, -9.84252), (-21.6535, -9.84252), (-11.811, -33.4646), (-17.7165, -17.7165), (-17.7165, -17.7165), (-11.811, -33.4646), (-11.811, -17.7165), (-17.7165, -9.84252), (-21.6535, -9.84252), (-17.7165, -17.7165), (27.5591, 23.6221), (21.6535, 19.685), (27.5591, 19.685), (21.6535, 19.685), (27.5591, 23.6221), (21.6535, 23.6221), (17.7165, 23.6221), (11.811, 19.685), (17.7165, 19.685), (11.811, 19.685), (17.7165, 23.6221), (11.811, 23.6221), (-11.811, 3.93701), (-15.748, 7.87402), (-27.5591, 3.93701), (-15.748, 7.87402), (-11.811, 3.93701), (-11.811, 23.6221), (-15.748, 7.87402), (-11.811, 23.6221), (-15.748, 19.685), (-15.748, 19.685), (-11.811, 23.6221), (-23.6221, 19.685), (-23.6221, 7.87402), (-27.5591, 3.93701), (-15.748, 7.87402), (-27.5591, 3.93701), (-23.6221, 7.87402), (-27.5591, 23.6221), (-27.5591, 23.6221), (-23.6221, 7.87402), (-23.6221, 19.685), (-27.5591, 23.6221), (-23.6221, 19.685), (-11.811, 23.6221), (9.84252, 23.6221), (17.7165, 19.685), (17.7165, 23.6221), (17.7165, 19.685), (9.84252, 23.6221), (5.90551, 19.685), (5.90551, 19.685), (9.84252, 23.6221), (5.90551, 21.6535), (21.6535, 21.6535), (17.7165, 19.685), (21.6535, 19.685), (17.7165, 19.685), (21.6535, 21.6535), (17.7165, 21.6535), (-5.90551, 19.685), (-17.7165, 23.6221), (-17.7165, 19.685), (-17.7165, 23.6221), (-5.90551, 19.685), (-9.84252, 23.6221), (-9.84252, 23.6221), (-5.90551, 19.685), (-5.90551, 21.6535), (17.7165, 19.3675), (21.6535, 14.9658), (21.6535, 19.3675), (21.6535, 14.9658), (17.7165, 19.3675), (17.7165, 14.9658), (27.5591, 3.93701), (23.6221, 7.87402), (11.811, 3.93701), (23.6221, 7.87402), (27.5591, 3.93701), (27.5591, 23.6221), (23.6221, 7.87402), (27.5591, 23.6221), (23.6221, 19.685), (23.6221, 19.685), (27.5591, 23.6221), (15.748, 19.685), (15.748, 7.87402), (11.811, 3.93701), (23.6221, 7.87402), (11.811, 3.93701), (15.748, 7.87402), (11.811, 23.6221), (11.811, 23.6221), (15.748, 7.87402), (15.748, 19.685), (11.811, 23.6221), (15.748, 19.685), (27.5591, 23.6221), (27.5591, 21.9348), (11.811, 23.6221), (11.811, 21.9348), (11.811, 23.6221), (27.5591, 21.9348), (27.5591, 23.6221), (27.5591, -33.4646), (11.811, -17.7165), (11.811, -33.4646), (11.811, -17.7165), (27.5591, -33.4646), (17.7165, -17.7165), (17.7165, -17.7165), (27.5591, -33.4646), (17.7165, -9.84252), (17.7165, -9.84252), (27.5591, -33.4646), (21.6535, -17.7165), (21.6535, -17.7165), (27.5591, -33.4646), (27.5591, -17.7165), (21.6535, -9.84252), (17.7165, -9.84252), (21.6535, -17.7165), (-17.7165, 19.685), (-33.4646, 23.6221), (-33.4646, 21.9348), (-33.4646, 23.6221), (-17.7165, 19.685), (-17.7165, 23.6221), (-5.90551, 19.685), (-17.7165, 23.6221), (-17.7165, 19.685), (-17.7165, 23.6221), (-5.90551, 19.685), (-9.84252, 23.6221), (-9.84252, 23.6221), (-5.90551, 19.685), (-5.90551, 21.6535), (-21.6535, 19.3675), (-17.7165, 14.9658), (-17.7165, 19.3675), (-17.7165, 14.9658), (-21.6535, 19.3675), (-21.6535, 14.9658), (-11.811, 23.6221), (-17.7165, 19.685), (-11.811, 19.685), (-17.7165, 19.685), (-11.811, 23.6221), (-17.7165, 23.6221), (9.84252, 23.6221), (17.7165, 19.685), (17.7165, 23.6221), (17.7165, 19.685), (9.84252, 23.6221), (5.90551, 19.685), (5.90551, 19.685), (9.84252, 23.6221), (5.90551, 21.6535), (-17.7165, 21.6535), (-21.6535, 19.685), (-17.7165, 19.685), (-21.6535, 19.685), (-17.7165, 21.6535), (-21.6535, 21.6535), (-21.6535, 19.685), (-27.5591, 23.6221), (-27.5591, 19.685), (-27.5591, 23.6221), (-21.6535, 19.685), (-21.6535, 23.6221), (7.87401, 33.4646), (3.93701, 31.4961), (7.87401, 31.4961), (3.93701, 31.4961), (7.87401, 33.4646), (3.93701, 35.4331), (-5.90551, 33.4646), (-1.9685, 31.4961), (-1.9685, 33.4646), (-1.9685, 31.4961), (-5.90551, 33.4646), (-5.90551, 31.4961), (-1.9685, 12.3248), (-5.90551, 7.92308), (-1.9685, 7.92308), (-5.90551, 7.92308), (-1.9685, 12.3248), (-5.90551, 12.3248), (-3.93701, 35.4331), (-7.87401, 31.4961), (-3.93701, 31.4961), (-7.87401, 31.4961), (-3.93701, 35.4331), (-7.87401, 33.4646), (3.93701, 35.4331), (-3.93701, 31.4961), (3.93701, 31.4961), (-3.93701, 31.4961), (3.93701, 35.4331), (-3.93701, 35.4331), (1.9685, 31.4961), (-1.9685, 35.4331), (-1.9685, 31.4961), (-1.9685, 35.4331), (1.9685, 31.4961), (1.9685, 35.4331), (5.90551, 31.4961), (1.9685, 33.4646), (1.9685, 31.4961), (1.9685, 33.4646), (5.90551, 31.4961), (5.90551, 33.4646), (7.87402, 33.4646), (3.93701, 31.4961), (7.87402, 31.4961), (3.93701, 31.4961), (7.87402, 33.4646), (3.93701, 35.4331), (3.93701, 35.4331), (-3.93701, 31.4961), (3.93701, 31.4961), (-3.93701, 31.4961), (3.93701, 35.4331), (-3.93701, 35.4331), (-21.6535, 12.3248), (-25.5906, 7.92308), (-21.6535, 7.92308), (-25.5906, 7.92308), (-21.6535, 12.3248), (-25.5906, 12.3248), (-1.9685, 35.4331), (1.9685, 31.4961), (1.9685, 35.4331), (1.9685, 31.4961), (-1.9685, 35.4331), (-1.9685, 31.4961), (-25.5906, 33.4646), (-21.6535, 31.4961), (-21.6535, 33.4646), (-21.6535, 31.4961), (-25.5906, 33.4646), (-25.5906, 31.4961), (-3.93701, 35.4331), (-7.87402, 31.4961), (-3.93701, 31.4961), (-7.87402, 31.4961), (-3.93701, 35.4331), (-7.87402, 33.4646), (21.6535, 31.4961), (5.90551, 35.4331), (5.90551, 31.4961), (5.90551, 35.4331), (21.6535, 31.4961), (21.6535, 35.4331), (-3.93701, 5.90551), (-3.93701, 25.5906), (-3.93701, 21.6535), (3.93701, 29.5276), (-3.93701, 25.5906), (-3.93701, 5.90551), (-3.93701, 25.5906), (3.93701, 29.5276), (-3.93701, 29.5276), (3.93701, 29.5276), (-3.93701, 5.90551), (3.93701, -1.9685), (-3.93701, 1.9685), (3.93701, -1.9685), (-3.93701, 5.90551), (3.93701, -1.9685), (-3.93701, 1.9685), (-3.93701, -1.9685), (3.93701, 29.5276), (3.93701, -1.9685), (3.93701, 1.9685), (3.93701, 29.5276), (3.93701, 1.9685), (3.93701, 5.90551), (3.93701, 29.5276), (3.93701, 5.90551), (3.93701, 21.6535), (3.93701, 29.5276), (3.93701, 21.6535), (3.93701, 25.5906), (-3.93701, 35.4331), (-7.87402, 31.4961), (-3.93701, 31.4961), (-7.87402, 31.4961), (-3.93701, 35.4331), (-7.87402, 33.4646), (7.87402, 33.4646), (3.93701, 31.4961), (7.87402, 31.4961), (3.93701, 31.4961), (7.87402, 33.4646), (3.93701, 35.4331), (-5.90551, 35.4331), (-21.6535, 31.4961), (-5.90551, 31.4961), (-21.6535, 31.4961), (-5.90551, 35.4331), (-21.6535, 35.4331), (-3.93701, 35.4331), (-7.87402, 31.4961), (-3.93701, 31.4961), (-7.87402, 31.4961), (-3.93701, 35.4331), (-7.87402, 33.4646), (29.5276, 31.4961), (25.5906, 35.4331), (25.5906, 31.4961), (25.5906, 35.4331), (29.5276, 31.4961), (29.5276, 35.4331), (21.6535, 7.92308), (25.5906, 12.3248), (21.6535, 12.3248), (25.5906, 12.3248), (21.6535, 7.92308), (25.5906, 7.92308), (1.9685, 7.92308), (5.90551, 12.3248), (1.9685, 12.3248), (5.90551, 12.3248), (1.9685, 7.92308), (5.90551, 7.92308), (7.87402, 33.4646), (3.93701, 31.4961), (7.87402, 31.4961), (3.93701, 31.4961), (7.87402, 33.4646), (3.93701, 35.4331), (25.5906, 31.4961), (21.6535, 33.4646), (21.6535, 31.4961), (21.6535, 33.4646), (25.5906, 31.4961), (25.5906, 33.4646), (-29.5276, 35.4331), (-25.5906, 31.4961), (-25.5906, 35.4331), (-25.5906, 31.4961), (-29.5276, 35.4331), (-29.5276, 31.4961)] (interpolation = "faceVarying")
        uniform token subdivisionScheme = "none"
        rel material:binding = </Vehicle/Materials/metal>
    }
    def Mesh "mesh_dark" {
        int[] faceVertexCounts = [3, 3, 3, 3, 3, 3, 3, 3, 3, 3, 3, 3, 3, 3, 3, 3, 3, 3, 3, 3, 3, 3, 3, 3, 3, 3, 3, 3, 3, 3, 3, 3, 3, 3, 3, 3, 3, 3, 3, 3]
        int[] faceVertexIndices = [24, 25, 160, 161, 25, 22, 25, 161, 160, 24, 161, 23, 161, 24, 160, 102, 162, 105, 162, 102, 163, 164, 102, 103, 102, 164, 163, 23, 161, 22, 164, 162, 163, 162, 164, 165, 162, 104, 105, 104, 162, 165, 164, 104, 165, 104, 164, 103, 108, 166, 111, 166, 108, 167, 169, 110, 168, 110, 169, 109, 169, 108, 109, 108, 169, 167, 169, 166, 167, 166, 169, 168, 166, 110, 111, 110, 166, 168, 71, 170, 70, 170, 71, 171, 170, 72, 68, 72, 170, 171, 71, 72, 171, 70, 170, 68, 172, 82, 81, 82, 172, 87, 173, 87, 172, 87, 173, 84, 84, 78, 79, 78, 84, 173, 172, 78, 173, 78, 172, 81]
        point3f[] points = [(0.7, 0.6, -1.25), (0.7, 0.6, -1.15), (0.3, 0.6, -1.25), (0.3, 0.6, -1.15), (0.3, 0.566667, -0.916667), (0.3, 0.557143, -0.85), (0.7, 0.557143, -0.85), (0.3, 0.1, -1.25), (0.3, 0.1, -1.05), (0.3, 0.5, -1.05), (0.7, 0.5, 0.6), (0.7, 0.3, 0.6), (0.7, 0.5, 1.25), (0.7, 0.1, 1.05), (0.7, 0.3, 0.1), (0.7, 0.1, -1.25), (0.7, 0.5, -0.45), (0.7, 0.5, 0.1), (0.3, 0.5, 0.6), (0.3, 0.5, 1.25), (0.3, 0.5, 0.85), (0.3, 0.1, 1.05), (0.6, 0.189443, 1.09472), (0.6, 0.410557, 1.20528), (0.4, 0.410557, 1.20528), (0.4, 0.189443, 1.09472), (0.45, 0.5, -0.45), (0.45, 0.5, -0.15), (0.3, 0.5, -0.45), (0.3, 0.5, -0.25), (0.3, 0.5, 0.1), (0.55, 0.5, -0.15), (0.55, 0.5, -0.45), (-0.3, 0.1, -1.05), (-0.3, 0.5, -1.05), (0.3, 0.6, -0.85), (0.3, 0.6, -0.45), (0.3, 0.7, -0.65), (0.3, 0.7, -0.25), (-0.3, 0.7, -0.65), (-0.3, 0.6, -0.85), (-0.3, 0.566667, -0.916667), (-0.3, 0.7, -0.25), (-0.3, 0.557143, -0.85), (-0.3, 0.6, -0.45), (-0.3, 0.5, -0.25), (-0.3, 0.5, -0.45), (-0.3, 0.6, -1.15), (-0.7, 0.6, -1.15), (-0.7, 0.557143, -0.85), (-0.3, 0.6, -1.25), (-0.7, 0.6, -1.25), (-0.3, 0.5, 0.85), (-0.3, 0.5, 1.25), (-0.3, 0.5, 0.6), (-0.7, 0.5, 0.6), (-0.7, 0.5, 1.25), (-0.55, 0.5, -0.45), (-0.55, 0.5, -0.15), (-0.7, 0.5, -0.45), (-0.7, 0.5, 0.1), (-0.45, 0.5, -0.15), (-0.3, 0.5, 0.1), (-0.45, 0.5, -0.45), (-0.7, 0.3, 0.1), (-0.7, 0.1, -1.25), (-0.7, 0.1, 1.05), (-0.7, 0.3, 0.6), (-0.4, 0.189443, 1.09472), (-0.3, 0.1, 1.05), (-0.4, 0.410557, 1.20528), (-0.6, 0.410557, 1.20528), (-0.6, 0.189443, 1.09472), (-0.3, 0.1, -1.25), (0.3, 0.1, 0.55), (0.3, 0.22, 0.85), (-0.3, 0.22, 0.85), (-0.3, 0.1, 0.55), (0.25, 0.27, 0.85), (0.25, 0.6, 0.85), (0.3, 0.6, 0.85), (-0.25, 0.27, 0.85), (-0.25, 0.6, 0.85), (-0.3, 0.6, 0.85), (0.25, 0.6, 1), (0.3, 0.6, 1.05), (-0.3, 0.6, 1.05), (-0.25, 0.6, 1), (-0.3, 0.1, 0.45), (-0.3, 0.1, -0.95), (0.3, 0.1, -0.95), (0.3, 0.1, 0.45), (0.3, 7.78311e-16, -0.95), (-0.3, 3.38396e-17, -0.95), (0.3, 0, 0.45), (-0.3, 2.00782e-15, 0.45), (0.7, 0.6, -0.85), (0.7, 0.6, -0.45), (0.55, 0.6, -0.45), (0.55, 0.6, -0.25), (0.45, 0.6, -0.45), (0.45, 0.6, -0.25), (0.4, 0.2, -1.25), (0.4, 0.5, -1.25), (0.6, 0.5, -1.25), (0.6, 0.2, -1.25), (0.55, 0.55, -0.15), (0.45, 0.55, -0.15), (-0.6, 0.2, -1.25), (-0.6, 0.5, -1.25), (-0.4, 0.5, -1.25), (-0.4, 0.2, -1.25), (-0.7, 0.6, -0.85), (-0.45, 0.6, -0.45), (-0.45, 0.6, -0.25), (-0.55, 0.6, -0.45), (-0.7, 0.6, -0.45), (-0.55, 0.6, -0.25), (-0.55, 0.55, -0.15), (-0.45, 0.55, -0.15), (0.2, 0.8, 0.15), (0.1, 0.8, 0.15), (0.2, 0.85, 0.15), (0.1, 0.9, 0.15), (0.2, 0.85, 0.05), (0.2, 0.8, 0.05), (0.1, 0.9, 0.05), (0.1, 0.8, 0.05), (-0.0999999, 0.8, -0.05), (0.1, 0.8, -0.05), (-0.0999999, 0.9, -0.05), (0.1, 0.9, -0.05), (-0.0999999, 0.8, 0.05), (-0.0999999, 0.9, 0.05), (-0.2, 0.8, 0.05), (-0.2, 0.85, 0.05), (-0.2, 0.8, 0.15), (-0.2, 0.85, 0.15), (0.2, 0.8, 0.65), (0.1, 0.8, 0.65), (0.2, 0.85, 0.65), (0.1, 0.9, 0.65), (0.1, 0.8, 0.75), (-0.0999999, 0.8, 0.75), (0.1, 0.9, 0.75), (-0.0999999, 0.9, 0.75), (0.2, 0.85, 0.55), (0.1, 0.9, 0.55), (0.2, 0.8, 0.55), (-0.0999999, 0.8, 0.15), (-0.0999999, 0.9, 0.15), (-0.0999999, 0.8, 0.55), (-0.0999999, 0.9, 0.55), (-0.0999999, 0.9, 0.65), (-0.0999999, 0.8, 0.65), (-0.2, 0.8, 0.65), (-0.2, 0.85, 0.65), (0.1, 0.8, 0.55), (-0.2, 0.85, 0.55), (-0.2, 0.8, 0.55), (0.4, 0.410557, 1.09472), (0.6, 0.410557, 1.09472), (0.6, 0.2, -1.05), (0.4, 0.2, -1.05), (0.4, 0.5, -1.05), (0.6, 0.5, -1.05), (-0.4, 0.2, -1.05), (-0.6, 0.2, -1.05), (-0.4, 0.5, -1.05), (-0.6, 0.5, -1.05), (-0.4, 0.410557, 1.09472), (-0.6, 0.410557, 1.09472), (-0.25, 0.3, 1), (0.25, 0.3, 1), (0.75, 0.3, 0.6), (0.75, 0.55, 0.6), (0.3, 0.55, 0.6), (0.75, 0.3, 0.1), (0.75, 0.55, 0.1), (0.3, 0.55, 0.1), (-0.75, 0.3, 0.1), (-0.75, 0.55, 0.1), (-0.75, 0.3, 0.6), (-0.75, 0.55, 0.6), (-0.3, 0.55, 0.1), (-0.3, 0.55, 0.6), (0.3, 0.8, 0.95), (-0.3, 0.8, 0.95), (0.3, 0.8, -0.25), (-0.3, 0.8, -0.25), (0.3, 0.7, 1.05), (-0.3, 0.7, 1.05)]
        normal3f[] normals = [(1, 0, 0), (1, 0, 0), (1, 0, 0), (0, 0, 1), (0, 0, 1), (0, 0, 1), (0, 0, 1), (0, 0, 1), (0, 0, 1), (0, -1, 0), (0, -1, 0), (0, -1, 0), (0, -1, 0), (0, -1, 0), (0, -1, 0), (0, 1, 0), (0, 1, 0), (0, 1, 0), (0, 1, 0), (0, 1, 0), (0, 1, 0), (1, 0, 0), (1, 0, 0), (1, 0, 0), (1, 0, 0), (1, 0, 0), (1, 0, 0), (-1, 0, 0), (-1, 0, 0), (-1, 0, 0), (0, 0, -1), (0, 0, -1), (0, 0, -1), (0, 0, -1), (0, 0, -1), (0, 0, -1), (-1, 0, 0), (-1, 0, 0), (-1, 0, 0), (-1, 0, 0), (-1, 0, 0), (-1, 0, 0), (0, -1, 0), (0, -1, 0), (0, -1, 0), (0, -1, 0), (0, -1, 0), (0, -1, 0), (0, 1, 0), (0, 1, 0), (0, 1, 0), (0, 1, 0), (0, 1, 0), (0, 1, 0), (0, -1, 0), (0, -1, 0), (0, -1, 0), (0, -1, 0), (0, -1, 0), (0, -1, 0), (1, 0, 0), (1, 0, 0), (1, 0, 0), (1, 0, 0), (1, 0, 0), (1, 0, 0), (0, 0, -1), (0, 0, -1), (0, 0, -1), (0, 0, -1), (0, 0, -1), (0, 0, -1), (-1, 0, 0), (-1, 0, 0), (-1, 0, 0), (-1, 0, 0), (-1, 0, 0), (-1, 0, 0), (0, -1, 0), (0, -1, 0), (0, -1, 0), (0, -1, 0), (0, -1, 0), (0, -1, 0), (0, 0, 1), (0, 0, 1), (0, 0, 1), (0, 0, 1), (0, 0, 1), (0, 0, 1), (1, 0, 0), (1, 0, 0), (1, 0, 0), (-1, 0, 0), (-1, 0, 0), (-1, 0, 0), (-1, 0, 0), (-1, 0, 0), (-1, 0, 0), (-1, 0, 0), (-1, 0, 0), (-1, 0, 0), (0, 0, 1), (0, 0, 1), (0, 0, 1), (0, 0, 1), (0, 0, 1), (0, 0, 1), (1, 0, 0), (1, 0, 0), (1, 0, 0), (1, 0, 0), (1, 0, 0), (1, 0, 0), (0, -0.980581, 0.196116), (0, -0.980581, 0.196116), (0, -0.980581, 0.196116), (0, -0.980581, 0.196116), (0, -0.980581, 0.196116), (0, -0.980581, 0.196116)] (interpolation = "faceVarying")
        texCoord2f[] primvars:st = [(-47.4519, 16.1637), (-43.0993, 7.45838), (-43.0993, 16.1637), (23.6221, 16.1637), (15.748, 7.45838), (23.6221, 7.45838), (15.748, 7.45838), (23.6221, 16.1637), (15.748, 16.1637), (15.748, 47.4519), (23.6221, 43.0993), (23.6221, 47.4519), (23.6221, 43.0993), (15.748, 47.4519), (15.748, 43.0993), (-15.748, -49.2126), (-23.6221, -41.3386), (-23.6221, -49.2126), (-23.6221, -41.3386), (-15.748, -49.2126), (-15.748, -41.3386), (41.3386, 19.685), (49.2126, 7.87402), (49.2126, 19.685), (49.2126, 7.87402), (41.3386, 19.685), (41.3386, 7.87402), (47.4519, 16.1637), (43.0993, 16.1637), (43.0993, 7.45838), (-15.748, 19.685), (-23.6221, 7.87402), (-15.748, 7.87402), (-23.6221, 7.87402), (-15.748, 19.685), (-23.6221, 19.685), (-41.3386, 7.87402), (-49.2126, 19.685), (-49.2126, 7.87402), (-49.2126, 19.685), (-41.3386, 7.87402), (-41.3386, 19.685), (15.748, -41.3386), (23.6221, -49.2126), (23.6221, -41.3386), (23.6221, -49.2126), (15.748, -41.3386), (15.748, -49.2126), (23.6221, -49.2126), (15.748, -41.3386), (15.748, -49.2126), (15.748, -41.3386), (23.6221, -49.2126), (23.6221, -41.3386), (-23.6221, -41.3386), (-15.748, -49.2126), (-15.748, -41.3386), (-15.748, -49.2126), (-23.6221, -41.3386), (-23.6221, -49.2126), (41.3386, 19.685), (49.2126, 7.87402), (49.2126, 19.685), (49.2126, 7.87402), (41.3386, 19.685), (41.3386, 7.87402), (23.6221, 19.685), (15.748, 7.87402), (23.6221, 7.87402), (15.748, 7.87402), (23.6221, 19.685), (15.748, 19.685), (-41.3386, 7.87402), (-49.2126, 19.685), (-49.2126, 7.87402), (-49.2126, 19.685), (-41.3386, 7.87402), (-41.3386, 19.685), (-23.6221, 47.4519), (-15.748, 43.0993), (-15.748, 47.4519), (-15.748, 43.0993), (-23.6221, 47.4519), (-23.6221, 43.0993), (-15.748, 16.1637), (-23.6221, 7.45838), (-15.748, 7.45838), (-23.6221, 7.45838), (-15.748, 16.1637), (-23.6221, 16.1637), (-47.4519, 16.1637), (-43.0993, 7.45838), (-43.0993, 16.1637), (47.4519, 16.1637), (43.0993, 16.1637), (43.0993, 7.45838), (39.3701, 11.811), (33.4646, 23.6221), (33.4646, 10.6299), (33.4646, 23.6221), (39.3701, 11.811), (39.3701, 23.6221), (9.84252, 11.811), (-9.84252, 23.6221), (-9.84252, 11.811), (-9.84252, 23.6221), (9.84252, 11.811), (9.84252, 23.6221), (-39.3701, 23.6221), (-33.4646, 10.6299), (-33.4646, 23.6221), (-33.4646, 10.6299), (-39.3701, 23.6221), (-39.3701, 11.811), (-9.84252, 40.9219), (9.84252, 34.8994), (9.84252, 40.9219), (9.84252, 34.8994), (-9.84252, 40.9219), (-9.84252, 34.8994)] (interpolation = "faceVarying")
        uniform token subdivisionScheme = "none"
        rel material:binding = </Vehicle/Materials/dark>
    }
    def Mesh "mesh_metalRed" {
        int[] faceVertexCounts = [3, 3, 3, 3, 3, 3, 3, 3, 3, 3, 3, 3, 3, 3, 3, 3, 3, 3, 3, 3, 3, 3, 3, 3, 3, 3, 3, 3, 3, 3, 3, 3, 3, 3, 3, 3, 3, 3, 3, 3, 3, 3, 3, 3, 3, 3, 3, 3, 3, 3, 3, 3, 3, 3, 3, 3, 3, 3, 3, 3, 3, 3, 3, 3, 3, 3, 3, 3, 3, 3, 3, 3, 3, 3, 3, 3, 3, 3]
        int[] faceVertexIndices = [175, 11, 174, 11, 175, 10, 10, 175, 18, 18, 175, 176, 14, 178, 177, 178, 14, 17, 178, 17, 30, 178, 30, 179, 11, 177, 174, 177, 11, 14, 175, 177, 178, 177, 175, 174, 179, 175, 178, 175, 179, 176, 182, 181, 180, 181, 182, 183, 181, 185, 184, 185, 181, 183, 182, 64, 67, 64, 182, 180, 180, 60, 64, 60, 180, 181, 60, 181, 184, 184, 62, 60, 185, 55, 54, 183, 55, 185, 182, 55, 183, 55, 182, 67, 139, 142, 138, 142, 186, 138, 186, 142, 187, 138, 186, 148, 186, 125, 148, 188, 125, 186, 125, 188, 129, 129, 188, 189, 129, 189, 128, 128, 189, 132, 132, 189, 134, 134, 189, 136, 136, 189, 159, 159, 189, 155, 155, 189, 187, 187, 142, 143, 187, 143, 155, 155, 143, 154, 151, 136, 159, 136, 151, 149, 127, 125, 129, 120, 148, 125, 148, 120, 157, 157, 120, 121, 186, 191, 190, 191, 186, 187, 52, 185, 54, 83, 185, 52, 187, 185, 83, 187, 184, 185, 189, 184, 187, 189, 62, 184, 42, 62, 189, 62, 42, 45, 187, 83, 86, 187, 86, 191, 189, 38, 42, 38, 189, 188, 190, 86, 85, 86, 190, 191, 186, 38, 188, 38, 186, 29, 29, 186, 179, 179, 186, 176, 176, 186, 18, 18, 186, 80, 80, 186, 85, 85, 186, 190, 20, 18, 80, 30, 29, 179]
        point3f[] points = [(0.7, 0.6, -1.25), (0.7, 0.6, -1.15), (0.3, 0.6, -1.25), (0.3, 0.6, -1.15), (0.3, 0.566667, -0.916667), (0.3, 0.557143, -0.85), (0.7, 0.557143, -0.85), (0.3, 0.1, -1.25), (0.3, 0.1, -1.05), (0.3, 0.5, -1.05), (0.7, 0.5, 0.6), (0.7, 0.3, 0.6), (0.7, 0.5, 1.25), (0.7, 0.1, 1.05), (0.7, 0.3, 0.1), (0.7, 0.1, -1.25), (0.7, 0.5, -0.45), (0.7, 0.5, 0.1), (0.3, 0.5, 0.6), (0.3, 0.5, 1.25), (0.3, 0.5, 0.85), (0.3, 0.1, 1.05), (0.6, 0.189443, 1.09472), (0.6, 0.410557, 1.20528), (0.4, 0.410557, 1.20528), (0.4, 0.189443, 1.09472), (0.45, 0.5, -0.45), (0.45, 0.5, -0.15), (0.3, 0.5, -0.45), (0.3, 0.5, -0.25), (0.3, 0.5, 0.1), (0.55, 0.5, -0.15), (0.55, 0.5, -0.45), (-0.3, 0.1, -1.05), (-0.3, 0.5, -1.05), (0.3, 0.6, -0.85), (0.3, 0.6, -0.45), (0.3, 0.7, -0.65), (0.3, 0.7, -0.25), (-0.3, 0.7, -0.65), (-0.3, 0.6, -0.85), (-0.3, 0.566667, -0.916667), (-0.3, 0.7, -0.25), (-0.3, 0.557143, -0.85), (-0.3, 0.6, -0.45), (-0.3, 0.5, -0.25), (-0.3, 0.5, -0.45), (-0.3, 0.6, -1.15), (-0.7, 0.6, -1.15), (-0.7, 0.557143, -0.85), (-0.3, 0.6, -1.25), (-0.7, 0.6, -1.25), (-0.3, 0.5, 0.85), (-0.3, 0.5, 1.25), (-0.3, 0.5, 0.6), (-0.7, 0.5, 0.6), (-0.7, 0.5, 1.25), (-0.55, 0.5, -0.45), (-0.55, 0.5, -0.15), (-0.7, 0.5, -0.45), (-0.7, 0.5, 0.1), (-0.45, 0.5, -0.15), (-0.3, 0.5, 0.1), (-0.45, 0.5, -0.45), (-0.7, 0.3, 0.1), (-0.7, 0.1, -1.25), (-0.7, 0.1, 1.05), (-0.7, 0.3, 0.6), (-0.4, 0.189443, 1.09472), (-0.3, 0.1, 1.05), (-0.4, 0.410557, 1.20528), (-0.6, 0.410557, 1.20528), (-0.6, 0.189443, 1.09472), (-0.3, 0.1, -1.25), (0.3, 0.1, 0.55), (0.3, 0.22, 0.85), (-0.3, 0.22, 0.85), (-0.3, 0.1, 0.55), (0.25, 0.27, 0.85), (0.25, 0.6, 0.85), (0.3, 0.6, 0.85), (-0.25, 0.27, 0.85), (-0.25, 0.6, 0.85), (-0.3, 0.6, 0.85), (0.25, 0.6, 1), (0.3, 0.6, 1.05), (-0.3, 0.6, 1.05), (-0.25, 0.6, 1), (-0.3, 0.1, 0.45), (-0.3, 0.1, -0.95), (0.3, 0.1, -0.95), (0.3, 0.1, 0.45), (0.3, 7.78311e-16, -0.95), (-0.3, 3.38396e-17, -0.95), (0.3, 0, 0.45), (-0.3, 2.00782e-15, 0.45), (0.7, 0.6, -0.85), (0.7, 0.6, -0.45), (0.55, 0.6, -0.45), (0.55, 0.6, -0.25), (0.45, 0.6, -0.45), (0.45, 0.6, -0.25), (0.4, 0.2, -1.25), (0.4, 0.5, -1.25), (0.6, 0.5, -1.25), (0.6, 0.2, -1.25), (0.55, 0.55, -0.15), (0.45, 0.55, -0.15), (-0.6, 0.2, -1.25), (-0.6, 0.5, -1.25), (-0.4, 0.5, -1.25), (-0.4, 0.2, -1.25), (-0.7, 0.6, -0.85), (-0.45, 0.6, -0.45), (-0.45, 0.6, -0.25), (-0.55, 0.6, -0.45), (-0.7, 0.6, -0.45), (-0.55, 0.6, -0.25), (-0.55, 0.55, -0.15), (-0.45, 0.55, -0.15), (0.2, 0.8, 0.15), (0.1, 0.8, 0.15), (0.2, 0.85, 0.15), (0.1, 0.9, 0.15), (0.2, 0.85, 0.05), (0.2, 0.8, 0.05), (0.1, 0.9, 0.05), (0.1, 0.8, 0.05), (-0.0999999, 0.8, -0.05), (0.1, 0.8, -0.05), (-0.0999999, 0.9, -0.05), (0.1, 0.9, -0.05), (-0.0999999, 0.8, 0.05), (-0.0999999, 0.9, 0.05), (-0.2, 0.8, 0.05), (-0.2, 0.85, 0.05), (-0.2, 0.8, 0.15), (-0.2, 0.85, 0.15), (0.2, 0.8, 0.65), (0.1, 0.8, 0.65), (0.2, 0.85, 0.65), (0.1, 0.9, 0.65), (0.1, 0.8, 0.75), (-0.0999999, 0.8, 0.75), (0.1, 0.9, 0.75), (-0.0999999, 0.9, 0.75), (0.2, 0.85, 0.55), (0.1, 0.9, 0.55), (0.2, 0.8, 0.55), (-0.0999999, 0.8, 0.15), (-0.0999999, 0.9, 0.15), (-0.0999999, 0.8, 0.55), (-0.0999999, 0.9, 0.55), (-0.0999999, 0.9, 0.65), (-0.0999999, 0.8, 0.65), (-0.2, 0.8, 0.65), (-0.2, 0.85, 0.65), (0.1, 0.8, 0.55), (-0.2, 0.85, 0.55), (-0.2, 0.8, 0.55), (0.4, 0.410557, 1.09472), (0.6, 0.410557, 1.09472), (0.6, 0.2, -1.05), (0.4, 0.2, -1.05), (0.4, 0.5, -1.05), (0.6, 0.5, -1.05), (-0.4, 0.2, -1.05), (-0.6, 0.2, -1.05), (-0.4, 0.5, -1.05), (-0.6, 0.5, -1.05), (-0.4, 0.410557, 1.09472), (-0.6, 0.410557, 1.09472), (-0.25, 0.3, 1), (0.25, 0.3, 1), (0.75, 0.3, 0.6), (0.75, 0.55, 0.6), (0.3, 0.55, 0.6), (0.75, 0.3, 0.1), (0.75, 0.55, 0.1), (0.3, 0.55, 0.1), (-0.75, 0.3, 0.1), (-0.75, 0.55, 0.1), (-0.75, 0.3, 0.6), (-0.75, 0.55, 0.6), (-0.3, 0.55, 0.1), (-0.3, 0.55, 0.6), (0.3, 0.8, 0.95), (-0.3, 0.8, 0.95), (0.3, 0.8, -0.25), (-0.3, 0.8, -0.25), (0.3, 0.7, 1.05), (-0.3, 0.7, 1.05)]
        normal3f[] normals = [(0, 0, 1), (0, 0, 1), (0, 0, 1), (0, 0, 1), (0, 0, 1), (0, 0, 1), (0, 0, 1), (0, 0, 1), (0, 0, 1), (0, 0, 1), (0, 0, 1), (0, 0, 1), (0, 0, -1), (0, 0, -1), (0, 0, -1), (0, 0, -1), (0, 0, -1), (0, 0, -1), (0, 0, -1), (0, 0, -1), (0, 0, -1), (0, 0, -1), (0, 0, -1), (0, 0, -1), (0, -1, 0), (0, -1, 0), (0, -1, 0), (0, -1, 0), (0, -1, 0), (0, -1, 0), (1, 0, 0), (1, 0, 0), (1, 0, 0), (1, 0, 0), (1, 0, 0), (1, 0, 0), (0, 1, 0), (0, 1, 0), (0, 1, 0), (0, 1, 0), (0, 1, 0), (0, 1, 0), (-1, 0, 0), (-1, 0, 0), (-1, 0, 0), (-1, 0, 0), (-1, 0, 0), (-1, 0, 0), (0, 1, 0), (0, 1, 0), (0, 1, 0), (0, 1, 0), (0, 1, 0), (0, 1, 0), (0, -1, 0), (0, -1, 0), (0, -1, 0), (0, -1, 0), (0, -1, 0), (0, -1, 0), (0, 0, -1), (0, 0, -1), (0, 0, -1), (0, 0, -1), (0, 0, -1), (0, 0, -1), (0, 0, -1), (0, 0, -1), (0, 0, -1), (0, 0, -1), (0, 0, -1), (0, 0, -1), (0, 0, 1), (0, 0, 1), (0, 0, 1), (0, 0, 1), (0, 0, 1), (0, 0, 1), (0, 0, 1), (0, 0, 1), (0, 0, 1), (0, 0, 1), (0, 0, 1), (0, 0, 1), (0, 1, 0), (0, 1, 0), (0, 1, 0), (0, 1, 0), (0, 1, 0), (0, 1, 0), (0, 1, 0), (0, 1, 0), (0, 1, 0), (0, 1, 0), (0, 1, 0), (0, 1, 0), (0, 1, 0), (0, 1, 0), (0, 1, 0), (0, 1, 0), (0, 1, 0), (0, 1, 0), (0, 1, 0), (0, 1, 0), (0, 1, 0), (0, 1, 0), (0, 1, 0), (0, 1, 0), (0, 1, 0), (0, 1, 0), (0, 1, 0), (0, 1, 0), (0, 1, 0), (0, 1, 0), (0, 1, 0), (0, 1, 0), (0, 1, 0), (0, 1, 0), (0, 1, 0), (0, 1, 0), (0, 1, 0), (0, 1, 0), (0, 1, 0), (0, 1, 0), (0, 1, 0), (0, 1, 0), (0, 1, 0), (0, 1, 0), (0, 1, 0), (0, 1, 0), (0, 1, 0), (0, 1, 0), (0, 1, 0), (0, 1, 0), (0, 1, 0), (0, 1, 0), (0, 1, 0), (0, 1, 0), (0, 1, 0), (0, 1, 0), (0, 1, 0), (0, 1, 0), (0, 1, 0), (0, 1, 0), (0, 1, 0), (0, 1, 0), (0, 1, 0), (0, 1, 0), (0, 1, 0), (0, 1, 0), (0, 1, 0), (0, 1, 0), (0, 1, 0), (0, 1, 0), (0, 1, 0), (0, 1, 0), (0, 0.707107, 0.707107), (0, 0.707107, 0.707107), (0, 0.707107, 0.707107), (0, 0.707107, 0.707107), (0, 0.707107, 0.707107), (0, 0.707107, 0.707107), (-1, 0, 0), (-1, 0, 0), (-1, 0, 0), (-1, 0, 0), (-1, 0, 0), (-1, 0, 0), (-1, 0, 0), (-1, 0, 0), (-1, 0, 0), (-1, 0, 0), (-1, 0, 0), (-1, 0, 0), (-1, 0, 0), (-1, 0, 0), (-1, 0, 0), (-1, 0, 0), (-1, 0, 0), (-1, 0, 0), (-1, 0, 0), (-1, 0, 0), (-1, 0, 0), (-1, 0, 0), (-1, 0, 0), (-1, 0, 0), (-1, 0, 0), (-1, 0, 0), (-1, 0, 0), (-1, 0, 0), (-1, 0, 0), (-1, 0, 0), (0, 0, -1), (0, 0, -1), (0, 0, -1), (0, 0, -1), (0, 0, -1), (0, 0, -1), (0, 0, 1), (0, 0, 1), (0, 0, 1), (0, 0, 1), (0, 0, 1), (0, 0, 1), (1, 0, 0), (1, 0, 0), (1, 0, 0), (1, 0, 0), (1, 0, 0), (1, 0, 0), (1, 0, 0), (1, 0, 0), (1, 0, 0), (1, 0, 0), (1, 0, 0), (1, 0, 0), (1, 0, 0), (1, 0, 0), (1, 0, 0), (1, 0, 0), (1, 0, 0), (1, 0, 0), (1, 0, 0), (1, 0, 0), (1, 0, 0), (1, 0, 0), (1, 0, 0), (1, 0, 0), (1, 0, 0), (1, 0, 0), (1, 0, 0), (1, 0, 0), (1, 0, 0), (1, 0, 0)] (interpolation = "faceVarying")
        texCoord2f[] primvars:st = [(29.5276, 21.6535), (27.5591, 11.811), (29.5276, 11.811), (27.5591, 11.811), (29.5276, 21.6535), (27.5591, 19.685), (27.5591, 19.685), (29.5276, 21.6535), (11.811, 19.685), (11.811, 19.685), (29.5276, 21.6535), (11.811, 21.6535), (-27.5591, 11.811), (-29.5276, 21.6535), (-29.5276, 11.811), (-29.5276, 21.6535), (-27.5591, 11.811), (-27.5591, 19.685), (-29.5276, 21.6535), (-27.5591, 19.685), (-11.811, 19.685), (-29.5276, 21.6535), (-11.811, 19.685), (-11.811, 21.6535), (27.5591, 23.6221), (29.5276, 3.93701), (29.5276, 23.6221), (29.5276, 3.93701), (27.5591, 23.6221), (27.5591, 3.93701), (-23.6221, 21.6535), (-3.93701, 11.811), (-3.93701, 21.6535), (-3.93701, 11.811), (-23.6221, 21.6535), (-23.6221, 11.811), (-11.811, 3.93701), (-29.5276, 23.6221), (-29.5276, 3.93701), (-29.5276, 23.6221), (-11.811, 3.93701), (-11.811, 23.6221), (23.6221, 11.811), (3.93701, 21.6535), (3.93701, 11.811), (3.93701, 21.6535), (23.6221, 11.811), (23.6221, 21.6535), (29.5276, 3.93701), (11.811, 23.6221), (11.811, 3.93701), (11.811, 23.6221), (29.5276, 3.93701), (29.5276, 23.6221), (-29.5276, 23.6221), (-27.5591, 3.93701), (-27.5591, 23.6221), (-27.5591, 3.93701), (-29.5276, 23.6221), (-29.5276, 3.93701), (29.5276, 11.811), (27.5591, 19.685), (27.5591, 11.811), (27.5591, 19.685), (29.5276, 11.811), (29.5276, 21.6535), (27.5591, 19.685), (29.5276, 21.6535), (11.811, 21.6535), (11.811, 21.6535), (11.811, 19.685), (27.5591, 19.685), (-11.811, 21.6535), (-27.5591, 19.685), (-11.811, 19.685), (-29.5276, 21.6535), (-27.5591, 19.685), (-11.811, 21.6535), (-29.5276, 11.811), (-27.5591, 19.685), (-29.5276, 21.6535), (-27.5591, 19.685), (-29.5276, 11.811), (-27.5591, 11.811), (-3.93701, 25.5906), (-3.93701, 29.5276), (-7.87402, 25.5906), (-3.93701, 29.5276), (-11.811, 37.4016), (-7.87402, 25.5906), (-11.811, 37.4016), (-3.93701, 29.5276), (11.811, 37.4016), (-7.87402, 25.5906), (-11.811, 37.4016), (-7.87402, 21.6535), (-11.811, 37.4016), (-7.87401, 1.9685), (-7.87402, 21.6535), (-11.811, -9.84252), (-7.87401, 1.9685), (-11.811, 37.4016), (-7.87401, 1.9685), (-11.811, -9.84252), (-3.93701, -1.9685), (-3.93701, -1.9685), (-11.811, -9.84252), (11.811, -9.84252), (-3.93701, -1.9685), (11.811, -9.84252), (3.93701, -1.9685), (3.93701, -1.9685), (11.811, -9.84252), (3.93701, 1.9685), (3.93701, 1.9685), (11.811, -9.84252), (7.87402, 1.9685), (7.87402, 1.9685), (11.811, -9.84252), (7.87402, 5.90551), (7.87402, 5.90551), (11.811, -9.84252), (7.87402, 21.6535), (7.87402, 21.6535), (11.811, -9.84252), (7.87402, 25.5906), (7.87402, 25.5906), (11.811, -9.84252), (11.811, 37.4016), (11.811, 37.4016), (-3.93701, 29.5276), (3.93701, 29.5276), (11.811, 37.4016), (3.93701, 29.5276), (7.87402, 25.5906), (7.87402, 25.5906), (3.93701, 29.5276), (3.93701, 25.5906), (3.93701, 21.6535), (7.87402, 5.90551), (7.87402, 21.6535), (7.87402, 5.90551), (3.93701, 21.6535), (3.93701, 5.90551), (-3.93701, 1.9685), (-7.87401, 1.9685), (-3.93701, -1.9685), (-7.87401, 5.90551), (-7.87402, 21.6535), (-7.87401, 1.9685), (-7.87402, 21.6535), (-7.87401, 5.90551), (-3.93701, 21.6535), (-3.93701, 21.6535), (-7.87401, 5.90551), (-3.93701, 5.90551), (11.811, -4.17583), (-11.811, -9.7436), (11.811, -9.7436), (-11.811, -9.7436), (11.811, -4.17583), (-11.811, -4.17583), (33.4646, 19.685), (23.6221, 21.6535), (23.6221, 19.685), (33.4646, 23.6221), (23.6221, 21.6535), (33.4646, 19.685), (37.4016, 31.4961), (23.6221, 21.6535), (33.4646, 23.6221), (37.4016, 31.4961), (3.93701, 21.6535), (23.6221, 21.6535), (-9.84252, 31.4961), (3.93701, 21.6535), (37.4016, 31.4961), (-9.84252, 31.4961), (3.93701, 19.685), (3.93701, 21.6535), (-9.84252, 27.5591), (3.93701, 19.685), (-9.84252, 31.4961), (3.93701, 19.685), (-9.84252, 27.5591), (-9.84252, 19.685), (37.4016, 31.4961), (33.4646, 23.6221), (41.3386, 23.6221), (37.4016, 31.4961), (41.3386, 23.6221), (41.3386, 27.5591), (11.811, 31.4961), (-11.811, 27.5591), (11.811, 27.5591), (-11.811, 27.5591), (11.811, 31.4961), (-11.811, 31.4961), (11.811, 27.5591), (-11.811, 23.6221), (11.811, 23.6221), (-11.811, 23.6221), (11.811, 27.5591), (-11.811, 27.5591), (-37.4016, 31.4961), (9.84252, 27.5591), (9.84252, 31.4961), (9.84252, 27.5591), (-37.4016, 31.4961), (9.84252, 19.685), (9.84252, 19.685), (-37.4016, 31.4961), (-3.93701, 21.6535), (-3.93701, 21.6535), (-37.4016, 31.4961), (-23.6221, 21.6535), (-23.6221, 21.6535), (-37.4016, 31.4961), (-23.6221, 19.685), (-23.6221, 19.685), (-37.4016, 31.4961), (-33.4646, 23.6221), (-33.4646, 23.6221), (-37.4016, 31.4961), (-41.3386, 23.6221), (-41.3386, 23.6221), (-37.4016, 31.4961), (-41.3386, 27.5591), (-33.4646, 19.685), (-23.6221, 19.685), (-33.4646, 23.6221), (-3.93701, 19.685), (9.84252, 19.685), (-3.93701, 21.6535)] (interpolation = "faceVarying")
        uniform token subdivisionScheme = "none"
        rel material:binding = </Vehicle/Materials/metalRed>
    }
    def Scope "Materials" {
        def Material "metalDark" {
            token outputs:surface.connect = </Vehicle/Materials/metalDark/surface.outputs:surface>
            def Shader "surface" {
                uniform token info:id = "UsdPreviewSurface"
                float inputs:roughness = 0.7
                float inputs:metallic = 0
                color3f inputs:diffuseColor = (0.675062, 0.710022, 0.773585)
                token outputs:surface
            }
        }
        def Material "metal" {
            token outputs:surface.connect = </Vehicle/Materials/metal/surface.outputs:surface>
            def Shader "surface" {
                uniform token info:id = "UsdPreviewSurface"
                float inputs:roughness = 0.7
                float inputs:metallic = 0
                color3f inputs:diffuseColor = (0.843137, 0.870588, 0.909804)
                token outputs:surface
            }
        }
        def Material "dark" {
            token outputs:surface.connect = </Vehicle/Materials/dark/surface.outputs:surface>
            def Shader "surface" {
                uniform token info:id = "UsdPreviewSurface"
                float inputs:roughness = 0.7
                float inputs:metallic = 0
                color3f inputs:diffuseColor = (0.27451, 0.298039, 0.341176)
                token outputs:surface
            }
        }
        def Material "metalRed" {
            token outputs:surface.connect = </Vehicle/Materials/metalRed/surface.outputs:surface>
            def Shader "surface" {
                uniform token info:id = "UsdPreviewSurface"
                float inputs:roughness = 0.7
                float inputs:metallic = 0
                color3f inputs:diffuseColor = (1, 0.628524, 0.20283)
                token outputs:surface
            }
        }
    }
}
