#usda 1.0
(
    defaultPrim = "Vehicle"
    metersPerUnit = 1
    upAxis = "Y"
)
def Xform "Vehicle" {
    def Mesh "mesh_colormap" {
        int[] faceVertexCounts = [3, 3, 3, 3, 3, 3, 3, 3, 3, 3, 3, 3, 3, 3, 3, 3, 3, 3, 3, 3, 3, 3, 3, 3, 3, 3, 3, 3, 3, 3, 3, 3, 3, 3, 3, 3, 3, 3, 3, 3, 3, 3, 3, 3, 3, 3, 3, 3, 3, 3, 3, 3, 3, 3, 3, 3, 3, 3, 3, 3, 3, 3, 3, 3, 3, 3, 3, 3, 3, 3, 3, 3, 3, 3, 3, 3, 3, 3, 3, 3, 3, 3, 3, 3, 3, 3, 3, 3, 3, 3, 3, 3, 3, 3, 3, 3, 3, 3, 3, 3, 3, 3, 3, 3, 3, 3, 3, 3, 3, 3, 3, 3, 3, 3, 3, 3, 3, 3, 3, 3, 3, 3, 3, 3, 3, 3, 3, 3, 3, 3, 3, 3, 3, 3, 3, 3, 3, 3, 3, 3, 3, 3, 3, 3, 3, 3, 3, 3, 3, 3, 3, 3, 3, 3, 3, 3, 3, 3, 3, 3, 3, 3, 3, 3, 3, 3, 3, 3, 3, 3, 3, 3, 3, 3, 3, 3, 3, 3, 3, 3, 3, 3, 3, 3, 3, 3, 3, 3, 3, 3, 3, 3, 3, 3, 3, 3, 3, 3, 3, 3, 3, 3, 3, 3, 3, 3, 3, 3, 3, 3, 3, 3, 3, 3, 3, 3, 3, 3, 3, 3, 3, 3, 3, 3, 3, 3, 3, 3, 3, 3, 3, 3, 3, 3, 3, 3, 3, 3, 3, 3, 3, 3, 3, 3, 3, 3, 3, 3, 3, 3, 3, 3, 3, 3, 3, 3, 3, 3, 3, 3, 3, 3, 3, 3, 3, 3, 3, 3, 3, 3, 3, 3, 3, 3, 3, 3, 3, 3, 3, 3, 3, 3, 3, 3, 3, 3, 3, 3, 3, 3, 3, 3, 3, 3, 3, 3, 3, 3, 3, 3, 3, 3, 3, 3, 3, 3, 3, 3, 3, 3, 3, 3, 3, 3, 3, 3, 3, 3, 3, 3, 3, 3, 3, 3, 3, 3, 3, 3, 3, 3, 3, 3, 3, 3, 3, 3, 3, 3, 3, 3, 3, 3, 3, 3, 3, 3, 3, 3, 3, 3, 3, 3, 3, 3, 3, 3, 3, 3, 3, 3, 3, 3, 3, 3, 3, 3, 3, 3, 3, 3, 3, 3, 3, 3, 3, 3, 3, 3, 3, 3, 3, 3, 3, 3, 3, 3, 3, 3, 3, 3, 3, 3, 3, 3, 3, 3, 3, 3, 3, 3, 3, 3, 3, 3, 3, 3, 3, 3, 3, 3, 3, 3, 3, 3, 3, 3, 3, 3, 3, 3, 3, 3, 3, 3, 3, 3, 3, 3, 3, 3, 3, 3, 3, 3, 3, 3, 3, 3, 3, 3, 3, 3, 3, 3, 3, 3, 3, 3, 3, 3, 3, 3, 3, 3, 3, 3, 3, 3, 3, 3, 3, 3, 3, 3, 3, 3, 3, 3, 3, 3, 3, 3, 3, 3, 3, 3, 3, 3, 3, 3, 3, 3, 3, 3, 3, 3, 3, 3, 3, 3, 3, 3, 3, 3, 3, 3, 3, 3, 3, 3, 3, 3, 3, 3, 3, 3, 3, 3, 3, 3, 3, 3, 3, 3, 3, 3, 3, 3, 3, 3, 3, 3, 3, 3, 3, 3, 3, 3, 3, 3, 3, 3, 3, 3, 3, 3, 3, 3, 3, 3, 3, 3, 3, 3, 3, 3, 3, 3, 3, 3, 3, 3, 3, 3, 3, 3, 3, 3, 3, 3, 3, 3, 3, 3, 3, 3, 3, 3, 3, 3, 3, 3, 3, 3, 3, 3, 3, 3, 3, 3, 3, 3, 3, 3, 3, 3, 3, 3, 3, 3, 3, 3, 3, 3, 3, 3]
        int[] faceVertexIndices = [2, 1, 0, 1, 2, 3, 4, 3, 2, 3, 4, 5, 7, 1, 6, 1, 7, 0, 0, 7, 8, 0, 8, 9, 0, 9, 10, 11, 3, 5, 3, 11, 12, 11, 13, 12, 13, 11, 14, 15, 13, 14, 13, 15, 16, 17, 16, 15, 16, 17, 18, 19, 18, 17, 18, 19, 20, 19, 2, 20, 2, 19, 4, 0, 20, 2, 20, 0, 10, 10, 18, 20, 18, 10, 9, 8, 18, 9, 18, 8, 16, 7, 16, 8, 16, 7, 13, 6, 13, 7, 13, 6, 12, 6, 3, 12, 3, 6, 1, 23, 22, 21, 23, 21, 24, 25, 22, 23, 23, 24, 26, 25, 27, 22, 26, 24, 28, 29, 27, 25, 28, 30, 26, 31, 30, 28, 31, 32, 30, 29, 33, 27, 32, 31, 33, 34, 33, 29, 33, 34, 32, 37, 36, 35, 36, 37, 38, 38, 37, 39, 42, 41, 40, 41, 42, 43, 43, 42, 44, 44, 37, 43, 37, 44, 39, 42, 39, 44, 39, 42, 38, 40, 38, 42, 38, 40, 36, 47, 46, 45, 46, 48, 45, 49, 48, 46, 50, 48, 49, 49, 51, 50, 48, 50, 52, 48, 54, 53, 54, 48, 52, 55, 48, 53, 48, 55, 45, 56, 45, 55, 45, 56, 46, 56, 49, 46, 49, 56, 57, 58, 49, 57, 49, 58, 50, 54, 50, 58, 50, 54, 52, 57, 54, 58, 54, 57, 53, 53, 57, 56, 53, 56, 55, 30, 5, 4, 5, 30, 32, 29, 15, 14, 15, 29, 25, 29, 11, 34, 11, 29, 14, 25, 17, 15, 17, 25, 23, 17, 26, 19, 26, 17, 23, 21, 59, 24, 59, 21, 60, 62, 33, 61, 33, 62, 27, 22, 62, 63, 62, 22, 27, 21, 63, 60, 63, 21, 22, 31, 65, 64, 65, 31, 28, 34, 5, 32, 5, 34, 11, 19, 30, 4, 30, 19, 26, 64, 62, 61, 62, 64, 65, 62, 65, 63, 63, 65, 60, 60, 65, 59, 61, 31, 64, 31, 61, 33, 24, 65, 28, 65, 24, 59, 68, 67, 66, 67, 68, 69, 68, 71, 70, 71, 68, 66, 67, 73, 72, 73, 67, 69, 76, 75, 74, 75, 76, 77, 78, 75, 77, 75, 78, 79, 80, 76, 74, 76, 80, 81, 72, 81, 80, 81, 72, 73, 77, 70, 78, 70, 77, 68, 68, 77, 76, 68, 76, 69, 69, 76, 81, 69, 81, 73, 70, 79, 78, 79, 70, 71, 66, 79, 71, 79, 66, 75, 75, 66, 51, 51, 66, 67, 52, 75, 51, 52, 51, 50, 51, 67, 49, 75, 52, 74, 49, 67, 46, 46, 67, 47, 47, 67, 45, 45, 67, 48, 74, 52, 48, 74, 48, 67, 74, 67, 72, 74, 72, 80, 84, 83, 82, 83, 84, 85, 86, 85, 84, 85, 86, 87, 90, 89, 88, 89, 90, 91, 92, 87, 86, 87, 92, 93, 91, 93, 92, 93, 91, 90, 83, 90, 88, 90, 83, 93, 93, 83, 87, 87, 83, 85, 92, 89, 91, 89, 92, 82, 82, 92, 86, 82, 86, 84, 96, 95, 94, 95, 96, 97, 95, 99, 98, 99, 95, 97, 98, 101, 100, 101, 98, 99, 97, 101, 99, 101, 97, 96, 94, 98, 100, 98, 94, 95, 104, 103, 102, 103, 104, 105, 103, 107, 106, 107, 103, 105, 106, 109, 108, 109, 106, 107, 105, 109, 107, 109, 105, 104, 102, 106, 108, 106, 102, 103, 112, 111, 110, 111, 112, 113, 111, 115, 114, 115, 111, 113, 114, 117, 116, 117, 114, 115, 113, 117, 115, 117, 113, 112, 110, 114, 116, 114, 110, 111, 120, 119, 118, 119, 120, 121, 119, 123, 122, 123, 119, 121, 122, 125, 124, 125, 122, 123, 121, 125, 123, 125, 121, 120, 118, 122, 124, 122, 118, 119, 2, 1, 0, 1, 2, 3, 4, 3, 2, 3, 4, 5, 7, 1, 6, 1, 7, 0, 0, 7, 8, 0, 8, 9, 0, 9, 10, 11, 3, 5, 3, 11, 12, 11, 13, 12, 13, 11, 14, 15, 13, 14, 13, 15, 16, 17, 16, 15, 16, 17, 18, 19, 18, 17, 18, 19, 20, 19, 2, 20, 2, 19, 4, 0, 20, 2, 20, 0, 10, 10, 18, 20, 18, 10, 9, 8, 18, 9, 18, 8, 16, 7, 16, 8, 16, 7, 13, 6, 13, 7, 13, 6, 12, 6, 3, 12, 3, 6, 1, 23, 22, 21, 23, 21, 24, 25, 22, 23, 23, 24, 26, 25, 27, 22, 26, 24, 28, 29, 27, 25, 28, 30, 26, 31, 30, 28, 31, 32, 30, 29, 33, 27, 32, 31, 33, 34, 33, 29, 33, 34, 32, 37, 36, 35, 36, 37, 38, 38, 37, 39, 42, 41, 40, 41, 42, 43, 43, 42, 44, 44, 37, 43, 37, 44, 39, 42, 39, 44, 39, 42, 38, 40, 38, 42, 38, 40, 36, 47, 46, 45, 46, 48, 45, 49, 48, 46, 50, 48, 49, 49, 51, 50, 48, 50, 52, 48, 54, 53, 54, 48, 52, 55, 48, 53, 48, 55, 45, 56, 45, 55, 45, 56, 46, 56, 49, 46, 49, 56, 57, 58, 49, 57, 49, 58, 50, 54, 50, 58, 50, 54, 52, 57, 54, 58, 54, 57, 53, 53, 57, 56, 53, 56, 55, 30, 5, 4, 5, 30, 32, 29, 15, 14, 15, 29, 25, 29, 11, 34, 11, 29, 14, 25, 17, 15, 17, 25, 23, 17, 26, 19, 26, 17, 23, 21, 59, 24, 59, 21, 60, 62, 33, 61, 33, 62, 27, 22, 62, 63, 62, 22, 27, 21, 63, 60, 63, 21, 22, 31, 65, 64, 65, 31, 28, 34, 5, 32, 5, 34, 11, 19, 30, 4, 30, 19, 26, 64, 62, 61, 62, 64, 65, 62, 65, 63, 63, 65, 60, 60, 65, 59, 61, 31, 64, 31, 61, 33, 24, 65, 28, 65, 24, 59, 68, 67, 66, 67, 68, 69, 68, 71, 70, 71, 68, 66, 67, 73, 72, 73, 67, 69, 76, 75, 74, 75, 76, 77, 78, 75, 77, 75, 78, 79, 80, 76, 74, 76, 80, 81, 72, 81, 80, 81, 72, 73, 77, 70, 78, 70, 77, 68, 68, 77, 76, 68, 76, 69, 69, 76, 81, 69, 81, 73, 70, 79, 78, 79, 70, 71, 66, 79, 71, 79, 66, 75, 75, 66, 51, 51, 66, 67, 52, 75, 51, 52, 51, 50, 51, 67, 49, 75, 52, 74, 49, 67, 46, 46, 67, 47, 47, 67, 45, 45, 67, 48, 74, 52, 48, 74, 48, 67, 74, 67, 72, 74, 72, 80, 84, 83, 82, 83, 84, 85, 86, 85, 84, 85, 86, 87, 90, 89, 88, 89, 90, 91, 92, 87, 86, 87, 92, 93, 91, 93, 92, 93, 91, 90, 83, 90, 88, 90, 83, 93, 93, 83, 87, 87, 83, 85, 92, 89, 91, 89, 92, 82, 82, 92, 86, 82, 86, 84, 96, 95, 94, 95, 96, 97, 95, 99, 98, 99, 95, 97, 98, 101, 100, 101, 98, 99, 97, 101, 99, 101, 97, 96, 94, 98, 100, 98, 94, 95, 104, 103, 102, 103, 104, 105, 103, 107, 106, 107, 103, 105, 106, 109, 108, 109, 106, 107, 105, 109, 107, 109, 105, 104, 102, 106, 108, 106, 102, 103, 112, 111, 110, 111, 112, 113, 111, 115, 114, 115, 111, 113, 114, 117, 116, 117, 114, 115, 113, 117, 115, 117, 113, 112, 110, 114, 116, 114, 110, 111, 120, 119, 118, 119, 120, 121, 119, 123, 122, 123, 119, 121, 122, 125, 124, 125, 122, 123, 121, 125, 123, 125, 121, 120, 118, 122, 124, 122, 118, 119, 128, 127, 126, 127, 128, 129, 132, 131, 130, 131, 132, 133, 136, 135, 134, 135, 136, 137, 137, 126, 135, 126, 137, 128, 131, 136, 134, 136, 131, 133, 129, 130, 127, 130, 129, 132, 137, 129, 128, 129, 137, 132, 132, 137, 136, 132, 136, 133, 130, 126, 127, 126, 130, 135, 135, 130, 131, 135, 131, 134, 140, 139, 138, 139, 140, 141, 140, 143, 142, 143, 140, 138, 146, 145, 144, 145, 146, 147, 139, 147, 146, 147, 139, 141, 150, 149, 148, 149, 150, 151, 144, 150, 148, 150, 144, 145, 142, 153, 152, 153, 142, 143, 152, 149, 151, 149, 152, 153, 138, 153, 143, 153, 138, 149, 149, 138, 139, 149, 139, 148, 148, 139, 146, 148, 146, 144, 151, 142, 152, 142, 151, 140, 140, 151, 150, 140, 150, 141, 141, 150, 145, 141, 145, 147, 156, 155, 154, 155, 156, 157, 156, 159, 158, 159, 156, 154, 162, 161, 160, 161, 162, 163, 155, 163, 162, 163, 155, 157, 166, 165, 164, 165, 166, 167, 160, 166, 164, 166, 160, 161, 158, 169, 168, 169, 158, 159, 168, 165, 167, 165, 168, 169, 154, 169, 159, 169, 154, 165, 165, 154, 155, 165, 155, 164, 164, 155, 162, 164, 162, 160, 167, 158, 168, 158, 167, 156, 156, 167, 166, 156, 166, 157, 157, 166, 161, 157, 161, 163, 172, 171, 170, 171, 172, 173, 172, 175, 174, 175, 172, 170, 178, 177, 176, 177, 178, 179, 171, 179, 178, 179, 171, 173, 182, 181, 180, 181, 182, 183, 176, 182, 180, 182, 176, 177, 174, 185, 184, 185, 174, 175, 184, 181, 183, 181, 184, 185, 170, 185, 175, 185, 170, 181, 181, 170, 171, 181, 171, 180, 180, 171, 178, 180, 178, 176, 183, 174, 184, 174, 183, 172, 172, 183, 182, 172, 182, 173, 173, 182, 177, 173, 177, 179, 188, 187, 186, 187, 188, 189, 192, 191, 190, 191, 192, 193, 188, 192, 189, 192, 188, 193, 192, 187, 189, 187, 192, 190, 191, 187, 190, 187, 191, 186, 191, 188, 186, 188, 191, 193, 196, 195, 194, 195, 196, 197, 196, 199, 198, 199, 196, 194, 202, 201, 200, 201, 202, 203, 195, 203, 202, 203, 195, 197, 206, 205, 204, 205, 206, 207, 200, 206, 204, 206, 200, 201, 198, 209, 208, 209, 198, 199, 208, 205, 207, 205, 208, 209, 194, 209, 199, 209, 194, 205, 205, 194, 195, 205, 195, 204, 204, 195, 202, 204, 202, 200, 207, 198, 208, 198, 207, 196, 196, 207, 206, 196, 206, 197, 197, 206, 201, 197, 201, 203, 212, 211, 210, 211, 212, 213, 214, 211, 213, 211, 214, 215, 211, 216, 210, 216, 212, 210, 211, 217, 216, 217, 211, 215, 212, 216, 218, 217, 218, 216, 218, 213, 212, 215, 219, 217, 218, 217, 219, 219, 213, 218, 219, 215, 214, 213, 219, 214, 222, 221, 220, 221, 222, 223, 224, 222, 220, 222, 224, 225, 220, 226, 224, 226, 225, 224, 220, 227, 226, 227, 220, 221, 225, 226, 228, 227, 228, 226, 228, 222, 225, 221, 229, 227, 228, 227, 229, 229, 222, 228, 229, 221, 223, 222, 229, 223]
        point3f[] points = [(-0.40698, 0, -1.585), (0.40698, 0, -1.585), (-0.6783, 0.2, -1.68141), (0.6783, 0.2, -1.68141), (-0.8925, 0.6, -1.785), (0.8925, 0.6, -1.785), (0.40698, 0, 0.21794), (0.178089, 0, 0.581068), (1.32832e-13, 0, 0.67964), (-0.178089, 0, 0.581068), (-0.40698, 0, 0.21794), (0.8925, 0.6, 0.9725), (0.6783, 0.2, 0.6863), (0.296815, 0.2, 1.29151), (0.390547, 0.6, 1.76883), (6.0063e-13, 0.6, 1.985), (4.21596e-13, 0.2, 1.4558), (-0.390547, 0.6, 1.76883), (-0.296815, 0.2, 1.29151), (-0.8925, 0.6, 0.9725), (-0.6783, 0.2, 0.6863), (-0.248747, 0.9, 1.61873), (5.25551e-13, 0.9, 1.75641), (-0.390547, 0.9, 1.76883), (-0.6925, 0.9, 0.914727), (6.0063e-13, 0.9, 1.985), (-0.8925, 0.9, 0.9725), (0.248747, 0.9, 1.61873), (-0.6925, 0.9, -1.585), (0.390547, 0.9, 1.76883), (-0.8925, 0.9, -1.785), (0.6925, 0.9, -1.585), (0.8925, 0.9, -1.785), (0.6925, 0.9, 0.914727), (0.8925, 0.9, 0.9725), (-0.283525, 0.7, 0.114727), (-0.283525, 0.8725, 0.114727), (-0.283525, 0.7, 1.04405), (-0.283525, 0.8725, 0.957801), (-0.283525, 0.78625, 1.04405), (0.283525, 0.8725, 0.114727), (0.283525, 0.7, 0.114727), (0.283525, 0.8725, 0.957801), (0.283525, 0.7, 1.04405), (0.283525, 0.78625, 1.04405), (-0.4925, 1.3, 0.0147267), (-0.3925, 1.3, 0.114727), (-0.4925, 1.3, 0.114727), (-0.4925, 1.3, -1.085), (0.3925, 1.3, 0.114727), (0.4925, 1.3, 0.0147267), (0.4925, 1.3, 0.114727), (0.4925, 1.3, -1.085), (-0.4925, 0.7, -1.085), (0.4925, 0.7, -1.085), (-0.4925, 0.7, 0.0147267), (-0.3925, 0.7, 0.114727), (0.3925, 0.7, 0.114727), (0.4925, 0.7, 0.0147267), (-0.6925, 0.7, 0.914727), (-0.248747, 0.7, 1.61873), (0.6925, 0.7, 0.914727), (0.248747, 0.7, 1.61873), (5.25551e-13, 0.7, 1.75641), (0.6925, 0.7, -1.585), (-0.6925, 0.7, -1.585), (0.5925, 1.3, 0.314727), (-0.5925, 1.3, 0.314727), (0.5925, 1.5, 0.314727), (-0.5925, 1.5, 0.314727), (0.6925, 1.5, 0.214727), (0.6925, 1.3, 0.214727), (-0.6925, 1.3, 0.214727), (-0.6925, 1.5, 0.214727), (-0.5925, 1.3, -1.285), (0.5925, 1.3, -1.285), (-0.5925, 1.5, -1.285), (0.5925, 1.5, -1.285), (0.6925, 1.5, -1.185), (0.6925, 1.3, -1.185), (-0.6925, 1.3, -1.185), (-0.6925, 1.5, -1.185), (0.283525, 1.5, -0.0704747), (-0.283525, 1.5, -0.0704747), (0.283525, 1.58625, -0.0704747), (-0.283525, 1.58625, -0.0704747), (0.283525, 1.6725, -0.156725), (-0.283525, 1.6725, -0.156725), (-0.283525, 1.5, -0.999799), (0.283525, 1.5, -0.999799), (-0.283525, 1.58625, -0.999799), (0.283525, 1.58625, -0.999799), (0.283525, 1.6725, -0.913549), (-0.283525, 1.6725, -0.913549), (0.8925, 0.9, -0.885), (0.8925, 1, -0.985), (0.8925, 0.9, -1.385), (0.8925, 1, -1.285), (0.6925, 1, -0.985), (0.6925, 1, -1.285), (0.6925, 0.9, -0.885), (0.6925, 0.9, -1.385), (-0.6925, 0.9, -0.885), (-0.6925, 1, -0.985), (-0.6925, 0.9, -1.385), (-0.6925, 1, -1.285), (-0.8925, 1, -0.985), (-0.8925, 1, -1.285), (-0.8925, 0.9, -0.885), (-0.8925, 0.9, -1.385), (-0.6925, 0.9, 0.715), (-0.6925, 1, 0.615), (-0.6925, 0.9, 0.215), (-0.6925, 1, 0.315), (-0.8925, 1, 0.615), (-0.8925, 1, 0.315), (-0.8925, 0.9, 0.715), (-0.8925, 0.9, 0.215), (0.8925, 0.9, 0.715), (0.8925, 1, 0.615), (0.8925, 0.9, 0.215), (0.8925, 1, 0.315), (0.6925, 1, 0.615), (0.6925, 1, 0.315), (0.6925, 0.9, 0.715), (0.6925, 0.9, 0.215), (0.120718, 0.8725, 0.505637), (0.120718, 0.8725, 0.64503), (0.0900883, 4.73914, 0.523321), (0.0900883, 4.73914, 0.627346), (-1.18393e-13, 0.8725, 0.714727), (-0.120718, 0.8725, 0.64503), (-1.21281e-13, 4.73914, 0.679358), (-0.0900883, 4.73914, 0.627346), (-0.120718, 0.8725, 0.505637), (-1.18393e-13, 0.8725, 0.43594), (-0.0900883, 4.73914, 0.523321), (-1.21281e-13, 4.73914, 0.471308), (-0.190088, 2.3, 0.665421), (-0.190088, 2.3, 0.485245), (-0.190088, 2.5, 0.665421), (-0.190088, 2.5, 0.485245), (-0.0900883, 2.5, 0.765421), (-0.0900883, 2.3, 0.765421), (0.0900883, 2.3, 0.385245), (0.0900883, 2.5, 0.385245), (-0.0900883, 2.3, 0.385245), (-0.0900883, 2.5, 0.385245), (0.190088, 2.3, 0.485245), (0.190088, 2.3, 0.665421), (0.190088, 2.5, 0.485245), (0.190088, 2.5, 0.665421), (0.0900883, 2.5, 0.765421), (0.0900883, 2.3, 0.765421), (-0.190088, 1.2, 0.665421), (-0.190088, 1.2, 0.485245), (-0.190088, 1.4, 0.665421), (-0.190088, 1.4, 0.485245), (-0.0900883, 1.4, 0.765421), (-0.0900883, 1.2, 0.765421), (0.0900883, 1.2, 0.385245), (0.0900883, 1.4, 0.385245), (-0.0900883, 1.2, 0.385245), (-0.0900883, 1.4, 0.385245), (0.190088, 1.2, 0.485245), (0.190088, 1.2, 0.665421), (0.190088, 1.4, 0.485245), (0.190088, 1.4, 0.665421), (0.0900883, 1.4, 0.765421), (0.0900883, 1.2, 0.765421), (-0.190088, 4.4, 0.665421), (-0.190088, 4.4, 0.485245), (-0.190088, 4.6, 0.665421), (-0.190088, 4.6, 0.485245), (-0.0900883, 4.6, 0.765421), (-0.0900883, 4.4, 0.765421), (0.0900883, 4.4, 0.385245), (0.0900883, 4.6, 0.385245), (-0.0900883, 4.4, 0.385245), (-0.0900883, 4.6, 0.385245), (0.190088, 4.4, 0.485245), (0.190088, 4.4, 0.665421), (0.190088, 4.6, 0.485245), (0.190088, 4.6, 0.665421), (0.0900883, 4.6, 0.765421), (0.0900883, 4.4, 0.765421), (0.0900883, 1.9781, 0.575333), (0.0900883, 1.9781, -0.756856), (-0.0900883, 1.9781, 0.575333), (-0.0900883, 1.9781, -0.756856), (0.0900883, 2.15828, -0.756856), (0.0900883, 2.15828, 0.575333), (-0.0900883, 2.15828, -0.756856), (-0.0900883, 2.15828, 0.575333), (-0.190088, 1.9781, -0.556855), (-0.190088, 2.15828, -0.556855), (-0.190088, 1.9781, -0.356855), (-0.190088, 2.15828, -0.356855), (-0.0900883, 1.8781, -0.356855), (-0.0900883, 1.8781, -0.556855), (0.0900883, 2.25827, -0.556855), (0.0900883, 2.25827, -0.356855), (-0.0900883, 2.25827, -0.556855), (-0.0900883, 2.25827, -0.356855), (0.190088, 2.15828, -0.556855), (0.190088, 1.9781, -0.556855), (0.190088, 2.15828, -0.356855), (0.190088, 1.9781, -0.356855), (0.0900883, 1.8781, -0.356855), (0.0900883, 1.8781, -0.556855), (0.0900883, 1.2, 1.89942), (0.0900883, 1.2, 0.765421), (-0.0900883, 1.2, 1.89942), (-0.0900883, 1.2, 0.765421), (-0.0900883, 3.68086, 0.765421), (0.0900883, 3.68086, 0.765421), (0.0900883, 1.95294, 1.37174), (0.0900883, 2.78916, 0.989508), (-0.0900883, 1.95294, 1.37174), (-0.0900883, 2.78916, 0.989508), (0.0900883, 2.25827, 0.385245), (0.0900883, 2.25827, -0.756856), (-0.0900883, 2.25827, 0.385245), (-0.0900883, 2.25827, -0.756856), (0.0900883, 4.73914, 0.385245), (-0.0900883, 4.73914, 0.385245), (0.0900883, 3.9862, -0.146204), (0.0900883, 3.14998, -0.531168), (-0.0900883, 3.9862, -0.146204), (-0.0900883, 3.14998, -0.531168)]
        normal3f[] normals = [(0, -0.434228, -0.900803), (0, -0.434228, -0.900803), (0, -0.434228, -0.900803), (0, -0.434228, -0.900803), (0, -0.434228, -0.900803), (0, -0.434228, -0.900803), (0, -0.250707, -0.968063), (0, -0.250707, -0.968063), (0, -0.250707, -0.968063), (0, -0.250707, -0.968063), (0, -0.250707, -0.968063), (0, -0.250707, -0.968063), (0, -1, 0), (0, -1, 0), (0, -1, 0), (0, -1, 0), (0, -1, 0), (0, -1, 0), (0, -1, 0), (0, -1, 0), (0, -1, 0), (0, -1, 0), (0, -1, 0), (0, -1, 0), (0, -1, 0), (0, -1, 0), (0, -1, 0), (0.754441, -0.597847, 0.270921), (0.881559, -0.472075, 0), (0.881559, -0.472075, 0), (0.881559, -0.472075, 0), (0.754441, -0.597847, 0.270921), (0.81696, -0.55345, 0.162079), (0.754441, -0.597847, 0.270921), (0.532339, -0.697377, 0.479875), (0.81696, -0.55345, 0.162079), (0.532339, -0.697377, 0.479875), (0.754441, -0.597847, 0.270921), (0.4407, -0.728734, 0.524147), (0, -0.797751, 0.602987), (0.532339, -0.697377, 0.479875), (0.4407, -0.728734, 0.524147), (0.532339, -0.697377, 0.479875), (0, -0.797751, 0.602987), (0, -0.797751, 0.602987), (-0.4407, -0.728734, 0.524147), (0, -0.797751, 0.602987), (0, -0.797751, 0.602987), (0, -0.797751, 0.602987), (-0.4407, -0.728734, 0.524147), (-0.532339, -0.697377, 0.479875), (-0.754441, -0.597847, 0.270921), (-0.532339, -0.697377, 0.479875), (-0.4407, -0.728734, 0.524147), (-0.532339, -0.697377, 0.479875), (-0.754441, -0.597847, 0.270921), (-0.81696, -0.55345, 0.162079), (-0.754441, -0.597847, 0.270921), (-0.881559, -0.472075, 0), (-0.81696, -0.55345, 0.162079), (-0.881559, -0.472075, 0), (-0.754441, -0.597847, 0.270921), (-0.881559, -0.472075, 0), (-0.593353, -0.804942, 0), (-0.39343, -0.905541, 0.158773), (-0.593353, -0.804942, 0), (-0.39343, -0.905541, 0.158773), (-0.593353, -0.804942, 0), (-0.518084, -0.852925, 0.0640928), (-0.518084, -0.852925, 0.0640928), (-0.192022, -0.952574, 0.236073), (-0.39343, -0.905541, 0.158773), (-0.192022, -0.952574, 0.236073), (-0.518084, -0.852925, 0.0640928), (-0.261964, -0.939502, 0.220704), (0, -0.968368, 0.249528), (-0.192022, -0.952574, 0.236073), (-0.261964, -0.939502, 0.220704), (-0.192022, -0.952574, 0.236073), (0, -0.968368, 0.249528), (0, -0.968368, 0.249528), (0.261964, -0.939502, 0.220704), (0, -0.968368, 0.249528), (0, -0.968368, 0.249528), (0, -0.968368, 0.249528), (0.261964, -0.939502, 0.220704), (0.192022, -0.952574, 0.236073), (0.518084, -0.852925, 0.0640928), (0.192022, -0.952574, 0.236073), (0.261964, -0.939502, 0.220704), (0.192022, -0.952574, 0.236073), (0.518084, -0.852925, 0.0640928), (0.39343, -0.905541, 0.158773), (0.518084, -0.852925, 0.0640928), (0.593353, -0.804942, 0), (0.39343, -0.905541, 0.158773), (0.593353, -0.804942, 0), (0.518084, -0.852925, 0.0640928), (0.593353, -0.804942, 0), (0, 1, 0), (0, 1, 0), (0, 1, 0), (0, 1, 0), (0, 1, 0), (0, 1, 0), (0, 1, 0), (0, 1, 0), (0, 1, 0), (0, 1, 0), (0, 1, 0), (0, 1, 0), (0, 1, 0), (0, 1, 0), (0, 1, 0), (0, 1, 0), (0, 1, 0), (0, 1, 0), (0, 1, 0), (0, 1, 0), (0, 1, 0), (0, 1, 0), (0, 1, 0), (0, 1, 0), (0, 1, 0), (0, 1, 0), (0, 1, 0), (0, 1, 0), (0, 1, 0), (0, 1, 0), (0, 1, 0), (0, 1, 0), (0, 1, 0), (0, 1, 0), (0, 1, 0), (0, 1, 0), (0, 1, 0), (0, 1, 0), (0, 1, 0), (0, 1, 0), (0, 1, 0), (0, 1, 0), (-1, 0, 0), (-1, 0, 0), (-1, 0, 0), (-1, 0, 0), (-1, 0, 0), (-1, 0, 0), (-1, 0, 0), (-1, 0, 0), (-1, 0, 0), (1, 0, 0), (1, 0, 0), (1, 0, 0), (1, 0, 0), (1, 0, 0), (1, 0, 0), (1, 0, 0), (1, 0, 0), (1, 0, 0), (0, 0.382683, 0.923879), (0, 0, 1), (0, 0, 1), (0, 0, 1), (0, 0.382683, 0.923879), (0, 0.382683, 0.923879), (0, 0.923879, 0.382683), (0, 0.382683, 0.923879), (0, 0.382683, 0.923879), (0, 0.382683, 0.923879), (0, 0.923879, 0.382683), (0, 0.923879, 0.382683), (0, 1, 0), (0, 0.923879, 0.382683), (0, 0.923879, 0.382683), (0, 0.923879, 0.382683), (0, 1, 0), (0, 1, 0), (0, 1, 0), (0, 1, 0), (0, 1, 0), (0, 1, 0), (0, 1, 0), (0, 1, 0), (0, 1, 0), (0, 1, 0), (0, 1, 0), (0, 1, 0), (0, 1, 0), (0, 1, 0), (0, 1, 0), (0, 1, 0), (0, 1, 0), (0, 1, 0), (0, 1, 0), (0, 1, 0), (0, 0, -1), (0, 0, -1), (0, 0, -1), (0, 0, -1), (0, 0, -1), (0, 0, -1), (-0.923879, 0, 0.382683), (-1, 0, 0), (-1, 0, 0), (-1, 0, 0), (-0.923879, 0, 0.382683), (-0.923879, 0, 0.382683), (-0.382683, 0, 0.923879), (-0.923879, 0, 0.382683), (-0.923879, 0, 0.382683), (-0.923879, 0, 0.382683), (-0.382683, 0, 0.923879), (-0.382683, 0, 0.923879), (-0.382683, 0, 0.923879), (0.382683, 0, 0.923879), (-0.382683, 0, 0.923879), (0.382683, 0, 0.923879), (-0.382683, 0, 0.923879), (0.382683, 0, 0.923879), (0.923879, 0, 0.382683), (0.382683, 0, 0.923879), (0.382683, 0, 0.923879), (0.382683, 0, 0.923879), (0.923879, 0, 0.382683), (0.923879, 0, 0.382683), (1, 0, 0), (0.923879, 0, 0.382683), (0.923879, 0, 0.382683), (0.923879, 0, 0.382683), (1, 0, 0), (1, 0, 0), (0, -1, 0), (0, -1, 0), (0, -1, 0), (0, -1, 0), (0, -1, 0), (0, -1, 0), (0, -1, 0), (0, -1, 0), (0, -1, 0), (0, -1, 0), (0, -1, 0), (0, -1, 0), (0, 0, -1), (0, 0, -1), (0, 0, -1), (0, 0, -1), (0, 0, -1), (0, 0, -1), (0.686706, 0, 0.726935), (0, 0, 1), (0.686706, 0, 0.726935), (0, 0, 1), (0.686706, 0, 0.726935), (0, 0, 1), (0.686706, 0, 0.726935), (0.845965, 0, 0.533238), (0.845965, 0, 0.533238), (0.845965, 0, 0.533238), (0.686706, 0, 0.726935), (0.686706, 0, 0.726935), (0, 0, 1), (-0.686706, 0, 0.726935), (0, 0, 1), (-0.686706, 0, 0.726935), (0, 0, 1), (-0.686706, 0, 0.726935), (-0.686706, 0, 0.726935), (-0.845965, 0, 0.533238), (-0.845965, 0, 0.533238), (-0.845965, 0, 0.533238), (-0.686706, 0, 0.726935), (-0.686706, 0, 0.726935), (0.686706, 0, -0.726935), (0.845965, 0, -0.533238), (0.845965, 0, -0.533238), (0.845965, 0, -0.533238), (0.686706, 0, -0.726935), (0.686706, 0, -0.726935), (-0.686706, 0, -0.726935), (-0.845965, 0, -0.533238), (-0.845965, 0, -0.533238), (-0.845965, 0, -0.533238), (-0.686706, 0, -0.726935), (-0.686706, 0, -0.726935), (0, 0, -1), (-0.686706, 0, -0.726935), (0, 0, -1), (-0.686706, 0, -0.726935), (0, 0, -1), (-0.686706, 0, -0.726935), (0.686706, 0, -0.726935), (0, 0, -1), (0.686706, 0, -0.726935), (0, 0, -1), (0.686706, 0, -0.726935), (0, 0, -1), (0, 0, 1), (0, 0, 1), (0, 0, 1), (0, 0, 1), (0, 0, 1), (0, 0, 1), (1, 0, 0), (1, 0, 0), (1, 0, 0), (1, 0, 0), (1, 0, 0), (1, 0, 0), (-1, 0, 0), (-1, 0, 0), (-1, 0, 0), (-1, 0, 0), (-1, 0, 0), (-1, 0, 0), (0, 1, 0), (0, 1, 0), (0, 1, 0), (0, 1, 0), (0, 1, 0), (0, 1, 0), (0, 1, 0), (0, 1, 0), (0, 1, 0), (0, 1, 0), (0, 1, 0), (0, 1, 0), (0, 1, 0), (0, 1, 0), (0, 1, 0), (-1, 0, 0), (-1, 0, 0), (-1, 0, 0), (-1, 0, 0), (-1, 0, 0), (-1, 0, 0), (1, 0, 0), (1, 0, 0), (1, 0, 0), (1, 0, 0), (1, 0, 0), (1, 0, 0), (0.382683, 0, 0.923879), (-0.382683, 0, 0.923879), (0.382683, 0, 0.923879), (-0.382683, 0, 0.923879), (0.382683, 0, 0.923879), (-0.382683, 0, 0.923879), (0.382683, 0, 0.923879), (0.923879, 0, 0.382683), (0.923879, 0, 0.382683), (0.923879, 0, 0.382683), (0.382683, 0, 0.923879), (0.382683, 0, 0.923879), (-0.382683, 0, 0.923879), (-0.923879, 0, 0.382683), (-0.923879, 0, 0.382683), (-0.923879, 0, 0.382683), (-0.382683, 0, 0.923879), (-0.382683, 0, 0.923879), (-0.382683, 0, -0.923879), (0.382683, 0, -0.923879), (-0.382683, 0, -0.923879), (0.382683, 0, -0.923879), (-0.382683, 0, -0.923879), (0.382683, 0, -0.923879), (0.923879, 0, -0.382683), (0.382683, 0, -0.923879), (0.382683, 0, -0.923879), (0.382683, 0, -0.923879), (0.923879, 0, -0.382683), (0.923879, 0, -0.382683), (-0.923879, 0, -0.382683), (-0.382683, 0, -0.923879), (-0.382683, 0, -0.923879), (-0.382683, 0, -0.923879), (-0.923879, 0, -0.382683), (-0.923879, 0, -0.382683), (-0.923879, 0, 0.382683), (-0.923879, 0, -0.382683), (-0.923879, 0, -0.382683), (-0.923879, 0, -0.382683), (-0.923879, 0, 0.382683), (-0.923879, 0, 0.382683), (0, 1, 0), (0, 1, 0), (0, 1, 0), (0, 1, 0), (0, 1, 0), (0, 1, 0), (0, 1, 0), (0, 1, 0), (0, 1, 0), (0, 1, 0), (0, 1, 0), (0, 1, 0), (0, 1, 0), (0, 1, 0), (0, 1, 0), (0, 1, 0), (0, 1, 0), (0, 1, 0), (0.923879, 0, 0.382683), (0.923879, 0, -0.382683), (0.923879, 0, -0.382683), (0.923879, 0, -0.382683), (0.923879, 0, 0.382683), (0.923879, 0, 0.382683), (0, -1, 0), (0, -1, 0), (0, -1, 0), (0, -1, 0), (0, -1, 0), (0, -1, 0), (0, -1, 0), (0, -1, 0), (0, -1, 0), (0, -1, 0), (0, -1, 0), (0, -1, 0), (0, -1, 0), (0, -1, 0), (0, -1, 0), (0, -1, 0), (0, -1, 0), (0, -1, 0), (0, -1, 0), (0, -1, 0), (0, -1, 0), (0, -1, 0), (0, -1, 0), (0, -1, 0), (0, -1, 0), (0, -1, 0), (0, -1, 0), (0, -1, 0), (0, -1, 0), (0, -1, 0), (0, -1, 0), (0, -1, 0), (0, -1, 0), (0, -1, 0), (0, -1, 0), (0, -1, 0), (0, -1, 0), (0, -1, 0), (0, -1, 0), (0, -1, 0), (0, -1, 0), (0, -1, 0), (0, -1, 0), (0, -1, 0), (0, -1, 0), (0, -1, 0), (0, -1, 0), (0, -1, 0), (0, 0.382683, 0.923879), (0, 0, 1), (0, 0, 1), (0, 0, 1), (0, 0.382683, 0.923879), (0, 0.382683, 0.923879), (0, 0.923879, 0.382683), (0, 0.382683, 0.923879), (0, 0.382683, 0.923879), (0, 0.382683, 0.923879), (0, 0.923879, 0.382683), (0, 0.923879, 0.382683), (0, 0.382683, -0.923879), (0, 0, -1), (0, 0, -1), (0, 0, -1), (0, 0.382683, -0.923879), (0, 0.382683, -0.923879), (0, 0.923879, -0.382683), (0, 0.923879, 0.382683), (0, 0.923879, 0.382683), (0, 0.923879, 0.382683), (0, 0.923879, -0.382683), (0, 0.923879, -0.382683), (0, 0.382683, -0.923879), (0, 0.923879, -0.382683), (0, 0.923879, -0.382683), (0, 0.923879, -0.382683), (0, 0.382683, -0.923879), (0, 0.382683, -0.923879), (-1, 0, 0), (-1, 0, 0), (-1, 0, 0), (-1, 0, 0), (-1, 0, 0), (-1, 0, 0), (-1, 0, 0), (-1, 0, 0), (-1, 0, 0), (-1, 0, 0), (-1, 0, 0), (-1, 0, 0), (1, 0, 0), (1, 0, 0), (1, 0, 0), (1, 0, 0), (1, 0, 0), (1, 0, 0), (1, 0, 0), (1, 0, 0), (1, 0, 0), (1, 0, 0), (1, 0, 0), (1, 0, 0), (1, 0, 3.58942e-13), (1, 0, 3.58942e-13), (1, 0, 3.58942e-13), (1, 0, 3.58942e-13), (1, 0, 3.58942e-13), (1, 0, 3.58942e-13), (-1.37361e-13, 0.923879, 0.382683), (1.37361e-13, 0.923879, -0.382683), (-1.37361e-13, 0.923879, 0.382683), (1.37361e-13, 0.923879, -0.382683), (-1.37361e-13, 0.923879, 0.382683), (1.37361e-13, 0.923879, -0.382683), (-1, 0, -3.58942e-13), (-1, 0, -3.58942e-13), (-1, 0, -3.58942e-13), (-1, 0, -3.58942e-13), (-1, 0, -3.58942e-13), (-1, 0, -3.58942e-13), (1.37361e-13, 0.923879, -0.382683), (2.5381e-13, 0.707107, -0.707107), (1.37361e-13, 0.923879, -0.382683), (2.5381e-13, 0.707107, -0.707107), (1.37361e-13, 0.923879, -0.382683), (2.5381e-13, 0.707107, -0.707107), (-2.5381e-13, 0.707107, 0.707107), (-1.37361e-13, 0.923879, 0.382683), (-2.5381e-13, 0.707107, 0.707107), (-1.37361e-13, 0.923879, 0.382683), (-2.5381e-13, 0.707107, 0.707107), (-1.37361e-13, 0.923879, 0.382683), (1, 0, 3.58942e-13), (1, 0, 3.58942e-13), (1, 0, 3.58942e-13), (1, 0, 3.58942e-13), (1, 0, 3.58942e-13), (1, 0, 3.58942e-13), (-1.37361e-13, 0.923879, 0.382683), (1.37361e-13, 0.923879, -0.382683), (-1.37361e-13, 0.923879, 0.382683), (1.37361e-13, 0.923879, -0.382683), (-1.37361e-13, 0.923879, 0.382683), (1.37361e-13, 0.923879, -0.382683), (-1, 0, -3.58942e-13), (-1, 0, -3.58942e-13), (-1, 0, -3.58942e-13), (-1, 0, -3.58942e-13), (-1, 0, -3.58942e-13), (-1, 0, -3.58942e-13), (1.37361e-13, 0.923879, -0.382683), (2.5381e-13, 0.707107, -0.707107), (1.37361e-13, 0.923879, -0.382683), (2.5381e-13, 0.707107, -0.707107), (1.37361e-13, 0.923879, -0.382683), (2.5381e-13, 0.707107, -0.707107), (-2.5381e-13, 0.707107, 0.707107), (-1.37361e-13, 0.923879, 0.382683), (-2.5381e-13, 0.707107, 0.707107), (-1.37361e-13, 0.923879, 0.382683), (-2.5381e-13, 0.707107, 0.707107), (-1.37361e-13, 0.923879, 0.382683), (1, 0, 3.58942e-13), (1, 0, 3.58942e-13), (1, 0, 3.58942e-13), (1, 0, 3.58942e-13), (1, 0, 3.58942e-13), (1, 0, 3.58942e-13), (-1.37361e-13, 0.923879, 0.382683), (1.37361e-13, 0.923879, -0.382683), (-1.37361e-13, 0.923879, 0.382683), (1.37361e-13, 0.923879, -0.382683), (-1.37361e-13, 0.923879, 0.382683), (1.37361e-13, 0.923879, -0.382683), (-1, 0, -3.58942e-13), (-1, 0, -3.58942e-13), (-1, 0, -3.58942e-13), (-1, 0, -3.58942e-13), (-1, 0, -3.58942e-13), (-1, 0, -3.58942e-13), (1.37361e-13, 0.923879, -0.382683), (2.5381e-13, 0.707107, -0.707107), (1.37361e-13, 0.923879, -0.382683), (2.5381e-13, 0.707107, -0.707107), (1.37361e-13, 0.923879, -0.382683), (2.5381e-13, 0.707107, -0.707107), (-2.5381e-13, 0.707107, 0.707107), (-1.37361e-13, 0.923879, 0.382683), (-2.5381e-13, 0.707107, 0.707107), (-1.37361e-13, 0.923879, 0.382683), (-2.5381e-13, 0.707107, 0.707107), (-1.37361e-13, 0.923879, 0.382683), (1, 0, 3.58942e-13), (1, 0, 3.58942e-13), (1, 0, 3.58942e-13), (1, 0, 3.58942e-13), (1, 0, 3.58942e-13), (1, 0, 3.58942e-13), (-1.37361e-13, 0.923879, 0.382683), (1.37361e-13, 0.923879, -0.382683), (-1.37361e-13, 0.923879, 0.382683), (1.37361e-13, 0.923879, -0.382683), (-1.37361e-13, 0.923879, 0.382683), (1.37361e-13, 0.923879, -0.382683), (-1, 0, -3.58942e-13), (-1, 0, -3.58942e-13), (-1, 0, -3.58942e-13), (-1, 0, -3.58942e-13), (-1, 0, -3.58942e-13), (-1, 0, -3.58942e-13), (1.37361e-13, 0.923879, -0.382683), (2.5381e-13, 0.707107, -0.707107), (1.37361e-13, 0.923879, -0.382683), (2.5381e-13, 0.707107, -0.707107), (1.37361e-13, 0.923879, -0.382683), (2.5381e-13, 0.707107, -0.707107), (-2.5381e-13, 0.707107, 0.707107), (-1.37361e-13, 0.923879, 0.382683), (-2.5381e-13, 0.707107, 0.707107), (-1.37361e-13, 0.923879, 0.382683), (-2.5381e-13, 0.707107, 0.707107), (-1.37361e-13, 0.923879, 0.382683), (0, -0.434228, -0.900803), (0, -0.434228, -0.900803), (0, -0.434228, -0.900803), (0, -0.434228, -0.900803), (0, -0.434228, -0.900803), (0, -0.434228, -0.900803), (0, -0.250707, -0.968063), (0, -0.250707, -0.968063), (0, -0.250707, -0.968063), (0, -0.250707, -0.968063), (0, -0.250707, -0.968063), (0, -0.250707, -0.968063), (0, -1, 0), (0, -1, 0), (0, -1, 0), (0, -1, 0), (0, -1, 0), (0, -1, 0), (0, -1, 0), (0, -1, 0), (0, -1, 0), (0, -1, 0), (0, -1, 0), (0, -1, 0), (0, -1, 0), (0, -1, 0), (0, -1, 0), (0.754441, -0.597847, 0.270921), (0.881559, -0.472075, 0), (0.881559, -0.472075, 0), (0.881559, -0.472075, 0), (0.754441, -0.597847, 0.270921), (0.81696, -0.55345, 0.162079), (0.754441, -0.597847, 0.270921), (0.532339, -0.697377, 0.479875), (0.81696, -0.55345, 0.162079), (0.532339, -0.697377, 0.479875), (0.754441, -0.597847, 0.270921), (0.4407, -0.728734, 0.524147), (0, -0.797751, 0.602987), (0.532339, -0.697377, 0.479875), (0.4407, -0.728734, 0.524147), (0.532339, -0.697377, 0.479875), (0, -0.797751, 0.602987), (0, -0.797751, 0.602987), (-0.4407, -0.728734, 0.524147), (0, -0.797751, 0.602987), (0, -0.797751, 0.602987), (0, -0.797751, 0.602987), (-0.4407, -0.728734, 0.524147), (-0.532339, -0.697377, 0.479875), (-0.754441, -0.597847, 0.270921), (-0.532339, -0.697377, 0.479875), (-0.4407, -0.728734, 0.524147), (-0.532339, -0.697377, 0.479875), (-0.754441, -0.597847, 0.270921), (-0.81696, -0.55345, 0.162079), (-0.754441, -0.597847, 0.270921), (-0.881559, -0.472075, 0), (-0.81696, -0.55345, 0.162079), (-0.881559, -0.472075, 0), (-0.754441, -0.597847, 0.270921), (-0.881559, -0.472075, 0), (-0.593353, -0.804942, 0), (-0.39343, -0.905541, 0.158773), (-0.593353, -0.804942, 0), (-0.39343, -0.905541, 0.158773), (-0.593353, -0.804942, 0), (-0.518084, -0.852925, 0.0640928), (-0.518084, -0.852925, 0.0640928), (-0.192022, -0.952574, 0.236073), (-0.39343, -0.905541, 0.158773), (-0.192022, -0.952574, 0.236073), (-0.518084, -0.852925, 0.0640928), (-0.261964, -0.939502, 0.220704), (0, -0.968368, 0.249528), (-0.192022, -0.952574, 0.236073), (-0.261964, -0.939502, 0.220704), (-0.192022, -0.952574, 0.236073), (0, -0.968368, 0.249528), (0, -0.968368, 0.249528), (0.261964, -0.939502, 0.220704), (0, -0.968368, 0.249528), (0, -0.968368, 0.249528), (0, -0.968368, 0.249528), (0.261964, -0.939502, 0.220704), (0.192022, -0.952574, 0.236073), (0.518084, -0.852925, 0.0640928), (0.192022, -0.952574, 0.236073), (0.261964, -0.939502, 0.220704), (0.192022, -0.952574, 0.236073), (0.518084, -0.852925, 0.0640928), (0.39343, -0.905541, 0.158773), (0.518084, -0.852925, 0.0640928), (0.593353, -0.804942, 0), (0.39343, -0.905541, 0.158773), (0.593353, -0.804942, 0), (0.518084, -0.852925, 0.0640928), (0.593353, -0.804942, 0), (0, 1, 0), (0, 1, 0), (0, 1, 0), (0, 1, 0), (0, 1, 0), (0, 1, 0), (0, 1, 0), (0, 1, 0), (0, 1, 0), (0, 1, 0), (0, 1, 0), (0, 1, 0), (0, 1, 0), (0, 1, 0), (0, 1, 0), (0, 1, 0), (0, 1, 0), (0, 1, 0), (0, 1, 0), (0, 1, 0), (0, 1, 0), (0, 1, 0), (0, 1, 0), (0, 1, 0), (0, 1, 0), (0, 1, 0), (0, 1, 0), (0, 1, 0), (0, 1, 0), (0, 1, 0), (0, 1, 0), (0, 1, 0), (0, 1, 0), (0, 1, 0), (0, 1, 0), (0, 1, 0), (0, 1, 0), (0, 1, 0), (0, 1, 0), (0, 1, 0), (0, 1, 0), (0, 1, 0), (-1, 0, 0), (-1, 0, 0), (-1, 0, 0), (-1, 0, 0), (-1, 0, 0), (-1, 0, 0), (-1, 0, 0), (-1, 0, 0), (-1, 0, 0), (1, 0, 0), (1, 0, 0), (1, 0, 0), (1, 0, 0), (1, 0, 0), (1, 0, 0), (1, 0, 0), (1, 0, 0), (1, 0, 0), (0, 0.382683, 0.923879), (0, 0, 1), (0, 0, 1), (0, 0, 1), (0, 0.382683, 0.923879), (0, 0.382683, 0.923879), (0, 0.923879, 0.382683), (0, 0.382683, 0.923879), (0, 0.382683, 0.923879), (0, 0.382683, 0.923879), (0, 0.923879, 0.382683), (0, 0.923879, 0.382683), (0, 1, 0), (0, 0.923879, 0.382683), (0, 0.923879, 0.382683), (0, 0.923879, 0.382683), (0, 1, 0), (0, 1, 0), (0, 1, 0), (0, 1, 0), (0, 1, 0), (0, 1, 0), (0, 1, 0), (0, 1, 0), (0, 1, 0), (0, 1, 0), (0, 1, 0), (0, 1, 0), (0, 1, 0), (0, 1, 0), (0, 1, 0), (0, 1, 0), (0, 1, 0), (0, 1, 0), (0, 1, 0), (0, 1, 0), (0, 0, -1), (0, 0, -1), (0, 0, -1), (0, 0, -1), (0, 0, -1), (0, 0, -1), (-0.923879, 0, 0.382683), (-1, 0, 0), (-1, 0, 0), (-1, 0, 0), (-0.923879, 0, 0.382683), (-0.923879, 0, 0.382683), (-0.382683, 0, 0.923879), (-0.923879, 0, 0.382683), (-0.923879, 0, 0.382683), (-0.923879, 0, 0.382683), (-0.382683, 0, 0.923879), (-0.382683, 0, 0.923879), (-0.382683, 0, 0.923879), (0.382683, 0, 0.923879), (-0.382683, 0, 0.923879), (0.382683, 0, 0.923879), (-0.382683, 0, 0.923879), (0.382683, 0, 0.923879), (0.923879, 0, 0.382683), (0.382683, 0, 0.923879), (0.382683, 0, 0.923879), (0.382683, 0, 0.923879), (0.923879, 0, 0.382683), (0.923879, 0, 0.382683), (1, 0, 0), (0.923879, 0, 0.382683), (0.923879, 0, 0.382683), (0.923879, 0, 0.382683), (1, 0, 0), (1, 0, 0), (0, -1, 0), (0, -1, 0), (0, -1, 0), (0, -1, 0), (0, -1, 0), (0, -1, 0), (0, -1, 0), (0, -1, 0), (0, -1, 0), (0, -1, 0), (0, -1, 0), (0, -1, 0), (0, 0, -1), (0, 0, -1), (0, 0, -1), (0, 0, -1), (0, 0, -1), (0, 0, -1), (0.686706, 0, 0.726935), (0, 0, 1), (0.686706, 0, 0.726935), (0, 0, 1), (0.686706, 0, 0.726935), (0, 0, 1), (0.686706, 0, 0.726935), (0.845965, 0, 0.533238), (0.845965, 0, 0.533238), (0.845965, 0, 0.533238), (0.686706, 0, 0.726935), (0.686706, 0, 0.726935), (0, 0, 1), (-0.686706, 0, 0.726935), (0, 0, 1), (-0.686706, 0, 0.726935), (0, 0, 1), (-0.686706, 0, 0.726935), (-0.686706, 0, 0.726935), (-0.845965, 0, 0.533238), (-0.845965, 0, 0.533238), (-0.845965, 0, 0.533238), (-0.686706, 0, 0.726935), (-0.686706, 0, 0.726935), (0.686706, 0, -0.726935), (0.845965, 0, -0.533238), (0.845965, 0, -0.533238), (0.845965, 0, -0.533238), (0.686706, 0, -0.726935), (0.686706, 0, -0.726935), (-0.686706, 0, -0.726935), (-0.845965, 0, -0.533238), (-0.845965, 0, -0.533238), (-0.845965, 0, -0.533238), (-0.686706, 0, -0.726935), (-0.686706, 0, -0.726935), (0, 0, -1), (-0.686706, 0, -0.726935), (0, 0, -1), (-0.686706, 0, -0.726935), (0, 0, -1), (-0.686706, 0, -0.726935), (0.686706, 0, -0.726935), (0, 0, -1), (0.686706, 0, -0.726935), (0, 0, -1), (0.686706, 0, -0.726935), (0, 0, -1), (0, 0, 1), (0, 0, 1), (0, 0, 1), (0, 0, 1), (0, 0, 1), (0, 0, 1), (1, 0, 0), (1, 0, 0), (1, 0, 0), (1, 0, 0), (1, 0, 0), (1, 0, 0), (-1, 0, 0), (-1, 0, 0), (-1, 0, 0), (-1, 0, 0), (-1, 0, 0), (-1, 0, 0), (0, 1, 0), (0, 1, 0), (0, 1, 0), (0, 1, 0), (0, 1, 0), (0, 1, 0), (0, 1, 0), (0, 1, 0), (0, 1, 0), (0, 1, 0), (0, 1, 0), (0, 1, 0), (0, 1, 0), (0, 1, 0), (0, 1, 0), (-1, 0, 0), (-1, 0, 0), (-1, 0, 0), (-1, 0, 0), (-1, 0, 0), (-1, 0, 0), (1, 0, 0), (1, 0, 0), (1, 0, 0), (1, 0, 0), (1, 0, 0), (1, 0, 0), (0.382683, 0, 0.923879), (-0.382683, 0, 0.923879), (0.382683, 0, 0.923879), (-0.382683, 0, 0.923879), (0.382683, 0, 0.923879), (-0.382683, 0, 0.923879), (0.382683, 0, 0.923879), (0.923879, 0, 0.382683), (0.923879, 0, 0.382683), (0.923879, 0, 0.382683), (0.382683, 0, 0.923879), (0.382683, 0, 0.923879), (-0.382683, 0, 0.923879), (-0.923879, 0, 0.382683), (-0.923879, 0, 0.382683), (-0.923879, 0, 0.382683), (-0.382683, 0, 0.923879), (-0.382683, 0, 0.923879), (-0.382683, 0, -0.923879), (0.382683, 0, -0.923879), (-0.382683, 0, -0.923879), (0.382683, 0, -0.923879), (-0.382683, 0, -0.923879), (0.382683, 0, -0.923879), (0.923879, 0, -0.382683), (0.382683, 0, -0.923879), (0.382683, 0, -0.923879), (0.382683, 0, -0.923879), (0.923879, 0, -0.382683), (0.923879, 0, -0.382683), (-0.923879, 0, -0.382683), (-0.382683, 0, -0.923879), (-0.382683, 0, -0.923879), (-0.382683, 0, -0.923879), (-0.923879, 0, -0.382683), (-0.923879, 0, -0.382683), (-0.923879, 0, 0.382683), (-0.923879, 0, -0.382683), (-0.923879, 0, -0.382683), (-0.923879, 0, -0.382683), (-0.923879, 0, 0.382683), (-0.923879, 0, 0.382683), (0, 1, 0), (0, 1, 0), (0, 1, 0), (0, 1, 0), (0, 1, 0), (0, 1, 0), (0, 1, 0), (0, 1, 0), (0, 1, 0), (0, 1, 0), (0, 1, 0), (0, 1, 0), (0, 1, 0), (0, 1, 0), (0, 1, 0), (0, 1, 0), (0, 1, 0), (0, 1, 0), (0.923879, 0, 0.382683), (0.923879, 0, -0.382683), (0.923879, 0, -0.382683), (0.923879, 0, -0.382683), (0.923879, 0, 0.382683), (0.923879, 0, 0.382683), (0, -1, 0), (0, -1, 0), (0, -1, 0), (0, -1, 0), (0, -1, 0), (0, -1, 0), (0, -1, 0), (0, -1, 0), (0, -1, 0), (0, -1, 0), (0, -1, 0), (0, -1, 0), (0, -1, 0), (0, -1, 0), (0, -1, 0), (0, -1, 0), (0, -1, 0), (0, -1, 0), (0, -1, 0), (0, -1, 0), (0, -1, 0), (0, -1, 0), (0, -1, 0), (0, -1, 0), (0, -1, 0), (0, -1, 0), (0, -1, 0), (0, -1, 0), (0, -1, 0), (0, -1, 0), (0, -1, 0), (0, -1, 0), (0, -1, 0), (0, -1, 0), (0, -1, 0), (0, -1, 0), (0, -1, 0), (0, -1, 0), (0, -1, 0), (0, -1, 0), (0, -1, 0), (0, -1, 0), (0, -1, 0), (0, -1, 0), (0, -1, 0), (0, -1, 0), (0, -1, 0), (0, -1, 0), (0, 0.382683, 0.923879), (0, 0, 1), (0, 0, 1), (0, 0, 1), (0, 0.382683, 0.923879), (0, 0.382683, 0.923879), (0, 0.923879, 0.382683), (0, 0.382683, 0.923879), (0, 0.382683, 0.923879), (0, 0.382683, 0.923879), (0, 0.923879, 0.382683), (0, 0.923879, 0.382683), (0, 0.382683, -0.923879), (0, 0, -1), (0, 0, -1), (0, 0, -1), (0, 0.382683, -0.923879), (0, 0.382683, -0.923879), (0, 0.923879, -0.382683), (0, 0.923879, 0.382683), (0, 0.923879, 0.382683), (0, 0.923879, 0.382683), (0, 0.923879, -0.382683), (0, 0.923879, -0.382683), (0, 0.382683, -0.923879), (0, 0.923879, -0.382683), (0, 0.923879, -0.382683), (0, 0.923879, -0.382683), (0, 0.382683, -0.923879), (0, 0.382683, -0.923879), (-1, 0, 0), (-1, 0, 0), (-1, 0, 0), (-1, 0, 0), (-1, 0, 0), (-1, 0, 0), (-1, 0, 0), (-1, 0, 0), (-1, 0, 0), (-1, 0, 0), (-1, 0, 0), (-1, 0, 0), (1, 0, 0), (1, 0, 0), (1, 0, 0), (1, 0, 0), (1, 0, 0), (1, 0, 0), (1, 0, 0), (1, 0, 0), (1, 0, 0), (1, 0, 0), (1, 0, 0), (1, 0, 0), (1, 0, 3.58942e-13), (1, 0, 3.58942e-13), (1, 0, 3.58942e-13), (1, 0, 3.58942e-13), (1, 0, 3.58942e-13), (1, 0, 3.58942e-13), (-1.37361e-13, 0.923879, 0.382683), (1.37361e-13, 0.923879, -0.382683), (-1.37361e-13, 0.923879, 0.382683), (1.37361e-13, 0.923879, -0.382683), (-1.37361e-13, 0.923879, 0.382683), (1.37361e-13, 0.923879, -0.382683), (-1, 0, -3.58942e-13), (-1, 0, -3.58942e-13), (-1, 0, -3.58942e-13), (-1, 0, -3.58942e-13), (-1, 0, -3.58942e-13), (-1, 0, -3.58942e-13), (1.37361e-13, 0.923879, -0.382683), (2.5381e-13, 0.707107, -0.707107), (1.37361e-13, 0.923879, -0.382683), (2.5381e-13, 0.707107, -0.707107), (1.37361e-13, 0.923879, -0.382683), (2.5381e-13, 0.707107, -0.707107), (-2.5381e-13, 0.707107, 0.707107), (-1.37361e-13, 0.923879, 0.382683), (-2.5381e-13, 0.707107, 0.707107), (-1.37361e-13, 0.923879, 0.382683), (-2.5381e-13, 0.707107, 0.707107), (-1.37361e-13, 0.923879, 0.382683), (1, 0, 3.58942e-13), (1, 0, 3.58942e-13), (1, 0, 3.58942e-13), (1, 0, 3.58942e-13), (1, 0, 3.58942e-13), (1, 0, 3.58942e-13), (-1.37361e-13, 0.923879, 0.382683), (1.37361e-13, 0.923879, -0.382683), (-1.37361e-13, 0.923879, 0.382683), (1.37361e-13, 0.923879, -0.382683), (-1.37361e-13, 0.923879, 0.382683), (1.37361e-13, 0.923879, -0.382683), (-1, 0, -3.58942e-13), (-1, 0, -3.58942e-13), (-1, 0, -3.58942e-13), (-1, 0, -3.58942e-13), (-1, 0, -3.58942e-13), (-1, 0, -3.58942e-13), (1.37361e-13, 0.923879, -0.382683), (2.5381e-13, 0.707107, -0.707107), (1.37361e-13, 0.923879, -0.382683), (2.5381e-13, 0.707107, -0.707107), (1.37361e-13, 0.923879, -0.382683), (2.5381e-13, 0.707107, -0.707107), (-2.5381e-13, 0.707107, 0.707107), (-1.37361e-13, 0.923879, 0.382683), (-2.5381e-13, 0.707107, 0.707107), (-1.37361e-13, 0.923879, 0.382683), (-2.5381e-13, 0.707107, 0.707107), (-1.37361e-13, 0.923879, 0.382683), (1, 0, 3.58942e-13), (1, 0, 3.58942e-13), (1, 0, 3.58942e-13), (1, 0, 3.58942e-13), (1, 0, 3.58942e-13), (1, 0, 3.58942e-13), (-1.37361e-13, 0.923879, 0.382683), (1.37361e-13, 0.923879, -0.382683), (-1.37361e-13, 0.923879, 0.382683), (1.37361e-13, 0.923879, -0.382683), (-1.37361e-13, 0.923879, 0.382683), (1.37361e-13, 0.923879, -0.382683), (-1, 0, -3.58942e-13), (-1, 0, -3.58942e-13), (-1, 0, -3.58942e-13), (-1, 0, -3.58942e-13), (-1, 0, -3.58942e-13), (-1, 0, -3.58942e-13), (1.37361e-13, 0.923879, -0.382683), (2.5381e-13, 0.707107, -0.707107), (1.37361e-13, 0.923879, -0.382683), (2.5381e-13, 0.707107, -0.707107), (1.37361e-13, 0.923879, -0.382683), (2.5381e-13, 0.707107, -0.707107), (-2.5381e-13, 0.707107, 0.707107), (-1.37361e-13, 0.923879, 0.382683), (-2.5381e-13, 0.707107, 0.707107), (-1.37361e-13, 0.923879, 0.382683), (-2.5381e-13, 0.707107, 0.707107), (-1.37361e-13, 0.923879, 0.382683), (1, 0, 3.58942e-13), (1, 0, 3.58942e-13), (1, 0, 3.58942e-13), (1, 0, 3.58942e-13), (1, 0, 3.58942e-13), (1, 0, 3.58942e-13), (-1.37361e-13, 0.923879, 0.382683), (1.37361e-13, 0.923879, -0.382683), (-1.37361e-13, 0.923879, 0.382683), (1.37361e-13, 0.923879, -0.382683), (-1.37361e-13, 0.923879, 0.382683), (1.37361e-13, 0.923879, -0.382683), (-1, 0, -3.58942e-13), (-1, 0, -3.58942e-13), (-1, 0, -3.58942e-13), (-1, 0, -3.58942e-13), (-1, 0, -3.58942e-13), (-1, 0, -3.58942e-13), (1.37361e-13, 0.923879, -0.382683), (2.5381e-13, 0.707107, -0.707107), (1.37361e-13, 0.923879, -0.382683), (2.5381e-13, 0.707107, -0.707107), (1.37361e-13, 0.923879, -0.382683), (2.5381e-13, 0.707107, -0.707107), (-2.5381e-13, 0.707107, 0.707107), (-1.37361e-13, 0.923879, 0.382683), (-2.5381e-13, 0.707107, 0.707107), (-1.37361e-13, 0.923879, 0.382683), (-2.5381e-13, 0.707107, 0.707107), (-1.37361e-13, 0.923879, 0.382683), (0.865989, 0.00914671, -0.499979), (0.865989, 0.00914671, 0.499979), (0.865989, 0.00914671, -0.499979), (0.865989, 0.00914671, 0.499979), (0.865989, 0.00914671, -0.499979), (0.865989, 0.00914671, 0.499979), (0, 0.00914671, 0.999958), (-0.865989, 0.00914671, 0.499979), (0, 0.00914671, 0.999958), (-0.865989, 0.00914671, 0.499979), (0, 0.00914671, 0.999958), (-0.865989, 0.00914671, 0.499979), (-0.865989, 0.00914671, -0.499979), (0, 0.00914671, -0.999958), (-0.865989, 0.00914671, -0.499979), (0, 0.00914671, -0.999958), (-0.865989, 0.00914671, -0.499979), (0, 0.00914671, -0.999958), (0, 0.00914671, -0.999958), (0.865989, 0.00914671, -0.499979), (0, 0.00914671, -0.999958), (0.865989, 0.00914671, -0.499979), (0, 0.00914671, -0.999958), (0.865989, 0.00914671, -0.499979), (-0.865989, 0.00914671, 0.499979), (-0.865989, 0.00914671, -0.499979), (-0.865989, 0.00914671, -0.499979), (-0.865989, 0.00914671, -0.499979), (-0.865989, 0.00914671, 0.499979), (-0.865989, 0.00914671, 0.499979), (0.865989, 0.00914671, 0.499979), (0, 0.00914671, 0.999958), (0.865989, 0.00914671, 0.499979), (0, 0.00914671, 0.999958), (0.865989, 0.00914671, 0.499979), (0, 0.00914671, 0.999958), (0, 1, 0), (0, 1, 0), (0, 1, 0), (0, 1, 0), (0, 1, 0), (0, 1, 0), (0, 1, 0), (0, 1, 0), (0, 1, 0), (0, 1, 0), (0, 1, 0), (0, 1, 0), (0, -1, 0), (0, -1, 0), (0, -1, 0), (0, -1, 0), (0, -1, 0), (0, -1, 0), (0, -1, 0), (0, -1, 0), (0, -1, 0), (0, -1, 0), (0, -1, 0), (0, -1, 0), (-0.923879, 4.56194e-08, 0.382684), (-0.923879, -4.56194e-08, -0.382684), (-0.923879, 4.56194e-08, 0.382684), (-0.923879, -4.56194e-08, -0.382684), (-0.923879, 4.56194e-08, 0.382684), (-0.923879, -4.56194e-08, -0.382684), (-0.923879, 4.56194e-08, 0.382684), (-0.382683, 1.10135e-07, 0.92388), (-0.382683, 1.10135e-07, 0.92388), (-0.382683, 1.10135e-07, 0.92388), (-0.923879, 4.56194e-08, 0.382684), (-0.923879, 4.56194e-08, 0.382684), (-0.382683, -1.10135e-07, -0.92388), (0.382683, -1.10135e-07, -0.92388), (0.382683, -1.10135e-07, -0.92388), (0.382683, -1.10135e-07, -0.92388), (-0.382683, -1.10135e-07, -0.92388), (-0.382683, -1.10135e-07, -0.92388), (-0.923879, -4.56194e-08, -0.382684), (-0.382683, -1.10135e-07, -0.92388), (-0.382683, -1.10135e-07, -0.92388), (-0.382683, -1.10135e-07, -0.92388), (-0.923879, -4.56194e-08, -0.382684), (-0.923879, -4.56194e-08, -0.382684), (0.923879, -4.56194e-08, -0.382684), (0.923879, 4.56194e-08, 0.382684), (0.923879, -4.56194e-08, -0.382684), (0.923879, 4.56194e-08, 0.382684), (0.923879, -4.56194e-08, -0.382684), (0.923879, 4.56194e-08, 0.382684), (0.382683, -1.10135e-07, -0.92388), (0.923879, -4.56194e-08, -0.382684), (0.923879, -4.56194e-08, -0.382684), (0.923879, -4.56194e-08, -0.382684), (0.382683, -1.10135e-07, -0.92388), (0.382683, -1.10135e-07, -0.92388), (-0.382683, 1.10135e-07, 0.92388), (0.382683, 1.10135e-07, 0.92388), (0.382683, 1.10135e-07, 0.92388), (0.382683, 1.10135e-07, 0.92388), (-0.382683, 1.10135e-07, 0.92388), (-0.382683, 1.10135e-07, 0.92388), (0.382683, 1.10135e-07, 0.92388), (0.923879, 4.56194e-08, 0.382684), (0.923879, 4.56194e-08, 0.382684), (0.923879, 4.56194e-08, 0.382684), (0.382683, 1.10135e-07, 0.92388), (0.382683, 1.10135e-07, 0.92388), (0, -1, 1.19209e-07), (0, -1, 1.19209e-07), (0, -1, 1.19209e-07), (0, -1, 1.19209e-07), (0, -1, 1.19209e-07), (0, -1, 1.19209e-07), (0, -1, 1.19209e-07), (0, -1, 1.19209e-07), (0, -1, 1.19209e-07), (0, -1, 1.19209e-07), (0, -1, 1.19209e-07), (0, -1, 1.19209e-07), (0, -1, 1.19209e-07), (0, -1, 1.19209e-07), (0, -1, 1.19209e-07), (0, -1, 1.19209e-07), (0, -1, 1.19209e-07), (0, -1, 1.19209e-07), (0, 1, -1.19209e-07), (0, 1, -1.19209e-07), (0, 1, -1.19209e-07), (0, 1, -1.19209e-07), (0, 1, -1.19209e-07), (0, 1, -1.19209e-07), (0, 1, -1.19209e-07), (0, 1, -1.19209e-07), (0, 1, -1.19209e-07), (0, 1, -1.19209e-07), (0, 1, -1.19209e-07), (0, 1, -1.19209e-07), (0, 1, -1.19209e-07), (0, 1, -1.19209e-07), (0, 1, -1.19209e-07), (0, 1, -1.19209e-07), (0, 1, -1.19209e-07), (0, 1, -1.19209e-07), (-0.923879, 4.56194e-08, 0.382684), (-0.923879, -4.56194e-08, -0.382684), (-0.923879, 4.56194e-08, 0.382684), (-0.923879, -4.56194e-08, -0.382684), (-0.923879, 4.56194e-08, 0.382684), (-0.923879, -4.56194e-08, -0.382684), (-0.923879, 4.56194e-08, 0.382684), (-0.382683, 1.10135e-07, 0.92388), (-0.382683, 1.10135e-07, 0.92388), (-0.382683, 1.10135e-07, 0.92388), (-0.923879, 4.56194e-08, 0.382684), (-0.923879, 4.56194e-08, 0.382684), (-0.382683, -1.10135e-07, -0.92388), (0.382683, -1.10135e-07, -0.92388), (0.382683, -1.10135e-07, -0.92388), (0.382683, -1.10135e-07, -0.92388), (-0.382683, -1.10135e-07, -0.92388), (-0.382683, -1.10135e-07, -0.92388), (-0.923879, -4.56194e-08, -0.382684), (-0.382683, -1.10135e-07, -0.92388), (-0.382683, -1.10135e-07, -0.92388), (-0.382683, -1.10135e-07, -0.92388), (-0.923879, -4.56194e-08, -0.382684), (-0.923879, -4.56194e-08, -0.382684), (0.923879, -4.56194e-08, -0.382684), (0.923879, 4.56194e-08, 0.382684), (0.923879, -4.56194e-08, -0.382684), (0.923879, 4.56194e-08, 0.382684), (0.923879, -4.56194e-08, -0.382684), (0.923879, 4.56194e-08, 0.382684), (0.382683, -1.10135e-07, -0.92388), (0.923879, -4.56194e-08, -0.382684), (0.923879, -4.56194e-08, -0.382684), (0.923879, -4.56194e-08, -0.382684), (0.382683, -1.10135e-07, -0.92388), (0.382683, -1.10135e-07, -0.92388), (-0.382683, 1.10135e-07, 0.92388), (0.382683, 1.10135e-07, 0.92388), (0.382683, 1.10135e-07, 0.92388), (0.382683, 1.10135e-07, 0.92388), (-0.382683, 1.10135e-07, 0.92388), (-0.382683, 1.10135e-07, 0.92388), (0.382683, 1.10135e-07, 0.92388), (0.923879, 4.56194e-08, 0.382684), (0.923879, 4.56194e-08, 0.382684), (0.923879, 4.56194e-08, 0.382684), (0.382683, 1.10135e-07, 0.92388), (0.382683, 1.10135e-07, 0.92388), (0, -1, 1.19209e-07), (0, -1, 1.19209e-07), (0, -1, 1.19209e-07), (0, -1, 1.19209e-07), (0, -1, 1.19209e-07), (0, -1, 1.19209e-07), (0, -1, 1.19209e-07), (0, -1, 1.19209e-07), (0, -1, 1.19209e-07), (0, -1, 1.19209e-07), (0, -1, 1.19209e-07), (0, -1, 1.19209e-07), (0, -1, 1.19209e-07), (0, -1, 1.19209e-07), (0, -1, 1.19209e-07), (0, -1, 1.19209e-07), (0, -1, 1.19209e-07), (0, -1, 1.19209e-07), (0, 1, -1.19209e-07), (0, 1, -1.19209e-07), (0, 1, -1.19209e-07), (0, 1, -1.19209e-07), (0, 1, -1.19209e-07), (0, 1, -1.19209e-07), (0, 1, -1.19209e-07), (0, 1, -1.19209e-07), (0, 1, -1.19209e-07), (0, 1, -1.19209e-07), (0, 1, -1.19209e-07), (0, 1, -1.19209e-07), (0, 1, -1.19209e-07), (0, 1, -1.19209e-07), (0, 1, -1.19209e-07), (0, 1, -1.19209e-07), (0, 1, -1.19209e-07), (0, 1, -1.19209e-07), (-0.923879, 4.56194e-08, 0.382684), (-0.923879, -4.56194e-08, -0.382684), (-0.923879, 4.56194e-08, 0.382684), (-0.923879, -4.56194e-08, -0.382684), (-0.923879, 4.56194e-08, 0.382684), (-0.923879, -4.56194e-08, -0.382684), (-0.923879, 4.56194e-08, 0.382684), (-0.382683, 1.10135e-07, 0.92388), (-0.382683, 1.10135e-07, 0.92388), (-0.382683, 1.10135e-07, 0.92388), (-0.923879, 4.56194e-08, 0.382684), (-0.923879, 4.56194e-08, 0.382684), (-0.382683, -1.10135e-07, -0.92388), (0.382683, -1.10135e-07, -0.92388), (0.382683, -1.10135e-07, -0.92388), (0.382683, -1.10135e-07, -0.92388), (-0.382683, -1.10135e-07, -0.92388), (-0.382683, -1.10135e-07, -0.92388), (-0.923879, -4.56194e-08, -0.382684), (-0.382683, -1.10135e-07, -0.92388), (-0.382683, -1.10135e-07, -0.92388), (-0.382683, -1.10135e-07, -0.92388), (-0.923879, -4.56194e-08, -0.382684), (-0.923879, -4.56194e-08, -0.382684), (0.923879, -4.56194e-08, -0.382684), (0.923879, 4.56194e-08, 0.382684), (0.923879, -4.56194e-08, -0.382684), (0.923879, 4.56194e-08, 0.382684), (0.923879, -4.56194e-08, -0.382684), (0.923879, 4.56194e-08, 0.382684), (0.382683, -1.10135e-07, -0.92388), (0.923879, -4.56194e-08, -0.382684), (0.923879, -4.56194e-08, -0.382684), (0.923879, -4.56194e-08, -0.382684), (0.382683, -1.10135e-07, -0.92388), (0.382683, -1.10135e-07, -0.92388), (-0.382683, 1.10135e-07, 0.92388), (0.382683, 1.10135e-07, 0.92388), (0.382683, 1.10135e-07, 0.92388), (0.382683, 1.10135e-07, 0.92388), (-0.382683, 1.10135e-07, 0.92388), (-0.382683, 1.10135e-07, 0.92388), (0.382683, 1.10135e-07, 0.92388), (0.923879, 4.56194e-08, 0.382684), (0.923879, 4.56194e-08, 0.382684), (0.923879, 4.56194e-08, 0.382684), (0.382683, 1.10135e-07, 0.92388), (0.382683, 1.10135e-07, 0.92388), (0, -1, 1.19209e-07), (0, -1, 1.19209e-07), (0, -1, 1.19209e-07), (0, -1, 1.19209e-07), (0, -1, 1.19209e-07), (0, -1, 1.19209e-07), (0, -1, 1.19209e-07), (0, -1, 1.19209e-07), (0, -1, 1.19209e-07), (0, -1, 1.19209e-07), (0, -1, 1.19209e-07), (0, -1, 1.19209e-07), (0, -1, 1.19209e-07), (0, -1, 1.19209e-07), (0, -1, 1.19209e-07), (0, -1, 1.19209e-07), (0, -1, 1.19209e-07), (0, -1, 1.19209e-07), (0, 1, -1.19209e-07), (0, 1, -1.19209e-07), (0, 1, -1.19209e-07), (0, 1, -1.19209e-07), (0, 1, -1.19209e-07), (0, 1, -1.19209e-07), (0, 1, -1.19209e-07), (0, 1, -1.19209e-07), (0, 1, -1.19209e-07), (0, 1, -1.19209e-07), (0, 1, -1.19209e-07), (0, 1, -1.19209e-07), (0, 1, -1.19209e-07), (0, 1, -1.19209e-07), (0, 1, -1.19209e-07), (0, 1, -1.19209e-07), (0, 1, -1.19209e-07), (0, 1, -1.19209e-07), (0, -1, 0), (0, -1, 0), (0, -1, 0), (0, -1, 0), (0, -1, 0), (0, -1, 0), (0, 1, 0), (0, 1, 0), (0, 1, 0), (0, 1, 0), (0, 1, 0), (0, 1, 0), (-1, 0, 0), (-1, 0, 0), (-1, 0, 0), (-1, 0, 0), (-1, 0, 0), (-1, 0, 0), (0, 0, -1), (0, 0, -1), (0, 0, -1), (0, 0, -1), (0, 0, -1), (0, 0, -1), (1, 0, 0), (1, 0, 0), (1, 0, 0), (1, 0, 0), (1, 0, 0), (1, 0, 0), (0, 0, 1), (0, 0, 1), (0, 0, 1), (0, 0, 1), (0, 0, 1), (0, 0, 1), (-0.923879, -0.382683, 0), (-0.923879, 0.382683, 0), (-0.923879, -0.382683, 0), (-0.923879, 0.382683, 0), (-0.923879, -0.382683, 0), (-0.923879, 0.382683, 0), (-0.923879, -0.382683, 0), (-0.382683, -0.923879, 0), (-0.382683, -0.923879, 0), (-0.382683, -0.923879, 0), (-0.923879, -0.382683, 0), (-0.923879, -0.382683, 0), (-0.382683, 0.923879, 0), (0.382683, 0.923879, 0), (0.382683, 0.923879, 0), (0.382683, 0.923879, 0), (-0.382683, 0.923879, 0), (-0.382683, 0.923879, 0), (-0.923879, 0.382683, 0), (-0.382683, 0.923879, 0), (-0.382683, 0.923879, 0), (-0.382683, 0.923879, 0), (-0.923879, 0.382683, 0), (-0.923879, 0.382683, 0), (0.923879, 0.382683, 0), (0.923879, -0.382683, 0), (0.923879, 0.382683, 0), (0.923879, -0.382683, 0), (0.923879, 0.382683, 0), (0.923879, -0.382683, 0), (0.382683, 0.923879, 0), (0.923879, 0.382683, 0), (0.923879, 0.382683, 0), (0.923879, 0.382683, 0), (0.382683, 0.923879, 0), (0.382683, 0.923879, 0), (-0.382683, -0.923879, 0), (0.382683, -0.923879, 0), (0.382683, -0.923879, 0), (0.382683, -0.923879, 0), (-0.382683, -0.923879, 0), (-0.382683, -0.923879, 0), (0.382683, -0.923879, 0), (0.923879, -0.382683, 0), (0.923879, -0.382683, 0), (0.923879, -0.382683, 0), (0.382683, -0.923879, 0), (0.382683, -0.923879, 0), (0, 0, -1), (0, 0, -1), (0, 0, -1), (0, 0, -1), (0, 0, -1), (0, 0, -1), (0, 0, -1), (0, 0, -1), (0, 0, -1), (0, 0, -1), (0, 0, -1), (0, 0, -1), (0, 0, -1), (0, 0, -1), (0, 0, -1), (0, 0, -1), (0, 0, -1), (0, 0, -1), (0, 0, 1), (0, 0, 1), (0, 0, 1), (0, 0, 1), (0, 0, 1), (0, 0, 1), (0, 0, 1), (0, 0, 1), (0, 0, 1), (0, 0, 1), (0, 0, 1), (0, 0, 1), (0, 0, 1), (0, 0, 1), (0, 0, 1), (0, 0, 1), (0, 0, 1), (0, 0, 1), (0, -1, 0), (0, -1, 0), (0, -1, 0), (0, -1, 0), (0, -1, 0), (0, -1, 0), (0, 0, -1), (0, 0, -1), (0, 0, -1), (0, 0, -1), (0, 0, -1), (0, 0, -1), (1, 0, 0), (0.728209, 0.340546, 0.594761), (0.521286, 0.48977, 0.698846), (0.728209, 0.340546, 0.594761), (-0.521286, 0.48977, 0.698846), (0.521286, 0.48977, 0.698846), (1, 0, 0), (0.728209, 0.226923, 0.646698), (0.728209, 0.340546, 0.594761), (0.728209, 0.226923, 0.646698), (1, 0, 0), (0.154847, 0.240783, 0.958147), (-0.521286, 0.48977, 0.698846), (0.728209, 0.340546, 0.594761), (-0.728209, 0.340546, 0.594761), (0.728209, 0.226923, 0.646698), (-0.728209, 0.340546, 0.594761), (0.728209, 0.340546, 0.594761), (-0.728209, 0.340546, 0.594761), (-1, 0, 0), (-0.521286, 0.48977, 0.698846), (0.154847, 0.240783, 0.958147), (-0.728209, 0.226923, 0.646698), (0.728209, 0.226923, 0.646698), (-0.728209, 0.340546, 0.594761), (0.728209, 0.226923, 0.646698), (-0.728209, 0.226923, 0.646698), (-0.728209, 0.226923, 0.646698), (-1, 0, 0), (-0.728209, 0.340546, 0.594761), (-0.728209, 0.226923, 0.646698), (0.154847, 0.240783, 0.958147), (-0.154847, 0.240783, 0.958147), (-1, 0, 0), (-0.728209, 0.226923, 0.646698), (-0.154847, 0.240783, 0.958147), (0, -1, 0), (0, -1, 0), (0, -1, 0), (0, -1, 0), (0, -1, 0), (0, -1, 0), (0, 0, 1), (0, 0, 1), (0, 0, 1), (0, 0, 1), (0, 0, 1), (0, 0, 1), (1, 0, 0), (0.687087, 0.362932, -0.629437), (0.364384, 0.53701, -0.760818), (0.687087, 0.362932, -0.629437), (-0.364384, 0.53701, -0.760818), (0.364384, 0.53701, -0.760818), (1, 0, 0), (0.687049, 0.242086, -0.685097), (0.687087, 0.362932, -0.629437), (0.687049, 0.242086, -0.685097), (1, 0, 0), (0.644173, 0.18767, -0.741499), (-0.364384, 0.53701, -0.760818), (0.687087, 0.362932, -0.629437), (-0.687087, 0.362932, -0.629437), (0.687049, 0.242086, -0.685097), (-0.687087, 0.362932, -0.629437), (0.687087, 0.362932, -0.629437), (-0.687087, 0.362932, -0.629437), (-1, 0, 0), (-0.364384, 0.53701, -0.760818), (0.644173, 0.18767, -0.741499), (-0.687049, 0.242086, -0.685097), (0.687049, 0.242086, -0.685097), (-0.687087, 0.362932, -0.629437), (0.687049, 0.242086, -0.685097), (-0.687049, 0.242086, -0.685097), (-0.687049, 0.242086, -0.685097), (-1, 0, 0), (-0.687087, 0.362932, -0.629437), (-0.687049, 0.242086, -0.685097), (0.644173, 0.18767, -0.741499), (-0.644173, 0.18767, -0.741499), (-1, 0, 0), (-0.687049, 0.242086, -0.685097), (-0.644173, 0.18767, -0.741499)] (interpolation = "faceVarying")
        texCoord2f[] primvars:st = [(0.71875, 0.0694445), (0.71875, 0.025), (0.71875, 0.025), (0.71875, 0.025), (0.71875, 0.0694445), (0.71875, 0.0694445), (0.71875, 0.158333), (0.71875, 0.0694445), (0.71875, 0.0694445), (0.71875, 0.0694445), (0.71875, 0.158333), (0.71875, 0.158333), (0.71875, 0.025), (0.71875, 0.025), (0.71875, 0.025), (0.71875, 0.025), (0.71875, 0.025), (0.71875, 0.025), (0.71875, 0.025), (0.71875, 0.025), (0.71875, 0.025), (0.71875, 0.025), (0.71875, 0.025), (0.71875, 0.025), (0.71875, 0.025), (0.71875, 0.025), (0.71875, 0.025), (0.71875, 0.158333), (0.71875, 0.0694445), (0.71875, 0.158333), (0.71875, 0.0694445), (0.71875, 0.158333), (0.71875, 0.0694445), (0.71875, 0.158333), (0.71875, 0.0694445), (0.71875, 0.0694445), (0.71875, 0.0694445), (0.71875, 0.158333), (0.71875, 0.158333), (0.71875, 0.158333), (0.71875, 0.0694445), (0.71875, 0.158333), (0.71875, 0.0694445), (0.71875, 0.158333), (0.71875, 0.0694445), (0.71875, 0.158333), (0.71875, 0.0694445), (0.71875, 0.158333), (0.71875, 0.0694445), (0.71875, 0.158333), (0.71875, 0.0694445), (0.71875, 0.158333), (0.71875, 0.0694445), (0.71875, 0.158333), (0.71875, 0.0694445), (0.71875, 0.158333), (0.71875, 0.0694445), (0.71875, 0.158333), (0.71875, 0.0694445), (0.71875, 0.0694445), (0.71875, 0.0694445), (0.71875, 0.158333), (0.71875, 0.158333), (0.71875, 0.025), (0.71875, 0.0694445), (0.71875, 0.0694445), (0.71875, 0.0694445), (0.71875, 0.025), (0.71875, 0.025), (0.71875, 0.025), (0.71875, 0.0694445), (0.71875, 0.0694445), (0.71875, 0.0694445), (0.71875, 0.025), (0.71875, 0.025), (0.71875, 0.025), (0.71875, 0.0694445), (0.71875, 0.025), (0.71875, 0.0694445), (0.71875, 0.025), (0.71875, 0.0694445), (0.71875, 0.025), (0.71875, 0.0694445), (0.71875, 0.025), (0.71875, 0.0694445), (0.71875, 0.025), (0.71875, 0.0694445), (0.71875, 0.025), (0.71875, 0.0694445), (0.71875, 0.025), (0.71875, 0.0694445), (0.71875, 0.025), (0.71875, 0.0694445), (0.71875, 0.025), (0.71875, 0.0694445), (0.71875, 0.0694445), (0.71875, 0.0694445), (0.71875, 0.025), (0.71875, 0.025), (0.71875, 0.225), (0.71875, 0.225), (0.71875, 0.225), (0.71875, 0.225), (0.71875, 0.225), (0.71875, 0.225), (0.71875, 0.225), (0.71875, 0.225), (0.71875, 0.225), (0.71875, 0.225), (0.71875, 0.225), (0.71875, 0.225), (0.71875, 0.225), (0.71875, 0.225), (0.71875, 0.225), (0.71875, 0.225), (0.71875, 0.225), (0.71875, 0.225), (0.71875, 0.225), (0.71875, 0.225), (0.71875, 0.225), (0.71875, 0.225), (0.71875, 0.225), (0.71875, 0.225), (0.71875, 0.225), (0.71875, 0.225), (0.71875, 0.225), (0.71875, 0.225), (0.71875, 0.225), (0.71875, 0.225), (0.71875, 0.225), (0.71875, 0.225), (0.71875, 0.225), (0.71875, 0.225), (0.71875, 0.225), (0.71875, 0.225), (0.71875, 0.225), (0.71875, 0.225), (0.71875, 0.225), (0.71875, 0.225), (0.71875, 0.225), (0.71875, 0.225), (0.71875, 0.025), (0.71875, 0.225), (0.71875, 0.025), (0.71875, 0.225), (0.71875, 0.025), (0.71875, 0.225), (0.71875, 0.225), (0.71875, 0.025), (0.71875, 0.125), (0.71875, 0.225), (0.71875, 0.025), (0.71875, 0.225), (0.71875, 0.025), (0.71875, 0.225), (0.71875, 0.025), (0.71875, 0.025), (0.71875, 0.225), (0.71875, 0.125), (0.71875, 0.125), (0.71875, 0.025), (0.71875, 0.025), (0.71875, 0.025), (0.71875, 0.125), (0.71875, 0.125), (0.71875, 0.225), (0.71875, 0.125), (0.71875, 0.125), (0.71875, 0.125), (0.71875, 0.225), (0.71875, 0.225), (0.71875, 0.225), (0.71875, 0.225), (0.71875, 0.225), (0.71875, 0.225), (0.71875, 0.225), (0.71875, 0.225), (0.71875, 0.175), (0.71875, 0.175), (0.71875, 0.175), (0.71875, 0.175), (0.71875, 0.175), (0.71875, 0.175), (0.71875, 0.175), (0.71875, 0.175), (0.71875, 0.175), (0.71875, 0.175), (0.71875, 0.175), (0.71875, 0.175), (0.71875, 0.175), (0.71875, 0.175), (0.71875, 0.175), (0.71875, 0.175), (0.71875, 0.175), (0.71875, 0.175), (0.71875, 0.175), (0.71875, 0.025), (0.71875, 0.025), (0.71875, 0.025), (0.71875, 0.175), (0.71875, 0.175), (0.71875, 0.025), (0.71875, 0.175), (0.71875, 0.025), (0.71875, 0.175), (0.71875, 0.025), (0.71875, 0.175), (0.71875, 0.025), (0.71875, 0.175), (0.71875, 0.025), (0.71875, 0.175), (0.71875, 0.025), (0.71875, 0.175), (0.71875, 0.025), (0.71875, 0.175), (0.71875, 0.175), (0.71875, 0.175), (0.71875, 0.025), (0.71875, 0.025), (0.71875, 0.025), (0.71875, 0.175), (0.71875, 0.025), (0.71875, 0.175), (0.71875, 0.025), (0.71875, 0.175), (0.71875, 0.025), (0.71875, 0.175), (0.71875, 0.025), (0.71875, 0.175), (0.71875, 0.025), (0.71875, 0.175), (0.71875, 0.025), (0.71875, 0.025), (0.71875, 0.025), (0.71875, 0.025), (0.71875, 0.025), (0.71875, 0.025), (0.71875, 0.025), (0.71875, 0.025), (0.71875, 0.025), (0.71875, 0.025), (0.71875, 0.025), (0.71875, 0.025), (0.71875, 0.475), (0.71875, 0.408333), (0.71875, 0.408333), (0.71875, 0.408333), (0.71875, 0.475), (0.71875, 0.475), (0.71875, 0.475), (0.71875, 0.408333), (0.71875, 0.408333), (0.71875, 0.408333), (0.71875, 0.475), (0.71875, 0.475), (0.71875, 0.475), (0.71875, 0.408333), (0.71875, 0.475), (0.71875, 0.408333), (0.71875, 0.475), (0.71875, 0.408333), (0.71875, 0.475), (0.71875, 0.408333), (0.71875, 0.408333), (0.71875, 0.408333), (0.71875, 0.475), (0.71875, 0.475), (0.71875, 0.408333), (0.71875, 0.475), (0.71875, 0.408333), (0.71875, 0.475), (0.71875, 0.408333), (0.71875, 0.475), (0.71875, 0.475), (0.71875, 0.430556), (0.71875, 0.475), (0.71875, 0.430556), (0.71875, 0.475), (0.71875, 0.430556), (0.71875, 0.430556), (0.71875, 0.475), (0.71875, 0.430556), (0.71875, 0.475), (0.71875, 0.430556), (0.71875, 0.475), (0.71875, 0.475), (0.71875, 0.430556), (0.71875, 0.430556), (0.71875, 0.430556), (0.71875, 0.475), (0.71875, 0.475), (0.71875, 0.475), (0.71875, 0.430556), (0.71875, 0.430556), (0.71875, 0.430556), (0.71875, 0.475), (0.71875, 0.475), (0.71875, 0.475), (0.71875, 0.430556), (0.71875, 0.430556), (0.71875, 0.430556), (0.71875, 0.475), (0.71875, 0.475), (0.71875, 0.475), (0.71875, 0.408333), (0.71875, 0.475), (0.71875, 0.408333), (0.71875, 0.475), (0.71875, 0.408333), (0.71875, 0.408333), (0.71875, 0.475), (0.71875, 0.408333), (0.71875, 0.475), (0.71875, 0.408333), (0.71875, 0.475), (0.71875, 0.430556), (0.71875, 0.430556), (0.71875, 0.430556), (0.71875, 0.430556), (0.71875, 0.430556), (0.71875, 0.430556), (0.71875, 0.430556), (0.71875, 0.430556), (0.71875, 0.430556), (0.71875, 0.430556), (0.71875, 0.430556), (0.71875, 0.430556), (0.71875, 0.430556), (0.71875, 0.430556), (0.71875, 0.430556), (0.71875, 0.430556), (0.71875, 0.475), (0.71875, 0.430556), (0.71875, 0.475), (0.71875, 0.430556), (0.71875, 0.475), (0.71875, 0.475), (0.71875, 0.430556), (0.71875, 0.475), (0.71875, 0.430556), (0.71875, 0.475), (0.71875, 0.430556), (0.71875, 0.475), (0.71875, 0.425), (0.71875, 0.425), (0.71875, 0.425), (0.71875, 0.475), (0.71875, 0.475), (0.71875, 0.475), (0.71875, 0.425), (0.71875, 0.475), (0.71875, 0.425), (0.71875, 0.475), (0.71875, 0.425), (0.71875, 0.425), (0.71875, 0.475), (0.71875, 0.425), (0.71875, 0.475), (0.71875, 0.425), (0.71875, 0.475), (0.71875, 0.475), (0.71875, 0.425), (0.71875, 0.425), (0.71875, 0.425), (0.71875, 0.475), (0.71875, 0.475), (0.71875, 0.475), (0.71875, 0.425), (0.71875, 0.475), (0.71875, 0.425), (0.71875, 0.475), (0.71875, 0.425), (0.71875, 0.425), (0.71875, 0.475), (0.71875, 0.425), (0.71875, 0.475), (0.71875, 0.425), (0.71875, 0.475), (0.71875, 0.425), (0.71875, 0.475), (0.71875, 0.425), (0.71875, 0.475), (0.71875, 0.425), (0.71875, 0.475), (0.71875, 0.475), (0.71875, 0.475), (0.71875, 0.475), (0.71875, 0.475), (0.71875, 0.475), (0.71875, 0.475), (0.71875, 0.475), (0.71875, 0.475), (0.71875, 0.475), (0.71875, 0.475), (0.71875, 0.475), (0.71875, 0.475), (0.71875, 0.475), (0.71875, 0.475), (0.71875, 0.475), (0.71875, 0.475), (0.71875, 0.475), (0.71875, 0.475), (0.71875, 0.475), (0.71875, 0.425), (0.71875, 0.475), (0.71875, 0.425), (0.71875, 0.475), (0.71875, 0.425), (0.71875, 0.425), (0.71875, 0.425), (0.71875, 0.425), (0.71875, 0.425), (0.71875, 0.425), (0.71875, 0.425), (0.71875, 0.425), (0.71875, 0.425), (0.71875, 0.425), (0.71875, 0.425), (0.71875, 0.425), (0.71875, 0.425), (0.71875, 0.425), (0.71875, 0.425), (0.71875, 0.425), (0.71875, 0.425), (0.71875, 0.425), (0.71875, 0.425), (0.71875, 0.425), (0.71875, 0.425), (0.71875, 0.425), (0.71875, 0.425), (0.71875, 0.425), (0.71875, 0.425), (0.71875, 0.425), (0.71875, 0.425), (0.71875, 0.425), (0.71875, 0.425), (0.71875, 0.425), (0.71875, 0.425), (0.71875, 0.425), (0.71875, 0.425), (0.71875, 0.425), (0.71875, 0.425), (0.71875, 0.425), (0.71875, 0.425), (0.71875, 0.425), (0.71875, 0.425), (0.71875, 0.425), (0.71875, 0.425), (0.71875, 0.425), (0.71875, 0.425), (0.71875, 0.425), (0.71875, 0.425), (0.71875, 0.425), (0.71875, 0.425), (0.71875, 0.425), (0.71875, 0.425), (0.71875, 0.375), (0.71875, 0.275), (0.71875, 0.275), (0.71875, 0.275), (0.71875, 0.375), (0.71875, 0.375), (0.71875, 0.475), (0.71875, 0.375), (0.71875, 0.375), (0.71875, 0.375), (0.71875, 0.475), (0.71875, 0.475), (0.71875, 0.375), (0.71875, 0.275), (0.71875, 0.275), (0.71875, 0.275), (0.71875, 0.375), (0.71875, 0.375), (0.71875, 0.475), (0.71875, 0.475), (0.71875, 0.475), (0.71875, 0.475), (0.71875, 0.475), (0.71875, 0.475), (0.71875, 0.375), (0.71875, 0.475), (0.71875, 0.475), (0.71875, 0.475), (0.71875, 0.375), (0.71875, 0.375), (0.71875, 0.275), (0.71875, 0.375), (0.71875, 0.275), (0.71875, 0.375), (0.71875, 0.275), (0.71875, 0.475), (0.71875, 0.475), (0.71875, 0.275), (0.71875, 0.475), (0.71875, 0.475), (0.71875, 0.275), (0.71875, 0.375), (0.71875, 0.475), (0.71875, 0.275), (0.71875, 0.375), (0.71875, 0.275), (0.71875, 0.475), (0.71875, 0.275), (0.71875, 0.275), (0.71875, 0.475), (0.71875, 0.475), (0.71875, 0.275), (0.71875, 0.475), (0.71875, 0.375), (0.71875, 0.025), (0.71875, 0.225), (0.71875, 0.025), (0.71875, 0.225), (0.71875, 0.025), (0.71875, 0.225), (0.71875, 0.225), (0.71875, 0.225), (0.71875, 0.225), (0.71875, 0.225), (0.71875, 0.225), (0.71875, 0.225), (0.71875, 0.225), (0.71875, 0.025), (0.71875, 0.025), (0.71875, 0.025), (0.71875, 0.225), (0.71875, 0.225), (0.71875, 0.225), (0.71875, 0.025), (0.71875, 0.225), (0.71875, 0.025), (0.71875, 0.225), (0.71875, 0.025), (0.71875, 0.025), (0.71875, 0.225), (0.71875, 0.025), (0.71875, 0.225), (0.71875, 0.025), (0.71875, 0.225), (0.71875, 0.025), (0.71875, 0.225), (0.71875, 0.025), (0.71875, 0.225), (0.71875, 0.025), (0.71875, 0.225), (0.71875, 0.225), (0.71875, 0.225), (0.71875, 0.225), (0.71875, 0.225), (0.71875, 0.225), (0.71875, 0.225), (0.71875, 0.225), (0.71875, 0.025), (0.71875, 0.025), (0.71875, 0.025), (0.71875, 0.225), (0.71875, 0.225), (0.71875, 0.225), (0.71875, 0.025), (0.71875, 0.225), (0.71875, 0.025), (0.71875, 0.225), (0.71875, 0.025), (0.71875, 0.025), (0.71875, 0.225), (0.71875, 0.025), (0.71875, 0.225), (0.71875, 0.025), (0.71875, 0.225), (0.71875, 0.025), (0.71875, 0.225), (0.71875, 0.025), (0.71875, 0.225), (0.71875, 0.025), (0.71875, 0.225), (0.71875, 0.225), (0.71875, 0.225), (0.71875, 0.225), (0.71875, 0.225), (0.71875, 0.225), (0.71875, 0.225), (0.71875, 0.225), (0.71875, 0.025), (0.71875, 0.025), (0.71875, 0.025), (0.71875, 0.225), (0.71875, 0.225), (0.71875, 0.225), (0.71875, 0.025), (0.71875, 0.225), (0.71875, 0.025), (0.71875, 0.225), (0.71875, 0.025), (0.71875, 0.025), (0.71875, 0.225), (0.71875, 0.025), (0.71875, 0.225), (0.71875, 0.025), (0.71875, 0.225), (0.71875, 0.025), (0.71875, 0.225), (0.71875, 0.025), (0.71875, 0.225), (0.71875, 0.025), (0.71875, 0.225), (0.71875, 0.225), (0.71875, 0.225), (0.71875, 0.225), (0.71875, 0.225), (0.71875, 0.225), (0.71875, 0.225), (0.71875, 0.225), (0.71875, 0.025), (0.71875, 0.025), (0.71875, 0.025), (0.71875, 0.225), (0.71875, 0.225), (0.71875, 0.225), (0.71875, 0.025), (0.71875, 0.225), (0.71875, 0.025), (0.71875, 0.225), (0.71875, 0.025), (0.71875, 0.025), (0.71875, 0.225), (0.71875, 0.025), (0.71875, 0.225), (0.71875, 0.025), (0.71875, 0.225), (0.71875, 0.0694445), (0.71875, 0.025), (0.71875, 0.025), (0.71875, 0.025), (0.71875, 0.0694445), (0.71875, 0.0694445), (0.71875, 0.158333), (0.71875, 0.0694445), (0.71875, 0.0694445), (0.71875, 0.0694445), (0.71875, 0.158333), (0.71875, 0.158333), (0.71875, 0.025), (0.71875, 0.025), (0.71875, 0.025), (0.71875, 0.025), (0.71875, 0.025), (0.71875, 0.025), (0.71875, 0.025), (0.71875, 0.025), (0.71875, 0.025), (0.71875, 0.025), (0.71875, 0.025), (0.71875, 0.025), (0.71875, 0.025), (0.71875, 0.025), (0.71875, 0.025), (0.71875, 0.158333), (0.71875, 0.0694445), (0.71875, 0.158333), (0.71875, 0.0694445), (0.71875, 0.158333), (0.71875, 0.0694445), (0.71875, 0.158333), (0.71875, 0.0694445), (0.71875, 0.0694445), (0.71875, 0.0694445), (0.71875, 0.158333), (0.71875, 0.158333), (0.71875, 0.158333), (0.71875, 0.0694445), (0.71875, 0.158333), (0.71875, 0.0694445), (0.71875, 0.158333), (0.71875, 0.0694445), (0.71875, 0.158333), (0.71875, 0.0694445), (0.71875, 0.158333), (0.71875, 0.0694445), (0.71875, 0.158333), (0.71875, 0.0694445), (0.71875, 0.158333), (0.71875, 0.0694445), (0.71875, 0.158333), (0.71875, 0.0694445), (0.71875, 0.158333), (0.71875, 0.0694445), (0.71875, 0.158333), (0.71875, 0.0694445), (0.71875, 0.0694445), (0.71875, 0.0694445), (0.71875, 0.158333), (0.71875, 0.158333), (0.71875, 0.025), (0.71875, 0.0694445), (0.71875, 0.0694445), (0.71875, 0.0694445), (0.71875, 0.025), (0.71875, 0.025), (0.71875, 0.025), (0.71875, 0.0694445), (0.71875, 0.0694445), (0.71875, 0.0694445), (0.71875, 0.025), (0.71875, 0.025), (0.71875, 0.025), (0.71875, 0.0694445), (0.71875, 0.025), (0.71875, 0.0694445), (0.71875, 0.025), (0.71875, 0.0694445), (0.71875, 0.025), (0.71875, 0.0694445), (0.71875, 0.025), (0.71875, 0.0694445), (0.71875, 0.025), (0.71875, 0.0694445), (0.71875, 0.025), (0.71875, 0.0694445), (0.71875, 0.025), (0.71875, 0.0694445), (0.71875, 0.025), (0.71875, 0.0694445), (0.71875, 0.025), (0.71875, 0.0694445), (0.71875, 0.0694445), (0.71875, 0.0694445), (0.71875, 0.025), (0.71875, 0.025), (0.71875, 0.225), (0.71875, 0.225), (0.71875, 0.225), (0.71875, 0.225), (0.71875, 0.225), (0.71875, 0.225), (0.71875, 0.225), (0.71875, 0.225), (0.71875, 0.225), (0.71875, 0.225), (0.71875, 0.225), (0.71875, 0.225), (0.71875, 0.225), (0.71875, 0.225), (0.71875, 0.225), (0.71875, 0.225), (0.71875, 0.225), (0.71875, 0.225), (0.71875, 0.225), (0.71875, 0.225), (0.71875, 0.225), (0.71875, 0.225), (0.71875, 0.225), (0.71875, 0.225), (0.71875, 0.225), (0.71875, 0.225), (0.71875, 0.225), (0.71875, 0.225), (0.71875, 0.225), (0.71875, 0.225), (0.71875, 0.225), (0.71875, 0.225), (0.71875, 0.225), (0.71875, 0.225), (0.71875, 0.225), (0.71875, 0.225), (0.71875, 0.225), (0.71875, 0.225), (0.71875, 0.225), (0.71875, 0.225), (0.71875, 0.225), (0.71875, 0.225), (0.71875, 0.025), (0.71875, 0.225), (0.71875, 0.025), (0.71875, 0.225), (0.71875, 0.025), (0.71875, 0.225), (0.71875, 0.225), (0.71875, 0.025), (0.71875, 0.125), (0.71875, 0.225), (0.71875, 0.025), (0.71875, 0.225), (0.71875, 0.025), (0.71875, 0.225), (0.71875, 0.025), (0.71875, 0.025), (0.71875, 0.225), (0.71875, 0.125), (0.71875, 0.125), (0.71875, 0.025), (0.71875, 0.025), (0.71875, 0.025), (0.71875, 0.125), (0.71875, 0.125), (0.71875, 0.225), (0.71875, 0.125), (0.71875, 0.125), (0.71875, 0.125), (0.71875, 0.225), (0.71875, 0.225), (0.71875, 0.225), (0.71875, 0.225), (0.71875, 0.225), (0.71875, 0.225), (0.71875, 0.225), (0.71875, 0.225), (0.71875, 0.175), (0.71875, 0.175), (0.71875, 0.175), (0.71875, 0.175), (0.71875, 0.175), (0.71875, 0.175), (0.71875, 0.175), (0.71875, 0.175), (0.71875, 0.175), (0.71875, 0.175), (0.71875, 0.175), (0.71875, 0.175), (0.71875, 0.175), (0.71875, 0.175), (0.71875, 0.175), (0.71875, 0.175), (0.71875, 0.175), (0.71875, 0.175), (0.71875, 0.175), (0.71875, 0.025), (0.71875, 0.025), (0.71875, 0.025), (0.71875, 0.175), (0.71875, 0.175), (0.71875, 0.025), (0.71875, 0.175), (0.71875, 0.025), (0.71875, 0.175), (0.71875, 0.025), (0.71875, 0.175), (0.71875, 0.025), (0.71875, 0.175), (0.71875, 0.025), (0.71875, 0.175), (0.71875, 0.025), (0.71875, 0.175), (0.71875, 0.025), (0.71875, 0.175), (0.71875, 0.175), (0.71875, 0.175), (0.71875, 0.025), (0.71875, 0.025), (0.71875, 0.025), (0.71875, 0.175), (0.71875, 0.025), (0.71875, 0.175), (0.71875, 0.025), (0.71875, 0.175), (0.71875, 0.025), (0.71875, 0.175), (0.71875, 0.025), (0.71875, 0.175), (0.71875, 0.025), (0.71875, 0.175), (0.71875, 0.025), (0.71875, 0.025), (0.71875, 0.025), (0.71875, 0.025), (0.71875, 0.025), (0.71875, 0.025), (0.71875, 0.025), (0.71875, 0.025), (0.71875, 0.025), (0.71875, 0.025), (0.71875, 0.025), (0.71875, 0.025), (0.71875, 0.475), (0.71875, 0.408333), (0.71875, 0.408333), (0.71875, 0.408333), (0.71875, 0.475), (0.71875, 0.475), (0.71875, 0.475), (0.71875, 0.408333), (0.71875, 0.408333), (0.71875, 0.408333), (0.71875, 0.475), (0.71875, 0.475), (0.71875, 0.475), (0.71875, 0.408333), (0.71875, 0.475), (0.71875, 0.408333), (0.71875, 0.475), (0.71875, 0.408333), (0.71875, 0.475), (0.71875, 0.408333), (0.71875, 0.408333), (0.71875, 0.408333), (0.71875, 0.475), (0.71875, 0.475), (0.71875, 0.408333), (0.71875, 0.475), (0.71875, 0.408333), (0.71875, 0.475), (0.71875, 0.408333), (0.71875, 0.475), (0.71875, 0.475), (0.71875, 0.430556), (0.71875, 0.475), (0.71875, 0.430556), (0.71875, 0.475), (0.71875, 0.430556), (0.71875, 0.430556), (0.71875, 0.475), (0.71875, 0.430556), (0.71875, 0.475), (0.71875, 0.430556), (0.71875, 0.475), (0.71875, 0.475), (0.71875, 0.430556), (0.71875, 0.430556), (0.71875, 0.430556), (0.71875, 0.475), (0.71875, 0.475), (0.71875, 0.475), (0.71875, 0.430556), (0.71875, 0.430556), (0.71875, 0.430556), (0.71875, 0.475), (0.71875, 0.475), (0.71875, 0.475), (0.71875, 0.430556), (0.71875, 0.430556), (0.71875, 0.430556), (0.71875, 0.475), (0.71875, 0.475), (0.71875, 0.475), (0.71875, 0.408333), (0.71875, 0.475), (0.71875, 0.408333), (0.71875, 0.475), (0.71875, 0.408333), (0.71875, 0.408333), (0.71875, 0.475), (0.71875, 0.408333), (0.71875, 0.475), (0.71875, 0.408333), (0.71875, 0.475), (0.71875, 0.430556), (0.71875, 0.430556), (0.71875, 0.430556), (0.71875, 0.430556), (0.71875, 0.430556), (0.71875, 0.430556), (0.71875, 0.430556), (0.71875, 0.430556), (0.71875, 0.430556), (0.71875, 0.430556), (0.71875, 0.430556), (0.71875, 0.430556), (0.71875, 0.430556), (0.71875, 0.430556), (0.71875, 0.430556), (0.71875, 0.430556), (0.71875, 0.475), (0.71875, 0.430556), (0.71875, 0.475), (0.71875, 0.430556), (0.71875, 0.475), (0.71875, 0.475), (0.71875, 0.430556), (0.71875, 0.475), (0.71875, 0.430556), (0.71875, 0.475), (0.71875, 0.430556), (0.71875, 0.475), (0.71875, 0.425), (0.71875, 0.425), (0.71875, 0.425), (0.71875, 0.475), (0.71875, 0.475), (0.71875, 0.475), (0.71875, 0.425), (0.71875, 0.475), (0.71875, 0.425), (0.71875, 0.475), (0.71875, 0.425), (0.71875, 0.425), (0.71875, 0.475), (0.71875, 0.425), (0.71875, 0.475), (0.71875, 0.425), (0.71875, 0.475), (0.71875, 0.475), (0.71875, 0.425), (0.71875, 0.425), (0.71875, 0.425), (0.71875, 0.475), (0.71875, 0.475), (0.71875, 0.475), (0.71875, 0.425), (0.71875, 0.475), (0.71875, 0.425), (0.71875, 0.475), (0.71875, 0.425), (0.71875, 0.425), (0.71875, 0.475), (0.71875, 0.425), (0.71875, 0.475), (0.71875, 0.425), (0.71875, 0.475), (0.71875, 0.425), (0.71875, 0.475), (0.71875, 0.425), (0.71875, 0.475), (0.71875, 0.425), (0.71875, 0.475), (0.71875, 0.475), (0.71875, 0.475), (0.71875, 0.475), (0.71875, 0.475), (0.71875, 0.475), (0.71875, 0.475), (0.71875, 0.475), (0.71875, 0.475), (0.71875, 0.475), (0.71875, 0.475), (0.71875, 0.475), (0.71875, 0.475), (0.71875, 0.475), (0.71875, 0.475), (0.71875, 0.475), (0.71875, 0.475), (0.71875, 0.475), (0.71875, 0.475), (0.71875, 0.475), (0.71875, 0.425), (0.71875, 0.475), (0.71875, 0.425), (0.71875, 0.475), (0.71875, 0.425), (0.71875, 0.425), (0.71875, 0.425), (0.71875, 0.425), (0.71875, 0.425), (0.71875, 0.425), (0.71875, 0.425), (0.71875, 0.425), (0.71875, 0.425), (0.71875, 0.425), (0.71875, 0.425), (0.71875, 0.425), (0.71875, 0.425), (0.71875, 0.425), (0.71875, 0.425), (0.71875, 0.425), (0.71875, 0.425), (0.71875, 0.425), (0.71875, 0.425), (0.71875, 0.425), (0.71875, 0.425), (0.71875, 0.425), (0.71875, 0.425), (0.71875, 0.425), (0.71875, 0.425), (0.71875, 0.425), (0.71875, 0.425), (0.71875, 0.425), (0.71875, 0.425), (0.71875, 0.425), (0.71875, 0.425), (0.71875, 0.425), (0.71875, 0.425), (0.71875, 0.425), (0.71875, 0.425), (0.71875, 0.425), (0.71875, 0.425), (0.71875, 0.425), (0.71875, 0.425), (0.71875, 0.425), (0.71875, 0.425), (0.71875, 0.425), (0.71875, 0.425), (0.71875, 0.425), (0.71875, 0.425), (0.71875, 0.425), (0.71875, 0.425), (0.71875, 0.425), (0.71875, 0.425), (0.71875, 0.375), (0.71875, 0.275), (0.71875, 0.275), (0.71875, 0.275), (0.71875, 0.375), (0.71875, 0.375), (0.71875, 0.475), (0.71875, 0.375), (0.71875, 0.375), (0.71875, 0.375), (0.71875, 0.475), (0.71875, 0.475), (0.71875, 0.375), (0.71875, 0.275), (0.71875, 0.275), (0.71875, 0.275), (0.71875, 0.375), (0.71875, 0.375), (0.71875, 0.475), (0.71875, 0.475), (0.71875, 0.475), (0.71875, 0.475), (0.71875, 0.475), (0.71875, 0.475), (0.71875, 0.375), (0.71875, 0.475), (0.71875, 0.475), (0.71875, 0.475), (0.71875, 0.375), (0.71875, 0.375), (0.71875, 0.275), (0.71875, 0.375), (0.71875, 0.275), (0.71875, 0.375), (0.71875, 0.275), (0.71875, 0.475), (0.71875, 0.475), (0.71875, 0.275), (0.71875, 0.475), (0.71875, 0.475), (0.71875, 0.275), (0.71875, 0.375), (0.71875, 0.475), (0.71875, 0.275), (0.71875, 0.375), (0.71875, 0.275), (0.71875, 0.475), (0.71875, 0.275), (0.71875, 0.275), (0.71875, 0.475), (0.71875, 0.475), (0.71875, 0.275), (0.71875, 0.475), (0.71875, 0.375), (0.71875, 0.025), (0.71875, 0.225), (0.71875, 0.025), (0.71875, 0.225), (0.71875, 0.025), (0.71875, 0.225), (0.71875, 0.225), (0.71875, 0.225), (0.71875, 0.225), (0.71875, 0.225), (0.71875, 0.225), (0.71875, 0.225), (0.71875, 0.225), (0.71875, 0.025), (0.71875, 0.025), (0.71875, 0.025), (0.71875, 0.225), (0.71875, 0.225), (0.71875, 0.225), (0.71875, 0.025), (0.71875, 0.225), (0.71875, 0.025), (0.71875, 0.225), (0.71875, 0.025), (0.71875, 0.025), (0.71875, 0.225), (0.71875, 0.025), (0.71875, 0.225), (0.71875, 0.025), (0.71875, 0.225), (0.71875, 0.025), (0.71875, 0.225), (0.71875, 0.025), (0.71875, 0.225), (0.71875, 0.025), (0.71875, 0.225), (0.71875, 0.225), (0.71875, 0.225), (0.71875, 0.225), (0.71875, 0.225), (0.71875, 0.225), (0.71875, 0.225), (0.71875, 0.225), (0.71875, 0.025), (0.71875, 0.025), (0.71875, 0.025), (0.71875, 0.225), (0.71875, 0.225), (0.71875, 0.225), (0.71875, 0.025), (0.71875, 0.225), (0.71875, 0.025), (0.71875, 0.225), (0.71875, 0.025), (0.71875, 0.025), (0.71875, 0.225), (0.71875, 0.025), (0.71875, 0.225), (0.71875, 0.025), (0.71875, 0.225), (0.71875, 0.025), (0.71875, 0.225), (0.71875, 0.025), (0.71875, 0.225), (0.71875, 0.025), (0.71875, 0.225), (0.71875, 0.225), (0.71875, 0.225), (0.71875, 0.225), (0.71875, 0.225), (0.71875, 0.225), (0.71875, 0.225), (0.71875, 0.225), (0.71875, 0.025), (0.71875, 0.025), (0.71875, 0.025), (0.71875, 0.225), (0.71875, 0.225), (0.71875, 0.225), (0.71875, 0.025), (0.71875, 0.225), (0.71875, 0.025), (0.71875, 0.225), (0.71875, 0.025), (0.71875, 0.025), (0.71875, 0.225), (0.71875, 0.025), (0.71875, 0.225), (0.71875, 0.025), (0.71875, 0.225), (0.71875, 0.025), (0.71875, 0.225), (0.71875, 0.025), (0.71875, 0.225), (0.71875, 0.025), (0.71875, 0.225), (0.71875, 0.225), (0.71875, 0.225), (0.71875, 0.225), (0.71875, 0.225), (0.71875, 0.225), (0.71875, 0.225), (0.71875, 0.225), (0.71875, 0.025), (0.71875, 0.025), (0.71875, 0.025), (0.71875, 0.225), (0.71875, 0.225), (0.71875, 0.225), (0.71875, 0.025), (0.71875, 0.225), (0.71875, 0.025), (0.71875, 0.225), (0.71875, 0.025), (0.71875, 0.025), (0.71875, 0.225), (0.71875, 0.025), (0.71875, 0.225), (0.71875, 0.025), (0.71875, 0.225), (0.34375, 0.225), (0.34375, 0.025), (0.34375, 0.025), (0.34375, 0.025), (0.34375, 0.225), (0.34375, 0.225), (0.34375, 0.225), (0.34375, 0.025), (0.34375, 0.025), (0.34375, 0.025), (0.34375, 0.225), (0.34375, 0.225), (0.34375, 0.225), (0.34375, 0.025), (0.34375, 0.025), (0.34375, 0.025), (0.34375, 0.225), (0.34375, 0.225), (0.34375, 0.225), (0.34375, 0.025), (0.34375, 0.025), (0.34375, 0.025), (0.34375, 0.225), (0.34375, 0.225), (0.34375, 0.025), (0.34375, 0.225), (0.34375, 0.025), (0.34375, 0.225), (0.34375, 0.025), (0.34375, 0.225), (0.34375, 0.225), (0.34375, 0.025), (0.34375, 0.025), (0.34375, 0.025), (0.34375, 0.225), (0.34375, 0.225), (0.34375, 0.225), (0.34375, 0.225), (0.34375, 0.225), (0.34375, 0.225), (0.34375, 0.225), (0.34375, 0.225), (0.34375, 0.225), (0.34375, 0.225), (0.34375, 0.225), (0.34375, 0.225), (0.34375, 0.225), (0.34375, 0.225), (0.34375, 0.025), (0.34375, 0.025), (0.34375, 0.025), (0.34375, 0.025), (0.34375, 0.025), (0.34375, 0.025), (0.34375, 0.025), (0.34375, 0.025), (0.34375, 0.025), (0.34375, 0.025), (0.34375, 0.025), (0.34375, 0.025), (0.34375, 0.0776071), (0.34375, 0.172393), (0.34375, 0.0776071), (0.34375, 0.172393), (0.34375, 0.0776071), (0.34375, 0.172393), (0.34375, 0.0776071), (0.34375, 0.025), (0.34375, 0.025), (0.34375, 0.025), (0.34375, 0.0776071), (0.34375, 0.0776071), (0.34375, 0.225), (0.34375, 0.225), (0.34375, 0.225), (0.34375, 0.225), (0.34375, 0.225), (0.34375, 0.225), (0.34375, 0.172393), (0.34375, 0.225), (0.34375, 0.225), (0.34375, 0.225), (0.34375, 0.172393), (0.34375, 0.172393), (0.34375, 0.172393), (0.34375, 0.0776071), (0.34375, 0.172393), (0.34375, 0.0776071), (0.34375, 0.172393), (0.34375, 0.0776071), (0.34375, 0.225), (0.34375, 0.172393), (0.34375, 0.172393), (0.34375, 0.172393), (0.34375, 0.225), (0.34375, 0.225), (0.34375, 0.025), (0.34375, 0.025), (0.34375, 0.025), (0.34375, 0.025), (0.34375, 0.025), (0.34375, 0.025), (0.34375, 0.025), (0.34375, 0.0776071), (0.34375, 0.0776071), (0.34375, 0.0776071), (0.34375, 0.025), (0.34375, 0.025), (0.34375, 0.0776071), (0.34375, 0.025), (0.34375, 0.025), (0.34375, 0.025), (0.34375, 0.0776071), (0.34375, 0.0776071), (0.34375, 0.0776071), (0.34375, 0.0776071), (0.34375, 0.172393), (0.34375, 0.0776071), (0.34375, 0.172393), (0.34375, 0.172393), (0.34375, 0.172393), (0.34375, 0.172393), (0.34375, 0.225), (0.34375, 0.172393), (0.34375, 0.225), (0.34375, 0.225), (0.34375, 0.0776071), (0.34375, 0.025), (0.34375, 0.025), (0.34375, 0.025), (0.34375, 0.0776071), (0.34375, 0.0776071), (0.34375, 0.0776071), (0.34375, 0.0776071), (0.34375, 0.172393), (0.34375, 0.0776071), (0.34375, 0.172393), (0.34375, 0.172393), (0.34375, 0.172393), (0.34375, 0.172393), (0.34375, 0.225), (0.34375, 0.172393), (0.34375, 0.225), (0.34375, 0.225), (0.34375, 0.0776071), (0.34375, 0.172393), (0.34375, 0.0776071), (0.34375, 0.172393), (0.34375, 0.0776071), (0.34375, 0.172393), (0.34375, 0.0776071), (0.34375, 0.025), (0.34375, 0.025), (0.34375, 0.025), (0.34375, 0.0776071), (0.34375, 0.0776071), (0.34375, 0.225), (0.34375, 0.225), (0.34375, 0.225), (0.34375, 0.225), (0.34375, 0.225), (0.34375, 0.225), (0.34375, 0.172393), (0.34375, 0.225), (0.34375, 0.225), (0.34375, 0.225), (0.34375, 0.172393), (0.34375, 0.172393), (0.34375, 0.172393), (0.34375, 0.0776071), (0.34375, 0.172393), (0.34375, 0.0776071), (0.34375, 0.172393), (0.34375, 0.0776071), (0.34375, 0.225), (0.34375, 0.172393), (0.34375, 0.172393), (0.34375, 0.172393), (0.34375, 0.225), (0.34375, 0.225), (0.34375, 0.025), (0.34375, 0.025), (0.34375, 0.025), (0.34375, 0.025), (0.34375, 0.025), (0.34375, 0.025), (0.34375, 0.025), (0.34375, 0.0776071), (0.34375, 0.0776071), (0.34375, 0.0776071), (0.34375, 0.025), (0.34375, 0.025), (0.34375, 0.0776071), (0.34375, 0.025), (0.34375, 0.025), (0.34375, 0.025), (0.34375, 0.0776071), (0.34375, 0.0776071), (0.34375, 0.0776071), (0.34375, 0.0776071), (0.34375, 0.172393), (0.34375, 0.0776071), (0.34375, 0.172393), (0.34375, 0.172393), (0.34375, 0.172393), (0.34375, 0.172393), (0.34375, 0.225), (0.34375, 0.172393), (0.34375, 0.225), (0.34375, 0.225), (0.34375, 0.0776071), (0.34375, 0.025), (0.34375, 0.025), (0.34375, 0.025), (0.34375, 0.0776071), (0.34375, 0.0776071), (0.34375, 0.0776071), (0.34375, 0.0776071), (0.34375, 0.172393), (0.34375, 0.0776071), (0.34375, 0.172393), (0.34375, 0.172393), (0.34375, 0.172393), (0.34375, 0.172393), (0.34375, 0.225), (0.34375, 0.172393), (0.34375, 0.225), (0.34375, 0.225), (0.34375, 0.0776071), (0.34375, 0.172393), (0.34375, 0.0776071), (0.34375, 0.172393), (0.34375, 0.0776071), (0.34375, 0.172393), (0.34375, 0.0776071), (0.34375, 0.025), (0.34375, 0.025), (0.34375, 0.025), (0.34375, 0.0776071), (0.34375, 0.0776071), (0.34375, 0.225), (0.34375, 0.225), (0.34375, 0.225), (0.34375, 0.225), (0.34375, 0.225), (0.34375, 0.225), (0.34375, 0.172393), (0.34375, 0.225), (0.34375, 0.225), (0.34375, 0.225), (0.34375, 0.172393), (0.34375, 0.172393), (0.34375, 0.172393), (0.34375, 0.0776071), (0.34375, 0.172393), (0.34375, 0.0776071), (0.34375, 0.172393), (0.34375, 0.0776071), (0.34375, 0.225), (0.34375, 0.172393), (0.34375, 0.172393), (0.34375, 0.172393), (0.34375, 0.225), (0.34375, 0.225), (0.34375, 0.025), (0.34375, 0.025), (0.34375, 0.025), (0.34375, 0.025), (0.34375, 0.025), (0.34375, 0.025), (0.34375, 0.025), (0.34375, 0.0776071), (0.34375, 0.0776071), (0.34375, 0.0776071), (0.34375, 0.025), (0.34375, 0.025), (0.34375, 0.0776071), (0.34375, 0.025), (0.34375, 0.025), (0.34375, 0.025), (0.34375, 0.0776071), (0.34375, 0.0776071), (0.34375, 0.0776071), (0.34375, 0.0776071), (0.34375, 0.172393), (0.34375, 0.0776071), (0.34375, 0.172393), (0.34375, 0.172393), (0.34375, 0.172393), (0.34375, 0.172393), (0.34375, 0.225), (0.34375, 0.172393), (0.34375, 0.225), (0.34375, 0.225), (0.34375, 0.0776071), (0.34375, 0.025), (0.34375, 0.025), (0.34375, 0.025), (0.34375, 0.0776071), (0.34375, 0.0776071), (0.34375, 0.0776071), (0.34375, 0.0776071), (0.34375, 0.172393), (0.34375, 0.0776071), (0.34375, 0.172393), (0.34375, 0.172393), (0.34375, 0.172393), (0.34375, 0.172393), (0.34375, 0.225), (0.34375, 0.172393), (0.34375, 0.225), (0.34375, 0.225), (0.34375, 0.025), (0.34375, 0.025), (0.34375, 0.025), (0.34375, 0.025), (0.34375, 0.025), (0.34375, 0.025), (0.34375, 0.225), (0.34375, 0.225), (0.34375, 0.225), (0.34375, 0.225), (0.34375, 0.225), (0.34375, 0.225), (0.34375, 0.025), (0.34375, 0.225), (0.34375, 0.025), (0.34375, 0.225), (0.34375, 0.025), (0.34375, 0.225), (0.34375, 0.225), (0.34375, 0.025), (0.34375, 0.025), (0.34375, 0.025), (0.34375, 0.225), (0.34375, 0.225), (0.34375, 0.225), (0.34375, 0.025), (0.34375, 0.225), (0.34375, 0.025), (0.34375, 0.225), (0.34375, 0.025), (0.34375, 0.225), (0.34375, 0.025), (0.34375, 0.025), (0.34375, 0.025), (0.34375, 0.225), (0.34375, 0.225), (0.34375, 0.0776071), (0.34375, 0.172393), (0.34375, 0.0776071), (0.34375, 0.172393), (0.34375, 0.0776071), (0.34375, 0.172393), (0.34375, 0.0776071), (0.34375, 0.025), (0.34375, 0.025), (0.34375, 0.025), (0.34375, 0.0776071), (0.34375, 0.0776071), (0.34375, 0.225), (0.34375, 0.225), (0.34375, 0.225), (0.34375, 0.225), (0.34375, 0.225), (0.34375, 0.225), (0.34375, 0.172393), (0.34375, 0.225), (0.34375, 0.225), (0.34375, 0.225), (0.34375, 0.172393), (0.34375, 0.172393), (0.34375, 0.172393), (0.34375, 0.0776071), (0.34375, 0.172393), (0.34375, 0.0776071), (0.34375, 0.172393), (0.34375, 0.0776071), (0.34375, 0.225), (0.34375, 0.172393), (0.34375, 0.172393), (0.34375, 0.172393), (0.34375, 0.225), (0.34375, 0.225), (0.34375, 0.025), (0.34375, 0.025), (0.34375, 0.025), (0.34375, 0.025), (0.34375, 0.025), (0.34375, 0.025), (0.34375, 0.025), (0.34375, 0.0776071), (0.34375, 0.0776071), (0.34375, 0.0776071), (0.34375, 0.025), (0.34375, 0.025), (0.34375, 0.0776071), (0.34375, 0.025), (0.34375, 0.025), (0.34375, 0.025), (0.34375, 0.0776071), (0.34375, 0.0776071), (0.34375, 0.0776071), (0.34375, 0.0776071), (0.34375, 0.172393), (0.34375, 0.0776071), (0.34375, 0.172393), (0.34375, 0.172393), (0.34375, 0.172393), (0.34375, 0.172393), (0.34375, 0.225), (0.34375, 0.172393), (0.34375, 0.225), (0.34375, 0.225), (0.34375, 0.0776071), (0.34375, 0.025), (0.34375, 0.025), (0.34375, 0.025), (0.34375, 0.0776071), (0.34375, 0.0776071), (0.34375, 0.0776071), (0.34375, 0.0776071), (0.34375, 0.172393), (0.34375, 0.0776071), (0.34375, 0.172393), (0.34375, 0.172393), (0.34375, 0.172393), (0.34375, 0.172393), (0.34375, 0.225), (0.34375, 0.172393), (0.34375, 0.225), (0.34375, 0.225), (0.71875, 0.025), (0.71875, 0.025), (0.71875, 0.025), (0.71875, 0.025), (0.71875, 0.025), (0.71875, 0.025), (0.71875, 0.225), (0.71875, 0.025), (0.71875, 0.025), (0.71875, 0.025), (0.71875, 0.225), (0.71875, 0.225), (0.71875, 0.025), (0.71875, 0.0856997), (0.71875, 0.025), (0.71875, 0.0856997), (0.71875, 0.025), (0.71875, 0.025), (0.71875, 0.025), (0.71875, 0.153113), (0.71875, 0.0856997), (0.71875, 0.153113), (0.71875, 0.025), (0.71875, 0.225), (0.71875, 0.025), (0.71875, 0.0856997), (0.71875, 0.0856997), (0.71875, 0.153113), (0.71875, 0.0856997), (0.71875, 0.0856997), (0.71875, 0.0856997), (0.71875, 0.025), (0.71875, 0.025), (0.71875, 0.225), (0.71875, 0.153113), (0.71875, 0.153113), (0.71875, 0.0856997), (0.71875, 0.153113), (0.71875, 0.153113), (0.71875, 0.153113), (0.71875, 0.025), (0.71875, 0.0856997), (0.71875, 0.153113), (0.71875, 0.225), (0.71875, 0.225), (0.71875, 0.025), (0.71875, 0.153113), (0.71875, 0.225), (0.71875, 0.025), (0.71875, 0.025), (0.71875, 0.025), (0.71875, 0.025), (0.71875, 0.025), (0.71875, 0.025), (0.71875, 0.225), (0.71875, 0.025), (0.71875, 0.025), (0.71875, 0.025), (0.71875, 0.225), (0.71875, 0.225), (0.71875, 0.025), (0.71875, 0.1643), (0.71875, 0.225), (0.71875, 0.1643), (0.71875, 0.225), (0.71875, 0.225), (0.71875, 0.025), (0.71875, 0.096887), (0.71875, 0.1643), (0.71875, 0.096887), (0.71875, 0.025), (0.71875, 0.025), (0.71875, 0.225), (0.71875, 0.1643), (0.71875, 0.1643), (0.71875, 0.096887), (0.71875, 0.1643), (0.71875, 0.1643), (0.71875, 0.1643), (0.71875, 0.025), (0.71875, 0.225), (0.71875, 0.025), (0.71875, 0.096887), (0.71875, 0.096887), (0.71875, 0.1643), (0.71875, 0.096887), (0.71875, 0.096887), (0.71875, 0.096887), (0.71875, 0.025), (0.71875, 0.1643), (0.71875, 0.096887), (0.71875, 0.025), (0.71875, 0.025), (0.71875, 0.025), (0.71875, 0.096887), (0.71875, 0.025)] (interpolation = "faceVarying")
        uniform token subdivisionScheme = "none"
        rel material:binding = </Vehicle/Materials/colormap>
    }
    def Scope "Materials" {
        def Material "colormap" {
            token outputs:surface.connect = </Vehicle/Materials/colormap/surface.outputs:surface>
            def Shader "surface" {
                uniform token info:id = "UsdPreviewSurface"
                float inputs:roughness = 0.7
                float inputs:metallic = 0
                color3f inputs:diffuseColor.connect = </Vehicle/Materials/colormap/texture.outputs:rgb>
                token outputs:surface
            }
            def Shader "stReader" {
                uniform token info:id = "UsdPrimvarReader_float2"
                token inputs:varname = "st"
                float2 outputs:result
            }
            def Shader "texture" {
                uniform token info:id = "UsdUVTexture"
                asset inputs:file = @kenney-water-colormap.png@
                float2 inputs:st.connect = </Vehicle/Materials/colormap/stReader.outputs:result>
                token inputs:wrapS = "repeat"
                token inputs:wrapT = "repeat"
                float3 outputs:rgb
            }
        }
    }
}
