#usda 1.0
(
    defaultPrim = "Vehicle"
    metersPerUnit = 1
    upAxis = "Y"
)
def Xform "Vehicle" {
    def Mesh "mesh_metalDark" {
        int[] faceVertexCounts = [3, 3, 3, 3, 3, 3, 3, 3, 3, 3, 3, 3, 3, 3, 3, 3, 3, 3, 3, 3, 3, 3, 3, 3, 3, 3, 3, 3, 3, 3, 3, 3, 3, 3, 3, 3, 3, 3, 3, 3, 3, 3, 3, 3, 3, 3, 3, 3, 3, 3, 3, 3, 3, 3, 3, 3, 3, 3, 3, 3, 3, 3, 3, 3, 3, 3, 3, 3, 3, 3, 3, 3, 3, 3, 3, 3, 3, 3, 3, 3, 3, 3, 3, 3, 3, 3, 3, 3, 3, 3, 3, 3, 3, 3, 3, 3, 3, 3, 3, 3, 3, 3, 3, 3, 3, 3, 3, 3, 3, 3, 3, 3, 3, 3, 3, 3, 3, 3, 3, 3, 3, 3, 3, 3, 3, 3, 3, 3, 3, 3, 3, 3, 3, 3, 3, 3, 3, 3, 3, 3, 3, 3, 3, 3]
        int[] faceVertexIndices = [2, 1, 0, 1, 2, 3, 2, 5, 4, 5, 2, 0, 7, 5, 6, 5, 7, 4, 3, 4, 7, 4, 3, 2, 0, 6, 5, 6, 0, 1, 10, 9, 8, 9, 10, 11, 14, 13, 12, 13, 14, 15, 14, 7, 15, 16, 7, 14, 7, 16, 17, 7, 17, 3, 3, 17, 1, 6, 15, 7, 6, 18, 15, 18, 6, 19, 19, 6, 1, 19, 1, 17, 19, 17, 8, 19, 8, 9, 15, 21, 20, 21, 15, 18, 22, 21, 18, 25, 24, 23, 24, 25, 20, 20, 25, 13, 13, 25, 12, 20, 26, 24, 21, 26, 20, 26, 21, 27, 23, 28, 25, 28, 23, 29, 31, 26, 30, 26, 32, 30, 32, 26, 27, 35, 34, 33, 34, 35, 36, 20, 13, 15, 25, 37, 12, 37, 25, 28, 37, 28, 38, 38, 28, 34, 38, 34, 36, 38, 36, 39, 40, 12, 37, 12, 40, 14, 14, 40, 39, 14, 39, 36, 43, 42, 41, 42, 43, 44, 47, 46, 45, 46, 47, 48, 48, 47, 49, 48, 49, 50, 51, 50, 49, 52, 50, 51, 53, 50, 52, 50, 53, 54, 43, 55, 44, 55, 43, 56, 55, 56, 57, 55, 57, 58, 60, 58, 59, 58, 60, 55, 61, 18, 19, 18, 61, 30, 59, 57, 62, 57, 59, 58, 41, 64, 63, 64, 41, 65, 60, 41, 42, 41, 60, 65, 65, 60, 62, 62, 60, 59, 42, 55, 60, 55, 42, 44, 61, 63, 30, 63, 61, 41, 41, 61, 43, 43, 61, 66, 43, 67, 56, 67, 43, 66, 68, 19, 9, 19, 68, 69, 69, 68, 70, 18, 32, 22, 32, 18, 30, 53, 71, 54, 17, 71, 53, 17, 72, 71, 16, 72, 17, 16, 46, 72, 46, 16, 45, 47, 14, 36, 14, 47, 16, 16, 47, 45, 35, 64, 36, 73, 64, 35, 73, 63, 64, 74, 63, 73, 63, 74, 30, 31, 30, 74, 61, 76, 75, 76, 61, 77, 76, 77, 78, 68, 9, 11, 10, 68, 11, 68, 10, 79, 79, 10, 80, 80, 10, 81, 76, 68, 79, 78, 68, 76, 68, 78, 70, 61, 69, 77, 69, 61, 19, 83, 82, 8, 82, 83, 84, 82, 84, 85, 85, 84, 86, 85, 86, 81, 85, 81, 87, 87, 81, 10, 8, 88, 10, 88, 8, 82, 10, 88, 87, 90, 83, 89, 83, 90, 84, 8, 52, 83, 52, 8, 17, 52, 17, 53, 83, 91, 89, 67, 91, 83, 66, 91, 67, 66, 92, 91, 61, 92, 66, 92, 61, 75, 80, 86, 93, 86, 80, 81]
        point3f[] points = [(-0.3, 3.15836e-16, -0.825), (-0.3, 0.1, -0.825), (-0.3, 1.91758e-15, 0.475), (-0.3, 0.1, 0.575), (0.3, 0, 0.475), (0.3, 2.03038e-16, -0.825), (0.3, 0.1, -0.825), (0.3, 0.1, 0.575), (-0.4, 0.1, 0.275), (-0.4, 0.1, -0.325), (-0.8, 0.1, 0.275), (-0.8, 0.1, -0.325), (0.8, 0.1, 0.275), (0.8, 0.1, -0.325), (0.4, 0.1, 0.275), (0.4, 0.1, -0.325), (0.4, 0.1, 0.675), (-0.4, 0.1, 0.675), (0.4, 0.1, -0.925), (-0.4, 0.1, -0.925), (0.8, 0.2, -0.325), (0.8, 0.2, -1.225), (0.4, 0.1, -1.225), (0.8, 0.5, -0.325), (0.8, 0.4, -0.325), (0.8, 0.5, -0.125), (0.8, 0.4, -0.625), (0.8, 0.4, -1.225), (0.65, 0.5, -0.125), (0.65, 0.5, -0.325), (0.4, 0.5, -0.925), (0.4, 0.5, -0.625), (0.4, 0.5, -1.225), (0.55, 0.5, -0.325), (0.55, 0.5, -0.125), (0.4, 0.5, -0.325), (0.4, 0.5, -0.125), (0.7, 0.429289, -0.0542893), (0.5, 0.429289, -0.0542893), (0.5, 0.170711, 0.204289), (0.7, 0.170711, 0.204289), (0.15, 0.7, -0.525), (0.15, 0.8, -0.525), (-0.15, 0.7, -0.525), (-0.15, 0.8, -0.525), (0.4, 0.3, 1.175), (0.3, 0.3, 1.175), (0.4, 0.5, 1.175), (0.3, 0.6, 1.175), (0.4, 0.7, 1.175), (-0.3, 0.6, 1.175), (-0.4, 0.7, 1.175), (-0.4, 0.5, 1.175), (-0.4, 0.3, 1.175), (-0.3, 0.3, 1.175), (-0.15, 0.8, 0.475), (-0.15, 0.7, -0.125), (-0.15, 0.7, 0.575), (-0.15, 0.75, 0.575), (0.15, 0.75, 0.575), (0.15, 0.8, 0.475), (-0.4, 0.5, -0.925), (0.15, 0.7, 0.575), (0.4, 0.7, -0.525), (0.4, 0.7, -0.125), (0.15, 0.7, -0.125), (-0.4, 0.7, -0.525), (-0.4, 0.7, -0.125), (-0.8, 0.2, -0.325), (-0.4, 0.1, -1.225), (-0.8, 0.2, -1.225), (-0.3, 0.137139, 0.767848), (0.3, 0.137139, 0.767848), (0.4, 0.6, -0.325), (0.4, 0.6, -0.625), (-0.4, 0.5, -0.625), (-0.8, 0.4, -0.625), (-0.4, 0.5, -1.225), (-0.8, 0.4, -1.225), (-0.8, 0.4, -0.325), (-0.8, 0.5, -0.325), (-0.8, 0.5, -0.125), (-0.5, 0.429289, -0.0542893), (-0.4, 0.5, -0.125), (-0.55, 0.5, -0.125), (-0.7, 0.429289, -0.0542893), (-0.65, 0.5, -0.125), (-0.7, 0.170711, 0.204289), (-0.5, 0.170711, 0.204289), (-0.4, 0.5, -0.325), (-0.55, 0.5, -0.325), (-0.4, 0.6, -0.325), (-0.4, 0.6, -0.625), (-0.65, 0.5, -0.325), (0.75, 0.360961, -1.125), (0.75, 0.360961, -1.225), (0.45, 0.435961, -1.125), (0.45, 0.435961, -1.225), (0.75, 0.239039, -1.225), (0.75, 0.239039, -1.125), (0.5, 0.170711, -0.0542893), (0.45, 0.164039, -1.225), (0.45, 0.164039, -1.125), (0.7, 0.170711, -0.0542893), (0.3, 0.25, 1.175), (-0.3, 0.25, 1.175), (-0.7, 0.170711, -0.0542893), (-0.5, 0.170711, -0.0542893), (-0.45, 0.435961, -1.125), (-0.45, 0.435961, -1.225), (-0.75, 0.360961, -1.125), (-0.75, 0.360961, -1.225), (-0.45, 0.164039, -1.225), (-0.45, 0.164039, -1.125), (-0.75, 0.239039, -1.225), (-0.75, 0.239039, -1.125), (0.3, 0.3, 1.225), (-0.3, 0.3, 1.225), (0.8, 0.6, -0.325), (0.65, 0.6, -0.325), (0.55, 0.6, -0.325), (0.55, 0.6, -0.225), (0.55, 0.55, -0.125), (0.65, 0.6, -0.225), (0.65, 0.55, -0.125), (0.8, 0.6, -0.625), (-0.8, 0.6, -0.325), (-0.65, 0.6, -0.325), (-0.8, 0.6, -0.625), (-0.55, 0.6, -0.325), (-0.55, 0.6, -0.225), (-0.65, 0.6, -0.225), (-0.65, 0.55, -0.125), (-0.55, 0.55, -0.125)]
        normal3f[] normals = [(-1, 0, 0), (-1, 0, 0), (-1, 0, 0), (-1, 0, 0), (-1, 0, 0), (-1, 0, 0), (0, -1, 0), (0, -1, 0), (0, -1, 0), (0, -1, 0), (0, -1, 0), (0, -1, 0), (1, 0, 0), (1, 0, 0), (1, 0, 0), (1, 0, 0), (1, 0, 0), (1, 0, 0), (0, -0.707107, 0.707107), (0, -0.707107, 0.707107), (0, -0.707107, 0.707107), (0, -0.707107, 0.707107), (0, -0.707107, 0.707107), (0, -0.707107, 0.707107), (0, 0, -1), (0, 0, -1), (0, 0, -1), (0, 0, -1), (0, 0, -1), (0, 0, -1), (0, -1, 0), (0, -1, 0), (0, -1, 0), (0, -1, 0), (0, -1, 0), (0, -1, 0), (0, -1, 0), (0, -1, 0), (0, -1, 0), (0, -1, 0), (0, -1, 0), (0, -1, 0), (0, -1, 0), (0, -1, 0), (0, -1, 0), (0, -1, 0), (0, -1, 0), (0, -1, 0), (0, -1, 0), (0, -1, 0), (0, -1, 0), (0, -1, 0), (0, -1, 0), (0, -1, 0), (0, -1, 0), (0, -1, 0), (0, -1, 0), (0, -1, 0), (0, -1, 0), (0, -1, 0), (0, -1, 0), (0, -1, 0), (0, -1, 0), (0, -1, 0), (0, -1, 0), (0, -1, 0), (0, -1, 0), (0, -1, 0), (0, -1, 0), (0, -1, 0), (0, -1, 0), (0, -1, 0), (0, -1, 0), (0, -1, 0), (0, -1, 0), (0, -1, 0), (0, -1, 0), (0, -1, 0), (0.242536, -0.970143, 0), (0.242536, -0.970143, 0), (0.242536, -0.970143, 0), (0.242536, -0.970143, 0), (0.242536, -0.970143, 0), (0.242536, -0.970143, 0), (0.242536, -0.970143, 0), (0.242536, -0.970143, 0), (0.242536, -0.970143, 0), (1, 0, 0), (1, 0, 0), (1, 0, 0), (1, 0, 0), (1, 0, 0), (1, 0, 0), (1, 0, 0), (1, 0, 0), (1, 0, 0), (1, 0, 0), (1, 0, 0), (1, 0, 0), (1, 0, 0), (1, 0, 0), (1, 0, 0), (1, 0, 0), (1, 0, 0), (1, 0, 0), (1, 0, 0), (1, 0, 0), (1, 0, 0), (0, 1, 0), (0, 1, 0), (0, 1, 0), (0, 1, 0), (0, 1, 0), (0, 1, 0), (0.242536, 0.970143, 0), (0.242536, 0.970143, 0), (0.242536, 0.970143, 0), (0.242536, 0.970143, 0), (0.242536, 0.970143, 0), (0.242536, 0.970143, 0), (0.242536, 0.970143, 0), (0.242536, 0.970143, 0), (0.242536, 0.970143, 0), (0, 1, 0), (0, 1, 0), (0, 1, 0), (0, 1, 0), (0, 1, 0), (0, 1, 0), (0, 0, -1), (0, 0, -1), (0, 0, -1), (0, 0.707107, 0.707107), (0, 0.707107, 0.707107), (0, 0.707107, 0.707107), (0, 0.707107, 0.707107), (0, 0.707107, 0.707107), (0, 0.707107, 0.707107), (0, 0.707107, 0.707107), (0, 0.707107, 0.707107), (0, 0.707107, 0.707107), (0, 0.707107, 0.707107), (0, 0.707107, 0.707107), (0, 0.707107, 0.707107), (0, 0.707107, 0.707107), (0, 0.707107, 0.707107), (0, 0.707107, 0.707107), (0, 0.707107, 0.707107), (0, 0.707107, 0.707107), (0, 0.707107, 0.707107), (0, 0.707107, 0.707107), (0, 0.707107, 0.707107), (0, 0.707107, 0.707107), (0, 0.707107, 0.707107), (0, 0.707107, 0.707107), (0, 0.707107, 0.707107), (0, 0.707107, 0.707107), (0, 0.707107, 0.707107), (0, 0.707107, 0.707107), (0, 0.707107, 0.707107), (0, 0.707107, 0.707107), (0, 0.707107, 0.707107), (0, 0, -1), (0, 0, -1), (0, 0, -1), (0, 0, -1), (0, 0, -1), (0, 0, -1), (0, 0, 1), (0, 0, 1), (0, 0, 1), (0, 0, 1), (0, 0, 1), (0, 0, 1), (0, 0, 1), (0, 0, 1), (0, 0, 1), (0, 0, 1), (0, 0, 1), (0, 0, 1), (0, 0, 1), (0, 0, 1), (0, 0, 1), (0, 0, 1), (0, 0, 1), (0, 0, 1), (0, 0, 1), (0, 0, 1), (0, 0, 1), (0, 0, 1), (0, 0, 1), (0, 0, 1), (-1, 0, 0), (-1, 0, 0), (-1, 0, 0), (-1, 0, 0), (-1, 0, 0), (-1, 0, 0), (-1, 0, 0), (-1, 0, 0), (-1, 0, 0), (-1, 0, 0), (-1, 0, 0), (-1, 0, 0), (0, 0.894427, 0.447214), (0, 0.894427, 0.447214), (0, 0.894427, 0.447214), (0, 0.894427, 0.447214), (0, 0.894427, 0.447214), (0, 0.894427, 0.447214), (0, 0, -1), (0, 0, -1), (0, 0, -1), (0, 0, -1), (0, 0, -1), (0, 0, -1), (0, 0, 1), (0, 0, 1), (0, 0, 1), (0, 0, 1), (0, 0, 1), (0, 0, 1), (0, 1, 0), (0, 1, 0), (0, 1, 0), (0, 1, 0), (0, 1, 0), (0, 1, 0), (1, 0, 0), (1, 0, 0), (1, 0, 0), (1, 0, 0), (1, 0, 0), (1, 0, 0), (1, 0, 0), (1, 0, 0), (1, 0, 0), (1, 0, 0), (1, 0, 0), (1, 0, 0), (0, 1, 0), (0, 1, 0), (0, 1, 0), (0, 1, 0), (0, 1, 0), (0, 1, 0), (0, 0.894427, -0.447214), (0, 0.894427, -0.447214), (0, 0.894427, -0.447214), (0, 0.894427, -0.447214), (0, 0.894427, -0.447214), (0, 0.894427, -0.447214), (0, 0.894427, -0.447214), (0, 0.894427, -0.447214), (0, 0.894427, -0.447214), (0, 0.894427, -0.447214), (0, 0.894427, -0.447214), (0, 0.894427, -0.447214), (0, 1, 0), (0, 1, 0), (0, 1, 0), (0, 1, 0), (0, 1, 0), (0, 1, 0), (-0.242536, -0.970143, 0), (-0.242536, -0.970143, 0), (-0.242536, -0.970143, 0), (-0.242536, -0.970143, 0), (-0.242536, -0.970143, 0), (-0.242536, -0.970143, 0), (-0.242536, -0.970143, 0), (-0.242536, -0.970143, 0), (-0.242536, -0.970143, 0), (-1, 0, 0), (-1, 0, 0), (-1, 0, 0), (-1, 0, 0), (-1, 0, 0), (-1, 0, 0), (0, -0.928477, 0.371391), (0, -0.928477, 0.371391), (0, -0.928477, 0.371391), (0, -0.928477, 0.371391), (0, -0.928477, 0.371391), (0, -0.928477, 0.371391), (0, -0.928477, 0.371391), (0, -0.928477, 0.371391), (0, -0.928477, 0.371391), (0, -0.928477, 0.371391), (0, -0.928477, 0.371391), (0, -0.928477, 0.371391), (0, -0.928477, 0.371391), (0, -0.928477, 0.371391), (0, -0.928477, 0.371391), (0, -0.928477, 0.371391), (0, -0.928477, 0.371391), (0, -0.928477, 0.371391), (1, 0, 0), (1, 0, 0), (1, 0, 0), (1, 0, 0), (1, 0, 0), (1, 0, 0), (1, 0, 0), (1, 0, 0), (1, 0, 0), (1, 0, 0), (1, 0, 0), (1, 0, 0), (1, 0, 0), (1, 0, 0), (1, 0, 0), (1, 0, 0), (1, 0, 0), (1, 0, 0), (1, 0, 0), (1, 0, 0), (1, 0, 0), (1, 0, 0), (1, 0, 0), (1, 0, 0), (1, 0, 0), (1, 0, 0), (1, 0, 0), (-0.242536, 0.970143, 0), (-0.242536, 0.970143, 0), (-0.242536, 0.970143, 0), (-0.242536, 0.970143, 0), (-0.242536, 0.970143, 0), (-0.242536, 0.970143, 0), (-0.242536, 0.970143, 0), (-0.242536, 0.970143, 0), (-0.242536, 0.970143, 0), (0, 0, -1), (0, 0, -1), (0, 0, -1), (-1, 0, 0), (-1, 0, 0), (-1, 0, 0), (-1, 0, 0), (-1, 0, 0), (-1, 0, 0), (-1, 0, 0), (-1, 0, 0), (-1, 0, 0), (-1, 0, 0), (-1, 0, 0), (-1, 0, 0), (-1, 0, 0), (-1, 0, 0), (-1, 0, 0), (-1, 0, 0), (-1, 0, 0), (-1, 0, 0), (-1, 0, 0), (-1, 0, 0), (-1, 0, 0), (1, 0, 0), (1, 0, 0), (1, 0, 0), (1, 0, 0), (1, 0, 0), (1, 0, 0), (0, 0.707107, 0.707107), (0, 0.707107, 0.707107), (0, 0.707107, 0.707107), (0, 0.707107, 0.707107), (0, 0.707107, 0.707107), (0, 0.707107, 0.707107), (0, 0.707107, 0.707107), (0, 0.707107, 0.707107), (0, 0.707107, 0.707107), (0, 0.707107, 0.707107), (0, 0.707107, 0.707107), (0, 0.707107, 0.707107), (0, 0.707107, 0.707107), (0, 0.707107, 0.707107), (0, 0.707107, 0.707107), (0, 0.707107, 0.707107), (0, 0.707107, 0.707107), (0, 0.707107, 0.707107), (0, 0.707107, 0.707107), (0, 0.707107, 0.707107), (0, 0.707107, 0.707107), (0, 0.707107, 0.707107), (0, 0.707107, 0.707107), (0, 0.707107, 0.707107), (0, 0.707107, 0.707107), (0, 0.707107, 0.707107), (0, 0.707107, 0.707107), (0, 0.707107, 0.707107), (0, 0.707107, 0.707107), (0, 0.707107, 0.707107), (0, 1, 0), (0, 1, 0), (0, 1, 0), (0, 1, 0), (0, 1, 0), (0, 1, 0), (-1, 0, 0), (-1, 0, 0), (-1, 0, 0), (-1, 0, 0), (-1, 0, 0), (-1, 0, 0), (-1, 0, 0), (-1, 0, 0), (-1, 0, 0), (-1, 0, 0), (-1, 0, 0), (-1, 0, 0), (-1, 0, 0), (-1, 0, 0), (-1, 0, 0), (-1, 0, 0), (-1, 0, 0), (-1, 0, 0), (-1, 0, 0), (-1, 0, 0), (-1, 0, 0), (-1, 0, 0), (-1, 0, 0), (-1, 0, 0), (-1, 0, 0), (-1, 0, 0), (-1, 0, 0), (0, 1, 0), (0, 1, 0), (0, 1, 0), (0, 1, 0), (0, 1, 0), (0, 1, 0)] (interpolation = "faceVarying")
        texCoord2f[] primvars:st = [(18.7008, 7.54952e-14), (-32.4803, 3.93701), (-32.4803, 1.24345e-14), (-32.4803, 3.93701), (18.7008, 7.54952e-14), (22.6378, 3.93701), (-11.811, 18.7008), (11.811, -32.4803), (11.811, 18.7008), (11.811, -32.4803), (-11.811, 18.7008), (-11.811, -32.4803), (-22.6378, 3.93701), (32.4803, 5.24312e-15), (32.4803, 3.93701), (32.4803, 5.24312e-15), (-22.6378, 3.93701), (-18.7008, -2.75049e-15), (-11.811, 18.7912), (11.811, 13.2234), (11.811, 18.7912), (11.811, 13.2234), (-11.811, 18.7912), (-11.811, 13.2234), (11.811, 8.93233e-14), (-11.811, 3.93701), (-11.811, 8.48825e-14), (-11.811, 3.93701), (11.811, 8.93233e-14), (11.811, 3.93701), (-31.4961, 10.8268), (-15.748, -12.7953), (-15.748, 10.8268), (-15.748, -12.7953), (-31.4961, 10.8268), (-31.4961, -12.7953), (15.748, 10.8268), (31.4961, -12.7953), (31.4961, 10.8268), (31.4961, -12.7953), (15.748, 10.8268), (15.748, -12.7953), (15.748, 10.8268), (11.811, 22.6378), (15.748, -12.7953), (15.748, 26.5748), (11.811, 22.6378), (15.748, 10.8268), (11.811, 22.6378), (15.748, 26.5748), (-15.748, 26.5748), (11.811, 22.6378), (-15.748, 26.5748), (-11.811, 22.6378), (-11.811, 22.6378), (-15.748, 26.5748), (-11.811, -32.4803), (11.811, -32.4803), (15.748, -12.7953), (11.811, 22.6378), (11.811, -32.4803), (15.748, -36.4173), (15.748, -12.7953), (15.748, -36.4173), (11.811, -32.4803), (-15.748, -36.4173), (-15.748, -36.4173), (11.811, -32.4803), (-11.811, -32.4803), (-15.748, -36.4173), (-11.811, -32.4803), (-15.748, 26.5748), (-15.748, -36.4173), (-15.748, 26.5748), (-15.748, 10.8268), (-15.748, -36.4173), (-15.748, 10.8268), (-15.748, -12.7953), (12.7953, 16.2327), (48.2283, 32.4654), (12.7953, 32.4654), (48.2283, 32.4654), (12.7953, 16.2327), (36.4173, 16.2327), (48.2283, 16.2327), (48.2283, 32.4654), (36.4173, 16.2327), (4.92126, 19.685), (12.7953, 15.748), (12.7953, 19.685), (12.7953, 15.748), (4.92126, 19.685), (12.7953, 7.87402), (12.7953, 7.87402), (4.92126, 19.685), (12.7953, 3.93701), (12.7953, 3.93701), (4.92126, 19.685), (-10.8268, 3.93701), (12.7953, 7.87402), (24.6063, 15.748), (12.7953, 15.748), (48.2283, 7.87402), (24.6063, 15.748), (12.7953, 7.87402), (24.6063, 15.748), (48.2283, 7.87402), (48.2283, 15.748), (-31.4961, -12.7953), (-25.5906, -4.92126), (-31.4961, -4.92126), (-25.5906, -4.92126), (-31.4961, -12.7953), (-25.5906, -12.7953), (24.6063, -10.5035), (24.6063, -26.7362), (36.4173, -10.5035), (24.6063, -26.7362), (48.2283, -10.5035), (36.4173, -10.5035), (48.2283, -10.5035), (24.6063, -26.7362), (48.2283, -26.7362), (-15.748, -12.7953), (-21.6535, -4.92126), (-21.6535, -12.7953), (-21.6535, -4.92126), (-15.748, -12.7953), (-15.748, -4.92126), (-31.4961, 7.87402), (-31.4961, 3.93701), (-15.748, 3.93701), (31.4961, 17.3993), (27.5591, 13.4623), (31.4961, -4.8718), (27.5591, 13.4623), (31.4961, 17.3993), (25.5906, 17.3993), (27.5591, 13.4623), (25.5906, 17.3993), (19.685, 13.4623), (19.685, 13.4623), (25.5906, 17.3993), (21.6535, 17.3993), (19.685, 13.4623), (21.6535, 17.3993), (15.748, 17.3993), (19.685, 13.4623), (15.748, 17.3993), (19.685, -0.934791), (27.5591, -0.934791), (31.4961, -4.8718), (27.5591, 13.4623), (31.4961, -4.8718), (27.5591, -0.934791), (15.748, -4.8718), (15.748, -4.8718), (27.5591, -0.934791), (19.685, -0.934791), (15.748, -4.8718), (19.685, -0.934791), (15.748, 17.3993), (5.90551, 27.5591), (-5.90551, 31.4961), (-5.90551, 27.5591), (-5.90551, 31.4961), (5.90551, 27.5591), (5.90551, 31.4961), (15.748, 19.685), (11.811, 11.811), (15.748, 11.811), (11.811, 11.811), (15.748, 19.685), (11.811, 23.6221), (11.811, 23.6221), (15.748, 19.685), (15.748, 27.5591), (11.811, 23.6221), (15.748, 27.5591), (-11.811, 23.6221), (-15.748, 27.5591), (-11.811, 23.6221), (15.748, 27.5591), (-15.748, 19.685), (-11.811, 23.6221), (-15.748, 27.5591), (-15.748, 11.811), (-11.811, 23.6221), (-15.748, 19.685), (-11.811, 23.6221), (-15.748, 11.811), (-11.811, 11.811), (-20.6693, 27.5591), (18.7008, 31.4961), (-20.6693, 31.4961), (18.7008, 31.4961), (-20.6693, 27.5591), (-4.92126, 27.5591), (18.7008, 31.4961), (-4.92126, 27.5591), (22.6378, 27.5591), (18.7008, 31.4961), (22.6378, 27.5591), (22.6378, 29.5276), (5.90551, -2.64102), (-5.90551, -7.04273), (5.90551, -7.04273), (-5.90551, -7.04273), (5.90551, -2.64102), (-5.90551, -2.64102), (15.748, 19.685), (-15.748, 3.93701), (15.748, 3.93701), (-15.748, 3.93701), (15.748, 19.685), (-15.748, 19.685), (5.90551, 29.5276), (-5.90551, 27.5591), (5.90551, 27.5591), (-5.90551, 27.5591), (5.90551, 29.5276), (-5.90551, 29.5276), (-5.90551, -20.6693), (-15.748, -4.92126), (-15.748, -20.6693), (-15.748, -4.92126), (-5.90551, -20.6693), (-5.90551, -4.92126), (-18.7008, 31.4961), (20.6693, 27.5591), (20.6693, 31.4961), (20.6693, 27.5591), (-18.7008, 31.4961), (4.92126, 27.5591), (4.92126, 27.5591), (-18.7008, 31.4961), (-22.6378, 27.5591), (-22.6378, 27.5591), (-18.7008, 31.4961), (-22.6378, 29.5276), (-5.90551, -20.6693), (5.90551, 18.7008), (-5.90551, 18.7008), (5.90551, 18.7008), (-5.90551, -20.6693), (5.90551, -20.6693), (15.748, -23.7692), (-15.748, -6.16239), (-15.748, -23.7692), (-15.748, -6.16239), (15.748, -23.7692), (-5.90551, -6.16239), (-5.90551, -6.16239), (15.748, -23.7692), (5.90551, -6.16239), (5.90551, -6.16239), (15.748, -23.7692), (15.748, -6.16239), (5.90551, -20.6693), (15.748, -4.92126), (5.90551, -4.92126), (15.748, -4.92126), (5.90551, -20.6693), (15.748, -20.6693), (-12.7953, 32.4654), (-36.4173, 16.2327), (-12.7953, 16.2327), (-36.4173, 16.2327), (-12.7953, 32.4654), (-48.2283, 16.2327), (-48.2283, 16.2327), (-12.7953, 32.4654), (-48.2283, 32.4654), (-36.4173, 3.93701), (-48.2283, 19.685), (-48.2283, 3.93701), (-48.2283, 19.685), (-36.4173, 3.93701), (-36.4173, 19.685), (-15.748, 47.3377), (-11.811, 30.0733), (-11.811, 47.3377), (-15.748, 26.1363), (-11.811, 30.0733), (-15.748, 47.3377), (-15.748, 26.1363), (11.811, 30.0733), (-11.811, 30.0733), (15.748, 26.1363), (11.811, 30.0733), (-15.748, 26.1363), (15.748, 26.1363), (11.811, 47.3377), (11.811, 30.0733), (11.811, 47.3377), (15.748, 26.1363), (15.748, 47.3377), (-46.2598, 19.685), (-10.8268, 3.93701), (4.92126, 19.685), (-10.8268, 3.93701), (-46.2598, 19.685), (-26.5748, 3.93701), (-26.5748, 3.93701), (-46.2598, 19.685), (-46.2598, 11.811), (12.7953, 19.685), (4.92126, 27.5591), (4.92126, 19.685), (12.7953, 23.6221), (4.92126, 27.5591), (12.7953, 19.685), (12.7953, 23.6221), (20.6693, 27.5591), (4.92126, 27.5591), (24.6063, 23.6221), (20.6693, 27.5591), (12.7953, 23.6221), (20.6693, 27.5591), (24.6063, 23.6221), (36.4173, 19.685), (24.6063, 19.685), (36.4173, 19.685), (24.6063, 23.6221), (-36.4173, -10.5035), (-24.6063, -26.7362), (-24.6063, -10.5035), (-24.6063, -26.7362), (-36.4173, -10.5035), (-48.2283, -10.5035), (-24.6063, -26.7362), (-48.2283, -10.5035), (-48.2283, -26.7362), (31.4961, 7.87402), (15.748, 3.93701), (31.4961, 3.93701), (10.8268, 3.93701), (-12.7953, 7.87402), (-12.7953, 3.93701), (-12.7953, 7.87402), (10.8268, 3.93701), (-12.7953, 15.748), (-12.7953, 15.748), (10.8268, 3.93701), (-12.7953, 19.685), (-12.7953, 19.685), (10.8268, 3.93701), (-4.92126, 19.685), (-24.6063, 15.748), (-12.7953, 7.87402), (-12.7953, 15.748), (-48.2283, 15.748), (-12.7953, 7.87402), (-24.6063, 15.748), (-12.7953, 7.87402), (-48.2283, 15.748), (-48.2283, 7.87402), (36.4173, 19.685), (48.2283, 3.93701), (48.2283, 19.685), (48.2283, 3.93701), (36.4173, 19.685), (36.4173, 3.93701), (-15.748, 17.3993), (-19.685, 13.4623), (-15.748, -4.8718), (-19.685, 13.4623), (-15.748, 17.3993), (-21.6535, 17.3993), (-19.685, 13.4623), (-21.6535, 17.3993), (-27.5591, 13.4623), (-27.5591, 13.4623), (-21.6535, 17.3993), (-25.5906, 17.3993), (-27.5591, 13.4623), (-25.5906, 17.3993), (-31.4961, 17.3993), (-27.5591, 13.4623), (-31.4961, 17.3993), (-27.5591, -0.934791), (-27.5591, -0.934791), (-31.4961, 17.3993), (-31.4961, -4.8718), (-15.748, -4.8718), (-19.685, -0.934791), (-31.4961, -4.8718), (-19.685, -0.934791), (-15.748, -4.8718), (-19.685, 13.4623), (-31.4961, -4.8718), (-19.685, -0.934791), (-27.5591, -0.934791), (21.6535, -12.7953), (15.748, -4.92126), (15.748, -12.7953), (15.748, -4.92126), (21.6535, -12.7953), (21.6535, -4.92126), (10.8268, 3.93701), (46.2598, 19.685), (-4.92126, 19.685), (46.2598, 19.685), (10.8268, 3.93701), (26.5748, 3.93701), (46.2598, 19.685), (26.5748, 3.93701), (46.2598, 11.811), (-4.92126, 19.685), (-12.7953, 23.6221), (-12.7953, 19.685), (-4.92126, 27.5591), (-12.7953, 23.6221), (-4.92126, 19.685), (-20.6693, 27.5591), (-12.7953, 23.6221), (-4.92126, 27.5591), (-20.6693, 27.5591), (-24.6063, 23.6221), (-12.7953, 23.6221), (-36.4173, 19.685), (-24.6063, 23.6221), (-20.6693, 27.5591), (-24.6063, 23.6221), (-36.4173, 19.685), (-24.6063, 19.685), (31.4961, -12.7953), (25.5906, -4.92126), (25.5906, -12.7953), (25.5906, -4.92126), (31.4961, -12.7953), (31.4961, -4.92126)] (interpolation = "faceVarying")
        uniform token subdivisionScheme = "none"
        rel material:binding = </Vehicle/Materials/metalDark>
    }
    def Mesh "mesh_dark" {
        int[] faceVertexCounts = [3, 3, 3, 3, 3, 3, 3, 3, 3, 3, 3, 3, 3, 3, 3, 3, 3, 3, 3, 3, 3, 3, 3, 3, 3, 3, 3, 3, 3, 3, 3, 3, 3, 3, 3, 3, 3, 3, 3, 3, 3, 3, 3, 3]
        int[] faceVertexIndices = [96, 95, 94, 95, 96, 97, 99, 95, 98, 95, 99, 94, 39, 100, 38, 96, 101, 97, 101, 96, 102, 37, 100, 103, 100, 37, 38, 100, 40, 103, 40, 100, 39, 101, 99, 98, 99, 101, 102, 40, 37, 103, 96, 99, 102, 99, 96, 94, 105, 72, 104, 72, 105, 71, 107, 85, 106, 85, 107, 82, 110, 109, 108, 109, 110, 111, 114, 113, 112, 113, 114, 115, 110, 114, 111, 114, 110, 115, 48, 117, 116, 117, 48, 50, 116, 46, 48, 46, 116, 104, 104, 72, 46, 105, 54, 71, 54, 105, 117, 54, 117, 50, 115, 108, 113, 108, 115, 110, 117, 104, 116, 104, 117, 105, 113, 109, 112, 109, 113, 108, 88, 82, 107, 87, 106, 85, 106, 88, 107, 88, 106, 87]
        point3f[] points = [(-0.3, 3.15836e-16, -0.825), (-0.3, 0.1, -0.825), (-0.3, 1.91758e-15, 0.475), (-0.3, 0.1, 0.575), (0.3, 0, 0.475), (0.3, 2.03038e-16, -0.825), (0.3, 0.1, -0.825), (0.3, 0.1, 0.575), (-0.4, 0.1, 0.275), (-0.4, 0.1, -0.325), (-0.8, 0.1, 0.275), (-0.8, 0.1, -0.325), (0.8, 0.1, 0.275), (0.8, 0.1, -0.325), (0.4, 0.1, 0.275), (0.4, 0.1, -0.325), (0.4, 0.1, 0.675), (-0.4, 0.1, 0.675), (0.4, 0.1, -0.925), (-0.4, 0.1, -0.925), (0.8, 0.2, -0.325), (0.8, 0.2, -1.225), (0.4, 0.1, -1.225), (0.8, 0.5, -0.325), (0.8, 0.4, -0.325), (0.8, 0.5, -0.125), (0.8, 0.4, -0.625), (0.8, 0.4, -1.225), (0.65, 0.5, -0.125), (0.65, 0.5, -0.325), (0.4, 0.5, -0.925), (0.4, 0.5, -0.625), (0.4, 0.5, -1.225), (0.55, 0.5, -0.325), (0.55, 0.5, -0.125), (0.4, 0.5, -0.325), (0.4, 0.5, -0.125), (0.7, 0.429289, -0.0542893), (0.5, 0.429289, -0.0542893), (0.5, 0.170711, 0.204289), (0.7, 0.170711, 0.204289), (0.15, 0.7, -0.525), (0.15, 0.8, -0.525), (-0.15, 0.7, -0.525), (-0.15, 0.8, -0.525), (0.4, 0.3, 1.175), (0.3, 0.3, 1.175), (0.4, 0.5, 1.175), (0.3, 0.6, 1.175), (0.4, 0.7, 1.175), (-0.3, 0.6, 1.175), (-0.4, 0.7, 1.175), (-0.4, 0.5, 1.175), (-0.4, 0.3, 1.175), (-0.3, 0.3, 1.175), (-0.15, 0.8, 0.475), (-0.15, 0.7, -0.125), (-0.15, 0.7, 0.575), (-0.15, 0.75, 0.575), (0.15, 0.75, 0.575), (0.15, 0.8, 0.475), (-0.4, 0.5, -0.925), (0.15, 0.7, 0.575), (0.4, 0.7, -0.525), (0.4, 0.7, -0.125), (0.15, 0.7, -0.125), (-0.4, 0.7, -0.525), (-0.4, 0.7, -0.125), (-0.8, 0.2, -0.325), (-0.4, 0.1, -1.225), (-0.8, 0.2, -1.225), (-0.3, 0.137139, 0.767848), (0.3, 0.137139, 0.767848), (0.4, 0.6, -0.325), (0.4, 0.6, -0.625), (-0.4, 0.5, -0.625), (-0.8, 0.4, -0.625), (-0.4, 0.5, -1.225), (-0.8, 0.4, -1.225), (-0.8, 0.4, -0.325), (-0.8, 0.5, -0.325), (-0.8, 0.5, -0.125), (-0.5, 0.429289, -0.0542893), (-0.4, 0.5, -0.125), (-0.55, 0.5, -0.125), (-0.7, 0.429289, -0.0542893), (-0.65, 0.5, -0.125), (-0.7, 0.170711, 0.204289), (-0.5, 0.170711, 0.204289), (-0.4, 0.5, -0.325), (-0.55, 0.5, -0.325), (-0.4, 0.6, -0.325), (-0.4, 0.6, -0.625), (-0.65, 0.5, -0.325), (0.75, 0.360961, -1.125), (0.75, 0.360961, -1.225), (0.45, 0.435961, -1.125), (0.45, 0.435961, -1.225), (0.75, 0.239039, -1.225), (0.75, 0.239039, -1.125), (0.5, 0.170711, -0.0542893), (0.45, 0.164039, -1.225), (0.45, 0.164039, -1.125), (0.7, 0.170711, -0.0542893), (0.3, 0.25, 1.175), (-0.3, 0.25, 1.175), (-0.7, 0.170711, -0.0542893), (-0.5, 0.170711, -0.0542893), (-0.45, 0.435961, -1.125), (-0.45, 0.435961, -1.225), (-0.75, 0.360961, -1.125), (-0.75, 0.360961, -1.225), (-0.45, 0.164039, -1.225), (-0.45, 0.164039, -1.125), (-0.75, 0.239039, -1.225), (-0.75, 0.239039, -1.125), (0.3, 0.3, 1.225), (-0.3, 0.3, 1.225), (0.8, 0.6, -0.325), (0.65, 0.6, -0.325), (0.55, 0.6, -0.325), (0.55, 0.6, -0.225), (0.55, 0.55, -0.125), (0.65, 0.6, -0.225), (0.65, 0.55, -0.125), (0.8, 0.6, -0.625), (-0.8, 0.6, -0.325), (-0.65, 0.6, -0.325), (-0.8, 0.6, -0.625), (-0.55, 0.6, -0.325), (-0.55, 0.6, -0.225), (-0.65, 0.6, -0.225), (-0.65, 0.55, -0.125), (-0.55, 0.55, -0.125)]
        normal3f[] normals = [(-0.242536, -0.970143, 0), (-0.242536, -0.970143, 0), (-0.242536, -0.970143, 0), (-0.242536, -0.970143, 0), (-0.242536, -0.970143, 0), (-0.242536, -0.970143, 0), (-1, 0, 0), (-1, 0, 0), (-1, 0, 0), (-1, 0, 0), (-1, 0, 0), (-1, 0, 0), (1, 0, 0), (1, 0, 0), (1, 0, 0), (1, 0, 0), (1, 0, 0), (1, 0, 0), (1, 0, 0), (1, 0, 0), (1, 0, 0), (0, 0, 1), (0, 0, 1), (0, 0, 1), (0, 0, 1), (0, 0, 1), (0, 0, 1), (0, 1, 0), (0, 1, 0), (0, 1, 0), (0, 1, 0), (0, 1, 0), (0, 1, 0), (-0.242536, 0.970143, 0), (-0.242536, 0.970143, 0), (-0.242536, 0.970143, 0), (-0.242536, 0.970143, 0), (-0.242536, 0.970143, 0), (-0.242536, 0.970143, 0), (-1, 0, 0), (-1, 0, 0), (-1, 0, 0), (0, 0, -1), (0, 0, -1), (0, 0, -1), (0, 0, -1), (0, 0, -1), (0, 0, -1), (0, -0.963662, 0.267123), (0, -0.963662, 0.267123), (0, -0.963662, 0.267123), (0, -0.963662, 0.267123), (0, -0.963662, 0.267123), (0, -0.963662, 0.267123), (0, 0, 1), (0, 0, 1), (0, 0, 1), (0, 0, 1), (0, 0, 1), (0, 0, 1), (0.242536, -0.970143, 0), (0.242536, -0.970143, 0), (0.242536, -0.970143, 0), (0.242536, -0.970143, 0), (0.242536, -0.970143, 0), (0.242536, -0.970143, 0), (0.242536, 0.970143, 0), (0.242536, 0.970143, 0), (0.242536, 0.970143, 0), (0.242536, 0.970143, 0), (0.242536, 0.970143, 0), (0.242536, 0.970143, 0), (1, 0, 0), (1, 0, 0), (1, 0, 0), (1, 0, 0), (1, 0, 0), (1, 0, 0), (0, 0.164399, 0.986394), (0, 0.164399, 0.986394), (0, 0.164399, 0.986394), (0, 0.164399, 0.986394), (0, 0.164399, 0.986394), (0, 0.164399, 0.986394), (1, 0, 0), (1, 0, 0), (1, 0, 0), (1, 0, 0), (1, 0, 0), (1, 0, 0), (1, 0, 0), (1, 0, 0), (1, 0, 0), (-1, 0, 0), (-1, 0, 0), (-1, 0, 0), (-1, 0, 0), (-1, 0, 0), (-1, 0, 0), (-1, 0, 0), (-1, 0, 0), (-1, 0, 0), (0, 0, -1), (0, 0, -1), (0, 0, -1), (0, 0, -1), (0, 0, -1), (0, 0, -1), (0, -0.707107, 0.707107), (0, -0.707107, 0.707107), (0, -0.707107, 0.707107), (0, -0.707107, 0.707107), (0, -0.707107, 0.707107), (0, -0.707107, 0.707107), (-1, 0, 0), (-1, 0, 0), (-1, 0, 0), (-1, 0, 0), (-1, 0, 0), (-1, 0, 0), (-1, 0, 0), (-1, 0, 0), (-1, 0, 0), (1, 0, 0), (1, 0, 0), (1, 0, 0), (0, 1, 0), (0, 1, 0), (0, 1, 0), (0, 1, 0), (0, 1, 0), (0, 1, 0)] (interpolation = "faceVarying")
        texCoord2f[] primvars:st = [(-44.2913, -13.0247), (-48.2283, -25.1992), (-44.2913, -25.1992), (-48.2283, -25.1992), (-44.2913, -13.0247), (-48.2283, -13.0247), (-44.2913, 9.41098), (-48.2283, 14.2111), (-48.2283, 9.41098), (-48.2283, 14.2111), (-44.2913, 9.41098), (-44.2913, 14.2111), (-8.04289, 6.72089), (2.13738, 6.72089), (2.13738, 16.9012), (44.2913, 17.1638), (48.2283, 6.45822), (48.2283, 17.1638), (48.2283, 6.45822), (44.2913, 17.1638), (44.2913, 6.45822), (27.5591, 16.9012), (19.685, 6.72089), (27.5591, 6.72089), (19.685, 6.72089), (27.5591, 16.9012), (19.685, 16.9012), (-19.685, -2.13738), (-27.5591, 8.04289), (-27.5591, -2.13738), (-27.5591, 8.04289), (-19.685, -2.13738), (-19.685, 8.04289), (-48.2283, 18.7539), (-44.2913, 30.9284), (-48.2283, 30.9284), (-44.2913, 30.9284), (-48.2283, 18.7539), (-44.2913, 18.7539), (8.04289, 6.72089), (-2.13738, 16.9012), (-2.13738, 6.72089), (-17.7165, 17.1638), (-29.5276, 9.41098), (-17.7165, 6.45822), (-29.5276, 9.41098), (-17.7165, 17.1638), (-29.5276, 14.2111), (-11.811, 47.208), (11.811, 30.574), (11.811, 47.208), (11.811, 30.574), (-11.811, 47.208), (-11.811, 30.574), (-19.685, 6.72089), (-27.5591, 16.9012), (-27.5591, 6.72089), (-27.5591, 16.9012), (-19.685, 6.72089), (-19.685, 16.9012), (44.2913, -25.1992), (48.2283, -13.0247), (44.2913, -13.0247), (48.2283, -13.0247), (44.2913, -25.1992), (48.2283, -25.1992), (48.2283, 30.9284), (44.2913, 18.7539), (48.2283, 18.7539), (44.2913, 18.7539), (48.2283, 30.9284), (44.2913, 30.9284), (44.2913, 14.2111), (48.2283, 9.41098), (48.2283, 14.2111), (48.2283, 9.41098), (44.2913, 14.2111), (44.2913, 9.41098), (11.811, 15.6956), (-11.811, 3.72163), (11.811, 3.72163), (-11.811, 3.72163), (11.811, 15.6956), (-11.811, 15.6956), (-48.2283, 11.811), (-46.2598, 11.811), (-46.2598, 23.6221), (-46.2598, 11.811), (-48.2283, 11.811), (-46.2598, 9.84252), (-46.2598, 9.84252), (-30.2302, 5.39918), (-46.2598, 11.811), (46.2598, 9.84252), (46.2598, 11.811), (30.2302, 5.39918), (46.2598, 11.811), (46.2598, 9.84252), (48.2283, 11.811), (46.2598, 11.811), (48.2283, 11.811), (46.2598, 23.6221), (29.5276, 9.41098), (17.7165, 17.1638), (17.7165, 6.45822), (17.7165, 17.1638), (29.5276, 9.41098), (29.5276, 14.2111), (-11.811, 42.4543), (11.811, 39.6704), (11.811, 42.4543), (11.811, 39.6704), (-11.811, 42.4543), (-11.811, 39.6704), (-44.2913, 6.45822), (-48.2283, 17.1638), (-48.2283, 6.45822), (-48.2283, 17.1638), (-44.2913, 6.45822), (-44.2913, 17.1638), (8.04289, 6.72089), (-2.13738, 16.9012), (-2.13738, 6.72089), (-8.04289, 6.72089), (2.13738, 6.72089), (2.13738, 16.9012), (27.5591, -2.13738), (19.685, 8.04289), (19.685, -2.13738), (19.685, 8.04289), (27.5591, -2.13738), (27.5591, 8.04289)] (interpolation = "faceVarying")
        uniform token subdivisionScheme = "none"
        rel material:binding = </Vehicle/Materials/dark>
    }
    def Mesh "mesh_metalRed" {
        int[] faceVertexCounts = [3, 3, 3, 3, 3, 3, 3, 3, 3, 3, 3, 3, 3, 3, 3, 3, 3, 3, 3, 3, 3, 3, 3, 3, 3, 3, 3, 3, 3, 3, 3, 3, 3, 3, 3, 3, 3, 3, 3, 3, 3, 3, 3, 3, 3, 3, 3, 3, 3, 3, 3, 3, 3, 3, 3, 3, 3, 3, 3, 3]
        int[] faceVertexIndices = [118, 29, 23, 29, 118, 119, 120, 35, 33, 35, 120, 73, 34, 120, 33, 120, 34, 121, 121, 34, 122, 121, 124, 123, 124, 121, 122, 123, 29, 119, 29, 123, 28, 28, 123, 124, 74, 118, 125, 118, 74, 119, 119, 74, 123, 123, 74, 120, 120, 74, 73, 121, 123, 120, 118, 26, 125, 26, 118, 24, 24, 118, 23, 124, 34, 28, 34, 124, 122, 64, 47, 36, 47, 64, 49, 52, 67, 83, 67, 52, 51, 93, 126, 80, 126, 93, 127, 79, 128, 76, 128, 79, 126, 126, 79, 80, 65, 49, 64, 49, 65, 62, 62, 51, 49, 51, 62, 57, 51, 57, 56, 51, 56, 67, 128, 91, 92, 91, 128, 129, 129, 128, 130, 130, 128, 127, 127, 128, 126, 131, 130, 127, 84, 132, 86, 132, 84, 133, 86, 127, 93, 127, 86, 131, 131, 86, 132, 89, 129, 90, 129, 89, 91, 131, 133, 130, 133, 131, 132, 130, 90, 129, 90, 130, 84, 84, 130, 133, 31, 125, 26, 125, 31, 74, 128, 75, 76, 75, 128, 92]
        point3f[] points = [(-0.3, 3.15836e-16, -0.825), (-0.3, 0.1, -0.825), (-0.3, 1.91758e-15, 0.475), (-0.3, 0.1, 0.575), (0.3, 0, 0.475), (0.3, 2.03038e-16, -0.825), (0.3, 0.1, -0.825), (0.3, 0.1, 0.575), (-0.4, 0.1, 0.275), (-0.4, 0.1, -0.325), (-0.8, 0.1, 0.275), (-0.8, 0.1, -0.325), (0.8, 0.1, 0.275), (0.8, 0.1, -0.325), (0.4, 0.1, 0.275), (0.4, 0.1, -0.325), (0.4, 0.1, 0.675), (-0.4, 0.1, 0.675), (0.4, 0.1, -0.925), (-0.4, 0.1, -0.925), (0.8, 0.2, -0.325), (0.8, 0.2, -1.225), (0.4, 0.1, -1.225), (0.8, 0.5, -0.325), (0.8, 0.4, -0.325), (0.8, 0.5, -0.125), (0.8, 0.4, -0.625), (0.8, 0.4, -1.225), (0.65, 0.5, -0.125), (0.65, 0.5, -0.325), (0.4, 0.5, -0.925), (0.4, 0.5, -0.625), (0.4, 0.5, -1.225), (0.55, 0.5, -0.325), (0.55, 0.5, -0.125), (0.4, 0.5, -0.325), (0.4, 0.5, -0.125), (0.7, 0.429289, -0.0542893), (0.5, 0.429289, -0.0542893), (0.5, 0.170711, 0.204289), (0.7, 0.170711, 0.204289), (0.15, 0.7, -0.525), (0.15, 0.8, -0.525), (-0.15, 0.7, -0.525), (-0.15, 0.8, -0.525), (0.4, 0.3, 1.175), (0.3, 0.3, 1.175), (0.4, 0.5, 1.175), (0.3, 0.6, 1.175), (0.4, 0.7, 1.175), (-0.3, 0.6, 1.175), (-0.4, 0.7, 1.175), (-0.4, 0.5, 1.175), (-0.4, 0.3, 1.175), (-0.3, 0.3, 1.175), (-0.15, 0.8, 0.475), (-0.15, 0.7, -0.125), (-0.15, 0.7, 0.575), (-0.15, 0.75, 0.575), (0.15, 0.75, 0.575), (0.15, 0.8, 0.475), (-0.4, 0.5, -0.925), (0.15, 0.7, 0.575), (0.4, 0.7, -0.525), (0.4, 0.7, -0.125), (0.15, 0.7, -0.125), (-0.4, 0.7, -0.525), (-0.4, 0.7, -0.125), (-0.8, 0.2, -0.325), (-0.4, 0.1, -1.225), (-0.8, 0.2, -1.225), (-0.3, 0.137139, 0.767848), (0.3, 0.137139, 0.767848), (0.4, 0.6, -0.325), (0.4, 0.6, -0.625), (-0.4, 0.5, -0.625), (-0.8, 0.4, -0.625), (-0.4, 0.5, -1.225), (-0.8, 0.4, -1.225), (-0.8, 0.4, -0.325), (-0.8, 0.5, -0.325), (-0.8, 0.5, -0.125), (-0.5, 0.429289, -0.0542893), (-0.4, 0.5, -0.125), (-0.55, 0.5, -0.125), (-0.7, 0.429289, -0.0542893), (-0.65, 0.5, -0.125), (-0.7, 0.170711, 0.204289), (-0.5, 0.170711, 0.204289), (-0.4, 0.5, -0.325), (-0.55, 0.5, -0.325), (-0.4, 0.6, -0.325), (-0.4, 0.6, -0.625), (-0.65, 0.5, -0.325), (0.75, 0.360961, -1.125), (0.75, 0.360961, -1.225), (0.45, 0.435961, -1.125), (0.45, 0.435961, -1.225), (0.75, 0.239039, -1.225), (0.75, 0.239039, -1.125), (0.5, 0.170711, -0.0542893), (0.45, 0.164039, -1.225), (0.45, 0.164039, -1.125), (0.7, 0.170711, -0.0542893), (0.3, 0.25, 1.175), (-0.3, 0.25, 1.175), (-0.7, 0.170711, -0.0542893), (-0.5, 0.170711, -0.0542893), (-0.45, 0.435961, -1.125), (-0.45, 0.435961, -1.225), (-0.75, 0.360961, -1.125), (-0.75, 0.360961, -1.225), (-0.45, 0.164039, -1.225), (-0.45, 0.164039, -1.125), (-0.75, 0.239039, -1.225), (-0.75, 0.239039, -1.125), (0.3, 0.3, 1.225), (-0.3, 0.3, 1.225), (0.8, 0.6, -0.325), (0.65, 0.6, -0.325), (0.55, 0.6, -0.325), (0.55, 0.6, -0.225), (0.55, 0.55, -0.125), (0.65, 0.6, -0.225), (0.65, 0.55, -0.125), (0.8, 0.6, -0.625), (-0.8, 0.6, -0.325), (-0.65, 0.6, -0.325), (-0.8, 0.6, -0.625), (-0.55, 0.6, -0.325), (-0.55, 0.6, -0.225), (-0.65, 0.6, -0.225), (-0.65, 0.55, -0.125), (-0.55, 0.55, -0.125)]
        normal3f[] normals = [(0, 0, 1), (0, 0, 1), (0, 0, 1), (0, 0, 1), (0, 0, 1), (0, 0, 1), (0, 0, 1), (0, 0, 1), (0, 0, 1), (0, 0, 1), (0, 0, 1), (0, 0, 1), (-1, 0, 0), (-1, 0, 0), (-1, 0, 0), (-1, 0, 0), (-1, 0, 0), (-1, 0, 0), (-1, 0, 0), (-1, 0, 0), (-1, 0, 0), (0, 0.894427, 0.447214), (0, 0.894427, 0.447214), (0, 0.894427, 0.447214), (0, 0.894427, 0.447214), (0, 0.894427, 0.447214), (0, 0.894427, 0.447214), (1, 0, 0), (1, 0, 0), (1, 0, 0), (1, 0, 0), (1, 0, 0), (1, 0, 0), (1, 0, 0), (1, 0, 0), (1, 0, 0), (0, 1, 0), (0, 1, 0), (0, 1, 0), (0, 1, 0), (0, 1, 0), (0, 1, 0), (0, 1, 0), (0, 1, 0), (0, 1, 0), (0, 1, 0), (0, 1, 0), (0, 1, 0), (0, 1, 0), (0, 1, 0), (0, 1, 0), (0, 1, 0), (0, 1, 0), (0, 1, 0), (1, 0, 0), (1, 0, 0), (1, 0, 0), (1, 0, 0), (1, 0, 0), (1, 0, 0), (1, 0, 0), (1, 0, 0), (1, 0, 0), (0, 0, 1), (0, 0, 1), (0, 0, 1), (0, 0, 1), (0, 0, 1), (0, 0, 1), (1, 0, 0), (1, 0, 0), (1, 0, 0), (1, 0, 0), (1, 0, 0), (1, 0, 0), (-1, 0, 0), (-1, 0, 0), (-1, 0, 0), (-1, 0, 0), (-1, 0, 0), (-1, 0, 0), (0, 0, 1), (0, 0, 1), (0, 0, 1), (0, 0, 1), (0, 0, 1), (0, 0, 1), (-1, 0, 0), (-1, 0, 0), (-1, 0, 0), (-1, 0, 0), (-1, 0, 0), (-1, 0, 0), (-1, 0, 0), (-1, 0, 0), (-1, 0, 0), (0, 1, 0), (0, 1, 0), (0, 1, 0), (0, 1, 0), (0, 1, 0), (0, 1, 0), (0, 1, 0), (0, 1, 0), (0, 1, 0), (0, 1, 0), (0, 1, 0), (0, 1, 0), (0, 1, 0), (0, 1, 0), (0, 1, 0), (0, 1, 0), (0, 1, 0), (0, 1, 0), (0, 1, 0), (0, 1, 0), (0, 1, 0), (0, 1, 0), (0, 1, 0), (0, 1, 0), (0, 1, 0), (0, 1, 0), (0, 1, 0), (0, 1, 0), (0, 1, 0), (0, 1, 0), (0, 1, 0), (0, 1, 0), (0, 1, 0), (0, 1, 0), (0, 1, 0), (0, 1, 0), (0, 0, 1), (0, 0, 1), (0, 0, 1), (0, 0, 1), (0, 0, 1), (0, 0, 1), (-1, 0, 0), (-1, 0, 0), (-1, 0, 0), (-1, 0, 0), (-1, 0, 0), (-1, 0, 0), (-1, 0, 0), (-1, 0, 0), (-1, 0, 0), (0, 0, 1), (0, 0, 1), (0, 0, 1), (0, 0, 1), (0, 0, 1), (0, 0, 1), (0, 0.894427, 0.447214), (0, 0.894427, 0.447214), (0, 0.894427, 0.447214), (0, 0.894427, 0.447214), (0, 0.894427, 0.447214), (0, 0.894427, 0.447214), (1, 0, 0), (1, 0, 0), (1, 0, 0), (1, 0, 0), (1, 0, 0), (1, 0, 0), (1, 0, 0), (1, 0, 0), (1, 0, 0), (0, 0, -1), (0, 0, -1), (0, 0, -1), (0, 0, -1), (0, 0, -1), (0, 0, -1), (0, 0, -1), (0, 0, -1), (0, 0, -1), (0, 0, -1), (0, 0, -1), (0, 0, -1)] (interpolation = "faceVarying")
        texCoord2f[] primvars:st = [(31.4961, 23.6221), (25.5906, 19.685), (31.4961, 19.685), (25.5906, 19.685), (31.4961, 23.6221), (25.5906, 23.6221), (21.6535, 23.6221), (15.748, 19.685), (21.6535, 19.685), (15.748, 19.685), (21.6535, 23.6221), (15.748, 23.6221), (-4.92126, 19.685), (-12.7953, 23.6221), (-12.7953, 19.685), (-12.7953, 23.6221), (-4.92126, 19.685), (-8.85827, 23.6221), (-8.85827, 23.6221), (-4.92126, 19.685), (-4.92126, 21.6535), (21.6535, 18.4872), (25.5906, 14.0855), (25.5906, 18.4872), (25.5906, 14.0855), (21.6535, 18.4872), (21.6535, 14.0855), (8.85827, 23.6221), (12.7953, 19.685), (12.7953, 23.6221), (12.7953, 19.685), (8.85827, 23.6221), (4.92126, 19.685), (4.92126, 19.685), (8.85827, 23.6221), (4.92126, 21.6535), (-15.748, -24.6063), (-31.4961, -12.7953), (-31.4961, -24.6063), (-31.4961, -12.7953), (-15.748, -24.6063), (-25.5906, -12.7953), (-25.5906, -12.7953), (-15.748, -24.6063), (-25.5906, -8.85827), (-25.5906, -8.85827), (-15.748, -24.6063), (-21.6535, -12.7953), (-21.6535, -12.7953), (-15.748, -24.6063), (-15.748, -12.7953), (-21.6535, -8.85827), (-25.5906, -8.85827), (-21.6535, -12.7953), (12.7953, 23.6221), (24.6063, 15.748), (24.6063, 23.6221), (24.6063, 15.748), (12.7953, 23.6221), (12.7953, 15.748), (12.7953, 15.748), (12.7953, 23.6221), (12.7953, 19.685), (25.5906, 21.6535), (21.6535, 19.685), (25.5906, 19.685), (21.6535, 19.685), (25.5906, 21.6535), (21.6535, 21.6535), (4.92126, 27.5591), (-46.2598, 19.685), (4.92126, 19.685), (-46.2598, 19.685), (4.92126, 27.5591), (-46.2598, 27.5591), (46.2598, 19.685), (-4.92126, 27.5591), (-4.92126, 19.685), (-4.92126, 27.5591), (46.2598, 19.685), (46.2598, 27.5591), (-25.5906, 19.685), (-31.4961, 23.6221), (-31.4961, 19.685), (-31.4961, 23.6221), (-25.5906, 19.685), (-25.5906, 23.6221), (-12.7953, 15.748), (-24.6063, 23.6221), (-24.6063, 15.748), (-24.6063, 23.6221), (-12.7953, 15.748), (-12.7953, 23.6221), (-12.7953, 23.6221), (-12.7953, 15.748), (-12.7953, 19.685), (-5.90551, -4.92126), (-15.748, 46.2598), (-15.748, -4.92126), (-15.748, 46.2598), (-5.90551, -4.92126), (-5.90551, 22.6378), (-5.90551, 22.6378), (15.748, 46.2598), (-15.748, 46.2598), (15.748, 46.2598), (-5.90551, 22.6378), (5.90551, 22.6378), (15.748, 46.2598), (5.90551, 22.6378), (5.90551, -4.92126), (15.748, 46.2598), (5.90551, -4.92126), (15.748, -4.92126), (31.4961, -24.6063), (15.748, -12.7953), (15.748, -24.6063), (15.748, -12.7953), (31.4961, -24.6063), (21.6535, -12.7953), (21.6535, -12.7953), (31.4961, -24.6063), (21.6535, -8.85827), (21.6535, -8.85827), (31.4961, -24.6063), (25.5906, -12.7953), (25.5906, -12.7953), (31.4961, -24.6063), (31.4961, -12.7953), (25.5906, -8.85827), (21.6535, -8.85827), (25.5906, -12.7953), (-21.6535, 19.685), (-25.5906, 21.6535), (-25.5906, 19.685), (-25.5906, 21.6535), (-21.6535, 19.685), (-21.6535, 21.6535), (-4.92126, 19.685), (-12.7953, 23.6221), (-12.7953, 19.685), (-12.7953, 23.6221), (-4.92126, 19.685), (-8.85827, 23.6221), (-8.85827, 23.6221), (-4.92126, 19.685), (-4.92126, 21.6535), (-15.748, 19.685), (-21.6535, 23.6221), (-21.6535, 19.685), (-21.6535, 23.6221), (-15.748, 19.685), (-15.748, 23.6221), (-25.5906, 18.4872), (-21.6535, 14.0855), (-21.6535, 18.4872), (-21.6535, 14.0855), (-25.5906, 18.4872), (-25.5906, 14.0855), (8.85827, 23.6221), (12.7953, 19.685), (12.7953, 23.6221), (12.7953, 19.685), (8.85827, 23.6221), (4.92126, 19.685), (4.92126, 19.685), (8.85827, 23.6221), (4.92126, 21.6535), (-15.748, 19.685), (-31.4961, 23.6221), (-31.4961, 15.748), (-31.4961, 23.6221), (-15.748, 19.685), (-15.748, 23.6221), (31.4961, 23.6221), (15.748, 19.685), (31.4961, 15.748), (15.748, 19.685), (31.4961, 23.6221), (15.748, 23.6221)] (interpolation = "faceVarying")
        uniform token subdivisionScheme = "none"
        rel material:binding = </Vehicle/Materials/metalRed>
    }
    def Mesh "mesh_metal" {
        int[] faceVertexCounts = [3, 3, 3, 3, 3, 3, 3, 3, 3, 3, 3, 3, 3, 3, 3, 3]
        int[] faceVertexIndices = [32, 101, 22, 101, 32, 97, 101, 21, 22, 21, 101, 98, 21, 98, 27, 27, 97, 32, 27, 98, 95, 27, 95, 97, 70, 112, 69, 112, 70, 114, 114, 70, 78, 114, 78, 111, 111, 78, 109, 109, 78, 77, 112, 77, 69, 77, 112, 109]
        point3f[] points = [(-0.3, 3.15836e-16, -0.825), (-0.3, 0.1, -0.825), (-0.3, 1.91758e-15, 0.475), (-0.3, 0.1, 0.575), (0.3, 0, 0.475), (0.3, 2.03038e-16, -0.825), (0.3, 0.1, -0.825), (0.3, 0.1, 0.575), (-0.4, 0.1, 0.275), (-0.4, 0.1, -0.325), (-0.8, 0.1, 0.275), (-0.8, 0.1, -0.325), (0.8, 0.1, 0.275), (0.8, 0.1, -0.325), (0.4, 0.1, 0.275), (0.4, 0.1, -0.325), (0.4, 0.1, 0.675), (-0.4, 0.1, 0.675), (0.4, 0.1, -0.925), (-0.4, 0.1, -0.925), (0.8, 0.2, -0.325), (0.8, 0.2, -1.225), (0.4, 0.1, -1.225), (0.8, 0.5, -0.325), (0.8, 0.4, -0.325), (0.8, 0.5, -0.125), (0.8, 0.4, -0.625), (0.8, 0.4, -1.225), (0.65, 0.5, -0.125), (0.65, 0.5, -0.325), (0.4, 0.5, -0.925), (0.4, 0.5, -0.625), (0.4, 0.5, -1.225), (0.55, 0.5, -0.325), (0.55, 0.5, -0.125), (0.4, 0.5, -0.325), (0.4, 0.5, -0.125), (0.7, 0.429289, -0.0542893), (0.5, 0.429289, -0.0542893), (0.5, 0.170711, 0.204289), (0.7, 0.170711, 0.204289), (0.15, 0.7, -0.525), (0.15, 0.8, -0.525), (-0.15, 0.7, -0.525), (-0.15, 0.8, -0.525), (0.4, 0.3, 1.175), (0.3, 0.3, 1.175), (0.4, 0.5, 1.175), (0.3, 0.6, 1.175), (0.4, 0.7, 1.175), (-0.3, 0.6, 1.175), (-0.4, 0.7, 1.175), (-0.4, 0.5, 1.175), (-0.4, 0.3, 1.175), (-0.3, 0.3, 1.175), (-0.15, 0.8, 0.475), (-0.15, 0.7, -0.125), (-0.15, 0.7, 0.575), (-0.15, 0.75, 0.575), (0.15, 0.75, 0.575), (0.15, 0.8, 0.475), (-0.4, 0.5, -0.925), (0.15, 0.7, 0.575), (0.4, 0.7, -0.525), (0.4, 0.7, -0.125), (0.15, 0.7, -0.125), (-0.4, 0.7, -0.525), (-0.4, 0.7, -0.125), (-0.8, 0.2, -0.325), (-0.4, 0.1, -1.225), (-0.8, 0.2, -1.225), (-0.3, 0.137139, 0.767848), (0.3, 0.137139, 0.767848), (0.4, 0.6, -0.325), (0.4, 0.6, -0.625), (-0.4, 0.5, -0.625), (-0.8, 0.4, -0.625), (-0.4, 0.5, -1.225), (-0.8, 0.4, -1.225), (-0.8, 0.4, -0.325), (-0.8, 0.5, -0.325), (-0.8, 0.5, -0.125), (-0.5, 0.429289, -0.0542893), (-0.4, 0.5, -0.125), (-0.55, 0.5, -0.125), (-0.7, 0.429289, -0.0542893), (-0.65, 0.5, -0.125), (-0.7, 0.170711, 0.204289), (-0.5, 0.170711, 0.204289), (-0.4, 0.5, -0.325), (-0.55, 0.5, -0.325), (-0.4, 0.6, -0.325), (-0.4, 0.6, -0.625), (-0.65, 0.5, -0.325), (0.75, 0.360961, -1.125), (0.75, 0.360961, -1.225), (0.45, 0.435961, -1.125), (0.45, 0.435961, -1.225), (0.75, 0.239039, -1.225), (0.75, 0.239039, -1.125), (0.5, 0.170711, -0.0542893), (0.45, 0.164039, -1.225), (0.45, 0.164039, -1.125), (0.7, 0.170711, -0.0542893), (0.3, 0.25, 1.175), (-0.3, 0.25, 1.175), (-0.7, 0.170711, -0.0542893), (-0.5, 0.170711, -0.0542893), (-0.45, 0.435961, -1.125), (-0.45, 0.435961, -1.225), (-0.75, 0.360961, -1.125), (-0.75, 0.360961, -1.225), (-0.45, 0.164039, -1.225), (-0.45, 0.164039, -1.125), (-0.75, 0.239039, -1.225), (-0.75, 0.239039, -1.125), (0.3, 0.3, 1.225), (-0.3, 0.3, 1.225), (0.8, 0.6, -0.325), (0.65, 0.6, -0.325), (0.55, 0.6, -0.325), (0.55, 0.6, -0.225), (0.55, 0.55, -0.125), (0.65, 0.6, -0.225), (0.65, 0.55, -0.125), (0.8, 0.6, -0.625), (-0.8, 0.6, -0.325), (-0.65, 0.6, -0.325), (-0.8, 0.6, -0.625), (-0.55, 0.6, -0.325), (-0.55, 0.6, -0.225), (-0.65, 0.6, -0.225), (-0.65, 0.55, -0.125), (-0.55, 0.55, -0.125)]
        normal3f[] normals = [(0, 0, -1), (0, 0, -1), (0, 0, -1), (0, 0, -1), (0, 0, -1), (0, 0, -1), (0, 0, -1), (0, 0, -1), (0, 0, -1), (0, 0, -1), (0, 0, -1), (0, 0, -1), (0, 0, -1), (0, 0, -1), (0, 0, -1), (0, 0, -1), (0, 0, -1), (0, 0, -1), (0, 0, -1), (0, 0, -1), (0, 0, -1), (0, 0, -1), (0, 0, -1), (0, 0, -1), (0, 0, -1), (0, 0, -1), (0, 0, -1), (0, 0, -1), (0, 0, -1), (0, 0, -1), (0, 0, -1), (0, 0, -1), (0, 0, -1), (0, 0, -1), (0, 0, -1), (0, 0, -1), (0, 0, -1), (0, 0, -1), (0, 0, -1), (0, 0, -1), (0, 0, -1), (0, 0, -1), (0, 0, -1), (0, 0, -1), (0, 0, -1), (0, 0, -1), (0, 0, -1), (0, 0, -1)] (interpolation = "faceVarying")
        texCoord2f[] primvars:st = [(-15.748, 19.685), (-17.7165, 6.45822), (-15.748, 3.93701), (-17.7165, 6.45822), (-15.748, 19.685), (-17.7165, 17.1638), (-17.7165, 6.45822), (-31.4961, 7.87402), (-15.748, 3.93701), (-31.4961, 7.87402), (-17.7165, 6.45822), (-29.5276, 9.41098), (-31.4961, 7.87402), (-29.5276, 9.41098), (-31.4961, 15.748), (-31.4961, 15.748), (-17.7165, 17.1638), (-15.748, 19.685), (-31.4961, 15.748), (-29.5276, 9.41098), (-29.5276, 14.2111), (-31.4961, 15.748), (-29.5276, 14.2111), (-17.7165, 17.1638), (31.4961, 7.87402), (17.7165, 6.45822), (15.748, 3.93701), (17.7165, 6.45822), (31.4961, 7.87402), (29.5276, 9.41098), (29.5276, 9.41098), (31.4961, 7.87402), (31.4961, 15.748), (29.5276, 9.41098), (31.4961, 15.748), (29.5276, 14.2111), (29.5276, 14.2111), (31.4961, 15.748), (17.7165, 17.1638), (17.7165, 17.1638), (31.4961, 15.748), (15.748, 19.685), (17.7165, 6.45822), (15.748, 19.685), (15.748, 3.93701), (15.748, 19.685), (17.7165, 6.45822), (17.7165, 17.1638)] (interpolation = "faceVarying")
        uniform token subdivisionScheme = "none"
        rel material:binding = </Vehicle/Materials/metal>
    }
    def Scope "Materials" {
        def Material "metalDark" {
            token outputs:surface.connect = </Vehicle/Materials/metalDark/surface.outputs:surface>
            def Shader "surface" {
                uniform token info:id = "UsdPreviewSurface"
                float inputs:roughness = 0.7
                float inputs:metallic = 0
                color3f inputs:diffuseColor = (0.675062, 0.710022, 0.773585)
                token outputs:surface
            }
        }
        def Material "dark" {
            token outputs:surface.connect = </Vehicle/Materials/dark/surface.outputs:surface>
            def Shader "surface" {
                uniform token info:id = "UsdPreviewSurface"
                float inputs:roughness = 0.7
                float inputs:metallic = 0
                color3f inputs:diffuseColor = (0.27451, 0.298039, 0.341176)
                token outputs:surface
            }
        }
        def Material "metalRed" {
            token outputs:surface.connect = </Vehicle/Materials/metalRed/surface.outputs:surface>
            def Shader "surface" {
                uniform token info:id = "UsdPreviewSurface"
                float inputs:roughness = 0.7
                float inputs:metallic = 0
                color3f inputs:diffuseColor = (1, 0.628524, 0.20283)
                token outputs:surface
            }
        }
        def Material "metal" {
            token outputs:surface.connect = </Vehicle/Materials/metal/surface.outputs:surface>
            def Shader "surface" {
                uniform token info:id = "UsdPreviewSurface"
                float inputs:roughness = 0.7
                float inputs:metallic = 0
                color3f inputs:diffuseColor = (0.843137, 0.870588, 0.909804)
                token outputs:surface
            }
        }
    }
}
