#usda 1.0
(
    defaultPrim = "Vehicle"
    metersPerUnit = 1
    upAxis = "Y"
)
def Xform "Vehicle" {
    def Mesh "mesh_metalRed" {
        int[] faceVertexCounts = [3, 3, 3, 3, 3, 3, 3, 3, 3, 3, 3, 3, 3, 3, 3, 3, 3, 3, 3, 3, 3, 3, 3, 3, 3, 3, 3, 3, 3, 3]
        int[] faceVertexIndices = [2, 1, 0, 3, 1, 2, 1, 3, 4, 7, 6, 5, 6, 7, 8, 9, 7, 5, 8, 10, 6, 10, 8, 11, 6, 10, 12, 15, 14, 13, 14, 15, 16, 17, 15, 13, 15, 17, 18, 21, 20, 19, 20, 21, 22, 15, 23, 16, 18, 23, 15, 22, 23, 18, 21, 23, 22, 23, 21, 24, 16, 25, 14, 25, 16, 26, 20, 27, 19, 27, 20, 28, 28, 20, 17, 28, 17, 14, 14, 17, 13, 3, 30, 29, 30, 3, 2, 30, 31, 29]
        point3f[] points = [(-0.8, 0.2, -0.362835), (-0.8, 0.2, -0.262835), (-1.4, 0.2, -0.362835), (-0.6, 0.2, -0.0628353), (-0.6, 0.2, -0.262835), (0.6, 0, -0.0628353), (0.6, 0.2, -0.0628353), (1.4, 0.1, -0.362835), (1.4, 0.2, -0.362835), (0.6, 0, -0.312835), (0.8, 0.2, -0.262835), (0.8, 0.2, -0.362835), (0.6, 0.2, -0.262835), (0.2, 0.0834482, 0.962835), (0.2, 0, 0.437165), (-0.2, 0.0834482, 0.962835), (-0.2, 0, 0.437165), (0.2, 0.166897, 0.962835), (-0.2, 0.166897, 0.962835), (0.2, 0.6, 0.0371647), (0.2, 0.59005, 0.236669), (-0.2, 0.6, 0.0371647), (-0.2, 0.59005, 0.236669), (-0.2, 0.4, 0.437165), (-0.2, 0.4, 0.0371647), (0.2, 0, 0.0371647), (-0.2, 0, 0.0371647), (0.2, 0.4, 0.0371647), (0.2, 0.4, 0.437165), (-0.6, 0, -0.0628353), (-1.4, 0.1, -0.362835), (-0.6, 0, -0.312835), (-0.6, 0.3, -0.262835), (-0.6, 0.4, -0.162835), (-0.6, 0.4, 0.0371647), (-0.6, 0, 0.0371647), (-0.6, 0.3, -0.362835), (-0.6, 0.4, -0.562835), (-0.6, 0.2, -0.362835), (-0.6, 0.2, -0.562835), (-0.6, 0.5, -0.562835), (-0.6, 0.1, -0.562835), (-0.6, 0.6, -0.862835), (-0.6, 0.6, -0.962835), (-0.6, 0.1, -0.962835), (0.2, 0.4, -0.762835), (0.2, 0.5, -0.562835), (-0.2, 0.4, -0.762835), (0.2, 0.6, -0.362835), (-0.2, 0.6, -0.362835), (-0.2, 0.5, -0.562835), (0.8, 0.25, -0.362835), (0.8, 0.25, -0.262835), (0.6, 0.2, -0.362835), (0.6, 0.3, -0.362835), (0.7, 0.3, -0.362835), (0.7, 0.3, -0.262835), (-0.8, 0.25, -0.262835), (-0.7, 0.3, -0.262835), (-0.7, 0.3, -0.362835), (-0.8, 0.25, -0.362835), (0.6, 0.6, -0.862835), (0.6, 0.5, -0.562835), (0.2, 0.6, -0.862835), (0.6, 0.6, -0.962835), (0.2, 0.6, -0.962835), (0.6, 0.1, -0.562835), (0.6, 0.1, -0.962835), (0.2, 0.1, -0.562835), (0.2, 0.1, -0.962835), (0.2, 0.1, -0.762835), (0.6, 0.3, -0.262835), (0.6, 0, 0.0371647), (0.529289, 0.3, 0.107875), (0.6, 0.4, 0.0371647), (0.270711, 0.3, 0.366454), (0.270711, 0.1, 0.366454), (0.529289, 0.1, 0.107875), (-0.6, 0, -0.562835), (-0.2, 0, -0.562835), (0.2, 0, -0.762835), (0.2, 0, -0.562835), (0.6, 0, -0.562835), (-0.2, 0, -0.762835), (-0.2, 0.1, -0.762835), (0.6, 0.4, -0.562835), (0.6, 0.2, -0.562835), (0.6, 0.4, -0.162835), (-0.2, 0.1, -0.562835), (-0.2, 0.1, -0.962835), (0.35, 0.4, -0.162835), (0.35, 0.4, 0.0371647), (0.2, 0.4, -0.162835), (0.45, 0.4, 0.0371647), (0.45, 0.4, -0.162835), (-0.2, 0.6, -0.862835), (-0.2, 0.6, -0.962835), (0.2, 0.5, -0.162835), (-0.529289, 0.1, 0.107875), (-0.270711, 0.1, 0.366454), (-0.270711, 0.3, 0.366454), (-0.529289, 0.3, 0.107875), (-0.2, 0.4, -0.162835), (-0.2, 0.5, -0.162835), (-0.45, 0.4, -0.162835), (-0.45, 0.4, 0.0371647), (-0.35, 0.4, 0.0371647), (-0.35, 0.4, -0.162835), (-0.45, 0.5, -0.162835), (-0.6, 0.5, -0.162835), (0.6, 0.5, -0.162835), (0.45, 0.5, -0.162835), (0.35, 0.5, -0.162835), (0.35, 0.5, -0.0628353), (0.45, 0.5, -0.0628353), (1.4, 0.1, -0.562835), (1.4, 0.2, -0.562835), (0.3, 0.2, -0.962835), (0.3, 0.5, -0.962835), (0.5, 0.5, -0.962835), (0.5, 0.2, -0.962835), (0.35, 0.45, 0.0371647), (0.45, 0.45, 0.0371647), (-0.5, 0.2, -0.962835), (-0.5, 0.5, -0.962835), (-0.3, 0.5, -0.962835), (-0.3, 0.2, -0.962835), (-0.45, 0.5, -0.0628353), (-0.45, 0.45, 0.0371647), (-0.35, 0.5, -0.0628353), (-0.35, 0.45, 0.0371647), (-0.35, 0.5, -0.162835), (-1.4, 0.1, -0.562835), (-1.4, 0.2, -0.562835), (0.5, 0.2, -0.762835), (0.3, 0.2, -0.762835), (0.3, 0.5, -0.762835), (0.5, 0.5, -0.762835), (0.270711, 0.1, 0.107875), (0.1, 0.45, 0.737165), (-0.0999999, 0.45, 0.737165), (0.270711, 0.3, 0.107875), (-0.5, 0.2, -0.762835), (-0.3, 0.2, -0.762835), (-0.5, 0.5, -0.762835), (-0.3, 0.5, -0.762835), (-0.270711, 0.3, 0.107875), (-0.270711, 0.1, 0.107875)]
        normal3f[] normals = [(0, 1, 0), (0, 1, 0), (0, 1, 0), (0, 1, 0), (0, 1, 0), (0, 1, 0), (0, 1, 0), (0, 1, 0), (0, 1, 0), (0.351123, 0, 0.936329), (0.351123, 0, 0.936329), (0.351123, 0, 0.936329), (0.351123, 0, 0.936329), (0.351123, 0, 0.936329), (0.351123, 0, 0.936329), (0.124035, -0.992278, 0), (0.124035, -0.992278, 0), (0.124035, -0.992278, 0), (0, 1, 0), (0, 1, 0), (0, 1, 0), (0, 1, 0), (0, 1, 0), (0, 1, 0), (0, 1, 0), (0, 1, 0), (0, 1, 0), (0, -0.987633, 0.156783), (0, -0.987633, 0.156783), (0, -0.987633, 0.156783), (0, -0.987633, 0.156783), (0, -0.987633, 0.156783), (0, -0.987633, 0.156783), (0, 0, 1), (0, 0, 1), (0, 0, 1), (0, 0, 1), (0, 0, 1), (0, 0, 1), (0, 0.998759, 0.0498137), (0, 0.998759, 0.0498137), (0, 0.998759, 0.0498137), (0, 0.998759, 0.0498137), (0, 0.998759, 0.0498137), (0, 0.998759, 0.0498137), (-1, 0, 0), (-1, 0, 0), (-1, 0, 0), (-1, 0, 0), (-1, 0, 0), (-1, 0, 0), (-1, 0, 0), (-1, 0, 0), (-1, 0, 0), (-1, 0, 0), (-1, 0, 0), (-1, 0, 0), (-1, 0, 0), (-1, 0, 0), (-1, 0, 0), (0, -1, 0), (0, -1, 0), (0, -1, 0), (0, -1, 0), (0, -1, 0), (0, -1, 0), (1, 0, 0), (1, 0, 0), (1, 0, 0), (1, 0, 0), (1, 0, 0), (1, 0, 0), (1, 0, 0), (1, 0, 0), (1, 0, 0), (1, 0, 0), (1, 0, 0), (1, 0, 0), (1, 0, 0), (1, 0, 0), (1, 0, 0), (-0.351123, 0, 0.936329), (-0.351123, 0, 0.936329), (-0.351123, 0, 0.936329), (-0.351123, 0, 0.936329), (-0.351123, 0, 0.936329), (-0.351123, 0, 0.936329), (-0.124035, -0.992278, 0), (-0.124035, -0.992278, 0), (-0.124035, -0.992278, 0)] (interpolation = "faceVarying")
        texCoord2f[] primvars:st = [(55.1181, -14.2849), (31.4961, -10.3478), (31.4961, -14.2849), (23.6221, -2.47383), (31.4961, -10.3478), (55.1181, -14.2849), (31.4961, -10.3478), (23.6221, -2.47383), (23.6221, -10.3478), (56.6244, 3.93701), (22.9866, 7.87402), (22.9866, -5.2973e-16), (22.9866, 7.87402), (56.6244, 3.93701), (56.6244, 7.87402), (12.3163, 23.4396), (14.2849, 55.1808), (2.47383, 23.4396), (-55.1181, -14.2849), (-31.4961, -10.3478), (-23.6221, -2.47383), (-31.4961, -10.3478), (-55.1181, -14.2849), (-31.4961, -14.2849), (-23.6221, -2.47383), (-31.4961, -10.3478), (-23.6221, -10.3478), (-7.87402, 37.9532), (7.87402, 16.9984), (7.87402, 37.9532), (7.87402, 16.9984), (-7.87402, 37.9532), (-7.87402, 16.9984), (7.87402, 6.57073), (-7.87402, 3.28536), (7.87402, 3.28536), (-7.87402, 3.28536), (7.87402, 6.57073), (-7.87402, 6.57073), (-7.87402, -0.284659), (7.87402, -8.1489), (7.87402, -0.284659), (7.87402, -8.1489), (-7.87402, -0.284659), (-7.87402, -8.1489), (37.9069, 3.28536), (17.2112, 15.748), (17.2112, 1.7194e-14), (37.9069, 6.57073), (17.2112, 15.748), (37.9069, 3.28536), (9.31766, 23.2303), (17.2112, 15.748), (37.9069, 6.57073), (1.46318, 23.6221), (17.2112, 15.748), (9.31766, 23.2303), (17.2112, 15.748), (1.46318, 23.6221), (1.46318, 15.748), (-7.87402, 17.2112), (7.87402, 1.46318), (7.87402, 17.2112), (7.87402, 1.46318), (-7.87402, 17.2112), (-7.87402, 1.46318), (-9.31766, 23.2303), (-1.46318, 15.748), (-1.46318, 23.6221), (-1.46318, 15.748), (-9.31766, 23.2303), (-17.2112, 15.748), (-17.2112, 15.748), (-9.31766, 23.2303), (-37.9069, 6.57073), (-17.2112, 15.748), (-37.9069, 6.57073), (-17.2112, 0), (-17.2112, 0), (-37.9069, 6.57073), (-37.9069, 3.28536), (-22.9866, 7.87402), (-56.6244, 3.93701), (-22.9866, -6.46271e-14), (-56.6244, 3.93701), (-22.9866, 7.87402), (-56.6244, 7.87402), (-14.2849, 55.1808), (-12.3163, 23.4396), (-2.47383, 23.4396)] (interpolation = "faceVarying")
        uniform token subdivisionScheme = "none"
        rel material:binding = </Vehicle/Materials/metalRed>
    }
    def Mesh "mesh_metalDark" {
        int[] faceVertexCounts = [3, 3, 3, 3, 3, 3, 3, 3, 3, 3, 3, 3, 3, 3, 3, 3, 3, 3, 3, 3, 3, 3, 3, 3, 3, 3, 3, 3, 3, 3, 3, 3, 3, 3, 3, 3, 3, 3, 3, 3, 3, 3, 3, 3, 3, 3, 3, 3, 3, 3, 3, 3, 3, 3, 3, 3, 3, 3, 3, 3, 3, 3, 3, 3, 3, 3, 3, 3, 3, 3, 3, 3, 3, 3, 3, 3, 3, 3, 3, 3, 3, 3, 3, 3, 3, 3, 3, 3, 3, 3, 3, 3, 3, 3, 3, 3, 3, 3, 3, 3, 3, 3, 3, 3, 3, 3, 3, 3, 3, 3, 3, 3, 3, 3, 3, 3, 3, 3, 3, 3, 3, 3, 3, 3, 3, 3, 3, 3, 3, 3, 3, 3, 3, 3, 3, 3, 3, 3, 3, 3, 3, 3, 3, 3]
        int[] faceVertexIndices = [3, 32, 4, 32, 3, 33, 33, 3, 34, 34, 3, 29, 34, 29, 35, 33, 36, 32, 37, 36, 33, 37, 38, 36, 38, 37, 39, 40, 39, 37, 40, 41, 39, 42, 41, 40, 43, 41, 42, 41, 43, 44, 47, 46, 45, 46, 47, 48, 48, 47, 49, 49, 47, 50, 52, 11, 51, 11, 52, 10, 54, 11, 53, 11, 54, 51, 51, 54, 55, 55, 52, 51, 52, 55, 56, 32, 1, 4, 1, 32, 57, 57, 32, 58, 60, 58, 59, 58, 60, 57, 63, 62, 61, 62, 63, 46, 65, 61, 64, 61, 65, 63, 68, 67, 66, 67, 68, 69, 69, 68, 70, 59, 32, 36, 32, 59, 58, 54, 56, 55, 56, 54, 71, 52, 12, 10, 12, 52, 71, 71, 52, 56, 74, 73, 72, 73, 74, 28, 73, 28, 75, 75, 28, 76, 77, 72, 73, 72, 77, 14, 14, 77, 76, 14, 76, 28, 70, 65, 69, 65, 70, 63, 63, 70, 45, 63, 45, 46, 1, 60, 0, 60, 1, 57, 35, 26, 16, 78, 26, 35, 79, 26, 78, 80, 26, 79, 81, 26, 80, 81, 25, 26, 81, 14, 25, 82, 14, 81, 9, 14, 82, 5, 14, 9, 14, 5, 72, 78, 35, 29, 78, 29, 31, 83, 80, 79, 49, 19, 48, 19, 49, 21, 84, 80, 83, 80, 84, 70, 70, 84, 47, 70, 47, 45, 61, 67, 64, 67, 61, 66, 66, 61, 62, 66, 62, 85, 66, 85, 86, 87, 86, 85, 86, 87, 54, 54, 87, 71, 71, 87, 12, 12, 87, 6, 6, 87, 74, 6, 74, 5, 5, 74, 72, 53, 86, 54, 68, 82, 81, 82, 68, 66, 68, 80, 70, 80, 68, 81, 41, 84, 88, 84, 41, 89, 89, 41, 44, 92, 91, 90, 28, 91, 92, 28, 93, 91, 74, 93, 28, 74, 94, 93, 94, 74, 87, 28, 92, 27, 60, 38, 0, 38, 60, 36, 36, 60, 59, 50, 47, 95, 84, 95, 47, 89, 95, 84, 95, 89, 96, 43, 95, 96, 95, 43, 42, 48, 97, 46, 97, 48, 19, 97, 19, 92, 92, 19, 27, 42, 50, 95, 50, 42, 40, 79, 84, 83, 84, 79, 88, 35, 98, 34, 98, 35, 16, 98, 16, 99, 99, 16, 100, 101, 34, 98, 34, 101, 23, 23, 101, 100, 23, 100, 16, 41, 79, 78, 79, 41, 88, 24, 103, 102, 21, 103, 24, 49, 103, 21, 103, 49, 50, 33, 105, 104, 34, 105, 33, 34, 106, 105, 23, 106, 34, 23, 107, 106, 24, 107, 23, 107, 24, 102]
        point3f[] points = [(-0.8, 0.2, -0.362835), (-0.8, 0.2, -0.262835), (-1.4, 0.2, -0.362835), (-0.6, 0.2, -0.0628353), (-0.6, 0.2, -0.262835), (0.6, 0, -0.0628353), (0.6, 0.2, -0.0628353), (1.4, 0.1, -0.362835), (1.4, 0.2, -0.362835), (0.6, 0, -0.312835), (0.8, 0.2, -0.262835), (0.8, 0.2, -0.362835), (0.6, 0.2, -0.262835), (0.2, 0.0834482, 0.962835), (0.2, 0, 0.437165), (-0.2, 0.0834482, 0.962835), (-0.2, 0, 0.437165), (0.2, 0.166897, 0.962835), (-0.2, 0.166897, 0.962835), (0.2, 0.6, 0.0371647), (0.2, 0.59005, 0.236669), (-0.2, 0.6, 0.0371647), (-0.2, 0.59005, 0.236669), (-0.2, 0.4, 0.437165), (-0.2, 0.4, 0.0371647), (0.2, 0, 0.0371647), (-0.2, 0, 0.0371647), (0.2, 0.4, 0.0371647), (0.2, 0.4, 0.437165), (-0.6, 0, -0.0628353), (-1.4, 0.1, -0.362835), (-0.6, 0, -0.312835), (-0.6, 0.3, -0.262835), (-0.6, 0.4, -0.162835), (-0.6, 0.4, 0.0371647), (-0.6, 0, 0.0371647), (-0.6, 0.3, -0.362835), (-0.6, 0.4, -0.562835), (-0.6, 0.2, -0.362835), (-0.6, 0.2, -0.562835), (-0.6, 0.5, -0.562835), (-0.6, 0.1, -0.562835), (-0.6, 0.6, -0.862835), (-0.6, 0.6, -0.962835), (-0.6, 0.1, -0.962835), (0.2, 0.4, -0.762835), (0.2, 0.5, -0.562835), (-0.2, 0.4, -0.762835), (0.2, 0.6, -0.362835), (-0.2, 0.6, -0.362835), (-0.2, 0.5, -0.562835), (0.8, 0.25, -0.362835), (0.8, 0.25, -0.262835), (0.6, 0.2, -0.362835), (0.6, 0.3, -0.362835), (0.7, 0.3, -0.362835), (0.7, 0.3, -0.262835), (-0.8, 0.25, -0.262835), (-0.7, 0.3, -0.262835), (-0.7, 0.3, -0.362835), (-0.8, 0.25, -0.362835), (0.6, 0.6, -0.862835), (0.6, 0.5, -0.562835), (0.2, 0.6, -0.862835), (0.6, 0.6, -0.962835), (0.2, 0.6, -0.962835), (0.6, 0.1, -0.562835), (0.6, 0.1, -0.962835), (0.2, 0.1, -0.562835), (0.2, 0.1, -0.962835), (0.2, 0.1, -0.762835), (0.6, 0.3, -0.262835), (0.6, 0, 0.0371647), (0.529289, 0.3, 0.107875), (0.6, 0.4, 0.0371647), (0.270711, 0.3, 0.366454), (0.270711, 0.1, 0.366454), (0.529289, 0.1, 0.107875), (-0.6, 0, -0.562835), (-0.2, 0, -0.562835), (0.2, 0, -0.762835), (0.2, 0, -0.562835), (0.6, 0, -0.562835), (-0.2, 0, -0.762835), (-0.2, 0.1, -0.762835), (0.6, 0.4, -0.562835), (0.6, 0.2, -0.562835), (0.6, 0.4, -0.162835), (-0.2, 0.1, -0.562835), (-0.2, 0.1, -0.962835), (0.35, 0.4, -0.162835), (0.35, 0.4, 0.0371647), (0.2, 0.4, -0.162835), (0.45, 0.4, 0.0371647), (0.45, 0.4, -0.162835), (-0.2, 0.6, -0.862835), (-0.2, 0.6, -0.962835), (0.2, 0.5, -0.162835), (-0.529289, 0.1, 0.107875), (-0.270711, 0.1, 0.366454), (-0.270711, 0.3, 0.366454), (-0.529289, 0.3, 0.107875), (-0.2, 0.4, -0.162835), (-0.2, 0.5, -0.162835), (-0.45, 0.4, -0.162835), (-0.45, 0.4, 0.0371647), (-0.35, 0.4, 0.0371647), (-0.35, 0.4, -0.162835), (-0.45, 0.5, -0.162835), (-0.6, 0.5, -0.162835), (0.6, 0.5, -0.162835), (0.45, 0.5, -0.162835), (0.35, 0.5, -0.162835), (0.35, 0.5, -0.0628353), (0.45, 0.5, -0.0628353), (1.4, 0.1, -0.562835), (1.4, 0.2, -0.562835), (0.3, 0.2, -0.962835), (0.3, 0.5, -0.962835), (0.5, 0.5, -0.962835), (0.5, 0.2, -0.962835), (0.35, 0.45, 0.0371647), (0.45, 0.45, 0.0371647), (-0.5, 0.2, -0.962835), (-0.5, 0.5, -0.962835), (-0.3, 0.5, -0.962835), (-0.3, 0.2, -0.962835), (-0.45, 0.5, -0.0628353), (-0.45, 0.45, 0.0371647), (-0.35, 0.5, -0.0628353), (-0.35, 0.45, 0.0371647), (-0.35, 0.5, -0.162835), (-1.4, 0.1, -0.562835), (-1.4, 0.2, -0.562835), (0.5, 0.2, -0.762835), (0.3, 0.2, -0.762835), (0.3, 0.5, -0.762835), (0.5, 0.5, -0.762835), (0.270711, 0.1, 0.107875), (0.1, 0.45, 0.737165), (-0.0999999, 0.45, 0.737165), (0.270711, 0.3, 0.107875), (-0.5, 0.2, -0.762835), (-0.3, 0.2, -0.762835), (-0.5, 0.5, -0.762835), (-0.3, 0.5, -0.762835), (-0.270711, 0.3, 0.107875), (-0.270711, 0.1, 0.107875)]
        normal3f[] normals = [(-1, 0, 0), (-1, 0, 0), (-1, 0, 0), (-1, 0, 0), (-1, 0, 0), (-1, 0, 0), (-1, 0, 0), (-1, 0, 0), (-1, 0, 0), (-1, 0, 0), (-1, 0, 0), (-1, 0, 0), (-1, 0, 0), (-1, 0, 0), (-1, 0, 0), (-1, 0, 0), (-1, 0, 0), (-1, 0, 0), (-1, 0, 0), (-1, 0, 0), (-1, 0, 0), (-1, 0, 0), (-1, 0, 0), (-1, 0, 0), (-1, 0, 0), (-1, 0, 0), (-1, 0, 0), (-1, 0, 0), (-1, 0, 0), (-1, 0, 0), (-1, 0, 0), (-1, 0, 0), (-1, 0, 0), (-1, 0, 0), (-1, 0, 0), (-1, 0, 0), (-1, 0, 0), (-1, 0, 0), (-1, 0, 0), (-1, 0, 0), (-1, 0, 0), (-1, 0, 0), (0, 0.894427, -0.447214), (0, 0.894427, -0.447214), (0, 0.894427, -0.447214), (0, 0.894427, -0.447214), (0, 0.894427, -0.447214), (0, 0.894427, -0.447214), (0, 0.894427, -0.447214), (0, 0.894427, -0.447214), (0, 0.894427, -0.447214), (0, 0.894427, -0.447214), (0, 0.894427, -0.447214), (0, 0.894427, -0.447214), (1, 0, 0), (1, 0, 0), (1, 0, 0), (1, 0, 0), (1, 0, 0), (1, 0, 0), (0, 0, -1), (0, 0, -1), (0, 0, -1), (0, 0, -1), (0, 0, -1), (0, 0, -1), (0, 0, -1), (0, 0, -1), (0, 0, -1), (0.447214, 0.894427, 0), (0.447214, 0.894427, 0), (0.447214, 0.894427, 0), (0.447214, 0.894427, 0), (0.447214, 0.894427, 0), (0.447214, 0.894427, 0), (0, 0, 1), (0, 0, 1), (0, 0, 1), (0, 0, 1), (0, 0, 1), (0, 0, 1), (0, 0, 1), (0, 0, 1), (0, 0, 1), (-0.447214, 0.894427, 0), (-0.447214, 0.894427, 0), (-0.447214, 0.894427, 0), (-0.447214, 0.894427, 0), (-0.447214, 0.894427, 0), (-0.447214, 0.894427, 0), (0, 0.948683, 0.316228), (0, 0.948683, 0.316228), (0, 0.948683, 0.316228), (0, 0.948683, 0.316228), (0, 0.948683, 0.316228), (0, 0.948683, 0.316228), (0, 1, 0), (0, 1, 0), (0, 1, 0), (0, 1, 0), (0, 1, 0), (0, 1, 0), (0, -1, 0), (0, -1, 0), (0, -1, 0), (0, -1, 0), (0, -1, 0), (0, -1, 0), (0, -1, 0), (0, -1, 0), (0, -1, 0), (0, 1, 0), (0, 1, 0), (0, 1, 0), (0, 1, 0), (0, 1, 0), (0, 1, 0), (0, 1, 0), (0, 1, 0), (0, 1, 0), (0, 1, 0), (0, 1, 0), (0, 1, 0), (0, 0, 1), (0, 0, 1), (0, 0, 1), (0, 0, 1), (0, 0, 1), (0, 0, 1), (0, 0, 1), (0, 0, 1), (0, 0, 1), (0.707107, 0, 0.707107), (0.707107, 0, 0.707107), (0.707107, 0, 0.707107), (0.707107, 0, 0.707107), (0.707107, 0, 0.707107), (0.707107, 0, 0.707107), (0.707107, 0, 0.707107), (0.707107, 0, 0.707107), (0.707107, 0, 0.707107), (0.707107, 0, 0.707107), (0.707107, 0, 0.707107), (0.707107, 0, 0.707107), (0.707107, 0, 0.707107), (0.707107, 0, 0.707107), (0.707107, 0, 0.707107), (0.707107, 0, 0.707107), (0.707107, 0, 0.707107), (0.707107, 0, 0.707107), (0.707107, 0, 0.707107), (0.707107, 0, 0.707107), (0.707107, 0, 0.707107), (0.707107, 0, 0.707107), (0.707107, 0, 0.707107), (0.707107, 0, 0.707107), (-1, 0, 0), (-1, 0, 0), (-1, 0, 0), (-1, 0, 0), (-1, 0, 0), (-1, 0, 0), (-1, 0, 0), (-1, 0, 0), (-1, 0, 0), (-1, 0, 0), (-1, 0, 0), (-1, 0, 0), (-1, 0, 0), (-1, 0, 0), (-1, 0, 0), (-1, 0, 0), (-1, 0, 0), (-1, 0, 0), (0, -1, 0), (0, -1, 0), (0, -1, 0), (0, -1, 0), (0, -1, 0), (0, -1, 0), (0, -1, 0), (0, -1, 0), (0, -1, 0), (0, -1, 0), (0, -1, 0), (0, -1, 0), (0, -1, 0), (0, -1, 0), (0, -1, 0), (0, -1, 0), (0, -1, 0), (0, -1, 0), (0, -1, 0), (0, -1, 0), (0, -1, 0), (0, -1, 0), (0, -1, 0), (0, -1, 0), (0, -1, 0), (0, -1, 0), (0, -1, 0), (0, -1, 0), (0, -1, 0), (0, -1, 0), (0, -1, 0), (0, -1, 0), (0, -1, 0), (0, -1, 0), (0, -1, 0), (0, -1, 0), (0, -1, 0), (0, -1, 0), (0, -1, 0), (0, -1, 0), (0, -1, 0), (0, -1, 0), (0, 1, 0), (0, 1, 0), (0, 1, 0), (0, 1, 0), (0, 1, 0), (0, 1, 0), (0, 0, -1), (0, 0, -1), (0, 0, -1), (0, 0, -1), (0, 0, -1), (0, 0, -1), (0, 0, -1), (0, 0, -1), (0, 0, -1), (0, 0, -1), (0, 0, -1), (0, 0, -1), (1, 0, 0), (1, 0, 0), (1, 0, 0), (1, 0, 0), (1, 0, 0), (1, 0, 0), (1, 0, 0), (1, 0, 0), (1, 0, 0), (1, 0, 0), (1, 0, 0), (1, 0, 0), (1, 0, 0), (1, 0, 0), (1, 0, 0), (1, 0, 0), (1, 0, 0), (1, 0, 0), (1, 0, 0), (1, 0, 0), (1, 0, 0), (1, 0, 0), (1, 0, 0), (1, 0, 0), (1, 0, 0), (1, 0, 0), (1, 0, 0), (1, 0, 0), (1, 0, 0), (1, 0, 0), (1, 0, 0), (1, 0, 0), (1, 0, 0), (1, 0, 0), (1, 0, 0), (1, 0, 0), (1, 0, 0), (1, 0, 0), (1, 0, 0), (1, 0, 0), (1, 0, 0), (1, 0, 0), (0, 0, -1), (0, 0, -1), (0, 0, -1), (0, 0, -1), (0, 0, -1), (0, 0, -1), (1, 0, 0), (1, 0, 0), (1, 0, 0), (1, 0, 0), (1, 0, 0), (1, 0, 0), (0, -1, 0), (0, -1, 0), (0, -1, 0), (0, -1, 0), (0, -1, 0), (0, -1, 0), (0, -1, 0), (0, -1, 0), (0, -1, 0), (0, 1, 0), (0, 1, 0), (0, 1, 0), (0, 1, 0), (0, 1, 0), (0, 1, 0), (0, 1, 0), (0, 1, 0), (0, 1, 0), (0, 1, 0), (0, 1, 0), (0, 1, 0), (0, 1, 0), (0, 1, 0), (0, 1, 0), (0, 1, 0), (0, 1, 0), (0, 1, 0), (0, 1, 0), (0, 1, 0), (0, 1, 0), (0, 0, -1), (0, 0, -1), (0, 0, -1), (0, 0, -1), (0, 0, -1), (0, 0, -1), (0, 0, -1), (0, 0, -1), (0, 0, -1), (1, 0, 0), (1, 0, 0), (1, 0, 0), (1, 0, 0), (1, 0, 0), (1, 0, 0), (1, 0, 0), (1, 0, 0), (1, 0, 0), (1, 0, 0), (1, 0, 0), (1, 0, 0), (0, 1, 0), (0, 1, 0), (0, 1, 0), (0, 1, 0), (0, 1, 0), (0, 1, 0), (1, 0, 0), (1, 0, 0), (1, 0, 0), (1, 0, 0), (1, 0, 0), (1, 0, 0), (1, 0, 0), (1, 0, 0), (1, 0, 0), (1, 0, 0), (1, 0, 0), (1, 0, 0), (0, 0.948683, 0.316228), (0, 0.948683, 0.316228), (0, 0.948683, 0.316228), (0, 0.948683, 0.316228), (0, 0.948683, 0.316228), (0, 0.948683, 0.316228), (-1, 0, 0), (-1, 0, 0), (-1, 0, 0), (-1, 0, 0), (-1, 0, 0), (-1, 0, 0), (-0.707107, 0, 0.707107), (-0.707107, 0, 0.707107), (-0.707107, 0, 0.707107), (-0.707107, 0, 0.707107), (-0.707107, 0, 0.707107), (-0.707107, 0, 0.707107), (-0.707107, 0, 0.707107), (-0.707107, 0, 0.707107), (-0.707107, 0, 0.707107), (-0.707107, 0, 0.707107), (-0.707107, 0, 0.707107), (-0.707107, 0, 0.707107), (-0.707107, 0, 0.707107), (-0.707107, 0, 0.707107), (-0.707107, 0, 0.707107), (-0.707107, 0, 0.707107), (-0.707107, 0, 0.707107), (-0.707107, 0, 0.707107), (-0.707107, 0, 0.707107), (-0.707107, 0, 0.707107), (-0.707107, 0, 0.707107), (-0.707107, 0, 0.707107), (-0.707107, 0, 0.707107), (-0.707107, 0, 0.707107), (0, 0, -1), (0, 0, -1), (0, 0, -1), (0, 0, -1), (0, 0, -1), (0, 0, -1), (-1, 0, 0), (-1, 0, 0), (-1, 0, 0), (-1, 0, 0), (-1, 0, 0), (-1, 0, 0), (-1, 0, 0), (-1, 0, 0), (-1, 0, 0), (-1, 0, 0), (-1, 0, 0), (-1, 0, 0), (0, 1, 0), (0, 1, 0), (0, 1, 0), (0, 1, 0), (0, 1, 0), (0, 1, 0), (0, 1, 0), (0, 1, 0), (0, 1, 0), (0, 1, 0), (0, 1, 0), (0, 1, 0), (0, 1, 0), (0, 1, 0), (0, 1, 0), (0, 1, 0), (0, 1, 0), (0, 1, 0), (0, 1, 0), (0, 1, 0), (0, 1, 0)] (interpolation = "faceVarying")
        texCoord2f[] primvars:st = [(-2.47383, 7.87402), (-10.3478, 11.811), (-10.3478, 7.87402), (-10.3478, 11.811), (-2.47383, 7.87402), (-6.41084, 15.748), (-6.41084, 15.748), (-2.47383, 7.87402), (1.46318, 15.748), (1.46318, 15.748), (-2.47383, 7.87402), (-2.47383, 0), (1.46318, 15.748), (-2.47383, 0), (1.46318, 0), (-6.41084, 15.748), (-14.2849, 11.811), (-10.3478, 11.811), (-22.1589, 15.748), (-14.2849, 11.811), (-6.41084, 15.748), (-22.1589, 15.748), (-14.2849, 7.87402), (-14.2849, 11.811), (-14.2849, 7.87402), (-22.1589, 15.748), (-22.1589, 7.87402), (-22.1589, 19.685), (-22.1589, 7.87402), (-22.1589, 15.748), (-22.1589, 19.685), (-22.1589, 3.93701), (-22.1589, 7.87402), (-33.9699, 23.6221), (-22.1589, 3.93701), (-22.1589, 19.685), (-37.9069, 23.6221), (-22.1589, 3.93701), (-33.9699, 23.6221), (-22.1589, 3.93701), (-37.9069, 23.6221), (-37.9069, 3.93701), (7.87402, -19.8195), (-7.87402, -11.0161), (-7.87402, -19.8195), (-7.87402, -11.0161), (7.87402, -19.8195), (-7.87402, -2.21266), (-7.87402, -2.21266), (7.87402, -19.8195), (7.87402, -2.21266), (7.87402, -2.21266), (7.87402, -19.8195), (7.87402, -11.0161), (10.3478, 9.84252), (14.2849, 7.87402), (14.2849, 9.84252), (14.2849, 7.87402), (10.3478, 9.84252), (10.3478, 7.87402), (-23.6221, 11.811), (-31.4961, 7.87402), (-23.6221, 7.87402), (-31.4961, 7.87402), (-23.6221, 11.811), (-31.4961, 9.84252), (-31.4961, 9.84252), (-23.6221, 11.811), (-27.5591, 11.811), (14.2849, -19.3675), (10.3478, -23.7692), (14.2849, -23.7692), (10.3478, -23.7692), (14.2849, -19.3675), (10.3478, -19.3675), (-23.6221, 11.811), (-31.4961, 7.87402), (-23.6221, 7.87402), (-31.4961, 7.87402), (-23.6221, 11.811), (-31.4961, 9.84252), (-31.4961, 9.84252), (-23.6221, 11.811), (-27.5591, 11.811), (-14.2849, -23.7692), (-10.3478, -19.3675), (-14.2849, -19.3675), (-10.3478, -19.3675), (-14.2849, -23.7692), (-10.3478, -23.7692), (7.87402, 39.6966), (23.6221, 27.2467), (23.6221, 39.6966), (23.6221, 27.2467), (7.87402, 39.6966), (7.87402, 27.2467), (-7.87402, -37.9069), (-23.6221, -33.9699), (-23.6221, -37.9069), (-23.6221, -33.9699), (-7.87402, -37.9069), (-7.87402, -33.9699), (7.87402, -22.1589), (23.6221, -37.9069), (23.6221, -22.1589), (23.6221, -37.9069), (7.87402, -22.1589), (7.87402, -37.9069), (7.87402, -37.9069), (7.87402, -22.1589), (7.87402, -30.0329), (27.5591, -14.2849), (23.6221, -10.3478), (23.6221, -14.2849), (23.6221, -10.3478), (27.5591, -14.2849), (27.5591, -10.3478), (-23.6221, -14.2849), (-27.5591, -10.3478), (-27.5591, -14.2849), (-27.5591, -10.3478), (-23.6221, -14.2849), (-23.6221, -10.3478), (31.4961, 9.84252), (23.6221, 7.87402), (31.4961, 7.87402), (23.6221, 7.87402), (31.4961, 9.84252), (23.6221, 11.811), (23.6221, 11.811), (31.4961, 9.84252), (27.5591, 11.811), (15.6687, 15.748), (11.7317, 11.811), (15.6687, 0), (11.7317, 11.811), (15.6687, 15.748), (-6.60239, 15.748), (11.7317, 11.811), (-6.60239, 15.748), (-2.66539, 11.811), (-2.66539, 11.811), (-6.60239, 15.748), (-2.66539, 3.93701), (11.7317, 3.93701), (15.6687, 0), (11.7317, 11.811), (15.6687, 0), (11.7317, 3.93701), (-6.60239, 0), (-6.60239, 0), (11.7317, 3.93701), (-2.66539, 3.93701), (-6.60239, 0), (-2.66539, 3.93701), (-6.60239, 15.748), (-30.0329, 3.93701), (-37.9069, 23.6221), (-37.9069, 3.93701), (-37.9069, 23.6221), (-30.0329, 3.93701), (-33.9699, 23.6221), (-33.9699, 23.6221), (-30.0329, 3.93701), (-30.0329, 15.748), (-33.9699, 23.6221), (-30.0329, 15.748), (-22.1589, 19.685), (-10.3478, 7.87402), (-14.2849, 9.84252), (-14.2849, 7.87402), (-14.2849, 9.84252), (-10.3478, 7.87402), (-10.3478, 9.84252), (-23.6221, 1.46318), (-7.87402, 1.46318), (-7.87402, 17.2112), (-23.6221, -22.1589), (-7.87402, 1.46318), (-23.6221, 1.46318), (-7.87402, -22.1589), (-7.87402, 1.46318), (-23.6221, -22.1589), (7.87402, -30.0329), (-7.87402, 1.46318), (-7.87402, -22.1589), (7.87402, -22.1589), (-7.87402, 1.46318), (7.87402, -30.0329), (7.87402, -22.1589), (7.87402, 1.46318), (-7.87402, 1.46318), (7.87402, -22.1589), (7.87402, 17.2112), (7.87402, 1.46318), (23.6221, -22.1589), (7.87402, 17.2112), (7.87402, -22.1589), (23.6221, -12.3163), (7.87402, 17.2112), (23.6221, -22.1589), (23.6221, -2.47383), (7.87402, 17.2112), (23.6221, -12.3163), (7.87402, 17.2112), (23.6221, -2.47383), (23.6221, 1.46318), (-23.6221, -22.1589), (-23.6221, 1.46318), (-23.6221, -2.47383), (-23.6221, -22.1589), (-23.6221, -2.47383), (-23.6221, -12.3163), (-7.87402, -30.0329), (7.87402, -30.0329), (-7.87402, -22.1589), (7.87402, -14.2849), (-7.87402, 1.46318), (-7.87402, -14.2849), (-7.87402, 1.46318), (7.87402, -14.2849), (7.87402, 1.46318), (7.87402, 3.93701), (-7.87402, 0), (7.87402, 0), (-7.87402, 0), (7.87402, 3.93701), (-7.87402, 3.93701), (-7.87402, 3.93701), (7.87402, 3.93701), (7.87402, 15.748), (-7.87402, 3.93701), (7.87402, 15.748), (-7.87402, 15.748), (33.9699, 23.6221), (37.9069, 3.93701), (37.9069, 23.6221), (37.9069, 3.93701), (33.9699, 23.6221), (22.1589, 3.93701), (22.1589, 3.93701), (33.9699, 23.6221), (22.1589, 19.685), (22.1589, 3.93701), (22.1589, 19.685), (22.1589, 15.748), (22.1589, 3.93701), (22.1589, 15.748), (22.1589, 7.87402), (6.41084, 15.748), (22.1589, 7.87402), (22.1589, 15.748), (22.1589, 7.87402), (6.41084, 15.748), (14.2849, 11.811), (14.2849, 11.811), (6.41084, 15.748), (10.3478, 11.811), (10.3478, 11.811), (6.41084, 15.748), (10.3478, 7.87402), (10.3478, 7.87402), (6.41084, 15.748), (2.47383, 7.87402), (2.47383, 7.87402), (6.41084, 15.748), (-1.46318, 15.748), (2.47383, 7.87402), (-1.46318, 15.748), (2.47383, 0), (2.47383, 0), (-1.46318, 15.748), (-1.46318, 0), (14.2849, 7.87402), (22.1589, 7.87402), (14.2849, 11.811), (-7.87402, 3.93701), (-23.6221, 0), (-7.87402, 0), (-23.6221, 0), (-7.87402, 3.93701), (-23.6221, 3.93701), (22.1589, 3.93701), (30.0329, 0), (30.0329, 3.93701), (30.0329, 0), (22.1589, 3.93701), (22.1589, 0), (-23.6221, -22.1589), (-7.87402, -30.0329), (-7.87402, -22.1589), (-7.87402, -30.0329), (-23.6221, -22.1589), (-7.87402, -37.9069), (-7.87402, -37.9069), (-23.6221, -22.1589), (-23.6221, -37.9069), (-7.87402, -6.41084), (-13.7795, 1.46318), (-13.7795, -6.41084), (-7.87402, 17.2112), (-13.7795, 1.46318), (-7.87402, -6.41084), (-7.87402, 17.2112), (-17.7165, 1.46318), (-13.7795, 1.46318), (-23.6221, 1.46318), (-17.7165, 1.46318), (-7.87402, 17.2112), (-23.6221, 1.46318), (-17.7165, -6.41084), (-17.7165, 1.46318), (-17.7165, -6.41084), (-23.6221, 1.46318), (-23.6221, -6.41084), (-7.87402, 17.2112), (-7.87402, -6.41084), (-7.87402, 1.46318), (31.4961, 9.84252), (23.6221, 7.87402), (31.4961, 7.87402), (23.6221, 7.87402), (31.4961, 9.84252), (23.6221, 11.811), (23.6221, 11.811), (31.4961, 9.84252), (27.5591, 11.811), (22.1589, 19.685), (30.0329, 15.748), (33.9699, 23.6221), (30.0329, 3.93701), (33.9699, 23.6221), (30.0329, 15.748), (37.9069, 3.93701), (33.9699, 23.6221), (30.0329, 3.93701), (33.9699, 23.6221), (37.9069, 3.93701), (37.9069, 23.6221), (23.6221, -37.9069), (7.87402, -33.9699), (7.87402, -37.9069), (7.87402, -33.9699), (23.6221, -37.9069), (23.6221, -33.9699), (14.2849, 23.6221), (6.41084, 19.685), (22.1589, 19.685), (6.41084, 19.685), (14.2849, 23.6221), (-1.46318, 23.6221), (6.41084, 19.685), (-1.46318, 23.6221), (6.41084, 15.748), (6.41084, 15.748), (-1.46318, 23.6221), (-1.46318, 15.748), (-23.6221, 39.6966), (-7.87402, 27.2467), (-7.87402, 39.6966), (-7.87402, 27.2467), (-23.6221, 39.6966), (-23.6221, 27.2467), (-22.1589, 5.68434e-14), (-30.0329, 3.93701), (-30.0329, 5.68434e-14), (-30.0329, 3.93701), (-22.1589, 5.68434e-14), (-22.1589, 3.93701), (-15.6687, 0), (-11.7317, 3.93701), (-15.6687, 15.748), (-11.7317, 3.93701), (-15.6687, 0), (6.60239, 0), (-11.7317, 3.93701), (6.60239, 0), (2.66539, 3.93701), (2.66539, 3.93701), (6.60239, 0), (2.66539, 11.811), (-11.7317, 11.811), (-15.6687, 15.748), (-11.7317, 3.93701), (-15.6687, 15.748), (-11.7317, 11.811), (6.60239, 15.748), (6.60239, 15.748), (-11.7317, 11.811), (2.66539, 11.811), (6.60239, 15.748), (2.66539, 11.811), (6.60239, 0), (23.6221, 3.93701), (7.87402, 0), (23.6221, 0), (7.87402, 0), (23.6221, 3.93701), (7.87402, 3.93701), (1.46318, 15.748), (-6.41084, 19.685), (-6.41084, 15.748), (1.46318, 23.6221), (-6.41084, 19.685), (1.46318, 15.748), (-14.2849, 23.6221), (-6.41084, 19.685), (1.46318, 23.6221), (-6.41084, 19.685), (-14.2849, 23.6221), (-22.1589, 19.685), (23.6221, -6.41084), (17.7165, 1.46318), (17.7165, -6.41084), (23.6221, 1.46318), (17.7165, 1.46318), (23.6221, -6.41084), (23.6221, 1.46318), (13.7795, 1.46318), (17.7165, 1.46318), (7.87402, 17.2112), (13.7795, 1.46318), (23.6221, 1.46318), (7.87402, 17.2112), (13.7795, -6.41084), (13.7795, 1.46318), (7.87402, 1.46318), (13.7795, -6.41084), (7.87402, 17.2112), (13.7795, -6.41084), (7.87402, 1.46318), (7.87402, -6.41084)] (interpolation = "faceVarying")
        uniform token subdivisionScheme = "none"
        rel material:binding = </Vehicle/Materials/metalDark>
    }
    def Mesh "mesh_metal" {
        int[] faceVertexCounts = [3, 3, 3, 3, 3, 3, 3, 3, 3, 3, 3, 3, 3, 3, 3, 3, 3, 3, 3, 3, 3, 3, 3, 3, 3, 3, 3, 3, 3, 3, 3, 3, 3, 3, 3, 3, 3, 3, 3, 3, 3, 3, 3, 3, 3, 3, 3, 3, 3, 3, 3, 3, 3, 3, 3, 3, 3, 3, 3, 3, 3, 3, 3, 3, 3, 3, 3, 3, 3, 3, 3, 3, 3, 3, 3, 3, 3, 3, 3, 3]
        int[] faceVertexIndices = [108, 33, 104, 33, 108, 109, 46, 110, 62, 110, 46, 111, 111, 46, 112, 111, 112, 113, 112, 46, 97, 113, 114, 111, 110, 85, 62, 85, 110, 87, 9, 115, 7, 115, 9, 82, 86, 8, 116, 8, 86, 11, 11, 86, 53, 66, 115, 82, 115, 66, 86, 115, 86, 116, 69, 117, 67, 117, 69, 65, 117, 65, 118, 118, 65, 119, 120, 67, 117, 67, 120, 64, 64, 120, 119, 64, 119, 65, 8, 115, 116, 115, 8, 7, 91, 112, 90, 112, 91, 113, 113, 91, 121, 122, 91, 93, 91, 122, 121, 114, 94, 111, 94, 114, 93, 93, 114, 122, 113, 122, 114, 122, 113, 121, 110, 94, 87, 94, 110, 111, 112, 92, 90, 92, 112, 97, 44, 123, 89, 123, 44, 43, 123, 43, 124, 124, 43, 125, 126, 89, 123, 89, 126, 96, 96, 126, 125, 96, 125, 43, 33, 40, 37, 40, 33, 109, 105, 108, 104, 108, 105, 127, 127, 105, 128, 127, 130, 129, 130, 127, 128, 40, 103, 50, 103, 40, 131, 131, 40, 129, 129, 40, 108, 108, 40, 109, 127, 129, 108, 130, 105, 106, 105, 130, 128, 131, 106, 107, 106, 131, 129, 106, 129, 130, 103, 107, 102, 107, 103, 131, 30, 133, 132, 133, 30, 2, 132, 41, 78, 41, 132, 133, 41, 133, 39, 133, 38, 39, 38, 133, 0, 0, 133, 2, 30, 78, 31, 78, 30, 132]
        point3f[] points = [(-0.8, 0.2, -0.362835), (-0.8, 0.2, -0.262835), (-1.4, 0.2, -0.362835), (-0.6, 0.2, -0.0628353), (-0.6, 0.2, -0.262835), (0.6, 0, -0.0628353), (0.6, 0.2, -0.0628353), (1.4, 0.1, -0.362835), (1.4, 0.2, -0.362835), (0.6, 0, -0.312835), (0.8, 0.2, -0.262835), (0.8, 0.2, -0.362835), (0.6, 0.2, -0.262835), (0.2, 0.0834482, 0.962835), (0.2, 0, 0.437165), (-0.2, 0.0834482, 0.962835), (-0.2, 0, 0.437165), (0.2, 0.166897, 0.962835), (-0.2, 0.166897, 0.962835), (0.2, 0.6, 0.0371647), (0.2, 0.59005, 0.236669), (-0.2, 0.6, 0.0371647), (-0.2, 0.59005, 0.236669), (-0.2, 0.4, 0.437165), (-0.2, 0.4, 0.0371647), (0.2, 0, 0.0371647), (-0.2, 0, 0.0371647), (0.2, 0.4, 0.0371647), (0.2, 0.4, 0.437165), (-0.6, 0, -0.0628353), (-1.4, 0.1, -0.362835), (-0.6, 0, -0.312835), (-0.6, 0.3, -0.262835), (-0.6, 0.4, -0.162835), (-0.6, 0.4, 0.0371647), (-0.6, 0, 0.0371647), (-0.6, 0.3, -0.362835), (-0.6, 0.4, -0.562835), (-0.6, 0.2, -0.362835), (-0.6, 0.2, -0.562835), (-0.6, 0.5, -0.562835), (-0.6, 0.1, -0.562835), (-0.6, 0.6, -0.862835), (-0.6, 0.6, -0.962835), (-0.6, 0.1, -0.962835), (0.2, 0.4, -0.762835), (0.2, 0.5, -0.562835), (-0.2, 0.4, -0.762835), (0.2, 0.6, -0.362835), (-0.2, 0.6, -0.362835), (-0.2, 0.5, -0.562835), (0.8, 0.25, -0.362835), (0.8, 0.25, -0.262835), (0.6, 0.2, -0.362835), (0.6, 0.3, -0.362835), (0.7, 0.3, -0.362835), (0.7, 0.3, -0.262835), (-0.8, 0.25, -0.262835), (-0.7, 0.3, -0.262835), (-0.7, 0.3, -0.362835), (-0.8, 0.25, -0.362835), (0.6, 0.6, -0.862835), (0.6, 0.5, -0.562835), (0.2, 0.6, -0.862835), (0.6, 0.6, -0.962835), (0.2, 0.6, -0.962835), (0.6, 0.1, -0.562835), (0.6, 0.1, -0.962835), (0.2, 0.1, -0.562835), (0.2, 0.1, -0.962835), (0.2, 0.1, -0.762835), (0.6, 0.3, -0.262835), (0.6, 0, 0.0371647), (0.529289, 0.3, 0.107875), (0.6, 0.4, 0.0371647), (0.270711, 0.3, 0.366454), (0.270711, 0.1, 0.366454), (0.529289, 0.1, 0.107875), (-0.6, 0, -0.562835), (-0.2, 0, -0.562835), (0.2, 0, -0.762835), (0.2, 0, -0.562835), (0.6, 0, -0.562835), (-0.2, 0, -0.762835), (-0.2, 0.1, -0.762835), (0.6, 0.4, -0.562835), (0.6, 0.2, -0.562835), (0.6, 0.4, -0.162835), (-0.2, 0.1, -0.562835), (-0.2, 0.1, -0.962835), (0.35, 0.4, -0.162835), (0.35, 0.4, 0.0371647), (0.2, 0.4, -0.162835), (0.45, 0.4, 0.0371647), (0.45, 0.4, -0.162835), (-0.2, 0.6, -0.862835), (-0.2, 0.6, -0.962835), (0.2, 0.5, -0.162835), (-0.529289, 0.1, 0.107875), (-0.270711, 0.1, 0.366454), (-0.270711, 0.3, 0.366454), (-0.529289, 0.3, 0.107875), (-0.2, 0.4, -0.162835), (-0.2, 0.5, -0.162835), (-0.45, 0.4, -0.162835), (-0.45, 0.4, 0.0371647), (-0.35, 0.4, 0.0371647), (-0.35, 0.4, -0.162835), (-0.45, 0.5, -0.162835), (-0.6, 0.5, -0.162835), (0.6, 0.5, -0.162835), (0.45, 0.5, -0.162835), (0.35, 0.5, -0.162835), (0.35, 0.5, -0.0628353), (0.45, 0.5, -0.0628353), (1.4, 0.1, -0.562835), (1.4, 0.2, -0.562835), (0.3, 0.2, -0.962835), (0.3, 0.5, -0.962835), (0.5, 0.5, -0.962835), (0.5, 0.2, -0.962835), (0.35, 0.45, 0.0371647), (0.45, 0.45, 0.0371647), (-0.5, 0.2, -0.962835), (-0.5, 0.5, -0.962835), (-0.3, 0.5, -0.962835), (-0.3, 0.2, -0.962835), (-0.45, 0.5, -0.0628353), (-0.45, 0.45, 0.0371647), (-0.35, 0.5, -0.0628353), (-0.35, 0.45, 0.0371647), (-0.35, 0.5, -0.162835), (-1.4, 0.1, -0.562835), (-1.4, 0.2, -0.562835), (0.5, 0.2, -0.762835), (0.3, 0.2, -0.762835), (0.3, 0.5, -0.762835), (0.5, 0.5, -0.762835), (0.270711, 0.1, 0.107875), (0.1, 0.45, 0.737165), (-0.0999999, 0.45, 0.737165), (0.270711, 0.3, 0.107875), (-0.5, 0.2, -0.762835), (-0.3, 0.2, -0.762835), (-0.5, 0.5, -0.762835), (-0.3, 0.5, -0.762835), (-0.270711, 0.3, 0.107875), (-0.270711, 0.1, 0.107875)]
        normal3f[] normals = [(0, 0, 1), (0, 0, 1), (0, 0, 1), (0, 0, 1), (0, 0, 1), (0, 0, 1), (0, 1, 0), (0, 1, 0), (0, 1, 0), (0, 1, 0), (0, 1, 0), (0, 1, 0), (0, 1, 0), (0, 1, 0), (0, 1, 0), (0, 1, 0), (0, 1, 0), (0, 1, 0), (0, 1, 0), (0, 1, 0), (0, 1, 0), (0, 1, 0), (0, 1, 0), (0, 1, 0), (1, 0, 0), (1, 0, 0), (1, 0, 0), (1, 0, 0), (1, 0, 0), (1, 0, 0), (0.124035, -0.992278, 0), (0.124035, -0.992278, 0), (0.124035, -0.992278, 0), (0.124035, -0.992278, 0), (0.124035, -0.992278, 0), (0.124035, -0.992278, 0), (0, 1, 0), (0, 1, 0), (0, 1, 0), (0, 1, 0), (0, 1, 0), (0, 1, 0), (0, 1, 0), (0, 1, 0), (0, 1, 0), (0, 0, -1), (0, 0, -1), (0, 0, -1), (0, 0, -1), (0, 0, -1), (0, 0, -1), (0, 0, -1), (0, 0, -1), (0, 0, -1), (0, 0, -1), (0, 0, -1), (0, 0, -1), (0, 0, -1), (0, 0, -1), (0, 0, -1), (0, 0, -1), (0, 0, -1), (0, 0, -1), (0, 0, -1), (0, 0, -1), (0, 0, -1), (0, 0, -1), (0, 0, -1), (0, 0, -1), (0, 0, -1), (0, 0, -1), (0, 0, -1), (0, 0, -1), (0, 0, -1), (0, 0, -1), (0, 0, -1), (0, 0, -1), (0, 0, -1), (1, 0, 0), (1, 0, 0), (1, 0, 0), (1, 0, 0), (1, 0, 0), (1, 0, 0), (-1, 0, 0), (-1, 0, 0), (-1, 0, 0), (-1, 0, 0), (-1, 0, 0), (-1, 0, 0), (-1, 0, 0), (-1, 0, 0), (-1, 0, 0), (0, 0, 1), (0, 0, 1), (0, 0, 1), (0, 0, 1), (0, 0, 1), (0, 0, 1), (1, 0, 0), (1, 0, 0), (1, 0, 0), (1, 0, 0), (1, 0, 0), (1, 0, 0), (1, 0, 0), (1, 0, 0), (1, 0, 0), (0, 0.894427, 0.447214), (0, 0.894427, 0.447214), (0, 0.894427, 0.447214), (0, 0.894427, 0.447214), (0, 0.894427, 0.447214), (0, 0.894427, 0.447214), (0, 0, 1), (0, 0, 1), (0, 0, 1), (0, 0, 1), (0, 0, 1), (0, 0, 1), (0, 0, 1), (0, 0, 1), (0, 0, 1), (0, 0, 1), (0, 0, 1), (0, 0, 1), (0, 0, -1), (0, 0, -1), (0, 0, -1), (0, 0, -1), (0, 0, -1), (0, 0, -1), (0, 0, -1), (0, 0, -1), (0, 0, -1), (0, 0, -1), (0, 0, -1), (0, 0, -1), (0, 0, -1), (0, 0, -1), (0, 0, -1), (0, 0, -1), (0, 0, -1), (0, 0, -1), (0, 0, -1), (0, 0, -1), (0, 0, -1), (0, 0, -1), (0, 0, -1), (0, 0, -1), (-1, 0, 0), (-1, 0, 0), (-1, 0, 0), (-1, 0, 0), (-1, 0, 0), (-1, 0, 0), (-1, 0, 0), (-1, 0, 0), (-1, 0, 0), (-1, 0, 0), (-1, 0, 0), (-1, 0, 0), (-1, 0, 0), (-1, 0, 0), (-1, 0, 0), (0, 0.894427, 0.447214), (0, 0.894427, 0.447214), (0, 0.894427, 0.447214), (0, 0.894427, 0.447214), (0, 0.894427, 0.447214), (0, 0.894427, 0.447214), (0, 1, 0), (0, 1, 0), (0, 1, 0), (0, 1, 0), (0, 1, 0), (0, 1, 0), (0, 1, 0), (0, 1, 0), (0, 1, 0), (0, 1, 0), (0, 1, 0), (0, 1, 0), (0, 1, 0), (0, 1, 0), (0, 1, 0), (0, 1, 0), (0, 1, 0), (0, 1, 0), (0, 0, 1), (0, 0, 1), (0, 0, 1), (0, 0, 1), (0, 0, 1), (0, 0, 1), (1, 0, 0), (1, 0, 0), (1, 0, 0), (1, 0, 0), (1, 0, 0), (1, 0, 0), (1, 0, 0), (1, 0, 0), (1, 0, 0), (0, 0, 1), (0, 0, 1), (0, 0, 1), (0, 0, 1), (0, 0, 1), (0, 0, 1), (-1, 0, 0), (-1, 0, 0), (-1, 0, 0), (-1, 0, 0), (-1, 0, 0), (-1, 0, 0), (0, 0, -1), (0, 0, -1), (0, 0, -1), (0, 0, -1), (0, 0, -1), (0, 0, -1), (0, 0, -1), (0, 0, -1), (0, 0, -1), (0, 1, 0), (0, 1, 0), (0, 1, 0), (0, 1, 0), (0, 1, 0), (0, 1, 0), (0, 1, 0), (0, 1, 0), (0, 1, 0), (-0.124035, -0.992278, 0), (-0.124035, -0.992278, 0), (-0.124035, -0.992278, 0), (-0.124035, -0.992278, 0), (-0.124035, -0.992278, 0), (-0.124035, -0.992278, 0)] (interpolation = "faceVarying")
        texCoord2f[] primvars:st = [(-17.7165, 19.685), (-23.6221, 15.748), (-17.7165, 15.748), (-23.6221, 15.748), (-17.7165, 19.685), (-23.6221, 19.685), (-7.87402, -22.1589), (-23.6221, -6.41084), (-23.6221, -22.1589), (-23.6221, -6.41084), (-7.87402, -22.1589), (-17.7165, -6.41084), (-17.7165, -6.41084), (-7.87402, -22.1589), (-13.7795, -6.41084), (-17.7165, -6.41084), (-13.7795, -6.41084), (-13.7795, -2.47383), (-13.7795, -6.41084), (-7.87402, -22.1589), (-7.87402, -6.41084), (-13.7795, -2.47383), (-17.7165, -2.47383), (-17.7165, -6.41084), (6.41084, 19.685), (22.1589, 15.748), (22.1589, 19.685), (22.1589, 15.748), (6.41084, 19.685), (6.41084, 15.748), (12.3163, 23.4396), (22.1589, 55.1808), (14.2849, 55.1808), (22.1589, 55.1808), (12.3163, 23.4396), (22.1589, 23.4396), (-23.6221, -22.1589), (-55.1181, -14.2849), (-55.1181, -22.1589), (-55.1181, -14.2849), (-23.6221, -22.1589), (-31.4961, -14.2849), (-31.4961, -14.2849), (-23.6221, -22.1589), (-23.6221, -14.2849), (-23.6221, 3.93701), (-55.1181, 3.93701), (-23.6221, 0), (-55.1181, 3.93701), (-23.6221, 3.93701), (-23.6221, 7.87402), (-55.1181, 3.93701), (-23.6221, 7.87402), (-55.1181, 7.87402), (-7.87402, 3.93701), (-11.811, 7.87402), (-23.6221, 3.93701), (-11.811, 7.87402), (-7.87402, 3.93701), (-7.87402, 23.6221), (-11.811, 7.87402), (-7.87402, 23.6221), (-11.811, 19.685), (-11.811, 19.685), (-7.87402, 23.6221), (-19.685, 19.685), (-19.685, 7.87402), (-23.6221, 3.93701), (-11.811, 7.87402), (-23.6221, 3.93701), (-19.685, 7.87402), (-23.6221, 23.6221), (-23.6221, 23.6221), (-19.685, 7.87402), (-19.685, 19.685), (-23.6221, 23.6221), (-19.685, 19.685), (-7.87402, 23.6221), (14.2849, 7.87402), (22.1589, 3.93701), (22.1589, 7.87402), (22.1589, 3.93701), (14.2849, 7.87402), (14.2849, 3.93701), (1.46318, 15.748), (-6.41084, 19.685), (-6.41084, 15.748), (-6.41084, 19.685), (1.46318, 15.748), (-2.47383, 19.685), (-2.47383, 19.685), (1.46318, 15.748), (1.46318, 17.7165), (17.7165, 17.7165), (13.7795, 15.748), (17.7165, 15.748), (13.7795, 15.748), (17.7165, 17.7165), (13.7795, 17.7165), (2.47383, 19.685), (6.41084, 15.748), (6.41084, 19.685), (6.41084, 15.748), (2.47383, 19.685), (-1.46318, 15.748), (-1.46318, 15.748), (2.47383, 19.685), (-1.46318, 17.7165), (13.7795, 11.0161), (17.7165, 6.61437), (17.7165, 11.0161), (17.7165, 6.61437), (13.7795, 11.0161), (13.7795, 6.61437), (23.6221, 19.685), (17.7165, 15.748), (23.6221, 15.748), (17.7165, 15.748), (23.6221, 19.685), (17.7165, 19.685), (13.7795, 19.685), (7.87402, 15.748), (13.7795, 15.748), (7.87402, 15.748), (13.7795, 19.685), (7.87402, 19.685), (23.6221, 3.93701), (19.685, 7.87402), (7.87402, 3.93701), (19.685, 7.87402), (23.6221, 3.93701), (23.6221, 23.6221), (19.685, 7.87402), (23.6221, 23.6221), (19.685, 19.685), (19.685, 19.685), (23.6221, 23.6221), (11.811, 19.685), (11.811, 7.87402), (7.87402, 3.93701), (19.685, 7.87402), (7.87402, 3.93701), (11.811, 7.87402), (7.87402, 23.6221), (7.87402, 23.6221), (11.811, 7.87402), (11.811, 19.685), (7.87402, 23.6221), (11.811, 19.685), (23.6221, 23.6221), (-6.41084, 15.748), (-22.1589, 19.685), (-22.1589, 15.748), (-22.1589, 19.685), (-6.41084, 15.748), (-6.41084, 19.685), (1.46318, 15.748), (-6.41084, 19.685), (-6.41084, 15.748), (-6.41084, 19.685), (1.46318, 15.748), (-2.47383, 19.685), (-2.47383, 19.685), (1.46318, 15.748), (1.46318, 17.7165), (-17.7165, 11.0161), (-13.7795, 6.61437), (-13.7795, 11.0161), (-13.7795, 6.61437), (-17.7165, 11.0161), (-17.7165, 6.61437), (23.6221, -22.1589), (7.87402, -6.41084), (7.87402, -22.1589), (7.87402, -6.41084), (23.6221, -22.1589), (13.7795, -6.41084), (13.7795, -6.41084), (23.6221, -22.1589), (13.7795, -2.47383), (13.7795, -2.47383), (23.6221, -22.1589), (17.7165, -6.41084), (17.7165, -6.41084), (23.6221, -22.1589), (23.6221, -6.41084), (17.7165, -2.47383), (13.7795, -2.47383), (17.7165, -6.41084), (-13.7795, 17.7165), (-17.7165, 15.748), (-13.7795, 15.748), (-17.7165, 15.748), (-13.7795, 17.7165), (-17.7165, 17.7165), (6.41084, 19.685), (-1.46318, 15.748), (6.41084, 15.748), (-1.46318, 15.748), (6.41084, 19.685), (2.47383, 19.685), (-1.46318, 15.748), (2.47383, 19.685), (-1.46318, 17.7165), (-7.87402, 19.685), (-13.7795, 15.748), (-7.87402, 15.748), (-13.7795, 15.748), (-7.87402, 19.685), (-13.7795, 19.685), (-14.2849, 3.93701), (-22.1589, 7.87402), (-22.1589, 3.93701), (-22.1589, 7.87402), (-14.2849, 3.93701), (-14.2849, 7.87402), (55.1181, 3.93701), (23.6221, 3.93701), (23.6221, 0), (23.6221, 3.93701), (55.1181, 3.93701), (55.1181, 7.87402), (23.6221, 3.93701), (55.1181, 7.87402), (23.6221, 7.87402), (55.1181, -22.1589), (23.6221, -14.2849), (23.6221, -22.1589), (23.6221, -14.2849), (55.1181, -22.1589), (31.4961, -14.2849), (31.4961, -14.2849), (55.1181, -22.1589), (55.1181, -14.2849), (-14.2849, 55.1808), (-22.1589, 23.4396), (-12.3163, 23.4396), (-22.1589, 23.4396), (-14.2849, 55.1808), (-22.1589, 55.1808)] (interpolation = "faceVarying")
        uniform token subdivisionScheme = "none"
        rel material:binding = </Vehicle/Materials/metal>
    }
    def Mesh "mesh_dark" {
        int[] faceVertexCounts = [3, 3, 3, 3, 3, 3, 3, 3, 3, 3, 3, 3, 3, 3, 3, 3, 3, 3, 3, 3, 3, 3, 3, 3, 3, 3, 3, 3, 3, 3, 3, 3, 3, 3, 3, 3, 3, 3]
        int[] faceVertexIndices = [117, 134, 120, 134, 117, 135, 136, 134, 135, 134, 136, 137, 136, 117, 118, 117, 136, 135, 136, 119, 137, 119, 136, 118, 134, 119, 120, 119, 134, 137, 76, 77, 138, 22, 139, 20, 139, 22, 140, 141, 73, 75, 18, 140, 22, 17, 20, 139, 75, 138, 141, 138, 75, 76, 73, 138, 77, 138, 73, 141, 139, 18, 17, 18, 139, 140, 144, 143, 142, 143, 144, 145, 144, 123, 124, 123, 144, 142, 144, 125, 145, 125, 144, 124, 101, 146, 100, 99, 146, 147, 146, 99, 100, 143, 125, 126, 125, 143, 145, 123, 143, 126, 143, 123, 142, 146, 98, 147, 98, 146, 101, 98, 99, 147]
        point3f[] points = [(-0.8, 0.2, -0.362835), (-0.8, 0.2, -0.262835), (-1.4, 0.2, -0.362835), (-0.6, 0.2, -0.0628353), (-0.6, 0.2, -0.262835), (0.6, 0, -0.0628353), (0.6, 0.2, -0.0628353), (1.4, 0.1, -0.362835), (1.4, 0.2, -0.362835), (0.6, 0, -0.312835), (0.8, 0.2, -0.262835), (0.8, 0.2, -0.362835), (0.6, 0.2, -0.262835), (0.2, 0.0834482, 0.962835), (0.2, 0, 0.437165), (-0.2, 0.0834482, 0.962835), (-0.2, 0, 0.437165), (0.2, 0.166897, 0.962835), (-0.2, 0.166897, 0.962835), (0.2, 0.6, 0.0371647), (0.2, 0.59005, 0.236669), (-0.2, 0.6, 0.0371647), (-0.2, 0.59005, 0.236669), (-0.2, 0.4, 0.437165), (-0.2, 0.4, 0.0371647), (0.2, 0, 0.0371647), (-0.2, 0, 0.0371647), (0.2, 0.4, 0.0371647), (0.2, 0.4, 0.437165), (-0.6, 0, -0.0628353), (-1.4, 0.1, -0.362835), (-0.6, 0, -0.312835), (-0.6, 0.3, -0.262835), (-0.6, 0.4, -0.162835), (-0.6, 0.4, 0.0371647), (-0.6, 0, 0.0371647), (-0.6, 0.3, -0.362835), (-0.6, 0.4, -0.562835), (-0.6, 0.2, -0.362835), (-0.6, 0.2, -0.562835), (-0.6, 0.5, -0.562835), (-0.6, 0.1, -0.562835), (-0.6, 0.6, -0.862835), (-0.6, 0.6, -0.962835), (-0.6, 0.1, -0.962835), (0.2, 0.4, -0.762835), (0.2, 0.5, -0.562835), (-0.2, 0.4, -0.762835), (0.2, 0.6, -0.362835), (-0.2, 0.6, -0.362835), (-0.2, 0.5, -0.562835), (0.8, 0.25, -0.362835), (0.8, 0.25, -0.262835), (0.6, 0.2, -0.362835), (0.6, 0.3, -0.362835), (0.7, 0.3, -0.362835), (0.7, 0.3, -0.262835), (-0.8, 0.25, -0.262835), (-0.7, 0.3, -0.262835), (-0.7, 0.3, -0.362835), (-0.8, 0.25, -0.362835), (0.6, 0.6, -0.862835), (0.6, 0.5, -0.562835), (0.2, 0.6, -0.862835), (0.6, 0.6, -0.962835), (0.2, 0.6, -0.962835), (0.6, 0.1, -0.562835), (0.6, 0.1, -0.962835), (0.2, 0.1, -0.562835), (0.2, 0.1, -0.962835), (0.2, 0.1, -0.762835), (0.6, 0.3, -0.262835), (0.6, 0, 0.0371647), (0.529289, 0.3, 0.107875), (0.6, 0.4, 0.0371647), (0.270711, 0.3, 0.366454), (0.270711, 0.1, 0.366454), (0.529289, 0.1, 0.107875), (-0.6, 0, -0.562835), (-0.2, 0, -0.562835), (0.2, 0, -0.762835), (0.2, 0, -0.562835), (0.6, 0, -0.562835), (-0.2, 0, -0.762835), (-0.2, 0.1, -0.762835), (0.6, 0.4, -0.562835), (0.6, 0.2, -0.562835), (0.6, 0.4, -0.162835), (-0.2, 0.1, -0.562835), (-0.2, 0.1, -0.962835), (0.35, 0.4, -0.162835), (0.35, 0.4, 0.0371647), (0.2, 0.4, -0.162835), (0.45, 0.4, 0.0371647), (0.45, 0.4, -0.162835), (-0.2, 0.6, -0.862835), (-0.2, 0.6, -0.962835), (0.2, 0.5, -0.162835), (-0.529289, 0.1, 0.107875), (-0.270711, 0.1, 0.366454), (-0.270711, 0.3, 0.366454), (-0.529289, 0.3, 0.107875), (-0.2, 0.4, -0.162835), (-0.2, 0.5, -0.162835), (-0.45, 0.4, -0.162835), (-0.45, 0.4, 0.0371647), (-0.35, 0.4, 0.0371647), (-0.35, 0.4, -0.162835), (-0.45, 0.5, -0.162835), (-0.6, 0.5, -0.162835), (0.6, 0.5, -0.162835), (0.45, 0.5, -0.162835), (0.35, 0.5, -0.162835), (0.35, 0.5, -0.0628353), (0.45, 0.5, -0.0628353), (1.4, 0.1, -0.562835), (1.4, 0.2, -0.562835), (0.3, 0.2, -0.962835), (0.3, 0.5, -0.962835), (0.5, 0.5, -0.962835), (0.5, 0.2, -0.962835), (0.35, 0.45, 0.0371647), (0.45, 0.45, 0.0371647), (-0.5, 0.2, -0.962835), (-0.5, 0.5, -0.962835), (-0.3, 0.5, -0.962835), (-0.3, 0.2, -0.962835), (-0.45, 0.5, -0.0628353), (-0.45, 0.45, 0.0371647), (-0.35, 0.5, -0.0628353), (-0.35, 0.45, 0.0371647), (-0.35, 0.5, -0.162835), (-1.4, 0.1, -0.562835), (-1.4, 0.2, -0.562835), (0.5, 0.2, -0.762835), (0.3, 0.2, -0.762835), (0.3, 0.5, -0.762835), (0.5, 0.5, -0.762835), (0.270711, 0.1, 0.107875), (0.1, 0.45, 0.737165), (-0.0999999, 0.45, 0.737165), (0.270711, 0.3, 0.107875), (-0.5, 0.2, -0.762835), (-0.3, 0.2, -0.762835), (-0.5, 0.5, -0.762835), (-0.3, 0.5, -0.762835), (-0.270711, 0.3, 0.107875), (-0.270711, 0.1, 0.107875)]
        normal3f[] normals = [(0, 1, 0), (0, 1, 0), (0, 1, 0), (0, 1, 0), (0, 1, 0), (0, 1, 0), (0, 0, -1), (0, 0, -1), (0, 0, -1), (0, 0, -1), (0, 0, -1), (0, 0, -1), (1, 0, 0), (1, 0, 0), (1, 0, 0), (1, 0, 0), (1, 0, 0), (1, 0, 0), (0, -1, 0), (0, -1, 0), (0, -1, 0), (0, -1, 0), (0, -1, 0), (0, -1, 0), (-1, 0, 0), (-1, 0, 0), (-1, 0, 0), (-1, 0, 0), (-1, 0, 0), (-1, 0, 0), (0, 1, 0), (0, 1, 0), (0, 1, 0), (0, 0.963009, 0.269471), (0, 0.963009, 0.269471), (0, 0.963009, 0.269471), (0, 0.963009, 0.269471), (0, 0.963009, 0.269471), (0, 0.963009, 0.269471), (0, -1, 0), (0, -1, 0), (0, -1, 0), (-0.794839, 0.524299, 0.30552), (-0.794839, 0.524299, 0.30552), (-0.794839, 0.524299, 0.30552), (0.794839, 0.524299, 0.30552), (0.794839, 0.524299, 0.30552), (0.794839, 0.524299, 0.30552), (1, 0, 0), (1, 0, 0), (1, 0, 0), (1, 0, 0), (1, 0, 0), (1, 0, 0), (0, 0, 1), (0, 0, 1), (0, 0, 1), (0, 0, 1), (0, 0, 1), (0, 0, 1), (0, 0.623326, 0.781962), (0, 0.623326, 0.781962), (0, 0.623326, 0.781962), (0, 0.623326, 0.781962), (0, 0.623326, 0.781962), (0, 0.623326, 0.781962), (0, 0, -1), (0, 0, -1), (0, 0, -1), (0, 0, -1), (0, 0, -1), (0, 0, -1), (1, 0, 0), (1, 0, 0), (1, 0, 0), (1, 0, 0), (1, 0, 0), (1, 0, 0), (0, -1, 0), (0, -1, 0), (0, -1, 0), (0, -1, 0), (0, -1, 0), (0, -1, 0), (0, -1, 0), (0, -1, 0), (0, -1, 0), (-1, 0, 0), (-1, 0, 0), (-1, 0, 0), (-1, 0, 0), (-1, 0, 0), (-1, 0, 0), (-1, 0, 0), (-1, 0, 0), (-1, 0, 0), (-1, 0, 0), (-1, 0, 0), (-1, 0, 0), (0, 1, 0), (0, 1, 0), (0, 1, 0), (0, 1, 0), (0, 1, 0), (0, 1, 0), (0, 0, 1), (0, 0, 1), (0, 0, 1), (0, 0, 1), (0, 0, 1), (0, 0, 1), (0, 1, 0), (0, 1, 0), (0, 1, 0)] (interpolation = "faceVarying")
        texCoord2f[] primvars:st = [(-11.811, -37.9069), (-19.685, -30.0329), (-19.685, -37.9069), (-19.685, -30.0329), (-11.811, -37.9069), (-11.811, -30.0329), (-11.811, 19.685), (-19.685, 7.87402), (-11.811, 7.87402), (-19.685, 7.87402), (-11.811, 19.685), (-19.685, 19.685), (30.0329, 19.685), (37.9069, 7.87402), (37.9069, 19.685), (37.9069, 7.87402), (30.0329, 19.685), (30.0329, 7.87402), (11.811, -30.0329), (19.685, -37.9069), (19.685, -30.0329), (19.685, -37.9069), (11.811, -30.0329), (11.811, -37.9069), (-30.0329, 7.87402), (-37.9069, 19.685), (-37.9069, 7.87402), (-37.9069, 19.685), (-30.0329, 7.87402), (-30.0329, 19.685), (-10.6579, 14.4273), (-20.8382, 4.24706), (-10.6579, 4.24706), (-7.87402, -2.7131), (3.93701, -23.1746), (7.87402, -2.7131), (3.93701, -23.1746), (-7.87402, -2.7131), (-3.93701, -23.1746), (10.6579, 4.24706), (20.8382, 4.24706), (10.6579, 14.4273), (32.5579, -5.389), (25.6774, 7.70008), (5.87218, 14.1752), (-32.5579, -5.389), (-5.87218, 14.1752), (-25.6774, 7.70008), (-14.4273, 11.811), (-4.24706, 3.93701), (-4.24706, 11.811), (-4.24706, 3.93701), (-14.4273, 11.811), (-14.4273, 3.93701), (20.8382, 11.811), (10.6579, 3.93701), (20.8382, 3.93701), (10.6579, 3.93701), (20.8382, 11.811), (10.6579, 11.811), (3.93701, -4.23666), (-7.87402, -18.4903), (7.87402, -18.4903), (-7.87402, -18.4903), (3.93701, -4.23666), (-3.93701, -4.23666), (19.685, 19.685), (11.811, 7.87402), (19.685, 7.87402), (11.811, 7.87402), (19.685, 19.685), (11.811, 19.685), (30.0329, 19.685), (37.9069, 7.87402), (37.9069, 19.685), (37.9069, 7.87402), (30.0329, 19.685), (30.0329, 7.87402), (-19.685, -30.0329), (-11.811, -37.9069), (-11.811, -30.0329), (-11.811, -37.9069), (-19.685, -30.0329), (-19.685, -37.9069), (-20.8382, 4.24706), (-10.6579, 4.24706), (-10.6579, 14.4273), (14.4273, 3.93701), (4.24706, 11.811), (4.24706, 3.93701), (4.24706, 11.811), (14.4273, 3.93701), (14.4273, 11.811), (-30.0329, 7.87402), (-37.9069, 19.685), (-37.9069, 7.87402), (-37.9069, 19.685), (-30.0329, 7.87402), (-30.0329, 19.685), (19.685, -37.9069), (11.811, -30.0329), (11.811, -37.9069), (11.811, -30.0329), (19.685, -37.9069), (19.685, -30.0329), (-10.6579, 11.811), (-20.8382, 3.93701), (-10.6579, 3.93701), (-20.8382, 3.93701), (-10.6579, 11.811), (-20.8382, 11.811), (20.8382, 4.24706), (10.6579, 14.4273), (10.6579, 4.24706)] (interpolation = "faceVarying")
        uniform token subdivisionScheme = "none"
        rel material:binding = </Vehicle/Materials/dark>
    }
    def Scope "Materials" {
        def Material "metalRed" {
            token outputs:surface.connect = </Vehicle/Materials/metalRed/surface.outputs:surface>
            def Shader "surface" {
                uniform token info:id = "UsdPreviewSurface"
                float inputs:roughness = 0.7
                float inputs:metallic = 0
                color3f inputs:diffuseColor = (1, 0.628524, 0.20283)
                token outputs:surface
            }
        }
        def Material "metalDark" {
            token outputs:surface.connect = </Vehicle/Materials/metalDark/surface.outputs:surface>
            def Shader "surface" {
                uniform token info:id = "UsdPreviewSurface"
                float inputs:roughness = 0.7
                float inputs:metallic = 0
                color3f inputs:diffuseColor = (0.675062, 0.710022, 0.773585)
                token outputs:surface
            }
        }
        def Material "metal" {
            token outputs:surface.connect = </Vehicle/Materials/metal/surface.outputs:surface>
            def Shader "surface" {
                uniform token info:id = "UsdPreviewSurface"
                float inputs:roughness = 0.7
                float inputs:metallic = 0
                color3f inputs:diffuseColor = (0.843137, 0.870588, 0.909804)
                token outputs:surface
            }
        }
        def Material "dark" {
            token outputs:surface.connect = </Vehicle/Materials/dark/surface.outputs:surface>
            def Shader "surface" {
                uniform token info:id = "UsdPreviewSurface"
                float inputs:roughness = 0.7
                float inputs:metallic = 0
                color3f inputs:diffuseColor = (0.27451, 0.298039, 0.341176)
                token outputs:surface
            }
        }
    }
}
