#usda 1.0
(
    defaultPrim = "Vehicle"
    metersPerUnit = 1
    upAxis = "Y"
)
def Xform "Vehicle" {
    def Mesh "mesh_colormap" {
        int[] faceVertexCounts = [3, 3, 3, 3, 3, 3, 3, 3, 3, 3, 3, 3, 3, 3, 3, 3, 3, 3, 3, 3, 3, 3, 3, 3, 3, 3, 3, 3, 3, 3, 3, 3, 3, 3, 3, 3, 3, 3, 3, 3, 3, 3, 3, 3, 3, 3, 3, 3, 3, 3, 3, 3, 3, 3, 3, 3, 3, 3, 3, 3, 3, 3, 3, 3, 3, 3, 3, 3, 3, 3, 3, 3, 3, 3, 3, 3, 3, 3, 3, 3, 3, 3, 3, 3, 3, 3, 3, 3, 3, 3, 3, 3, 3, 3, 3, 3, 3, 3, 3, 3, 3, 3, 3, 3, 3, 3, 3, 3, 3, 3, 3, 3, 3, 3, 3, 3, 3, 3, 3, 3, 3, 3, 3, 3, 3, 3, 3, 3, 3, 3, 3, 3, 3, 3, 3, 3, 3, 3, 3, 3, 3, 3, 3, 3, 3, 3, 3, 3, 3, 3, 3, 3, 3, 3, 3, 3, 3, 3, 3, 3, 3, 3, 3, 3, 3, 3, 3, 3, 3, 3, 3, 3, 3, 3, 3, 3, 3, 3, 3, 3, 3, 3, 3, 3, 3, 3, 3, 3, 3, 3, 3, 3, 3, 3, 3, 3, 3, 3, 3, 3, 3, 3, 3, 3, 3, 3, 3, 3, 3, 3, 3, 3, 3, 3, 3, 3, 3, 3, 3, 3, 3, 3, 3, 3, 3, 3, 3, 3, 3, 3, 3, 3, 3, 3, 3, 3, 3, 3, 3, 3, 3, 3, 3, 3, 3, 3, 3, 3, 3, 3, 3, 3, 3, 3, 3, 3, 3, 3, 3, 3, 3, 3, 3, 3, 3, 3, 3, 3, 3, 3, 3, 3, 3, 3, 3, 3, 3, 3, 3, 3]
        int[] faceVertexIndices = [2, 1, 0, 5, 4, 3, 8, 7, 6, 7, 8, 9, 12, 11, 10, 11, 12, 13, 0, 15, 14, 15, 0, 1, 16, 13, 12, 13, 16, 17, 14, 4, 0, 4, 14, 18, 19, 13, 17, 13, 19, 11, 11, 19, 20, 11, 20, 21, 11, 21, 22, 11, 22, 23, 25, 3, 24, 3, 25, 26, 3, 26, 27, 27, 26, 28, 27, 28, 29, 27, 29, 30, 24, 4, 18, 4, 24, 3, 31, 23, 22, 23, 31, 32, 21, 33, 22, 33, 21, 34, 20, 34, 21, 34, 20, 35, 26, 36, 28, 36, 26, 37, 24, 38, 25, 38, 24, 18, 38, 18, 16, 16, 18, 14, 16, 14, 17, 17, 14, 15, 17, 15, 39, 39, 19, 17, 11, 40, 10, 40, 11, 23, 38, 26, 25, 26, 38, 37, 43, 42, 41, 42, 43, 44, 45, 43, 41, 43, 45, 46, 10, 16, 12, 16, 10, 38, 38, 10, 37, 37, 10, 36, 36, 10, 47, 47, 10, 40, 50, 49, 48, 49, 50, 51, 28, 47, 29, 47, 28, 36, 23, 49, 40, 49, 23, 48, 48, 23, 32, 6, 15, 1, 15, 6, 35, 15, 35, 39, 35, 6, 34, 34, 6, 33, 33, 6, 7, 8, 44, 43, 44, 8, 52, 31, 48, 32, 48, 31, 50, 42, 5, 53, 5, 42, 2, 2, 42, 44, 2, 44, 52, 2, 52, 54, 29, 45, 30, 45, 29, 47, 45, 47, 51, 45, 51, 46, 46, 51, 50, 46, 50, 9, 9, 50, 31, 9, 31, 22, 9, 22, 7, 7, 22, 33, 39, 20, 19, 20, 39, 35, 46, 8, 43, 8, 46, 9, 49, 47, 40, 47, 49, 51, 45, 27, 30, 27, 45, 41, 52, 6, 54, 6, 52, 8, 0, 5, 2, 5, 0, 4, 2, 6, 1, 6, 2, 54, 27, 5, 3, 5, 27, 53, 27, 42, 53, 42, 27, 41, 57, 56, 55, 56, 57, 58, 55, 60, 59, 60, 55, 56, 58, 62, 61, 62, 58, 57, 2, 1, 0, 5, 4, 3, 8, 7, 6, 7, 8, 9, 12, 11, 10, 11, 12, 13, 0, 15, 14, 15, 0, 1, 16, 13, 12, 13, 16, 17, 14, 4, 0, 4, 14, 18, 19, 13, 17, 13, 19, 11, 11, 19, 20, 11, 20, 21, 11, 21, 22, 11, 22, 23, 25, 3, 24, 3, 25, 26, 3, 26, 27, 27, 26, 28, 27, 28, 29, 27, 29, 30, 24, 4, 18, 4, 24, 3, 31, 23, 22, 23, 31, 32, 21, 33, 22, 33, 21, 34, 20, 34, 21, 34, 20, 35, 26, 36, 28, 36, 26, 37, 24, 38, 25, 38, 24, 18, 38, 18, 16, 16, 18, 14, 16, 14, 17, 17, 14, 15, 17, 15, 39, 39, 19, 17, 11, 40, 10, 40, 11, 23, 38, 26, 25, 26, 38, 37, 43, 42, 41, 42, 43, 44, 45, 43, 41, 43, 45, 46, 10, 16, 12, 16, 10, 38, 38, 10, 37, 37, 10, 36, 36, 10, 47, 47, 10, 40, 50, 49, 48, 49, 50, 51, 28, 47, 29, 47, 28, 36, 23, 49, 40, 49, 23, 48, 48, 23, 32, 6, 15, 1, 15, 6, 35, 15, 35, 39, 35, 6, 34, 34, 6, 33, 33, 6, 7, 8, 44, 43, 44, 8, 52, 31, 48, 32, 48, 31, 50, 42, 5, 53, 5, 42, 2, 2, 42, 44, 2, 44, 52, 2, 52, 54, 29, 45, 30, 45, 29, 47, 45, 47, 51, 45, 51, 46, 46, 51, 50, 46, 50, 9, 9, 50, 31, 9, 31, 22, 9, 22, 7, 7, 22, 33, 39, 20, 19, 20, 39, 35, 46, 8, 43, 8, 46, 9, 49, 47, 40, 47, 49, 51, 45, 27, 30, 27, 45, 41, 52, 6, 54, 6, 52, 8, 0, 5, 2, 5, 0, 4, 2, 6, 1, 6, 2, 54, 27, 5, 3, 5, 27, 53, 27, 42, 53, 42, 27, 41, 57, 56, 55, 56, 57, 58, 55, 60, 59, 60, 55, 56, 58, 62, 61, 62, 58, 57, 65, 64, 63, 64, 65, 66, 69, 68, 67, 68, 69, 70, 73, 72, 71, 72, 73, 74, 74, 73, 75, 74, 75, 76, 79, 78, 77, 78, 79, 80, 80, 79, 67, 80, 67, 68, 73, 82, 81, 82, 73, 71, 66, 72, 83, 72, 66, 65, 85, 77, 84, 77, 85, 79, 71, 64, 82, 64, 71, 63, 83, 64, 66, 64, 83, 82, 82, 83, 86, 82, 86, 81, 81, 86, 87, 81, 87, 88, 68, 90, 89, 90, 68, 70, 80, 89, 91, 89, 80, 68, 71, 65, 63, 65, 71, 72, 75, 81, 88, 81, 75, 73, 90, 69, 92, 69, 90, 70, 78, 91, 93, 91, 78, 80, 83, 74, 86, 74, 83, 72, 78, 84, 77, 84, 78, 93, 86, 76, 87, 76, 86, 74, 87, 75, 88, 75, 87, 76, 92, 67, 94, 67, 92, 69, 91, 84, 93, 84, 91, 85, 85, 91, 89, 85, 89, 94, 94, 89, 90, 94, 90, 92, 94, 79, 85, 79, 94, 67]
        point3f[] points = [(-0.474, 0.32, -1.18607), (-0.714, 0.32, -0.946073), (-0.544, 0, -0.890365), (0.714, 0.32, -0.946073), (0.474, 0.32, -1.18607), (0.544, 0, -0.890365), (-0.714, 0.32, 0.384562), (-0.714, 0.64, 0.384562), (-0.3906, 0.32, 0.963431), (-0.3906, 0.64, 0.963431), (0.474, 0.24, 0.322067), (-0.474, 0.24, 0.322067), (0.474, 0.24, -0.946073), (-0.474, 0.24, -0.946073), (-0.474, 0.64, -1.18607), (-0.714, 0.64, -0.946073), (0.474, 0.64, -0.946073), (-0.474, 0.64, -0.946073), (0.474, 0.64, -1.18607), (-0.474, 0.64, -0.706073), (-0.474, 0.56, -0.466073), (-0.474, 0.56, 0.0820669), (-0.474, 0.64, 0.322067), (-0.474, 0.4, 0.322067), (0.714, 0.64, -0.946073), (0.714, 0.64, -0.706073), (0.714, 0.56, -0.466073), (0.714, 0.32, 0.384562), (0.714, 0.56, 0.0820669), (0.714, 0.64, 0.322067), (0.714, 0.64, 0.384562), (-0.213681, 0.64, 0.788025), (-0.213681, 0.4, 0.788025), (-0.714, 0.64, 0.322067), (-0.714, 0.56, 0.0820669), (-0.714, 0.56, -0.466073), (0.474, 0.56, 0.0820669), (0.474, 0.56, -0.466073), (0.474, 0.64, -0.706073), (-0.714, 0.64, -0.706073), (0.474, 0.4, 0.322067), (0.3906, 0.32, 0.963431), (0.2976, 0, 0.582729), (5.76446e-13, 0.32, 1.18607), (3.59151e-13, 0, 0.752361), (0.3906, 0.64, 0.963431), (5.76446e-13, 0.64, 1.18607), (0.474, 0.64, 0.322067), (4.76823e-13, 0.4, 0.909823), (0.213681, 0.4, 0.788025), (4.77003e-13, 0.64, 0.909823), (0.213681, 0.64, 0.788025), (-0.2976, 0, 0.582729), (0.544, -6.76792e-17, 0.141686), (-0.544, 0, 0.141686), (0.474, 0.4, -0.202073), (-0.474, 0.4, -0.202073), (0.474, 0.4, -0.546073), (-0.474, 0.4, -0.546073), (0.474, 0.24, -0.202073), (-0.474, 0.24, -0.202073), (-0.474, 0.24, -0.546073), (0.474, 0.24, -0.546073), (-0.582309, 0.847696, -0.255391), (-0.525741, 0.791127, -0.255391), (-0.582309, 0.847696, -0.0953915), (-0.525741, 0.791127, -0.0953915), (1.148, 0.395147, -0.255391), (1.148, 0.395147, -0.0953915), (0.582309, 0.847696, -0.255391), (0.582309, 0.847696, -0.0953915), (-1.148, 0.395147, -0.255391), (-1.148, 0.395147, -0.0953915), (-1.20456, 0.338579, -0.326591), (-1.20456, 0.338579, -0.0241914), (-1.37427, 0.168873, -0.326591), (-1.37427, 0.168873, -0.0241914), (1.37427, 0.168873, -0.326591), (1.37427, 0.168873, -0.0241914), (1.20456, 0.338579, -0.326591), (1.20456, 0.338579, -0.0241914), (-1.09143, 0.225442, -0.326591), (-1.03486, 0.28201, -0.255391), (-1.03486, 0.28201, -0.0953915), (1.26113, 0.0557359, -0.326591), (1.09143, 0.225442, -0.326591), (-1.09143, 0.225442, -0.0241914), (-1.26113, 0.0557359, -0.0241914), (-1.26113, 0.0557359, -0.326591), (1.03486, 0.28201, -0.0953915), (0.525741, 0.791127, -0.0953915), (1.09143, 0.225442, -0.0241914), (0.525741, 0.791127, -0.255391), (1.26113, 0.0557359, -0.0241914), (1.03486, 0.28201, -0.255391)]
        normal3f[] normals = [(-0.61201, -0.63769, -0.467755), (-0.809415, -0.487102, -0.327992), (-0.236386, -0.631051, -0.738848), (0.61201, -0.63769, -0.467755), (0.236386, -0.631051, -0.738848), (0.809415, -0.487102, -0.327992), (-0.710137, 0, 0.704063), (-0.967729, 0, 0.251993), (-0.967729, 0, 0.251993), (-0.967729, 0, 0.251993), (-0.710137, 0, 0.704063), (-0.710137, 0, 0.704063), (0, 1, 0), (0, 1, 0), (0, 1, 0), (0, 1, 0), (0, 1, 0), (0, 1, 0), (-0.382683, 0, -0.923879), (-0.923879, 0, -0.382683), (-0.382683, 0, -0.923879), (-0.923879, 0, -0.382683), (-0.382683, 0, -0.923879), (-0.923879, 0, -0.382683), (0, 0, 1), (0, 0, 1), (0, 0, 1), (0, 0, 1), (0, 0, 1), (0, 0, 1), (-0.382683, 0, -0.923879), (0.382683, 0, -0.923879), (-0.382683, 0, -0.923879), (0.382683, 0, -0.923879), (-0.382683, 0, -0.923879), (0.382683, 0, -0.923879), (1, 0, 0), (1, 0, 0), (1, 0, 0), (1, 0, 0), (1, 0, 0), (1, 0, 0), (1, 0, 0), (1, 0, 0), (1, 0, 0), (1, 0, 0), (1, 0, 0), (1, 0, 0), (1, 0, 0), (1, 0, 0), (0.959818, 0, -0.280623), (1, 0, 0), (0.959818, 0, -0.280623), (0.985895, 0, -0.167366), (1, 0, 0), (0.923879, 0, -0.382683), (0.923879, 0, -0.382683), (0.923879, 0, -0.382683), (1, 0, 0), (1, 0, 0), (0.923879, 0, -0.382683), (1, 0, 0), (0.967729, 0, 0.251993), (0.967729, 0, 0.251993), (1, 0, 0), (1, 0, 0), (0.967729, 0, 0.251993), (1, 0, 0), (1, 0, 0), (0.967729, 0, 0.251993), (1, 0, 0), (0.967729, 0, 0.251993), (0.923879, 0, -0.382683), (0.382683, 0, -0.923879), (0.382683, 0, -0.923879), (0.382683, 0, -0.923879), (0.923879, 0, -0.382683), (0.923879, 0, -0.382683), (0.710137, 0, -0.704063), (0.985895, 0, -0.167366), (0.959818, 0, -0.280623), (0.985895, 0, -0.167366), (0.710137, 0, -0.704063), (0.710137, 0, -0.704063), (0, 0.987088, -0.160182), (0, 0.948683, -0.316228), (0, 0.948683, -0.316228), (0, 0.948683, -0.316228), (0, 0.987088, -0.160182), (0, 0.987088, -0.160182), (0, 0.987088, 0.160182), (0, 0.987088, -0.160182), (0, 0.987088, -0.160182), (0, 0.987088, -0.160182), (0, 0.987088, 0.160182), (0, 0.987088, 0.160182), (0, 0.987088, 0.160182), (0, 0.987088, -0.160182), (0, 0.987088, -0.160182), (0, 0.987088, -0.160182), (0, 0.987088, 0.160182), (0, 0.987088, 0.160182), (0, 1, 0), (0, 1, 0), (0, 1, 0), (0, 1, 0), (0, 1, 0), (0, 1, 0), (0, 1, 0), (0, 1, 0), (0, 1, 0), (0, 1, 0), (0, 1, 0), (0, 1, 0), (0, 1, 0), (0, 1, 0), (0, 1, 0), (0, 1, 0), (0, 1, 0), (0, 1, 0), (0, 1, 0), (0, 1, 0), (0, 1, 0), (0, 1, 0), (0, 1, 0), (0, 1, 0), (0, 0, -1), (0, 0, -1), (0, 0, -1), (0, 0, -1), (0, 0, -1), (0, 0, -1), (0, 0.948683, 0.316228), (0, 0.987088, 0.160182), (0, 0.948683, 0.316228), (0, 0.987088, 0.160182), (0, 0.948683, 0.316228), (0, 0.987088, 0.160182), (0, -0.804681, 0.593707), (0.547313, -0.701711, 0.456124), (0.452526, -0.734001, 0.506421), (0.547313, -0.701711, 0.456124), (0, -0.804681, 0.593707), (0, -0.804681, 0.593707), (0.710137, 0, 0.704063), (0, 0, 1), (0.710137, 0, 0.704063), (0, 0, 1), (0.710137, 0, 0.704063), (0, 0, 1), (-1, 0, 0), (-1, 0, 0), (-1, 0, 0), (-1, 0, 0), (-1, 0, 0), (-1, 0, 0), (-1, 0, 0), (-1, 0, 0), (-1, 0, 0), (-1, 0, 0), (-1, 0, 0), (-1, 0, 0), (-1, 0, 0), (-1, 0, 0), (-0.959818, 0, -0.280623), (-0.959818, 0, -0.280623), (-1, 0, 0), (-0.985895, 0, -0.167366), (0, 0, -1), (-0.710137, 0, -0.704063), (0, 0, -1), (-0.710137, 0, -0.704063), (0, 0, -1), (-0.710137, 0, -0.704063), (0, 0.987088, -0.160182), (0, 0.948683, -0.316228), (0, 0.948683, -0.316228), (0, 0.948683, -0.316228), (0, 0.987088, -0.160182), (0, 0.987088, -0.160182), (0, 1, 0), (0, 1, 0), (0, 1, 0), (0, 1, 0), (0, 1, 0), (0, 1, 0), (0, 1, 0), (0, 1, 0), (0, 1, 0), (-0.967729, 0, 0.251993), (-0.923879, 0, -0.382683), (-0.923879, 0, -0.382683), (-0.923879, 0, -0.382683), (-0.967729, 0, 0.251993), (-1, 0, 0), (-0.923879, 0, -0.382683), (-1, 0, 0), (-1, 0, 0), (-1, 0, 0), (-0.967729, 0, 0.251993), (-1, 0, 0), (-1, 0, 0), (-0.967729, 0, 0.251993), (-1, 0, 0), (-1, 0, 0), (-0.967729, 0, 0.251993), (-0.967729, 0, 0.251993), (-0.452526, -0.734001, 0.506421), (0, -0.804681, 0.593707), (0, -0.804681, 0.593707), (0, -0.804681, 0.593707), (-0.452526, -0.734001, 0.506421), (-0.547313, -0.701711, 0.456124), (0.710137, 0, -0.704063), (0, 0, -1), (0.710137, 0, -0.704063), (0, 0, -1), (0.710137, 0, -0.704063), (0, 0, -1), (0, -1, 0), (0, -1, 0), (0, -1, 0), (0, -1, 0), (0, -1, 0), (0, -1, 0), (0, -1, 0), (0, -1, 0), (0, -1, 0), (0, -1, 0), (0, -1, 0), (0, -1, 0), (0, -1, 0), (0, -1, 0), (0, -1, 0), (0, 1, 0), (0, 1, 0), (0, 1, 0), (0, 1, 0), (0, 1, 0), (0, 1, 0), (0, 1, 0), (0, 1, 0), (0, 1, 0), (0, 1, 0), (0, 1, 0), (0, 1, 0), (0, 1, 0), (0, 1, 0), (0, 1, 0), (0, 1, 0), (0, 1, 0), (0, 1, 0), (0, 1, 0), (0, 1, 0), (0, 1, 0), (0, 1, 0), (0, 1, 0), (0, 1, 0), (0, 1, 0), (0, 1, 0), (0, 1, 0), (0, 1, 0), (0, 1, 0), (0, 1, 0), (0, 0.948683, 0.316228), (0, 0.987088, 0.160182), (0, 0.948683, 0.316228), (0, 0.987088, 0.160182), (0, 0.948683, 0.316228), (0, 0.987088, 0.160182), (0, 0, 1), (-0.710137, 0, 0.704063), (0, 0, 1), (-0.710137, 0, 0.704063), (0, 0, 1), (-0.710137, 0, 0.704063), (-0.710137, 0, -0.704063), (-0.959818, 0, -0.280623), (-0.985895, 0, -0.167366), (-0.959818, 0, -0.280623), (-0.710137, 0, -0.704063), (-0.710137, 0, -0.704063), (0.710137, 0, 0.704063), (0.967729, 0, 0.251993), (0.967729, 0, 0.251993), (0.967729, 0, 0.251993), (0.710137, 0, 0.704063), (0.710137, 0, 0.704063), (-0.547313, -0.701711, 0.456124), (-0.762264, -0.596204, 0.251982), (-0.82533, -0.546434, 0.142265), (-0.762264, -0.596204, 0.251982), (-0.547313, -0.701711, 0.456124), (-0.452526, -0.734001, 0.506421), (-0.236386, -0.631051, -0.738848), (0.61201, -0.63769, -0.467755), (-0.61201, -0.63769, -0.467755), (0.61201, -0.63769, -0.467755), (-0.236386, -0.631051, -0.738848), (0.236386, -0.631051, -0.738848), (-0.61201, -0.63769, -0.467755), (-0.762264, -0.596204, 0.251982), (-0.809415, -0.487102, -0.327992), (-0.762264, -0.596204, 0.251982), (-0.61201, -0.63769, -0.467755), (-0.82533, -0.546434, 0.142265), (0.762264, -0.596204, 0.251982), (0.61201, -0.63769, -0.467755), (0.809415, -0.487102, -0.327992), (0.61201, -0.63769, -0.467755), (0.762264, -0.596204, 0.251982), (0.82533, -0.546434, 0.142265), (0.762264, -0.596204, 0.251982), (0.547313, -0.701711, 0.456124), (0.82533, -0.546434, 0.142265), (0.547313, -0.701711, 0.456124), (0.762264, -0.596204, 0.251982), (0.452526, -0.734001, 0.506421), (0, 1, 0), (0, 1, 0), (0, 1, 0), (0, 1, 0), (0, 1, 0), (0, 1, 0), (0, 0, 1), (0, 0, 1), (0, 0, 1), (0, 0, 1), (0, 0, 1), (0, 0, 1), (0, 0, -1), (0, 0, -1), (0, 0, -1), (0, 0, -1), (0, 0, -1), (0, 0, -1), (-0.61201, -0.63769, -0.467755), (-0.809415, -0.487102, -0.327992), (-0.236386, -0.631051, -0.738848), (0.61201, -0.63769, -0.467755), (0.236386, -0.631051, -0.738848), (0.809415, -0.487102, -0.327992), (-0.710137, 0, 0.704063), (-0.967729, 0, 0.251993), (-0.967729, 0, 0.251993), (-0.967729, 0, 0.251993), (-0.710137, 0, 0.704063), (-0.710137, 0, 0.704063), (0, 1, 0), (0, 1, 0), (0, 1, 0), (0, 1, 0), (0, 1, 0), (0, 1, 0), (-0.382683, 0, -0.923879), (-0.923879, 0, -0.382683), (-0.382683, 0, -0.923879), (-0.923879, 0, -0.382683), (-0.382683, 0, -0.923879), (-0.923879, 0, -0.382683), (0, 0, 1), (0, 0, 1), (0, 0, 1), (0, 0, 1), (0, 0, 1), (0, 0, 1), (-0.382683, 0, -0.923879), (0.382683, 0, -0.923879), (-0.382683, 0, -0.923879), (0.382683, 0, -0.923879), (-0.382683, 0, -0.923879), (0.382683, 0, -0.923879), (1, 0, 0), (1, 0, 0), (1, 0, 0), (1, 0, 0), (1, 0, 0), (1, 0, 0), (1, 0, 0), (1, 0, 0), (1, 0, 0), (1, 0, 0), (1, 0, 0), (1, 0, 0), (1, 0, 0), (1, 0, 0), (0.959818, 0, -0.280623), (1, 0, 0), (0.959818, 0, -0.280623), (0.985895, 0, -0.167366), (1, 0, 0), (0.923879, 0, -0.382683), (0.923879, 0, -0.382683), (0.923879, 0, -0.382683), (1, 0, 0), (1, 0, 0), (0.923879, 0, -0.382683), (1, 0, 0), (0.967729, 0, 0.251993), (0.967729, 0, 0.251993), (1, 0, 0), (1, 0, 0), (0.967729, 0, 0.251993), (1, 0, 0), (1, 0, 0), (0.967729, 0, 0.251993), (1, 0, 0), (0.967729, 0, 0.251993), (0.923879, 0, -0.382683), (0.382683, 0, -0.923879), (0.382683, 0, -0.923879), (0.382683, 0, -0.923879), (0.923879, 0, -0.382683), (0.923879, 0, -0.382683), (0.710137, 0, -0.704063), (0.985895, 0, -0.167366), (0.959818, 0, -0.280623), (0.985895, 0, -0.167366), (0.710137, 0, -0.704063), (0.710137, 0, -0.704063), (0, 0.987088, -0.160182), (0, 0.948683, -0.316228), (0, 0.948683, -0.316228), (0, 0.948683, -0.316228), (0, 0.987088, -0.160182), (0, 0.987088, -0.160182), (0, 0.987088, 0.160182), (0, 0.987088, -0.160182), (0, 0.987088, -0.160182), (0, 0.987088, -0.160182), (0, 0.987088, 0.160182), (0, 0.987088, 0.160182), (0, 0.987088, 0.160182), (0, 0.987088, -0.160182), (0, 0.987088, -0.160182), (0, 0.987088, -0.160182), (0, 0.987088, 0.160182), (0, 0.987088, 0.160182), (0, 1, 0), (0, 1, 0), (0, 1, 0), (0, 1, 0), (0, 1, 0), (0, 1, 0), (0, 1, 0), (0, 1, 0), (0, 1, 0), (0, 1, 0), (0, 1, 0), (0, 1, 0), (0, 1, 0), (0, 1, 0), (0, 1, 0), (0, 1, 0), (0, 1, 0), (0, 1, 0), (0, 1, 0), (0, 1, 0), (0, 1, 0), (0, 1, 0), (0, 1, 0), (0, 1, 0), (0, 0, -1), (0, 0, -1), (0, 0, -1), (0, 0, -1), (0, 0, -1), (0, 0, -1), (0, 0.948683, 0.316228), (0, 0.987088, 0.160182), (0, 0.948683, 0.316228), (0, 0.987088, 0.160182), (0, 0.948683, 0.316228), (0, 0.987088, 0.160182), (0, -0.804681, 0.593707), (0.547313, -0.701711, 0.456124), (0.452526, -0.734001, 0.506421), (0.547313, -0.701711, 0.456124), (0, -0.804681, 0.593707), (0, -0.804681, 0.593707), (0.710137, 0, 0.704063), (0, 0, 1), (0.710137, 0, 0.704063), (0, 0, 1), (0.710137, 0, 0.704063), (0, 0, 1), (-1, 0, 0), (-1, 0, 0), (-1, 0, 0), (-1, 0, 0), (-1, 0, 0), (-1, 0, 0), (-1, 0, 0), (-1, 0, 0), (-1, 0, 0), (-1, 0, 0), (-1, 0, 0), (-1, 0, 0), (-1, 0, 0), (-1, 0, 0), (-0.959818, 0, -0.280623), (-0.959818, 0, -0.280623), (-1, 0, 0), (-0.985895, 0, -0.167366), (0, 0, -1), (-0.710137, 0, -0.704063), (0, 0, -1), (-0.710137, 0, -0.704063), (0, 0, -1), (-0.710137, 0, -0.704063), (0, 0.987088, -0.160182), (0, 0.948683, -0.316228), (0, 0.948683, -0.316228), (0, 0.948683, -0.316228), (0, 0.987088, -0.160182), (0, 0.987088, -0.160182), (0, 1, 0), (0, 1, 0), (0, 1, 0), (0, 1, 0), (0, 1, 0), (0, 1, 0), (0, 1, 0), (0, 1, 0), (0, 1, 0), (-0.967729, 0, 0.251993), (-0.923879, 0, -0.382683), (-0.923879, 0, -0.382683), (-0.923879, 0, -0.382683), (-0.967729, 0, 0.251993), (-1, 0, 0), (-0.923879, 0, -0.382683), (-1, 0, 0), (-1, 0, 0), (-1, 0, 0), (-0.967729, 0, 0.251993), (-1, 0, 0), (-1, 0, 0), (-0.967729, 0, 0.251993), (-1, 0, 0), (-1, 0, 0), (-0.967729, 0, 0.251993), (-0.967729, 0, 0.251993), (-0.452526, -0.734001, 0.506421), (0, -0.804681, 0.593707), (0, -0.804681, 0.593707), (0, -0.804681, 0.593707), (-0.452526, -0.734001, 0.506421), (-0.547313, -0.701711, 0.456124), (0.710137, 0, -0.704063), (0, 0, -1), (0.710137, 0, -0.704063), (0, 0, -1), (0.710137, 0, -0.704063), (0, 0, -1), (0, -1, 0), (0, -1, 0), (0, -1, 0), (0, -1, 0), (0, -1, 0), (0, -1, 0), (0, -1, 0), (0, -1, 0), (0, -1, 0), (0, -1, 0), (0, -1, 0), (0, -1, 0), (0, -1, 0), (0, -1, 0), (0, -1, 0), (0, 1, 0), (0, 1, 0), (0, 1, 0), (0, 1, 0), (0, 1, 0), (0, 1, 0), (0, 1, 0), (0, 1, 0), (0, 1, 0), (0, 1, 0), (0, 1, 0), (0, 1, 0), (0, 1, 0), (0, 1, 0), (0, 1, 0), (0, 1, 0), (0, 1, 0), (0, 1, 0), (0, 1, 0), (0, 1, 0), (0, 1, 0), (0, 1, 0), (0, 1, 0), (0, 1, 0), (0, 1, 0), (0, 1, 0), (0, 1, 0), (0, 1, 0), (0, 1, 0), (0, 1, 0), (0, 0.948683, 0.316228), (0, 0.987088, 0.160182), (0, 0.948683, 0.316228), (0, 0.987088, 0.160182), (0, 0.948683, 0.316228), (0, 0.987088, 0.160182), (0, 0, 1), (-0.710137, 0, 0.704063), (0, 0, 1), (-0.710137, 0, 0.704063), (0, 0, 1), (-0.710137, 0, 0.704063), (-0.710137, 0, -0.704063), (-0.959818, 0, -0.280623), (-0.985895, 0, -0.167366), (-0.959818, 0, -0.280623), (-0.710137, 0, -0.704063), (-0.710137, 0, -0.704063), (0.710137, 0, 0.704063), (0.967729, 0, 0.251993), (0.967729, 0, 0.251993), (0.967729, 0, 0.251993), (0.710137, 0, 0.704063), (0.710137, 0, 0.704063), (-0.547313, -0.701711, 0.456124), (-0.762264, -0.596204, 0.251982), (-0.82533, -0.546434, 0.142265), (-0.762264, -0.596204, 0.251982), (-0.547313, -0.701711, 0.456124), (-0.452526, -0.734001, 0.506421), (-0.236386, -0.631051, -0.738848), (0.61201, -0.63769, -0.467755), (-0.61201, -0.63769, -0.467755), (0.61201, -0.63769, -0.467755), (-0.236386, -0.631051, -0.738848), (0.236386, -0.631051, -0.738848), (-0.61201, -0.63769, -0.467755), (-0.762264, -0.596204, 0.251982), (-0.809415, -0.487102, -0.327992), (-0.762264, -0.596204, 0.251982), (-0.61201, -0.63769, -0.467755), (-0.82533, -0.546434, 0.142265), (0.762264, -0.596204, 0.251982), (0.61201, -0.63769, -0.467755), (0.809415, -0.487102, -0.327992), (0.61201, -0.63769, -0.467755), (0.762264, -0.596204, 0.251982), (0.82533, -0.546434, 0.142265), (0.762264, -0.596204, 0.251982), (0.547313, -0.701711, 0.456124), (0.82533, -0.546434, 0.142265), (0.547313, -0.701711, 0.456124), (0.762264, -0.596204, 0.251982), (0.452526, -0.734001, 0.506421), (0, 1, 0), (0, 1, 0), (0, 1, 0), (0, 1, 0), (0, 1, 0), (0, 1, 0), (0, 0, 1), (0, 0, 1), (0, 0, 1), (0, 0, 1), (0, 0, 1), (0, 0, 1), (0, 0, -1), (0, 0, -1), (0, 0, -1), (0, 0, -1), (0, 0, -1), (0, 0, -1), (0.707107, 0.707107, 0), (0.707107, 0.707107, 0), (0.707107, 0.707107, 0), (0.707107, 0.707107, 0), (0.707107, 0.707107, 0), (0.707107, 0.707107, 0), (0.624695, 0.780869, 0), (0.674643, 0.738144, 0), (0.674643, 0.738144, 0), (0.674643, 0.738144, 0), (0.624695, 0.780869, 0), (0.624695, 0.780869, 0), (-0.707107, 0.707107, 0), (-0.674643, 0.738144, 0), (-0.674643, 0.738144, 0), (-0.674643, 0.738144, 0), (-0.707107, 0.707107, 0), (-0.707107, 0.707107, 0), (-0.707107, 0.707107, 0), (-0.707107, 0.707107, 0), (-0.707107, 0.707107, 0), (-0.707107, 0.707107, 0), (-0.707107, 0.707107, 0), (-0.707107, 0.707107, 0), (0.707107, 0.707107, 0), (0.707107, 0.707107, 0), (0.707107, 0.707107, 0), (0.707107, 0.707107, 0), (0.707107, 0.707107, 0), (0.707107, 0.707107, 0), (0.707107, 0.707107, 0), (0.707107, 0.707107, 0), (0.674643, 0.738144, 0), (0.707107, 0.707107, 0), (0.674643, 0.738144, 0), (0.674643, 0.738144, 0), (0.251497, 0.251497, -0.934611), (0.251497, 0.251497, -0.934611), (0.251497, 0.251497, -0.934611), (0.251497, 0.251497, -0.934611), (0.251497, 0.251497, -0.934611), (0.260654, 0.260654, -0.92958), (0, 0, 1), (0.260654, 0.260654, 0.92958), (0.251497, 0.251497, 0.934611), (0.260654, 0.260654, 0.92958), (0, 0, 1), (0, 0, 1), (-0.251497, 0.251497, -0.934611), (0, 0, -1), (0, 0, -1), (0, 0, -1), (-0.251497, 0.251497, -0.934611), (-0.251497, 0.251497, -0.934611), (0.260654, 0.260654, -0.92958), (0, 0, -1), (0.251497, 0.251497, -0.934611), (0, 0, -1), (0.260654, 0.260654, -0.92958), (0, 0, -1), (0.707107, -0.707107, 0), (0.707107, -0.707107, 0), (0.707107, -0.707107, 0), (0.707107, -0.707107, 0), (0.707107, -0.707107, 0), (0.707107, -0.707107, 0), (0.707107, -0.707107, 0), (0.707107, -0.707107, 0), (0.707107, -0.707107, 0), (0.707107, -0.707107, 0), (0.707107, -0.707107, 0), (0.707107, -0.707107, 0), (0.707107, -0.707107, 0), (0.707107, -0.707107, 0), (0.707107, -0.707107, 0), (0.707107, -0.707107, 0), (0.707107, -0.707107, 0), (0.707107, -0.707107, 0), (-0.260654, 0.260654, 0.92958), (0, 0, 1), (-0.251497, 0.251497, 0.934611), (0, 0, 1), (-0.260654, 0.260654, 0.92958), (0, 0, 1), (-0.251497, 0.251497, 0.934611), (-0.251497, 0.251497, 0.934611), (-0.251497, 0.251497, 0.934611), (-0.251497, 0.251497, 0.934611), (-0.251497, 0.251497, 0.934611), (-0.260654, 0.260654, 0.92958), (-0.674643, 0.738144, 0), (-0.624695, 0.780869, 0), (-0.624695, 0.780869, 0), (-0.624695, 0.780869, 0), (-0.674643, 0.738144, 0), (-0.674643, 0.738144, 0), (0, 0, -1), (0.251497, 0.251497, -0.934611), (0, 0, -1), (0.251497, 0.251497, -0.934611), (0, 0, -1), (0.251497, 0.251497, -0.934611), (-0.707107, 0.707107, 0), (-0.707107, 0.707107, 0), (-0.707107, 0.707107, 0), (-0.707107, 0.707107, 0), (-0.707107, 0.707107, 0), (-0.707107, 0.707107, 0), (0, 0, 1), (-0.251497, 0.251497, 0.934611), (0, 0, 1), (-0.251497, 0.251497, 0.934611), (0, 0, 1), (-0.251497, 0.251497, 0.934611), (0.251497, 0.251497, 0.934611), (0.251497, 0.251497, 0.934611), (0.251497, 0.251497, 0.934611), (0.251497, 0.251497, 0.934611), (0.251497, 0.251497, 0.934611), (0.260654, 0.260654, 0.92958), (0.707107, -0.707107, 0), (0.707107, -0.707107, 0), (0.707107, -0.707107, 0), (0.707107, -0.707107, 0), (0.707107, -0.707107, 0), (0.707107, -0.707107, 0), (0.251497, 0.251497, 0.934611), (0, 0, 1), (0, 0, 1), (0, 0, 1), (0.251497, 0.251497, 0.934611), (0.251497, 0.251497, 0.934611), (-0.707107, -0.707107, 0), (-0.707107, -0.707107, 0), (-0.707107, -0.707107, 0), (-0.707107, -0.707107, 0), (-0.707107, -0.707107, 0), (-0.707107, -0.707107, 0), (0, 0, -1), (-0.260654, 0.260654, -0.92958), (-0.251497, 0.251497, -0.934611), (-0.260654, 0.260654, -0.92958), (0, 0, -1), (0, 0, -1), (-0.707107, -0.707107, 0), (-0.707107, -0.707107, 0), (-0.707107, -0.707107, 0), (-0.707107, -0.707107, 0), (-0.707107, -0.707107, 0), (-0.707107, -0.707107, 0), (-0.707107, -0.707107, 0), (-0.707107, -0.707107, 0), (-0.707107, -0.707107, 0), (-0.707107, -0.707107, 0), (-0.707107, -0.707107, 0), (-0.707107, -0.707107, 0), (-0.707107, -0.707107, 0), (-0.707107, -0.707107, 0), (-0.707107, -0.707107, 0), (-0.707107, -0.707107, 0), (-0.707107, -0.707107, 0), (-0.707107, -0.707107, 0), (-0.251497, 0.251497, -0.934611), (-0.251497, 0.251497, -0.934611), (-0.251497, 0.251497, -0.934611), (-0.251497, 0.251497, -0.934611), (-0.251497, 0.251497, -0.934611), (-0.260654, 0.260654, -0.92958)] (interpolation = "faceVarying")
        texCoord2f[] primvars:st = [(0.84375, 0.025), (0.84375, 0.125), (0.84375, 0.125), (0.84375, 0.025), (0.84375, 0.125), (0.84375, 0.125), (0.84375, 0.125), (0.84375, 0.225), (0.84375, 0.125), (0.84375, 0.225), (0.84375, 0.125), (0.84375, 0.225), (0.84375, 0.1), (0.84375, 0.1), (0.84375, 0.1), (0.84375, 0.1), (0.84375, 0.1), (0.84375, 0.1), (0.84375, 0.125), (0.84375, 0.225), (0.84375, 0.225), (0.84375, 0.225), (0.84375, 0.125), (0.84375, 0.125), (0.84375, 0.225), (0.84375, 0.1), (0.84375, 0.1), (0.84375, 0.1), (0.84375, 0.225), (0.84375, 0.225), (0.84375, 0.225), (0.84375, 0.125), (0.84375, 0.125), (0.84375, 0.125), (0.84375, 0.225), (0.84375, 0.225), (0.84375, 0.225), (0.84375, 0.1), (0.84375, 0.225), (0.84375, 0.1), (0.84375, 0.225), (0.84375, 0.1), (0.84375, 0.1), (0.84375, 0.225), (0.84375, 0.2), (0.84375, 0.1), (0.84375, 0.2), (0.84375, 0.2), (0.84375, 0.1), (0.84375, 0.2), (0.84375, 0.225), (0.84375, 0.1), (0.84375, 0.225), (0.84375, 0.15), (0.84375, 0.225), (0.84375, 0.125), (0.84375, 0.225), (0.84375, 0.125), (0.84375, 0.225), (0.84375, 0.2), (0.84375, 0.125), (0.84375, 0.2), (0.84375, 0.125), (0.84375, 0.125), (0.84375, 0.2), (0.84375, 0.2), (0.84375, 0.125), (0.84375, 0.2), (0.84375, 0.225), (0.84375, 0.125), (0.84375, 0.225), (0.84375, 0.225), (0.84375, 0.225), (0.84375, 0.125), (0.84375, 0.225), (0.84375, 0.125), (0.84375, 0.225), (0.84375, 0.125), (0.84375, 0.225), (0.84375, 0.15), (0.84375, 0.225), (0.84375, 0.15), (0.84375, 0.225), (0.84375, 0.15), (0.84375, 0.2), (0.84375, 0.225), (0.84375, 0.225), (0.84375, 0.225), (0.84375, 0.2), (0.84375, 0.2), (0.84375, 0.2), (0.84375, 0.2), (0.84375, 0.2), (0.84375, 0.2), (0.84375, 0.2), (0.84375, 0.2), (0.84375, 0.2), (0.84375, 0.2), (0.84375, 0.2), (0.84375, 0.2), (0.84375, 0.2), (0.84375, 0.2), (0.84375, 0.225), (0.84375, 0.225), (0.84375, 0.225), (0.84375, 0.225), (0.84375, 0.225), (0.84375, 0.225), (0.84375, 0.225), (0.84375, 0.225), (0.84375, 0.225), (0.84375, 0.225), (0.84375, 0.225), (0.84375, 0.225), (0.84375, 0.225), (0.84375, 0.225), (0.84375, 0.225), (0.84375, 0.225), (0.84375, 0.225), (0.84375, 0.225), (0.84375, 0.225), (0.84375, 0.225), (0.84375, 0.225), (0.84375, 0.225), (0.84375, 0.225), (0.84375, 0.225), (0.84375, 0.1), (0.84375, 0.15), (0.84375, 0.1), (0.84375, 0.15), (0.84375, 0.1), (0.84375, 0.15), (0.84375, 0.225), (0.84375, 0.2), (0.84375, 0.225), (0.84375, 0.2), (0.84375, 0.225), (0.84375, 0.2), (0.84375, 0.125), (0.84375, 0.025), (0.84375, 0.125), (0.84375, 0.025), (0.84375, 0.125), (0.84375, 0.025), (0.84375, 0.225), (0.84375, 0.125), (0.84375, 0.125), (0.84375, 0.125), (0.84375, 0.225), (0.84375, 0.225), (0.84375, 0.1), (0.84375, 0.225), (0.84375, 0.1), (0.84375, 0.225), (0.84375, 0.1), (0.84375, 0.225), (0.84375, 0.225), (0.84375, 0.1), (0.84375, 0.2), (0.84375, 0.2), (0.84375, 0.1), (0.84375, 0.2), (0.84375, 0.2), (0.84375, 0.1), (0.84375, 0.225), (0.84375, 0.225), (0.84375, 0.1), (0.84375, 0.15), (0.84375, 0.225), (0.84375, 0.15), (0.84375, 0.15), (0.84375, 0.15), (0.84375, 0.225), (0.84375, 0.225), (0.84375, 0.2), (0.84375, 0.225), (0.84375, 0.225), (0.84375, 0.225), (0.84375, 0.2), (0.84375, 0.2), (0.84375, 0.15), (0.84375, 0.15), (0.84375, 0.15), (0.84375, 0.15), (0.84375, 0.15), (0.84375, 0.15), (0.84375, 0.15), (0.84375, 0.15), (0.84375, 0.15), (0.84375, 0.125), (0.84375, 0.225), (0.84375, 0.125), (0.84375, 0.225), (0.84375, 0.125), (0.84375, 0.2), (0.84375, 0.225), (0.84375, 0.2), (0.84375, 0.225), (0.84375, 0.2), (0.84375, 0.125), (0.84375, 0.2), (0.84375, 0.2), (0.84375, 0.125), (0.84375, 0.225), (0.84375, 0.225), (0.84375, 0.125), (0.84375, 0.225), (0.84375, 0.125), (0.84375, 0.025), (0.84375, 0.125), (0.84375, 0.025), (0.84375, 0.125), (0.84375, 0.025), (0.84375, 0.225), (0.84375, 0.15), (0.84375, 0.15), (0.84375, 0.15), (0.84375, 0.225), (0.84375, 0.225), (0.84375, 0.025), (0.84375, 0.025), (0.84375, 0.025), (0.84375, 0.025), (0.84375, 0.025), (0.84375, 0.025), (0.84375, 0.025), (0.84375, 0.025), (0.84375, 0.025), (0.84375, 0.025), (0.84375, 0.025), (0.84375, 0.025), (0.84375, 0.025), (0.84375, 0.025), (0.84375, 0.025), (0.84375, 0.225), (0.84375, 0.225), (0.84375, 0.225), (0.84375, 0.225), (0.84375, 0.225), (0.84375, 0.225), (0.84375, 0.225), (0.84375, 0.225), (0.84375, 0.225), (0.84375, 0.225), (0.84375, 0.225), (0.84375, 0.225), (0.84375, 0.225), (0.84375, 0.225), (0.84375, 0.225), (0.84375, 0.225), (0.84375, 0.225), (0.84375, 0.225), (0.84375, 0.225), (0.84375, 0.225), (0.84375, 0.225), (0.84375, 0.225), (0.84375, 0.225), (0.84375, 0.225), (0.84375, 0.225), (0.84375, 0.225), (0.84375, 0.225), (0.84375, 0.225), (0.84375, 0.225), (0.84375, 0.225), (0.84375, 0.225), (0.84375, 0.2), (0.84375, 0.225), (0.84375, 0.2), (0.84375, 0.225), (0.84375, 0.2), (0.84375, 0.225), (0.84375, 0.125), (0.84375, 0.125), (0.84375, 0.125), (0.84375, 0.225), (0.84375, 0.225), (0.84375, 0.15), (0.84375, 0.225), (0.84375, 0.15), (0.84375, 0.225), (0.84375, 0.15), (0.84375, 0.225), (0.84375, 0.225), (0.84375, 0.125), (0.84375, 0.225), (0.84375, 0.125), (0.84375, 0.225), (0.84375, 0.125), (0.84375, 0.025), (0.84375, 0.125), (0.84375, 0.025), (0.84375, 0.125), (0.84375, 0.025), (0.84375, 0.125), (0.84375, 0.125), (0.84375, 0.025), (0.84375, 0.025), (0.84375, 0.025), (0.84375, 0.125), (0.84375, 0.125), (0.84375, 0.025), (0.84375, 0.125), (0.84375, 0.125), (0.84375, 0.125), (0.84375, 0.025), (0.84375, 0.025), (0.84375, 0.125), (0.84375, 0.025), (0.84375, 0.125), (0.84375, 0.025), (0.84375, 0.125), (0.84375, 0.025), (0.84375, 0.125), (0.84375, 0.025), (0.84375, 0.025), (0.84375, 0.025), (0.84375, 0.125), (0.84375, 0.125), (0.84375, 0.225), (0.84375, 0.225), (0.84375, 0.225), (0.84375, 0.225), (0.84375, 0.225), (0.84375, 0.225), (0.84375, 0.225), (0.84375, 0.125), (0.84375, 0.125), (0.84375, 0.125), (0.84375, 0.225), (0.84375, 0.225), (0.84375, 0.225), (0.84375, 0.125), (0.84375, 0.125), (0.84375, 0.125), (0.84375, 0.225), (0.84375, 0.225), (0.84375, 0.025), (0.84375, 0.125), (0.84375, 0.125), (0.84375, 0.025), (0.84375, 0.125), (0.84375, 0.125), (0.84375, 0.125), (0.84375, 0.225), (0.84375, 0.125), (0.84375, 0.225), (0.84375, 0.125), (0.84375, 0.225), (0.84375, 0.1), (0.84375, 0.1), (0.84375, 0.1), (0.84375, 0.1), (0.84375, 0.1), (0.84375, 0.1), (0.84375, 0.125), (0.84375, 0.225), (0.84375, 0.225), (0.84375, 0.225), (0.84375, 0.125), (0.84375, 0.125), (0.84375, 0.225), (0.84375, 0.1), (0.84375, 0.1), (0.84375, 0.1), (0.84375, 0.225), (0.84375, 0.225), (0.84375, 0.225), (0.84375, 0.125), (0.84375, 0.125), (0.84375, 0.125), (0.84375, 0.225), (0.84375, 0.225), (0.84375, 0.225), (0.84375, 0.1), (0.84375, 0.225), (0.84375, 0.1), (0.84375, 0.225), (0.84375, 0.1), (0.84375, 0.1), (0.84375, 0.225), (0.84375, 0.2), (0.84375, 0.1), (0.84375, 0.2), (0.84375, 0.2), (0.84375, 0.1), (0.84375, 0.2), (0.84375, 0.225), (0.84375, 0.1), (0.84375, 0.225), (0.84375, 0.15), (0.84375, 0.225), (0.84375, 0.125), (0.84375, 0.225), (0.84375, 0.125), (0.84375, 0.225), (0.84375, 0.2), (0.84375, 0.125), (0.84375, 0.2), (0.84375, 0.125), (0.84375, 0.125), (0.84375, 0.2), (0.84375, 0.2), (0.84375, 0.125), (0.84375, 0.2), (0.84375, 0.225), (0.84375, 0.125), (0.84375, 0.225), (0.84375, 0.225), (0.84375, 0.225), (0.84375, 0.125), (0.84375, 0.225), (0.84375, 0.125), (0.84375, 0.225), (0.84375, 0.125), (0.84375, 0.225), (0.84375, 0.15), (0.84375, 0.225), (0.84375, 0.15), (0.84375, 0.225), (0.84375, 0.15), (0.84375, 0.2), (0.84375, 0.225), (0.84375, 0.225), (0.84375, 0.225), (0.84375, 0.2), (0.84375, 0.2), (0.84375, 0.2), (0.84375, 0.2), (0.84375, 0.2), (0.84375, 0.2), (0.84375, 0.2), (0.84375, 0.2), (0.84375, 0.2), (0.84375, 0.2), (0.84375, 0.2), (0.84375, 0.2), (0.84375, 0.2), (0.84375, 0.2), (0.84375, 0.225), (0.84375, 0.225), (0.84375, 0.225), (0.84375, 0.225), (0.84375, 0.225), (0.84375, 0.225), (0.84375, 0.225), (0.84375, 0.225), (0.84375, 0.225), (0.84375, 0.225), (0.84375, 0.225), (0.84375, 0.225), (0.84375, 0.225), (0.84375, 0.225), (0.84375, 0.225), (0.84375, 0.225), (0.84375, 0.225), (0.84375, 0.225), (0.84375, 0.225), (0.84375, 0.225), (0.84375, 0.225), (0.84375, 0.225), (0.84375, 0.225), (0.84375, 0.225), (0.84375, 0.1), (0.84375, 0.15), (0.84375, 0.1), (0.84375, 0.15), (0.84375, 0.1), (0.84375, 0.15), (0.84375, 0.225), (0.84375, 0.2), (0.84375, 0.225), (0.84375, 0.2), (0.84375, 0.225), (0.84375, 0.2), (0.84375, 0.125), (0.84375, 0.025), (0.84375, 0.125), (0.84375, 0.025), (0.84375, 0.125), (0.84375, 0.025), (0.84375, 0.225), (0.84375, 0.125), (0.84375, 0.125), (0.84375, 0.125), (0.84375, 0.225), (0.84375, 0.225), (0.84375, 0.1), (0.84375, 0.225), (0.84375, 0.1), (0.84375, 0.225), (0.84375, 0.1), (0.84375, 0.225), (0.84375, 0.225), (0.84375, 0.1), (0.84375, 0.2), (0.84375, 0.2), (0.84375, 0.1), (0.84375, 0.2), (0.84375, 0.2), (0.84375, 0.1), (0.84375, 0.225), (0.84375, 0.225), (0.84375, 0.1), (0.84375, 0.15), (0.84375, 0.225), (0.84375, 0.15), (0.84375, 0.15), (0.84375, 0.15), (0.84375, 0.225), (0.84375, 0.225), (0.84375, 0.2), (0.84375, 0.225), (0.84375, 0.225), (0.84375, 0.225), (0.84375, 0.2), (0.84375, 0.2), (0.84375, 0.15), (0.84375, 0.15), (0.84375, 0.15), (0.84375, 0.15), (0.84375, 0.15), (0.84375, 0.15), (0.84375, 0.15), (0.84375, 0.15), (0.84375, 0.15), (0.84375, 0.125), (0.84375, 0.225), (0.84375, 0.125), (0.84375, 0.225), (0.84375, 0.125), (0.84375, 0.2), (0.84375, 0.225), (0.84375, 0.2), (0.84375, 0.225), (0.84375, 0.2), (0.84375, 0.125), (0.84375, 0.2), (0.84375, 0.2), (0.84375, 0.125), (0.84375, 0.225), (0.84375, 0.225), (0.84375, 0.125), (0.84375, 0.225), (0.84375, 0.125), (0.84375, 0.025), (0.84375, 0.125), (0.84375, 0.025), (0.84375, 0.125), (0.84375, 0.025), (0.84375, 0.225), (0.84375, 0.15), (0.84375, 0.15), (0.84375, 0.15), (0.84375, 0.225), (0.84375, 0.225), (0.84375, 0.025), (0.84375, 0.025), (0.84375, 0.025), (0.84375, 0.025), (0.84375, 0.025), (0.84375, 0.025), (0.84375, 0.025), (0.84375, 0.025), (0.84375, 0.025), (0.84375, 0.025), (0.84375, 0.025), (0.84375, 0.025), (0.84375, 0.025), (0.84375, 0.025), (0.84375, 0.025), (0.84375, 0.225), (0.84375, 0.225), (0.84375, 0.225), (0.84375, 0.225), (0.84375, 0.225), (0.84375, 0.225), (0.84375, 0.225), (0.84375, 0.225), (0.84375, 0.225), (0.84375, 0.225), (0.84375, 0.225), (0.84375, 0.225), (0.84375, 0.225), (0.84375, 0.225), (0.84375, 0.225), (0.84375, 0.225), (0.84375, 0.225), (0.84375, 0.225), (0.84375, 0.225), (0.84375, 0.225), (0.84375, 0.225), (0.84375, 0.225), (0.84375, 0.225), (0.84375, 0.225), (0.84375, 0.225), (0.84375, 0.225), (0.84375, 0.225), (0.84375, 0.225), (0.84375, 0.225), (0.84375, 0.225), (0.84375, 0.225), (0.84375, 0.2), (0.84375, 0.225), (0.84375, 0.2), (0.84375, 0.225), (0.84375, 0.2), (0.84375, 0.225), (0.84375, 0.125), (0.84375, 0.125), (0.84375, 0.125), (0.84375, 0.225), (0.84375, 0.225), (0.84375, 0.15), (0.84375, 0.225), (0.84375, 0.15), (0.84375, 0.225), (0.84375, 0.15), (0.84375, 0.225), (0.84375, 0.225), (0.84375, 0.125), (0.84375, 0.225), (0.84375, 0.125), (0.84375, 0.225), (0.84375, 0.125), (0.84375, 0.025), (0.84375, 0.125), (0.84375, 0.025), (0.84375, 0.125), (0.84375, 0.025), (0.84375, 0.125), (0.84375, 0.125), (0.84375, 0.025), (0.84375, 0.025), (0.84375, 0.025), (0.84375, 0.125), (0.84375, 0.125), (0.84375, 0.025), (0.84375, 0.125), (0.84375, 0.125), (0.84375, 0.125), (0.84375, 0.025), (0.84375, 0.025), (0.84375, 0.125), (0.84375, 0.025), (0.84375, 0.125), (0.84375, 0.025), (0.84375, 0.125), (0.84375, 0.025), (0.84375, 0.125), (0.84375, 0.025), (0.84375, 0.025), (0.84375, 0.025), (0.84375, 0.125), (0.84375, 0.125), (0.84375, 0.225), (0.84375, 0.225), (0.84375, 0.225), (0.84375, 0.225), (0.84375, 0.225), (0.84375, 0.225), (0.84375, 0.225), (0.84375, 0.125), (0.84375, 0.125), (0.84375, 0.125), (0.84375, 0.225), (0.84375, 0.225), (0.84375, 0.225), (0.84375, 0.125), (0.84375, 0.125), (0.84375, 0.125), (0.84375, 0.225), (0.84375, 0.225), (0.84375, 0.225), (0.84375, 0.210714), (0.84375, 0.225), (0.84375, 0.210714), (0.84375, 0.225), (0.84375, 0.210714), (0.84375, 0.225), (0.84375, 0.110714), (0.84375, 0.110714), (0.84375, 0.110714), (0.84375, 0.225), (0.84375, 0.225), (0.84375, 0.0964286), (0.84375, 0.110714), (0.84375, 0.110714), (0.84375, 0.110714), (0.84375, 0.0964286), (0.84375, 0.0964286), (0.84375, 0.0964286), (0.84375, 0.0964286), (0.84375, 0.0535714), (0.84375, 0.0964286), (0.84375, 0.0535714), (0.84375, 0.0535714), (0.84375, 0.0964286), (0.84375, 0.0535714), (0.84375, 0.0535714), (0.84375, 0.0535714), (0.84375, 0.0964286), (0.84375, 0.0964286), (0.84375, 0.0964286), (0.84375, 0.0964286), (0.84375, 0.110714), (0.84375, 0.0964286), (0.84375, 0.110714), (0.84375, 0.110714), (0.84375, 0.0964286), (0.84375, 0.0821429), (0.84375, 0.0678571), (0.84375, 0.0821429), (0.84375, 0.0964286), (0.84375, 0.110714), (0.84375, 0.210714), (0.84375, 0.110714), (0.84375, 0.0821429), (0.84375, 0.110714), (0.84375, 0.210714), (0.84375, 0.225), (0.84375, 0.0678571), (0.84375, 0.0535714), (0.84375, 0.025), (0.84375, 0.0535714), (0.84375, 0.0678571), (0.84375, 0.0964286), (0.84375, 0.110714), (0.84375, 0.210714), (0.84375, 0.0821429), (0.84375, 0.210714), (0.84375, 0.110714), (0.84375, 0.225), (0.84375, 0.0821429), (0.84375, 0.210714), (0.84375, 0.210714), (0.84375, 0.210714), (0.84375, 0.0821429), (0.84375, 0.0821429), (0.84375, 0.0821429), (0.84375, 0.0821429), (0.84375, 0.0678571), (0.84375, 0.0821429), (0.84375, 0.0678571), (0.84375, 0.0678571), (0.84375, 0.0678571), (0.84375, 0.0678571), (0.84375, 0.025), (0.84375, 0.0678571), (0.84375, 0.025), (0.84375, 0.025), (0.84375, 0.110714), (0.84375, 0.210714), (0.84375, 0.0821429), (0.84375, 0.210714), (0.84375, 0.110714), (0.84375, 0.225), (0.84375, 0.0964286), (0.84375, 0.0821429), (0.84375, 0.0678571), (0.84375, 0.0821429), (0.84375, 0.0964286), (0.84375, 0.110714), (0.84375, 0.110714), (0.84375, 0.225), (0.84375, 0.225), (0.84375, 0.225), (0.84375, 0.110714), (0.84375, 0.110714), (0.84375, 0.0535714), (0.84375, 0.0678571), (0.84375, 0.025), (0.84375, 0.0678571), (0.84375, 0.0535714), (0.84375, 0.0964286), (0.84375, 0.210714), (0.84375, 0.225), (0.84375, 0.210714), (0.84375, 0.225), (0.84375, 0.210714), (0.84375, 0.225), (0.84375, 0.0535714), (0.84375, 0.0678571), (0.84375, 0.025), (0.84375, 0.0678571), (0.84375, 0.0535714), (0.84375, 0.0964286), (0.84375, 0.0821429), (0.84375, 0.0964286), (0.84375, 0.0678571), (0.84375, 0.0964286), (0.84375, 0.0821429), (0.84375, 0.110714), (0.84375, 0.0535714), (0.84375, 0.025), (0.84375, 0.0535714), (0.84375, 0.025), (0.84375, 0.0535714), (0.84375, 0.025), (0.84375, 0.0678571), (0.84375, 0.0535714), (0.84375, 0.025), (0.84375, 0.0535714), (0.84375, 0.0678571), (0.84375, 0.0964286), (0.84375, 0.025), (0.84375, 0.0535714), (0.84375, 0.025), (0.84375, 0.0535714), (0.84375, 0.025), (0.84375, 0.0535714), (0.84375, 0.210714), (0.84375, 0.110714), (0.84375, 0.0821429), (0.84375, 0.110714), (0.84375, 0.210714), (0.84375, 0.225), (0.84375, 0.0678571), (0.84375, 0.025), (0.84375, 0.025), (0.84375, 0.025), (0.84375, 0.0678571), (0.84375, 0.0678571), (0.84375, 0.0678571), (0.84375, 0.0678571), (0.84375, 0.0821429), (0.84375, 0.0678571), (0.84375, 0.0821429), (0.84375, 0.0821429), (0.84375, 0.0821429), (0.84375, 0.0821429), (0.84375, 0.210714), (0.84375, 0.0821429), (0.84375, 0.210714), (0.84375, 0.210714), (0.84375, 0.0821429), (0.84375, 0.0964286), (0.84375, 0.0678571), (0.84375, 0.0964286), (0.84375, 0.0821429), (0.84375, 0.110714)] (interpolation = "faceVarying")
        uniform token subdivisionScheme = "none"
        rel material:binding = </Vehicle/Materials/colormap>
    }
    def Scope "Materials" {
        def Material "colormap" {
            token outputs:surface.connect = </Vehicle/Materials/colormap/surface.outputs:surface>
            def Shader "surface" {
                uniform token info:id = "UsdPreviewSurface"
                float inputs:roughness = 0.7
                float inputs:metallic = 0
                color3f inputs:diffuseColor.connect = </Vehicle/Materials/colormap/texture.outputs:rgb>
                token outputs:surface
            }
            def Shader "stReader" {
                uniform token info:id = "UsdPrimvarReader_float2"
                token inputs:varname = "st"
                float2 outputs:result
            }
            def Shader "texture" {
                uniform token info:id = "UsdUVTexture"
                asset inputs:file = @kenney-water-colormap.png@
                float2 inputs:st.connect = </Vehicle/Materials/colormap/stReader.outputs:result>
                token inputs:wrapS = "repeat"
                token inputs:wrapT = "repeat"
                float3 outputs:rgb
            }
        }
    }
}
