#usda 1.0
(
    defaultPrim = "Vehicle"
    metersPerUnit = 1
    upAxis = "Y"
)
def Xform "Vehicle" {
    def Mesh "mesh_colormap" {
        int[] faceVertexCounts = [3, 3, 3, 3, 3, 3, 3, 3, 3, 3, 3, 3, 3, 3, 3, 3, 3, 3, 3, 3, 3, 3, 3, 3, 3, 3, 3, 3, 3, 3, 3, 3, 3, 3, 3, 3, 3, 3, 3, 3, 3, 3, 3, 3, 3, 3, 3, 3, 3, 3, 3, 3, 3, 3, 3, 3, 3, 3, 3, 3, 3, 3, 3, 3, 3, 3, 3, 3, 3, 3, 3, 3, 3, 3, 3, 3, 3, 3, 3, 3, 3, 3, 3, 3, 3, 3, 3, 3, 3, 3, 3, 3, 3, 3, 3, 3, 3, 3, 3, 3, 3, 3, 3, 3, 3, 3, 3, 3, 3, 3, 3, 3, 3, 3, 3, 3, 3, 3, 3, 3, 3, 3, 3, 3, 3, 3, 3, 3, 3, 3, 3, 3, 3, 3, 3, 3, 3, 3, 3, 3, 3, 3, 3, 3, 3, 3, 3, 3, 3, 3, 3, 3, 3, 3, 3, 3, 3, 3, 3, 3, 3, 3, 3, 3, 3, 3, 3, 3, 3, 3, 3, 3, 3, 3, 3, 3, 3, 3, 3, 3, 3, 3, 3, 3, 3, 3, 3, 3, 3, 3, 3, 3, 3, 3, 3, 3, 3, 3, 3, 3, 3, 3, 3, 3, 3, 3, 3, 3, 3, 3, 3, 3, 3, 3, 3, 3, 3, 3, 3, 3, 3, 3, 3, 3, 3, 3, 3, 3, 3, 3, 3, 3, 3, 3, 3, 3, 3, 3, 3, 3, 3, 3, 3, 3, 3, 3, 3, 3, 3, 3, 3, 3, 3, 3, 3, 3, 3, 3, 3, 3, 3, 3, 3, 3, 3, 3, 3, 3, 3, 3, 3, 3]
        int[] faceVertexIndices = [2, 1, 0, 1, 2, 3, 3, 2, 4, 3, 4, 5, 3, 5, 6, 9, 8, 7, 8, 9, 10, 10, 9, 11, 10, 11, 12, 15, 14, 13, 14, 15, 16, 14, 18, 17, 18, 14, 19, 8, 21, 20, 21, 8, 10, 8, 15, 7, 15, 8, 16, 16, 8, 22, 22, 8, 23, 23, 8, 20, 21, 12, 24, 12, 21, 10, 26, 24, 25, 24, 26, 21, 11, 13, 27, 13, 11, 9, 27, 14, 17, 14, 27, 13, 30, 29, 28, 29, 30, 31, 16, 19, 14, 19, 16, 22, 23, 19, 22, 19, 23, 26, 7, 13, 9, 13, 7, 15, 20, 26, 23, 26, 20, 21, 19, 25, 18, 25, 19, 26, 34, 33, 32, 33, 34, 35, 33, 37, 36, 37, 33, 35, 36, 39, 38, 39, 36, 37, 35, 39, 37, 39, 35, 34, 32, 36, 38, 36, 32, 33, 42, 41, 40, 41, 42, 43, 41, 45, 44, 45, 41, 43, 44, 47, 46, 47, 44, 45, 43, 47, 45, 47, 43, 42, 40, 44, 46, 44, 40, 41, 50, 49, 48, 49, 50, 51, 49, 53, 52, 53, 49, 51, 52, 55, 54, 55, 52, 53, 51, 55, 53, 55, 51, 50, 48, 52, 54, 52, 48, 49, 57, 28, 56, 28, 57, 0, 28, 0, 30, 30, 0, 58, 58, 0, 1, 59, 17, 18, 17, 59, 60, 61, 18, 25, 18, 61, 59, 62, 3, 6, 3, 62, 63, 63, 62, 64, 29, 63, 64, 63, 29, 31, 61, 6, 5, 6, 61, 62, 60, 0, 57, 0, 60, 2, 56, 12, 11, 12, 56, 64, 64, 56, 28, 64, 28, 29, 61, 4, 59, 4, 61, 5, 12, 62, 24, 62, 12, 64, 57, 11, 27, 11, 57, 56, 24, 61, 25, 61, 24, 62, 59, 2, 60, 2, 59, 4, 60, 27, 17, 27, 60, 57, 66, 58, 65, 58, 66, 30, 65, 67, 66, 67, 65, 68, 31, 68, 63, 68, 31, 67, 66, 31, 30, 31, 66, 67, 71, 70, 69, 70, 71, 72, 71, 74, 73, 74, 71, 69, 70, 76, 75, 76, 70, 72, 69, 75, 74, 75, 69, 70, 76, 71, 73, 71, 76, 72, 79, 78, 77, 78, 79, 80, 79, 82, 81, 82, 79, 77, 78, 84, 83, 84, 78, 80, 77, 83, 82, 83, 77, 78, 84, 79, 81, 79, 84, 80, 58, 1, 65, 68, 3, 63, 3, 65, 1, 65, 3, 68, 2, 1, 0, 1, 2, 3, 3, 2, 4, 3, 4, 5, 3, 5, 6, 9, 8, 7, 8, 9, 10, 10, 9, 11, 10, 11, 12, 15, 14, 13, 14, 15, 16, 14, 18, 17, 18, 14, 19, 8, 21, 20, 21, 8, 10, 8, 15, 7, 15, 8, 16, 16, 8, 22, 22, 8, 23, 23, 8, 20, 21, 12, 24, 12, 21, 10, 26, 24, 25, 24, 26, 21, 11, 13, 27, 13, 11, 9, 27, 14, 17, 14, 27, 13, 30, 29, 28, 29, 30, 31, 16, 19, 14, 19, 16, 22, 23, 19, 22, 19, 23, 26, 7, 13, 9, 13, 7, 15, 20, 26, 23, 26, 20, 21, 19, 25, 18, 25, 19, 26, 34, 33, 32, 33, 34, 35, 33, 37, 36, 37, 33, 35, 36, 39, 38, 39, 36, 37, 35, 39, 37, 39, 35, 34, 32, 36, 38, 36, 32, 33, 42, 41, 40, 41, 42, 43, 41, 45, 44, 45, 41, 43, 44, 47, 46, 47, 44, 45, 43, 47, 45, 47, 43, 42, 40, 44, 46, 44, 40, 41, 50, 49, 48, 49, 50, 51, 49, 53, 52, 53, 49, 51, 52, 55, 54, 55, 52, 53, 51, 55, 53, 55, 51, 50, 48, 52, 54, 52, 48, 49, 57, 28, 56, 28, 57, 0, 28, 0, 30, 30, 0, 58, 58, 0, 1, 59, 17, 18, 17, 59, 60, 61, 18, 25, 18, 61, 59, 62, 3, 6, 3, 62, 63, 63, 62, 64, 29, 63, 64, 63, 29, 31, 61, 6, 5, 6, 61, 62, 60, 0, 57, 0, 60, 2, 56, 12, 11, 12, 56, 64, 64, 56, 28, 64, 28, 29, 61, 4, 59, 4, 61, 5, 12, 62, 24, 62, 12, 64, 57, 11, 27, 11, 57, 56, 24, 61, 25, 61, 24, 62, 59, 2, 60, 2, 59, 4, 60, 27, 17, 27, 60, 57, 66, 58, 65, 58, 66, 30, 65, 67, 66, 67, 65, 68, 31, 68, 63, 68, 31, 67, 66, 31, 30, 31, 66, 67, 71, 70, 69, 70, 71, 72, 71, 74, 73, 74, 71, 69, 70, 76, 75, 76, 70, 72, 69, 75, 74, 75, 69, 70, 76, 71, 73, 71, 76, 72, 79, 78, 77, 78, 79, 80, 79, 82, 81, 82, 79, 77, 78, 84, 83, 84, 78, 80, 77, 83, 82, 83, 77, 78, 84, 79, 81, 79, 84, 80, 58, 1, 65, 68, 3, 63, 3, 65, 1, 65, 3, 68]
        point3f[] points = [(-0.551119, 0.9, 0.646575), (-0.551119, 0.9, 0.366992), (-0.241163, 0.9, 1.13831), (0.551119, 0.9, 0.366992), (4.58666e-13, 0.9, 1.27179), (0.241163, 0.9, 1.13831), (0.551119, 0.9, 0.646575), (-0.40698, 0, -1.635), (0.40698, 0, -1.635), (-0.6783, 0.2, -1.735), (0.6783, 0.2, -1.735), (-0.8925, 0.6, -1.935), (0.8925, 0.6, -1.935), (-0.6783, 0.2, 0.6363), (-0.296815, 0.2, 1.24151), (-0.40698, 0, 0.16794), (-0.178089, 0, 0.531068), (-0.390547, 0.6, 1.71883), (6.90221e-13, 0.6, 1.935), (5.00991e-13, 0.2, 1.4058), (0.40698, 0, 0.16794), (0.6783, 0.2, 0.6363), (2.21041e-13, 0, 0.62964), (0.178089, 0, 0.531068), (0.8925, 0.6, 0.9225), (0.390547, 0.6, 1.71883), (0.296815, 0.2, 1.24151), (-0.8925, 0.6, 0.9225), (-0.551119, 0.9, -1.935), (0.551119, 0.9, -1.935), (-0.551119, 0.9, -1.11259), (0.551119, 0.9, -1.11259), (-0.1, 0.9, 0.571794), (-0.1, 1, 0.671794), (-0.1, 0.9, 1.07179), (-0.1, 1, 0.971794), (0.1, 1, 0.671794), (0.1, 1, 0.971794), (0.1, 0.9, 0.571794), (0.1, 0.9, 1.07179), (-0.551119, 0.9, -1.81259), (-0.551119, 1, -1.71259), (-0.551119, 0.9, -1.31259), (-0.551119, 1, -1.41259), (-0.351119, 1, -1.71259), (-0.351119, 1, -1.41259), (-0.351119, 0.9, -1.81259), (-0.351119, 0.9, -1.31259), (0.351119, 0.9, -1.81259), (0.351119, 1, -1.71259), (0.351119, 0.9, -1.31259), (0.351119, 1, -1.41259), (0.551119, 1, -1.71259), (0.551119, 1, -1.41259), (0.551119, 0.9, -1.81259), (0.551119, 0.9, -1.31259), (-0.847875, 0.8, -1.935), (-0.847875, 0.8, 0.862875), (-0.551119, 0.9, -0.333008), (6.50648e-13, 0.8, 1.82475), (-0.371019, 0.8, 1.61939), (0.371019, 0.8, 1.61939), (0.847875, 0.8, 0.862875), (0.551119, 0.9, -0.333008), (0.847875, 0.8, -1.935), (-0.551119, 1.1995, -0.333008), (-0.551119, 1.1995, -0.96259), (0.551119, 1.1995, -0.96259), (0.551119, 1.1995, -0.333008), (-0.326119, 1.7, -1.33759), (-0.326119, 1.7, -1.38759), (-0.276119, 1.7, -1.33759), (-0.276119, 1.7, -1.38759), (-0.251119, 0.9, -1.31259), (-0.351119, 0.9, -1.31259), (-0.351119, 0.9, -1.41259), (-0.251119, 0.9, -1.41259), (0.276119, 1.7, -1.33759), (0.276119, 1.7, -1.38759), (0.326119, 1.7, -1.33759), (0.326119, 1.7, -1.38759), (0.351119, 0.9, -1.31259), (0.251119, 0.9, -1.31259), (0.251119, 0.9, -1.41259), (0.351119, 0.9, -1.41259)]
        normal3f[] normals = [(0, 1, 0), (0, 1, 0), (0, 1, 0), (0, 1, 0), (0, 1, 0), (0, 1, 0), (0, 1, 0), (0, 1, 0), (0, 1, 0), (0, 1, 0), (0, 1, 0), (0, 1, 0), (0, 1, 0), (0, 1, 0), (0, 1, 0), (-3.21048e-13, -0.447214, -0.894427), (-3.21048e-13, -0.447214, -0.894427), (-3.21048e-13, -0.447214, -0.894427), (-3.21048e-13, -0.447214, -0.894427), (-3.21048e-13, -0.447214, -0.894427), (-3.21048e-13, -0.447214, -0.894427), (-3.21048e-13, -0.447214, -0.894427), (-3.21048e-13, -0.447214, -0.894427), (-3.21048e-13, -0.447214, -0.894427), (-3.21048e-13, -0.447214, -0.894427), (-3.21048e-13, -0.447214, -0.894427), (-3.21048e-13, -0.447214, -0.894427), (-0.518084, -0.852925, 0.0640928), (-0.192022, -0.952574, 0.236073), (-0.39343, -0.905541, 0.158773), (-0.192022, -0.952574, 0.236073), (-0.518084, -0.852925, 0.0640928), (-0.261964, -0.939502, 0.220704), (-0.532339, -0.697377, 0.479875), (2.16437e-13, -0.797751, 0.602987), (-0.4407, -0.728734, 0.524147), (2.16437e-13, -0.797751, 0.602987), (-0.532339, -0.697377, 0.479875), (2.16437e-13, -0.797751, 0.602987), (0.593353, -0.804942, -2.12979e-13), (0.39343, -0.905541, 0.158773), (0.518084, -0.852925, 0.0640928), (0.39343, -0.905541, 0.158773), (0.593353, -0.804942, -2.12979e-13), (0.593353, -0.804942, -2.12979e-13), (0, -1, 0), (0, -1, 0), (0, -1, 0), (0, -1, 0), (0, -1, 0), (0, -1, 0), (0, -1, 0), (0, -1, 0), (0, -1, 0), (0, -1, 0), (0, -1, 0), (0, -1, 0), (0, -1, 0), (0, -1, 0), (0, -1, 0), (0.81696, -0.55345, 0.162079), (0.881559, -0.472075, -3.16428e-13), (0.754441, -0.597847, 0.270921), (0.881559, -0.472075, -3.16428e-13), (0.81696, -0.55345, 0.162079), (0.881559, -0.472075, -3.16428e-13), (0.532339, -0.697377, 0.479875), (0.754441, -0.597847, 0.270921), (0.4407, -0.728734, 0.524147), (0.754441, -0.597847, 0.270921), (0.532339, -0.697377, 0.479875), (0.81696, -0.55345, 0.162079), (-0.881559, -0.472075, 3.16428e-13), (-0.81696, -0.55345, 0.162079), (-0.754441, -0.597847, 0.270921), (-0.81696, -0.55345, 0.162079), (-0.881559, -0.472075, 3.16428e-13), (-0.881559, -0.472075, 3.16428e-13), (-0.754441, -0.597847, 0.270921), (-0.532339, -0.697377, 0.479875), (-0.4407, -0.728734, 0.524147), (-0.532339, -0.697377, 0.479875), (-0.754441, -0.597847, 0.270921), (-0.81696, -0.55345, 0.162079), (0, 1, 0), (0, 1, 0), (0, 1, 0), (0, 1, 0), (0, 1, 0), (0, 1, 0), (-0.261964, -0.939502, 0.220704), (8.9566e-14, -0.968368, 0.249528), (-0.192022, -0.952574, 0.236073), (8.9566e-14, -0.968368, 0.249528), (-0.261964, -0.939502, 0.220704), (8.9566e-14, -0.968368, 0.249528), (0.261964, -0.939502, 0.220704), (8.9566e-14, -0.968368, 0.249528), (8.9566e-14, -0.968368, 0.249528), (8.9566e-14, -0.968368, 0.249528), (0.261964, -0.939502, 0.220704), (0.192022, -0.952574, 0.236073), (-0.593353, -0.804942, 2.12979e-13), (-0.39343, -0.905541, 0.158773), (-0.593353, -0.804942, 2.12979e-13), (-0.39343, -0.905541, 0.158773), (-0.593353, -0.804942, 2.12979e-13), (-0.518084, -0.852925, 0.0640928), (0.518084, -0.852925, 0.0640928), (0.192022, -0.952574, 0.236073), (0.261964, -0.939502, 0.220704), (0.192022, -0.952574, 0.236073), (0.518084, -0.852925, 0.0640928), (0.39343, -0.905541, 0.158773), (2.16437e-13, -0.797751, 0.602987), (0.4407, -0.728734, 0.524147), (2.16437e-13, -0.797751, 0.602987), (0.4407, -0.728734, 0.524147), (2.16437e-13, -0.797751, 0.602987), (0.532339, -0.697377, 0.479875), (-1, 0, 0), (-1, 0, 0), (-1, 0, 0), (-1, 0, 0), (-1, 0, 0), (-1, 0, 0), (0, 0.923879, -0.382683), (0, 0.923879, 0.382683), (0, 0.923879, -0.382683), (0, 0.923879, 0.382683), (0, 0.923879, -0.382683), (0, 0.923879, 0.382683), (1, 0, 0), (1, 0, 0), (1, 0, 0), (1, 0, 0), (1, 0, 0), (1, 0, 0), (0, 0.923879, 0.382683), (0, 0.707107, 0.707107), (0, 0.923879, 0.382683), (0, 0.707107, 0.707107), (0, 0.923879, 0.382683), (0, 0.707107, 0.707107), (0, 0.707107, -0.707107), (0, 0.923879, -0.382683), (0, 0.707107, -0.707107), (0, 0.923879, -0.382683), (0, 0.707107, -0.707107), (0, 0.923879, -0.382683), (-1, 0, 0), (-1, 0, 0), (-1, 0, 0), (-1, 0, 0), (-1, 0, 0), (-1, 0, 0), (0, 0.923879, -0.382683), (0, 0.923879, 0.382683), (0, 0.923879, -0.382683), (0, 0.923879, 0.382683), (0, 0.923879, -0.382683), (0, 0.923879, 0.382683), (1, 0, 0), (1, 0, 0), (1, 0, 0), (1, 0, 0), (1, 0, 0), (1, 0, 0), (0, 0.923879, 0.382683), (0, 0.707107, 0.707107), (0, 0.923879, 0.382683), (0, 0.707107, 0.707107), (0, 0.923879, 0.382683), (0, 0.707107, 0.707107), (0, 0.707107, -0.707107), (0, 0.923879, -0.382683), (0, 0.707107, -0.707107), (0, 0.923879, -0.382683), (0, 0.707107, -0.707107), (0, 0.923879, -0.382683), (-1, 0, 0), (-1, 0, 0), (-1, 0, 0), (-1, 0, 0), (-1, 0, 0), (-1, 0, 0), (0, 0.923879, -0.382683), (0, 0.923879, 0.382683), (0, 0.923879, -0.382683), (0, 0.923879, 0.382683), (0, 0.923879, -0.382683), (0, 0.923879, 0.382683), (1, 0, 0), (1, 0, 0), (1, 0, 0), (1, 0, 0), (1, 0, 0), (1, 0, 0), (0, 0.923879, 0.382683), (0, 0.707107, 0.707107), (0, 0.923879, 0.382683), (0, 0.707107, 0.707107), (0, 0.923879, 0.382683), (0, 0.707107, 0.707107), (0, 0.707107, -0.707107), (0, 0.923879, -0.382683), (0, 0.707107, -0.707107), (0, 0.923879, -0.382683), (0, 0.707107, -0.707107), (0, 0.923879, -0.382683), (-0.259505, 0.961672, 0.0885686), (-0.319334, 0.947642, 1.14622e-13), (-0.319334, 0.947642, 1.14622e-13), (-0.319334, 0.947642, 1.14622e-13), (-0.259505, 0.961672, 0.0885686), (-0.280822, 0.958028, 0.0576383), (-0.319334, 0.947642, 1.14622e-13), (-0.280822, 0.958028, 0.0576383), (-0.319334, 0.947642, 1.14622e-13), (-0.319334, 0.947642, 1.14622e-13), (-0.280822, 0.958028, 0.0576383), (-0.319334, 0.947642, 1.14622e-13), (-0.319334, 0.947642, 1.14622e-13), (-0.280822, 0.958028, 0.0576383), (-0.319334, 0.947642, 1.14622e-13), (3.14345e-13, 0.482759, 0.875753), (-0.605134, 0.401033, 0.687739), (3.14345e-13, 0.482759, 0.875753), (-0.605134, 0.401033, 0.687739), (3.14345e-13, 0.482759, 0.875753), (-0.661771, 0.384589, 0.643545), (0.661771, 0.384589, 0.643545), (3.14345e-13, 0.482759, 0.875753), (0.605134, 0.401033, 0.687739), (3.14345e-13, 0.482759, 0.875753), (0.661771, 0.384589, 0.643545), (3.14345e-13, 0.482759, 0.875753), (0.259505, 0.961672, 0.0885686), (0.319334, 0.947642, -1.14622e-13), (0.280822, 0.958028, 0.0576383), (0.319334, 0.947642, -1.14622e-13), (0.259505, 0.961672, 0.0885686), (0.319334, 0.947642, -1.14622e-13), (0.319334, 0.947642, -1.14622e-13), (0.259505, 0.961672, 0.0885686), (0.319334, 0.947642, -1.14622e-13), (0.319334, 0.947642, -1.14622e-13), (0.319334, 0.947642, -1.14622e-13), (0.319334, 0.947642, -1.14622e-13), (0.319334, 0.947642, -1.14622e-13), (0.319334, 0.947642, -1.14622e-13), (0.319334, 0.947642, -1.14622e-13), (0.137975, 0.976471, 0.165731), (0.280822, 0.958028, 0.0576383), (0.177293, 0.972005, 0.15419), (0.280822, 0.958028, 0.0576383), (0.137975, 0.976471, 0.165731), (0.259505, 0.961672, 0.0885686), (-0.137975, 0.976471, 0.165731), (-0.280822, 0.958028, 0.0576383), (-0.259505, 0.961672, 0.0885686), (-0.280822, 0.958028, 0.0576383), (-0.137975, 0.976471, 0.165731), (-0.177293, 0.972005, 0.15419), (-3.58942e-13, 0, -1), (-3.58942e-13, 0, -1), (-3.58942e-13, 0, -1), (-3.58942e-13, 0, -1), (-3.58942e-13, 0, -1), (-3.58942e-13, 0, -1), (-3.58942e-13, 0, -1), (-3.58942e-13, 0, -1), (-3.58942e-13, 0, -1), (-3.58942e-13, 0, -1), (-3.58942e-13, 0, -1), (-3.58942e-13, 0, -1), (0.137975, 0.976471, 0.165731), (6.38771e-14, 0.984038, 0.177959), (6.38771e-14, 0.984038, 0.177959), (6.38771e-14, 0.984038, 0.177959), (0.137975, 0.976471, 0.165731), (0.177293, 0.972005, 0.15419), (0.976, 0.21777, -3.50328e-13), (0.93326, 0.276567, 0.229209), (0.909183, 0.291506, 0.297339), (0.93326, 0.276567, 0.229209), (0.976, 0.21777, -3.50328e-13), (0.976, 0.21777, -3.50328e-13), (-0.93326, 0.276567, 0.229209), (-0.976, 0.21777, 3.50328e-13), (-0.909183, 0.291506, 0.297339), (-0.976, 0.21777, 3.50328e-13), (-0.93326, 0.276567, 0.229209), (-0.976, 0.21777, 3.50328e-13), (0.909183, 0.291506, 0.297339), (0.661771, 0.384589, 0.643545), (0.605134, 0.401033, 0.687739), (0.661771, 0.384589, 0.643545), (0.909183, 0.291506, 0.297339), (0.93326, 0.276567, 0.229209), (6.38771e-14, 0.984038, 0.177959), (-0.177293, 0.972005, 0.15419), (-0.137975, 0.976471, 0.165731), (-0.177293, 0.972005, 0.15419), (6.38771e-14, 0.984038, 0.177959), (6.38771e-14, 0.984038, 0.177959), (-0.661771, 0.384589, 0.643545), (-0.909183, 0.291506, 0.297339), (-0.605134, 0.401033, 0.687739), (-0.909183, 0.291506, 0.297339), (-0.661771, 0.384589, 0.643545), (-0.93326, 0.276567, 0.229209), (-1, 0, 3.58942e-13), (-1, 0, 3.58942e-13), (-1, 0, 3.58942e-13), (-1, 0, 3.58942e-13), (-1, 0, 3.58942e-13), (-1, 0, 3.58942e-13), (0, 1, 0), (0, 1, 0), (0, 1, 0), (0, 1, 0), (0, 1, 0), (0, 1, 0), (1, 0, -3.58942e-13), (1, 0, -3.58942e-13), (1, 0, -3.58942e-13), (1, 0, -3.58942e-13), (1, 0, -3.58942e-13), (1, 0, -3.58942e-13), (-3.20941e-13, 0.447807, -0.89413), (-3.20941e-13, 0.447807, -0.89413), (-3.20941e-13, 0.447807, -0.89413), (-3.20941e-13, 0.447807, -0.89413), (-3.20941e-13, 0.447807, -0.89413), (-3.20941e-13, 0.447807, -0.89413), (0, 1, 0), (0, 1, 0), (0, 1, 0), (0, 1, 0), (0, 1, 0), (0, 1, 0), (0.706417, 0.0441511, 0.706417), (-0.706417, 0.0441511, 0.706417), (0.706417, 0.0441511, 0.706417), (-0.706417, 0.0441511, 0.706417), (0.706417, 0.0441511, 0.706417), (-0.706417, 0.0441511, 0.706417), (-0.706417, 0.0441511, -0.706417), (0.706417, 0.0441511, -0.706417), (-0.706417, 0.0441511, -0.706417), (0.706417, 0.0441511, -0.706417), (-0.706417, 0.0441511, -0.706417), (0.706417, 0.0441511, -0.706417), (-0.706417, 0.0441511, 0.706417), (-0.706417, 0.0441511, -0.706417), (-0.706417, 0.0441511, 0.706417), (-0.706417, 0.0441511, -0.706417), (-0.706417, 0.0441511, 0.706417), (-0.706417, 0.0441511, -0.706417), (0.706417, 0.0441511, -0.706417), (0.706417, 0.0441511, 0.706417), (0.706417, 0.0441511, 0.706417), (0.706417, 0.0441511, 0.706417), (0.706417, 0.0441511, -0.706417), (0.706417, 0.0441511, -0.706417), (0, 1, 0), (0, 1, 0), (0, 1, 0), (0, 1, 0), (0, 1, 0), (0, 1, 0), (0.706417, 0.0441511, 0.706417), (-0.706417, 0.0441511, 0.706417), (0.706417, 0.0441511, 0.706417), (-0.706417, 0.0441511, 0.706417), (0.706417, 0.0441511, 0.706417), (-0.706417, 0.0441511, 0.706417), (-0.706417, 0.0441511, -0.706417), (0.706417, 0.0441511, -0.706417), (-0.706417, 0.0441511, -0.706417), (0.706417, 0.0441511, -0.706417), (-0.706417, 0.0441511, -0.706417), (0.706417, 0.0441511, -0.706417), (-0.706417, 0.0441511, 0.706417), (-0.706417, 0.0441511, -0.706417), (-0.706417, 0.0441511, 0.706417), (-0.706417, 0.0441511, -0.706417), (-0.706417, 0.0441511, 0.706417), (-0.706417, 0.0441511, -0.706417), (0.706417, 0.0441511, -0.706417), (0.706417, 0.0441511, 0.706417), (0.706417, 0.0441511, 0.706417), (0.706417, 0.0441511, 0.706417), (0.706417, 0.0441511, -0.706417), (0.706417, 0.0441511, -0.706417), (-1, 0, 3.58942e-13), (-1, 0, 3.58942e-13), (-1, 0, 3.58942e-13), (1, 0, -3.58942e-13), (1, 0, -3.58942e-13), (1, 0, -3.58942e-13), (1.41196e-13, 0.919381, 0.393367), (1.41196e-13, 0.919381, 0.393367), (1.41196e-13, 0.919381, 0.393367), (1.41196e-13, 0.919381, 0.393367), (1.41196e-13, 0.919381, 0.393367), (1.41196e-13, 0.919381, 0.393367), (0, 1, 0), (0, 1, 0), (0, 1, 0), (0, 1, 0), (0, 1, 0), (0, 1, 0), (0, 1, 0), (0, 1, 0), (0, 1, 0), (0, 1, 0), (0, 1, 0), (0, 1, 0), (0, 1, 0), (0, 1, 0), (0, 1, 0), (-3.21048e-13, -0.447214, -0.894427), (-3.21048e-13, -0.447214, -0.894427), (-3.21048e-13, -0.447214, -0.894427), (-3.21048e-13, -0.447214, -0.894427), (-3.21048e-13, -0.447214, -0.894427), (-3.21048e-13, -0.447214, -0.894427), (-3.21048e-13, -0.447214, -0.894427), (-3.21048e-13, -0.447214, -0.894427), (-3.21048e-13, -0.447214, -0.894427), (-3.21048e-13, -0.447214, -0.894427), (-3.21048e-13, -0.447214, -0.894427), (-3.21048e-13, -0.447214, -0.894427), (-0.518084, -0.852925, 0.0640928), (-0.192022, -0.952574, 0.236073), (-0.39343, -0.905541, 0.158773), (-0.192022, -0.952574, 0.236073), (-0.518084, -0.852925, 0.0640928), (-0.261964, -0.939502, 0.220704), (-0.532339, -0.697377, 0.479875), (2.16437e-13, -0.797751, 0.602987), (-0.4407, -0.728734, 0.524147), (2.16437e-13, -0.797751, 0.602987), (-0.532339, -0.697377, 0.479875), (2.16437e-13, -0.797751, 0.602987), (0.593353, -0.804942, -2.12979e-13), (0.39343, -0.905541, 0.158773), (0.518084, -0.852925, 0.0640928), (0.39343, -0.905541, 0.158773), (0.593353, -0.804942, -2.12979e-13), (0.593353, -0.804942, -2.12979e-13), (0, -1, 0), (0, -1, 0), (0, -1, 0), (0, -1, 0), (0, -1, 0), (0, -1, 0), (0, -1, 0), (0, -1, 0), (0, -1, 0), (0, -1, 0), (0, -1, 0), (0, -1, 0), (0, -1, 0), (0, -1, 0), (0, -1, 0), (0.81696, -0.55345, 0.162079), (0.881559, -0.472075, -3.16428e-13), (0.754441, -0.597847, 0.270921), (0.881559, -0.472075, -3.16428e-13), (0.81696, -0.55345, 0.162079), (0.881559, -0.472075, -3.16428e-13), (0.532339, -0.697377, 0.479875), (0.754441, -0.597847, 0.270921), (0.4407, -0.728734, 0.524147), (0.754441, -0.597847, 0.270921), (0.532339, -0.697377, 0.479875), (0.81696, -0.55345, 0.162079), (-0.881559, -0.472075, 3.16428e-13), (-0.81696, -0.55345, 0.162079), (-0.754441, -0.597847, 0.270921), (-0.81696, -0.55345, 0.162079), (-0.881559, -0.472075, 3.16428e-13), (-0.881559, -0.472075, 3.16428e-13), (-0.754441, -0.597847, 0.270921), (-0.532339, -0.697377, 0.479875), (-0.4407, -0.728734, 0.524147), (-0.532339, -0.697377, 0.479875), (-0.754441, -0.597847, 0.270921), (-0.81696, -0.55345, 0.162079), (0, 1, 0), (0, 1, 0), (0, 1, 0), (0, 1, 0), (0, 1, 0), (0, 1, 0), (-0.261964, -0.939502, 0.220704), (8.9566e-14, -0.968368, 0.249528), (-0.192022, -0.952574, 0.236073), (8.9566e-14, -0.968368, 0.249528), (-0.261964, -0.939502, 0.220704), (8.9566e-14, -0.968368, 0.249528), (0.261964, -0.939502, 0.220704), (8.9566e-14, -0.968368, 0.249528), (8.9566e-14, -0.968368, 0.249528), (8.9566e-14, -0.968368, 0.249528), (0.261964, -0.939502, 0.220704), (0.192022, -0.952574, 0.236073), (-0.593353, -0.804942, 2.12979e-13), (-0.39343, -0.905541, 0.158773), (-0.593353, -0.804942, 2.12979e-13), (-0.39343, -0.905541, 0.158773), (-0.593353, -0.804942, 2.12979e-13), (-0.518084, -0.852925, 0.0640928), (0.518084, -0.852925, 0.0640928), (0.192022, -0.952574, 0.236073), (0.261964, -0.939502, 0.220704), (0.192022, -0.952574, 0.236073), (0.518084, -0.852925, 0.0640928), (0.39343, -0.905541, 0.158773), (2.16437e-13, -0.797751, 0.602987), (0.4407, -0.728734, 0.524147), (2.16437e-13, -0.797751, 0.602987), (0.4407, -0.728734, 0.524147), (2.16437e-13, -0.797751, 0.602987), (0.532339, -0.697377, 0.479875), (-1, 0, 0), (-1, 0, 0), (-1, 0, 0), (-1, 0, 0), (-1, 0, 0), (-1, 0, 0), (0, 0.923879, -0.382683), (0, 0.923879, 0.382683), (0, 0.923879, -0.382683), (0, 0.923879, 0.382683), (0, 0.923879, -0.382683), (0, 0.923879, 0.382683), (1, 0, 0), (1, 0, 0), (1, 0, 0), (1, 0, 0), (1, 0, 0), (1, 0, 0), (0, 0.923879, 0.382683), (0, 0.707107, 0.707107), (0, 0.923879, 0.382683), (0, 0.707107, 0.707107), (0, 0.923879, 0.382683), (0, 0.707107, 0.707107), (0, 0.707107, -0.707107), (0, 0.923879, -0.382683), (0, 0.707107, -0.707107), (0, 0.923879, -0.382683), (0, 0.707107, -0.707107), (0, 0.923879, -0.382683), (-1, 0, 0), (-1, 0, 0), (-1, 0, 0), (-1, 0, 0), (-1, 0, 0), (-1, 0, 0), (0, 0.923879, -0.382683), (0, 0.923879, 0.382683), (0, 0.923879, -0.382683), (0, 0.923879, 0.382683), (0, 0.923879, -0.382683), (0, 0.923879, 0.382683), (1, 0, 0), (1, 0, 0), (1, 0, 0), (1, 0, 0), (1, 0, 0), (1, 0, 0), (0, 0.923879, 0.382683), (0, 0.707107, 0.707107), (0, 0.923879, 0.382683), (0, 0.707107, 0.707107), (0, 0.923879, 0.382683), (0, 0.707107, 0.707107), (0, 0.707107, -0.707107), (0, 0.923879, -0.382683), (0, 0.707107, -0.707107), (0, 0.923879, -0.382683), (0, 0.707107, -0.707107), (0, 0.923879, -0.382683), (-1, 0, 0), (-1, 0, 0), (-1, 0, 0), (-1, 0, 0), (-1, 0, 0), (-1, 0, 0), (0, 0.923879, -0.382683), (0, 0.923879, 0.382683), (0, 0.923879, -0.382683), (0, 0.923879, 0.382683), (0, 0.923879, -0.382683), (0, 0.923879, 0.382683), (1, 0, 0), (1, 0, 0), (1, 0, 0), (1, 0, 0), (1, 0, 0), (1, 0, 0), (0, 0.923879, 0.382683), (0, 0.707107, 0.707107), (0, 0.923879, 0.382683), (0, 0.707107, 0.707107), (0, 0.923879, 0.382683), (0, 0.707107, 0.707107), (0, 0.707107, -0.707107), (0, 0.923879, -0.382683), (0, 0.707107, -0.707107), (0, 0.923879, -0.382683), (0, 0.707107, -0.707107), (0, 0.923879, -0.382683), (-0.259505, 0.961672, 0.0885686), (-0.319334, 0.947642, 1.14622e-13), (-0.319334, 0.947642, 1.14622e-13), (-0.319334, 0.947642, 1.14622e-13), (-0.259505, 0.961672, 0.0885686), (-0.280822, 0.958028, 0.0576383), (-0.319334, 0.947642, 1.14622e-13), (-0.280822, 0.958028, 0.0576383), (-0.319334, 0.947642, 1.14622e-13), (-0.319334, 0.947642, 1.14622e-13), (-0.280822, 0.958028, 0.0576383), (-0.319334, 0.947642, 1.14622e-13), (-0.319334, 0.947642, 1.14622e-13), (-0.280822, 0.958028, 0.0576383), (-0.319334, 0.947642, 1.14622e-13), (3.14345e-13, 0.482759, 0.875753), (-0.605134, 0.401033, 0.687739), (3.14345e-13, 0.482759, 0.875753), (-0.605134, 0.401033, 0.687739), (3.14345e-13, 0.482759, 0.875753), (-0.661771, 0.384589, 0.643545), (0.661771, 0.384589, 0.643545), (3.14345e-13, 0.482759, 0.875753), (0.605134, 0.401033, 0.687739), (3.14345e-13, 0.482759, 0.875753), (0.661771, 0.384589, 0.643545), (3.14345e-13, 0.482759, 0.875753), (0.259505, 0.961672, 0.0885686), (0.319334, 0.947642, -1.14622e-13), (0.280822, 0.958028, 0.0576383), (0.319334, 0.947642, -1.14622e-13), (0.259505, 0.961672, 0.0885686), (0.319334, 0.947642, -1.14622e-13), (0.319334, 0.947642, -1.14622e-13), (0.259505, 0.961672, 0.0885686), (0.319334, 0.947642, -1.14622e-13), (0.319334, 0.947642, -1.14622e-13), (0.319334, 0.947642, -1.14622e-13), (0.319334, 0.947642, -1.14622e-13), (0.319334, 0.947642, -1.14622e-13), (0.319334, 0.947642, -1.14622e-13), (0.319334, 0.947642, -1.14622e-13), (0.137975, 0.976471, 0.165731), (0.280822, 0.958028, 0.0576383), (0.177293, 0.972005, 0.15419), (0.280822, 0.958028, 0.0576383), (0.137975, 0.976471, 0.165731), (0.259505, 0.961672, 0.0885686), (-0.137975, 0.976471, 0.165731), (-0.280822, 0.958028, 0.0576383), (-0.259505, 0.961672, 0.0885686), (-0.280822, 0.958028, 0.0576383), (-0.137975, 0.976471, 0.165731), (-0.177293, 0.972005, 0.15419), (-3.58942e-13, 0, -1), (-3.58942e-13, 0, -1), (-3.58942e-13, 0, -1), (-3.58942e-13, 0, -1), (-3.58942e-13, 0, -1), (-3.58942e-13, 0, -1), (-3.58942e-13, 0, -1), (-3.58942e-13, 0, -1), (-3.58942e-13, 0, -1), (-3.58942e-13, 0, -1), (-3.58942e-13, 0, -1), (-3.58942e-13, 0, -1), (0.137975, 0.976471, 0.165731), (6.38771e-14, 0.984038, 0.177959), (6.38771e-14, 0.984038, 0.177959), (6.38771e-14, 0.984038, 0.177959), (0.137975, 0.976471, 0.165731), (0.177293, 0.972005, 0.15419), (0.976, 0.21777, -3.50328e-13), (0.93326, 0.276567, 0.229209), (0.909183, 0.291506, 0.297339), (0.93326, 0.276567, 0.229209), (0.976, 0.21777, -3.50328e-13), (0.976, 0.21777, -3.50328e-13), (-0.93326, 0.276567, 0.229209), (-0.976, 0.21777, 3.50328e-13), (-0.909183, 0.291506, 0.297339), (-0.976, 0.21777, 3.50328e-13), (-0.93326, 0.276567, 0.229209), (-0.976, 0.21777, 3.50328e-13), (0.909183, 0.291506, 0.297339), (0.661771, 0.384589, 0.643545), (0.605134, 0.401033, 0.687739), (0.661771, 0.384589, 0.643545), (0.909183, 0.291506, 0.297339), (0.93326, 0.276567, 0.229209), (6.38771e-14, 0.984038, 0.177959), (-0.177293, 0.972005, 0.15419), (-0.137975, 0.976471, 0.165731), (-0.177293, 0.972005, 0.15419), (6.38771e-14, 0.984038, 0.177959), (6.38771e-14, 0.984038, 0.177959), (-0.661771, 0.384589, 0.643545), (-0.909183, 0.291506, 0.297339), (-0.605134, 0.401033, 0.687739), (-0.909183, 0.291506, 0.297339), (-0.661771, 0.384589, 0.643545), (-0.93326, 0.276567, 0.229209), (-1, 0, 3.58942e-13), (-1, 0, 3.58942e-13), (-1, 0, 3.58942e-13), (-1, 0, 3.58942e-13), (-1, 0, 3.58942e-13), (-1, 0, 3.58942e-13), (0, 1, 0), (0, 1, 0), (0, 1, 0), (0, 1, 0), (0, 1, 0), (0, 1, 0), (1, 0, -3.58942e-13), (1, 0, -3.58942e-13), (1, 0, -3.58942e-13), (1, 0, -3.58942e-13), (1, 0, -3.58942e-13), (1, 0, -3.58942e-13), (-3.20941e-13, 0.447807, -0.89413), (-3.20941e-13, 0.447807, -0.89413), (-3.20941e-13, 0.447807, -0.89413), (-3.20941e-13, 0.447807, -0.89413), (-3.20941e-13, 0.447807, -0.89413), (-3.20941e-13, 0.447807, -0.89413), (0, 1, 0), (0, 1, 0), (0, 1, 0), (0, 1, 0), (0, 1, 0), (0, 1, 0), (0.706417, 0.0441511, 0.706417), (-0.706417, 0.0441511, 0.706417), (0.706417, 0.0441511, 0.706417), (-0.706417, 0.0441511, 0.706417), (0.706417, 0.0441511, 0.706417), (-0.706417, 0.0441511, 0.706417), (-0.706417, 0.0441511, -0.706417), (0.706417, 0.0441511, -0.706417), (-0.706417, 0.0441511, -0.706417), (0.706417, 0.0441511, -0.706417), (-0.706417, 0.0441511, -0.706417), (0.706417, 0.0441511, -0.706417), (-0.706417, 0.0441511, 0.706417), (-0.706417, 0.0441511, -0.706417), (-0.706417, 0.0441511, 0.706417), (-0.706417, 0.0441511, -0.706417), (-0.706417, 0.0441511, 0.706417), (-0.706417, 0.0441511, -0.706417), (0.706417, 0.0441511, -0.706417), (0.706417, 0.0441511, 0.706417), (0.706417, 0.0441511, 0.706417), (0.706417, 0.0441511, 0.706417), (0.706417, 0.0441511, -0.706417), (0.706417, 0.0441511, -0.706417), (0, 1, 0), (0, 1, 0), (0, 1, 0), (0, 1, 0), (0, 1, 0), (0, 1, 0), (0.706417, 0.0441511, 0.706417), (-0.706417, 0.0441511, 0.706417), (0.706417, 0.0441511, 0.706417), (-0.706417, 0.0441511, 0.706417), (0.706417, 0.0441511, 0.706417), (-0.706417, 0.0441511, 0.706417), (-0.706417, 0.0441511, -0.706417), (0.706417, 0.0441511, -0.706417), (-0.706417, 0.0441511, -0.706417), (0.706417, 0.0441511, -0.706417), (-0.706417, 0.0441511, -0.706417), (0.706417, 0.0441511, -0.706417), (-0.706417, 0.0441511, 0.706417), (-0.706417, 0.0441511, -0.706417), (-0.706417, 0.0441511, 0.706417), (-0.706417, 0.0441511, -0.706417), (-0.706417, 0.0441511, 0.706417), (-0.706417, 0.0441511, -0.706417), (0.706417, 0.0441511, -0.706417), (0.706417, 0.0441511, 0.706417), (0.706417, 0.0441511, 0.706417), (0.706417, 0.0441511, 0.706417), (0.706417, 0.0441511, -0.706417), (0.706417, 0.0441511, -0.706417), (-1, 0, 3.58942e-13), (-1, 0, 3.58942e-13), (-1, 0, 3.58942e-13), (1, 0, -3.58942e-13), (1, 0, -3.58942e-13), (1, 0, -3.58942e-13), (1.41196e-13, 0.919381, 0.393367), (1.41196e-13, 0.919381, 0.393367), (1.41196e-13, 0.919381, 0.393367), (1.41196e-13, 0.919381, 0.393367), (1.41196e-13, 0.919381, 0.393367), (1.41196e-13, 0.919381, 0.393367)] (interpolation = "faceVarying")
        texCoord2f[] primvars:st = [(0.71875, 0.175062), (0.71875, 0.175062), (0.71875, 0.175062), (0.71875, 0.175062), (0.71875, 0.175062), (0.71875, 0.175062), (0.71875, 0.175062), (0.71875, 0.175062), (0.71875, 0.175062), (0.71875, 0.175062), (0.71875, 0.175062), (0.71875, 0.175062), (0.71875, 0.175062), (0.71875, 0.175062), (0.71875, 0.175062), (0.71875, 0.0583472), (0.71875, 0.025), (0.71875, 0.025), (0.71875, 0.025), (0.71875, 0.0583472), (0.71875, 0.0583472), (0.71875, 0.0583472), (0.71875, 0.0583472), (0.71875, 0.125041), (0.71875, 0.0583472), (0.71875, 0.125041), (0.71875, 0.125041), (0.71875, 0.025), (0.71875, 0.0583472), (0.71875, 0.0583472), (0.71875, 0.0583472), (0.71875, 0.025), (0.71875, 0.025), (0.71875, 0.0583472), (0.71875, 0.125041), (0.71875, 0.125041), (0.71875, 0.125041), (0.71875, 0.0583472), (0.71875, 0.0583472), (0.71875, 0.025), (0.71875, 0.0583472), (0.71875, 0.025), (0.71875, 0.0583472), (0.71875, 0.025), (0.71875, 0.0583472), (0.71875, 0.025), (0.71875, 0.025), (0.71875, 0.025), (0.71875, 0.025), (0.71875, 0.025), (0.71875, 0.025), (0.71875, 0.025), (0.71875, 0.025), (0.71875, 0.025), (0.71875, 0.025), (0.71875, 0.025), (0.71875, 0.025), (0.71875, 0.025), (0.71875, 0.025), (0.71875, 0.025), (0.71875, 0.0583472), (0.71875, 0.125041), (0.71875, 0.125041), (0.71875, 0.125041), (0.71875, 0.0583472), (0.71875, 0.0583472), (0.71875, 0.0583472), (0.71875, 0.125041), (0.71875, 0.125041), (0.71875, 0.125041), (0.71875, 0.0583472), (0.71875, 0.0583472), (0.71875, 0.125041), (0.71875, 0.0583472), (0.71875, 0.125041), (0.71875, 0.0583472), (0.71875, 0.125041), (0.71875, 0.0583472), (0.71875, 0.125041), (0.71875, 0.0583472), (0.71875, 0.125041), (0.71875, 0.0583472), (0.71875, 0.125041), (0.71875, 0.0583472), (0.71875, 0.175062), (0.71875, 0.175062), (0.71875, 0.175062), (0.71875, 0.175062), (0.71875, 0.175062), (0.71875, 0.175062), (0.71875, 0.025), (0.71875, 0.0583472), (0.71875, 0.0583472), (0.71875, 0.0583472), (0.71875, 0.025), (0.71875, 0.025), (0.71875, 0.025), (0.71875, 0.0583472), (0.71875, 0.025), (0.71875, 0.0583472), (0.71875, 0.025), (0.71875, 0.0583472), (0.71875, 0.025), (0.71875, 0.0583472), (0.71875, 0.0583472), (0.71875, 0.0583472), (0.71875, 0.025), (0.71875, 0.025), (0.71875, 0.025), (0.71875, 0.0583472), (0.71875, 0.025), (0.71875, 0.0583472), (0.71875, 0.025), (0.71875, 0.0583472), (0.71875, 0.0583472), (0.71875, 0.125041), (0.71875, 0.125041), (0.71875, 0.125041), (0.71875, 0.0583472), (0.71875, 0.0583472), (0.71875, 0.025), (0.71875, 0.225), (0.71875, 0.025), (0.71875, 0.225), (0.71875, 0.025), (0.71875, 0.225), (0.71875, 0.225), (0.71875, 0.225), (0.71875, 0.225), (0.71875, 0.225), (0.71875, 0.225), (0.71875, 0.225), (0.71875, 0.225), (0.71875, 0.025), (0.71875, 0.025), (0.71875, 0.025), (0.71875, 0.225), (0.71875, 0.225), (0.71875, 0.225), (0.71875, 0.025), (0.71875, 0.225), (0.71875, 0.025), (0.71875, 0.225), (0.71875, 0.025), (0.71875, 0.025), (0.71875, 0.225), (0.71875, 0.025), (0.71875, 0.225), (0.71875, 0.025), (0.71875, 0.225), (0.71875, 0.025), (0.71875, 0.225), (0.71875, 0.025), (0.71875, 0.225), (0.71875, 0.025), (0.71875, 0.225), (0.71875, 0.225), (0.71875, 0.225), (0.71875, 0.225), (0.71875, 0.225), (0.71875, 0.225), (0.71875, 0.225), (0.71875, 0.225), (0.71875, 0.025), (0.71875, 0.025), (0.71875, 0.025), (0.71875, 0.225), (0.71875, 0.225), (0.71875, 0.225), (0.71875, 0.025), (0.71875, 0.225), (0.71875, 0.025), (0.71875, 0.225), (0.71875, 0.025), (0.71875, 0.025), (0.71875, 0.225), (0.71875, 0.025), (0.71875, 0.225), (0.71875, 0.025), (0.71875, 0.225), (0.71875, 0.025), (0.71875, 0.225), (0.71875, 0.025), (0.71875, 0.225), (0.71875, 0.025), (0.71875, 0.225), (0.71875, 0.225), (0.71875, 0.225), (0.71875, 0.225), (0.71875, 0.225), (0.71875, 0.225), (0.71875, 0.225), (0.71875, 0.225), (0.71875, 0.025), (0.71875, 0.025), (0.71875, 0.025), (0.71875, 0.225), (0.71875, 0.225), (0.71875, 0.225), (0.71875, 0.025), (0.71875, 0.225), (0.71875, 0.025), (0.71875, 0.225), (0.71875, 0.025), (0.71875, 0.025), (0.71875, 0.225), (0.71875, 0.025), (0.71875, 0.225), (0.71875, 0.025), (0.71875, 0.225), (0.84375, 0.158389), (0.84375, 0.175062), (0.84375, 0.158389), (0.84375, 0.175062), (0.84375, 0.158389), (0.84375, 0.175062), (0.84375, 0.175062), (0.84375, 0.175062), (0.84375, 0.175062), (0.84375, 0.175062), (0.84375, 0.175062), (0.84375, 0.175062), (0.84375, 0.175062), (0.84375, 0.175062), (0.84375, 0.175062), (0.84375, 0.158389), (0.84375, 0.125041), (0.84375, 0.125041), (0.84375, 0.125041), (0.84375, 0.158389), (0.84375, 0.158389), (0.84375, 0.158389), (0.84375, 0.125041), (0.84375, 0.125041), (0.84375, 0.125041), (0.84375, 0.158389), (0.84375, 0.158389), (0.84375, 0.158389), (0.84375, 0.175062), (0.84375, 0.175062), (0.84375, 0.175062), (0.84375, 0.158389), (0.84375, 0.175062), (0.84375, 0.175062), (0.84375, 0.158389), (0.84375, 0.158389), (0.84375, 0.175062), (0.84375, 0.175062), (0.84375, 0.158389), (0.84375, 0.175062), (0.84375, 0.175062), (0.84375, 0.175062), (0.84375, 0.158389), (0.84375, 0.175062), (0.84375, 0.175062), (0.84375, 0.175062), (0.84375, 0.158389), (0.84375, 0.158389), (0.84375, 0.158389), (0.84375, 0.175062), (0.84375, 0.158389), (0.84375, 0.175062), (0.84375, 0.158389), (0.84375, 0.175062), (0.84375, 0.158389), (0.84375, 0.125041), (0.84375, 0.125041), (0.84375, 0.125041), (0.84375, 0.158389), (0.84375, 0.158389), (0.84375, 0.158389), (0.84375, 0.158389), (0.84375, 0.175062), (0.84375, 0.158389), (0.84375, 0.175062), (0.84375, 0.175062), (0.84375, 0.158389), (0.84375, 0.175062), (0.84375, 0.158389), (0.84375, 0.175062), (0.84375, 0.158389), (0.84375, 0.175062), (0.84375, 0.125041), (0.84375, 0.158389), (0.84375, 0.125041), (0.84375, 0.158389), (0.84375, 0.125041), (0.84375, 0.158389), (0.84375, 0.158389), (0.84375, 0.125041), (0.84375, 0.125041), (0.84375, 0.125041), (0.84375, 0.158389), (0.84375, 0.158389), (0.84375, 0.125041), (0.84375, 0.158389), (0.84375, 0.125041), (0.84375, 0.158389), (0.84375, 0.125041), (0.84375, 0.158389), (0.84375, 0.158389), (0.84375, 0.175062), (0.84375, 0.158389), (0.84375, 0.175062), (0.84375, 0.158389), (0.84375, 0.175062), (0.84375, 0.158389), (0.84375, 0.125041), (0.84375, 0.125041), (0.84375, 0.125041), (0.84375, 0.158389), (0.84375, 0.158389), (0.46875, 0.225), (0.46875, 0.175062), (0.46875, 0.225), (0.46875, 0.175062), (0.46875, 0.225), (0.46875, 0.175062), (0.46875, 0.225), (0.46875, 0.225), (0.46875, 0.225), (0.46875, 0.225), (0.46875, 0.225), (0.46875, 0.225), (0.46875, 0.175062), (0.46875, 0.225), (0.46875, 0.175062), (0.46875, 0.225), (0.46875, 0.175062), (0.46875, 0.225), (0.46875, 0.225), (0.46875, 0.175062), (0.46875, 0.175062), (0.46875, 0.175062), (0.46875, 0.225), (0.46875, 0.225), (0.46875, 0.225), (0.46875, 0.225), (0.46875, 0.225), (0.46875, 0.225), (0.46875, 0.225), (0.46875, 0.225), (0.46875, 0.225), (0.46875, 0.025), (0.46875, 0.025), (0.46875, 0.025), (0.46875, 0.225), (0.46875, 0.225), (0.46875, 0.225), (0.46875, 0.025), (0.46875, 0.025), (0.46875, 0.025), (0.46875, 0.225), (0.46875, 0.225), (0.46875, 0.225), (0.46875, 0.025), (0.46875, 0.025), (0.46875, 0.025), (0.46875, 0.225), (0.46875, 0.225), (0.46875, 0.025), (0.46875, 0.225), (0.46875, 0.025), (0.46875, 0.225), (0.46875, 0.025), (0.46875, 0.225), (0.46875, 0.225), (0.46875, 0.225), (0.46875, 0.225), (0.46875, 0.225), (0.46875, 0.225), (0.46875, 0.225), (0.46875, 0.225), (0.46875, 0.025), (0.46875, 0.025), (0.46875, 0.025), (0.46875, 0.225), (0.46875, 0.225), (0.46875, 0.225), (0.46875, 0.025), (0.46875, 0.025), (0.46875, 0.025), (0.46875, 0.225), (0.46875, 0.225), (0.46875, 0.225), (0.46875, 0.025), (0.46875, 0.025), (0.46875, 0.025), (0.46875, 0.225), (0.46875, 0.225), (0.46875, 0.025), (0.46875, 0.225), (0.46875, 0.025), (0.46875, 0.225), (0.46875, 0.025), (0.46875, 0.225), (0.09375, 0.025), (0.09375, 0.025), (0.09375, 0.225), (0.09375, 0.225), (0.09375, 0.025), (0.09375, 0.025), (0.09375, 0.025), (0.09375, 0.225), (0.09375, 0.025), (0.09375, 0.225), (0.09375, 0.025), (0.09375, 0.225), (0.71875, 0.175062), (0.71875, 0.175062), (0.71875, 0.175062), (0.71875, 0.175062), (0.71875, 0.175062), (0.71875, 0.175062), (0.71875, 0.175062), (0.71875, 0.175062), (0.71875, 0.175062), (0.71875, 0.175062), (0.71875, 0.175062), (0.71875, 0.175062), (0.71875, 0.175062), (0.71875, 0.175062), (0.71875, 0.175062), (0.71875, 0.0583472), (0.71875, 0.025), (0.71875, 0.025), (0.71875, 0.025), (0.71875, 0.0583472), (0.71875, 0.0583472), (0.71875, 0.0583472), (0.71875, 0.0583472), (0.71875, 0.125041), (0.71875, 0.0583472), (0.71875, 0.125041), (0.71875, 0.125041), (0.71875, 0.025), (0.71875, 0.0583472), (0.71875, 0.0583472), (0.71875, 0.0583472), (0.71875, 0.025), (0.71875, 0.025), (0.71875, 0.0583472), (0.71875, 0.125041), (0.71875, 0.125041), (0.71875, 0.125041), (0.71875, 0.0583472), (0.71875, 0.0583472), (0.71875, 0.025), (0.71875, 0.0583472), (0.71875, 0.025), (0.71875, 0.0583472), (0.71875, 0.025), (0.71875, 0.0583472), (0.71875, 0.025), (0.71875, 0.025), (0.71875, 0.025), (0.71875, 0.025), (0.71875, 0.025), (0.71875, 0.025), (0.71875, 0.025), (0.71875, 0.025), (0.71875, 0.025), (0.71875, 0.025), (0.71875, 0.025), (0.71875, 0.025), (0.71875, 0.025), (0.71875, 0.025), (0.71875, 0.025), (0.71875, 0.0583472), (0.71875, 0.125041), (0.71875, 0.125041), (0.71875, 0.125041), (0.71875, 0.0583472), (0.71875, 0.0583472), (0.71875, 0.0583472), (0.71875, 0.125041), (0.71875, 0.125041), (0.71875, 0.125041), (0.71875, 0.0583472), (0.71875, 0.0583472), (0.71875, 0.125041), (0.71875, 0.0583472), (0.71875, 0.125041), (0.71875, 0.0583472), (0.71875, 0.125041), (0.71875, 0.0583472), (0.71875, 0.125041), (0.71875, 0.0583472), (0.71875, 0.125041), (0.71875, 0.0583472), (0.71875, 0.125041), (0.71875, 0.0583472), (0.71875, 0.175062), (0.71875, 0.175062), (0.71875, 0.175062), (0.71875, 0.175062), (0.71875, 0.175062), (0.71875, 0.175062), (0.71875, 0.025), (0.71875, 0.0583472), (0.71875, 0.0583472), (0.71875, 0.0583472), (0.71875, 0.025), (0.71875, 0.025), (0.71875, 0.025), (0.71875, 0.0583472), (0.71875, 0.025), (0.71875, 0.0583472), (0.71875, 0.025), (0.71875, 0.0583472), (0.71875, 0.025), (0.71875, 0.0583472), (0.71875, 0.0583472), (0.71875, 0.0583472), (0.71875, 0.025), (0.71875, 0.025), (0.71875, 0.025), (0.71875, 0.0583472), (0.71875, 0.025), (0.71875, 0.0583472), (0.71875, 0.025), (0.71875, 0.0583472), (0.71875, 0.0583472), (0.71875, 0.125041), (0.71875, 0.125041), (0.71875, 0.125041), (0.71875, 0.0583472), (0.71875, 0.0583472), (0.71875, 0.025), (0.71875, 0.225), (0.71875, 0.025), (0.71875, 0.225), (0.71875, 0.025), (0.71875, 0.225), (0.71875, 0.225), (0.71875, 0.225), (0.71875, 0.225), (0.71875, 0.225), (0.71875, 0.225), (0.71875, 0.225), (0.71875, 0.225), (0.71875, 0.025), (0.71875, 0.025), (0.71875, 0.025), (0.71875, 0.225), (0.71875, 0.225), (0.71875, 0.225), (0.71875, 0.025), (0.71875, 0.225), (0.71875, 0.025), (0.71875, 0.225), (0.71875, 0.025), (0.71875, 0.025), (0.71875, 0.225), (0.71875, 0.025), (0.71875, 0.225), (0.71875, 0.025), (0.71875, 0.225), (0.71875, 0.025), (0.71875, 0.225), (0.71875, 0.025), (0.71875, 0.225), (0.71875, 0.025), (0.71875, 0.225), (0.71875, 0.225), (0.71875, 0.225), (0.71875, 0.225), (0.71875, 0.225), (0.71875, 0.225), (0.71875, 0.225), (0.71875, 0.225), (0.71875, 0.025), (0.71875, 0.025), (0.71875, 0.025), (0.71875, 0.225), (0.71875, 0.225), (0.71875, 0.225), (0.71875, 0.025), (0.71875, 0.225), (0.71875, 0.025), (0.71875, 0.225), (0.71875, 0.025), (0.71875, 0.025), (0.71875, 0.225), (0.71875, 0.025), (0.71875, 0.225), (0.71875, 0.025), (0.71875, 0.225), (0.71875, 0.025), (0.71875, 0.225), (0.71875, 0.025), (0.71875, 0.225), (0.71875, 0.025), (0.71875, 0.225), (0.71875, 0.225), (0.71875, 0.225), (0.71875, 0.225), (0.71875, 0.225), (0.71875, 0.225), (0.71875, 0.225), (0.71875, 0.225), (0.71875, 0.025), (0.71875, 0.025), (0.71875, 0.025), (0.71875, 0.225), (0.71875, 0.225), (0.71875, 0.225), (0.71875, 0.025), (0.71875, 0.225), (0.71875, 0.025), (0.71875, 0.225), (0.71875, 0.025), (0.71875, 0.025), (0.71875, 0.225), (0.71875, 0.025), (0.71875, 0.225), (0.71875, 0.025), (0.71875, 0.225), (0.84375, 0.158389), (0.84375, 0.175062), (0.84375, 0.158389), (0.84375, 0.175062), (0.84375, 0.158389), (0.84375, 0.175062), (0.84375, 0.175062), (0.84375, 0.175062), (0.84375, 0.175062), (0.84375, 0.175062), (0.84375, 0.175062), (0.84375, 0.175062), (0.84375, 0.175062), (0.84375, 0.175062), (0.84375, 0.175062), (0.84375, 0.158389), (0.84375, 0.125041), (0.84375, 0.125041), (0.84375, 0.125041), (0.84375, 0.158389), (0.84375, 0.158389), (0.84375, 0.158389), (0.84375, 0.125041), (0.84375, 0.125041), (0.84375, 0.125041), (0.84375, 0.158389), (0.84375, 0.158389), (0.84375, 0.158389), (0.84375, 0.175062), (0.84375, 0.175062), (0.84375, 0.175062), (0.84375, 0.158389), (0.84375, 0.175062), (0.84375, 0.175062), (0.84375, 0.158389), (0.84375, 0.158389), (0.84375, 0.175062), (0.84375, 0.175062), (0.84375, 0.158389), (0.84375, 0.175062), (0.84375, 0.175062), (0.84375, 0.175062), (0.84375, 0.158389), (0.84375, 0.175062), (0.84375, 0.175062), (0.84375, 0.175062), (0.84375, 0.158389), (0.84375, 0.158389), (0.84375, 0.158389), (0.84375, 0.175062), (0.84375, 0.158389), (0.84375, 0.175062), (0.84375, 0.158389), (0.84375, 0.175062), (0.84375, 0.158389), (0.84375, 0.125041), (0.84375, 0.125041), (0.84375, 0.125041), (0.84375, 0.158389), (0.84375, 0.158389), (0.84375, 0.158389), (0.84375, 0.158389), (0.84375, 0.175062), (0.84375, 0.158389), (0.84375, 0.175062), (0.84375, 0.175062), (0.84375, 0.158389), (0.84375, 0.175062), (0.84375, 0.158389), (0.84375, 0.175062), (0.84375, 0.158389), (0.84375, 0.175062), (0.84375, 0.125041), (0.84375, 0.158389), (0.84375, 0.125041), (0.84375, 0.158389), (0.84375, 0.125041), (0.84375, 0.158389), (0.84375, 0.158389), (0.84375, 0.125041), (0.84375, 0.125041), (0.84375, 0.125041), (0.84375, 0.158389), (0.84375, 0.158389), (0.84375, 0.125041), (0.84375, 0.158389), (0.84375, 0.125041), (0.84375, 0.158389), (0.84375, 0.125041), (0.84375, 0.158389), (0.84375, 0.158389), (0.84375, 0.175062), (0.84375, 0.158389), (0.84375, 0.175062), (0.84375, 0.158389), (0.84375, 0.175062), (0.84375, 0.158389), (0.84375, 0.125041), (0.84375, 0.125041), (0.84375, 0.125041), (0.84375, 0.158389), (0.84375, 0.158389), (0.46875, 0.225), (0.46875, 0.175062), (0.46875, 0.225), (0.46875, 0.175062), (0.46875, 0.225), (0.46875, 0.175062), (0.46875, 0.225), (0.46875, 0.225), (0.46875, 0.225), (0.46875, 0.225), (0.46875, 0.225), (0.46875, 0.225), (0.46875, 0.175062), (0.46875, 0.225), (0.46875, 0.175062), (0.46875, 0.225), (0.46875, 0.175062), (0.46875, 0.225), (0.46875, 0.225), (0.46875, 0.175062), (0.46875, 0.175062), (0.46875, 0.175062), (0.46875, 0.225), (0.46875, 0.225), (0.46875, 0.225), (0.46875, 0.225), (0.46875, 0.225), (0.46875, 0.225), (0.46875, 0.225), (0.46875, 0.225), (0.46875, 0.225), (0.46875, 0.025), (0.46875, 0.025), (0.46875, 0.025), (0.46875, 0.225), (0.46875, 0.225), (0.46875, 0.225), (0.46875, 0.025), (0.46875, 0.025), (0.46875, 0.025), (0.46875, 0.225), (0.46875, 0.225), (0.46875, 0.225), (0.46875, 0.025), (0.46875, 0.025), (0.46875, 0.025), (0.46875, 0.225), (0.46875, 0.225), (0.46875, 0.025), (0.46875, 0.225), (0.46875, 0.025), (0.46875, 0.225), (0.46875, 0.025), (0.46875, 0.225), (0.46875, 0.225), (0.46875, 0.225), (0.46875, 0.225), (0.46875, 0.225), (0.46875, 0.225), (0.46875, 0.225), (0.46875, 0.225), (0.46875, 0.025), (0.46875, 0.025), (0.46875, 0.025), (0.46875, 0.225), (0.46875, 0.225), (0.46875, 0.225), (0.46875, 0.025), (0.46875, 0.025), (0.46875, 0.025), (0.46875, 0.225), (0.46875, 0.225), (0.46875, 0.225), (0.46875, 0.025), (0.46875, 0.025), (0.46875, 0.025), (0.46875, 0.225), (0.46875, 0.225), (0.46875, 0.025), (0.46875, 0.225), (0.46875, 0.025), (0.46875, 0.225), (0.46875, 0.025), (0.46875, 0.225), (0.09375, 0.025), (0.09375, 0.025), (0.09375, 0.225), (0.09375, 0.225), (0.09375, 0.025), (0.09375, 0.025), (0.09375, 0.025), (0.09375, 0.225), (0.09375, 0.025), (0.09375, 0.225), (0.09375, 0.025), (0.09375, 0.225)] (interpolation = "faceVarying")
        uniform token subdivisionScheme = "none"
        rel material:binding = </Vehicle/Materials/colormap>
    }
    def Scope "Materials" {
        def Material "colormap" {
            token outputs:surface.connect = </Vehicle/Materials/colormap/surface.outputs:surface>
            def Shader "surface" {
                uniform token info:id = "UsdPreviewSurface"
                float inputs:roughness = 0.7
                float inputs:metallic = 0
                color3f inputs:diffuseColor.connect = </Vehicle/Materials/colormap/texture.outputs:rgb>
                token outputs:surface
            }
            def Shader "stReader" {
                uniform token info:id = "UsdPrimvarReader_float2"
                token inputs:varname = "st"
                float2 outputs:result
            }
            def Shader "texture" {
                uniform token info:id = "UsdUVTexture"
                asset inputs:file = @kenney-water-colormap.png@
                float2 inputs:st.connect = </Vehicle/Materials/colormap/stReader.outputs:result>
                token inputs:wrapS = "repeat"
                token inputs:wrapT = "repeat"
                float3 outputs:rgb
            }
        }
    }
}
