#usda 1.0
(
    defaultPrim = "Vehicle"
    metersPerUnit = 1
    upAxis = "Y"
)
def Xform "Vehicle" {
    def Mesh "mesh_colormap" {
        int[] faceVertexCounts = [3, 3, 3, 3, 3, 3, 3, 3, 3, 3, 3, 3, 3, 3, 3, 3, 3, 3, 3, 3, 3, 3, 3, 3, 3, 3, 3, 3, 3, 3, 3, 3, 3, 3, 3, 3, 3, 3, 3, 3, 3, 3, 3, 3, 3, 3, 3, 3, 3, 3, 3, 3, 3, 3, 3, 3, 3, 3, 3, 3, 3, 3, 3, 3, 3, 3, 3, 3, 3, 3, 3, 3, 3, 3, 3, 3, 3, 3, 3, 3, 3, 3, 3, 3, 3, 3, 3, 3, 3, 3, 3, 3, 3, 3, 3, 3, 3, 3, 3, 3, 3, 3, 3, 3, 3, 3, 3, 3, 3, 3, 3, 3, 3, 3, 3, 3, 3, 3, 3, 3, 3, 3, 3, 3, 3, 3, 3, 3, 3, 3, 3, 3, 3, 3, 3, 3, 3, 3, 3, 3, 3, 3, 3, 3, 3, 3, 3, 3, 3, 3, 3, 3, 3, 3, 3, 3, 3, 3, 3, 3, 3, 3, 3, 3, 3, 3, 3, 3, 3, 3, 3, 3, 3, 3, 3, 3, 3, 3, 3, 3, 3, 3, 3, 3, 3, 3, 3, 3, 3, 3, 3, 3, 3, 3, 3, 3, 3, 3, 3, 3, 3, 3, 3, 3, 3, 3, 3, 3, 3, 3, 3, 3, 3, 3, 3, 3, 3, 3, 3, 3, 3, 3, 3, 3, 3, 3, 3, 3, 3, 3, 3, 3, 3, 3, 3, 3, 3, 3, 3, 3, 3, 3, 3, 3, 3, 3, 3, 3, 3, 3, 3, 3, 3, 3, 3, 3, 3, 3, 3, 3, 3, 3, 3, 3, 3, 3, 3, 3, 3, 3, 3, 3, 3, 3, 3, 3, 3, 3, 3, 3, 3, 3, 3, 3, 3, 3, 3, 3, 3, 3, 3, 3, 3, 3, 3, 3, 3, 3, 3, 3, 3, 3, 3, 3, 3, 3, 3, 3, 3, 3, 3, 3, 3, 3, 3, 3, 3, 3, 3, 3, 3, 3, 3, 3, 3, 3, 3, 3, 3, 3, 3, 3, 3, 3, 3, 3, 3, 3, 3, 3, 3, 3, 3, 3, 3, 3, 3, 3, 3, 3, 3, 3, 3, 3, 3, 3, 3, 3, 3, 3, 3, 3, 3, 3, 3, 3, 3, 3, 3, 3, 3, 3, 3, 3, 3, 3, 3, 3, 3, 3, 3, 3, 3, 3, 3, 3, 3, 3, 3, 3, 3, 3, 3, 3, 3, 3, 3, 3, 3, 3, 3, 3, 3, 3, 3, 3, 3, 3, 3, 3, 3, 3, 3, 3, 3, 3, 3, 3, 3, 3, 3, 3, 3, 3, 3, 3, 3, 3, 3, 3, 3, 3, 3, 3, 3, 3, 3, 3, 3, 3, 3, 3, 3, 3, 3, 3, 3, 3, 3, 3, 3, 3, 3, 3, 3, 3, 3, 3, 3, 3, 3, 3, 3, 3, 3, 3, 3, 3, 3, 3, 3, 3, 3, 3, 3, 3, 3, 3, 3, 3]
        int[] faceVertexIndices = [2, 1, 0, 1, 2, 3, 6, 5, 4, 7, 5, 6, 5, 7, 8, 3, 8, 7, 3, 7, 9, 8, 3, 2, 1, 10, 0, 10, 1, 11, 11, 1, 12, 11, 13, 10, 13, 11, 14, 13, 14, 15, 7, 14, 11, 14, 7, 6, 4, 13, 15, 13, 4, 5, 18, 17, 16, 17, 18, 19, 17, 20, 16, 20, 17, 21, 22, 19, 18, 19, 22, 23, 23, 20, 21, 20, 23, 22, 12, 7, 11, 7, 12, 9, 10, 5, 8, 5, 10, 13, 16, 15, 14, 16, 14, 6, 20, 15, 16, 6, 18, 16, 15, 20, 4, 4, 18, 6, 22, 4, 20, 4, 22, 18, 26, 25, 24, 25, 26, 27, 30, 29, 28, 31, 29, 30, 29, 31, 32, 27, 32, 31, 27, 31, 33, 32, 27, 26, 25, 34, 24, 34, 25, 35, 35, 25, 36, 35, 37, 34, 37, 35, 38, 37, 38, 39, 31, 38, 35, 38, 31, 30, 28, 37, 39, 37, 28, 29, 42, 41, 40, 41, 42, 43, 41, 44, 40, 44, 41, 45, 46, 43, 42, 43, 46, 47, 47, 44, 45, 44, 47, 46, 36, 31, 35, 31, 36, 33, 34, 29, 32, 29, 34, 37, 40, 39, 38, 40, 38, 30, 44, 39, 40, 30, 42, 40, 39, 44, 28, 28, 42, 30, 46, 28, 44, 28, 46, 42, 50, 49, 48, 49, 50, 51, 51, 50, 52, 51, 52, 53, 56, 55, 54, 55, 56, 57, 57, 56, 58, 59, 55, 57, 58, 56, 60, 55, 59, 61, 58, 60, 62, 61, 59, 63, 62, 60, 64, 61, 63, 64, 61, 64, 60, 61, 60, 65, 55, 48, 54, 48, 55, 50, 50, 61, 52, 61, 50, 55, 54, 49, 56, 49, 54, 48, 60, 49, 51, 49, 60, 56, 53, 61, 65, 61, 53, 52, 51, 65, 60, 65, 51, 53, 68, 67, 66, 67, 68, 69, 67, 69, 70, 70, 69, 71, 67, 73, 72, 73, 67, 70, 72, 75, 74, 75, 72, 76, 76, 72, 77, 78, 75, 76, 77, 72, 73, 75, 78, 79, 77, 73, 80, 79, 78, 81, 80, 73, 82, 79, 81, 82, 79, 82, 73, 79, 73, 83, 66, 75, 68, 75, 66, 74, 79, 71, 69, 71, 79, 83, 83, 70, 71, 70, 83, 73, 67, 74, 66, 74, 67, 72, 69, 75, 79, 75, 69, 68, 86, 85, 84, 85, 86, 87, 87, 88, 85, 88, 87, 89, 88, 89, 90, 90, 89, 91, 90, 93, 92, 93, 90, 91, 84, 88, 94, 88, 84, 85, 91, 95, 93, 95, 91, 89, 87, 95, 89, 95, 87, 86, 92, 88, 90, 88, 92, 94, 94, 86, 84, 86, 94, 96, 96, 94, 97, 98, 86, 96, 97, 94, 92, 86, 98, 95, 97, 92, 99, 95, 98, 100, 99, 92, 101, 95, 100, 101, 95, 101, 92, 95, 92, 93, 104, 103, 102, 103, 104, 105, 103, 105, 106, 106, 105, 107, 102, 108, 104, 108, 102, 109, 110, 107, 105, 107, 110, 111, 111, 106, 107, 106, 111, 112, 113, 108, 109, 108, 113, 114, 114, 113, 115, 116, 108, 114, 115, 113, 112, 108, 116, 110, 115, 112, 117, 110, 116, 118, 117, 112, 119, 110, 118, 119, 110, 119, 112, 110, 112, 111, 103, 109, 102, 109, 103, 113, 103, 112, 113, 112, 103, 106, 105, 108, 110, 108, 105, 104, 122, 121, 120, 121, 122, 123, 125, 121, 124, 121, 125, 120, 128, 127, 126, 127, 128, 129, 132, 131, 130, 131, 132, 133, 132, 134, 133, 134, 132, 135, 136, 129, 128, 129, 136, 137, 135, 138, 134, 138, 135, 139, 138, 137, 136, 137, 138, 139, 130, 123, 122, 123, 130, 131, 127, 124, 126, 124, 127, 125, 120, 130, 122, 130, 120, 132, 132, 120, 125, 132, 125, 135, 135, 125, 127, 135, 127, 139, 139, 127, 129, 139, 129, 137, 141, 140, 114, 140, 141, 117, 140, 117, 118, 118, 117, 142, 77, 78, 143, 78, 77, 144, 78, 144, 145, 145, 144, 82, 147, 146, 96, 146, 147, 99, 146, 99, 100, 100, 99, 148, 58, 59, 149, 59, 58, 150, 59, 150, 151, 151, 150, 64, 133, 123, 131, 123, 133, 121, 121, 133, 134, 121, 134, 124, 124, 134, 138, 124, 138, 126, 126, 138, 136, 126, 136, 128, 2, 1, 0, 1, 2, 3, 6, 5, 4, 7, 5, 6, 5, 7, 8, 3, 8, 7, 3, 7, 9, 8, 3, 2, 1, 10, 0, 10, 1, 11, 11, 1, 12, 11, 13, 10, 13, 11, 14, 13, 14, 15, 7, 14, 11, 14, 7, 6, 4, 13, 15, 13, 4, 5, 18, 17, 16, 17, 18, 19, 17, 20, 16, 20, 17, 21, 22, 19, 18, 19, 22, 23, 23, 20, 21, 20, 23, 22, 12, 7, 11, 7, 12, 9, 10, 5, 8, 5, 10, 13, 16, 15, 14, 16, 14, 6, 20, 15, 16, 6, 18, 16, 15, 20, 4, 4, 18, 6, 22, 4, 20, 4, 22, 18, 26, 25, 24, 25, 26, 27, 30, 29, 28, 31, 29, 30, 29, 31, 32, 27, 32, 31, 27, 31, 33, 32, 27, 26, 25, 34, 24, 34, 25, 35, 35, 25, 36, 35, 37, 34, 37, 35, 38, 37, 38, 39, 31, 38, 35, 38, 31, 30, 28, 37, 39, 37, 28, 29, 42, 41, 40, 41, 42, 43, 41, 44, 40, 44, 41, 45, 46, 43, 42, 43, 46, 47, 47, 44, 45, 44, 47, 46, 36, 31, 35, 31, 36, 33, 34, 29, 32, 29, 34, 37, 40, 39, 38, 40, 38, 30, 44, 39, 40, 30, 42, 40, 39, 44, 28, 28, 42, 30, 46, 28, 44, 28, 46, 42, 50, 49, 48, 49, 50, 51, 51, 50, 52, 51, 52, 53, 56, 55, 54, 55, 56, 57, 57, 56, 58, 59, 55, 57, 58, 56, 60, 55, 59, 61, 58, 60, 62, 61, 59, 63, 62, 60, 64, 61, 63, 64, 61, 64, 60, 61, 60, 65, 55, 48, 54, 48, 55, 50, 50, 61, 52, 61, 50, 55, 54, 49, 56, 49, 54, 48, 60, 49, 51, 49, 60, 56, 53, 61, 65, 61, 53, 52, 51, 65, 60, 65, 51, 53, 68, 67, 66, 67, 68, 69, 67, 69, 70, 70, 69, 71, 67, 73, 72, 73, 67, 70, 72, 75, 74, 75, 72, 76, 76, 72, 77, 78, 75, 76, 77, 72, 73, 75, 78, 79, 77, 73, 80, 79, 78, 81, 80, 73, 82, 79, 81, 82, 79, 82, 73, 79, 73, 83, 66, 75, 68, 75, 66, 74, 79, 71, 69, 71, 79, 83, 83, 70, 71, 70, 83, 73, 67, 74, 66, 74, 67, 72, 69, 75, 79, 75, 69, 68, 86, 85, 84, 85, 86, 87, 87, 88, 85, 88, 87, 89, 88, 89, 90, 90, 89, 91, 90, 93, 92, 93, 90, 91, 84, 88, 94, 88, 84, 85, 91, 95, 93, 95, 91, 89, 87, 95, 89, 95, 87, 86, 92, 88, 90, 88, 92, 94, 94, 86, 84, 86, 94, 96, 96, 94, 97, 98, 86, 96, 97, 94, 92, 86, 98, 95, 97, 92, 99, 95, 98, 100, 99, 92, 101, 95, 100, 101, 95, 101, 92, 95, 92, 93, 104, 103, 102, 103, 104, 105, 103, 105, 106, 106, 105, 107, 102, 108, 104, 108, 102, 109, 110, 107, 105, 107, 110, 111, 111, 106, 107, 106, 111, 112, 113, 108, 109, 108, 113, 114, 114, 113, 115, 116, 108, 114, 115, 113, 112, 108, 116, 110, 115, 112, 117, 110, 116, 118, 117, 112, 119, 110, 118, 119, 110, 119, 112, 110, 112, 111, 103, 109, 102, 109, 103, 113, 103, 112, 113, 112, 103, 106, 105, 108, 110, 108, 105, 104, 122, 121, 120, 121, 122, 123, 125, 121, 124, 121, 125, 120, 128, 127, 126, 127, 128, 129, 132, 131, 130, 131, 132, 133, 132, 134, 133, 134, 132, 135, 136, 129, 128, 129, 136, 137, 135, 138, 134, 138, 135, 139, 138, 137, 136, 137, 138, 139, 130, 123, 122, 123, 130, 131, 127, 124, 126, 124, 127, 125, 120, 130, 122, 130, 120, 132, 132, 120, 125, 132, 125, 135, 135, 125, 127, 135, 127, 139, 139, 127, 129, 139, 129, 137, 141, 140, 114, 140, 141, 117, 140, 117, 118, 118, 117, 142, 77, 78, 143, 78, 77, 144, 78, 144, 145, 145, 144, 82, 147, 146, 96, 146, 147, 99, 146, 99, 100, 100, 99, 148, 58, 59, 149, 59, 58, 150, 59, 150, 151, 151, 150, 64, 133, 123, 131, 123, 133, 121, 121, 133, 134, 121, 134, 124, 124, 134, 138, 124, 138, 126, 126, 138, 136, 126, 136, 128]
        point3f[] points = [(0.1, 0.0273013, -0.216), (-0.1, 0.0273013, -0.216), (0.1, 0.0273013, -0.184), (-0.1, 0.0273013, -0.184), (0.016, 0.0729519, -0.184), (0.016, 0.0593013, -0.184), (-0.016, 0.0729519, -0.184), (-0.016, 0.0593013, -0.184), (0.1, 0.0593013, -0.184), (-0.1, 0.0593013, -0.184), (0.1, 0.0593013, -0.216), (-0.016, 0.0593013, -0.216), (-0.1, 0.0593013, -0.216), (0.016, 0.0593013, -0.216), (-0.016, 0.0729519, -0.216), (0.016, 0.0729519, -0.216), (-0.056, 0.0729519, -0.256), (-0.056, 0.0866025, -0.256), (-0.056, 0.0729519, -0.144), (-0.056, 0.0866025, -0.144), (0.056, 0.0729519, -0.256), (0.056, 0.0866025, -0.256), (0.056, 0.0729519, -0.144), (0.056, 0.0866025, -0.144), (0.1, 0.0273013, 0.184), (-0.1, 0.0273013, 0.184), (0.1, 0.0273013, 0.216), (-0.1, 0.0273013, 0.216), (0.016, 0.0729519, 0.216), (0.016, 0.0593013, 0.216), (-0.016, 0.0729519, 0.216), (-0.016, 0.0593013, 0.216), (0.1, 0.0593013, 0.216), (-0.1, 0.0593013, 0.216), (0.1, 0.0593013, 0.184), (-0.016, 0.0593013, 0.184), (-0.1, 0.0593013, 0.184), (0.016, 0.0593013, 0.184), (-0.016, 0.0729519, 0.184), (0.016, 0.0729519, 0.184), (-0.056, 0.0729519, 0.144), (-0.056, 0.0866025, 0.144), (-0.056, 0.0729519, 0.256), (-0.056, 0.0866025, 0.256), (0.056, 0.0729519, 0.144), (0.056, 0.0866025, 0.144), (0.056, 0.0729519, 0.256), (0.056, 0.0866025, 0.256), (-0.1, 0.0433013, -0.25), (-0.1, -3.20962e-18, -0.225), (-0.1, 0.0866025, -0.225), (-0.1, -3.20962e-18, -0.175), (-0.1, 0.0866025, -0.175), (-0.1, 0.0433013, -0.15), (-0.15, 0.0433013, -0.25), (-0.15, 0.0866025, -0.225), (-0.15, -2.72187e-15, -0.225), (-0.15, 0.0433013, -0.221797), (-0.15, 0.0244248, -0.210898), (-0.15, 0.0621778, -0.210898), (-0.15, -2.72187e-15, -0.175), (-0.15, 0.0866025, -0.175), (-0.15, 0.0244248, -0.189102), (-0.15, 0.0621778, -0.189102), (-0.15, 0.0433013, -0.178203), (-0.15, 0.0433013, -0.15), (0.1, 0.0433013, -0.25), (0.1, 0.0866025, -0.225), (0.1, -2.72776e-15, -0.225), (0.1, -2.72776e-15, -0.175), (0.1, 0.0866025, -0.175), (0.1, 0.0433013, -0.15), (0.15, 0.0866025, -0.225), (0.15, 0.0866025, -0.175), (0.15, 0.0433013, -0.25), (0.15, -7.71478e-18, -0.225), (0.15, 0.0433013, -0.221797), (0.15, 0.0621778, -0.210898), (0.15, 0.0244248, -0.210898), (0.15, -7.71478e-18, -0.175), (0.15, 0.0621778, -0.189102), (0.15, 0.0244248, -0.189102), (0.15, 0.0433013, -0.178203), (0.15, 0.0433013, -0.15), (-0.15, 0.0433013, 0.15), (-0.1, 0.0433013, 0.15), (-0.15, 0.0866025, 0.175), (-0.1, 0.0866025, 0.175), (-0.1, 8.07011e-18, 0.175), (-0.1, 0.0866025, 0.225), (-0.1, 8.07011e-18, 0.225), (-0.1, 0.0433013, 0.25), (-0.15, -2.71198e-15, 0.225), (-0.15, 0.0433013, 0.25), (-0.15, -2.71198e-15, 0.175), (-0.15, 0.0866025, 0.225), (-0.15, 0.0433013, 0.178203), (-0.15, 0.0244248, 0.189102), (-0.15, 0.0621778, 0.189102), (-0.15, 0.0244248, 0.210898), (-0.15, 0.0621778, 0.210898), (-0.15, 0.0433013, 0.221797), (0.1, 0.0433013, 0.15), (0.1, 0.0866025, 0.175), (0.1, -2.72212e-15, 0.175), (0.1, -2.72212e-15, 0.225), (0.1, 0.0866025, 0.225), (0.1, 0.0433013, 0.25), (0.15, -2.07502e-18, 0.175), (0.15, 0.0433013, 0.15), (0.15, -2.07502e-18, 0.225), (0.15, 0.0433013, 0.25), (0.15, 0.0866025, 0.225), (0.15, 0.0866025, 0.175), (0.15, 0.0433013, 0.178203), (0.15, 0.0621778, 0.189102), (0.15, 0.0244248, 0.189102), (0.15, 0.0621778, 0.210898), (0.15, 0.0244248, 0.210898), (0.15, 0.0433013, 0.221797), (0.125, 0.136602, -0.2875), (0.125, 0.0866025, -0.2875), (0.15, 0.136602, -0.15), (0.15, 0.0866025, -0.15), (-3.60956e-16, 0.0866025, -0.35), (-3.60956e-16, 0.136602, -0.35), (-0.125, 0.0866025, -0.2875), (-0.125, 0.136602, -0.2875), (-0.15, 0.0866025, -0.15), (-0.15, 0.136602, -0.15), (0.15, 0.136602, 0.15), (0.15, 0.0866025, 0.15), (0.125, 0.136602, 0.2875), (0.125, 0.0866025, 0.2875), (-3.60956e-16, 0.0866025, 0.35), (-3.60956e-16, 0.136602, 0.35), (-0.15, 0.0866025, 0.15), (-0.15, 0.136602, 0.15), (-0.125, 0.0866025, 0.2875), (-0.125, 0.136602, 0.2875), (0.15, 0.0244248, 0.189102), (0.15, 0.0621778, 0.189102), (0.15, 0.0433013, 0.221797), (0.15, 0.0433013, -0.221797), (0.15, 0.0621778, -0.189102), (0.15, 0.0244248, -0.189102), (-0.15, 0.0621778, 0.189102), (-0.15, 0.0244248, 0.189102), (-0.15, 0.0433013, 0.221797), (-0.15, 0.0433013, -0.221797), (-0.15, 0.0244248, -0.189102), (-0.15, 0.0621778, -0.189102)]
        normal3f[] normals = [(0, -1, 0), (0, -1, 0), (0, -1, 0), (0, -1, 0), (0, -1, 0), (0, -1, 0), (0, 0, 1), (0, 0, 1), (0, 0, 1), (0, 0, 1), (0, 0, 1), (0, 0, 1), (0, 0, 1), (0, 0, 1), (0, 0, 1), (0, 0, 1), (0, 0, 1), (0, 0, 1), (0, 0, 1), (0, 0, 1), (0, 0, 1), (0, 0, 1), (0, 0, 1), (0, 0, 1), (0, 0, -1), (0, 0, -1), (0, 0, -1), (0, 0, -1), (0, 0, -1), (0, 0, -1), (0, 0, -1), (0, 0, -1), (0, 0, -1), (0, 0, -1), (0, 0, -1), (0, 0, -1), (0, 0, -1), (0, 0, -1), (0, 0, -1), (0, 0, -1), (0, 0, -1), (0, 0, -1), (-1, 0, 0), (-1, 0, 0), (-1, 0, 0), (-1, 0, 0), (-1, 0, 0), (-1, 0, 0), (1, 0, 0), (1, 0, 0), (1, 0, 0), (1, 0, 0), (1, 0, 0), (1, 0, 0), (-0.707107, 0, 0.707107), (-0.707107, 0, -0.707107), (-0.707107, 0, -0.707107), (-0.707107, 0, -0.707107), (-0.707107, 0, 0.707107), (-0.707107, 0, 0.707107), (-0.707107, 0, -0.707107), (0.707107, 0, -0.707107), (-0.707107, 0, -0.707107), (0.707107, 0, -0.707107), (-0.707107, 0, -0.707107), (0.707107, 0, -0.707107), (0.707107, 0, 0.707107), (-0.707107, 0, 0.707107), (-0.707107, 0, 0.707107), (-0.707107, 0, 0.707107), (0.707107, 0, 0.707107), (0.707107, 0, 0.707107), (0.707107, 0, 0.707107), (0.707107, 0, -0.707107), (0.707107, 0, -0.707107), (0.707107, 0, -0.707107), (0.707107, 0, 0.707107), (0.707107, 0, 0.707107), (0, 1, 0), (0, 1, 0), (0, 1, 0), (0, 1, 0), (0, 1, 0), (0, 1, 0), (0, 1, 0), (0, 1, 0), (0, 1, 0), (0, 1, 0), (0, 1, 0), (0, 1, 0), (0, -1, 0), (0, -1, 0), (0, -1, 0), (0, -1, 0), (0, -1, 0), (0, -1, 0), (0, -1, 0), (0, -1, 0), (0, -1, 0), (0, -1, 0), (0, -1, 0), (0, -1, 0), (0, -1, 0), (0, -1, 0), (0, -1, 0), (0, -1, 0), (0, -1, 0), (0, -1, 0), (0, -1, 0), (0, -1, 0), (0, -1, 0), (0, -1, 0), (0, -1, 0), (0, -1, 0), (0, -1, 0), (0, -1, 0), (0, -1, 0), (0, -1, 0), (0, -1, 0), (0, -1, 0), (0, 0, 1), (0, 0, 1), (0, 0, 1), (0, 0, 1), (0, 0, 1), (0, 0, 1), (0, 0, 1), (0, 0, 1), (0, 0, 1), (0, 0, 1), (0, 0, 1), (0, 0, 1), (0, 0, 1), (0, 0, 1), (0, 0, 1), (0, 0, 1), (0, 0, 1), (0, 0, 1), (0, 0, -1), (0, 0, -1), (0, 0, -1), (0, 0, -1), (0, 0, -1), (0, 0, -1), (0, 0, -1), (0, 0, -1), (0, 0, -1), (0, 0, -1), (0, 0, -1), (0, 0, -1), (0, 0, -1), (0, 0, -1), (0, 0, -1), (0, 0, -1), (0, 0, -1), (0, 0, -1), (-1, 0, 0), (-1, 0, 0), (-1, 0, 0), (-1, 0, 0), (-1, 0, 0), (-1, 0, 0), (1, 0, 0), (1, 0, 0), (1, 0, 0), (1, 0, 0), (1, 0, 0), (1, 0, 0), (-0.707107, 0, 0.707107), (-0.707107, 0, -0.707107), (-0.707107, 0, -0.707107), (-0.707107, 0, -0.707107), (-0.707107, 0, 0.707107), (-0.707107, 0, 0.707107), (-0.707107, 0, -0.707107), (0.707107, 0, -0.707107), (-0.707107, 0, -0.707107), (0.707107, 0, -0.707107), (-0.707107, 0, -0.707107), (0.707107, 0, -0.707107), (0.707107, 0, 0.707107), (-0.707107, 0, 0.707107), (-0.707107, 0, 0.707107), (-0.707107, 0, 0.707107), (0.707107, 0, 0.707107), (0.707107, 0, 0.707107), (0.707107, 0, 0.707107), (0.707107, 0, -0.707107), (0.707107, 0, -0.707107), (0.707107, 0, -0.707107), (0.707107, 0, 0.707107), (0.707107, 0, 0.707107), (0, 1, 0), (0, 1, 0), (0, 1, 0), (0, 1, 0), (0, 1, 0), (0, 1, 0), (0, 1, 0), (0, 1, 0), (0, 1, 0), (0, 1, 0), (0, 1, 0), (0, 1, 0), (0, -1, 0), (0, -1, 0), (0, -1, 0), (0, -1, 0), (0, -1, 0), (0, -1, 0), (0, -1, 0), (0, -1, 0), (0, -1, 0), (0, -1, 0), (0, -1, 0), (0, -1, 0), (0, -1, 0), (0, -1, 0), (0, -1, 0), (0, -1, 0), (0, -1, 0), (0, -1, 0), (0, -1, 0), (0, -1, 0), (0, -1, 0), (0, -1, 0), (0, -1, 0), (0, -1, 0), (1, 0, 0), (1, 0, 0), (1, 0, 0), (1, 0, 0), (1, 0, 0), (1, 0, 0), (1, 0, 0), (1, 0, 0), (1, 0, 0), (1, 0, 0), (1, 0, 0), (1, 0, 0), (-1, 0, 0), (-1, 0, 0), (-1, 0, 0), (-1, 0, 0), (-1, 0, 0), (-1, 0, 0), (-1, 0, 0), (-1, 0, 0), (-1, 0, 0), (-1, 0, 0), (-1, 0, 0), (-1, 0, 0), (-1, 0, 0), (-1, 0, 0), (-1, 0, 0), (-1, 0, 0), (-1, 0, 0), (-1, 0, 0), (-1, 0, 0), (-1, 0, 0), (-1, 0, 0), (-1, 0, 0), (-1, 0, 0), (-1, 0, 0), (-1, 0, 0), (-1, 0, 0), (-1, 0, 0), (-1, 0, 0), (-1, 0, 0), (-1, 0, 0), (-1, 0, 0), (-1, 0, 0), (-1, 0, 0), (-1, 0, 0), (-1, 0, 0), (-1, 0, 0), (0, 0.866025, -0.5), (0, 0, -1), (0, 0, -1), (0, 0, -1), (0, 0.866025, -0.5), (0, 0.866025, -0.5), (0, 0.866025, -0.5), (0, 0.866025, 0.5), (0, 0.866025, 0.5), (0, 0.866025, 0.5), (0, 0.866025, -0.5), (0, 0.866025, -0.5), (0, 0, -1), (0, -0.866025, -0.5), (0, -0.866025, -0.5), (0, -0.866025, -0.5), (0, 0, -1), (0, 0, -1), (0, -0.866025, 0.5), (0, -0.866025, -0.5), (0, -0.866025, 0.5), (0, -0.866025, -0.5), (0, -0.866025, 0.5), (0, -0.866025, -0.5), (0, 0, 1), (0, 0.866025, 0.5), (0, 0, 1), (0, 0.866025, 0.5), (0, 0, 1), (0, 0.866025, 0.5), (0, -0.866025, 0.5), (0, 0, 1), (0, -0.866025, 0.5), (0, 0, 1), (0, -0.866025, 0.5), (0, 0, 1), (-1, 0, 0), (-1, 0, 0), (-1, 0, 0), (-1, 0, 0), (-1, 0, 0), (-1, 0, 0), (-1, 0, 0), (-1, 0, 0), (-1, 0, 0), (-1, 0, 0), (-1, 0, 0), (-1, 0, 0), (0, 0.866025, -0.5), (0, 0.866025, 0.5), (0, 0.866025, -0.5), (0, 0.866025, 0.5), (0, 0.866025, -0.5), (0, 0.866025, 0.5), (1, 0, 0), (1, 0, 0), (1, 0, 0), (1, 0, 0), (1, 0, 0), (1, 0, 0), (1, 0, 0), (1, 0, 0), (1, 0, 0), (1, 0, 0), (1, 0, 0), (1, 0, 0), (1, 0, 0), (1, 0, 0), (1, 0, 0), (1, 0, 0), (1, 0, 0), (1, 0, 0), (1, 0, 0), (1, 0, 0), (1, 0, 0), (1, 0, 0), (1, 0, 0), (1, 0, 0), (1, 0, 0), (1, 0, 0), (1, 0, 0), (1, 0, 0), (1, 0, 0), (1, 0, 0), (1, 0, 0), (1, 0, 0), (1, 0, 0), (1, 0, 0), (1, 0, 0), (1, 0, 0), (0, 0, -1), (0, -0.866025, -0.5), (0, -0.866025, -0.5), (0, -0.866025, -0.5), (0, 0, -1), (0, 0, -1), (0, -0.866025, 0.5), (0, 0, 1), (0, -0.866025, 0.5), (0, 0, 1), (0, -0.866025, 0.5), (0, 0, 1), (0, 0, 1), (0, 0.866025, 0.5), (0, 0, 1), (0, 0.866025, 0.5), (0, 0, 1), (0, 0.866025, 0.5), (0, 0.866025, -0.5), (0, 0, -1), (0, 0, -1), (0, 0, -1), (0, 0.866025, -0.5), (0, 0.866025, -0.5), (0, -0.866025, 0.5), (0, -0.866025, -0.5), (0, -0.866025, 0.5), (0, -0.866025, -0.5), (0, -0.866025, 0.5), (0, -0.866025, -0.5), (0, 0.866025, -0.5), (0, 0, -1), (0, 0, -1), (0, 0, -1), (0, 0.866025, -0.5), (0, 0.866025, -0.5), (1, 0, 0), (1, 0, 0), (1, 0, 0), (1, 0, 0), (1, 0, 0), (1, 0, 0), (1, 0, 0), (1, 0, 0), (1, 0, 0), (1, 0, 0), (1, 0, 0), (1, 0, 0), (0, -0.866025, 0.5), (0, 0, 1), (0, -0.866025, 0.5), (0, 0, 1), (0, -0.866025, 0.5), (0, 0, 1), (0, 0, -1), (0, -0.866025, -0.5), (0, -0.866025, -0.5), (0, -0.866025, -0.5), (0, 0, -1), (0, 0, -1), (0, 0, 1), (0, 0.866025, 0.5), (0, 0, 1), (0, 0.866025, 0.5), (0, 0, 1), (0, 0.866025, 0.5), (0, 0.866025, -0.5), (0, 0.866025, 0.5), (0, 0.866025, 0.5), (0, 0.866025, 0.5), (0, 0.866025, -0.5), (0, 0.866025, -0.5), (0, -0.866025, 0.5), (0, -0.866025, -0.5), (0, -0.866025, 0.5), (0, -0.866025, -0.5), (0, -0.866025, 0.5), (0, -0.866025, -0.5), (-1, 0, 0), (-1, 0, 0), (-1, 0, 0), (-1, 0, 0), (-1, 0, 0), (-1, 0, 0), (-1, 0, 0), (-1, 0, 0), (-1, 0, 0), (-1, 0, 0), (-1, 0, 0), (-1, 0, 0), (-1, 0, 0), (-1, 0, 0), (-1, 0, 0), (-1, 0, 0), (-1, 0, 0), (-1, 0, 0), (-1, 0, 0), (-1, 0, 0), (-1, 0, 0), (-1, 0, 0), (-1, 0, 0), (-1, 0, 0), (-1, 0, 0), (-1, 0, 0), (-1, 0, 0), (-1, 0, 0), (-1, 0, 0), (-1, 0, 0), (-1, 0, 0), (-1, 0, 0), (-1, 0, 0), (-1, 0, 0), (-1, 0, 0), (-1, 0, 0), (-1, 0, 0), (-1, 0, 0), (-1, 0, 0), (-1, 0, 0), (-1, 0, 0), (-1, 0, 0), (-1, 0, 0), (-1, 0, 0), (-1, 0, 0), (-1, 0, 0), (-1, 0, 0), (-1, 0, 0), (0, 0, -1), (0, -0.866025, -0.5), (0, -0.866025, -0.5), (0, -0.866025, -0.5), (0, 0, -1), (0, 0, -1), (0, -0.866025, 0.5), (0, 0, 1), (0, -0.866025, 0.5), (0, 0, 1), (0, -0.866025, 0.5), (0, 0, 1), (0, 0, 1), (0, 0.866025, 0.5), (0, 0, 1), (0, 0.866025, 0.5), (0, 0, 1), (0, 0.866025, 0.5), (1, 0, 0), (1, 0, 0), (1, 0, 0), (1, 0, 0), (1, 0, 0), (1, 0, 0), (1, 0, 0), (1, 0, 0), (1, 0, 0), (1, 0, 0), (1, 0, 0), (1, 0, 0), (1, 0, 0), (1, 0, 0), (1, 0, 0), (1, 0, 0), (1, 0, 0), (1, 0, 0), (1, 0, 0), (1, 0, 0), (1, 0, 0), (1, 0, 0), (1, 0, 0), (1, 0, 0), (1, 0, 0), (1, 0, 0), (1, 0, 0), (1, 0, 0), (1, 0, 0), (1, 0, 0), (1, 0, 0), (1, 0, 0), (1, 0, 0), (1, 0, 0), (1, 0, 0), (1, 0, 0), (0, 0.866025, -0.5), (0, 0, -1), (0, 0, -1), (0, 0, -1), (0, 0.866025, -0.5), (0, 0.866025, -0.5), (0, 0.866025, -0.5), (0, 0.866025, 0.5), (0, 0.866025, -0.5), (0, 0.866025, 0.5), (0, 0.866025, -0.5), (0, 0.866025, 0.5), (0, -0.866025, 0.5), (0, -0.866025, -0.5), (0, -0.866025, 0.5), (0, -0.866025, -0.5), (0, -0.866025, 0.5), (0, -0.866025, -0.5), (0.995959, 0, -0.0898056), (0.8, 0, -0.6), (0.8, 0, -0.6), (0.8, 0, -0.6), (0.995959, 0, -0.0898056), (0.995959, 0, -0.0898056), (0, 0, -1), (0.8, 0, -0.6), (0, 0, -1), (0.8, 0, -0.6), (0, 0, -1), (0.8, 0, -0.6), (-0.995959, 0, -0.0898056), (-0.8, 0, -0.6), (-0.8, 0, -0.6), (-0.8, 0, -0.6), (-0.995959, 0, -0.0898056), (-0.995959, 0, -0.0898056), (0.8, 0, 0.6), (0.995959, 0, 0.0898056), (0.995959, 0, 0.0898056), (0.995959, 0, 0.0898056), (0.8, 0, 0.6), (0.8, 0, 0.6), (0.8, 0, 0.6), (0, 0, 1), (0.8, 0, 0.6), (0, 0, 1), (0.8, 0, 0.6), (0, 0, 1), (-0.995959, 0, 0.0898056), (-0.995959, 0, -0.0898056), (-0.995959, 0, -0.0898056), (-0.995959, 0, -0.0898056), (-0.995959, 0, 0.0898056), (-0.995959, 0, 0.0898056), (0, 0, 1), (-0.8, 0, 0.6), (0, 0, 1), (-0.8, 0, 0.6), (0, 0, 1), (-0.8, 0, 0.6), (-0.8, 0, 0.6), (-0.995959, 0, 0.0898056), (-0.995959, 0, 0.0898056), (-0.995959, 0, 0.0898056), (-0.8, 0, 0.6), (-0.8, 0, 0.6), (0.995959, 0, 0.0898056), (0.995959, 0, -0.0898056), (0.995959, 0, -0.0898056), (0.995959, 0, -0.0898056), (0.995959, 0, 0.0898056), (0.995959, 0, 0.0898056), (-0.8, 0, -0.6), (0, 0, -1), (-0.8, 0, -0.6), (0, 0, -1), (-0.8, 0, -0.6), (0, 0, -1), (0, 1, 0), (0, 1, 0), (0, 1, 0), (0, 1, 0), (0, 1, 0), (0, 1, 0), (0, 1, 0), (0, 1, 0), (0, 1, 0), (0, 1, 0), (0, 1, 0), (0, 1, 0), (0, 1, 0), (0, 1, 0), (0, 1, 0), (0, 1, 0), (0, 1, 0), (0, 1, 0), (0, 1, 0), (0, 1, 0), (0, 1, 0), (0, 1, 0), (0, 1, 0), (0, 1, 0), (1, 0, 0), (1, 0, 0), (1, 0, 0), (1, 0, 0), (1, 0, 0), (1, 0, 0), (1, 0, 0), (1, 0, 0), (1, 0, 0), (1, 0, 0), (1, 0, 0), (1, 0, 0), (1, 0, 0), (1, 0, 0), (1, 0, 0), (1, 0, 0), (1, 0, 0), (1, 0, 0), (1, 0, 0), (1, 0, 0), (1, 0, 0), (1, 0, 0), (1, 0, 0), (1, 0, 0), (-1, 0, 0), (-1, 0, 0), (-1, 0, 0), (-1, 0, 0), (-1, 0, 0), (-1, 0, 0), (-1, 0, 0), (-1, 0, 0), (-1, 0, 0), (-1, 0, 0), (-1, 0, 0), (-1, 0, 0), (-1, 0, 0), (-1, 0, 0), (-1, 0, 0), (-1, 0, 0), (-1, 0, 0), (-1, 0, 0), (-1, 0, 0), (-1, 0, 0), (-1, 0, 0), (-1, 0, 0), (-1, 0, 0), (-1, 0, 0), (0, -1, 0), (0, -1, 0), (0, -1, 0), (0, -1, 0), (0, -1, 0), (0, -1, 0), (0, -1, 0), (0, -1, 0), (0, -1, 0), (0, -1, 0), (0, -1, 0), (0, -1, 0), (0, -1, 0), (0, -1, 0), (0, -1, 0), (0, -1, 0), (0, -1, 0), (0, -1, 0), (0, -1, 0), (0, -1, 0), (0, -1, 0), (0, -1, 0), (0, -1, 0), (0, -1, 0), (0, -1, 0), (0, -1, 0), (0, -1, 0), (0, -1, 0), (0, -1, 0), (0, -1, 0), (0, 0, 1), (0, 0, 1), (0, 0, 1), (0, 0, 1), (0, 0, 1), (0, 0, 1), (0, 0, 1), (0, 0, 1), (0, 0, 1), (0, 0, 1), (0, 0, 1), (0, 0, 1), (0, 0, 1), (0, 0, 1), (0, 0, 1), (0, 0, 1), (0, 0, 1), (0, 0, 1), (0, 0, -1), (0, 0, -1), (0, 0, -1), (0, 0, -1), (0, 0, -1), (0, 0, -1), (0, 0, -1), (0, 0, -1), (0, 0, -1), (0, 0, -1), (0, 0, -1), (0, 0, -1), (0, 0, -1), (0, 0, -1), (0, 0, -1), (0, 0, -1), (0, 0, -1), (0, 0, -1), (-1, 0, 0), (-1, 0, 0), (-1, 0, 0), (-1, 0, 0), (-1, 0, 0), (-1, 0, 0), (1, 0, 0), (1, 0, 0), (1, 0, 0), (1, 0, 0), (1, 0, 0), (1, 0, 0), (-0.707107, 0, 0.707107), (-0.707107, 0, -0.707107), (-0.707107, 0, -0.707107), (-0.707107, 0, -0.707107), (-0.707107, 0, 0.707107), (-0.707107, 0, 0.707107), (-0.707107, 0, -0.707107), (0.707107, 0, -0.707107), (-0.707107, 0, -0.707107), (0.707107, 0, -0.707107), (-0.707107, 0, -0.707107), (0.707107, 0, -0.707107), (0.707107, 0, 0.707107), (-0.707107, 0, 0.707107), (-0.707107, 0, 0.707107), (-0.707107, 0, 0.707107), (0.707107, 0, 0.707107), (0.707107, 0, 0.707107), (0.707107, 0, 0.707107), (0.707107, 0, -0.707107), (0.707107, 0, -0.707107), (0.707107, 0, -0.707107), (0.707107, 0, 0.707107), (0.707107, 0, 0.707107), (0, 1, 0), (0, 1, 0), (0, 1, 0), (0, 1, 0), (0, 1, 0), (0, 1, 0), (0, 1, 0), (0, 1, 0), (0, 1, 0), (0, 1, 0), (0, 1, 0), (0, 1, 0), (0, -1, 0), (0, -1, 0), (0, -1, 0), (0, -1, 0), (0, -1, 0), (0, -1, 0), (0, -1, 0), (0, -1, 0), (0, -1, 0), (0, -1, 0), (0, -1, 0), (0, -1, 0), (0, -1, 0), (0, -1, 0), (0, -1, 0), (0, -1, 0), (0, -1, 0), (0, -1, 0), (0, -1, 0), (0, -1, 0), (0, -1, 0), (0, -1, 0), (0, -1, 0), (0, -1, 0), (0, -1, 0), (0, -1, 0), (0, -1, 0), (0, -1, 0), (0, -1, 0), (0, -1, 0), (0, 0, 1), (0, 0, 1), (0, 0, 1), (0, 0, 1), (0, 0, 1), (0, 0, 1), (0, 0, 1), (0, 0, 1), (0, 0, 1), (0, 0, 1), (0, 0, 1), (0, 0, 1), (0, 0, 1), (0, 0, 1), (0, 0, 1), (0, 0, 1), (0, 0, 1), (0, 0, 1), (0, 0, -1), (0, 0, -1), (0, 0, -1), (0, 0, -1), (0, 0, -1), (0, 0, -1), (0, 0, -1), (0, 0, -1), (0, 0, -1), (0, 0, -1), (0, 0, -1), (0, 0, -1), (0, 0, -1), (0, 0, -1), (0, 0, -1), (0, 0, -1), (0, 0, -1), (0, 0, -1), (-1, 0, 0), (-1, 0, 0), (-1, 0, 0), (-1, 0, 0), (-1, 0, 0), (-1, 0, 0), (1, 0, 0), (1, 0, 0), (1, 0, 0), (1, 0, 0), (1, 0, 0), (1, 0, 0), (-0.707107, 0, 0.707107), (-0.707107, 0, -0.707107), (-0.707107, 0, -0.707107), (-0.707107, 0, -0.707107), (-0.707107, 0, 0.707107), (-0.707107, 0, 0.707107), (-0.707107, 0, -0.707107), (0.707107, 0, -0.707107), (-0.707107, 0, -0.707107), (0.707107, 0, -0.707107), (-0.707107, 0, -0.707107), (0.707107, 0, -0.707107), (0.707107, 0, 0.707107), (-0.707107, 0, 0.707107), (-0.707107, 0, 0.707107), (-0.707107, 0, 0.707107), (0.707107, 0, 0.707107), (0.707107, 0, 0.707107), (0.707107, 0, 0.707107), (0.707107, 0, -0.707107), (0.707107, 0, -0.707107), (0.707107, 0, -0.707107), (0.707107, 0, 0.707107), (0.707107, 0, 0.707107), (0, 1, 0), (0, 1, 0), (0, 1, 0), (0, 1, 0), (0, 1, 0), (0, 1, 0), (0, 1, 0), (0, 1, 0), (0, 1, 0), (0, 1, 0), (0, 1, 0), (0, 1, 0), (0, -1, 0), (0, -1, 0), (0, -1, 0), (0, -1, 0), (0, -1, 0), (0, -1, 0), (0, -1, 0), (0, -1, 0), (0, -1, 0), (0, -1, 0), (0, -1, 0), (0, -1, 0), (0, -1, 0), (0, -1, 0), (0, -1, 0), (0, -1, 0), (0, -1, 0), (0, -1, 0), (0, -1, 0), (0, -1, 0), (0, -1, 0), (0, -1, 0), (0, -1, 0), (0, -1, 0), (1, 0, 0), (1, 0, 0), (1, 0, 0), (1, 0, 0), (1, 0, 0), (1, 0, 0), (1, 0, 0), (1, 0, 0), (1, 0, 0), (1, 0, 0), (1, 0, 0), (1, 0, 0), (-1, 0, 0), (-1, 0, 0), (-1, 0, 0), (-1, 0, 0), (-1, 0, 0), (-1, 0, 0), (-1, 0, 0), (-1, 0, 0), (-1, 0, 0), (-1, 0, 0), (-1, 0, 0), (-1, 0, 0), (-1, 0, 0), (-1, 0, 0), (-1, 0, 0), (-1, 0, 0), (-1, 0, 0), (-1, 0, 0), (-1, 0, 0), (-1, 0, 0), (-1, 0, 0), (-1, 0, 0), (-1, 0, 0), (-1, 0, 0), (-1, 0, 0), (-1, 0, 0), (-1, 0, 0), (-1, 0, 0), (-1, 0, 0), (-1, 0, 0), (-1, 0, 0), (-1, 0, 0), (-1, 0, 0), (-1, 0, 0), (-1, 0, 0), (-1, 0, 0), (0, 0.866025, -0.5), (0, 0, -1), (0, 0, -1), (0, 0, -1), (0, 0.866025, -0.5), (0, 0.866025, -0.5), (0, 0.866025, -0.5), (0, 0.866025, 0.5), (0, 0.866025, 0.5), (0, 0.866025, 0.5), (0, 0.866025, -0.5), (0, 0.866025, -0.5), (0, 0, -1), (0, -0.866025, -0.5), (0, -0.866025, -0.5), (0, -0.866025, -0.5), (0, 0, -1), (0, 0, -1), (0, -0.866025, 0.5), (0, -0.866025, -0.5), (0, -0.866025, 0.5), (0, -0.866025, -0.5), (0, -0.866025, 0.5), (0, -0.866025, -0.5), (0, 0, 1), (0, 0.866025, 0.5), (0, 0, 1), (0, 0.866025, 0.5), (0, 0, 1), (0, 0.866025, 0.5), (0, -0.866025, 0.5), (0, 0, 1), (0, -0.866025, 0.5), (0, 0, 1), (0, -0.866025, 0.5), (0, 0, 1), (-1, 0, 0), (-1, 0, 0), (-1, 0, 0), (-1, 0, 0), (-1, 0, 0), (-1, 0, 0), (-1, 0, 0), (-1, 0, 0), (-1, 0, 0), (-1, 0, 0), (-1, 0, 0), (-1, 0, 0), (0, 0.866025, -0.5), (0, 0.866025, 0.5), (0, 0.866025, -0.5), (0, 0.866025, 0.5), (0, 0.866025, -0.5), (0, 0.866025, 0.5), (1, 0, 0), (1, 0, 0), (1, 0, 0), (1, 0, 0), (1, 0, 0), (1, 0, 0), (1, 0, 0), (1, 0, 0), (1, 0, 0), (1, 0, 0), (1, 0, 0), (1, 0, 0), (1, 0, 0), (1, 0, 0), (1, 0, 0), (1, 0, 0), (1, 0, 0), (1, 0, 0), (1, 0, 0), (1, 0, 0), (1, 0, 0), (1, 0, 0), (1, 0, 0), (1, 0, 0), (1, 0, 0), (1, 0, 0), (1, 0, 0), (1, 0, 0), (1, 0, 0), (1, 0, 0), (1, 0, 0), (1, 0, 0), (1, 0, 0), (1, 0, 0), (1, 0, 0), (1, 0, 0), (0, 0, -1), (0, -0.866025, -0.5), (0, -0.866025, -0.5), (0, -0.866025, -0.5), (0, 0, -1), (0, 0, -1), (0, -0.866025, 0.5), (0, 0, 1), (0, -0.866025, 0.5), (0, 0, 1), (0, -0.866025, 0.5), (0, 0, 1), (0, 0, 1), (0, 0.866025, 0.5), (0, 0, 1), (0, 0.866025, 0.5), (0, 0, 1), (0, 0.866025, 0.5), (0, 0.866025, -0.5), (0, 0, -1), (0, 0, -1), (0, 0, -1), (0, 0.866025, -0.5), (0, 0.866025, -0.5), (0, -0.866025, 0.5), (0, -0.866025, -0.5), (0, -0.866025, 0.5), (0, -0.866025, -0.5), (0, -0.866025, 0.5), (0, -0.866025, -0.5), (0, 0.866025, -0.5), (0, 0, -1), (0, 0, -1), (0, 0, -1), (0, 0.866025, -0.5), (0, 0.866025, -0.5), (1, 0, 0), (1, 0, 0), (1, 0, 0), (1, 0, 0), (1, 0, 0), (1, 0, 0), (1, 0, 0), (1, 0, 0), (1, 0, 0), (1, 0, 0), (1, 0, 0), (1, 0, 0), (0, -0.866025, 0.5), (0, 0, 1), (0, -0.866025, 0.5), (0, 0, 1), (0, -0.866025, 0.5), (0, 0, 1), (0, 0, -1), (0, -0.866025, -0.5), (0, -0.866025, -0.5), (0, -0.866025, -0.5), (0, 0, -1), (0, 0, -1), (0, 0, 1), (0, 0.866025, 0.5), (0, 0, 1), (0, 0.866025, 0.5), (0, 0, 1), (0, 0.866025, 0.5), (0, 0.866025, -0.5), (0, 0.866025, 0.5), (0, 0.866025, 0.5), (0, 0.866025, 0.5), (0, 0.866025, -0.5), (0, 0.866025, -0.5), (0, -0.866025, 0.5), (0, -0.866025, -0.5), (0, -0.866025, 0.5), (0, -0.866025, -0.5), (0, -0.866025, 0.5), (0, -0.866025, -0.5), (-1, 0, 0), (-1, 0, 0), (-1, 0, 0), (-1, 0, 0), (-1, 0, 0), (-1, 0, 0), (-1, 0, 0), (-1, 0, 0), (-1, 0, 0), (-1, 0, 0), (-1, 0, 0), (-1, 0, 0), (-1, 0, 0), (-1, 0, 0), (-1, 0, 0), (-1, 0, 0), (-1, 0, 0), (-1, 0, 0), (-1, 0, 0), (-1, 0, 0), (-1, 0, 0), (-1, 0, 0), (-1, 0, 0), (-1, 0, 0), (-1, 0, 0), (-1, 0, 0), (-1, 0, 0), (-1, 0, 0), (-1, 0, 0), (-1, 0, 0), (-1, 0, 0), (-1, 0, 0), (-1, 0, 0), (-1, 0, 0), (-1, 0, 0), (-1, 0, 0), (-1, 0, 0), (-1, 0, 0), (-1, 0, 0), (-1, 0, 0), (-1, 0, 0), (-1, 0, 0), (-1, 0, 0), (-1, 0, 0), (-1, 0, 0), (-1, 0, 0), (-1, 0, 0), (-1, 0, 0), (0, 0, -1), (0, -0.866025, -0.5), (0, -0.866025, -0.5), (0, -0.866025, -0.5), (0, 0, -1), (0, 0, -1), (0, -0.866025, 0.5), (0, 0, 1), (0, -0.866025, 0.5), (0, 0, 1), (0, -0.866025, 0.5), (0, 0, 1), (0, 0, 1), (0, 0.866025, 0.5), (0, 0, 1), (0, 0.866025, 0.5), (0, 0, 1), (0, 0.866025, 0.5), (1, 0, 0), (1, 0, 0), (1, 0, 0), (1, 0, 0), (1, 0, 0), (1, 0, 0), (1, 0, 0), (1, 0, 0), (1, 0, 0), (1, 0, 0), (1, 0, 0), (1, 0, 0), (1, 0, 0), (1, 0, 0), (1, 0, 0), (1, 0, 0), (1, 0, 0), (1, 0, 0), (1, 0, 0), (1, 0, 0), (1, 0, 0), (1, 0, 0), (1, 0, 0), (1, 0, 0), (1, 0, 0), (1, 0, 0), (1, 0, 0), (1, 0, 0), (1, 0, 0), (1, 0, 0), (1, 0, 0), (1, 0, 0), (1, 0, 0), (1, 0, 0), (1, 0, 0), (1, 0, 0), (0, 0.866025, -0.5), (0, 0, -1), (0, 0, -1), (0, 0, -1), (0, 0.866025, -0.5), (0, 0.866025, -0.5), (0, 0.866025, -0.5), (0, 0.866025, 0.5), (0, 0.866025, -0.5), (0, 0.866025, 0.5), (0, 0.866025, -0.5), (0, 0.866025, 0.5), (0, -0.866025, 0.5), (0, -0.866025, -0.5), (0, -0.866025, 0.5), (0, -0.866025, -0.5), (0, -0.866025, 0.5), (0, -0.866025, -0.5), (0.995959, 0, -0.0898056), (0.8, 0, -0.6), (0.8, 0, -0.6), (0.8, 0, -0.6), (0.995959, 0, -0.0898056), (0.995959, 0, -0.0898056), (0, 0, -1), (0.8, 0, -0.6), (0, 0, -1), (0.8, 0, -0.6), (0, 0, -1), (0.8, 0, -0.6), (-0.995959, 0, -0.0898056), (-0.8, 0, -0.6), (-0.8, 0, -0.6), (-0.8, 0, -0.6), (-0.995959, 0, -0.0898056), (-0.995959, 0, -0.0898056), (0.8, 0, 0.6), (0.995959, 0, 0.0898056), (0.995959, 0, 0.0898056), (0.995959, 0, 0.0898056), (0.8, 0, 0.6), (0.8, 0, 0.6), (0.8, 0, 0.6), (0, 0, 1), (0.8, 0, 0.6), (0, 0, 1), (0.8, 0, 0.6), (0, 0, 1), (-0.995959, 0, 0.0898056), (-0.995959, 0, -0.0898056), (-0.995959, 0, -0.0898056), (-0.995959, 0, -0.0898056), (-0.995959, 0, 0.0898056), (-0.995959, 0, 0.0898056), (0, 0, 1), (-0.8, 0, 0.6), (0, 0, 1), (-0.8, 0, 0.6), (0, 0, 1), (-0.8, 0, 0.6), (-0.8, 0, 0.6), (-0.995959, 0, 0.0898056), (-0.995959, 0, 0.0898056), (-0.995959, 0, 0.0898056), (-0.8, 0, 0.6), (-0.8, 0, 0.6), (0.995959, 0, 0.0898056), (0.995959, 0, -0.0898056), (0.995959, 0, -0.0898056), (0.995959, 0, -0.0898056), (0.995959, 0, 0.0898056), (0.995959, 0, 0.0898056), (-0.8, 0, -0.6), (0, 0, -1), (-0.8, 0, -0.6), (0, 0, -1), (-0.8, 0, -0.6), (0, 0, -1), (0, 1, 0), (0, 1, 0), (0, 1, 0), (0, 1, 0), (0, 1, 0), (0, 1, 0), (0, 1, 0), (0, 1, 0), (0, 1, 0), (0, 1, 0), (0, 1, 0), (0, 1, 0), (0, 1, 0), (0, 1, 0), (0, 1, 0), (0, 1, 0), (0, 1, 0), (0, 1, 0), (0, 1, 0), (0, 1, 0), (0, 1, 0), (0, 1, 0), (0, 1, 0), (0, 1, 0), (1, 0, 0), (1, 0, 0), (1, 0, 0), (1, 0, 0), (1, 0, 0), (1, 0, 0), (1, 0, 0), (1, 0, 0), (1, 0, 0), (1, 0, 0), (1, 0, 0), (1, 0, 0), (1, 0, 0), (1, 0, 0), (1, 0, 0), (1, 0, 0), (1, 0, 0), (1, 0, 0), (1, 0, 0), (1, 0, 0), (1, 0, 0), (1, 0, 0), (1, 0, 0), (1, 0, 0), (-1, 0, 0), (-1, 0, 0), (-1, 0, 0), (-1, 0, 0), (-1, 0, 0), (-1, 0, 0), (-1, 0, 0), (-1, 0, 0), (-1, 0, 0), (-1, 0, 0), (-1, 0, 0), (-1, 0, 0), (-1, 0, 0), (-1, 0, 0), (-1, 0, 0), (-1, 0, 0), (-1, 0, 0), (-1, 0, 0), (-1, 0, 0), (-1, 0, 0), (-1, 0, 0), (-1, 0, 0), (-1, 0, 0), (-1, 0, 0), (0, -1, 0), (0, -1, 0), (0, -1, 0), (0, -1, 0), (0, -1, 0), (0, -1, 0), (0, -1, 0), (0, -1, 0), (0, -1, 0), (0, -1, 0), (0, -1, 0), (0, -1, 0), (0, -1, 0), (0, -1, 0), (0, -1, 0), (0, -1, 0), (0, -1, 0), (0, -1, 0), (0, -1, 0), (0, -1, 0), (0, -1, 0), (0, -1, 0), (0, -1, 0), (0, -1, 0)] (interpolation = "faceVarying")
        texCoord2f[] primvars:st = [(0.34375, 0.025), (0.34375, 0.025), (0.34375, 0.025), (0.34375, 0.025), (0.34375, 0.025), (0.34375, 0.025), (0.34375, 0.178962), (0.34375, 0.132923), (0.34375, 0.178962), (0.34375, 0.132923), (0.34375, 0.132923), (0.34375, 0.178962), (0.34375, 0.132923), (0.34375, 0.132923), (0.34375, 0.132923), (0.34375, 0.025), (0.34375, 0.132923), (0.34375, 0.132923), (0.34375, 0.025), (0.34375, 0.132923), (0.34375, 0.132923), (0.34375, 0.132923), (0.34375, 0.025), (0.34375, 0.025), (0.34375, 0.025), (0.34375, 0.132923), (0.34375, 0.025), (0.34375, 0.132923), (0.34375, 0.025), (0.34375, 0.132923), (0.34375, 0.132923), (0.34375, 0.025), (0.34375, 0.132923), (0.34375, 0.132923), (0.34375, 0.132923), (0.34375, 0.132923), (0.34375, 0.132923), (0.34375, 0.132923), (0.34375, 0.178962), (0.34375, 0.132923), (0.34375, 0.178962), (0.34375, 0.178962), (0.34375, 0.132923), (0.34375, 0.178962), (0.34375, 0.132923), (0.34375, 0.178962), (0.34375, 0.132923), (0.34375, 0.178962), (0.34375, 0.178962), (0.34375, 0.132923), (0.34375, 0.178962), (0.34375, 0.132923), (0.34375, 0.178962), (0.34375, 0.132923), (0.34375, 0.178962), (0.34375, 0.225), (0.34375, 0.178962), (0.34375, 0.225), (0.34375, 0.178962), (0.34375, 0.225), (0.34375, 0.225), (0.34375, 0.178962), (0.34375, 0.178962), (0.34375, 0.178962), (0.34375, 0.225), (0.34375, 0.225), (0.34375, 0.178962), (0.34375, 0.225), (0.34375, 0.178962), (0.34375, 0.225), (0.34375, 0.178962), (0.34375, 0.225), (0.34375, 0.225), (0.34375, 0.178962), (0.34375, 0.225), (0.34375, 0.178962), (0.34375, 0.225), (0.34375, 0.178962), (0.34375, 0.132923), (0.34375, 0.132923), (0.34375, 0.132923), (0.34375, 0.132923), (0.34375, 0.132923), (0.34375, 0.132923), (0.34375, 0.132923), (0.34375, 0.132923), (0.34375, 0.132923), (0.34375, 0.132923), (0.34375, 0.132923), (0.34375, 0.132923), (0.34375, 0.178962), (0.34375, 0.178962), (0.34375, 0.178962), (0.34375, 0.178962), (0.34375, 0.178962), (0.34375, 0.178962), (0.34375, 0.178962), (0.34375, 0.178962), (0.34375, 0.178962), (0.34375, 0.178962), (0.34375, 0.178962), (0.34375, 0.178962), (0.34375, 0.178962), (0.34375, 0.178962), (0.34375, 0.178962), (0.34375, 0.178962), (0.34375, 0.178962), (0.34375, 0.178962), (0.34375, 0.178962), (0.34375, 0.178962), (0.34375, 0.178962), (0.34375, 0.178962), (0.34375, 0.178962), (0.34375, 0.178962), (0.34375, 0.025), (0.34375, 0.025), (0.34375, 0.025), (0.34375, 0.025), (0.34375, 0.025), (0.34375, 0.025), (0.34375, 0.178962), (0.34375, 0.132923), (0.34375, 0.178962), (0.34375, 0.132923), (0.34375, 0.132923), (0.34375, 0.178962), (0.34375, 0.132923), (0.34375, 0.132923), (0.34375, 0.132923), (0.34375, 0.025), (0.34375, 0.132923), (0.34375, 0.132923), (0.34375, 0.025), (0.34375, 0.132923), (0.34375, 0.132923), (0.34375, 0.132923), (0.34375, 0.025), (0.34375, 0.025), (0.34375, 0.025), (0.34375, 0.132923), (0.34375, 0.025), (0.34375, 0.132923), (0.34375, 0.025), (0.34375, 0.132923), (0.34375, 0.132923), (0.34375, 0.025), (0.34375, 0.132923), (0.34375, 0.132923), (0.34375, 0.132923), (0.34375, 0.132923), (0.34375, 0.132923), (0.34375, 0.132923), (0.34375, 0.178962), (0.34375, 0.132923), (0.34375, 0.178962), (0.34375, 0.178962), (0.34375, 0.132923), (0.34375, 0.178962), (0.34375, 0.132923), (0.34375, 0.178962), (0.34375, 0.132923), (0.34375, 0.178962), (0.34375, 0.178962), (0.34375, 0.132923), (0.34375, 0.178962), (0.34375, 0.132923), (0.34375, 0.178962), (0.34375, 0.132923), (0.34375, 0.178962), (0.34375, 0.225), (0.34375, 0.178962), (0.34375, 0.225), (0.34375, 0.178962), (0.34375, 0.225), (0.34375, 0.225), (0.34375, 0.178962), (0.34375, 0.178962), (0.34375, 0.178962), (0.34375, 0.225), (0.34375, 0.225), (0.34375, 0.178962), (0.34375, 0.225), (0.34375, 0.178962), (0.34375, 0.225), (0.34375, 0.178962), (0.34375, 0.225), (0.34375, 0.225), (0.34375, 0.178962), (0.34375, 0.225), (0.34375, 0.178962), (0.34375, 0.225), (0.34375, 0.178962), (0.34375, 0.132923), (0.34375, 0.132923), (0.34375, 0.132923), (0.34375, 0.132923), (0.34375, 0.132923), (0.34375, 0.132923), (0.34375, 0.132923), (0.34375, 0.132923), (0.34375, 0.132923), (0.34375, 0.132923), (0.34375, 0.132923), (0.34375, 0.132923), (0.34375, 0.178962), (0.34375, 0.178962), (0.34375, 0.178962), (0.34375, 0.178962), (0.34375, 0.178962), (0.34375, 0.178962), (0.34375, 0.178962), (0.34375, 0.178962), (0.34375, 0.178962), (0.34375, 0.178962), (0.34375, 0.178962), (0.34375, 0.178962), (0.34375, 0.178962), (0.34375, 0.178962), (0.34375, 0.178962), (0.34375, 0.178962), (0.34375, 0.178962), (0.34375, 0.178962), (0.34375, 0.178962), (0.34375, 0.178962), (0.34375, 0.178962), (0.34375, 0.178962), (0.34375, 0.178962), (0.34375, 0.178962), (0.46875, 0.225), (0.46875, 0.025), (0.46875, 0.125), (0.46875, 0.025), (0.46875, 0.225), (0.46875, 0.025), (0.46875, 0.025), (0.46875, 0.225), (0.46875, 0.225), (0.46875, 0.025), (0.46875, 0.225), (0.46875, 0.125), (0.46875, 0.025), (0.46875, 0.225), (0.46875, 0.125), (0.46875, 0.225), (0.46875, 0.025), (0.46875, 0.125), (0.46875, 0.125), (0.46875, 0.025), (0.46875, 0.0814066), (0.46875, 0.168593), (0.46875, 0.225), (0.46875, 0.125), (0.46875, 0.0814066), (0.46875, 0.025), (0.46875, 0.025), (0.46875, 0.225), (0.46875, 0.168593), (0.46875, 0.225), (0.46875, 0.0814066), (0.46875, 0.025), (0.46875, 0.0814066), (0.46875, 0.225), (0.46875, 0.168593), (0.46875, 0.168593), (0.46875, 0.0814066), (0.46875, 0.025), (0.46875, 0.125), (0.46875, 0.225), (0.46875, 0.168593), (0.46875, 0.125), (0.46875, 0.225), (0.46875, 0.125), (0.46875, 0.025), (0.46875, 0.225), (0.46875, 0.025), (0.46875, 0.125), (0.46875, 0.225), (0.46875, 0.125), (0.46875, 0.125), (0.46875, 0.125), (0.46875, 0.225), (0.46875, 0.225), (0.46875, 0.225), (0.46875, 0.225), (0.46875, 0.225), (0.46875, 0.225), (0.46875, 0.225), (0.46875, 0.225), (0.46875, 0.125), (0.46875, 0.025), (0.46875, 0.025), (0.46875, 0.025), (0.46875, 0.125), (0.46875, 0.125), (0.46875, 0.025), (0.46875, 0.025), (0.46875, 0.025), (0.46875, 0.025), (0.46875, 0.025), (0.46875, 0.025), (0.46875, 0.125), (0.46875, 0.225), (0.46875, 0.125), (0.46875, 0.225), (0.46875, 0.125), (0.46875, 0.225), (0.46875, 0.025), (0.46875, 0.125), (0.46875, 0.025), (0.46875, 0.125), (0.46875, 0.025), (0.46875, 0.125), (0.46875, 0.025), (0.46875, 0.225), (0.46875, 0.125), (0.46875, 0.225), (0.46875, 0.025), (0.46875, 0.025), (0.46875, 0.225), (0.46875, 0.025), (0.46875, 0.225), (0.46875, 0.225), (0.46875, 0.025), (0.46875, 0.125), (0.46875, 0.225), (0.46875, 0.225), (0.46875, 0.225), (0.46875, 0.225), (0.46875, 0.225), (0.46875, 0.225), (0.46875, 0.225), (0.46875, 0.025), (0.46875, 0.125), (0.46875, 0.025), (0.46875, 0.225), (0.46875, 0.125), (0.46875, 0.125), (0.46875, 0.225), (0.46875, 0.168593), (0.46875, 0.0814066), (0.46875, 0.025), (0.46875, 0.125), (0.46875, 0.168593), (0.46875, 0.225), (0.46875, 0.225), (0.46875, 0.025), (0.46875, 0.0814066), (0.46875, 0.025), (0.46875, 0.168593), (0.46875, 0.225), (0.46875, 0.168593), (0.46875, 0.025), (0.46875, 0.0814066), (0.46875, 0.0814066), (0.46875, 0.168593), (0.46875, 0.225), (0.46875, 0.125), (0.46875, 0.025), (0.46875, 0.0814066), (0.46875, 0.125), (0.46875, 0.025), (0.46875, 0.125), (0.46875, 0.225), (0.46875, 0.025), (0.46875, 0.225), (0.46875, 0.125), (0.46875, 0.125), (0.46875, 0.025), (0.46875, 0.025), (0.46875, 0.025), (0.46875, 0.125), (0.46875, 0.125), (0.46875, 0.025), (0.46875, 0.125), (0.46875, 0.025), (0.46875, 0.125), (0.46875, 0.025), (0.46875, 0.125), (0.46875, 0.125), (0.46875, 0.225), (0.46875, 0.125), (0.46875, 0.225), (0.46875, 0.125), (0.46875, 0.225), (0.46875, 0.225), (0.46875, 0.125), (0.46875, 0.125), (0.46875, 0.125), (0.46875, 0.225), (0.46875, 0.225), (0.46875, 0.025), (0.46875, 0.025), (0.46875, 0.025), (0.46875, 0.025), (0.46875, 0.025), (0.46875, 0.025), (0.46875, 0.225), (0.46875, 0.125), (0.46875, 0.125), (0.46875, 0.125), (0.46875, 0.225), (0.46875, 0.225), (0.46875, 0.225), (0.46875, 0.025), (0.46875, 0.125), (0.46875, 0.025), (0.46875, 0.225), (0.46875, 0.225), (0.46875, 0.025), (0.46875, 0.225), (0.46875, 0.025), (0.46875, 0.025), (0.46875, 0.225), (0.46875, 0.125), (0.46875, 0.025), (0.46875, 0.125), (0.46875, 0.025), (0.46875, 0.125), (0.46875, 0.025), (0.46875, 0.125), (0.46875, 0.125), (0.46875, 0.025), (0.46875, 0.025), (0.46875, 0.025), (0.46875, 0.125), (0.46875, 0.125), (0.46875, 0.125), (0.46875, 0.225), (0.46875, 0.125), (0.46875, 0.225), (0.46875, 0.125), (0.46875, 0.225), (0.46875, 0.225), (0.46875, 0.225), (0.46875, 0.225), (0.46875, 0.225), (0.46875, 0.225), (0.46875, 0.225), (0.46875, 0.025), (0.46875, 0.025), (0.46875, 0.025), (0.46875, 0.025), (0.46875, 0.025), (0.46875, 0.025), (0.46875, 0.025), (0.46875, 0.225), (0.46875, 0.125), (0.46875, 0.225), (0.46875, 0.025), (0.46875, 0.125), (0.46875, 0.125), (0.46875, 0.025), (0.46875, 0.0814066), (0.46875, 0.168593), (0.46875, 0.225), (0.46875, 0.125), (0.46875, 0.0814066), (0.46875, 0.025), (0.46875, 0.025), (0.46875, 0.225), (0.46875, 0.168593), (0.46875, 0.225), (0.46875, 0.0814066), (0.46875, 0.025), (0.46875, 0.0814066), (0.46875, 0.225), (0.46875, 0.168593), (0.46875, 0.168593), (0.46875, 0.0814066), (0.46875, 0.025), (0.46875, 0.125), (0.46875, 0.225), (0.46875, 0.168593), (0.46875, 0.125), (0.46875, 0.225), (0.46875, 0.125), (0.46875, 0.025), (0.46875, 0.225), (0.46875, 0.025), (0.46875, 0.125), (0.46875, 0.025), (0.46875, 0.225), (0.46875, 0.125), (0.46875, 0.225), (0.46875, 0.025), (0.46875, 0.025), (0.46875, 0.225), (0.46875, 0.025), (0.46875, 0.225), (0.46875, 0.225), (0.46875, 0.025), (0.46875, 0.125), (0.46875, 0.125), (0.46875, 0.025), (0.46875, 0.025), (0.46875, 0.025), (0.46875, 0.125), (0.46875, 0.125), (0.46875, 0.025), (0.46875, 0.125), (0.46875, 0.025), (0.46875, 0.125), (0.46875, 0.025), (0.46875, 0.125), (0.46875, 0.125), (0.46875, 0.225), (0.46875, 0.125), (0.46875, 0.225), (0.46875, 0.125), (0.46875, 0.225), (0.46875, 0.225), (0.46875, 0.025), (0.46875, 0.125), (0.46875, 0.025), (0.46875, 0.225), (0.46875, 0.125), (0.46875, 0.125), (0.46875, 0.225), (0.46875, 0.168593), (0.46875, 0.0814066), (0.46875, 0.025), (0.46875, 0.125), (0.46875, 0.168593), (0.46875, 0.225), (0.46875, 0.225), (0.46875, 0.025), (0.46875, 0.0814066), (0.46875, 0.025), (0.46875, 0.168593), (0.46875, 0.225), (0.46875, 0.168593), (0.46875, 0.025), (0.46875, 0.0814066), (0.46875, 0.0814066), (0.46875, 0.168593), (0.46875, 0.225), (0.46875, 0.125), (0.46875, 0.025), (0.46875, 0.0814066), (0.46875, 0.125), (0.46875, 0.025), (0.46875, 0.125), (0.46875, 0.225), (0.46875, 0.025), (0.46875, 0.225), (0.46875, 0.125), (0.46875, 0.225), (0.46875, 0.125), (0.46875, 0.125), (0.46875, 0.125), (0.46875, 0.225), (0.46875, 0.225), (0.46875, 0.225), (0.46875, 0.225), (0.46875, 0.225), (0.46875, 0.225), (0.46875, 0.225), (0.46875, 0.225), (0.46875, 0.025), (0.46875, 0.025), (0.46875, 0.025), (0.46875, 0.025), (0.46875, 0.025), (0.46875, 0.025), (0.59375, 0.225), (0.59375, 0.025), (0.59375, 0.225), (0.59375, 0.025), (0.59375, 0.225), (0.59375, 0.025), (0.59375, 0.225), (0.59375, 0.025), (0.59375, 0.025), (0.59375, 0.025), (0.59375, 0.225), (0.59375, 0.225), (0.59375, 0.025), (0.59375, 0.225), (0.59375, 0.025), (0.59375, 0.225), (0.59375, 0.025), (0.59375, 0.225), (0.59375, 0.225), (0.59375, 0.025), (0.59375, 0.225), (0.59375, 0.025), (0.59375, 0.225), (0.59375, 0.025), (0.59375, 0.225), (0.59375, 0.025), (0.59375, 0.025), (0.59375, 0.025), (0.59375, 0.225), (0.59375, 0.225), (0.59375, 0.025), (0.59375, 0.225), (0.59375, 0.025), (0.59375, 0.225), (0.59375, 0.025), (0.59375, 0.225), (0.59375, 0.225), (0.59375, 0.025), (0.59375, 0.025), (0.59375, 0.025), (0.59375, 0.225), (0.59375, 0.225), (0.59375, 0.025), (0.59375, 0.225), (0.59375, 0.025), (0.59375, 0.225), (0.59375, 0.025), (0.59375, 0.225), (0.59375, 0.225), (0.59375, 0.025), (0.59375, 0.225), (0.59375, 0.025), (0.59375, 0.225), (0.59375, 0.025), (0.59375, 0.225), (0.59375, 0.025), (0.59375, 0.025), (0.59375, 0.025), (0.59375, 0.225), (0.59375, 0.225), (0.09375, 0.225), (0.09375, 0.225), (0.09375, 0.225), (0.09375, 0.225), (0.09375, 0.225), (0.09375, 0.225), (0.09375, 0.225), (0.09375, 0.225), (0.09375, 0.225), (0.09375, 0.225), (0.09375, 0.225), (0.09375, 0.225), (0.09375, 0.225), (0.09375, 0.225), (0.09375, 0.225), (0.09375, 0.225), (0.09375, 0.225), (0.09375, 0.225), (0.09375, 0.225), (0.09375, 0.225), (0.09375, 0.225), (0.09375, 0.225), (0.09375, 0.225), (0.09375, 0.225), (0.09375, 0.225), (0.09375, 0.025), (0.09375, 0.125), (0.09375, 0.025), (0.09375, 0.225), (0.09375, 0.225), (0.09375, 0.025), (0.09375, 0.225), (0.09375, 0.025), (0.09375, 0.025), (0.09375, 0.225), (0.09375, 0.125), (0.09375, 0.225), (0.09375, 0.025), (0.09375, 0.125), (0.09375, 0.025), (0.09375, 0.225), (0.09375, 0.225), (0.09375, 0.025), (0.09375, 0.225), (0.09375, 0.025), (0.09375, 0.025), (0.09375, 0.225), (0.09375, 0.125), (0.09375, 0.025), (0.09375, 0.225), (0.09375, 0.125), (0.09375, 0.225), (0.09375, 0.025), (0.09375, 0.025), (0.09375, 0.225), (0.09375, 0.025), (0.09375, 0.225), (0.09375, 0.225), (0.09375, 0.025), (0.09375, 0.125), (0.09375, 0.025), (0.09375, 0.225), (0.09375, 0.125), (0.09375, 0.225), (0.09375, 0.025), (0.09375, 0.025), (0.09375, 0.225), (0.09375, 0.025), (0.09375, 0.225), (0.09375, 0.225), (0.09375, 0.025), (0.09375, 0.125), (0.46875, 0.275), (0.46875, 0.275), (0.46875, 0.275), (0.46875, 0.275), (0.46875, 0.275), (0.46875, 0.275), (0.46875, 0.275), (0.46875, 0.275), (0.46875, 0.275), (0.46875, 0.275), (0.46875, 0.275), (0.46875, 0.275), (0.46875, 0.275), (0.46875, 0.275), (0.46875, 0.275), (0.46875, 0.275), (0.46875, 0.275), (0.46875, 0.275), (0.46875, 0.275), (0.46875, 0.275), (0.46875, 0.275), (0.46875, 0.275), (0.46875, 0.275), (0.46875, 0.275), (0.34375, 0.025), (0.34375, 0.025), (0.34375, 0.025), (0.34375, 0.025), (0.34375, 0.025), (0.34375, 0.025), (0.34375, 0.178962), (0.34375, 0.132923), (0.34375, 0.178962), (0.34375, 0.132923), (0.34375, 0.132923), (0.34375, 0.178962), (0.34375, 0.132923), (0.34375, 0.132923), (0.34375, 0.132923), (0.34375, 0.025), (0.34375, 0.132923), (0.34375, 0.132923), (0.34375, 0.025), (0.34375, 0.132923), (0.34375, 0.132923), (0.34375, 0.132923), (0.34375, 0.025), (0.34375, 0.025), (0.34375, 0.025), (0.34375, 0.132923), (0.34375, 0.025), (0.34375, 0.132923), (0.34375, 0.025), (0.34375, 0.132923), (0.34375, 0.132923), (0.34375, 0.025), (0.34375, 0.132923), (0.34375, 0.132923), (0.34375, 0.132923), (0.34375, 0.132923), (0.34375, 0.132923), (0.34375, 0.132923), (0.34375, 0.178962), (0.34375, 0.132923), (0.34375, 0.178962), (0.34375, 0.178962), (0.34375, 0.132923), (0.34375, 0.178962), (0.34375, 0.132923), (0.34375, 0.178962), (0.34375, 0.132923), (0.34375, 0.178962), (0.34375, 0.178962), (0.34375, 0.132923), (0.34375, 0.178962), (0.34375, 0.132923), (0.34375, 0.178962), (0.34375, 0.132923), (0.34375, 0.178962), (0.34375, 0.225), (0.34375, 0.178962), (0.34375, 0.225), (0.34375, 0.178962), (0.34375, 0.225), (0.34375, 0.225), (0.34375, 0.178962), (0.34375, 0.178962), (0.34375, 0.178962), (0.34375, 0.225), (0.34375, 0.225), (0.34375, 0.178962), (0.34375, 0.225), (0.34375, 0.178962), (0.34375, 0.225), (0.34375, 0.178962), (0.34375, 0.225), (0.34375, 0.225), (0.34375, 0.178962), (0.34375, 0.225), (0.34375, 0.178962), (0.34375, 0.225), (0.34375, 0.178962), (0.34375, 0.132923), (0.34375, 0.132923), (0.34375, 0.132923), (0.34375, 0.132923), (0.34375, 0.132923), (0.34375, 0.132923), (0.34375, 0.132923), (0.34375, 0.132923), (0.34375, 0.132923), (0.34375, 0.132923), (0.34375, 0.132923), (0.34375, 0.132923), (0.34375, 0.178962), (0.34375, 0.178962), (0.34375, 0.178962), (0.34375, 0.178962), (0.34375, 0.178962), (0.34375, 0.178962), (0.34375, 0.178962), (0.34375, 0.178962), (0.34375, 0.178962), (0.34375, 0.178962), (0.34375, 0.178962), (0.34375, 0.178962), (0.34375, 0.178962), (0.34375, 0.178962), (0.34375, 0.178962), (0.34375, 0.178962), (0.34375, 0.178962), (0.34375, 0.178962), (0.34375, 0.178962), (0.34375, 0.178962), (0.34375, 0.178962), (0.34375, 0.178962), (0.34375, 0.178962), (0.34375, 0.178962), (0.34375, 0.025), (0.34375, 0.025), (0.34375, 0.025), (0.34375, 0.025), (0.34375, 0.025), (0.34375, 0.025), (0.34375, 0.178962), (0.34375, 0.132923), (0.34375, 0.178962), (0.34375, 0.132923), (0.34375, 0.132923), (0.34375, 0.178962), (0.34375, 0.132923), (0.34375, 0.132923), (0.34375, 0.132923), (0.34375, 0.025), (0.34375, 0.132923), (0.34375, 0.132923), (0.34375, 0.025), (0.34375, 0.132923), (0.34375, 0.132923), (0.34375, 0.132923), (0.34375, 0.025), (0.34375, 0.025), (0.34375, 0.025), (0.34375, 0.132923), (0.34375, 0.025), (0.34375, 0.132923), (0.34375, 0.025), (0.34375, 0.132923), (0.34375, 0.132923), (0.34375, 0.025), (0.34375, 0.132923), (0.34375, 0.132923), (0.34375, 0.132923), (0.34375, 0.132923), (0.34375, 0.132923), (0.34375, 0.132923), (0.34375, 0.178962), (0.34375, 0.132923), (0.34375, 0.178962), (0.34375, 0.178962), (0.34375, 0.132923), (0.34375, 0.178962), (0.34375, 0.132923), (0.34375, 0.178962), (0.34375, 0.132923), (0.34375, 0.178962), (0.34375, 0.178962), (0.34375, 0.132923), (0.34375, 0.178962), (0.34375, 0.132923), (0.34375, 0.178962), (0.34375, 0.132923), (0.34375, 0.178962), (0.34375, 0.225), (0.34375, 0.178962), (0.34375, 0.225), (0.34375, 0.178962), (0.34375, 0.225), (0.34375, 0.225), (0.34375, 0.178962), (0.34375, 0.178962), (0.34375, 0.178962), (0.34375, 0.225), (0.34375, 0.225), (0.34375, 0.178962), (0.34375, 0.225), (0.34375, 0.178962), (0.34375, 0.225), (0.34375, 0.178962), (0.34375, 0.225), (0.34375, 0.225), (0.34375, 0.178962), (0.34375, 0.225), (0.34375, 0.178962), (0.34375, 0.225), (0.34375, 0.178962), (0.34375, 0.132923), (0.34375, 0.132923), (0.34375, 0.132923), (0.34375, 0.132923), (0.34375, 0.132923), (0.34375, 0.132923), (0.34375, 0.132923), (0.34375, 0.132923), (0.34375, 0.132923), (0.34375, 0.132923), (0.34375, 0.132923), (0.34375, 0.132923), (0.34375, 0.178962), (0.34375, 0.178962), (0.34375, 0.178962), (0.34375, 0.178962), (0.34375, 0.178962), (0.34375, 0.178962), (0.34375, 0.178962), (0.34375, 0.178962), (0.34375, 0.178962), (0.34375, 0.178962), (0.34375, 0.178962), (0.34375, 0.178962), (0.34375, 0.178962), (0.34375, 0.178962), (0.34375, 0.178962), (0.34375, 0.178962), (0.34375, 0.178962), (0.34375, 0.178962), (0.34375, 0.178962), (0.34375, 0.178962), (0.34375, 0.178962), (0.34375, 0.178962), (0.34375, 0.178962), (0.34375, 0.178962), (0.46875, 0.225), (0.46875, 0.025), (0.46875, 0.125), (0.46875, 0.025), (0.46875, 0.225), (0.46875, 0.025), (0.46875, 0.025), (0.46875, 0.225), (0.46875, 0.225), (0.46875, 0.025), (0.46875, 0.225), (0.46875, 0.125), (0.46875, 0.025), (0.46875, 0.225), (0.46875, 0.125), (0.46875, 0.225), (0.46875, 0.025), (0.46875, 0.125), (0.46875, 0.125), (0.46875, 0.025), (0.46875, 0.0814066), (0.46875, 0.168593), (0.46875, 0.225), (0.46875, 0.125), (0.46875, 0.0814066), (0.46875, 0.025), (0.46875, 0.025), (0.46875, 0.225), (0.46875, 0.168593), (0.46875, 0.225), (0.46875, 0.0814066), (0.46875, 0.025), (0.46875, 0.0814066), (0.46875, 0.225), (0.46875, 0.168593), (0.46875, 0.168593), (0.46875, 0.0814066), (0.46875, 0.025), (0.46875, 0.125), (0.46875, 0.225), (0.46875, 0.168593), (0.46875, 0.125), (0.46875, 0.225), (0.46875, 0.125), (0.46875, 0.025), (0.46875, 0.225), (0.46875, 0.025), (0.46875, 0.125), (0.46875, 0.225), (0.46875, 0.125), (0.46875, 0.125), (0.46875, 0.125), (0.46875, 0.225), (0.46875, 0.225), (0.46875, 0.225), (0.46875, 0.225), (0.46875, 0.225), (0.46875, 0.225), (0.46875, 0.225), (0.46875, 0.225), (0.46875, 0.125), (0.46875, 0.025), (0.46875, 0.025), (0.46875, 0.025), (0.46875, 0.125), (0.46875, 0.125), (0.46875, 0.025), (0.46875, 0.025), (0.46875, 0.025), (0.46875, 0.025), (0.46875, 0.025), (0.46875, 0.025), (0.46875, 0.125), (0.46875, 0.225), (0.46875, 0.125), (0.46875, 0.225), (0.46875, 0.125), (0.46875, 0.225), (0.46875, 0.025), (0.46875, 0.125), (0.46875, 0.025), (0.46875, 0.125), (0.46875, 0.025), (0.46875, 0.125), (0.46875, 0.025), (0.46875, 0.225), (0.46875, 0.125), (0.46875, 0.225), (0.46875, 0.025), (0.46875, 0.025), (0.46875, 0.225), (0.46875, 0.025), (0.46875, 0.225), (0.46875, 0.225), (0.46875, 0.025), (0.46875, 0.125), (0.46875, 0.225), (0.46875, 0.225), (0.46875, 0.225), (0.46875, 0.225), (0.46875, 0.225), (0.46875, 0.225), (0.46875, 0.225), (0.46875, 0.025), (0.46875, 0.125), (0.46875, 0.025), (0.46875, 0.225), (0.46875, 0.125), (0.46875, 0.125), (0.46875, 0.225), (0.46875, 0.168593), (0.46875, 0.0814066), (0.46875, 0.025), (0.46875, 0.125), (0.46875, 0.168593), (0.46875, 0.225), (0.46875, 0.225), (0.46875, 0.025), (0.46875, 0.0814066), (0.46875, 0.025), (0.46875, 0.168593), (0.46875, 0.225), (0.46875, 0.168593), (0.46875, 0.025), (0.46875, 0.0814066), (0.46875, 0.0814066), (0.46875, 0.168593), (0.46875, 0.225), (0.46875, 0.125), (0.46875, 0.025), (0.46875, 0.0814066), (0.46875, 0.125), (0.46875, 0.025), (0.46875, 0.125), (0.46875, 0.225), (0.46875, 0.025), (0.46875, 0.225), (0.46875, 0.125), (0.46875, 0.125), (0.46875, 0.025), (0.46875, 0.025), (0.46875, 0.025), (0.46875, 0.125), (0.46875, 0.125), (0.46875, 0.025), (0.46875, 0.125), (0.46875, 0.025), (0.46875, 0.125), (0.46875, 0.025), (0.46875, 0.125), (0.46875, 0.125), (0.46875, 0.225), (0.46875, 0.125), (0.46875, 0.225), (0.46875, 0.125), (0.46875, 0.225), (0.46875, 0.225), (0.46875, 0.125), (0.46875, 0.125), (0.46875, 0.125), (0.46875, 0.225), (0.46875, 0.225), (0.46875, 0.025), (0.46875, 0.025), (0.46875, 0.025), (0.46875, 0.025), (0.46875, 0.025), (0.46875, 0.025), (0.46875, 0.225), (0.46875, 0.125), (0.46875, 0.125), (0.46875, 0.125), (0.46875, 0.225), (0.46875, 0.225), (0.46875, 0.225), (0.46875, 0.025), (0.46875, 0.125), (0.46875, 0.025), (0.46875, 0.225), (0.46875, 0.225), (0.46875, 0.025), (0.46875, 0.225), (0.46875, 0.025), (0.46875, 0.025), (0.46875, 0.225), (0.46875, 0.125), (0.46875, 0.025), (0.46875, 0.125), (0.46875, 0.025), (0.46875, 0.125), (0.46875, 0.025), (0.46875, 0.125), (0.46875, 0.125), (0.46875, 0.025), (0.46875, 0.025), (0.46875, 0.025), (0.46875, 0.125), (0.46875, 0.125), (0.46875, 0.125), (0.46875, 0.225), (0.46875, 0.125), (0.46875, 0.225), (0.46875, 0.125), (0.46875, 0.225), (0.46875, 0.225), (0.46875, 0.225), (0.46875, 0.225), (0.46875, 0.225), (0.46875, 0.225), (0.46875, 0.225), (0.46875, 0.025), (0.46875, 0.025), (0.46875, 0.025), (0.46875, 0.025), (0.46875, 0.025), (0.46875, 0.025), (0.46875, 0.025), (0.46875, 0.225), (0.46875, 0.125), (0.46875, 0.225), (0.46875, 0.025), (0.46875, 0.125), (0.46875, 0.125), (0.46875, 0.025), (0.46875, 0.0814066), (0.46875, 0.168593), (0.46875, 0.225), (0.46875, 0.125), (0.46875, 0.0814066), (0.46875, 0.025), (0.46875, 0.025), (0.46875, 0.225), (0.46875, 0.168593), (0.46875, 0.225), (0.46875, 0.0814066), (0.46875, 0.025), (0.46875, 0.0814066), (0.46875, 0.225), (0.46875, 0.168593), (0.46875, 0.168593), (0.46875, 0.0814066), (0.46875, 0.025), (0.46875, 0.125), (0.46875, 0.225), (0.46875, 0.168593), (0.46875, 0.125), (0.46875, 0.225), (0.46875, 0.125), (0.46875, 0.025), (0.46875, 0.225), (0.46875, 0.025), (0.46875, 0.125), (0.46875, 0.025), (0.46875, 0.225), (0.46875, 0.125), (0.46875, 0.225), (0.46875, 0.025), (0.46875, 0.025), (0.46875, 0.225), (0.46875, 0.025), (0.46875, 0.225), (0.46875, 0.225), (0.46875, 0.025), (0.46875, 0.125), (0.46875, 0.125), (0.46875, 0.025), (0.46875, 0.025), (0.46875, 0.025), (0.46875, 0.125), (0.46875, 0.125), (0.46875, 0.025), (0.46875, 0.125), (0.46875, 0.025), (0.46875, 0.125), (0.46875, 0.025), (0.46875, 0.125), (0.46875, 0.125), (0.46875, 0.225), (0.46875, 0.125), (0.46875, 0.225), (0.46875, 0.125), (0.46875, 0.225), (0.46875, 0.225), (0.46875, 0.025), (0.46875, 0.125), (0.46875, 0.025), (0.46875, 0.225), (0.46875, 0.125), (0.46875, 0.125), (0.46875, 0.225), (0.46875, 0.168593), (0.46875, 0.0814066), (0.46875, 0.025), (0.46875, 0.125), (0.46875, 0.168593), (0.46875, 0.225), (0.46875, 0.225), (0.46875, 0.025), (0.46875, 0.0814066), (0.46875, 0.025), (0.46875, 0.168593), (0.46875, 0.225), (0.46875, 0.168593), (0.46875, 0.025), (0.46875, 0.0814066), (0.46875, 0.0814066), (0.46875, 0.168593), (0.46875, 0.225), (0.46875, 0.125), (0.46875, 0.025), (0.46875, 0.0814066), (0.46875, 0.125), (0.46875, 0.025), (0.46875, 0.125), (0.46875, 0.225), (0.46875, 0.025), (0.46875, 0.225), (0.46875, 0.125), (0.46875, 0.225), (0.46875, 0.125), (0.46875, 0.125), (0.46875, 0.125), (0.46875, 0.225), (0.46875, 0.225), (0.46875, 0.225), (0.46875, 0.225), (0.46875, 0.225), (0.46875, 0.225), (0.46875, 0.225), (0.46875, 0.225), (0.46875, 0.025), (0.46875, 0.025), (0.46875, 0.025), (0.46875, 0.025), (0.46875, 0.025), (0.46875, 0.025), (0.59375, 0.225), (0.59375, 0.025), (0.59375, 0.225), (0.59375, 0.025), (0.59375, 0.225), (0.59375, 0.025), (0.59375, 0.225), (0.59375, 0.025), (0.59375, 0.025), (0.59375, 0.025), (0.59375, 0.225), (0.59375, 0.225), (0.59375, 0.025), (0.59375, 0.225), (0.59375, 0.025), (0.59375, 0.225), (0.59375, 0.025), (0.59375, 0.225), (0.59375, 0.225), (0.59375, 0.025), (0.59375, 0.225), (0.59375, 0.025), (0.59375, 0.225), (0.59375, 0.025), (0.59375, 0.225), (0.59375, 0.025), (0.59375, 0.025), (0.59375, 0.025), (0.59375, 0.225), (0.59375, 0.225), (0.59375, 0.025), (0.59375, 0.225), (0.59375, 0.025), (0.59375, 0.225), (0.59375, 0.025), (0.59375, 0.225), (0.59375, 0.225), (0.59375, 0.025), (0.59375, 0.025), (0.59375, 0.025), (0.59375, 0.225), (0.59375, 0.225), (0.59375, 0.025), (0.59375, 0.225), (0.59375, 0.025), (0.59375, 0.225), (0.59375, 0.025), (0.59375, 0.225), (0.59375, 0.225), (0.59375, 0.025), (0.59375, 0.225), (0.59375, 0.025), (0.59375, 0.225), (0.59375, 0.025), (0.59375, 0.225), (0.59375, 0.025), (0.59375, 0.025), (0.59375, 0.025), (0.59375, 0.225), (0.59375, 0.225), (0.09375, 0.225), (0.09375, 0.225), (0.09375, 0.225), (0.09375, 0.225), (0.09375, 0.225), (0.09375, 0.225), (0.09375, 0.225), (0.09375, 0.225), (0.09375, 0.225), (0.09375, 0.225), (0.09375, 0.225), (0.09375, 0.225), (0.09375, 0.225), (0.09375, 0.225), (0.09375, 0.225), (0.09375, 0.225), (0.09375, 0.225), (0.09375, 0.225), (0.09375, 0.225), (0.09375, 0.225), (0.09375, 0.225), (0.09375, 0.225), (0.09375, 0.225), (0.09375, 0.225), (0.09375, 0.225), (0.09375, 0.025), (0.09375, 0.125), (0.09375, 0.025), (0.09375, 0.225), (0.09375, 0.225), (0.09375, 0.025), (0.09375, 0.225), (0.09375, 0.025), (0.09375, 0.025), (0.09375, 0.225), (0.09375, 0.125), (0.09375, 0.225), (0.09375, 0.025), (0.09375, 0.125), (0.09375, 0.025), (0.09375, 0.225), (0.09375, 0.225), (0.09375, 0.025), (0.09375, 0.225), (0.09375, 0.025), (0.09375, 0.025), (0.09375, 0.225), (0.09375, 0.125), (0.09375, 0.025), (0.09375, 0.225), (0.09375, 0.125), (0.09375, 0.225), (0.09375, 0.025), (0.09375, 0.025), (0.09375, 0.225), (0.09375, 0.025), (0.09375, 0.225), (0.09375, 0.225), (0.09375, 0.025), (0.09375, 0.125), (0.09375, 0.025), (0.09375, 0.225), (0.09375, 0.125), (0.09375, 0.225), (0.09375, 0.025), (0.09375, 0.025), (0.09375, 0.225), (0.09375, 0.025), (0.09375, 0.225), (0.09375, 0.225), (0.09375, 0.025), (0.09375, 0.125), (0.46875, 0.275), (0.46875, 0.275), (0.46875, 0.275), (0.46875, 0.275), (0.46875, 0.275), (0.46875, 0.275), (0.46875, 0.275), (0.46875, 0.275), (0.46875, 0.275), (0.46875, 0.275), (0.46875, 0.275), (0.46875, 0.275), (0.46875, 0.275), (0.46875, 0.275), (0.46875, 0.275), (0.46875, 0.275), (0.46875, 0.275), (0.46875, 0.275), (0.46875, 0.275), (0.46875, 0.275), (0.46875, 0.275), (0.46875, 0.275), (0.46875, 0.275), (0.46875, 0.275)] (interpolation = "faceVarying")
        uniform token subdivisionScheme = "none"
        rel material:binding = </Vehicle/Materials/colormap>
    }
    def Scope "Materials" {
        def Material "colormap" {
            token outputs:surface.connect = </Vehicle/Materials/colormap/surface.outputs:surface>
            def Shader "surface" {
                uniform token info:id = "UsdPreviewSurface"
                float inputs:roughness = 0.7
                float inputs:metallic = 0
                color3f inputs:diffuseColor.connect = </Vehicle/Materials/colormap/texture.outputs:rgb>
                token outputs:surface
            }
            def Shader "stReader" {
                uniform token info:id = "UsdPrimvarReader_float2"
                token inputs:varname = "st"
                float2 outputs:result
            }
            def Shader "texture" {
                uniform token info:id = "UsdUVTexture"
                asset inputs:file = @kenney-skate-colormap.png@
                float2 inputs:st.connect = </Vehicle/Materials/colormap/stReader.outputs:result>
                token inputs:wrapS = "repeat"
                token inputs:wrapT = "repeat"
                float3 outputs:rgb
            }
        }
    }
}
