#usda 1.0
(
    defaultPrim = "Vehicle"
    metersPerUnit = 1
    upAxis = "Y"
)
def Xform "Vehicle" {
    def Mesh "mesh_metal" {
        int[] faceVertexCounts = [3, 3, 3, 3, 3, 3, 3, 3, 3, 3, 3, 3, 3, 3, 3, 3, 3, 3, 3, 3, 3, 3, 3, 3, 3, 3, 3, 3, 3, 3, 3, 3, 3, 3, 3, 3, 3, 3, 3, 3, 3, 3, 3, 3, 3, 3, 3, 3, 3, 3, 3, 3, 3, 3, 3, 3, 3, 3, 3, 3, 3, 3, 3, 3, 3, 3, 3, 3, 3, 3, 3, 3, 3, 3, 3, 3, 3, 3, 3, 3]
        int[] faceVertexIndices = [2, 1, 0, 1, 2, 3, 3, 2, 4, 3, 4, 5, 8, 7, 6, 7, 8, 9, 7, 9, 10, 10, 9, 11, 12, 6, 7, 6, 12, 13, 13, 12, 11, 13, 11, 9, 5, 14, 3, 14, 5, 15, 14, 15, 16, 16, 15, 17, 16, 18, 14, 21, 20, 19, 20, 21, 22, 20, 22, 23, 23, 22, 24, 25, 19, 20, 19, 25, 26, 26, 25, 24, 26, 24, 22, 29, 28, 27, 28, 29, 30, 27, 28, 31, 28, 30, 32, 33, 31, 28, 35, 30, 34, 30, 35, 32, 32, 35, 36, 36, 35, 37, 40, 39, 38, 39, 40, 41, 41, 40, 42, 42, 40, 43, 43, 40, 44, 45, 43, 44, 43, 45, 46, 45, 44, 47, 45, 47, 48, 45, 48, 49, 50, 39, 41, 50, 51, 39, 52, 51, 50, 53, 51, 52, 51, 53, 54, 50, 41, 55, 58, 57, 56, 57, 58, 59, 62, 61, 60, 61, 62, 63, 40, 64, 44, 64, 40, 57, 33, 44, 64, 44, 33, 28, 66, 56, 65, 56, 66, 61, 66, 40, 38, 40, 66, 65, 18, 67, 14, 38, 14, 67, 14, 38, 39, 38, 67, 60, 65, 57, 40, 57, 65, 56, 62, 60, 67, 18, 62, 67, 62, 18, 16, 16, 63, 62, 63, 16, 17, 60, 66, 38, 66, 60, 61, 57, 59, 64, 58, 31, 59, 31, 58, 27, 59, 33, 64, 33, 59, 31]
        point3f[] points = [(1, 0.2, -0.65), (1, 0.2, -0.35), (0.5, 0.283333, -0.65), (0.4, 0.3, 0.05), (0.4, 0.3, -0.65), (0.4, 0.3, -0.15), (0.5, 8.14557e-10, -1.05), (0.3, 0.1, -1.05), (0.2, 8.14557e-10, -1.05), (0.2, 0.5, -1.05), (0.3, 0.4, -1.05), (0.4, 0.4, -1.05), (0.4, 0.1, -1.05), (0.5, 0.5, -1.05), (0.3, 0.3, 0.05), (0.2, 0.3, -0.05), (0.25, 0.3, 0.25), (0.2, 0.3, 0.25), (0.3, 0.3, 0.15), (-0.2, 8.14614e-10, -1.05), (-0.4, 0.1, -1.05), (-0.5, 8.14614e-10, -1.05), (-0.5, 0.5, -1.05), (-0.4, 0.4, -1.05), (-0.3, 0.4, -1.05), (-0.3, 0.1, -1.05), (-0.2, 0.5, -1.05), (-0.2, 0.3, 0.25), (-0.3, 0.3, 0.05), (-0.2, 0.3, -0.05), (-0.4, 0.3, -0.15), (-0.25, 0.3, 0.25), (-0.4, 0.3, 0.05), (-0.3, 0.3, 0.15), (-0.4, 0.3, -0.65), (-0.5, 0.283333, -0.65), (-1, 0.2, -0.35), (-1, 0.2, -0.65), (0.3, 0.1, 0.249504), (0.3, 0.1, 0.05), (-0.3, 0.1, 0.249504), (0.2, 0.1, 0.05), (-0.2, 0.1, 0.05), (-0.2, 0.1, -0.35), (-0.3, 0.1, 0.05), (-0.5, 0.1, -0.65), (-0.2, 0.1, -0.65), (-0.4, 0.1, 0.05), (-1, 0.1, -0.35), (-1, 0.1, -0.65), (0.2, 0.1, -0.65), (0.4, 0.1, 0.05), (0.5, 0.1, -0.65), (1, 0.1, -0.65), (1, 0.1, -0.35), (0.2, 0.1, -0.35), (-0.2, 0.304975, 1.05), (-0.3, 0.2, 0.25), (-0.2, 0.2, 0.25), (-0.25, 0.2, 0.25), (0.3, 0.2, 0.25), (0.2, 0.304975, 1.05), (0.25, 0.2, 0.25), (0.2, 0.2, 0.25), (-0.3, 0.2, 0.15), (-0.2, 0.20995, 1.05), (0.2, 0.20995, 1.05), (0.3, 0.2, 0.15), (0.255, 0.4, -0.65), (0.255, 0.4, -0.35), (0.2, 0.4, -0.65), (0.2, 0.4, -0.05), (0.2, 0.4, -0.35), (0.4, 0.4, -0.15), (0.4, 0.4, -0.35), (0.36375, 0.65, -0.75), (0.4, 0.4, -0.65), (0.36375, 0.65, -0.6), (0.29125, 0.65, -0.75), (0.29125, 0.65, -0.6), (-0.05, 0.7, 0.05), (-0.2, 0.7, 0.05), (-0.05, 0.7, -0.35), (-0.2, 0.7, -0.35), (0.2, 0.7, -0.35), (0.2, 0.7, 0.05), (0.05, 0.7, -0.35), (0.05, 0.7, 0.05), (-0.2, 0.4, -0.65), (-0.2, 0.4, -0.35), (-0.255, 0.4, -0.65), (-0.2, 0.4, -0.05), (-0.255, 0.4, -0.35), (-0.4, 0.4, -0.15), (-0.4, 0.4, -0.35), (-0.29125, 0.65, -0.6), (-0.36375, 0.65, -0.6), (-0.4, 0.4, -0.65), (-0.36375, 0.65, -0.75), (-0.29125, 0.65, -0.75), (0.2, 0.4, 1.05), (0.15, 0.685633, 0.0978913), (-0.15, 0.685633, 0.0978913), (-0.15, 0.414367, 1.00211), (0.15, 0.414367, 1.00211), (-0.2, 0.4, 1.05), (-0.2, 0, -0.35), (0.2, 0, -0.35), (4.88758e-06, 0, -0.35), (0.3, 0.4, -0.85), (0.3, 0.1, -0.85), (0.4, 0.1, -0.85), (0.4, 0.4, -0.85), (-0.4, 0.1, -0.85), (-0.3, 0.1, -0.85), (-0.4, 0.4, -0.85), (-0.3, 0.4, -0.85), (0.05, 0.7, 0.35), (-0.05, 0.7, 0.35), (0.5, 0.5, -0.95), (0.2, 0.5, -0.95), (0.5, 0.4, -0.65), (0.2, 0.466667, -0.85), (0.5, 8.14557e-10, -0.65), (0.2, 8.14557e-10, -0.85), (-0.2, 8.14557e-10, -0.85), (-0.2, 0.466667, -0.85), (0.2, 0.6, -0.85), (-0.2, 0.6, -0.85), (1.00136e-05, 0.7, -0.35), (0.05, 0.8, -0.35), (0.05, 0.8, -0.05), (0.05, 0.75, 0.05), (-0.05, 0.8, -0.35), (-0.05, 0.75, 0.05), (-0.05, 0.8, -0.05), (-0.2, 0.5, -0.95), (-0.5, 8.14614e-10, -0.65), (-0.5, 0.5, -0.95), (-0.5, 0.4, -0.65), (0.2, 8.14557e-10, -0.65), (-0.2, 8.14557e-10, -0.65)]
        normal3f[] normals = [(0.164399, 0.986394, 0), (0.164399, 0.986394, 0), (0.164399, 0.986394, 0), (0.164399, 0.986394, 0), (0.164399, 0.986394, 0), (0.164399, 0.986394, 0), (0.164399, 0.986394, 0), (0.164399, 0.986394, 0), (0.164399, 0.986394, 0), (0.164399, 0.986394, 0), (0.164399, 0.986394, 0), (0.164399, 0.986394, 0), (0, 0, -1), (0, 0, -1), (0, 0, -1), (0, 0, -1), (0, 0, -1), (0, 0, -1), (0, 0, -1), (0, 0, -1), (0, 0, -1), (0, 0, -1), (0, 0, -1), (0, 0, -1), (0, 0, -1), (0, 0, -1), (0, 0, -1), (0, 0, -1), (0, 0, -1), (0, 0, -1), (0, 0, -1), (0, 0, -1), (0, 0, -1), (0, 0, -1), (0, 0, -1), (0, 0, -1), (0, 1, 0), (0, 1, 0), (0, 1, 0), (0, 1, 0), (0, 1, 0), (0, 1, 0), (0, 1, 0), (0, 1, 0), (0, 1, 0), (0, 1, 0), (0, 1, 0), (0, 1, 0), (0, 1, 0), (0, 1, 0), (0, 1, 0), (0, 0, -1), (0, 0, -1), (0, 0, -1), (0, 0, -1), (0, 0, -1), (0, 0, -1), (0, 0, -1), (0, 0, -1), (0, 0, -1), (0, 0, -1), (0, 0, -1), (0, 0, -1), (0, 0, -1), (0, 0, -1), (0, 0, -1), (0, 0, -1), (0, 0, -1), (0, 0, -1), (0, 0, -1), (0, 0, -1), (0, 0, -1), (0, 0, -1), (0, 0, -1), (0, 0, -1), (0, 1, 0), (0, 1, 0), (0, 1, 0), (0, 1, 0), (0, 1, 0), (0, 1, 0), (0, 1, 0), (0, 1, 0), (0, 1, 0), (0, 1, 0), (0, 1, 0), (0, 1, 0), (0, 1, 0), (0, 1, 0), (0, 1, 0), (-0.164399, 0.986394, 0), (-0.164399, 0.986394, 0), (-0.164399, 0.986394, 0), (-0.164399, 0.986394, 0), (-0.164399, 0.986394, 0), (-0.164399, 0.986394, 0), (-0.164399, 0.986394, 0), (-0.164399, 0.986394, 0), (-0.164399, 0.986394, 0), (-0.164399, 0.986394, 0), (-0.164399, 0.986394, 0), (-0.164399, 0.986394, 0), (0, -1, 0), (0, -1, 0), (0, -1, 0), (0, -1, 0), (0, -1, 0), (0, -1, 0), (0, -1, 0), (0, -1, 0), (0, -1, 0), (0, -1, 0), (0, -1, 0), (0, -1, 0), (0, -1, 0), (0, -1, 0), (0, -1, 0), (0, -1, 0), (0, -1, 0), (0, -1, 0), (0, -1, 0), (0, -1, 0), (0, -1, 0), (0, -1, 0), (0, -1, 0), (0, -1, 0), (0, -1, 0), (0, -1, 0), (0, -1, 0), (0, -1, 0), (0, -1, 0), (0, -1, 0), (0, -1, 0), (0, -1, 0), (0, -1, 0), (0, -1, 0), (0, -1, 0), (0, -1, 0), (0, -1, 0), (0, -1, 0), (0, -1, 0), (0, -1, 0), (0, -1, 0), (0, -1, 0), (0, -1, 0), (0, -1, 0), (0, -1, 0), (0, -1, 0), (0, -1, 0), (0, -1, 0), (0, 0.9915, -0.130104), (0, 0.9915, -0.130104), (0, 0.9915, -0.130104), (0, 0.9915, -0.130104), (0, 0.9915, -0.130104), (0, 0.9915, -0.130104), (0, 0.9915, -0.130104), (0, 0.9915, -0.130104), (0, 0.9915, -0.130104), (0, 0.9915, -0.130104), (0, 0.9915, -0.130104), (0, 0.9915, -0.130104), (-1, 0, 0), (-1, 0, 0), (-1, 0, 0), (-1, 0, 0), (-1, 0, 0), (-1, 0, 0), (-1, 0, 0), (-1, 0, 0), (-1, 0, 0), (-1, 0, 0), (-1, 0, 0), (-1, 0, 0), (0, 0, 1), (0, 0, 1), (0, 0, 1), (0, 0, 1), (0, 0, 1), (0, 0, 1), (0, -0.990699, 0.136075), (0, -0.990699, 0.136075), (0, -0.990699, 0.136075), (0, -0.990699, 0.136075), (0, -0.990699, 0.136075), (0, -0.990699, 0.136075), (1, 0, 0), (1, 0, 0), (1, 0, 0), (1, 0, 0), (1, 0, 0), (1, 0, 0), (1, 0, 0), (1, 0, 0), (1, 0, 0), (1, 0, 0), (1, 0, 0), (1, 0, 0), (-0.992277, -0.000323398, 0.12404), (-0.992277, -0.000323398, 0.12404), (-0.992277, -0.000323398, 0.12404), (-0.992277, -0.000323398, 0.12404), (-0.992277, -0.000323398, 0.12404), (-0.992277, -0.000323398, 0.12404), (0, 1, 0), (0, 1, 0), (0, 1, 0), (0.894427, 0, 0.447213), (0.894427, 0, 0.447213), (0.894427, 0, 0.447213), (0.894427, 0, 0.447213), (0.894427, 0, 0.447213), (0.894427, 0, 0.447213), (0, 0, 1), (0, 0, 1), (0, 0, 1), (0, 0, 1), (0, 0, 1), (0, 0, 1), (0.992277, -0.000323398, 0.12404), (0.992277, -0.000323398, 0.12404), (0.992277, -0.000323398, 0.12404), (0.992277, -0.000323398, 0.12404), (0.992277, -0.000323398, 0.12404), (0.992277, -0.000323398, 0.12404), (0, 1, 0), (0, 1, 0), (0, 1, 0), (0, 0, 1), (0, 0, 1), (0, 0, 1), (0, 0, 1), (0, 0, 1), (0, 0, 1), (-0.894427, 0, 0.447214), (-0.894427, 0, 0.447214), (-0.894427, 0, 0.447214), (-0.894427, 0, 0.447214), (-0.894427, 0, 0.447214), (-0.894427, 0, 0.447214)] (interpolation = "faceVarying")
        texCoord2f[] primvars:st = [(25.5906, -17.5834), (13.7795, -37.5399), (25.5906, -37.5399), (13.7795, -37.5399), (25.5906, -17.5834), (-1.9685, -13.592), (-1.9685, -13.592), (25.5906, -17.5834), (25.5906, -13.592), (-1.9685, -13.592), (25.5906, -13.592), (5.90551, -13.592), (-7.87402, 3.20692e-08), (-11.811, 3.93701), (-19.685, 3.20692e-08), (-11.811, 3.93701), (-7.87402, 3.20692e-08), (-7.87402, 19.685), (-11.811, 3.93701), (-7.87402, 19.685), (-11.811, 15.748), (-11.811, 15.748), (-7.87402, 19.685), (-15.748, 15.748), (-15.748, 3.93701), (-19.685, 3.20692e-08), (-11.811, 3.93701), (-19.685, 3.20692e-08), (-15.748, 3.93701), (-19.685, 19.685), (-19.685, 19.685), (-15.748, 3.93701), (-15.748, 15.748), (-19.685, 19.685), (-15.748, 15.748), (-7.87402, 19.685), (-15.748, -5.90551), (-11.811, 1.9685), (-15.748, 1.9685), (-11.811, 1.9685), (-15.748, -5.90551), (-7.87402, -1.9685), (-11.811, 1.9685), (-7.87402, -1.9685), (-9.84252, 9.84252), (-9.84252, 9.84252), (-7.87402, -1.9685), (-7.87402, 9.84252), (-9.84252, 9.84252), (-11.811, 5.90551), (-11.811, 1.9685), (19.685, 3.20714e-08), (15.748, 3.93701), (7.87402, 3.20714e-08), (15.748, 3.93701), (19.685, 3.20714e-08), (19.685, 19.685), (15.748, 3.93701), (19.685, 19.685), (15.748, 15.748), (15.748, 15.748), (19.685, 19.685), (11.811, 15.748), (11.811, 3.93701), (7.87402, 3.20714e-08), (15.748, 3.93701), (7.87402, 3.20714e-08), (11.811, 3.93701), (7.87402, 19.685), (7.87402, 19.685), (11.811, 3.93701), (11.811, 15.748), (7.87402, 19.685), (11.811, 15.748), (19.685, 19.685), (7.87402, -1.9685), (11.811, 1.9685), (7.87402, 9.84252), (11.811, 1.9685), (7.87402, -1.9685), (15.748, -5.90551), (7.87402, 9.84252), (11.811, 1.9685), (9.84252, 9.84252), (11.811, 1.9685), (15.748, -5.90551), (15.748, 1.9685), (11.811, 5.90551), (9.84252, 9.84252), (11.811, 1.9685), (-25.5906, -17.5834), (-5.90551, -13.592), (-25.5906, -13.592), (-5.90551, -13.592), (-25.5906, -17.5834), (1.9685, -13.592), (1.9685, -13.592), (-25.5906, -17.5834), (-13.7795, -37.5399), (-13.7795, -37.5399), (-25.5906, -17.5834), (-25.5906, -37.5399), (-11.811, 9.82298), (11.811, 1.9685), (11.811, 9.82298), (11.811, 1.9685), (-11.811, 9.82298), (7.87402, 1.9685), (7.87402, 1.9685), (-11.811, 9.82298), (-7.87402, 1.9685), (-7.87402, 1.9685), (-11.811, 9.82298), (-7.87402, -13.7795), (-7.87402, -13.7795), (-11.811, 9.82298), (-11.811, 1.9685), (-19.685, -25.5906), (-7.87402, -13.7795), (-11.811, 1.9685), (-7.87402, -13.7795), (-19.685, -25.5906), (-7.87402, -25.5906), (-19.685, -25.5906), (-11.811, 1.9685), (-15.748, 1.9685), (-19.685, -25.5906), (-15.748, 1.9685), (-39.3701, -13.7795), (-19.685, -25.5906), (-39.3701, -13.7795), (-39.3701, -25.5906), (7.87402, -25.5906), (11.811, 1.9685), (7.87402, 1.9685), (7.87402, -25.5906), (15.748, 1.9685), (11.811, 1.9685), (19.685, -25.5906), (15.748, 1.9685), (7.87402, -25.5906), (39.3701, -25.5906), (15.748, 1.9685), (19.685, -25.5906), (15.748, 1.9685), (39.3701, -25.5906), (39.3701, -13.7795), (7.87402, -25.5906), (7.87402, 1.9685), (7.87402, -13.7795), (7.87402, 10.7833), (11.811, 10.7833), (7.87402, 42.5494), (11.811, 10.7833), (7.87402, 10.7833), (9.84252, 10.7833), (-9.84252, 10.7833), (-7.87402, 42.5494), (-11.811, 10.7833), (-7.87402, 42.5494), (-9.84252, 10.7833), (-7.87402, 10.7833), (9.82298, 3.93701), (5.90551, 7.87402), (1.9685, 3.93701), (5.90551, 7.87402), (9.82298, 3.93701), (9.84252, 7.87402), (5.90551, 11.811), (1.9685, 3.93701), (5.90551, 7.87402), (1.9685, 3.93701), (5.90551, 11.811), (1.9685, 11.811), (7.87402, 8.26576), (-7.87402, 12.0069), (-7.87402, 8.26576), (-7.87402, 12.0069), (7.87402, 8.26576), (7.87402, 12.0069), (7.87402, 42.0788), (-11.811, 10.2673), (11.811, 10.2673), (-11.811, 10.2673), (7.87402, 42.0788), (-7.87402, 42.0788), (-5.90551, 11.811), (-5.90551, 7.87402), (-1.9685, 11.811), (-9.82298, 3.93701), (-1.9685, 11.811), (-5.90551, 7.87402), (-1.9685, 11.811), (-9.82298, 3.93701), (-1.9685, 3.93701), (-9.82298, 3.93701), (-5.90551, 7.87402), (-9.84252, 7.87402), (40.0426, 8.26995), (8.30147, 7.8782), (8.28209, 3.94119), (8.30147, 7.8782), (40.0426, 8.26995), (40.0426, 12.0111), (-9.84252, 9.84252), (-11.811, 9.84252), (-11.811, 5.90551), (-2.19306e-07, 11.811), (-4.40171, 7.87402), (-1.66834e-07, 7.87402), (-4.40171, 7.87402), (-2.19306e-07, 11.811), (-4.40171, 11.811), (9.84252, 11.811), (7.87402, 7.87402), (9.84252, 7.87402), (7.87402, 7.87402), (9.84252, 11.811), (7.87402, 11.811), (-8.30147, 7.8782), (-40.0426, 8.26995), (-8.28209, 3.94119), (-40.0426, 8.26995), (-8.30147, 7.8782), (-40.0426, 12.0111), (11.811, 9.84252), (9.84252, 9.84252), (11.811, 5.90551), (-7.87402, 7.87402), (-9.84252, 11.811), (-9.84252, 7.87402), (-9.84252, 11.811), (-7.87402, 7.87402), (-7.87402, 11.811), (4.40171, 7.87402), (1.15974e-07, 11.811), (6.35014e-08, 7.87402), (1.15974e-07, 11.811), (4.40171, 7.87402), (4.40171, 11.811)] (interpolation = "faceVarying")
        uniform token subdivisionScheme = "none"
        rel material:binding = </Vehicle/Materials/metal>
    }
    def Mesh "mesh_metalRed" {
        int[] faceVertexCounts = [3, 3, 3, 3, 3, 3, 3, 3, 3, 3, 3, 3, 3, 3, 3, 3, 3, 3, 3, 3, 3, 3, 3, 3, 3, 3, 3, 3, 3, 3, 3, 3, 3, 3, 3, 3, 3, 3, 3, 3, 3, 3, 3, 3, 3, 3, 3, 3, 3, 3, 3, 3, 3, 3, 3, 3, 3, 3, 3, 3, 3, 3, 3, 3, 3, 3, 3, 3, 3, 3, 3, 3, 3, 3, 3, 3, 3]
        int[] faceVertexIndices = [1, 53, 0, 53, 1, 54, 1, 51, 54, 51, 1, 3, 52, 0, 53, 0, 52, 2, 70, 69, 68, 69, 70, 71, 71, 70, 72, 73, 69, 71, 69, 73, 74, 77, 76, 75, 76, 77, 74, 74, 4, 76, 4, 74, 5, 5, 74, 73, 78, 77, 75, 77, 78, 79, 68, 79, 78, 79, 68, 69, 78, 76, 68, 76, 78, 75, 77, 69, 74, 69, 77, 79, 82, 81, 80, 81, 82, 83, 86, 85, 84, 85, 86, 87, 90, 89, 88, 89, 90, 91, 91, 90, 92, 91, 92, 93, 93, 92, 94, 95, 94, 92, 94, 95, 96, 30, 97, 34, 97, 30, 94, 94, 30, 93, 97, 96, 98, 96, 97, 94, 95, 90, 99, 90, 95, 92, 98, 95, 99, 95, 98, 96, 98, 90, 97, 90, 98, 99, 48, 37, 49, 37, 48, 36, 47, 36, 48, 36, 47, 32, 37, 45, 49, 45, 37, 35, 85, 72, 84, 72, 85, 71, 71, 85, 100, 85, 101, 100, 101, 85, 87, 101, 87, 102, 102, 87, 80, 102, 80, 81, 102, 81, 103, 104, 100, 101, 100, 104, 105, 105, 104, 103, 105, 103, 81, 91, 83, 89, 83, 91, 81, 81, 91, 105, 3, 39, 51, 39, 3, 14, 28, 47, 44, 47, 28, 32, 42, 43, 106, 41, 107, 55, 42, 107, 41, 107, 42, 108, 108, 42, 106]
        point3f[] points = [(1, 0.2, -0.65), (1, 0.2, -0.35), (0.5, 0.283333, -0.65), (0.4, 0.3, 0.05), (0.4, 0.3, -0.65), (0.4, 0.3, -0.15), (0.5, 8.14557e-10, -1.05), (0.3, 0.1, -1.05), (0.2, 8.14557e-10, -1.05), (0.2, 0.5, -1.05), (0.3, 0.4, -1.05), (0.4, 0.4, -1.05), (0.4, 0.1, -1.05), (0.5, 0.5, -1.05), (0.3, 0.3, 0.05), (0.2, 0.3, -0.05), (0.25, 0.3, 0.25), (0.2, 0.3, 0.25), (0.3, 0.3, 0.15), (-0.2, 8.14614e-10, -1.05), (-0.4, 0.1, -1.05), (-0.5, 8.14614e-10, -1.05), (-0.5, 0.5, -1.05), (-0.4, 0.4, -1.05), (-0.3, 0.4, -1.05), (-0.3, 0.1, -1.05), (-0.2, 0.5, -1.05), (-0.2, 0.3, 0.25), (-0.3, 0.3, 0.05), (-0.2, 0.3, -0.05), (-0.4, 0.3, -0.15), (-0.25, 0.3, 0.25), (-0.4, 0.3, 0.05), (-0.3, 0.3, 0.15), (-0.4, 0.3, -0.65), (-0.5, 0.283333, -0.65), (-1, 0.2, -0.35), (-1, 0.2, -0.65), (0.3, 0.1, 0.249504), (0.3, 0.1, 0.05), (-0.3, 0.1, 0.249504), (0.2, 0.1, 0.05), (-0.2, 0.1, 0.05), (-0.2, 0.1, -0.35), (-0.3, 0.1, 0.05), (-0.5, 0.1, -0.65), (-0.2, 0.1, -0.65), (-0.4, 0.1, 0.05), (-1, 0.1, -0.35), (-1, 0.1, -0.65), (0.2, 0.1, -0.65), (0.4, 0.1, 0.05), (0.5, 0.1, -0.65), (1, 0.1, -0.65), (1, 0.1, -0.35), (0.2, 0.1, -0.35), (-0.2, 0.304975, 1.05), (-0.3, 0.2, 0.25), (-0.2, 0.2, 0.25), (-0.25, 0.2, 0.25), (0.3, 0.2, 0.25), (0.2, 0.304975, 1.05), (0.25, 0.2, 0.25), (0.2, 0.2, 0.25), (-0.3, 0.2, 0.15), (-0.2, 0.20995, 1.05), (0.2, 0.20995, 1.05), (0.3, 0.2, 0.15), (0.255, 0.4, -0.65), (0.255, 0.4, -0.35), (0.2, 0.4, -0.65), (0.2, 0.4, -0.05), (0.2, 0.4, -0.35), (0.4, 0.4, -0.15), (0.4, 0.4, -0.35), (0.36375, 0.65, -0.75), (0.4, 0.4, -0.65), (0.36375, 0.65, -0.6), (0.29125, 0.65, -0.75), (0.29125, 0.65, -0.6), (-0.05, 0.7, 0.05), (-0.2, 0.7, 0.05), (-0.05, 0.7, -0.35), (-0.2, 0.7, -0.35), (0.2, 0.7, -0.35), (0.2, 0.7, 0.05), (0.05, 0.7, -0.35), (0.05, 0.7, 0.05), (-0.2, 0.4, -0.65), (-0.2, 0.4, -0.35), (-0.255, 0.4, -0.65), (-0.2, 0.4, -0.05), (-0.255, 0.4, -0.35), (-0.4, 0.4, -0.15), (-0.4, 0.4, -0.35), (-0.29125, 0.65, -0.6), (-0.36375, 0.65, -0.6), (-0.4, 0.4, -0.65), (-0.36375, 0.65, -0.75), (-0.29125, 0.65, -0.75), (0.2, 0.4, 1.05), (0.15, 0.685633, 0.0978913), (-0.15, 0.685633, 0.0978913), (-0.15, 0.414367, 1.00211), (0.15, 0.414367, 1.00211), (-0.2, 0.4, 1.05), (-0.2, 0, -0.35), (0.2, 0, -0.35), (4.88758e-06, 0, -0.35), (0.3, 0.4, -0.85), (0.3, 0.1, -0.85), (0.4, 0.1, -0.85), (0.4, 0.4, -0.85), (-0.4, 0.1, -0.85), (-0.3, 0.1, -0.85), (-0.4, 0.4, -0.85), (-0.3, 0.4, -0.85), (0.05, 0.7, 0.35), (-0.05, 0.7, 0.35), (0.5, 0.5, -0.95), (0.2, 0.5, -0.95), (0.5, 0.4, -0.65), (0.2, 0.466667, -0.85), (0.5, 8.14557e-10, -0.65), (0.2, 8.14557e-10, -0.85), (-0.2, 8.14557e-10, -0.85), (-0.2, 0.466667, -0.85), (0.2, 0.6, -0.85), (-0.2, 0.6, -0.85), (1.00136e-05, 0.7, -0.35), (0.05, 0.8, -0.35), (0.05, 0.8, -0.05), (0.05, 0.75, 0.05), (-0.05, 0.8, -0.35), (-0.05, 0.75, 0.05), (-0.05, 0.8, -0.05), (-0.2, 0.5, -0.95), (-0.5, 8.14614e-10, -0.65), (-0.5, 0.5, -0.95), (-0.5, 0.4, -0.65), (0.2, 8.14557e-10, -0.65), (-0.2, 8.14557e-10, -0.65)]
        normal3f[] normals = [(1, 0, 0), (1, 0, 0), (1, 0, 0), (1, 0, 0), (1, 0, 0), (1, 0, 0), (0.5547, 0, 0.83205), (0.5547, 0, 0.83205), (0.5547, 0, 0.83205), (0.5547, 0, 0.83205), (0.5547, 0, 0.83205), (0.5547, 0, 0.83205), (0, 0, -1), (0, 0, -1), (0, 0, -1), (0, 0, -1), (0, 0, -1), (0, 0, -1), (0, 1, 0), (0, 1, 0), (0, 1, 0), (0, 1, 0), (0, 1, 0), (0, 1, 0), (0, 1, 0), (0, 1, 0), (0, 1, 0), (0, 1, 0), (0, 1, 0), (0, 1, 0), (0, 1, 0), (0, 1, 0), (0, 1, 0), (0.98965, 0.143499, 0), (0.98965, 0.143499, 0), (0.98965, 0.143499, 0), (0.98965, 0.143499, 0), (0.98965, 0.143499, 0), (0.98965, 0.143499, 0), (1, 0, 0), (1, 0, 0), (1, 0, 0), (1, 0, 0), (1, 0, 0), (1, 0, 0), (1, 0, 0), (1, 0, 0), (1, 0, 0), (0, 1, 0), (0, 1, 0), (0, 1, 0), (0, 1, 0), (0, 1, 0), (0, 1, 0), (-0.98965, 0.143499, 0), (-0.98965, 0.143499, 0), (-0.98965, 0.143499, 0), (-0.98965, 0.143499, 0), (-0.98965, 0.143499, 0), (-0.98965, 0.143499, 0), (0, -0.371391, -0.928477), (0, -0.371391, -0.928477), (0, -0.371391, -0.928477), (0, -0.371391, -0.928477), (0, -0.371391, -0.928477), (0, -0.371391, -0.928477), (0, 0.707107, 0.707107), (0, 0.707107, 0.707107), (0, 0.707107, 0.707107), (0, 0.707107, 0.707107), (0, 0.707107, 0.707107), (0, 0.707107, 0.707107), (0, 1, 0), (0, 1, 0), (0, 1, 0), (0, 1, 0), (0, 1, 0), (0, 1, 0), (0, 1, 0), (0, 1, 0), (0, 1, 0), (0, 1, 0), (0, 1, 0), (0, 1, 0), (0, 1, 0), (0, 1, 0), (0, 1, 0), (0, 1, 0), (0, 1, 0), (0, 1, 0), (0, 1, 0), (0, 1, 0), (0, 1, 0), (0, 1, 0), (0, 1, 0), (0, 1, 0), (0, 1, 0), (0, 1, 0), (0, 1, 0), (0, 0.707107, 0.707107), (0, 0.707107, 0.707107), (0, 0.707107, 0.707107), (0, 0.707107, 0.707107), (0, 0.707107, 0.707107), (0, 0.707107, 0.707107), (-1, 0, 0), (-1, 0, 0), (-1, 0, 0), (-1, 0, 0), (-1, 0, 0), (-1, 0, 0), (-1, 0, 0), (-1, 0, 0), (-1, 0, 0), (-0.98965, 0.143499, 0), (-0.98965, 0.143499, 0), (-0.98965, 0.143499, 0), (-0.98965, 0.143499, 0), (-0.98965, 0.143499, 0), (-0.98965, 0.143499, 0), (0.98965, 0.143499, 0), (0.98965, 0.143499, 0), (0.98965, 0.143499, 0), (0.98965, 0.143499, 0), (0.98965, 0.143499, 0), (0.98965, 0.143499, 0), (0, 1, 0), (0, 1, 0), (0, 1, 0), (0, 1, 0), (0, 1, 0), (0, 1, 0), (0, -0.371391, -0.928477), (0, -0.371391, -0.928477), (0, -0.371391, -0.928477), (0, -0.371391, -0.928477), (0, -0.371391, -0.928477), (0, -0.371391, -0.928477), (-1, 0, 0), (-1, 0, 0), (-1, 0, 0), (-1, 0, 0), (-1, 0, 0), (-1, 0, 0), (-0.5547, 0, 0.83205), (-0.5547, 0, 0.83205), (-0.5547, 0, 0.83205), (-0.5547, 0, 0.83205), (-0.5547, 0, 0.83205), (-0.5547, 0, 0.83205), (0, 0, -1), (0, 0, -1), (0, 0, -1), (0, 0, -1), (0, 0, -1), (0, 0, -1), (1, 0, 0), (1, 0, 0), (1, 0, 0), (1, 0, 0), (1, 0, 0), (1, 0, 0), (1, 0, 0), (1, 0, 0), (1, 0, 0), (0, 0.957826, 0.287348), (0, 0.957826, 0.287348), (0, 0.957826, 0.287348), (0, 0.957826, 0.287348), (0, 0.957826, 0.287348), (0, 0.957826, 0.287348), (0, 0.957826, 0.287348), (0, 0.957826, 0.287348), (0, 0.957826, 0.287348), (0, 0.957826, 0.287348), (0, 0.957826, 0.287348), (0, 0.957826, 0.287348), (0, 0.957826, 0.287348), (0, 0.957826, 0.287348), (0, 0.957826, 0.287348), (0, 0.957826, 0.287348), (0, 0.957826, 0.287348), (0, 0.957826, 0.287348), (0, 0.957826, 0.287348), (0, 0.957826, 0.287348), (0, 0.957826, 0.287348), (0, 0.957826, 0.287348), (0, 0.957826, 0.287348), (0, 0.957826, 0.287348), (0, 0.957826, 0.287348), (0, 0.957826, 0.287348), (0, 0.957826, 0.287348), (0, 0.957826, 0.287348), (0, 0.957826, 0.287348), (0, 0.957826, 0.287348), (-1, 0, 0), (-1, 0, 0), (-1, 0, 0), (-1, 0, 0), (-1, 0, 0), (-1, 0, 0), (-1, 0, 0), (-1, 0, 0), (-1, 0, 0), (0, 0, 1), (0, 0, 1), (0, 0, 1), (0, 0, 1), (0, 0, 1), (0, 0, 1), (0, 0, 1), (0, 0, 1), (0, 0, 1), (0, 0, 1), (0, 0, 1), (0, 0, 1), (-1, 0, 0), (-1, 0, 0), (-1, 0, 0), (1, 0, 0), (1, 0, 0), (1, 0, 0), (0, -0.970143, 0.242536), (0, -0.970143, 0.242536), (0, -0.970143, 0.242536), (0, -0.970143, 0.242536), (0, -0.970143, 0.242536), (0, -0.970143, 0.242536), (0, -0.970143, 0.242536), (0, -0.970143, 0.242536), (0, -0.970143, 0.242536)] (interpolation = "faceVarying")
        texCoord2f[] primvars:st = [(13.7795, 7.87402), (25.5906, 3.93701), (25.5906, 7.87402), (25.5906, 3.93701), (13.7795, 7.87402), (13.7795, 3.93701), (40.4014, 7.87402), (12.0112, 3.93701), (40.4014, 3.93701), (12.0112, 3.93701), (40.4014, 7.87402), (12.0112, 11.811), (-19.685, 3.93701), (-39.3701, 7.87402), (-39.3701, 3.93701), (-39.3701, 7.87402), (-19.685, 3.93701), (-19.685, 11.1549), (-7.87402, -25.5906), (-10.0394, -13.7795), (-10.0394, -25.5906), (-10.0394, -13.7795), (-7.87402, -25.5906), (-7.87402, -1.9685), (-7.87402, -1.9685), (-7.87402, -25.5906), (-7.87402, -13.7795), (-15.748, -5.90551), (-10.0394, -13.7795), (-7.87402, -1.9685), (-10.0394, -13.7795), (-15.748, -5.90551), (-15.748, -13.7795), (23.6221, 23.2707), (25.5906, 13.3252), (29.5276, 23.2707), (25.5906, 13.3252), (23.6221, 23.2707), (13.7795, 13.3252), (13.7795, 15.748), (25.5906, 11.811), (25.5906, 15.748), (25.5906, 11.811), (13.7795, 15.748), (5.90551, 11.811), (5.90551, 11.811), (13.7795, 15.748), (5.90551, 15.748), (-11.4665, -29.5276), (-14.3209, -23.6221), (-14.3209, -29.5276), (-14.3209, -23.6221), (-11.4665, -29.5276), (-11.4665, -23.6221), (-25.5906, 17.0257), (-23.6221, 26.9711), (-29.5276, 26.9711), (-23.6221, 26.9711), (-25.5906, 17.0257), (-13.7795, 17.0257), (-11.4665, 34.7265), (-15.748, 24.1258), (-10.0394, 24.1258), (-15.748, 24.1258), (-11.4665, 34.7265), (-14.3209, 34.7265), (14.3209, 34.7986), (10.0394, 20.8791), (15.748, 20.8791), (10.0394, 20.8791), (14.3209, 34.7986), (11.4665, 34.7986), (1.9685, -13.7795), (7.87402, 1.9685), (1.9685, 1.9685), (7.87402, 1.9685), (1.9685, -13.7795), (7.87402, -13.7795), (-1.9685, -13.7795), (-7.87402, 1.9685), (-7.87402, -13.7795), (-7.87402, 1.9685), (-1.9685, -13.7795), (-1.9685, 1.9685), (10.0394, -25.5906), (7.87402, -13.7795), (7.87402, -25.5906), (7.87402, -13.7795), (10.0394, -25.5906), (7.87402, -1.9685), (7.87402, -1.9685), (10.0394, -25.5906), (10.0394, -13.7795), (7.87402, -1.9685), (10.0394, -13.7795), (15.748, -5.90551), (15.748, -5.90551), (10.0394, -13.7795), (15.748, -13.7795), (-11.4665, 34.7986), (-15.748, 20.8791), (-10.0394, 20.8791), (-15.748, 20.8791), (-11.4665, 34.7986), (-14.3209, 34.7986), (-5.90551, 11.811), (-25.5906, 15.748), (-25.5906, 11.811), (-25.5906, 15.748), (-5.90551, 11.811), (-13.7795, 15.748), (-13.7795, 15.748), (-5.90551, 11.811), (-5.90551, 15.748), (-25.5906, 13.3252), (-23.6221, 23.2707), (-29.5276, 23.2707), (-23.6221, 23.2707), (-25.5906, 13.3252), (-13.7795, 13.3252), (23.6221, 26.9711), (25.5906, 17.0257), (29.5276, 26.9711), (25.5906, 17.0257), (23.6221, 26.9711), (13.7795, 17.0257), (14.3209, -29.5276), (11.4665, -23.6221), (11.4665, -29.5276), (11.4665, -23.6221), (14.3209, -29.5276), (14.3209, -23.6221), (14.3209, 34.7265), (10.0394, 24.1258), (15.748, 24.1258), (10.0394, 24.1258), (14.3209, 34.7265), (11.4665, 34.7265), (-13.7795, 3.93701), (-25.5906, 7.87402), (-25.5906, 3.93701), (-25.5906, 7.87402), (-13.7795, 3.93701), (-13.7795, 7.87402), (-12.0112, 3.93701), (-40.4014, 7.87402), (-40.4014, 3.93701), (-40.4014, 7.87402), (-12.0112, 3.93701), (-12.0112, 11.811), (39.3701, 7.87402), (19.685, 3.93701), (39.3701, 3.93701), (19.685, 3.93701), (39.3701, 7.87402), (19.685, 11.1549), (-1.9685, 27.5591), (13.7795, 15.748), (13.7795, 27.5591), (13.7795, 15.748), (-1.9685, 27.5591), (1.9685, 15.748), (1.9685, 15.748), (-1.9685, 27.5591), (-41.3386, 15.748), (7.87402, 6.03355), (5.90551, 4.06505), (7.87402, -35.07), (5.90551, 4.06505), (7.87402, 6.03355), (1.9685, 6.03355), (5.90551, 4.06505), (1.9685, 6.03355), (-5.90551, 4.06505), (-5.90551, 4.06505), (1.9685, 6.03355), (-1.9685, 6.03355), (-5.90551, 4.06505), (-1.9685, 6.03355), (-7.87402, 6.03355), (-5.90551, 4.06505), (-7.87402, 6.03355), (-5.90551, -33.1015), (5.90551, -33.1015), (7.87402, -35.07), (5.90551, 4.06505), (7.87402, -35.07), (5.90551, -33.1015), (-7.87402, -35.07), (-7.87402, -35.07), (5.90551, -33.1015), (-5.90551, -33.1015), (-7.87402, -35.07), (-5.90551, -33.1015), (-7.87402, 6.03355), (-1.9685, 15.748), (-13.7795, 27.5591), (-13.7795, 15.748), (-13.7795, 27.5591), (-1.9685, 15.748), (1.9685, 27.5591), (1.9685, 27.5591), (-1.9685, 15.748), (41.3386, 15.748), (15.748, 11.811), (11.811, 3.93701), (15.748, 3.93701), (11.811, 3.93701), (15.748, 11.811), (11.811, 11.811), (-11.811, 11.811), (-15.748, 3.93701), (-11.811, 3.93701), (-15.748, 3.93701), (-11.811, 11.811), (-15.748, 11.811), (1.9685, 3.93701), (-13.7795, 3.93701), (-13.7795, -2.27374e-13), (-1.9685, 3.93701), (13.7795, 2.27374e-13), (13.7795, 3.93701), (-7.87402, 2.86459), (7.87402, -13.3681), (7.87402, 2.86459), (7.87402, -13.3681), (-7.87402, 2.86459), (0.000191152, -13.3681), (0.000191152, -13.3681), (-7.87402, 2.86459), (-7.87402, -13.3681)] (interpolation = "faceVarying")
        uniform token subdivisionScheme = "none"
        rel material:binding = </Vehicle/Materials/metalRed>
    }
    def Mesh "mesh_dark" {
        int[] faceVertexCounts = [3, 3, 3, 3, 3, 3, 3, 3, 3, 3, 3, 3, 3, 3, 3, 3, 3, 3, 3, 3, 3, 3, 3, 3, 3, 3]
        int[] faceVertexIndices = [109, 7, 10, 7, 109, 110, 7, 111, 12, 111, 7, 110, 109, 111, 110, 111, 109, 112, 109, 11, 112, 11, 109, 10, 111, 11, 12, 11, 111, 112, 115, 114, 113, 114, 115, 116, 115, 24, 116, 24, 115, 23, 115, 20, 23, 20, 115, 113, 114, 24, 25, 24, 114, 116, 20, 114, 25, 114, 20, 113, 117, 103, 104, 103, 117, 118, 117, 104, 101, 103, 118, 102, 102, 117, 101, 117, 102, 118]
        point3f[] points = [(1, 0.2, -0.65), (1, 0.2, -0.35), (0.5, 0.283333, -0.65), (0.4, 0.3, 0.05), (0.4, 0.3, -0.65), (0.4, 0.3, -0.15), (0.5, 8.14557e-10, -1.05), (0.3, 0.1, -1.05), (0.2, 8.14557e-10, -1.05), (0.2, 0.5, -1.05), (0.3, 0.4, -1.05), (0.4, 0.4, -1.05), (0.4, 0.1, -1.05), (0.5, 0.5, -1.05), (0.3, 0.3, 0.05), (0.2, 0.3, -0.05), (0.25, 0.3, 0.25), (0.2, 0.3, 0.25), (0.3, 0.3, 0.15), (-0.2, 8.14614e-10, -1.05), (-0.4, 0.1, -1.05), (-0.5, 8.14614e-10, -1.05), (-0.5, 0.5, -1.05), (-0.4, 0.4, -1.05), (-0.3, 0.4, -1.05), (-0.3, 0.1, -1.05), (-0.2, 0.5, -1.05), (-0.2, 0.3, 0.25), (-0.3, 0.3, 0.05), (-0.2, 0.3, -0.05), (-0.4, 0.3, -0.15), (-0.25, 0.3, 0.25), (-0.4, 0.3, 0.05), (-0.3, 0.3, 0.15), (-0.4, 0.3, -0.65), (-0.5, 0.283333, -0.65), (-1, 0.2, -0.35), (-1, 0.2, -0.65), (0.3, 0.1, 0.249504), (0.3, 0.1, 0.05), (-0.3, 0.1, 0.249504), (0.2, 0.1, 0.05), (-0.2, 0.1, 0.05), (-0.2, 0.1, -0.35), (-0.3, 0.1, 0.05), (-0.5, 0.1, -0.65), (-0.2, 0.1, -0.65), (-0.4, 0.1, 0.05), (-1, 0.1, -0.35), (-1, 0.1, -0.65), (0.2, 0.1, -0.65), (0.4, 0.1, 0.05), (0.5, 0.1, -0.65), (1, 0.1, -0.65), (1, 0.1, -0.35), (0.2, 0.1, -0.35), (-0.2, 0.304975, 1.05), (-0.3, 0.2, 0.25), (-0.2, 0.2, 0.25), (-0.25, 0.2, 0.25), (0.3, 0.2, 0.25), (0.2, 0.304975, 1.05), (0.25, 0.2, 0.25), (0.2, 0.2, 0.25), (-0.3, 0.2, 0.15), (-0.2, 0.20995, 1.05), (0.2, 0.20995, 1.05), (0.3, 0.2, 0.15), (0.255, 0.4, -0.65), (0.255, 0.4, -0.35), (0.2, 0.4, -0.65), (0.2, 0.4, -0.05), (0.2, 0.4, -0.35), (0.4, 0.4, -0.15), (0.4, 0.4, -0.35), (0.36375, 0.65, -0.75), (0.4, 0.4, -0.65), (0.36375, 0.65, -0.6), (0.29125, 0.65, -0.75), (0.29125, 0.65, -0.6), (-0.05, 0.7, 0.05), (-0.2, 0.7, 0.05), (-0.05, 0.7, -0.35), (-0.2, 0.7, -0.35), (0.2, 0.7, -0.35), (0.2, 0.7, 0.05), (0.05, 0.7, -0.35), (0.05, 0.7, 0.05), (-0.2, 0.4, -0.65), (-0.2, 0.4, -0.35), (-0.255, 0.4, -0.65), (-0.2, 0.4, -0.05), (-0.255, 0.4, -0.35), (-0.4, 0.4, -0.15), (-0.4, 0.4, -0.35), (-0.29125, 0.65, -0.6), (-0.36375, 0.65, -0.6), (-0.4, 0.4, -0.65), (-0.36375, 0.65, -0.75), (-0.29125, 0.65, -0.75), (0.2, 0.4, 1.05), (0.15, 0.685633, 0.0978913), (-0.15, 0.685633, 0.0978913), (-0.15, 0.414367, 1.00211), (0.15, 0.414367, 1.00211), (-0.2, 0.4, 1.05), (-0.2, 0, -0.35), (0.2, 0, -0.35), (4.88758e-06, 0, -0.35), (0.3, 0.4, -0.85), (0.3, 0.1, -0.85), (0.4, 0.1, -0.85), (0.4, 0.4, -0.85), (-0.4, 0.1, -0.85), (-0.3, 0.1, -0.85), (-0.4, 0.4, -0.85), (-0.3, 0.4, -0.85), (0.05, 0.7, 0.35), (-0.05, 0.7, 0.35), (0.5, 0.5, -0.95), (0.2, 0.5, -0.95), (0.5, 0.4, -0.65), (0.2, 0.466667, -0.85), (0.5, 8.14557e-10, -0.65), (0.2, 8.14557e-10, -0.85), (-0.2, 8.14557e-10, -0.85), (-0.2, 0.466667, -0.85), (0.2, 0.6, -0.85), (-0.2, 0.6, -0.85), (1.00136e-05, 0.7, -0.35), (0.05, 0.8, -0.35), (0.05, 0.8, -0.05), (0.05, 0.75, 0.05), (-0.05, 0.8, -0.35), (-0.05, 0.75, 0.05), (-0.05, 0.8, -0.05), (-0.2, 0.5, -0.95), (-0.5, 8.14614e-10, -0.65), (-0.5, 0.5, -0.95), (-0.5, 0.4, -0.65), (0.2, 8.14557e-10, -0.65), (-0.2, 8.14557e-10, -0.65)]
        normal3f[] normals = [(1, 0, 0), (1, 0, 0), (1, 0, 0), (1, 0, 0), (1, 0, 0), (1, 0, 0), (0, 1, 0), (0, 1, 0), (0, 1, 0), (0, 1, 0), (0, 1, 0), (0, 1, 0), (0, 0, -1), (0, 0, -1), (0, 0, -1), (0, 0, -1), (0, 0, -1), (0, 0, -1), (0, -1, 0), (0, -1, 0), (0, -1, 0), (0, -1, 0), (0, -1, 0), (0, -1, 0), (-1, 0, 0), (-1, 0, 0), (-1, 0, 0), (-1, 0, 0), (-1, 0, 0), (-1, 0, 0), (0, 0, -1), (0, 0, -1), (0, 0, -1), (0, 0, -1), (0, 0, -1), (0, 0, -1), (0, -1, 0), (0, -1, 0), (0, -1, 0), (0, -1, 0), (0, -1, 0), (0, -1, 0), (1, 0, 0), (1, 0, 0), (1, 0, 0), (1, 0, 0), (1, 0, 0), (1, 0, 0), (-1, 0, 0), (-1, 0, 0), (-1, 0, 0), (-1, 0, 0), (-1, 0, 0), (-1, 0, 0), (0, 1, 0), (0, 1, 0), (0, 1, 0), (0, 1, 0), (0, 1, 0), (0, 1, 0), (0, 0.915984, 0.401214), (0, 0.915984, 0.401214), (0, 0.915984, 0.401214), (0, 0.915984, 0.401214), (0, 0.915984, 0.401214), (0, 0.915984, 0.401214), (0.652929, 0.725476, 0.217643), (0.652929, 0.725476, 0.217643), (0.652929, 0.725476, 0.217643), (-0.652929, 0.725476, 0.217643), (-0.652929, 0.725476, 0.217643), (-0.652929, 0.725476, 0.217643), (0, 0.99838, -0.0568966), (0, 0.99838, -0.0568966), (0, 0.99838, -0.0568966), (0, 0.99838, -0.0568966), (0, 0.99838, -0.0568966), (0, 0.99838, -0.0568966)] (interpolation = "faceVarying")
        texCoord2f[] primvars:st = [(33.4646, 15.748), (41.3386, 3.93701), (41.3386, 15.748), (41.3386, 3.93701), (33.4646, 15.748), (33.4646, 3.93701), (-11.811, -41.3386), (-15.748, -33.4646), (-15.748, -41.3386), (-15.748, -33.4646), (-11.811, -41.3386), (-11.811, -33.4646), (-11.811, 15.748), (-15.748, 3.93701), (-11.811, 3.93701), (-15.748, 3.93701), (-11.811, 15.748), (-15.748, 15.748), (11.811, -33.4646), (15.748, -41.3386), (15.748, -33.4646), (15.748, -41.3386), (11.811, -33.4646), (11.811, -41.3386), (-33.4646, 3.93701), (-41.3386, 15.748), (-41.3386, 3.93701), (-41.3386, 15.748), (-33.4646, 3.93701), (-33.4646, 15.748), (15.748, 15.748), (11.811, 3.93701), (15.748, 3.93701), (11.811, 3.93701), (15.748, 15.748), (11.811, 15.748), (-15.748, -33.4646), (-11.811, -41.3386), (-11.811, -33.4646), (-11.811, -41.3386), (-15.748, -33.4646), (-15.748, -41.3386), (33.4646, 15.748), (41.3386, 3.93701), (41.3386, 15.748), (41.3386, 3.93701), (33.4646, 15.748), (33.4646, 3.93701), (-33.4646, 3.93701), (-41.3386, 15.748), (-41.3386, 3.93701), (-41.3386, 15.748), (-33.4646, 3.93701), (-33.4646, 15.748), (15.748, -41.3386), (11.811, -33.4646), (11.811, -41.3386), (11.811, -33.4646), (15.748, -41.3386), (15.748, -33.4646), (1.9685, -1.56476), (-5.90551, -29.5932), (5.90551, -29.5932), (-5.90551, -29.5932), (1.9685, -1.56476), (-1.9685, -1.56476), (-12.4499, 14.4514), (-35.561, -1.88777), (-1.78873, 13.6295), (35.561, -1.88777), (12.4499, 14.4514), (1.78873, 13.6295), (5.90551, 5.38358), (-1.9685, 15.3252), (-5.90551, 5.38358), (-1.9685, 15.3252), (5.90551, 5.38358), (1.9685, 15.3252)] (interpolation = "faceVarying")
        uniform token subdivisionScheme = "none"
        rel material:binding = </Vehicle/Materials/dark>
    }
    def Mesh "mesh_metalDark" {
        int[] faceVertexCounts = [3, 3, 3, 3, 3, 3, 3, 3, 3, 3, 3, 3, 3, 3, 3, 3, 3, 3, 3, 3, 3, 3, 3, 3, 3, 3, 3, 3, 3, 3, 3, 3, 3, 3, 3, 3, 3, 3, 3, 3, 3, 3, 3, 3, 3, 3, 3, 3, 3, 3, 3, 3, 3, 3, 3, 3, 3, 3, 3, 3, 3, 3, 3, 3, 3, 3, 3, 3, 3, 3, 3, 3, 3, 3, 3, 3, 3, 3, 3, 3, 3, 3, 3, 3, 3, 3, 3, 3, 3, 3, 3, 3, 3, 3, 3, 3, 3]
        int[] faceVertexIndices = [9, 119, 13, 119, 9, 120, 120, 121, 119, 121, 120, 76, 76, 120, 68, 68, 120, 70, 70, 120, 122, 13, 123, 6, 123, 13, 119, 123, 119, 121, 123, 121, 52, 52, 121, 2, 121, 4, 2, 4, 121, 76, 73, 15, 5, 15, 73, 71, 124, 9, 8, 9, 124, 120, 120, 124, 122, 126, 124, 125, 124, 126, 122, 122, 126, 127, 127, 126, 128, 128, 84, 127, 84, 128, 86, 86, 128, 129, 129, 128, 82, 82, 128, 83, 84, 122, 127, 122, 84, 70, 70, 84, 72, 130, 87, 86, 87, 130, 131, 87, 131, 132, 129, 130, 86, 130, 129, 82, 130, 82, 133, 131, 134, 132, 134, 131, 135, 132, 80, 87, 80, 132, 134, 130, 135, 131, 135, 130, 133, 80, 133, 82, 133, 80, 135, 135, 80, 134, 26, 125, 19, 125, 26, 136, 125, 136, 126, 137, 22, 21, 22, 137, 138, 138, 137, 139, 139, 137, 45, 139, 45, 35, 138, 126, 136, 126, 138, 88, 88, 138, 90, 90, 138, 97, 97, 138, 139, 22, 136, 26, 136, 22, 138, 88, 128, 126, 128, 88, 83, 83, 88, 89, 91, 30, 29, 30, 91, 93, 34, 139, 35, 139, 34, 97, 100, 56, 61, 56, 100, 105, 100, 15, 71, 15, 100, 17, 61, 17, 100, 17, 61, 63, 56, 27, 58, 105, 27, 56, 105, 29, 27, 29, 105, 91, 108, 140, 107, 125, 140, 108, 124, 140, 125, 8, 140, 124, 6, 140, 8, 140, 6, 123, 125, 108, 141, 141, 108, 106, 125, 141, 137, 21, 125, 137, 125, 21, 19, 106, 46, 141, 46, 106, 43, 46, 137, 141, 137, 46, 45, 123, 50, 140, 50, 123, 52, 50, 107, 140, 107, 50, 55]
        point3f[] points = [(1, 0.2, -0.65), (1, 0.2, -0.35), (0.5, 0.283333, -0.65), (0.4, 0.3, 0.05), (0.4, 0.3, -0.65), (0.4, 0.3, -0.15), (0.5, 8.14557e-10, -1.05), (0.3, 0.1, -1.05), (0.2, 8.14557e-10, -1.05), (0.2, 0.5, -1.05), (0.3, 0.4, -1.05), (0.4, 0.4, -1.05), (0.4, 0.1, -1.05), (0.5, 0.5, -1.05), (0.3, 0.3, 0.05), (0.2, 0.3, -0.05), (0.25, 0.3, 0.25), (0.2, 0.3, 0.25), (0.3, 0.3, 0.15), (-0.2, 8.14614e-10, -1.05), (-0.4, 0.1, -1.05), (-0.5, 8.14614e-10, -1.05), (-0.5, 0.5, -1.05), (-0.4, 0.4, -1.05), (-0.3, 0.4, -1.05), (-0.3, 0.1, -1.05), (-0.2, 0.5, -1.05), (-0.2, 0.3, 0.25), (-0.3, 0.3, 0.05), (-0.2, 0.3, -0.05), (-0.4, 0.3, -0.15), (-0.25, 0.3, 0.25), (-0.4, 0.3, 0.05), (-0.3, 0.3, 0.15), (-0.4, 0.3, -0.65), (-0.5, 0.283333, -0.65), (-1, 0.2, -0.35), (-1, 0.2, -0.65), (0.3, 0.1, 0.249504), (0.3, 0.1, 0.05), (-0.3, 0.1, 0.249504), (0.2, 0.1, 0.05), (-0.2, 0.1, 0.05), (-0.2, 0.1, -0.35), (-0.3, 0.1, 0.05), (-0.5, 0.1, -0.65), (-0.2, 0.1, -0.65), (-0.4, 0.1, 0.05), (-1, 0.1, -0.35), (-1, 0.1, -0.65), (0.2, 0.1, -0.65), (0.4, 0.1, 0.05), (0.5, 0.1, -0.65), (1, 0.1, -0.65), (1, 0.1, -0.35), (0.2, 0.1, -0.35), (-0.2, 0.304975, 1.05), (-0.3, 0.2, 0.25), (-0.2, 0.2, 0.25), (-0.25, 0.2, 0.25), (0.3, 0.2, 0.25), (0.2, 0.304975, 1.05), (0.25, 0.2, 0.25), (0.2, 0.2, 0.25), (-0.3, 0.2, 0.15), (-0.2, 0.20995, 1.05), (0.2, 0.20995, 1.05), (0.3, 0.2, 0.15), (0.255, 0.4, -0.65), (0.255, 0.4, -0.35), (0.2, 0.4, -0.65), (0.2, 0.4, -0.05), (0.2, 0.4, -0.35), (0.4, 0.4, -0.15), (0.4, 0.4, -0.35), (0.36375, 0.65, -0.75), (0.4, 0.4, -0.65), (0.36375, 0.65, -0.6), (0.29125, 0.65, -0.75), (0.29125, 0.65, -0.6), (-0.05, 0.7, 0.05), (-0.2, 0.7, 0.05), (-0.05, 0.7, -0.35), (-0.2, 0.7, -0.35), (0.2, 0.7, -0.35), (0.2, 0.7, 0.05), (0.05, 0.7, -0.35), (0.05, 0.7, 0.05), (-0.2, 0.4, -0.65), (-0.2, 0.4, -0.35), (-0.255, 0.4, -0.65), (-0.2, 0.4, -0.05), (-0.255, 0.4, -0.35), (-0.4, 0.4, -0.15), (-0.4, 0.4, -0.35), (-0.29125, 0.65, -0.6), (-0.36375, 0.65, -0.6), (-0.4, 0.4, -0.65), (-0.36375, 0.65, -0.75), (-0.29125, 0.65, -0.75), (0.2, 0.4, 1.05), (0.15, 0.685633, 0.0978913), (-0.15, 0.685633, 0.0978913), (-0.15, 0.414367, 1.00211), (0.15, 0.414367, 1.00211), (-0.2, 0.4, 1.05), (-0.2, 0, -0.35), (0.2, 0, -0.35), (4.88758e-06, 0, -0.35), (0.3, 0.4, -0.85), (0.3, 0.1, -0.85), (0.4, 0.1, -0.85), (0.4, 0.4, -0.85), (-0.4, 0.1, -0.85), (-0.3, 0.1, -0.85), (-0.4, 0.4, -0.85), (-0.3, 0.4, -0.85), (0.05, 0.7, 0.35), (-0.05, 0.7, 0.35), (0.5, 0.5, -0.95), (0.2, 0.5, -0.95), (0.5, 0.4, -0.65), (0.2, 0.466667, -0.85), (0.5, 8.14557e-10, -0.65), (0.2, 8.14557e-10, -0.85), (-0.2, 8.14557e-10, -0.85), (-0.2, 0.466667, -0.85), (0.2, 0.6, -0.85), (-0.2, 0.6, -0.85), (1.00136e-05, 0.7, -0.35), (0.05, 0.8, -0.35), (0.05, 0.8, -0.05), (0.05, 0.75, 0.05), (-0.05, 0.8, -0.35), (-0.05, 0.75, 0.05), (-0.05, 0.8, -0.05), (-0.2, 0.5, -0.95), (-0.5, 8.14614e-10, -0.65), (-0.5, 0.5, -0.95), (-0.5, 0.4, -0.65), (0.2, 8.14557e-10, -0.65), (-0.2, 8.14557e-10, -0.65)]
        normal3f[] normals = [(0, 1, 0), (0, 1, 0), (0, 1, 0), (0, 1, 0), (0, 1, 0), (0, 1, 0), (0, 0.948683, 0.316228), (0, 0.948683, 0.316228), (0, 0.948683, 0.316228), (0, 0.948683, 0.316228), (0, 0.948683, 0.316228), (0, 0.948683, 0.316228), (0, 0.948683, 0.316228), (0, 0.948683, 0.316228), (0, 0.948683, 0.316228), (0, 0.948683, 0.316228), (0, 0.948683, 0.316228), (0, 0.948683, 0.316228), (0, 0.948683, 0.316228), (0, 0.948683, 0.316228), (0, 0.948683, 0.316228), (1, 0, 0), (1, 0, 0), (1, 0, 0), (1, 0, 0), (1, 0, 0), (1, 0, 0), (1, 0, 0), (1, 0, 0), (1, 0, 0), (1, 0, 0), (1, 0, 0), (1, 0, 0), (1, 0, 0), (1, 0, 0), (1, 0, 0), (0, 0, 1), (0, 0, 1), (0, 0, 1), (0, 0, 1), (0, 0, 1), (0, 0, 1), (0.447214, 0, 0.894427), (0.447214, 0, 0.894427), (0.447214, 0, 0.894427), (0.447214, 0, 0.894427), (0.447214, 0, 0.894427), (0.447214, 0, 0.894427), (-1, 0, 0), (-1, 0, 0), (-1, 0, 0), (-1, 0, 0), (-1, 0, 0), (-1, 0, 0), (-1, 0, 0), (-1, 0, 0), (-1, 0, 0), (0, 0, -1), (0, 0, -1), (0, 0, -1), (0, 0, -1), (0, 0, -1), (0, 0, -1), (0, 0, -1), (0, 0, -1), (0, 0, -1), (0, 0, -1), (0, 0, -1), (0, 0, -1), (0, 0.980581, -0.196116), (0, 0.980581, -0.196116), (0, 0.980581, -0.196116), (0, 0.980581, -0.196116), (0, 0.980581, -0.196116), (0, 0.980581, -0.196116), (0, 0.980581, -0.196116), (0, 0.980581, -0.196116), (0, 0.980581, -0.196116), (0, 0.980581, -0.196116), (0, 0.980581, -0.196116), (0, 0.980581, -0.196116), (0, 0.980581, -0.196116), (0, 0.980581, -0.196116), (0, 0.980581, -0.196116), (1, 0, 0), (1, 0, 0), (1, 0, 0), (1, 0, 0), (1, 0, 0), (1, 0, 0), (1, 0, 0), (1, 0, 0), (1, 0, 0), (1, 0, 0), (1, 0, 0), (1, 0, 0), (1, 0, 0), (1, 0, 0), (1, 0, 0), (1, 0, 0), (1, 0, 0), (1, 0, 0), (0, 0, -1), (0, 0, -1), (0, 0, -1), (0, 0, -1), (0, 0, -1), (0, 0, -1), (0, 0, -1), (0, 0, -1), (0, 0, -1), (0, 0.894427, 0.447214), (0, 0.894427, 0.447214), (0, 0.894427, 0.447214), (0, 0.894427, 0.447214), (0, 0.894427, 0.447214), (0, 0.894427, 0.447214), (0, 0, 1), (0, 0, 1), (0, 0, 1), (0, 0, 1), (0, 0, 1), (0, 0, 1), (0, 1, 0), (0, 1, 0), (0, 1, 0), (0, 1, 0), (0, 1, 0), (0, 1, 0), (-1, 0, 0), (-1, 0, 0), (-1, 0, 0), (-1, 0, 0), (-1, 0, 0), (-1, 0, 0), (-1, 0, 0), (-1, 0, 0), (-1, 0, 0), (1, 0, 0), (1, 0, 0), (1, 0, 0), (1, 0, 0), (1, 0, 0), (1, 0, 0), (1, 0, 0), (1, 0, 0), (1, 0, 0), (-1, 0, 0), (-1, 0, 0), (-1, 0, 0), (-1, 0, 0), (-1, 0, 0), (-1, 0, 0), (-1, 0, 0), (-1, 0, 0), (-1, 0, 0), (-1, 0, 0), (-1, 0, 0), (-1, 0, 0), (-1, 0, 0), (-1, 0, 0), (-1, 0, 0), (0, 0.948683, 0.316228), (0, 0.948683, 0.316228), (0, 0.948683, 0.316228), (0, 0.948683, 0.316228), (0, 0.948683, 0.316228), (0, 0.948683, 0.316228), (0, 0.948683, 0.316228), (0, 0.948683, 0.316228), (0, 0.948683, 0.316228), (0, 0.948683, 0.316228), (0, 0.948683, 0.316228), (0, 0.948683, 0.316228), (0, 0.948683, 0.316228), (0, 0.948683, 0.316228), (0, 0.948683, 0.316228), (0, 1, 0), (0, 1, 0), (0, 1, 0), (0, 1, 0), (0, 1, 0), (0, 1, 0), (-1, 0, 0), (-1, 0, 0), (-1, 0, 0), (-1, 0, 0), (-1, 0, 0), (-1, 0, 0), (-1, 0, 0), (-1, 0, 0), (-1, 0, 0), (-0.447214, 0, 0.894427), (-0.447214, 0, 0.894427), (-0.447214, 0, 0.894427), (-0.447214, 0, 0.894427), (-0.447214, 0, 0.894427), (-0.447214, 0, 0.894427), (0, 0, 1), (0, 0, 1), (0, 0, 1), (0, 0, 1), (0, 0, 1), (0, 0, 1), (0, 0, 1), (0, 0, 1), (0, 0, 1), (0, 0, 1), (0, 0, 1), (0, 0, 1), (1, 0, 0), (1, 0, 0), (1, 0, 0), (1, 0, 0), (1, 0, 0), (1, 0, 0), (1, 0, 0), (1, 0, 0), (1, 0, 0), (1, 0, 0), (1, 0, 0), (1, 0, 0), (-1, 0, 0), (-1, 0, 0), (-1, 0, 0), (-1, 0, 0), (-1, 0, 0), (-1, 0, 0), (-1, 0, 0), (-1, 0, 0), (-1, 0, 0), (-1, 0, 0), (-1, 0, 0), (-1, 0, 0), (0, -1, 0), (0, -1, 0), (0, -1, 0), (0, -1, 0), (0, -1, 0), (0, -1, 0), (0, -1, 0), (0, -1, 0), (0, -1, 0), (0, -1, 0), (0, -1, 0), (0, -1, 0), (0, -1, 0), (0, -1, 0), (0, -1, 0), (0, -1, 0), (0, -1, 0), (0, -1, 0), (0, -1, 0), (0, -1, 0), (0, -1, 0), (0, -1, 0), (0, -1, 0), (0, -1, 0), (0, -1, 0), (0, -1, 0), (0, -1, 0), (0, -1, 0), (0, -1, 0), (0, -1, 0), (0, -1, 0), (0, -1, 0), (0, -1, 0), (-1, 0, 0), (-1, 0, 0), (-1, 0, 0), (-1, 0, 0), (-1, 0, 0), (-1, 0, 0), (0, 0, 1), (0, 0, 1), (0, 0, 1), (0, 0, 1), (0, 0, 1), (0, 0, 1), (0, 0, 1), (0, 0, 1), (0, 0, 1), (0, 0, 1), (0, 0, 1), (0, 0, 1), (1, 0, 0), (1, 0, 0), (1, 0, 0), (1, 0, 0), (1, 0, 0), (1, 0, 0)] (interpolation = "faceVarying")
        texCoord2f[] primvars:st = [(-7.87402, -41.3386), (-19.685, -37.4016), (-19.685, -41.3386), (-19.685, -37.4016), (-7.87402, -41.3386), (-7.87402, -37.4016), (7.87402, 41.7072), (19.685, 29.2573), (19.685, 41.7072), (19.685, 29.2573), (7.87402, 41.7072), (15.748, 29.2573), (15.748, 29.2573), (7.87402, 41.7072), (10.0394, 29.2573), (10.0394, 29.2573), (7.87402, 41.7072), (7.87402, 29.2573), (7.87402, 29.2573), (7.87402, 41.7072), (7.87402, 37.5572), (41.3386, 19.685), (25.5906, 3.20692e-08), (41.3386, 3.20692e-08), (25.5906, 3.20692e-08), (41.3386, 19.685), (37.4016, 19.685), (25.5906, 3.20692e-08), (37.4016, 19.685), (25.5906, 15.748), (25.5906, 3.20692e-08), (25.5906, 15.748), (25.5906, 3.93701), (25.5906, 3.93701), (25.5906, 15.748), (25.5906, 11.1549), (19.685, 15.748), (15.748, 11.811), (19.685, 11.1549), (15.748, 11.811), (19.685, 15.748), (15.748, 15.748), (16.7265, 15.748), (7.92308, 11.811), (16.7265, 11.811), (7.92308, 11.811), (16.7265, 15.748), (7.92308, 15.748), (-33.4646, 3.20692e-08), (-41.3386, 19.685), (-41.3386, 3.20692e-08), (-41.3386, 19.685), (-33.4646, 3.20692e-08), (-37.4016, 19.685), (-37.4016, 19.685), (-33.4646, 3.20692e-08), (-33.4646, 18.3727), (7.87402, 18.3727), (-7.87402, 3.20692e-08), (7.87402, 3.20692e-08), (-7.87402, 3.20692e-08), (7.87402, 18.3727), (-7.87402, 18.3727), (-7.87402, 18.3727), (7.87402, 18.3727), (-7.87402, 23.6221), (-7.87402, 23.6221), (7.87402, 18.3727), (7.87402, 23.6221), (7.87402, -28.182), (-7.87402, -8.10716), (-7.87402, -28.182), (-7.87402, -8.10716), (7.87402, -28.182), (-1.9685, -8.10716), (-1.9685, -8.10716), (7.87402, -28.182), (-0.000394936, -8.10716), (-0.000394936, -8.10716), (7.87402, -28.182), (1.9685, -8.10716), (1.9685, -8.10716), (7.87402, -28.182), (7.87402, -8.10716), (13.7795, 27.5591), (33.4646, 18.3727), (33.4646, 23.6221), (33.4646, 18.3727), (13.7795, 27.5591), (25.5906, 15.748), (25.5906, 15.748), (13.7795, 27.5591), (13.7795, 15.748), (13.7795, 31.4961), (-1.9685, 27.5591), (13.7795, 27.5591), (-1.9685, 27.5591), (13.7795, 31.4961), (1.9685, 31.4961), (-1.9685, 27.5591), (1.9685, 31.4961), (-1.9685, 29.5276), (-0.000395142, 27.5591), (-1.9685, 31.4961), (-1.9685, 27.5591), (-1.9685, 31.4961), (-0.000395142, 27.5591), (1.9685, 27.5591), (-1.9685, 31.4961), (1.9685, 27.5591), (1.9685, 31.4961), (1.9685, 15.8461), (-1.9685, 11.4444), (1.9685, 11.4444), (-1.9685, 11.4444), (1.9685, 15.8461), (-1.9685, 15.8461), (1.9685, 29.5276), (-1.9685, 27.5591), (1.9685, 27.5591), (-1.9685, 27.5591), (1.9685, 29.5276), (-1.9685, 29.5276), (-1.9685, -13.7795), (1.9685, -1.9685), (-1.9685, -1.9685), (1.9685, -1.9685), (-1.9685, -13.7795), (1.9685, -13.7795), (1.9685, 27.5591), (-13.7795, 31.4961), (-13.7795, 27.5591), (-13.7795, 31.4961), (1.9685, 27.5591), (-1.9685, 31.4961), (-1.9685, 31.4961), (1.9685, 27.5591), (1.9685, 29.5276), (41.3386, 19.685), (33.4646, 3.20691e-08), (41.3386, 3.20714e-08), (33.4646, 3.20691e-08), (41.3386, 19.685), (37.4016, 19.685), (33.4646, 3.20691e-08), (37.4016, 19.685), (33.4646, 18.3727), (-25.5906, 3.20714e-08), (-41.3386, 19.685), (-41.3386, 3.20714e-08), (-41.3386, 19.685), (-25.5906, 3.20714e-08), (-37.4016, 19.685), (-37.4016, 19.685), (-25.5906, 3.20714e-08), (-25.5906, 15.748), (-25.5906, 15.748), (-25.5906, 3.20714e-08), (-25.5906, 3.93701), (-25.5906, 15.748), (-25.5906, 3.93701), (-25.5906, 11.1549), (-19.685, 41.7072), (-7.87402, 37.5572), (-7.87402, 41.7072), (-7.87402, 37.5572), (-19.685, 41.7072), (-7.87402, 29.2573), (-7.87402, 29.2573), (-19.685, 41.7072), (-10.0394, 29.2573), (-10.0394, 29.2573), (-19.685, 41.7072), (-15.748, 29.2573), (-15.748, 29.2573), (-19.685, 41.7072), (-19.685, 29.2573), (19.685, -41.3386), (7.87402, -37.4016), (7.87402, -41.3386), (7.87402, -37.4016), (19.685, -41.3386), (19.685, -37.4016), (-25.5906, 15.748), (-33.4646, 23.6221), (-33.4646, 18.3727), (-33.4646, 23.6221), (-25.5906, 15.748), (-13.7795, 27.5591), (-13.7795, 27.5591), (-25.5906, 15.748), (-13.7795, 15.748), (-7.92308, 15.748), (-16.7265, 11.811), (-7.92308, 11.811), (-16.7265, 11.811), (-7.92308, 15.748), (-16.7265, 15.748), (-15.748, 11.811), (-19.685, 15.748), (-19.685, 11.1549), (-19.685, 15.748), (-15.748, 11.811), (-15.748, 15.748), (7.87402, 15.748), (-7.87402, 12.0069), (7.87402, 12.0069), (-7.87402, 12.0069), (7.87402, 15.748), (-7.87402, 15.748), (-41.3386, 15.748), (1.9685, 11.811), (1.9685, 15.748), (1.9685, 11.811), (-41.3386, 15.748), (-9.84252, 11.811), (-41.3386, 12.0069), (-9.84252, 11.811), (-41.3386, 15.748), (-9.84252, 11.811), (-41.3386, 12.0069), (-9.84252, 7.87401), (41.3386, 12.0069), (9.84252, 11.811), (9.84252, 7.87401), (41.3386, 15.748), (9.84252, 11.811), (41.3386, 12.0069), (41.3386, 15.748), (-1.9685, 11.811), (9.84252, 11.811), (-1.9685, 11.811), (41.3386, 15.748), (-1.9685, 15.748), (0.000191152, -13.7795), (7.87402, -25.5906), (7.87402, -13.7795), (-7.87402, -33.4646), (7.87402, -25.5906), (0.000191152, -13.7795), (7.87402, -33.4646), (7.87402, -25.5906), (-7.87402, -33.4646), (7.87402, -41.3386), (7.87402, -25.5906), (7.87402, -33.4646), (19.685, -41.3386), (7.87402, -25.5906), (7.87402, -41.3386), (7.87402, -25.5906), (19.685, -41.3386), (19.685, -25.5906), (-7.87402, -33.4646), (0.000191152, -13.7795), (-7.87402, -25.5906), (-7.87402, -25.5906), (0.000191152, -13.7795), (-7.87402, -13.7795), (-7.87402, -33.4646), (-7.87402, -25.5906), (-19.685, -25.5906), (-19.685, -41.3386), (-7.87402, -33.4646), (-19.685, -25.5906), (-7.87402, -33.4646), (-19.685, -41.3386), (-7.87402, -41.3386), (-13.7795, -2.27374e-13), (-25.5906, 3.93701), (-25.5906, 3.20689e-08), (-25.5906, 3.93701), (-13.7795, -2.27374e-13), (-13.7795, 3.93701), (-7.87402, 3.93701), (-19.685, 3.20705e-08), (-7.87402, 3.20683e-08), (-19.685, 3.20705e-08), (-7.87402, 3.93701), (-19.685, 3.93701), (19.685, 3.20683e-08), (7.87402, 3.93701), (7.87402, 3.20683e-08), (7.87402, 3.93701), (19.685, 3.20683e-08), (19.685, 3.93701), (25.5906, 3.93701), (13.7795, 2.27374e-13), (25.5906, 3.20694e-08), (13.7795, 2.27374e-13), (25.5906, 3.93701), (13.7795, 3.93701)] (interpolation = "faceVarying")
        uniform token subdivisionScheme = "none"
        rel material:binding = </Vehicle/Materials/metalDark>
    }
    def Scope "Materials" {
        def Material "metal" {
            token outputs:surface.connect = </Vehicle/Materials/metal/surface.outputs:surface>
            def Shader "surface" {
                uniform token info:id = "UsdPreviewSurface"
                float inputs:roughness = 0.7
                float inputs:metallic = 0
                color3f inputs:diffuseColor = (0.843137, 0.870588, 0.909804)
                token outputs:surface
            }
        }
        def Material "metalRed" {
            token outputs:surface.connect = </Vehicle/Materials/metalRed/surface.outputs:surface>
            def Shader "surface" {
                uniform token info:id = "UsdPreviewSurface"
                float inputs:roughness = 0.7
                float inputs:metallic = 0
                color3f inputs:diffuseColor = (1, 0.628524, 0.20283)
                token outputs:surface
            }
        }
        def Material "dark" {
            token outputs:surface.connect = </Vehicle/Materials/dark/surface.outputs:surface>
            def Shader "surface" {
                uniform token info:id = "UsdPreviewSurface"
                float inputs:roughness = 0.7
                float inputs:metallic = 0
                color3f inputs:diffuseColor = (0.27451, 0.298039, 0.341176)
                token outputs:surface
            }
        }
        def Material "metalDark" {
            token outputs:surface.connect = </Vehicle/Materials/metalDark/surface.outputs:surface>
            def Shader "surface" {
                uniform token info:id = "UsdPreviewSurface"
                float inputs:roughness = 0.7
                float inputs:metallic = 0
                color3f inputs:diffuseColor = (0.675062, 0.710022, 0.773585)
                token outputs:surface
            }
        }
    }
}
