#usda 1.0
(
    defaultPrim = "Vehicle"
    metersPerUnit = 1
    upAxis = "Y"
)
def Xform "Vehicle" {
    def Mesh "mesh_colormap" {
        int[] faceVertexCounts = [3, 3, 3, 3, 3, 3, 3, 3, 3, 3, 3, 3, 3, 3, 3, 3, 3, 3, 3, 3, 3, 3, 3, 3, 3, 3, 3, 3, 3, 3, 3, 3, 3, 3, 3, 3, 3, 3, 3, 3, 3, 3, 3, 3, 3, 3, 3, 3, 3, 3, 3, 3, 3, 3, 3, 3, 3, 3, 3, 3, 3, 3, 3, 3, 3, 3, 3, 3, 3, 3, 3, 3, 3, 3, 3, 3, 3, 3, 3, 3, 3, 3, 3, 3, 3, 3, 3, 3, 3, 3, 3, 3, 3, 3, 3, 3, 3, 3, 3, 3, 3, 3, 3, 3, 3, 3, 3, 3, 3, 3, 3, 3, 3, 3, 3, 3, 3, 3, 3, 3, 3, 3, 3, 3, 3, 3, 3, 3, 3, 3, 3, 3, 3, 3, 3, 3, 3, 3, 3, 3, 3, 3, 3, 3, 3, 3, 3, 3, 3, 3, 3, 3, 3, 3, 3, 3, 3, 3, 3, 3, 3, 3, 3, 3, 3, 3, 3, 3, 3, 3, 3, 3, 3, 3, 3, 3, 3, 3, 3, 3, 3, 3, 3, 3, 3, 3, 3, 3, 3, 3, 3, 3, 3, 3, 3, 3, 3, 3, 3, 3, 3, 3, 3, 3, 3, 3, 3, 3, 3, 3, 3, 3, 3, 3, 3, 3, 3, 3, 3, 3, 3, 3, 3, 3, 3, 3, 3, 3, 3, 3, 3, 3, 3, 3, 3, 3, 3, 3, 3, 3, 3, 3, 3, 3, 3, 3, 3, 3, 3, 3, 3, 3, 3, 3, 3, 3, 3, 3, 3, 3, 3, 3, 3, 3, 3, 3, 3, 3, 3, 3, 3, 3, 3, 3, 3, 3, 3, 3, 3, 3, 3, 3, 3, 3, 3, 3, 3, 3, 3, 3, 3, 3, 3, 3, 3, 3]
        int[] faceVertexIndices = [2, 1, 0, 1, 2, 3, 6, 5, 4, 5, 6, 7, 8, 6, 4, 6, 8, 9, 11, 5, 10, 5, 11, 4, 12, 4, 11, 4, 12, 8, 3, 14, 13, 14, 3, 2, 1, 16, 15, 16, 1, 3, 17, 11, 10, 11, 17, 18, 19, 11, 18, 11, 19, 12, 6, 15, 7, 15, 6, 1, 20, 3, 13, 3, 20, 16, 20, 18, 17, 18, 20, 13, 0, 6, 9, 6, 0, 1, 13, 19, 18, 19, 13, 14, 14, 12, 19, 12, 14, 2, 12, 2, 8, 8, 2, 9, 9, 2, 0, 21, 10, 5, 10, 21, 22, 22, 24, 23, 24, 22, 25, 28, 27, 26, 27, 28, 29, 16, 29, 15, 29, 16, 30, 21, 25, 22, 25, 21, 31, 15, 28, 7, 28, 15, 29, 24, 32, 23, 33, 23, 32, 23, 33, 34, 34, 16, 20, 16, 34, 30, 30, 34, 33, 30, 33, 35, 28, 5, 7, 5, 28, 21, 22, 17, 10, 17, 22, 23, 21, 26, 31, 26, 21, 28, 23, 20, 17, 20, 23, 34, 27, 35, 36, 35, 27, 29, 35, 29, 30, 36, 33, 32, 33, 36, 35, 37, 32, 24, 32, 37, 38, 37, 39, 38, 39, 37, 40, 36, 40, 27, 40, 36, 39, 38, 36, 32, 36, 38, 39, 43, 42, 41, 42, 43, 44, 43, 45, 44, 45, 43, 46, 46, 43, 47, 46, 47, 48, 48, 47, 49, 50, 48, 49, 48, 50, 51, 49, 47, 52, 52, 47, 53, 52, 53, 54, 56, 46, 55, 46, 56, 45, 48, 55, 46, 55, 48, 57, 59, 53, 58, 53, 59, 54, 48, 60, 57, 60, 48, 51, 62, 49, 61, 49, 62, 50, 61, 60, 62, 60, 61, 57, 57, 61, 63, 57, 63, 55, 55, 63, 41, 42, 55, 41, 55, 42, 56, 41, 63, 64, 64, 63, 59, 64, 59, 58, 47, 41, 64, 41, 47, 43, 58, 47, 64, 47, 58, 53, 63, 54, 59, 54, 63, 52, 49, 63, 61, 63, 49, 52, 67, 66, 65, 66, 67, 68, 66, 70, 69, 70, 66, 68, 69, 72, 71, 72, 69, 70, 68, 72, 70, 72, 68, 67, 65, 69, 71, 69, 65, 66, 75, 74, 73, 74, 75, 76, 74, 78, 77, 78, 74, 76, 77, 80, 79, 80, 77, 78, 76, 80, 78, 80, 76, 75, 73, 77, 79, 77, 73, 74, 50, 60, 51, 60, 50, 62, 45, 42, 44, 42, 45, 56, 82, 81, 25, 81, 82, 83, 81, 84, 25, 84, 81, 37, 82, 85, 83, 85, 82, 26, 86, 85, 26, 85, 86, 40, 81, 40, 37, 40, 81, 83, 40, 83, 85, 2, 1, 0, 1, 2, 3, 6, 5, 4, 5, 6, 7, 8, 6, 4, 6, 8, 9, 11, 5, 10, 5, 11, 4, 12, 4, 11, 4, 12, 8, 3, 14, 13, 14, 3, 2, 1, 16, 15, 16, 1, 3, 17, 11, 10, 11, 17, 18, 19, 11, 18, 11, 19, 12, 6, 15, 7, 15, 6, 1, 20, 3, 13, 3, 20, 16, 20, 18, 17, 18, 20, 13, 0, 6, 9, 6, 0, 1, 13, 19, 18, 19, 13, 14, 14, 12, 19, 12, 14, 2, 12, 2, 8, 8, 2, 9, 9, 2, 0, 21, 10, 5, 10, 21, 22, 22, 24, 23, 24, 22, 25, 28, 27, 26, 27, 28, 29, 16, 29, 15, 29, 16, 30, 21, 25, 22, 25, 21, 31, 15, 28, 7, 28, 15, 29, 24, 32, 23, 33, 23, 32, 23, 33, 34, 34, 16, 20, 16, 34, 30, 30, 34, 33, 30, 33, 35, 28, 5, 7, 5, 28, 21, 22, 17, 10, 17, 22, 23, 21, 26, 31, 26, 21, 28, 23, 20, 17, 20, 23, 34, 27, 35, 36, 35, 27, 29, 35, 29, 30, 36, 33, 32, 33, 36, 35, 37, 32, 24, 32, 37, 38, 37, 39, 38, 39, 37, 40, 36, 40, 27, 40, 36, 39, 38, 36, 32, 36, 38, 39, 43, 42, 41, 42, 43, 44, 43, 45, 44, 45, 43, 46, 46, 43, 47, 46, 47, 48, 48, 47, 49, 50, 48, 49, 48, 50, 51, 49, 47, 52, 52, 47, 53, 52, 53, 54, 56, 46, 55, 46, 56, 45, 48, 55, 46, 55, 48, 57, 59, 53, 58, 53, 59, 54, 48, 60, 57, 60, 48, 51, 62, 49, 61, 49, 62, 50, 61, 60, 62, 60, 61, 57, 57, 61, 63, 57, 63, 55, 55, 63, 41, 42, 55, 41, 55, 42, 56, 41, 63, 64, 64, 63, 59, 64, 59, 58, 47, 41, 64, 41, 47, 43, 58, 47, 64, 47, 58, 53, 63, 54, 59, 54, 63, 52, 49, 63, 61, 63, 49, 52, 67, 66, 65, 66, 67, 68, 66, 70, 69, 70, 66, 68, 69, 72, 71, 72, 69, 70, 68, 72, 70, 72, 68, 67, 65, 69, 71, 69, 65, 66, 75, 74, 73, 74, 75, 76, 74, 78, 77, 78, 74, 76, 77, 80, 79, 80, 77, 78, 76, 80, 78, 80, 76, 75, 73, 77, 79, 77, 73, 74, 50, 60, 51, 60, 50, 62, 45, 42, 44, 42, 45, 56, 82, 81, 25, 81, 82, 83, 81, 84, 25, 84, 81, 37, 82, 85, 83, 85, 82, 26, 86, 85, 26, 85, 86, 40, 81, 40, 37, 40, 81, 83, 40, 83, 85]
        point3f[] points = [(0.40698, 0, -0.121454), (0.6783, 0.2, 0.346906), (0.40698, 0, -1.22439), (0.6783, 0.2, -1.42439), (3.97747e-13, 0.2, 1.11641), (5.90587e-13, 0.6, 1.64561), (0.296815, 0.2, 0.95212), (0.390547, 0.6, 1.42944), (1.21948e-13, 0, 0.340246), (0.178089, 0, 0.241674), (-0.390547, 0.6, 1.42944), (-0.296815, 0.2, 0.95212), (-0.178089, 0, 0.241674), (-0.6783, 0.2, -1.42439), (-0.40698, 0, -1.22439), (0.8925, 0.6, 0.633106), (0.8925, 0.6, -1.52439), (-0.8925, 0.6, 0.633106), (-0.6783, 0.2, 0.346906), (-0.40698, 0, -0.121454), (-0.8925, 0.6, -1.52439), (5.53089e-13, 0.8, 1.53536), (-0.371019, 0.8, 1.33), (-0.847875, 0.8, 0.573481), (-0.551119, 0.9, 0.357181), (-0.241163, 0.9, 0.848917), (0.241163, 0.9, 0.848917), (0.551119, 0.9, 0.357181), (0.371019, 0.8, 1.33), (0.847875, 0.8, 0.573481), (0.847875, 0.8, -1.52439), (3.54429e-13, 0.9, 0.9824), (-0.551119, 0.9, -0.872401), (-0.551119, 0.9, -1.52439), (-0.847875, 0.8, -1.52439), (0.551119, 0.9, -1.52439), (0.551119, 0.9, -0.872401), (-0.413339, 1.1995, 0.137637), (-0.413339, 1.1995, -0.622401), (0.413339, 1.1995, -0.622401), (0.413339, 1.1995, 0.137637), (0.551119, 1.31961, -1.54561), (0.551119, 0.8, -1.24561), (0.551119, 1.41962, -1.3724), (0.551119, 0.9, -1.0724), (0.351119, 0.9, -1.0724), (0.351119, 1.41962, -1.3724), (0.501119, 1.54952, -1.4474), (-0.351119, 1.41962, -1.3724), (-0.551119, 1.41962, -1.3724), (-0.551119, 0.9, -1.0724), (-0.351119, 0.9, -1.0724), (-0.501119, 1.54952, -1.4474), (0.351119, 1.59282, -1.4724), (-0.351119, 1.59282, -1.4724), (0.351119, 1.31961, -1.54561), (0.351119, 0.8, -1.24561), (-0.351119, 1.31961, -1.54561), (0.351119, 1.49282, -1.64561), (-0.351119, 1.49282, -1.64561), (-0.351119, 0.8, -1.24561), (-0.551119, 1.31961, -1.54561), (-0.551119, 0.8, -1.24561), (-0.501119, 1.44952, -1.62061), (0.501119, 1.44952, -1.62061), (0.1, 1.1995, -0.492382), (0.1, 1.2995, -0.392382), (0.1, 1.1995, 0.00761777), (0.1, 1.2995, -0.0923822), (0.3, 1.2995, -0.392382), (0.3, 1.2995, -0.0923822), (0.3, 1.1995, -0.492382), (0.3, 1.1995, 0.00761777), (-0.3, 1.1995, -0.492382), (-0.3, 1.2995, -0.392382), (-0.3, 1.1995, 0.00761777), (-0.3, 1.2995, -0.0923822), (-0.1, 1.2995, -0.392382), (-0.1, 1.2995, -0.0923822), (-0.1, 1.1995, -0.492382), (-0.1, 1.1995, 0.00761777), (-0.180872, 1.1995, 0.506439), (3.54429e-13, 0.9, 0.9824), (2.17356e-13, 1.1995, 0.606551), (-0.551119, 0.9, 0.357181), (0.180872, 1.1995, 0.506439), (0.551119, 0.9, 0.357181)]
        normal3f[] normals = [(0.593353, -0.804942, -2.12979e-13), (0.39343, -0.905541, 0.158773), (0.518084, -0.852925, 0.0640928), (0.39343, -0.905541, 0.158773), (0.593353, -0.804942, -2.12979e-13), (0.593353, -0.804942, -2.12979e-13), (0.532339, -0.697377, 0.479875), (2.16437e-13, -0.797751, 0.602987), (2.16437e-13, -0.797751, 0.602987), (2.16437e-13, -0.797751, 0.602987), (0.532339, -0.697377, 0.479875), (0.4407, -0.728734, 0.524147), (8.9566e-14, -0.968368, 0.249528), (0.192022, -0.952574, 0.236073), (8.9566e-14, -0.968368, 0.249528), (0.192022, -0.952574, 0.236073), (8.9566e-14, -0.968368, 0.249528), (0.261964, -0.939502, 0.220704), (-0.532339, -0.697377, 0.479875), (2.16437e-13, -0.797751, 0.602987), (-0.4407, -0.728734, 0.524147), (2.16437e-13, -0.797751, 0.602987), (-0.532339, -0.697377, 0.479875), (2.16437e-13, -0.797751, 0.602987), (-0.261964, -0.939502, 0.220704), (8.9566e-14, -0.968368, 0.249528), (-0.192022, -0.952574, 0.236073), (8.9566e-14, -0.968368, 0.249528), (-0.261964, -0.939502, 0.220704), (8.9566e-14, -0.968368, 0.249528), (-2.5381e-13, -0.707107, -0.707107), (-2.5381e-13, -0.707107, -0.707107), (-2.5381e-13, -0.707107, -0.707107), (-2.5381e-13, -0.707107, -0.707107), (-2.5381e-13, -0.707107, -0.707107), (-2.5381e-13, -0.707107, -0.707107), (0.81696, -0.55345, 0.162079), (0.881559, -0.472075, -3.16428e-13), (0.754441, -0.597847, 0.270921), (0.881559, -0.472075, -3.16428e-13), (0.81696, -0.55345, 0.162079), (0.881559, -0.472075, -3.16428e-13), (-0.754441, -0.597847, 0.270921), (-0.532339, -0.697377, 0.479875), (-0.4407, -0.728734, 0.524147), (-0.532339, -0.697377, 0.479875), (-0.754441, -0.597847, 0.270921), (-0.81696, -0.55345, 0.162079), (-0.518084, -0.852925, 0.0640928), (-0.192022, -0.952574, 0.236073), (-0.39343, -0.905541, 0.158773), (-0.192022, -0.952574, 0.236073), (-0.518084, -0.852925, 0.0640928), (-0.261964, -0.939502, 0.220704), (0.532339, -0.697377, 0.479875), (0.754441, -0.597847, 0.270921), (0.4407, -0.728734, 0.524147), (0.754441, -0.597847, 0.270921), (0.532339, -0.697377, 0.479875), (0.81696, -0.55345, 0.162079), (-3.48225e-13, -0.242536, -0.970143), (-3.48225e-13, -0.242536, -0.970143), (-3.48225e-13, -0.242536, -0.970143), (-3.48225e-13, -0.242536, -0.970143), (-3.48225e-13, -0.242536, -0.970143), (-3.48225e-13, -0.242536, -0.970143), (-0.881559, -0.472075, 3.16428e-13), (-0.81696, -0.55345, 0.162079), (-0.754441, -0.597847, 0.270921), (-0.81696, -0.55345, 0.162079), (-0.881559, -0.472075, 3.16428e-13), (-0.881559, -0.472075, 3.16428e-13), (0.518084, -0.852925, 0.0640928), (0.192022, -0.952574, 0.236073), (0.261964, -0.939502, 0.220704), (0.192022, -0.952574, 0.236073), (0.518084, -0.852925, 0.0640928), (0.39343, -0.905541, 0.158773), (-0.593353, -0.804942, 2.12979e-13), (-0.518084, -0.852925, 0.0640928), (-0.39343, -0.905541, 0.158773), (-0.518084, -0.852925, 0.0640928), (-0.593353, -0.804942, 2.12979e-13), (-0.593353, -0.804942, 2.12979e-13), (0, -1, 0), (0, -1, 0), (0, -1, 0), (0, -1, 0), (0, -1, 0), (0, -1, 0), (0, -1, 0), (0, -1, 0), (0, -1, 0), (0, -1, 0), (0, -1, 0), (0, -1, 0), (0, -1, 0), (0, -1, 0), (0, -1, 0), (3.14345e-13, 0.482759, 0.875753), (-0.605134, 0.401033, 0.687739), (3.14345e-13, 0.482759, 0.875753), (-0.605134, 0.401033, 0.687739), (3.14345e-13, 0.482759, 0.875753), (-0.661771, 0.384589, 0.643545), (-0.137975, 0.976471, 0.165731), (-0.280822, 0.958028, 0.0576383), (-0.259505, 0.961672, 0.0885686), (-0.280822, 0.958028, 0.0576383), (-0.137975, 0.976471, 0.165731), (-0.177293, 0.972005, 0.15419), (0.137975, 0.976471, 0.165731), (0.280822, 0.958028, 0.0576383), (0.177293, 0.972005, 0.15419), (0.280822, 0.958028, 0.0576383), (0.137975, 0.976471, 0.165731), (0.259505, 0.961672, 0.0885686), (0.976, 0.21777, -3.50328e-13), (0.93326, 0.276567, 0.229209), (0.909183, 0.291506, 0.297339), (0.93326, 0.276567, 0.229209), (0.976, 0.21777, -3.50328e-13), (0.976, 0.21777, -3.50328e-13), (6.38771e-14, 0.984038, 0.177959), (-0.177293, 0.972005, 0.15419), (-0.137975, 0.976471, 0.165731), (-0.177293, 0.972005, 0.15419), (6.38771e-14, 0.984038, 0.177959), (6.38771e-14, 0.984038, 0.177959), (0.909183, 0.291506, 0.297339), (0.661771, 0.384589, 0.643545), (0.605134, 0.401033, 0.687739), (0.661771, 0.384589, 0.643545), (0.909183, 0.291506, 0.297339), (0.93326, 0.276567, 0.229209), (-0.280822, 0.958028, 0.0576383), (-0.319334, 0.947642, 1.14622e-13), (-0.259505, 0.961672, 0.0885686), (-0.319334, 0.947642, 1.14622e-13), (-0.259505, 0.961672, 0.0885686), (-0.319334, 0.947642, 1.14622e-13), (-0.259505, 0.961672, 0.0885686), (-0.319334, 0.947642, 1.14622e-13), (-0.319334, 0.947642, 1.14622e-13), (-3.58942e-13, 0, -1), (-3.58942e-13, 0, -1), (-3.58942e-13, 0, -1), (-3.58942e-13, 0, -1), (-3.58942e-13, 0, -1), (-3.58942e-13, 0, -1), (-3.58942e-13, 0, -1), (-3.58942e-13, 0, -1), (-3.58942e-13, 0, -1), (-3.58942e-13, 0, -1), (-3.58942e-13, 0, -1), (-3.58942e-13, 0, -1), (0.661771, 0.384589, 0.643545), (3.14345e-13, 0.482759, 0.875753), (0.605134, 0.401033, 0.687739), (3.14345e-13, 0.482759, 0.875753), (0.661771, 0.384589, 0.643545), (3.14345e-13, 0.482759, 0.875753), (-0.661771, 0.384589, 0.643545), (-0.909183, 0.291506, 0.297339), (-0.605134, 0.401033, 0.687739), (-0.909183, 0.291506, 0.297339), (-0.661771, 0.384589, 0.643545), (-0.93326, 0.276567, 0.229209), (6.38771e-14, 0.984038, 0.177959), (0.177293, 0.972005, 0.15419), (6.38771e-14, 0.984038, 0.177959), (0.177293, 0.972005, 0.15419), (6.38771e-14, 0.984038, 0.177959), (0.137975, 0.976471, 0.165731), (-0.93326, 0.276567, 0.229209), (-0.976, 0.21777, 3.50328e-13), (-0.909183, 0.291506, 0.297339), (-0.976, 0.21777, 3.50328e-13), (-0.93326, 0.276567, 0.229209), (-0.976, 0.21777, 3.50328e-13), (0.280822, 0.958028, 0.0576383), (0.319334, 0.947642, -1.14622e-13), (0.319334, 0.947642, -1.14622e-13), (0.319334, 0.947642, -1.14622e-13), (0.280822, 0.958028, 0.0576383), (0.259505, 0.961672, 0.0885686), (0.319334, 0.947642, -1.14622e-13), (0.259505, 0.961672, 0.0885686), (0.319334, 0.947642, -1.14622e-13), (0, 1, 0), (0, 1, 0), (0, 1, 0), (0, 1, 0), (0, 1, 0), (0, 1, 0), (-0.908481, 0.417927, 3.26092e-13), (-0.908481, 0.417927, 3.26092e-13), (-0.908481, 0.417927, 3.26092e-13), (-0.908481, 0.417927, 3.26092e-13), (-0.908481, 0.417927, 3.26092e-13), (-0.908481, 0.417927, 3.26092e-13), (0, 1, 0), (0, 1, 0), (0, 1, 0), (0, 1, 0), (0, 1, 0), (0, 1, 0), (0.908481, 0.417927, -3.26092e-13), (0.908481, 0.417927, -3.26092e-13), (0.908481, 0.417927, -3.26092e-13), (0.908481, 0.417927, -3.26092e-13), (0.908481, 0.417927, -3.26092e-13), (0.908481, 0.417927, -3.26092e-13), (-2.75559e-13, 0.640811, -0.767698), (-2.75559e-13, 0.640811, -0.767698), (-2.75559e-13, 0.640811, -0.767698), (-2.75559e-13, 0.640811, -0.767698), (-2.75559e-13, 0.640811, -0.767698), (-2.75559e-13, 0.640811, -0.767698), (0.987088, 0.138722, -0.0800911), (1, 6.77626e-21, -5.42101e-20), (0.987088, 0.138722, -0.0800911), (1, 6.77626e-21, -5.42101e-20), (0.987088, 0.138722, -0.0800911), (1, 6.77626e-21, -5.42101e-20), (5.42101e-20, 0.5, 0.866026), (5.42101e-20, 0.5, 0.866026), (5.42101e-20, 0.5, 0.866026), (5.42101e-20, 0.5, 0.866026), (5.42101e-20, 0.5, 0.866026), (5.42101e-20, 0.5, 0.866026), (5.42101e-20, 0.5, 0.866026), (5.42101e-20, 0.5, 0.866026), (5.42101e-20, 0.5, 0.866026), (5.42101e-20, 0.5, 0.866026), (5.42101e-20, 0.5, 0.866026), (5.42101e-20, 0.5, 0.866026), (5.42101e-20, 0.5, 0.866026), (5.42101e-20, 0.5, 0.866026), (5.42101e-20, 0.5, 0.866026), (5.42101e-20, 0.5, 0.866026), (5.42101e-20, 0.5, 0.866026), (5.42101e-20, 0.5, 0.866026), (5.42101e-20, 0.5, 0.866026), (5.42101e-20, 0.5, 0.866026), (5.42101e-20, 0.5, 0.866026), (5.42101e-20, 0.5, 0.866026), (5.42101e-20, 0.5, 0.866026), (5.42101e-20, 0.5, 0.866026), (5.42101e-20, 0.5, 0.866026), (5.42101e-20, 0.5, 0.866026), (5.42101e-20, 0.5, 0.866026), (5.42101e-20, 0.5, 0.866026), (5.42101e-20, 0.5, 0.866026), (5.42101e-20, 0.5, 0.866026), (-1, -6.77626e-21, 5.42101e-20), (-1, -6.77626e-21, 5.42101e-20), (-1, -6.77626e-21, 5.42101e-20), (-1, -6.77626e-21, 5.42101e-20), (-1, -6.77626e-21, 5.42101e-20), (-1, -6.77626e-21, 5.42101e-20), (0, -0.866025, 0.5), (0, -0.866025, 0.5), (0, -0.866025, 0.5), (0, -0.866025, 0.5), (0, -0.866025, 0.5), (0, -0.866025, 0.5), (-0.160182, 0.854843, -0.493544), (0.160182, 0.854843, -0.493544), (0.160182, 0.854843, -0.493544), (0.160182, 0.854843, -0.493544), (-0.160182, 0.854843, -0.493544), (-0.160182, 0.854843, -0.493544), (1, 6.77626e-21, -5.42101e-20), (1, 6.77626e-21, -5.42101e-20), (1, 6.77626e-21, -5.42101e-20), (1, 6.77626e-21, -5.42101e-20), (1, 6.77626e-21, -5.42101e-20), (1, 6.77626e-21, -5.42101e-20), (-1, -6.77626e-21, 5.42101e-20), (-0.987088, 0.138722, -0.0800911), (-0.987088, 0.138722, -0.0800911), (-0.987088, 0.138722, -0.0800911), (-1, -6.77626e-21, 5.42101e-20), (-1, -6.77626e-21, 5.42101e-20), (-5.42101e-20, -0.5, -0.866026), (-5.42101e-20, -0.5, -0.866026), (-5.42101e-20, -0.5, -0.866026), (-5.42101e-20, -0.5, -0.866026), (-5.42101e-20, -0.5, -0.866026), (-5.42101e-20, -0.5, -0.866026), (-5.42101e-20, -0.5, -0.866026), (-5.42101e-20, -0.5, -0.866026), (-5.42101e-20, -0.5, -0.866026), (-5.42101e-20, -0.5, -0.866026), (-5.42101e-20, -0.5, -0.866026), (-5.42101e-20, -0.5, -0.866026), (-5.42101e-20, -0.5, -0.866026), (-5.42101e-20, -0.5, -0.866026), (-5.42101e-20, -0.5, -0.866026), (-5.42101e-20, -0.5, -0.866026), (-5.42101e-20, -0.5, -0.866026), (-5.42101e-20, -0.5, -0.866026), (-5.42101e-20, -0.5, -0.866026), (-5.42101e-20, -0.5, -0.866026), (-5.42101e-20, -0.5, -0.866026), (-5.42101e-20, -0.5, -0.866026), (-5.42101e-20, -0.5, -0.866026), (-5.42101e-20, -0.5, -0.866026), (-5.42101e-20, -0.5, -0.866026), (-5.42101e-20, -0.5, -0.866026), (-5.42101e-20, -0.5, -0.866026), (-5.42101e-20, -0.5, -0.866026), (-5.42101e-20, -0.5, -0.866026), (-5.42101e-20, -0.5, -0.866026), (0.707107, 0.612372, -0.353553), (0.987088, 0.138722, -0.0800911), (0.707107, 0.612372, -0.353553), (0.987088, 0.138722, -0.0800911), (0.707107, 0.612372, -0.353553), (0.987088, 0.138722, -0.0800911), (0.160182, 0.854843, -0.493544), (0.707107, 0.612372, -0.353553), (0.707107, 0.612372, -0.353553), (0.707107, 0.612372, -0.353553), (0.160182, 0.854843, -0.493544), (0.160182, 0.854843, -0.493544), (-0.707107, 0.612372, -0.353553), (-0.160182, 0.854843, -0.493544), (-0.160182, 0.854843, -0.493544), (-0.160182, 0.854843, -0.493544), (-0.707107, 0.612372, -0.353553), (-0.707107, 0.612372, -0.353553), (-0.987088, 0.138722, -0.0800911), (-0.707107, 0.612372, -0.353553), (-0.987088, 0.138722, -0.0800911), (-0.707107, 0.612372, -0.353553), (-0.987088, 0.138722, -0.0800911), (-0.707107, 0.612372, -0.353553), (-1, 0, 0), (-1, 0, 0), (-1, 0, 0), (-1, 0, 0), (-1, 0, 0), (-1, 0, 0), (0, 0.923879, -0.382683), (0, 0.923879, 0.382683), (0, 0.923879, -0.382683), (0, 0.923879, 0.382683), (0, 0.923879, -0.382683), (0, 0.923879, 0.382683), (1, 0, 0), (1, 0, 0), (1, 0, 0), (1, 0, 0), (1, 0, 0), (1, 0, 0), (0, 0.923879, 0.382683), (0, 0.707107, 0.707107), (0, 0.923879, 0.382683), (0, 0.707107, 0.707107), (0, 0.923879, 0.382683), (0, 0.707107, 0.707107), (0, 0.707107, -0.707107), (0, 0.923879, -0.382683), (0, 0.707107, -0.707107), (0, 0.923879, -0.382683), (0, 0.707107, -0.707107), (0, 0.923879, -0.382683), (-1, 0, 0), (-1, 0, 0), (-1, 0, 0), (-1, 0, 0), (-1, 0, 0), (-1, 0, 0), (0, 0.923879, -0.382683), (0, 0.923879, 0.382683), (0, 0.923879, -0.382683), (0, 0.923879, 0.382683), (0, 0.923879, -0.382683), (0, 0.923879, 0.382683), (1, 0, 0), (1, 0, 0), (1, 0, 0), (1, 0, 0), (1, 0, 0), (1, 0, 0), (0, 0.923879, 0.382683), (0, 0.707107, 0.707107), (0, 0.923879, 0.382683), (0, 0.707107, 0.707107), (0, 0.923879, 0.382683), (0, 0.707107, 0.707107), (0, 0.707107, -0.707107), (0, 0.923879, -0.382683), (0, 0.707107, -0.707107), (0, 0.923879, -0.382683), (0, 0.707107, -0.707107), (0, 0.923879, -0.382683), (0, -0.866025, 0.5), (0, -0.866025, 0.5), (0, -0.866025, 0.5), (0, -0.866025, 0.5), (0, -0.866025, 0.5), (0, -0.866025, 0.5), (0, -0.866025, 0.5), (0, -0.866025, 0.5), (0, -0.866025, 0.5), (0, -0.866025, 0.5), (0, -0.866025, 0.5), (0, -0.866025, 0.5), (2.23693e-13, 0.782062, 0.623201), (-0.548276, 0.674978, 0.493759), (-0.453343, 0.708982, 0.540208), (-0.548276, 0.674978, 0.493759), (2.23693e-13, 0.782062, 0.623201), (2.23693e-13, 0.782062, 0.623201), (-0.548276, 0.674978, 0.493759), (-0.66703, 0.615055, 0.42045), (-0.453343, 0.708982, 0.540208), (-0.66703, 0.615055, 0.42045), (-0.548276, 0.674978, 0.493759), (-0.66703, 0.615055, 0.42045), (2.23693e-13, 0.782062, 0.623201), (0.548276, 0.674978, 0.493759), (2.23693e-13, 0.782062, 0.623201), (0.548276, 0.674978, 0.493759), (2.23693e-13, 0.782062, 0.623201), (0.453343, 0.708982, 0.540208), (0.66703, 0.615055, 0.42045), (0.548276, 0.674978, 0.493759), (0.453343, 0.708982, 0.540208), (0.548276, 0.674978, 0.493759), (0.66703, 0.615055, 0.42045), (0.66703, 0.615055, 0.42045), (0, 1, 0), (0, 1, 0), (0, 1, 0), (0, 1, 0), (0, 1, 0), (0, 1, 0), (0, 1, 0), (0, 1, 0), (0, 1, 0), (0.593353, -0.804942, -2.12979e-13), (0.39343, -0.905541, 0.158773), (0.518084, -0.852925, 0.0640928), (0.39343, -0.905541, 0.158773), (0.593353, -0.804942, -2.12979e-13), (0.593353, -0.804942, -2.12979e-13), (0.532339, -0.697377, 0.479875), (2.16437e-13, -0.797751, 0.602987), (2.16437e-13, -0.797751, 0.602987), (2.16437e-13, -0.797751, 0.602987), (0.532339, -0.697377, 0.479875), (0.4407, -0.728734, 0.524147), (8.9566e-14, -0.968368, 0.249528), (0.192022, -0.952574, 0.236073), (8.9566e-14, -0.968368, 0.249528), (0.192022, -0.952574, 0.236073), (8.9566e-14, -0.968368, 0.249528), (0.261964, -0.939502, 0.220704), (-0.532339, -0.697377, 0.479875), (2.16437e-13, -0.797751, 0.602987), (-0.4407, -0.728734, 0.524147), (2.16437e-13, -0.797751, 0.602987), (-0.532339, -0.697377, 0.479875), (2.16437e-13, -0.797751, 0.602987), (-0.261964, -0.939502, 0.220704), (8.9566e-14, -0.968368, 0.249528), (-0.192022, -0.952574, 0.236073), (8.9566e-14, -0.968368, 0.249528), (-0.261964, -0.939502, 0.220704), (8.9566e-14, -0.968368, 0.249528), (-2.5381e-13, -0.707107, -0.707107), (-2.5381e-13, -0.707107, -0.707107), (-2.5381e-13, -0.707107, -0.707107), (-2.5381e-13, -0.707107, -0.707107), (-2.5381e-13, -0.707107, -0.707107), (-2.5381e-13, -0.707107, -0.707107), (0.81696, -0.55345, 0.162079), (0.881559, -0.472075, -3.16428e-13), (0.754441, -0.597847, 0.270921), (0.881559, -0.472075, -3.16428e-13), (0.81696, -0.55345, 0.162079), (0.881559, -0.472075, -3.16428e-13), (-0.754441, -0.597847, 0.270921), (-0.532339, -0.697377, 0.479875), (-0.4407, -0.728734, 0.524147), (-0.532339, -0.697377, 0.479875), (-0.754441, -0.597847, 0.270921), (-0.81696, -0.55345, 0.162079), (-0.518084, -0.852925, 0.0640928), (-0.192022, -0.952574, 0.236073), (-0.39343, -0.905541, 0.158773), (-0.192022, -0.952574, 0.236073), (-0.518084, -0.852925, 0.0640928), (-0.261964, -0.939502, 0.220704), (0.532339, -0.697377, 0.479875), (0.754441, -0.597847, 0.270921), (0.4407, -0.728734, 0.524147), (0.754441, -0.597847, 0.270921), (0.532339, -0.697377, 0.479875), (0.81696, -0.55345, 0.162079), (-3.48225e-13, -0.242536, -0.970143), (-3.48225e-13, -0.242536, -0.970143), (-3.48225e-13, -0.242536, -0.970143), (-3.48225e-13, -0.242536, -0.970143), (-3.48225e-13, -0.242536, -0.970143), (-3.48225e-13, -0.242536, -0.970143), (-0.881559, -0.472075, 3.16428e-13), (-0.81696, -0.55345, 0.162079), (-0.754441, -0.597847, 0.270921), (-0.81696, -0.55345, 0.162079), (-0.881559, -0.472075, 3.16428e-13), (-0.881559, -0.472075, 3.16428e-13), (0.518084, -0.852925, 0.0640928), (0.192022, -0.952574, 0.236073), (0.261964, -0.939502, 0.220704), (0.192022, -0.952574, 0.236073), (0.518084, -0.852925, 0.0640928), (0.39343, -0.905541, 0.158773), (-0.593353, -0.804942, 2.12979e-13), (-0.518084, -0.852925, 0.0640928), (-0.39343, -0.905541, 0.158773), (-0.518084, -0.852925, 0.0640928), (-0.593353, -0.804942, 2.12979e-13), (-0.593353, -0.804942, 2.12979e-13), (0, -1, 0), (0, -1, 0), (0, -1, 0), (0, -1, 0), (0, -1, 0), (0, -1, 0), (0, -1, 0), (0, -1, 0), (0, -1, 0), (0, -1, 0), (0, -1, 0), (0, -1, 0), (0, -1, 0), (0, -1, 0), (0, -1, 0), (3.14345e-13, 0.482759, 0.875753), (-0.605134, 0.401033, 0.687739), (3.14345e-13, 0.482759, 0.875753), (-0.605134, 0.401033, 0.687739), (3.14345e-13, 0.482759, 0.875753), (-0.661771, 0.384589, 0.643545), (-0.137975, 0.976471, 0.165731), (-0.280822, 0.958028, 0.0576383), (-0.259505, 0.961672, 0.0885686), (-0.280822, 0.958028, 0.0576383), (-0.137975, 0.976471, 0.165731), (-0.177293, 0.972005, 0.15419), (0.137975, 0.976471, 0.165731), (0.280822, 0.958028, 0.0576383), (0.177293, 0.972005, 0.15419), (0.280822, 0.958028, 0.0576383), (0.137975, 0.976471, 0.165731), (0.259505, 0.961672, 0.0885686), (0.976, 0.21777, -3.50328e-13), (0.93326, 0.276567, 0.229209), (0.909183, 0.291506, 0.297339), (0.93326, 0.276567, 0.229209), (0.976, 0.21777, -3.50328e-13), (0.976, 0.21777, -3.50328e-13), (6.38771e-14, 0.984038, 0.177959), (-0.177293, 0.972005, 0.15419), (-0.137975, 0.976471, 0.165731), (-0.177293, 0.972005, 0.15419), (6.38771e-14, 0.984038, 0.177959), (6.38771e-14, 0.984038, 0.177959), (0.909183, 0.291506, 0.297339), (0.661771, 0.384589, 0.643545), (0.605134, 0.401033, 0.687739), (0.661771, 0.384589, 0.643545), (0.909183, 0.291506, 0.297339), (0.93326, 0.276567, 0.229209), (-0.280822, 0.958028, 0.0576383), (-0.319334, 0.947642, 1.14622e-13), (-0.259505, 0.961672, 0.0885686), (-0.319334, 0.947642, 1.14622e-13), (-0.259505, 0.961672, 0.0885686), (-0.319334, 0.947642, 1.14622e-13), (-0.259505, 0.961672, 0.0885686), (-0.319334, 0.947642, 1.14622e-13), (-0.319334, 0.947642, 1.14622e-13), (-3.58942e-13, 0, -1), (-3.58942e-13, 0, -1), (-3.58942e-13, 0, -1), (-3.58942e-13, 0, -1), (-3.58942e-13, 0, -1), (-3.58942e-13, 0, -1), (-3.58942e-13, 0, -1), (-3.58942e-13, 0, -1), (-3.58942e-13, 0, -1), (-3.58942e-13, 0, -1), (-3.58942e-13, 0, -1), (-3.58942e-13, 0, -1), (0.661771, 0.384589, 0.643545), (3.14345e-13, 0.482759, 0.875753), (0.605134, 0.401033, 0.687739), (3.14345e-13, 0.482759, 0.875753), (0.661771, 0.384589, 0.643545), (3.14345e-13, 0.482759, 0.875753), (-0.661771, 0.384589, 0.643545), (-0.909183, 0.291506, 0.297339), (-0.605134, 0.401033, 0.687739), (-0.909183, 0.291506, 0.297339), (-0.661771, 0.384589, 0.643545), (-0.93326, 0.276567, 0.229209), (6.38771e-14, 0.984038, 0.177959), (0.177293, 0.972005, 0.15419), (6.38771e-14, 0.984038, 0.177959), (0.177293, 0.972005, 0.15419), (6.38771e-14, 0.984038, 0.177959), (0.137975, 0.976471, 0.165731), (-0.93326, 0.276567, 0.229209), (-0.976, 0.21777, 3.50328e-13), (-0.909183, 0.291506, 0.297339), (-0.976, 0.21777, 3.50328e-13), (-0.93326, 0.276567, 0.229209), (-0.976, 0.21777, 3.50328e-13), (0.280822, 0.958028, 0.0576383), (0.319334, 0.947642, -1.14622e-13), (0.319334, 0.947642, -1.14622e-13), (0.319334, 0.947642, -1.14622e-13), (0.280822, 0.958028, 0.0576383), (0.259505, 0.961672, 0.0885686), (0.319334, 0.947642, -1.14622e-13), (0.259505, 0.961672, 0.0885686), (0.319334, 0.947642, -1.14622e-13), (0, 1, 0), (0, 1, 0), (0, 1, 0), (0, 1, 0), (0, 1, 0), (0, 1, 0), (-0.908481, 0.417927, 3.26092e-13), (-0.908481, 0.417927, 3.26092e-13), (-0.908481, 0.417927, 3.26092e-13), (-0.908481, 0.417927, 3.26092e-13), (-0.908481, 0.417927, 3.26092e-13), (-0.908481, 0.417927, 3.26092e-13), (0, 1, 0), (0, 1, 0), (0, 1, 0), (0, 1, 0), (0, 1, 0), (0, 1, 0), (0.908481, 0.417927, -3.26092e-13), (0.908481, 0.417927, -3.26092e-13), (0.908481, 0.417927, -3.26092e-13), (0.908481, 0.417927, -3.26092e-13), (0.908481, 0.417927, -3.26092e-13), (0.908481, 0.417927, -3.26092e-13), (-2.75559e-13, 0.640811, -0.767698), (-2.75559e-13, 0.640811, -0.767698), (-2.75559e-13, 0.640811, -0.767698), (-2.75559e-13, 0.640811, -0.767698), (-2.75559e-13, 0.640811, -0.767698), (-2.75559e-13, 0.640811, -0.767698), (0.987088, 0.138722, -0.0800911), (1, 6.77626e-21, -5.42101e-20), (0.987088, 0.138722, -0.0800911), (1, 6.77626e-21, -5.42101e-20), (0.987088, 0.138722, -0.0800911), (1, 6.77626e-21, -5.42101e-20), (5.42101e-20, 0.5, 0.866026), (5.42101e-20, 0.5, 0.866026), (5.42101e-20, 0.5, 0.866026), (5.42101e-20, 0.5, 0.866026), (5.42101e-20, 0.5, 0.866026), (5.42101e-20, 0.5, 0.866026), (5.42101e-20, 0.5, 0.866026), (5.42101e-20, 0.5, 0.866026), (5.42101e-20, 0.5, 0.866026), (5.42101e-20, 0.5, 0.866026), (5.42101e-20, 0.5, 0.866026), (5.42101e-20, 0.5, 0.866026), (5.42101e-20, 0.5, 0.866026), (5.42101e-20, 0.5, 0.866026), (5.42101e-20, 0.5, 0.866026), (5.42101e-20, 0.5, 0.866026), (5.42101e-20, 0.5, 0.866026), (5.42101e-20, 0.5, 0.866026), (5.42101e-20, 0.5, 0.866026), (5.42101e-20, 0.5, 0.866026), (5.42101e-20, 0.5, 0.866026), (5.42101e-20, 0.5, 0.866026), (5.42101e-20, 0.5, 0.866026), (5.42101e-20, 0.5, 0.866026), (5.42101e-20, 0.5, 0.866026), (5.42101e-20, 0.5, 0.866026), (5.42101e-20, 0.5, 0.866026), (5.42101e-20, 0.5, 0.866026), (5.42101e-20, 0.5, 0.866026), (5.42101e-20, 0.5, 0.866026), (-1, -6.77626e-21, 5.42101e-20), (-1, -6.77626e-21, 5.42101e-20), (-1, -6.77626e-21, 5.42101e-20), (-1, -6.77626e-21, 5.42101e-20), (-1, -6.77626e-21, 5.42101e-20), (-1, -6.77626e-21, 5.42101e-20), (0, -0.866025, 0.5), (0, -0.866025, 0.5), (0, -0.866025, 0.5), (0, -0.866025, 0.5), (0, -0.866025, 0.5), (0, -0.866025, 0.5), (-0.160182, 0.854843, -0.493544), (0.160182, 0.854843, -0.493544), (0.160182, 0.854843, -0.493544), (0.160182, 0.854843, -0.493544), (-0.160182, 0.854843, -0.493544), (-0.160182, 0.854843, -0.493544), (1, 6.77626e-21, -5.42101e-20), (1, 6.77626e-21, -5.42101e-20), (1, 6.77626e-21, -5.42101e-20), (1, 6.77626e-21, -5.42101e-20), (1, 6.77626e-21, -5.42101e-20), (1, 6.77626e-21, -5.42101e-20), (-1, -6.77626e-21, 5.42101e-20), (-0.987088, 0.138722, -0.0800911), (-0.987088, 0.138722, -0.0800911), (-0.987088, 0.138722, -0.0800911), (-1, -6.77626e-21, 5.42101e-20), (-1, -6.77626e-21, 5.42101e-20), (-5.42101e-20, -0.5, -0.866026), (-5.42101e-20, -0.5, -0.866026), (-5.42101e-20, -0.5, -0.866026), (-5.42101e-20, -0.5, -0.866026), (-5.42101e-20, -0.5, -0.866026), (-5.42101e-20, -0.5, -0.866026), (-5.42101e-20, -0.5, -0.866026), (-5.42101e-20, -0.5, -0.866026), (-5.42101e-20, -0.5, -0.866026), (-5.42101e-20, -0.5, -0.866026), (-5.42101e-20, -0.5, -0.866026), (-5.42101e-20, -0.5, -0.866026), (-5.42101e-20, -0.5, -0.866026), (-5.42101e-20, -0.5, -0.866026), (-5.42101e-20, -0.5, -0.866026), (-5.42101e-20, -0.5, -0.866026), (-5.42101e-20, -0.5, -0.866026), (-5.42101e-20, -0.5, -0.866026), (-5.42101e-20, -0.5, -0.866026), (-5.42101e-20, -0.5, -0.866026), (-5.42101e-20, -0.5, -0.866026), (-5.42101e-20, -0.5, -0.866026), (-5.42101e-20, -0.5, -0.866026), (-5.42101e-20, -0.5, -0.866026), (-5.42101e-20, -0.5, -0.866026), (-5.42101e-20, -0.5, -0.866026), (-5.42101e-20, -0.5, -0.866026), (-5.42101e-20, -0.5, -0.866026), (-5.42101e-20, -0.5, -0.866026), (-5.42101e-20, -0.5, -0.866026), (0.707107, 0.612372, -0.353553), (0.987088, 0.138722, -0.0800911), (0.707107, 0.612372, -0.353553), (0.987088, 0.138722, -0.0800911), (0.707107, 0.612372, -0.353553), (0.987088, 0.138722, -0.0800911), (0.160182, 0.854843, -0.493544), (0.707107, 0.612372, -0.353553), (0.707107, 0.612372, -0.353553), (0.707107, 0.612372, -0.353553), (0.160182, 0.854843, -0.493544), (0.160182, 0.854843, -0.493544), (-0.707107, 0.612372, -0.353553), (-0.160182, 0.854843, -0.493544), (-0.160182, 0.854843, -0.493544), (-0.160182, 0.854843, -0.493544), (-0.707107, 0.612372, -0.353553), (-0.707107, 0.612372, -0.353553), (-0.987088, 0.138722, -0.0800911), (-0.707107, 0.612372, -0.353553), (-0.987088, 0.138722, -0.0800911), (-0.707107, 0.612372, -0.353553), (-0.987088, 0.138722, -0.0800911), (-0.707107, 0.612372, -0.353553), (-1, 0, 0), (-1, 0, 0), (-1, 0, 0), (-1, 0, 0), (-1, 0, 0), (-1, 0, 0), (0, 0.923879, -0.382683), (0, 0.923879, 0.382683), (0, 0.923879, -0.382683), (0, 0.923879, 0.382683), (0, 0.923879, -0.382683), (0, 0.923879, 0.382683), (1, 0, 0), (1, 0, 0), (1, 0, 0), (1, 0, 0), (1, 0, 0), (1, 0, 0), (0, 0.923879, 0.382683), (0, 0.707107, 0.707107), (0, 0.923879, 0.382683), (0, 0.707107, 0.707107), (0, 0.923879, 0.382683), (0, 0.707107, 0.707107), (0, 0.707107, -0.707107), (0, 0.923879, -0.382683), (0, 0.707107, -0.707107), (0, 0.923879, -0.382683), (0, 0.707107, -0.707107), (0, 0.923879, -0.382683), (-1, 0, 0), (-1, 0, 0), (-1, 0, 0), (-1, 0, 0), (-1, 0, 0), (-1, 0, 0), (0, 0.923879, -0.382683), (0, 0.923879, 0.382683), (0, 0.923879, -0.382683), (0, 0.923879, 0.382683), (0, 0.923879, -0.382683), (0, 0.923879, 0.382683), (1, 0, 0), (1, 0, 0), (1, 0, 0), (1, 0, 0), (1, 0, 0), (1, 0, 0), (0, 0.923879, 0.382683), (0, 0.707107, 0.707107), (0, 0.923879, 0.382683), (0, 0.707107, 0.707107), (0, 0.923879, 0.382683), (0, 0.707107, 0.707107), (0, 0.707107, -0.707107), (0, 0.923879, -0.382683), (0, 0.707107, -0.707107), (0, 0.923879, -0.382683), (0, 0.707107, -0.707107), (0, 0.923879, -0.382683), (0, -0.866025, 0.5), (0, -0.866025, 0.5), (0, -0.866025, 0.5), (0, -0.866025, 0.5), (0, -0.866025, 0.5), (0, -0.866025, 0.5), (0, -0.866025, 0.5), (0, -0.866025, 0.5), (0, -0.866025, 0.5), (0, -0.866025, 0.5), (0, -0.866025, 0.5), (0, -0.866025, 0.5), (2.23693e-13, 0.782062, 0.623201), (-0.548276, 0.674978, 0.493759), (-0.453343, 0.708982, 0.540208), (-0.548276, 0.674978, 0.493759), (2.23693e-13, 0.782062, 0.623201), (2.23693e-13, 0.782062, 0.623201), (-0.548276, 0.674978, 0.493759), (-0.66703, 0.615055, 0.42045), (-0.453343, 0.708982, 0.540208), (-0.66703, 0.615055, 0.42045), (-0.548276, 0.674978, 0.493759), (-0.66703, 0.615055, 0.42045), (2.23693e-13, 0.782062, 0.623201), (0.548276, 0.674978, 0.493759), (2.23693e-13, 0.782062, 0.623201), (0.548276, 0.674978, 0.493759), (2.23693e-13, 0.782062, 0.623201), (0.453343, 0.708982, 0.540208), (0.66703, 0.615055, 0.42045), (0.548276, 0.674978, 0.493759), (0.453343, 0.708982, 0.540208), (0.548276, 0.674978, 0.493759), (0.66703, 0.615055, 0.42045), (0.66703, 0.615055, 0.42045), (0, 1, 0), (0, 1, 0), (0, 1, 0), (0, 1, 0), (0, 1, 0), (0, 1, 0), (0, 1, 0), (0, 1, 0), (0, 1, 0)] (interpolation = "faceVarying")
        texCoord2f[] primvars:st = [(0.46875, 0.025), (0.46875, 0.0583472), (0.46875, 0.025), (0.46875, 0.0583472), (0.46875, 0.025), (0.46875, 0.0583472), (0.46875, 0.0583472), (0.46875, 0.125041), (0.46875, 0.0583472), (0.46875, 0.125041), (0.46875, 0.0583472), (0.46875, 0.125041), (0.46875, 0.025), (0.46875, 0.0583472), (0.46875, 0.0583472), (0.46875, 0.0583472), (0.46875, 0.025), (0.46875, 0.025), (0.46875, 0.0583472), (0.46875, 0.125041), (0.46875, 0.125041), (0.46875, 0.125041), (0.46875, 0.0583472), (0.46875, 0.0583472), (0.46875, 0.025), (0.46875, 0.0583472), (0.46875, 0.0583472), (0.46875, 0.0583472), (0.46875, 0.025), (0.46875, 0.025), (0.46875, 0.0583472), (0.46875, 0.025), (0.46875, 0.0583472), (0.46875, 0.025), (0.46875, 0.0583472), (0.46875, 0.025), (0.46875, 0.0583472), (0.46875, 0.125041), (0.46875, 0.125041), (0.46875, 0.125041), (0.46875, 0.0583472), (0.46875, 0.0583472), (0.46875, 0.125041), (0.46875, 0.0583472), (0.46875, 0.125041), (0.46875, 0.0583472), (0.46875, 0.125041), (0.46875, 0.0583472), (0.46875, 0.025), (0.46875, 0.0583472), (0.46875, 0.0583472), (0.46875, 0.0583472), (0.46875, 0.025), (0.46875, 0.025), (0.46875, 0.0583472), (0.46875, 0.125041), (0.46875, 0.125041), (0.46875, 0.125041), (0.46875, 0.0583472), (0.46875, 0.0583472), (0.46875, 0.125041), (0.46875, 0.0583472), (0.46875, 0.0583472), (0.46875, 0.0583472), (0.46875, 0.125041), (0.46875, 0.125041), (0.46875, 0.125041), (0.46875, 0.0583472), (0.46875, 0.125041), (0.46875, 0.0583472), (0.46875, 0.125041), (0.46875, 0.0583472), (0.46875, 0.025), (0.46875, 0.0583472), (0.46875, 0.025), (0.46875, 0.0583472), (0.46875, 0.025), (0.46875, 0.0583472), (0.46875, 0.0583472), (0.46875, 0.025), (0.46875, 0.0583472), (0.46875, 0.025), (0.46875, 0.0583472), (0.46875, 0.025), (0.46875, 0.025), (0.46875, 0.025), (0.46875, 0.025), (0.46875, 0.025), (0.46875, 0.025), (0.46875, 0.025), (0.46875, 0.025), (0.46875, 0.025), (0.46875, 0.025), (0.46875, 0.025), (0.46875, 0.025), (0.46875, 0.025), (0.46875, 0.025), (0.46875, 0.025), (0.46875, 0.025), (0.46875, 0.408389), (0.46875, 0.375042), (0.46875, 0.375042), (0.46875, 0.375042), (0.46875, 0.408389), (0.46875, 0.408389), (0.46875, 0.408389), (0.46875, 0.425062), (0.46875, 0.408389), (0.46875, 0.425062), (0.46875, 0.408389), (0.46875, 0.425062), (0.46875, 0.408389), (0.46875, 0.425062), (0.46875, 0.425062), (0.46875, 0.425062), (0.46875, 0.408389), (0.46875, 0.408389), (0.46875, 0.375042), (0.46875, 0.408389), (0.46875, 0.375042), (0.46875, 0.408389), (0.46875, 0.375042), (0.46875, 0.408389), (0.46875, 0.408389), (0.46875, 0.425062), (0.46875, 0.408389), (0.46875, 0.425062), (0.46875, 0.408389), (0.46875, 0.425062), (0.46875, 0.375042), (0.46875, 0.408389), (0.46875, 0.375042), (0.46875, 0.408389), (0.46875, 0.375042), (0.46875, 0.408389), (0.46875, 0.425062), (0.46875, 0.425062), (0.46875, 0.408389), (0.46875, 0.425062), (0.46875, 0.408389), (0.46875, 0.425062), (0.46875, 0.408389), (0.46875, 0.425062), (0.46875, 0.408389), (0.46875, 0.408389), (0.46875, 0.375042), (0.46875, 0.375042), (0.46875, 0.375042), (0.46875, 0.408389), (0.46875, 0.408389), (0.46875, 0.408389), (0.46875, 0.408389), (0.46875, 0.425062), (0.46875, 0.408389), (0.46875, 0.425062), (0.46875, 0.425062), (0.46875, 0.408389), (0.46875, 0.375042), (0.46875, 0.375042), (0.46875, 0.375042), (0.46875, 0.408389), (0.46875, 0.408389), (0.46875, 0.408389), (0.46875, 0.375042), (0.46875, 0.375042), (0.46875, 0.375042), (0.46875, 0.408389), (0.46875, 0.408389), (0.46875, 0.408389), (0.46875, 0.425062), (0.46875, 0.425062), (0.46875, 0.425062), (0.46875, 0.408389), (0.46875, 0.408389), (0.46875, 0.408389), (0.46875, 0.375042), (0.46875, 0.375042), (0.46875, 0.375042), (0.46875, 0.408389), (0.46875, 0.408389), (0.46875, 0.425062), (0.46875, 0.425062), (0.46875, 0.425062), (0.46875, 0.425062), (0.46875, 0.425062), (0.46875, 0.408389), (0.46875, 0.425062), (0.46875, 0.408389), (0.46875, 0.408389), (0.46875, 0.425062), (0.46875, 0.425062), (0.46875, 0.425062), (0.46875, 0.425062), (0.46875, 0.425062), (0.46875, 0.425062), (0.59375, 0.225), (0.59375, 0.175062), (0.59375, 0.175062), (0.59375, 0.175062), (0.59375, 0.225), (0.59375, 0.225), (0.59375, 0.225), (0.59375, 0.225), (0.59375, 0.225), (0.59375, 0.225), (0.59375, 0.225), (0.59375, 0.225), (0.59375, 0.175062), (0.59375, 0.225), (0.59375, 0.175062), (0.59375, 0.225), (0.59375, 0.175062), (0.59375, 0.225), (0.59375, 0.225), (0.59375, 0.175062), (0.59375, 0.175062), (0.59375, 0.175062), (0.59375, 0.225), (0.59375, 0.225), (0.71875, 0.125), (0.71875, 0.025), (0.71875, 0.125), (0.71875, 0.025), (0.71875, 0.125), (0.71875, 0.025), (0.71875, 0.125), (0.71875, 0.025), (0.71875, 0.025), (0.71875, 0.025), (0.71875, 0.125), (0.71875, 0.125), (0.71875, 0.125), (0.71875, 0.125), (0.71875, 0.2), (0.71875, 0.125), (0.71875, 0.2), (0.71875, 0.125), (0.71875, 0.125), (0.71875, 0.2), (0.71875, 0.125), (0.71875, 0.025), (0.71875, 0.125), (0.71875, 0.125), (0.71875, 0.125), (0.71875, 0.025), (0.71875, 0.025), (0.71875, 0.125), (0.71875, 0.2), (0.71875, 0.2), (0.71875, 0.2), (0.71875, 0.2), (0.71875, 0.225), (0.71875, 0.2), (0.71875, 0.225), (0.71875, 0.225), (0.71875, 0.025), (0.71875, 0.125), (0.71875, 0.125), (0.71875, 0.125), (0.71875, 0.025), (0.71875, 0.025), (0.71875, 0.125), (0.71875, 0.125), (0.71875, 0.125), (0.71875, 0.125), (0.71875, 0.125), (0.71875, 0.125), (0.71875, 0.225), (0.71875, 0.225), (0.71875, 0.225), (0.71875, 0.225), (0.71875, 0.225), (0.71875, 0.225), (0.71875, 0.125), (0.71875, 0.025), (0.71875, 0.125), (0.71875, 0.025), (0.71875, 0.125), (0.71875, 0.025), (0.71875, 0.025), (0.71875, 0.125), (0.71875, 0.125), (0.71875, 0.125), (0.71875, 0.025), (0.71875, 0.025), (0.71875, 0.125), (0.71875, 0.025), (0.71875, 0.025), (0.71875, 0.025), (0.71875, 0.125), (0.71875, 0.125), (0.71875, 0.125), (0.71875, 0.125), (0.71875, 0.2), (0.71875, 0.125), (0.71875, 0.2), (0.71875, 0.125), (0.71875, 0.125), (0.71875, 0.2), (0.71875, 0.125), (0.71875, 0.025), (0.71875, 0.125), (0.71875, 0.125), (0.71875, 0.125), (0.71875, 0.025), (0.71875, 0.025), (0.71875, 0.125), (0.71875, 0.2), (0.71875, 0.2), (0.71875, 0.2), (0.71875, 0.2), (0.71875, 0.225), (0.71875, 0.2), (0.71875, 0.225), (0.71875, 0.225), (0.71875, 0.2), (0.71875, 0.125), (0.71875, 0.2), (0.71875, 0.125), (0.71875, 0.2), (0.71875, 0.125), (0.71875, 0.225), (0.71875, 0.2), (0.71875, 0.2), (0.71875, 0.2), (0.71875, 0.225), (0.71875, 0.225), (0.71875, 0.2), (0.71875, 0.225), (0.71875, 0.225), (0.71875, 0.225), (0.71875, 0.2), (0.71875, 0.2), (0.71875, 0.125), (0.71875, 0.2), (0.71875, 0.125), (0.71875, 0.2), (0.71875, 0.125), (0.71875, 0.2), (0.71875, 0.025), (0.71875, 0.225), (0.71875, 0.025), (0.71875, 0.225), (0.71875, 0.025), (0.71875, 0.225), (0.71875, 0.225), (0.71875, 0.225), (0.71875, 0.225), (0.71875, 0.225), (0.71875, 0.225), (0.71875, 0.225), (0.71875, 0.225), (0.71875, 0.025), (0.71875, 0.025), (0.71875, 0.025), (0.71875, 0.225), (0.71875, 0.225), (0.71875, 0.225), (0.71875, 0.025), (0.71875, 0.225), (0.71875, 0.025), (0.71875, 0.225), (0.71875, 0.025), (0.71875, 0.025), (0.71875, 0.225), (0.71875, 0.025), (0.71875, 0.225), (0.71875, 0.025), (0.71875, 0.225), (0.71875, 0.025), (0.71875, 0.225), (0.71875, 0.025), (0.71875, 0.225), (0.71875, 0.025), (0.71875, 0.225), (0.71875, 0.225), (0.71875, 0.225), (0.71875, 0.225), (0.71875, 0.225), (0.71875, 0.225), (0.71875, 0.225), (0.71875, 0.225), (0.71875, 0.025), (0.71875, 0.025), (0.71875, 0.025), (0.71875, 0.225), (0.71875, 0.225), (0.71875, 0.225), (0.71875, 0.025), (0.71875, 0.225), (0.71875, 0.025), (0.71875, 0.225), (0.71875, 0.025), (0.71875, 0.025), (0.71875, 0.225), (0.71875, 0.025), (0.71875, 0.225), (0.71875, 0.025), (0.71875, 0.225), (0.71875, 0.025), (0.71875, 0.025), (0.71875, 0.025), (0.71875, 0.025), (0.71875, 0.025), (0.71875, 0.025), (0.71875, 0.025), (0.71875, 0.025), (0.71875, 0.025), (0.71875, 0.025), (0.71875, 0.025), (0.71875, 0.025), (0.09375, 0.025), (0.09375, 0.225), (0.09375, 0.025), (0.09375, 0.225), (0.09375, 0.025), (0.09375, 0.225), (0.09375, 0.225), (0.09375, 0.025), (0.09375, 0.025), (0.09375, 0.025), (0.09375, 0.225), (0.09375, 0.225), (0.09375, 0.025), (0.09375, 0.225), (0.09375, 0.225), (0.09375, 0.225), (0.09375, 0.025), (0.09375, 0.025), (0.09375, 0.025), (0.09375, 0.225), (0.09375, 0.025), (0.09375, 0.225), (0.09375, 0.025), (0.09375, 0.225), (0.09375, 0.225), (0.09375, 0.225), (0.09375, 0.225), (0.09375, 0.225), (0.09375, 0.225), (0.09375, 0.225), (0.09375, 0.225), (0.09375, 0.225), (0.09375, 0.225), (0.46875, 0.025), (0.46875, 0.0583472), (0.46875, 0.025), (0.46875, 0.0583472), (0.46875, 0.025), (0.46875, 0.0583472), (0.46875, 0.0583472), (0.46875, 0.125041), (0.46875, 0.0583472), (0.46875, 0.125041), (0.46875, 0.0583472), (0.46875, 0.125041), (0.46875, 0.025), (0.46875, 0.0583472), (0.46875, 0.0583472), (0.46875, 0.0583472), (0.46875, 0.025), (0.46875, 0.025), (0.46875, 0.0583472), (0.46875, 0.125041), (0.46875, 0.125041), (0.46875, 0.125041), (0.46875, 0.0583472), (0.46875, 0.0583472), (0.46875, 0.025), (0.46875, 0.0583472), (0.46875, 0.0583472), (0.46875, 0.0583472), (0.46875, 0.025), (0.46875, 0.025), (0.46875, 0.0583472), (0.46875, 0.025), (0.46875, 0.0583472), (0.46875, 0.025), (0.46875, 0.0583472), (0.46875, 0.025), (0.46875, 0.0583472), (0.46875, 0.125041), (0.46875, 0.125041), (0.46875, 0.125041), (0.46875, 0.0583472), (0.46875, 0.0583472), (0.46875, 0.125041), (0.46875, 0.0583472), (0.46875, 0.125041), (0.46875, 0.0583472), (0.46875, 0.125041), (0.46875, 0.0583472), (0.46875, 0.025), (0.46875, 0.0583472), (0.46875, 0.0583472), (0.46875, 0.0583472), (0.46875, 0.025), (0.46875, 0.025), (0.46875, 0.0583472), (0.46875, 0.125041), (0.46875, 0.125041), (0.46875, 0.125041), (0.46875, 0.0583472), (0.46875, 0.0583472), (0.46875, 0.125041), (0.46875, 0.0583472), (0.46875, 0.0583472), (0.46875, 0.0583472), (0.46875, 0.125041), (0.46875, 0.125041), (0.46875, 0.125041), (0.46875, 0.0583472), (0.46875, 0.125041), (0.46875, 0.0583472), (0.46875, 0.125041), (0.46875, 0.0583472), (0.46875, 0.025), (0.46875, 0.0583472), (0.46875, 0.025), (0.46875, 0.0583472), (0.46875, 0.025), (0.46875, 0.0583472), (0.46875, 0.0583472), (0.46875, 0.025), (0.46875, 0.0583472), (0.46875, 0.025), (0.46875, 0.0583472), (0.46875, 0.025), (0.46875, 0.025), (0.46875, 0.025), (0.46875, 0.025), (0.46875, 0.025), (0.46875, 0.025), (0.46875, 0.025), (0.46875, 0.025), (0.46875, 0.025), (0.46875, 0.025), (0.46875, 0.025), (0.46875, 0.025), (0.46875, 0.025), (0.46875, 0.025), (0.46875, 0.025), (0.46875, 0.025), (0.46875, 0.408389), (0.46875, 0.375042), (0.46875, 0.375042), (0.46875, 0.375042), (0.46875, 0.408389), (0.46875, 0.408389), (0.46875, 0.408389), (0.46875, 0.425062), (0.46875, 0.408389), (0.46875, 0.425062), (0.46875, 0.408389), (0.46875, 0.425062), (0.46875, 0.408389), (0.46875, 0.425062), (0.46875, 0.425062), (0.46875, 0.425062), (0.46875, 0.408389), (0.46875, 0.408389), (0.46875, 0.375042), (0.46875, 0.408389), (0.46875, 0.375042), (0.46875, 0.408389), (0.46875, 0.375042), (0.46875, 0.408389), (0.46875, 0.408389), (0.46875, 0.425062), (0.46875, 0.408389), (0.46875, 0.425062), (0.46875, 0.408389), (0.46875, 0.425062), (0.46875, 0.375042), (0.46875, 0.408389), (0.46875, 0.375042), (0.46875, 0.408389), (0.46875, 0.375042), (0.46875, 0.408389), (0.46875, 0.425062), (0.46875, 0.425062), (0.46875, 0.408389), (0.46875, 0.425062), (0.46875, 0.408389), (0.46875, 0.425062), (0.46875, 0.408389), (0.46875, 0.425062), (0.46875, 0.408389), (0.46875, 0.408389), (0.46875, 0.375042), (0.46875, 0.375042), (0.46875, 0.375042), (0.46875, 0.408389), (0.46875, 0.408389), (0.46875, 0.408389), (0.46875, 0.408389), (0.46875, 0.425062), (0.46875, 0.408389), (0.46875, 0.425062), (0.46875, 0.425062), (0.46875, 0.408389), (0.46875, 0.375042), (0.46875, 0.375042), (0.46875, 0.375042), (0.46875, 0.408389), (0.46875, 0.408389), (0.46875, 0.408389), (0.46875, 0.375042), (0.46875, 0.375042), (0.46875, 0.375042), (0.46875, 0.408389), (0.46875, 0.408389), (0.46875, 0.408389), (0.46875, 0.425062), (0.46875, 0.425062), (0.46875, 0.425062), (0.46875, 0.408389), (0.46875, 0.408389), (0.46875, 0.408389), (0.46875, 0.375042), (0.46875, 0.375042), (0.46875, 0.375042), (0.46875, 0.408389), (0.46875, 0.408389), (0.46875, 0.425062), (0.46875, 0.425062), (0.46875, 0.425062), (0.46875, 0.425062), (0.46875, 0.425062), (0.46875, 0.408389), (0.46875, 0.425062), (0.46875, 0.408389), (0.46875, 0.408389), (0.46875, 0.425062), (0.46875, 0.425062), (0.46875, 0.425062), (0.46875, 0.425062), (0.46875, 0.425062), (0.46875, 0.425062), (0.59375, 0.225), (0.59375, 0.175062), (0.59375, 0.175062), (0.59375, 0.175062), (0.59375, 0.225), (0.59375, 0.225), (0.59375, 0.225), (0.59375, 0.225), (0.59375, 0.225), (0.59375, 0.225), (0.59375, 0.225), (0.59375, 0.225), (0.59375, 0.175062), (0.59375, 0.225), (0.59375, 0.175062), (0.59375, 0.225), (0.59375, 0.175062), (0.59375, 0.225), (0.59375, 0.225), (0.59375, 0.175062), (0.59375, 0.175062), (0.59375, 0.175062), (0.59375, 0.225), (0.59375, 0.225), (0.71875, 0.125), (0.71875, 0.025), (0.71875, 0.125), (0.71875, 0.025), (0.71875, 0.125), (0.71875, 0.025), (0.71875, 0.125), (0.71875, 0.025), (0.71875, 0.025), (0.71875, 0.025), (0.71875, 0.125), (0.71875, 0.125), (0.71875, 0.125), (0.71875, 0.125), (0.71875, 0.2), (0.71875, 0.125), (0.71875, 0.2), (0.71875, 0.125), (0.71875, 0.125), (0.71875, 0.2), (0.71875, 0.125), (0.71875, 0.025), (0.71875, 0.125), (0.71875, 0.125), (0.71875, 0.125), (0.71875, 0.025), (0.71875, 0.025), (0.71875, 0.125), (0.71875, 0.2), (0.71875, 0.2), (0.71875, 0.2), (0.71875, 0.2), (0.71875, 0.225), (0.71875, 0.2), (0.71875, 0.225), (0.71875, 0.225), (0.71875, 0.025), (0.71875, 0.125), (0.71875, 0.125), (0.71875, 0.125), (0.71875, 0.025), (0.71875, 0.025), (0.71875, 0.125), (0.71875, 0.125), (0.71875, 0.125), (0.71875, 0.125), (0.71875, 0.125), (0.71875, 0.125), (0.71875, 0.225), (0.71875, 0.225), (0.71875, 0.225), (0.71875, 0.225), (0.71875, 0.225), (0.71875, 0.225), (0.71875, 0.125), (0.71875, 0.025), (0.71875, 0.125), (0.71875, 0.025), (0.71875, 0.125), (0.71875, 0.025), (0.71875, 0.025), (0.71875, 0.125), (0.71875, 0.125), (0.71875, 0.125), (0.71875, 0.025), (0.71875, 0.025), (0.71875, 0.125), (0.71875, 0.025), (0.71875, 0.025), (0.71875, 0.025), (0.71875, 0.125), (0.71875, 0.125), (0.71875, 0.125), (0.71875, 0.125), (0.71875, 0.2), (0.71875, 0.125), (0.71875, 0.2), (0.71875, 0.125), (0.71875, 0.125), (0.71875, 0.2), (0.71875, 0.125), (0.71875, 0.025), (0.71875, 0.125), (0.71875, 0.125), (0.71875, 0.125), (0.71875, 0.025), (0.71875, 0.025), (0.71875, 0.125), (0.71875, 0.2), (0.71875, 0.2), (0.71875, 0.2), (0.71875, 0.2), (0.71875, 0.225), (0.71875, 0.2), (0.71875, 0.225), (0.71875, 0.225), (0.71875, 0.2), (0.71875, 0.125), (0.71875, 0.2), (0.71875, 0.125), (0.71875, 0.2), (0.71875, 0.125), (0.71875, 0.225), (0.71875, 0.2), (0.71875, 0.2), (0.71875, 0.2), (0.71875, 0.225), (0.71875, 0.225), (0.71875, 0.2), (0.71875, 0.225), (0.71875, 0.225), (0.71875, 0.225), (0.71875, 0.2), (0.71875, 0.2), (0.71875, 0.125), (0.71875, 0.2), (0.71875, 0.125), (0.71875, 0.2), (0.71875, 0.125), (0.71875, 0.2), (0.71875, 0.025), (0.71875, 0.225), (0.71875, 0.025), (0.71875, 0.225), (0.71875, 0.025), (0.71875, 0.225), (0.71875, 0.225), (0.71875, 0.225), (0.71875, 0.225), (0.71875, 0.225), (0.71875, 0.225), (0.71875, 0.225), (0.71875, 0.225), (0.71875, 0.025), (0.71875, 0.025), (0.71875, 0.025), (0.71875, 0.225), (0.71875, 0.225), (0.71875, 0.225), (0.71875, 0.025), (0.71875, 0.225), (0.71875, 0.025), (0.71875, 0.225), (0.71875, 0.025), (0.71875, 0.025), (0.71875, 0.225), (0.71875, 0.025), (0.71875, 0.225), (0.71875, 0.025), (0.71875, 0.225), (0.71875, 0.025), (0.71875, 0.225), (0.71875, 0.025), (0.71875, 0.225), (0.71875, 0.025), (0.71875, 0.225), (0.71875, 0.225), (0.71875, 0.225), (0.71875, 0.225), (0.71875, 0.225), (0.71875, 0.225), (0.71875, 0.225), (0.71875, 0.225), (0.71875, 0.025), (0.71875, 0.025), (0.71875, 0.025), (0.71875, 0.225), (0.71875, 0.225), (0.71875, 0.225), (0.71875, 0.025), (0.71875, 0.225), (0.71875, 0.025), (0.71875, 0.225), (0.71875, 0.025), (0.71875, 0.025), (0.71875, 0.225), (0.71875, 0.025), (0.71875, 0.225), (0.71875, 0.025), (0.71875, 0.225), (0.71875, 0.025), (0.71875, 0.025), (0.71875, 0.025), (0.71875, 0.025), (0.71875, 0.025), (0.71875, 0.025), (0.71875, 0.025), (0.71875, 0.025), (0.71875, 0.025), (0.71875, 0.025), (0.71875, 0.025), (0.71875, 0.025), (0.09375, 0.025), (0.09375, 0.225), (0.09375, 0.025), (0.09375, 0.225), (0.09375, 0.025), (0.09375, 0.225), (0.09375, 0.225), (0.09375, 0.025), (0.09375, 0.025), (0.09375, 0.025), (0.09375, 0.225), (0.09375, 0.225), (0.09375, 0.025), (0.09375, 0.225), (0.09375, 0.225), (0.09375, 0.225), (0.09375, 0.025), (0.09375, 0.025), (0.09375, 0.025), (0.09375, 0.225), (0.09375, 0.025), (0.09375, 0.225), (0.09375, 0.025), (0.09375, 0.225), (0.09375, 0.225), (0.09375, 0.225), (0.09375, 0.225), (0.09375, 0.225), (0.09375, 0.225), (0.09375, 0.225), (0.09375, 0.225), (0.09375, 0.225), (0.09375, 0.225)] (interpolation = "faceVarying")
        uniform token subdivisionScheme = "none"
        rel material:binding = </Vehicle/Materials/colormap>
    }
    def Scope "Materials" {
        def Material "colormap" {
            token outputs:surface.connect = </Vehicle/Materials/colormap/surface.outputs:surface>
            def Shader "surface" {
                uniform token info:id = "UsdPreviewSurface"
                float inputs:roughness = 0.7
                float inputs:metallic = 0
                color3f inputs:diffuseColor.connect = </Vehicle/Materials/colormap/texture.outputs:rgb>
                token outputs:surface
            }
            def Shader "stReader" {
                uniform token info:id = "UsdPrimvarReader_float2"
                token inputs:varname = "st"
                float2 outputs:result
            }
            def Shader "texture" {
                uniform token info:id = "UsdUVTexture"
                asset inputs:file = @kenney-water-colormap.png@
                float2 inputs:st.connect = </Vehicle/Materials/colormap/stReader.outputs:result>
                token inputs:wrapS = "repeat"
                token inputs:wrapT = "repeat"
                float3 outputs:rgb
            }
        }
    }
}
