#usda 1.0
(
    defaultPrim = "Vehicle"
    metersPerUnit = 1
    upAxis = "Y"
)
def Xform "Vehicle" {
    def Mesh "mesh_colormap" {
        int[] faceVertexCounts = [3, 3, 3, 3, 3, 3, 3, 3, 3, 3, 3, 3, 3, 3, 3, 3, 3, 3, 3, 3, 3, 3, 3, 3, 3, 3, 3, 3, 3, 3, 3, 3, 3, 3, 3, 3, 3, 3, 3, 3, 3, 3, 3, 3, 3, 3, 3, 3, 3, 3, 3, 3, 3, 3, 3, 3, 3, 3, 3, 3, 3, 3, 3, 3, 3, 3, 3, 3, 3, 3, 3, 3, 3, 3, 3, 3, 3, 3, 3, 3, 3, 3, 3, 3, 3, 3, 3, 3, 3, 3, 3, 3, 3, 3, 3, 3, 3, 3, 3, 3, 3, 3, 3, 3, 3, 3, 3, 3, 3, 3, 3, 3, 3, 3, 3, 3, 3, 3, 3, 3, 3, 3, 3, 3, 3, 3, 3, 3, 3, 3, 3, 3, 3, 3, 3, 3, 3, 3, 3, 3, 3, 3, 3, 3, 3, 3, 3, 3, 3, 3, 3, 3, 3, 3, 3, 3, 3, 3, 3, 3, 3, 3, 3, 3, 3, 3, 3, 3, 3, 3, 3, 3, 3, 3, 3, 3, 3, 3, 3, 3, 3, 3, 3, 3, 3, 3, 3, 3, 3, 3, 3, 3, 3, 3, 3, 3, 3, 3, 3, 3, 3, 3, 3, 3, 3, 3, 3, 3, 3, 3, 3, 3, 3, 3, 3, 3, 3, 3, 3, 3, 3, 3, 3, 3, 3, 3, 3, 3, 3, 3, 3, 3, 3, 3, 3, 3, 3, 3, 3, 3, 3, 3, 3, 3, 3, 3, 3, 3, 3, 3, 3, 3, 3, 3, 3, 3, 3, 3, 3, 3, 3, 3, 3, 3, 3, 3, 3, 3, 3, 3, 3, 3, 3, 3, 3, 3, 3, 3, 3, 3, 3, 3, 3, 3, 3, 3, 3, 3, 3, 3, 3, 3, 3, 3, 3, 3, 3, 3, 3, 3, 3, 3, 3, 3, 3, 3, 3, 3, 3, 3, 3, 3]
        int[] faceVertexIndices = [2, 1, 0, 1, 2, 3, 6, 5, 4, 5, 6, 7, 7, 1, 5, 1, 7, 0, 10, 9, 8, 9, 10, 11, 11, 10, 12, 13, 12, 10, 14, 12, 13, 12, 14, 15, 16, 10, 8, 10, 16, 17, 19, 5, 18, 5, 19, 4, 20, 12, 15, 12, 20, 21, 5, 22, 18, 22, 5, 1, 23, 3, 2, 3, 23, 24, 26, 20, 25, 20, 26, 21, 21, 26, 27, 17, 27, 26, 16, 27, 17, 27, 16, 28, 13, 25, 14, 25, 13, 26, 30, 23, 29, 23, 30, 24, 11, 28, 9, 28, 11, 27, 32, 29, 31, 29, 32, 30, 31, 4, 32, 4, 31, 6, 1, 33, 22, 33, 1, 3, 29, 6, 31, 6, 29, 7, 7, 29, 0, 0, 29, 2, 2, 29, 23, 27, 12, 21, 12, 27, 11, 34, 30, 32, 30, 34, 35, 3, 36, 33, 36, 3, 24, 39, 38, 37, 38, 39, 40, 34, 4, 19, 4, 34, 32, 10, 26, 13, 26, 10, 17, 24, 35, 36, 35, 24, 30, 43, 42, 41, 42, 43, 44, 40, 43, 38, 43, 40, 44, 39, 44, 40, 44, 39, 42, 47, 46, 45, 46, 47, 48, 50, 46, 49, 46, 50, 45, 51, 50, 49, 50, 51, 52, 47, 51, 48, 51, 47, 52, 45, 52, 47, 52, 45, 50, 36, 53, 33, 53, 36, 54, 53, 22, 33, 22, 53, 55, 53, 41, 56, 41, 53, 54, 58, 25, 57, 25, 58, 37, 25, 37, 38, 25, 38, 14, 54, 43, 41, 43, 54, 8, 8, 54, 59, 59, 16, 8, 55, 18, 22, 18, 55, 60, 60, 19, 18, 19, 60, 58, 58, 34, 19, 34, 58, 57, 53, 61, 55, 61, 53, 56, 43, 14, 38, 14, 43, 15, 15, 43, 9, 9, 43, 8, 15, 9, 28, 28, 20, 15, 57, 35, 34, 35, 57, 59, 59, 57, 25, 59, 25, 16, 16, 25, 20, 16, 20, 28, 55, 62, 60, 62, 55, 61, 60, 37, 58, 37, 60, 62, 35, 54, 36, 54, 35, 59, 65, 64, 63, 64, 65, 66, 64, 68, 67, 68, 64, 66, 67, 54, 69, 54, 67, 68, 66, 54, 68, 54, 66, 65, 63, 67, 69, 67, 63, 64, 58, 71, 70, 71, 58, 72, 71, 74, 73, 74, 71, 72, 73, 76, 75, 76, 73, 74, 72, 76, 74, 76, 72, 58, 70, 73, 75, 73, 70, 71, 79, 78, 77, 78, 79, 80, 78, 82, 81, 82, 78, 80, 81, 84, 83, 84, 81, 82, 82, 79, 84, 79, 82, 80, 78, 83, 77, 83, 78, 81, 86, 85, 56, 85, 86, 87, 89, 88, 62, 88, 89, 90, 88, 91, 62, 91, 88, 92, 88, 87, 92, 87, 88, 90, 87, 90, 85, 89, 85, 90, 85, 89, 56, 2, 1, 0, 1, 2, 3, 6, 5, 4, 5, 6, 7, 7, 1, 5, 1, 7, 0, 10, 9, 8, 9, 10, 11, 11, 10, 12, 13, 12, 10, 14, 12, 13, 12, 14, 15, 16, 10, 8, 10, 16, 17, 19, 5, 18, 5, 19, 4, 20, 12, 15, 12, 20, 21, 5, 22, 18, 22, 5, 1, 23, 3, 2, 3, 23, 24, 26, 20, 25, 20, 26, 21, 21, 26, 27, 17, 27, 26, 16, 27, 17, 27, 16, 28, 13, 25, 14, 25, 13, 26, 30, 23, 29, 23, 30, 24, 11, 28, 9, 28, 11, 27, 32, 29, 31, 29, 32, 30, 31, 4, 32, 4, 31, 6, 1, 33, 22, 33, 1, 3, 29, 6, 31, 6, 29, 7, 7, 29, 0, 0, 29, 2, 2, 29, 23, 27, 12, 21, 12, 27, 11, 34, 30, 32, 30, 34, 35, 3, 36, 33, 36, 3, 24, 39, 38, 37, 38, 39, 40, 34, 4, 19, 4, 34, 32, 10, 26, 13, 26, 10, 17, 24, 35, 36, 35, 24, 30, 43, 42, 41, 42, 43, 44, 40, 43, 38, 43, 40, 44, 39, 44, 40, 44, 39, 42, 47, 46, 45, 46, 47, 48, 50, 46, 49, 46, 50, 45, 51, 50, 49, 50, 51, 52, 47, 51, 48, 51, 47, 52, 45, 52, 47, 52, 45, 50, 36, 53, 33, 53, 36, 54, 53, 22, 33, 22, 53, 55, 53, 41, 56, 41, 53, 54, 58, 25, 57, 25, 58, 37, 25, 37, 38, 25, 38, 14, 54, 43, 41, 43, 54, 8, 8, 54, 59, 59, 16, 8, 55, 18, 22, 18, 55, 60, 60, 19, 18, 19, 60, 58, 58, 34, 19, 34, 58, 57, 53, 61, 55, 61, 53, 56, 43, 14, 38, 14, 43, 15, 15, 43, 9, 9, 43, 8, 15, 9, 28, 28, 20, 15, 57, 35, 34, 35, 57, 59, 59, 57, 25, 59, 25, 16, 16, 25, 20, 16, 20, 28, 55, 62, 60, 62, 55, 61, 60, 37, 58, 37, 60, 62, 35, 54, 36, 54, 35, 59, 65, 64, 63, 64, 65, 66, 64, 68, 67, 68, 64, 66, 67, 54, 69, 54, 67, 68, 66, 54, 68, 54, 66, 65, 63, 67, 69, 67, 63, 64, 58, 71, 70, 71, 58, 72, 71, 74, 73, 74, 71, 72, 73, 76, 75, 76, 73, 74, 72, 76, 74, 76, 72, 58, 70, 73, 75, 73, 70, 71, 79, 78, 77, 78, 79, 80, 78, 82, 81, 82, 78, 80, 81, 84, 83, 84, 81, 82, 82, 79, 84, 79, 82, 80, 78, 83, 77, 83, 78, 81, 86, 85, 56, 85, 86, 87, 89, 88, 62, 88, 89, 90, 88, 91, 62, 91, 88, 92, 88, 87, 92, 87, 88, 90, 87, 90, 85, 89, 85, 90, 85, 89, 56]
        point3f[] points = [(1.28328e-13, 0, 0.37964), (4.17031e-13, 0.2, 1.1558), (0.178089, 0, 0.281068), (0.296815, 0.2, 0.991514), (-0.6783, 0.2, 0.3863), (-0.296815, 0.2, 0.991514), (-0.40698, 0, -0.08206), (-0.178089, 0, 0.281068), (0.551119, 0.9, -1.235), (0.401119, 0.9, -1.235), (0.551119, 1.5, -1.435), (0.401119, 1.35, -1.385), (-0.401119, 1.35, -1.385), (-0.551119, 1.5, -1.435), (-0.551119, 0.9, -1.235), (-0.401119, 0.9, -1.235), (0.551119, 0.9, -1.485), (0.551119, 1.5, -1.685), (-0.390547, 0.6, 1.46883), (-0.8925, 0.6, 0.6725), (-0.401119, 0.9, -1.485), (-0.401119, 1.35, -1.635), (6.01208e-13, 0.6, 1.685), (0.40698, 0, -0.08206), (0.6783, 0.2, 0.3863), (-0.551119, 0.9, -1.485), (-0.551119, 1.5, -1.685), (0.401119, 1.35, -1.635), (0.401119, 0.9, -1.485), (0.40698, 0, -1.285), (0.6783, 0.2, -1.38141), (-0.40698, 0, -1.285), (-0.6783, 0.2, -1.38141), (0.390547, 0.6, 1.46883), (-0.8925, 0.6, -1.485), (0.8925, 0.6, -1.485), (0.8925, 0.6, 0.6725), (-0.551119, 0.9, 0.396575), (-0.551119, 0.9, -0.833008), (-0.413339, 1.1995, 0.177031), (-0.413339, 1.1995, -0.583008), (0.551119, 0.9, 0.396575), (0.413339, 1.1995, 0.177031), (0.551119, 0.9, -0.833008), (0.413339, 1.1995, -0.583008), (-0.2, 1.2495, -0.00298849), (-0.2, 1.1995, -0.00298849), (-0.2, 1.2995, -0.402989), (-0.2, 1.1995, -0.402989), (0.2, 1.1995, -0.00298849), (0.2, 1.2495, -0.00298849), (0.2, 1.1995, -0.402989), (0.2, 1.2995, -0.402989), (0.371019, 0.8, 1.36939), (0.847875, 0.8, 0.612875), (5.71019e-13, 0.8, 1.57475), (0.241163, 0.9, 0.888311), (-0.847875, 0.8, -1.485), (-0.847875, 0.8, 0.612875), (0.847875, 0.8, -1.485), (-0.371019, 0.8, 1.36939), (3.75428e-13, 0.9, 1.02179), (-0.241163, 0.9, 0.888311), (0.647875, 0.8, 0.112875), (0.647875, 0.9, 0.212875), (0.647875, 0.8, 0.612875), (0.647875, 0.9, 0.512875), (0.847875, 0.9, 0.212875), (0.847875, 0.9, 0.512875), (0.847875, 0.8, 0.112875), (-0.847875, 0.8, 0.112875), (-0.847875, 0.9, 0.212875), (-0.847875, 0.9, 0.512875), (-0.647875, 0.9, 0.212875), (-0.647875, 0.9, 0.512875), (-0.647875, 0.8, 0.112875), (-0.647875, 0.8, 0.612875), (-0.3, 0.9, -1.03301), (-0.3, 1.1, -0.933007), (-0.3, 0.9, -0.533007), (-0.3, 1.1, -0.633007), (0.3, 1.1, -0.933007), (0.3, 1.1, -0.633007), (0.3, 0.9, -1.03301), (0.3, 0.9, -0.533007), (0.180872, 1.1995, 0.545833), (0.551119, 0.9, 0.396575), (0.413339, 1.1995, 0.17703), (-0.180872, 1.1995, 0.545833), (3.75789e-13, 0.9, 1.02179), (2.27525e-13, 1.1995, 0.645945), (-0.551119, 0.9, 0.396575), (-0.413339, 1.1995, 0.17703)]
        normal3f[] normals = [(0.261964, -0.939502, 0.220704), (8.9566e-14, -0.968368, 0.249528), (8.9566e-14, -0.968368, 0.249528), (8.9566e-14, -0.968368, 0.249528), (0.261964, -0.939502, 0.220704), (0.192022, -0.952574, 0.236073), (-0.518084, -0.852925, 0.0640928), (-0.192022, -0.952574, 0.236073), (-0.39343, -0.905541, 0.158773), (-0.192022, -0.952574, 0.236073), (-0.518084, -0.852925, 0.0640928), (-0.261964, -0.939502, 0.220704), (-0.261964, -0.939502, 0.220704), (8.9566e-14, -0.968368, 0.249528), (-0.192022, -0.952574, 0.236073), (8.9566e-14, -0.968368, 0.249528), (-0.261964, -0.939502, 0.220704), (8.9566e-14, -0.968368, 0.249528), (3.40522e-13, 0.316228, 0.948683), (3.40522e-13, 0.316228, 0.948683), (3.40522e-13, 0.316228, 0.948683), (3.40522e-13, 0.316228, 0.948683), (3.40522e-13, 0.316228, 0.948683), (3.40522e-13, 0.316228, 0.948683), (3.40522e-13, 0.316228, 0.948683), (3.40522e-13, 0.316228, 0.948683), (3.40522e-13, 0.316228, 0.948683), (3.40522e-13, 0.316228, 0.948683), (3.40522e-13, 0.316228, 0.948683), (3.40522e-13, 0.316228, 0.948683), (3.40522e-13, 0.316228, 0.948683), (3.40522e-13, 0.316228, 0.948683), (3.40522e-13, 0.316228, 0.948683), (3.40522e-13, 0.316228, 0.948683), (3.40522e-13, 0.316228, 0.948683), (3.40522e-13, 0.316228, 0.948683), (1, 0, -3.58942e-13), (0.769485, 0.638665, -2.762e-13), (1, 0, -3.58942e-13), (0.769485, 0.638665, -2.762e-13), (1, 0, -3.58942e-13), (0.622386, 0.782711, -2.234e-13), (-0.754441, -0.597847, 0.270921), (-0.532339, -0.697377, 0.479875), (-0.4407, -0.728734, 0.524147), (-0.532339, -0.697377, 0.479875), (-0.754441, -0.597847, 0.270921), (-0.81696, -0.55345, 0.162079), (1, 0, -3.58942e-13), (1, 0, -3.58942e-13), (1, 0, -3.58942e-13), (1, 0, -3.58942e-13), (1, 0, -3.58942e-13), (1, 0, -3.58942e-13), (-0.532339, -0.697377, 0.479875), (2.16437e-13, -0.797751, 0.602987), (-0.4407, -0.728734, 0.524147), (2.16437e-13, -0.797751, 0.602987), (-0.532339, -0.697377, 0.479875), (2.16437e-13, -0.797751, 0.602987), (0.518084, -0.852925, 0.0640928), (0.192022, -0.952574, 0.236073), (0.261964, -0.939502, 0.220704), (0.192022, -0.952574, 0.236073), (0.518084, -0.852925, 0.0640928), (0.39343, -0.905541, 0.158773), (-3.40522e-13, -0.316228, -0.948683), (-3.40522e-13, -0.316228, -0.948683), (-3.40522e-13, -0.316228, -0.948683), (-3.40522e-13, -0.316228, -0.948683), (-3.40522e-13, -0.316228, -0.948683), (-3.40522e-13, -0.316228, -0.948683), (-3.40522e-13, -0.316228, -0.948683), (-3.40522e-13, -0.316228, -0.948683), (-3.40522e-13, -0.316228, -0.948683), (-3.40522e-13, -0.316228, -0.948683), (-3.40522e-13, -0.316228, -0.948683), (-3.40522e-13, -0.316228, -0.948683), (-3.40522e-13, -0.316228, -0.948683), (-3.40522e-13, -0.316228, -0.948683), (-3.40522e-13, -0.316228, -0.948683), (-3.40522e-13, -0.316228, -0.948683), (-3.40522e-13, -0.316228, -0.948683), (-3.40522e-13, -0.316228, -0.948683), (-0.769485, 0.638665, 2.762e-13), (-1, 0, 3.58942e-13), (-1, 0, 3.58942e-13), (-1, 0, 3.58942e-13), (-0.769485, 0.638665, 2.762e-13), (-0.622386, 0.782711, 2.234e-13), (0.593353, -0.804942, -2.12979e-13), (0.518084, -0.852925, 0.0640928), (0.593353, -0.804942, -2.12979e-13), (0.518084, -0.852925, 0.0640928), (0.593353, -0.804942, -2.12979e-13), (0.39343, -0.905541, 0.158773), (-1, 0, 3.58942e-13), (-1, 0, 3.58942e-13), (-1, 0, 3.58942e-13), (-1, 0, 3.58942e-13), (-1, 0, 3.58942e-13), (-1, 0, 3.58942e-13), (-3.23336e-13, -0.434228, -0.900803), (-3.23336e-13, -0.434228, -0.900803), (-3.23336e-13, -0.434228, -0.900803), (-3.23336e-13, -0.434228, -0.900803), (-3.23336e-13, -0.434228, -0.900803), (-3.23336e-13, -0.434228, -0.900803), (-0.593353, -0.804942, 2.12979e-13), (-0.39343, -0.905541, 0.158773), (-0.593353, -0.804942, 2.12979e-13), (-0.39343, -0.905541, 0.158773), (-0.593353, -0.804942, 2.12979e-13), (-0.518084, -0.852925, 0.0640928), (2.16437e-13, -0.797751, 0.602987), (0.4407, -0.728734, 0.524147), (2.16437e-13, -0.797751, 0.602987), (0.4407, -0.728734, 0.524147), (2.16437e-13, -0.797751, 0.602987), (0.532339, -0.697377, 0.479875), (0, -1, 0), (0, -1, 0), (0, -1, 0), (0, -1, 0), (0, -1, 0), (0, -1, 0), (0, -1, 0), (0, -1, 0), (0, -1, 0), (0, -1, 0), (0, -1, 0), (0, -1, 0), (0, -1, 0), (0, -1, 0), (0, -1, 0), (0, -1, 0), (0, -1, 0), (0, -1, 0), (0, -1, 0), (0, -1, 0), (0, -1, 0), (-3.47478e-13, -0.250707, -0.968063), (-3.47478e-13, -0.250707, -0.968063), (-3.47478e-13, -0.250707, -0.968063), (-3.47478e-13, -0.250707, -0.968063), (-3.47478e-13, -0.250707, -0.968063), (-3.47478e-13, -0.250707, -0.968063), (0.532339, -0.697377, 0.479875), (0.754441, -0.597847, 0.270921), (0.4407, -0.728734, 0.524147), (0.754441, -0.597847, 0.270921), (0.532339, -0.697377, 0.479875), (0.81696, -0.55345, 0.162079), (-0.908481, 0.417927, 3.26092e-13), (-0.908481, 0.417927, 3.26092e-13), (-0.908481, 0.417927, 3.26092e-13), (-0.908481, 0.417927, 3.26092e-13), (-0.908481, 0.417927, 3.26092e-13), (-0.908481, 0.417927, 3.26092e-13), (-0.881559, -0.472075, 3.16428e-13), (-0.81696, -0.55345, 0.162079), (-0.754441, -0.597847, 0.270921), (-0.81696, -0.55345, 0.162079), (-0.881559, -0.472075, 3.16428e-13), (-0.881559, -0.472075, 3.16428e-13), (0.769485, 0.638665, -2.762e-13), (-0.622386, 0.782711, 2.234e-13), (-0.769485, 0.638665, 2.762e-13), (-0.622386, 0.782711, 2.234e-13), (0.769485, 0.638665, -2.762e-13), (0.622386, 0.782711, -2.234e-13), (0.81696, -0.55345, 0.162079), (0.881559, -0.472075, -3.16428e-13), (0.754441, -0.597847, 0.270921), (0.881559, -0.472075, -3.16428e-13), (0.81696, -0.55345, 0.162079), (0.881559, -0.472075, -3.16428e-13), (0.908481, 0.417927, -3.26092e-13), (0.908481, 0.417927, -3.26092e-13), (0.908481, 0.417927, -3.26092e-13), (0.908481, 0.417927, -3.26092e-13), (0.908481, 0.417927, -3.26092e-13), (0.908481, 0.417927, -3.26092e-13), (-2.75559e-13, 0.640811, -0.767698), (-2.75559e-13, 0.640811, -0.767698), (-2.75559e-13, 0.640811, -0.767698), (-2.75559e-13, 0.640811, -0.767698), (-2.75559e-13, 0.640811, -0.767698), (-2.75559e-13, 0.640811, -0.767698), (0, 1, 0), (0, 1, 0), (0, 1, 0), (0, 1, 0), (0, 1, 0), (0, 1, 0), (-1, 0, 3.58942e-13), (-1, 0, 3.58942e-13), (-1, 0, 3.58942e-13), (-1, 0, 3.58942e-13), (-1, 0, 3.58942e-13), (-1, 0, 3.58942e-13), (2.69091e-13, 0.661802, 0.749678), (3.58942e-13, 0, 1), (3.58942e-13, 0, 1), (3.58942e-13, 0, 1), (2.69091e-13, 0.661802, 0.749678), (2.69091e-13, 0.661802, 0.749678), (1, 0, -3.58942e-13), (1, 0, -3.58942e-13), (1, 0, -3.58942e-13), (1, 0, -3.58942e-13), (1, 0, -3.58942e-13), (1, 0, -3.58942e-13), (-3.58942e-13, 0, -1), (-3.58942e-13, 0, -1), (-3.58942e-13, 0, -1), (-3.58942e-13, 0, -1), (-3.58942e-13, 0, -1), (-3.58942e-13, 0, -1), (2.69091e-13, 0.661802, 0.749678), (4.45213e-14, 0.992278, 0.124035), (4.45213e-14, 0.992278, 0.124035), (4.45213e-14, 0.992278, 0.124035), (2.69091e-13, 0.661802, 0.749678), (2.69091e-13, 0.661802, 0.749678), (0.909183, 0.291506, 0.297339), (0.661771, 0.384589, 0.643545), (0.605134, 0.401033, 0.687739), (0.661771, 0.384589, 0.643545), (0.909183, 0.291506, 0.297339), (0.93326, 0.276567, 0.229209), (0.661771, 0.384589, 0.643545), (3.14345e-13, 0.482759, 0.875753), (0.605134, 0.401033, 0.687739), (3.14345e-13, 0.482759, 0.875753), (0.661771, 0.384589, 0.643545), (3.14345e-13, 0.482759, 0.875753), (0.137975, 0.976471, 0.165731), (0.280822, 0.958028, 0.0576383), (0.177293, 0.972005, 0.15419), (0.280822, 0.958028, 0.0576383), (0.137975, 0.976471, 0.165731), (0.259505, 0.961672, 0.0885686), (-0.259505, 0.961672, 0.0885686), (-0.319334, 0.947642, 1.14622e-13), (-0.319334, 0.947642, 1.14622e-13), (-0.319334, 0.947642, 1.14622e-13), (-0.259505, 0.961672, 0.0885686), (-0.280822, 0.958028, 0.0576383), (-0.319334, 0.947642, 1.14622e-13), (-0.280822, 0.958028, 0.0576383), (-0.319334, 0.947642, 1.14622e-13), (-0.319334, 0.947642, 1.14622e-13), (-0.319334, 0.947642, 1.14622e-13), (-0.319334, 0.947642, 1.14622e-13), (0.259505, 0.961672, 0.0885686), (0.319334, 0.947642, -1.14622e-13), (0.280822, 0.958028, 0.0576383), (0.319334, 0.947642, -1.14622e-13), (0.259505, 0.961672, 0.0885686), (0.319334, 0.947642, -1.14622e-13), (0.319334, 0.947642, -1.14622e-13), (0.259505, 0.961672, 0.0885686), (0.319334, 0.947642, -1.14622e-13), (0.319334, 0.947642, -1.14622e-13), (0.319334, 0.947642, -1.14622e-13), (0.319334, 0.947642, -1.14622e-13), (3.14345e-13, 0.482759, 0.875753), (-0.605134, 0.401033, 0.687739), (3.14345e-13, 0.482759, 0.875753), (-0.605134, 0.401033, 0.687739), (3.14345e-13, 0.482759, 0.875753), (-0.661771, 0.384589, 0.643545), (-0.661771, 0.384589, 0.643545), (-0.909183, 0.291506, 0.297339), (-0.605134, 0.401033, 0.687739), (-0.909183, 0.291506, 0.297339), (-0.661771, 0.384589, 0.643545), (-0.93326, 0.276567, 0.229209), (-0.93326, 0.276567, 0.229209), (-0.976, 0.21777, 3.50328e-13), (-0.909183, 0.291506, 0.297339), (-0.976, 0.21777, 3.50328e-13), (-0.93326, 0.276567, 0.229209), (-0.976, 0.21777, 3.50328e-13), (0.137975, 0.976471, 0.165731), (6.38771e-14, 0.984038, 0.177959), (6.38771e-14, 0.984038, 0.177959), (6.38771e-14, 0.984038, 0.177959), (0.137975, 0.976471, 0.165731), (0.177293, 0.972005, 0.15419), (0, 1, 0), (0, 1, 0), (0, 1, 0), (0, 1, 0), (0, 1, 0), (0, 1, 0), (0, 1, 0), (0, 1, 0), (0, 1, 0), (0, 1, 0), (0, 1, 0), (0, 1, 0), (0, 1, 0), (0, 1, 0), (0, 1, 0), (0, 1, 0), (0, 1, 0), (0, 1, 0), (-3.58942e-13, 0, -1), (-3.58942e-13, 0, -1), (-3.58942e-13, 0, -1), (-3.58942e-13, 0, -1), (-3.58942e-13, 0, -1), (-3.58942e-13, 0, -1), (-3.58942e-13, 0, -1), (-3.58942e-13, 0, -1), (-3.58942e-13, 0, -1), (-3.58942e-13, 0, -1), (-3.58942e-13, 0, -1), (-3.58942e-13, 0, -1), (-3.58942e-13, 0, -1), (-3.58942e-13, 0, -1), (-3.58942e-13, 0, -1), (-3.58942e-13, 0, -1), (-3.58942e-13, 0, -1), (-3.58942e-13, 0, -1), (6.38771e-14, 0.984038, 0.177959), (-0.177293, 0.972005, 0.15419), (-0.137975, 0.976471, 0.165731), (-0.177293, 0.972005, 0.15419), (6.38771e-14, 0.984038, 0.177959), (6.38771e-14, 0.984038, 0.177959), (-0.137975, 0.976471, 0.165731), (-0.280822, 0.958028, 0.0576383), (-0.259505, 0.961672, 0.0885686), (-0.280822, 0.958028, 0.0576383), (-0.137975, 0.976471, 0.165731), (-0.177293, 0.972005, 0.15419), (0.976, 0.21777, -3.50328e-13), (0.93326, 0.276567, 0.229209), (0.909183, 0.291506, 0.297339), (0.93326, 0.276567, 0.229209), (0.976, 0.21777, -3.50328e-13), (0.976, 0.21777, -3.50328e-13), (-1, 0, 0), (-1, 0, 0), (-1, 0, 0), (-1, 0, 0), (-1, 0, 0), (-1, 0, 0), (0, 0.923879, -0.382683), (0, 0.923879, 0.382683), (0, 0.923879, -0.382683), (0, 0.923879, 0.382683), (0, 0.923879, -0.382683), (0, 0.923879, 0.382683), (1, 0, 0), (1, 0, 0), (1, 0, 0), (1, 0, 0), (1, 0, 0), (1, 0, 0), (0, 0.923879, 0.382683), (0, 0.707107, 0.707107), (0, 0.923879, 0.382683), (0, 0.707107, 0.707107), (0, 0.923879, 0.382683), (0, 0.707107, 0.707107), (0, 0.707107, -0.707107), (0, 0.923879, -0.382683), (0, 0.707107, -0.707107), (0, 0.923879, -0.382683), (0, 0.707107, -0.707107), (0, 0.923879, -0.382683), (-1, 0, 0), (-1, 0, 0), (-1, 0, 0), (-1, 0, 0), (-1, 0, 0), (-1, 0, 0), (0, 0.923879, -0.382683), (0, 0.923879, 0.382683), (0, 0.923879, -0.382683), (0, 0.923879, 0.382683), (0, 0.923879, -0.382683), (0, 0.923879, 0.382683), (1, 0, 0), (1, 0, 0), (1, 0, 0), (1, 0, 0), (1, 0, 0), (1, 0, 0), (0, 0.923879, 0.382683), (0, 0.707107, 0.707107), (0, 0.923879, 0.382683), (0, 0.707107, 0.707107), (0, 0.923879, 0.382683), (0, 0.707107, 0.707107), (0, 0.707107, -0.707107), (0, 0.923879, -0.382683), (0, 0.707107, -0.707107), (0, 0.923879, -0.382683), (0, 0.707107, -0.707107), (0, 0.923879, -0.382683), (-1, 0, 0), (-1, 0, 0), (-1, 0, 0), (-1, 0, 0), (-1, 0, 0), (-1, 0, 0), (0, 0.850651, -0.525731), (0, 0.850651, 0.525731), (0, 0.850651, -0.525731), (0, 0.850651, 0.525731), (0, 0.850651, -0.525731), (0, 0.850651, 0.525731), (1, 0, 0), (1, 0, 0), (1, 0, 0), (1, 0, 0), (1, 0, 0), (1, 0, 0), (0, 0.850651, 0.525731), (0, 0.447214, 0.894427), (0, 0.447214, 0.894427), (0, 0.447214, 0.894427), (0, 0.850651, 0.525731), (0, 0.850651, 0.525731), (0, 0.850651, -0.525731), (0, 0.447214, -0.894427), (0, 0.447214, -0.894427), (0, 0.447214, -0.894427), (0, 0.850651, -0.525731), (0, 0.850651, -0.525731), (0.66703, 0.615055, 0.42045), (0.548276, 0.674978, 0.493759), (0.453343, 0.708982, 0.540208), (0.548276, 0.674978, 0.493759), (0.66703, 0.615055, 0.42045), (0.66703, 0.615055, 0.42045), (2.23693e-13, 0.782062, 0.623201), (-0.548276, 0.674978, 0.493759), (-0.453343, 0.708982, 0.540208), (-0.548276, 0.674978, 0.493759), (2.23693e-13, 0.782062, 0.623201), (2.23693e-13, 0.782062, 0.623201), (-0.548276, 0.674978, 0.493759), (-0.66703, 0.615055, 0.42045), (-0.453343, 0.708982, 0.540208), (-0.66703, 0.615055, 0.42045), (-0.548276, 0.674978, 0.493759), (-0.66703, 0.615055, 0.42045), (0, 1, 0), (0, 1, 0), (0, 1, 0), (0, 1, 0), (0, 1, 0), (0, 1, 0), (0, 1, 0), (0, 1, 0), (0, 1, 0), (2.23693e-13, 0.782062, 0.623201), (0.548276, 0.674978, 0.493759), (2.23693e-13, 0.782062, 0.623201), (0.548276, 0.674978, 0.493759), (2.23693e-13, 0.782062, 0.623201), (0.453343, 0.708982, 0.540208), (0.261964, -0.939502, 0.220704), (8.9566e-14, -0.968368, 0.249528), (8.9566e-14, -0.968368, 0.249528), (8.9566e-14, -0.968368, 0.249528), (0.261964, -0.939502, 0.220704), (0.192022, -0.952574, 0.236073), (-0.518084, -0.852925, 0.0640928), (-0.192022, -0.952574, 0.236073), (-0.39343, -0.905541, 0.158773), (-0.192022, -0.952574, 0.236073), (-0.518084, -0.852925, 0.0640928), (-0.261964, -0.939502, 0.220704), (-0.261964, -0.939502, 0.220704), (8.9566e-14, -0.968368, 0.249528), (-0.192022, -0.952574, 0.236073), (8.9566e-14, -0.968368, 0.249528), (-0.261964, -0.939502, 0.220704), (8.9566e-14, -0.968368, 0.249528), (3.40522e-13, 0.316228, 0.948683), (3.40522e-13, 0.316228, 0.948683), (3.40522e-13, 0.316228, 0.948683), (3.40522e-13, 0.316228, 0.948683), (3.40522e-13, 0.316228, 0.948683), (3.40522e-13, 0.316228, 0.948683), (3.40522e-13, 0.316228, 0.948683), (3.40522e-13, 0.316228, 0.948683), (3.40522e-13, 0.316228, 0.948683), (3.40522e-13, 0.316228, 0.948683), (3.40522e-13, 0.316228, 0.948683), (3.40522e-13, 0.316228, 0.948683), (3.40522e-13, 0.316228, 0.948683), (3.40522e-13, 0.316228, 0.948683), (3.40522e-13, 0.316228, 0.948683), (3.40522e-13, 0.316228, 0.948683), (3.40522e-13, 0.316228, 0.948683), (3.40522e-13, 0.316228, 0.948683), (1, 0, -3.58942e-13), (0.769485, 0.638665, -2.762e-13), (1, 0, -3.58942e-13), (0.769485, 0.638665, -2.762e-13), (1, 0, -3.58942e-13), (0.622386, 0.782711, -2.234e-13), (-0.754441, -0.597847, 0.270921), (-0.532339, -0.697377, 0.479875), (-0.4407, -0.728734, 0.524147), (-0.532339, -0.697377, 0.479875), (-0.754441, -0.597847, 0.270921), (-0.81696, -0.55345, 0.162079), (1, 0, -3.58942e-13), (1, 0, -3.58942e-13), (1, 0, -3.58942e-13), (1, 0, -3.58942e-13), (1, 0, -3.58942e-13), (1, 0, -3.58942e-13), (-0.532339, -0.697377, 0.479875), (2.16437e-13, -0.797751, 0.602987), (-0.4407, -0.728734, 0.524147), (2.16437e-13, -0.797751, 0.602987), (-0.532339, -0.697377, 0.479875), (2.16437e-13, -0.797751, 0.602987), (0.518084, -0.852925, 0.0640928), (0.192022, -0.952574, 0.236073), (0.261964, -0.939502, 0.220704), (0.192022, -0.952574, 0.236073), (0.518084, -0.852925, 0.0640928), (0.39343, -0.905541, 0.158773), (-3.40522e-13, -0.316228, -0.948683), (-3.40522e-13, -0.316228, -0.948683), (-3.40522e-13, -0.316228, -0.948683), (-3.40522e-13, -0.316228, -0.948683), (-3.40522e-13, -0.316228, -0.948683), (-3.40522e-13, -0.316228, -0.948683), (-3.40522e-13, -0.316228, -0.948683), (-3.40522e-13, -0.316228, -0.948683), (-3.40522e-13, -0.316228, -0.948683), (-3.40522e-13, -0.316228, -0.948683), (-3.40522e-13, -0.316228, -0.948683), (-3.40522e-13, -0.316228, -0.948683), (-3.40522e-13, -0.316228, -0.948683), (-3.40522e-13, -0.316228, -0.948683), (-3.40522e-13, -0.316228, -0.948683), (-3.40522e-13, -0.316228, -0.948683), (-3.40522e-13, -0.316228, -0.948683), (-3.40522e-13, -0.316228, -0.948683), (-0.769485, 0.638665, 2.762e-13), (-1, 0, 3.58942e-13), (-1, 0, 3.58942e-13), (-1, 0, 3.58942e-13), (-0.769485, 0.638665, 2.762e-13), (-0.622386, 0.782711, 2.234e-13), (0.593353, -0.804942, -2.12979e-13), (0.518084, -0.852925, 0.0640928), (0.593353, -0.804942, -2.12979e-13), (0.518084, -0.852925, 0.0640928), (0.593353, -0.804942, -2.12979e-13), (0.39343, -0.905541, 0.158773), (-1, 0, 3.58942e-13), (-1, 0, 3.58942e-13), (-1, 0, 3.58942e-13), (-1, 0, 3.58942e-13), (-1, 0, 3.58942e-13), (-1, 0, 3.58942e-13), (-3.23336e-13, -0.434228, -0.900803), (-3.23336e-13, -0.434228, -0.900803), (-3.23336e-13, -0.434228, -0.900803), (-3.23336e-13, -0.434228, -0.900803), (-3.23336e-13, -0.434228, -0.900803), (-3.23336e-13, -0.434228, -0.900803), (-0.593353, -0.804942, 2.12979e-13), (-0.39343, -0.905541, 0.158773), (-0.593353, -0.804942, 2.12979e-13), (-0.39343, -0.905541, 0.158773), (-0.593353, -0.804942, 2.12979e-13), (-0.518084, -0.852925, 0.0640928), (2.16437e-13, -0.797751, 0.602987), (0.4407, -0.728734, 0.524147), (2.16437e-13, -0.797751, 0.602987), (0.4407, -0.728734, 0.524147), (2.16437e-13, -0.797751, 0.602987), (0.532339, -0.697377, 0.479875), (0, -1, 0), (0, -1, 0), (0, -1, 0), (0, -1, 0), (0, -1, 0), (0, -1, 0), (0, -1, 0), (0, -1, 0), (0, -1, 0), (0, -1, 0), (0, -1, 0), (0, -1, 0), (0, -1, 0), (0, -1, 0), (0, -1, 0), (0, -1, 0), (0, -1, 0), (0, -1, 0), (0, -1, 0), (0, -1, 0), (0, -1, 0), (-3.47478e-13, -0.250707, -0.968063), (-3.47478e-13, -0.250707, -0.968063), (-3.47478e-13, -0.250707, -0.968063), (-3.47478e-13, -0.250707, -0.968063), (-3.47478e-13, -0.250707, -0.968063), (-3.47478e-13, -0.250707, -0.968063), (0.532339, -0.697377, 0.479875), (0.754441, -0.597847, 0.270921), (0.4407, -0.728734, 0.524147), (0.754441, -0.597847, 0.270921), (0.532339, -0.697377, 0.479875), (0.81696, -0.55345, 0.162079), (-0.908481, 0.417927, 3.26092e-13), (-0.908481, 0.417927, 3.26092e-13), (-0.908481, 0.417927, 3.26092e-13), (-0.908481, 0.417927, 3.26092e-13), (-0.908481, 0.417927, 3.26092e-13), (-0.908481, 0.417927, 3.26092e-13), (-0.881559, -0.472075, 3.16428e-13), (-0.81696, -0.55345, 0.162079), (-0.754441, -0.597847, 0.270921), (-0.81696, -0.55345, 0.162079), (-0.881559, -0.472075, 3.16428e-13), (-0.881559, -0.472075, 3.16428e-13), (0.769485, 0.638665, -2.762e-13), (-0.622386, 0.782711, 2.234e-13), (-0.769485, 0.638665, 2.762e-13), (-0.622386, 0.782711, 2.234e-13), (0.769485, 0.638665, -2.762e-13), (0.622386, 0.782711, -2.234e-13), (0.81696, -0.55345, 0.162079), (0.881559, -0.472075, -3.16428e-13), (0.754441, -0.597847, 0.270921), (0.881559, -0.472075, -3.16428e-13), (0.81696, -0.55345, 0.162079), (0.881559, -0.472075, -3.16428e-13), (0.908481, 0.417927, -3.26092e-13), (0.908481, 0.417927, -3.26092e-13), (0.908481, 0.417927, -3.26092e-13), (0.908481, 0.417927, -3.26092e-13), (0.908481, 0.417927, -3.26092e-13), (0.908481, 0.417927, -3.26092e-13), (-2.75559e-13, 0.640811, -0.767698), (-2.75559e-13, 0.640811, -0.767698), (-2.75559e-13, 0.640811, -0.767698), (-2.75559e-13, 0.640811, -0.767698), (-2.75559e-13, 0.640811, -0.767698), (-2.75559e-13, 0.640811, -0.767698), (0, 1, 0), (0, 1, 0), (0, 1, 0), (0, 1, 0), (0, 1, 0), (0, 1, 0), (-1, 0, 3.58942e-13), (-1, 0, 3.58942e-13), (-1, 0, 3.58942e-13), (-1, 0, 3.58942e-13), (-1, 0, 3.58942e-13), (-1, 0, 3.58942e-13), (2.69091e-13, 0.661802, 0.749678), (3.58942e-13, 0, 1), (3.58942e-13, 0, 1), (3.58942e-13, 0, 1), (2.69091e-13, 0.661802, 0.749678), (2.69091e-13, 0.661802, 0.749678), (1, 0, -3.58942e-13), (1, 0, -3.58942e-13), (1, 0, -3.58942e-13), (1, 0, -3.58942e-13), (1, 0, -3.58942e-13), (1, 0, -3.58942e-13), (-3.58942e-13, 0, -1), (-3.58942e-13, 0, -1), (-3.58942e-13, 0, -1), (-3.58942e-13, 0, -1), (-3.58942e-13, 0, -1), (-3.58942e-13, 0, -1), (2.69091e-13, 0.661802, 0.749678), (4.45213e-14, 0.992278, 0.124035), (4.45213e-14, 0.992278, 0.124035), (4.45213e-14, 0.992278, 0.124035), (2.69091e-13, 0.661802, 0.749678), (2.69091e-13, 0.661802, 0.749678), (0.909183, 0.291506, 0.297339), (0.661771, 0.384589, 0.643545), (0.605134, 0.401033, 0.687739), (0.661771, 0.384589, 0.643545), (0.909183, 0.291506, 0.297339), (0.93326, 0.276567, 0.229209), (0.661771, 0.384589, 0.643545), (3.14345e-13, 0.482759, 0.875753), (0.605134, 0.401033, 0.687739), (3.14345e-13, 0.482759, 0.875753), (0.661771, 0.384589, 0.643545), (3.14345e-13, 0.482759, 0.875753), (0.137975, 0.976471, 0.165731), (0.280822, 0.958028, 0.0576383), (0.177293, 0.972005, 0.15419), (0.280822, 0.958028, 0.0576383), (0.137975, 0.976471, 0.165731), (0.259505, 0.961672, 0.0885686), (-0.259505, 0.961672, 0.0885686), (-0.319334, 0.947642, 1.14622e-13), (-0.319334, 0.947642, 1.14622e-13), (-0.319334, 0.947642, 1.14622e-13), (-0.259505, 0.961672, 0.0885686), (-0.280822, 0.958028, 0.0576383), (-0.319334, 0.947642, 1.14622e-13), (-0.280822, 0.958028, 0.0576383), (-0.319334, 0.947642, 1.14622e-13), (-0.319334, 0.947642, 1.14622e-13), (-0.319334, 0.947642, 1.14622e-13), (-0.319334, 0.947642, 1.14622e-13), (0.259505, 0.961672, 0.0885686), (0.319334, 0.947642, -1.14622e-13), (0.280822, 0.958028, 0.0576383), (0.319334, 0.947642, -1.14622e-13), (0.259505, 0.961672, 0.0885686), (0.319334, 0.947642, -1.14622e-13), (0.319334, 0.947642, -1.14622e-13), (0.259505, 0.961672, 0.0885686), (0.319334, 0.947642, -1.14622e-13), (0.319334, 0.947642, -1.14622e-13), (0.319334, 0.947642, -1.14622e-13), (0.319334, 0.947642, -1.14622e-13), (3.14345e-13, 0.482759, 0.875753), (-0.605134, 0.401033, 0.687739), (3.14345e-13, 0.482759, 0.875753), (-0.605134, 0.401033, 0.687739), (3.14345e-13, 0.482759, 0.875753), (-0.661771, 0.384589, 0.643545), (-0.661771, 0.384589, 0.643545), (-0.909183, 0.291506, 0.297339), (-0.605134, 0.401033, 0.687739), (-0.909183, 0.291506, 0.297339), (-0.661771, 0.384589, 0.643545), (-0.93326, 0.276567, 0.229209), (-0.93326, 0.276567, 0.229209), (-0.976, 0.21777, 3.50328e-13), (-0.909183, 0.291506, 0.297339), (-0.976, 0.21777, 3.50328e-13), (-0.93326, 0.276567, 0.229209), (-0.976, 0.21777, 3.50328e-13), (0.137975, 0.976471, 0.165731), (6.38771e-14, 0.984038, 0.177959), (6.38771e-14, 0.984038, 0.177959), (6.38771e-14, 0.984038, 0.177959), (0.137975, 0.976471, 0.165731), (0.177293, 0.972005, 0.15419), (0, 1, 0), (0, 1, 0), (0, 1, 0), (0, 1, 0), (0, 1, 0), (0, 1, 0), (0, 1, 0), (0, 1, 0), (0, 1, 0), (0, 1, 0), (0, 1, 0), (0, 1, 0), (0, 1, 0), (0, 1, 0), (0, 1, 0), (0, 1, 0), (0, 1, 0), (0, 1, 0), (-3.58942e-13, 0, -1), (-3.58942e-13, 0, -1), (-3.58942e-13, 0, -1), (-3.58942e-13, 0, -1), (-3.58942e-13, 0, -1), (-3.58942e-13, 0, -1), (-3.58942e-13, 0, -1), (-3.58942e-13, 0, -1), (-3.58942e-13, 0, -1), (-3.58942e-13, 0, -1), (-3.58942e-13, 0, -1), (-3.58942e-13, 0, -1), (-3.58942e-13, 0, -1), (-3.58942e-13, 0, -1), (-3.58942e-13, 0, -1), (-3.58942e-13, 0, -1), (-3.58942e-13, 0, -1), (-3.58942e-13, 0, -1), (6.38771e-14, 0.984038, 0.177959), (-0.177293, 0.972005, 0.15419), (-0.137975, 0.976471, 0.165731), (-0.177293, 0.972005, 0.15419), (6.38771e-14, 0.984038, 0.177959), (6.38771e-14, 0.984038, 0.177959), (-0.137975, 0.976471, 0.165731), (-0.280822, 0.958028, 0.0576383), (-0.259505, 0.961672, 0.0885686), (-0.280822, 0.958028, 0.0576383), (-0.137975, 0.976471, 0.165731), (-0.177293, 0.972005, 0.15419), (0.976, 0.21777, -3.50328e-13), (0.93326, 0.276567, 0.229209), (0.909183, 0.291506, 0.297339), (0.93326, 0.276567, 0.229209), (0.976, 0.21777, -3.50328e-13), (0.976, 0.21777, -3.50328e-13), (-1, 0, 0), (-1, 0, 0), (-1, 0, 0), (-1, 0, 0), (-1, 0, 0), (-1, 0, 0), (0, 0.923879, -0.382683), (0, 0.923879, 0.382683), (0, 0.923879, -0.382683), (0, 0.923879, 0.382683), (0, 0.923879, -0.382683), (0, 0.923879, 0.382683), (1, 0, 0), (1, 0, 0), (1, 0, 0), (1, 0, 0), (1, 0, 0), (1, 0, 0), (0, 0.923879, 0.382683), (0, 0.707107, 0.707107), (0, 0.923879, 0.382683), (0, 0.707107, 0.707107), (0, 0.923879, 0.382683), (0, 0.707107, 0.707107), (0, 0.707107, -0.707107), (0, 0.923879, -0.382683), (0, 0.707107, -0.707107), (0, 0.923879, -0.382683), (0, 0.707107, -0.707107), (0, 0.923879, -0.382683), (-1, 0, 0), (-1, 0, 0), (-1, 0, 0), (-1, 0, 0), (-1, 0, 0), (-1, 0, 0), (0, 0.923879, -0.382683), (0, 0.923879, 0.382683), (0, 0.923879, -0.382683), (0, 0.923879, 0.382683), (0, 0.923879, -0.382683), (0, 0.923879, 0.382683), (1, 0, 0), (1, 0, 0), (1, 0, 0), (1, 0, 0), (1, 0, 0), (1, 0, 0), (0, 0.923879, 0.382683), (0, 0.707107, 0.707107), (0, 0.923879, 0.382683), (0, 0.707107, 0.707107), (0, 0.923879, 0.382683), (0, 0.707107, 0.707107), (0, 0.707107, -0.707107), (0, 0.923879, -0.382683), (0, 0.707107, -0.707107), (0, 0.923879, -0.382683), (0, 0.707107, -0.707107), (0, 0.923879, -0.382683), (-1, 0, 0), (-1, 0, 0), (-1, 0, 0), (-1, 0, 0), (-1, 0, 0), (-1, 0, 0), (0, 0.850651, -0.525731), (0, 0.850651, 0.525731), (0, 0.850651, -0.525731), (0, 0.850651, 0.525731), (0, 0.850651, -0.525731), (0, 0.850651, 0.525731), (1, 0, 0), (1, 0, 0), (1, 0, 0), (1, 0, 0), (1, 0, 0), (1, 0, 0), (0, 0.850651, 0.525731), (0, 0.447214, 0.894427), (0, 0.447214, 0.894427), (0, 0.447214, 0.894427), (0, 0.850651, 0.525731), (0, 0.850651, 0.525731), (0, 0.850651, -0.525731), (0, 0.447214, -0.894427), (0, 0.447214, -0.894427), (0, 0.447214, -0.894427), (0, 0.850651, -0.525731), (0, 0.850651, -0.525731), (0.66703, 0.615055, 0.42045), (0.548276, 0.674978, 0.493759), (0.453343, 0.708982, 0.540208), (0.548276, 0.674978, 0.493759), (0.66703, 0.615055, 0.42045), (0.66703, 0.615055, 0.42045), (2.23693e-13, 0.782062, 0.623201), (-0.548276, 0.674978, 0.493759), (-0.453343, 0.708982, 0.540208), (-0.548276, 0.674978, 0.493759), (2.23693e-13, 0.782062, 0.623201), (2.23693e-13, 0.782062, 0.623201), (-0.548276, 0.674978, 0.493759), (-0.66703, 0.615055, 0.42045), (-0.453343, 0.708982, 0.540208), (-0.66703, 0.615055, 0.42045), (-0.548276, 0.674978, 0.493759), (-0.66703, 0.615055, 0.42045), (0, 1, 0), (0, 1, 0), (0, 1, 0), (0, 1, 0), (0, 1, 0), (0, 1, 0), (0, 1, 0), (0, 1, 0), (0, 1, 0), (2.23693e-13, 0.782062, 0.623201), (0.548276, 0.674978, 0.493759), (2.23693e-13, 0.782062, 0.623201), (0.548276, 0.674978, 0.493759), (2.23693e-13, 0.782062, 0.623201), (0.453343, 0.708982, 0.540208)] (interpolation = "faceVarying")
        texCoord2f[] primvars:st = [(0.46875, 0.025), (0.46875, 0.0516667), (0.46875, 0.025), (0.46875, 0.0516667), (0.46875, 0.025), (0.46875, 0.0516667), (0.46875, 0.025), (0.46875, 0.0516667), (0.46875, 0.0516667), (0.46875, 0.0516667), (0.46875, 0.025), (0.46875, 0.025), (0.46875, 0.025), (0.46875, 0.0516667), (0.46875, 0.0516667), (0.46875, 0.0516667), (0.46875, 0.025), (0.46875, 0.025), (0.46875, 0.225), (0.46875, 0.145), (0.46875, 0.145), (0.46875, 0.145), (0.46875, 0.225), (0.46875, 0.205), (0.46875, 0.205), (0.46875, 0.225), (0.46875, 0.205), (0.46875, 0.225), (0.46875, 0.205), (0.46875, 0.225), (0.46875, 0.145), (0.46875, 0.205), (0.46875, 0.225), (0.46875, 0.205), (0.46875, 0.145), (0.46875, 0.145), (0.46875, 0.145), (0.46875, 0.225), (0.46875, 0.145), (0.46875, 0.225), (0.46875, 0.145), (0.46875, 0.225), (0.46875, 0.105), (0.46875, 0.0516667), (0.46875, 0.105), (0.46875, 0.0516667), (0.46875, 0.105), (0.46875, 0.0516667), (0.46875, 0.145), (0.46875, 0.205), (0.46875, 0.145), (0.46875, 0.205), (0.46875, 0.145), (0.46875, 0.205), (0.46875, 0.0516667), (0.46875, 0.105), (0.46875, 0.105), (0.46875, 0.105), (0.46875, 0.0516667), (0.46875, 0.0516667), (0.46875, 0.025), (0.46875, 0.0516667), (0.46875, 0.025), (0.46875, 0.0516667), (0.46875, 0.025), (0.46875, 0.0516667), (0.46875, 0.225), (0.46875, 0.145), (0.46875, 0.145), (0.46875, 0.145), (0.46875, 0.225), (0.46875, 0.205), (0.46875, 0.205), (0.46875, 0.225), (0.46875, 0.205), (0.46875, 0.225), (0.46875, 0.205), (0.46875, 0.225), (0.46875, 0.145), (0.46875, 0.205), (0.46875, 0.225), (0.46875, 0.205), (0.46875, 0.145), (0.46875, 0.145), (0.46875, 0.225), (0.46875, 0.145), (0.46875, 0.145), (0.46875, 0.145), (0.46875, 0.225), (0.46875, 0.225), (0.46875, 0.0516667), (0.46875, 0.025), (0.46875, 0.025), (0.46875, 0.025), (0.46875, 0.0516667), (0.46875, 0.0516667), (0.46875, 0.205), (0.46875, 0.145), (0.46875, 0.145), (0.46875, 0.145), (0.46875, 0.205), (0.46875, 0.205), (0.46875, 0.0516667), (0.46875, 0.025), (0.46875, 0.025), (0.46875, 0.025), (0.46875, 0.0516667), (0.46875, 0.0516667), (0.46875, 0.025), (0.46875, 0.0516667), (0.46875, 0.0516667), (0.46875, 0.0516667), (0.46875, 0.025), (0.46875, 0.025), (0.46875, 0.0516667), (0.46875, 0.105), (0.46875, 0.105), (0.46875, 0.105), (0.46875, 0.0516667), (0.46875, 0.0516667), (0.46875, 0.025), (0.46875, 0.025), (0.46875, 0.025), (0.46875, 0.025), (0.46875, 0.025), (0.46875, 0.025), (0.46875, 0.025), (0.46875, 0.025), (0.46875, 0.025), (0.46875, 0.025), (0.46875, 0.025), (0.46875, 0.025), (0.46875, 0.025), (0.46875, 0.025), (0.46875, 0.025), (0.46875, 0.205), (0.46875, 0.205), (0.46875, 0.205), (0.46875, 0.205), (0.46875, 0.205), (0.46875, 0.205), (0.46875, 0.105), (0.46875, 0.0516667), (0.46875, 0.0516667), (0.46875, 0.0516667), (0.46875, 0.105), (0.46875, 0.105), (0.46875, 0.0516667), (0.46875, 0.105), (0.46875, 0.105), (0.46875, 0.105), (0.46875, 0.0516667), (0.46875, 0.0516667), (0.46875, 0.184934), (0.46875, 0.145), (0.46875, 0.145), (0.46875, 0.145), (0.46875, 0.184934), (0.46875, 0.184934), (0.46875, 0.105), (0.46875, 0.0516667), (0.46875, 0.105), (0.46875, 0.0516667), (0.46875, 0.105), (0.46875, 0.0516667), (0.46875, 0.225), (0.46875, 0.225), (0.46875, 0.225), (0.46875, 0.225), (0.46875, 0.225), (0.46875, 0.225), (0.46875, 0.0516667), (0.46875, 0.105), (0.46875, 0.105), (0.46875, 0.105), (0.46875, 0.0516667), (0.46875, 0.0516667), (0.46875, 0.145), (0.46875, 0.184934), (0.46875, 0.145), (0.46875, 0.184934), (0.46875, 0.145), (0.46875, 0.184934), (0.46875, 0.184934), (0.46875, 0.145), (0.46875, 0.145), (0.46875, 0.145), (0.46875, 0.184934), (0.46875, 0.184934), (0.46875, 0.184934), (0.46875, 0.184934), (0.46875, 0.184934), (0.46875, 0.184934), (0.46875, 0.184934), (0.46875, 0.184934), (0.46875, 0.225), (0.46875, 0.025), (0.46875, 0.125), (0.46875, 0.025), (0.46875, 0.225), (0.46875, 0.025), (0.46875, 0.125), (0.46875, 0.025), (0.46875, 0.025), (0.46875, 0.025), (0.46875, 0.125), (0.46875, 0.125), (0.46875, 0.025), (0.46875, 0.125), (0.46875, 0.025), (0.46875, 0.125), (0.46875, 0.025), (0.46875, 0.225), (0.46875, 0.225), (0.46875, 0.025), (0.46875, 0.025), (0.46875, 0.025), (0.46875, 0.225), (0.46875, 0.225), (0.46875, 0.125), (0.46875, 0.225), (0.46875, 0.225), (0.46875, 0.225), (0.46875, 0.125), (0.46875, 0.125), (0.84375, 0.355), (0.84375, 0.381667), (0.84375, 0.355), (0.84375, 0.381667), (0.84375, 0.355), (0.84375, 0.381667), (0.84375, 0.381667), (0.84375, 0.355), (0.84375, 0.355), (0.84375, 0.355), (0.84375, 0.381667), (0.84375, 0.381667), (0.84375, 0.381667), (0.84375, 0.395), (0.84375, 0.395), (0.84375, 0.395), (0.84375, 0.381667), (0.84375, 0.381667), (0.84375, 0.381667), (0.84375, 0.395), (0.84375, 0.381667), (0.84375, 0.395), (0.84375, 0.381667), (0.84375, 0.395), (0.84375, 0.395), (0.84375, 0.395), (0.84375, 0.395), (0.84375, 0.395), (0.84375, 0.395), (0.84375, 0.395), (0.84375, 0.381667), (0.84375, 0.395), (0.84375, 0.395), (0.84375, 0.395), (0.84375, 0.381667), (0.84375, 0.395), (0.84375, 0.395), (0.84375, 0.381667), (0.84375, 0.381667), (0.84375, 0.381667), (0.84375, 0.395), (0.84375, 0.395), (0.84375, 0.381667), (0.84375, 0.355), (0.84375, 0.355), (0.84375, 0.355), (0.84375, 0.381667), (0.84375, 0.381667), (0.84375, 0.381667), (0.84375, 0.355), (0.84375, 0.355), (0.84375, 0.355), (0.84375, 0.381667), (0.84375, 0.381667), (0.84375, 0.381667), (0.84375, 0.355), (0.84375, 0.355), (0.84375, 0.355), (0.84375, 0.381667), (0.84375, 0.381667), (0.84375, 0.381667), (0.84375, 0.395), (0.84375, 0.381667), (0.84375, 0.395), (0.84375, 0.381667), (0.84375, 0.395), (0.84375, 0.395), (0.84375, 0.395), (0.84375, 0.395), (0.84375, 0.395), (0.84375, 0.395), (0.84375, 0.395), (0.84375, 0.395), (0.84375, 0.395), (0.84375, 0.395), (0.84375, 0.395), (0.84375, 0.395), (0.84375, 0.395), (0.84375, 0.395), (0.84375, 0.395), (0.84375, 0.395), (0.84375, 0.395), (0.84375, 0.395), (0.84375, 0.395), (0.84375, 0.381667), (0.84375, 0.355), (0.84375, 0.355), (0.84375, 0.355), (0.84375, 0.381667), (0.84375, 0.381667), (0.84375, 0.381667), (0.84375, 0.381667), (0.84375, 0.395), (0.84375, 0.381667), (0.84375, 0.395), (0.84375, 0.395), (0.84375, 0.395), (0.84375, 0.395), (0.84375, 0.395), (0.84375, 0.395), (0.84375, 0.395), (0.84375, 0.395), (0.84375, 0.381667), (0.84375, 0.395), (0.84375, 0.381667), (0.84375, 0.395), (0.84375, 0.381667), (0.84375, 0.395), (0.84375, 0.381667), (0.84375, 0.395), (0.84375, 0.381667), (0.84375, 0.395), (0.84375, 0.381667), (0.84375, 0.395), (0.84375, 0.355), (0.84375, 0.381667), (0.84375, 0.355), (0.84375, 0.381667), (0.84375, 0.355), (0.84375, 0.381667), (0.71875, 0.025), (0.71875, 0.225), (0.71875, 0.025), (0.71875, 0.225), (0.71875, 0.025), (0.71875, 0.225), (0.71875, 0.225), (0.71875, 0.225), (0.71875, 0.225), (0.71875, 0.225), (0.71875, 0.225), (0.71875, 0.225), (0.71875, 0.225), (0.71875, 0.025), (0.71875, 0.025), (0.71875, 0.025), (0.71875, 0.225), (0.71875, 0.225), (0.71875, 0.225), (0.71875, 0.025), (0.71875, 0.225), (0.71875, 0.025), (0.71875, 0.225), (0.71875, 0.025), (0.71875, 0.025), (0.71875, 0.225), (0.71875, 0.025), (0.71875, 0.225), (0.71875, 0.025), (0.71875, 0.225), (0.71875, 0.025), (0.71875, 0.225), (0.71875, 0.025), (0.71875, 0.225), (0.71875, 0.025), (0.71875, 0.225), (0.71875, 0.225), (0.71875, 0.225), (0.71875, 0.225), (0.71875, 0.225), (0.71875, 0.225), (0.71875, 0.225), (0.71875, 0.225), (0.71875, 0.025), (0.71875, 0.025), (0.71875, 0.025), (0.71875, 0.225), (0.71875, 0.225), (0.71875, 0.225), (0.71875, 0.025), (0.71875, 0.225), (0.71875, 0.025), (0.71875, 0.225), (0.71875, 0.025), (0.71875, 0.025), (0.71875, 0.225), (0.71875, 0.025), (0.71875, 0.225), (0.71875, 0.025), (0.71875, 0.225), (0.71875, 0.025), (0.71875, 0.225), (0.71875, 0.025), (0.71875, 0.225), (0.71875, 0.025), (0.71875, 0.225), (0.71875, 0.225), (0.71875, 0.225), (0.71875, 0.225), (0.71875, 0.225), (0.71875, 0.225), (0.71875, 0.225), (0.71875, 0.225), (0.71875, 0.025), (0.71875, 0.025), (0.71875, 0.025), (0.71875, 0.225), (0.71875, 0.225), (0.71875, 0.225), (0.71875, 0.025), (0.71875, 0.025), (0.71875, 0.025), (0.71875, 0.225), (0.71875, 0.225), (0.71875, 0.225), (0.71875, 0.025), (0.71875, 0.025), (0.71875, 0.025), (0.71875, 0.225), (0.71875, 0.225), (0.09375, 0.025), (0.09375, 0.225), (0.09375, 0.025), (0.09375, 0.225), (0.09375, 0.025), (0.09375, 0.225), (0.09375, 0.025), (0.09375, 0.225), (0.09375, 0.025), (0.09375, 0.225), (0.09375, 0.025), (0.09375, 0.225), (0.09375, 0.225), (0.09375, 0.025), (0.09375, 0.025), (0.09375, 0.025), (0.09375, 0.225), (0.09375, 0.225), (0.09375, 0.225), (0.09375, 0.225), (0.09375, 0.225), (0.09375, 0.225), (0.09375, 0.225), (0.09375, 0.225), (0.09375, 0.225), (0.09375, 0.225), (0.09375, 0.225), (0.09375, 0.025), (0.09375, 0.225), (0.09375, 0.225), (0.09375, 0.225), (0.09375, 0.025), (0.09375, 0.025), (0.46875, 0.025), (0.46875, 0.0516667), (0.46875, 0.025), (0.46875, 0.0516667), (0.46875, 0.025), (0.46875, 0.0516667), (0.46875, 0.025), (0.46875, 0.0516667), (0.46875, 0.0516667), (0.46875, 0.0516667), (0.46875, 0.025), (0.46875, 0.025), (0.46875, 0.025), (0.46875, 0.0516667), (0.46875, 0.0516667), (0.46875, 0.0516667), (0.46875, 0.025), (0.46875, 0.025), (0.46875, 0.225), (0.46875, 0.145), (0.46875, 0.145), (0.46875, 0.145), (0.46875, 0.225), (0.46875, 0.205), (0.46875, 0.205), (0.46875, 0.225), (0.46875, 0.205), (0.46875, 0.225), (0.46875, 0.205), (0.46875, 0.225), (0.46875, 0.145), (0.46875, 0.205), (0.46875, 0.225), (0.46875, 0.205), (0.46875, 0.145), (0.46875, 0.145), (0.46875, 0.145), (0.46875, 0.225), (0.46875, 0.145), (0.46875, 0.225), (0.46875, 0.145), (0.46875, 0.225), (0.46875, 0.105), (0.46875, 0.0516667), (0.46875, 0.105), (0.46875, 0.0516667), (0.46875, 0.105), (0.46875, 0.0516667), (0.46875, 0.145), (0.46875, 0.205), (0.46875, 0.145), (0.46875, 0.205), (0.46875, 0.145), (0.46875, 0.205), (0.46875, 0.0516667), (0.46875, 0.105), (0.46875, 0.105), (0.46875, 0.105), (0.46875, 0.0516667), (0.46875, 0.0516667), (0.46875, 0.025), (0.46875, 0.0516667), (0.46875, 0.025), (0.46875, 0.0516667), (0.46875, 0.025), (0.46875, 0.0516667), (0.46875, 0.225), (0.46875, 0.145), (0.46875, 0.145), (0.46875, 0.145), (0.46875, 0.225), (0.46875, 0.205), (0.46875, 0.205), (0.46875, 0.225), (0.46875, 0.205), (0.46875, 0.225), (0.46875, 0.205), (0.46875, 0.225), (0.46875, 0.145), (0.46875, 0.205), (0.46875, 0.225), (0.46875, 0.205), (0.46875, 0.145), (0.46875, 0.145), (0.46875, 0.225), (0.46875, 0.145), (0.46875, 0.145), (0.46875, 0.145), (0.46875, 0.225), (0.46875, 0.225), (0.46875, 0.0516667), (0.46875, 0.025), (0.46875, 0.025), (0.46875, 0.025), (0.46875, 0.0516667), (0.46875, 0.0516667), (0.46875, 0.205), (0.46875, 0.145), (0.46875, 0.145), (0.46875, 0.145), (0.46875, 0.205), (0.46875, 0.205), (0.46875, 0.0516667), (0.46875, 0.025), (0.46875, 0.025), (0.46875, 0.025), (0.46875, 0.0516667), (0.46875, 0.0516667), (0.46875, 0.025), (0.46875, 0.0516667), (0.46875, 0.0516667), (0.46875, 0.0516667), (0.46875, 0.025), (0.46875, 0.025), (0.46875, 0.0516667), (0.46875, 0.105), (0.46875, 0.105), (0.46875, 0.105), (0.46875, 0.0516667), (0.46875, 0.0516667), (0.46875, 0.025), (0.46875, 0.025), (0.46875, 0.025), (0.46875, 0.025), (0.46875, 0.025), (0.46875, 0.025), (0.46875, 0.025), (0.46875, 0.025), (0.46875, 0.025), (0.46875, 0.025), (0.46875, 0.025), (0.46875, 0.025), (0.46875, 0.025), (0.46875, 0.025), (0.46875, 0.025), (0.46875, 0.205), (0.46875, 0.205), (0.46875, 0.205), (0.46875, 0.205), (0.46875, 0.205), (0.46875, 0.205), (0.46875, 0.105), (0.46875, 0.0516667), (0.46875, 0.0516667), (0.46875, 0.0516667), (0.46875, 0.105), (0.46875, 0.105), (0.46875, 0.0516667), (0.46875, 0.105), (0.46875, 0.105), (0.46875, 0.105), (0.46875, 0.0516667), (0.46875, 0.0516667), (0.46875, 0.184934), (0.46875, 0.145), (0.46875, 0.145), (0.46875, 0.145), (0.46875, 0.184934), (0.46875, 0.184934), (0.46875, 0.105), (0.46875, 0.0516667), (0.46875, 0.105), (0.46875, 0.0516667), (0.46875, 0.105), (0.46875, 0.0516667), (0.46875, 0.225), (0.46875, 0.225), (0.46875, 0.225), (0.46875, 0.225), (0.46875, 0.225), (0.46875, 0.225), (0.46875, 0.0516667), (0.46875, 0.105), (0.46875, 0.105), (0.46875, 0.105), (0.46875, 0.0516667), (0.46875, 0.0516667), (0.46875, 0.145), (0.46875, 0.184934), (0.46875, 0.145), (0.46875, 0.184934), (0.46875, 0.145), (0.46875, 0.184934), (0.46875, 0.184934), (0.46875, 0.145), (0.46875, 0.145), (0.46875, 0.145), (0.46875, 0.184934), (0.46875, 0.184934), (0.46875, 0.184934), (0.46875, 0.184934), (0.46875, 0.184934), (0.46875, 0.184934), (0.46875, 0.184934), (0.46875, 0.184934), (0.46875, 0.225), (0.46875, 0.025), (0.46875, 0.125), (0.46875, 0.025), (0.46875, 0.225), (0.46875, 0.025), (0.46875, 0.125), (0.46875, 0.025), (0.46875, 0.025), (0.46875, 0.025), (0.46875, 0.125), (0.46875, 0.125), (0.46875, 0.025), (0.46875, 0.125), (0.46875, 0.025), (0.46875, 0.125), (0.46875, 0.025), (0.46875, 0.225), (0.46875, 0.225), (0.46875, 0.025), (0.46875, 0.025), (0.46875, 0.025), (0.46875, 0.225), (0.46875, 0.225), (0.46875, 0.125), (0.46875, 0.225), (0.46875, 0.225), (0.46875, 0.225), (0.46875, 0.125), (0.46875, 0.125), (0.84375, 0.355), (0.84375, 0.381667), (0.84375, 0.355), (0.84375, 0.381667), (0.84375, 0.355), (0.84375, 0.381667), (0.84375, 0.381667), (0.84375, 0.355), (0.84375, 0.355), (0.84375, 0.355), (0.84375, 0.381667), (0.84375, 0.381667), (0.84375, 0.381667), (0.84375, 0.395), (0.84375, 0.395), (0.84375, 0.395), (0.84375, 0.381667), (0.84375, 0.381667), (0.84375, 0.381667), (0.84375, 0.395), (0.84375, 0.381667), (0.84375, 0.395), (0.84375, 0.381667), (0.84375, 0.395), (0.84375, 0.395), (0.84375, 0.395), (0.84375, 0.395), (0.84375, 0.395), (0.84375, 0.395), (0.84375, 0.395), (0.84375, 0.381667), (0.84375, 0.395), (0.84375, 0.395), (0.84375, 0.395), (0.84375, 0.381667), (0.84375, 0.395), (0.84375, 0.395), (0.84375, 0.381667), (0.84375, 0.381667), (0.84375, 0.381667), (0.84375, 0.395), (0.84375, 0.395), (0.84375, 0.381667), (0.84375, 0.355), (0.84375, 0.355), (0.84375, 0.355), (0.84375, 0.381667), (0.84375, 0.381667), (0.84375, 0.381667), (0.84375, 0.355), (0.84375, 0.355), (0.84375, 0.355), (0.84375, 0.381667), (0.84375, 0.381667), (0.84375, 0.381667), (0.84375, 0.355), (0.84375, 0.355), (0.84375, 0.355), (0.84375, 0.381667), (0.84375, 0.381667), (0.84375, 0.381667), (0.84375, 0.395), (0.84375, 0.381667), (0.84375, 0.395), (0.84375, 0.381667), (0.84375, 0.395), (0.84375, 0.395), (0.84375, 0.395), (0.84375, 0.395), (0.84375, 0.395), (0.84375, 0.395), (0.84375, 0.395), (0.84375, 0.395), (0.84375, 0.395), (0.84375, 0.395), (0.84375, 0.395), (0.84375, 0.395), (0.84375, 0.395), (0.84375, 0.395), (0.84375, 0.395), (0.84375, 0.395), (0.84375, 0.395), (0.84375, 0.395), (0.84375, 0.395), (0.84375, 0.381667), (0.84375, 0.355), (0.84375, 0.355), (0.84375, 0.355), (0.84375, 0.381667), (0.84375, 0.381667), (0.84375, 0.381667), (0.84375, 0.381667), (0.84375, 0.395), (0.84375, 0.381667), (0.84375, 0.395), (0.84375, 0.395), (0.84375, 0.395), (0.84375, 0.395), (0.84375, 0.395), (0.84375, 0.395), (0.84375, 0.395), (0.84375, 0.395), (0.84375, 0.381667), (0.84375, 0.395), (0.84375, 0.381667), (0.84375, 0.395), (0.84375, 0.381667), (0.84375, 0.395), (0.84375, 0.381667), (0.84375, 0.395), (0.84375, 0.381667), (0.84375, 0.395), (0.84375, 0.381667), (0.84375, 0.395), (0.84375, 0.355), (0.84375, 0.381667), (0.84375, 0.355), (0.84375, 0.381667), (0.84375, 0.355), (0.84375, 0.381667), (0.71875, 0.025), (0.71875, 0.225), (0.71875, 0.025), (0.71875, 0.225), (0.71875, 0.025), (0.71875, 0.225), (0.71875, 0.225), (0.71875, 0.225), (0.71875, 0.225), (0.71875, 0.225), (0.71875, 0.225), (0.71875, 0.225), (0.71875, 0.225), (0.71875, 0.025), (0.71875, 0.025), (0.71875, 0.025), (0.71875, 0.225), (0.71875, 0.225), (0.71875, 0.225), (0.71875, 0.025), (0.71875, 0.225), (0.71875, 0.025), (0.71875, 0.225), (0.71875, 0.025), (0.71875, 0.025), (0.71875, 0.225), (0.71875, 0.025), (0.71875, 0.225), (0.71875, 0.025), (0.71875, 0.225), (0.71875, 0.025), (0.71875, 0.225), (0.71875, 0.025), (0.71875, 0.225), (0.71875, 0.025), (0.71875, 0.225), (0.71875, 0.225), (0.71875, 0.225), (0.71875, 0.225), (0.71875, 0.225), (0.71875, 0.225), (0.71875, 0.225), (0.71875, 0.225), (0.71875, 0.025), (0.71875, 0.025), (0.71875, 0.025), (0.71875, 0.225), (0.71875, 0.225), (0.71875, 0.225), (0.71875, 0.025), (0.71875, 0.225), (0.71875, 0.025), (0.71875, 0.225), (0.71875, 0.025), (0.71875, 0.025), (0.71875, 0.225), (0.71875, 0.025), (0.71875, 0.225), (0.71875, 0.025), (0.71875, 0.225), (0.71875, 0.025), (0.71875, 0.225), (0.71875, 0.025), (0.71875, 0.225), (0.71875, 0.025), (0.71875, 0.225), (0.71875, 0.225), (0.71875, 0.225), (0.71875, 0.225), (0.71875, 0.225), (0.71875, 0.225), (0.71875, 0.225), (0.71875, 0.225), (0.71875, 0.025), (0.71875, 0.025), (0.71875, 0.025), (0.71875, 0.225), (0.71875, 0.225), (0.71875, 0.225), (0.71875, 0.025), (0.71875, 0.025), (0.71875, 0.025), (0.71875, 0.225), (0.71875, 0.225), (0.71875, 0.225), (0.71875, 0.025), (0.71875, 0.025), (0.71875, 0.025), (0.71875, 0.225), (0.71875, 0.225), (0.09375, 0.025), (0.09375, 0.225), (0.09375, 0.025), (0.09375, 0.225), (0.09375, 0.025), (0.09375, 0.225), (0.09375, 0.025), (0.09375, 0.225), (0.09375, 0.025), (0.09375, 0.225), (0.09375, 0.025), (0.09375, 0.225), (0.09375, 0.225), (0.09375, 0.025), (0.09375, 0.025), (0.09375, 0.025), (0.09375, 0.225), (0.09375, 0.225), (0.09375, 0.225), (0.09375, 0.225), (0.09375, 0.225), (0.09375, 0.225), (0.09375, 0.225), (0.09375, 0.225), (0.09375, 0.225), (0.09375, 0.225), (0.09375, 0.225), (0.09375, 0.025), (0.09375, 0.225), (0.09375, 0.225), (0.09375, 0.225), (0.09375, 0.025), (0.09375, 0.025)] (interpolation = "faceVarying")
        uniform token subdivisionScheme = "none"
        rel material:binding = </Vehicle/Materials/colormap>
    }
    def Scope "Materials" {
        def Material "colormap" {
            token outputs:surface.connect = </Vehicle/Materials/colormap/surface.outputs:surface>
            def Shader "surface" {
                uniform token info:id = "UsdPreviewSurface"
                float inputs:roughness = 0.7
                float inputs:metallic = 0
                color3f inputs:diffuseColor.connect = </Vehicle/Materials/colormap/texture.outputs:rgb>
                token outputs:surface
            }
            def Shader "stReader" {
                uniform token info:id = "UsdPrimvarReader_float2"
                token inputs:varname = "st"
                float2 outputs:result
            }
            def Shader "texture" {
                uniform token info:id = "UsdUVTexture"
                asset inputs:file = @kenney-water-colormap.png@
                float2 inputs:st.connect = </Vehicle/Materials/colormap/stReader.outputs:result>
                token inputs:wrapS = "repeat"
                token inputs:wrapT = "repeat"
                float3 outputs:rgb
            }
        }
    }
}
