#usda 1.0
(
    defaultPrim = "Vehicle"
    metersPerUnit = 1
    upAxis = "Y"
)
def Xform "Vehicle" {
    def Mesh "mesh_colormap" {
        int[] faceVertexCounts = [3, 3, 3, 3, 3, 3, 3, 3, 3, 3, 3, 3, 3, 3, 3, 3, 3, 3, 3, 3, 3, 3, 3, 3, 3, 3, 3, 3, 3, 3, 3, 3, 3, 3, 3, 3, 3, 3, 3, 3, 3, 3, 3, 3, 3, 3, 3, 3, 3, 3, 3, 3, 3, 3, 3, 3, 3, 3, 3, 3, 3, 3, 3, 3, 3, 3, 3, 3, 3, 3, 3, 3, 3, 3, 3, 3, 3, 3, 3, 3, 3, 3, 3, 3, 3, 3, 3, 3, 3, 3, 3, 3, 3, 3, 3, 3, 3, 3, 3, 3, 3, 3, 3, 3, 3, 3, 3, 3, 3, 3, 3, 3, 3, 3, 3, 3, 3, 3, 3, 3, 3, 3, 3, 3, 3, 3, 3, 3, 3, 3, 3, 3, 3, 3, 3, 3, 3, 3, 3, 3, 3, 3, 3, 3, 3, 3, 3, 3, 3, 3, 3, 3, 3, 3, 3, 3, 3, 3, 3, 3, 3, 3, 3, 3, 3, 3, 3, 3, 3, 3, 3, 3, 3, 3, 3, 3, 3, 3, 3, 3, 3, 3, 3, 3, 3, 3, 3, 3, 3, 3, 3, 3, 3, 3, 3, 3, 3, 3, 3, 3, 3, 3, 3, 3, 3, 3, 3, 3, 3, 3, 3, 3, 3, 3, 3, 3, 3, 3, 3, 3, 3, 3, 3, 3, 3, 3, 3, 3, 3, 3, 3, 3, 3, 3, 3, 3, 3, 3, 3, 3, 3, 3, 3, 3, 3, 3, 3, 3, 3, 3, 3, 3, 3, 3, 3, 3, 3, 3, 3, 3, 3, 3, 3, 3, 3, 3, 3, 3, 3, 3, 3, 3, 3, 3, 3, 3, 3, 3, 3, 3, 3, 3, 3, 3, 3, 3, 3, 3, 3, 3, 3, 3, 3, 3, 3, 3, 3, 3, 3, 3, 3, 3, 3, 3, 3, 3, 3, 3]
        int[] faceVertexIndices = [2, 1, 0, 1, 2, 3, 2, 5, 4, 5, 2, 0, 8, 7, 6, 7, 8, 9, 11, 10, 5, 10, 11, 12, 1, 14, 13, 14, 1, 15, 12, 7, 10, 7, 12, 6, 16, 5, 0, 5, 16, 11, 13, 11, 16, 11, 13, 12, 12, 13, 6, 6, 13, 8, 8, 13, 14, 15, 3, 17, 3, 15, 1, 0, 13, 16, 13, 0, 1, 10, 19, 18, 19, 10, 7, 14, 9, 8, 9, 14, 15, 9, 19, 7, 19, 9, 20, 9, 17, 20, 17, 9, 15, 4, 10, 18, 10, 4, 5, 23, 22, 21, 22, 23, 24, 23, 25, 24, 25, 23, 26, 26, 23, 27, 26, 27, 28, 28, 27, 29, 30, 28, 29, 28, 30, 31, 29, 27, 32, 32, 27, 33, 32, 33, 34, 36, 26, 35, 26, 36, 25, 28, 35, 26, 35, 28, 37, 39, 33, 38, 33, 39, 34, 28, 40, 37, 40, 28, 31, 42, 29, 41, 29, 42, 30, 41, 40, 42, 40, 41, 37, 37, 41, 43, 37, 43, 35, 35, 43, 21, 22, 35, 21, 35, 22, 36, 21, 43, 44, 44, 43, 39, 44, 39, 38, 44, 23, 21, 23, 44, 27, 38, 27, 44, 27, 38, 33, 43, 34, 39, 34, 43, 32, 29, 43, 41, 43, 29, 32, 45, 18, 19, 18, 45, 46, 47, 19, 20, 19, 47, 45, 17, 47, 20, 47, 17, 48, 3, 48, 17, 48, 3, 49, 46, 4, 18, 4, 46, 50, 50, 2, 4, 2, 50, 51, 45, 53, 52, 53, 45, 47, 45, 54, 46, 54, 45, 52, 57, 56, 55, 56, 57, 58, 46, 59, 50, 59, 46, 54, 51, 3, 2, 3, 51, 49, 49, 51, 56, 49, 56, 58, 60, 58, 57, 58, 60, 48, 58, 48, 49, 56, 51, 55, 51, 59, 55, 59, 51, 50, 47, 60, 53, 60, 47, 48, 63, 62, 61, 62, 63, 64, 62, 66, 65, 66, 62, 64, 65, 68, 67, 68, 65, 66, 64, 68, 66, 68, 64, 63, 61, 65, 67, 65, 61, 62, 71, 70, 69, 70, 71, 72, 70, 74, 73, 74, 70, 72, 73, 76, 75, 76, 73, 74, 72, 76, 74, 76, 72, 71, 69, 73, 75, 73, 69, 70, 77, 55, 59, 55, 77, 78, 57, 79, 60, 79, 57, 80, 78, 57, 55, 57, 78, 80, 79, 78, 77, 78, 79, 80, 83, 82, 81, 82, 83, 84, 86, 82, 85, 82, 86, 81, 87, 86, 85, 86, 87, 88, 83, 87, 84, 87, 83, 88, 81, 88, 83, 88, 81, 86, 60, 89, 53, 89, 60, 90, 53, 92, 91, 92, 53, 89, 91, 93, 54, 93, 91, 92, 93, 59, 54, 59, 93, 94, 93, 90, 94, 90, 93, 92, 90, 92, 89, 2, 1, 0, 1, 2, 3, 2, 5, 4, 5, 2, 0, 8, 7, 6, 7, 8, 9, 11, 10, 5, 10, 11, 12, 1, 14, 13, 14, 1, 15, 12, 7, 10, 7, 12, 6, 16, 5, 0, 5, 16, 11, 13, 11, 16, 11, 13, 12, 12, 13, 6, 6, 13, 8, 8, 13, 14, 15, 3, 17, 3, 15, 1, 0, 13, 16, 13, 0, 1, 10, 19, 18, 19, 10, 7, 14, 9, 8, 9, 14, 15, 9, 19, 7, 19, 9, 20, 9, 17, 20, 17, 9, 15, 4, 10, 18, 10, 4, 5, 23, 22, 21, 22, 23, 24, 23, 25, 24, 25, 23, 26, 26, 23, 27, 26, 27, 28, 28, 27, 29, 30, 28, 29, 28, 30, 31, 29, 27, 32, 32, 27, 33, 32, 33, 34, 36, 26, 35, 26, 36, 25, 28, 35, 26, 35, 28, 37, 39, 33, 38, 33, 39, 34, 28, 40, 37, 40, 28, 31, 42, 29, 41, 29, 42, 30, 41, 40, 42, 40, 41, 37, 37, 41, 43, 37, 43, 35, 35, 43, 21, 22, 35, 21, 35, 22, 36, 21, 43, 44, 44, 43, 39, 44, 39, 38, 44, 23, 21, 23, 44, 27, 38, 27, 44, 27, 38, 33, 43, 34, 39, 34, 43, 32, 29, 43, 41, 43, 29, 32, 45, 18, 19, 18, 45, 46, 47, 19, 20, 19, 47, 45, 17, 47, 20, 47, 17, 48, 3, 48, 17, 48, 3, 49, 46, 4, 18, 4, 46, 50, 50, 2, 4, 2, 50, 51, 45, 53, 52, 53, 45, 47, 45, 54, 46, 54, 45, 52, 57, 56, 55, 56, 57, 58, 46, 59, 50, 59, 46, 54, 51, 3, 2, 3, 51, 49, 49, 51, 56, 49, 56, 58, 60, 58, 57, 58, 60, 48, 58, 48, 49, 56, 51, 55, 51, 59, 55, 59, 51, 50, 47, 60, 53, 60, 47, 48, 63, 62, 61, 62, 63, 64, 62, 66, 65, 66, 62, 64, 65, 68, 67, 68, 65, 66, 64, 68, 66, 68, 64, 63, 61, 65, 67, 65, 61, 62, 71, 70, 69, 70, 71, 72, 70, 74, 73, 74, 70, 72, 73, 76, 75, 76, 73, 74, 72, 76, 74, 76, 72, 71, 69, 73, 75, 73, 69, 70, 77, 55, 59, 55, 77, 78, 57, 79, 60, 79, 57, 80, 78, 57, 55, 57, 78, 80, 79, 78, 77, 78, 79, 80, 83, 82, 81, 82, 83, 84, 86, 82, 85, 82, 86, 81, 87, 86, 85, 86, 87, 88, 83, 87, 84, 87, 83, 88, 81, 88, 83, 88, 81, 86, 60, 89, 53, 89, 60, 90, 53, 92, 91, 92, 53, 89, 91, 93, 54, 93, 91, 92, 93, 59, 54, 59, 93, 94, 93, 90, 94, 90, 93, 92, 90, 92, 89]
        point3f[] points = [(-0.6783, 0.2, -1.485), (0.6783, 0.2, -1.485), (-0.8925, 0.6, -1.585), (0.8925, 0.6, -1.585), (-0.8925, 0.6, 0.5725), (-0.6783, 0.2, 0.2863), (9.74869e-14, 0, 0.27964), (3.86912e-13, 0.2, 1.0558), (0.178089, 0, 0.181068), (0.296815, 0.2, 0.891514), (-0.296815, 0.2, 0.891514), (-0.40698, 0, -0.18206), (-0.178089, 0, 0.181068), (0.40698, 0, -1.385), (0.40698, 0, -0.18206), (0.6783, 0.2, 0.2863), (-0.40698, 0, -1.385), (0.8925, 0.6, 0.5725), (-0.390547, 0.6, 1.36883), (5.77586e-13, 0.6, 1.585), (0.390547, 0.6, 1.36883), (0.551119, 0.973205, -1.30621), (0.551119, 0.8, -1.20621), (0.551119, 1.0732, -1.13301), (0.551119, 0.9, -1.03301), (0.351119, 0.9, -1.03301), (0.351119, 1.0732, -1.13301), (0.501119, 1.20311, -1.20801), (-0.351119, 1.0732, -1.13301), (-0.551119, 1.0732, -1.13301), (-0.551119, 0.9, -1.03301), (-0.351119, 0.9, -1.03301), (-0.501119, 1.20311, -1.20801), (0.351119, 1.24641, -1.23301), (-0.351119, 1.24641, -1.23301), (0.351119, 0.973205, -1.30621), (0.351119, 0.8, -1.20621), (-0.351119, 0.973205, -1.30621), (0.351119, 1.14641, -1.40621), (-0.351119, 1.14641, -1.40621), (-0.351119, 0.8, -1.20621), (-0.551119, 0.973205, -1.30621), (-0.551119, 0.8, -1.20621), (-0.501119, 1.10311, -1.38121), (0.501119, 1.10311, -1.38121), (5.37291e-13, 0.8, 1.47475), (-0.371019, 0.8, 1.26939), (0.371019, 0.8, 1.26939), (0.847875, 0.8, 0.512875), (0.847875, 0.8, -1.585), (-0.847875, 0.8, 0.512875), (-0.847875, 0.8, -1.585), (3.22208e-13, 0.9, 0.921794), (0.241163, 0.9, 0.788311), (-0.241163, 0.9, 0.788311), (-0.551119, 0.9, -0.933007), (-0.551119, 0.9, -1.585), (0.551119, 0.9, -0.933007), (0.551119, 0.9, -1.585), (-0.551119, 0.9, 0.296575), (0.551119, 0.9, 0.296575), (0.647875, 0.8, -0.385), (0.647875, 0.9, -0.285), (0.647875, 0.8, 0.115), (0.647875, 0.9, 0.015), (0.847875, 0.9, -0.285), (0.847875, 0.9, 0.015), (0.847875, 0.8, -0.385), (0.847875, 0.8, 0.115), (-0.847875, 0.8, -0.385), (-0.847875, 0.9, -0.285), (-0.847875, 0.8, 0.115), (-0.847875, 0.9, 0.015), (-0.647875, 0.9, -0.285), (-0.647875, 0.9, 0.015), (-0.647875, 0.8, -0.385), (-0.647875, 0.8, 0.115), (-0.413339, 1.1995, 0.0770305), (-0.413339, 1.1995, -0.683007), (0.413339, 1.1995, 0.0770305), (0.413339, 1.1995, -0.683007), (-0.2, 1.2495, -0.0229695), (-0.2, 1.1995, -0.0229695), (-0.2, 1.2995, -0.422969), (-0.2, 1.1995, -0.422969), (0.2, 1.1995, -0.0229695), (0.2, 1.2495, -0.0229695), (0.2, 1.1995, -0.422969), (0.2, 1.2995, -0.422969), (0.180872, 1.1995, 0.445833), (0.413339, 1.1995, 0.0770305), (3.22208e-13, 0.9, 0.921794), (1.873e-13, 1.1995, 0.545945), (-0.180872, 1.1995, 0.445833), (-0.413339, 1.1995, 0.0770305)]
        normal3f[] normals = [(-3.48225e-13, -0.242536, -0.970143), (-3.48225e-13, -0.242536, -0.970143), (-3.48225e-13, -0.242536, -0.970143), (-3.48225e-13, -0.242536, -0.970143), (-3.48225e-13, -0.242536, -0.970143), (-3.48225e-13, -0.242536, -0.970143), (-0.881559, -0.472075, 3.16428e-13), (-0.81696, -0.55345, 0.162079), (-0.754441, -0.597847, 0.270921), (-0.81696, -0.55345, 0.162079), (-0.881559, -0.472075, 3.16428e-13), (-0.881559, -0.472075, 3.16428e-13), (0.261964, -0.939502, 0.220704), (8.9566e-14, -0.968368, 0.249528), (8.9566e-14, -0.968368, 0.249528), (8.9566e-14, -0.968368, 0.249528), (0.261964, -0.939502, 0.220704), (0.192022, -0.952574, 0.236073), (-0.518084, -0.852925, 0.0640928), (-0.192022, -0.952574, 0.236073), (-0.39343, -0.905541, 0.158773), (-0.192022, -0.952574, 0.236073), (-0.518084, -0.852925, 0.0640928), (-0.261964, -0.939502, 0.220704), (0.593353, -0.804942, -2.12979e-13), (0.518084, -0.852925, 0.0640928), (0.593353, -0.804942, -2.12979e-13), (0.518084, -0.852925, 0.0640928), (0.593353, -0.804942, -2.12979e-13), (0.39343, -0.905541, 0.158773), (-0.261964, -0.939502, 0.220704), (8.9566e-14, -0.968368, 0.249528), (-0.192022, -0.952574, 0.236073), (8.9566e-14, -0.968368, 0.249528), (-0.261964, -0.939502, 0.220704), (8.9566e-14, -0.968368, 0.249528), (-0.593353, -0.804942, 2.12979e-13), (-0.39343, -0.905541, 0.158773), (-0.593353, -0.804942, 2.12979e-13), (-0.39343, -0.905541, 0.158773), (-0.593353, -0.804942, 2.12979e-13), (-0.518084, -0.852925, 0.0640928), (0, -1, 0), (0, -1, 0), (0, -1, 0), (0, -1, 0), (0, -1, 0), (0, -1, 0), (0, -1, 0), (0, -1, 0), (0, -1, 0), (0, -1, 0), (0, -1, 0), (0, -1, 0), (0, -1, 0), (0, -1, 0), (0, -1, 0), (0.81696, -0.55345, 0.162079), (0.881559, -0.472075, -3.16428e-13), (0.754441, -0.597847, 0.270921), (0.881559, -0.472075, -3.16428e-13), (0.81696, -0.55345, 0.162079), (0.881559, -0.472075, -3.16428e-13), (-3.21048e-13, -0.447214, -0.894427), (-3.21048e-13, -0.447214, -0.894427), (-3.21048e-13, -0.447214, -0.894427), (-3.21048e-13, -0.447214, -0.894427), (-3.21048e-13, -0.447214, -0.894427), (-3.21048e-13, -0.447214, -0.894427), (-0.532339, -0.697377, 0.479875), (2.16437e-13, -0.797751, 0.602987), (-0.4407, -0.728734, 0.524147), (2.16437e-13, -0.797751, 0.602987), (-0.532339, -0.697377, 0.479875), (2.16437e-13, -0.797751, 0.602987), (0.518084, -0.852925, 0.0640928), (0.192022, -0.952574, 0.236073), (0.261964, -0.939502, 0.220704), (0.192022, -0.952574, 0.236073), (0.518084, -0.852925, 0.0640928), (0.39343, -0.905541, 0.158773), (0.532339, -0.697377, 0.479875), (2.16437e-13, -0.797751, 0.602987), (2.16437e-13, -0.797751, 0.602987), (2.16437e-13, -0.797751, 0.602987), (0.532339, -0.697377, 0.479875), (0.4407, -0.728734, 0.524147), (0.532339, -0.697377, 0.479875), (0.754441, -0.597847, 0.270921), (0.4407, -0.728734, 0.524147), (0.754441, -0.597847, 0.270921), (0.532339, -0.697377, 0.479875), (0.81696, -0.55345, 0.162079), (-0.754441, -0.597847, 0.270921), (-0.532339, -0.697377, 0.479875), (-0.4407, -0.728734, 0.524147), (-0.532339, -0.697377, 0.479875), (-0.754441, -0.597847, 0.270921), (-0.81696, -0.55345, 0.162079), (0.987088, 0.138722, -0.0800911), (1, 6.77626e-21, -5.42101e-20), (0.987088, 0.138722, -0.0800911), (1, 6.77626e-21, -5.42101e-20), (0.987088, 0.138722, -0.0800911), (1, 6.77626e-21, -5.42101e-20), (5.42101e-20, 0.5, 0.866026), (5.42101e-20, 0.5, 0.866026), (5.42101e-20, 0.5, 0.866026), (5.42101e-20, 0.5, 0.866026), (5.42101e-20, 0.5, 0.866026), (5.42101e-20, 0.5, 0.866026), (5.42101e-20, 0.5, 0.866026), (5.42101e-20, 0.5, 0.866026), (5.42101e-20, 0.5, 0.866026), (5.42101e-20, 0.5, 0.866026), (5.42101e-20, 0.5, 0.866026), (5.42101e-20, 0.5, 0.866026), (5.42101e-20, 0.5, 0.866026), (5.42101e-20, 0.5, 0.866026), (5.42101e-20, 0.5, 0.866026), (5.42101e-20, 0.5, 0.866026), (5.42101e-20, 0.5, 0.866026), (5.42101e-20, 0.5, 0.866026), (5.42101e-20, 0.5, 0.866026), (5.42101e-20, 0.5, 0.866026), (5.42101e-20, 0.5, 0.866026), (5.42101e-20, 0.5, 0.866026), (5.42101e-20, 0.5, 0.866026), (5.42101e-20, 0.5, 0.866026), (5.42101e-20, 0.5, 0.866026), (5.42101e-20, 0.5, 0.866026), (5.42101e-20, 0.5, 0.866026), (5.42101e-20, 0.5, 0.866026), (5.42101e-20, 0.5, 0.866026), (5.42101e-20, 0.5, 0.866026), (-1, -6.77626e-21, 5.42101e-20), (-1, -6.77626e-21, 5.42101e-20), (-1, -6.77626e-21, 5.42101e-20), (-1, -6.77626e-21, 5.42101e-20), (-1, -6.77626e-21, 5.42101e-20), (-1, -6.77626e-21, 5.42101e-20), (0, -0.866025, 0.5), (0, -0.866025, 0.5), (0, -0.866025, 0.5), (0, -0.866025, 0.5), (0, -0.866025, 0.5), (0, -0.866025, 0.5), (-0.160182, 0.854843, -0.493544), (0.160182, 0.854843, -0.493544), (0.160182, 0.854843, -0.493544), (0.160182, 0.854843, -0.493544), (-0.160182, 0.854843, -0.493544), (-0.160182, 0.854843, -0.493544), (1, 6.77626e-21, -5.42101e-20), (1, 6.77626e-21, -5.42101e-20), (1, 6.77626e-21, -5.42101e-20), (1, 6.77626e-21, -5.42101e-20), (1, 6.77626e-21, -5.42101e-20), (1, 6.77626e-21, -5.42101e-20), (-1, -6.77626e-21, 5.42101e-20), (-0.987088, 0.138722, -0.0800911), (-0.987088, 0.138722, -0.0800911), (-0.987088, 0.138722, -0.0800911), (-1, -6.77626e-21, 5.42101e-20), (-1, -6.77626e-21, 5.42101e-20), (-5.42101e-20, -0.5, -0.866026), (-5.42101e-20, -0.5, -0.866026), (-5.42101e-20, -0.5, -0.866026), (-5.42101e-20, -0.5, -0.866026), (-5.42101e-20, -0.5, -0.866026), (-5.42101e-20, -0.5, -0.866026), (-5.42101e-20, -0.5, -0.866026), (-5.42101e-20, -0.5, -0.866026), (-5.42101e-20, -0.5, -0.866026), (-5.42101e-20, -0.5, -0.866026), (-5.42101e-20, -0.5, -0.866026), (-5.42101e-20, -0.5, -0.866026), (-5.42101e-20, -0.5, -0.866026), (-5.42101e-20, -0.5, -0.866026), (-5.42101e-20, -0.5, -0.866026), (-5.42101e-20, -0.5, -0.866026), (-5.42101e-20, -0.5, -0.866026), (-5.42101e-20, -0.5, -0.866026), (-5.42101e-20, -0.5, -0.866026), (-5.42101e-20, -0.5, -0.866026), (-5.42101e-20, -0.5, -0.866026), (-5.42101e-20, -0.5, -0.866026), (-5.42101e-20, -0.5, -0.866026), (-5.42101e-20, -0.5, -0.866026), (-5.42101e-20, -0.5, -0.866026), (-5.42101e-20, -0.5, -0.866026), (-5.42101e-20, -0.5, -0.866026), (-5.42101e-20, -0.5, -0.866026), (-5.42101e-20, -0.5, -0.866026), (-5.42101e-20, -0.5, -0.866026), (0.707107, 0.612372, -0.353553), (0.987088, 0.138722, -0.0800911), (0.987088, 0.138722, -0.0800911), (0.987088, 0.138722, -0.0800911), (0.707107, 0.612372, -0.353553), (0.707107, 0.612372, -0.353553), (0.160182, 0.854843, -0.493544), (0.707107, 0.612372, -0.353553), (0.707107, 0.612372, -0.353553), (0.707107, 0.612372, -0.353553), (0.160182, 0.854843, -0.493544), (0.160182, 0.854843, -0.493544), (-0.707107, 0.612372, -0.353553), (-0.160182, 0.854843, -0.493544), (-0.160182, 0.854843, -0.493544), (-0.160182, 0.854843, -0.493544), (-0.707107, 0.612372, -0.353553), (-0.707107, 0.612372, -0.353553), (-0.987088, 0.138722, -0.0800911), (-0.707107, 0.612372, -0.353553), (-0.987088, 0.138722, -0.0800911), (-0.707107, 0.612372, -0.353553), (-0.987088, 0.138722, -0.0800911), (-0.707107, 0.612372, -0.353553), (3.14345e-13, 0.482759, 0.875753), (-0.605134, 0.401033, 0.687739), (3.14345e-13, 0.482759, 0.875753), (-0.605134, 0.401033, 0.687739), (3.14345e-13, 0.482759, 0.875753), (-0.661771, 0.384589, 0.643545), (0.661771, 0.384589, 0.643545), (3.14345e-13, 0.482759, 0.875753), (0.605134, 0.401033, 0.687739), (3.14345e-13, 0.482759, 0.875753), (0.661771, 0.384589, 0.643545), (3.14345e-13, 0.482759, 0.875753), (0.909183, 0.291506, 0.297339), (0.661771, 0.384589, 0.643545), (0.605134, 0.401033, 0.687739), (0.661771, 0.384589, 0.643545), (0.909183, 0.291506, 0.297339), (0.93326, 0.276567, 0.229209), (0.976, 0.21777, -3.50328e-13), (0.93326, 0.276567, 0.229209), (0.909183, 0.291506, 0.297339), (0.93326, 0.276567, 0.229209), (0.976, 0.21777, -3.50328e-13), (0.976, 0.21777, -3.50328e-13), (-0.661771, 0.384589, 0.643545), (-0.909183, 0.291506, 0.297339), (-0.605134, 0.401033, 0.687739), (-0.909183, 0.291506, 0.297339), (-0.661771, 0.384589, 0.643545), (-0.93326, 0.276567, 0.229209), (-0.93326, 0.276567, 0.229209), (-0.976, 0.21777, 3.50328e-13), (-0.909183, 0.291506, 0.297339), (-0.976, 0.21777, 3.50328e-13), (-0.93326, 0.276567, 0.229209), (-0.976, 0.21777, 3.50328e-13), (6.38771e-14, 0.984038, 0.177959), (0.177293, 0.972005, 0.15419), (6.38771e-14, 0.984038, 0.177959), (0.177293, 0.972005, 0.15419), (6.38771e-14, 0.984038, 0.177959), (0.137975, 0.976471, 0.165731), (6.38771e-14, 0.984038, 0.177959), (-0.177293, 0.972005, 0.15419), (-0.137975, 0.976471, 0.165731), (-0.177293, 0.972005, 0.15419), (6.38771e-14, 0.984038, 0.177959), (6.38771e-14, 0.984038, 0.177959), (0, 1, 0), (0, 1, 0), (0, 1, 0), (0, 1, 0), (0, 1, 0), (0, 1, 0), (-0.137975, 0.976471, 0.165731), (-0.280822, 0.958028, 0.0576383), (-0.259505, 0.961672, 0.0885686), (-0.280822, 0.958028, 0.0576383), (-0.137975, 0.976471, 0.165731), (-0.177293, 0.972005, 0.15419), (-3.58942e-13, 0, -1), (-3.58942e-13, 0, -1), (-3.58942e-13, 0, -1), (-3.58942e-13, 0, -1), (-3.58942e-13, 0, -1), (-3.58942e-13, 0, -1), (-3.58942e-13, 0, -1), (-3.58942e-13, 0, -1), (-3.58942e-13, 0, -1), (-3.58942e-13, 0, -1), (-3.58942e-13, 0, -1), (-3.58942e-13, 0, -1), (0.280822, 0.958028, 0.0576383), (0.319334, 0.947642, -1.14622e-13), (0.319334, 0.947642, -1.14622e-13), (0.319334, 0.947642, -1.14622e-13), (0.280822, 0.958028, 0.0576383), (0.259505, 0.961672, 0.0885686), (0.319334, 0.947642, -1.14622e-13), (0.259505, 0.961672, 0.0885686), (0.319334, 0.947642, -1.14622e-13), (-0.319334, 0.947642, 1.14622e-13), (-0.319334, 0.947642, 1.14622e-13), (-0.319334, 0.947642, 1.14622e-13), (-0.319334, 0.947642, 1.14622e-13), (-0.280822, 0.958028, 0.0576383), (-0.319334, 0.947642, 1.14622e-13), (-0.280822, 0.958028, 0.0576383), (-0.319334, 0.947642, 1.14622e-13), (-0.259505, 0.961672, 0.0885686), (0.137975, 0.976471, 0.165731), (0.280822, 0.958028, 0.0576383), (0.177293, 0.972005, 0.15419), (0.280822, 0.958028, 0.0576383), (0.137975, 0.976471, 0.165731), (0.259505, 0.961672, 0.0885686), (-1, 0, 0), (-1, 0, 0), (-1, 0, 0), (-1, 0, 0), (-1, 0, 0), (-1, 0, 0), (0, 0.923879, -0.382683), (0, 0.923879, 0.382683), (0, 0.923879, -0.382683), (0, 0.923879, 0.382683), (0, 0.923879, -0.382683), (0, 0.923879, 0.382683), (1, 0, 0), (1, 0, 0), (1, 0, 0), (1, 0, 0), (1, 0, 0), (1, 0, 0), (0, 0.923879, 0.382683), (0, 0.707107, 0.707107), (0, 0.923879, 0.382683), (0, 0.707107, 0.707107), (0, 0.923879, 0.382683), (0, 0.707107, 0.707107), (0, 0.707107, -0.707107), (0, 0.923879, -0.382683), (0, 0.707107, -0.707107), (0, 0.923879, -0.382683), (0, 0.707107, -0.707107), (0, 0.923879, -0.382683), (-1, 0, 0), (-1, 0, 0), (-1, 0, 0), (-1, 0, 0), (-1, 0, 0), (-1, 0, 0), (0, 0.923879, -0.382683), (0, 0.923879, 0.382683), (0, 0.923879, -0.382683), (0, 0.923879, 0.382683), (0, 0.923879, -0.382683), (0, 0.923879, 0.382683), (1, 0, 0), (1, 0, 0), (1, 0, 0), (1, 0, 0), (1, 0, 0), (1, 0, 0), (0, 0.923879, 0.382683), (0, 0.707107, 0.707107), (0, 0.923879, 0.382683), (0, 0.707107, 0.707107), (0, 0.923879, 0.382683), (0, 0.707107, 0.707107), (0, 0.707107, -0.707107), (0, 0.923879, -0.382683), (0, 0.707107, -0.707107), (0, 0.923879, -0.382683), (0, 0.707107, -0.707107), (0, 0.923879, -0.382683), (-0.908481, 0.417927, 3.26092e-13), (-0.908481, 0.417927, 3.26092e-13), (-0.908481, 0.417927, 3.26092e-13), (-0.908481, 0.417927, 3.26092e-13), (-0.908481, 0.417927, 3.26092e-13), (-0.908481, 0.417927, 3.26092e-13), (0.908481, 0.417927, -3.26092e-13), (0.908481, 0.417927, -3.26092e-13), (0.908481, 0.417927, -3.26092e-13), (0.908481, 0.417927, -3.26092e-13), (0.908481, 0.417927, -3.26092e-13), (0.908481, 0.417927, -3.26092e-13), (-2.75559e-13, 0.640811, -0.767698), (-2.75559e-13, 0.640811, -0.767698), (-2.75559e-13, 0.640811, -0.767698), (-2.75559e-13, 0.640811, -0.767698), (-2.75559e-13, 0.640811, -0.767698), (-2.75559e-13, 0.640811, -0.767698), (0, 1, 0), (0, 1, 0), (0, 1, 0), (0, 1, 0), (0, 1, 0), (0, 1, 0), (-1, 0, 3.58942e-13), (-1, 0, 3.58942e-13), (-1, 0, 3.58942e-13), (-1, 0, 3.58942e-13), (-1, 0, 3.58942e-13), (-1, 0, 3.58942e-13), (2.69091e-13, 0.661802, 0.749678), (3.58942e-13, 0, 1), (3.58942e-13, 0, 1), (3.58942e-13, 0, 1), (2.69091e-13, 0.661802, 0.749678), (2.69091e-13, 0.661802, 0.749678), (1, 0, -3.58942e-13), (1, 0, -3.58942e-13), (1, 0, -3.58942e-13), (1, 0, -3.58942e-13), (1, 0, -3.58942e-13), (1, 0, -3.58942e-13), (-3.58942e-13, 0, -1), (-3.58942e-13, 0, -1), (-3.58942e-13, 0, -1), (-3.58942e-13, 0, -1), (-3.58942e-13, 0, -1), (-3.58942e-13, 0, -1), (2.69091e-13, 0.661802, 0.749678), (4.45213e-14, 0.992278, 0.124035), (4.45213e-14, 0.992278, 0.124035), (4.45213e-14, 0.992278, 0.124035), (2.69091e-13, 0.661802, 0.749678), (2.69091e-13, 0.661802, 0.749678), (0.66703, 0.615055, 0.42045), (0.548276, 0.674978, 0.493759), (0.453343, 0.708982, 0.540208), (0.548276, 0.674978, 0.493759), (0.66703, 0.615055, 0.42045), (0.66703, 0.615055, 0.42045), (0.453343, 0.708982, 0.540208), (2.23693e-13, 0.782062, 0.623201), (2.23693e-13, 0.782062, 0.623201), (2.23693e-13, 0.782062, 0.623201), (0.453343, 0.708982, 0.540208), (0.548276, 0.674978, 0.493759), (2.23693e-13, 0.782062, 0.623201), (-0.548276, 0.674978, 0.493759), (-0.453343, 0.708982, 0.540208), (-0.548276, 0.674978, 0.493759), (2.23693e-13, 0.782062, 0.623201), (2.23693e-13, 0.782062, 0.623201), (-0.548276, 0.674978, 0.493759), (-0.66703, 0.615055, 0.42045), (-0.453343, 0.708982, 0.540208), (-0.66703, 0.615055, 0.42045), (-0.548276, 0.674978, 0.493759), (-0.66703, 0.615055, 0.42045), (0, 1, 0), (0, 1, 0), (0, 1, 0), (0, 1, 0), (0, 1, 0), (0, 1, 0), (0, 1, 0), (0, 1, 0), (0, 1, 0), (-3.48225e-13, -0.242536, -0.970143), (-3.48225e-13, -0.242536, -0.970143), (-3.48225e-13, -0.242536, -0.970143), (-3.48225e-13, -0.242536, -0.970143), (-3.48225e-13, -0.242536, -0.970143), (-3.48225e-13, -0.242536, -0.970143), (-0.881559, -0.472075, 3.16428e-13), (-0.81696, -0.55345, 0.162079), (-0.754441, -0.597847, 0.270921), (-0.81696, -0.55345, 0.162079), (-0.881559, -0.472075, 3.16428e-13), (-0.881559, -0.472075, 3.16428e-13), (0.261964, -0.939502, 0.220704), (8.9566e-14, -0.968368, 0.249528), (8.9566e-14, -0.968368, 0.249528), (8.9566e-14, -0.968368, 0.249528), (0.261964, -0.939502, 0.220704), (0.192022, -0.952574, 0.236073), (-0.518084, -0.852925, 0.0640928), (-0.192022, -0.952574, 0.236073), (-0.39343, -0.905541, 0.158773), (-0.192022, -0.952574, 0.236073), (-0.518084, -0.852925, 0.0640928), (-0.261964, -0.939502, 0.220704), (0.593353, -0.804942, -2.12979e-13), (0.518084, -0.852925, 0.0640928), (0.593353, -0.804942, -2.12979e-13), (0.518084, -0.852925, 0.0640928), (0.593353, -0.804942, -2.12979e-13), (0.39343, -0.905541, 0.158773), (-0.261964, -0.939502, 0.220704), (8.9566e-14, -0.968368, 0.249528), (-0.192022, -0.952574, 0.236073), (8.9566e-14, -0.968368, 0.249528), (-0.261964, -0.939502, 0.220704), (8.9566e-14, -0.968368, 0.249528), (-0.593353, -0.804942, 2.12979e-13), (-0.39343, -0.905541, 0.158773), (-0.593353, -0.804942, 2.12979e-13), (-0.39343, -0.905541, 0.158773), (-0.593353, -0.804942, 2.12979e-13), (-0.518084, -0.852925, 0.0640928), (0, -1, 0), (0, -1, 0), (0, -1, 0), (0, -1, 0), (0, -1, 0), (0, -1, 0), (0, -1, 0), (0, -1, 0), (0, -1, 0), (0, -1, 0), (0, -1, 0), (0, -1, 0), (0, -1, 0), (0, -1, 0), (0, -1, 0), (0.81696, -0.55345, 0.162079), (0.881559, -0.472075, -3.16428e-13), (0.754441, -0.597847, 0.270921), (0.881559, -0.472075, -3.16428e-13), (0.81696, -0.55345, 0.162079), (0.881559, -0.472075, -3.16428e-13), (-3.21048e-13, -0.447214, -0.894427), (-3.21048e-13, -0.447214, -0.894427), (-3.21048e-13, -0.447214, -0.894427), (-3.21048e-13, -0.447214, -0.894427), (-3.21048e-13, -0.447214, -0.894427), (-3.21048e-13, -0.447214, -0.894427), (-0.532339, -0.697377, 0.479875), (2.16437e-13, -0.797751, 0.602987), (-0.4407, -0.728734, 0.524147), (2.16437e-13, -0.797751, 0.602987), (-0.532339, -0.697377, 0.479875), (2.16437e-13, -0.797751, 0.602987), (0.518084, -0.852925, 0.0640928), (0.192022, -0.952574, 0.236073), (0.261964, -0.939502, 0.220704), (0.192022, -0.952574, 0.236073), (0.518084, -0.852925, 0.0640928), (0.39343, -0.905541, 0.158773), (0.532339, -0.697377, 0.479875), (2.16437e-13, -0.797751, 0.602987), (2.16437e-13, -0.797751, 0.602987), (2.16437e-13, -0.797751, 0.602987), (0.532339, -0.697377, 0.479875), (0.4407, -0.728734, 0.524147), (0.532339, -0.697377, 0.479875), (0.754441, -0.597847, 0.270921), (0.4407, -0.728734, 0.524147), (0.754441, -0.597847, 0.270921), (0.532339, -0.697377, 0.479875), (0.81696, -0.55345, 0.162079), (-0.754441, -0.597847, 0.270921), (-0.532339, -0.697377, 0.479875), (-0.4407, -0.728734, 0.524147), (-0.532339, -0.697377, 0.479875), (-0.754441, -0.597847, 0.270921), (-0.81696, -0.55345, 0.162079), (0.987088, 0.138722, -0.0800911), (1, 6.77626e-21, -5.42101e-20), (0.987088, 0.138722, -0.0800911), (1, 6.77626e-21, -5.42101e-20), (0.987088, 0.138722, -0.0800911), (1, 6.77626e-21, -5.42101e-20), (5.42101e-20, 0.5, 0.866026), (5.42101e-20, 0.5, 0.866026), (5.42101e-20, 0.5, 0.866026), (5.42101e-20, 0.5, 0.866026), (5.42101e-20, 0.5, 0.866026), (5.42101e-20, 0.5, 0.866026), (5.42101e-20, 0.5, 0.866026), (5.42101e-20, 0.5, 0.866026), (5.42101e-20, 0.5, 0.866026), (5.42101e-20, 0.5, 0.866026), (5.42101e-20, 0.5, 0.866026), (5.42101e-20, 0.5, 0.866026), (5.42101e-20, 0.5, 0.866026), (5.42101e-20, 0.5, 0.866026), (5.42101e-20, 0.5, 0.866026), (5.42101e-20, 0.5, 0.866026), (5.42101e-20, 0.5, 0.866026), (5.42101e-20, 0.5, 0.866026), (5.42101e-20, 0.5, 0.866026), (5.42101e-20, 0.5, 0.866026), (5.42101e-20, 0.5, 0.866026), (5.42101e-20, 0.5, 0.866026), (5.42101e-20, 0.5, 0.866026), (5.42101e-20, 0.5, 0.866026), (5.42101e-20, 0.5, 0.866026), (5.42101e-20, 0.5, 0.866026), (5.42101e-20, 0.5, 0.866026), (5.42101e-20, 0.5, 0.866026), (5.42101e-20, 0.5, 0.866026), (5.42101e-20, 0.5, 0.866026), (-1, -6.77626e-21, 5.42101e-20), (-1, -6.77626e-21, 5.42101e-20), (-1, -6.77626e-21, 5.42101e-20), (-1, -6.77626e-21, 5.42101e-20), (-1, -6.77626e-21, 5.42101e-20), (-1, -6.77626e-21, 5.42101e-20), (0, -0.866025, 0.5), (0, -0.866025, 0.5), (0, -0.866025, 0.5), (0, -0.866025, 0.5), (0, -0.866025, 0.5), (0, -0.866025, 0.5), (-0.160182, 0.854843, -0.493544), (0.160182, 0.854843, -0.493544), (0.160182, 0.854843, -0.493544), (0.160182, 0.854843, -0.493544), (-0.160182, 0.854843, -0.493544), (-0.160182, 0.854843, -0.493544), (1, 6.77626e-21, -5.42101e-20), (1, 6.77626e-21, -5.42101e-20), (1, 6.77626e-21, -5.42101e-20), (1, 6.77626e-21, -5.42101e-20), (1, 6.77626e-21, -5.42101e-20), (1, 6.77626e-21, -5.42101e-20), (-1, -6.77626e-21, 5.42101e-20), (-0.987088, 0.138722, -0.0800911), (-0.987088, 0.138722, -0.0800911), (-0.987088, 0.138722, -0.0800911), (-1, -6.77626e-21, 5.42101e-20), (-1, -6.77626e-21, 5.42101e-20), (-5.42101e-20, -0.5, -0.866026), (-5.42101e-20, -0.5, -0.866026), (-5.42101e-20, -0.5, -0.866026), (-5.42101e-20, -0.5, -0.866026), (-5.42101e-20, -0.5, -0.866026), (-5.42101e-20, -0.5, -0.866026), (-5.42101e-20, -0.5, -0.866026), (-5.42101e-20, -0.5, -0.866026), (-5.42101e-20, -0.5, -0.866026), (-5.42101e-20, -0.5, -0.866026), (-5.42101e-20, -0.5, -0.866026), (-5.42101e-20, -0.5, -0.866026), (-5.42101e-20, -0.5, -0.866026), (-5.42101e-20, -0.5, -0.866026), (-5.42101e-20, -0.5, -0.866026), (-5.42101e-20, -0.5, -0.866026), (-5.42101e-20, -0.5, -0.866026), (-5.42101e-20, -0.5, -0.866026), (-5.42101e-20, -0.5, -0.866026), (-5.42101e-20, -0.5, -0.866026), (-5.42101e-20, -0.5, -0.866026), (-5.42101e-20, -0.5, -0.866026), (-5.42101e-20, -0.5, -0.866026), (-5.42101e-20, -0.5, -0.866026), (-5.42101e-20, -0.5, -0.866026), (-5.42101e-20, -0.5, -0.866026), (-5.42101e-20, -0.5, -0.866026), (-5.42101e-20, -0.5, -0.866026), (-5.42101e-20, -0.5, -0.866026), (-5.42101e-20, -0.5, -0.866026), (0.707107, 0.612372, -0.353553), (0.987088, 0.138722, -0.0800911), (0.987088, 0.138722, -0.0800911), (0.987088, 0.138722, -0.0800911), (0.707107, 0.612372, -0.353553), (0.707107, 0.612372, -0.353553), (0.160182, 0.854843, -0.493544), (0.707107, 0.612372, -0.353553), (0.707107, 0.612372, -0.353553), (0.707107, 0.612372, -0.353553), (0.160182, 0.854843, -0.493544), (0.160182, 0.854843, -0.493544), (-0.707107, 0.612372, -0.353553), (-0.160182, 0.854843, -0.493544), (-0.160182, 0.854843, -0.493544), (-0.160182, 0.854843, -0.493544), (-0.707107, 0.612372, -0.353553), (-0.707107, 0.612372, -0.353553), (-0.987088, 0.138722, -0.0800911), (-0.707107, 0.612372, -0.353553), (-0.987088, 0.138722, -0.0800911), (-0.707107, 0.612372, -0.353553), (-0.987088, 0.138722, -0.0800911), (-0.707107, 0.612372, -0.353553), (3.14345e-13, 0.482759, 0.875753), (-0.605134, 0.401033, 0.687739), (3.14345e-13, 0.482759, 0.875753), (-0.605134, 0.401033, 0.687739), (3.14345e-13, 0.482759, 0.875753), (-0.661771, 0.384589, 0.643545), (0.661771, 0.384589, 0.643545), (3.14345e-13, 0.482759, 0.875753), (0.605134, 0.401033, 0.687739), (3.14345e-13, 0.482759, 0.875753), (0.661771, 0.384589, 0.643545), (3.14345e-13, 0.482759, 0.875753), (0.909183, 0.291506, 0.297339), (0.661771, 0.384589, 0.643545), (0.605134, 0.401033, 0.687739), (0.661771, 0.384589, 0.643545), (0.909183, 0.291506, 0.297339), (0.93326, 0.276567, 0.229209), (0.976, 0.21777, -3.50328e-13), (0.93326, 0.276567, 0.229209), (0.909183, 0.291506, 0.297339), (0.93326, 0.276567, 0.229209), (0.976, 0.21777, -3.50328e-13), (0.976, 0.21777, -3.50328e-13), (-0.661771, 0.384589, 0.643545), (-0.909183, 0.291506, 0.297339), (-0.605134, 0.401033, 0.687739), (-0.909183, 0.291506, 0.297339), (-0.661771, 0.384589, 0.643545), (-0.93326, 0.276567, 0.229209), (-0.93326, 0.276567, 0.229209), (-0.976, 0.21777, 3.50328e-13), (-0.909183, 0.291506, 0.297339), (-0.976, 0.21777, 3.50328e-13), (-0.93326, 0.276567, 0.229209), (-0.976, 0.21777, 3.50328e-13), (6.38771e-14, 0.984038, 0.177959), (0.177293, 0.972005, 0.15419), (6.38771e-14, 0.984038, 0.177959), (0.177293, 0.972005, 0.15419), (6.38771e-14, 0.984038, 0.177959), (0.137975, 0.976471, 0.165731), (6.38771e-14, 0.984038, 0.177959), (-0.177293, 0.972005, 0.15419), (-0.137975, 0.976471, 0.165731), (-0.177293, 0.972005, 0.15419), (6.38771e-14, 0.984038, 0.177959), (6.38771e-14, 0.984038, 0.177959), (0, 1, 0), (0, 1, 0), (0, 1, 0), (0, 1, 0), (0, 1, 0), (0, 1, 0), (-0.137975, 0.976471, 0.165731), (-0.280822, 0.958028, 0.0576383), (-0.259505, 0.961672, 0.0885686), (-0.280822, 0.958028, 0.0576383), (-0.137975, 0.976471, 0.165731), (-0.177293, 0.972005, 0.15419), (-3.58942e-13, 0, -1), (-3.58942e-13, 0, -1), (-3.58942e-13, 0, -1), (-3.58942e-13, 0, -1), (-3.58942e-13, 0, -1), (-3.58942e-13, 0, -1), (-3.58942e-13, 0, -1), (-3.58942e-13, 0, -1), (-3.58942e-13, 0, -1), (-3.58942e-13, 0, -1), (-3.58942e-13, 0, -1), (-3.58942e-13, 0, -1), (0.280822, 0.958028, 0.0576383), (0.319334, 0.947642, -1.14622e-13), (0.319334, 0.947642, -1.14622e-13), (0.319334, 0.947642, -1.14622e-13), (0.280822, 0.958028, 0.0576383), (0.259505, 0.961672, 0.0885686), (0.319334, 0.947642, -1.14622e-13), (0.259505, 0.961672, 0.0885686), (0.319334, 0.947642, -1.14622e-13), (-0.319334, 0.947642, 1.14622e-13), (-0.319334, 0.947642, 1.14622e-13), (-0.319334, 0.947642, 1.14622e-13), (-0.319334, 0.947642, 1.14622e-13), (-0.280822, 0.958028, 0.0576383), (-0.319334, 0.947642, 1.14622e-13), (-0.280822, 0.958028, 0.0576383), (-0.319334, 0.947642, 1.14622e-13), (-0.259505, 0.961672, 0.0885686), (0.137975, 0.976471, 0.165731), (0.280822, 0.958028, 0.0576383), (0.177293, 0.972005, 0.15419), (0.280822, 0.958028, 0.0576383), (0.137975, 0.976471, 0.165731), (0.259505, 0.961672, 0.0885686), (-1, 0, 0), (-1, 0, 0), (-1, 0, 0), (-1, 0, 0), (-1, 0, 0), (-1, 0, 0), (0, 0.923879, -0.382683), (0, 0.923879, 0.382683), (0, 0.923879, -0.382683), (0, 0.923879, 0.382683), (0, 0.923879, -0.382683), (0, 0.923879, 0.382683), (1, 0, 0), (1, 0, 0), (1, 0, 0), (1, 0, 0), (1, 0, 0), (1, 0, 0), (0, 0.923879, 0.382683), (0, 0.707107, 0.707107), (0, 0.923879, 0.382683), (0, 0.707107, 0.707107), (0, 0.923879, 0.382683), (0, 0.707107, 0.707107), (0, 0.707107, -0.707107), (0, 0.923879, -0.382683), (0, 0.707107, -0.707107), (0, 0.923879, -0.382683), (0, 0.707107, -0.707107), (0, 0.923879, -0.382683), (-1, 0, 0), (-1, 0, 0), (-1, 0, 0), (-1, 0, 0), (-1, 0, 0), (-1, 0, 0), (0, 0.923879, -0.382683), (0, 0.923879, 0.382683), (0, 0.923879, -0.382683), (0, 0.923879, 0.382683), (0, 0.923879, -0.382683), (0, 0.923879, 0.382683), (1, 0, 0), (1, 0, 0), (1, 0, 0), (1, 0, 0), (1, 0, 0), (1, 0, 0), (0, 0.923879, 0.382683), (0, 0.707107, 0.707107), (0, 0.923879, 0.382683), (0, 0.707107, 0.707107), (0, 0.923879, 0.382683), (0, 0.707107, 0.707107), (0, 0.707107, -0.707107), (0, 0.923879, -0.382683), (0, 0.707107, -0.707107), (0, 0.923879, -0.382683), (0, 0.707107, -0.707107), (0, 0.923879, -0.382683), (-0.908481, 0.417927, 3.26092e-13), (-0.908481, 0.417927, 3.26092e-13), (-0.908481, 0.417927, 3.26092e-13), (-0.908481, 0.417927, 3.26092e-13), (-0.908481, 0.417927, 3.26092e-13), (-0.908481, 0.417927, 3.26092e-13), (0.908481, 0.417927, -3.26092e-13), (0.908481, 0.417927, -3.26092e-13), (0.908481, 0.417927, -3.26092e-13), (0.908481, 0.417927, -3.26092e-13), (0.908481, 0.417927, -3.26092e-13), (0.908481, 0.417927, -3.26092e-13), (-2.75559e-13, 0.640811, -0.767698), (-2.75559e-13, 0.640811, -0.767698), (-2.75559e-13, 0.640811, -0.767698), (-2.75559e-13, 0.640811, -0.767698), (-2.75559e-13, 0.640811, -0.767698), (-2.75559e-13, 0.640811, -0.767698), (0, 1, 0), (0, 1, 0), (0, 1, 0), (0, 1, 0), (0, 1, 0), (0, 1, 0), (-1, 0, 3.58942e-13), (-1, 0, 3.58942e-13), (-1, 0, 3.58942e-13), (-1, 0, 3.58942e-13), (-1, 0, 3.58942e-13), (-1, 0, 3.58942e-13), (2.69091e-13, 0.661802, 0.749678), (3.58942e-13, 0, 1), (3.58942e-13, 0, 1), (3.58942e-13, 0, 1), (2.69091e-13, 0.661802, 0.749678), (2.69091e-13, 0.661802, 0.749678), (1, 0, -3.58942e-13), (1, 0, -3.58942e-13), (1, 0, -3.58942e-13), (1, 0, -3.58942e-13), (1, 0, -3.58942e-13), (1, 0, -3.58942e-13), (-3.58942e-13, 0, -1), (-3.58942e-13, 0, -1), (-3.58942e-13, 0, -1), (-3.58942e-13, 0, -1), (-3.58942e-13, 0, -1), (-3.58942e-13, 0, -1), (2.69091e-13, 0.661802, 0.749678), (4.45213e-14, 0.992278, 0.124035), (4.45213e-14, 0.992278, 0.124035), (4.45213e-14, 0.992278, 0.124035), (2.69091e-13, 0.661802, 0.749678), (2.69091e-13, 0.661802, 0.749678), (0.66703, 0.615055, 0.42045), (0.548276, 0.674978, 0.493759), (0.453343, 0.708982, 0.540208), (0.548276, 0.674978, 0.493759), (0.66703, 0.615055, 0.42045), (0.66703, 0.615055, 0.42045), (0.453343, 0.708982, 0.540208), (2.23693e-13, 0.782062, 0.623201), (2.23693e-13, 0.782062, 0.623201), (2.23693e-13, 0.782062, 0.623201), (0.453343, 0.708982, 0.540208), (0.548276, 0.674978, 0.493759), (2.23693e-13, 0.782062, 0.623201), (-0.548276, 0.674978, 0.493759), (-0.453343, 0.708982, 0.540208), (-0.548276, 0.674978, 0.493759), (2.23693e-13, 0.782062, 0.623201), (2.23693e-13, 0.782062, 0.623201), (-0.548276, 0.674978, 0.493759), (-0.66703, 0.615055, 0.42045), (-0.453343, 0.708982, 0.540208), (-0.66703, 0.615055, 0.42045), (-0.548276, 0.674978, 0.493759), (-0.66703, 0.615055, 0.42045), (0, 1, 0), (0, 1, 0), (0, 1, 0), (0, 1, 0), (0, 1, 0), (0, 1, 0), (0, 1, 0), (0, 1, 0), (0, 1, 0)] (interpolation = "faceVarying")
        texCoord2f[] primvars:st = [(0.46875, 0.125041), (0.46875, 0.0583472), (0.46875, 0.0583472), (0.46875, 0.0583472), (0.46875, 0.125041), (0.46875, 0.125041), (0.46875, 0.125041), (0.46875, 0.0583472), (0.46875, 0.125041), (0.46875, 0.0583472), (0.46875, 0.125041), (0.46875, 0.0583472), (0.46875, 0.025), (0.46875, 0.0583472), (0.46875, 0.025), (0.46875, 0.0583472), (0.46875, 0.025), (0.46875, 0.0583472), (0.46875, 0.025), (0.46875, 0.0583472), (0.46875, 0.0583472), (0.46875, 0.0583472), (0.46875, 0.025), (0.46875, 0.025), (0.46875, 0.0583472), (0.46875, 0.025), (0.46875, 0.025), (0.46875, 0.025), (0.46875, 0.0583472), (0.46875, 0.0583472), (0.46875, 0.025), (0.46875, 0.0583472), (0.46875, 0.0583472), (0.46875, 0.0583472), (0.46875, 0.025), (0.46875, 0.025), (0.46875, 0.025), (0.46875, 0.0583472), (0.46875, 0.0583472), (0.46875, 0.0583472), (0.46875, 0.025), (0.46875, 0.025), (0.46875, 0.025), (0.46875, 0.025), (0.46875, 0.025), (0.46875, 0.025), (0.46875, 0.025), (0.46875, 0.025), (0.46875, 0.025), (0.46875, 0.025), (0.46875, 0.025), (0.46875, 0.025), (0.46875, 0.025), (0.46875, 0.025), (0.46875, 0.025), (0.46875, 0.025), (0.46875, 0.025), (0.46875, 0.0583472), (0.46875, 0.125041), (0.46875, 0.125041), (0.46875, 0.125041), (0.46875, 0.0583472), (0.46875, 0.0583472), (0.46875, 0.0583472), (0.46875, 0.025), (0.46875, 0.025), (0.46875, 0.025), (0.46875, 0.0583472), (0.46875, 0.0583472), (0.46875, 0.0583472), (0.46875, 0.125041), (0.46875, 0.125041), (0.46875, 0.125041), (0.46875, 0.0583472), (0.46875, 0.0583472), (0.46875, 0.025), (0.46875, 0.0583472), (0.46875, 0.025), (0.46875, 0.0583472), (0.46875, 0.025), (0.46875, 0.0583472), (0.46875, 0.0583472), (0.46875, 0.125041), (0.46875, 0.0583472), (0.46875, 0.125041), (0.46875, 0.0583472), (0.46875, 0.125041), (0.46875, 0.0583472), (0.46875, 0.125041), (0.46875, 0.125041), (0.46875, 0.125041), (0.46875, 0.0583472), (0.46875, 0.0583472), (0.46875, 0.125041), (0.46875, 0.0583472), (0.46875, 0.125041), (0.46875, 0.0583472), (0.46875, 0.125041), (0.46875, 0.0583472), (0.46875, 0.125), (0.46875, 0.025), (0.46875, 0.125), (0.46875, 0.025), (0.46875, 0.125), (0.46875, 0.025), (0.46875, 0.125), (0.46875, 0.025), (0.46875, 0.025), (0.46875, 0.025), (0.46875, 0.125), (0.46875, 0.125), (0.46875, 0.125), (0.46875, 0.125), (0.46875, 0.2), (0.46875, 0.125), (0.46875, 0.2), (0.46875, 0.125), (0.46875, 0.125), (0.46875, 0.2), (0.46875, 0.125), (0.46875, 0.025), (0.46875, 0.125), (0.46875, 0.125), (0.46875, 0.125), (0.46875, 0.025), (0.46875, 0.025), (0.46875, 0.125), (0.46875, 0.2), (0.46875, 0.2), (0.46875, 0.2), (0.46875, 0.2), (0.46875, 0.225), (0.46875, 0.2), (0.46875, 0.225), (0.46875, 0.225), (0.46875, 0.025), (0.46875, 0.125), (0.46875, 0.125), (0.46875, 0.125), (0.46875, 0.025), (0.46875, 0.025), (0.46875, 0.125), (0.46875, 0.125), (0.46875, 0.125), (0.46875, 0.125), (0.46875, 0.125), (0.46875, 0.125), (0.46875, 0.225), (0.46875, 0.225), (0.46875, 0.225), (0.46875, 0.225), (0.46875, 0.225), (0.46875, 0.225), (0.46875, 0.125), (0.46875, 0.025), (0.46875, 0.125), (0.46875, 0.025), (0.46875, 0.125), (0.46875, 0.025), (0.46875, 0.025), (0.46875, 0.125), (0.46875, 0.125), (0.46875, 0.125), (0.46875, 0.025), (0.46875, 0.025), (0.46875, 0.125), (0.46875, 0.025), (0.46875, 0.025), (0.46875, 0.025), (0.46875, 0.125), (0.46875, 0.125), (0.46875, 0.125), (0.46875, 0.125), (0.46875, 0.2), (0.46875, 0.125), (0.46875, 0.2), (0.46875, 0.125), (0.46875, 0.125), (0.46875, 0.2), (0.46875, 0.125), (0.46875, 0.025), (0.46875, 0.125), (0.46875, 0.125), (0.46875, 0.125), (0.46875, 0.025), (0.46875, 0.025), (0.46875, 0.125), (0.46875, 0.2), (0.46875, 0.2), (0.46875, 0.2), (0.46875, 0.2), (0.46875, 0.225), (0.46875, 0.2), (0.46875, 0.225), (0.46875, 0.225), (0.46875, 0.2), (0.46875, 0.125), (0.46875, 0.125), (0.46875, 0.125), (0.46875, 0.2), (0.46875, 0.2), (0.46875, 0.225), (0.46875, 0.2), (0.46875, 0.2), (0.46875, 0.2), (0.46875, 0.225), (0.46875, 0.225), (0.46875, 0.2), (0.46875, 0.225), (0.46875, 0.225), (0.46875, 0.225), (0.46875, 0.2), (0.46875, 0.2), (0.46875, 0.125), (0.46875, 0.2), (0.46875, 0.125), (0.46875, 0.2), (0.46875, 0.125), (0.46875, 0.2), (0.71875, 0.158389), (0.71875, 0.125041), (0.71875, 0.125041), (0.71875, 0.125041), (0.71875, 0.158389), (0.71875, 0.158389), (0.71875, 0.158389), (0.71875, 0.125041), (0.71875, 0.125041), (0.71875, 0.125041), (0.71875, 0.158389), (0.71875, 0.158389), (0.71875, 0.125041), (0.71875, 0.158389), (0.71875, 0.125041), (0.71875, 0.158389), (0.71875, 0.125041), (0.71875, 0.158389), (0.71875, 0.125041), (0.71875, 0.158389), (0.71875, 0.125041), (0.71875, 0.158389), (0.71875, 0.125041), (0.71875, 0.158389), (0.71875, 0.158389), (0.71875, 0.125041), (0.71875, 0.125041), (0.71875, 0.125041), (0.71875, 0.158389), (0.71875, 0.158389), (0.71875, 0.158389), (0.71875, 0.125041), (0.71875, 0.125041), (0.71875, 0.125041), (0.71875, 0.158389), (0.71875, 0.158389), (0.71875, 0.408389), (0.71875, 0.425062), (0.71875, 0.425062), (0.71875, 0.425062), (0.71875, 0.408389), (0.71875, 0.408389), (0.71875, 0.408389), (0.71875, 0.425062), (0.71875, 0.408389), (0.71875, 0.425062), (0.71875, 0.408389), (0.71875, 0.425062), (0.71875, 0.425062), (0.71875, 0.425062), (0.71875, 0.425062), (0.71875, 0.425062), (0.71875, 0.425062), (0.71875, 0.425062), (0.71875, 0.408389), (0.71875, 0.425062), (0.71875, 0.408389), (0.71875, 0.425062), (0.71875, 0.408389), (0.71875, 0.425062), (0.71875, 0.408389), (0.71875, 0.375042), (0.71875, 0.375042), (0.71875, 0.375042), (0.71875, 0.408389), (0.71875, 0.408389), (0.71875, 0.408389), (0.71875, 0.408389), (0.71875, 0.425062), (0.71875, 0.408389), (0.71875, 0.425062), (0.71875, 0.425062), (0.71875, 0.425062), (0.71875, 0.425062), (0.71875, 0.425062), (0.71875, 0.425062), (0.71875, 0.425062), (0.71875, 0.408389), (0.71875, 0.425062), (0.71875, 0.408389), (0.71875, 0.408389), (0.71875, 0.425062), (0.71875, 0.408389), (0.71875, 0.425062), (0.71875, 0.408389), (0.71875, 0.425062), (0.71875, 0.425062), (0.71875, 0.425062), (0.71875, 0.408389), (0.71875, 0.408389), (0.71875, 0.408389), (0.71875, 0.425062), (0.71875, 0.425062), (0.71875, 0.425062), (0.71875, 0.408389), (0.71875, 0.408389), (0.71875, 0.275), (0.71875, 0.475), (0.71875, 0.275), (0.71875, 0.475), (0.71875, 0.275), (0.71875, 0.475), (0.71875, 0.475), (0.71875, 0.475), (0.71875, 0.475), (0.71875, 0.475), (0.71875, 0.475), (0.71875, 0.475), (0.71875, 0.475), (0.71875, 0.275), (0.71875, 0.275), (0.71875, 0.275), (0.71875, 0.475), (0.71875, 0.475), (0.71875, 0.475), (0.71875, 0.275), (0.71875, 0.475), (0.71875, 0.275), (0.71875, 0.475), (0.71875, 0.275), (0.71875, 0.275), (0.71875, 0.475), (0.71875, 0.275), (0.71875, 0.475), (0.71875, 0.275), (0.71875, 0.475), (0.71875, 0.275), (0.71875, 0.475), (0.71875, 0.275), (0.71875, 0.475), (0.71875, 0.275), (0.71875, 0.475), (0.71875, 0.475), (0.71875, 0.475), (0.71875, 0.475), (0.71875, 0.475), (0.71875, 0.475), (0.71875, 0.475), (0.71875, 0.475), (0.71875, 0.275), (0.71875, 0.275), (0.71875, 0.275), (0.71875, 0.475), (0.71875, 0.475), (0.71875, 0.475), (0.71875, 0.275), (0.71875, 0.475), (0.71875, 0.275), (0.71875, 0.475), (0.71875, 0.275), (0.71875, 0.275), (0.71875, 0.475), (0.71875, 0.275), (0.71875, 0.475), (0.71875, 0.275), (0.71875, 0.475), (0.59375, 0.225), (0.59375, 0.175062), (0.59375, 0.175062), (0.59375, 0.175062), (0.59375, 0.225), (0.59375, 0.225), (0.59375, 0.175062), (0.59375, 0.225), (0.59375, 0.175062), (0.59375, 0.225), (0.59375, 0.175062), (0.59375, 0.225), (0.59375, 0.225), (0.59375, 0.175062), (0.59375, 0.175062), (0.59375, 0.175062), (0.59375, 0.225), (0.59375, 0.225), (0.59375, 0.225), (0.59375, 0.225), (0.59375, 0.225), (0.59375, 0.225), (0.59375, 0.225), (0.59375, 0.225), (0.59375, 0.225), (0.59375, 0.025), (0.59375, 0.125), (0.59375, 0.025), (0.59375, 0.225), (0.59375, 0.025), (0.59375, 0.125), (0.59375, 0.025), (0.59375, 0.025), (0.59375, 0.025), (0.59375, 0.125), (0.59375, 0.125), (0.59375, 0.025), (0.59375, 0.125), (0.59375, 0.025), (0.59375, 0.125), (0.59375, 0.025), (0.59375, 0.225), (0.59375, 0.225), (0.59375, 0.025), (0.59375, 0.025), (0.59375, 0.025), (0.59375, 0.225), (0.59375, 0.225), (0.59375, 0.125), (0.59375, 0.225), (0.59375, 0.225), (0.59375, 0.225), (0.59375, 0.125), (0.59375, 0.125), (0.09375, 0.025), (0.09375, 0.225), (0.09375, 0.025), (0.09375, 0.225), (0.09375, 0.025), (0.09375, 0.225), (0.09375, 0.025), (0.09375, 0.225), (0.09375, 0.025), (0.09375, 0.225), (0.09375, 0.025), (0.09375, 0.225), (0.09375, 0.025), (0.09375, 0.225), (0.09375, 0.025), (0.09375, 0.225), (0.09375, 0.025), (0.09375, 0.225), (0.09375, 0.225), (0.09375, 0.025), (0.09375, 0.025), (0.09375, 0.025), (0.09375, 0.225), (0.09375, 0.225), (0.09375, 0.225), (0.09375, 0.225), (0.09375, 0.225), (0.09375, 0.225), (0.09375, 0.225), (0.09375, 0.225), (0.09375, 0.225), (0.09375, 0.225), (0.09375, 0.225), (0.46875, 0.125041), (0.46875, 0.0583472), (0.46875, 0.0583472), (0.46875, 0.0583472), (0.46875, 0.125041), (0.46875, 0.125041), (0.46875, 0.125041), (0.46875, 0.0583472), (0.46875, 0.125041), (0.46875, 0.0583472), (0.46875, 0.125041), (0.46875, 0.0583472), (0.46875, 0.025), (0.46875, 0.0583472), (0.46875, 0.025), (0.46875, 0.0583472), (0.46875, 0.025), (0.46875, 0.0583472), (0.46875, 0.025), (0.46875, 0.0583472), (0.46875, 0.0583472), (0.46875, 0.0583472), (0.46875, 0.025), (0.46875, 0.025), (0.46875, 0.0583472), (0.46875, 0.025), (0.46875, 0.025), (0.46875, 0.025), (0.46875, 0.0583472), (0.46875, 0.0583472), (0.46875, 0.025), (0.46875, 0.0583472), (0.46875, 0.0583472), (0.46875, 0.0583472), (0.46875, 0.025), (0.46875, 0.025), (0.46875, 0.025), (0.46875, 0.0583472), (0.46875, 0.0583472), (0.46875, 0.0583472), (0.46875, 0.025), (0.46875, 0.025), (0.46875, 0.025), (0.46875, 0.025), (0.46875, 0.025), (0.46875, 0.025), (0.46875, 0.025), (0.46875, 0.025), (0.46875, 0.025), (0.46875, 0.025), (0.46875, 0.025), (0.46875, 0.025), (0.46875, 0.025), (0.46875, 0.025), (0.46875, 0.025), (0.46875, 0.025), (0.46875, 0.025), (0.46875, 0.0583472), (0.46875, 0.125041), (0.46875, 0.125041), (0.46875, 0.125041), (0.46875, 0.0583472), (0.46875, 0.0583472), (0.46875, 0.0583472), (0.46875, 0.025), (0.46875, 0.025), (0.46875, 0.025), (0.46875, 0.0583472), (0.46875, 0.0583472), (0.46875, 0.0583472), (0.46875, 0.125041), (0.46875, 0.125041), (0.46875, 0.125041), (0.46875, 0.0583472), (0.46875, 0.0583472), (0.46875, 0.025), (0.46875, 0.0583472), (0.46875, 0.025), (0.46875, 0.0583472), (0.46875, 0.025), (0.46875, 0.0583472), (0.46875, 0.0583472), (0.46875, 0.125041), (0.46875, 0.0583472), (0.46875, 0.125041), (0.46875, 0.0583472), (0.46875, 0.125041), (0.46875, 0.0583472), (0.46875, 0.125041), (0.46875, 0.125041), (0.46875, 0.125041), (0.46875, 0.0583472), (0.46875, 0.0583472), (0.46875, 0.125041), (0.46875, 0.0583472), (0.46875, 0.125041), (0.46875, 0.0583472), (0.46875, 0.125041), (0.46875, 0.0583472), (0.46875, 0.125), (0.46875, 0.025), (0.46875, 0.125), (0.46875, 0.025), (0.46875, 0.125), (0.46875, 0.025), (0.46875, 0.125), (0.46875, 0.025), (0.46875, 0.025), (0.46875, 0.025), (0.46875, 0.125), (0.46875, 0.125), (0.46875, 0.125), (0.46875, 0.125), (0.46875, 0.2), (0.46875, 0.125), (0.46875, 0.2), (0.46875, 0.125), (0.46875, 0.125), (0.46875, 0.2), (0.46875, 0.125), (0.46875, 0.025), (0.46875, 0.125), (0.46875, 0.125), (0.46875, 0.125), (0.46875, 0.025), (0.46875, 0.025), (0.46875, 0.125), (0.46875, 0.2), (0.46875, 0.2), (0.46875, 0.2), (0.46875, 0.2), (0.46875, 0.225), (0.46875, 0.2), (0.46875, 0.225), (0.46875, 0.225), (0.46875, 0.025), (0.46875, 0.125), (0.46875, 0.125), (0.46875, 0.125), (0.46875, 0.025), (0.46875, 0.025), (0.46875, 0.125), (0.46875, 0.125), (0.46875, 0.125), (0.46875, 0.125), (0.46875, 0.125), (0.46875, 0.125), (0.46875, 0.225), (0.46875, 0.225), (0.46875, 0.225), (0.46875, 0.225), (0.46875, 0.225), (0.46875, 0.225), (0.46875, 0.125), (0.46875, 0.025), (0.46875, 0.125), (0.46875, 0.025), (0.46875, 0.125), (0.46875, 0.025), (0.46875, 0.025), (0.46875, 0.125), (0.46875, 0.125), (0.46875, 0.125), (0.46875, 0.025), (0.46875, 0.025), (0.46875, 0.125), (0.46875, 0.025), (0.46875, 0.025), (0.46875, 0.025), (0.46875, 0.125), (0.46875, 0.125), (0.46875, 0.125), (0.46875, 0.125), (0.46875, 0.2), (0.46875, 0.125), (0.46875, 0.2), (0.46875, 0.125), (0.46875, 0.125), (0.46875, 0.2), (0.46875, 0.125), (0.46875, 0.025), (0.46875, 0.125), (0.46875, 0.125), (0.46875, 0.125), (0.46875, 0.025), (0.46875, 0.025), (0.46875, 0.125), (0.46875, 0.2), (0.46875, 0.2), (0.46875, 0.2), (0.46875, 0.2), (0.46875, 0.225), (0.46875, 0.2), (0.46875, 0.225), (0.46875, 0.225), (0.46875, 0.2), (0.46875, 0.125), (0.46875, 0.125), (0.46875, 0.125), (0.46875, 0.2), (0.46875, 0.2), (0.46875, 0.225), (0.46875, 0.2), (0.46875, 0.2), (0.46875, 0.2), (0.46875, 0.225), (0.46875, 0.225), (0.46875, 0.2), (0.46875, 0.225), (0.46875, 0.225), (0.46875, 0.225), (0.46875, 0.2), (0.46875, 0.2), (0.46875, 0.125), (0.46875, 0.2), (0.46875, 0.125), (0.46875, 0.2), (0.46875, 0.125), (0.46875, 0.2), (0.71875, 0.158389), (0.71875, 0.125041), (0.71875, 0.125041), (0.71875, 0.125041), (0.71875, 0.158389), (0.71875, 0.158389), (0.71875, 0.158389), (0.71875, 0.125041), (0.71875, 0.125041), (0.71875, 0.125041), (0.71875, 0.158389), (0.71875, 0.158389), (0.71875, 0.125041), (0.71875, 0.158389), (0.71875, 0.125041), (0.71875, 0.158389), (0.71875, 0.125041), (0.71875, 0.158389), (0.71875, 0.125041), (0.71875, 0.158389), (0.71875, 0.125041), (0.71875, 0.158389), (0.71875, 0.125041), (0.71875, 0.158389), (0.71875, 0.158389), (0.71875, 0.125041), (0.71875, 0.125041), (0.71875, 0.125041), (0.71875, 0.158389), (0.71875, 0.158389), (0.71875, 0.158389), (0.71875, 0.125041), (0.71875, 0.125041), (0.71875, 0.125041), (0.71875, 0.158389), (0.71875, 0.158389), (0.71875, 0.408389), (0.71875, 0.425062), (0.71875, 0.425062), (0.71875, 0.425062), (0.71875, 0.408389), (0.71875, 0.408389), (0.71875, 0.408389), (0.71875, 0.425062), (0.71875, 0.408389), (0.71875, 0.425062), (0.71875, 0.408389), (0.71875, 0.425062), (0.71875, 0.425062), (0.71875, 0.425062), (0.71875, 0.425062), (0.71875, 0.425062), (0.71875, 0.425062), (0.71875, 0.425062), (0.71875, 0.408389), (0.71875, 0.425062), (0.71875, 0.408389), (0.71875, 0.425062), (0.71875, 0.408389), (0.71875, 0.425062), (0.71875, 0.408389), (0.71875, 0.375042), (0.71875, 0.375042), (0.71875, 0.375042), (0.71875, 0.408389), (0.71875, 0.408389), (0.71875, 0.408389), (0.71875, 0.408389), (0.71875, 0.425062), (0.71875, 0.408389), (0.71875, 0.425062), (0.71875, 0.425062), (0.71875, 0.425062), (0.71875, 0.425062), (0.71875, 0.425062), (0.71875, 0.425062), (0.71875, 0.425062), (0.71875, 0.408389), (0.71875, 0.425062), (0.71875, 0.408389), (0.71875, 0.408389), (0.71875, 0.425062), (0.71875, 0.408389), (0.71875, 0.425062), (0.71875, 0.408389), (0.71875, 0.425062), (0.71875, 0.425062), (0.71875, 0.425062), (0.71875, 0.408389), (0.71875, 0.408389), (0.71875, 0.408389), (0.71875, 0.425062), (0.71875, 0.425062), (0.71875, 0.425062), (0.71875, 0.408389), (0.71875, 0.408389), (0.71875, 0.275), (0.71875, 0.475), (0.71875, 0.275), (0.71875, 0.475), (0.71875, 0.275), (0.71875, 0.475), (0.71875, 0.475), (0.71875, 0.475), (0.71875, 0.475), (0.71875, 0.475), (0.71875, 0.475), (0.71875, 0.475), (0.71875, 0.475), (0.71875, 0.275), (0.71875, 0.275), (0.71875, 0.275), (0.71875, 0.475), (0.71875, 0.475), (0.71875, 0.475), (0.71875, 0.275), (0.71875, 0.475), (0.71875, 0.275), (0.71875, 0.475), (0.71875, 0.275), (0.71875, 0.275), (0.71875, 0.475), (0.71875, 0.275), (0.71875, 0.475), (0.71875, 0.275), (0.71875, 0.475), (0.71875, 0.275), (0.71875, 0.475), (0.71875, 0.275), (0.71875, 0.475), (0.71875, 0.275), (0.71875, 0.475), (0.71875, 0.475), (0.71875, 0.475), (0.71875, 0.475), (0.71875, 0.475), (0.71875, 0.475), (0.71875, 0.475), (0.71875, 0.475), (0.71875, 0.275), (0.71875, 0.275), (0.71875, 0.275), (0.71875, 0.475), (0.71875, 0.475), (0.71875, 0.475), (0.71875, 0.275), (0.71875, 0.475), (0.71875, 0.275), (0.71875, 0.475), (0.71875, 0.275), (0.71875, 0.275), (0.71875, 0.475), (0.71875, 0.275), (0.71875, 0.475), (0.71875, 0.275), (0.71875, 0.475), (0.59375, 0.225), (0.59375, 0.175062), (0.59375, 0.175062), (0.59375, 0.175062), (0.59375, 0.225), (0.59375, 0.225), (0.59375, 0.175062), (0.59375, 0.225), (0.59375, 0.175062), (0.59375, 0.225), (0.59375, 0.175062), (0.59375, 0.225), (0.59375, 0.225), (0.59375, 0.175062), (0.59375, 0.175062), (0.59375, 0.175062), (0.59375, 0.225), (0.59375, 0.225), (0.59375, 0.225), (0.59375, 0.225), (0.59375, 0.225), (0.59375, 0.225), (0.59375, 0.225), (0.59375, 0.225), (0.59375, 0.225), (0.59375, 0.025), (0.59375, 0.125), (0.59375, 0.025), (0.59375, 0.225), (0.59375, 0.025), (0.59375, 0.125), (0.59375, 0.025), (0.59375, 0.025), (0.59375, 0.025), (0.59375, 0.125), (0.59375, 0.125), (0.59375, 0.025), (0.59375, 0.125), (0.59375, 0.025), (0.59375, 0.125), (0.59375, 0.025), (0.59375, 0.225), (0.59375, 0.225), (0.59375, 0.025), (0.59375, 0.025), (0.59375, 0.025), (0.59375, 0.225), (0.59375, 0.225), (0.59375, 0.125), (0.59375, 0.225), (0.59375, 0.225), (0.59375, 0.225), (0.59375, 0.125), (0.59375, 0.125), (0.09375, 0.025), (0.09375, 0.225), (0.09375, 0.025), (0.09375, 0.225), (0.09375, 0.025), (0.09375, 0.225), (0.09375, 0.025), (0.09375, 0.225), (0.09375, 0.025), (0.09375, 0.225), (0.09375, 0.025), (0.09375, 0.225), (0.09375, 0.025), (0.09375, 0.225), (0.09375, 0.025), (0.09375, 0.225), (0.09375, 0.025), (0.09375, 0.225), (0.09375, 0.225), (0.09375, 0.025), (0.09375, 0.025), (0.09375, 0.025), (0.09375, 0.225), (0.09375, 0.225), (0.09375, 0.225), (0.09375, 0.225), (0.09375, 0.225), (0.09375, 0.225), (0.09375, 0.225), (0.09375, 0.225), (0.09375, 0.225), (0.09375, 0.225), (0.09375, 0.225)] (interpolation = "faceVarying")
        uniform token subdivisionScheme = "none"
        rel material:binding = </Vehicle/Materials/colormap>
    }
    def Scope "Materials" {
        def Material "colormap" {
            token outputs:surface.connect = </Vehicle/Materials/colormap/surface.outputs:surface>
            def Shader "surface" {
                uniform token info:id = "UsdPreviewSurface"
                float inputs:roughness = 0.7
                float inputs:metallic = 0
                color3f inputs:diffuseColor.connect = </Vehicle/Materials/colormap/texture.outputs:rgb>
                token outputs:surface
            }
            def Shader "stReader" {
                uniform token info:id = "UsdPrimvarReader_float2"
                token inputs:varname = "st"
                float2 outputs:result
            }
            def Shader "texture" {
                uniform token info:id = "UsdUVTexture"
                asset inputs:file = @kenney-water-colormap.png@
                float2 inputs:st.connect = </Vehicle/Materials/colormap/stReader.outputs:result>
                token inputs:wrapS = "repeat"
                token inputs:wrapT = "repeat"
                float3 outputs:rgb
            }
        }
    }
}
