#usda 1.0
(
    defaultPrim = "Vehicle"
    metersPerUnit = 1
    upAxis = "Y"
)
def Xform "Vehicle" {
    def Mesh "mesh_metal" {
        int[] faceVertexCounts = [3, 3, 3, 3, 3, 3, 3, 3, 3, 3, 3, 3, 3, 3, 3, 3, 3, 3, 3, 3, 3, 3, 3, 3, 3, 3, 3, 3, 3, 3, 3, 3, 3, 3, 3, 3, 3, 3, 3, 3, 3, 3, 3, 3, 3, 3, 3, 3, 3, 3, 3, 3, 3, 3, 3, 3, 3, 3, 3, 3, 3, 3, 3, 3, 3, 3, 3, 3, 3, 3, 3, 3, 3, 3, 3, 3, 3, 3, 3, 3, 3, 3, 3, 3, 3, 3, 3]
        int[] faceVertexIndices = [2, 1, 0, 3, 0, 1, 4, 0, 3, 5, 0, 4, 0, 5, 6, 3, 1, 7, 10, 9, 8, 9, 10, 11, 9, 11, 12, 12, 11, 13, 14, 8, 9, 8, 14, 15, 15, 14, 13, 15, 13, 11, 18, 17, 16, 17, 18, 19, 17, 19, 20, 21, 16, 17, 16, 21, 22, 22, 21, 23, 23, 21, 24, 22, 23, 25, 22, 25, 26, 29, 28, 27, 28, 29, 30, 20, 27, 17, 27, 20, 31, 27, 31, 29, 28, 17, 27, 17, 28, 21, 31, 30, 29, 30, 31, 32, 28, 24, 21, 24, 28, 32, 32, 28, 30, 35, 34, 33, 34, 35, 36, 35, 38, 37, 38, 35, 33, 34, 38, 33, 38, 34, 39, 34, 40, 39, 40, 34, 36, 43, 42, 41, 42, 43, 44, 42, 44, 45, 45, 44, 46, 47, 41, 42, 41, 47, 48, 48, 47, 46, 48, 46, 44, 51, 50, 49, 50, 51, 52, 52, 51, 53, 53, 51, 54, 54, 51, 55, 54, 55, 56, 53, 57, 52, 60, 59, 58, 59, 60, 61, 64, 63, 62, 63, 64, 65, 59, 64, 62, 64, 59, 61, 64, 60, 65, 60, 64, 61, 68, 67, 66, 69, 67, 68, 70, 67, 69, 71, 67, 70, 67, 71, 72, 69, 68, 73, 69, 73, 74, 75, 74, 73, 74, 75, 76, 79, 78, 77, 78, 79, 80, 79, 82, 81, 82, 79, 77, 68, 80, 73, 80, 68, 78, 66, 78, 68, 78, 66, 82, 78, 82, 77, 80, 75, 73, 75, 80, 81, 81, 80, 79]
        point3f[] points = [(0.3, 5.00262e-14, 0.687165), (0.2, 5.82758e-14, 0.487165), (0.2, 5.71664e-14, 0.687165), (0.2, 5.71664e-14, -0.612835), (0.6, 5.75273e-14, -0.612835), (1, 0, -0.612835), (1, 0, -0.0128353), (0.2, 6.15977e-14, 0.0871648), (0.6, 5.75273e-14, -1.01283), (0.3, 0.1, -1.01283), (0.2, 5.75273e-14, -1.01283), (0.2, 0.5, -1.01283), (0.3, 0.4, -1.01283), (0.5, 0.4, -1.01283), (0.5, 0.1, -1.01283), (0.6, 0.5, -1.01283), (1, 0.1, -0.0128353), (0.8, 0.1, -0.362835), (1, 0.1, -0.612835), (0.6, 0.1, -0.612835), (0.6, 0.1, -0.362835), (0.8, 0.1, -0.262835), (0.3, 0.1, 0.687165), (0.6, 0.1, -0.0128353), (0.6, 0.1, -0.262835), (0.2, 0.1, 0.387165), (0.2, 0.1, 0.687165), (0.8, 0.15, -0.362835), (0.8, 0.15, -0.262835), (0.7, 0.2, -0.362835), (0.7, 0.2, -0.262835), (0.6, 0.2, -0.362835), (0.6, 0.2, -0.262835), (0.45, 0.5, -0.312835), (0.45, 0.5, 0.0871648), (0.2, 0.5, -0.312835), (0.2, 0.5, 0.0871648), (0.2, 0.4, -0.312835), (0.45, 0.4, -0.312835), (0.45, 0.4, 0.0871648), (0.2, 0.4, 0.0871648), (-0.2, 5.75273e-14, -1.01283), (-0.5, 0.1, -1.01283), (-0.6, 5.75273e-14, -1.01283), (-0.6, 0.5, -1.01283), (-0.5, 0.4, -1.01283), (-0.3, 0.4, -1.01283), (-0.3, 0.1, -1.01283), (-0.2, 0.5, -1.01283), (-0.2, 5.71664e-14, 0.687165), (-0.2, 5.69044e-14, 0.487165), (-0.3, 5.00262e-14, 0.687165), (-0.2, 5.71664e-14, 0.0871648), (-0.2, 5.75273e-14, -0.612835), (-0.6, 5.75273e-14, -0.612835), (-1, 0, -0.0128353), (-1, 0, -0.612835), (-0.2, 5.87316e-14, -0.0128353), (-0.2, 0.4, 0.0871648), (-0.45, 0.4, 0.0871648), (-0.2, 0.5, 0.0871648), (-0.45, 0.5, 0.0871648), (-0.45, 0.4, -0.312835), (-0.2, 0.4, -0.312835), (-0.45, 0.5, -0.312835), (-0.2, 0.5, -0.312835), (-0.6, 0.1, -0.212835), (-0.6, 0.1, -0.0128353), (-0.8, 0.1, -0.212835), (-1, 0.1, -0.0128353), (-0.3, 0.1, 0.687165), (-0.2, 0.1, 0.687165), (-0.2, 0.1, 0.387165), (-0.8, 0.1, -0.312835), (-1, 0.1, -0.612835), (-0.6, 0.1, -0.312835), (-0.6, 0.1, -0.612835), (-0.7, 0.2, -0.212835), (-0.8, 0.15, -0.212835), (-0.7, 0.2, -0.312835), (-0.8, 0.15, -0.312835), (-0.6, 0.2, -0.312835), (-0.6, 0.2, -0.212835), (0.2, 0.0317492, 0.687165), (0.6, 0.4, -0.612835), (0.6, 0.4, -0.0128353), (0.529289, 0.3, 0.0578754), (0.2, 0.4, 0.387165), (0.270711, 0.3, 0.316454), (0.270711, 0.2, 0.316454), (0.529289, 0.2, 0.0578754), (0.2, 0.4, -0.612835), (-0.2, 0.0317492, 0.687165), (-0.6, 0.4, -0.0128353), (-0.529289, 0.2, 0.0578754), (-0.270711, 0.2, 0.316454), (-0.270711, 0.3, 0.316454), (-0.529289, 0.3, 0.0578754), (-0.2, 0.4, 0.387165), (-0.6, 0.4, -0.612835), (-0.2, 0.4, -0.612835), (-0.2, 0.073163, 0.948045), (0.2, 0.0834482, 1.01283), (-0.2, 0.0834482, 1.01283), (0.2, 0.073163, 0.948045), (0.6, 0.5, -0.912835), (0.2, 0.5, -0.912835), (0.2, 0.42, -0.672835), (0.2, 5.73017e-14, -0.712835), (0.2, 0.4, -0.712835), (-0.2, 0.4, -0.712835), (0.2, 0.6, -0.312835), (-0.2, 0.42, -0.672835), (-0.2, 0.6, -0.312835), (-0.2, 5.71664e-14, -0.712835), (0.2, 0.6, 0.0871648), (-0.2, 0.6, 0.0871648), (-0.2, 0.5, -0.912835), (-0.6, 0.5, -0.912835), (0.2, 0.59005, 0.286668), (-0.2, 0.59005, 0.286668), (0.2, 0.166897, 1.01283), (-0.2, 0.166897, 1.01283), (0.3, 0.1, -0.812835), (0.5, 0.1, -0.812835), (0.3, 0.4, -0.812835), (0.5, 0.4, -0.812835), (0.270711, 0.3, 0.0578754), (0.270711, 0.2, 0.0578754), (-0.5, 0.4, -0.812835), (-0.5, 0.1, -0.812835), (-0.3, 0.4, -0.812835), (-0.3, 0.1, -0.812835), (-0.270711, 0.2, 0.0578754), (-0.270711, 0.3, 0.0578754), (-0.0999999, 0.566896, 0.812835), (0.1, 0.566896, 0.812835)]
        normal3f[] normals = [(0, -1, 0), (0, -1, 0), (0, -1, 0), (0, -1, 0), (0, -1, 0), (0, -1, 0), (0, -1, 0), (0, -1, 0), (0, -1, 0), (0, -1, 0), (0, -1, 0), (0, -1, 0), (0, -1, 0), (0, -1, 0), (0, -1, 0), (0, -1, 0), (0, -1, 0), (0, -1, 0), (0, 0, -1), (0, 0, -1), (0, 0, -1), (0, 0, -1), (0, 0, -1), (0, 0, -1), (0, 0, -1), (0, 0, -1), (0, 0, -1), (0, 0, -1), (0, 0, -1), (0, 0, -1), (0, 0, -1), (0, 0, -1), (0, 0, -1), (0, 0, -1), (0, 0, -1), (0, 0, -1), (0, 0, -1), (0, 0, -1), (0, 0, -1), (0, 0, -1), (0, 0, -1), (0, 0, -1), (0, 1, 0), (0, 1, 0), (0, 1, 0), (0, 1, 0), (0, 1, 0), (0, 1, 0), (0, 1, 0), (0, 1, 0), (0, 1, 0), (0, 1, 0), (0, 1, 0), (0, 1, 0), (0, 1, 0), (0, 1, 0), (0, 1, 0), (0, 1, 0), (0, 1, 0), (0, 1, 0), (0, 1, 0), (0, 1, 0), (0, 1, 0), (0, 1, 0), (0, 1, 0), (0, 1, 0), (0, 1, 0), (0, 1, 0), (0, 1, 0), (0.447214, 0.894427, 0), (0.447214, 0.894427, 0), (0.447214, 0.894427, 0), (0.447214, 0.894427, 0), (0.447214, 0.894427, 0), (0.447214, 0.894427, 0), (0, 0, -1), (0, 0, -1), (0, 0, -1), (0, 0, -1), (0, 0, -1), (0, 0, -1), (0, 0, -1), (0, 0, -1), (0, 0, -1), (1, 0, 0), (1, 0, 0), (1, 0, 0), (1, 0, 0), (1, 0, 0), (1, 0, 0), (0, 1, 0), (0, 1, 0), (0, 1, 0), (0, 1, 0), (0, 1, 0), (0, 1, 0), (0, 0, 1), (0, 0, 1), (0, 0, 1), (0, 0, 1), (0, 0, 1), (0, 0, 1), (0, 0, 1), (0, 0, 1), (0, 0, 1), (0, 1, 0), (0, 1, 0), (0, 1, 0), (0, 1, 0), (0, 1, 0), (0, 1, 0), (0, 0, -1), (0, 0, -1), (0, 0, -1), (0, 0, -1), (0, 0, -1), (0, 0, -1), (1, 0, 0), (1, 0, 0), (1, 0, 0), (1, 0, 0), (1, 0, 0), (1, 0, 0), (0, 0, 1), (0, 0, 1), (0, 0, 1), (0, 0, 1), (0, 0, 1), (0, 0, 1), (0, 0, -1), (0, 0, -1), (0, 0, -1), (0, 0, -1), (0, 0, -1), (0, 0, -1), (0, 0, -1), (0, 0, -1), (0, 0, -1), (0, 0, -1), (0, 0, -1), (0, 0, -1), (0, 0, -1), (0, 0, -1), (0, 0, -1), (0, 0, -1), (0, 0, -1), (0, 0, -1), (0, 0, -1), (0, 0, -1), (0, 0, -1), (0, 0, -1), (0, 0, -1), (0, 0, -1), (0, -1, 0), (0, -1, 0), (0, -1, 0), (0, -1, 0), (0, -1, 0), (0, -1, 0), (0, -1, 0), (0, -1, 0), (0, -1, 0), (0, -1, 0), (0, -1, 0), (0, -1, 0), (0, -1, 0), (0, -1, 0), (0, -1, 0), (0, -1, 0), (0, -1, 0), (0, -1, 0), (0, -1, 0), (0, -1, 0), (0, -1, 0), (0, 0, 1), (0, 0, 1), (0, 0, 1), (0, 0, 1), (0, 0, 1), (0, 0, 1), (0, 0, -1), (0, 0, -1), (0, 0, -1), (0, 0, -1), (0, 0, -1), (0, 0, -1), (-1, 0, 0), (-1, 0, 0), (-1, 0, 0), (-1, 0, 0), (-1, 0, 0), (-1, 0, 0), (0, 1, 0), (0, 1, 0), (0, 1, 0), (0, 1, 0), (0, 1, 0), (0, 1, 0), (0, 1, 0), (0, 1, 0), (0, 1, 0), (0, 1, 0), (0, 1, 0), (0, 1, 0), (0, 1, 0), (0, 1, 0), (0, 1, 0), (0, 1, 0), (0, 1, 0), (0, 1, 0), (0, 1, 0), (0, 1, 0), (0, 1, 0), (0, 1, 0), (0, 1, 0), (0, 1, 0), (0, 1, 0), (0, 1, 0), (0, 1, 0), (0, 1, 0), (0, 1, 0), (0, 1, 0), (0, 1, 0), (0, 1, 0), (0, 1, 0), (-0.447214, 0.894427, 0), (-0.447214, 0.894427, 0), (-0.447214, 0.894427, 0), (-0.447214, 0.894427, 0), (-0.447214, 0.894427, 0), (-0.447214, 0.894427, 0), (0, 1, 0), (0, 1, 0), (0, 1, 0), (0, 1, 0), (0, 1, 0), (0, 1, 0), (-1, 0, 0), (-1, 0, 0), (-1, 0, 0), (-1, 0, 0), (-1, 0, 0), (-1, 0, 0), (0, 0, 1), (0, 0, 1), (0, 0, 1), (0, 0, 1), (0, 0, 1), (0, 0, 1), (0, 0, 1), (0, 0, 1), (0, 0, 1), (0, 0, -1), (0, 0, -1), (0, 0, -1), (0, 0, -1), (0, 0, -1), (0, 0, -1), (0, 0, -1), (0, 0, -1), (0, 0, -1)] (interpolation = "faceVarying")
        texCoord2f[] primvars:st = [(7.87402, 27.0537), (7.87402, 19.1797), (11.811, 27.0537), (7.87402, -24.1274), (11.811, 27.0537), (7.87402, 19.1797), (23.6221, -24.1274), (11.811, 27.0537), (7.87402, -24.1274), (39.3701, -24.1274), (11.811, 27.0537), (23.6221, -24.1274), (11.811, 27.0537), (39.3701, -24.1274), (39.3701, -0.505327), (7.87402, -24.1274), (7.87402, 19.1797), (7.87402, 3.43168), (-7.87402, 2.26486e-12), (-11.811, 3.93701), (-23.6221, 2.26486e-12), (-11.811, 3.93701), (-7.87402, 2.26486e-12), (-7.87402, 19.685), (-11.811, 3.93701), (-7.87402, 19.685), (-11.811, 15.748), (-11.811, 15.748), (-7.87402, 19.685), (-19.685, 15.748), (-19.685, 3.93701), (-23.6221, 2.26486e-12), (-11.811, 3.93701), (-23.6221, 2.26486e-12), (-19.685, 3.93701), (-23.6221, 19.685), (-23.6221, 19.685), (-19.685, 3.93701), (-19.685, 15.748), (-23.6221, 19.685), (-19.685, 15.748), (-7.87402, 19.685), (-39.3701, -24.1274), (-31.4961, -14.2849), (-39.3701, -0.505327), (-31.4961, -14.2849), (-39.3701, -24.1274), (-23.6221, -24.1274), (-31.4961, -14.2849), (-23.6221, -24.1274), (-23.6221, -14.2849), (-31.4961, -10.3478), (-39.3701, -0.505327), (-31.4961, -14.2849), (-39.3701, -0.505327), (-31.4961, -10.3478), (-11.811, 27.0537), (-11.811, 27.0537), (-31.4961, -10.3478), (-23.6221, -0.505327), (-23.6221, -0.505327), (-31.4961, -10.3478), (-23.6221, -10.3478), (-11.811, 27.0537), (-23.6221, -0.505327), (-7.87402, 15.2427), (-11.811, 27.0537), (-7.87402, 15.2427), (-7.87402, 27.0537), (14.2849, -21.1282), (10.3478, -25.5299), (14.2849, -25.5299), (10.3478, -25.5299), (14.2849, -21.1282), (10.3478, -21.1282), (-23.6221, 3.93701), (-31.4961, 5.90551), (-31.4961, 3.93701), (-31.4961, 5.90551), (-23.6221, 3.93701), (-23.6221, 7.87402), (-31.4961, 5.90551), (-23.6221, 7.87402), (-27.5591, 7.87402), (10.3478, 5.90551), (14.2849, 3.93701), (14.2849, 5.90551), (14.2849, 3.93701), (10.3478, 5.90551), (10.3478, 3.93701), (-23.6221, -14.2849), (-27.5591, -10.3478), (-27.5591, -14.2849), (-27.5591, -10.3478), (-23.6221, -14.2849), (-23.6221, -10.3478), (31.4961, 5.90551), (23.6221, 3.93701), (31.4961, 3.93701), (23.6221, 3.93701), (31.4961, 5.90551), (23.6221, 7.87402), (23.6221, 7.87402), (31.4961, 5.90551), (27.5591, 7.87402), (-7.87402, -12.3163), (-17.7165, 3.43168), (-17.7165, -12.3163), (-17.7165, 3.43168), (-7.87402, -12.3163), (-7.87402, 3.43168), (-7.87402, 19.685), (-17.7165, 15.748), (-7.87402, 15.748), (-17.7165, 15.748), (-7.87402, 19.685), (-17.7165, 19.685), (-3.43168, 19.685), (12.3163, 15.748), (12.3163, 19.685), (12.3163, 15.748), (-3.43168, 19.685), (-3.43168, 15.748), (17.7165, 19.685), (7.87402, 15.748), (17.7165, 15.748), (7.87402, 15.748), (17.7165, 19.685), (7.87402, 19.685), (23.6221, 2.26486e-12), (19.685, 3.93701), (7.87402, 2.26486e-12), (19.685, 3.93701), (23.6221, 2.26486e-12), (23.6221, 19.685), (19.685, 3.93701), (23.6221, 19.685), (19.685, 15.748), (19.685, 15.748), (23.6221, 19.685), (11.811, 15.748), (11.811, 3.93701), (7.87402, 2.26486e-12), (19.685, 3.93701), (7.87402, 2.26486e-12), (11.811, 3.93701), (7.87402, 19.685), (7.87402, 19.685), (11.811, 3.93701), (11.811, 15.748), (7.87402, 19.685), (11.811, 15.748), (23.6221, 19.685), (-11.811, 27.0537), (-7.87402, 19.1797), (-7.87402, 27.0537), (-7.87402, 19.1797), (-11.811, 27.0537), (-7.87402, 3.43168), (-7.87402, 3.43168), (-11.811, 27.0537), (-7.87402, -24.1274), (-7.87402, -24.1274), (-11.811, 27.0537), (-23.6221, -24.1274), (-23.6221, -24.1274), (-11.811, 27.0537), (-39.3701, -0.505327), (-23.6221, -24.1274), (-39.3701, -0.505327), (-39.3701, -24.1274), (-7.87402, -24.1274), (-7.87402, -0.505327), (-7.87402, 3.43168), (-7.87402, 19.685), (-17.7165, 15.748), (-7.87402, 15.748), (-17.7165, 15.748), (-7.87402, 19.685), (-17.7165, 19.685), (17.7165, 19.685), (7.87402, 15.748), (17.7165, 15.748), (7.87402, 15.748), (17.7165, 19.685), (7.87402, 19.685), (3.43168, 15.748), (-12.3163, 19.685), (-12.3163, 15.748), (-12.3163, 19.685), (3.43168, 15.748), (3.43168, 19.685), (17.7165, -12.3163), (7.87402, 3.43168), (7.87402, -12.3163), (7.87402, 3.43168), (17.7165, -12.3163), (17.7165, 3.43168), (31.4961, -8.37934), (23.6221, -0.505327), (23.6221, -8.37934), (39.3701, -0.505327), (23.6221, -0.505327), (31.4961, -8.37934), (11.811, 27.0537), (23.6221, -0.505327), (39.3701, -0.505327), (7.87402, 27.0537), (23.6221, -0.505327), (11.811, 27.0537), (23.6221, -0.505327), (7.87402, 27.0537), (7.87402, 15.2427), (39.3701, -0.505327), (31.4961, -8.37934), (31.4961, -12.3163), (39.3701, -0.505327), (31.4961, -12.3163), (39.3701, -24.1274), (23.6221, -12.3163), (39.3701, -24.1274), (31.4961, -12.3163), (39.3701, -24.1274), (23.6221, -12.3163), (23.6221, -24.1274), (-12.3163, -21.1282), (-8.37934, -25.5299), (-8.37934, -21.1282), (-8.37934, -25.5299), (-12.3163, -21.1282), (-12.3163, -25.5299), (27.5591, -12.3163), (23.6221, -8.37934), (23.6221, -12.3163), (23.6221, -8.37934), (27.5591, -12.3163), (27.5591, -8.37934), (-8.37934, 3.93701), (-12.3163, 5.90551), (-12.3163, 3.93701), (-12.3163, 5.90551), (-8.37934, 3.93701), (-8.37934, 5.90551), (-23.6221, 3.93701), (-31.4961, 5.90551), (-31.4961, 3.93701), (-31.4961, 5.90551), (-23.6221, 3.93701), (-23.6221, 7.87402), (-31.4961, 5.90551), (-23.6221, 7.87402), (-27.5591, 7.87402), (31.4961, 5.90551), (23.6221, 3.93701), (31.4961, 3.93701), (23.6221, 3.93701), (31.4961, 5.90551), (23.6221, 7.87402), (23.6221, 7.87402), (31.4961, 5.90551), (27.5591, 7.87402)] (interpolation = "faceVarying")
        uniform token subdivisionScheme = "none"
        rel material:binding = </Vehicle/Materials/metal>
    }
    def Mesh "mesh_metalRed" {
        int[] faceVertexCounts = [3, 3, 3, 3, 3, 3, 3, 3, 3, 3, 3, 3, 3, 3, 3, 3, 3, 3, 3, 3, 3, 3, 3, 3, 3, 3, 3, 3, 3, 3, 3, 3, 3, 3, 3, 3, 3, 3, 3, 3, 3, 3, 3, 3, 3, 3, 3, 3, 3, 3, 3, 3, 3, 3, 3, 3, 3, 3, 3, 3, 3, 3, 3, 3, 3, 3, 3, 3, 3, 3, 3, 3, 3, 3]
        int[] faceVertexIndices = [4, 18, 5, 18, 4, 19, 22, 2, 0, 2, 22, 83, 83, 22, 26, 16, 5, 18, 5, 16, 6, 22, 6, 16, 6, 22, 0, 85, 19, 84, 19, 85, 31, 31, 85, 32, 32, 85, 24, 24, 85, 23, 20, 19, 31, 85, 86, 23, 86, 85, 87, 86, 87, 88, 88, 87, 89, 90, 23, 86, 23, 90, 25, 25, 90, 89, 25, 89, 87, 91, 38, 84, 38, 91, 37, 39, 84, 38, 39, 85, 84, 85, 39, 87, 87, 39, 40, 51, 69, 55, 69, 51, 70, 49, 70, 51, 70, 49, 92, 70, 92, 71, 55, 74, 56, 74, 55, 69, 74, 54, 56, 54, 74, 76, 67, 94, 93, 94, 67, 72, 94, 72, 95, 95, 72, 96, 97, 93, 94, 93, 97, 98, 98, 97, 96, 98, 96, 72, 67, 82, 66, 93, 82, 67, 93, 81, 82, 99, 81, 93, 99, 75, 81, 75, 99, 76, 99, 63, 100, 63, 99, 62, 62, 99, 59, 93, 59, 99, 98, 59, 93, 59, 98, 58, 83, 1, 2, 49, 50, 92, 101, 71, 92, 98, 71, 101, 71, 98, 72, 50, 7, 1, 7, 50, 52, 103, 92, 102, 92, 103, 101, 50, 102, 92, 50, 104, 102, 1, 104, 50, 104, 1, 83, 87, 26, 25, 26, 87, 104, 26, 104, 83]
        point3f[] points = [(0.3, 5.00262e-14, 0.687165), (0.2, 5.82758e-14, 0.487165), (0.2, 5.71664e-14, 0.687165), (0.2, 5.71664e-14, -0.612835), (0.6, 5.75273e-14, -0.612835), (1, 0, -0.612835), (1, 0, -0.0128353), (0.2, 6.15977e-14, 0.0871648), (0.6, 5.75273e-14, -1.01283), (0.3, 0.1, -1.01283), (0.2, 5.75273e-14, -1.01283), (0.2, 0.5, -1.01283), (0.3, 0.4, -1.01283), (0.5, 0.4, -1.01283), (0.5, 0.1, -1.01283), (0.6, 0.5, -1.01283), (1, 0.1, -0.0128353), (0.8, 0.1, -0.362835), (1, 0.1, -0.612835), (0.6, 0.1, -0.612835), (0.6, 0.1, -0.362835), (0.8, 0.1, -0.262835), (0.3, 0.1, 0.687165), (0.6, 0.1, -0.0128353), (0.6, 0.1, -0.262835), (0.2, 0.1, 0.387165), (0.2, 0.1, 0.687165), (0.8, 0.15, -0.362835), (0.8, 0.15, -0.262835), (0.7, 0.2, -0.362835), (0.7, 0.2, -0.262835), (0.6, 0.2, -0.362835), (0.6, 0.2, -0.262835), (0.45, 0.5, -0.312835), (0.45, 0.5, 0.0871648), (0.2, 0.5, -0.312835), (0.2, 0.5, 0.0871648), (0.2, 0.4, -0.312835), (0.45, 0.4, -0.312835), (0.45, 0.4, 0.0871648), (0.2, 0.4, 0.0871648), (-0.2, 5.75273e-14, -1.01283), (-0.5, 0.1, -1.01283), (-0.6, 5.75273e-14, -1.01283), (-0.6, 0.5, -1.01283), (-0.5, 0.4, -1.01283), (-0.3, 0.4, -1.01283), (-0.3, 0.1, -1.01283), (-0.2, 0.5, -1.01283), (-0.2, 5.71664e-14, 0.687165), (-0.2, 5.69044e-14, 0.487165), (-0.3, 5.00262e-14, 0.687165), (-0.2, 5.71664e-14, 0.0871648), (-0.2, 5.75273e-14, -0.612835), (-0.6, 5.75273e-14, -0.612835), (-1, 0, -0.0128353), (-1, 0, -0.612835), (-0.2, 5.87316e-14, -0.0128353), (-0.2, 0.4, 0.0871648), (-0.45, 0.4, 0.0871648), (-0.2, 0.5, 0.0871648), (-0.45, 0.5, 0.0871648), (-0.45, 0.4, -0.312835), (-0.2, 0.4, -0.312835), (-0.45, 0.5, -0.312835), (-0.2, 0.5, -0.312835), (-0.6, 0.1, -0.212835), (-0.6, 0.1, -0.0128353), (-0.8, 0.1, -0.212835), (-1, 0.1, -0.0128353), (-0.3, 0.1, 0.687165), (-0.2, 0.1, 0.687165), (-0.2, 0.1, 0.387165), (-0.8, 0.1, -0.312835), (-1, 0.1, -0.612835), (-0.6, 0.1, -0.312835), (-0.6, 0.1, -0.612835), (-0.7, 0.2, -0.212835), (-0.8, 0.15, -0.212835), (-0.7, 0.2, -0.312835), (-0.8, 0.15, -0.312835), (-0.6, 0.2, -0.312835), (-0.6, 0.2, -0.212835), (0.2, 0.0317492, 0.687165), (0.6, 0.4, -0.612835), (0.6, 0.4, -0.0128353), (0.529289, 0.3, 0.0578754), (0.2, 0.4, 0.387165), (0.270711, 0.3, 0.316454), (0.270711, 0.2, 0.316454), (0.529289, 0.2, 0.0578754), (0.2, 0.4, -0.612835), (-0.2, 0.0317492, 0.687165), (-0.6, 0.4, -0.0128353), (-0.529289, 0.2, 0.0578754), (-0.270711, 0.2, 0.316454), (-0.270711, 0.3, 0.316454), (-0.529289, 0.3, 0.0578754), (-0.2, 0.4, 0.387165), (-0.6, 0.4, -0.612835), (-0.2, 0.4, -0.612835), (-0.2, 0.073163, 0.948045), (0.2, 0.0834482, 1.01283), (-0.2, 0.0834482, 1.01283), (0.2, 0.073163, 0.948045), (0.6, 0.5, -0.912835), (0.2, 0.5, -0.912835), (0.2, 0.42, -0.672835), (0.2, 5.73017e-14, -0.712835), (0.2, 0.4, -0.712835), (-0.2, 0.4, -0.712835), (0.2, 0.6, -0.312835), (-0.2, 0.42, -0.672835), (-0.2, 0.6, -0.312835), (-0.2, 5.71664e-14, -0.712835), (0.2, 0.6, 0.0871648), (-0.2, 0.6, 0.0871648), (-0.2, 0.5, -0.912835), (-0.6, 0.5, -0.912835), (0.2, 0.59005, 0.286668), (-0.2, 0.59005, 0.286668), (0.2, 0.166897, 1.01283), (-0.2, 0.166897, 1.01283), (0.3, 0.1, -0.812835), (0.5, 0.1, -0.812835), (0.3, 0.4, -0.812835), (0.5, 0.4, -0.812835), (0.270711, 0.3, 0.0578754), (0.270711, 0.2, 0.0578754), (-0.5, 0.4, -0.812835), (-0.5, 0.1, -0.812835), (-0.3, 0.4, -0.812835), (-0.3, 0.1, -0.812835), (-0.270711, 0.2, 0.0578754), (-0.270711, 0.3, 0.0578754), (-0.0999999, 0.566896, 0.812835), (0.1, 0.566896, 0.812835)]
        normal3f[] normals = [(0, 0, -1), (0, 0, -1), (0, 0, -1), (0, 0, -1), (0, 0, -1), (0, 0, -1), (0, 0, 1), (0, 0, 1), (0, 0, 1), (0, 0, 1), (0, 0, 1), (0, 0, 1), (0, 0, 1), (0, 0, 1), (0, 0, 1), (1, 0, 0), (1, 0, 0), (1, 0, 0), (1, 0, 0), (1, 0, 0), (1, 0, 0), (0.707107, 0, 0.707107), (0.707107, 0, 0.707107), (0.707107, 0, 0.707107), (0.707107, 0, 0.707107), (0.707107, 0, 0.707107), (0.707107, 0, 0.707107), (1, 0, 0), (1, 0, 0), (1, 0, 0), (1, 0, 0), (1, 0, 0), (1, 0, 0), (1, 0, 0), (1, 0, 0), (1, 0, 0), (1, 0, 0), (1, 0, 0), (1, 0, 0), (1, 0, 0), (1, 0, 0), (1, 0, 0), (1, 0, 0), (1, 0, 0), (1, 0, 0), (0.707107, 0, 0.707107), (0.707107, 0, 0.707107), (0.707107, 0, 0.707107), (0.707107, 0, 0.707107), (0.707107, 0, 0.707107), (0.707107, 0, 0.707107), (0.707107, 0, 0.707107), (0.707107, 0, 0.707107), (0.707107, 0, 0.707107), (0.707107, 0, 0.707107), (0.707107, 0, 0.707107), (0.707107, 0, 0.707107), (0.707107, 0, 0.707107), (0.707107, 0, 0.707107), (0.707107, 0, 0.707107), (0.707107, 0, 0.707107), (0.707107, 0, 0.707107), (0.707107, 0, 0.707107), (0.707107, 0, 0.707107), (0.707107, 0, 0.707107), (0.707107, 0, 0.707107), (0.707107, 0, 0.707107), (0.707107, 0, 0.707107), (0.707107, 0, 0.707107), (0, 1, 0), (0, 1, 0), (0, 1, 0), (0, 1, 0), (0, 1, 0), (0, 1, 0), (0, 1, 0), (0, 1, 0), (0, 1, 0), (0, 1, 0), (0, 1, 0), (0, 1, 0), (0, 1, 0), (0, 1, 0), (0, 1, 0), (0, 1, 0), (0, 1, 0), (0, 1, 0), (-0.707107, 0, 0.707107), (-0.707107, 0, 0.707107), (-0.707107, 0, 0.707107), (-0.707107, 0, 0.707107), (-0.707107, 0, 0.707107), (-0.707107, 0, 0.707107), (0, 0, 1), (0, 0, 1), (0, 0, 1), (0, 0, 1), (0, 0, 1), (0, 0, 1), (0, 0, 1), (0, 0, 1), (0, 0, 1), (-1, 0, 0), (-1, 0, 0), (-1, 0, 0), (-1, 0, 0), (-1, 0, 0), (-1, 0, 0), (0, 0, -1), (0, 0, -1), (0, 0, -1), (0, 0, -1), (0, 0, -1), (0, 0, -1), (-0.707107, 0, 0.707107), (-0.707107, 0, 0.707107), (-0.707107, 0, 0.707107), (-0.707107, 0, 0.707107), (-0.707107, 0, 0.707107), (-0.707107, 0, 0.707107), (-0.707107, 0, 0.707107), (-0.707107, 0, 0.707107), (-0.707107, 0, 0.707107), (-0.707107, 0, 0.707107), (-0.707107, 0, 0.707107), (-0.707107, 0, 0.707107), (-0.707107, 0, 0.707107), (-0.707107, 0, 0.707107), (-0.707107, 0, 0.707107), (-0.707107, 0, 0.707107), (-0.707107, 0, 0.707107), (-0.707107, 0, 0.707107), (-0.707107, 0, 0.707107), (-0.707107, 0, 0.707107), (-0.707107, 0, 0.707107), (-0.707107, 0, 0.707107), (-0.707107, 0, 0.707107), (-0.707107, 0, 0.707107), (-1, 0, 0), (-1, 0, 0), (-1, 0, 0), (-1, 0, 0), (-1, 0, 0), (-1, 0, 0), (-1, 0, 0), (-1, 0, 0), (-1, 0, 0), (-1, 0, 0), (-1, 0, 0), (-1, 0, 0), (-1, 0, 0), (-1, 0, 0), (-1, 0, 0), (-1, 0, 0), (-1, 0, 0), (-1, 0, 0), (0, 1, 0), (0, 1, 0), (0, 1, 0), (0, 1, 0), (0, 1, 0), (0, 1, 0), (0, 1, 0), (0, 1, 0), (0, 1, 0), (0, 1, 0), (0, 1, 0), (0, 1, 0), (0, 1, 0), (0, 1, 0), (0, 1, 0), (0, 1, 0), (0, 1, 0), (0, 1, 0), (-1, 0, 0), (-1, 0, 0), (-1, 0, 0), (1, 0, 0), (1, 0, 0), (1, 0, 0), (-1, 0, 0), (-1, 0, 0), (-1, 0, 0), (-1, 0, 0), (-1, 0, 0), (-1, 0, 0), (-1, 0, 0), (-1, 0, 0), (-1, 0, 0), (0, -1, 0), (0, -1, 0), (0, -1, 0), (0, -1, 0), (0, -1, 0), (0, -1, 0), (0, -0.987633, 0.156783), (0, -0.987633, 0.156783), (0, -0.987633, 0.156783), (0, -0.987633, 0.156783), (0, -0.987633, 0.156783), (0, -0.987633, 0.156783), (0, -0.987633, 0.156783), (0, -0.987633, 0.156783), (0, -0.987633, 0.156783), (0, -0.987633, 0.156783), (0, -0.987633, 0.156783), (0, -0.987633, 0.156783), (0, -0.987633, 0.156783), (0, -0.987633, 0.156783), (0, -0.987633, 0.156783), (0, -0.987633, 0.156783), (0, -0.987633, 0.156783), (0, -0.987633, 0.156783), (1, 0, 0), (1, 0, 0), (1, 0, 0), (1, 0, 0), (1, 0, 0), (1, 0, 0), (1, 0, 0), (1, 0, 0), (1, 0, 0)] (interpolation = "faceVarying")
        texCoord2f[] primvars:st = [(-23.6221, 2.26486e-12), (-39.3701, 3.93701), (-39.3701, 0), (-39.3701, 3.93701), (-23.6221, 2.26486e-12), (-23.6221, 3.93701), (11.811, 3.93701), (7.87402, 2.25064e-12), (11.811, 1.96954e-12), (7.87402, 2.25064e-12), (11.811, 3.93701), (7.87402, 1.24997), (7.87402, 1.24997), (11.811, 3.93701), (7.87402, 3.93701), (0.505327, 3.93701), (24.1274, 2.81326e-12), (24.1274, 3.93701), (24.1274, 2.81326e-12), (0.505327, 3.93701), (0.505327, 2.81326e-12), (-10.7782, 3.93701), (28.1962, 1.12242e-12), (28.1962, 3.93701), (28.1962, 1.12242e-12), (-10.7782, 3.93701), (-10.7782, 3.09195e-12), (0.505327, 15.748), (24.1274, 3.93701), (24.1274, 15.748), (24.1274, 3.93701), (0.505327, 15.748), (14.2849, 7.87402), (14.2849, 7.87402), (0.505327, 15.748), (10.3478, 7.87402), (10.3478, 7.87402), (0.505327, 15.748), (10.3478, 3.93701), (10.3478, 3.93701), (0.505327, 15.748), (0.505327, 3.93701), (14.2849, 3.93701), (24.1274, 3.93701), (14.2849, 7.87402), (17.0606, 15.748), (13.1236, 11.811), (17.0606, 3.93701), (13.1236, 11.811), (17.0606, 15.748), (-5.21045, 15.748), (13.1236, 11.811), (-5.21045, 15.748), (-1.27344, 11.811), (-1.27344, 11.811), (-5.21045, 15.748), (-1.27344, 7.87402), (13.1236, 7.87402), (17.0606, 3.93701), (13.1236, 11.811), (17.0606, 3.93701), (13.1236, 7.87402), (-5.21045, 3.93701), (-5.21045, 3.93701), (13.1236, 7.87402), (-1.27344, 7.87402), (-5.21045, 3.93701), (-1.27344, 7.87402), (-5.21045, 15.748), (-7.87402, -24.1274), (-17.7165, -12.3163), (-23.6221, -24.1274), (-17.7165, -12.3163), (-7.87402, -24.1274), (-7.87402, -12.3163), (-17.7165, 3.43168), (-23.6221, -24.1274), (-17.7165, -12.3163), (-17.7165, 3.43168), (-23.6221, -0.505327), (-23.6221, -24.1274), (-23.6221, -0.505327), (-17.7165, 3.43168), (-7.87402, 15.2427), (-7.87402, 15.2427), (-17.7165, 3.43168), (-7.87402, 3.43168), (10.7782, 3.09195e-12), (-28.1962, 3.93701), (-28.1962, 1.12242e-12), (-28.1962, 3.93701), (10.7782, 3.09195e-12), (10.7782, 3.93701), (-7.87402, 2.25064e-12), (-11.811, 3.93701), (-11.811, 1.96954e-12), (-11.811, 3.93701), (-7.87402, 2.25064e-12), (-7.87402, 1.24997), (-11.811, 3.93701), (-7.87402, 1.24997), (-7.87402, 3.93701), (-0.505327, 2.81326e-12), (-24.1274, 3.93701), (-24.1274, 2.81326e-12), (-24.1274, 3.93701), (-0.505327, 2.81326e-12), (-0.505327, 3.93701), (39.3701, 3.93701), (23.6221, 2.26486e-12), (39.3701, 0), (23.6221, 2.26486e-12), (39.3701, 3.93701), (23.6221, 3.93701), (-17.0606, 3.93701), (-13.1236, 7.87402), (-17.0606, 15.748), (-13.1236, 7.87402), (-17.0606, 3.93701), (5.21045, 3.93701), (-13.1236, 7.87402), (5.21045, 3.93701), (1.27344, 7.87402), (1.27344, 7.87402), (5.21045, 3.93701), (1.27344, 11.811), (-13.1236, 11.811), (-17.0606, 15.748), (-13.1236, 7.87402), (-17.0606, 15.748), (-13.1236, 11.811), (5.21045, 15.748), (5.21045, 15.748), (-13.1236, 11.811), (1.27344, 11.811), (5.21045, 15.748), (1.27344, 11.811), (5.21045, 3.93701), (-0.505327, 3.93701), (-8.37934, 7.87402), (-8.37934, 3.93701), (-0.505327, 15.748), (-8.37934, 7.87402), (-0.505327, 3.93701), (-0.505327, 15.748), (-12.3163, 7.87402), (-8.37934, 7.87402), (-24.1274, 15.748), (-12.3163, 7.87402), (-0.505327, 15.748), (-24.1274, 15.748), (-12.3163, 3.93701), (-12.3163, 7.87402), (-12.3163, 3.93701), (-24.1274, 15.748), (-24.1274, 3.93701), (23.6221, -24.1274), (7.87402, -12.3163), (7.87402, -24.1274), (7.87402, -12.3163), (23.6221, -24.1274), (17.7165, -12.3163), (17.7165, -12.3163), (23.6221, -24.1274), (17.7165, 3.43168), (23.6221, -0.505327), (17.7165, 3.43168), (23.6221, -24.1274), (7.87402, 15.2427), (17.7165, 3.43168), (23.6221, -0.505327), (17.7165, 3.43168), (7.87402, 15.2427), (7.87402, 3.43168), (27.0537, 1.24997), (19.1797, 3.72663e-12), (27.0537, 3.68295e-12), (-27.0537, 4.39911e-12), (-19.1797, 4.3888e-12), (-27.0537, 1.24997), (37.3246, 2.88043), (27.0537, 3.93701), (27.0537, 1.24997), (15.2427, 15.748), (27.0537, 3.93701), (37.3246, 2.88043), (27.0537, 3.93701), (15.2427, 15.748), (15.2427, 3.93701), (-7.87402, 19.1797), (7.87402, 3.43168), (7.87402, 19.1797), (7.87402, 3.43168), (-7.87402, 19.1797), (-7.87402, 3.43168), (-7.87402, 39.8974), (-7.87402, 26.9151), (7.87402, 39.8974), (-7.87402, 26.9151), (-7.87402, 39.8974), (-7.87402, 37.3146), (-7.87402, 18.9425), (7.87402, 39.8974), (-7.87402, 26.9151), (-7.87402, 18.9425), (7.87402, 37.3146), (7.87402, 39.8974), (7.87402, 18.9425), (7.87402, 37.3146), (-7.87402, 18.9425), (7.87402, 37.3146), (7.87402, 18.9425), (7.87402, 26.9151), (-15.2427, 15.748), (-27.0537, 3.93701), (-15.2427, 3.93701), (-27.0537, 3.93701), (-15.2427, 15.748), (-37.3246, 2.88043), (-27.0537, 3.93701), (-37.3246, 2.88043), (-27.0537, 1.24997)] (interpolation = "faceVarying")
        uniform token subdivisionScheme = "none"
        rel material:binding = </Vehicle/Materials/metalRed>
    }
    def Mesh "mesh_metalDark" {
        int[] faceVertexCounts = [3, 3, 3, 3, 3, 3, 3, 3, 3, 3, 3, 3, 3, 3, 3, 3, 3, 3, 3, 3, 3, 3, 3, 3, 3, 3, 3, 3, 3, 3, 3, 3, 3, 3, 3, 3, 3, 3, 3, 3, 3, 3, 3, 3, 3, 3, 3, 3, 3, 3, 3, 3, 3, 3, 3, 3, 3, 3, 3, 3, 3, 3, 3, 3, 3, 3, 3, 3, 3, 3, 3]
        int[] faceVertexIndices = [106, 84, 105, 84, 106, 91, 91, 106, 107, 11, 105, 15, 105, 11, 106, 105, 8, 15, 8, 105, 4, 4, 105, 84, 4, 84, 19, 108, 11, 10, 11, 108, 106, 106, 108, 109, 106, 109, 107, 110, 107, 109, 107, 110, 111, 111, 110, 112, 113, 111, 112, 110, 108, 114, 108, 110, 109, 113, 115, 111, 115, 113, 116, 57, 114, 108, 114, 57, 53, 114, 53, 54, 43, 114, 54, 114, 43, 41, 108, 52, 57, 3, 52, 108, 52, 3, 7, 10, 3, 108, 8, 3, 10, 3, 8, 4, 44, 117, 48, 117, 44, 118, 112, 110, 117, 114, 117, 110, 41, 117, 114, 117, 41, 48, 54, 44, 43, 44, 54, 118, 118, 54, 99, 99, 54, 76, 118, 112, 117, 112, 118, 100, 100, 118, 99, 116, 119, 115, 119, 116, 120, 115, 35, 111, 35, 115, 36, 36, 115, 119, 36, 119, 40, 40, 119, 87, 87, 119, 121, 87, 121, 104, 104, 121, 102, 37, 111, 35, 91, 111, 37, 111, 91, 107, 121, 103, 102, 103, 121, 122, 98, 60, 58, 60, 98, 116, 116, 98, 120, 120, 98, 122, 122, 98, 101, 122, 101, 103, 113, 60, 116, 113, 65, 60, 113, 63, 65, 113, 100, 63, 100, 113, 112]
        point3f[] points = [(0.3, 5.00262e-14, 0.687165), (0.2, 5.82758e-14, 0.487165), (0.2, 5.71664e-14, 0.687165), (0.2, 5.71664e-14, -0.612835), (0.6, 5.75273e-14, -0.612835), (1, 0, -0.612835), (1, 0, -0.0128353), (0.2, 6.15977e-14, 0.0871648), (0.6, 5.75273e-14, -1.01283), (0.3, 0.1, -1.01283), (0.2, 5.75273e-14, -1.01283), (0.2, 0.5, -1.01283), (0.3, 0.4, -1.01283), (0.5, 0.4, -1.01283), (0.5, 0.1, -1.01283), (0.6, 0.5, -1.01283), (1, 0.1, -0.0128353), (0.8, 0.1, -0.362835), (1, 0.1, -0.612835), (0.6, 0.1, -0.612835), (0.6, 0.1, -0.362835), (0.8, 0.1, -0.262835), (0.3, 0.1, 0.687165), (0.6, 0.1, -0.0128353), (0.6, 0.1, -0.262835), (0.2, 0.1, 0.387165), (0.2, 0.1, 0.687165), (0.8, 0.15, -0.362835), (0.8, 0.15, -0.262835), (0.7, 0.2, -0.362835), (0.7, 0.2, -0.262835), (0.6, 0.2, -0.362835), (0.6, 0.2, -0.262835), (0.45, 0.5, -0.312835), (0.45, 0.5, 0.0871648), (0.2, 0.5, -0.312835), (0.2, 0.5, 0.0871648), (0.2, 0.4, -0.312835), (0.45, 0.4, -0.312835), (0.45, 0.4, 0.0871648), (0.2, 0.4, 0.0871648), (-0.2, 5.75273e-14, -1.01283), (-0.5, 0.1, -1.01283), (-0.6, 5.75273e-14, -1.01283), (-0.6, 0.5, -1.01283), (-0.5, 0.4, -1.01283), (-0.3, 0.4, -1.01283), (-0.3, 0.1, -1.01283), (-0.2, 0.5, -1.01283), (-0.2, 5.71664e-14, 0.687165), (-0.2, 5.69044e-14, 0.487165), (-0.3, 5.00262e-14, 0.687165), (-0.2, 5.71664e-14, 0.0871648), (-0.2, 5.75273e-14, -0.612835), (-0.6, 5.75273e-14, -0.612835), (-1, 0, -0.0128353), (-1, 0, -0.612835), (-0.2, 5.87316e-14, -0.0128353), (-0.2, 0.4, 0.0871648), (-0.45, 0.4, 0.0871648), (-0.2, 0.5, 0.0871648), (-0.45, 0.5, 0.0871648), (-0.45, 0.4, -0.312835), (-0.2, 0.4, -0.312835), (-0.45, 0.5, -0.312835), (-0.2, 0.5, -0.312835), (-0.6, 0.1, -0.212835), (-0.6, 0.1, -0.0128353), (-0.8, 0.1, -0.212835), (-1, 0.1, -0.0128353), (-0.3, 0.1, 0.687165), (-0.2, 0.1, 0.687165), (-0.2, 0.1, 0.387165), (-0.8, 0.1, -0.312835), (-1, 0.1, -0.612835), (-0.6, 0.1, -0.312835), (-0.6, 0.1, -0.612835), (-0.7, 0.2, -0.212835), (-0.8, 0.15, -0.212835), (-0.7, 0.2, -0.312835), (-0.8, 0.15, -0.312835), (-0.6, 0.2, -0.312835), (-0.6, 0.2, -0.212835), (0.2, 0.0317492, 0.687165), (0.6, 0.4, -0.612835), (0.6, 0.4, -0.0128353), (0.529289, 0.3, 0.0578754), (0.2, 0.4, 0.387165), (0.270711, 0.3, 0.316454), (0.270711, 0.2, 0.316454), (0.529289, 0.2, 0.0578754), (0.2, 0.4, -0.612835), (-0.2, 0.0317492, 0.687165), (-0.6, 0.4, -0.0128353), (-0.529289, 0.2, 0.0578754), (-0.270711, 0.2, 0.316454), (-0.270711, 0.3, 0.316454), (-0.529289, 0.3, 0.0578754), (-0.2, 0.4, 0.387165), (-0.6, 0.4, -0.612835), (-0.2, 0.4, -0.612835), (-0.2, 0.073163, 0.948045), (0.2, 0.0834482, 1.01283), (-0.2, 0.0834482, 1.01283), (0.2, 0.073163, 0.948045), (0.6, 0.5, -0.912835), (0.2, 0.5, -0.912835), (0.2, 0.42, -0.672835), (0.2, 5.73017e-14, -0.712835), (0.2, 0.4, -0.712835), (-0.2, 0.4, -0.712835), (0.2, 0.6, -0.312835), (-0.2, 0.42, -0.672835), (-0.2, 0.6, -0.312835), (-0.2, 5.71664e-14, -0.712835), (0.2, 0.6, 0.0871648), (-0.2, 0.6, 0.0871648), (-0.2, 0.5, -0.912835), (-0.6, 0.5, -0.912835), (0.2, 0.59005, 0.286668), (-0.2, 0.59005, 0.286668), (0.2, 0.166897, 1.01283), (-0.2, 0.166897, 1.01283), (0.3, 0.1, -0.812835), (0.5, 0.1, -0.812835), (0.3, 0.4, -0.812835), (0.5, 0.4, -0.812835), (0.270711, 0.3, 0.0578754), (0.270711, 0.2, 0.0578754), (-0.5, 0.4, -0.812835), (-0.5, 0.1, -0.812835), (-0.3, 0.4, -0.812835), (-0.3, 0.1, -0.812835), (-0.270711, 0.2, 0.0578754), (-0.270711, 0.3, 0.0578754), (-0.0999999, 0.566896, 0.812835), (0.1, 0.566896, 0.812835)]
        normal3f[] normals = [(0, 0.948683, 0.316228), (0, 0.948683, 0.316228), (0, 0.948683, 0.316228), (0, 0.948683, 0.316228), (0, 0.948683, 0.316228), (0, 0.948683, 0.316228), (0, 0.948683, 0.316228), (0, 0.948683, 0.316228), (0, 0.948683, 0.316228), (0, 1, 0), (0, 1, 0), (0, 1, 0), (0, 1, 0), (0, 1, 0), (0, 1, 0), (1, 0, 0), (1, 0, 0), (1, 0, 0), (1, 0, 0), (1, 0, 0), (1, 0, 0), (1, 0, 0), (1, 0, 0), (1, 0, 0), (1, 0, 0), (1, 0, 0), (1, 0, 0), (-1, 0, 0), (-1, 0, 0), (-1, 0, 0), (-1, 0, 0), (-1, 0, 0), (-1, 0, 0), (-1, 0, 0), (-1, 0, 0), (-1, 0, 0), (-1, 0, 0), (-1, 0, 0), (-1, 0, 0), (0, 0.894427, -0.447214), (0, 0.894427, -0.447214), (0, 0.894427, -0.447214), (0, 0.894427, -0.447214), (0, 0.894427, -0.447214), (0, 0.894427, -0.447214), (0, 0.894427, -0.447214), (0, 0.894427, -0.447214), (0, 0.894427, -0.447214), (0, 0.894427, -0.447214), (0, 0.894427, -0.447214), (0, 0.894427, -0.447214), (0, 0, -1), (0, 0, -1), (0, 0, -1), (0, 0, -1), (0, 0, -1), (0, 0, -1), (0, 1, 0), (0, 1, 0), (0, 1, 0), (0, 1, 0), (0, 1, 0), (0, 1, 0), (0, -1, 0), (0, -1, 0), (0, -1, 0), (0, -1, 0), (0, -1, 0), (0, -1, 0), (0, -1, 0), (0, -1, 0), (0, -1, 0), (0, -1, 0), (0, -1, 0), (0, -1, 0), (0, -1, 0), (0, -1, 0), (0, -1, 0), (0, -1, 0), (0, -1, 0), (0, -1, 0), (0, -1, 0), (0, -1, 0), (0, -1, 0), (0, -1, 0), (0, -1, 0), (0, -1, 0), (0, -1, 0), (0, -1, 0), (0, -1, 0), (0, -1, 0), (0, -1, 0), (0, -1, 0), (0, -1, 0), (0, -1, 0), (0, -1, 0), (0, 1, 0), (0, 1, 0), (0, 1, 0), (0, 1, 0), (0, 1, 0), (0, 1, 0), (1, 0, 0), (1, 0, 0), (1, 0, 0), (1, 0, 0), (1, 0, 0), (1, 0, 0), (1, 0, 0), (1, 0, 0), (1, 0, 0), (1, 0, 0), (1, 0, 0), (1, 0, 0), (-1, 0, 0), (-1, 0, 0), (-1, 0, 0), (-1, 0, 0), (-1, 0, 0), (-1, 0, 0), (-1, 0, 0), (-1, 0, 0), (-1, 0, 0), (-1, 0, 0), (-1, 0, 0), (-1, 0, 0), (0, 0.948683, 0.316228), (0, 0.948683, 0.316228), (0, 0.948683, 0.316228), (0, 0.948683, 0.316228), (0, 0.948683, 0.316228), (0, 0.948683, 0.316228), (0, 0.948683, 0.316228), (0, 0.948683, 0.316228), (0, 0.948683, 0.316228), (0, 0.998759, 0.0498137), (0, 0.998759, 0.0498137), (0, 0.998759, 0.0498137), (0, 0.998759, 0.0498137), (0, 0.998759, 0.0498137), (0, 0.998759, 0.0498137), (1, 0, 0), (1, 0, 0), (1, 0, 0), (1, 0, 0), (1, 0, 0), (1, 0, 0), (1, 0, 0), (1, 0, 0), (1, 0, 0), (1, 0, 0), (1, 0, 0), (1, 0, 0), (1, 0, 0), (1, 0, 0), (1, 0, 0), (1, 0, 0), (1, 0, 0), (1, 0, 0), (1, 0, 0), (1, 0, 0), (1, 0, 0), (1, 0, 0), (1, 0, 0), (1, 0, 0), (1, 0, 0), (1, 0, 0), (1, 0, 0), (1, 0, 0), (1, 0, 0), (1, 0, 0), (1, 0, 0), (1, 0, 0), (1, 0, 0), (0, 0, 1), (0, 0, 1), (0, 0, 1), (0, 0, 1), (0, 0, 1), (0, 0, 1), (-1, 0, 0), (-1, 0, 0), (-1, 0, 0), (-1, 0, 0), (-1, 0, 0), (-1, 0, 0), (-1, 0, 0), (-1, 0, 0), (-1, 0, 0), (-1, 0, 0), (-1, 0, 0), (-1, 0, 0), (-1, 0, 0), (-1, 0, 0), (-1, 0, 0), (-1, 0, 0), (-1, 0, 0), (-1, 0, 0), (-1, 0, 0), (-1, 0, 0), (-1, 0, 0), (-1, 0, 0), (-1, 0, 0), (-1, 0, 0), (-1, 0, 0), (-1, 0, 0), (-1, 0, 0), (-1, 0, 0), (-1, 0, 0), (-1, 0, 0), (-1, 0, 0), (-1, 0, 0), (-1, 0, 0)] (interpolation = "faceVarying")
        texCoord2f[] primvars:st = [(7.87402, 40.3191), (23.6221, 27.8692), (23.6221, 40.3191), (23.6221, 27.8692), (7.87402, 40.3191), (7.87402, 27.8692), (7.87402, 27.8692), (7.87402, 40.3191), (7.87402, 30.3592), (-7.87402, -39.8754), (-23.6221, -35.9384), (-23.6221, -39.8754), (-23.6221, -35.9384), (-7.87402, -39.8754), (-7.87402, -35.9384), (35.9384, 19.685), (39.8754, 2.26486e-12), (39.8754, 19.685), (39.8754, 2.26486e-12), (35.9384, 19.685), (24.1274, 2.26486e-12), (24.1274, 2.26486e-12), (35.9384, 19.685), (24.1274, 15.748), (24.1274, 2.26486e-12), (24.1274, 15.748), (24.1274, 3.93701), (-28.0644, 2.26246e-12), (-39.8754, 19.685), (-39.8754, 2.27134e-12), (-39.8754, 19.685), (-28.0644, 2.26246e-12), (-35.9384, 19.685), (-35.9384, 19.685), (-28.0644, 2.26246e-12), (-28.0644, 15.748), (-35.9384, 19.685), (-28.0644, 15.748), (-26.4896, 16.5354), (7.87402, -18.0588), (-7.87402, -16.2981), (-7.87402, -18.0588), (-7.87402, -16.2981), (7.87402, -18.0588), (-7.87402, -0.451978), (-7.87402, -0.451978), (7.87402, -18.0588), (7.87402, -16.2981), (7.87402, -0.451978), (-7.87402, -0.451978), (7.87402, -16.2981), (7.87402, 15.748), (-7.87402, 2.25597e-12), (7.87402, 2.25064e-12), (-7.87402, 2.25597e-12), (7.87402, 15.748), (-7.87402, 15.748), (7.87402, -12.3163), (-7.87402, 3.43168), (-7.87402, -12.3163), (-7.87402, 3.43168), (7.87402, -12.3163), (7.87402, 3.43168), (-7.87402, -0.505327), (-7.87402, -28.0644), (7.87402, -28.0644), (-7.87402, -28.0644), (-7.87402, -0.505327), (-7.87402, -24.1274), (-7.87402, -28.0644), (-7.87402, -24.1274), (-23.6221, -24.1274), (-23.6221, -39.8754), (-7.87402, -28.0644), (-23.6221, -24.1274), (-7.87402, -28.0644), (-23.6221, -39.8754), (-7.87402, -39.8754), (7.87402, -28.0644), (-7.87402, 3.43168), (-7.87402, -0.505327), (7.87402, -24.1274), (-7.87402, 3.43168), (7.87402, -28.0644), (-7.87402, 3.43168), (7.87402, -24.1274), (7.87402, 3.43168), (7.87402, -39.8754), (7.87402, -24.1274), (7.87402, -28.0644), (23.6221, -39.8754), (7.87402, -24.1274), (7.87402, -39.8754), (7.87402, -24.1274), (23.6221, -39.8754), (23.6221, -24.1274), (23.6221, -39.8754), (7.87402, -35.9384), (7.87402, -39.8754), (7.87402, -35.9384), (23.6221, -39.8754), (23.6221, -35.9384), (26.4896, 16.5354), (28.0644, 15.748), (35.9384, 19.685), (28.0644, 2.23454e-12), (35.9384, 19.685), (28.0644, 15.748), (39.8754, 2.24876e-12), (35.9384, 19.685), (28.0644, 2.23454e-12), (35.9384, 19.685), (39.8754, 2.24876e-12), (39.8754, 19.685), (-24.1274, 2.26486e-12), (-39.8754, 19.685), (-39.8754, 2.26486e-12), (-39.8754, 19.685), (-24.1274, 2.26486e-12), (-35.9384, 19.685), (-35.9384, 19.685), (-24.1274, 2.26486e-12), (-24.1274, 15.748), (-24.1274, 15.748), (-24.1274, 2.26486e-12), (-24.1274, 3.93701), (-23.6221, 40.3191), (-7.87402, 30.3592), (-7.87402, 40.3191), (-7.87402, 30.3592), (-23.6221, 40.3191), (-7.87402, 27.8692), (-7.87402, 27.8692), (-23.6221, 40.3191), (-23.6221, 27.8692), (-7.87402, -2.25072), (7.87402, -10.115), (7.87402, -2.25072), (7.87402, -10.115), (-7.87402, -2.25072), (-7.87402, -10.115), (-3.43168, 23.6221), (12.3163, 19.685), (12.3163, 23.6221), (12.3163, 19.685), (-3.43168, 23.6221), (-3.43168, 19.685), (-3.43168, 19.685), (-3.43168, 23.6221), (-11.2862, 23.2303), (-3.43168, 19.685), (-11.2862, 23.2303), (-3.43168, 15.748), (-3.43168, 15.748), (-11.2862, 23.2303), (-15.2427, 15.748), (-15.2427, 15.748), (-11.2862, 23.2303), (-39.8754, 6.57073), (-15.2427, 15.748), (-39.8754, 6.57073), (-37.3246, 2.88043), (-37.3246, 2.88043), (-39.8754, 6.57073), (-39.8754, 3.28536), (12.3163, 15.748), (12.3163, 23.6221), (12.3163, 19.685), (24.1274, 15.748), (12.3163, 23.6221), (12.3163, 15.748), (12.3163, 23.6221), (24.1274, 15.748), (26.4896, 16.5354), (7.87402, 6.57073), (-7.87402, 3.28536), (7.87402, 3.28536), (-7.87402, 3.28536), (7.87402, 6.57073), (-7.87402, 6.57073), (15.2427, 15.748), (3.43168, 19.685), (3.43168, 15.748), (3.43168, 19.685), (15.2427, 15.748), (3.43168, 23.6221), (3.43168, 23.6221), (15.2427, 15.748), (11.2862, 23.2303), (11.2862, 23.2303), (15.2427, 15.748), (39.8754, 6.57073), (39.8754, 6.57073), (15.2427, 15.748), (37.3246, 2.88043), (39.8754, 6.57073), (37.3246, 2.88043), (39.8754, 3.28536), (-12.3163, 23.6221), (3.43168, 19.685), (3.43168, 23.6221), (-12.3163, 23.6221), (-12.3163, 19.685), (3.43168, 19.685), (-12.3163, 23.6221), (-12.3163, 15.748), (-12.3163, 19.685), (-12.3163, 23.6221), (-24.1274, 15.748), (-12.3163, 15.748), (-24.1274, 15.748), (-12.3163, 23.6221), (-26.4896, 16.5354)] (interpolation = "faceVarying")
        uniform token subdivisionScheme = "none"
        rel material:binding = </Vehicle/Materials/metalDark>
    }
    def Mesh "mesh_dark" {
        int[] faceVertexCounts = [3, 3, 3, 3, 3, 3, 3, 3, 3, 3, 3, 3, 3, 3, 3, 3, 3, 3, 3, 3, 3, 3, 3, 3, 3, 3, 3, 3, 3, 3, 3, 3, 3, 3, 3, 3, 3, 3]
        int[] faceVertexIndices = [125, 124, 123, 124, 125, 126, 9, 124, 14, 124, 9, 123, 125, 9, 12, 9, 125, 123, 125, 13, 126, 13, 125, 12, 124, 13, 14, 13, 124, 126, 88, 128, 127, 128, 88, 89, 89, 90, 128, 127, 86, 88, 86, 128, 90, 128, 86, 127, 129, 42, 45, 42, 129, 130, 129, 46, 131, 46, 129, 45, 132, 46, 47, 46, 132, 131, 129, 132, 130, 132, 129, 131, 42, 132, 47, 132, 42, 130, 134, 94, 133, 94, 134, 97, 95, 134, 133, 134, 95, 96, 97, 134, 96, 94, 95, 133, 122, 135, 120, 121, 119, 136, 136, 122, 121, 122, 136, 135, 120, 136, 119, 136, 120, 135]
        point3f[] points = [(0.3, 5.00262e-14, 0.687165), (0.2, 5.82758e-14, 0.487165), (0.2, 5.71664e-14, 0.687165), (0.2, 5.71664e-14, -0.612835), (0.6, 5.75273e-14, -0.612835), (1, 0, -0.612835), (1, 0, -0.0128353), (0.2, 6.15977e-14, 0.0871648), (0.6, 5.75273e-14, -1.01283), (0.3, 0.1, -1.01283), (0.2, 5.75273e-14, -1.01283), (0.2, 0.5, -1.01283), (0.3, 0.4, -1.01283), (0.5, 0.4, -1.01283), (0.5, 0.1, -1.01283), (0.6, 0.5, -1.01283), (1, 0.1, -0.0128353), (0.8, 0.1, -0.362835), (1, 0.1, -0.612835), (0.6, 0.1, -0.612835), (0.6, 0.1, -0.362835), (0.8, 0.1, -0.262835), (0.3, 0.1, 0.687165), (0.6, 0.1, -0.0128353), (0.6, 0.1, -0.262835), (0.2, 0.1, 0.387165), (0.2, 0.1, 0.687165), (0.8, 0.15, -0.362835), (0.8, 0.15, -0.262835), (0.7, 0.2, -0.362835), (0.7, 0.2, -0.262835), (0.6, 0.2, -0.362835), (0.6, 0.2, -0.262835), (0.45, 0.5, -0.312835), (0.45, 0.5, 0.0871648), (0.2, 0.5, -0.312835), (0.2, 0.5, 0.0871648), (0.2, 0.4, -0.312835), (0.45, 0.4, -0.312835), (0.45, 0.4, 0.0871648), (0.2, 0.4, 0.0871648), (-0.2, 5.75273e-14, -1.01283), (-0.5, 0.1, -1.01283), (-0.6, 5.75273e-14, -1.01283), (-0.6, 0.5, -1.01283), (-0.5, 0.4, -1.01283), (-0.3, 0.4, -1.01283), (-0.3, 0.1, -1.01283), (-0.2, 0.5, -1.01283), (-0.2, 5.71664e-14, 0.687165), (-0.2, 5.69044e-14, 0.487165), (-0.3, 5.00262e-14, 0.687165), (-0.2, 5.71664e-14, 0.0871648), (-0.2, 5.75273e-14, -0.612835), (-0.6, 5.75273e-14, -0.612835), (-1, 0, -0.0128353), (-1, 0, -0.612835), (-0.2, 5.87316e-14, -0.0128353), (-0.2, 0.4, 0.0871648), (-0.45, 0.4, 0.0871648), (-0.2, 0.5, 0.0871648), (-0.45, 0.5, 0.0871648), (-0.45, 0.4, -0.312835), (-0.2, 0.4, -0.312835), (-0.45, 0.5, -0.312835), (-0.2, 0.5, -0.312835), (-0.6, 0.1, -0.212835), (-0.6, 0.1, -0.0128353), (-0.8, 0.1, -0.212835), (-1, 0.1, -0.0128353), (-0.3, 0.1, 0.687165), (-0.2, 0.1, 0.687165), (-0.2, 0.1, 0.387165), (-0.8, 0.1, -0.312835), (-1, 0.1, -0.612835), (-0.6, 0.1, -0.312835), (-0.6, 0.1, -0.612835), (-0.7, 0.2, -0.212835), (-0.8, 0.15, -0.212835), (-0.7, 0.2, -0.312835), (-0.8, 0.15, -0.312835), (-0.6, 0.2, -0.312835), (-0.6, 0.2, -0.212835), (0.2, 0.0317492, 0.687165), (0.6, 0.4, -0.612835), (0.6, 0.4, -0.0128353), (0.529289, 0.3, 0.0578754), (0.2, 0.4, 0.387165), (0.270711, 0.3, 0.316454), (0.270711, 0.2, 0.316454), (0.529289, 0.2, 0.0578754), (0.2, 0.4, -0.612835), (-0.2, 0.0317492, 0.687165), (-0.6, 0.4, -0.0128353), (-0.529289, 0.2, 0.0578754), (-0.270711, 0.2, 0.316454), (-0.270711, 0.3, 0.316454), (-0.529289, 0.3, 0.0578754), (-0.2, 0.4, 0.387165), (-0.6, 0.4, -0.612835), (-0.2, 0.4, -0.612835), (-0.2, 0.073163, 0.948045), (0.2, 0.0834482, 1.01283), (-0.2, 0.0834482, 1.01283), (0.2, 0.073163, 0.948045), (0.6, 0.5, -0.912835), (0.2, 0.5, -0.912835), (0.2, 0.42, -0.672835), (0.2, 5.73017e-14, -0.712835), (0.2, 0.4, -0.712835), (-0.2, 0.4, -0.712835), (0.2, 0.6, -0.312835), (-0.2, 0.42, -0.672835), (-0.2, 0.6, -0.312835), (-0.2, 5.71664e-14, -0.712835), (0.2, 0.6, 0.0871648), (-0.2, 0.6, 0.0871648), (-0.2, 0.5, -0.912835), (-0.6, 0.5, -0.912835), (0.2, 0.59005, 0.286668), (-0.2, 0.59005, 0.286668), (0.2, 0.166897, 1.01283), (-0.2, 0.166897, 1.01283), (0.3, 0.1, -0.812835), (0.5, 0.1, -0.812835), (0.3, 0.4, -0.812835), (0.5, 0.4, -0.812835), (0.270711, 0.3, 0.0578754), (0.270711, 0.2, 0.0578754), (-0.5, 0.4, -0.812835), (-0.5, 0.1, -0.812835), (-0.3, 0.4, -0.812835), (-0.3, 0.1, -0.812835), (-0.270711, 0.2, 0.0578754), (-0.270711, 0.3, 0.0578754), (-0.0999999, 0.566896, 0.812835), (0.1, 0.566896, 0.812835)]
        normal3f[] normals = [(0, 0, -1), (0, 0, -1), (0, 0, -1), (0, 0, -1), (0, 0, -1), (0, 0, -1), (0, 1, 0), (0, 1, 0), (0, 1, 0), (0, 1, 0), (0, 1, 0), (0, 1, 0), (1, 0, 0), (1, 0, 0), (1, 0, 0), (1, 0, 0), (1, 0, 0), (1, 0, 0), (0, -1, 0), (0, -1, 0), (0, -1, 0), (0, -1, 0), (0, -1, 0), (0, -1, 0), (-1, 0, 0), (-1, 0, 0), (-1, 0, 0), (-1, 0, 0), (-1, 0, 0), (-1, 0, 0), (1, 0, 0), (1, 0, 0), (1, 0, 0), (1, 0, 0), (1, 0, 0), (1, 0, 0), (0, 1, 0), (0, 1, 0), (0, 1, 0), (0, -1, 0), (0, -1, 0), (0, -1, 0), (0, 0, 1), (0, 0, 1), (0, 0, 1), (0, 0, 1), (0, 0, 1), (0, 0, 1), (1, 0, 0), (1, 0, 0), (1, 0, 0), (1, 0, 0), (1, 0, 0), (1, 0, 0), (0, -1, 0), (0, -1, 0), (0, -1, 0), (0, -1, 0), (0, -1, 0), (0, -1, 0), (-1, 0, 0), (-1, 0, 0), (-1, 0, 0), (-1, 0, 0), (-1, 0, 0), (-1, 0, 0), (0, 0, -1), (0, 0, -1), (0, 0, -1), (0, 0, -1), (0, 0, -1), (0, 0, -1), (0, 1, 0), (0, 1, 0), (0, 1, 0), (0, 1, 0), (0, 1, 0), (0, 1, 0), (0, 0, 1), (0, 0, 1), (0, 0, 1), (0, 0, 1), (0, 0, 1), (0, 0, 1), (-1, 0, 0), (-1, 0, 0), (-1, 0, 0), (-1, 0, 0), (-1, 0, 0), (-1, 0, 0), (0, -1, 0), (0, -1, 0), (0, -1, 0), (0, 1, 0), (0, 1, 0), (0, 1, 0), (-0.925798, 0.326611, 0.190323), (-0.925798, 0.326611, 0.190323), (-0.925798, 0.326611, 0.190323), (0.925798, 0.326611, 0.190323), (0.925798, 0.326611, 0.190323), (0.925798, 0.326611, 0.190323), (0, 0.447214, 0.894427), (0, 0.447214, 0.894427), (0, 0.447214, 0.894427), (0, 0.447214, 0.894427), (0, 0.447214, 0.894427), (0, 0.447214, 0.894427), (0, 0.999033, 0.0439609), (0, 0.999033, 0.0439609), (0, 0.999033, 0.0439609), (0, 0.999033, 0.0439609), (0, 0.999033, 0.0439609), (0, 0.999033, 0.0439609)] (interpolation = "faceVarying")
        texCoord2f[] primvars:st = [(-11.811, 15.748), (-19.685, 3.93701), (-11.811, 3.93701), (-19.685, 3.93701), (-11.811, 15.748), (-19.685, 15.748), (-11.811, -39.8754), (-19.685, -32.0014), (-19.685, -39.8754), (-19.685, -32.0014), (-11.811, -39.8754), (-11.811, -32.0014), (32.0014, 15.748), (39.8754, 3.93701), (39.8754, 15.748), (39.8754, 3.93701), (32.0014, 15.748), (32.0014, 3.93701), (11.811, -32.0014), (19.685, -39.8754), (19.685, -32.0014), (19.685, -39.8754), (11.811, -32.0014), (11.811, -39.8754), (-32.0014, 3.93701), (-39.8754, 15.748), (-39.8754, 3.93701), (-39.8754, 15.748), (-32.0014, 3.93701), (-32.0014, 15.748), (-12.4588, 11.811), (-2.27856, 7.87402), (-2.27856, 11.811), (-2.27856, 7.87402), (-12.4588, 11.811), (-12.4588, 7.87402), (-10.6579, 12.4588), (-20.8382, 2.27856), (-10.6579, 2.27856), (10.6579, 2.27856), (20.8382, 2.27856), (10.6579, 12.4588), (20.8382, 11.811), (10.6579, 7.87402), (20.8382, 7.87402), (10.6579, 7.87402), (20.8382, 11.811), (10.6579, 11.811), (32.0014, 15.748), (39.8754, 3.93701), (39.8754, 15.748), (39.8754, 3.93701), (32.0014, 15.748), (32.0014, 3.93701), (-19.685, -32.0014), (-11.811, -39.8754), (-11.811, -32.0014), (-11.811, -39.8754), (-19.685, -32.0014), (-19.685, -39.8754), (-32.0014, 3.93701), (-39.8754, 15.748), (-39.8754, 3.93701), (-39.8754, 15.748), (-32.0014, 3.93701), (-32.0014, 15.748), (19.685, 15.748), (11.811, 3.93701), (19.685, 3.93701), (11.811, 3.93701), (19.685, 15.748), (11.811, 15.748), (19.685, -39.8754), (11.811, -32.0014), (11.811, -39.8754), (11.811, -32.0014), (19.685, -39.8754), (19.685, -32.0014), (-10.6579, 11.811), (-20.8382, 7.87402), (-10.6579, 7.87402), (-20.8382, 7.87402), (-10.6579, 11.811), (-20.8382, 11.811), (12.4588, 7.87402), (2.27856, 11.811), (2.27856, 7.87402), (2.27856, 11.811), (12.4588, 7.87402), (12.4588, 11.811), (-20.8382, 2.27856), (-10.6579, 2.27856), (-10.6579, 12.4588), (20.8382, 2.27856), (10.6579, 12.4588), (10.6579, 2.27856), (37.473, 1.06877), (30.5531, 17.7306), (9.46941, 18.695), (-37.473, 1.06877), (-9.46941, 18.695), (-30.5531, 17.7306), (3.93701, 5.65105), (-7.87402, -11.9558), (7.87402, -11.9558), (-7.87402, -11.9558), (3.93701, 5.65105), (-3.93701, 5.65105), (-7.87402, -10.254), (3.93701, -30.9893), (7.87402, -10.254), (3.93701, -30.9893), (-7.87402, -10.254), (-3.93701, -30.9893)] (interpolation = "faceVarying")
        uniform token subdivisionScheme = "none"
        rel material:binding = </Vehicle/Materials/dark>
    }
    def Scope "Materials" {
        def Material "metal" {
            token outputs:surface.connect = </Vehicle/Materials/metal/surface.outputs:surface>
            def Shader "surface" {
                uniform token info:id = "UsdPreviewSurface"
                float inputs:roughness = 0.7
                float inputs:metallic = 0
                color3f inputs:diffuseColor = (0.843137, 0.870588, 0.909804)
                token outputs:surface
            }
        }
        def Material "metalRed" {
            token outputs:surface.connect = </Vehicle/Materials/metalRed/surface.outputs:surface>
            def Shader "surface" {
                uniform token info:id = "UsdPreviewSurface"
                float inputs:roughness = 0.7
                float inputs:metallic = 0
                color3f inputs:diffuseColor = (1, 0.628524, 0.20283)
                token outputs:surface
            }
        }
        def Material "metalDark" {
            token outputs:surface.connect = </Vehicle/Materials/metalDark/surface.outputs:surface>
            def Shader "surface" {
                uniform token info:id = "UsdPreviewSurface"
                float inputs:roughness = 0.7
                float inputs:metallic = 0
                color3f inputs:diffuseColor = (0.675062, 0.710022, 0.773585)
                token outputs:surface
            }
        }
        def Material "dark" {
            token outputs:surface.connect = </Vehicle/Materials/dark/surface.outputs:surface>
            def Shader "surface" {
                uniform token info:id = "UsdPreviewSurface"
                float inputs:roughness = 0.7
                float inputs:metallic = 0
                color3f inputs:diffuseColor = (0.27451, 0.298039, 0.341176)
                token outputs:surface
            }
        }
    }
}
