#usda 1.0
(
    defaultPrim = "Vehicle"
    metersPerUnit = 1
    upAxis = "Y"
)
def Xform "Vehicle" {
    def Mesh "mesh_colormap" {
        int[] faceVertexCounts = [3, 3, 3, 3, 3, 3, 3, 3, 3, 3, 3, 3, 3, 3, 3, 3, 3, 3, 3, 3, 3, 3, 3, 3, 3, 3, 3, 3, 3, 3, 3, 3, 3, 3, 3, 3, 3, 3, 3, 3, 3, 3, 3, 3, 3, 3, 3, 3, 3, 3, 3, 3, 3, 3, 3, 3, 3, 3, 3, 3, 3, 3, 3, 3, 3, 3, 3, 3, 3, 3, 3, 3, 3, 3, 3, 3, 3, 3, 3, 3, 3, 3, 3, 3, 3, 3, 3, 3, 3, 3, 3, 3, 3, 3, 3, 3, 3, 3, 3, 3, 3, 3, 3, 3, 3, 3, 3, 3, 3, 3, 3, 3, 3, 3, 3, 3, 3, 3, 3, 3, 3, 3, 3, 3, 3, 3, 3, 3, 3, 3, 3, 3, 3, 3, 3, 3, 3, 3, 3, 3, 3, 3, 3, 3, 3, 3, 3, 3, 3, 3, 3, 3, 3, 3, 3, 3, 3, 3, 3, 3, 3, 3, 3, 3, 3, 3, 3, 3, 3, 3, 3, 3, 3, 3, 3, 3, 3, 3, 3, 3, 3, 3, 3, 3, 3, 3, 3, 3, 3, 3, 3, 3, 3, 3, 3, 3, 3, 3, 3, 3, 3, 3, 3, 3, 3, 3, 3, 3, 3, 3, 3, 3, 3, 3, 3, 3, 3, 3, 3, 3, 3, 3, 3, 3, 3, 3, 3, 3, 3, 3, 3, 3, 3, 3, 3, 3, 3, 3, 3, 3, 3, 3, 3, 3, 3, 3, 3, 3, 3, 3, 3, 3, 3, 3, 3, 3, 3, 3, 3, 3, 3, 3, 3, 3, 3, 3, 3, 3, 3, 3, 3, 3, 3, 3, 3, 3, 3, 3, 3, 3, 3, 3, 3, 3, 3, 3, 3, 3, 3, 3, 3, 3, 3, 3, 3, 3, 3, 3, 3, 3, 3, 3, 3, 3, 3, 3, 3, 3, 3, 3, 3, 3, 3, 3, 3, 3, 3, 3, 3, 3, 3, 3, 3, 3, 3, 3, 3, 3, 3, 3, 3, 3, 3, 3, 3, 3, 3, 3, 3, 3, 3, 3, 3, 3, 3, 3, 3, 3, 3, 3, 3, 3, 3, 3, 3, 3, 3, 3, 3, 3, 3, 3, 3, 3, 3, 3, 3, 3, 3, 3, 3, 3, 3, 3, 3, 3, 3, 3, 3, 3, 3, 3, 3, 3, 3, 3, 3, 3, 3, 3, 3, 3, 3, 3]
        int[] faceVertexIndices = [2, 1, 0, 1, 2, 3, 6, 5, 4, 5, 6, 7, 10, 9, 8, 9, 10, 11, 9, 12, 8, 12, 9, 13, 14, 7, 6, 7, 14, 15, 17, 3, 16, 3, 17, 18, 8, 19, 18, 19, 8, 12, 6, 13, 9, 13, 6, 4, 10, 18, 17, 18, 10, 8, 7, 20, 2, 20, 7, 15, 18, 1, 3, 1, 18, 19, 0, 7, 2, 7, 0, 5, 12, 1, 19, 1, 12, 0, 0, 12, 13, 0, 13, 4, 0, 4, 5, 11, 6, 9, 6, 11, 14, 23, 22, 21, 22, 23, 24, 25, 24, 23, 24, 25, 26, 27, 21, 22, 21, 27, 28, 29, 28, 27, 28, 29, 30, 30, 29, 31, 32, 26, 25, 26, 32, 33, 33, 32, 34, 36, 32, 35, 32, 36, 34, 38, 35, 37, 35, 38, 36, 31, 37, 30, 37, 31, 38, 41, 40, 39, 40, 41, 42, 44, 40, 43, 40, 44, 39, 45, 44, 43, 44, 45, 46, 44, 41, 39, 41, 44, 46, 8, 3, 18, 3, 8, 2, 2, 8, 9, 2, 9, 6, 2, 6, 7, 20, 3, 2, 3, 20, 16, 16, 20, 47, 47, 20, 48, 47, 48, 49, 49, 48, 50, 51, 16, 47, 16, 51, 52, 52, 51, 53, 52, 53, 54, 56, 54, 55, 56, 52, 54, 52, 56, 57, 57, 58, 52, 58, 57, 59, 59, 57, 60, 59, 60, 61, 61, 60, 62, 61, 62, 63, 63, 62, 64, 63, 64, 65, 63, 65, 66, 66, 65, 67, 67, 48, 66, 67, 50, 48, 50, 67, 68, 15, 48, 20, 48, 15, 66, 63, 15, 14, 15, 63, 66, 61, 14, 11, 14, 61, 63, 59, 11, 10, 11, 59, 61, 58, 10, 17, 10, 58, 59, 58, 16, 52, 16, 58, 17, 65, 69, 67, 69, 65, 70, 65, 71, 70, 71, 65, 64, 64, 72, 71, 72, 64, 62, 62, 73, 72, 73, 62, 60, 73, 57, 74, 57, 73, 60, 74, 56, 75, 56, 74, 57, 77, 69, 76, 69, 77, 67, 67, 77, 68, 56, 78, 75, 78, 56, 79, 79, 56, 55, 49, 68, 77, 68, 49, 50, 77, 47, 49, 47, 77, 76, 51, 79, 53, 79, 51, 78, 54, 79, 55, 79, 54, 53, 82, 81, 80, 81, 82, 83, 83, 82, 22, 83, 22, 84, 22, 82, 27, 85, 27, 82, 27, 85, 29, 29, 85, 86, 86, 85, 87, 86, 87, 88, 88, 87, 33, 33, 87, 89, 33, 89, 26, 26, 89, 24, 84, 22, 24, 84, 24, 89, 84, 89, 90, 84, 90, 91, 94, 93, 92, 93, 94, 95, 95, 94, 96, 95, 96, 97, 97, 96, 98, 98, 96, 99, 99, 96, 100, 100, 96, 101, 98, 89, 87, 89, 98, 99, 97, 87, 85, 87, 97, 98, 95, 85, 82, 85, 95, 97, 95, 80, 93, 80, 95, 82, 93, 81, 92, 81, 93, 80, 89, 100, 90, 100, 89, 99, 90, 101, 91, 101, 90, 100, 96, 83, 84, 83, 96, 94, 91, 96, 84, 96, 91, 101, 92, 83, 94, 83, 92, 81, 104, 103, 102, 103, 104, 105, 107, 103, 106, 103, 107, 102, 108, 107, 106, 107, 108, 109, 104, 108, 105, 108, 104, 109, 107, 104, 102, 104, 107, 109, 75, 73, 74, 73, 75, 78, 73, 78, 72, 72, 78, 51, 72, 51, 47, 72, 47, 76, 76, 71, 72, 71, 76, 69, 71, 69, 70, 112, 111, 110, 111, 112, 113, 116, 115, 114, 115, 116, 117, 113, 114, 111, 114, 113, 116, 2, 1, 0, 1, 2, 3, 6, 5, 4, 5, 6, 7, 10, 9, 8, 9, 10, 11, 9, 12, 8, 12, 9, 13, 14, 7, 6, 7, 14, 15, 17, 3, 16, 3, 17, 18, 8, 19, 18, 19, 8, 12, 6, 13, 9, 13, 6, 4, 10, 18, 17, 18, 10, 8, 7, 20, 2, 20, 7, 15, 18, 1, 3, 1, 18, 19, 0, 7, 2, 7, 0, 5, 12, 1, 19, 1, 12, 0, 0, 12, 13, 0, 13, 4, 0, 4, 5, 11, 6, 9, 6, 11, 14, 23, 22, 21, 22, 23, 24, 25, 24, 23, 24, 25, 26, 27, 21, 22, 21, 27, 28, 29, 28, 27, 28, 29, 30, 30, 29, 31, 32, 26, 25, 26, 32, 33, 33, 32, 34, 36, 32, 35, 32, 36, 34, 38, 35, 37, 35, 38, 36, 31, 37, 30, 37, 31, 38, 41, 40, 39, 40, 41, 42, 44, 40, 43, 40, 44, 39, 45, 44, 43, 44, 45, 46, 44, 41, 39, 41, 44, 46, 8, 3, 18, 3, 8, 2, 2, 8, 9, 2, 9, 6, 2, 6, 7, 20, 3, 2, 3, 20, 16, 16, 20, 47, 47, 20, 48, 47, 48, 49, 49, 48, 50, 51, 16, 47, 16, 51, 52, 52, 51, 53, 52, 53, 54, 56, 54, 55, 56, 52, 54, 52, 56, 57, 57, 58, 52, 58, 57, 59, 59, 57, 60, 59, 60, 61, 61, 60, 62, 61, 62, 63, 63, 62, 64, 63, 64, 65, 63, 65, 66, 66, 65, 67, 67, 48, 66, 67, 50, 48, 50, 67, 68, 15, 48, 20, 48, 15, 66, 63, 15, 14, 15, 63, 66, 61, 14, 11, 14, 61, 63, 59, 11, 10, 11, 59, 61, 58, 10, 17, 10, 58, 59, 58, 16, 52, 16, 58, 17, 65, 69, 67, 69, 65, 70, 65, 71, 70, 71, 65, 64, 64, 72, 71, 72, 64, 62, 62, 73, 72, 73, 62, 60, 73, 57, 74, 57, 73, 60, 74, 56, 75, 56, 74, 57, 77, 69, 76, 69, 77, 67, 67, 77, 68, 56, 78, 75, 78, 56, 79, 79, 56, 55, 49, 68, 77, 68, 49, 50, 77, 47, 49, 47, 77, 76, 51, 79, 53, 79, 51, 78, 54, 79, 55, 79, 54, 53, 82, 81, 80, 81, 82, 83, 83, 82, 22, 83, 22, 84, 22, 82, 27, 85, 27, 82, 27, 85, 29, 29, 85, 86, 86, 85, 87, 86, 87, 88, 88, 87, 33, 33, 87, 89, 33, 89, 26, 26, 89, 24, 84, 22, 24, 84, 24, 89, 84, 89, 90, 84, 90, 91, 94, 93, 92, 93, 94, 95, 95, 94, 96, 95, 96, 97, 97, 96, 98, 98, 96, 99, 99, 96, 100, 100, 96, 101, 98, 89, 87, 89, 98, 99, 97, 87, 85, 87, 97, 98, 95, 85, 82, 85, 95, 97, 95, 80, 93, 80, 95, 82, 93, 81, 92, 81, 93, 80, 89, 100, 90, 100, 89, 99, 90, 101, 91, 101, 90, 100, 96, 83, 84, 83, 96, 94, 91, 96, 84, 96, 91, 101, 92, 83, 94, 83, 92, 81, 104, 103, 102, 103, 104, 105, 107, 103, 106, 103, 107, 102, 108, 107, 106, 107, 108, 109, 104, 108, 105, 108, 104, 109, 107, 104, 102, 104, 107, 109, 75, 73, 74, 73, 75, 78, 73, 78, 72, 72, 78, 51, 72, 51, 47, 72, 47, 76, 76, 71, 72, 71, 76, 69, 71, 69, 70, 112, 111, 110, 111, 112, 113, 116, 115, 114, 115, 116, 117, 113, 114, 111, 114, 113, 116]
        point3f[] points = [(-0.408, 8.87237e-17, -1.235), (0.408, 8.87237e-17, -1.235), (-0.68, 0.3, -1.435), (0.68, 0.3, -1.435), (-0.2232, 9.02389e-17, 0.521), (-0.408, 9.02389e-17, 0.365), (-0.372, 0.3, 0.985), (-0.68, 0.3, 0.725), (0.372, 0.3, 0.985), (4.67799e-13, 0.3, 1.085), (0.48825, 0.7, 1.30375), (5.94855e-13, 0.7, 1.435), (0.2232, 9.02389e-17, 0.521), (2.88765e-13, 9.02389e-17, 0.581), (-0.48825, 0.7, 1.30375), (-0.8925, 0.7, 0.9625), (0.8925, 0.7, -1.435), (0.8925, 0.7, 0.9625), (0.68, 0.3, 0.725), (0.408, 0, 0.365), (-0.8925, 0.7, -1.435), (0.5925, 0.8, -1.135), (0.5925, 1.5, -1.135), (-0.5925, 0.8, -1.135), (-0.5925, 1.5, -1.135), (-0.5925, 0.8, 0.151687), (-0.5925, 1.5, 0.151687), (0.5925, 1.5, 0.151687), (0.5925, 0.8, 0.151687), (0.533921, 1.5, 0.293108), (0.533921, 0.8, 0.293108), (0.533921, 1.15, 0.293108), (-0.533921, 0.8, 0.293108), (-0.533921, 1.5, 0.293108), (-0.533921, 1.15, 0.293108), (-0.3925, 0.8, 0.351687), (-0.3925, 1.15, 0.351687), (0.3925, 0.8, 0.351687), (0.3925, 1.15, 0.351687), (-0.2, 0.95, 0.751687), (-0.2, 0.8, 0.751687), (-0.2, 1, 0.351687), (-0.2, 0.8, 0.351687), (0.2, 0.8, 0.751687), (0.2, 0.95, 0.751687), (0.2, 0.8, 0.351687), (0.2, 1, 0.351687), (-0.2925, 0.8, -1.435), (-0.8925, 1, -1.435), (-0.2925, 0.9, -1.435), (-0.4925, 1, -1.435), (0.2925, 0.8, -1.435), (0.8925, 1, -1.435), (0.2925, 0.9, -1.435), (0.4925, 1, -1.435), (0.4925, 1, -1.235), (0.6925, 1, -1.235), (0.6925, 1, 0.869599), (0.8925, 1, 0.9625), (0.48825, 1, 1.30375), (0.393293, 1, 1.12218), (5.94855e-13, 1, 1.435), (5.19776e-13, 1, 1.2279), (-0.48825, 1, 1.30375), (-0.393293, 1, 1.12218), (-0.6925, 1, 0.869599), (-0.8925, 1, 0.9625), (-0.6925, 1, -1.235), (-0.4925, 1, -1.235), (-0.6925, 0.8, -1.235), (-0.6925, 0.8, 0.869599), (-0.393293, 0.8, 1.12218), (5.19776e-13, 0.8, 1.2279), (0.393293, 0.8, 1.12218), (0.6925, 0.8, 0.869599), (0.6925, 0.8, -1.235), (-0.2925, 0.8, -1.235), (-0.2925, 0.9, -1.235), (0.2925, 0.8, -1.235), (0.2925, 0.9, -1.235), (0.7925, 1.5, 0.191469), (0.7925, 1.5, -1.235), (0.686995, 1.5, 0.446182), (0.6925, 1.5, -1.335), (-0.6925, 1.5, -1.335), (0.432283, 1.5, 0.551687), (0.3925, 1.5, 0.351687), (-0.432283, 1.5, 0.551687), (-0.3925, 1.5, 0.351687), (-0.686995, 1.5, 0.446182), (-0.7925, 1.5, 0.191469), (-0.7925, 1.5, -1.235), (0.7925, 1.7, -1.235), (0.7925, 1.7, 0.191469), (0.6925, 1.7, -1.335), (0.686995, 1.7, 0.446182), (-0.6925, 1.7, -1.335), (0.432283, 1.7, 0.551687), (-0.432283, 1.7, 0.551687), (-0.686995, 1.7, 0.446182), (-0.7925, 1.7, 0.191469), (-0.7925, 1.7, -1.235), (-0.2, 1.75, -0.0483133), (-0.2, 1.7, -0.0483133), (-0.2, 1.8, -0.448313), (-0.2, 1.7, -0.448313), (0.2, 1.7, -0.0483133), (0.2, 1.75, -0.0483133), (0.2, 1.7, -0.448313), (0.2, 1.8, -0.448313), (0.533921, 1.15, 0.293108), (0.3925, 1.15, 0.351687), (0.533921, 1.5, 0.293108), (0.3925, 1.5, 0.351687), (-0.3925, 1.15, 0.351687), (-0.533921, 1.15, 0.293108), (-0.3925, 1.5, 0.351687), (-0.533921, 1.5, 0.293108)]
        normal3f[] normals = [(0, -0.5547, -0.83205), (0, -0.5547, -0.83205), (0, -0.5547, -0.83205), (0, -0.5547, -0.83205), (0, -0.5547, -0.83205), (0, -0.5547, -0.83205), (-0.236947, -0.848734, 0.472764), (-0.614369, -0.768993, 0.176638), (-0.257795, -0.846977, 0.464942), (-0.614369, -0.768993, 0.176638), (-0.236947, -0.848734, 0.472764), (-0.509689, -0.810035, 0.289931), (0.347397, -0.644064, 0.68154), (0, -0.658505, 0.752577), (0.364175, -0.642844, 0.67389), (0, -0.658505, 0.752577), (0.347397, -0.644064, 0.68154), (0, -0.658505, 0.752577), (0, -0.859293, 0.511484), (0.257795, -0.846977, 0.464942), (0.236947, -0.848734, 0.472764), (0.257795, -0.846977, 0.464942), (0, -0.859293, 0.511484), (0, -0.859293, 0.511484), (-0.347397, -0.644064, 0.68154), (-0.769315, -0.574561, 0.279347), (-0.364175, -0.642844, 0.67389), (-0.769315, -0.574561, 0.279347), (-0.347397, -0.644064, 0.68154), (-0.706938, -0.598928, 0.376197), (0.706938, -0.598928, 0.376197), (0.883116, -0.469155, 0), (0.883116, -0.469155, 0), (0.883116, -0.469155, 0), (0.706938, -0.598928, 0.376197), (0.769315, -0.574561, 0.279347), (0.236947, -0.848734, 0.472764), (0.614369, -0.768993, 0.176638), (0.509689, -0.810035, 0.289931), (0.614369, -0.768993, 0.176638), (0.236947, -0.848734, 0.472764), (0.257795, -0.846977, 0.464942), (-0.236947, -0.848734, 0.472764), (0, -0.859293, 0.511484), (0, -0.859293, 0.511484), (0, -0.859293, 0.511484), (-0.236947, -0.848734, 0.472764), (-0.257795, -0.846977, 0.464942), (0.347397, -0.644064, 0.68154), (0.769315, -0.574561, 0.279347), (0.706938, -0.598928, 0.376197), (0.769315, -0.574561, 0.279347), (0.347397, -0.644064, 0.68154), (0.364175, -0.642844, 0.67389), (-0.769315, -0.574561, 0.279347), (-0.883116, -0.469155, 0), (-0.883116, -0.469155, 0), (-0.883116, -0.469155, 0), (-0.769315, -0.574561, 0.279347), (-0.706938, -0.598928, 0.376197), (0.509689, -0.810035, 0.289931), (0.740833, -0.671689, 0), (0.740833, -0.671689, 0), (0.740833, -0.671689, 0), (0.509689, -0.810035, 0.289931), (0.614369, -0.768993, 0.176638), (-0.740833, -0.671689, 0), (-0.509689, -0.810035, 0.289931), (-0.740833, -0.671689, 0), (-0.509689, -0.810035, 0.289931), (-0.740833, -0.671689, 0), (-0.614369, -0.768993, 0.176638), (0, -1, 0), (0, -1, 0), (0, -1, 0), (0, -1, 0), (0, -1, 0), (0, -1, 0), (0, -1, 0), (0, -1, 0), (0, -1, 0), (0, -1, 0), (0, -1, 0), (0, -1, 0), (0, -1, 0), (0, -1, 0), (0, -1, 0), (0, -0.658505, 0.752577), (-0.364175, -0.642844, 0.67389), (0, -0.658505, 0.752577), (-0.364175, -0.642844, 0.67389), (0, -0.658505, 0.752577), (-0.347397, -0.644064, 0.68154), (0, 0, -1), (0, 0, -1), (0, 0, -1), (0, 0, -1), (0, 0, -1), (0, 0, -1), (-0.980785, 0, 0.19509), (-1, 0, 0), (-1, 0, 0), (-1, 0, 0), (-0.980785, 0, 0.19509), (-0.980785, 0, 0.19509), (0.980785, 0, 0.19509), (1, 0, 0), (1, 0, 0), (1, 0, 0), (0.980785, 0, 0.19509), (0.980785, 0, 0.19509), (0.923879, 0, 0.382683), (0.980785, 0, 0.19509), (0.980785, 0, 0.19509), (0.980785, 0, 0.19509), (0.923879, 0, 0.382683), (0.923879, 0, 0.382683), (0.923879, 0, 0.382683), (0.923879, 0, 0.382683), (0.923879, 0, 0.382683), (-0.923879, 0, 0.382683), (-0.980785, 0, 0.19509), (-0.980785, 0, 0.19509), (-0.980785, 0, 0.19509), (-0.923879, 0, 0.382683), (-0.923879, 0, 0.382683), (-0.923879, 0, 0.382683), (-0.923879, 0, 0.382683), (-0.923879, 0, 0.382683), (-0.19509, 0, 0.980785), (-0.382683, 0, 0.923879), (-0.19509, 0, 0.980785), (-0.382683, 0, 0.923879), (-0.19509, 0, 0.980785), (-0.382683, 0, 0.923879), (0.19509, 0, 0.980785), (-0.19509, 0, 0.980785), (0.19509, 0, 0.980785), (-0.19509, 0, 0.980785), (0.19509, 0, 0.980785), (-0.19509, 0, 0.980785), (0.382683, 0, 0.923879), (0.19509, 0, 0.980785), (0.382683, 0, 0.923879), (0.19509, 0, 0.980785), (0.382683, 0, 0.923879), (0.19509, 0, 0.980785), (-1, 0, -2.88936e-14), (-1, 0, -2.88936e-14), (-1, 0, -2.88936e-14), (-1, 0, -2.88936e-14), (-1, 0, -2.88936e-14), (-1, 0, -2.88936e-14), (-2.16609e-14, 0.661802, 0.749678), (-2.88936e-14, 0, 1), (-2.88936e-14, 0, 1), (-2.88936e-14, 0, 1), (-2.16609e-14, 0.661802, 0.749678), (-2.16609e-14, 0.661802, 0.749678), (1, 0, 2.88936e-14), (1, 0, 2.88936e-14), (1, 0, 2.88936e-14), (1, 0, 2.88936e-14), (1, 0, 2.88936e-14), (1, 0, 2.88936e-14), (-2.16609e-14, 0.661802, 0.749678), (-3.5838e-15, 0.992278, 0.124035), (-2.16609e-14, 0.661802, 0.749678), (-3.5838e-15, 0.992278, 0.124035), (-2.16609e-14, 0.661802, 0.749678), (-3.5838e-15, 0.992278, 0.124035), (0, -1, 0), (0, -1, 0), (0, -1, 0), (0, -1, 0), (0, -1, 0), (0, -1, 0), (0, -1, 0), (0, -1, 0), (0, -1, 0), (0, -1, 0), (0, -1, 0), (0, -1, 0), (0, -1, 0), (0, -1, 0), (0, -1, 0), (0, 0, -1), (0, 0, -1), (0, 0, -1), (0, 0, -1), (0, 0, -1), (0, 0, -1), (0, 0, -1), (0, 0, -1), (0, 0, -1), (0, 0, -1), (0, 0, -1), (0, 0, -1), (0, 0, -1), (0, 0, -1), (0, 0, -1), (0, 0, -1), (0, 0, -1), (0, 0, -1), (0, 0, -1), (0, 0, -1), (0, 0, -1), (0, 0, -1), (0, 0, -1), (0, 0, -1), (0, 0, -1), (0, 0, -1), (0, 0, -1), (0, 0, -1), (0, 0, -1), (0, 0, -1), (0, 1, 0), (0, 1, 0), (0, 1, 0), (0, 1, 0), (0, 1, 0), (0, 1, 0), (0, 1, 0), (0, 1, 0), (0, 1, 0), (0, 1, 0), (0, 1, 0), (0, 1, 0), (0, 1, 0), (0, 1, 0), (0, 1, 0), (0, 1, 0), (0, 1, 0), (0, 1, 0), (0, 1, 0), (0, 1, 0), (0, 1, 0), (0, 1, 0), (0, 1, 0), (0, 1, 0), (0, 1, 0), (0, 1, 0), (0, 1, 0), (0, 1, 0), (0, 1, 0), (0, 1, 0), (0, 1, 0), (0, 1, 0), (0, 1, 0), (0, 1, 0), (0, 1, 0), (0, 1, 0), (0, 1, 0), (0, 1, 0), (0, 1, 0), (0, 1, 0), (0, 1, 0), (0, 1, 0), (0, 1, 0), (0, 1, 0), (0, 1, 0), (0, 1, 0), (0, 1, 0), (0, 1, 0), (-0.906932, 0, 0.421277), (-1, 0, 0), (-1, 0, 0), (-1, 0, 0), (-0.906932, 0, 0.421277), (-0.906932, 0, 0.421277), (-0.46342, 0, 0.886139), (-0.906932, 0, 0.421277), (-0.46342, 0, 0.886139), (-0.906932, 0, 0.421277), (-0.46342, 0, 0.886139), (-0.906932, 0, 0.421277), (0, 0, 1), (-0.46342, 0, 0.886139), (0, 0, 1), (-0.46342, 0, 0.886139), (0, 0, 1), (-0.46342, 0, 0.886139), (0.46342, 0, 0.886139), (0, 0, 1), (0.46342, 0, 0.886139), (0, 0, 1), (0.46342, 0, 0.886139), (0, 0, 1), (0.906932, 0, 0.421277), (0.46342, 0, 0.886139), (0.906932, 0, 0.421277), (0.46342, 0, 0.886139), (0.906932, 0, 0.421277), (0.46342, 0, 0.886139), (0.906932, 0, 0.421277), (1, 0, 0), (1, 0, 0), (1, 0, 0), (0.906932, 0, 0.421277), (0.906932, 0, 0.421277), (1, 0, 0), (1, 0, 0), (1, 0, 0), (1, 0, 0), (1, 0, 0), (1, 0, 0), (0.645052, 0, -0.764139), (0.46342, 0, -0.886139), (0.645052, 0, -0.764139), (0.46342, 0, -0.886139), (0.645052, 0, -0.764139), (0.46342, 0, -0.886139), (0.46342, 0, -0.886139), (0, 0, -1), (0.46342, 0, -0.886139), (0, 0, -1), (0.46342, 0, -0.886139), (0, 0, -1), (0, 0, -1), (-0.46342, 0, -0.886139), (0, 0, -1), (-0.46342, 0, -0.886139), (0, 0, -1), (-0.46342, 0, -0.886139), (-0.46342, 0, -0.886139), (-0.645052, 0, -0.764139), (-0.645052, 0, -0.764139), (-0.645052, 0, -0.764139), (-0.46342, 0, -0.886139), (-0.46342, 0, -0.886139), (-1, 0, 0), (-1, 0, 0), (-1, 0, 0), (-1, 0, 0), (-1, 0, 0), (-1, 0, 0), (0, 0, 1), (0, 0, 1), (0, 0, 1), (0, 0, 1), (0, 0, 1), (0, 0, 1), (0, 0, 1), (0, 0, 1), (0, 0, 1), (0, 0, 1), (0, 0, 1), (0, 0, 1), (0, 0, 1), (0, 0, 1), (0, 0, 1), (0, 0, 1), (0, 0, 1), (0, 0, 1), (0.850651, 0.525731, 0), (0.447214, 0.894427, 0), (0.850651, 0.525731, 0), (0.447214, 0.894427, 0), (0.850651, 0.525731, 0), (0.447214, 0.894427, 0), (0.850651, 0.525731, 0), (1, 0, 0), (0.850651, 0.525731, 0), (1, 0, 0), (0.850651, 0.525731, 0), (1, 0, 0), (-1, 0, 0), (-0.850651, 0.525731, 0), (-0.850651, 0.525731, 0), (-0.850651, 0.525731, 0), (-1, 0, 0), (-1, 0, 0), (-0.447214, 0.894427, 0), (-0.850651, 0.525731, 0), (-0.447214, 0.894427, 0), (-0.850651, 0.525731, 0), (-0.447214, 0.894427, 0), (-0.850651, 0.525731, 0), (0, -1, 0), (0, -1, 0), (0, -1, 0), (0, -1, 0), (0, -1, 0), (0, -1, 0), (0, -1, 0), (0, -1, 0), (0, -1, 0), (0, -1, 0), (0, -1, 0), (0, -1, 0), (0, -1, 0), (0, -1, 0), (0, -1, 0), (0, -1, 0), (0, -1, 0), (0, -1, 0), (0, -1, 0), (0, -1, 0), (0, -1, 0), (0, -1, 0), (0, -1, 0), (0, -1, 0), (0, -1, 0), (0, -1, 0), (0, -1, 0), (0, -1, 0), (0, -1, 0), (0, -1, 0), (0, -1, 0), (0, -1, 0), (0, -1, 0), (0, -1, 0), (0, -1, 0), (0, -1, 0), (0, -1, 0), (0, -1, 0), (0, -1, 0), (0, -1, 0), (0, -1, 0), (0, -1, 0), (0, -1, 0), (0, -1, 0), (0, -1, 0), (0, -1, 0), (0, -1, 0), (0, -1, 0), (0, -1, 0), (0, -1, 0), (0, -1, 0), (0, -1, 0), (0, -1, 0), (0, -1, 0), (0, 1, 0), (0, 1, 0), (0, 1, 0), (0, 1, 0), (0, 1, 0), (0, 1, 0), (0, 1, 0), (0, 1, 0), (0, 1, 0), (0, 1, 0), (0, 1, 0), (0, 1, 0), (0, 1, 0), (0, 1, 0), (0, 1, 0), (0, 1, 0), (0, 1, 0), (0, 1, 0), (0, 1, 0), (0, 1, 0), (0, 1, 0), (0, 1, 0), (0, 1, 0), (0, 1, 0), (-0.19509, 0, 0.980785), (-0.707107, 0, 0.707107), (-0.19509, 0, 0.980785), (-0.707107, 0, 0.707107), (-0.19509, 0, 0.980785), (-0.707107, 0, 0.707107), (0.19509, 0, 0.980785), (-0.19509, 0, 0.980785), (0.19509, 0, 0.980785), (-0.19509, 0, 0.980785), (0.19509, 0, 0.980785), (-0.19509, 0, 0.980785), (0.707107, 0, 0.707107), (0.19509, 0, 0.980785), (0.707107, 0, 0.707107), (0.19509, 0, 0.980785), (0.707107, 0, 0.707107), (0.19509, 0, 0.980785), (0.707107, 0, 0.707107), (0.980785, 0, 0.19509), (0.980785, 0, 0.19509), (0.980785, 0, 0.19509), (0.707107, 0, 0.707107), (0.707107, 0, 0.707107), (0.980785, 0, 0.19509), (0.923879, 0, -0.382683), (0.923879, 0, -0.382683), (0.923879, 0, -0.382683), (0.980785, 0, 0.19509), (0.980785, 0, 0.19509), (-0.707107, 0, 0.707107), (-0.980785, 0, 0.19509), (-0.980785, 0, 0.19509), (-0.980785, 0, 0.19509), (-0.707107, 0, 0.707107), (-0.707107, 0, 0.707107), (-0.980785, 0, 0.19509), (-0.923879, 0, -0.382683), (-0.923879, 0, -0.382683), (-0.923879, 0, -0.382683), (-0.980785, 0, 0.19509), (-0.980785, 0, 0.19509), (-0.382683, 0, -0.923879), (0.382683, 0, -0.923879), (-0.382683, 0, -0.923879), (0.382683, 0, -0.923879), (-0.382683, 0, -0.923879), (0.382683, 0, -0.923879), (-0.923879, 0, -0.382683), (-0.382683, 0, -0.923879), (-0.382683, 0, -0.923879), (-0.382683, 0, -0.923879), (-0.923879, 0, -0.382683), (-0.923879, 0, -0.382683), (0.923879, 0, -0.382683), (0.382683, 0, -0.923879), (0.382683, 0, -0.923879), (0.382683, 0, -0.923879), (0.923879, 0, -0.382683), (0.923879, 0, -0.382683), (-1, 0, -2.88936e-14), (-1, 0, -2.88936e-14), (-1, 0, -2.88936e-14), (-1, 0, -2.88936e-14), (-1, 0, -2.88936e-14), (-1, 0, -2.88936e-14), (-2.16609e-14, 0.661802, 0.749678), (-2.88936e-14, 0, 1), (-2.88936e-14, 0, 1), (-2.88936e-14, 0, 1), (-2.16609e-14, 0.661802, 0.749678), (-2.16609e-14, 0.661802, 0.749678), (1, 0, 2.88936e-14), (1, 0, 2.88936e-14), (1, 0, 2.88936e-14), (1, 0, 2.88936e-14), (1, 0, 2.88936e-14), (1, 0, 2.88936e-14), (2.88936e-14, 0, -1), (2.88936e-14, 0, -1), (2.88936e-14, 0, -1), (2.88936e-14, 0, -1), (2.88936e-14, 0, -1), (2.88936e-14, 0, -1), (-2.16609e-14, 0.661802, 0.749678), (-3.5838e-15, 0.992278, 0.124035), (-2.16609e-14, 0.661802, 0.749678), (-3.5838e-15, 0.992278, 0.124035), (-2.16609e-14, 0.661802, 0.749678), (-3.5838e-15, 0.992278, 0.124035), (0, 1, 0), (0, 1, 0), (0, 1, 0), (0, 1, 0), (0, 1, 0), (0, 1, 0), (0, 1, 0), (0, 1, 0), (0, 1, 0), (0, 1, 0), (0, 1, 0), (0, 1, 0), (0, 1, 0), (0, 1, 0), (0, 1, 0), (0, 1, 0), (0, 1, 0), (0, 1, 0), (0, 1, 0), (0, 1, 0), (0, 1, 0), (0, 1, 0), (0, 1, 0), (0, 1, 0), (0, 1, 0), (0, 1, 0), (0, 1, 0), (0.382683, 0, 0.923879), (0.19509, 0, 0.980785), (0.382683, 0, 0.923879), (0.19509, 0, 0.980785), (0.382683, 0, 0.923879), (0.19509, 0, 0.980785), (-0.19509, 0, 0.980785), (-0.382683, 0, 0.923879), (-0.19509, 0, 0.980785), (-0.382683, 0, 0.923879), (-0.19509, 0, 0.980785), (-0.382683, 0, 0.923879), (0.19509, 0, 0.980785), (-0.19509, 0, 0.980785), (0.19509, 0, 0.980785), (-0.19509, 0, 0.980785), (0.19509, 0, 0.980785), (-0.19509, 0, 0.980785), (0, -0.5547, -0.83205), (0, -0.5547, -0.83205), (0, -0.5547, -0.83205), (0, -0.5547, -0.83205), (0, -0.5547, -0.83205), (0, -0.5547, -0.83205), (-0.236947, -0.848734, 0.472764), (-0.614369, -0.768993, 0.176638), (-0.257795, -0.846977, 0.464942), (-0.614369, -0.768993, 0.176638), (-0.236947, -0.848734, 0.472764), (-0.509689, -0.810035, 0.289931), (0.347397, -0.644064, 0.68154), (0, -0.658505, 0.752577), (0.364175, -0.642844, 0.67389), (0, -0.658505, 0.752577), (0.347397, -0.644064, 0.68154), (0, -0.658505, 0.752577), (0, -0.859293, 0.511484), (0.257795, -0.846977, 0.464942), (0.236947, -0.848734, 0.472764), (0.257795, -0.846977, 0.464942), (0, -0.859293, 0.511484), (0, -0.859293, 0.511484), (-0.347397, -0.644064, 0.68154), (-0.769315, -0.574561, 0.279347), (-0.364175, -0.642844, 0.67389), (-0.769315, -0.574561, 0.279347), (-0.347397, -0.644064, 0.68154), (-0.706938, -0.598928, 0.376197), (0.706938, -0.598928, 0.376197), (0.883116, -0.469155, 0), (0.883116, -0.469155, 0), (0.883116, -0.469155, 0), (0.706938, -0.598928, 0.376197), (0.769315, -0.574561, 0.279347), (0.236947, -0.848734, 0.472764), (0.614369, -0.768993, 0.176638), (0.509689, -0.810035, 0.289931), (0.614369, -0.768993, 0.176638), (0.236947, -0.848734, 0.472764), (0.257795, -0.846977, 0.464942), (-0.236947, -0.848734, 0.472764), (0, -0.859293, 0.511484), (0, -0.859293, 0.511484), (0, -0.859293, 0.511484), (-0.236947, -0.848734, 0.472764), (-0.257795, -0.846977, 0.464942), (0.347397, -0.644064, 0.68154), (0.769315, -0.574561, 0.279347), (0.706938, -0.598928, 0.376197), (0.769315, -0.574561, 0.279347), (0.347397, -0.644064, 0.68154), (0.364175, -0.642844, 0.67389), (-0.769315, -0.574561, 0.279347), (-0.883116, -0.469155, 0), (-0.883116, -0.469155, 0), (-0.883116, -0.469155, 0), (-0.769315, -0.574561, 0.279347), (-0.706938, -0.598928, 0.376197), (0.509689, -0.810035, 0.289931), (0.740833, -0.671689, 0), (0.740833, -0.671689, 0), (0.740833, -0.671689, 0), (0.509689, -0.810035, 0.289931), (0.614369, -0.768993, 0.176638), (-0.740833, -0.671689, 0), (-0.509689, -0.810035, 0.289931), (-0.740833, -0.671689, 0), (-0.509689, -0.810035, 0.289931), (-0.740833, -0.671689, 0), (-0.614369, -0.768993, 0.176638), (0, -1, 0), (0, -1, 0), (0, -1, 0), (0, -1, 0), (0, -1, 0), (0, -1, 0), (0, -1, 0), (0, -1, 0), (0, -1, 0), (0, -1, 0), (0, -1, 0), (0, -1, 0), (0, -1, 0), (0, -1, 0), (0, -1, 0), (0, -0.658505, 0.752577), (-0.364175, -0.642844, 0.67389), (0, -0.658505, 0.752577), (-0.364175, -0.642844, 0.67389), (0, -0.658505, 0.752577), (-0.347397, -0.644064, 0.68154), (0, 0, -1), (0, 0, -1), (0, 0, -1), (0, 0, -1), (0, 0, -1), (0, 0, -1), (-0.980785, 0, 0.19509), (-1, 0, 0), (-1, 0, 0), (-1, 0, 0), (-0.980785, 0, 0.19509), (-0.980785, 0, 0.19509), (0.980785, 0, 0.19509), (1, 0, 0), (1, 0, 0), (1, 0, 0), (0.980785, 0, 0.19509), (0.980785, 0, 0.19509), (0.923879, 0, 0.382683), (0.980785, 0, 0.19509), (0.980785, 0, 0.19509), (0.980785, 0, 0.19509), (0.923879, 0, 0.382683), (0.923879, 0, 0.382683), (0.923879, 0, 0.382683), (0.923879, 0, 0.382683), (0.923879, 0, 0.382683), (-0.923879, 0, 0.382683), (-0.980785, 0, 0.19509), (-0.980785, 0, 0.19509), (-0.980785, 0, 0.19509), (-0.923879, 0, 0.382683), (-0.923879, 0, 0.382683), (-0.923879, 0, 0.382683), (-0.923879, 0, 0.382683), (-0.923879, 0, 0.382683), (-0.19509, 0, 0.980785), (-0.382683, 0, 0.923879), (-0.19509, 0, 0.980785), (-0.382683, 0, 0.923879), (-0.19509, 0, 0.980785), (-0.382683, 0, 0.923879), (0.19509, 0, 0.980785), (-0.19509, 0, 0.980785), (0.19509, 0, 0.980785), (-0.19509, 0, 0.980785), (0.19509, 0, 0.980785), (-0.19509, 0, 0.980785), (0.382683, 0, 0.923879), (0.19509, 0, 0.980785), (0.382683, 0, 0.923879), (0.19509, 0, 0.980785), (0.382683, 0, 0.923879), (0.19509, 0, 0.980785), (-1, 0, -2.88936e-14), (-1, 0, -2.88936e-14), (-1, 0, -2.88936e-14), (-1, 0, -2.88936e-14), (-1, 0, -2.88936e-14), (-1, 0, -2.88936e-14), (-2.16609e-14, 0.661802, 0.749678), (-2.88936e-14, 0, 1), (-2.88936e-14, 0, 1), (-2.88936e-14, 0, 1), (-2.16609e-14, 0.661802, 0.749678), (-2.16609e-14, 0.661802, 0.749678), (1, 0, 2.88936e-14), (1, 0, 2.88936e-14), (1, 0, 2.88936e-14), (1, 0, 2.88936e-14), (1, 0, 2.88936e-14), (1, 0, 2.88936e-14), (-2.16609e-14, 0.661802, 0.749678), (-3.5838e-15, 0.992278, 0.124035), (-2.16609e-14, 0.661802, 0.749678), (-3.5838e-15, 0.992278, 0.124035), (-2.16609e-14, 0.661802, 0.749678), (-3.5838e-15, 0.992278, 0.124035), (0, -1, 0), (0, -1, 0), (0, -1, 0), (0, -1, 0), (0, -1, 0), (0, -1, 0), (0, -1, 0), (0, -1, 0), (0, -1, 0), (0, -1, 0), (0, -1, 0), (0, -1, 0), (0, -1, 0), (0, -1, 0), (0, -1, 0), (0, 0, -1), (0, 0, -1), (0, 0, -1), (0, 0, -1), (0, 0, -1), (0, 0, -1), (0, 0, -1), (0, 0, -1), (0, 0, -1), (0, 0, -1), (0, 0, -1), (0, 0, -1), (0, 0, -1), (0, 0, -1), (0, 0, -1), (0, 0, -1), (0, 0, -1), (0, 0, -1), (0, 0, -1), (0, 0, -1), (0, 0, -1), (0, 0, -1), (0, 0, -1), (0, 0, -1), (0, 0, -1), (0, 0, -1), (0, 0, -1), (0, 0, -1), (0, 0, -1), (0, 0, -1), (0, 1, 0), (0, 1, 0), (0, 1, 0), (0, 1, 0), (0, 1, 0), (0, 1, 0), (0, 1, 0), (0, 1, 0), (0, 1, 0), (0, 1, 0), (0, 1, 0), (0, 1, 0), (0, 1, 0), (0, 1, 0), (0, 1, 0), (0, 1, 0), (0, 1, 0), (0, 1, 0), (0, 1, 0), (0, 1, 0), (0, 1, 0), (0, 1, 0), (0, 1, 0), (0, 1, 0), (0, 1, 0), (0, 1, 0), (0, 1, 0), (0, 1, 0), (0, 1, 0), (0, 1, 0), (0, 1, 0), (0, 1, 0), (0, 1, 0), (0, 1, 0), (0, 1, 0), (0, 1, 0), (0, 1, 0), (0, 1, 0), (0, 1, 0), (0, 1, 0), (0, 1, 0), (0, 1, 0), (0, 1, 0), (0, 1, 0), (0, 1, 0), (0, 1, 0), (0, 1, 0), (0, 1, 0), (-0.906932, 0, 0.421277), (-1, 0, 0), (-1, 0, 0), (-1, 0, 0), (-0.906932, 0, 0.421277), (-0.906932, 0, 0.421277), (-0.46342, 0, 0.886139), (-0.906932, 0, 0.421277), (-0.46342, 0, 0.886139), (-0.906932, 0, 0.421277), (-0.46342, 0, 0.886139), (-0.906932, 0, 0.421277), (0, 0, 1), (-0.46342, 0, 0.886139), (0, 0, 1), (-0.46342, 0, 0.886139), (0, 0, 1), (-0.46342, 0, 0.886139), (0.46342, 0, 0.886139), (0, 0, 1), (0.46342, 0, 0.886139), (0, 0, 1), (0.46342, 0, 0.886139), (0, 0, 1), (0.906932, 0, 0.421277), (0.46342, 0, 0.886139), (0.906932, 0, 0.421277), (0.46342, 0, 0.886139), (0.906932, 0, 0.421277), (0.46342, 0, 0.886139), (0.906932, 0, 0.421277), (1, 0, 0), (1, 0, 0), (1, 0, 0), (0.906932, 0, 0.421277), (0.906932, 0, 0.421277), (1, 0, 0), (1, 0, 0), (1, 0, 0), (1, 0, 0), (1, 0, 0), (1, 0, 0), (0.645052, 0, -0.764139), (0.46342, 0, -0.886139), (0.645052, 0, -0.764139), (0.46342, 0, -0.886139), (0.645052, 0, -0.764139), (0.46342, 0, -0.886139), (0.46342, 0, -0.886139), (0, 0, -1), (0.46342, 0, -0.886139), (0, 0, -1), (0.46342, 0, -0.886139), (0, 0, -1), (0, 0, -1), (-0.46342, 0, -0.886139), (0, 0, -1), (-0.46342, 0, -0.886139), (0, 0, -1), (-0.46342, 0, -0.886139), (-0.46342, 0, -0.886139), (-0.645052, 0, -0.764139), (-0.645052, 0, -0.764139), (-0.645052, 0, -0.764139), (-0.46342, 0, -0.886139), (-0.46342, 0, -0.886139), (-1, 0, 0), (-1, 0, 0), (-1, 0, 0), (-1, 0, 0), (-1, 0, 0), (-1, 0, 0), (0, 0, 1), (0, 0, 1), (0, 0, 1), (0, 0, 1), (0, 0, 1), (0, 0, 1), (0, 0, 1), (0, 0, 1), (0, 0, 1), (0, 0, 1), (0, 0, 1), (0, 0, 1), (0, 0, 1), (0, 0, 1), (0, 0, 1), (0, 0, 1), (0, 0, 1), (0, 0, 1), (0.850651, 0.525731, 0), (0.447214, 0.894427, 0), (0.850651, 0.525731, 0), (0.447214, 0.894427, 0), (0.850651, 0.525731, 0), (0.447214, 0.894427, 0), (0.850651, 0.525731, 0), (1, 0, 0), (0.850651, 0.525731, 0), (1, 0, 0), (0.850651, 0.525731, 0), (1, 0, 0), (-1, 0, 0), (-0.850651, 0.525731, 0), (-0.850651, 0.525731, 0), (-0.850651, 0.525731, 0), (-1, 0, 0), (-1, 0, 0), (-0.447214, 0.894427, 0), (-0.850651, 0.525731, 0), (-0.447214, 0.894427, 0), (-0.850651, 0.525731, 0), (-0.447214, 0.894427, 0), (-0.850651, 0.525731, 0), (0, -1, 0), (0, -1, 0), (0, -1, 0), (0, -1, 0), (0, -1, 0), (0, -1, 0), (0, -1, 0), (0, -1, 0), (0, -1, 0), (0, -1, 0), (0, -1, 0), (0, -1, 0), (0, -1, 0), (0, -1, 0), (0, -1, 0), (0, -1, 0), (0, -1, 0), (0, -1, 0), (0, -1, 0), (0, -1, 0), (0, -1, 0), (0, -1, 0), (0, -1, 0), (0, -1, 0), (0, -1, 0), (0, -1, 0), (0, -1, 0), (0, -1, 0), (0, -1, 0), (0, -1, 0), (0, -1, 0), (0, -1, 0), (0, -1, 0), (0, -1, 0), (0, -1, 0), (0, -1, 0), (0, -1, 0), (0, -1, 0), (0, -1, 0), (0, -1, 0), (0, -1, 0), (0, -1, 0), (0, -1, 0), (0, -1, 0), (0, -1, 0), (0, -1, 0), (0, -1, 0), (0, -1, 0), (0, -1, 0), (0, -1, 0), (0, -1, 0), (0, -1, 0), (0, -1, 0), (0, -1, 0), (0, 1, 0), (0, 1, 0), (0, 1, 0), (0, 1, 0), (0, 1, 0), (0, 1, 0), (0, 1, 0), (0, 1, 0), (0, 1, 0), (0, 1, 0), (0, 1, 0), (0, 1, 0), (0, 1, 0), (0, 1, 0), (0, 1, 0), (0, 1, 0), (0, 1, 0), (0, 1, 0), (0, 1, 0), (0, 1, 0), (0, 1, 0), (0, 1, 0), (0, 1, 0), (0, 1, 0), (-0.19509, 0, 0.980785), (-0.707107, 0, 0.707107), (-0.19509, 0, 0.980785), (-0.707107, 0, 0.707107), (-0.19509, 0, 0.980785), (-0.707107, 0, 0.707107), (0.19509, 0, 0.980785), (-0.19509, 0, 0.980785), (0.19509, 0, 0.980785), (-0.19509, 0, 0.980785), (0.19509, 0, 0.980785), (-0.19509, 0, 0.980785), (0.707107, 0, 0.707107), (0.19509, 0, 0.980785), (0.707107, 0, 0.707107), (0.19509, 0, 0.980785), (0.707107, 0, 0.707107), (0.19509, 0, 0.980785), (0.707107, 0, 0.707107), (0.980785, 0, 0.19509), (0.980785, 0, 0.19509), (0.980785, 0, 0.19509), (0.707107, 0, 0.707107), (0.707107, 0, 0.707107), (0.980785, 0, 0.19509), (0.923879, 0, -0.382683), (0.923879, 0, -0.382683), (0.923879, 0, -0.382683), (0.980785, 0, 0.19509), (0.980785, 0, 0.19509), (-0.707107, 0, 0.707107), (-0.980785, 0, 0.19509), (-0.980785, 0, 0.19509), (-0.980785, 0, 0.19509), (-0.707107, 0, 0.707107), (-0.707107, 0, 0.707107), (-0.980785, 0, 0.19509), (-0.923879, 0, -0.382683), (-0.923879, 0, -0.382683), (-0.923879, 0, -0.382683), (-0.980785, 0, 0.19509), (-0.980785, 0, 0.19509), (-0.382683, 0, -0.923879), (0.382683, 0, -0.923879), (-0.382683, 0, -0.923879), (0.382683, 0, -0.923879), (-0.382683, 0, -0.923879), (0.382683, 0, -0.923879), (-0.923879, 0, -0.382683), (-0.382683, 0, -0.923879), (-0.382683, 0, -0.923879), (-0.382683, 0, -0.923879), (-0.923879, 0, -0.382683), (-0.923879, 0, -0.382683), (0.923879, 0, -0.382683), (0.382683, 0, -0.923879), (0.382683, 0, -0.923879), (0.382683, 0, -0.923879), (0.923879, 0, -0.382683), (0.923879, 0, -0.382683), (-1, 0, -2.88936e-14), (-1, 0, -2.88936e-14), (-1, 0, -2.88936e-14), (-1, 0, -2.88936e-14), (-1, 0, -2.88936e-14), (-1, 0, -2.88936e-14), (-2.16609e-14, 0.661802, 0.749678), (-2.88936e-14, 0, 1), (-2.88936e-14, 0, 1), (-2.88936e-14, 0, 1), (-2.16609e-14, 0.661802, 0.749678), (-2.16609e-14, 0.661802, 0.749678), (1, 0, 2.88936e-14), (1, 0, 2.88936e-14), (1, 0, 2.88936e-14), (1, 0, 2.88936e-14), (1, 0, 2.88936e-14), (1, 0, 2.88936e-14), (2.88936e-14, 0, -1), (2.88936e-14, 0, -1), (2.88936e-14, 0, -1), (2.88936e-14, 0, -1), (2.88936e-14, 0, -1), (2.88936e-14, 0, -1), (-2.16609e-14, 0.661802, 0.749678), (-3.5838e-15, 0.992278, 0.124035), (-2.16609e-14, 0.661802, 0.749678), (-3.5838e-15, 0.992278, 0.124035), (-2.16609e-14, 0.661802, 0.749678), (-3.5838e-15, 0.992278, 0.124035), (0, 1, 0), (0, 1, 0), (0, 1, 0), (0, 1, 0), (0, 1, 0), (0, 1, 0), (0, 1, 0), (0, 1, 0), (0, 1, 0), (0, 1, 0), (0, 1, 0), (0, 1, 0), (0, 1, 0), (0, 1, 0), (0, 1, 0), (0, 1, 0), (0, 1, 0), (0, 1, 0), (0, 1, 0), (0, 1, 0), (0, 1, 0), (0, 1, 0), (0, 1, 0), (0, 1, 0), (0, 1, 0), (0, 1, 0), (0, 1, 0), (0.382683, 0, 0.923879), (0.19509, 0, 0.980785), (0.382683, 0, 0.923879), (0.19509, 0, 0.980785), (0.382683, 0, 0.923879), (0.19509, 0, 0.980785), (-0.19509, 0, 0.980785), (-0.382683, 0, 0.923879), (-0.19509, 0, 0.980785), (-0.382683, 0, 0.923879), (-0.19509, 0, 0.980785), (-0.382683, 0, 0.923879), (0.19509, 0, 0.980785), (-0.19509, 0, 0.980785), (0.19509, 0, 0.980785), (-0.19509, 0, 0.980785), (0.19509, 0, 0.980785), (-0.19509, 0, 0.980785)] (interpolation = "faceVarying")
        texCoord2f[] primvars:st = [(0.71875, 0.085), (0.71875, 0.025), (0.71875, 0.025), (0.71875, 0.025), (0.71875, 0.085), (0.71875, 0.085), (0.71875, 0.085), (0.71875, 0.025), (0.71875, 0.025), (0.71875, 0.025), (0.71875, 0.085), (0.71875, 0.085), (0.71875, 0.165), (0.71875, 0.085), (0.71875, 0.085), (0.71875, 0.085), (0.71875, 0.165), (0.71875, 0.165), (0.71875, 0.085), (0.71875, 0.025), (0.71875, 0.085), (0.71875, 0.025), (0.71875, 0.085), (0.71875, 0.025), (0.71875, 0.165), (0.71875, 0.085), (0.71875, 0.085), (0.71875, 0.085), (0.71875, 0.165), (0.71875, 0.165), (0.71875, 0.165), (0.71875, 0.085), (0.71875, 0.165), (0.71875, 0.085), (0.71875, 0.165), (0.71875, 0.085), (0.71875, 0.085), (0.71875, 0.025), (0.71875, 0.085), (0.71875, 0.025), (0.71875, 0.085), (0.71875, 0.025), (0.71875, 0.085), (0.71875, 0.025), (0.71875, 0.085), (0.71875, 0.025), (0.71875, 0.085), (0.71875, 0.025), (0.71875, 0.165), (0.71875, 0.085), (0.71875, 0.165), (0.71875, 0.085), (0.71875, 0.165), (0.71875, 0.085), (0.71875, 0.085), (0.71875, 0.165), (0.71875, 0.085), (0.71875, 0.165), (0.71875, 0.085), (0.71875, 0.165), (0.71875, 0.085), (0.71875, 0.025), (0.71875, 0.085), (0.71875, 0.025), (0.71875, 0.085), (0.71875, 0.025), (0.71875, 0.025), (0.71875, 0.085), (0.71875, 0.085), (0.71875, 0.085), (0.71875, 0.025), (0.71875, 0.025), (0.71875, 0.025), (0.71875, 0.025), (0.71875, 0.025), (0.71875, 0.025), (0.71875, 0.025), (0.71875, 0.025), (0.71875, 0.025), (0.71875, 0.025), (0.71875, 0.025), (0.71875, 0.025), (0.71875, 0.025), (0.71875, 0.025), (0.71875, 0.025), (0.71875, 0.025), (0.71875, 0.025), (0.71875, 0.165), (0.71875, 0.085), (0.71875, 0.085), (0.71875, 0.085), (0.71875, 0.165), (0.71875, 0.165), (0.71875, 0.025), (0.71875, 0.180556), (0.71875, 0.025), (0.71875, 0.180556), (0.71875, 0.025), (0.71875, 0.180556), (0.71875, 0.025), (0.71875, 0.180556), (0.71875, 0.025), (0.71875, 0.180556), (0.71875, 0.025), (0.71875, 0.180556), (0.71875, 0.180556), (0.71875, 0.025), (0.71875, 0.180556), (0.71875, 0.025), (0.71875, 0.180556), (0.71875, 0.025), (0.71875, 0.180556), (0.71875, 0.025), (0.71875, 0.180556), (0.71875, 0.025), (0.71875, 0.180556), (0.71875, 0.025), (0.71875, 0.025), (0.71875, 0.180556), (0.71875, 0.102778), (0.71875, 0.025), (0.71875, 0.180556), (0.71875, 0.025), (0.71875, 0.180556), (0.71875, 0.025), (0.71875, 0.180556), (0.71875, 0.180556), (0.71875, 0.025), (0.71875, 0.102778), (0.71875, 0.102778), (0.71875, 0.025), (0.71875, 0.025), (0.71875, 0.025), (0.71875, 0.102778), (0.71875, 0.102778), (0.71875, 0.102778), (0.71875, 0.025), (0.71875, 0.025), (0.71875, 0.025), (0.71875, 0.102778), (0.71875, 0.102778), (0.71875, 0.102778), (0.71875, 0.025), (0.71875, 0.025), (0.71875, 0.025), (0.71875, 0.102778), (0.71875, 0.102778), (0.71875, 0.225), (0.71875, 0.025), (0.71875, 0.175), (0.71875, 0.025), (0.71875, 0.225), (0.71875, 0.025), (0.71875, 0.175), (0.71875, 0.025), (0.71875, 0.025), (0.71875, 0.025), (0.71875, 0.175), (0.71875, 0.175), (0.71875, 0.025), (0.71875, 0.175), (0.71875, 0.025), (0.71875, 0.175), (0.71875, 0.025), (0.71875, 0.225), (0.71875, 0.175), (0.71875, 0.225), (0.71875, 0.175), (0.71875, 0.225), (0.71875, 0.175), (0.71875, 0.225), (0.71875, 0.085), (0.71875, 0.085), (0.71875, 0.085), (0.71875, 0.085), (0.71875, 0.085), (0.71875, 0.085), (0.71875, 0.085), (0.71875, 0.085), (0.71875, 0.085), (0.71875, 0.085), (0.71875, 0.085), (0.71875, 0.085), (0.71875, 0.085), (0.71875, 0.085), (0.71875, 0.085), (0.46875, 0.415), (0.46875, 0.335), (0.46875, 0.335), (0.46875, 0.335), (0.46875, 0.415), (0.46875, 0.415), (0.46875, 0.415), (0.46875, 0.415), (0.46875, 0.435), (0.46875, 0.435), (0.46875, 0.415), (0.46875, 0.475), (0.46875, 0.435), (0.46875, 0.475), (0.46875, 0.455), (0.46875, 0.455), (0.46875, 0.475), (0.46875, 0.475), (0.46875, 0.435), (0.46875, 0.415), (0.46875, 0.435), (0.46875, 0.415), (0.46875, 0.435), (0.46875, 0.475), (0.46875, 0.475), (0.46875, 0.435), (0.46875, 0.455), (0.46875, 0.475), (0.46875, 0.455), (0.46875, 0.475), (0.46875, 0.475), (0.46875, 0.475), (0.46875, 0.475), (0.46875, 0.475), (0.46875, 0.475), (0.46875, 0.475), (0.46875, 0.475), (0.46875, 0.475), (0.46875, 0.475), (0.46875, 0.475), (0.46875, 0.475), (0.46875, 0.475), (0.46875, 0.475), (0.46875, 0.475), (0.46875, 0.475), (0.46875, 0.475), (0.46875, 0.475), (0.46875, 0.475), (0.46875, 0.475), (0.46875, 0.475), (0.46875, 0.475), (0.46875, 0.475), (0.46875, 0.475), (0.46875, 0.475), (0.46875, 0.475), (0.46875, 0.475), (0.46875, 0.475), (0.46875, 0.475), (0.46875, 0.475), (0.46875, 0.475), (0.46875, 0.475), (0.46875, 0.475), (0.46875, 0.475), (0.46875, 0.475), (0.46875, 0.475), (0.46875, 0.475), (0.46875, 0.475), (0.46875, 0.475), (0.46875, 0.475), (0.46875, 0.475), (0.46875, 0.475), (0.46875, 0.475), (0.46875, 0.475), (0.46875, 0.475), (0.46875, 0.475), (0.46875, 0.475), (0.46875, 0.475), (0.46875, 0.475), (0.46875, 0.415), (0.46875, 0.475), (0.46875, 0.415), (0.46875, 0.475), (0.46875, 0.415), (0.46875, 0.475), (0.46875, 0.475), (0.46875, 0.415), (0.46875, 0.415), (0.46875, 0.415), (0.46875, 0.475), (0.46875, 0.475), (0.46875, 0.475), (0.46875, 0.415), (0.46875, 0.415), (0.46875, 0.415), (0.46875, 0.475), (0.46875, 0.475), (0.46875, 0.475), (0.46875, 0.415), (0.46875, 0.415), (0.46875, 0.415), (0.46875, 0.475), (0.46875, 0.475), (0.46875, 0.475), (0.46875, 0.415), (0.46875, 0.415), (0.46875, 0.415), (0.46875, 0.475), (0.46875, 0.475), (0.46875, 0.475), (0.46875, 0.415), (0.46875, 0.475), (0.46875, 0.415), (0.46875, 0.475), (0.46875, 0.415), (0.46875, 0.475), (0.46875, 0.435), (0.46875, 0.475), (0.46875, 0.435), (0.46875, 0.475), (0.46875, 0.435), (0.46875, 0.475), (0.46875, 0.435), (0.46875, 0.435), (0.46875, 0.435), (0.46875, 0.475), (0.46875, 0.475), (0.46875, 0.475), (0.46875, 0.435), (0.46875, 0.435), (0.46875, 0.435), (0.46875, 0.475), (0.46875, 0.475), (0.46875, 0.475), (0.46875, 0.435), (0.46875, 0.435), (0.46875, 0.435), (0.46875, 0.475), (0.46875, 0.475), (0.46875, 0.435), (0.46875, 0.475), (0.46875, 0.435), (0.46875, 0.475), (0.46875, 0.435), (0.46875, 0.475), (0.46875, 0.435), (0.46875, 0.475), (0.46875, 0.435), (0.46875, 0.475), (0.46875, 0.435), (0.46875, 0.475), (0.46875, 0.455), (0.46875, 0.435), (0.46875, 0.435), (0.46875, 0.435), (0.46875, 0.455), (0.46875, 0.475), (0.46875, 0.475), (0.46875, 0.455), (0.46875, 0.475), (0.46875, 0.475), (0.46875, 0.435), (0.46875, 0.435), (0.46875, 0.435), (0.46875, 0.475), (0.46875, 0.455), (0.46875, 0.455), (0.46875, 0.475), (0.46875, 0.475), (0.46875, 0.455), (0.46875, 0.475), (0.46875, 0.455), (0.46875, 0.475), (0.46875, 0.455), (0.46875, 0.475), (0.46875, 0.455), (0.46875, 0.435), (0.46875, 0.455), (0.46875, 0.435), (0.46875, 0.455), (0.46875, 0.435), (0.46875, 0.435), (0.46875, 0.455), (0.46875, 0.455), (0.46875, 0.455), (0.46875, 0.435), (0.46875, 0.435), (0.46875, 0.475), (0.46875, 0.455), (0.46875, 0.475), (0.46875, 0.455), (0.46875, 0.475), (0.46875, 0.455), (0.46875, 0.430556), (0.46875, 0.430556), (0.46875, 0.430556), (0.46875, 0.430556), (0.46875, 0.430556), (0.46875, 0.430556), (0.46875, 0.430556), (0.46875, 0.430556), (0.46875, 0.430556), (0.46875, 0.430556), (0.46875, 0.430556), (0.46875, 0.430556), (0.46875, 0.430556), (0.46875, 0.430556), (0.46875, 0.430556), (0.46875, 0.430556), (0.46875, 0.430556), (0.46875, 0.430556), (0.46875, 0.430556), (0.46875, 0.430556), (0.46875, 0.430556), (0.46875, 0.430556), (0.46875, 0.430556), (0.46875, 0.430556), (0.46875, 0.430556), (0.46875, 0.430556), (0.46875, 0.430556), (0.46875, 0.430556), (0.46875, 0.430556), (0.46875, 0.430556), (0.46875, 0.430556), (0.46875, 0.430556), (0.46875, 0.430556), (0.46875, 0.430556), (0.46875, 0.430556), (0.46875, 0.430556), (0.46875, 0.430556), (0.46875, 0.430556), (0.46875, 0.430556), (0.46875, 0.430556), (0.46875, 0.430556), (0.46875, 0.430556), (0.46875, 0.430556), (0.46875, 0.430556), (0.46875, 0.430556), (0.46875, 0.430556), (0.46875, 0.430556), (0.46875, 0.430556), (0.46875, 0.430556), (0.46875, 0.430556), (0.46875, 0.430556), (0.46875, 0.430556), (0.46875, 0.430556), (0.46875, 0.430556), (0.46875, 0.475), (0.46875, 0.475), (0.46875, 0.475), (0.46875, 0.475), (0.46875, 0.475), (0.46875, 0.475), (0.46875, 0.475), (0.46875, 0.475), (0.46875, 0.475), (0.46875, 0.475), (0.46875, 0.475), (0.46875, 0.475), (0.46875, 0.475), (0.46875, 0.475), (0.46875, 0.475), (0.46875, 0.475), (0.46875, 0.475), (0.46875, 0.475), (0.46875, 0.475), (0.46875, 0.475), (0.46875, 0.475), (0.46875, 0.475), (0.46875, 0.475), (0.46875, 0.475), (0.46875, 0.475), (0.46875, 0.430556), (0.46875, 0.430556), (0.46875, 0.430556), (0.46875, 0.475), (0.46875, 0.475), (0.46875, 0.475), (0.46875, 0.430556), (0.46875, 0.430556), (0.46875, 0.430556), (0.46875, 0.475), (0.46875, 0.475), (0.46875, 0.475), (0.46875, 0.430556), (0.46875, 0.430556), (0.46875, 0.430556), (0.46875, 0.475), (0.46875, 0.475), (0.46875, 0.475), (0.46875, 0.430556), (0.46875, 0.475), (0.46875, 0.430556), (0.46875, 0.475), (0.46875, 0.430556), (0.46875, 0.475), (0.46875, 0.430556), (0.46875, 0.475), (0.46875, 0.430556), (0.46875, 0.475), (0.46875, 0.430556), (0.46875, 0.430556), (0.46875, 0.475), (0.46875, 0.430556), (0.46875, 0.475), (0.46875, 0.430556), (0.46875, 0.475), (0.46875, 0.430556), (0.46875, 0.475), (0.46875, 0.430556), (0.46875, 0.475), (0.46875, 0.430556), (0.46875, 0.475), (0.46875, 0.475), (0.46875, 0.430556), (0.46875, 0.430556), (0.46875, 0.430556), (0.46875, 0.475), (0.46875, 0.475), (0.46875, 0.430556), (0.46875, 0.475), (0.46875, 0.430556), (0.46875, 0.475), (0.46875, 0.430556), (0.46875, 0.475), (0.46875, 0.475), (0.46875, 0.430556), (0.46875, 0.475), (0.46875, 0.430556), (0.46875, 0.475), (0.46875, 0.430556), (0.46875, 0.475), (0.46875, 0.275), (0.46875, 0.375), (0.46875, 0.275), (0.46875, 0.475), (0.46875, 0.275), (0.46875, 0.375), (0.46875, 0.275), (0.46875, 0.275), (0.46875, 0.275), (0.46875, 0.375), (0.46875, 0.375), (0.46875, 0.275), (0.46875, 0.375), (0.46875, 0.275), (0.46875, 0.375), (0.46875, 0.275), (0.46875, 0.475), (0.46875, 0.475), (0.46875, 0.275), (0.46875, 0.275), (0.46875, 0.275), (0.46875, 0.475), (0.46875, 0.475), (0.46875, 0.375), (0.46875, 0.475), (0.46875, 0.375), (0.46875, 0.475), (0.46875, 0.375), (0.46875, 0.475), (0.46875, 0.185), (0.46875, 0.185), (0.46875, 0.185), (0.46875, 0.185), (0.46875, 0.185), (0.46875, 0.185), (0.46875, 0.185), (0.46875, 0.185), (0.46875, 0.185), (0.46875, 0.185), (0.46875, 0.185), (0.46875, 0.185), (0.46875, 0.185), (0.46875, 0.185), (0.46875, 0.185), (0.46875, 0.185), (0.46875, 0.185), (0.46875, 0.185), (0.46875, 0.185), (0.46875, 0.185), (0.46875, 0.185), (0.46875, 0.185), (0.46875, 0.185), (0.46875, 0.185), (0.46875, 0.185), (0.46875, 0.185), (0.46875, 0.185), (0.09375, 0.225), (0.09375, 0.025), (0.09375, 0.025), (0.09375, 0.025), (0.09375, 0.225), (0.09375, 0.225), (0.09375, 0.225), (0.09375, 0.025), (0.09375, 0.025), (0.09375, 0.025), (0.09375, 0.225), (0.09375, 0.225), (0.09375, 0.225), (0.09375, 0.025), (0.09375, 0.025), (0.09375, 0.025), (0.09375, 0.225), (0.09375, 0.225), (0.71875, 0.085), (0.71875, 0.025), (0.71875, 0.025), (0.71875, 0.025), (0.71875, 0.085), (0.71875, 0.085), (0.71875, 0.085), (0.71875, 0.025), (0.71875, 0.025), (0.71875, 0.025), (0.71875, 0.085), (0.71875, 0.085), (0.71875, 0.165), (0.71875, 0.085), (0.71875, 0.085), (0.71875, 0.085), (0.71875, 0.165), (0.71875, 0.165), (0.71875, 0.085), (0.71875, 0.025), (0.71875, 0.085), (0.71875, 0.025), (0.71875, 0.085), (0.71875, 0.025), (0.71875, 0.165), (0.71875, 0.085), (0.71875, 0.085), (0.71875, 0.085), (0.71875, 0.165), (0.71875, 0.165), (0.71875, 0.165), (0.71875, 0.085), (0.71875, 0.165), (0.71875, 0.085), (0.71875, 0.165), (0.71875, 0.085), (0.71875, 0.085), (0.71875, 0.025), (0.71875, 0.085), (0.71875, 0.025), (0.71875, 0.085), (0.71875, 0.025), (0.71875, 0.085), (0.71875, 0.025), (0.71875, 0.085), (0.71875, 0.025), (0.71875, 0.085), (0.71875, 0.025), (0.71875, 0.165), (0.71875, 0.085), (0.71875, 0.165), (0.71875, 0.085), (0.71875, 0.165), (0.71875, 0.085), (0.71875, 0.085), (0.71875, 0.165), (0.71875, 0.085), (0.71875, 0.165), (0.71875, 0.085), (0.71875, 0.165), (0.71875, 0.085), (0.71875, 0.025), (0.71875, 0.085), (0.71875, 0.025), (0.71875, 0.085), (0.71875, 0.025), (0.71875, 0.025), (0.71875, 0.085), (0.71875, 0.085), (0.71875, 0.085), (0.71875, 0.025), (0.71875, 0.025), (0.71875, 0.025), (0.71875, 0.025), (0.71875, 0.025), (0.71875, 0.025), (0.71875, 0.025), (0.71875, 0.025), (0.71875, 0.025), (0.71875, 0.025), (0.71875, 0.025), (0.71875, 0.025), (0.71875, 0.025), (0.71875, 0.025), (0.71875, 0.025), (0.71875, 0.025), (0.71875, 0.025), (0.71875, 0.165), (0.71875, 0.085), (0.71875, 0.085), (0.71875, 0.085), (0.71875, 0.165), (0.71875, 0.165), (0.71875, 0.025), (0.71875, 0.180556), (0.71875, 0.025), (0.71875, 0.180556), (0.71875, 0.025), (0.71875, 0.180556), (0.71875, 0.025), (0.71875, 0.180556), (0.71875, 0.025), (0.71875, 0.180556), (0.71875, 0.025), (0.71875, 0.180556), (0.71875, 0.180556), (0.71875, 0.025), (0.71875, 0.180556), (0.71875, 0.025), (0.71875, 0.180556), (0.71875, 0.025), (0.71875, 0.180556), (0.71875, 0.025), (0.71875, 0.180556), (0.71875, 0.025), (0.71875, 0.180556), (0.71875, 0.025), (0.71875, 0.025), (0.71875, 0.180556), (0.71875, 0.102778), (0.71875, 0.025), (0.71875, 0.180556), (0.71875, 0.025), (0.71875, 0.180556), (0.71875, 0.025), (0.71875, 0.180556), (0.71875, 0.180556), (0.71875, 0.025), (0.71875, 0.102778), (0.71875, 0.102778), (0.71875, 0.025), (0.71875, 0.025), (0.71875, 0.025), (0.71875, 0.102778), (0.71875, 0.102778), (0.71875, 0.102778), (0.71875, 0.025), (0.71875, 0.025), (0.71875, 0.025), (0.71875, 0.102778), (0.71875, 0.102778), (0.71875, 0.102778), (0.71875, 0.025), (0.71875, 0.025), (0.71875, 0.025), (0.71875, 0.102778), (0.71875, 0.102778), (0.71875, 0.225), (0.71875, 0.025), (0.71875, 0.175), (0.71875, 0.025), (0.71875, 0.225), (0.71875, 0.025), (0.71875, 0.175), (0.71875, 0.025), (0.71875, 0.025), (0.71875, 0.025), (0.71875, 0.175), (0.71875, 0.175), (0.71875, 0.025), (0.71875, 0.175), (0.71875, 0.025), (0.71875, 0.175), (0.71875, 0.025), (0.71875, 0.225), (0.71875, 0.175), (0.71875, 0.225), (0.71875, 0.175), (0.71875, 0.225), (0.71875, 0.175), (0.71875, 0.225), (0.71875, 0.085), (0.71875, 0.085), (0.71875, 0.085), (0.71875, 0.085), (0.71875, 0.085), (0.71875, 0.085), (0.71875, 0.085), (0.71875, 0.085), (0.71875, 0.085), (0.71875, 0.085), (0.71875, 0.085), (0.71875, 0.085), (0.71875, 0.085), (0.71875, 0.085), (0.71875, 0.085), (0.46875, 0.415), (0.46875, 0.335), (0.46875, 0.335), (0.46875, 0.335), (0.46875, 0.415), (0.46875, 0.415), (0.46875, 0.415), (0.46875, 0.415), (0.46875, 0.435), (0.46875, 0.435), (0.46875, 0.415), (0.46875, 0.475), (0.46875, 0.435), (0.46875, 0.475), (0.46875, 0.455), (0.46875, 0.455), (0.46875, 0.475), (0.46875, 0.475), (0.46875, 0.435), (0.46875, 0.415), (0.46875, 0.435), (0.46875, 0.415), (0.46875, 0.435), (0.46875, 0.475), (0.46875, 0.475), (0.46875, 0.435), (0.46875, 0.455), (0.46875, 0.475), (0.46875, 0.455), (0.46875, 0.475), (0.46875, 0.475), (0.46875, 0.475), (0.46875, 0.475), (0.46875, 0.475), (0.46875, 0.475), (0.46875, 0.475), (0.46875, 0.475), (0.46875, 0.475), (0.46875, 0.475), (0.46875, 0.475), (0.46875, 0.475), (0.46875, 0.475), (0.46875, 0.475), (0.46875, 0.475), (0.46875, 0.475), (0.46875, 0.475), (0.46875, 0.475), (0.46875, 0.475), (0.46875, 0.475), (0.46875, 0.475), (0.46875, 0.475), (0.46875, 0.475), (0.46875, 0.475), (0.46875, 0.475), (0.46875, 0.475), (0.46875, 0.475), (0.46875, 0.475), (0.46875, 0.475), (0.46875, 0.475), (0.46875, 0.475), (0.46875, 0.475), (0.46875, 0.475), (0.46875, 0.475), (0.46875, 0.475), (0.46875, 0.475), (0.46875, 0.475), (0.46875, 0.475), (0.46875, 0.475), (0.46875, 0.475), (0.46875, 0.475), (0.46875, 0.475), (0.46875, 0.475), (0.46875, 0.475), (0.46875, 0.475), (0.46875, 0.475), (0.46875, 0.475), (0.46875, 0.475), (0.46875, 0.475), (0.46875, 0.415), (0.46875, 0.475), (0.46875, 0.415), (0.46875, 0.475), (0.46875, 0.415), (0.46875, 0.475), (0.46875, 0.475), (0.46875, 0.415), (0.46875, 0.415), (0.46875, 0.415), (0.46875, 0.475), (0.46875, 0.475), (0.46875, 0.475), (0.46875, 0.415), (0.46875, 0.415), (0.46875, 0.415), (0.46875, 0.475), (0.46875, 0.475), (0.46875, 0.475), (0.46875, 0.415), (0.46875, 0.415), (0.46875, 0.415), (0.46875, 0.475), (0.46875, 0.475), (0.46875, 0.475), (0.46875, 0.415), (0.46875, 0.415), (0.46875, 0.415), (0.46875, 0.475), (0.46875, 0.475), (0.46875, 0.475), (0.46875, 0.415), (0.46875, 0.475), (0.46875, 0.415), (0.46875, 0.475), (0.46875, 0.415), (0.46875, 0.475), (0.46875, 0.435), (0.46875, 0.475), (0.46875, 0.435), (0.46875, 0.475), (0.46875, 0.435), (0.46875, 0.475), (0.46875, 0.435), (0.46875, 0.435), (0.46875, 0.435), (0.46875, 0.475), (0.46875, 0.475), (0.46875, 0.475), (0.46875, 0.435), (0.46875, 0.435), (0.46875, 0.435), (0.46875, 0.475), (0.46875, 0.475), (0.46875, 0.475), (0.46875, 0.435), (0.46875, 0.435), (0.46875, 0.435), (0.46875, 0.475), (0.46875, 0.475), (0.46875, 0.435), (0.46875, 0.475), (0.46875, 0.435), (0.46875, 0.475), (0.46875, 0.435), (0.46875, 0.475), (0.46875, 0.435), (0.46875, 0.475), (0.46875, 0.435), (0.46875, 0.475), (0.46875, 0.435), (0.46875, 0.475), (0.46875, 0.455), (0.46875, 0.435), (0.46875, 0.435), (0.46875, 0.435), (0.46875, 0.455), (0.46875, 0.475), (0.46875, 0.475), (0.46875, 0.455), (0.46875, 0.475), (0.46875, 0.475), (0.46875, 0.435), (0.46875, 0.435), (0.46875, 0.435), (0.46875, 0.475), (0.46875, 0.455), (0.46875, 0.455), (0.46875, 0.475), (0.46875, 0.475), (0.46875, 0.455), (0.46875, 0.475), (0.46875, 0.455), (0.46875, 0.475), (0.46875, 0.455), (0.46875, 0.475), (0.46875, 0.455), (0.46875, 0.435), (0.46875, 0.455), (0.46875, 0.435), (0.46875, 0.455), (0.46875, 0.435), (0.46875, 0.435), (0.46875, 0.455), (0.46875, 0.455), (0.46875, 0.455), (0.46875, 0.435), (0.46875, 0.435), (0.46875, 0.475), (0.46875, 0.455), (0.46875, 0.475), (0.46875, 0.455), (0.46875, 0.475), (0.46875, 0.455), (0.46875, 0.430556), (0.46875, 0.430556), (0.46875, 0.430556), (0.46875, 0.430556), (0.46875, 0.430556), (0.46875, 0.430556), (0.46875, 0.430556), (0.46875, 0.430556), (0.46875, 0.430556), (0.46875, 0.430556), (0.46875, 0.430556), (0.46875, 0.430556), (0.46875, 0.430556), (0.46875, 0.430556), (0.46875, 0.430556), (0.46875, 0.430556), (0.46875, 0.430556), (0.46875, 0.430556), (0.46875, 0.430556), (0.46875, 0.430556), (0.46875, 0.430556), (0.46875, 0.430556), (0.46875, 0.430556), (0.46875, 0.430556), (0.46875, 0.430556), (0.46875, 0.430556), (0.46875, 0.430556), (0.46875, 0.430556), (0.46875, 0.430556), (0.46875, 0.430556), (0.46875, 0.430556), (0.46875, 0.430556), (0.46875, 0.430556), (0.46875, 0.430556), (0.46875, 0.430556), (0.46875, 0.430556), (0.46875, 0.430556), (0.46875, 0.430556), (0.46875, 0.430556), (0.46875, 0.430556), (0.46875, 0.430556), (0.46875, 0.430556), (0.46875, 0.430556), (0.46875, 0.430556), (0.46875, 0.430556), (0.46875, 0.430556), (0.46875, 0.430556), (0.46875, 0.430556), (0.46875, 0.430556), (0.46875, 0.430556), (0.46875, 0.430556), (0.46875, 0.430556), (0.46875, 0.430556), (0.46875, 0.430556), (0.46875, 0.475), (0.46875, 0.475), (0.46875, 0.475), (0.46875, 0.475), (0.46875, 0.475), (0.46875, 0.475), (0.46875, 0.475), (0.46875, 0.475), (0.46875, 0.475), (0.46875, 0.475), (0.46875, 0.475), (0.46875, 0.475), (0.46875, 0.475), (0.46875, 0.475), (0.46875, 0.475), (0.46875, 0.475), (0.46875, 0.475), (0.46875, 0.475), (0.46875, 0.475), (0.46875, 0.475), (0.46875, 0.475), (0.46875, 0.475), (0.46875, 0.475), (0.46875, 0.475), (0.46875, 0.475), (0.46875, 0.430556), (0.46875, 0.430556), (0.46875, 0.430556), (0.46875, 0.475), (0.46875, 0.475), (0.46875, 0.475), (0.46875, 0.430556), (0.46875, 0.430556), (0.46875, 0.430556), (0.46875, 0.475), (0.46875, 0.475), (0.46875, 0.475), (0.46875, 0.430556), (0.46875, 0.430556), (0.46875, 0.430556), (0.46875, 0.475), (0.46875, 0.475), (0.46875, 0.475), (0.46875, 0.430556), (0.46875, 0.475), (0.46875, 0.430556), (0.46875, 0.475), (0.46875, 0.430556), (0.46875, 0.475), (0.46875, 0.430556), (0.46875, 0.475), (0.46875, 0.430556), (0.46875, 0.475), (0.46875, 0.430556), (0.46875, 0.430556), (0.46875, 0.475), (0.46875, 0.430556), (0.46875, 0.475), (0.46875, 0.430556), (0.46875, 0.475), (0.46875, 0.430556), (0.46875, 0.475), (0.46875, 0.430556), (0.46875, 0.475), (0.46875, 0.430556), (0.46875, 0.475), (0.46875, 0.475), (0.46875, 0.430556), (0.46875, 0.430556), (0.46875, 0.430556), (0.46875, 0.475), (0.46875, 0.475), (0.46875, 0.430556), (0.46875, 0.475), (0.46875, 0.430556), (0.46875, 0.475), (0.46875, 0.430556), (0.46875, 0.475), (0.46875, 0.475), (0.46875, 0.430556), (0.46875, 0.475), (0.46875, 0.430556), (0.46875, 0.475), (0.46875, 0.430556), (0.46875, 0.475), (0.46875, 0.275), (0.46875, 0.375), (0.46875, 0.275), (0.46875, 0.475), (0.46875, 0.275), (0.46875, 0.375), (0.46875, 0.275), (0.46875, 0.275), (0.46875, 0.275), (0.46875, 0.375), (0.46875, 0.375), (0.46875, 0.275), (0.46875, 0.375), (0.46875, 0.275), (0.46875, 0.375), (0.46875, 0.275), (0.46875, 0.475), (0.46875, 0.475), (0.46875, 0.275), (0.46875, 0.275), (0.46875, 0.275), (0.46875, 0.475), (0.46875, 0.475), (0.46875, 0.375), (0.46875, 0.475), (0.46875, 0.375), (0.46875, 0.475), (0.46875, 0.375), (0.46875, 0.475), (0.46875, 0.185), (0.46875, 0.185), (0.46875, 0.185), (0.46875, 0.185), (0.46875, 0.185), (0.46875, 0.185), (0.46875, 0.185), (0.46875, 0.185), (0.46875, 0.185), (0.46875, 0.185), (0.46875, 0.185), (0.46875, 0.185), (0.46875, 0.185), (0.46875, 0.185), (0.46875, 0.185), (0.46875, 0.185), (0.46875, 0.185), (0.46875, 0.185), (0.46875, 0.185), (0.46875, 0.185), (0.46875, 0.185), (0.46875, 0.185), (0.46875, 0.185), (0.46875, 0.185), (0.46875, 0.185), (0.46875, 0.185), (0.46875, 0.185), (0.09375, 0.225), (0.09375, 0.025), (0.09375, 0.025), (0.09375, 0.025), (0.09375, 0.225), (0.09375, 0.225), (0.09375, 0.225), (0.09375, 0.025), (0.09375, 0.025), (0.09375, 0.025), (0.09375, 0.225), (0.09375, 0.225), (0.09375, 0.225), (0.09375, 0.025), (0.09375, 0.025), (0.09375, 0.025), (0.09375, 0.225), (0.09375, 0.225)] (interpolation = "faceVarying")
        uniform token subdivisionScheme = "none"
        rel material:binding = </Vehicle/Materials/colormap>
    }
    def Scope "Materials" {
        def Material "colormap" {
            token outputs:surface.connect = </Vehicle/Materials/colormap/surface.outputs:surface>
            def Shader "surface" {
                uniform token info:id = "UsdPreviewSurface"
                float inputs:roughness = 0.7
                float inputs:metallic = 0
                color3f inputs:diffuseColor.connect = </Vehicle/Materials/colormap/texture.outputs:rgb>
                token outputs:surface
            }
            def Shader "stReader" {
                uniform token info:id = "UsdPrimvarReader_float2"
                token inputs:varname = "st"
                float2 outputs:result
            }
            def Shader "texture" {
                uniform token info:id = "UsdUVTexture"
                asset inputs:file = @kenney-water-colormap.png@
                float2 inputs:st.connect = </Vehicle/Materials/colormap/stReader.outputs:result>
                token inputs:wrapS = "repeat"
                token inputs:wrapT = "repeat"
                float3 outputs:rgb
            }
        }
    }
}
