#usda 1.0
(
    defaultPrim = "Vehicle"
    metersPerUnit = 1
    upAxis = "Y"
)
def Xform "Vehicle" {
    def Mesh "mesh_colormap" {
        int[] faceVertexCounts = [3, 3, 3, 3, 3, 3, 3, 3, 3, 3, 3, 3, 3, 3, 3, 3, 3, 3, 3, 3, 3, 3, 3, 3, 3, 3, 3, 3, 3, 3, 3, 3, 3, 3, 3, 3, 3, 3, 3, 3, 3, 3, 3, 3, 3, 3, 3, 3, 3, 3, 3, 3, 3, 3, 3, 3, 3, 3, 3, 3, 3, 3, 3, 3, 3, 3, 3, 3, 3, 3, 3, 3, 3, 3, 3, 3, 3, 3, 3, 3, 3, 3, 3, 3, 3, 3, 3, 3, 3, 3, 3, 3, 3, 3, 3, 3, 3, 3, 3, 3, 3, 3, 3, 3, 3, 3, 3, 3, 3, 3, 3, 3, 3, 3, 3, 3, 3, 3, 3, 3, 3, 3, 3, 3, 3, 3, 3, 3, 3, 3, 3, 3, 3, 3, 3, 3, 3, 3, 3, 3, 3, 3, 3, 3, 3, 3, 3, 3, 3, 3, 3, 3, 3, 3, 3, 3, 3, 3, 3, 3, 3, 3, 3, 3, 3, 3, 3, 3, 3, 3, 3, 3, 3, 3, 3, 3, 3, 3, 3, 3, 3, 3, 3, 3, 3, 3, 3, 3, 3, 3, 3, 3, 3, 3, 3, 3, 3, 3, 3, 3, 3, 3, 3, 3, 3, 3, 3, 3, 3, 3, 3, 3, 3, 3, 3, 3, 3, 3, 3, 3, 3, 3, 3, 3, 3, 3, 3, 3, 3, 3, 3, 3, 3, 3, 3, 3, 3, 3, 3, 3, 3, 3, 3, 3, 3, 3, 3, 3, 3, 3, 3, 3, 3, 3, 3, 3, 3, 3, 3, 3, 3, 3, 3, 3, 3, 3, 3, 3, 3, 3, 3, 3, 3, 3, 3, 3, 3, 3, 3, 3, 3, 3, 3, 3, 3, 3, 3, 3, 3, 3, 3, 3]
        int[] faceVertexIndices = [2, 1, 0, 1, 2, 3, 6, 5, 4, 5, 6, 7, 10, 9, 8, 9, 10, 11, 1, 13, 12, 13, 1, 3, 16, 15, 14, 15, 16, 17, 15, 17, 18, 15, 18, 19, 19, 18, 20, 19, 20, 21, 21, 20, 22, 21, 22, 23, 21, 23, 24, 24, 23, 25, 7, 26, 5, 26, 7, 27, 27, 7, 28, 29, 10, 8, 10, 29, 30, 10, 30, 31, 31, 30, 32, 31, 32, 33, 33, 32, 34, 33, 34, 2, 2, 0, 33, 9, 36, 35, 36, 9, 11, 12, 25, 23, 25, 12, 13, 35, 17, 16, 17, 35, 36, 39, 38, 37, 38, 39, 40, 37, 42, 41, 42, 37, 38, 40, 44, 43, 44, 40, 39, 47, 46, 45, 46, 47, 48, 45, 50, 49, 50, 45, 46, 48, 52, 51, 52, 48, 47, 53, 6, 4, 6, 53, 54, 4, 31, 53, 31, 4, 11, 31, 11, 10, 11, 4, 36, 36, 4, 17, 17, 4, 5, 26, 17, 5, 17, 26, 18, 26, 20, 18, 20, 26, 27, 27, 22, 20, 22, 27, 28, 7, 22, 28, 22, 7, 23, 6, 23, 7, 6, 12, 23, 6, 1, 12, 54, 1, 6, 54, 0, 1, 0, 54, 33, 31, 54, 53, 54, 31, 33, 34, 3, 2, 34, 55, 3, 3, 55, 13, 13, 55, 25, 25, 55, 24, 55, 34, 56, 34, 57, 56, 57, 34, 32, 58, 24, 55, 24, 58, 21, 58, 19, 21, 19, 58, 59, 32, 60, 57, 60, 32, 30, 29, 60, 30, 59, 15, 19, 15, 59, 61, 60, 29, 62, 8, 62, 29, 62, 8, 9, 63, 15, 61, 62, 9, 63, 15, 63, 14, 63, 9, 35, 63, 16, 14, 63, 35, 16, 66, 65, 64, 65, 66, 67, 67, 66, 68, 67, 68, 69, 67, 69, 70, 63, 65, 62, 65, 60, 62, 65, 57, 60, 65, 63, 64, 57, 65, 67, 67, 56, 57, 63, 66, 64, 66, 63, 61, 59, 66, 61, 66, 59, 68, 58, 68, 59, 68, 58, 69, 67, 55, 56, 55, 69, 58, 55, 67, 70, 69, 55, 70, 2, 1, 0, 1, 2, 3, 6, 5, 4, 5, 6, 7, 10, 9, 8, 9, 10, 11, 1, 13, 12, 13, 1, 3, 16, 15, 14, 15, 16, 17, 15, 17, 18, 15, 18, 19, 19, 18, 20, 19, 20, 21, 21, 20, 22, 21, 22, 23, 21, 23, 24, 24, 23, 25, 7, 26, 5, 26, 7, 27, 27, 7, 28, 29, 10, 8, 10, 29, 30, 10, 30, 31, 31, 30, 32, 31, 32, 33, 33, 32, 34, 33, 34, 2, 2, 0, 33, 9, 36, 35, 36, 9, 11, 12, 25, 23, 25, 12, 13, 35, 17, 16, 17, 35, 36, 39, 38, 37, 38, 39, 40, 37, 42, 41, 42, 37, 38, 40, 44, 43, 44, 40, 39, 47, 46, 45, 46, 47, 48, 45, 50, 49, 50, 45, 46, 48, 52, 51, 52, 48, 47, 53, 6, 4, 6, 53, 54, 4, 31, 53, 31, 4, 11, 31, 11, 10, 11, 4, 36, 36, 4, 17, 17, 4, 5, 26, 17, 5, 17, 26, 18, 26, 20, 18, 20, 26, 27, 27, 22, 20, 22, 27, 28, 7, 22, 28, 22, 7, 23, 6, 23, 7, 6, 12, 23, 6, 1, 12, 54, 1, 6, 54, 0, 1, 0, 54, 33, 31, 54, 53, 54, 31, 33, 34, 3, 2, 34, 55, 3, 3, 55, 13, 13, 55, 25, 25, 55, 24, 55, 34, 56, 34, 57, 56, 57, 34, 32, 58, 24, 55, 24, 58, 21, 58, 19, 21, 19, 58, 59, 32, 60, 57, 60, 32, 30, 29, 60, 30, 59, 15, 19, 15, 59, 61, 60, 29, 62, 8, 62, 29, 62, 8, 9, 63, 15, 61, 62, 9, 63, 15, 63, 14, 63, 9, 35, 63, 16, 14, 63, 35, 16, 66, 65, 64, 65, 66, 67, 67, 66, 68, 67, 68, 69, 67, 69, 70, 63, 65, 62, 65, 60, 62, 65, 57, 60, 65, 63, 64, 57, 65, 67, 67, 56, 57, 63, 66, 64, 66, 63, 61, 59, 66, 61, 66, 59, 68, 58, 68, 59, 68, 58, 69, 67, 55, 56, 55, 69, 58, 55, 67, 70, 69, 55, 70, 73, 72, 71, 72, 73, 74, 74, 73, 75, 74, 75, 76, 73, 78, 77, 78, 73, 71, 75, 77, 79, 77, 75, 73, 81, 74, 80, 74, 81, 72, 84, 83, 82, 83, 84, 85, 71, 84, 82, 84, 71, 72, 86, 75, 79, 75, 86, 76, 80, 76, 86, 76, 80, 74, 71, 83, 78, 83, 71, 82, 85, 72, 81, 72, 85, 84, 81, 83, 85, 83, 81, 78, 78, 81, 80, 78, 80, 77, 77, 80, 86, 77, 86, 79, 89, 88, 87, 88, 89, 90, 92, 89, 91, 89, 92, 90, 95, 94, 93, 94, 95, 96, 96, 97, 94, 97, 96, 98, 98, 96, 87, 98, 87, 88, 100, 93, 99, 93, 100, 95, 95, 100, 101, 95, 101, 102, 102, 101, 92, 102, 92, 91, 98, 101, 100, 101, 98, 88, 102, 96, 95, 96, 102, 87, 91, 87, 102, 87, 91, 89, 88, 92, 101, 92, 88, 90, 97, 100, 99, 100, 97, 98, 97, 93, 94, 93, 97, 99]
        point3f[] points = [(-0.474, 0.64, -0.946073), (-0.474, 0.56, -0.706073), (-0.714, 0.64, -0.946073), (-0.714, 0.56, -0.706073), (0.474, 0.24, 0.562067), (0.474, 0.4, 0.562067), (-0.474, 0.24, 0.562067), (-0.474, 0.4, 0.562067), (0.714, 0.64, -0.946073), (0.714, 0.56, -0.706073), (0.474, 0.64, -0.946073), (0.474, 0.56, -0.706073), (-0.474, 0.56, 0.322067), (-0.714, 0.56, 0.322067), (0.714, 0.64, 0.624562), (0.3906, 0.64, 1.20343), (0.714, 0.64, 0.562067), (0.474, 0.64, 0.562067), (0.213681, 0.64, 1.02802), (5.76085e-13, 0.64, 1.42607), (4.76462e-13, 0.64, 1.14982), (-0.3906, 0.64, 1.20343), (-0.213681, 0.64, 1.02802), (-0.474, 0.64, 0.562067), (-0.714, 0.64, 0.624562), (-0.714, 0.64, 0.562067), (0.213681, 0.4, 1.02802), (4.76462e-13, 0.4, 1.14982), (-0.213681, 0.4, 1.02802), (0.714, 0.64, -1.18607), (0.474, 0.64, -1.42607), (0.474, 0.64, -1.18607), (-0.474, 0.64, -1.42607), (-0.474, 0.64, -1.18607), (-0.714, 0.64, -1.18607), (0.714, 0.56, 0.322067), (0.474, 0.56, 0.322067), (0.474, 0.4, -0.842073), (-0.474, 0.4, -0.842073), (0.474, 0.4, -1.18607), (-0.474, 0.4, -1.18607), (0.474, 0.24, -0.842073), (-0.474, 0.24, -0.842073), (-0.474, 0.24, -1.18607), (0.474, 0.24, -1.18607), (0.474, 0.4, 0.0259267), (-0.474, 0.4, 0.0259267), (0.474, 0.4, -0.318073), (-0.474, 0.4, -0.318073), (0.474, 0.24, 0.0259267), (-0.474, 0.24, 0.0259267), (-0.474, 0.24, -0.318073), (0.474, 0.24, -0.318073), (0.474, 0.24, -1.18607), (-0.474, 0.24, -1.18607), (-0.714, 0.32, 0.624562), (-0.714, 0.32, -1.18607), (-0.474, 0.32, -1.42607), (-0.3906, 0.32, 1.20343), (5.76085e-13, 0.32, 1.42607), (0.474, 0.32, -1.42607), (0.3906, 0.32, 1.20343), (0.714, 0.32, -1.18607), (0.714, 0.32, 0.624562), (0.544, -6.76792e-17, 0.381686), (0.544, 0, -1.13037), (0.2976, 0, 0.822729), (-0.544, 0, -1.13037), (3.5879e-13, 0, 0.992361), (-0.2976, 0, 0.822729), (-0.544, 0, 0.381686), (-1.148, 0.395147, -0.495391), (-1.148, 0.395147, -0.335392), (-1.20456, 0.338579, -0.566591), (-1.20456, 0.338579, -0.264191), (-1.37427, 0.168873, -0.566591), (-1.37427, 0.168873, -0.264191), (-1.09143, 0.225442, -0.566591), (-1.03486, 0.28201, -0.495391), (-1.26113, 0.0557359, -0.566591), (-1.09143, 0.225442, -0.264191), (-1.03486, 0.28201, -0.335392), (-0.582309, 0.847696, -0.495391), (-0.525741, 0.791127, -0.495391), (-0.582309, 0.847696, -0.335392), (-0.525741, 0.791127, -0.335392), (-1.26113, 0.0557359, -0.264191), (1.148, 0.395147, -0.495391), (1.148, 0.395147, -0.335392), (0.582309, 0.847696, -0.495391), (0.582309, 0.847696, -0.335392), (0.525741, 0.791127, -0.495391), (0.525741, 0.791127, -0.335392), (1.26113, 0.0557359, -0.566591), (1.37427, 0.168873, -0.566591), (1.09143, 0.225442, -0.566591), (1.20456, 0.338579, -0.566591), (1.37427, 0.168873, -0.264191), (1.20456, 0.338579, -0.264191), (1.26113, 0.0557359, -0.264191), (1.09143, 0.225442, -0.264191), (1.03486, 0.28201, -0.335392), (1.03486, 0.28201, -0.495391)]
        normal3f[] normals = [(0, 0.948683, 0.316228), (0, 0.987088, 0.160182), (0, 0.948683, 0.316228), (0, 0.987088, 0.160182), (0, 0.948683, 0.316228), (0, 0.987088, 0.160182), (0, 0, -1), (0, 0, -1), (0, 0, -1), (0, 0, -1), (0, 0, -1), (0, 0, -1), (0, 0.948683, 0.316228), (0, 0.987088, 0.160182), (0, 0.948683, 0.316228), (0, 0.987088, 0.160182), (0, 0.948683, 0.316228), (0, 0.987088, 0.160182), (0, 0.987088, 0.160182), (0, 0.987088, -0.160182), (0, 0.987088, -0.160182), (0, 0.987088, -0.160182), (0, 0.987088, 0.160182), (0, 0.987088, 0.160182), (0, 1, 0), (0, 1, 0), (0, 1, 0), (0, 1, 0), (0, 1, 0), (0, 1, 0), (0, 1, 0), (0, 1, 0), (0, 1, 0), (0, 1, 0), (0, 1, 0), (0, 1, 0), (0, 1, 0), (0, 1, 0), (0, 1, 0), (0, 1, 0), (0, 1, 0), (0, 1, 0), (0, 1, 0), (0, 1, 0), (0, 1, 0), (0, 1, 0), (0, 1, 0), (0, 1, 0), (0, 1, 0), (0, 1, 0), (0, 1, 0), (0, 1, 0), (0, 1, 0), (0, 1, 0), (0, 1, 0), (0, 1, 0), (0, 1, 0), (0, 1, 0), (0, 1, 0), (0, 1, 0), (0, 1, 0), (0, 1, 0), (0, 1, 0), (0, 1, 0), (0, 1, 0), (0, 1, 0), (0, 1, 0), (0, 1, 0), (0, 1, 0), (0, 1, 0), (0, 1, 0), (0, 1, 0), (0, 1, 0), (0, 1, 0), (0, 1, 0), (0, 1, 0), (0, 1, 0), (0, 1, 0), (0, 1, 0), (0, 1, 0), (0, 1, 0), (0, 1, 0), (0, 1, 0), (0, 1, 0), (0, 1, 0), (0, 1, 0), (0, 1, 0), (0, 0.987088, 0.160182), (0, 0.987088, -0.160182), (0, 0.987088, -0.160182), (0, 0.987088, -0.160182), (0, 0.987088, 0.160182), (0, 0.987088, 0.160182), (0, 0.987088, -0.160182), (0, 0.948683, -0.316228), (0, 0.948683, -0.316228), (0, 0.948683, -0.316228), (0, 0.987088, -0.160182), (0, 0.987088, -0.160182), (0, 0.987088, -0.160182), (0, 0.948683, -0.316228), (0, 0.948683, -0.316228), (0, 0.948683, -0.316228), (0, 0.987088, -0.160182), (0, 0.987088, -0.160182), (0, 1, 0), (0, 1, 0), (0, 1, 0), (0, 1, 0), (0, 1, 0), (0, 1, 0), (0, 0, 1), (0, 0, 1), (0, 0, 1), (0, 0, 1), (0, 0, 1), (0, 0, 1), (0, 0, -1), (0, 0, -1), (0, 0, -1), (0, 0, -1), (0, 0, -1), (0, 0, -1), (0, 1, 0), (0, 1, 0), (0, 1, 0), (0, 1, 0), (0, 1, 0), (0, 1, 0), (0, 0, 1), (0, 0, 1), (0, 0, 1), (0, 0, 1), (0, 0, 1), (0, 0, 1), (0, 0, -1), (0, 0, -1), (0, 0, -1), (0, 0, -1), (0, 0, -1), (0, 0, -1), (0, 1, 0), (0, 1, 0), (0, 1, 0), (0, 1, 0), (0, 1, 0), (0, 1, 0), (-1, 0, 0), (-1, 0, 0), (-1, 0, 0), (-1, 0, 0), (-1, 0, 0), (-1, 0, 0), (-1, 0, 0), (-1, 0, 0), (-1, 0, 0), (-1, 0, 0), (-1, 0, 0), (-1, 0, 0), (-1, 0, 0), (-1, 0, 0), (-0.959818, 0, -0.280623), (-0.959818, 0, -0.280623), (-1, 0, 0), (-0.985895, 0, -0.167366), (-0.710137, 0, -0.704063), (-0.959818, 0, -0.280623), (-0.985895, 0, -0.167366), (-0.959818, 0, -0.280623), (-0.710137, 0, -0.704063), (-0.710137, 0, -0.704063), (-0.710137, 0, -0.704063), (0, 0, -1), (-0.710137, 0, -0.704063), (0, 0, -1), (-0.710137, 0, -0.704063), (0, 0, -1), (0, 0, -1), (0.710137, 0, -0.704063), (0, 0, -1), (0.710137, 0, -0.704063), (0, 0, -1), (0.710137, 0, -0.704063), (0.985895, 0, -0.167366), (0.710137, 0, -0.704063), (0.710137, 0, -0.704063), (0.710137, 0, -0.704063), (0.985895, 0, -0.167366), (0.959818, 0, -0.280623), (1, 0, 0), (0.959818, 0, -0.280623), (0.985895, 0, -0.167366), (1, 0, 0), (1, 0, 0), (0.959818, 0, -0.280623), (1, 0, 0), (1, 0, 0), (1, 0, 0), (1, 0, 0), (1, 0, 0), (1, 0, 0), (1, 0, 0), (1, 0, 0), (1, 0, 0), (1, 0, 0), (1, 0, 0), (1, 0, 0), (0, 0, 1), (0, 0, 1), (0, 0, 1), (0, 0, 1), (0, 0, 1), (0, 0, 1), (-0.923879, 0, -0.382683), (-1, 0, 0), (-1, 0, 0), (-0.923879, 0, -0.382683), (-0.967729, 0, 0.251993), (-1, 0, 0), (-1, 0, 0), (-0.967729, 0, 0.251993), (-1, 0, 0), (-1, 0, 0), (-0.967729, 0, 0.251993), (-1, 0, 0), (-1, 0, 0), (-0.967729, 0, 0.251993), (-0.967729, 0, 0.251993), (-0.967729, 0, 0.251993), (-0.923879, 0, -0.382683), (-0.923879, 0, -0.382683), (-0.923879, 0, -0.382683), (-0.382683, 0, -0.923879), (-0.923879, 0, -0.382683), (-0.382683, 0, -0.923879), (-0.923879, 0, -0.382683), (-0.382683, 0, -0.923879), (-0.710137, 0, 0.704063), (-0.967729, 0, 0.251993), (-0.967729, 0, 0.251993), (-0.967729, 0, 0.251993), (-0.710137, 0, 0.704063), (-0.710137, 0, 0.704063), (-0.710137, 0, 0.704063), (0, 0, 1), (-0.710137, 0, 0.704063), (0, 0, 1), (-0.710137, 0, 0.704063), (0, 0, 1), (-0.382683, 0, -0.923879), (0.382683, 0, -0.923879), (-0.382683, 0, -0.923879), (0.382683, 0, -0.923879), (-0.382683, 0, -0.923879), (0.382683, 0, -0.923879), (0.923879, 0, -0.382683), (0.382683, 0, -0.923879), (0.382683, 0, -0.923879), (0, 0, 1), (0.710137, 0, 0.704063), (0, 0, 1), (0.710137, 0, 0.704063), (0, 0, 1), (0.710137, 0, 0.704063), (0.382683, 0, -0.923879), (0.923879, 0, -0.382683), (0.923879, 0, -0.382683), (1, 0, 0), (0.923879, 0, -0.382683), (0.923879, 0, -0.382683), (0.923879, 0, -0.382683), (1, 0, 0), (1, 0, 0), (0.967729, 0, 0.251993), (0.710137, 0, 0.704063), (0.710137, 0, 0.704063), (0.923879, 0, -0.382683), (1, 0, 0), (0.967729, 0, 0.251993), (0.710137, 0, 0.704063), (0.967729, 0, 0.251993), (0.967729, 0, 0.251993), (0.967729, 0, 0.251993), (1, 0, 0), (1, 0, 0), (0.967729, 0, 0.251993), (1, 0, 0), (0.967729, 0, 0.251993), (0.967729, 0, 0.251993), (1, 0, 0), (1, 0, 0), (0, -1, 0), (0, -1, 0), (0, -1, 0), (0, -1, 0), (0, -1, 0), (0, -1, 0), (0, -1, 0), (0, -1, 0), (0, -1, 0), (0, -1, 0), (0, -1, 0), (0, -1, 0), (0, -1, 0), (0, -1, 0), (0, -1, 0), (0.762264, -0.596204, 0.251982), (0.61201, -0.63769, -0.467755), (0.809415, -0.487102, -0.327992), (0.61201, -0.63769, -0.467755), (0.236386, -0.631051, -0.738848), (0.809415, -0.487102, -0.327992), (0.61201, -0.63769, -0.467755), (-0.236386, -0.631051, -0.738848), (0.236386, -0.631051, -0.738848), (0.61201, -0.63769, -0.467755), (0.762264, -0.596204, 0.251982), (0.82533, -0.546434, 0.142265), (-0.236386, -0.631051, -0.738848), (0.61201, -0.63769, -0.467755), (-0.61201, -0.63769, -0.467755), (-0.61201, -0.63769, -0.467755), (-0.809415, -0.487102, -0.327992), (-0.236386, -0.631051, -0.738848), (0.762264, -0.596204, 0.251982), (0.547313, -0.701711, 0.456124), (0.82533, -0.546434, 0.142265), (0.547313, -0.701711, 0.456124), (0.762264, -0.596204, 0.251982), (0.452526, -0.734001, 0.506421), (0, -0.804681, 0.593707), (0.547313, -0.701711, 0.456124), (0.452526, -0.734001, 0.506421), (0.547313, -0.701711, 0.456124), (0, -0.804681, 0.593707), (0, -0.804681, 0.593707), (-0.452526, -0.734001, 0.506421), (0, -0.804681, 0.593707), (0, -0.804681, 0.593707), (0, -0.804681, 0.593707), (-0.452526, -0.734001, 0.506421), (-0.547313, -0.701711, 0.456124), (-0.61201, -0.63769, -0.467755), (-0.762264, -0.596204, 0.251982), (-0.809415, -0.487102, -0.327992), (-0.762264, -0.596204, 0.251982), (-0.547313, -0.701711, 0.456124), (-0.452526, -0.734001, 0.506421), (-0.762264, -0.596204, 0.251982), (-0.61201, -0.63769, -0.467755), (-0.82533, -0.546434, 0.142265), (-0.547313, -0.701711, 0.456124), (-0.762264, -0.596204, 0.251982), (-0.82533, -0.546434, 0.142265), (0, 0.948683, 0.316228), (0, 0.987088, 0.160182), (0, 0.948683, 0.316228), (0, 0.987088, 0.160182), (0, 0.948683, 0.316228), (0, 0.987088, 0.160182), (0, 0, -1), (0, 0, -1), (0, 0, -1), (0, 0, -1), (0, 0, -1), (0, 0, -1), (0, 0.948683, 0.316228), (0, 0.987088, 0.160182), (0, 0.948683, 0.316228), (0, 0.987088, 0.160182), (0, 0.948683, 0.316228), (0, 0.987088, 0.160182), (0, 0.987088, 0.160182), (0, 0.987088, -0.160182), (0, 0.987088, -0.160182), (0, 0.987088, -0.160182), (0, 0.987088, 0.160182), (0, 0.987088, 0.160182), (0, 1, 0), (0, 1, 0), (0, 1, 0), (0, 1, 0), (0, 1, 0), (0, 1, 0), (0, 1, 0), (0, 1, 0), (0, 1, 0), (0, 1, 0), (0, 1, 0), (0, 1, 0), (0, 1, 0), (0, 1, 0), (0, 1, 0), (0, 1, 0), (0, 1, 0), (0, 1, 0), (0, 1, 0), (0, 1, 0), (0, 1, 0), (0, 1, 0), (0, 1, 0), (0, 1, 0), (0, 1, 0), (0, 1, 0), (0, 1, 0), (0, 1, 0), (0, 1, 0), (0, 1, 0), (0, 1, 0), (0, 1, 0), (0, 1, 0), (0, 1, 0), (0, 1, 0), (0, 1, 0), (0, 1, 0), (0, 1, 0), (0, 1, 0), (0, 1, 0), (0, 1, 0), (0, 1, 0), (0, 1, 0), (0, 1, 0), (0, 1, 0), (0, 1, 0), (0, 1, 0), (0, 1, 0), (0, 1, 0), (0, 1, 0), (0, 1, 0), (0, 1, 0), (0, 1, 0), (0, 1, 0), (0, 1, 0), (0, 1, 0), (0, 1, 0), (0, 1, 0), (0, 1, 0), (0, 1, 0), (0, 1, 0), (0, 1, 0), (0, 1, 0), (0, 0.987088, 0.160182), (0, 0.987088, -0.160182), (0, 0.987088, -0.160182), (0, 0.987088, -0.160182), (0, 0.987088, 0.160182), (0, 0.987088, 0.160182), (0, 0.987088, -0.160182), (0, 0.948683, -0.316228), (0, 0.948683, -0.316228), (0, 0.948683, -0.316228), (0, 0.987088, -0.160182), (0, 0.987088, -0.160182), (0, 0.987088, -0.160182), (0, 0.948683, -0.316228), (0, 0.948683, -0.316228), (0, 0.948683, -0.316228), (0, 0.987088, -0.160182), (0, 0.987088, -0.160182), (0, 1, 0), (0, 1, 0), (0, 1, 0), (0, 1, 0), (0, 1, 0), (0, 1, 0), (0, 0, 1), (0, 0, 1), (0, 0, 1), (0, 0, 1), (0, 0, 1), (0, 0, 1), (0, 0, -1), (0, 0, -1), (0, 0, -1), (0, 0, -1), (0, 0, -1), (0, 0, -1), (0, 1, 0), (0, 1, 0), (0, 1, 0), (0, 1, 0), (0, 1, 0), (0, 1, 0), (0, 0, 1), (0, 0, 1), (0, 0, 1), (0, 0, 1), (0, 0, 1), (0, 0, 1), (0, 0, -1), (0, 0, -1), (0, 0, -1), (0, 0, -1), (0, 0, -1), (0, 0, -1), (0, 1, 0), (0, 1, 0), (0, 1, 0), (0, 1, 0), (0, 1, 0), (0, 1, 0), (-1, 0, 0), (-1, 0, 0), (-1, 0, 0), (-1, 0, 0), (-1, 0, 0), (-1, 0, 0), (-1, 0, 0), (-1, 0, 0), (-1, 0, 0), (-1, 0, 0), (-1, 0, 0), (-1, 0, 0), (-1, 0, 0), (-1, 0, 0), (-0.959818, 0, -0.280623), (-0.959818, 0, -0.280623), (-1, 0, 0), (-0.985895, 0, -0.167366), (-0.710137, 0, -0.704063), (-0.959818, 0, -0.280623), (-0.985895, 0, -0.167366), (-0.959818, 0, -0.280623), (-0.710137, 0, -0.704063), (-0.710137, 0, -0.704063), (-0.710137, 0, -0.704063), (0, 0, -1), (-0.710137, 0, -0.704063), (0, 0, -1), (-0.710137, 0, -0.704063), (0, 0, -1), (0, 0, -1), (0.710137, 0, -0.704063), (0, 0, -1), (0.710137, 0, -0.704063), (0, 0, -1), (0.710137, 0, -0.704063), (0.985895, 0, -0.167366), (0.710137, 0, -0.704063), (0.710137, 0, -0.704063), (0.710137, 0, -0.704063), (0.985895, 0, -0.167366), (0.959818, 0, -0.280623), (1, 0, 0), (0.959818, 0, -0.280623), (0.985895, 0, -0.167366), (1, 0, 0), (1, 0, 0), (0.959818, 0, -0.280623), (1, 0, 0), (1, 0, 0), (1, 0, 0), (1, 0, 0), (1, 0, 0), (1, 0, 0), (1, 0, 0), (1, 0, 0), (1, 0, 0), (1, 0, 0), (1, 0, 0), (1, 0, 0), (0, 0, 1), (0, 0, 1), (0, 0, 1), (0, 0, 1), (0, 0, 1), (0, 0, 1), (-0.923879, 0, -0.382683), (-1, 0, 0), (-1, 0, 0), (-0.923879, 0, -0.382683), (-0.967729, 0, 0.251993), (-1, 0, 0), (-1, 0, 0), (-0.967729, 0, 0.251993), (-1, 0, 0), (-1, 0, 0), (-0.967729, 0, 0.251993), (-1, 0, 0), (-1, 0, 0), (-0.967729, 0, 0.251993), (-0.967729, 0, 0.251993), (-0.967729, 0, 0.251993), (-0.923879, 0, -0.382683), (-0.923879, 0, -0.382683), (-0.923879, 0, -0.382683), (-0.382683, 0, -0.923879), (-0.923879, 0, -0.382683), (-0.382683, 0, -0.923879), (-0.923879, 0, -0.382683), (-0.382683, 0, -0.923879), (-0.710137, 0, 0.704063), (-0.967729, 0, 0.251993), (-0.967729, 0, 0.251993), (-0.967729, 0, 0.251993), (-0.710137, 0, 0.704063), (-0.710137, 0, 0.704063), (-0.710137, 0, 0.704063), (0, 0, 1), (-0.710137, 0, 0.704063), (0, 0, 1), (-0.710137, 0, 0.704063), (0, 0, 1), (-0.382683, 0, -0.923879), (0.382683, 0, -0.923879), (-0.382683, 0, -0.923879), (0.382683, 0, -0.923879), (-0.382683, 0, -0.923879), (0.382683, 0, -0.923879), (0.923879, 0, -0.382683), (0.382683, 0, -0.923879), (0.382683, 0, -0.923879), (0, 0, 1), (0.710137, 0, 0.704063), (0, 0, 1), (0.710137, 0, 0.704063), (0, 0, 1), (0.710137, 0, 0.704063), (0.382683, 0, -0.923879), (0.923879, 0, -0.382683), (0.923879, 0, -0.382683), (1, 0, 0), (0.923879, 0, -0.382683), (0.923879, 0, -0.382683), (0.923879, 0, -0.382683), (1, 0, 0), (1, 0, 0), (0.967729, 0, 0.251993), (0.710137, 0, 0.704063), (0.710137, 0, 0.704063), (0.923879, 0, -0.382683), (1, 0, 0), (0.967729, 0, 0.251993), (0.710137, 0, 0.704063), (0.967729, 0, 0.251993), (0.967729, 0, 0.251993), (0.967729, 0, 0.251993), (1, 0, 0), (1, 0, 0), (0.967729, 0, 0.251993), (1, 0, 0), (0.967729, 0, 0.251993), (0.967729, 0, 0.251993), (1, 0, 0), (1, 0, 0), (0, -1, 0), (0, -1, 0), (0, -1, 0), (0, -1, 0), (0, -1, 0), (0, -1, 0), (0, -1, 0), (0, -1, 0), (0, -1, 0), (0, -1, 0), (0, -1, 0), (0, -1, 0), (0, -1, 0), (0, -1, 0), (0, -1, 0), (0.762264, -0.596204, 0.251982), (0.61201, -0.63769, -0.467755), (0.809415, -0.487102, -0.327992), (0.61201, -0.63769, -0.467755), (0.236386, -0.631051, -0.738848), (0.809415, -0.487102, -0.327992), (0.61201, -0.63769, -0.467755), (-0.236386, -0.631051, -0.738848), (0.236386, -0.631051, -0.738848), (0.61201, -0.63769, -0.467755), (0.762264, -0.596204, 0.251982), (0.82533, -0.546434, 0.142265), (-0.236386, -0.631051, -0.738848), (0.61201, -0.63769, -0.467755), (-0.61201, -0.63769, -0.467755), (-0.61201, -0.63769, -0.467755), (-0.809415, -0.487102, -0.327992), (-0.236386, -0.631051, -0.738848), (0.762264, -0.596204, 0.251982), (0.547313, -0.701711, 0.456124), (0.82533, -0.546434, 0.142265), (0.547313, -0.701711, 0.456124), (0.762264, -0.596204, 0.251982), (0.452526, -0.734001, 0.506421), (0, -0.804681, 0.593707), (0.547313, -0.701711, 0.456124), (0.452526, -0.734001, 0.506421), (0.547313, -0.701711, 0.456124), (0, -0.804681, 0.593707), (0, -0.804681, 0.593707), (-0.452526, -0.734001, 0.506421), (0, -0.804681, 0.593707), (0, -0.804681, 0.593707), (0, -0.804681, 0.593707), (-0.452526, -0.734001, 0.506421), (-0.547313, -0.701711, 0.456124), (-0.61201, -0.63769, -0.467755), (-0.762264, -0.596204, 0.251982), (-0.809415, -0.487102, -0.327992), (-0.762264, -0.596204, 0.251982), (-0.547313, -0.701711, 0.456124), (-0.452526, -0.734001, 0.506421), (-0.762264, -0.596204, 0.251982), (-0.61201, -0.63769, -0.467755), (-0.82533, -0.546434, 0.142265), (-0.547313, -0.701711, 0.456124), (-0.762264, -0.596204, 0.251982), (-0.82533, -0.546434, 0.142265), (-0.707107, 0.707107, 0), (-0.674643, 0.738144, 0), (-0.674643, 0.738144, 0), (-0.674643, 0.738144, 0), (-0.707107, 0.707107, 0), (-0.707107, 0.707107, 0), (-0.707107, 0.707107, 0), (-0.707107, 0.707107, 0), (-0.707107, 0.707107, 0), (-0.707107, 0.707107, 0), (-0.707107, 0.707107, 0), (-0.707107, 0.707107, 0), (0.251497, 0.251497, -0.934611), (0.251497, 0.251497, -0.934611), (0.251497, 0.251497, -0.934611), (0.251497, 0.251497, -0.934611), (0.251497, 0.251497, -0.934611), (0.260654, 0.260654, -0.92958), (0, 0, -1), (0.251497, 0.251497, -0.934611), (0, 0, -1), (0.251497, 0.251497, -0.934611), (0, 0, -1), (0.251497, 0.251497, -0.934611), (0.251497, 0.251497, 0.934611), (0.251497, 0.251497, 0.934611), (0.251497, 0.251497, 0.934611), (0.251497, 0.251497, 0.934611), (0.251497, 0.251497, 0.934611), (0.260654, 0.260654, 0.92958), (0.707107, 0.707107, 0), (0.707107, 0.707107, 0), (0.707107, 0.707107, 0), (0.707107, 0.707107, 0), (0.707107, 0.707107, 0), (0.707107, 0.707107, 0), (-0.674643, 0.738144, 0), (-0.624695, 0.780869, 0), (-0.624695, 0.780869, 0), (-0.624695, 0.780869, 0), (-0.674643, 0.738144, 0), (-0.674643, 0.738144, 0), (-0.707107, -0.707107, 0), (-0.707107, -0.707107, 0), (-0.707107, -0.707107, 0), (-0.707107, -0.707107, 0), (-0.707107, -0.707107, 0), (-0.707107, -0.707107, 0), (0.251497, 0.251497, 0.934611), (0, 0, 1), (0, 0, 1), (0, 0, 1), (0.251497, 0.251497, 0.934611), (0.251497, 0.251497, 0.934611), (0.260654, 0.260654, -0.92958), (0, 0, -1), (0.251497, 0.251497, -0.934611), (0, 0, -1), (0.260654, 0.260654, -0.92958), (0, 0, -1), (0, 0, 1), (0.260654, 0.260654, 0.92958), (0.251497, 0.251497, 0.934611), (0.260654, 0.260654, 0.92958), (0, 0, 1), (0, 0, 1), (0.707107, -0.707107, 0), (0.707107, -0.707107, 0), (0.707107, -0.707107, 0), (0.707107, -0.707107, 0), (0.707107, -0.707107, 0), (0.707107, -0.707107, 0), (0.707107, -0.707107, 0), (0.707107, -0.707107, 0), (0.707107, -0.707107, 0), (0.707107, -0.707107, 0), (0.707107, -0.707107, 0), (0.707107, -0.707107, 0), (0.707107, -0.707107, 0), (0.707107, -0.707107, 0), (0.707107, -0.707107, 0), (0.707107, -0.707107, 0), (0.707107, -0.707107, 0), (0.707107, -0.707107, 0), (0.624695, 0.780869, 0), (0.674643, 0.738144, 0), (0.674643, 0.738144, 0), (0.674643, 0.738144, 0), (0.624695, 0.780869, 0), (0.624695, 0.780869, 0), (-0.707107, 0.707107, 0), (-0.707107, 0.707107, 0), (-0.707107, 0.707107, 0), (-0.707107, 0.707107, 0), (-0.707107, 0.707107, 0), (-0.707107, 0.707107, 0), (-0.251497, 0.251497, -0.934611), (0, 0, -1), (0, 0, -1), (0, 0, -1), (-0.251497, 0.251497, -0.934611), (-0.251497, 0.251497, -0.934611), (0.707107, 0.707107, 0), (0.707107, 0.707107, 0), (0.707107, 0.707107, 0), (0.707107, 0.707107, 0), (0.707107, 0.707107, 0), (0.707107, 0.707107, 0), (0.707107, 0.707107, 0), (0.707107, 0.707107, 0), (0.674643, 0.738144, 0), (0.707107, 0.707107, 0), (0.674643, 0.738144, 0), (0.674643, 0.738144, 0), (-0.707107, -0.707107, 0), (-0.707107, -0.707107, 0), (-0.707107, -0.707107, 0), (-0.707107, -0.707107, 0), (-0.707107, -0.707107, 0), (-0.707107, -0.707107, 0), (-0.707107, -0.707107, 0), (-0.707107, -0.707107, 0), (-0.707107, -0.707107, 0), (-0.707107, -0.707107, 0), (-0.707107, -0.707107, 0), (-0.707107, -0.707107, 0), (-0.707107, -0.707107, 0), (-0.707107, -0.707107, 0), (-0.707107, -0.707107, 0), (-0.707107, -0.707107, 0), (-0.707107, -0.707107, 0), (-0.707107, -0.707107, 0), (-0.251497, 0.251497, 0.934611), (-0.251497, 0.251497, 0.934611), (-0.251497, 0.251497, 0.934611), (-0.251497, 0.251497, 0.934611), (-0.251497, 0.251497, 0.934611), (-0.260654, 0.260654, 0.92958), (-0.251497, 0.251497, -0.934611), (-0.251497, 0.251497, -0.934611), (-0.251497, 0.251497, -0.934611), (-0.251497, 0.251497, -0.934611), (-0.251497, 0.251497, -0.934611), (-0.260654, 0.260654, -0.92958), (0, 0, -1), (-0.260654, 0.260654, -0.92958), (-0.251497, 0.251497, -0.934611), (-0.260654, 0.260654, -0.92958), (0, 0, -1), (0, 0, -1), (-0.260654, 0.260654, 0.92958), (0, 0, 1), (-0.251497, 0.251497, 0.934611), (0, 0, 1), (-0.260654, 0.260654, 0.92958), (0, 0, 1), (0, 0, 1), (-0.251497, 0.251497, 0.934611), (0, 0, 1), (-0.251497, 0.251497, 0.934611), (0, 0, 1), (-0.251497, 0.251497, 0.934611), (0.707107, -0.707107, 0), (0.707107, -0.707107, 0), (0.707107, -0.707107, 0), (0.707107, -0.707107, 0), (0.707107, -0.707107, 0), (0.707107, -0.707107, 0)] (interpolation = "faceVarying")
        texCoord2f[] primvars:st = [(0.84375, 0.225), (0.84375, 0.2), (0.84375, 0.225), (0.84375, 0.2), (0.84375, 0.225), (0.84375, 0.2), (0.84375, 0.1), (0.84375, 0.15), (0.84375, 0.1), (0.84375, 0.15), (0.84375, 0.1), (0.84375, 0.15), (0.84375, 0.225), (0.84375, 0.2), (0.84375, 0.225), (0.84375, 0.2), (0.84375, 0.225), (0.84375, 0.2), (0.84375, 0.2), (0.84375, 0.2), (0.84375, 0.2), (0.84375, 0.2), (0.84375, 0.2), (0.84375, 0.2), (0.84375, 0.225), (0.84375, 0.225), (0.84375, 0.225), (0.84375, 0.225), (0.84375, 0.225), (0.84375, 0.225), (0.84375, 0.225), (0.84375, 0.225), (0.84375, 0.225), (0.84375, 0.225), (0.84375, 0.225), (0.84375, 0.225), (0.84375, 0.225), (0.84375, 0.225), (0.84375, 0.225), (0.84375, 0.225), (0.84375, 0.225), (0.84375, 0.225), (0.84375, 0.225), (0.84375, 0.225), (0.84375, 0.225), (0.84375, 0.225), (0.84375, 0.225), (0.84375, 0.225), (0.84375, 0.225), (0.84375, 0.225), (0.84375, 0.225), (0.84375, 0.225), (0.84375, 0.225), (0.84375, 0.225), (0.84375, 0.15), (0.84375, 0.15), (0.84375, 0.15), (0.84375, 0.15), (0.84375, 0.15), (0.84375, 0.15), (0.84375, 0.15), (0.84375, 0.15), (0.84375, 0.15), (0.84375, 0.225), (0.84375, 0.225), (0.84375, 0.225), (0.84375, 0.225), (0.84375, 0.225), (0.84375, 0.225), (0.84375, 0.225), (0.84375, 0.225), (0.84375, 0.225), (0.84375, 0.225), (0.84375, 0.225), (0.84375, 0.225), (0.84375, 0.225), (0.84375, 0.225), (0.84375, 0.225), (0.84375, 0.225), (0.84375, 0.225), (0.84375, 0.225), (0.84375, 0.225), (0.84375, 0.225), (0.84375, 0.225), (0.84375, 0.225), (0.84375, 0.225), (0.84375, 0.225), (0.84375, 0.2), (0.84375, 0.2), (0.84375, 0.2), (0.84375, 0.2), (0.84375, 0.2), (0.84375, 0.2), (0.84375, 0.2), (0.84375, 0.225), (0.84375, 0.225), (0.84375, 0.225), (0.84375, 0.2), (0.84375, 0.2), (0.84375, 0.2), (0.84375, 0.225), (0.84375, 0.225), (0.84375, 0.225), (0.84375, 0.2), (0.84375, 0.2), (0.84375, 0.225), (0.84375, 0.225), (0.84375, 0.225), (0.84375, 0.225), (0.84375, 0.225), (0.84375, 0.225), (0.84375, 0.225), (0.84375, 0.125), (0.84375, 0.125), (0.84375, 0.125), (0.84375, 0.225), (0.84375, 0.225), (0.84375, 0.225), (0.84375, 0.125), (0.84375, 0.125), (0.84375, 0.125), (0.84375, 0.225), (0.84375, 0.225), (0.84375, 0.225), (0.84375, 0.225), (0.84375, 0.225), (0.84375, 0.225), (0.84375, 0.225), (0.84375, 0.225), (0.84375, 0.225), (0.84375, 0.125), (0.84375, 0.125), (0.84375, 0.125), (0.84375, 0.225), (0.84375, 0.225), (0.84375, 0.225), (0.84375, 0.125), (0.84375, 0.125), (0.84375, 0.125), (0.84375, 0.225), (0.84375, 0.225), (0.71875, 0.1), (0.71875, 0.1), (0.71875, 0.1), (0.71875, 0.1), (0.71875, 0.1), (0.71875, 0.1), (0.71875, 0.1), (0.71875, 0.225), (0.71875, 0.1), (0.71875, 0.225), (0.71875, 0.1), (0.71875, 0.2), (0.71875, 0.225), (0.71875, 0.2), (0.71875, 0.225), (0.71875, 0.2), (0.71875, 0.1), (0.71875, 0.2), (0.71875, 0.2), (0.71875, 0.1), (0.71875, 0.225), (0.71875, 0.225), (0.71875, 0.1), (0.71875, 0.15), (0.71875, 0.15), (0.71875, 0.225), (0.71875, 0.15), (0.71875, 0.225), (0.71875, 0.15), (0.71875, 0.225), (0.71875, 0.15), (0.71875, 0.225), (0.71875, 0.225), (0.71875, 0.225), (0.71875, 0.15), (0.71875, 0.15), (0.71875, 0.15), (0.71875, 0.225), (0.71875, 0.225), (0.71875, 0.225), (0.71875, 0.15), (0.71875, 0.15), (0.71875, 0.15), (0.71875, 0.225), (0.71875, 0.15), (0.71875, 0.225), (0.71875, 0.15), (0.71875, 0.225), (0.71875, 0.1), (0.71875, 0.225), (0.71875, 0.15), (0.71875, 0.1), (0.71875, 0.2), (0.71875, 0.225), (0.71875, 0.1), (0.71875, 0.2), (0.71875, 0.2), (0.71875, 0.1), (0.71875, 0.2), (0.71875, 0.1), (0.71875, 0.1), (0.71875, 0.225), (0.71875, 0.2), (0.71875, 0.225), (0.71875, 0.1), (0.71875, 0.225), (0.71875, 0.225), (0.71875, 0.1), (0.71875, 0.1), (0.71875, 0.1), (0.71875, 0.225), (0.71875, 0.225), (0.71875, 0.225), (0.71875, 0.2), (0.71875, 0.225), (0.71875, 0.225), (0.71875, 0.125), (0.71875, 0.2), (0.71875, 0.2), (0.71875, 0.125), (0.71875, 0.2), (0.71875, 0.2), (0.71875, 0.125), (0.71875, 0.225), (0.71875, 0.225), (0.71875, 0.125), (0.71875, 0.225), (0.71875, 0.125), (0.71875, 0.225), (0.71875, 0.125), (0.71875, 0.225), (0.71875, 0.125), (0.71875, 0.125), (0.71875, 0.125), (0.71875, 0.225), (0.71875, 0.225), (0.71875, 0.125), (0.71875, 0.225), (0.71875, 0.125), (0.71875, 0.225), (0.71875, 0.125), (0.71875, 0.225), (0.71875, 0.125), (0.71875, 0.225), (0.71875, 0.225), (0.71875, 0.225), (0.71875, 0.125), (0.71875, 0.125), (0.71875, 0.225), (0.71875, 0.125), (0.71875, 0.125), (0.71875, 0.125), (0.71875, 0.225), (0.71875, 0.225), (0.71875, 0.225), (0.71875, 0.125), (0.71875, 0.225), (0.71875, 0.125), (0.71875, 0.225), (0.71875, 0.225), (0.71875, 0.225), (0.71875, 0.125), (0.71875, 0.125), (0.71875, 0.125), (0.71875, 0.225), (0.71875, 0.125), (0.71875, 0.225), (0.71875, 0.125), (0.71875, 0.225), (0.71875, 0.125), (0.71875, 0.225), (0.71875, 0.2), (0.71875, 0.125), (0.71875, 0.225), (0.71875, 0.125), (0.71875, 0.125), (0.71875, 0.2), (0.71875, 0.125), (0.71875, 0.225), (0.71875, 0.125), (0.71875, 0.225), (0.71875, 0.125), (0.71875, 0.2), (0.71875, 0.2), (0.71875, 0.125), (0.71875, 0.225), (0.71875, 0.225), (0.71875, 0.125), (0.71875, 0.2), (0.71875, 0.225), (0.71875, 0.025), (0.71875, 0.025), (0.71875, 0.025), (0.71875, 0.025), (0.71875, 0.025), (0.71875, 0.025), (0.71875, 0.025), (0.71875, 0.025), (0.71875, 0.025), (0.71875, 0.025), (0.71875, 0.025), (0.71875, 0.025), (0.71875, 0.025), (0.71875, 0.025), (0.71875, 0.025), (0.71875, 0.125), (0.71875, 0.025), (0.71875, 0.125), (0.71875, 0.025), (0.71875, 0.125), (0.71875, 0.125), (0.71875, 0.025), (0.71875, 0.125), (0.71875, 0.125), (0.71875, 0.025), (0.71875, 0.125), (0.71875, 0.025), (0.71875, 0.125), (0.71875, 0.025), (0.71875, 0.025), (0.71875, 0.025), (0.71875, 0.125), (0.71875, 0.125), (0.71875, 0.125), (0.71875, 0.025), (0.71875, 0.025), (0.71875, 0.025), (0.71875, 0.125), (0.71875, 0.125), (0.71875, 0.125), (0.71875, 0.025), (0.71875, 0.125), (0.71875, 0.025), (0.71875, 0.125), (0.71875, 0.025), (0.71875, 0.125), (0.71875, 0.025), (0.71875, 0.125), (0.71875, 0.025), (0.71875, 0.125), (0.71875, 0.025), (0.71875, 0.025), (0.71875, 0.125), (0.71875, 0.125), (0.71875, 0.125), (0.71875, 0.025), (0.71875, 0.125), (0.71875, 0.125), (0.71875, 0.025), (0.71875, 0.025), (0.71875, 0.025), (0.71875, 0.125), (0.71875, 0.025), (0.84375, 0.225), (0.84375, 0.2), (0.84375, 0.225), (0.84375, 0.2), (0.84375, 0.225), (0.84375, 0.2), (0.84375, 0.1), (0.84375, 0.15), (0.84375, 0.1), (0.84375, 0.15), (0.84375, 0.1), (0.84375, 0.15), (0.84375, 0.225), (0.84375, 0.2), (0.84375, 0.225), (0.84375, 0.2), (0.84375, 0.225), (0.84375, 0.2), (0.84375, 0.2), (0.84375, 0.2), (0.84375, 0.2), (0.84375, 0.2), (0.84375, 0.2), (0.84375, 0.2), (0.84375, 0.225), (0.84375, 0.225), (0.84375, 0.225), (0.84375, 0.225), (0.84375, 0.225), (0.84375, 0.225), (0.84375, 0.225), (0.84375, 0.225), (0.84375, 0.225), (0.84375, 0.225), (0.84375, 0.225), (0.84375, 0.225), (0.84375, 0.225), (0.84375, 0.225), (0.84375, 0.225), (0.84375, 0.225), (0.84375, 0.225), (0.84375, 0.225), (0.84375, 0.225), (0.84375, 0.225), (0.84375, 0.225), (0.84375, 0.225), (0.84375, 0.225), (0.84375, 0.225), (0.84375, 0.225), (0.84375, 0.225), (0.84375, 0.225), (0.84375, 0.225), (0.84375, 0.225), (0.84375, 0.225), (0.84375, 0.15), (0.84375, 0.15), (0.84375, 0.15), (0.84375, 0.15), (0.84375, 0.15), (0.84375, 0.15), (0.84375, 0.15), (0.84375, 0.15), (0.84375, 0.15), (0.84375, 0.225), (0.84375, 0.225), (0.84375, 0.225), (0.84375, 0.225), (0.84375, 0.225), (0.84375, 0.225), (0.84375, 0.225), (0.84375, 0.225), (0.84375, 0.225), (0.84375, 0.225), (0.84375, 0.225), (0.84375, 0.225), (0.84375, 0.225), (0.84375, 0.225), (0.84375, 0.225), (0.84375, 0.225), (0.84375, 0.225), (0.84375, 0.225), (0.84375, 0.225), (0.84375, 0.225), (0.84375, 0.225), (0.84375, 0.225), (0.84375, 0.225), (0.84375, 0.225), (0.84375, 0.2), (0.84375, 0.2), (0.84375, 0.2), (0.84375, 0.2), (0.84375, 0.2), (0.84375, 0.2), (0.84375, 0.2), (0.84375, 0.225), (0.84375, 0.225), (0.84375, 0.225), (0.84375, 0.2), (0.84375, 0.2), (0.84375, 0.2), (0.84375, 0.225), (0.84375, 0.225), (0.84375, 0.225), (0.84375, 0.2), (0.84375, 0.2), (0.84375, 0.225), (0.84375, 0.225), (0.84375, 0.225), (0.84375, 0.225), (0.84375, 0.225), (0.84375, 0.225), (0.84375, 0.225), (0.84375, 0.125), (0.84375, 0.125), (0.84375, 0.125), (0.84375, 0.225), (0.84375, 0.225), (0.84375, 0.225), (0.84375, 0.125), (0.84375, 0.125), (0.84375, 0.125), (0.84375, 0.225), (0.84375, 0.225), (0.84375, 0.225), (0.84375, 0.225), (0.84375, 0.225), (0.84375, 0.225), (0.84375, 0.225), (0.84375, 0.225), (0.84375, 0.225), (0.84375, 0.125), (0.84375, 0.125), (0.84375, 0.125), (0.84375, 0.225), (0.84375, 0.225), (0.84375, 0.225), (0.84375, 0.125), (0.84375, 0.125), (0.84375, 0.125), (0.84375, 0.225), (0.84375, 0.225), (0.71875, 0.1), (0.71875, 0.1), (0.71875, 0.1), (0.71875, 0.1), (0.71875, 0.1), (0.71875, 0.1), (0.71875, 0.1), (0.71875, 0.225), (0.71875, 0.1), (0.71875, 0.225), (0.71875, 0.1), (0.71875, 0.2), (0.71875, 0.225), (0.71875, 0.2), (0.71875, 0.225), (0.71875, 0.2), (0.71875, 0.1), (0.71875, 0.2), (0.71875, 0.2), (0.71875, 0.1), (0.71875, 0.225), (0.71875, 0.225), (0.71875, 0.1), (0.71875, 0.15), (0.71875, 0.15), (0.71875, 0.225), (0.71875, 0.15), (0.71875, 0.225), (0.71875, 0.15), (0.71875, 0.225), (0.71875, 0.15), (0.71875, 0.225), (0.71875, 0.225), (0.71875, 0.225), (0.71875, 0.15), (0.71875, 0.15), (0.71875, 0.15), (0.71875, 0.225), (0.71875, 0.225), (0.71875, 0.225), (0.71875, 0.15), (0.71875, 0.15), (0.71875, 0.15), (0.71875, 0.225), (0.71875, 0.15), (0.71875, 0.225), (0.71875, 0.15), (0.71875, 0.225), (0.71875, 0.1), (0.71875, 0.225), (0.71875, 0.15), (0.71875, 0.1), (0.71875, 0.2), (0.71875, 0.225), (0.71875, 0.1), (0.71875, 0.2), (0.71875, 0.2), (0.71875, 0.1), (0.71875, 0.2), (0.71875, 0.1), (0.71875, 0.1), (0.71875, 0.225), (0.71875, 0.2), (0.71875, 0.225), (0.71875, 0.1), (0.71875, 0.225), (0.71875, 0.225), (0.71875, 0.1), (0.71875, 0.1), (0.71875, 0.1), (0.71875, 0.225), (0.71875, 0.225), (0.71875, 0.225), (0.71875, 0.2), (0.71875, 0.225), (0.71875, 0.225), (0.71875, 0.125), (0.71875, 0.2), (0.71875, 0.2), (0.71875, 0.125), (0.71875, 0.2), (0.71875, 0.2), (0.71875, 0.125), (0.71875, 0.225), (0.71875, 0.225), (0.71875, 0.125), (0.71875, 0.225), (0.71875, 0.125), (0.71875, 0.225), (0.71875, 0.125), (0.71875, 0.225), (0.71875, 0.125), (0.71875, 0.125), (0.71875, 0.125), (0.71875, 0.225), (0.71875, 0.225), (0.71875, 0.125), (0.71875, 0.225), (0.71875, 0.125), (0.71875, 0.225), (0.71875, 0.125), (0.71875, 0.225), (0.71875, 0.125), (0.71875, 0.225), (0.71875, 0.225), (0.71875, 0.225), (0.71875, 0.125), (0.71875, 0.125), (0.71875, 0.225), (0.71875, 0.125), (0.71875, 0.125), (0.71875, 0.125), (0.71875, 0.225), (0.71875, 0.225), (0.71875, 0.225), (0.71875, 0.125), (0.71875, 0.225), (0.71875, 0.125), (0.71875, 0.225), (0.71875, 0.225), (0.71875, 0.225), (0.71875, 0.125), (0.71875, 0.125), (0.71875, 0.125), (0.71875, 0.225), (0.71875, 0.125), (0.71875, 0.225), (0.71875, 0.125), (0.71875, 0.225), (0.71875, 0.125), (0.71875, 0.225), (0.71875, 0.2), (0.71875, 0.125), (0.71875, 0.225), (0.71875, 0.125), (0.71875, 0.125), (0.71875, 0.2), (0.71875, 0.125), (0.71875, 0.225), (0.71875, 0.125), (0.71875, 0.225), (0.71875, 0.125), (0.71875, 0.2), (0.71875, 0.2), (0.71875, 0.125), (0.71875, 0.225), (0.71875, 0.225), (0.71875, 0.125), (0.71875, 0.2), (0.71875, 0.225), (0.71875, 0.025), (0.71875, 0.025), (0.71875, 0.025), (0.71875, 0.025), (0.71875, 0.025), (0.71875, 0.025), (0.71875, 0.025), (0.71875, 0.025), (0.71875, 0.025), (0.71875, 0.025), (0.71875, 0.025), (0.71875, 0.025), (0.71875, 0.025), (0.71875, 0.025), (0.71875, 0.025), (0.71875, 0.125), (0.71875, 0.025), (0.71875, 0.125), (0.71875, 0.025), (0.71875, 0.125), (0.71875, 0.125), (0.71875, 0.025), (0.71875, 0.125), (0.71875, 0.125), (0.71875, 0.025), (0.71875, 0.125), (0.71875, 0.025), (0.71875, 0.125), (0.71875, 0.025), (0.71875, 0.025), (0.71875, 0.025), (0.71875, 0.125), (0.71875, 0.125), (0.71875, 0.125), (0.71875, 0.025), (0.71875, 0.025), (0.71875, 0.025), (0.71875, 0.125), (0.71875, 0.125), (0.71875, 0.125), (0.71875, 0.025), (0.71875, 0.125), (0.71875, 0.025), (0.71875, 0.125), (0.71875, 0.025), (0.71875, 0.125), (0.71875, 0.025), (0.71875, 0.125), (0.71875, 0.025), (0.71875, 0.125), (0.71875, 0.025), (0.71875, 0.025), (0.71875, 0.125), (0.71875, 0.125), (0.71875, 0.125), (0.71875, 0.025), (0.71875, 0.125), (0.71875, 0.125), (0.71875, 0.025), (0.71875, 0.025), (0.71875, 0.025), (0.71875, 0.125), (0.71875, 0.025), (0.84375, 0.0964286), (0.84375, 0.110714), (0.84375, 0.110714), (0.84375, 0.110714), (0.84375, 0.0964286), (0.84375, 0.0964286), (0.84375, 0.0964286), (0.84375, 0.0964286), (0.84375, 0.0535714), (0.84375, 0.0964286), (0.84375, 0.0535714), (0.84375, 0.0535714), (0.84375, 0.0964286), (0.84375, 0.0821429), (0.84375, 0.0678571), (0.84375, 0.0821429), (0.84375, 0.0964286), (0.84375, 0.110714), (0.84375, 0.0535714), (0.84375, 0.0678571), (0.84375, 0.025), (0.84375, 0.0678571), (0.84375, 0.0535714), (0.84375, 0.0964286), (0.84375, 0.0821429), (0.84375, 0.0964286), (0.84375, 0.0678571), (0.84375, 0.0964286), (0.84375, 0.0821429), (0.84375, 0.110714), (0.84375, 0.225), (0.84375, 0.210714), (0.84375, 0.225), (0.84375, 0.210714), (0.84375, 0.225), (0.84375, 0.210714), (0.84375, 0.110714), (0.84375, 0.225), (0.84375, 0.225), (0.84375, 0.225), (0.84375, 0.110714), (0.84375, 0.110714), (0.84375, 0.025), (0.84375, 0.0535714), (0.84375, 0.025), (0.84375, 0.0535714), (0.84375, 0.025), (0.84375, 0.0535714), (0.84375, 0.0678571), (0.84375, 0.0535714), (0.84375, 0.025), (0.84375, 0.0535714), (0.84375, 0.0678571), (0.84375, 0.0964286), (0.84375, 0.110714), (0.84375, 0.210714), (0.84375, 0.0821429), (0.84375, 0.210714), (0.84375, 0.110714), (0.84375, 0.225), (0.84375, 0.210714), (0.84375, 0.110714), (0.84375, 0.0821429), (0.84375, 0.110714), (0.84375, 0.210714), (0.84375, 0.225), (0.84375, 0.0821429), (0.84375, 0.210714), (0.84375, 0.210714), (0.84375, 0.210714), (0.84375, 0.0821429), (0.84375, 0.0821429), (0.84375, 0.0821429), (0.84375, 0.0821429), (0.84375, 0.0678571), (0.84375, 0.0821429), (0.84375, 0.0678571), (0.84375, 0.0678571), (0.84375, 0.0678571), (0.84375, 0.0678571), (0.84375, 0.025), (0.84375, 0.0678571), (0.84375, 0.025), (0.84375, 0.025), (0.84375, 0.225), (0.84375, 0.110714), (0.84375, 0.110714), (0.84375, 0.110714), (0.84375, 0.225), (0.84375, 0.225), (0.84375, 0.210714), (0.84375, 0.225), (0.84375, 0.210714), (0.84375, 0.225), (0.84375, 0.210714), (0.84375, 0.225), (0.84375, 0.0678571), (0.84375, 0.0535714), (0.84375, 0.025), (0.84375, 0.0535714), (0.84375, 0.0678571), (0.84375, 0.0964286), (0.84375, 0.0964286), (0.84375, 0.0535714), (0.84375, 0.0535714), (0.84375, 0.0535714), (0.84375, 0.0964286), (0.84375, 0.0964286), (0.84375, 0.0964286), (0.84375, 0.0964286), (0.84375, 0.110714), (0.84375, 0.0964286), (0.84375, 0.110714), (0.84375, 0.110714), (0.84375, 0.0678571), (0.84375, 0.025), (0.84375, 0.025), (0.84375, 0.025), (0.84375, 0.0678571), (0.84375, 0.0678571), (0.84375, 0.0678571), (0.84375, 0.0678571), (0.84375, 0.0821429), (0.84375, 0.0678571), (0.84375, 0.0821429), (0.84375, 0.0821429), (0.84375, 0.0821429), (0.84375, 0.0821429), (0.84375, 0.210714), (0.84375, 0.0821429), (0.84375, 0.210714), (0.84375, 0.210714), (0.84375, 0.0964286), (0.84375, 0.0821429), (0.84375, 0.0678571), (0.84375, 0.0821429), (0.84375, 0.0964286), (0.84375, 0.110714), (0.84375, 0.0821429), (0.84375, 0.0964286), (0.84375, 0.0678571), (0.84375, 0.0964286), (0.84375, 0.0821429), (0.84375, 0.110714), (0.84375, 0.210714), (0.84375, 0.110714), (0.84375, 0.0821429), (0.84375, 0.110714), (0.84375, 0.210714), (0.84375, 0.225), (0.84375, 0.110714), (0.84375, 0.210714), (0.84375, 0.0821429), (0.84375, 0.210714), (0.84375, 0.110714), (0.84375, 0.225), (0.84375, 0.0535714), (0.84375, 0.0678571), (0.84375, 0.025), (0.84375, 0.0678571), (0.84375, 0.0535714), (0.84375, 0.0964286), (0.84375, 0.0535714), (0.84375, 0.025), (0.84375, 0.0535714), (0.84375, 0.025), (0.84375, 0.0535714), (0.84375, 0.025)] (interpolation = "faceVarying")
        uniform token subdivisionScheme = "none"
        rel material:binding = </Vehicle/Materials/colormap>
    }
    def Scope "Materials" {
        def Material "colormap" {
            token outputs:surface.connect = </Vehicle/Materials/colormap/surface.outputs:surface>
            def Shader "surface" {
                uniform token info:id = "UsdPreviewSurface"
                float inputs:roughness = 0.7
                float inputs:metallic = 0
                color3f inputs:diffuseColor.connect = </Vehicle/Materials/colormap/texture.outputs:rgb>
                token outputs:surface
            }
            def Shader "stReader" {
                uniform token info:id = "UsdPrimvarReader_float2"
                token inputs:varname = "st"
                float2 outputs:result
            }
            def Shader "texture" {
                uniform token info:id = "UsdUVTexture"
                asset inputs:file = @kenney-water-colormap.png@
                float2 inputs:st.connect = </Vehicle/Materials/colormap/stReader.outputs:result>
                token inputs:wrapS = "repeat"
                token inputs:wrapT = "repeat"
                float3 outputs:rgb
            }
        }
    }
}
