#usda 1.0
(
    defaultPrim = "Vehicle"
    metersPerUnit = 1
    upAxis = "Y"
)
def Xform "Vehicle" {
    def Mesh "mesh_colormap" {
        int[] faceVertexCounts = [3, 3, 3, 3, 3, 3, 3, 3, 3, 3, 3, 3, 3, 3, 3, 3, 3, 3, 3, 3, 3, 3, 3, 3, 3, 3, 3, 3, 3, 3, 3, 3, 3, 3, 3, 3, 3, 3, 3, 3, 3, 3, 3, 3, 3, 3, 3, 3, 3, 3, 3, 3, 3, 3, 3, 3, 3, 3, 3, 3, 3, 3, 3, 3, 3, 3, 3, 3, 3, 3, 3, 3, 3, 3, 3, 3, 3, 3, 3, 3, 3, 3, 3, 3, 3, 3, 3, 3, 3, 3, 3, 3, 3, 3, 3, 3, 3, 3, 3, 3, 3, 3, 3, 3, 3, 3, 3, 3, 3, 3, 3, 3, 3, 3, 3, 3, 3, 3, 3, 3, 3, 3, 3, 3, 3, 3, 3, 3, 3, 3, 3, 3, 3, 3, 3, 3, 3, 3, 3, 3, 3, 3, 3, 3, 3, 3, 3, 3, 3, 3, 3, 3, 3, 3, 3, 3, 3, 3, 3, 3, 3, 3, 3, 3, 3, 3, 3, 3, 3, 3, 3, 3, 3, 3, 3, 3, 3, 3, 3, 3, 3, 3, 3, 3, 3, 3, 3, 3, 3, 3, 3, 3, 3, 3, 3, 3, 3, 3, 3, 3, 3, 3, 3, 3, 3, 3, 3, 3, 3, 3, 3, 3, 3, 3, 3, 3, 3, 3, 3, 3, 3, 3, 3, 3, 3, 3, 3, 3, 3, 3, 3, 3, 3, 3, 3, 3, 3, 3, 3, 3, 3, 3, 3, 3, 3, 3, 3, 3, 3, 3, 3, 3, 3, 3, 3, 3, 3, 3, 3, 3, 3, 3, 3, 3, 3, 3, 3, 3, 3, 3, 3, 3]
        int[] faceVertexIndices = [2, 1, 0, 1, 2, 3, 1, 5, 4, 5, 1, 6, 1, 7, 6, 7, 1, 3, 9, 5, 8, 5, 9, 4, 10, 9, 8, 9, 10, 11, 12, 1, 4, 1, 12, 0, 13, 9, 11, 9, 13, 14, 14, 4, 9, 4, 14, 12, 3, 15, 7, 15, 3, 16, 17, 11, 10, 11, 17, 18, 19, 11, 18, 11, 19, 13, 20, 3, 2, 3, 20, 16, 17, 16, 18, 16, 17, 15, 16, 19, 18, 19, 16, 20, 19, 14, 13, 14, 19, 20, 14, 20, 12, 12, 20, 0, 0, 20, 2, 23, 22, 21, 22, 23, 24, 27, 26, 25, 26, 27, 28, 29, 22, 24, 22, 29, 30, 30, 32, 31, 32, 30, 29, 35, 34, 33, 34, 35, 36, 25, 38, 37, 38, 25, 26, 38, 35, 37, 35, 38, 36, 41, 40, 39, 40, 41, 42, 40, 44, 43, 44, 40, 42, 43, 28, 27, 28, 43, 44, 40, 31, 39, 31, 40, 30, 30, 40, 43, 30, 43, 22, 22, 43, 35, 33, 22, 35, 22, 33, 21, 35, 43, 37, 37, 43, 27, 37, 27, 25, 36, 23, 34, 23, 36, 24, 24, 36, 38, 24, 38, 29, 29, 38, 42, 41, 29, 42, 29, 41, 32, 42, 38, 44, 44, 38, 26, 44, 26, 28, 45, 8, 5, 8, 45, 46, 7, 47, 6, 47, 7, 48, 46, 10, 8, 10, 46, 49, 47, 5, 6, 5, 47, 45, 15, 48, 7, 48, 15, 50, 47, 52, 51, 52, 47, 48, 47, 53, 45, 53, 47, 51, 46, 54, 49, 54, 46, 55, 45, 55, 46, 55, 45, 53, 49, 17, 10, 17, 49, 56, 48, 57, 52, 57, 48, 50, 56, 15, 17, 15, 56, 50, 50, 56, 58, 50, 58, 57, 54, 56, 49, 56, 54, 58, 61, 60, 59, 60, 61, 62, 64, 62, 63, 62, 64, 60, 64, 66, 65, 66, 64, 63, 62, 66, 63, 66, 62, 61, 59, 64, 65, 64, 59, 60, 69, 68, 67, 68, 69, 70, 72, 70, 71, 70, 72, 68, 72, 74, 73, 74, 72, 71, 70, 74, 71, 74, 70, 69, 67, 72, 73, 72, 67, 68, 55, 58, 54, 58, 55, 57, 57, 55, 53, 57, 53, 51, 57, 51, 52, 77, 76, 75, 76, 77, 78, 80, 77, 79, 77, 80, 78, 77, 81, 79, 81, 77, 75, 75, 82, 81, 82, 75, 76, 76, 80, 82, 80, 76, 78, 2, 1, 0, 1, 2, 3, 1, 5, 4, 5, 1, 6, 1, 7, 6, 7, 1, 3, 9, 5, 8, 5, 9, 4, 10, 9, 8, 9, 10, 11, 12, 1, 4, 1, 12, 0, 13, 9, 11, 9, 13, 14, 14, 4, 9, 4, 14, 12, 3, 15, 7, 15, 3, 16, 17, 11, 10, 11, 17, 18, 19, 11, 18, 11, 19, 13, 20, 3, 2, 3, 20, 16, 17, 16, 18, 16, 17, 15, 16, 19, 18, 19, 16, 20, 19, 14, 13, 14, 19, 20, 14, 20, 12, 12, 20, 0, 0, 20, 2, 23, 22, 21, 22, 23, 24, 27, 26, 25, 26, 27, 28, 29, 22, 24, 22, 29, 30, 30, 32, 31, 32, 30, 29, 35, 34, 33, 34, 35, 36, 25, 38, 37, 38, 25, 26, 38, 35, 37, 35, 38, 36, 41, 40, 39, 40, 41, 42, 40, 44, 43, 44, 40, 42, 43, 28, 27, 28, 43, 44, 40, 31, 39, 31, 40, 30, 30, 40, 43, 30, 43, 22, 22, 43, 35, 33, 22, 35, 22, 33, 21, 35, 43, 37, 37, 43, 27, 37, 27, 25, 36, 23, 34, 23, 36, 24, 24, 36, 38, 24, 38, 29, 29, 38, 42, 41, 29, 42, 29, 41, 32, 42, 38, 44, 44, 38, 26, 44, 26, 28, 45, 8, 5, 8, 45, 46, 7, 47, 6, 47, 7, 48, 46, 10, 8, 10, 46, 49, 47, 5, 6, 5, 47, 45, 15, 48, 7, 48, 15, 50, 47, 52, 51, 52, 47, 48, 47, 53, 45, 53, 47, 51, 46, 54, 49, 54, 46, 55, 45, 55, 46, 55, 45, 53, 49, 17, 10, 17, 49, 56, 48, 57, 52, 57, 48, 50, 56, 15, 17, 15, 56, 50, 50, 56, 58, 50, 58, 57, 54, 56, 49, 56, 54, 58, 61, 60, 59, 60, 61, 62, 64, 62, 63, 62, 64, 60, 64, 66, 65, 66, 64, 63, 62, 66, 63, 66, 62, 61, 59, 64, 65, 64, 59, 60, 69, 68, 67, 68, 69, 70, 72, 70, 71, 70, 72, 68, 72, 74, 73, 74, 72, 71, 70, 74, 71, 74, 70, 69, 67, 72, 73, 72, 67, 68, 55, 58, 54, 58, 55, 57, 57, 55, 53, 57, 53, 51, 57, 51, 52, 77, 76, 75, 76, 77, 78, 80, 77, 79, 77, 80, 78, 77, 81, 79, 81, 77, 75, 75, 82, 81, 82, 75, 76, 76, 80, 82, 80, 76, 78]
        point3f[] points = [(0.178089, 0, 0.502201), (0.296815, 0.2, 1.21265), (0.40698, 0, 0.139072), (0.6783, 0.2, 0.607433), (4.75469e-13, 0.2, 1.37693), (6.85635e-13, 0.6, 1.90613), (0.390547, 0.6, 1.68997), (0.8925, 0.6, 0.893633), (-0.390547, 0.6, 1.68997), (-0.296815, 0.2, 1.21265), (-0.8925, 0.6, 0.893633), (-0.6783, 0.2, 0.607433), (2.22862e-13, 0, 0.600773), (-0.40698, 0, 0.139072), (-0.178089, 0, 0.502201), (0.8925, 0.6, -1.76387), (0.6783, 0.2, -1.66387), (-0.8925, 0.6, -1.76387), (-0.6783, 0.2, -1.66387), (-0.40698, 0, -1.46387), (0.40698, 0, -1.46387), (0.351119, 0.8, -1.70613), (0.351119, 0.973205, -1.80613), (0.351119, 0.9, -1.53293), (0.351119, 1.0732, -1.63293), (0.351119, 1.14641, -1.90613), (0.351119, 1.24641, -1.73293), (-0.348882, 1.14641, -1.90613), (-0.348882, 1.24641, -1.73293), (-0.348882, 1.0732, -1.63293), (-0.348882, 0.973205, -1.80613), (-0.348882, 0.8, -1.70613), (-0.348882, 0.9, -1.53293), (0.551119, 0.8, -1.70613), (0.551119, 0.9, -1.53293), (0.551119, 0.973205, -1.80613), (0.551119, 1.0732, -1.63293), (0.49254, 1.09568, -1.87684), (0.49254, 1.19568, -1.70364), (-0.548882, 0.8, -1.70613), (-0.548882, 0.973205, -1.80613), (-0.548882, 0.9, -1.53293), (-0.548882, 1.0732, -1.63293), (-0.490303, 1.09568, -1.87684), (-0.490303, 1.19568, -1.70364), (6.17185e-13, 0.8, 1.79588), (-0.371019, 0.8, 1.59052), (0.371019, 0.8, 1.59052), (0.847875, 0.8, 0.834008), (-0.847875, 0.8, 0.834008), (0.847875, 0.8, -1.76387), (0.241163, 0.9, 1.10944), (0.551119, 0.9, 0.617707), (4.82234e-13, 0.9, 1.24293), (-0.551119, 0.9, 0.617707), (-0.241163, 0.9, 1.10944), (-0.847875, 0.8, -1.76387), (0.551119, 0.9, -1.76387), (-0.551119, 0.9, -1.76387), (0.647875, 0.8, -0.96493), (0.647875, 0.9, -0.86493), (0.647875, 0.8, -0.46493), (0.647875, 0.9, -0.56493), (0.847875, 0.9, -0.56493), (0.847875, 0.9, -0.86493), (0.847875, 0.8, -0.96493), (0.847875, 0.8, -0.46493), (-0.847875, 0.8, -0.96493), (-0.847875, 0.9, -0.86493), (-0.847875, 0.8, -0.46493), (-0.847875, 0.9, -0.56493), (-0.647875, 0.9, -0.56493), (-0.647875, 0.9, -0.86493), (-0.647875, 0.8, -0.96493), (-0.647875, 0.8, -0.46493), (0.330671, 1.3, -1.1775), (0.330671, 1.3, -0.521916), (-0.330671, 1.3, -1.1775), (-0.330671, 1.3, -0.521916), (-0.551119, 0.9, -1.3775), (-0.551119, 0.9, 0.478084), (0.551119, 0.9, -1.3775), (0.551119, 0.9, 0.478084)]
        normal3f[] normals = [(0.518084, -0.852925, 0.0640928), (0.192022, -0.952574, 0.236073), (0.261964, -0.939502, 0.220704), (0.192022, -0.952574, 0.236073), (0.518084, -0.852925, 0.0640928), (0.39343, -0.905541, 0.158773), (0.532339, -0.697377, 0.479875), (2.16437e-13, -0.797751, 0.602987), (2.16437e-13, -0.797751, 0.602987), (2.16437e-13, -0.797751, 0.602987), (0.532339, -0.697377, 0.479875), (0.4407, -0.728734, 0.524147), (0.532339, -0.697377, 0.479875), (0.754441, -0.597847, 0.270921), (0.4407, -0.728734, 0.524147), (0.754441, -0.597847, 0.270921), (0.532339, -0.697377, 0.479875), (0.81696, -0.55345, 0.162079), (-0.532339, -0.697377, 0.479875), (2.16437e-13, -0.797751, 0.602987), (-0.4407, -0.728734, 0.524147), (2.16437e-13, -0.797751, 0.602987), (-0.532339, -0.697377, 0.479875), (2.16437e-13, -0.797751, 0.602987), (-0.754441, -0.597847, 0.270921), (-0.532339, -0.697377, 0.479875), (-0.4407, -0.728734, 0.524147), (-0.532339, -0.697377, 0.479875), (-0.754441, -0.597847, 0.270921), (-0.81696, -0.55345, 0.162079), (8.9566e-14, -0.968368, 0.249528), (0.192022, -0.952574, 0.236073), (8.9566e-14, -0.968368, 0.249528), (0.192022, -0.952574, 0.236073), (8.9566e-14, -0.968368, 0.249528), (0.261964, -0.939502, 0.220704), (-0.518084, -0.852925, 0.0640928), (-0.192022, -0.952574, 0.236073), (-0.39343, -0.905541, 0.158773), (-0.192022, -0.952574, 0.236073), (-0.518084, -0.852925, 0.0640928), (-0.261964, -0.939502, 0.220704), (-0.261964, -0.939502, 0.220704), (8.9566e-14, -0.968368, 0.249528), (-0.192022, -0.952574, 0.236073), (8.9566e-14, -0.968368, 0.249528), (-0.261964, -0.939502, 0.220704), (8.9566e-14, -0.968368, 0.249528), (0.81696, -0.55345, 0.162079), (0.881559, -0.472075, -3.16428e-13), (0.754441, -0.597847, 0.270921), (0.881559, -0.472075, -3.16428e-13), (0.81696, -0.55345, 0.162079), (0.881559, -0.472075, -3.16428e-13), (-0.881559, -0.472075, 3.16428e-13), (-0.81696, -0.55345, 0.162079), (-0.754441, -0.597847, 0.270921), (-0.81696, -0.55345, 0.162079), (-0.881559, -0.472075, 3.16428e-13), (-0.881559, -0.472075, 3.16428e-13), (-0.593353, -0.804942, 2.12979e-13), (-0.39343, -0.905541, 0.158773), (-0.593353, -0.804942, 2.12979e-13), (-0.39343, -0.905541, 0.158773), (-0.593353, -0.804942, 2.12979e-13), (-0.518084, -0.852925, 0.0640928), (0.593353, -0.804942, -2.12979e-13), (0.39343, -0.905541, 0.158773), (0.518084, -0.852925, 0.0640928), (0.39343, -0.905541, 0.158773), (0.593353, -0.804942, -2.12979e-13), (0.593353, -0.804942, -2.12979e-13), (-3.48225e-13, -0.242536, -0.970143), (-3.48225e-13, -0.242536, -0.970143), (-3.48225e-13, -0.242536, -0.970143), (-3.48225e-13, -0.242536, -0.970143), (-3.48225e-13, -0.242536, -0.970143), (-3.48225e-13, -0.242536, -0.970143), (-2.5381e-13, -0.707107, -0.707107), (-2.5381e-13, -0.707107, -0.707107), (-2.5381e-13, -0.707107, -0.707107), (-2.5381e-13, -0.707107, -0.707107), (-2.5381e-13, -0.707107, -0.707107), (-2.5381e-13, -0.707107, -0.707107), (0, -1, 0), (0, -1, 0), (0, -1, 0), (0, -1, 0), (0, -1, 0), (0, -1, 0), (0, -1, 0), (0, -1, 0), (0, -1, 0), (0, -1, 0), (0, -1, 0), (0, -1, 0), (0, -1, 0), (0, -1, 0), (0, -1, 0), (-1, -6.77626e-21, 5.42101e-20), (-1, -6.77626e-21, 5.42101e-20), (-1, -6.77626e-21, 5.42101e-20), (-1, -6.77626e-21, 5.42101e-20), (-1, -6.77626e-21, 5.42101e-20), (-1, -6.77626e-21, 5.42101e-20), (-0.19509, 0.849385, -0.490393), (0.19509, 0.849385, -0.490393), (0.19509, 0.849385, -0.490393), (0.19509, 0.849385, -0.490393), (-0.19509, 0.849385, -0.490393), (-0.19509, 0.849385, -0.490393), (0, -0.866025, 0.5), (0, -0.866025, 0.5), (0, -0.866025, 0.5), (0, -0.866025, 0.5), (0, -0.866025, 0.5), (0, -0.866025, 0.5), (1, 6.77626e-21, -5.42101e-20), (1, 6.77626e-21, -5.42101e-20), (1, 6.77626e-21, -5.42101e-20), (1, 6.77626e-21, -5.42101e-20), (1, 6.77626e-21, -5.42101e-20), (1, 6.77626e-21, -5.42101e-20), (0.980785, 0.168953, -0.0975452), (1, 6.77626e-21, -5.42101e-20), (1, 6.77626e-21, -5.42101e-20), (1, 6.77626e-21, -5.42101e-20), (0.980785, 0.168953, -0.0975452), (0.980785, 0.168953, -0.0975452), (0.19509, 0.849385, -0.490393), (0.707107, 0.612372, -0.353553), (0.707107, 0.612372, -0.353553), (0.707107, 0.612372, -0.353553), (0.19509, 0.849385, -0.490393), (0.19509, 0.849385, -0.490393), (0.707107, 0.612372, -0.353553), (0.980785, 0.168953, -0.0975452), (0.707107, 0.612372, -0.353553), (0.980785, 0.168953, -0.0975452), (0.707107, 0.612372, -0.353553), (0.980785, 0.168953, -0.0975452), (-1, -6.77626e-21, 5.42101e-20), (-0.980785, 0.168953, -0.0975452), (-1, -6.77626e-21, 5.42101e-20), (-0.980785, 0.168953, -0.0975452), (-1, -6.77626e-21, 5.42101e-20), (-0.980785, 0.168953, -0.0975452), (-0.980785, 0.168953, -0.0975452), (-0.707107, 0.612372, -0.353553), (-0.707107, 0.612372, -0.353553), (-0.707107, 0.612372, -0.353553), (-0.980785, 0.168953, -0.0975452), (-0.980785, 0.168953, -0.0975452), (-0.707107, 0.612372, -0.353553), (-0.19509, 0.849385, -0.490393), (-0.19509, 0.849385, -0.490393), (-0.19509, 0.849385, -0.490393), (-0.707107, 0.612372, -0.353553), (-0.707107, 0.612372, -0.353553), (-5.42101e-20, -0.5, -0.866026), (-5.42101e-20, -0.5, -0.866026), (-5.42101e-20, -0.5, -0.866026), (-5.42101e-20, -0.5, -0.866026), (-5.42101e-20, -0.5, -0.866026), (-5.42101e-20, -0.5, -0.866026), (-5.42101e-20, -0.5, -0.866026), (-5.42101e-20, -0.5, -0.866026), (-5.42101e-20, -0.5, -0.866026), (-5.42101e-20, -0.5, -0.866026), (-5.42101e-20, -0.5, -0.866026), (-5.42101e-20, -0.5, -0.866026), (-5.42101e-20, -0.5, -0.866026), (-5.42101e-20, -0.5, -0.866026), (-5.42101e-20, -0.5, -0.866026), (-5.42101e-20, -0.5, -0.866026), (-5.42101e-20, -0.5, -0.866026), (-5.42101e-20, -0.5, -0.866026), (-5.42101e-20, -0.5, -0.866026), (-5.42101e-20, -0.5, -0.866026), (-5.42101e-20, -0.5, -0.866026), (-5.42101e-20, -0.5, -0.866026), (-5.42101e-20, -0.5, -0.866026), (-5.42101e-20, -0.5, -0.866026), (-5.42101e-20, -0.5, -0.866026), (-5.42101e-20, -0.5, -0.866026), (-5.42101e-20, -0.5, -0.866026), (-5.42101e-20, -0.5, -0.866026), (-5.42101e-20, -0.5, -0.866026), (-5.42101e-20, -0.5, -0.866026), (5.42101e-20, 0.5, 0.866026), (5.42101e-20, 0.5, 0.866026), (5.42101e-20, 0.5, 0.866026), (5.42101e-20, 0.5, 0.866026), (5.42101e-20, 0.5, 0.866026), (5.42101e-20, 0.5, 0.866026), (5.42101e-20, 0.5, 0.866026), (5.42101e-20, 0.5, 0.866026), (5.42101e-20, 0.5, 0.866026), (5.42101e-20, 0.5, 0.866026), (5.42101e-20, 0.5, 0.866026), (5.42101e-20, 0.5, 0.866026), (5.42101e-20, 0.5, 0.866026), (5.42101e-20, 0.5, 0.866026), (5.42101e-20, 0.5, 0.866026), (5.42101e-20, 0.5, 0.866026), (5.42101e-20, 0.5, 0.866026), (5.42101e-20, 0.5, 0.866026), (5.42101e-20, 0.5, 0.866026), (5.42101e-20, 0.5, 0.866026), (5.42101e-20, 0.5, 0.866026), (5.42101e-20, 0.5, 0.866026), (5.42101e-20, 0.5, 0.866026), (5.42101e-20, 0.5, 0.866026), (5.42101e-20, 0.5, 0.866026), (5.42101e-20, 0.5, 0.866026), (5.42101e-20, 0.5, 0.866026), (5.42101e-20, 0.5, 0.866026), (5.42101e-20, 0.5, 0.866026), (5.42101e-20, 0.5, 0.866026), (3.14345e-13, 0.482759, 0.875753), (-0.605134, 0.401033, 0.687739), (3.14345e-13, 0.482759, 0.875753), (-0.605134, 0.401033, 0.687739), (3.14345e-13, 0.482759, 0.875753), (-0.661771, 0.384589, 0.643545), (0.909183, 0.291506, 0.297339), (0.661771, 0.384589, 0.643545), (0.605134, 0.401033, 0.687739), (0.661771, 0.384589, 0.643545), (0.909183, 0.291506, 0.297339), (0.93326, 0.276567, 0.229209), (-0.661771, 0.384589, 0.643545), (-0.909183, 0.291506, 0.297339), (-0.605134, 0.401033, 0.687739), (-0.909183, 0.291506, 0.297339), (-0.661771, 0.384589, 0.643545), (-0.93326, 0.276567, 0.229209), (0.661771, 0.384589, 0.643545), (3.14345e-13, 0.482759, 0.875753), (0.605134, 0.401033, 0.687739), (3.14345e-13, 0.482759, 0.875753), (0.661771, 0.384589, 0.643545), (3.14345e-13, 0.482759, 0.875753), (0.976, 0.21777, -3.50328e-13), (0.93326, 0.276567, 0.229209), (0.909183, 0.291506, 0.297339), (0.93326, 0.276567, 0.229209), (0.976, 0.21777, -3.50328e-13), (0.976, 0.21777, -3.50328e-13), (0.137975, 0.976471, 0.165731), (0.280822, 0.958028, 0.0576383), (0.177293, 0.972005, 0.15419), (0.280822, 0.958028, 0.0576383), (0.137975, 0.976471, 0.165731), (0.259505, 0.961672, 0.0885686), (0.137975, 0.976471, 0.165731), (6.38771e-14, 0.984038, 0.177959), (6.38771e-14, 0.984038, 0.177959), (6.38771e-14, 0.984038, 0.177959), (0.137975, 0.976471, 0.165731), (0.177293, 0.972005, 0.15419), (-0.137975, 0.976471, 0.165731), (-0.280822, 0.958028, 0.0576383), (-0.259505, 0.961672, 0.0885686), (-0.280822, 0.958028, 0.0576383), (-0.137975, 0.976471, 0.165731), (-0.177293, 0.972005, 0.15419), (6.38771e-14, 0.984038, 0.177959), (-0.177293, 0.972005, 0.15419), (-0.137975, 0.976471, 0.165731), (-0.177293, 0.972005, 0.15419), (6.38771e-14, 0.984038, 0.177959), (6.38771e-14, 0.984038, 0.177959), (-0.93326, 0.276567, 0.229209), (-0.976, 0.21777, 3.50328e-13), (-0.909183, 0.291506, 0.297339), (-0.976, 0.21777, 3.50328e-13), (-0.93326, 0.276567, 0.229209), (-0.976, 0.21777, 3.50328e-13), (0.259505, 0.961672, 0.0885686), (0.319334, 0.947642, -1.14622e-13), (0.280822, 0.958028, 0.0576383), (0.319334, 0.947642, -1.14622e-13), (0.259505, 0.961672, 0.0885686), (0.319334, 0.947642, -1.14622e-13), (-3.58942e-13, 0, -1), (-3.58942e-13, 0, -1), (-3.58942e-13, 0, -1), (-3.58942e-13, 0, -1), (-3.58942e-13, 0, -1), (-3.58942e-13, 0, -1), (-3.58942e-13, 0, -1), (-3.58942e-13, 0, -1), (-3.58942e-13, 0, -1), (-3.58942e-13, 0, -1), (-3.58942e-13, 0, -1), (-3.58942e-13, 0, -1), (-0.280822, 0.958028, 0.0576383), (-0.319334, 0.947642, 1.14622e-13), (-0.259505, 0.961672, 0.0885686), (-0.319334, 0.947642, 1.14622e-13), (-0.280822, 0.958028, 0.0576383), (-0.319334, 0.947642, 1.14622e-13), (-1, 0, 0), (-1, 0, 0), (-1, 0, 0), (-1, 0, 0), (-1, 0, 0), (-1, 0, 0), (0, 0.923879, -0.382683), (0, 0.923879, 0.382683), (0, 0.923879, 0.382683), (0, 0.923879, 0.382683), (0, 0.923879, -0.382683), (0, 0.923879, -0.382683), (1, 0, 0), (1, 0, 0), (1, 0, 0), (1, 0, 0), (1, 0, 0), (1, 0, 0), (0, 0.923879, 0.382683), (0, 0.707107, 0.707107), (0, 0.923879, 0.382683), (0, 0.707107, 0.707107), (0, 0.923879, 0.382683), (0, 0.707107, 0.707107), (0, 0.707107, -0.707107), (0, 0.923879, -0.382683), (0, 0.707107, -0.707107), (0, 0.923879, -0.382683), (0, 0.707107, -0.707107), (0, 0.923879, -0.382683), (-1, 0, 0), (-1, 0, 0), (-1, 0, 0), (-1, 0, 0), (-1, 0, 0), (-1, 0, 0), (0, 0.923879, -0.382683), (0, 0.923879, 0.382683), (0, 0.923879, 0.382683), (0, 0.923879, 0.382683), (0, 0.923879, -0.382683), (0, 0.923879, -0.382683), (1, 0, 0), (1, 0, 0), (1, 0, 0), (1, 0, 0), (1, 0, 0), (1, 0, 0), (0, 0.923879, 0.382683), (0, 0.707107, 0.707107), (0, 0.923879, 0.382683), (0, 0.707107, 0.707107), (0, 0.923879, 0.382683), (0, 0.707107, 0.707107), (0, 0.707107, -0.707107), (0, 0.923879, -0.382683), (0, 0.707107, -0.707107), (0, 0.923879, -0.382683), (0, 0.707107, -0.707107), (0, 0.923879, -0.382683), (0, 1, 0), (0, 1, 0), (0, 1, 0), (0, 1, 0), (0, 1, 0), (0, 1, 0), (0, 1, 0), (0, 1, 0), (0, 1, 0), (0, 1, 0), (0, 1, 0), (0, 1, 0), (0, 1, 0), (0, 1, 0), (0, 1, 0), (0, 1, 0), (0, 1, 0), (0, 1, 0), (0, 1, 0), (0, 1, 0), (0, 1, 0), (-0.875802, 0.482671, 0), (-0.875802, 0.482671, 0), (-0.875802, 0.482671, 0), (-0.875802, 0.482671, 0), (-0.875802, 0.482671, 0), (-0.875802, 0.482671, 0), (0, 0.447214, -0.894427), (0, 0.447214, -0.894427), (0, 0.447214, -0.894427), (0, 0.447214, -0.894427), (0, 0.447214, -0.894427), (0, 0.447214, -0.894427), (0.875802, 0.482671, 0), (0.875802, 0.482671, 0), (0.875802, 0.482671, 0), (0.875802, 0.482671, 0), (0.875802, 0.482671, 0), (0.875802, 0.482671, 0), (0, 0.928477, 0.371391), (0, 0.928477, 0.371391), (0, 0.928477, 0.371391), (0, 0.928477, 0.371391), (0, 0.928477, 0.371391), (0, 0.928477, 0.371391), (0.518084, -0.852925, 0.0640928), (0.192022, -0.952574, 0.236073), (0.261964, -0.939502, 0.220704), (0.192022, -0.952574, 0.236073), (0.518084, -0.852925, 0.0640928), (0.39343, -0.905541, 0.158773), (0.532339, -0.697377, 0.479875), (2.16437e-13, -0.797751, 0.602987), (2.16437e-13, -0.797751, 0.602987), (2.16437e-13, -0.797751, 0.602987), (0.532339, -0.697377, 0.479875), (0.4407, -0.728734, 0.524147), (0.532339, -0.697377, 0.479875), (0.754441, -0.597847, 0.270921), (0.4407, -0.728734, 0.524147), (0.754441, -0.597847, 0.270921), (0.532339, -0.697377, 0.479875), (0.81696, -0.55345, 0.162079), (-0.532339, -0.697377, 0.479875), (2.16437e-13, -0.797751, 0.602987), (-0.4407, -0.728734, 0.524147), (2.16437e-13, -0.797751, 0.602987), (-0.532339, -0.697377, 0.479875), (2.16437e-13, -0.797751, 0.602987), (-0.754441, -0.597847, 0.270921), (-0.532339, -0.697377, 0.479875), (-0.4407, -0.728734, 0.524147), (-0.532339, -0.697377, 0.479875), (-0.754441, -0.597847, 0.270921), (-0.81696, -0.55345, 0.162079), (8.9566e-14, -0.968368, 0.249528), (0.192022, -0.952574, 0.236073), (8.9566e-14, -0.968368, 0.249528), (0.192022, -0.952574, 0.236073), (8.9566e-14, -0.968368, 0.249528), (0.261964, -0.939502, 0.220704), (-0.518084, -0.852925, 0.0640928), (-0.192022, -0.952574, 0.236073), (-0.39343, -0.905541, 0.158773), (-0.192022, -0.952574, 0.236073), (-0.518084, -0.852925, 0.0640928), (-0.261964, -0.939502, 0.220704), (-0.261964, -0.939502, 0.220704), (8.9566e-14, -0.968368, 0.249528), (-0.192022, -0.952574, 0.236073), (8.9566e-14, -0.968368, 0.249528), (-0.261964, -0.939502, 0.220704), (8.9566e-14, -0.968368, 0.249528), (0.81696, -0.55345, 0.162079), (0.881559, -0.472075, -3.16428e-13), (0.754441, -0.597847, 0.270921), (0.881559, -0.472075, -3.16428e-13), (0.81696, -0.55345, 0.162079), (0.881559, -0.472075, -3.16428e-13), (-0.881559, -0.472075, 3.16428e-13), (-0.81696, -0.55345, 0.162079), (-0.754441, -0.597847, 0.270921), (-0.81696, -0.55345, 0.162079), (-0.881559, -0.472075, 3.16428e-13), (-0.881559, -0.472075, 3.16428e-13), (-0.593353, -0.804942, 2.12979e-13), (-0.39343, -0.905541, 0.158773), (-0.593353, -0.804942, 2.12979e-13), (-0.39343, -0.905541, 0.158773), (-0.593353, -0.804942, 2.12979e-13), (-0.518084, -0.852925, 0.0640928), (0.593353, -0.804942, -2.12979e-13), (0.39343, -0.905541, 0.158773), (0.518084, -0.852925, 0.0640928), (0.39343, -0.905541, 0.158773), (0.593353, -0.804942, -2.12979e-13), (0.593353, -0.804942, -2.12979e-13), (-3.48225e-13, -0.242536, -0.970143), (-3.48225e-13, -0.242536, -0.970143), (-3.48225e-13, -0.242536, -0.970143), (-3.48225e-13, -0.242536, -0.970143), (-3.48225e-13, -0.242536, -0.970143), (-3.48225e-13, -0.242536, -0.970143), (-2.5381e-13, -0.707107, -0.707107), (-2.5381e-13, -0.707107, -0.707107), (-2.5381e-13, -0.707107, -0.707107), (-2.5381e-13, -0.707107, -0.707107), (-2.5381e-13, -0.707107, -0.707107), (-2.5381e-13, -0.707107, -0.707107), (0, -1, 0), (0, -1, 0), (0, -1, 0), (0, -1, 0), (0, -1, 0), (0, -1, 0), (0, -1, 0), (0, -1, 0), (0, -1, 0), (0, -1, 0), (0, -1, 0), (0, -1, 0), (0, -1, 0), (0, -1, 0), (0, -1, 0), (-1, -6.77626e-21, 5.42101e-20), (-1, -6.77626e-21, 5.42101e-20), (-1, -6.77626e-21, 5.42101e-20), (-1, -6.77626e-21, 5.42101e-20), (-1, -6.77626e-21, 5.42101e-20), (-1, -6.77626e-21, 5.42101e-20), (-0.19509, 0.849385, -0.490393), (0.19509, 0.849385, -0.490393), (0.19509, 0.849385, -0.490393), (0.19509, 0.849385, -0.490393), (-0.19509, 0.849385, -0.490393), (-0.19509, 0.849385, -0.490393), (0, -0.866025, 0.5), (0, -0.866025, 0.5), (0, -0.866025, 0.5), (0, -0.866025, 0.5), (0, -0.866025, 0.5), (0, -0.866025, 0.5), (1, 6.77626e-21, -5.42101e-20), (1, 6.77626e-21, -5.42101e-20), (1, 6.77626e-21, -5.42101e-20), (1, 6.77626e-21, -5.42101e-20), (1, 6.77626e-21, -5.42101e-20), (1, 6.77626e-21, -5.42101e-20), (0.980785, 0.168953, -0.0975452), (1, 6.77626e-21, -5.42101e-20), (1, 6.77626e-21, -5.42101e-20), (1, 6.77626e-21, -5.42101e-20), (0.980785, 0.168953, -0.0975452), (0.980785, 0.168953, -0.0975452), (0.19509, 0.849385, -0.490393), (0.707107, 0.612372, -0.353553), (0.707107, 0.612372, -0.353553), (0.707107, 0.612372, -0.353553), (0.19509, 0.849385, -0.490393), (0.19509, 0.849385, -0.490393), (0.707107, 0.612372, -0.353553), (0.980785, 0.168953, -0.0975452), (0.707107, 0.612372, -0.353553), (0.980785, 0.168953, -0.0975452), (0.707107, 0.612372, -0.353553), (0.980785, 0.168953, -0.0975452), (-1, -6.77626e-21, 5.42101e-20), (-0.980785, 0.168953, -0.0975452), (-1, -6.77626e-21, 5.42101e-20), (-0.980785, 0.168953, -0.0975452), (-1, -6.77626e-21, 5.42101e-20), (-0.980785, 0.168953, -0.0975452), (-0.980785, 0.168953, -0.0975452), (-0.707107, 0.612372, -0.353553), (-0.707107, 0.612372, -0.353553), (-0.707107, 0.612372, -0.353553), (-0.980785, 0.168953, -0.0975452), (-0.980785, 0.168953, -0.0975452), (-0.707107, 0.612372, -0.353553), (-0.19509, 0.849385, -0.490393), (-0.19509, 0.849385, -0.490393), (-0.19509, 0.849385, -0.490393), (-0.707107, 0.612372, -0.353553), (-0.707107, 0.612372, -0.353553), (-5.42101e-20, -0.5, -0.866026), (-5.42101e-20, -0.5, -0.866026), (-5.42101e-20, -0.5, -0.866026), (-5.42101e-20, -0.5, -0.866026), (-5.42101e-20, -0.5, -0.866026), (-5.42101e-20, -0.5, -0.866026), (-5.42101e-20, -0.5, -0.866026), (-5.42101e-20, -0.5, -0.866026), (-5.42101e-20, -0.5, -0.866026), (-5.42101e-20, -0.5, -0.866026), (-5.42101e-20, -0.5, -0.866026), (-5.42101e-20, -0.5, -0.866026), (-5.42101e-20, -0.5, -0.866026), (-5.42101e-20, -0.5, -0.866026), (-5.42101e-20, -0.5, -0.866026), (-5.42101e-20, -0.5, -0.866026), (-5.42101e-20, -0.5, -0.866026), (-5.42101e-20, -0.5, -0.866026), (-5.42101e-20, -0.5, -0.866026), (-5.42101e-20, -0.5, -0.866026), (-5.42101e-20, -0.5, -0.866026), (-5.42101e-20, -0.5, -0.866026), (-5.42101e-20, -0.5, -0.866026), (-5.42101e-20, -0.5, -0.866026), (-5.42101e-20, -0.5, -0.866026), (-5.42101e-20, -0.5, -0.866026), (-5.42101e-20, -0.5, -0.866026), (-5.42101e-20, -0.5, -0.866026), (-5.42101e-20, -0.5, -0.866026), (-5.42101e-20, -0.5, -0.866026), (5.42101e-20, 0.5, 0.866026), (5.42101e-20, 0.5, 0.866026), (5.42101e-20, 0.5, 0.866026), (5.42101e-20, 0.5, 0.866026), (5.42101e-20, 0.5, 0.866026), (5.42101e-20, 0.5, 0.866026), (5.42101e-20, 0.5, 0.866026), (5.42101e-20, 0.5, 0.866026), (5.42101e-20, 0.5, 0.866026), (5.42101e-20, 0.5, 0.866026), (5.42101e-20, 0.5, 0.866026), (5.42101e-20, 0.5, 0.866026), (5.42101e-20, 0.5, 0.866026), (5.42101e-20, 0.5, 0.866026), (5.42101e-20, 0.5, 0.866026), (5.42101e-20, 0.5, 0.866026), (5.42101e-20, 0.5, 0.866026), (5.42101e-20, 0.5, 0.866026), (5.42101e-20, 0.5, 0.866026), (5.42101e-20, 0.5, 0.866026), (5.42101e-20, 0.5, 0.866026), (5.42101e-20, 0.5, 0.866026), (5.42101e-20, 0.5, 0.866026), (5.42101e-20, 0.5, 0.866026), (5.42101e-20, 0.5, 0.866026), (5.42101e-20, 0.5, 0.866026), (5.42101e-20, 0.5, 0.866026), (5.42101e-20, 0.5, 0.866026), (5.42101e-20, 0.5, 0.866026), (5.42101e-20, 0.5, 0.866026), (3.14345e-13, 0.482759, 0.875753), (-0.605134, 0.401033, 0.687739), (3.14345e-13, 0.482759, 0.875753), (-0.605134, 0.401033, 0.687739), (3.14345e-13, 0.482759, 0.875753), (-0.661771, 0.384589, 0.643545), (0.909183, 0.291506, 0.297339), (0.661771, 0.384589, 0.643545), (0.605134, 0.401033, 0.687739), (0.661771, 0.384589, 0.643545), (0.909183, 0.291506, 0.297339), (0.93326, 0.276567, 0.229209), (-0.661771, 0.384589, 0.643545), (-0.909183, 0.291506, 0.297339), (-0.605134, 0.401033, 0.687739), (-0.909183, 0.291506, 0.297339), (-0.661771, 0.384589, 0.643545), (-0.93326, 0.276567, 0.229209), (0.661771, 0.384589, 0.643545), (3.14345e-13, 0.482759, 0.875753), (0.605134, 0.401033, 0.687739), (3.14345e-13, 0.482759, 0.875753), (0.661771, 0.384589, 0.643545), (3.14345e-13, 0.482759, 0.875753), (0.976, 0.21777, -3.50328e-13), (0.93326, 0.276567, 0.229209), (0.909183, 0.291506, 0.297339), (0.93326, 0.276567, 0.229209), (0.976, 0.21777, -3.50328e-13), (0.976, 0.21777, -3.50328e-13), (0.137975, 0.976471, 0.165731), (0.280822, 0.958028, 0.0576383), (0.177293, 0.972005, 0.15419), (0.280822, 0.958028, 0.0576383), (0.137975, 0.976471, 0.165731), (0.259505, 0.961672, 0.0885686), (0.137975, 0.976471, 0.165731), (6.38771e-14, 0.984038, 0.177959), (6.38771e-14, 0.984038, 0.177959), (6.38771e-14, 0.984038, 0.177959), (0.137975, 0.976471, 0.165731), (0.177293, 0.972005, 0.15419), (-0.137975, 0.976471, 0.165731), (-0.280822, 0.958028, 0.0576383), (-0.259505, 0.961672, 0.0885686), (-0.280822, 0.958028, 0.0576383), (-0.137975, 0.976471, 0.165731), (-0.177293, 0.972005, 0.15419), (6.38771e-14, 0.984038, 0.177959), (-0.177293, 0.972005, 0.15419), (-0.137975, 0.976471, 0.165731), (-0.177293, 0.972005, 0.15419), (6.38771e-14, 0.984038, 0.177959), (6.38771e-14, 0.984038, 0.177959), (-0.93326, 0.276567, 0.229209), (-0.976, 0.21777, 3.50328e-13), (-0.909183, 0.291506, 0.297339), (-0.976, 0.21777, 3.50328e-13), (-0.93326, 0.276567, 0.229209), (-0.976, 0.21777, 3.50328e-13), (0.259505, 0.961672, 0.0885686), (0.319334, 0.947642, -1.14622e-13), (0.280822, 0.958028, 0.0576383), (0.319334, 0.947642, -1.14622e-13), (0.259505, 0.961672, 0.0885686), (0.319334, 0.947642, -1.14622e-13), (-3.58942e-13, 0, -1), (-3.58942e-13, 0, -1), (-3.58942e-13, 0, -1), (-3.58942e-13, 0, -1), (-3.58942e-13, 0, -1), (-3.58942e-13, 0, -1), (-3.58942e-13, 0, -1), (-3.58942e-13, 0, -1), (-3.58942e-13, 0, -1), (-3.58942e-13, 0, -1), (-3.58942e-13, 0, -1), (-3.58942e-13, 0, -1), (-0.280822, 0.958028, 0.0576383), (-0.319334, 0.947642, 1.14622e-13), (-0.259505, 0.961672, 0.0885686), (-0.319334, 0.947642, 1.14622e-13), (-0.280822, 0.958028, 0.0576383), (-0.319334, 0.947642, 1.14622e-13), (-1, 0, 0), (-1, 0, 0), (-1, 0, 0), (-1, 0, 0), (-1, 0, 0), (-1, 0, 0), (0, 0.923879, -0.382683), (0, 0.923879, 0.382683), (0, 0.923879, 0.382683), (0, 0.923879, 0.382683), (0, 0.923879, -0.382683), (0, 0.923879, -0.382683), (1, 0, 0), (1, 0, 0), (1, 0, 0), (1, 0, 0), (1, 0, 0), (1, 0, 0), (0, 0.923879, 0.382683), (0, 0.707107, 0.707107), (0, 0.923879, 0.382683), (0, 0.707107, 0.707107), (0, 0.923879, 0.382683), (0, 0.707107, 0.707107), (0, 0.707107, -0.707107), (0, 0.923879, -0.382683), (0, 0.707107, -0.707107), (0, 0.923879, -0.382683), (0, 0.707107, -0.707107), (0, 0.923879, -0.382683), (-1, 0, 0), (-1, 0, 0), (-1, 0, 0), (-1, 0, 0), (-1, 0, 0), (-1, 0, 0), (0, 0.923879, -0.382683), (0, 0.923879, 0.382683), (0, 0.923879, 0.382683), (0, 0.923879, 0.382683), (0, 0.923879, -0.382683), (0, 0.923879, -0.382683), (1, 0, 0), (1, 0, 0), (1, 0, 0), (1, 0, 0), (1, 0, 0), (1, 0, 0), (0, 0.923879, 0.382683), (0, 0.707107, 0.707107), (0, 0.923879, 0.382683), (0, 0.707107, 0.707107), (0, 0.923879, 0.382683), (0, 0.707107, 0.707107), (0, 0.707107, -0.707107), (0, 0.923879, -0.382683), (0, 0.707107, -0.707107), (0, 0.923879, -0.382683), (0, 0.707107, -0.707107), (0, 0.923879, -0.382683), (0, 1, 0), (0, 1, 0), (0, 1, 0), (0, 1, 0), (0, 1, 0), (0, 1, 0), (0, 1, 0), (0, 1, 0), (0, 1, 0), (0, 1, 0), (0, 1, 0), (0, 1, 0), (0, 1, 0), (0, 1, 0), (0, 1, 0), (0, 1, 0), (0, 1, 0), (0, 1, 0), (0, 1, 0), (0, 1, 0), (0, 1, 0), (-0.875802, 0.482671, 0), (-0.875802, 0.482671, 0), (-0.875802, 0.482671, 0), (-0.875802, 0.482671, 0), (-0.875802, 0.482671, 0), (-0.875802, 0.482671, 0), (0, 0.447214, -0.894427), (0, 0.447214, -0.894427), (0, 0.447214, -0.894427), (0, 0.447214, -0.894427), (0, 0.447214, -0.894427), (0, 0.447214, -0.894427), (0.875802, 0.482671, 0), (0.875802, 0.482671, 0), (0.875802, 0.482671, 0), (0.875802, 0.482671, 0), (0.875802, 0.482671, 0), (0.875802, 0.482671, 0), (0, 0.928477, 0.371391), (0, 0.928477, 0.371391), (0, 0.928477, 0.371391), (0, 0.928477, 0.371391), (0, 0.928477, 0.371391), (0, 0.928477, 0.371391)] (interpolation = "faceVarying")
        texCoord2f[] primvars:st = [(0.46875, 0.025), (0.46875, 0.0694445), (0.46875, 0.025), (0.46875, 0.0694445), (0.46875, 0.025), (0.46875, 0.0694445), (0.46875, 0.0694445), (0.46875, 0.158333), (0.46875, 0.0694445), (0.46875, 0.158333), (0.46875, 0.0694445), (0.46875, 0.158333), (0.46875, 0.0694445), (0.46875, 0.158333), (0.46875, 0.158333), (0.46875, 0.158333), (0.46875, 0.0694445), (0.46875, 0.0694445), (0.46875, 0.0694445), (0.46875, 0.158333), (0.46875, 0.158333), (0.46875, 0.158333), (0.46875, 0.0694445), (0.46875, 0.0694445), (0.46875, 0.158333), (0.46875, 0.0694445), (0.46875, 0.158333), (0.46875, 0.0694445), (0.46875, 0.158333), (0.46875, 0.0694445), (0.46875, 0.025), (0.46875, 0.0694445), (0.46875, 0.0694445), (0.46875, 0.0694445), (0.46875, 0.025), (0.46875, 0.025), (0.46875, 0.025), (0.46875, 0.0694445), (0.46875, 0.0694445), (0.46875, 0.0694445), (0.46875, 0.025), (0.46875, 0.025), (0.46875, 0.025), (0.46875, 0.0694445), (0.46875, 0.0694445), (0.46875, 0.0694445), (0.46875, 0.025), (0.46875, 0.025), (0.46875, 0.0694445), (0.46875, 0.158333), (0.46875, 0.158333), (0.46875, 0.158333), (0.46875, 0.0694445), (0.46875, 0.0694445), (0.46875, 0.158333), (0.46875, 0.0694445), (0.46875, 0.158333), (0.46875, 0.0694445), (0.46875, 0.158333), (0.46875, 0.0694445), (0.46875, 0.025), (0.46875, 0.0694445), (0.46875, 0.0694445), (0.46875, 0.0694445), (0.46875, 0.025), (0.46875, 0.025), (0.46875, 0.025), (0.46875, 0.0694445), (0.46875, 0.025), (0.46875, 0.0694445), (0.46875, 0.025), (0.46875, 0.0694445), (0.46875, 0.158333), (0.46875, 0.0694445), (0.46875, 0.0694445), (0.46875, 0.0694445), (0.46875, 0.158333), (0.46875, 0.158333), (0.46875, 0.0694445), (0.46875, 0.025), (0.46875, 0.0694445), (0.46875, 0.025), (0.46875, 0.0694445), (0.46875, 0.025), (0.46875, 0.025), (0.46875, 0.025), (0.46875, 0.025), (0.46875, 0.025), (0.46875, 0.025), (0.46875, 0.025), (0.46875, 0.025), (0.46875, 0.025), (0.46875, 0.025), (0.46875, 0.025), (0.46875, 0.025), (0.46875, 0.025), (0.46875, 0.025), (0.46875, 0.025), (0.46875, 0.025), (0.46875, 0.025), (0.46875, 0.125), (0.46875, 0.025), (0.46875, 0.125), (0.46875, 0.025), (0.46875, 0.125), (0.46875, 0.225), (0.46875, 0.225), (0.46875, 0.225), (0.46875, 0.225), (0.46875, 0.225), (0.46875, 0.225), (0.46875, 0.125), (0.46875, 0.125), (0.46875, 0.125), (0.46875, 0.125), (0.46875, 0.125), (0.46875, 0.125), (0.46875, 0.125), (0.46875, 0.025), (0.46875, 0.025), (0.46875, 0.025), (0.46875, 0.125), (0.46875, 0.125), (0.46875, 0.125), (0.46875, 0.025), (0.46875, 0.025), (0.46875, 0.025), (0.46875, 0.125), (0.46875, 0.125), (0.46875, 0.225), (0.46875, 0.195711), (0.46875, 0.195711), (0.46875, 0.195711), (0.46875, 0.225), (0.46875, 0.225), (0.46875, 0.195711), (0.46875, 0.125), (0.46875, 0.195711), (0.46875, 0.125), (0.46875, 0.195711), (0.46875, 0.125), (0.46875, 0.025), (0.46875, 0.125), (0.46875, 0.025), (0.46875, 0.125), (0.46875, 0.025), (0.46875, 0.125), (0.46875, 0.125), (0.46875, 0.195711), (0.46875, 0.195711), (0.46875, 0.195711), (0.46875, 0.125), (0.46875, 0.125), (0.46875, 0.195711), (0.46875, 0.225), (0.46875, 0.225), (0.46875, 0.225), (0.46875, 0.195711), (0.46875, 0.195711), (0.46875, 0.125), (0.46875, 0.025), (0.46875, 0.025), (0.46875, 0.025), (0.46875, 0.125), (0.46875, 0.125), (0.46875, 0.125), (0.46875, 0.125), (0.46875, 0.195711), (0.46875, 0.125), (0.46875, 0.195711), (0.46875, 0.125), (0.46875, 0.125), (0.46875, 0.195711), (0.46875, 0.125), (0.46875, 0.025), (0.46875, 0.125), (0.46875, 0.125), (0.46875, 0.125), (0.46875, 0.025), (0.46875, 0.025), (0.46875, 0.125), (0.46875, 0.195711), (0.46875, 0.195711), (0.46875, 0.195711), (0.46875, 0.195711), (0.46875, 0.225), (0.46875, 0.195711), (0.46875, 0.225), (0.46875, 0.225), (0.46875, 0.125), (0.46875, 0.025), (0.46875, 0.025), (0.46875, 0.025), (0.46875, 0.125), (0.46875, 0.125), (0.46875, 0.125), (0.46875, 0.125), (0.46875, 0.195711), (0.46875, 0.125), (0.46875, 0.195711), (0.46875, 0.125), (0.46875, 0.125), (0.46875, 0.195711), (0.46875, 0.125), (0.46875, 0.025), (0.46875, 0.125), (0.46875, 0.125), (0.46875, 0.125), (0.46875, 0.025), (0.46875, 0.025), (0.46875, 0.125), (0.46875, 0.195711), (0.46875, 0.195711), (0.46875, 0.195711), (0.46875, 0.195711), (0.46875, 0.225), (0.46875, 0.195711), (0.46875, 0.225), (0.46875, 0.225), (0.84375, 0.452778), (0.84375, 0.408333), (0.84375, 0.408333), (0.84375, 0.408333), (0.84375, 0.452778), (0.84375, 0.452778), (0.84375, 0.408333), (0.84375, 0.452778), (0.84375, 0.408333), (0.84375, 0.452778), (0.84375, 0.408333), (0.84375, 0.452778), (0.84375, 0.452778), (0.84375, 0.408333), (0.84375, 0.408333), (0.84375, 0.408333), (0.84375, 0.452778), (0.84375, 0.452778), (0.84375, 0.452778), (0.84375, 0.408333), (0.84375, 0.408333), (0.84375, 0.408333), (0.84375, 0.452778), (0.84375, 0.452778), (0.84375, 0.408333), (0.84375, 0.452778), (0.84375, 0.408333), (0.84375, 0.452778), (0.84375, 0.408333), (0.84375, 0.452778), (0.84375, 0.452778), (0.84375, 0.475), (0.84375, 0.475), (0.84375, 0.475), (0.84375, 0.452778), (0.84375, 0.452778), (0.84375, 0.452778), (0.84375, 0.475), (0.84375, 0.452778), (0.84375, 0.475), (0.84375, 0.452778), (0.84375, 0.475), (0.84375, 0.452778), (0.84375, 0.475), (0.84375, 0.452778), (0.84375, 0.475), (0.84375, 0.452778), (0.84375, 0.475), (0.84375, 0.452778), (0.84375, 0.475), (0.84375, 0.452778), (0.84375, 0.475), (0.84375, 0.452778), (0.84375, 0.475), (0.84375, 0.452778), (0.84375, 0.408333), (0.84375, 0.408333), (0.84375, 0.408333), (0.84375, 0.452778), (0.84375, 0.452778), (0.84375, 0.452778), (0.84375, 0.475), (0.84375, 0.475), (0.84375, 0.475), (0.84375, 0.452778), (0.84375, 0.452778), (0.84375, 0.452778), (0.84375, 0.408333), (0.84375, 0.408333), (0.84375, 0.408333), (0.84375, 0.452778), (0.84375, 0.452778), (0.84375, 0.452778), (0.84375, 0.452778), (0.84375, 0.475), (0.84375, 0.452778), (0.84375, 0.475), (0.84375, 0.475), (0.84375, 0.475), (0.84375, 0.452778), (0.84375, 0.452778), (0.84375, 0.452778), (0.84375, 0.475), (0.84375, 0.475), (0.84375, 0.275), (0.84375, 0.475), (0.84375, 0.275), (0.84375, 0.475), (0.84375, 0.275), (0.84375, 0.475), (0.84375, 0.475), (0.84375, 0.475), (0.84375, 0.475), (0.84375, 0.475), (0.84375, 0.475), (0.84375, 0.475), (0.84375, 0.475), (0.84375, 0.275), (0.84375, 0.275), (0.84375, 0.275), (0.84375, 0.475), (0.84375, 0.475), (0.84375, 0.475), (0.84375, 0.275), (0.84375, 0.475), (0.84375, 0.275), (0.84375, 0.475), (0.84375, 0.275), (0.84375, 0.275), (0.84375, 0.475), (0.84375, 0.275), (0.84375, 0.475), (0.84375, 0.275), (0.84375, 0.475), (0.84375, 0.275), (0.84375, 0.475), (0.84375, 0.275), (0.84375, 0.475), (0.84375, 0.275), (0.84375, 0.475), (0.84375, 0.475), (0.84375, 0.475), (0.84375, 0.475), (0.84375, 0.475), (0.84375, 0.475), (0.84375, 0.475), (0.84375, 0.475), (0.84375, 0.275), (0.84375, 0.275), (0.84375, 0.275), (0.84375, 0.475), (0.84375, 0.475), (0.84375, 0.475), (0.84375, 0.275), (0.84375, 0.475), (0.84375, 0.275), (0.84375, 0.475), (0.84375, 0.275), (0.84375, 0.275), (0.84375, 0.475), (0.84375, 0.275), (0.84375, 0.475), (0.84375, 0.275), (0.84375, 0.475), (0.71875, 0.225), (0.71875, 0.225), (0.71875, 0.225), (0.71875, 0.225), (0.71875, 0.225), (0.71875, 0.225), (0.71875, 0.225), (0.71875, 0.225), (0.71875, 0.225), (0.71875, 0.225), (0.71875, 0.225), (0.71875, 0.225), (0.71875, 0.225), (0.71875, 0.225), (0.71875, 0.225), (0.71875, 0.225), (0.71875, 0.225), (0.71875, 0.225), (0.71875, 0.225), (0.71875, 0.225), (0.71875, 0.225), (0.71875, 0.025), (0.71875, 0.225), (0.71875, 0.025), (0.71875, 0.225), (0.71875, 0.025), (0.71875, 0.225), (0.71875, 0.225), (0.71875, 0.025), (0.71875, 0.025), (0.71875, 0.025), (0.71875, 0.225), (0.71875, 0.225), (0.71875, 0.225), (0.71875, 0.025), (0.71875, 0.025), (0.71875, 0.025), (0.71875, 0.225), (0.71875, 0.225), (0.09375, 0.225), (0.09375, 0.025), (0.09375, 0.025), (0.09375, 0.025), (0.09375, 0.225), (0.09375, 0.225), (0.46875, 0.025), (0.46875, 0.0694445), (0.46875, 0.025), (0.46875, 0.0694445), (0.46875, 0.025), (0.46875, 0.0694445), (0.46875, 0.0694445), (0.46875, 0.158333), (0.46875, 0.0694445), (0.46875, 0.158333), (0.46875, 0.0694445), (0.46875, 0.158333), (0.46875, 0.0694445), (0.46875, 0.158333), (0.46875, 0.158333), (0.46875, 0.158333), (0.46875, 0.0694445), (0.46875, 0.0694445), (0.46875, 0.0694445), (0.46875, 0.158333), (0.46875, 0.158333), (0.46875, 0.158333), (0.46875, 0.0694445), (0.46875, 0.0694445), (0.46875, 0.158333), (0.46875, 0.0694445), (0.46875, 0.158333), (0.46875, 0.0694445), (0.46875, 0.158333), (0.46875, 0.0694445), (0.46875, 0.025), (0.46875, 0.0694445), (0.46875, 0.0694445), (0.46875, 0.0694445), (0.46875, 0.025), (0.46875, 0.025), (0.46875, 0.025), (0.46875, 0.0694445), (0.46875, 0.0694445), (0.46875, 0.0694445), (0.46875, 0.025), (0.46875, 0.025), (0.46875, 0.025), (0.46875, 0.0694445), (0.46875, 0.0694445), (0.46875, 0.0694445), (0.46875, 0.025), (0.46875, 0.025), (0.46875, 0.0694445), (0.46875, 0.158333), (0.46875, 0.158333), (0.46875, 0.158333), (0.46875, 0.0694445), (0.46875, 0.0694445), (0.46875, 0.158333), (0.46875, 0.0694445), (0.46875, 0.158333), (0.46875, 0.0694445), (0.46875, 0.158333), (0.46875, 0.0694445), (0.46875, 0.025), (0.46875, 0.0694445), (0.46875, 0.0694445), (0.46875, 0.0694445), (0.46875, 0.025), (0.46875, 0.025), (0.46875, 0.025), (0.46875, 0.0694445), (0.46875, 0.025), (0.46875, 0.0694445), (0.46875, 0.025), (0.46875, 0.0694445), (0.46875, 0.158333), (0.46875, 0.0694445), (0.46875, 0.0694445), (0.46875, 0.0694445), (0.46875, 0.158333), (0.46875, 0.158333), (0.46875, 0.0694445), (0.46875, 0.025), (0.46875, 0.0694445), (0.46875, 0.025), (0.46875, 0.0694445), (0.46875, 0.025), (0.46875, 0.025), (0.46875, 0.025), (0.46875, 0.025), (0.46875, 0.025), (0.46875, 0.025), (0.46875, 0.025), (0.46875, 0.025), (0.46875, 0.025), (0.46875, 0.025), (0.46875, 0.025), (0.46875, 0.025), (0.46875, 0.025), (0.46875, 0.025), (0.46875, 0.025), (0.46875, 0.025), (0.46875, 0.025), (0.46875, 0.125), (0.46875, 0.025), (0.46875, 0.125), (0.46875, 0.025), (0.46875, 0.125), (0.46875, 0.225), (0.46875, 0.225), (0.46875, 0.225), (0.46875, 0.225), (0.46875, 0.225), (0.46875, 0.225), (0.46875, 0.125), (0.46875, 0.125), (0.46875, 0.125), (0.46875, 0.125), (0.46875, 0.125), (0.46875, 0.125), (0.46875, 0.125), (0.46875, 0.025), (0.46875, 0.025), (0.46875, 0.025), (0.46875, 0.125), (0.46875, 0.125), (0.46875, 0.125), (0.46875, 0.025), (0.46875, 0.025), (0.46875, 0.025), (0.46875, 0.125), (0.46875, 0.125), (0.46875, 0.225), (0.46875, 0.195711), (0.46875, 0.195711), (0.46875, 0.195711), (0.46875, 0.225), (0.46875, 0.225), (0.46875, 0.195711), (0.46875, 0.125), (0.46875, 0.195711), (0.46875, 0.125), (0.46875, 0.195711), (0.46875, 0.125), (0.46875, 0.025), (0.46875, 0.125), (0.46875, 0.025), (0.46875, 0.125), (0.46875, 0.025), (0.46875, 0.125), (0.46875, 0.125), (0.46875, 0.195711), (0.46875, 0.195711), (0.46875, 0.195711), (0.46875, 0.125), (0.46875, 0.125), (0.46875, 0.195711), (0.46875, 0.225), (0.46875, 0.225), (0.46875, 0.225), (0.46875, 0.195711), (0.46875, 0.195711), (0.46875, 0.125), (0.46875, 0.025), (0.46875, 0.025), (0.46875, 0.025), (0.46875, 0.125), (0.46875, 0.125), (0.46875, 0.125), (0.46875, 0.125), (0.46875, 0.195711), (0.46875, 0.125), (0.46875, 0.195711), (0.46875, 0.125), (0.46875, 0.125), (0.46875, 0.195711), (0.46875, 0.125), (0.46875, 0.025), (0.46875, 0.125), (0.46875, 0.125), (0.46875, 0.125), (0.46875, 0.025), (0.46875, 0.025), (0.46875, 0.125), (0.46875, 0.195711), (0.46875, 0.195711), (0.46875, 0.195711), (0.46875, 0.195711), (0.46875, 0.225), (0.46875, 0.195711), (0.46875, 0.225), (0.46875, 0.225), (0.46875, 0.125), (0.46875, 0.025), (0.46875, 0.025), (0.46875, 0.025), (0.46875, 0.125), (0.46875, 0.125), (0.46875, 0.125), (0.46875, 0.125), (0.46875, 0.195711), (0.46875, 0.125), (0.46875, 0.195711), (0.46875, 0.125), (0.46875, 0.125), (0.46875, 0.195711), (0.46875, 0.125), (0.46875, 0.025), (0.46875, 0.125), (0.46875, 0.125), (0.46875, 0.125), (0.46875, 0.025), (0.46875, 0.025), (0.46875, 0.125), (0.46875, 0.195711), (0.46875, 0.195711), (0.46875, 0.195711), (0.46875, 0.195711), (0.46875, 0.225), (0.46875, 0.195711), (0.46875, 0.225), (0.46875, 0.225), (0.84375, 0.452778), (0.84375, 0.408333), (0.84375, 0.408333), (0.84375, 0.408333), (0.84375, 0.452778), (0.84375, 0.452778), (0.84375, 0.408333), (0.84375, 0.452778), (0.84375, 0.408333), (0.84375, 0.452778), (0.84375, 0.408333), (0.84375, 0.452778), (0.84375, 0.452778), (0.84375, 0.408333), (0.84375, 0.408333), (0.84375, 0.408333), (0.84375, 0.452778), (0.84375, 0.452778), (0.84375, 0.452778), (0.84375, 0.408333), (0.84375, 0.408333), (0.84375, 0.408333), (0.84375, 0.452778), (0.84375, 0.452778), (0.84375, 0.408333), (0.84375, 0.452778), (0.84375, 0.408333), (0.84375, 0.452778), (0.84375, 0.408333), (0.84375, 0.452778), (0.84375, 0.452778), (0.84375, 0.475), (0.84375, 0.475), (0.84375, 0.475), (0.84375, 0.452778), (0.84375, 0.452778), (0.84375, 0.452778), (0.84375, 0.475), (0.84375, 0.452778), (0.84375, 0.475), (0.84375, 0.452778), (0.84375, 0.475), (0.84375, 0.452778), (0.84375, 0.475), (0.84375, 0.452778), (0.84375, 0.475), (0.84375, 0.452778), (0.84375, 0.475), (0.84375, 0.452778), (0.84375, 0.475), (0.84375, 0.452778), (0.84375, 0.475), (0.84375, 0.452778), (0.84375, 0.475), (0.84375, 0.452778), (0.84375, 0.408333), (0.84375, 0.408333), (0.84375, 0.408333), (0.84375, 0.452778), (0.84375, 0.452778), (0.84375, 0.452778), (0.84375, 0.475), (0.84375, 0.475), (0.84375, 0.475), (0.84375, 0.452778), (0.84375, 0.452778), (0.84375, 0.452778), (0.84375, 0.408333), (0.84375, 0.408333), (0.84375, 0.408333), (0.84375, 0.452778), (0.84375, 0.452778), (0.84375, 0.452778), (0.84375, 0.452778), (0.84375, 0.475), (0.84375, 0.452778), (0.84375, 0.475), (0.84375, 0.475), (0.84375, 0.475), (0.84375, 0.452778), (0.84375, 0.452778), (0.84375, 0.452778), (0.84375, 0.475), (0.84375, 0.475), (0.84375, 0.275), (0.84375, 0.475), (0.84375, 0.275), (0.84375, 0.475), (0.84375, 0.275), (0.84375, 0.475), (0.84375, 0.475), (0.84375, 0.475), (0.84375, 0.475), (0.84375, 0.475), (0.84375, 0.475), (0.84375, 0.475), (0.84375, 0.475), (0.84375, 0.275), (0.84375, 0.275), (0.84375, 0.275), (0.84375, 0.475), (0.84375, 0.475), (0.84375, 0.475), (0.84375, 0.275), (0.84375, 0.475), (0.84375, 0.275), (0.84375, 0.475), (0.84375, 0.275), (0.84375, 0.275), (0.84375, 0.475), (0.84375, 0.275), (0.84375, 0.475), (0.84375, 0.275), (0.84375, 0.475), (0.84375, 0.275), (0.84375, 0.475), (0.84375, 0.275), (0.84375, 0.475), (0.84375, 0.275), (0.84375, 0.475), (0.84375, 0.475), (0.84375, 0.475), (0.84375, 0.475), (0.84375, 0.475), (0.84375, 0.475), (0.84375, 0.475), (0.84375, 0.475), (0.84375, 0.275), (0.84375, 0.275), (0.84375, 0.275), (0.84375, 0.475), (0.84375, 0.475), (0.84375, 0.475), (0.84375, 0.275), (0.84375, 0.475), (0.84375, 0.275), (0.84375, 0.475), (0.84375, 0.275), (0.84375, 0.275), (0.84375, 0.475), (0.84375, 0.275), (0.84375, 0.475), (0.84375, 0.275), (0.84375, 0.475), (0.71875, 0.225), (0.71875, 0.225), (0.71875, 0.225), (0.71875, 0.225), (0.71875, 0.225), (0.71875, 0.225), (0.71875, 0.225), (0.71875, 0.225), (0.71875, 0.225), (0.71875, 0.225), (0.71875, 0.225), (0.71875, 0.225), (0.71875, 0.225), (0.71875, 0.225), (0.71875, 0.225), (0.71875, 0.225), (0.71875, 0.225), (0.71875, 0.225), (0.71875, 0.225), (0.71875, 0.225), (0.71875, 0.225), (0.71875, 0.025), (0.71875, 0.225), (0.71875, 0.025), (0.71875, 0.225), (0.71875, 0.025), (0.71875, 0.225), (0.71875, 0.225), (0.71875, 0.025), (0.71875, 0.025), (0.71875, 0.025), (0.71875, 0.225), (0.71875, 0.225), (0.71875, 0.225), (0.71875, 0.025), (0.71875, 0.025), (0.71875, 0.025), (0.71875, 0.225), (0.71875, 0.225), (0.09375, 0.225), (0.09375, 0.025), (0.09375, 0.025), (0.09375, 0.025), (0.09375, 0.225), (0.09375, 0.225)] (interpolation = "faceVarying")
        uniform token subdivisionScheme = "none"
        rel material:binding = </Vehicle/Materials/colormap>
    }
    def Scope "Materials" {
        def Material "colormap" {
            token outputs:surface.connect = </Vehicle/Materials/colormap/surface.outputs:surface>
            def Shader "surface" {
                uniform token info:id = "UsdPreviewSurface"
                float inputs:roughness = 0.7
                float inputs:metallic = 0
                color3f inputs:diffuseColor.connect = </Vehicle/Materials/colormap/texture.outputs:rgb>
                token outputs:surface
            }
            def Shader "stReader" {
                uniform token info:id = "UsdPrimvarReader_float2"
                token inputs:varname = "st"
                float2 outputs:result
            }
            def Shader "texture" {
                uniform token info:id = "UsdUVTexture"
                asset inputs:file = @kenney-water-colormap.png@
                float2 inputs:st.connect = </Vehicle/Materials/colormap/stReader.outputs:result>
                token inputs:wrapS = "repeat"
                token inputs:wrapT = "repeat"
                float3 outputs:rgb
            }
        }
    }
}
