#usda 1.0
(
    defaultPrim = "Vehicle"
    metersPerUnit = 1
    upAxis = "Y"
)
def Xform "Vehicle" {
    def Mesh "mesh_colormap" {
        int[] faceVertexCounts = [3, 3, 3, 3, 3, 3, 3, 3, 3, 3, 3, 3, 3, 3, 3, 3, 3, 3, 3, 3, 3, 3, 3, 3, 3, 3, 3, 3, 3, 3, 3, 3, 3, 3, 3, 3, 3, 3, 3, 3, 3, 3, 3, 3, 3, 3, 3, 3, 3, 3, 3, 3, 3, 3, 3, 3, 3, 3, 3, 3, 3, 3, 3, 3, 3, 3, 3, 3, 3, 3, 3, 3, 3, 3, 3, 3, 3, 3, 3, 3, 3, 3, 3, 3, 3, 3, 3, 3, 3, 3, 3, 3, 3, 3, 3, 3, 3, 3, 3, 3, 3, 3, 3, 3, 3, 3, 3, 3, 3, 3, 3, 3, 3, 3, 3, 3, 3, 3, 3, 3, 3, 3, 3, 3, 3, 3, 3, 3, 3, 3, 3, 3, 3, 3, 3, 3, 3, 3, 3, 3, 3, 3, 3, 3, 3, 3, 3, 3, 3, 3, 3, 3, 3, 3, 3, 3, 3, 3, 3, 3, 3, 3, 3, 3, 3, 3, 3, 3, 3, 3, 3, 3, 3, 3, 3, 3, 3, 3, 3, 3, 3, 3, 3, 3, 3, 3, 3, 3, 3, 3, 3, 3, 3, 3, 3, 3, 3, 3, 3, 3, 3, 3, 3, 3, 3, 3, 3, 3, 3, 3, 3, 3, 3, 3, 3, 3, 3, 3, 3, 3, 3, 3, 3, 3, 3, 3, 3, 3, 3, 3, 3, 3, 3, 3, 3, 3, 3, 3, 3, 3, 3, 3, 3, 3, 3, 3, 3, 3, 3, 3, 3, 3, 3, 3, 3, 3, 3, 3, 3, 3, 3, 3, 3, 3, 3, 3, 3, 3, 3, 3, 3, 3, 3, 3, 3, 3, 3, 3, 3, 3, 3, 3, 3, 3, 3, 3, 3, 3, 3, 3, 3, 3, 3, 3, 3, 3, 3, 3, 3, 3, 3, 3, 3, 3, 3, 3, 3, 3, 3, 3, 3, 3, 3, 3, 3, 3, 3, 3, 3, 3, 3, 3, 3, 3, 3, 3, 3, 3, 3, 3, 3, 3, 3, 3, 3, 3, 3, 3, 3, 3, 3, 3, 3, 3, 3, 3, 3, 3, 3, 3, 3, 3, 3, 3, 3, 3, 3, 3, 3, 3, 3, 3, 3, 3, 3, 3, 3, 3, 3, 3, 3, 3, 3, 3, 3, 3, 3, 3, 3, 3, 3, 3, 3, 3, 3, 3, 3, 3, 3, 3, 3, 3, 3, 3, 3, 3, 3, 3, 3, 3, 3, 3, 3, 3, 3, 3, 3, 3, 3, 3, 3, 3, 3, 3, 3, 3, 3, 3, 3, 3, 3, 3, 3, 3, 3, 3, 3, 3, 3, 3, 3, 3, 3, 3, 3, 3, 3, 3, 3, 3, 3, 3, 3, 3, 3, 3, 3, 3, 3, 3, 3, 3, 3, 3, 3, 3, 3, 3, 3, 3, 3, 3, 3, 3, 3, 3, 3, 3, 3, 3, 3, 3, 3, 3]
        int[] faceVertexIndices = [2, 1, 0, 1, 2, 3, 6, 5, 4, 5, 6, 7, 10, 9, 8, 9, 10, 11, 9, 12, 8, 12, 9, 13, 6, 13, 9, 13, 6, 4, 15, 3, 14, 3, 15, 16, 7, 17, 2, 17, 7, 18, 0, 7, 2, 7, 0, 5, 19, 7, 6, 7, 19, 18, 8, 20, 16, 20, 8, 12, 10, 16, 15, 16, 10, 8, 16, 1, 3, 1, 16, 20, 12, 1, 20, 1, 12, 0, 0, 12, 13, 0, 13, 4, 0, 4, 5, 11, 6, 9, 6, 11, 19, 23, 22, 21, 22, 23, 24, 27, 26, 25, 26, 27, 28, 28, 27, 29, 32, 31, 30, 31, 32, 33, 33, 32, 34, 36, 32, 35, 32, 36, 34, 38, 35, 37, 35, 38, 36, 29, 37, 28, 37, 29, 38, 30, 24, 23, 24, 30, 31, 25, 21, 22, 21, 25, 26, 41, 40, 39, 40, 41, 42, 43, 41, 39, 41, 43, 44, 42, 44, 45, 44, 42, 41, 45, 40, 42, 40, 45, 46, 49, 48, 47, 48, 49, 50, 49, 52, 51, 52, 49, 47, 48, 54, 53, 54, 48, 50, 47, 53, 52, 53, 47, 48, 54, 49, 51, 49, 54, 50, 57, 56, 55, 56, 57, 58, 57, 60, 59, 60, 57, 55, 56, 62, 61, 62, 56, 58, 55, 61, 60, 61, 55, 56, 62, 57, 59, 57, 62, 58, 17, 3, 2, 3, 17, 14, 14, 17, 63, 63, 17, 64, 63, 64, 65, 65, 64, 66, 67, 14, 63, 14, 67, 68, 68, 67, 69, 68, 69, 70, 73, 72, 71, 72, 73, 74, 74, 75, 72, 75, 74, 76, 76, 77, 75, 77, 76, 78, 77, 80, 79, 80, 77, 78, 83, 82, 81, 82, 83, 84, 84, 83, 85, 88, 87, 86, 87, 88, 89, 89, 88, 90, 65, 85, 83, 85, 65, 66, 83, 63, 65, 63, 83, 81, 67, 89, 69, 89, 67, 87, 70, 89, 90, 89, 70, 69, 91, 11, 10, 11, 91, 92, 93, 18, 19, 18, 93, 94, 79, 88, 86, 88, 79, 80, 88, 70, 90, 88, 68, 70, 68, 88, 80, 80, 95, 68, 95, 80, 91, 91, 80, 78, 91, 78, 92, 92, 78, 76, 92, 76, 93, 93, 76, 74, 93, 74, 73, 93, 73, 94, 94, 73, 84, 84, 64, 94, 84, 66, 64, 66, 84, 85, 95, 10, 15, 10, 95, 91, 73, 82, 84, 82, 73, 71, 95, 14, 68, 14, 95, 15, 92, 19, 11, 19, 92, 93, 18, 64, 17, 64, 18, 94, 98, 97, 96, 97, 98, 99, 101, 96, 100, 96, 101, 98, 103, 100, 102, 100, 103, 101, 103, 105, 104, 105, 103, 102, 97, 107, 106, 107, 97, 99, 110, 109, 108, 109, 110, 111, 113, 109, 112, 109, 113, 108, 114, 113, 112, 113, 114, 115, 106, 115, 114, 115, 106, 107, 102, 111, 105, 111, 102, 109, 109, 102, 22, 109, 22, 112, 22, 102, 25, 112, 22, 24, 100, 25, 102, 25, 100, 27, 27, 100, 116, 116, 100, 96, 116, 96, 117, 117, 96, 33, 33, 96, 97, 33, 97, 31, 112, 24, 31, 112, 31, 97, 112, 97, 106, 112, 106, 114, 108, 104, 110, 104, 108, 103, 103, 108, 113, 103, 113, 101, 101, 113, 98, 98, 113, 99, 99, 113, 107, 107, 113, 115, 104, 111, 110, 111, 104, 105, 120, 119, 118, 119, 120, 121, 123, 119, 122, 119, 123, 118, 124, 123, 122, 123, 124, 125, 120, 124, 121, 124, 120, 125, 123, 120, 118, 120, 123, 125, 128, 127, 126, 127, 128, 129, 127, 131, 130, 131, 127, 129, 130, 133, 132, 133, 130, 131, 129, 133, 131, 133, 129, 128, 126, 130, 132, 130, 126, 127, 136, 135, 134, 135, 136, 137, 135, 139, 138, 139, 135, 137, 138, 141, 140, 141, 138, 139, 137, 141, 139, 141, 137, 136, 134, 138, 140, 138, 134, 135, 8, 3, 16, 3, 8, 2, 2, 8, 9, 2, 9, 6, 2, 6, 7, 86, 77, 79, 77, 86, 87, 77, 87, 75, 75, 87, 67, 75, 67, 63, 75, 63, 81, 81, 72, 75, 72, 81, 82, 72, 82, 71, 27, 38, 29, 38, 27, 116, 117, 34, 36, 34, 117, 33, 116, 36, 38, 36, 116, 117, 2, 1, 0, 1, 2, 3, 6, 5, 4, 5, 6, 7, 10, 9, 8, 9, 10, 11, 9, 12, 8, 12, 9, 13, 6, 13, 9, 13, 6, 4, 15, 3, 14, 3, 15, 16, 7, 17, 2, 17, 7, 18, 0, 7, 2, 7, 0, 5, 19, 7, 6, 7, 19, 18, 8, 20, 16, 20, 8, 12, 10, 16, 15, 16, 10, 8, 16, 1, 3, 1, 16, 20, 12, 1, 20, 1, 12, 0, 0, 12, 13, 0, 13, 4, 0, 4, 5, 11, 6, 9, 6, 11, 19, 23, 22, 21, 22, 23, 24, 27, 26, 25, 26, 27, 28, 28, 27, 29, 32, 31, 30, 31, 32, 33, 33, 32, 34, 36, 32, 35, 32, 36, 34, 38, 35, 37, 35, 38, 36, 29, 37, 28, 37, 29, 38, 30, 24, 23, 24, 30, 31, 25, 21, 22, 21, 25, 26, 41, 40, 39, 40, 41, 42, 43, 41, 39, 41, 43, 44, 42, 44, 45, 44, 42, 41, 45, 40, 42, 40, 45, 46, 49, 48, 47, 48, 49, 50, 49, 52, 51, 52, 49, 47, 48, 54, 53, 54, 48, 50, 47, 53, 52, 53, 47, 48, 54, 49, 51, 49, 54, 50, 57, 56, 55, 56, 57, 58, 57, 60, 59, 60, 57, 55, 56, 62, 61, 62, 56, 58, 55, 61, 60, 61, 55, 56, 62, 57, 59, 57, 62, 58, 17, 3, 2, 3, 17, 14, 14, 17, 63, 63, 17, 64, 63, 64, 65, 65, 64, 66, 67, 14, 63, 14, 67, 68, 68, 67, 69, 68, 69, 70, 73, 72, 71, 72, 73, 74, 74, 75, 72, 75, 74, 76, 76, 77, 75, 77, 76, 78, 77, 80, 79, 80, 77, 78, 83, 82, 81, 82, 83, 84, 84, 83, 85, 88, 87, 86, 87, 88, 89, 89, 88, 90, 65, 85, 83, 85, 65, 66, 83, 63, 65, 63, 83, 81, 67, 89, 69, 89, 67, 87, 70, 89, 90, 89, 70, 69, 91, 11, 10, 11, 91, 92, 93, 18, 19, 18, 93, 94, 79, 88, 86, 88, 79, 80, 88, 70, 90, 88, 68, 70, 68, 88, 80, 80, 95, 68, 95, 80, 91, 91, 80, 78, 91, 78, 92, 92, 78, 76, 92, 76, 93, 93, 76, 74, 93, 74, 73, 93, 73, 94, 94, 73, 84, 84, 64, 94, 84, 66, 64, 66, 84, 85, 95, 10, 15, 10, 95, 91, 73, 82, 84, 82, 73, 71, 95, 14, 68, 14, 95, 15, 92, 19, 11, 19, 92, 93, 18, 64, 17, 64, 18, 94, 98, 97, 96, 97, 98, 99, 101, 96, 100, 96, 101, 98, 103, 100, 102, 100, 103, 101, 103, 105, 104, 105, 103, 102, 97, 107, 106, 107, 97, 99, 110, 109, 108, 109, 110, 111, 113, 109, 112, 109, 113, 108, 114, 113, 112, 113, 114, 115, 106, 115, 114, 115, 106, 107, 102, 111, 105, 111, 102, 109, 109, 102, 22, 109, 22, 112, 22, 102, 25, 112, 22, 24, 100, 25, 102, 25, 100, 27, 27, 100, 116, 116, 100, 96, 116, 96, 117, 117, 96, 33, 33, 96, 97, 33, 97, 31, 112, 24, 31, 112, 31, 97, 112, 97, 106, 112, 106, 114, 108, 104, 110, 104, 108, 103, 103, 108, 113, 103, 113, 101, 101, 113, 98, 98, 113, 99, 99, 113, 107, 107, 113, 115, 104, 111, 110, 111, 104, 105, 120, 119, 118, 119, 120, 121, 123, 119, 122, 119, 123, 118, 124, 123, 122, 123, 124, 125, 120, 124, 121, 124, 120, 125, 123, 120, 118, 120, 123, 125, 128, 127, 126, 127, 128, 129, 127, 131, 130, 131, 127, 129, 130, 133, 132, 133, 130, 131, 129, 133, 131, 133, 129, 128, 126, 130, 132, 130, 126, 127, 136, 135, 134, 135, 136, 137, 135, 139, 138, 139, 135, 137, 138, 141, 140, 141, 138, 139, 137, 141, 139, 141, 137, 136, 134, 138, 140, 138, 134, 135, 8, 3, 16, 3, 8, 2, 2, 8, 9, 2, 9, 6, 2, 6, 7, 86, 77, 79, 77, 86, 87, 77, 87, 75, 75, 87, 67, 75, 67, 63, 75, 63, 81, 81, 72, 75, 72, 81, 82, 72, 82, 71, 27, 38, 29, 38, 27, 116, 117, 34, 36, 34, 117, 33, 116, 36, 38, 36, 116, 117]
        point3f[] points = [(-0.408, 8.91582e-17, -1.735), (0.408, 8.91582e-17, -1.735), (-0.68, 0.3, -1.935), (0.68, 0.3, -1.935), (-0.2232, 9.02389e-17, 1.021), (-0.408, 9.02389e-17, 0.865), (-0.372, 0.3, 1.485), (-0.68, 0.3, 1.225), (0.372, 0.3, 1.485), (4.67799e-13, 0.3, 1.585), (0.48825, 0.7, 1.80375), (5.94855e-13, 0.7, 1.935), (0.2232, 9.02389e-17, 1.021), (2.88765e-13, 9.02389e-17, 1.081), (0.8925, 0.7, -1.935), (0.8925, 0.7, 1.4625), (0.68, 0.3, 1.225), (-0.8925, 0.7, -1.935), (-0.8925, 0.7, 1.4625), (-0.48825, 0.7, 1.80375), (0.408, 0, 0.865), (0.5925, 0.8, 0.065), (0.5925, 1.5, 0.065), (-0.5925, 0.8, 0.065), (-0.5925, 1.5, 0.065), (0.5925, 1.5, 0.851687), (0.5925, 0.8, 0.851687), (0.533921, 1.5, 0.993108), (0.533921, 0.8, 0.993108), (0.533921, 1.15, 0.993108), (-0.5925, 0.8, 0.851687), (-0.5925, 1.5, 0.851687), (-0.533921, 0.8, 0.993108), (-0.533921, 1.5, 0.993108), (-0.533921, 1.15, 0.993108), (-0.3925, 0.8, 1.05169), (-0.3925, 1.15, 1.05169), (0.3925, 0.8, 1.05169), (0.3925, 1.15, 1.05169), (0.19458, 0.8, 1.38625), (-0.19458, 0.8, 1.38625), (0.19458, 0.95, 1.38625), (-0.19458, 0.95, 1.38625), (0.282, 0.8, 1.05169), (0.282, 1, 1.05169), (-0.282, 1, 1.05169), (-0.282, 0.8, 1.05169), (0.555, 2.6, -0.3475), (0.555, 2.6, -0.2725), (0.48, 2.6, -0.3475), (0.48, 2.6, -0.2725), (0.4425, 0.8, -0.385), (0.5925, 0.8, -0.385), (0.5925, 0.8, -0.235), (0.4425, 0.8, -0.235), (-0.48, 2.6, -0.3475), (-0.48, 2.6, -0.2725), (-0.555, 2.6, -0.3475), (-0.555, 2.6, -0.2725), (-0.5925, 0.8, -0.385), (-0.4425, 0.8, -0.385), (-0.4425, 0.8, -0.235), (-0.5925, 0.8, -0.235), (-0.2925, 0.8, -1.935), (-0.8925, 1, -1.935), (-0.2925, 0.9, -1.935), (-0.4925, 1, -1.935), (0.2925, 0.8, -1.935), (0.8925, 1, -1.935), (0.2925, 0.9, -1.935), (0.4925, 1, -1.935), (-0.6925, 0.8, 1.3696), (-0.393293, 0.8, 1.62218), (-0.6925, 1, 1.3696), (-0.393293, 1, 1.62218), (5.19776e-13, 0.8, 1.7279), (5.19776e-13, 1, 1.7279), (0.393293, 0.8, 1.62218), (0.393293, 1, 1.62218), (0.6925, 0.8, 1.3696), (0.6925, 1, 1.3696), (-0.2925, 0.8, -1.735), (-0.6925, 0.8, -1.735), (-0.2925, 0.9, -1.735), (-0.6925, 1, -1.735), (-0.4925, 1, -1.735), (0.6925, 0.8, -1.735), (0.2925, 0.8, -1.735), (0.6925, 1, -1.735), (0.2925, 0.9, -1.735), (0.4925, 1, -1.735), (0.48825, 1, 1.80375), (5.94855e-13, 1, 1.935), (-0.48825, 1, 1.80375), (-0.8925, 1, 1.4625), (0.8925, 1, 1.4625), (-0.432283, 1.5, 1.25169), (-0.686995, 1.5, 1.14618), (-0.432283, 1.7, 1.25169), (-0.686995, 1.7, 1.14618), (0.432283, 1.5, 1.25169), (0.432283, 1.7, 1.25169), (0.686995, 1.5, 1.14618), (0.686995, 1.7, 1.14618), (0.7925, 1.7, 0.891469), (0.7925, 1.5, 0.891469), (-0.7925, 1.5, 0.891469), (-0.7925, 1.7, 0.891469), (0.6925, 1.7, -0.135), (0.6925, 1.5, -0.135), (0.7925, 1.7, -0.035), (0.7925, 1.5, -0.035), (-0.6925, 1.5, -0.135), (-0.6925, 1.7, -0.135), (-0.7925, 1.5, -0.035), (-0.7925, 1.7, -0.035), (0.3925, 1.5, 1.05169), (-0.3925, 1.5, 1.05169), (-0.2, 1.75, 0.651687), (-0.2, 1.7, 0.651687), (-0.2, 1.8, 0.251687), (-0.2, 1.7, 0.251687), (0.2, 1.7, 0.651687), (0.2, 1.75, 0.651687), (0.2, 1.7, 0.251687), (0.2, 1.8, 0.251687), (0.8925, 1, -0.677295), (0.8925, 1.1, -0.777295), (0.8925, 1, -1.17729), (0.8925, 1.1, -1.07729), (0.6925, 1.1, -0.777295), (0.6925, 1.1, -1.07729), (0.6925, 1, -0.677295), (0.6925, 1, -1.17729), (-0.6925, 1, -0.677295), (-0.6925, 1.1, -0.777295), (-0.6925, 1, -1.17729), (-0.6925, 1.1, -1.07729), (-0.8925, 1.1, -0.777295), (-0.8925, 1.1, -1.07729), (-0.8925, 1, -0.677295), (-0.8925, 1, -1.17729)]
        normal3f[] normals = [(0, -0.5547, -0.83205), (0, -0.5547, -0.83205), (0, -0.5547, -0.83205), (0, -0.5547, -0.83205), (0, -0.5547, -0.83205), (0, -0.5547, -0.83205), (-0.236947, -0.848734, 0.472764), (-0.614369, -0.768993, 0.176638), (-0.257795, -0.846977, 0.464942), (-0.614369, -0.768993, 0.176638), (-0.236947, -0.848734, 0.472764), (-0.509689, -0.810035, 0.289931), (0.347397, -0.644064, 0.68154), (0, -0.658505, 0.752577), (0.364175, -0.642844, 0.67389), (0, -0.658505, 0.752577), (0.347397, -0.644064, 0.68154), (0, -0.658505, 0.752577), (0, -0.859293, 0.511484), (0.257795, -0.846977, 0.464942), (0.236947, -0.848734, 0.472764), (0.257795, -0.846977, 0.464942), (0, -0.859293, 0.511484), (0, -0.859293, 0.511484), (-0.236947, -0.848734, 0.472764), (0, -0.859293, 0.511484), (0, -0.859293, 0.511484), (0, -0.859293, 0.511484), (-0.236947, -0.848734, 0.472764), (-0.257795, -0.846977, 0.464942), (0.706938, -0.598928, 0.376197), (0.883116, -0.469155, 0), (0.883116, -0.469155, 0), (0.883116, -0.469155, 0), (0.706938, -0.598928, 0.376197), (0.769315, -0.574561, 0.279347), (-0.769315, -0.574561, 0.279347), (-0.883116, -0.469155, 0), (-0.883116, -0.469155, 0), (-0.883116, -0.469155, 0), (-0.769315, -0.574561, 0.279347), (-0.706938, -0.598928, 0.376197), (-0.740833, -0.671689, 0), (-0.509689, -0.810035, 0.289931), (-0.740833, -0.671689, 0), (-0.509689, -0.810035, 0.289931), (-0.740833, -0.671689, 0), (-0.614369, -0.768993, 0.176638), (-0.347397, -0.644064, 0.68154), (-0.769315, -0.574561, 0.279347), (-0.364175, -0.642844, 0.67389), (-0.769315, -0.574561, 0.279347), (-0.347397, -0.644064, 0.68154), (-0.706938, -0.598928, 0.376197), (0.236947, -0.848734, 0.472764), (0.614369, -0.768993, 0.176638), (0.509689, -0.810035, 0.289931), (0.614369, -0.768993, 0.176638), (0.236947, -0.848734, 0.472764), (0.257795, -0.846977, 0.464942), (0.347397, -0.644064, 0.68154), (0.769315, -0.574561, 0.279347), (0.706938, -0.598928, 0.376197), (0.769315, -0.574561, 0.279347), (0.347397, -0.644064, 0.68154), (0.364175, -0.642844, 0.67389), (0.509689, -0.810035, 0.289931), (0.740833, -0.671689, 0), (0.740833, -0.671689, 0), (0.740833, -0.671689, 0), (0.509689, -0.810035, 0.289931), (0.614369, -0.768993, 0.176638), (0, -1, 0), (0, -1, 0), (0, -1, 0), (0, -1, 0), (0, -1, 0), (0, -1, 0), (0, -1, 0), (0, -1, 0), (0, -1, 0), (0, -1, 0), (0, -1, 0), (0, -1, 0), (0, -1, 0), (0, -1, 0), (0, -1, 0), (0, -0.658505, 0.752577), (-0.364175, -0.642844, 0.67389), (0, -0.658505, 0.752577), (-0.364175, -0.642844, 0.67389), (0, -0.658505, 0.752577), (-0.347397, -0.644064, 0.68154), (0, 0, -1), (0, 0, -1), (0, 0, -1), (0, 0, -1), (0, 0, -1), (0, 0, -1), (0.923879, 0, 0.382683), (0.980785, 0, 0.19509), (0.980785, 0, 0.19509), (0.980785, 0, 0.19509), (0.923879, 0, 0.382683), (0.923879, 0, 0.382683), (0.923879, 0, 0.382683), (0.923879, 0, 0.382683), (0.923879, 0, 0.382683), (-0.923879, 0, 0.382683), (-0.980785, 0, 0.19509), (-0.980785, 0, 0.19509), (-0.980785, 0, 0.19509), (-0.923879, 0, 0.382683), (-0.923879, 0, 0.382683), (-0.923879, 0, 0.382683), (-0.923879, 0, 0.382683), (-0.923879, 0, 0.382683), (-0.19509, 0, 0.980785), (-0.382683, 0, 0.923879), (-0.19509, 0, 0.980785), (-0.382683, 0, 0.923879), (-0.19509, 0, 0.980785), (-0.382683, 0, 0.923879), (0.19509, 0, 0.980785), (-0.19509, 0, 0.980785), (0.19509, 0, 0.980785), (-0.19509, 0, 0.980785), (0.19509, 0, 0.980785), (-0.19509, 0, 0.980785), (0.382683, 0, 0.923879), (0.19509, 0, 0.980785), (0.382683, 0, 0.923879), (0.19509, 0, 0.980785), (0.382683, 0, 0.923879), (0.19509, 0, 0.980785), (-0.980785, 0, 0.19509), (-1, 0, 0), (-1, 0, 0), (-1, 0, 0), (-0.980785, 0, 0.19509), (-0.980785, 0, 0.19509), (0.980785, 0, 0.19509), (1, 0, 0), (1, 0, 0), (1, 0, 0), (0.980785, 0, 0.19509), (0.980785, 0, 0.19509), (-2.06355e-14, 0.699951, 0.714191), (-2.88936e-14, 0, 1), (-2.88936e-14, 0, 1), (-2.88936e-14, 0, 1), (-2.06355e-14, 0.699951, 0.714191), (-2.06355e-14, 0.699951, 0.714191), (0.967516, 0, 0.25281), (0.967516, 0, 0.25281), (0.967516, 0, 0.25281), (0.967516, 0, 0.25281), (0.967516, 0, 0.25281), (0.967516, 0, 0.25281), (-2.06355e-14, 0.699951, 0.714191), (-4.27071e-15, 0.989016, 0.147809), (-4.27071e-15, 0.989016, 0.147809), (-4.27071e-15, 0.989016, 0.147809), (-2.06355e-14, 0.699951, 0.714191), (-2.06355e-14, 0.699951, 0.714191), (-0.967516, 0, 0.25281), (-0.967516, 0, 0.25281), (-0.967516, 0, 0.25281), (-0.967516, 0, 0.25281), (-0.967516, 0, 0.25281), (-0.967516, 0, 0.25281), (0, 1, 0), (0, 1, 0), (0, 1, 0), (0, 1, 0), (0, 1, 0), (0, 1, 0), (-0.7068, 0.02945, -0.7068), (0.7068, 0.02945, -0.7068), (-0.7068, 0.02945, -0.7068), (0.7068, 0.02945, -0.7068), (-0.7068, 0.02945, -0.7068), (0.7068, 0.02945, -0.7068), (0.7068, 0.02945, 0.7068), (-0.7068, 0.02945, 0.7068), (0.7068, 0.02945, 0.7068), (-0.7068, 0.02945, 0.7068), (0.7068, 0.02945, 0.7068), (-0.7068, 0.02945, 0.7068), (0.7068, 0.02945, -0.7068), (0.7068, 0.02945, 0.7068), (0.7068, 0.02945, -0.7068), (0.7068, 0.02945, 0.7068), (0.7068, 0.02945, -0.7068), (0.7068, 0.02945, 0.7068), (-0.7068, 0.02945, 0.7068), (-0.7068, 0.02945, -0.7068), (-0.7068, 0.02945, -0.7068), (-0.7068, 0.02945, -0.7068), (-0.7068, 0.02945, 0.7068), (-0.7068, 0.02945, 0.7068), (0, 1, 0), (0, 1, 0), (0, 1, 0), (0, 1, 0), (0, 1, 0), (0, 1, 0), (-0.7068, 0.02945, -0.7068), (0.7068, 0.02945, -0.7068), (-0.7068, 0.02945, -0.7068), (0.7068, 0.02945, -0.7068), (-0.7068, 0.02945, -0.7068), (0.7068, 0.02945, -0.7068), (0.7068, 0.02945, 0.7068), (-0.7068, 0.02945, 0.7068), (0.7068, 0.02945, 0.7068), (-0.7068, 0.02945, 0.7068), (0.7068, 0.02945, 0.7068), (-0.7068, 0.02945, 0.7068), (0.7068, 0.02945, -0.7068), (0.7068, 0.02945, 0.7068), (0.7068, 0.02945, -0.7068), (0.7068, 0.02945, 0.7068), (0.7068, 0.02945, -0.7068), (0.7068, 0.02945, 0.7068), (-0.7068, 0.02945, 0.7068), (-0.7068, 0.02945, -0.7068), (-0.7068, 0.02945, -0.7068), (-0.7068, 0.02945, -0.7068), (-0.7068, 0.02945, 0.7068), (-0.7068, 0.02945, 0.7068), (0, 0, -1), (0, 0, -1), (0, 0, -1), (0, 0, -1), (0, 0, -1), (0, 0, -1), (0, 0, -1), (0, 0, -1), (0, 0, -1), (0, 0, -1), (0, 0, -1), (0, 0, -1), (0, 0, -1), (0, 0, -1), (0, 0, -1), (0, 0, -1), (0, 0, -1), (0, 0, -1), (0, 0, -1), (0, 0, -1), (0, 0, -1), (0, 0, -1), (0, 0, -1), (0, 0, -1), (0, 0, -1), (0, 0, -1), (0, 0, -1), (0, 0, -1), (0, 0, -1), (0, 0, -1), (0.645052, 0, -0.764139), (0.46342, 0, -0.886139), (0.645052, 0, -0.764139), (0.46342, 0, -0.886139), (0.645052, 0, -0.764139), (0.46342, 0, -0.886139), (0.46342, 0, -0.886139), (0, 0, -1), (0.46342, 0, -0.886139), (0, 0, -1), (0.46342, 0, -0.886139), (0, 0, -1), (0, 0, -1), (-0.46342, 0, -0.886139), (0, 0, -1), (-0.46342, 0, -0.886139), (0, 0, -1), (-0.46342, 0, -0.886139), (-0.46342, 0, -0.886139), (-0.645052, 0, -0.764139), (-0.645052, 0, -0.764139), (-0.645052, 0, -0.764139), (-0.46342, 0, -0.886139), (-0.46342, 0, -0.886139), (0, 0, 1), (0, 0, 1), (0, 0, 1), (0, 0, 1), (0, 0, 1), (0, 0, 1), (0, 0, 1), (0, 0, 1), (0, 0, 1), (0, 0, 1), (0, 0, 1), (0, 0, 1), (0, 0, 1), (0, 0, 1), (0, 0, 1), (0, 0, 1), (0, 0, 1), (0, 0, 1), (0.850651, 0.525731, 0), (0.447214, 0.894427, 0), (0.850651, 0.525731, 0), (0.447214, 0.894427, 0), (0.850651, 0.525731, 0), (0.447214, 0.894427, 0), (0.850651, 0.525731, 0), (1, 0, 0), (0.850651, 0.525731, 0), (1, 0, 0), (0.850651, 0.525731, 0), (1, 0, 0), (-1, 0, 0), (-0.850651, 0.525731, 0), (-0.850651, 0.525731, 0), (-0.850651, 0.525731, 0), (-1, 0, 0), (-1, 0, 0), (-0.447214, 0.894427, 0), (-0.850651, 0.525731, 0), (-0.447214, 0.894427, 0), (-0.850651, 0.525731, 0), (-0.447214, 0.894427, 0), (-0.850651, 0.525731, 0), (0.46342, 0, 0.886139), (0, 0, 1), (0.46342, 0, 0.886139), (0, 0, 1), (0.46342, 0, 0.886139), (0, 0, 1), (-0.46342, 0, 0.886139), (-0.906932, 0, 0.421277), (-0.46342, 0, 0.886139), (-0.906932, 0, 0.421277), (-0.46342, 0, 0.886139), (-0.906932, 0, 0.421277), (-1, 0, 0), (-1, 0, 0), (-1, 0, 0), (-1, 0, 0), (-1, 0, 0), (-1, 0, 0), (0, 1, 0), (0, 1, 0), (0, 1, 0), (0, 1, 0), (0, 1, 0), (0, 1, 0), (0, 1, 0), (0, 1, 0), (0, 1, 0), (0, 1, 0), (0, 1, 0), (0, 1, 0), (0, 1, 0), (0, 1, 0), (0, 1, 0), (0, 1, 0), (0, 1, 0), (0, 1, 0), (0, 1, 0), (0, 1, 0), (0, 1, 0), (0, 1, 0), (0, 1, 0), (0, 1, 0), (0, 1, 0), (0, 1, 0), (0, 1, 0), (0, 1, 0), (0, 1, 0), (0, 1, 0), (0, 1, 0), (0, 1, 0), (0, 1, 0), (0, 1, 0), (0, 1, 0), (0, 1, 0), (0, 1, 0), (0, 1, 0), (0, 1, 0), (0, 1, 0), (0, 1, 0), (0, 1, 0), (0, 1, 0), (0, 1, 0), (0, 1, 0), (0, 1, 0), (0, 1, 0), (0, 1, 0), (0.906932, 0, 0.421277), (0.46342, 0, 0.886139), (0.906932, 0, 0.421277), (0.46342, 0, 0.886139), (0.906932, 0, 0.421277), (0.46342, 0, 0.886139), (1, 0, 0), (1, 0, 0), (1, 0, 0), (1, 0, 0), (1, 0, 0), (1, 0, 0), (0.906932, 0, 0.421277), (1, 0, 0), (1, 0, 0), (1, 0, 0), (0.906932, 0, 0.421277), (0.906932, 0, 0.421277), (0, 0, 1), (-0.46342, 0, 0.886139), (0, 0, 1), (-0.46342, 0, 0.886139), (0, 0, 1), (-0.46342, 0, 0.886139), (-0.906932, 0, 0.421277), (-1, 0, 0), (-1, 0, 0), (-1, 0, 0), (-0.906932, 0, 0.421277), (-0.906932, 0, 0.421277), (-0.19509, 0, 0.980785), (-0.707107, 0, 0.707107), (-0.19509, 0, 0.980785), (-0.707107, 0, 0.707107), (-0.19509, 0, 0.980785), (-0.707107, 0, 0.707107), (0.19509, 0, 0.980785), (-0.19509, 0, 0.980785), (0.19509, 0, 0.980785), (-0.19509, 0, 0.980785), (0.19509, 0, 0.980785), (-0.19509, 0, 0.980785), (0.707107, 0, 0.707107), (0.19509, 0, 0.980785), (0.707107, 0, 0.707107), (0.19509, 0, 0.980785), (0.707107, 0, 0.707107), (0.19509, 0, 0.980785), (0.707107, 0, 0.707107), (0.980785, 0, 0.19509), (0.980785, 0, 0.19509), (0.980785, 0, 0.19509), (0.707107, 0, 0.707107), (0.707107, 0, 0.707107), (-0.707107, 0, 0.707107), (-0.980785, 0, 0.19509), (-0.980785, 0, 0.19509), (-0.980785, 0, 0.19509), (-0.707107, 0, 0.707107), (-0.707107, 0, 0.707107), (0.923879, 0, -0.382683), (0.382683, 0, -0.923879), (0.382683, 0, -0.923879), (0.382683, 0, -0.923879), (0.923879, 0, -0.382683), (0.923879, 0, -0.382683), (-0.382683, 0, -0.923879), (0.382683, 0, -0.923879), (-0.382683, 0, -0.923879), (0.382683, 0, -0.923879), (-0.382683, 0, -0.923879), (0.382683, 0, -0.923879), (-0.923879, 0, -0.382683), (-0.382683, 0, -0.923879), (-0.382683, 0, -0.923879), (-0.382683, 0, -0.923879), (-0.923879, 0, -0.382683), (-0.923879, 0, -0.382683), (-0.980785, 0, 0.19509), (-0.923879, 0, -0.382683), (-0.923879, 0, -0.382683), (-0.923879, 0, -0.382683), (-0.980785, 0, 0.19509), (-0.980785, 0, 0.19509), (0, -1, 0), (0, -1, 0), (0, -1, 0), (0, -1, 0), (0, -1, 0), (0, -1, 0), (0, -1, 0), (0, -1, 0), (0, -1, 0), (0, -1, 0), (0, -1, 0), (0, -1, 0), (0, -1, 0), (0, -1, 0), (0, -1, 0), (0, -1, 0), (0, -1, 0), (0, -1, 0), (0, -1, 0), (0, -1, 0), (0, -1, 0), (0, -1, 0), (0, -1, 0), (0, -1, 0), (0, -1, 0), (0, -1, 0), (0, -1, 0), (0, -1, 0), (0, -1, 0), (0, -1, 0), (0, -1, 0), (0, -1, 0), (0, -1, 0), (0, -1, 0), (0, -1, 0), (0, -1, 0), (0, -1, 0), (0, -1, 0), (0, -1, 0), (0, -1, 0), (0, -1, 0), (0, -1, 0), (0, -1, 0), (0, -1, 0), (0, -1, 0), (0, -1, 0), (0, -1, 0), (0, -1, 0), (0, -1, 0), (0, -1, 0), (0, -1, 0), (0, -1, 0), (0, -1, 0), (0, -1, 0), (0, 1, 0), (0, 1, 0), (0, 1, 0), (0, 1, 0), (0, 1, 0), (0, 1, 0), (0, 1, 0), (0, 1, 0), (0, 1, 0), (0, 1, 0), (0, 1, 0), (0, 1, 0), (0, 1, 0), (0, 1, 0), (0, 1, 0), (0, 1, 0), (0, 1, 0), (0, 1, 0), (0, 1, 0), (0, 1, 0), (0, 1, 0), (0, 1, 0), (0, 1, 0), (0, 1, 0), (0.980785, 0, 0.19509), (0.923879, 0, -0.382683), (0.923879, 0, -0.382683), (0.923879, 0, -0.382683), (0.980785, 0, 0.19509), (0.980785, 0, 0.19509), (-1, 0, -2.88936e-14), (-1, 0, -2.88936e-14), (-1, 0, -2.88936e-14), (-1, 0, -2.88936e-14), (-1, 0, -2.88936e-14), (-1, 0, -2.88936e-14), (-2.16609e-14, 0.661802, 0.749678), (-2.88936e-14, 0, 1), (-2.88936e-14, 0, 1), (-2.88936e-14, 0, 1), (-2.16609e-14, 0.661802, 0.749678), (-2.16609e-14, 0.661802, 0.749678), (1, 0, 2.88936e-14), (1, 0, 2.88936e-14), (1, 0, 2.88936e-14), (1, 0, 2.88936e-14), (1, 0, 2.88936e-14), (1, 0, 2.88936e-14), (2.88936e-14, 0, -1), (2.88936e-14, 0, -1), (2.88936e-14, 0, -1), (2.88936e-14, 0, -1), (2.88936e-14, 0, -1), (2.88936e-14, 0, -1), (-2.16609e-14, 0.661802, 0.749678), (-3.5838e-15, 0.992278, 0.124035), (-2.16609e-14, 0.661802, 0.749678), (-3.5838e-15, 0.992278, 0.124035), (-2.16609e-14, 0.661802, 0.749678), (-3.5838e-15, 0.992278, 0.124035), (1, 0, 3.58942e-13), (1, 0, 3.58942e-13), (1, 0, 3.58942e-13), (1, 0, 3.58942e-13), (1, 0, 3.58942e-13), (1, 0, 3.58942e-13), (-1.37361e-13, 0.923879, 0.382683), (1.37361e-13, 0.923879, -0.382683), (-1.37361e-13, 0.923879, 0.382683), (1.37361e-13, 0.923879, -0.382683), (-1.37361e-13, 0.923879, 0.382683), (1.37361e-13, 0.923879, -0.382683), (-1, 0, -3.58942e-13), (-1, 0, -3.58942e-13), (-1, 0, -3.58942e-13), (-1, 0, -3.58942e-13), (-1, 0, -3.58942e-13), (-1, 0, -3.58942e-13), (1.37361e-13, 0.923879, -0.382683), (2.5381e-13, 0.707107, -0.707107), (1.37361e-13, 0.923879, -0.382683), (2.5381e-13, 0.707107, -0.707107), (1.37361e-13, 0.923879, -0.382683), (2.5381e-13, 0.707107, -0.707107), (-2.5381e-13, 0.707107, 0.707107), (-1.37361e-13, 0.923879, 0.382683), (-2.5381e-13, 0.707107, 0.707107), (-1.37361e-13, 0.923879, 0.382683), (-2.5381e-13, 0.707107, 0.707107), (-1.37361e-13, 0.923879, 0.382683), (1, 0, 3.58942e-13), (1, 0, 3.58942e-13), (1, 0, 3.58942e-13), (1, 0, 3.58942e-13), (1, 0, 3.58942e-13), (1, 0, 3.58942e-13), (-1.37361e-13, 0.923879, 0.382683), (1.37361e-13, 0.923879, -0.382683), (-1.37361e-13, 0.923879, 0.382683), (1.37361e-13, 0.923879, -0.382683), (-1.37361e-13, 0.923879, 0.382683), (1.37361e-13, 0.923879, -0.382683), (-1, 0, -3.58942e-13), (-1, 0, -3.58942e-13), (-1, 0, -3.58942e-13), (-1, 0, -3.58942e-13), (-1, 0, -3.58942e-13), (-1, 0, -3.58942e-13), (1.37361e-13, 0.923879, -0.382683), (2.5381e-13, 0.707107, -0.707107), (1.37361e-13, 0.923879, -0.382683), (2.5381e-13, 0.707107, -0.707107), (1.37361e-13, 0.923879, -0.382683), (2.5381e-13, 0.707107, -0.707107), (-2.5381e-13, 0.707107, 0.707107), (-1.37361e-13, 0.923879, 0.382683), (-2.5381e-13, 0.707107, 0.707107), (-1.37361e-13, 0.923879, 0.382683), (-2.5381e-13, 0.707107, 0.707107), (-1.37361e-13, 0.923879, 0.382683), (0, -1, 0), (0, -1, 0), (0, -1, 0), (0, -1, 0), (0, -1, 0), (0, -1, 0), (0, -1, 0), (0, -1, 0), (0, -1, 0), (0, -1, 0), (0, -1, 0), (0, -1, 0), (0, -1, 0), (0, -1, 0), (0, -1, 0), (0, 1, 0), (0, 1, 0), (0, 1, 0), (0, 1, 0), (0, 1, 0), (0, 1, 0), (0, 1, 0), (0, 1, 0), (0, 1, 0), (0, 1, 0), (0, 1, 0), (0, 1, 0), (0, 1, 0), (0, 1, 0), (0, 1, 0), (0, 1, 0), (0, 1, 0), (0, 1, 0), (0, 1, 0), (0, 1, 0), (0, 1, 0), (0, 1, 0), (0, 1, 0), (0, 1, 0), (0, 1, 0), (0, 1, 0), (0, 1, 0), (0.382683, 0, 0.923879), (0.19509, 0, 0.980785), (0.382683, 0, 0.923879), (0.19509, 0, 0.980785), (0.382683, 0, 0.923879), (0.19509, 0, 0.980785), (-0.19509, 0, 0.980785), (-0.382683, 0, 0.923879), (-0.19509, 0, 0.980785), (-0.382683, 0, 0.923879), (-0.19509, 0, 0.980785), (-0.382683, 0, 0.923879), (0.19509, 0, 0.980785), (-0.19509, 0, 0.980785), (0.19509, 0, 0.980785), (-0.19509, 0, 0.980785), (0.19509, 0, 0.980785), (-0.19509, 0, 0.980785), (0, -0.5547, -0.83205), (0, -0.5547, -0.83205), (0, -0.5547, -0.83205), (0, -0.5547, -0.83205), (0, -0.5547, -0.83205), (0, -0.5547, -0.83205), (-0.236947, -0.848734, 0.472764), (-0.614369, -0.768993, 0.176638), (-0.257795, -0.846977, 0.464942), (-0.614369, -0.768993, 0.176638), (-0.236947, -0.848734, 0.472764), (-0.509689, -0.810035, 0.289931), (0.347397, -0.644064, 0.68154), (0, -0.658505, 0.752577), (0.364175, -0.642844, 0.67389), (0, -0.658505, 0.752577), (0.347397, -0.644064, 0.68154), (0, -0.658505, 0.752577), (0, -0.859293, 0.511484), (0.257795, -0.846977, 0.464942), (0.236947, -0.848734, 0.472764), (0.257795, -0.846977, 0.464942), (0, -0.859293, 0.511484), (0, -0.859293, 0.511484), (-0.236947, -0.848734, 0.472764), (0, -0.859293, 0.511484), (0, -0.859293, 0.511484), (0, -0.859293, 0.511484), (-0.236947, -0.848734, 0.472764), (-0.257795, -0.846977, 0.464942), (0.706938, -0.598928, 0.376197), (0.883116, -0.469155, 0), (0.883116, -0.469155, 0), (0.883116, -0.469155, 0), (0.706938, -0.598928, 0.376197), (0.769315, -0.574561, 0.279347), (-0.769315, -0.574561, 0.279347), (-0.883116, -0.469155, 0), (-0.883116, -0.469155, 0), (-0.883116, -0.469155, 0), (-0.769315, -0.574561, 0.279347), (-0.706938, -0.598928, 0.376197), (-0.740833, -0.671689, 0), (-0.509689, -0.810035, 0.289931), (-0.740833, -0.671689, 0), (-0.509689, -0.810035, 0.289931), (-0.740833, -0.671689, 0), (-0.614369, -0.768993, 0.176638), (-0.347397, -0.644064, 0.68154), (-0.769315, -0.574561, 0.279347), (-0.364175, -0.642844, 0.67389), (-0.769315, -0.574561, 0.279347), (-0.347397, -0.644064, 0.68154), (-0.706938, -0.598928, 0.376197), (0.236947, -0.848734, 0.472764), (0.614369, -0.768993, 0.176638), (0.509689, -0.810035, 0.289931), (0.614369, -0.768993, 0.176638), (0.236947, -0.848734, 0.472764), (0.257795, -0.846977, 0.464942), (0.347397, -0.644064, 0.68154), (0.769315, -0.574561, 0.279347), (0.706938, -0.598928, 0.376197), (0.769315, -0.574561, 0.279347), (0.347397, -0.644064, 0.68154), (0.364175, -0.642844, 0.67389), (0.509689, -0.810035, 0.289931), (0.740833, -0.671689, 0), (0.740833, -0.671689, 0), (0.740833, -0.671689, 0), (0.509689, -0.810035, 0.289931), (0.614369, -0.768993, 0.176638), (0, -1, 0), (0, -1, 0), (0, -1, 0), (0, -1, 0), (0, -1, 0), (0, -1, 0), (0, -1, 0), (0, -1, 0), (0, -1, 0), (0, -1, 0), (0, -1, 0), (0, -1, 0), (0, -1, 0), (0, -1, 0), (0, -1, 0), (0, -0.658505, 0.752577), (-0.364175, -0.642844, 0.67389), (0, -0.658505, 0.752577), (-0.364175, -0.642844, 0.67389), (0, -0.658505, 0.752577), (-0.347397, -0.644064, 0.68154), (0, 0, -1), (0, 0, -1), (0, 0, -1), (0, 0, -1), (0, 0, -1), (0, 0, -1), (0.923879, 0, 0.382683), (0.980785, 0, 0.19509), (0.980785, 0, 0.19509), (0.980785, 0, 0.19509), (0.923879, 0, 0.382683), (0.923879, 0, 0.382683), (0.923879, 0, 0.382683), (0.923879, 0, 0.382683), (0.923879, 0, 0.382683), (-0.923879, 0, 0.382683), (-0.980785, 0, 0.19509), (-0.980785, 0, 0.19509), (-0.980785, 0, 0.19509), (-0.923879, 0, 0.382683), (-0.923879, 0, 0.382683), (-0.923879, 0, 0.382683), (-0.923879, 0, 0.382683), (-0.923879, 0, 0.382683), (-0.19509, 0, 0.980785), (-0.382683, 0, 0.923879), (-0.19509, 0, 0.980785), (-0.382683, 0, 0.923879), (-0.19509, 0, 0.980785), (-0.382683, 0, 0.923879), (0.19509, 0, 0.980785), (-0.19509, 0, 0.980785), (0.19509, 0, 0.980785), (-0.19509, 0, 0.980785), (0.19509, 0, 0.980785), (-0.19509, 0, 0.980785), (0.382683, 0, 0.923879), (0.19509, 0, 0.980785), (0.382683, 0, 0.923879), (0.19509, 0, 0.980785), (0.382683, 0, 0.923879), (0.19509, 0, 0.980785), (-0.980785, 0, 0.19509), (-1, 0, 0), (-1, 0, 0), (-1, 0, 0), (-0.980785, 0, 0.19509), (-0.980785, 0, 0.19509), (0.980785, 0, 0.19509), (1, 0, 0), (1, 0, 0), (1, 0, 0), (0.980785, 0, 0.19509), (0.980785, 0, 0.19509), (-2.06355e-14, 0.699951, 0.714191), (-2.88936e-14, 0, 1), (-2.88936e-14, 0, 1), (-2.88936e-14, 0, 1), (-2.06355e-14, 0.699951, 0.714191), (-2.06355e-14, 0.699951, 0.714191), (0.967516, 0, 0.25281), (0.967516, 0, 0.25281), (0.967516, 0, 0.25281), (0.967516, 0, 0.25281), (0.967516, 0, 0.25281), (0.967516, 0, 0.25281), (-2.06355e-14, 0.699951, 0.714191), (-4.27071e-15, 0.989016, 0.147809), (-4.27071e-15, 0.989016, 0.147809), (-4.27071e-15, 0.989016, 0.147809), (-2.06355e-14, 0.699951, 0.714191), (-2.06355e-14, 0.699951, 0.714191), (-0.967516, 0, 0.25281), (-0.967516, 0, 0.25281), (-0.967516, 0, 0.25281), (-0.967516, 0, 0.25281), (-0.967516, 0, 0.25281), (-0.967516, 0, 0.25281), (0, 1, 0), (0, 1, 0), (0, 1, 0), (0, 1, 0), (0, 1, 0), (0, 1, 0), (-0.7068, 0.02945, -0.7068), (0.7068, 0.02945, -0.7068), (-0.7068, 0.02945, -0.7068), (0.7068, 0.02945, -0.7068), (-0.7068, 0.02945, -0.7068), (0.7068, 0.02945, -0.7068), (0.7068, 0.02945, 0.7068), (-0.7068, 0.02945, 0.7068), (0.7068, 0.02945, 0.7068), (-0.7068, 0.02945, 0.7068), (0.7068, 0.02945, 0.7068), (-0.7068, 0.02945, 0.7068), (0.7068, 0.02945, -0.7068), (0.7068, 0.02945, 0.7068), (0.7068, 0.02945, -0.7068), (0.7068, 0.02945, 0.7068), (0.7068, 0.02945, -0.7068), (0.7068, 0.02945, 0.7068), (-0.7068, 0.02945, 0.7068), (-0.7068, 0.02945, -0.7068), (-0.7068, 0.02945, -0.7068), (-0.7068, 0.02945, -0.7068), (-0.7068, 0.02945, 0.7068), (-0.7068, 0.02945, 0.7068), (0, 1, 0), (0, 1, 0), (0, 1, 0), (0, 1, 0), (0, 1, 0), (0, 1, 0), (-0.7068, 0.02945, -0.7068), (0.7068, 0.02945, -0.7068), (-0.7068, 0.02945, -0.7068), (0.7068, 0.02945, -0.7068), (-0.7068, 0.02945, -0.7068), (0.7068, 0.02945, -0.7068), (0.7068, 0.02945, 0.7068), (-0.7068, 0.02945, 0.7068), (0.7068, 0.02945, 0.7068), (-0.7068, 0.02945, 0.7068), (0.7068, 0.02945, 0.7068), (-0.7068, 0.02945, 0.7068), (0.7068, 0.02945, -0.7068), (0.7068, 0.02945, 0.7068), (0.7068, 0.02945, -0.7068), (0.7068, 0.02945, 0.7068), (0.7068, 0.02945, -0.7068), (0.7068, 0.02945, 0.7068), (-0.7068, 0.02945, 0.7068), (-0.7068, 0.02945, -0.7068), (-0.7068, 0.02945, -0.7068), (-0.7068, 0.02945, -0.7068), (-0.7068, 0.02945, 0.7068), (-0.7068, 0.02945, 0.7068), (0, 0, -1), (0, 0, -1), (0, 0, -1), (0, 0, -1), (0, 0, -1), (0, 0, -1), (0, 0, -1), (0, 0, -1), (0, 0, -1), (0, 0, -1), (0, 0, -1), (0, 0, -1), (0, 0, -1), (0, 0, -1), (0, 0, -1), (0, 0, -1), (0, 0, -1), (0, 0, -1), (0, 0, -1), (0, 0, -1), (0, 0, -1), (0, 0, -1), (0, 0, -1), (0, 0, -1), (0, 0, -1), (0, 0, -1), (0, 0, -1), (0, 0, -1), (0, 0, -1), (0, 0, -1), (0.645052, 0, -0.764139), (0.46342, 0, -0.886139), (0.645052, 0, -0.764139), (0.46342, 0, -0.886139), (0.645052, 0, -0.764139), (0.46342, 0, -0.886139), (0.46342, 0, -0.886139), (0, 0, -1), (0.46342, 0, -0.886139), (0, 0, -1), (0.46342, 0, -0.886139), (0, 0, -1), (0, 0, -1), (-0.46342, 0, -0.886139), (0, 0, -1), (-0.46342, 0, -0.886139), (0, 0, -1), (-0.46342, 0, -0.886139), (-0.46342, 0, -0.886139), (-0.645052, 0, -0.764139), (-0.645052, 0, -0.764139), (-0.645052, 0, -0.764139), (-0.46342, 0, -0.886139), (-0.46342, 0, -0.886139), (0, 0, 1), (0, 0, 1), (0, 0, 1), (0, 0, 1), (0, 0, 1), (0, 0, 1), (0, 0, 1), (0, 0, 1), (0, 0, 1), (0, 0, 1), (0, 0, 1), (0, 0, 1), (0, 0, 1), (0, 0, 1), (0, 0, 1), (0, 0, 1), (0, 0, 1), (0, 0, 1), (0.850651, 0.525731, 0), (0.447214, 0.894427, 0), (0.850651, 0.525731, 0), (0.447214, 0.894427, 0), (0.850651, 0.525731, 0), (0.447214, 0.894427, 0), (0.850651, 0.525731, 0), (1, 0, 0), (0.850651, 0.525731, 0), (1, 0, 0), (0.850651, 0.525731, 0), (1, 0, 0), (-1, 0, 0), (-0.850651, 0.525731, 0), (-0.850651, 0.525731, 0), (-0.850651, 0.525731, 0), (-1, 0, 0), (-1, 0, 0), (-0.447214, 0.894427, 0), (-0.850651, 0.525731, 0), (-0.447214, 0.894427, 0), (-0.850651, 0.525731, 0), (-0.447214, 0.894427, 0), (-0.850651, 0.525731, 0), (0.46342, 0, 0.886139), (0, 0, 1), (0.46342, 0, 0.886139), (0, 0, 1), (0.46342, 0, 0.886139), (0, 0, 1), (-0.46342, 0, 0.886139), (-0.906932, 0, 0.421277), (-0.46342, 0, 0.886139), (-0.906932, 0, 0.421277), (-0.46342, 0, 0.886139), (-0.906932, 0, 0.421277), (-1, 0, 0), (-1, 0, 0), (-1, 0, 0), (-1, 0, 0), (-1, 0, 0), (-1, 0, 0), (0, 1, 0), (0, 1, 0), (0, 1, 0), (0, 1, 0), (0, 1, 0), (0, 1, 0), (0, 1, 0), (0, 1, 0), (0, 1, 0), (0, 1, 0), (0, 1, 0), (0, 1, 0), (0, 1, 0), (0, 1, 0), (0, 1, 0), (0, 1, 0), (0, 1, 0), (0, 1, 0), (0, 1, 0), (0, 1, 0), (0, 1, 0), (0, 1, 0), (0, 1, 0), (0, 1, 0), (0, 1, 0), (0, 1, 0), (0, 1, 0), (0, 1, 0), (0, 1, 0), (0, 1, 0), (0, 1, 0), (0, 1, 0), (0, 1, 0), (0, 1, 0), (0, 1, 0), (0, 1, 0), (0, 1, 0), (0, 1, 0), (0, 1, 0), (0, 1, 0), (0, 1, 0), (0, 1, 0), (0, 1, 0), (0, 1, 0), (0, 1, 0), (0, 1, 0), (0, 1, 0), (0, 1, 0), (0.906932, 0, 0.421277), (0.46342, 0, 0.886139), (0.906932, 0, 0.421277), (0.46342, 0, 0.886139), (0.906932, 0, 0.421277), (0.46342, 0, 0.886139), (1, 0, 0), (1, 0, 0), (1, 0, 0), (1, 0, 0), (1, 0, 0), (1, 0, 0), (0.906932, 0, 0.421277), (1, 0, 0), (1, 0, 0), (1, 0, 0), (0.906932, 0, 0.421277), (0.906932, 0, 0.421277), (0, 0, 1), (-0.46342, 0, 0.886139), (0, 0, 1), (-0.46342, 0, 0.886139), (0, 0, 1), (-0.46342, 0, 0.886139), (-0.906932, 0, 0.421277), (-1, 0, 0), (-1, 0, 0), (-1, 0, 0), (-0.906932, 0, 0.421277), (-0.906932, 0, 0.421277), (-0.19509, 0, 0.980785), (-0.707107, 0, 0.707107), (-0.19509, 0, 0.980785), (-0.707107, 0, 0.707107), (-0.19509, 0, 0.980785), (-0.707107, 0, 0.707107), (0.19509, 0, 0.980785), (-0.19509, 0, 0.980785), (0.19509, 0, 0.980785), (-0.19509, 0, 0.980785), (0.19509, 0, 0.980785), (-0.19509, 0, 0.980785), (0.707107, 0, 0.707107), (0.19509, 0, 0.980785), (0.707107, 0, 0.707107), (0.19509, 0, 0.980785), (0.707107, 0, 0.707107), (0.19509, 0, 0.980785), (0.707107, 0, 0.707107), (0.980785, 0, 0.19509), (0.980785, 0, 0.19509), (0.980785, 0, 0.19509), (0.707107, 0, 0.707107), (0.707107, 0, 0.707107), (-0.707107, 0, 0.707107), (-0.980785, 0, 0.19509), (-0.980785, 0, 0.19509), (-0.980785, 0, 0.19509), (-0.707107, 0, 0.707107), (-0.707107, 0, 0.707107), (0.923879, 0, -0.382683), (0.382683, 0, -0.923879), (0.382683, 0, -0.923879), (0.382683, 0, -0.923879), (0.923879, 0, -0.382683), (0.923879, 0, -0.382683), (-0.382683, 0, -0.923879), (0.382683, 0, -0.923879), (-0.382683, 0, -0.923879), (0.382683, 0, -0.923879), (-0.382683, 0, -0.923879), (0.382683, 0, -0.923879), (-0.923879, 0, -0.382683), (-0.382683, 0, -0.923879), (-0.382683, 0, -0.923879), (-0.382683, 0, -0.923879), (-0.923879, 0, -0.382683), (-0.923879, 0, -0.382683), (-0.980785, 0, 0.19509), (-0.923879, 0, -0.382683), (-0.923879, 0, -0.382683), (-0.923879, 0, -0.382683), (-0.980785, 0, 0.19509), (-0.980785, 0, 0.19509), (0, -1, 0), (0, -1, 0), (0, -1, 0), (0, -1, 0), (0, -1, 0), (0, -1, 0), (0, -1, 0), (0, -1, 0), (0, -1, 0), (0, -1, 0), (0, -1, 0), (0, -1, 0), (0, -1, 0), (0, -1, 0), (0, -1, 0), (0, -1, 0), (0, -1, 0), (0, -1, 0), (0, -1, 0), (0, -1, 0), (0, -1, 0), (0, -1, 0), (0, -1, 0), (0, -1, 0), (0, -1, 0), (0, -1, 0), (0, -1, 0), (0, -1, 0), (0, -1, 0), (0, -1, 0), (0, -1, 0), (0, -1, 0), (0, -1, 0), (0, -1, 0), (0, -1, 0), (0, -1, 0), (0, -1, 0), (0, -1, 0), (0, -1, 0), (0, -1, 0), (0, -1, 0), (0, -1, 0), (0, -1, 0), (0, -1, 0), (0, -1, 0), (0, -1, 0), (0, -1, 0), (0, -1, 0), (0, -1, 0), (0, -1, 0), (0, -1, 0), (0, -1, 0), (0, -1, 0), (0, -1, 0), (0, 1, 0), (0, 1, 0), (0, 1, 0), (0, 1, 0), (0, 1, 0), (0, 1, 0), (0, 1, 0), (0, 1, 0), (0, 1, 0), (0, 1, 0), (0, 1, 0), (0, 1, 0), (0, 1, 0), (0, 1, 0), (0, 1, 0), (0, 1, 0), (0, 1, 0), (0, 1, 0), (0, 1, 0), (0, 1, 0), (0, 1, 0), (0, 1, 0), (0, 1, 0), (0, 1, 0), (0.980785, 0, 0.19509), (0.923879, 0, -0.382683), (0.923879, 0, -0.382683), (0.923879, 0, -0.382683), (0.980785, 0, 0.19509), (0.980785, 0, 0.19509), (-1, 0, -2.88936e-14), (-1, 0, -2.88936e-14), (-1, 0, -2.88936e-14), (-1, 0, -2.88936e-14), (-1, 0, -2.88936e-14), (-1, 0, -2.88936e-14), (-2.16609e-14, 0.661802, 0.749678), (-2.88936e-14, 0, 1), (-2.88936e-14, 0, 1), (-2.88936e-14, 0, 1), (-2.16609e-14, 0.661802, 0.749678), (-2.16609e-14, 0.661802, 0.749678), (1, 0, 2.88936e-14), (1, 0, 2.88936e-14), (1, 0, 2.88936e-14), (1, 0, 2.88936e-14), (1, 0, 2.88936e-14), (1, 0, 2.88936e-14), (2.88936e-14, 0, -1), (2.88936e-14, 0, -1), (2.88936e-14, 0, -1), (2.88936e-14, 0, -1), (2.88936e-14, 0, -1), (2.88936e-14, 0, -1), (-2.16609e-14, 0.661802, 0.749678), (-3.5838e-15, 0.992278, 0.124035), (-2.16609e-14, 0.661802, 0.749678), (-3.5838e-15, 0.992278, 0.124035), (-2.16609e-14, 0.661802, 0.749678), (-3.5838e-15, 0.992278, 0.124035), (1, 0, 3.58942e-13), (1, 0, 3.58942e-13), (1, 0, 3.58942e-13), (1, 0, 3.58942e-13), (1, 0, 3.58942e-13), (1, 0, 3.58942e-13), (-1.37361e-13, 0.923879, 0.382683), (1.37361e-13, 0.923879, -0.382683), (-1.37361e-13, 0.923879, 0.382683), (1.37361e-13, 0.923879, -0.382683), (-1.37361e-13, 0.923879, 0.382683), (1.37361e-13, 0.923879, -0.382683), (-1, 0, -3.58942e-13), (-1, 0, -3.58942e-13), (-1, 0, -3.58942e-13), (-1, 0, -3.58942e-13), (-1, 0, -3.58942e-13), (-1, 0, -3.58942e-13), (1.37361e-13, 0.923879, -0.382683), (2.5381e-13, 0.707107, -0.707107), (1.37361e-13, 0.923879, -0.382683), (2.5381e-13, 0.707107, -0.707107), (1.37361e-13, 0.923879, -0.382683), (2.5381e-13, 0.707107, -0.707107), (-2.5381e-13, 0.707107, 0.707107), (-1.37361e-13, 0.923879, 0.382683), (-2.5381e-13, 0.707107, 0.707107), (-1.37361e-13, 0.923879, 0.382683), (-2.5381e-13, 0.707107, 0.707107), (-1.37361e-13, 0.923879, 0.382683), (1, 0, 3.58942e-13), (1, 0, 3.58942e-13), (1, 0, 3.58942e-13), (1, 0, 3.58942e-13), (1, 0, 3.58942e-13), (1, 0, 3.58942e-13), (-1.37361e-13, 0.923879, 0.382683), (1.37361e-13, 0.923879, -0.382683), (-1.37361e-13, 0.923879, 0.382683), (1.37361e-13, 0.923879, -0.382683), (-1.37361e-13, 0.923879, 0.382683), (1.37361e-13, 0.923879, -0.382683), (-1, 0, -3.58942e-13), (-1, 0, -3.58942e-13), (-1, 0, -3.58942e-13), (-1, 0, -3.58942e-13), (-1, 0, -3.58942e-13), (-1, 0, -3.58942e-13), (1.37361e-13, 0.923879, -0.382683), (2.5381e-13, 0.707107, -0.707107), (1.37361e-13, 0.923879, -0.382683), (2.5381e-13, 0.707107, -0.707107), (1.37361e-13, 0.923879, -0.382683), (2.5381e-13, 0.707107, -0.707107), (-2.5381e-13, 0.707107, 0.707107), (-1.37361e-13, 0.923879, 0.382683), (-2.5381e-13, 0.707107, 0.707107), (-1.37361e-13, 0.923879, 0.382683), (-2.5381e-13, 0.707107, 0.707107), (-1.37361e-13, 0.923879, 0.382683), (0, -1, 0), (0, -1, 0), (0, -1, 0), (0, -1, 0), (0, -1, 0), (0, -1, 0), (0, -1, 0), (0, -1, 0), (0, -1, 0), (0, -1, 0), (0, -1, 0), (0, -1, 0), (0, -1, 0), (0, -1, 0), (0, -1, 0), (0, 1, 0), (0, 1, 0), (0, 1, 0), (0, 1, 0), (0, 1, 0), (0, 1, 0), (0, 1, 0), (0, 1, 0), (0, 1, 0), (0, 1, 0), (0, 1, 0), (0, 1, 0), (0, 1, 0), (0, 1, 0), (0, 1, 0), (0, 1, 0), (0, 1, 0), (0, 1, 0), (0, 1, 0), (0, 1, 0), (0, 1, 0), (0, 1, 0), (0, 1, 0), (0, 1, 0), (0, 1, 0), (0, 1, 0), (0, 1, 0), (0.382683, 0, 0.923879), (0.19509, 0, 0.980785), (0.382683, 0, 0.923879), (0.19509, 0, 0.980785), (0.382683, 0, 0.923879), (0.19509, 0, 0.980785), (-0.19509, 0, 0.980785), (-0.382683, 0, 0.923879), (-0.19509, 0, 0.980785), (-0.382683, 0, 0.923879), (-0.19509, 0, 0.980785), (-0.382683, 0, 0.923879), (0.19509, 0, 0.980785), (-0.19509, 0, 0.980785), (0.19509, 0, 0.980785), (-0.19509, 0, 0.980785), (0.19509, 0, 0.980785), (-0.19509, 0, 0.980785)] (interpolation = "faceVarying")
        texCoord2f[] primvars:st = [(0.71875, 0.085), (0.71875, 0.025), (0.71875, 0.025), (0.71875, 0.025), (0.71875, 0.085), (0.71875, 0.085), (0.71875, 0.085), (0.71875, 0.025), (0.71875, 0.025), (0.71875, 0.025), (0.71875, 0.085), (0.71875, 0.085), (0.71875, 0.165), (0.71875, 0.085), (0.71875, 0.085), (0.71875, 0.085), (0.71875, 0.165), (0.71875, 0.165), (0.71875, 0.085), (0.71875, 0.025), (0.71875, 0.085), (0.71875, 0.025), (0.71875, 0.085), (0.71875, 0.025), (0.71875, 0.085), (0.71875, 0.025), (0.71875, 0.085), (0.71875, 0.025), (0.71875, 0.085), (0.71875, 0.025), (0.71875, 0.165), (0.71875, 0.085), (0.71875, 0.165), (0.71875, 0.085), (0.71875, 0.165), (0.71875, 0.085), (0.71875, 0.085), (0.71875, 0.165), (0.71875, 0.085), (0.71875, 0.165), (0.71875, 0.085), (0.71875, 0.165), (0.71875, 0.025), (0.71875, 0.085), (0.71875, 0.085), (0.71875, 0.085), (0.71875, 0.025), (0.71875, 0.025), (0.71875, 0.165), (0.71875, 0.085), (0.71875, 0.085), (0.71875, 0.085), (0.71875, 0.165), (0.71875, 0.165), (0.71875, 0.085), (0.71875, 0.025), (0.71875, 0.085), (0.71875, 0.025), (0.71875, 0.085), (0.71875, 0.025), (0.71875, 0.165), (0.71875, 0.085), (0.71875, 0.165), (0.71875, 0.085), (0.71875, 0.165), (0.71875, 0.085), (0.71875, 0.085), (0.71875, 0.025), (0.71875, 0.085), (0.71875, 0.025), (0.71875, 0.085), (0.71875, 0.025), (0.71875, 0.025), (0.71875, 0.025), (0.71875, 0.025), (0.71875, 0.025), (0.71875, 0.025), (0.71875, 0.025), (0.71875, 0.025), (0.71875, 0.025), (0.71875, 0.025), (0.71875, 0.025), (0.71875, 0.025), (0.71875, 0.025), (0.71875, 0.025), (0.71875, 0.025), (0.71875, 0.025), (0.71875, 0.165), (0.71875, 0.085), (0.71875, 0.085), (0.71875, 0.085), (0.71875, 0.165), (0.71875, 0.165), (0.71875, 0.025), (0.71875, 0.180556), (0.71875, 0.025), (0.71875, 0.180556), (0.71875, 0.025), (0.71875, 0.180556), (0.71875, 0.180556), (0.71875, 0.025), (0.71875, 0.180556), (0.71875, 0.025), (0.71875, 0.180556), (0.71875, 0.025), (0.71875, 0.025), (0.71875, 0.180556), (0.71875, 0.102778), (0.71875, 0.025), (0.71875, 0.180556), (0.71875, 0.025), (0.71875, 0.180556), (0.71875, 0.025), (0.71875, 0.180556), (0.71875, 0.180556), (0.71875, 0.025), (0.71875, 0.102778), (0.71875, 0.102778), (0.71875, 0.025), (0.71875, 0.025), (0.71875, 0.025), (0.71875, 0.102778), (0.71875, 0.102778), (0.71875, 0.102778), (0.71875, 0.025), (0.71875, 0.025), (0.71875, 0.025), (0.71875, 0.102778), (0.71875, 0.102778), (0.71875, 0.102778), (0.71875, 0.025), (0.71875, 0.025), (0.71875, 0.025), (0.71875, 0.102778), (0.71875, 0.102778), (0.71875, 0.025), (0.71875, 0.180556), (0.71875, 0.025), (0.71875, 0.180556), (0.71875, 0.025), (0.71875, 0.180556), (0.71875, 0.180556), (0.71875, 0.025), (0.71875, 0.180556), (0.71875, 0.025), (0.71875, 0.180556), (0.71875, 0.025), (0.71875, 0.175), (0.71875, 0.025), (0.71875, 0.025), (0.71875, 0.025), (0.71875, 0.175), (0.71875, 0.175), (0.71875, 0.025), (0.71875, 0.175), (0.71875, 0.025), (0.71875, 0.175), (0.71875, 0.025), (0.71875, 0.225), (0.71875, 0.175), (0.71875, 0.225), (0.71875, 0.225), (0.71875, 0.225), (0.71875, 0.175), (0.71875, 0.175), (0.71875, 0.225), (0.71875, 0.025), (0.71875, 0.175), (0.71875, 0.025), (0.71875, 0.225), (0.71875, 0.025), (0.71875, 0.225), (0.71875, 0.225), (0.71875, 0.225), (0.71875, 0.225), (0.71875, 0.225), (0.71875, 0.225), (0.71875, 0.225), (0.71875, 0.025), (0.71875, 0.025), (0.71875, 0.025), (0.71875, 0.225), (0.71875, 0.225), (0.71875, 0.225), (0.71875, 0.025), (0.71875, 0.025), (0.71875, 0.025), (0.71875, 0.225), (0.71875, 0.225), (0.71875, 0.225), (0.71875, 0.025), (0.71875, 0.025), (0.71875, 0.025), (0.71875, 0.225), (0.71875, 0.225), (0.71875, 0.025), (0.71875, 0.225), (0.71875, 0.025), (0.71875, 0.225), (0.71875, 0.025), (0.71875, 0.225), (0.71875, 0.225), (0.71875, 0.225), (0.71875, 0.225), (0.71875, 0.225), (0.71875, 0.225), (0.71875, 0.225), (0.71875, 0.225), (0.71875, 0.025), (0.71875, 0.025), (0.71875, 0.025), (0.71875, 0.225), (0.71875, 0.225), (0.71875, 0.225), (0.71875, 0.025), (0.71875, 0.025), (0.71875, 0.025), (0.71875, 0.225), (0.71875, 0.225), (0.71875, 0.225), (0.71875, 0.025), (0.71875, 0.025), (0.71875, 0.025), (0.71875, 0.225), (0.71875, 0.225), (0.71875, 0.025), (0.71875, 0.225), (0.71875, 0.025), (0.71875, 0.225), (0.71875, 0.025), (0.71875, 0.225), (0.84375, 0.415), (0.84375, 0.335), (0.84375, 0.335), (0.84375, 0.335), (0.84375, 0.415), (0.84375, 0.415), (0.84375, 0.415), (0.84375, 0.415), (0.84375, 0.435), (0.84375, 0.435), (0.84375, 0.415), (0.84375, 0.475), (0.84375, 0.435), (0.84375, 0.475), (0.84375, 0.455), (0.84375, 0.455), (0.84375, 0.475), (0.84375, 0.475), (0.84375, 0.435), (0.84375, 0.415), (0.84375, 0.435), (0.84375, 0.415), (0.84375, 0.435), (0.84375, 0.475), (0.84375, 0.475), (0.84375, 0.435), (0.84375, 0.455), (0.84375, 0.475), (0.84375, 0.455), (0.84375, 0.475), (0.84375, 0.475), (0.84375, 0.435), (0.84375, 0.435), (0.84375, 0.435), (0.84375, 0.475), (0.84375, 0.475), (0.84375, 0.475), (0.84375, 0.435), (0.84375, 0.435), (0.84375, 0.435), (0.84375, 0.475), (0.84375, 0.475), (0.84375, 0.475), (0.84375, 0.435), (0.84375, 0.435), (0.84375, 0.435), (0.84375, 0.475), (0.84375, 0.475), (0.84375, 0.435), (0.84375, 0.475), (0.84375, 0.435), (0.84375, 0.475), (0.84375, 0.435), (0.84375, 0.475), (0.84375, 0.455), (0.84375, 0.435), (0.84375, 0.435), (0.84375, 0.435), (0.84375, 0.455), (0.84375, 0.475), (0.84375, 0.475), (0.84375, 0.455), (0.84375, 0.475), (0.84375, 0.475), (0.84375, 0.435), (0.84375, 0.435), (0.84375, 0.435), (0.84375, 0.475), (0.84375, 0.455), (0.84375, 0.455), (0.84375, 0.475), (0.84375, 0.475), (0.84375, 0.455), (0.84375, 0.475), (0.84375, 0.455), (0.84375, 0.475), (0.84375, 0.455), (0.84375, 0.475), (0.84375, 0.455), (0.84375, 0.435), (0.84375, 0.455), (0.84375, 0.435), (0.84375, 0.455), (0.84375, 0.435), (0.84375, 0.435), (0.84375, 0.455), (0.84375, 0.455), (0.84375, 0.455), (0.84375, 0.435), (0.84375, 0.435), (0.84375, 0.475), (0.84375, 0.455), (0.84375, 0.475), (0.84375, 0.455), (0.84375, 0.475), (0.84375, 0.455), (0.84375, 0.475), (0.84375, 0.415), (0.84375, 0.415), (0.84375, 0.415), (0.84375, 0.475), (0.84375, 0.475), (0.84375, 0.475), (0.84375, 0.415), (0.84375, 0.415), (0.84375, 0.415), (0.84375, 0.475), (0.84375, 0.475), (0.84375, 0.435), (0.84375, 0.475), (0.84375, 0.435), (0.84375, 0.475), (0.84375, 0.435), (0.84375, 0.475), (0.84375, 0.475), (0.84375, 0.475), (0.84375, 0.475), (0.84375, 0.475), (0.84375, 0.475), (0.84375, 0.475), (0.84375, 0.475), (0.84375, 0.475), (0.84375, 0.475), (0.84375, 0.475), (0.84375, 0.475), (0.84375, 0.475), (0.84375, 0.475), (0.84375, 0.475), (0.84375, 0.475), (0.84375, 0.475), (0.84375, 0.475), (0.84375, 0.475), (0.84375, 0.475), (0.84375, 0.475), (0.84375, 0.475), (0.84375, 0.475), (0.84375, 0.475), (0.84375, 0.475), (0.84375, 0.475), (0.84375, 0.475), (0.84375, 0.475), (0.84375, 0.475), (0.84375, 0.475), (0.84375, 0.475), (0.84375, 0.475), (0.84375, 0.475), (0.84375, 0.475), (0.84375, 0.475), (0.84375, 0.475), (0.84375, 0.475), (0.84375, 0.475), (0.84375, 0.475), (0.84375, 0.475), (0.84375, 0.475), (0.84375, 0.475), (0.84375, 0.475), (0.84375, 0.475), (0.84375, 0.475), (0.84375, 0.475), (0.84375, 0.475), (0.84375, 0.475), (0.84375, 0.475), (0.84375, 0.475), (0.84375, 0.415), (0.84375, 0.415), (0.84375, 0.415), (0.84375, 0.475), (0.84375, 0.475), (0.84375, 0.475), (0.84375, 0.435), (0.84375, 0.475), (0.84375, 0.435), (0.84375, 0.475), (0.84375, 0.435), (0.84375, 0.475), (0.84375, 0.415), (0.84375, 0.475), (0.84375, 0.415), (0.84375, 0.475), (0.84375, 0.415), (0.84375, 0.475), (0.84375, 0.415), (0.84375, 0.415), (0.84375, 0.415), (0.84375, 0.475), (0.84375, 0.475), (0.84375, 0.415), (0.84375, 0.475), (0.84375, 0.415), (0.84375, 0.475), (0.84375, 0.415), (0.84375, 0.475), (0.84375, 0.475), (0.84375, 0.430556), (0.84375, 0.430556), (0.84375, 0.430556), (0.84375, 0.475), (0.84375, 0.475), (0.84375, 0.475), (0.84375, 0.430556), (0.84375, 0.430556), (0.84375, 0.430556), (0.84375, 0.475), (0.84375, 0.475), (0.84375, 0.475), (0.84375, 0.430556), (0.84375, 0.430556), (0.84375, 0.430556), (0.84375, 0.475), (0.84375, 0.475), (0.84375, 0.475), (0.84375, 0.430556), (0.84375, 0.475), (0.84375, 0.430556), (0.84375, 0.475), (0.84375, 0.430556), (0.84375, 0.430556), (0.84375, 0.475), (0.84375, 0.430556), (0.84375, 0.475), (0.84375, 0.430556), (0.84375, 0.475), (0.84375, 0.475), (0.84375, 0.430556), (0.84375, 0.475), (0.84375, 0.430556), (0.84375, 0.475), (0.84375, 0.430556), (0.84375, 0.475), (0.84375, 0.430556), (0.84375, 0.430556), (0.84375, 0.430556), (0.84375, 0.475), (0.84375, 0.475), (0.84375, 0.430556), (0.84375, 0.475), (0.84375, 0.430556), (0.84375, 0.475), (0.84375, 0.430556), (0.84375, 0.475), (0.84375, 0.430556), (0.84375, 0.475), (0.84375, 0.430556), (0.84375, 0.475), (0.84375, 0.430556), (0.84375, 0.475), (0.84375, 0.430556), (0.84375, 0.430556), (0.84375, 0.430556), (0.84375, 0.430556), (0.84375, 0.430556), (0.84375, 0.430556), (0.84375, 0.430556), (0.84375, 0.430556), (0.84375, 0.430556), (0.84375, 0.430556), (0.84375, 0.430556), (0.84375, 0.430556), (0.84375, 0.430556), (0.84375, 0.430556), (0.84375, 0.430556), (0.84375, 0.430556), (0.84375, 0.430556), (0.84375, 0.430556), (0.84375, 0.430556), (0.84375, 0.430556), (0.84375, 0.430556), (0.84375, 0.430556), (0.84375, 0.430556), (0.84375, 0.430556), (0.84375, 0.430556), (0.84375, 0.430556), (0.84375, 0.430556), (0.84375, 0.430556), (0.84375, 0.430556), (0.84375, 0.430556), (0.84375, 0.430556), (0.84375, 0.430556), (0.84375, 0.430556), (0.84375, 0.430556), (0.84375, 0.430556), (0.84375, 0.430556), (0.84375, 0.430556), (0.84375, 0.430556), (0.84375, 0.430556), (0.84375, 0.430556), (0.84375, 0.430556), (0.84375, 0.430556), (0.84375, 0.430556), (0.84375, 0.430556), (0.84375, 0.430556), (0.84375, 0.430556), (0.84375, 0.430556), (0.84375, 0.430556), (0.84375, 0.430556), (0.84375, 0.430556), (0.84375, 0.430556), (0.84375, 0.430556), (0.84375, 0.430556), (0.84375, 0.430556), (0.84375, 0.475), (0.84375, 0.475), (0.84375, 0.475), (0.84375, 0.475), (0.84375, 0.475), (0.84375, 0.475), (0.84375, 0.475), (0.84375, 0.475), (0.84375, 0.475), (0.84375, 0.475), (0.84375, 0.475), (0.84375, 0.475), (0.84375, 0.475), (0.84375, 0.475), (0.84375, 0.475), (0.84375, 0.475), (0.84375, 0.475), (0.84375, 0.475), (0.84375, 0.475), (0.84375, 0.475), (0.84375, 0.475), (0.84375, 0.475), (0.84375, 0.475), (0.84375, 0.475), (0.84375, 0.475), (0.84375, 0.430556), (0.84375, 0.475), (0.84375, 0.430556), (0.84375, 0.475), (0.84375, 0.430556), (0.84375, 0.475), (0.84375, 0.275), (0.84375, 0.375), (0.84375, 0.275), (0.84375, 0.475), (0.84375, 0.275), (0.84375, 0.375), (0.84375, 0.275), (0.84375, 0.275), (0.84375, 0.275), (0.84375, 0.375), (0.84375, 0.375), (0.84375, 0.275), (0.84375, 0.375), (0.84375, 0.275), (0.84375, 0.375), (0.84375, 0.275), (0.84375, 0.475), (0.84375, 0.475), (0.84375, 0.275), (0.84375, 0.275), (0.84375, 0.275), (0.84375, 0.475), (0.84375, 0.475), (0.84375, 0.375), (0.84375, 0.475), (0.84375, 0.375), (0.84375, 0.475), (0.84375, 0.375), (0.84375, 0.475), (0.84375, 0.325), (0.84375, 0.425), (0.84375, 0.325), (0.84375, 0.425), (0.84375, 0.325), (0.84375, 0.425), (0.84375, 0.425), (0.84375, 0.425), (0.84375, 0.425), (0.84375, 0.425), (0.84375, 0.425), (0.84375, 0.425), (0.84375, 0.425), (0.84375, 0.325), (0.84375, 0.325), (0.84375, 0.325), (0.84375, 0.425), (0.84375, 0.425), (0.84375, 0.425), (0.84375, 0.325), (0.84375, 0.425), (0.84375, 0.325), (0.84375, 0.425), (0.84375, 0.325), (0.84375, 0.325), (0.84375, 0.425), (0.84375, 0.325), (0.84375, 0.425), (0.84375, 0.325), (0.84375, 0.425), (0.84375, 0.325), (0.84375, 0.425), (0.84375, 0.325), (0.84375, 0.425), (0.84375, 0.325), (0.84375, 0.425), (0.84375, 0.425), (0.84375, 0.425), (0.84375, 0.425), (0.84375, 0.425), (0.84375, 0.425), (0.84375, 0.425), (0.84375, 0.425), (0.84375, 0.325), (0.84375, 0.325), (0.84375, 0.325), (0.84375, 0.425), (0.84375, 0.425), (0.84375, 0.425), (0.84375, 0.325), (0.84375, 0.425), (0.84375, 0.325), (0.84375, 0.425), (0.84375, 0.325), (0.84375, 0.325), (0.84375, 0.425), (0.84375, 0.325), (0.84375, 0.425), (0.84375, 0.325), (0.84375, 0.425), (0.71875, 0.085), (0.71875, 0.085), (0.71875, 0.085), (0.71875, 0.085), (0.71875, 0.085), (0.71875, 0.085), (0.71875, 0.085), (0.71875, 0.085), (0.71875, 0.085), (0.71875, 0.085), (0.71875, 0.085), (0.71875, 0.085), (0.71875, 0.085), (0.71875, 0.085), (0.71875, 0.085), (0.34375, 0.185), (0.34375, 0.185), (0.34375, 0.185), (0.34375, 0.185), (0.34375, 0.185), (0.34375, 0.185), (0.34375, 0.185), (0.34375, 0.185), (0.34375, 0.185), (0.34375, 0.185), (0.34375, 0.185), (0.34375, 0.185), (0.34375, 0.185), (0.34375, 0.185), (0.34375, 0.185), (0.34375, 0.185), (0.34375, 0.185), (0.34375, 0.185), (0.34375, 0.185), (0.34375, 0.185), (0.34375, 0.185), (0.34375, 0.185), (0.34375, 0.185), (0.34375, 0.185), (0.34375, 0.185), (0.34375, 0.185), (0.34375, 0.185), (0.09375, 0.225), (0.09375, 0.025), (0.09375, 0.025), (0.09375, 0.025), (0.09375, 0.225), (0.09375, 0.225), (0.09375, 0.225), (0.09375, 0.025), (0.09375, 0.025), (0.09375, 0.025), (0.09375, 0.225), (0.09375, 0.225), (0.09375, 0.225), (0.09375, 0.025), (0.09375, 0.025), (0.09375, 0.025), (0.09375, 0.225), (0.09375, 0.225), (0.71875, 0.085), (0.71875, 0.025), (0.71875, 0.025), (0.71875, 0.025), (0.71875, 0.085), (0.71875, 0.085), (0.71875, 0.085), (0.71875, 0.025), (0.71875, 0.025), (0.71875, 0.025), (0.71875, 0.085), (0.71875, 0.085), (0.71875, 0.165), (0.71875, 0.085), (0.71875, 0.085), (0.71875, 0.085), (0.71875, 0.165), (0.71875, 0.165), (0.71875, 0.085), (0.71875, 0.025), (0.71875, 0.085), (0.71875, 0.025), (0.71875, 0.085), (0.71875, 0.025), (0.71875, 0.085), (0.71875, 0.025), (0.71875, 0.085), (0.71875, 0.025), (0.71875, 0.085), (0.71875, 0.025), (0.71875, 0.165), (0.71875, 0.085), (0.71875, 0.165), (0.71875, 0.085), (0.71875, 0.165), (0.71875, 0.085), (0.71875, 0.085), (0.71875, 0.165), (0.71875, 0.085), (0.71875, 0.165), (0.71875, 0.085), (0.71875, 0.165), (0.71875, 0.025), (0.71875, 0.085), (0.71875, 0.085), (0.71875, 0.085), (0.71875, 0.025), (0.71875, 0.025), (0.71875, 0.165), (0.71875, 0.085), (0.71875, 0.085), (0.71875, 0.085), (0.71875, 0.165), (0.71875, 0.165), (0.71875, 0.085), (0.71875, 0.025), (0.71875, 0.085), (0.71875, 0.025), (0.71875, 0.085), (0.71875, 0.025), (0.71875, 0.165), (0.71875, 0.085), (0.71875, 0.165), (0.71875, 0.085), (0.71875, 0.165), (0.71875, 0.085), (0.71875, 0.085), (0.71875, 0.025), (0.71875, 0.085), (0.71875, 0.025), (0.71875, 0.085), (0.71875, 0.025), (0.71875, 0.025), (0.71875, 0.025), (0.71875, 0.025), (0.71875, 0.025), (0.71875, 0.025), (0.71875, 0.025), (0.71875, 0.025), (0.71875, 0.025), (0.71875, 0.025), (0.71875, 0.025), (0.71875, 0.025), (0.71875, 0.025), (0.71875, 0.025), (0.71875, 0.025), (0.71875, 0.025), (0.71875, 0.165), (0.71875, 0.085), (0.71875, 0.085), (0.71875, 0.085), (0.71875, 0.165), (0.71875, 0.165), (0.71875, 0.025), (0.71875, 0.180556), (0.71875, 0.025), (0.71875, 0.180556), (0.71875, 0.025), (0.71875, 0.180556), (0.71875, 0.180556), (0.71875, 0.025), (0.71875, 0.180556), (0.71875, 0.025), (0.71875, 0.180556), (0.71875, 0.025), (0.71875, 0.025), (0.71875, 0.180556), (0.71875, 0.102778), (0.71875, 0.025), (0.71875, 0.180556), (0.71875, 0.025), (0.71875, 0.180556), (0.71875, 0.025), (0.71875, 0.180556), (0.71875, 0.180556), (0.71875, 0.025), (0.71875, 0.102778), (0.71875, 0.102778), (0.71875, 0.025), (0.71875, 0.025), (0.71875, 0.025), (0.71875, 0.102778), (0.71875, 0.102778), (0.71875, 0.102778), (0.71875, 0.025), (0.71875, 0.025), (0.71875, 0.025), (0.71875, 0.102778), (0.71875, 0.102778), (0.71875, 0.102778), (0.71875, 0.025), (0.71875, 0.025), (0.71875, 0.025), (0.71875, 0.102778), (0.71875, 0.102778), (0.71875, 0.025), (0.71875, 0.180556), (0.71875, 0.025), (0.71875, 0.180556), (0.71875, 0.025), (0.71875, 0.180556), (0.71875, 0.180556), (0.71875, 0.025), (0.71875, 0.180556), (0.71875, 0.025), (0.71875, 0.180556), (0.71875, 0.025), (0.71875, 0.175), (0.71875, 0.025), (0.71875, 0.025), (0.71875, 0.025), (0.71875, 0.175), (0.71875, 0.175), (0.71875, 0.025), (0.71875, 0.175), (0.71875, 0.025), (0.71875, 0.175), (0.71875, 0.025), (0.71875, 0.225), (0.71875, 0.175), (0.71875, 0.225), (0.71875, 0.225), (0.71875, 0.225), (0.71875, 0.175), (0.71875, 0.175), (0.71875, 0.225), (0.71875, 0.025), (0.71875, 0.175), (0.71875, 0.025), (0.71875, 0.225), (0.71875, 0.025), (0.71875, 0.225), (0.71875, 0.225), (0.71875, 0.225), (0.71875, 0.225), (0.71875, 0.225), (0.71875, 0.225), (0.71875, 0.225), (0.71875, 0.025), (0.71875, 0.025), (0.71875, 0.025), (0.71875, 0.225), (0.71875, 0.225), (0.71875, 0.225), (0.71875, 0.025), (0.71875, 0.025), (0.71875, 0.025), (0.71875, 0.225), (0.71875, 0.225), (0.71875, 0.225), (0.71875, 0.025), (0.71875, 0.025), (0.71875, 0.025), (0.71875, 0.225), (0.71875, 0.225), (0.71875, 0.025), (0.71875, 0.225), (0.71875, 0.025), (0.71875, 0.225), (0.71875, 0.025), (0.71875, 0.225), (0.71875, 0.225), (0.71875, 0.225), (0.71875, 0.225), (0.71875, 0.225), (0.71875, 0.225), (0.71875, 0.225), (0.71875, 0.225), (0.71875, 0.025), (0.71875, 0.025), (0.71875, 0.025), (0.71875, 0.225), (0.71875, 0.225), (0.71875, 0.225), (0.71875, 0.025), (0.71875, 0.025), (0.71875, 0.025), (0.71875, 0.225), (0.71875, 0.225), (0.71875, 0.225), (0.71875, 0.025), (0.71875, 0.025), (0.71875, 0.025), (0.71875, 0.225), (0.71875, 0.225), (0.71875, 0.025), (0.71875, 0.225), (0.71875, 0.025), (0.71875, 0.225), (0.71875, 0.025), (0.71875, 0.225), (0.84375, 0.415), (0.84375, 0.335), (0.84375, 0.335), (0.84375, 0.335), (0.84375, 0.415), (0.84375, 0.415), (0.84375, 0.415), (0.84375, 0.415), (0.84375, 0.435), (0.84375, 0.435), (0.84375, 0.415), (0.84375, 0.475), (0.84375, 0.435), (0.84375, 0.475), (0.84375, 0.455), (0.84375, 0.455), (0.84375, 0.475), (0.84375, 0.475), (0.84375, 0.435), (0.84375, 0.415), (0.84375, 0.435), (0.84375, 0.415), (0.84375, 0.435), (0.84375, 0.475), (0.84375, 0.475), (0.84375, 0.435), (0.84375, 0.455), (0.84375, 0.475), (0.84375, 0.455), (0.84375, 0.475), (0.84375, 0.475), (0.84375, 0.435), (0.84375, 0.435), (0.84375, 0.435), (0.84375, 0.475), (0.84375, 0.475), (0.84375, 0.475), (0.84375, 0.435), (0.84375, 0.435), (0.84375, 0.435), (0.84375, 0.475), (0.84375, 0.475), (0.84375, 0.475), (0.84375, 0.435), (0.84375, 0.435), (0.84375, 0.435), (0.84375, 0.475), (0.84375, 0.475), (0.84375, 0.435), (0.84375, 0.475), (0.84375, 0.435), (0.84375, 0.475), (0.84375, 0.435), (0.84375, 0.475), (0.84375, 0.455), (0.84375, 0.435), (0.84375, 0.435), (0.84375, 0.435), (0.84375, 0.455), (0.84375, 0.475), (0.84375, 0.475), (0.84375, 0.455), (0.84375, 0.475), (0.84375, 0.475), (0.84375, 0.435), (0.84375, 0.435), (0.84375, 0.435), (0.84375, 0.475), (0.84375, 0.455), (0.84375, 0.455), (0.84375, 0.475), (0.84375, 0.475), (0.84375, 0.455), (0.84375, 0.475), (0.84375, 0.455), (0.84375, 0.475), (0.84375, 0.455), (0.84375, 0.475), (0.84375, 0.455), (0.84375, 0.435), (0.84375, 0.455), (0.84375, 0.435), (0.84375, 0.455), (0.84375, 0.435), (0.84375, 0.435), (0.84375, 0.455), (0.84375, 0.455), (0.84375, 0.455), (0.84375, 0.435), (0.84375, 0.435), (0.84375, 0.475), (0.84375, 0.455), (0.84375, 0.475), (0.84375, 0.455), (0.84375, 0.475), (0.84375, 0.455), (0.84375, 0.475), (0.84375, 0.415), (0.84375, 0.415), (0.84375, 0.415), (0.84375, 0.475), (0.84375, 0.475), (0.84375, 0.475), (0.84375, 0.415), (0.84375, 0.415), (0.84375, 0.415), (0.84375, 0.475), (0.84375, 0.475), (0.84375, 0.435), (0.84375, 0.475), (0.84375, 0.435), (0.84375, 0.475), (0.84375, 0.435), (0.84375, 0.475), (0.84375, 0.475), (0.84375, 0.475), (0.84375, 0.475), (0.84375, 0.475), (0.84375, 0.475), (0.84375, 0.475), (0.84375, 0.475), (0.84375, 0.475), (0.84375, 0.475), (0.84375, 0.475), (0.84375, 0.475), (0.84375, 0.475), (0.84375, 0.475), (0.84375, 0.475), (0.84375, 0.475), (0.84375, 0.475), (0.84375, 0.475), (0.84375, 0.475), (0.84375, 0.475), (0.84375, 0.475), (0.84375, 0.475), (0.84375, 0.475), (0.84375, 0.475), (0.84375, 0.475), (0.84375, 0.475), (0.84375, 0.475), (0.84375, 0.475), (0.84375, 0.475), (0.84375, 0.475), (0.84375, 0.475), (0.84375, 0.475), (0.84375, 0.475), (0.84375, 0.475), (0.84375, 0.475), (0.84375, 0.475), (0.84375, 0.475), (0.84375, 0.475), (0.84375, 0.475), (0.84375, 0.475), (0.84375, 0.475), (0.84375, 0.475), (0.84375, 0.475), (0.84375, 0.475), (0.84375, 0.475), (0.84375, 0.475), (0.84375, 0.475), (0.84375, 0.475), (0.84375, 0.475), (0.84375, 0.475), (0.84375, 0.415), (0.84375, 0.415), (0.84375, 0.415), (0.84375, 0.475), (0.84375, 0.475), (0.84375, 0.475), (0.84375, 0.435), (0.84375, 0.475), (0.84375, 0.435), (0.84375, 0.475), (0.84375, 0.435), (0.84375, 0.475), (0.84375, 0.415), (0.84375, 0.475), (0.84375, 0.415), (0.84375, 0.475), (0.84375, 0.415), (0.84375, 0.475), (0.84375, 0.415), (0.84375, 0.415), (0.84375, 0.415), (0.84375, 0.475), (0.84375, 0.475), (0.84375, 0.415), (0.84375, 0.475), (0.84375, 0.415), (0.84375, 0.475), (0.84375, 0.415), (0.84375, 0.475), (0.84375, 0.475), (0.84375, 0.430556), (0.84375, 0.430556), (0.84375, 0.430556), (0.84375, 0.475), (0.84375, 0.475), (0.84375, 0.475), (0.84375, 0.430556), (0.84375, 0.430556), (0.84375, 0.430556), (0.84375, 0.475), (0.84375, 0.475), (0.84375, 0.475), (0.84375, 0.430556), (0.84375, 0.430556), (0.84375, 0.430556), (0.84375, 0.475), (0.84375, 0.475), (0.84375, 0.475), (0.84375, 0.430556), (0.84375, 0.475), (0.84375, 0.430556), (0.84375, 0.475), (0.84375, 0.430556), (0.84375, 0.430556), (0.84375, 0.475), (0.84375, 0.430556), (0.84375, 0.475), (0.84375, 0.430556), (0.84375, 0.475), (0.84375, 0.475), (0.84375, 0.430556), (0.84375, 0.475), (0.84375, 0.430556), (0.84375, 0.475), (0.84375, 0.430556), (0.84375, 0.475), (0.84375, 0.430556), (0.84375, 0.430556), (0.84375, 0.430556), (0.84375, 0.475), (0.84375, 0.475), (0.84375, 0.430556), (0.84375, 0.475), (0.84375, 0.430556), (0.84375, 0.475), (0.84375, 0.430556), (0.84375, 0.475), (0.84375, 0.430556), (0.84375, 0.475), (0.84375, 0.430556), (0.84375, 0.475), (0.84375, 0.430556), (0.84375, 0.475), (0.84375, 0.430556), (0.84375, 0.430556), (0.84375, 0.430556), (0.84375, 0.430556), (0.84375, 0.430556), (0.84375, 0.430556), (0.84375, 0.430556), (0.84375, 0.430556), (0.84375, 0.430556), (0.84375, 0.430556), (0.84375, 0.430556), (0.84375, 0.430556), (0.84375, 0.430556), (0.84375, 0.430556), (0.84375, 0.430556), (0.84375, 0.430556), (0.84375, 0.430556), (0.84375, 0.430556), (0.84375, 0.430556), (0.84375, 0.430556), (0.84375, 0.430556), (0.84375, 0.430556), (0.84375, 0.430556), (0.84375, 0.430556), (0.84375, 0.430556), (0.84375, 0.430556), (0.84375, 0.430556), (0.84375, 0.430556), (0.84375, 0.430556), (0.84375, 0.430556), (0.84375, 0.430556), (0.84375, 0.430556), (0.84375, 0.430556), (0.84375, 0.430556), (0.84375, 0.430556), (0.84375, 0.430556), (0.84375, 0.430556), (0.84375, 0.430556), (0.84375, 0.430556), (0.84375, 0.430556), (0.84375, 0.430556), (0.84375, 0.430556), (0.84375, 0.430556), (0.84375, 0.430556), (0.84375, 0.430556), (0.84375, 0.430556), (0.84375, 0.430556), (0.84375, 0.430556), (0.84375, 0.430556), (0.84375, 0.430556), (0.84375, 0.430556), (0.84375, 0.430556), (0.84375, 0.430556), (0.84375, 0.430556), (0.84375, 0.475), (0.84375, 0.475), (0.84375, 0.475), (0.84375, 0.475), (0.84375, 0.475), (0.84375, 0.475), (0.84375, 0.475), (0.84375, 0.475), (0.84375, 0.475), (0.84375, 0.475), (0.84375, 0.475), (0.84375, 0.475), (0.84375, 0.475), (0.84375, 0.475), (0.84375, 0.475), (0.84375, 0.475), (0.84375, 0.475), (0.84375, 0.475), (0.84375, 0.475), (0.84375, 0.475), (0.84375, 0.475), (0.84375, 0.475), (0.84375, 0.475), (0.84375, 0.475), (0.84375, 0.475), (0.84375, 0.430556), (0.84375, 0.475), (0.84375, 0.430556), (0.84375, 0.475), (0.84375, 0.430556), (0.84375, 0.475), (0.84375, 0.275), (0.84375, 0.375), (0.84375, 0.275), (0.84375, 0.475), (0.84375, 0.275), (0.84375, 0.375), (0.84375, 0.275), (0.84375, 0.275), (0.84375, 0.275), (0.84375, 0.375), (0.84375, 0.375), (0.84375, 0.275), (0.84375, 0.375), (0.84375, 0.275), (0.84375, 0.375), (0.84375, 0.275), (0.84375, 0.475), (0.84375, 0.475), (0.84375, 0.275), (0.84375, 0.275), (0.84375, 0.275), (0.84375, 0.475), (0.84375, 0.475), (0.84375, 0.375), (0.84375, 0.475), (0.84375, 0.375), (0.84375, 0.475), (0.84375, 0.375), (0.84375, 0.475), (0.84375, 0.325), (0.84375, 0.425), (0.84375, 0.325), (0.84375, 0.425), (0.84375, 0.325), (0.84375, 0.425), (0.84375, 0.425), (0.84375, 0.425), (0.84375, 0.425), (0.84375, 0.425), (0.84375, 0.425), (0.84375, 0.425), (0.84375, 0.425), (0.84375, 0.325), (0.84375, 0.325), (0.84375, 0.325), (0.84375, 0.425), (0.84375, 0.425), (0.84375, 0.425), (0.84375, 0.325), (0.84375, 0.425), (0.84375, 0.325), (0.84375, 0.425), (0.84375, 0.325), (0.84375, 0.325), (0.84375, 0.425), (0.84375, 0.325), (0.84375, 0.425), (0.84375, 0.325), (0.84375, 0.425), (0.84375, 0.325), (0.84375, 0.425), (0.84375, 0.325), (0.84375, 0.425), (0.84375, 0.325), (0.84375, 0.425), (0.84375, 0.425), (0.84375, 0.425), (0.84375, 0.425), (0.84375, 0.425), (0.84375, 0.425), (0.84375, 0.425), (0.84375, 0.425), (0.84375, 0.325), (0.84375, 0.325), (0.84375, 0.325), (0.84375, 0.425), (0.84375, 0.425), (0.84375, 0.425), (0.84375, 0.325), (0.84375, 0.425), (0.84375, 0.325), (0.84375, 0.425), (0.84375, 0.325), (0.84375, 0.325), (0.84375, 0.425), (0.84375, 0.325), (0.84375, 0.425), (0.84375, 0.325), (0.84375, 0.425), (0.71875, 0.085), (0.71875, 0.085), (0.71875, 0.085), (0.71875, 0.085), (0.71875, 0.085), (0.71875, 0.085), (0.71875, 0.085), (0.71875, 0.085), (0.71875, 0.085), (0.71875, 0.085), (0.71875, 0.085), (0.71875, 0.085), (0.71875, 0.085), (0.71875, 0.085), (0.71875, 0.085), (0.34375, 0.185), (0.34375, 0.185), (0.34375, 0.185), (0.34375, 0.185), (0.34375, 0.185), (0.34375, 0.185), (0.34375, 0.185), (0.34375, 0.185), (0.34375, 0.185), (0.34375, 0.185), (0.34375, 0.185), (0.34375, 0.185), (0.34375, 0.185), (0.34375, 0.185), (0.34375, 0.185), (0.34375, 0.185), (0.34375, 0.185), (0.34375, 0.185), (0.34375, 0.185), (0.34375, 0.185), (0.34375, 0.185), (0.34375, 0.185), (0.34375, 0.185), (0.34375, 0.185), (0.34375, 0.185), (0.34375, 0.185), (0.34375, 0.185), (0.09375, 0.225), (0.09375, 0.025), (0.09375, 0.025), (0.09375, 0.025), (0.09375, 0.225), (0.09375, 0.225), (0.09375, 0.225), (0.09375, 0.025), (0.09375, 0.025), (0.09375, 0.025), (0.09375, 0.225), (0.09375, 0.225), (0.09375, 0.225), (0.09375, 0.025), (0.09375, 0.025), (0.09375, 0.025), (0.09375, 0.225), (0.09375, 0.225)] (interpolation = "faceVarying")
        uniform token subdivisionScheme = "none"
        rel material:binding = </Vehicle/Materials/colormap>
    }
    def Scope "Materials" {
        def Material "colormap" {
            token outputs:surface.connect = </Vehicle/Materials/colormap/surface.outputs:surface>
            def Shader "surface" {
                uniform token info:id = "UsdPreviewSurface"
                float inputs:roughness = 0.7
                float inputs:metallic = 0
                color3f inputs:diffuseColor.connect = </Vehicle/Materials/colormap/texture.outputs:rgb>
                token outputs:surface
            }
            def Shader "stReader" {
                uniform token info:id = "UsdPrimvarReader_float2"
                token inputs:varname = "st"
                float2 outputs:result
            }
            def Shader "texture" {
                uniform token info:id = "UsdUVTexture"
                asset inputs:file = @kenney-water-colormap.png@
                float2 inputs:st.connect = </Vehicle/Materials/colormap/stReader.outputs:result>
                token inputs:wrapS = "repeat"
                token inputs:wrapT = "repeat"
                float3 outputs:rgb
            }
        }
    }
}
