#usda 1.0
(
    defaultPrim = "Vehicle"
    metersPerUnit = 1
    upAxis = "Y"
)
def Xform "Vehicle" {
    def Mesh "mesh_colormap" {
        int[] faceVertexCounts = [3, 3, 3, 3, 3, 3, 3, 3, 3, 3, 3, 3, 3, 3, 3, 3, 3, 3, 3, 3, 3, 3, 3, 3, 3, 3, 3, 3, 3, 3, 3, 3, 3, 3, 3, 3, 3, 3, 3, 3, 3, 3, 3, 3, 3, 3, 3, 3, 3, 3, 3, 3, 3, 3, 3, 3, 3, 3, 3, 3, 3, 3, 3, 3, 3, 3, 3, 3, 3, 3, 3, 3, 3, 3, 3, 3, 3, 3, 3, 3, 3, 3, 3, 3, 3, 3, 3, 3, 3, 3, 3, 3, 3, 3, 3, 3, 3, 3, 3, 3, 3, 3, 3, 3, 3, 3, 3, 3, 3, 3, 3, 3, 3, 3, 3, 3, 3, 3, 3, 3, 3, 3, 3, 3, 3, 3, 3, 3, 3, 3, 3, 3, 3, 3, 3, 3, 3, 3, 3, 3, 3, 3, 3, 3, 3, 3, 3, 3, 3, 3, 3, 3, 3, 3, 3, 3, 3, 3, 3, 3, 3, 3, 3, 3, 3, 3, 3, 3, 3, 3, 3, 3, 3, 3, 3, 3, 3, 3, 3, 3, 3, 3, 3, 3, 3, 3, 3, 3, 3, 3, 3, 3, 3, 3, 3, 3, 3, 3, 3, 3, 3, 3, 3, 3, 3, 3, 3, 3, 3, 3, 3, 3, 3, 3, 3, 3, 3, 3, 3, 3, 3, 3, 3, 3, 3, 3, 3, 3, 3, 3, 3, 3, 3, 3, 3, 3, 3, 3, 3, 3, 3, 3, 3, 3, 3, 3, 3, 3, 3, 3, 3, 3, 3, 3, 3, 3, 3, 3, 3, 3, 3, 3, 3, 3, 3, 3, 3, 3, 3, 3, 3, 3, 3, 3, 3, 3, 3, 3, 3, 3, 3, 3, 3, 3, 3, 3, 3, 3, 3, 3, 3, 3, 3, 3, 3, 3, 3, 3, 3, 3, 3, 3, 3, 3, 3, 3, 3, 3, 3, 3, 3, 3, 3, 3, 3, 3, 3, 3, 3, 3, 3, 3, 3, 3, 3, 3, 3, 3, 3, 3, 3, 3, 3, 3, 3, 3, 3, 3, 3, 3, 3, 3, 3, 3, 3, 3, 3, 3, 3, 3, 3, 3, 3, 3, 3, 3, 3, 3, 3, 3, 3, 3, 3, 3, 3, 3, 3, 3, 3, 3, 3, 3, 3, 3, 3, 3, 3, 3, 3, 3, 3, 3, 3, 3, 3, 3, 3, 3, 3, 3, 3, 3, 3, 3, 3, 3, 3, 3, 3, 3, 3, 3, 3, 3, 3, 3, 3, 3, 3, 3, 3, 3, 3, 3, 3, 3, 3, 3, 3, 3, 3, 3, 3, 3, 3, 3, 3, 3, 3, 3, 3, 3, 3, 3, 3, 3, 3, 3, 3, 3, 3, 3, 3, 3, 3, 3, 3, 3, 3, 3, 3, 3, 3, 3, 3, 3, 3, 3, 3, 3, 3, 3, 3, 3, 3, 3, 3, 3, 3, 3, 3, 3, 3, 3, 3, 3, 3, 3, 3, 3, 3, 3, 3, 3, 3, 3, 3, 3, 3, 3, 3, 3, 3, 3, 3, 3, 3, 3, 3, 3, 3, 3, 3, 3, 3, 3, 3, 3, 3, 3, 3, 3]
        int[] faceVertexIndices = [2, 1, 0, 1, 2, 3, 3, 2, 4, 7, 6, 5, 6, 7, 8, 8, 7, 9, 12, 11, 10, 11, 12, 13, 14, 3, 4, 3, 14, 15, 14, 10, 15, 10, 14, 12, 13, 7, 11, 7, 13, 9, 16, 12, 14, 12, 16, 17, 20, 19, 18, 19, 20, 21, 21, 20, 22, 19, 21, 23, 17, 13, 12, 13, 17, 24, 25, 14, 4, 14, 25, 16, 24, 9, 13, 9, 24, 26, 9, 27, 8, 27, 9, 26, 25, 2, 28, 2, 25, 4, 31, 30, 29, 30, 31, 32, 32, 31, 33, 34, 30, 32, 18, 19, 28, 19, 25, 28, 25, 19, 16, 16, 19, 35, 16, 35, 17, 17, 35, 36, 17, 36, 24, 24, 36, 37, 24, 37, 31, 24, 31, 26, 26, 31, 29, 26, 29, 27, 6, 1, 5, 1, 6, 0, 0, 6, 38, 0, 38, 39, 27, 30, 8, 30, 27, 29, 38, 8, 30, 8, 38, 6, 20, 28, 2, 28, 20, 18, 0, 20, 2, 20, 0, 39, 31, 40, 33, 40, 31, 37, 37, 41, 40, 41, 37, 36, 36, 42, 41, 42, 36, 35, 42, 19, 23, 19, 42, 35, 45, 44, 43, 44, 45, 46, 48, 45, 47, 45, 48, 46, 47, 43, 49, 43, 47, 45, 48, 49, 50, 49, 48, 47, 44, 48, 50, 48, 44, 46, 53, 52, 51, 52, 53, 54, 56, 53, 55, 53, 56, 54, 55, 51, 57, 51, 55, 53, 56, 57, 58, 57, 56, 55, 52, 56, 58, 56, 52, 54, 15, 1, 3, 1, 15, 5, 5, 15, 10, 5, 10, 11, 5, 11, 7, 20, 34, 22, 34, 20, 39, 34, 39, 38, 34, 38, 30, 21, 42, 23, 42, 21, 32, 42, 32, 41, 41, 32, 40, 40, 32, 33, 34, 21, 22, 21, 34, 32, 6, 59, 38, 59, 6, 60, 59, 60, 61, 61, 60, 62, 61, 62, 63, 63, 62, 64, 65, 63, 64, 65, 66, 63, 67, 66, 65, 67, 68, 66, 0, 68, 67, 68, 0, 39, 69, 20, 2, 20, 69, 70, 70, 69, 71, 71, 69, 72, 71, 72, 73, 73, 72, 74, 75, 73, 74, 75, 76, 73, 77, 76, 75, 77, 78, 76, 77, 30, 78, 30, 77, 8, 60, 75, 62, 75, 60, 77, 8, 60, 6, 60, 8, 77, 69, 0, 67, 0, 69, 2, 65, 69, 67, 69, 65, 72, 65, 74, 72, 74, 65, 64, 64, 75, 74, 75, 64, 62, 20, 68, 39, 68, 20, 70, 70, 66, 68, 66, 70, 71, 73, 66, 71, 66, 73, 63, 76, 63, 73, 63, 76, 61, 76, 59, 61, 59, 76, 78, 59, 30, 38, 30, 59, 78, 81, 80, 79, 80, 81, 82, 80, 82, 83, 83, 82, 84, 83, 84, 85, 83, 87, 86, 87, 83, 85, 90, 89, 88, 91, 89, 90, 89, 91, 86, 89, 86, 92, 92, 86, 87, 89, 84, 82, 84, 89, 92, 90, 81, 79, 81, 90, 88, 82, 88, 89, 88, 82, 81, 92, 85, 84, 85, 92, 87, 90, 80, 91, 80, 90, 79, 95, 94, 93, 94, 95, 96, 94, 96, 97, 97, 96, 98, 97, 98, 99, 97, 101, 100, 101, 97, 99, 104, 103, 102, 105, 103, 104, 103, 105, 100, 103, 100, 106, 106, 100, 101, 103, 98, 96, 98, 103, 106, 104, 95, 93, 95, 104, 102, 96, 102, 103, 102, 96, 95, 106, 99, 98, 99, 106, 101, 104, 94, 105, 94, 104, 93, 109, 108, 107, 108, 109, 110, 108, 111, 107, 111, 108, 112, 113, 111, 112, 111, 113, 114, 114, 110, 109, 110, 114, 113, 2, 1, 0, 1, 2, 3, 3, 2, 4, 7, 6, 5, 6, 7, 8, 8, 7, 9, 12, 11, 10, 11, 12, 13, 14, 3, 4, 3, 14, 15, 14, 10, 15, 10, 14, 12, 13, 7, 11, 7, 13, 9, 16, 12, 14, 12, 16, 17, 20, 19, 18, 19, 20, 21, 21, 20, 22, 19, 21, 23, 17, 13, 12, 13, 17, 24, 25, 14, 4, 14, 25, 16, 24, 9, 13, 9, 24, 26, 9, 27, 8, 27, 9, 26, 25, 2, 28, 2, 25, 4, 31, 30, 29, 30, 31, 32, 32, 31, 33, 34, 30, 32, 18, 19, 28, 19, 25, 28, 25, 19, 16, 16, 19, 35, 16, 35, 17, 17, 35, 36, 17, 36, 24, 24, 36, 37, 24, 37, 31, 24, 31, 26, 26, 31, 29, 26, 29, 27, 6, 1, 5, 1, 6, 0, 0, 6, 38, 0, 38, 39, 27, 30, 8, 30, 27, 29, 38, 8, 30, 8, 38, 6, 20, 28, 2, 28, 20, 18, 0, 20, 2, 20, 0, 39, 31, 40, 33, 40, 31, 37, 37, 41, 40, 41, 37, 36, 36, 42, 41, 42, 36, 35, 42, 19, 23, 19, 42, 35, 45, 44, 43, 44, 45, 46, 48, 45, 47, 45, 48, 46, 47, 43, 49, 43, 47, 45, 48, 49, 50, 49, 48, 47, 44, 48, 50, 48, 44, 46, 53, 52, 51, 52, 53, 54, 56, 53, 55, 53, 56, 54, 55, 51, 57, 51, 55, 53, 56, 57, 58, 57, 56, 55, 52, 56, 58, 56, 52, 54, 15, 1, 3, 1, 15, 5, 5, 15, 10, 5, 10, 11, 5, 11, 7, 20, 34, 22, 34, 20, 39, 34, 39, 38, 34, 38, 30, 21, 42, 23, 42, 21, 32, 42, 32, 41, 41, 32, 40, 40, 32, 33, 34, 21, 22, 21, 34, 32, 6, 59, 38, 59, 6, 60, 59, 60, 61, 61, 60, 62, 61, 62, 63, 63, 62, 64, 65, 63, 64, 65, 66, 63, 67, 66, 65, 67, 68, 66, 0, 68, 67, 68, 0, 39, 69, 20, 2, 20, 69, 70, 70, 69, 71, 71, 69, 72, 71, 72, 73, 73, 72, 74, 75, 73, 74, 75, 76, 73, 77, 76, 75, 77, 78, 76, 77, 30, 78, 30, 77, 8, 60, 75, 62, 75, 60, 77, 8, 60, 6, 60, 8, 77, 69, 0, 67, 0, 69, 2, 65, 69, 67, 69, 65, 72, 65, 74, 72, 74, 65, 64, 64, 75, 74, 75, 64, 62, 20, 68, 39, 68, 20, 70, 70, 66, 68, 66, 70, 71, 73, 66, 71, 66, 73, 63, 76, 63, 73, 63, 76, 61, 76, 59, 61, 59, 76, 78, 59, 30, 38, 30, 59, 78, 81, 80, 79, 80, 81, 82, 80, 82, 83, 83, 82, 84, 83, 84, 85, 83, 87, 86, 87, 83, 85, 90, 89, 88, 91, 89, 90, 89, 91, 86, 89, 86, 92, 92, 86, 87, 89, 84, 82, 84, 89, 92, 90, 81, 79, 81, 90, 88, 82, 88, 89, 88, 82, 81, 92, 85, 84, 85, 92, 87, 90, 80, 91, 80, 90, 79, 95, 94, 93, 94, 95, 96, 94, 96, 97, 97, 96, 98, 97, 98, 99, 97, 101, 100, 101, 97, 99, 104, 103, 102, 105, 103, 104, 103, 105, 100, 103, 100, 106, 106, 100, 101, 103, 98, 96, 98, 103, 106, 104, 95, 93, 95, 104, 102, 96, 102, 103, 102, 96, 95, 106, 99, 98, 99, 106, 101, 104, 94, 105, 94, 104, 93, 109, 108, 107, 108, 109, 110, 108, 111, 107, 111, 108, 112, 113, 111, 112, 111, 113, 114, 114, 110, 109, 110, 114, 113, 117, 116, 115, 116, 117, 118, 121, 120, 119, 120, 121, 122, 123, 120, 122, 120, 123, 124, 120, 124, 125, 122, 126, 123, 126, 122, 121, 126, 121, 127, 128, 120, 125, 120, 128, 119, 119, 128, 129, 129, 121, 119, 121, 129, 127, 127, 129, 130, 132, 117, 131, 117, 132, 118, 118, 132, 133, 116, 135, 134, 135, 116, 133, 133, 116, 118, 115, 137, 136, 137, 115, 116, 137, 116, 134, 131, 136, 138, 136, 131, 115, 115, 131, 117, 141, 140, 139, 141, 142, 140, 132, 142, 141, 131, 142, 132, 142, 131, 138, 138, 136, 143, 137, 143, 136, 137, 144, 143, 145, 144, 137, 144, 145, 146, 147, 133, 132, 133, 147, 135, 147, 132, 148, 147, 148, 149, 149, 148, 150, 151, 134, 135, 151, 137, 134, 152, 137, 151, 152, 153, 137, 153, 152, 154, 138, 155, 142, 155, 138, 124, 145, 128, 156, 128, 145, 137, 130, 151, 135, 151, 130, 157, 158, 132, 126, 132, 158, 148, 158, 160, 159, 158, 161, 160, 126, 161, 158, 127, 161, 126, 161, 127, 130, 129, 157, 130, 128, 157, 129, 128, 162, 157, 163, 162, 128, 162, 163, 164, 165, 123, 126, 123, 165, 155, 155, 124, 123, 155, 165, 166, 166, 165, 167, 168, 125, 124, 168, 128, 125, 169, 128, 168, 169, 156, 128, 156, 169, 170, 167, 140, 166, 140, 167, 139, 126, 141, 165, 141, 126, 132, 167, 141, 139, 141, 167, 165, 140, 155, 166, 155, 140, 142, 168, 138, 143, 138, 168, 124, 144, 170, 169, 170, 144, 146, 137, 163, 128, 163, 137, 153, 154, 162, 164, 162, 154, 152, 160, 150, 159, 150, 160, 149, 147, 130, 135, 130, 147, 161, 162, 151, 157, 151, 162, 152, 147, 160, 161, 160, 147, 149, 168, 144, 169, 144, 168, 143, 158, 150, 148, 150, 158, 159, 145, 170, 146, 170, 145, 156, 154, 163, 153, 163, 154, 164]
        point3f[] points = [(0.8925, 0.4, -1.435), (0.68, 0, -1.435), (0.8925, 0.4, -0.835), (0.68, -9.02389e-17, 0.725), (0.8925, 0.4, 0.9625), (-0.68, 0, -1.435), (-0.8925, 0.4, -1.435), (-0.68, 0, 0.725), (-0.8925, 0.4, -0.835), (-0.8925, 0.4, 0.9625), (7.24799e-13, 0, 1.085), (-0.372, 0, 0.985), (8.51855e-13, 0.4, 1.435), (-0.48825, 0.4, 1.30375), (0.48825, 0.4, 1.30375), (0.372, 0, 0.985), (0.48825, 0.6, 1.30375), (8.51855e-13, 0.6, 1.435), (0.6925, 0.6, -0.835), (0.6925, 0.6, 0.869599), (0.6925, 0.4, -0.835), (0.6925, 0.5, 0.740145), (0.6925, 0.4, 0.740145), (0.6925, 0.5, 0.869599), (-0.48825, 0.6, 1.30375), (0.8925, 0.6, 0.9625), (-0.8925, 0.6, 0.9625), (-0.8925, 0.6, -0.835), (0.8925, 0.6, -0.835), (-0.6925, 0.6, -0.835), (-0.6925, 0.4, -0.835), (-0.6925, 0.6, 0.869599), (-0.6925, 0.5, 0.740145), (-0.6925, 0.5, 0.869599), (-0.6925, 0.4, 0.740145), (0.393293, 0.6, 1.12218), (7.76777e-13, 0.6, 1.2279), (-0.393293, 0.6, 1.12218), (-0.6925, 0.4, -1.435), (0.6925, 0.4, -1.435), (-0.393293, 0.5, 1.12218), (7.76777e-13, 0.5, 1.2279), (0.393293, 0.5, 1.12218), (0.6925, 0.6, -0.304907), (0.8925, 0.6, -0.304907), (0.6925, 0.725, -0.204907), (0.8925, 0.725, -0.204907), (0.6925, 0.725, 0.395093), (0.8925, 0.725, 0.395093), (0.6925, 0.6, 0.495093), (0.8925, 0.6, 0.495093), (-0.8925, 0.6, -0.304907), (-0.6925, 0.6, -0.304907), (-0.8925, 0.725, -0.204907), (-0.6925, 0.725, -0.204907), (-0.8925, 0.725, 0.395093), (-0.6925, 0.725, 0.395093), (-0.8925, 0.6, 0.495093), (-0.6925, 0.6, 0.495093), (-0.6925, 1.25272, -1.435), (-0.8925, 1.2925, -1.435), (-0.478019, 1.77052, -1.435), (-0.631093, 1.92359, -1.435), (2.88765e-14, 1.96852, -1.435), (2.88765e-14, 2.185, -1.435), (0.631093, 1.92359, -1.435), (0.478019, 1.77052, -1.435), (0.8925, 1.2925, -1.435), (0.6925, 1.25272, -1.435), (0.8925, 1.2925, -0.835), (0.6925, 1.25272, -0.835), (0.478019, 1.77052, -0.835), (0.631093, 1.92359, -0.835), (2.57001e-13, 1.96852, -0.835), (2.54113e-13, 2.185, -0.835), (-0.631093, 1.92359, -0.835), (-0.478019, 1.77052, -0.835), (-0.8925, 1.2925, -0.835), (-0.6925, 1.25272, -0.835), (0.3925, 1.2, -0.835), (0.3925, 0.7, -0.835), (0.3925, 1.2, -0.735), (0.3925, 0.9, -0.635), (0.3925, 0.7, -0.335), (0.3925, 0.9, -0.435), (0.3925, 0.8, -0.335), (-0.3925, 0.7, -0.335), (-0.3925, 0.8, -0.335), (-0.3925, 1.2, -0.735), (-0.3925, 0.9, -0.635), (-0.3925, 1.2, -0.835), (-0.3925, 0.7, -0.835), (-0.3925, 0.9, -0.435), (0.3925, 0.9, 0.065), (0.3925, 0.4, 0.065), (0.3925, 0.9, 0.165), (0.3925, 0.6, 0.265), (0.3925, 0.4, 0.565), (0.3925, 0.6, 0.465), (0.3925, 0.5, 0.565), (-0.3925, 0.4, 0.565), (-0.3925, 0.5, 0.565), (-0.3925, 0.9, 0.165), (-0.3925, 0.6, 0.265), (-0.3925, 0.9, 0.065), (-0.3925, 0.4, 0.065), (-0.3925, 0.6, 0.465), (-0.3925, 0.4, -0.835), (-0.3925, 0.7, -0.835), (-0.3925, 0.4, -0.335), (-0.3925, 0.7, -0.335), (0.3925, 0.4, -0.835), (0.3925, 0.7, -0.835), (0.3925, 0.7, -0.335), (0.3925, 0.4, -0.335), (0.08625, 1.16647, -0.9625), (-0.08625, 1.16647, -0.9625), (0.08625, 1.33897, -0.9625), (-0.08625, 1.33897, -0.9625), (-0.08625, 1.16647, -1.3075), (0.08625, 1.16647, -1.3075), (-0.08625, 1.33897, -1.3075), (0.08625, 1.33897, -1.3075), (0.115, 1.36772, -1.1925), (0.115, 1.25272, -1.1925), (0.115, 1.13772, -1.1925), (7.50788e-14, 1.36772, -1.1925), (-0.115, 1.36772, -1.1925), (7.50788e-14, 1.13772, -1.1925), (-0.115, 1.13772, -1.1925), (-0.115, 1.25272, -1.1925), (0.115, 1.36772, -1.0775), (1.27056e-13, 1.36772, -1.0775), (-0.115, 1.36772, -1.0775), (-0.115, 1.13772, -1.0775), (-0.115, 1.25272, -1.0775), (0.115, 1.13772, -1.0775), (1.27056e-13, 1.13772, -1.0775), (0.115, 1.25272, -1.0775), (0.314107, 1.72101, -1.0775), (0.490267, 1.53263, -1.0775), (0.174455, 1.70198, -1.0775), (0.46068, 1.3959, -1.0775), (0.46068, 1.10953, -1.0775), (0.490267, 0.972802, -1.0775), (0.174455, 0.803451, -1.0775), (0.314107, 0.78442, -1.0775), (-0.46068, 1.3959, -1.0775), (-0.174455, 1.70198, -1.0775), (-0.490267, 1.53263, -1.0775), (-0.314107, 1.72101, -1.0775), (-0.46068, 1.10953, -1.0775), (-0.490267, 0.972802, -1.0775), (-0.174455, 0.803451, -1.0775), (-0.314107, 0.78442, -1.0775), (0.46068, 1.3959, -1.1925), (0.174455, 0.803451, -1.1925), (-0.46068, 1.10953, -1.1925), (-0.174455, 1.70198, -1.1925), (-0.314107, 1.72101, -1.1925), (-0.490267, 1.53263, -1.1925), (-0.46068, 1.3959, -1.1925), (-0.490267, 0.972802, -1.1925), (-0.174455, 0.803451, -1.1925), (-0.314107, 0.78442, -1.1925), (0.174455, 1.70198, -1.1925), (0.490267, 1.53263, -1.1925), (0.314107, 1.72101, -1.1925), (0.46068, 1.10953, -1.1925), (0.490267, 0.972802, -1.1925), (0.314107, 0.78442, -1.1925)]
        normal3f[] normals = [(0.883116, -0.469155, 0), (0.883116, -0.469155, 0), (0.883116, -0.469155, 0), (0.883116, -0.469155, 0), (0.883116, -0.469155, 0), (0.769315, -0.574561, 0.279347), (0.769315, -0.574561, 0.279347), (0.883116, -0.469155, 0), (0.706938, -0.598928, 0.376197), (-0.769315, -0.574561, 0.279347), (-0.883116, -0.469155, 0), (-0.883116, -0.469155, 0), (-0.883116, -0.469155, 0), (-0.769315, -0.574561, 0.279347), (-0.883116, -0.469155, 0), (-0.883116, -0.469155, 0), (-0.769315, -0.574561, 0.279347), (-0.706938, -0.598928, 0.376197), (0, -0.658505, 0.752577), (-0.364175, -0.642844, 0.67389), (0, -0.658505, 0.752577), (-0.364175, -0.642844, 0.67389), (0, -0.658505, 0.752577), (-0.347397, -0.644064, 0.68154), (0.347397, -0.644064, 0.68154), (0.769315, -0.574561, 0.279347), (0.706938, -0.598928, 0.376197), (0.769315, -0.574561, 0.279347), (0.347397, -0.644064, 0.68154), (0.364175, -0.642844, 0.67389), (0.347397, -0.644064, 0.68154), (0, -0.658505, 0.752577), (0.364175, -0.642844, 0.67389), (0, -0.658505, 0.752577), (0.347397, -0.644064, 0.68154), (0, -0.658505, 0.752577), (-0.347397, -0.644064, 0.68154), (-0.769315, -0.574561, 0.279347), (-0.364175, -0.642844, 0.67389), (-0.769315, -0.574561, 0.279347), (-0.347397, -0.644064, 0.68154), (-0.706938, -0.598928, 0.376197), (0.46342, 0, 0.886139), (0, 0, 1), (0.46342, 0, 0.886139), (0, 0, 1), (0.46342, 0, 0.886139), (0, 0, 1), (-1, 0, 0), (-1, 0, 0), (-1, 0, 0), (-1, 0, 0), (-1, 0, 0), (-1, 0, 0), (-1, 0, 0), (-1, 0, 0), (-1, 0, 0), (-1, 0, 0), (-1, 0, 0), (-1, 0, 0), (0, 0, 1), (-0.46342, 0, 0.886139), (0, 0, 1), (-0.46342, 0, 0.886139), (0, 0, 1), (-0.46342, 0, 0.886139), (0.906932, 0, 0.421277), (0.46342, 0, 0.886139), (0.906932, 0, 0.421277), (0.46342, 0, 0.886139), (0.906932, 0, 0.421277), (0.46342, 0, 0.886139), (-0.46342, 0, 0.886139), (-0.906932, 0, 0.421277), (-0.46342, 0, 0.886139), (-0.906932, 0, 0.421277), (-0.46342, 0, 0.886139), (-0.906932, 0, 0.421277), (-0.906932, 0, 0.421277), (-1, 0, 0), (-1, 0, 0), (-1, 0, 0), (-0.906932, 0, 0.421277), (-0.906932, 0, 0.421277), (0.906932, 0, 0.421277), (1, 0, 0), (1, 0, 0), (1, 0, 0), (0.906932, 0, 0.421277), (0.906932, 0, 0.421277), (1, 0, 0), (1, 0, 0), (1, 0, 0), (1, 0, 0), (1, 0, 0), (1, 0, 0), (1, 0, 0), (1, 0, 0), (1, 0, 0), (1, 0, 0), (1, 0, 0), (1, 0, 0), (0, 1, 0), (0, 1, 0), (0, 1, 0), (0, 1, 0), (0, 1, 0), (0, 1, 0), (0, 1, 0), (0, 1, 0), (0, 1, 0), (0, 1, 0), (0, 1, 0), (0, 1, 0), (0, 1, 0), (0, 1, 0), (0, 1, 0), (0, 1, 0), (0, 1, 0), (0, 1, 0), (0, 1, 0), (0, 1, 0), (0, 1, 0), (0, 1, 0), (0, 1, 0), (0, 1, 0), (0, 1, 0), (0, 1, 0), (0, 1, 0), (0, 1, 0), (0, 1, 0), (0, 1, 0), (0, 1, 0), (0, 1, 0), (0, 1, 0), (0, 1, 0), (0, 1, 0), (0, 1, 0), (0, 0, -1), (0, 0, -1), (0, 0, -1), (0, 0, -1), (0, 0, -1), (0, 0, -1), (0, 0, -1), (0, 0, -1), (0, 0, -1), (0, 0, -1), (0, 0, -1), (0, 0, -1), (0, 0, -1), (0, 0, -1), (0, 0, -1), (0, 0, -1), (0, 0, -1), (0, 0, -1), (0, 1, 0), (0, 1, 0), (0, 1, 0), (0, 1, 0), (0, 1, 0), (0, 1, 0), (0, 0, -1), (0, 0, -1), (0, 0, -1), (0, 0, -1), (0, 0, -1), (0, 0, -1), (0, 1, 0), (0, 1, 0), (0, 1, 0), (0, 1, 0), (0, 1, 0), (0, 1, 0), (0.645052, 0, -0.764139), (0.46342, 0, -0.886139), (0.645052, 0, -0.764139), (0.46342, 0, -0.886139), (0.645052, 0, -0.764139), (0.46342, 0, -0.886139), (0.46342, 0, -0.886139), (0, 0, -1), (0.46342, 0, -0.886139), (0, 0, -1), (0.46342, 0, -0.886139), (0, 0, -1), (0, 0, -1), (-0.46342, 0, -0.886139), (0, 0, -1), (-0.46342, 0, -0.886139), (0, 0, -1), (-0.46342, 0, -0.886139), (-0.46342, 0, -0.886139), (-0.645052, 0, -0.764139), (-0.645052, 0, -0.764139), (-0.645052, 0, -0.764139), (-0.46342, 0, -0.886139), (-0.46342, 0, -0.886139), (1.5549e-13, 0.901303, -0.433189), (2.80287e-13, 0.624695, -0.780869), (2.80287e-13, 0.624695, -0.780869), (2.80287e-13, 0.624695, -0.780869), (1.5549e-13, 0.901303, -0.433189), (1.5549e-13, 0.901303, -0.433189), (-1.5549e-13, 0.901303, 0.433189), (1.5549e-13, 0.901303, -0.433189), (-1.5549e-13, 0.901303, 0.433189), (1.5549e-13, 0.901303, -0.433189), (-1.5549e-13, 0.901303, 0.433189), (1.5549e-13, 0.901303, -0.433189), (-1, 0, -3.58942e-13), (-1, 0, -3.58942e-13), (-1, 0, -3.58942e-13), (-1, 0, -3.58942e-13), (-1, 0, -3.58942e-13), (-1, 0, -3.58942e-13), (-1.5549e-13, 0.901303, 0.433189), (-2.80287e-13, 0.624695, 0.780869), (-2.80287e-13, 0.624695, 0.780869), (-2.80287e-13, 0.624695, 0.780869), (-1.5549e-13, 0.901303, 0.433189), (-1.5549e-13, 0.901303, 0.433189), (1, 0, 3.58942e-13), (1, 0, 3.58942e-13), (1, 0, 3.58942e-13), (1, 0, 3.58942e-13), (1, 0, 3.58942e-13), (1, 0, 3.58942e-13), (1.5549e-13, 0.901303, -0.433189), (2.80287e-13, 0.624695, -0.780869), (2.80287e-13, 0.624695, -0.780869), (2.80287e-13, 0.624695, -0.780869), (1.5549e-13, 0.901303, -0.433189), (1.5549e-13, 0.901303, -0.433189), (-1.5549e-13, 0.901303, 0.433189), (1.5549e-13, 0.901303, -0.433189), (-1.5549e-13, 0.901303, 0.433189), (1.5549e-13, 0.901303, -0.433189), (-1.5549e-13, 0.901303, 0.433189), (1.5549e-13, 0.901303, -0.433189), (-1, 0, -3.58942e-13), (-1, 0, -3.58942e-13), (-1, 0, -3.58942e-13), (-1, 0, -3.58942e-13), (-1, 0, -3.58942e-13), (-1, 0, -3.58942e-13), (-1.5549e-13, 0.901303, 0.433189), (-2.80287e-13, 0.624695, 0.780869), (-2.80287e-13, 0.624695, 0.780869), (-2.80287e-13, 0.624695, 0.780869), (-1.5549e-13, 0.901303, 0.433189), (-1.5549e-13, 0.901303, 0.433189), (1, 0, 3.58942e-13), (1, 0, 3.58942e-13), (1, 0, 3.58942e-13), (1, 0, 3.58942e-13), (1, 0, 3.58942e-13), (1, 0, 3.58942e-13), (0, -1, 0), (0, -1, 0), (0, -1, 0), (0, -1, 0), (0, -1, 0), (0, -1, 0), (0, -1, 0), (0, -1, 0), (0, -1, 0), (0, -1, 0), (0, -1, 0), (0, -1, 0), (0, -1, 0), (0, -1, 0), (0, -1, 0), (0, 1, 0), (0, 1, 0), (0, 1, 0), (0, 1, 0), (0, 1, 0), (0, 1, 0), (0, 1, 0), (0, 1, 0), (0, 1, 0), (0, 1, 0), (0, 1, 0), (0, 1, 0), (0, 0.707107, -0.707107), (0, 1, 0), (0, 1, 0), (0, 1, 0), (0, 0.707107, -0.707107), (0, 0.707107, -0.707107), (0, 1, 0), (0, 0.707107, -0.707107), (0, 1, 0), (0, 1, 0), (0, 0.707107, -0.707107), (0, 1, 0), (0, 1, 0), (0, 0.707107, -0.707107), (0, 1, 0), (0, 0, -1), (0, 0.707107, -0.707107), (0, 0, -1), (0, 0.707107, -0.707107), (0, 0, -1), (0, 0.707107, -0.707107), (0, 0, -1), (0, 0, -1), (0, 0, -1), (0, 0, -1), (0, 0, -1), (0, 0, -1), (0, 0, -1), (0, 0, -1), (0, 0, -1), (0, 0, -1), (0, 0, -1), (0, 0, -1), (0, 0, -1), (0, 0, -1), (0, 0, -1), (0, 0, -1), (0, 0, -1), (0, 0, -1), (0, 0, -1), (0, 0, -1), (0, 0, -1), (0, 0, -1), (0, 0, -1), (0, 0, -1), (0, 0, -1), (0, 0, -1), (0, 0, -1), (0, 0, -1), (0, 0, -1), (0, 0, -1), (0, 0, -1), (0, 0, -1), (0, 0, -1), (0, 0, -1), (0, 0, -1), (0, 0, -1), (0, 0, 1), (0, 0, 1), (0, 0, 1), (0, 0, 1), (0, 0, 1), (0, 0, 1), (0, 0, 1), (0, 0, 1), (0, 0, 1), (0, 0, 1), (0, 0, 1), (0, 0, 1), (0, 0, 1), (0, 0, 1), (0, 0, 1), (0, 0, 1), (0, 0, 1), (0, 0, 1), (0, 0, 1), (0, 0, 1), (0, 0, 1), (0, 0, 1), (0, 0, 1), (0, 0, 1), (0, 0, 1), (0, 0, 1), (0, 0, 1), (0, 0, 1), (0, 0, 1), (0, 0, 1), (0, 0, 1), (0, 0, 1), (0, 0, 1), (0, 0, 1), (0, 0, 1), (0, 0, 1), (-0.980785, 0.19509, 0), (-0.707107, 0.707107, 0), (-0.707107, 0.707107, 0), (-0.707107, 0.707107, 0), (-0.980785, 0.19509, 0), (-0.980785, 0.19509, 0), (-1, 0, 0), (-0.980785, 0.19509, 0), (-1, 0, 0), (-0.980785, 0.19509, 0), (-1, 0, 0), (-0.980785, 0.19509, 0), (0.980785, 0.19509, 0), (1, 0, 0), (0.980785, 0.19509, 0), (1, 0, 0), (0.980785, 0.19509, 0), (1, 0, 0), (0.707107, 0.707107, 0), (0.980785, 0.19509, 0), (0.980785, 0.19509, 0), (0.980785, 0.19509, 0), (0.707107, 0.707107, 0), (0.707107, 0.707107, 0), (0.707107, 0.707107, 0), (0, 1, 0), (0.707107, 0.707107, 0), (0, 1, 0), (0.707107, 0.707107, 0), (0, 1, 0), (0, 1, 0), (-0.707107, 0.707107, 0), (0, 1, 0), (-0.707107, 0.707107, 0), (0, 1, 0), (-0.707107, 0.707107, 0), (-1, 0, 0), (-0.980785, -0.19509, 0), (-1, 0, 0), (-0.980785, -0.19509, 0), (-1, 0, 0), (-0.980785, -0.19509, 0), (-0.980785, -0.19509, 0), (-0.707107, -0.707107, 0), (-0.980785, -0.19509, 0), (-0.707107, -0.707107, 0), (-0.980785, -0.19509, 0), (-0.707107, -0.707107, 0), (0, -1, 0), (-0.707107, -0.707107, 0), (-0.707107, -0.707107, 0), (-0.707107, -0.707107, 0), (0, -1, 0), (0, -1, 0), (0.707107, -0.707107, 0), (0, -1, 0), (0, -1, 0), (0, -1, 0), (0.707107, -0.707107, 0), (0.707107, -0.707107, 0), (0.707107, -0.707107, 0), (0.980785, -0.19509, 0), (0.707107, -0.707107, 0), (0.980785, -0.19509, 0), (0.707107, -0.707107, 0), (0.980785, -0.19509, 0), (0.980785, -0.19509, 0), (1, 0, 0), (1, 0, 0), (1, 0, 0), (0.980785, -0.19509, 0), (0.980785, -0.19509, 0), (1, 0, 0), (1, 0, 0), (1, 0, 0), (1, 0, 0), (1, 0, 0), (1, 0, 0), (1, 0, 0), (1, 0, 0), (1, 0, 0), (1, 0, 0), (1, 0, 0), (1, 0, 0), (1, 0, 0), (1, 0, 0), (1, 0, 0), (0, 0, 1), (0, 0.382684, 0.92388), (0, 0, 1), (0, 0.382684, 0.92388), (0, 0, 1), (0, 0.382684, 0.92388), (-1, 0, 0), (-1, 0, 0), (-1, 0, 0), (-1, 0, 0), (-1, 0, 0), (-1, 0, 0), (-1, 0, 0), (-1, 0, 0), (-1, 0, 0), (-1, 0, 0), (-1, 0, 0), (-1, 0, 0), (-1, 0, 0), (-1, 0, 0), (-1, 0, 0), (0, 1, 0), (0, 0.92388, 0.382684), (0, 1, 0), (0, 0.92388, 0.382684), (0, 1, 0), (0, 0.92388, 0.382684), (0, 1, 0), (0, 0.811242, 0.58471), (0, 1, 0), (0, 0.811242, 0.58471), (0, 1, 0), (0, 0.811242, 0.58471), (0, 0.316228, 0.948683), (0, 0.811242, 0.58471), (0, 0.316228, 0.948683), (0, 0.811242, 0.58471), (0, 0.316228, 0.948683), (0, 0.811242, 0.58471), (0, 0.92388, 0.382684), (0, 0.382684, 0.92388), (0, 0.92388, 0.382684), (0, 0.382684, 0.92388), (0, 0.92388, 0.382684), (0, 0.382684, 0.92388), (0, 0, -1), (0, 0, -1), (0, 0, -1), (0, 0, -1), (0, 0, -1), (0, 0, -1), (1, 0, 0), (1, 0, 0), (1, 0, 0), (1, 0, 0), (1, 0, 0), (1, 0, 0), (1, 0, 0), (1, 0, 0), (1, 0, 0), (1, 0, 0), (1, 0, 0), (1, 0, 0), (1, 0, 0), (1, 0, 0), (1, 0, 0), (0, 0, 1), (0, 0.382684, 0.92388), (0, 0, 1), (0, 0.382684, 0.92388), (0, 0, 1), (0, 0.382684, 0.92388), (-1, 0, 0), (-1, 0, 0), (-1, 0, 0), (-1, 0, 0), (-1, 0, 0), (-1, 0, 0), (-1, 0, 0), (-1, 0, 0), (-1, 0, 0), (-1, 0, 0), (-1, 0, 0), (-1, 0, 0), (-1, 0, 0), (-1, 0, 0), (-1, 0, 0), (0, 1, 0), (0, 0.92388, 0.382684), (0, 1, 0), (0, 0.92388, 0.382684), (0, 1, 0), (0, 0.92388, 0.382684), (0, 1, 0), (0, 0.811242, 0.58471), (0, 1, 0), (0, 0.811242, 0.58471), (0, 1, 0), (0, 0.811242, 0.58471), (0, 0.316228, 0.948683), (0, 0.811242, 0.58471), (0, 0.316228, 0.948683), (0, 0.811242, 0.58471), (0, 0.316228, 0.948683), (0, 0.811242, 0.58471), (0, 0.92388, 0.382684), (0, 0.382684, 0.92388), (0, 0.92388, 0.382684), (0, 0.382684, 0.92388), (0, 0.92388, 0.382684), (0, 0.382684, 0.92388), (0, 0, -1), (0, 0, -1), (0, 0, -1), (0, 0, -1), (0, 0, -1), (0, 0, -1), (-1, 0, 0), (-1, 0, 0), (-1, 0, 0), (-1, 0, 0), (-1, 0, 0), (-1, 0, 0), (0, 0, -1), (0, 0, -1), (0, 0, -1), (0, 0, -1), (0, 0, -1), (0, 0, -1), (1, 0, 0), (1, 0, 0), (1, 0, 0), (1, 0, 0), (1, 0, 0), (1, 0, 0), (0, 0, 1), (0, 0, 1), (0, 0, 1), (0, 0, 1), (0, 0, 1), (0, 0, 1), (0.883116, -0.469155, 0), (0.883116, -0.469155, 0), (0.883116, -0.469155, 0), (0.883116, -0.469155, 0), (0.883116, -0.469155, 0), (0.769315, -0.574561, 0.279347), (0.769315, -0.574561, 0.279347), (0.883116, -0.469155, 0), (0.706938, -0.598928, 0.376197), (-0.769315, -0.574561, 0.279347), (-0.883116, -0.469155, 0), (-0.883116, -0.469155, 0), (-0.883116, -0.469155, 0), (-0.769315, -0.574561, 0.279347), (-0.883116, -0.469155, 0), (-0.883116, -0.469155, 0), (-0.769315, -0.574561, 0.279347), (-0.706938, -0.598928, 0.376197), (0, -0.658505, 0.752577), (-0.364175, -0.642844, 0.67389), (0, -0.658505, 0.752577), (-0.364175, -0.642844, 0.67389), (0, -0.658505, 0.752577), (-0.347397, -0.644064, 0.68154), (0.347397, -0.644064, 0.68154), (0.769315, -0.574561, 0.279347), (0.706938, -0.598928, 0.376197), (0.769315, -0.574561, 0.279347), (0.347397, -0.644064, 0.68154), (0.364175, -0.642844, 0.67389), (0.347397, -0.644064, 0.68154), (0, -0.658505, 0.752577), (0.364175, -0.642844, 0.67389), (0, -0.658505, 0.752577), (0.347397, -0.644064, 0.68154), (0, -0.658505, 0.752577), (-0.347397, -0.644064, 0.68154), (-0.769315, -0.574561, 0.279347), (-0.364175, -0.642844, 0.67389), (-0.769315, -0.574561, 0.279347), (-0.347397, -0.644064, 0.68154), (-0.706938, -0.598928, 0.376197), (0.46342, 0, 0.886139), (0, 0, 1), (0.46342, 0, 0.886139), (0, 0, 1), (0.46342, 0, 0.886139), (0, 0, 1), (-1, 0, 0), (-1, 0, 0), (-1, 0, 0), (-1, 0, 0), (-1, 0, 0), (-1, 0, 0), (-1, 0, 0), (-1, 0, 0), (-1, 0, 0), (-1, 0, 0), (-1, 0, 0), (-1, 0, 0), (0, 0, 1), (-0.46342, 0, 0.886139), (0, 0, 1), (-0.46342, 0, 0.886139), (0, 0, 1), (-0.46342, 0, 0.886139), (0.906932, 0, 0.421277), (0.46342, 0, 0.886139), (0.906932, 0, 0.421277), (0.46342, 0, 0.886139), (0.906932, 0, 0.421277), (0.46342, 0, 0.886139), (-0.46342, 0, 0.886139), (-0.906932, 0, 0.421277), (-0.46342, 0, 0.886139), (-0.906932, 0, 0.421277), (-0.46342, 0, 0.886139), (-0.906932, 0, 0.421277), (-0.906932, 0, 0.421277), (-1, 0, 0), (-1, 0, 0), (-1, 0, 0), (-0.906932, 0, 0.421277), (-0.906932, 0, 0.421277), (0.906932, 0, 0.421277), (1, 0, 0), (1, 0, 0), (1, 0, 0), (0.906932, 0, 0.421277), (0.906932, 0, 0.421277), (1, 0, 0), (1, 0, 0), (1, 0, 0), (1, 0, 0), (1, 0, 0), (1, 0, 0), (1, 0, 0), (1, 0, 0), (1, 0, 0), (1, 0, 0), (1, 0, 0), (1, 0, 0), (0, 1, 0), (0, 1, 0), (0, 1, 0), (0, 1, 0), (0, 1, 0), (0, 1, 0), (0, 1, 0), (0, 1, 0), (0, 1, 0), (0, 1, 0), (0, 1, 0), (0, 1, 0), (0, 1, 0), (0, 1, 0), (0, 1, 0), (0, 1, 0), (0, 1, 0), (0, 1, 0), (0, 1, 0), (0, 1, 0), (0, 1, 0), (0, 1, 0), (0, 1, 0), (0, 1, 0), (0, 1, 0), (0, 1, 0), (0, 1, 0), (0, 1, 0), (0, 1, 0), (0, 1, 0), (0, 1, 0), (0, 1, 0), (0, 1, 0), (0, 1, 0), (0, 1, 0), (0, 1, 0), (0, 0, -1), (0, 0, -1), (0, 0, -1), (0, 0, -1), (0, 0, -1), (0, 0, -1), (0, 0, -1), (0, 0, -1), (0, 0, -1), (0, 0, -1), (0, 0, -1), (0, 0, -1), (0, 0, -1), (0, 0, -1), (0, 0, -1), (0, 0, -1), (0, 0, -1), (0, 0, -1), (0, 1, 0), (0, 1, 0), (0, 1, 0), (0, 1, 0), (0, 1, 0), (0, 1, 0), (0, 0, -1), (0, 0, -1), (0, 0, -1), (0, 0, -1), (0, 0, -1), (0, 0, -1), (0, 1, 0), (0, 1, 0), (0, 1, 0), (0, 1, 0), (0, 1, 0), (0, 1, 0), (0.645052, 0, -0.764139), (0.46342, 0, -0.886139), (0.645052, 0, -0.764139), (0.46342, 0, -0.886139), (0.645052, 0, -0.764139), (0.46342, 0, -0.886139), (0.46342, 0, -0.886139), (0, 0, -1), (0.46342, 0, -0.886139), (0, 0, -1), (0.46342, 0, -0.886139), (0, 0, -1), (0, 0, -1), (-0.46342, 0, -0.886139), (0, 0, -1), (-0.46342, 0, -0.886139), (0, 0, -1), (-0.46342, 0, -0.886139), (-0.46342, 0, -0.886139), (-0.645052, 0, -0.764139), (-0.645052, 0, -0.764139), (-0.645052, 0, -0.764139), (-0.46342, 0, -0.886139), (-0.46342, 0, -0.886139), (1.5549e-13, 0.901303, -0.433189), (2.80287e-13, 0.624695, -0.780869), (2.80287e-13, 0.624695, -0.780869), (2.80287e-13, 0.624695, -0.780869), (1.5549e-13, 0.901303, -0.433189), (1.5549e-13, 0.901303, -0.433189), (-1.5549e-13, 0.901303, 0.433189), (1.5549e-13, 0.901303, -0.433189), (-1.5549e-13, 0.901303, 0.433189), (1.5549e-13, 0.901303, -0.433189), (-1.5549e-13, 0.901303, 0.433189), (1.5549e-13, 0.901303, -0.433189), (-1, 0, -3.58942e-13), (-1, 0, -3.58942e-13), (-1, 0, -3.58942e-13), (-1, 0, -3.58942e-13), (-1, 0, -3.58942e-13), (-1, 0, -3.58942e-13), (-1.5549e-13, 0.901303, 0.433189), (-2.80287e-13, 0.624695, 0.780869), (-2.80287e-13, 0.624695, 0.780869), (-2.80287e-13, 0.624695, 0.780869), (-1.5549e-13, 0.901303, 0.433189), (-1.5549e-13, 0.901303, 0.433189), (1, 0, 3.58942e-13), (1, 0, 3.58942e-13), (1, 0, 3.58942e-13), (1, 0, 3.58942e-13), (1, 0, 3.58942e-13), (1, 0, 3.58942e-13), (1.5549e-13, 0.901303, -0.433189), (2.80287e-13, 0.624695, -0.780869), (2.80287e-13, 0.624695, -0.780869), (2.80287e-13, 0.624695, -0.780869), (1.5549e-13, 0.901303, -0.433189), (1.5549e-13, 0.901303, -0.433189), (-1.5549e-13, 0.901303, 0.433189), (1.5549e-13, 0.901303, -0.433189), (-1.5549e-13, 0.901303, 0.433189), (1.5549e-13, 0.901303, -0.433189), (-1.5549e-13, 0.901303, 0.433189), (1.5549e-13, 0.901303, -0.433189), (-1, 0, -3.58942e-13), (-1, 0, -3.58942e-13), (-1, 0, -3.58942e-13), (-1, 0, -3.58942e-13), (-1, 0, -3.58942e-13), (-1, 0, -3.58942e-13), (-1.5549e-13, 0.901303, 0.433189), (-2.80287e-13, 0.624695, 0.780869), (-2.80287e-13, 0.624695, 0.780869), (-2.80287e-13, 0.624695, 0.780869), (-1.5549e-13, 0.901303, 0.433189), (-1.5549e-13, 0.901303, 0.433189), (1, 0, 3.58942e-13), (1, 0, 3.58942e-13), (1, 0, 3.58942e-13), (1, 0, 3.58942e-13), (1, 0, 3.58942e-13), (1, 0, 3.58942e-13), (0, -1, 0), (0, -1, 0), (0, -1, 0), (0, -1, 0), (0, -1, 0), (0, -1, 0), (0, -1, 0), (0, -1, 0), (0, -1, 0), (0, -1, 0), (0, -1, 0), (0, -1, 0), (0, -1, 0), (0, -1, 0), (0, -1, 0), (0, 1, 0), (0, 1, 0), (0, 1, 0), (0, 1, 0), (0, 1, 0), (0, 1, 0), (0, 1, 0), (0, 1, 0), (0, 1, 0), (0, 1, 0), (0, 1, 0), (0, 1, 0), (0, 0.707107, -0.707107), (0, 1, 0), (0, 1, 0), (0, 1, 0), (0, 0.707107, -0.707107), (0, 0.707107, -0.707107), (0, 1, 0), (0, 0.707107, -0.707107), (0, 1, 0), (0, 1, 0), (0, 0.707107, -0.707107), (0, 1, 0), (0, 1, 0), (0, 0.707107, -0.707107), (0, 1, 0), (0, 0, -1), (0, 0.707107, -0.707107), (0, 0, -1), (0, 0.707107, -0.707107), (0, 0, -1), (0, 0.707107, -0.707107), (0, 0, -1), (0, 0, -1), (0, 0, -1), (0, 0, -1), (0, 0, -1), (0, 0, -1), (0, 0, -1), (0, 0, -1), (0, 0, -1), (0, 0, -1), (0, 0, -1), (0, 0, -1), (0, 0, -1), (0, 0, -1), (0, 0, -1), (0, 0, -1), (0, 0, -1), (0, 0, -1), (0, 0, -1), (0, 0, -1), (0, 0, -1), (0, 0, -1), (0, 0, -1), (0, 0, -1), (0, 0, -1), (0, 0, -1), (0, 0, -1), (0, 0, -1), (0, 0, -1), (0, 0, -1), (0, 0, -1), (0, 0, -1), (0, 0, -1), (0, 0, -1), (0, 0, -1), (0, 0, -1), (0, 0, 1), (0, 0, 1), (0, 0, 1), (0, 0, 1), (0, 0, 1), (0, 0, 1), (0, 0, 1), (0, 0, 1), (0, 0, 1), (0, 0, 1), (0, 0, 1), (0, 0, 1), (0, 0, 1), (0, 0, 1), (0, 0, 1), (0, 0, 1), (0, 0, 1), (0, 0, 1), (0, 0, 1), (0, 0, 1), (0, 0, 1), (0, 0, 1), (0, 0, 1), (0, 0, 1), (0, 0, 1), (0, 0, 1), (0, 0, 1), (0, 0, 1), (0, 0, 1), (0, 0, 1), (0, 0, 1), (0, 0, 1), (0, 0, 1), (0, 0, 1), (0, 0, 1), (0, 0, 1), (-0.980785, 0.19509, 0), (-0.707107, 0.707107, 0), (-0.707107, 0.707107, 0), (-0.707107, 0.707107, 0), (-0.980785, 0.19509, 0), (-0.980785, 0.19509, 0), (-1, 0, 0), (-0.980785, 0.19509, 0), (-1, 0, 0), (-0.980785, 0.19509, 0), (-1, 0, 0), (-0.980785, 0.19509, 0), (0.980785, 0.19509, 0), (1, 0, 0), (0.980785, 0.19509, 0), (1, 0, 0), (0.980785, 0.19509, 0), (1, 0, 0), (0.707107, 0.707107, 0), (0.980785, 0.19509, 0), (0.980785, 0.19509, 0), (0.980785, 0.19509, 0), (0.707107, 0.707107, 0), (0.707107, 0.707107, 0), (0.707107, 0.707107, 0), (0, 1, 0), (0.707107, 0.707107, 0), (0, 1, 0), (0.707107, 0.707107, 0), (0, 1, 0), (0, 1, 0), (-0.707107, 0.707107, 0), (0, 1, 0), (-0.707107, 0.707107, 0), (0, 1, 0), (-0.707107, 0.707107, 0), (-1, 0, 0), (-0.980785, -0.19509, 0), (-1, 0, 0), (-0.980785, -0.19509, 0), (-1, 0, 0), (-0.980785, -0.19509, 0), (-0.980785, -0.19509, 0), (-0.707107, -0.707107, 0), (-0.980785, -0.19509, 0), (-0.707107, -0.707107, 0), (-0.980785, -0.19509, 0), (-0.707107, -0.707107, 0), (0, -1, 0), (-0.707107, -0.707107, 0), (-0.707107, -0.707107, 0), (-0.707107, -0.707107, 0), (0, -1, 0), (0, -1, 0), (0.707107, -0.707107, 0), (0, -1, 0), (0, -1, 0), (0, -1, 0), (0.707107, -0.707107, 0), (0.707107, -0.707107, 0), (0.707107, -0.707107, 0), (0.980785, -0.19509, 0), (0.707107, -0.707107, 0), (0.980785, -0.19509, 0), (0.707107, -0.707107, 0), (0.980785, -0.19509, 0), (0.980785, -0.19509, 0), (1, 0, 0), (1, 0, 0), (1, 0, 0), (0.980785, -0.19509, 0), (0.980785, -0.19509, 0), (1, 0, 0), (1, 0, 0), (1, 0, 0), (1, 0, 0), (1, 0, 0), (1, 0, 0), (1, 0, 0), (1, 0, 0), (1, 0, 0), (1, 0, 0), (1, 0, 0), (1, 0, 0), (1, 0, 0), (1, 0, 0), (1, 0, 0), (0, 0, 1), (0, 0.382684, 0.92388), (0, 0, 1), (0, 0.382684, 0.92388), (0, 0, 1), (0, 0.382684, 0.92388), (-1, 0, 0), (-1, 0, 0), (-1, 0, 0), (-1, 0, 0), (-1, 0, 0), (-1, 0, 0), (-1, 0, 0), (-1, 0, 0), (-1, 0, 0), (-1, 0, 0), (-1, 0, 0), (-1, 0, 0), (-1, 0, 0), (-1, 0, 0), (-1, 0, 0), (0, 1, 0), (0, 0.92388, 0.382684), (0, 1, 0), (0, 0.92388, 0.382684), (0, 1, 0), (0, 0.92388, 0.382684), (0, 1, 0), (0, 0.811242, 0.58471), (0, 1, 0), (0, 0.811242, 0.58471), (0, 1, 0), (0, 0.811242, 0.58471), (0, 0.316228, 0.948683), (0, 0.811242, 0.58471), (0, 0.316228, 0.948683), (0, 0.811242, 0.58471), (0, 0.316228, 0.948683), (0, 0.811242, 0.58471), (0, 0.92388, 0.382684), (0, 0.382684, 0.92388), (0, 0.92388, 0.382684), (0, 0.382684, 0.92388), (0, 0.92388, 0.382684), (0, 0.382684, 0.92388), (0, 0, -1), (0, 0, -1), (0, 0, -1), (0, 0, -1), (0, 0, -1), (0, 0, -1), (1, 0, 0), (1, 0, 0), (1, 0, 0), (1, 0, 0), (1, 0, 0), (1, 0, 0), (1, 0, 0), (1, 0, 0), (1, 0, 0), (1, 0, 0), (1, 0, 0), (1, 0, 0), (1, 0, 0), (1, 0, 0), (1, 0, 0), (0, 0, 1), (0, 0.382684, 0.92388), (0, 0, 1), (0, 0.382684, 0.92388), (0, 0, 1), (0, 0.382684, 0.92388), (-1, 0, 0), (-1, 0, 0), (-1, 0, 0), (-1, 0, 0), (-1, 0, 0), (-1, 0, 0), (-1, 0, 0), (-1, 0, 0), (-1, 0, 0), (-1, 0, 0), (-1, 0, 0), (-1, 0, 0), (-1, 0, 0), (-1, 0, 0), (-1, 0, 0), (0, 1, 0), (0, 0.92388, 0.382684), (0, 1, 0), (0, 0.92388, 0.382684), (0, 1, 0), (0, 0.92388, 0.382684), (0, 1, 0), (0, 0.811242, 0.58471), (0, 1, 0), (0, 0.811242, 0.58471), (0, 1, 0), (0, 0.811242, 0.58471), (0, 0.316228, 0.948683), (0, 0.811242, 0.58471), (0, 0.316228, 0.948683), (0, 0.811242, 0.58471), (0, 0.316228, 0.948683), (0, 0.811242, 0.58471), (0, 0.92388, 0.382684), (0, 0.382684, 0.92388), (0, 0.92388, 0.382684), (0, 0.382684, 0.92388), (0, 0.92388, 0.382684), (0, 0.382684, 0.92388), (0, 0, -1), (0, 0, -1), (0, 0, -1), (0, 0, -1), (0, 0, -1), (0, 0, -1), (-1, 0, 0), (-1, 0, 0), (-1, 0, 0), (-1, 0, 0), (-1, 0, 0), (-1, 0, 0), (0, 0, -1), (0, 0, -1), (0, 0, -1), (0, 0, -1), (0, 0, -1), (0, 0, -1), (1, 0, 0), (1, 0, 0), (1, 0, 0), (1, 0, 0), (1, 0, 0), (1, 0, 0), (0, 0, 1), (0, 0, 1), (0, 0, 1), (0, 0, 1), (0, 0, 1), (0, 0, 1), (0, 0, 1), (0, 0, 1), (0, 0, 1), (0, 0, 1), (0, 0, 1), (0, 0, 1), (0, 0, -1), (0, 0, -1), (0, 0, -1), (0, 0, -1), (0, 0, -1), (0, 0, -1), (0.666667, 0.666667, -0.333333), (0.666667, -0.666667, -0.333333), (0.666667, 0.666667, -0.333333), (0.666667, -0.666667, -0.333333), (0.666667, 0.666667, -0.333333), (0.970143, 0, -0.242536), (0.666667, -0.666667, -0.333333), (0.970143, 0, -0.242536), (0.666667, -0.666667, -0.333333), (0.666667, 0.666667, -0.333333), (0, 0.970143, -0.242536), (0.666667, 0.666667, -0.333333), (0, 0.970143, -0.242536), (0.666667, 0.666667, -0.333333), (-0.666667, 0.666667, -0.333333), (0, 0.970143, -0.242536), (-0.666667, 0.666667, -0.333333), (-0.666667, 0.666667, -0.333333), (0, -0.970143, -0.242536), (0.666667, -0.666667, -0.333333), (0.666667, -0.666667, -0.333333), (0.666667, -0.666667, -0.333333), (0, -0.970143, -0.242536), (-0.666667, -0.666667, -0.333333), (-0.666667, -0.666667, -0.333333), (0, -0.970143, -0.242536), (-0.666667, -0.666667, -0.333333), (-0.666667, -0.666667, -0.333333), (-0.666667, 0.666667, -0.333333), (-0.666667, -0.666667, -0.333333), (-0.666667, 0.666667, -0.333333), (-0.666667, -0.666667, -0.333333), (-0.666667, 0.666667, -0.333333), (-0.666667, 0.666667, -0.333333), (-0.666667, -0.666667, -0.333333), (-0.970143, 0, -0.242536), (0, 0.970143, 0.242536), (0.666667, 0.666667, 0.333333), (0.666667, 0.666667, 0.333333), (0.666667, 0.666667, 0.333333), (0, 0.970143, 0.242536), (-0.666667, 0.666667, 0.333333), (-0.666667, 0.666667, 0.333333), (0, 0.970143, 0.242536), (-0.666667, 0.666667, 0.333333), (-0.666667, -0.666667, 0.333333), (-0.970143, 0, 0.242536), (-0.666667, -0.666667, 0.333333), (-0.970143, 0, 0.242536), (-0.666667, -0.666667, 0.333333), (-0.666667, 0.666667, 0.333333), (-0.666667, 0.666667, 0.333333), (-0.666667, -0.666667, 0.333333), (-0.666667, 0.666667, 0.333333), (0.666667, -0.666667, 0.333333), (0, -0.970143, 0.242536), (0.666667, -0.666667, 0.333333), (0, -0.970143, 0.242536), (0.666667, -0.666667, 0.333333), (-0.666667, -0.666667, 0.333333), (0, -0.970143, 0.242536), (-0.666667, -0.666667, 0.333333), (-0.666667, -0.666667, 0.333333), (0.666667, 0.666667, 0.333333), (0.666667, -0.666667, 0.333333), (0.970143, 0, 0.242536), (0.666667, -0.666667, 0.333333), (0.666667, 0.666667, 0.333333), (0.666667, -0.666667, 0.333333), (0.666667, -0.666667, 0.333333), (0.666667, 0.666667, 0.333333), (0.666667, 0.666667, 0.333333), (0, 0, 1), (0, 0, 1), (0, 0, 1), (0, 0, 1), (0, 0, 1), (0, 0, 1), (0, 0, 1), (0, 0, 1), (0, 0, 1), (0, 0, 1), (0, 0, 1), (0, 0, 1), (0, 0, 1), (0, 0, 1), (0, 0, 1), (0, 0, 1), (0, 0, 1), (0, 0, 1), (0, 0, 1), (0, 0, 1), (0, 0, 1), (0, 0, 1), (0, 0, 1), (0, 0, 1), (0, 0, 1), (0, 0, 1), (0, 0, 1), (0, 0, 1), (0, 0, 1), (0, 0, 1), (0, 0, 1), (0, 0, 1), (0, 0, 1), (0, 0, 1), (0, 0, 1), (0, 0, 1), (0, 0, 1), (0, 0, 1), (0, 0, 1), (0, 0, 1), (0, 0, 1), (0, 0, 1), (0, 0, 1), (0, 0, 1), (0, 0, 1), (0, 0, 1), (0, 0, 1), (0, 0, 1), (0, 0, 1), (0, 0, 1), (0, 0, 1), (0, 0, 1), (0, 0, 1), (0, 0, 1), (0, 0, 1), (0, 0, 1), (0, 0, 1), (0, 0, 1), (0, 0, 1), (0, 0, 1), (0.382683, -0.923879, 0), (0.767668, -0.640847, 0), (0.767668, -0.640847, 0), (0.767668, -0.640847, 0), (0.382683, -0.923879, 0), (0.382683, -0.923879, 0), (-0.575002, -0.818152, 0), (-0.886525, -0.462681, 0), (-0.575002, -0.818152, 0), (-0.886525, -0.462681, 0), (-0.575002, -0.818152, 0), (-0.886525, -0.462681, 0), (-0.382683, 0.923879, 0), (-0.767668, 0.640847, 0), (-0.382683, 0.923879, 0), (-0.767668, 0.640847, 0), (-0.382683, 0.923879, 0), (-0.767668, 0.640847, 0), (0.575002, 0.818152, 0), (0.886525, 0.462681, 0), (0.886525, 0.462681, 0), (0.886525, 0.462681, 0), (0.575002, 0.818152, 0), (0.575002, 0.818152, 0), (0, 0, -1), (0, 0, -1), (0, 0, -1), (0, 0, -1), (0, 0, -1), (0, 0, -1), (0, 0, -1), (0, 0, -1), (0, 0, -1), (0, 0, -1), (0, 0, -1), (0, 0, -1), (0, 0, -1), (0, 0, -1), (0, 0, -1), (0, 0, -1), (0, 0, -1), (0, 0, -1), (0, 0, -1), (0, 0, -1), (0, 0, -1), (0, 0, -1), (0, 0, -1), (0, 0, -1), (0, 0, -1), (0, 0, -1), (0, 0, -1), (0, 0, -1), (0, 0, -1), (0, 0, -1), (0, 0, -1), (0, 0, -1), (0, 0, -1), (0, 0, -1), (0, 0, -1), (0, 0, -1), (0, 0, -1), (0, 0, -1), (0, 0, -1), (0, 0, -1), (0, 0, -1), (0, 0, -1), (0, 0, -1), (0, 0, -1), (0, 0, -1), (0, 0, -1), (0, 0, -1), (0, 0, -1), (0, 0, -1), (0, 0, -1), (0, 0, -1), (0, 0, -1), (0, 0, -1), (0, 0, -1), (0, 0, -1), (0, 0, -1), (0, 0, -1), (0, 0, -1), (0, 0, -1), (0, 0, -1), (0.335125, 0.942174, 0), (0.963933, 0.266144, 0), (0.963933, 0.266144, 0), (0.963933, 0.266144, 0), (0.335125, 0.942174, 0), (0.335125, 0.942174, 0), (-0.886525, 0.462681, 0), (-0.575002, 0.818152, 0), (-0.575002, 0.818152, 0), (-0.575002, 0.818152, 0), (-0.886525, 0.462681, 0), (-0.886525, 0.462681, 0), (0.335125, 0.942174, 0), (-0.575002, 0.818152, 0), (0.335125, 0.942174, 0), (-0.575002, 0.818152, 0), (0.335125, 0.942174, 0), (-0.575002, 0.818152, 0), (0.963933, 0.266144, 0), (0.767668, -0.640847, 0), (0.963933, 0.266144, 0), (0.767668, -0.640847, 0), (0.963933, 0.266144, 0), (0.767668, -0.640847, 0), (0.767668, 0.640847, 0), (0.382683, 0.923879, 0), (0.767668, 0.640847, 0), (0.382683, 0.923879, 0), (0.767668, 0.640847, 0), (0.382683, 0.923879, 0), (0.963933, -0.266144, 0), (0.335125, -0.942174, 0), (0.963933, -0.266144, 0), (0.335125, -0.942174, 0), (0.963933, -0.266144, 0), (0.335125, -0.942174, 0), (0.886525, -0.462681, 0), (0.575002, -0.818152, 0), (0.886525, -0.462681, 0), (0.575002, -0.818152, 0), (0.886525, -0.462681, 0), (0.575002, -0.818152, 0), (-0.335125, -0.942174, 0), (-0.963933, -0.266144, 0), (-0.335125, -0.942174, 0), (-0.963933, -0.266144, 0), (-0.335125, -0.942174, 0), (-0.963933, -0.266144, 0), (-0.963933, 0.266144, 0), (-0.335125, 0.942174, 0), (-0.335125, 0.942174, 0), (-0.335125, 0.942174, 0), (-0.963933, 0.266144, 0), (-0.963933, 0.266144, 0), (-0.767668, -0.640847, 0), (-0.382683, -0.923879, 0), (-0.382683, -0.923879, 0), (-0.382683, -0.923879, 0), (-0.767668, -0.640847, 0), (-0.767668, -0.640847, 0), (-0.963933, -0.266144, 0), (-0.767668, 0.640847, 0), (-0.767668, 0.640847, 0), (-0.767668, 0.640847, 0), (-0.963933, -0.266144, 0), (-0.963933, -0.266144, 0), (-0.767668, -0.640847, 0), (-0.963933, 0.266144, 0), (-0.767668, -0.640847, 0), (-0.963933, 0.266144, 0), (-0.767668, -0.640847, 0), (-0.963933, 0.266144, 0), (0.767668, 0.640847, 0), (0.963933, -0.266144, 0), (0.963933, -0.266144, 0), (0.963933, -0.266144, 0), (0.767668, 0.640847, 0), (0.767668, 0.640847, 0), (0.575002, 0.818152, 0), (-0.335125, 0.942174, 0), (0.575002, 0.818152, 0), (-0.335125, 0.942174, 0), (0.575002, 0.818152, 0), (-0.335125, 0.942174, 0), (-0.575002, -0.818152, 0), (0.335125, -0.942174, 0), (0.335125, -0.942174, 0), (0.335125, -0.942174, 0), (-0.575002, -0.818152, 0), (-0.575002, -0.818152, 0), (-0.335125, -0.942174, 0), (0.575002, -0.818152, 0), (0.575002, -0.818152, 0), (0.575002, -0.818152, 0), (-0.335125, -0.942174, 0), (-0.335125, -0.942174, 0)] (interpolation = "faceVarying")
        texCoord2f[] primvars:st = [(0.71875, 0.158333), (0.71875, 0.025), (0.71875, 0.158333), (0.71875, 0.025), (0.71875, 0.158333), (0.71875, 0.025), (0.71875, 0.025), (0.71875, 0.158333), (0.71875, 0.158333), (0.71875, 0.025), (0.71875, 0.158333), (0.71875, 0.025), (0.71875, 0.158333), (0.71875, 0.025), (0.71875, 0.158333), (0.71875, 0.158333), (0.71875, 0.025), (0.71875, 0.158333), (0.71875, 0.158333), (0.71875, 0.025), (0.71875, 0.025), (0.71875, 0.025), (0.71875, 0.158333), (0.71875, 0.158333), (0.71875, 0.158333), (0.71875, 0.025), (0.71875, 0.158333), (0.71875, 0.025), (0.71875, 0.158333), (0.71875, 0.025), (0.71875, 0.158333), (0.71875, 0.025), (0.71875, 0.025), (0.71875, 0.025), (0.71875, 0.158333), (0.71875, 0.158333), (0.71875, 0.158333), (0.71875, 0.025), (0.71875, 0.025), (0.71875, 0.025), (0.71875, 0.158333), (0.71875, 0.158333), (0.46875, 0.475), (0.46875, 0.408333), (0.46875, 0.408333), (0.46875, 0.408333), (0.46875, 0.475), (0.46875, 0.475), (0.46875, 0.408333), (0.46875, 0.475), (0.46875, 0.475), (0.46875, 0.475), (0.46875, 0.408333), (0.46875, 0.441667), (0.46875, 0.441667), (0.46875, 0.408333), (0.46875, 0.408333), (0.46875, 0.475), (0.46875, 0.441667), (0.46875, 0.441667), (0.46875, 0.475), (0.46875, 0.408333), (0.46875, 0.408333), (0.46875, 0.408333), (0.46875, 0.475), (0.46875, 0.475), (0.46875, 0.475), (0.46875, 0.408333), (0.46875, 0.408333), (0.46875, 0.408333), (0.46875, 0.475), (0.46875, 0.475), (0.46875, 0.475), (0.46875, 0.408333), (0.46875, 0.408333), (0.46875, 0.408333), (0.46875, 0.475), (0.46875, 0.475), (0.46875, 0.408333), (0.46875, 0.475), (0.46875, 0.408333), (0.46875, 0.475), (0.46875, 0.408333), (0.46875, 0.475), (0.46875, 0.475), (0.46875, 0.408333), (0.46875, 0.475), (0.46875, 0.408333), (0.46875, 0.475), (0.46875, 0.408333), (0.46875, 0.475), (0.46875, 0.408333), (0.46875, 0.475), (0.46875, 0.408333), (0.46875, 0.475), (0.46875, 0.441667), (0.46875, 0.441667), (0.46875, 0.475), (0.46875, 0.441667), (0.46875, 0.408333), (0.46875, 0.408333), (0.46875, 0.441667), (0.46875, 0.475), (0.46875, 0.475), (0.46875, 0.475), (0.46875, 0.475), (0.46875, 0.475), (0.46875, 0.475), (0.46875, 0.475), (0.46875, 0.475), (0.46875, 0.475), (0.46875, 0.475), (0.46875, 0.475), (0.46875, 0.475), (0.46875, 0.475), (0.46875, 0.475), (0.46875, 0.475), (0.46875, 0.475), (0.46875, 0.475), (0.46875, 0.475), (0.46875, 0.475), (0.46875, 0.475), (0.46875, 0.475), (0.46875, 0.475), (0.46875, 0.475), (0.46875, 0.475), (0.46875, 0.475), (0.46875, 0.475), (0.46875, 0.475), (0.46875, 0.475), (0.46875, 0.475), (0.46875, 0.475), (0.46875, 0.475), (0.46875, 0.475), (0.46875, 0.475), (0.46875, 0.475), (0.46875, 0.475), (0.46875, 0.475), (0.46875, 0.408333), (0.46875, 0.275), (0.46875, 0.275), (0.46875, 0.275), (0.46875, 0.408333), (0.46875, 0.408333), (0.46875, 0.408333), (0.46875, 0.408333), (0.46875, 0.408333), (0.46875, 0.408333), (0.46875, 0.408333), (0.46875, 0.408333), (0.46875, 0.475), (0.46875, 0.408333), (0.46875, 0.408333), (0.46875, 0.408333), (0.46875, 0.475), (0.46875, 0.475), (0.84375, 0.158333), (0.46875, 0.408333), (0.84375, 0.158333), (0.46875, 0.408333), (0.84375, 0.158333), (0.46875, 0.408333), (0.46875, 0.408333), (0.46875, 0.475), (0.46875, 0.408333), (0.46875, 0.475), (0.46875, 0.408333), (0.46875, 0.475), (0.46875, 0.408333), (0.84375, 0.158333), (0.46875, 0.408333), (0.84375, 0.158333), (0.46875, 0.408333), (0.84375, 0.158333), (0.46875, 0.475), (0.46875, 0.441667), (0.46875, 0.441667), (0.46875, 0.441667), (0.46875, 0.475), (0.46875, 0.475), (0.46875, 0.475), (0.46875, 0.441667), (0.46875, 0.441667), (0.46875, 0.441667), (0.46875, 0.475), (0.46875, 0.475), (0.46875, 0.475), (0.46875, 0.441667), (0.46875, 0.441667), (0.46875, 0.441667), (0.46875, 0.475), (0.46875, 0.475), (0.46875, 0.441667), (0.46875, 0.475), (0.46875, 0.441667), (0.46875, 0.475), (0.46875, 0.441667), (0.46875, 0.475), (0.46875, 0.425), (0.46875, 0.325), (0.46875, 0.325), (0.46875, 0.325), (0.46875, 0.425), (0.46875, 0.425), (0.46875, 0.425), (0.46875, 0.425), (0.46875, 0.425), (0.46875, 0.425), (0.46875, 0.425), (0.46875, 0.425), (0.46875, 0.425), (0.46875, 0.325), (0.46875, 0.325), (0.46875, 0.325), (0.46875, 0.425), (0.46875, 0.425), (0.46875, 0.425), (0.46875, 0.325), (0.46875, 0.325), (0.46875, 0.325), (0.46875, 0.425), (0.46875, 0.425), (0.46875, 0.325), (0.46875, 0.425), (0.46875, 0.325), (0.46875, 0.425), (0.46875, 0.325), (0.46875, 0.425), (0.46875, 0.425), (0.46875, 0.325), (0.46875, 0.325), (0.46875, 0.325), (0.46875, 0.425), (0.46875, 0.425), (0.46875, 0.425), (0.46875, 0.425), (0.46875, 0.425), (0.46875, 0.425), (0.46875, 0.425), (0.46875, 0.425), (0.46875, 0.425), (0.46875, 0.325), (0.46875, 0.325), (0.46875, 0.325), (0.46875, 0.425), (0.46875, 0.425), (0.46875, 0.425), (0.46875, 0.325), (0.46875, 0.325), (0.46875, 0.325), (0.46875, 0.425), (0.46875, 0.425), (0.46875, 0.325), (0.46875, 0.425), (0.46875, 0.325), (0.46875, 0.425), (0.46875, 0.325), (0.46875, 0.425), (0.71875, 0.025), (0.71875, 0.025), (0.71875, 0.025), (0.71875, 0.025), (0.71875, 0.025), (0.71875, 0.025), (0.71875, 0.025), (0.71875, 0.025), (0.71875, 0.025), (0.71875, 0.025), (0.71875, 0.025), (0.71875, 0.025), (0.71875, 0.025), (0.71875, 0.025), (0.71875, 0.025), (0.84375, 0.158333), (0.84375, 0.158333), (0.84375, 0.158333), (0.84375, 0.158333), (0.84375, 0.158333), (0.84375, 0.158333), (0.84375, 0.158333), (0.84375, 0.158333), (0.84375, 0.158333), (0.84375, 0.158333), (0.84375, 0.158333), (0.84375, 0.158333), (0.84375, 0.191667), (0.84375, 0.191667), (0.84375, 0.191667), (0.84375, 0.191667), (0.84375, 0.191667), (0.84375, 0.191667), (0.84375, 0.191667), (0.84375, 0.191667), (0.84375, 0.191667), (0.84375, 0.191667), (0.84375, 0.191667), (0.84375, 0.191667), (0.84375, 0.191667), (0.84375, 0.191667), (0.84375, 0.191667), (0.84375, 0.158333), (0.84375, 0.191667), (0.84375, 0.158333), (0.84375, 0.191667), (0.84375, 0.158333), (0.84375, 0.191667), (0.46875, 0.025), (0.46875, 0.120543), (0.46875, 0.025), (0.46875, 0.120543), (0.46875, 0.025), (0.46875, 0.125), (0.46875, 0.120543), (0.46875, 0.125), (0.46875, 0.17856), (0.46875, 0.17856), (0.46875, 0.125), (0.46875, 0.195711), (0.46875, 0.17856), (0.46875, 0.195711), (0.46875, 0.200745), (0.46875, 0.200745), (0.46875, 0.195711), (0.46875, 0.225), (0.46875, 0.195711), (0.46875, 0.200745), (0.46875, 0.225), (0.46875, 0.195711), (0.46875, 0.17856), (0.46875, 0.200745), (0.46875, 0.125), (0.46875, 0.17856), (0.46875, 0.195711), (0.46875, 0.125), (0.46875, 0.120543), (0.46875, 0.17856), (0.46875, 0.025), (0.46875, 0.120543), (0.46875, 0.125), (0.46875, 0.120543), (0.46875, 0.025), (0.46875, 0.025), (0.46875, 0.125), (0.46875, 0.025), (0.46875, 0.025), (0.46875, 0.025), (0.46875, 0.125), (0.46875, 0.120543), (0.46875, 0.120543), (0.46875, 0.125), (0.46875, 0.17856), (0.46875, 0.17856), (0.46875, 0.125), (0.46875, 0.195711), (0.46875, 0.17856), (0.46875, 0.195711), (0.46875, 0.200745), (0.46875, 0.200745), (0.46875, 0.195711), (0.46875, 0.225), (0.46875, 0.195711), (0.46875, 0.200745), (0.46875, 0.225), (0.46875, 0.195711), (0.46875, 0.17856), (0.46875, 0.200745), (0.46875, 0.125), (0.46875, 0.17856), (0.46875, 0.195711), (0.46875, 0.125), (0.46875, 0.120543), (0.46875, 0.17856), (0.46875, 0.125), (0.46875, 0.025), (0.46875, 0.120543), (0.46875, 0.025), (0.46875, 0.125), (0.46875, 0.025), (0.46875, 0.125), (0.46875, 0.195711), (0.46875, 0.195711), (0.46875, 0.195711), (0.46875, 0.125), (0.46875, 0.125), (0.46875, 0.025), (0.46875, 0.125), (0.46875, 0.025), (0.46875, 0.125), (0.46875, 0.025), (0.46875, 0.125), (0.46875, 0.125), (0.46875, 0.025), (0.46875, 0.125), (0.46875, 0.025), (0.46875, 0.125), (0.46875, 0.025), (0.46875, 0.195711), (0.46875, 0.125), (0.46875, 0.125), (0.46875, 0.125), (0.46875, 0.195711), (0.46875, 0.195711), (0.46875, 0.195711), (0.46875, 0.225), (0.46875, 0.195711), (0.46875, 0.225), (0.46875, 0.195711), (0.46875, 0.225), (0.46875, 0.225), (0.46875, 0.195711), (0.46875, 0.225), (0.46875, 0.195711), (0.46875, 0.225), (0.46875, 0.195711), (0.46875, 0.025), (0.46875, 0.120543), (0.46875, 0.025), (0.46875, 0.120543), (0.46875, 0.025), (0.46875, 0.120543), (0.46875, 0.120543), (0.46875, 0.17856), (0.46875, 0.120543), (0.46875, 0.17856), (0.46875, 0.120543), (0.46875, 0.17856), (0.46875, 0.200745), (0.46875, 0.17856), (0.46875, 0.17856), (0.46875, 0.17856), (0.46875, 0.200745), (0.46875, 0.200745), (0.46875, 0.17856), (0.46875, 0.200745), (0.46875, 0.200745), (0.46875, 0.200745), (0.46875, 0.17856), (0.46875, 0.17856), (0.46875, 0.17856), (0.46875, 0.120543), (0.46875, 0.17856), (0.46875, 0.120543), (0.46875, 0.17856), (0.46875, 0.120543), (0.46875, 0.120543), (0.46875, 0.025), (0.46875, 0.025), (0.46875, 0.025), (0.46875, 0.120543), (0.46875, 0.120543), (0.46875, 0.225), (0.46875, 0.025), (0.46875, 0.225), (0.46875, 0.025), (0.46875, 0.225), (0.46875, 0.105), (0.46875, 0.025), (0.46875, 0.105), (0.46875, 0.025), (0.46875, 0.025), (0.46875, 0.105), (0.46875, 0.105), (0.46875, 0.025), (0.46875, 0.105), (0.46875, 0.065), (0.46875, 0.025), (0.46875, 0.065), (0.46875, 0.025), (0.46875, 0.065), (0.46875, 0.025), (0.46875, 0.065), (0.46875, 0.225), (0.46875, 0.105), (0.46875, 0.225), (0.46875, 0.025), (0.46875, 0.105), (0.46875, 0.225), (0.46875, 0.105), (0.46875, 0.025), (0.46875, 0.025), (0.46875, 0.105), (0.46875, 0.025), (0.46875, 0.105), (0.46875, 0.105), (0.46875, 0.025), (0.46875, 0.065), (0.46875, 0.105), (0.46875, 0.105), (0.46875, 0.105), (0.46875, 0.105), (0.46875, 0.105), (0.46875, 0.105), (0.46875, 0.225), (0.46875, 0.225), (0.46875, 0.225), (0.46875, 0.225), (0.46875, 0.225), (0.46875, 0.225), (0.46875, 0.105), (0.46875, 0.225), (0.46875, 0.105), (0.46875, 0.225), (0.46875, 0.105), (0.46875, 0.225), (0.46875, 0.105), (0.46875, 0.065), (0.46875, 0.105), (0.46875, 0.065), (0.46875, 0.105), (0.46875, 0.065), (0.46875, 0.225), (0.46875, 0.025), (0.46875, 0.025), (0.46875, 0.025), (0.46875, 0.225), (0.46875, 0.225), (0.46875, 0.225), (0.46875, 0.025), (0.46875, 0.225), (0.46875, 0.025), (0.46875, 0.225), (0.46875, 0.105), (0.46875, 0.025), (0.46875, 0.105), (0.46875, 0.025), (0.46875, 0.025), (0.46875, 0.105), (0.46875, 0.105), (0.46875, 0.025), (0.46875, 0.105), (0.46875, 0.065), (0.46875, 0.025), (0.46875, 0.065), (0.46875, 0.025), (0.46875, 0.065), (0.46875, 0.025), (0.46875, 0.065), (0.46875, 0.225), (0.46875, 0.105), (0.46875, 0.225), (0.46875, 0.025), (0.46875, 0.105), (0.46875, 0.225), (0.46875, 0.105), (0.46875, 0.025), (0.46875, 0.025), (0.46875, 0.105), (0.46875, 0.025), (0.46875, 0.105), (0.46875, 0.105), (0.46875, 0.025), (0.46875, 0.065), (0.46875, 0.105), (0.46875, 0.105), (0.46875, 0.105), (0.46875, 0.105), (0.46875, 0.105), (0.46875, 0.105), (0.46875, 0.225), (0.46875, 0.225), (0.46875, 0.225), (0.46875, 0.225), (0.46875, 0.225), (0.46875, 0.225), (0.46875, 0.105), (0.46875, 0.225), (0.46875, 0.105), (0.46875, 0.225), (0.46875, 0.105), (0.46875, 0.225), (0.46875, 0.105), (0.46875, 0.065), (0.46875, 0.105), (0.46875, 0.065), (0.46875, 0.105), (0.46875, 0.065), (0.46875, 0.225), (0.46875, 0.025), (0.46875, 0.025), (0.46875, 0.025), (0.46875, 0.225), (0.46875, 0.225), (0.59375, 0.025), (0.59375, 0.225), (0.59375, 0.025), (0.59375, 0.225), (0.59375, 0.025), (0.59375, 0.225), (0.59375, 0.225), (0.59375, 0.025), (0.59375, 0.025), (0.59375, 0.025), (0.59375, 0.225), (0.59375, 0.225), (0.59375, 0.225), (0.59375, 0.025), (0.59375, 0.225), (0.59375, 0.025), (0.59375, 0.225), (0.59375, 0.025), (0.59375, 0.025), (0.59375, 0.225), (0.59375, 0.025), (0.59375, 0.225), (0.59375, 0.025), (0.59375, 0.225), (0.71875, 0.158333), (0.71875, 0.025), (0.71875, 0.158333), (0.71875, 0.025), (0.71875, 0.158333), (0.71875, 0.025), (0.71875, 0.025), (0.71875, 0.158333), (0.71875, 0.158333), (0.71875, 0.025), (0.71875, 0.158333), (0.71875, 0.025), (0.71875, 0.158333), (0.71875, 0.025), (0.71875, 0.158333), (0.71875, 0.158333), (0.71875, 0.025), (0.71875, 0.158333), (0.71875, 0.158333), (0.71875, 0.025), (0.71875, 0.025), (0.71875, 0.025), (0.71875, 0.158333), (0.71875, 0.158333), (0.71875, 0.158333), (0.71875, 0.025), (0.71875, 0.158333), (0.71875, 0.025), (0.71875, 0.158333), (0.71875, 0.025), (0.71875, 0.158333), (0.71875, 0.025), (0.71875, 0.025), (0.71875, 0.025), (0.71875, 0.158333), (0.71875, 0.158333), (0.71875, 0.158333), (0.71875, 0.025), (0.71875, 0.025), (0.71875, 0.025), (0.71875, 0.158333), (0.71875, 0.158333), (0.46875, 0.475), (0.46875, 0.408333), (0.46875, 0.408333), (0.46875, 0.408333), (0.46875, 0.475), (0.46875, 0.475), (0.46875, 0.408333), (0.46875, 0.475), (0.46875, 0.475), (0.46875, 0.475), (0.46875, 0.408333), (0.46875, 0.441667), (0.46875, 0.441667), (0.46875, 0.408333), (0.46875, 0.408333), (0.46875, 0.475), (0.46875, 0.441667), (0.46875, 0.441667), (0.46875, 0.475), (0.46875, 0.408333), (0.46875, 0.408333), (0.46875, 0.408333), (0.46875, 0.475), (0.46875, 0.475), (0.46875, 0.475), (0.46875, 0.408333), (0.46875, 0.408333), (0.46875, 0.408333), (0.46875, 0.475), (0.46875, 0.475), (0.46875, 0.475), (0.46875, 0.408333), (0.46875, 0.408333), (0.46875, 0.408333), (0.46875, 0.475), (0.46875, 0.475), (0.46875, 0.408333), (0.46875, 0.475), (0.46875, 0.408333), (0.46875, 0.475), (0.46875, 0.408333), (0.46875, 0.475), (0.46875, 0.475), (0.46875, 0.408333), (0.46875, 0.475), (0.46875, 0.408333), (0.46875, 0.475), (0.46875, 0.408333), (0.46875, 0.475), (0.46875, 0.408333), (0.46875, 0.475), (0.46875, 0.408333), (0.46875, 0.475), (0.46875, 0.441667), (0.46875, 0.441667), (0.46875, 0.475), (0.46875, 0.441667), (0.46875, 0.408333), (0.46875, 0.408333), (0.46875, 0.441667), (0.46875, 0.475), (0.46875, 0.475), (0.46875, 0.475), (0.46875, 0.475), (0.46875, 0.475), (0.46875, 0.475), (0.46875, 0.475), (0.46875, 0.475), (0.46875, 0.475), (0.46875, 0.475), (0.46875, 0.475), (0.46875, 0.475), (0.46875, 0.475), (0.46875, 0.475), (0.46875, 0.475), (0.46875, 0.475), (0.46875, 0.475), (0.46875, 0.475), (0.46875, 0.475), (0.46875, 0.475), (0.46875, 0.475), (0.46875, 0.475), (0.46875, 0.475), (0.46875, 0.475), (0.46875, 0.475), (0.46875, 0.475), (0.46875, 0.475), (0.46875, 0.475), (0.46875, 0.475), (0.46875, 0.475), (0.46875, 0.475), (0.46875, 0.475), (0.46875, 0.475), (0.46875, 0.475), (0.46875, 0.475), (0.46875, 0.475), (0.46875, 0.408333), (0.46875, 0.275), (0.46875, 0.275), (0.46875, 0.275), (0.46875, 0.408333), (0.46875, 0.408333), (0.46875, 0.408333), (0.46875, 0.408333), (0.46875, 0.408333), (0.46875, 0.408333), (0.46875, 0.408333), (0.46875, 0.408333), (0.46875, 0.475), (0.46875, 0.408333), (0.46875, 0.408333), (0.46875, 0.408333), (0.46875, 0.475), (0.46875, 0.475), (0.84375, 0.158333), (0.46875, 0.408333), (0.84375, 0.158333), (0.46875, 0.408333), (0.84375, 0.158333), (0.46875, 0.408333), (0.46875, 0.408333), (0.46875, 0.475), (0.46875, 0.408333), (0.46875, 0.475), (0.46875, 0.408333), (0.46875, 0.475), (0.46875, 0.408333), (0.84375, 0.158333), (0.46875, 0.408333), (0.84375, 0.158333), (0.46875, 0.408333), (0.84375, 0.158333), (0.46875, 0.475), (0.46875, 0.441667), (0.46875, 0.441667), (0.46875, 0.441667), (0.46875, 0.475), (0.46875, 0.475), (0.46875, 0.475), (0.46875, 0.441667), (0.46875, 0.441667), (0.46875, 0.441667), (0.46875, 0.475), (0.46875, 0.475), (0.46875, 0.475), (0.46875, 0.441667), (0.46875, 0.441667), (0.46875, 0.441667), (0.46875, 0.475), (0.46875, 0.475), (0.46875, 0.441667), (0.46875, 0.475), (0.46875, 0.441667), (0.46875, 0.475), (0.46875, 0.441667), (0.46875, 0.475), (0.46875, 0.425), (0.46875, 0.325), (0.46875, 0.325), (0.46875, 0.325), (0.46875, 0.425), (0.46875, 0.425), (0.46875, 0.425), (0.46875, 0.425), (0.46875, 0.425), (0.46875, 0.425), (0.46875, 0.425), (0.46875, 0.425), (0.46875, 0.425), (0.46875, 0.325), (0.46875, 0.325), (0.46875, 0.325), (0.46875, 0.425), (0.46875, 0.425), (0.46875, 0.425), (0.46875, 0.325), (0.46875, 0.325), (0.46875, 0.325), (0.46875, 0.425), (0.46875, 0.425), (0.46875, 0.325), (0.46875, 0.425), (0.46875, 0.325), (0.46875, 0.425), (0.46875, 0.325), (0.46875, 0.425), (0.46875, 0.425), (0.46875, 0.325), (0.46875, 0.325), (0.46875, 0.325), (0.46875, 0.425), (0.46875, 0.425), (0.46875, 0.425), (0.46875, 0.425), (0.46875, 0.425), (0.46875, 0.425), (0.46875, 0.425), (0.46875, 0.425), (0.46875, 0.425), (0.46875, 0.325), (0.46875, 0.325), (0.46875, 0.325), (0.46875, 0.425), (0.46875, 0.425), (0.46875, 0.425), (0.46875, 0.325), (0.46875, 0.325), (0.46875, 0.325), (0.46875, 0.425), (0.46875, 0.425), (0.46875, 0.325), (0.46875, 0.425), (0.46875, 0.325), (0.46875, 0.425), (0.46875, 0.325), (0.46875, 0.425), (0.71875, 0.025), (0.71875, 0.025), (0.71875, 0.025), (0.71875, 0.025), (0.71875, 0.025), (0.71875, 0.025), (0.71875, 0.025), (0.71875, 0.025), (0.71875, 0.025), (0.71875, 0.025), (0.71875, 0.025), (0.71875, 0.025), (0.71875, 0.025), (0.71875, 0.025), (0.71875, 0.025), (0.84375, 0.158333), (0.84375, 0.158333), (0.84375, 0.158333), (0.84375, 0.158333), (0.84375, 0.158333), (0.84375, 0.158333), (0.84375, 0.158333), (0.84375, 0.158333), (0.84375, 0.158333), (0.84375, 0.158333), (0.84375, 0.158333), (0.84375, 0.158333), (0.84375, 0.191667), (0.84375, 0.191667), (0.84375, 0.191667), (0.84375, 0.191667), (0.84375, 0.191667), (0.84375, 0.191667), (0.84375, 0.191667), (0.84375, 0.191667), (0.84375, 0.191667), (0.84375, 0.191667), (0.84375, 0.191667), (0.84375, 0.191667), (0.84375, 0.191667), (0.84375, 0.191667), (0.84375, 0.191667), (0.84375, 0.158333), (0.84375, 0.191667), (0.84375, 0.158333), (0.84375, 0.191667), (0.84375, 0.158333), (0.84375, 0.191667), (0.46875, 0.025), (0.46875, 0.120543), (0.46875, 0.025), (0.46875, 0.120543), (0.46875, 0.025), (0.46875, 0.125), (0.46875, 0.120543), (0.46875, 0.125), (0.46875, 0.17856), (0.46875, 0.17856), (0.46875, 0.125), (0.46875, 0.195711), (0.46875, 0.17856), (0.46875, 0.195711), (0.46875, 0.200745), (0.46875, 0.200745), (0.46875, 0.195711), (0.46875, 0.225), (0.46875, 0.195711), (0.46875, 0.200745), (0.46875, 0.225), (0.46875, 0.195711), (0.46875, 0.17856), (0.46875, 0.200745), (0.46875, 0.125), (0.46875, 0.17856), (0.46875, 0.195711), (0.46875, 0.125), (0.46875, 0.120543), (0.46875, 0.17856), (0.46875, 0.025), (0.46875, 0.120543), (0.46875, 0.125), (0.46875, 0.120543), (0.46875, 0.025), (0.46875, 0.025), (0.46875, 0.125), (0.46875, 0.025), (0.46875, 0.025), (0.46875, 0.025), (0.46875, 0.125), (0.46875, 0.120543), (0.46875, 0.120543), (0.46875, 0.125), (0.46875, 0.17856), (0.46875, 0.17856), (0.46875, 0.125), (0.46875, 0.195711), (0.46875, 0.17856), (0.46875, 0.195711), (0.46875, 0.200745), (0.46875, 0.200745), (0.46875, 0.195711), (0.46875, 0.225), (0.46875, 0.195711), (0.46875, 0.200745), (0.46875, 0.225), (0.46875, 0.195711), (0.46875, 0.17856), (0.46875, 0.200745), (0.46875, 0.125), (0.46875, 0.17856), (0.46875, 0.195711), (0.46875, 0.125), (0.46875, 0.120543), (0.46875, 0.17856), (0.46875, 0.125), (0.46875, 0.025), (0.46875, 0.120543), (0.46875, 0.025), (0.46875, 0.125), (0.46875, 0.025), (0.46875, 0.125), (0.46875, 0.195711), (0.46875, 0.195711), (0.46875, 0.195711), (0.46875, 0.125), (0.46875, 0.125), (0.46875, 0.025), (0.46875, 0.125), (0.46875, 0.025), (0.46875, 0.125), (0.46875, 0.025), (0.46875, 0.125), (0.46875, 0.125), (0.46875, 0.025), (0.46875, 0.125), (0.46875, 0.025), (0.46875, 0.125), (0.46875, 0.025), (0.46875, 0.195711), (0.46875, 0.125), (0.46875, 0.125), (0.46875, 0.125), (0.46875, 0.195711), (0.46875, 0.195711), (0.46875, 0.195711), (0.46875, 0.225), (0.46875, 0.195711), (0.46875, 0.225), (0.46875, 0.195711), (0.46875, 0.225), (0.46875, 0.225), (0.46875, 0.195711), (0.46875, 0.225), (0.46875, 0.195711), (0.46875, 0.225), (0.46875, 0.195711), (0.46875, 0.025), (0.46875, 0.120543), (0.46875, 0.025), (0.46875, 0.120543), (0.46875, 0.025), (0.46875, 0.120543), (0.46875, 0.120543), (0.46875, 0.17856), (0.46875, 0.120543), (0.46875, 0.17856), (0.46875, 0.120543), (0.46875, 0.17856), (0.46875, 0.200745), (0.46875, 0.17856), (0.46875, 0.17856), (0.46875, 0.17856), (0.46875, 0.200745), (0.46875, 0.200745), (0.46875, 0.17856), (0.46875, 0.200745), (0.46875, 0.200745), (0.46875, 0.200745), (0.46875, 0.17856), (0.46875, 0.17856), (0.46875, 0.17856), (0.46875, 0.120543), (0.46875, 0.17856), (0.46875, 0.120543), (0.46875, 0.17856), (0.46875, 0.120543), (0.46875, 0.120543), (0.46875, 0.025), (0.46875, 0.025), (0.46875, 0.025), (0.46875, 0.120543), (0.46875, 0.120543), (0.46875, 0.225), (0.46875, 0.025), (0.46875, 0.225), (0.46875, 0.025), (0.46875, 0.225), (0.46875, 0.105), (0.46875, 0.025), (0.46875, 0.105), (0.46875, 0.025), (0.46875, 0.025), (0.46875, 0.105), (0.46875, 0.105), (0.46875, 0.025), (0.46875, 0.105), (0.46875, 0.065), (0.46875, 0.025), (0.46875, 0.065), (0.46875, 0.025), (0.46875, 0.065), (0.46875, 0.025), (0.46875, 0.065), (0.46875, 0.225), (0.46875, 0.105), (0.46875, 0.225), (0.46875, 0.025), (0.46875, 0.105), (0.46875, 0.225), (0.46875, 0.105), (0.46875, 0.025), (0.46875, 0.025), (0.46875, 0.105), (0.46875, 0.025), (0.46875, 0.105), (0.46875, 0.105), (0.46875, 0.025), (0.46875, 0.065), (0.46875, 0.105), (0.46875, 0.105), (0.46875, 0.105), (0.46875, 0.105), (0.46875, 0.105), (0.46875, 0.105), (0.46875, 0.225), (0.46875, 0.225), (0.46875, 0.225), (0.46875, 0.225), (0.46875, 0.225), (0.46875, 0.225), (0.46875, 0.105), (0.46875, 0.225), (0.46875, 0.105), (0.46875, 0.225), (0.46875, 0.105), (0.46875, 0.225), (0.46875, 0.105), (0.46875, 0.065), (0.46875, 0.105), (0.46875, 0.065), (0.46875, 0.105), (0.46875, 0.065), (0.46875, 0.225), (0.46875, 0.025), (0.46875, 0.025), (0.46875, 0.025), (0.46875, 0.225), (0.46875, 0.225), (0.46875, 0.225), (0.46875, 0.025), (0.46875, 0.225), (0.46875, 0.025), (0.46875, 0.225), (0.46875, 0.105), (0.46875, 0.025), (0.46875, 0.105), (0.46875, 0.025), (0.46875, 0.025), (0.46875, 0.105), (0.46875, 0.105), (0.46875, 0.025), (0.46875, 0.105), (0.46875, 0.065), (0.46875, 0.025), (0.46875, 0.065), (0.46875, 0.025), (0.46875, 0.065), (0.46875, 0.025), (0.46875, 0.065), (0.46875, 0.225), (0.46875, 0.105), (0.46875, 0.225), (0.46875, 0.025), (0.46875, 0.105), (0.46875, 0.225), (0.46875, 0.105), (0.46875, 0.025), (0.46875, 0.025), (0.46875, 0.105), (0.46875, 0.025), (0.46875, 0.105), (0.46875, 0.105), (0.46875, 0.025), (0.46875, 0.065), (0.46875, 0.105), (0.46875, 0.105), (0.46875, 0.105), (0.46875, 0.105), (0.46875, 0.105), (0.46875, 0.105), (0.46875, 0.225), (0.46875, 0.225), (0.46875, 0.225), (0.46875, 0.225), (0.46875, 0.225), (0.46875, 0.225), (0.46875, 0.105), (0.46875, 0.225), (0.46875, 0.105), (0.46875, 0.225), (0.46875, 0.105), (0.46875, 0.225), (0.46875, 0.105), (0.46875, 0.065), (0.46875, 0.105), (0.46875, 0.065), (0.46875, 0.105), (0.46875, 0.065), (0.46875, 0.225), (0.46875, 0.025), (0.46875, 0.025), (0.46875, 0.025), (0.46875, 0.225), (0.46875, 0.225), (0.59375, 0.025), (0.59375, 0.225), (0.59375, 0.025), (0.59375, 0.225), (0.59375, 0.025), (0.59375, 0.225), (0.59375, 0.225), (0.59375, 0.025), (0.59375, 0.025), (0.59375, 0.025), (0.59375, 0.225), (0.59375, 0.225), (0.59375, 0.225), (0.59375, 0.025), (0.59375, 0.225), (0.59375, 0.025), (0.59375, 0.225), (0.59375, 0.025), (0.59375, 0.025), (0.59375, 0.225), (0.59375, 0.025), (0.59375, 0.225), (0.59375, 0.025), (0.59375, 0.225), (0.46875, 0.0618356), (0.46875, 0.025), (0.46875, 0.025), (0.46875, 0.025), (0.46875, 0.0618356), (0.46875, 0.0618356), (0.46875, 0.0618356), (0.46875, 0.025), (0.46875, 0.025), (0.46875, 0.025), (0.46875, 0.0618356), (0.46875, 0.0618356), (0.46875, 0.0741141), (0.46875, 0.025), (0.46875, 0.0618356), (0.46875, 0.025), (0.46875, 0.0741141), (0.46875, 0.025), (0.46875, 0.025), (0.46875, 0.025), (0.46875, 0.025), (0.46875, 0.0618356), (0.46875, 0.0741141), (0.46875, 0.0741141), (0.46875, 0.0741141), (0.46875, 0.0618356), (0.46875, 0.0618356), (0.46875, 0.0741141), (0.46875, 0.0618356), (0.46875, 0.0741141), (0.46875, 0.025), (0.46875, 0.025), (0.46875, 0.025), (0.46875, 0.025), (0.46875, 0.025), (0.46875, 0.025), (0.46875, 0.025), (0.46875, 0.025), (0.46875, 0.025), (0.46875, 0.025), (0.46875, 0.0618356), (0.46875, 0.025), (0.46875, 0.0618356), (0.46875, 0.025), (0.46875, 0.0741141), (0.46875, 0.0741141), (0.46875, 0.025), (0.46875, 0.025), (0.46875, 0.0741141), (0.46875, 0.0618356), (0.46875, 0.0741141), (0.46875, 0.0618356), (0.46875, 0.0741141), (0.46875, 0.0618356), (0.46875, 0.0618356), (0.46875, 0.0741141), (0.46875, 0.0741141), (0.46875, 0.025), (0.46875, 0.025), (0.46875, 0.025), (0.46875, 0.025), (0.46875, 0.025), (0.46875, 0.0741141), (0.46875, 0.0741141), (0.46875, 0.025), (0.46875, 0.0618356), (0.46875, 0.025), (0.46875, 0.025), (0.46875, 0.025), (0.46875, 0.025), (0.46875, 0.025), (0.46875, 0.025), (0.46875, 0.025), (0.46875, 0.025), (0.46875, 0.025), (0.46875, 0.0741141), (0.46875, 0.025), (0.46875, 0.025), (0.46875, 0.025), (0.46875, 0.0741141), (0.46875, 0.025), (0.46875, 0.025), (0.46875, 0.0741141), (0.46875, 0.0618356), (0.59375, 0.216873), (0.59375, 0.144546), (0.59375, 0.225), (0.59375, 0.216873), (0.59375, 0.0861515), (0.59375, 0.144546), (0.59375, 0.0741141), (0.59375, 0.0861515), (0.59375, 0.216873), (0.59375, 0.0741141), (0.59375, 0.0861515), (0.59375, 0.0741141), (0.59375, 0.0861515), (0.59375, 0.0741141), (0.59375, 0.025), (0.59375, 0.025), (0.59375, 0.025), (0.59375, 0.025), (0.59375, 0.025), (0.59375, 0.025), (0.59375, 0.025), (0.59375, 0.025), (0.59375, 0.025), (0.59375, 0.025), (0.59375, 0.025), (0.59375, 0.025), (0.59375, 0.025), (0.59375, 0.025), (0.59375, 0.025), (0.59375, 0.025), (0.59375, 0.0861515), (0.59375, 0.0741141), (0.59375, 0.0741141), (0.59375, 0.0741141), (0.59375, 0.0861515), (0.59375, 0.025), (0.59375, 0.0861515), (0.59375, 0.0741141), (0.59375, 0.216873), (0.59375, 0.0861515), (0.59375, 0.216873), (0.59375, 0.144546), (0.59375, 0.144546), (0.59375, 0.216873), (0.59375, 0.225), (0.59375, 0.025), (0.59375, 0.025), (0.59375, 0.025), (0.59375, 0.025), (0.59375, 0.025), (0.59375, 0.025), (0.59375, 0.025), (0.59375, 0.025), (0.59375, 0.025), (0.59375, 0.025), (0.59375, 0.025), (0.59375, 0.025), (0.59375, 0.025), (0.59375, 0.025), (0.59375, 0.025), (0.59375, 0.025), (0.59375, 0.0861515), (0.59375, 0.0861515), (0.59375, 0.0861515), (0.59375, 0.025), (0.59375, 0.025), (0.59375, 0.025), (0.59375, 0.025), (0.59375, 0.025), (0.59375, 0.025), (0.59375, 0.025), (0.59375, 0.025), (0.59375, 0.025), (0.59375, 0.025), (0.59375, 0.025), (0.59375, 0.025), (0.59375, 0.025), (0.59375, 0.025), (0.59375, 0.216873), (0.59375, 0.0741141), (0.59375, 0.0741141), (0.59375, 0.0741141), (0.59375, 0.216873), (0.59375, 0.216873), (0.59375, 0.216873), (0.59375, 0.144546), (0.59375, 0.225), (0.59375, 0.216873), (0.59375, 0.0861515), (0.59375, 0.144546), (0.59375, 0.0741141), (0.59375, 0.0861515), (0.59375, 0.216873), (0.59375, 0.0741141), (0.59375, 0.0861515), (0.59375, 0.0741141), (0.59375, 0.0861515), (0.59375, 0.0741141), (0.59375, 0.025), (0.59375, 0.025), (0.59375, 0.025), (0.59375, 0.025), (0.59375, 0.025), (0.59375, 0.025), (0.59375, 0.025), (0.59375, 0.025), (0.59375, 0.025), (0.59375, 0.025), (0.59375, 0.025), (0.59375, 0.025), (0.59375, 0.025), (0.59375, 0.025), (0.59375, 0.025), (0.59375, 0.025), (0.59375, 0.216873), (0.59375, 0.0741141), (0.59375, 0.0741141), (0.59375, 0.0741141), (0.59375, 0.216873), (0.59375, 0.0861515), (0.59375, 0.0861515), (0.59375, 0.025), (0.59375, 0.0741141), (0.59375, 0.0861515), (0.59375, 0.216873), (0.59375, 0.144546), (0.59375, 0.144546), (0.59375, 0.216873), (0.59375, 0.225), (0.59375, 0.025), (0.59375, 0.025), (0.59375, 0.025), (0.59375, 0.025), (0.59375, 0.025), (0.59375, 0.025), (0.59375, 0.025), (0.59375, 0.025), (0.59375, 0.025), (0.59375, 0.025), (0.59375, 0.025), (0.59375, 0.025), (0.59375, 0.025), (0.59375, 0.025), (0.59375, 0.025), (0.59375, 0.225), (0.59375, 0.144546), (0.59375, 0.144546), (0.59375, 0.144546), (0.59375, 0.225), (0.59375, 0.225), (0.59375, 0.0741141), (0.59375, 0.216873), (0.59375, 0.216873), (0.59375, 0.216873), (0.59375, 0.0741141), (0.59375, 0.0741141), (0.59375, 0.225), (0.59375, 0.216873), (0.59375, 0.225), (0.59375, 0.216873), (0.59375, 0.225), (0.59375, 0.216873), (0.59375, 0.144546), (0.59375, 0.0861515), (0.59375, 0.144546), (0.59375, 0.0861515), (0.59375, 0.144546), (0.59375, 0.0861515), (0.59375, 0.025), (0.59375, 0.025), (0.59375, 0.025), (0.59375, 0.025), (0.59375, 0.025), (0.59375, 0.025), (0.59375, 0.025), (0.59375, 0.025), (0.59375, 0.025), (0.59375, 0.025), (0.59375, 0.025), (0.59375, 0.025), (0.59375, 0.025), (0.59375, 0.025), (0.59375, 0.025), (0.59375, 0.025), (0.59375, 0.025), (0.59375, 0.025), (0.59375, 0.025), (0.59375, 0.025), (0.59375, 0.025), (0.59375, 0.025), (0.59375, 0.025), (0.59375, 0.025), (0.59375, 0.144546), (0.59375, 0.225), (0.59375, 0.225), (0.59375, 0.225), (0.59375, 0.144546), (0.59375, 0.144546), (0.59375, 0.0861515), (0.59375, 0.025), (0.59375, 0.025), (0.59375, 0.025), (0.59375, 0.0861515), (0.59375, 0.0861515), (0.59375, 0.025), (0.59375, 0.025), (0.59375, 0.025), (0.59375, 0.025), (0.59375, 0.025), (0.59375, 0.025), (0.59375, 0.0861515), (0.59375, 0.144546), (0.59375, 0.0861515), (0.59375, 0.144546), (0.59375, 0.0861515), (0.59375, 0.144546), (0.59375, 0.025), (0.59375, 0.025), (0.59375, 0.025), (0.59375, 0.025), (0.59375, 0.025), (0.59375, 0.025), (0.59375, 0.216873), (0.59375, 0.225), (0.59375, 0.216873), (0.59375, 0.225), (0.59375, 0.216873), (0.59375, 0.225), (0.59375, 0.025), (0.59375, 0.025), (0.59375, 0.025), (0.59375, 0.025), (0.59375, 0.025), (0.59375, 0.025), (0.59375, 0.025), (0.59375, 0.025), (0.59375, 0.025), (0.59375, 0.025), (0.59375, 0.025), (0.59375, 0.025)] (interpolation = "faceVarying")
        uniform token subdivisionScheme = "none"
        rel material:binding = </Vehicle/Materials/colormap>
    }
    def Scope "Materials" {
        def Material "colormap" {
            token outputs:surface.connect = </Vehicle/Materials/colormap/surface.outputs:surface>
            def Shader "surface" {
                uniform token info:id = "UsdPreviewSurface"
                float inputs:roughness = 0.7
                float inputs:metallic = 0
                color3f inputs:diffuseColor.connect = </Vehicle/Materials/colormap/texture.outputs:rgb>
                token outputs:surface
            }
            def Shader "stReader" {
                uniform token info:id = "UsdPrimvarReader_float2"
                token inputs:varname = "st"
                float2 outputs:result
            }
            def Shader "texture" {
                uniform token info:id = "UsdUVTexture"
                asset inputs:file = @kenney-water-colormap.png@
                float2 inputs:st.connect = </Vehicle/Materials/colormap/stReader.outputs:result>
                token inputs:wrapS = "repeat"
                token inputs:wrapT = "repeat"
                float3 outputs:rgb
            }
        }
    }
}
