#usda 1.0
(
    defaultPrim = "Vehicle"
    metersPerUnit = 1
    upAxis = "Y"
)
def Xform "Vehicle" {
    def Mesh "mesh_dark" {
        int[] faceVertexCounts = [3, 3, 3, 3, 3, 3, 3, 3, 3, 3, 3, 3, 3, 3, 3, 3, 3, 3, 3, 3, 3, 3, 3, 3, 3, 3]
        int[] faceVertexIndices = [2, 1, 0, 1, 2, 3, 5, 2, 4, 2, 5, 3, 5, 1, 3, 1, 5, 6, 5, 7, 6, 7, 5, 4, 1, 7, 0, 7, 1, 6, 10, 9, 8, 9, 10, 11, 14, 13, 12, 13, 14, 15, 14, 9, 11, 9, 14, 12, 9, 13, 8, 13, 9, 12, 14, 10, 15, 10, 14, 11, 18, 17, 16, 21, 20, 19, 16, 19, 20, 19, 16, 17, 19, 18, 21, 18, 19, 17]
        point3f[] points = [(0.5, 0.2, -1.3), (0.5, 0.2, -1.1), (0.3, 0.2, -1.3), (0.3, 0.2, -1.1), (0.3, 0.5, -1.3), (0.3, 0.5, -1.1), (0.5, 0.5, -1.1), (0.5, 0.5, -1.3), (-0.3, 0.2, -1.3), (-0.3, 0.2, -1.1), (-0.5, 0.2, -1.3), (-0.5, 0.2, -1.1), (-0.3, 0.5, -1.1), (-0.3, 0.5, -1.3), (-0.5, 0.5, -1.1), (-0.5, 0.5, -1.3), (-0.2, 0.69005, -0.100496), (-0.0999999, 0.478473, 0.312587), (-0.2, 0.266896, 0.325671), (0.1, 0.478473, 0.312587), (0.2, 0.69005, -0.100496), (0.2, 0.266896, 0.325671), (0.6, 0.6, -1.2), (0.6, 0.5, -0.9), (0.2, 0.6, -1.2), (0.2, 0.54, -1.02), (0.2, 0.5, -0.9), (0.6, 0.6, -1.3), (0.2, 0.6, -1.3), (0.6, 0.1, -1.3), (0.6, 0.3, -0.9), (0.6, 0.1, -0.3), (0.6, 0.3, -0.3), (0.2, 0.1, -0.3), (0.2, 0.1, -1.1), (0.2, 0.1, -1.3), (0.2, 0.5, -1.1), (0.2, 0.6, -0.9), (-0.2, 0.7, -0.7), (0.2, 0.7, -0.7), (-0.2, 0.6, -0.9), (-0.2, 0.54, -1.02), (-0.2, 0.5, -1.1), (0.2, 0.6, -0.5), (0.2, 0.7, -0.3), (0.2, 0.5, -0.5), (0.2, 0.5, -0.3), (-0.2, 0.1, -1.1), (0.2, 0, -0.7), (-0.2, 0, -0.7), (-0.2, 0.7, -0.3), (0.2, 0, -0.3), (-0.2, 0, -0.3), (-0.2, 0.6, -1.2), (-0.2, 0.1, -1.3), (-0.2, 0.6, -1.3), (-0.6, 0.6, -1.2), (-0.2, 0.5, -0.9), (-0.6, 0.5, -0.9), (-0.6, 0.6, -1.3), (-0.6, 0.3, -0.9), (-0.6, 0.1, -1.3), (-0.6, 0.1, -0.3), (-0.6, 0.3, -0.3), (-0.2, 0.1, -0.3), (-0.2, 0.6, -0.5), (-0.2, 0.5, -0.3), (-0.2, 0.5, -0.5), (0.689443, 0.0788854, 0.1), (0.65, 0, 0.1), (0.689443, 0.0788854, 0.7), (0.65, 0, 0.7), (0.6, 0.3, 0.1), (0.57, 0.36, 0.1), (0.6, 0.3, 0.7), (0.57, 0.36, 0.7), (0.65, 0.4, 0.1), (0.689443, 0.321115, 0.1), (0.65, 0.4, 0.7), (0.689443, 0.321115, 0.7), (0.57, 0.04, 0.7), (0.6, 0.1, 0.7), (0.57, 0.04, 0.1), (0.6, 0.1, 0.1), (0.4, 0.1, 0.1), (0.4, 0.154013, 0.1), (0.4, 0.1, 0.7), (0.4, 0.154013, 0.3), (0.4, 0.204014, 0.3), (0.4, 0.3, 0.7), (0.4, 0.254013, 0.3), (0.4, 0.3, 0.1), (0.4, 0.254013, 0.1), (0.4, 0.125, 1), (0.4, 0.275, 1), (-0.4, 0.3, 0.1), (-0.4, 0.25, 0.1), (-0.4, 0.3, 0.7), (-0.4, 0.25, 0.3), (-0.4, 0.15, 0.3), (-0.4, 0.1, 0.7), (-0.4, 0.1, 0.1), (-0.4, 0.15, 0.1), (-0.4, 0.275, 1), (-0.4, 0.125, 1), (-0.4, 0.2, 0.3), (-0.65, 0, 0.1), (-0.57, 0.04, 0.1), (-0.689443, 0.0788854, 0.1), (-0.6, 0.1, 0.1), (-0.689443, 0.321115, 0.1), (-0.6, 0.3, 0.1), (-0.57, 0.36, 0.1), (-0.65, 0.4, 0.1), (-0.57, 0.36, 0.7), (-0.6, 0.3, 0.7), (-0.689443, 0.321115, 0.7), (-0.65, 0.4, 0.7), (-0.65, 0, 0.7), (-0.689443, 0.0788854, 0.7), (-0.57, 0.04, 0.7), (-0.6, 0.1, 0.7), (0.6, 0.6, -0.9), (0.6, 0.6, -0.5), (0.6, 0.5, -0.5), (0.45, 0.6, -0.5), (0.35, 0.6, -0.5), (0.35, 0.6, -0.4), (0.45, 0.6, -0.4), (0.35, 0.5, -0.5), (0.45, 0.5, -0.5), (0.45, 0.5, -0.3), (0.45, 0.55, -0.3), (0.35, 0.55, -0.3), (0.35, 0.5, -0.3), (-0.6, 0.6, -0.9), (-0.35, 0.6, -0.5), (-0.45, 0.6, -0.5), (-0.6, 0.6, -0.5), (-0.45, 0.6, -0.4), (-0.35, 0.6, -0.4), (-0.6, 0.5, -0.5), (0.6, 0.275, 1), (0.6, 0.25, 1.3), (0.4, 0.25, 1.3), (0.6, 0.125, 1), (0.6, 0.15, 1.3), (0.4, 0.15, 1.3), (0.3, 0.154013, 0.1), (0.3, 0.254013, 0.1), (0.3, 0.154013, 0.2), (0.3, 0.254013, 0.2), (0.35, 0.154013, 0.3), (0.35, 0.254013, 0.3), (-0.35, 0.5, -0.5), (-0.45, 0.5, -0.5), (-0.45, 0.5, -0.3), (-0.45, 0.55, -0.3), (-0.35, 0.5, -0.3), (-0.35, 0.55, -0.3), (-0.3, 0.25, 0.1), (-0.3, 0.15, 0.1), (-0.3, 0.25, 0.2), (-0.3, 0.15, 0.2), (-0.35, 0.25, 0.3), (-0.35, 0.15, 0.3), (-0.4, 0.25, 1.3), (-0.4, 0.15, 1.3), (-0.6, 0.15, 1.3), (-0.6, 0.25, 1.3), (-0.6, 0.275, 1), (-0.6, 0.125, 1), (0.9, 0.3, -0.9), (0.9, 0.5, -0.9), (0.9, 0.5, -0.7), (0.9, 0.3, -0.7), (0.7, 0.5, -0.3), (0.7, 0.3, -0.3), (0.6, 0.5, -0.3), (0.2, 0.3, 0.1), (0.2, 0.1, 0.1), (-0.9, 0.3, -0.9), (-0.9, 0.5, -0.9), (-0.7, 0.3, -0.3), (-0.9, 0.3, -0.7), (-0.9, 0.5, -0.7), (-0.7, 0.5, -0.3), (0.2, 0.183448, 0.325671), (0.2, 0.05, 0.1), (-0.2, 0.183448, 0.325671), (-0.2, 0.05, 0.1), (-0.6, 0.5, -0.3), (-0.2, 0.1, 0.1), (-0.2, 0.3, 0.1)]
        normal3f[] normals = [(0, 1, 0), (0, 1, 0), (0, 1, 0), (0, 1, 0), (0, 1, 0), (0, 1, 0), (1, 0, 0), (1, 0, 0), (1, 0, 0), (1, 0, 0), (1, 0, 0), (1, 0, 0), (0, 0, -1), (0, 0, -1), (0, 0, -1), (0, 0, -1), (0, 0, -1), (0, 0, -1), (0, -1, 0), (0, -1, 0), (0, -1, 0), (0, -1, 0), (0, -1, 0), (0, -1, 0), (-1, 0, 0), (-1, 0, 0), (-1, 0, 0), (-1, 0, 0), (-1, 0, 0), (-1, 0, 0), (0, 1, 0), (0, 1, 0), (0, 1, 0), (0, 1, 0), (0, 1, 0), (0, 1, 0), (0, -1, 0), (0, -1, 0), (0, -1, 0), (0, -1, 0), (0, -1, 0), (0, -1, 0), (0, 0, -1), (0, 0, -1), (0, 0, -1), (0, 0, -1), (0, 0, -1), (0, 0, -1), (-1, 0, 0), (-1, 0, 0), (-1, 0, 0), (-1, 0, 0), (-1, 0, 0), (-1, 0, 0), (1, 0, 0), (1, 0, 0), (1, 0, 0), (1, 0, 0), (1, 0, 0), (1, 0, 0), (-0.815526, 0.410667, 0.407763), (-0.815526, 0.410667, 0.407763), (-0.815526, 0.410667, 0.407763), (0.815526, 0.410667, 0.407763), (0.815526, 0.410667, 0.407763), (0.815526, 0.410667, 0.407763), (0, 0.890046, 0.455871), (0, 0.890046, 0.455871), (0, 0.890046, 0.455871), (0, 0.890046, 0.455871), (0, 0.890046, 0.455871), (0, 0.890046, 0.455871), (0, 0.0617199, 0.998093), (0, 0.0617199, 0.998093), (0, 0.0617199, 0.998093), (0, 0.0617199, 0.998093), (0, 0.0617199, 0.998093), (0, 0.0617199, 0.998093)] (interpolation = "faceVarying")
        texCoord2f[] primvars:st = [(-11.811, -51.1811), (-19.685, -43.3071), (-19.685, -51.1811), (-19.685, -43.3071), (-11.811, -51.1811), (-11.811, -43.3071), (43.3071, 19.685), (51.1811, 7.87402), (51.1811, 19.685), (51.1811, 7.87402), (43.3071, 19.685), (43.3071, 7.87402), (-11.811, 19.685), (-19.685, 7.87402), (-11.811, 7.87402), (-19.685, 7.87402), (-11.811, 19.685), (-19.685, 19.685), (11.811, -43.3071), (19.685, -51.1811), (19.685, -43.3071), (19.685, -51.1811), (11.811, -43.3071), (11.811, -51.1811), (-43.3071, 7.87402), (-51.1811, 19.685), (-51.1811, 7.87402), (-51.1811, 19.685), (-43.3071, 7.87402), (-43.3071, 19.685), (19.685, -51.1811), (11.811, -43.3071), (11.811, -51.1811), (11.811, -43.3071), (19.685, -51.1811), (19.685, -43.3071), (-19.685, -43.3071), (-11.811, -51.1811), (-11.811, -43.3071), (-11.811, -51.1811), (-19.685, -43.3071), (-19.685, -51.1811), (19.685, 19.685), (11.811, 7.87402), (19.685, 7.87402), (11.811, 7.87402), (19.685, 19.685), (11.811, 19.685), (-43.3071, 7.87402), (-51.1811, 19.685), (-51.1811, 7.87402), (-51.1811, 19.685), (-43.3071, 7.87402), (-43.3071, 19.685), (43.3071, 19.685), (51.1811, 7.87402), (51.1811, 19.685), (51.1811, 7.87402), (43.3071, 19.685), (43.3071, 7.87402), (7.94669, 4.33381), (9.24666, 13.4695), (-7.06021, 22.6052), (-7.94669, 4.33381), (7.06021, 22.6052), (-9.24666, 13.4695), (-7.87402, 15.9063), (3.93701, -2.36594), (7.87402, 15.9063), (3.93701, -2.36594), (-7.87402, 15.9063), (-3.93701, -2.36594), (3.93701, 18.042), (-7.87402, 9.69635), (7.87402, 9.69635), (-7.87402, 9.69635), (3.93701, 18.042), (-3.93701, 18.042)] (interpolation = "faceVarying")
        uniform token subdivisionScheme = "none"
        rel material:binding = </Vehicle/Materials/dark>
    }
    def Mesh "mesh_metalDark" {
        int[] faceVertexCounts = [3, 3, 3, 3, 3, 3, 3, 3, 3, 3, 3, 3, 3, 3, 3, 3, 3, 3, 3, 3, 3, 3, 3, 3, 3, 3, 3, 3, 3, 3, 3, 3, 3, 3, 3, 3, 3, 3, 3, 3, 3, 3, 3, 3, 3, 3, 3, 3, 3, 3, 3, 3, 3, 3, 3, 3, 3, 3, 3, 3, 3, 3, 3, 3, 3, 3, 3, 3, 3, 3, 3, 3, 3, 3, 3, 3, 3, 3, 3, 3, 3, 3, 3, 3, 3, 3, 3, 3, 3, 3, 3, 3, 3, 3, 3, 3, 3, 3, 3, 3, 3, 3, 3, 3, 3, 3, 3, 3, 3, 3, 3, 3, 3, 3, 3, 3, 3, 3, 3, 3, 3, 3, 3, 3, 3, 3, 3, 3, 3, 3, 3, 3]
        int[] faceVertexIndices = [24, 23, 22, 23, 24, 25, 26, 23, 25, 28, 22, 27, 22, 28, 24, 22, 29, 27, 29, 22, 30, 29, 30, 31, 30, 22, 23, 31, 30, 32, 33, 29, 31, 29, 33, 34, 29, 34, 35, 34, 28, 35, 28, 34, 24, 24, 34, 36, 25, 24, 36, 36, 37, 25, 38, 37, 36, 37, 38, 39, 38, 36, 40, 40, 36, 41, 42, 41, 36, 26, 25, 37, 39, 43, 37, 43, 39, 44, 43, 44, 45, 45, 44, 46, 42, 34, 47, 34, 42, 36, 49, 34, 48, 34, 49, 47, 38, 44, 39, 44, 38, 50, 52, 48, 51, 48, 52, 49, 33, 48, 34, 48, 33, 51, 41, 42, 53, 47, 53, 42, 54, 53, 47, 53, 54, 55, 56, 41, 53, 41, 56, 57, 57, 56, 58, 59, 53, 55, 53, 59, 56, 61, 60, 59, 60, 61, 62, 59, 60, 56, 60, 62, 63, 58, 56, 60, 49, 64, 47, 64, 49, 52, 62, 47, 64, 61, 47, 62, 47, 61, 54, 57, 40, 41, 65, 38, 40, 38, 65, 50, 50, 65, 66, 66, 65, 67, 70, 69, 68, 69, 70, 71, 74, 73, 72, 73, 74, 75, 78, 77, 76, 77, 78, 79, 70, 80, 71, 80, 70, 81, 81, 70, 79, 81, 79, 74, 74, 79, 75, 75, 79, 78, 80, 69, 71, 69, 80, 82, 82, 68, 69, 68, 82, 83, 68, 83, 77, 77, 83, 72, 77, 72, 73, 77, 73, 76, 80, 83, 82, 83, 80, 81, 73, 78, 76, 78, 73, 75, 79, 68, 77, 68, 79, 70, 86, 85, 84, 85, 86, 87, 87, 86, 88, 89, 88, 86, 89, 90, 88, 91, 90, 89, 90, 91, 92, 89, 86, 93, 89, 93, 94, 97, 96, 95, 96, 97, 98, 98, 97, 99, 100, 99, 97, 101, 99, 100, 99, 101, 102, 100, 97, 103, 100, 103, 104, 99, 105, 98, 108, 107, 106, 107, 108, 109, 109, 108, 110, 109, 110, 111, 111, 110, 112, 112, 110, 113, 114, 111, 112, 111, 114, 115, 116, 113, 110, 113, 116, 117, 120, 119, 118, 119, 120, 121, 119, 121, 116, 116, 121, 115, 116, 115, 114, 116, 114, 117, 118, 108, 106, 108, 118, 119, 121, 107, 109, 107, 121, 120, 113, 114, 112, 114, 113, 117, 119, 110, 108, 110, 119, 116, 118, 107, 120, 107, 118, 106]
        point3f[] points = [(0.5, 0.2, -1.3), (0.5, 0.2, -1.1), (0.3, 0.2, -1.3), (0.3, 0.2, -1.1), (0.3, 0.5, -1.3), (0.3, 0.5, -1.1), (0.5, 0.5, -1.1), (0.5, 0.5, -1.3), (-0.3, 0.2, -1.3), (-0.3, 0.2, -1.1), (-0.5, 0.2, -1.3), (-0.5, 0.2, -1.1), (-0.3, 0.5, -1.1), (-0.3, 0.5, -1.3), (-0.5, 0.5, -1.1), (-0.5, 0.5, -1.3), (-0.2, 0.69005, -0.100496), (-0.0999999, 0.478473, 0.312587), (-0.2, 0.266896, 0.325671), (0.1, 0.478473, 0.312587), (0.2, 0.69005, -0.100496), (0.2, 0.266896, 0.325671), (0.6, 0.6, -1.2), (0.6, 0.5, -0.9), (0.2, 0.6, -1.2), (0.2, 0.54, -1.02), (0.2, 0.5, -0.9), (0.6, 0.6, -1.3), (0.2, 0.6, -1.3), (0.6, 0.1, -1.3), (0.6, 0.3, -0.9), (0.6, 0.1, -0.3), (0.6, 0.3, -0.3), (0.2, 0.1, -0.3), (0.2, 0.1, -1.1), (0.2, 0.1, -1.3), (0.2, 0.5, -1.1), (0.2, 0.6, -0.9), (-0.2, 0.7, -0.7), (0.2, 0.7, -0.7), (-0.2, 0.6, -0.9), (-0.2, 0.54, -1.02), (-0.2, 0.5, -1.1), (0.2, 0.6, -0.5), (0.2, 0.7, -0.3), (0.2, 0.5, -0.5), (0.2, 0.5, -0.3), (-0.2, 0.1, -1.1), (0.2, 0, -0.7), (-0.2, 0, -0.7), (-0.2, 0.7, -0.3), (0.2, 0, -0.3), (-0.2, 0, -0.3), (-0.2, 0.6, -1.2), (-0.2, 0.1, -1.3), (-0.2, 0.6, -1.3), (-0.6, 0.6, -1.2), (-0.2, 0.5, -0.9), (-0.6, 0.5, -0.9), (-0.6, 0.6, -1.3), (-0.6, 0.3, -0.9), (-0.6, 0.1, -1.3), (-0.6, 0.1, -0.3), (-0.6, 0.3, -0.3), (-0.2, 0.1, -0.3), (-0.2, 0.6, -0.5), (-0.2, 0.5, -0.3), (-0.2, 0.5, -0.5), (0.689443, 0.0788854, 0.1), (0.65, 0, 0.1), (0.689443, 0.0788854, 0.7), (0.65, 0, 0.7), (0.6, 0.3, 0.1), (0.57, 0.36, 0.1), (0.6, 0.3, 0.7), (0.57, 0.36, 0.7), (0.65, 0.4, 0.1), (0.689443, 0.321115, 0.1), (0.65, 0.4, 0.7), (0.689443, 0.321115, 0.7), (0.57, 0.04, 0.7), (0.6, 0.1, 0.7), (0.57, 0.04, 0.1), (0.6, 0.1, 0.1), (0.4, 0.1, 0.1), (0.4, 0.154013, 0.1), (0.4, 0.1, 0.7), (0.4, 0.154013, 0.3), (0.4, 0.204014, 0.3), (0.4, 0.3, 0.7), (0.4, 0.254013, 0.3), (0.4, 0.3, 0.1), (0.4, 0.254013, 0.1), (0.4, 0.125, 1), (0.4, 0.275, 1), (-0.4, 0.3, 0.1), (-0.4, 0.25, 0.1), (-0.4, 0.3, 0.7), (-0.4, 0.25, 0.3), (-0.4, 0.15, 0.3), (-0.4, 0.1, 0.7), (-0.4, 0.1, 0.1), (-0.4, 0.15, 0.1), (-0.4, 0.275, 1), (-0.4, 0.125, 1), (-0.4, 0.2, 0.3), (-0.65, 0, 0.1), (-0.57, 0.04, 0.1), (-0.689443, 0.0788854, 0.1), (-0.6, 0.1, 0.1), (-0.689443, 0.321115, 0.1), (-0.6, 0.3, 0.1), (-0.57, 0.36, 0.1), (-0.65, 0.4, 0.1), (-0.57, 0.36, 0.7), (-0.6, 0.3, 0.7), (-0.689443, 0.321115, 0.7), (-0.65, 0.4, 0.7), (-0.65, 0, 0.7), (-0.689443, 0.0788854, 0.7), (-0.57, 0.04, 0.7), (-0.6, 0.1, 0.7), (0.6, 0.6, -0.9), (0.6, 0.6, -0.5), (0.6, 0.5, -0.5), (0.45, 0.6, -0.5), (0.35, 0.6, -0.5), (0.35, 0.6, -0.4), (0.45, 0.6, -0.4), (0.35, 0.5, -0.5), (0.45, 0.5, -0.5), (0.45, 0.5, -0.3), (0.45, 0.55, -0.3), (0.35, 0.55, -0.3), (0.35, 0.5, -0.3), (-0.6, 0.6, -0.9), (-0.35, 0.6, -0.5), (-0.45, 0.6, -0.5), (-0.6, 0.6, -0.5), (-0.45, 0.6, -0.4), (-0.35, 0.6, -0.4), (-0.6, 0.5, -0.5), (0.6, 0.275, 1), (0.6, 0.25, 1.3), (0.4, 0.25, 1.3), (0.6, 0.125, 1), (0.6, 0.15, 1.3), (0.4, 0.15, 1.3), (0.3, 0.154013, 0.1), (0.3, 0.254013, 0.1), (0.3, 0.154013, 0.2), (0.3, 0.254013, 0.2), (0.35, 0.154013, 0.3), (0.35, 0.254013, 0.3), (-0.35, 0.5, -0.5), (-0.45, 0.5, -0.5), (-0.45, 0.5, -0.3), (-0.45, 0.55, -0.3), (-0.35, 0.5, -0.3), (-0.35, 0.55, -0.3), (-0.3, 0.25, 0.1), (-0.3, 0.15, 0.1), (-0.3, 0.25, 0.2), (-0.3, 0.15, 0.2), (-0.35, 0.25, 0.3), (-0.35, 0.15, 0.3), (-0.4, 0.25, 1.3), (-0.4, 0.15, 1.3), (-0.6, 0.15, 1.3), (-0.6, 0.25, 1.3), (-0.6, 0.275, 1), (-0.6, 0.125, 1), (0.9, 0.3, -0.9), (0.9, 0.5, -0.9), (0.9, 0.5, -0.7), (0.9, 0.3, -0.7), (0.7, 0.5, -0.3), (0.7, 0.3, -0.3), (0.6, 0.5, -0.3), (0.2, 0.3, 0.1), (0.2, 0.1, 0.1), (-0.9, 0.3, -0.9), (-0.9, 0.5, -0.9), (-0.7, 0.3, -0.3), (-0.9, 0.3, -0.7), (-0.9, 0.5, -0.7), (-0.7, 0.5, -0.3), (0.2, 0.183448, 0.325671), (0.2, 0.05, 0.1), (-0.2, 0.183448, 0.325671), (-0.2, 0.05, 0.1), (-0.6, 0.5, -0.3), (-0.2, 0.1, 0.1), (-0.2, 0.3, 0.1)]
        normal3f[] normals = [(0, 0.948683, 0.316228), (0, 0.948683, 0.316228), (0, 0.948683, 0.316228), (0, 0.948683, 0.316228), (0, 0.948683, 0.316228), (0, 0.948683, 0.316228), (0, 0.948683, 0.316228), (0, 0.948683, 0.316228), (0, 0.948683, 0.316228), (0, 1, 0), (0, 1, 0), (0, 1, 0), (0, 1, 0), (0, 1, 0), (0, 1, 0), (1, 0, 0), (1, 0, 0), (1, 0, 0), (1, 0, 0), (1, 0, 0), (1, 0, 0), (1, 0, 0), (1, 0, 0), (1, 0, 0), (1, 0, 0), (1, 0, 0), (1, 0, 0), (1, 0, 0), (1, 0, 0), (1, 0, 0), (0, -1, 0), (0, -1, 0), (0, -1, 0), (0, -1, 0), (0, -1, 0), (0, -1, 0), (0, -1, 0), (0, -1, 0), (0, -1, 0), (-1, 0, 0), (-1, 0, 0), (-1, 0, 0), (-1, 0, 0), (-1, 0, 0), (-1, 0, 0), (-1, 0, 0), (-1, 0, 0), (-1, 0, 0), (-1, 0, 0), (-1, 0, 0), (-1, 0, 0), (0, 0.894427, -0.447214), (0, 0.894427, -0.447214), (0, 0.894427, -0.447214), (0, 0.894427, -0.447214), (0, 0.894427, -0.447214), (0, 0.894427, -0.447214), (0, 0.894427, -0.447214), (0, 0.894427, -0.447214), (0, 0.894427, -0.447214), (0, 0.894427, -0.447214), (0, 0.894427, -0.447214), (0, 0.894427, -0.447214), (0, 0.894427, -0.447214), (0, 0.894427, -0.447214), (0, 0.894427, -0.447214), (0, 0.894427, -0.447214), (0, 0.894427, -0.447214), (0, 0.894427, -0.447214), (1, 0, 0), (1, 0, 0), (1, 0, 0), (1, 0, 0), (1, 0, 0), (1, 0, 0), (1, 0, 0), (1, 0, 0), (1, 0, 0), (1, 0, 0), (1, 0, 0), (1, 0, 0), (1, 0, 0), (1, 0, 0), (1, 0, 0), (0, 0, -1), (0, 0, -1), (0, 0, -1), (0, 0, -1), (0, 0, -1), (0, 0, -1), (0, -0.970143, -0.242536), (0, -0.970143, -0.242536), (0, -0.970143, -0.242536), (0, -0.970143, -0.242536), (0, -0.970143, -0.242536), (0, -0.970143, -0.242536), (0, 1, 0), (0, 1, 0), (0, 1, 0), (0, 1, 0), (0, 1, 0), (0, 1, 0), (0, -1, 0), (0, -1, 0), (0, -1, 0), (0, -1, 0), (0, -1, 0), (0, -1, 0), (1, 0, 0), (1, 0, 0), (1, 0, 0), (1, 0, 0), (1, 0, 0), (1, 0, 0), (1, 0, 0), (1, 0, 0), (1, 0, 0), (1, 0, 0), (1, 0, 0), (1, 0, 0), (1, 0, 0), (1, 0, 0), (1, 0, 0), (1, 0, 0), (1, 0, 0), (1, 0, 0), (0, 0.948683, 0.316228), (0, 0.948683, 0.316228), (0, 0.948683, 0.316228), (0, 0.948683, 0.316228), (0, 0.948683, 0.316228), (0, 0.948683, 0.316228), (0, 0.948683, 0.316228), (0, 0.948683, 0.316228), (0, 0.948683, 0.316228), (0, 1, 0), (0, 1, 0), (0, 1, 0), (0, 1, 0), (0, 1, 0), (0, 1, 0), (-1, 0, 0), (-1, 0, 0), (-1, 0, 0), (-1, 0, 0), (-1, 0, 0), (-1, 0, 0), (-1, 0, 0), (-1, 0, 0), (-1, 0, 0), (-1, 0, 0), (-1, 0, 0), (-1, 0, 0), (-1, 0, 0), (-1, 0, 0), (-1, 0, 0), (-1, 0, 0), (-1, 0, 0), (-1, 0, 0), (-1, 0, 0), (-1, 0, 0), (-1, 0, 0), (0, -1, 0), (0, -1, 0), (0, -1, 0), (0, -1, 0), (0, -1, 0), (0, -1, 0), (0, -1, 0), (0, -1, 0), (0, -1, 0), (-1, 0, 0), (-1, 0, 0), (-1, 0, 0), (-1, 0, 0), (-1, 0, 0), (-1, 0, 0), (-1, 0, 0), (-1, 0, 0), (-1, 0, 0), (-1, 0, 0), (-1, 0, 0), (-1, 0, 0), (-1, 0, 0), (-1, 0, 0), (-1, 0, 0), (0.894427, -0.447214, 0), (0.894427, -0.447214, 0), (0.894427, -0.447214, 0), (0.894427, -0.447214, 0), (0.894427, -0.447214, 0), (0.894427, -0.447214, 0), (-0.894427, -0.447214, 0), (-0.894427, -0.447214, 0), (-0.894427, -0.447214, 0), (-0.894427, -0.447214, 0), (-0.894427, -0.447214, 0), (-0.894427, -0.447214, 0), (0.894427, 0.447214, 0), (0.894427, 0.447214, 0), (0.894427, 0.447214, 0), (0.894427, 0.447214, 0), (0.894427, 0.447214, 0), (0.894427, 0.447214, 0), (0, 0, 1), (0, 0, 1), (0, 0, 1), (0, 0, 1), (0, 0, 1), (0, 0, 1), (0, 0, 1), (0, 0, 1), (0, 0, 1), (0, 0, 1), (0, 0, 1), (0, 0, 1), (0, 0, 1), (0, 0, 1), (0, 0, 1), (0, 0, 1), (0, 0, 1), (0, 0, 1), (-0.447214, -0.894427, 0), (-0.447214, -0.894427, 0), (-0.447214, -0.894427, 0), (-0.447214, -0.894427, 0), (-0.447214, -0.894427, 0), (-0.447214, -0.894427, 0), (0, 0, -1), (0, 0, -1), (0, 0, -1), (0, 0, -1), (0, 0, -1), (0, 0, -1), (0, 0, -1), (0, 0, -1), (0, 0, -1), (0, 0, -1), (0, 0, -1), (0, 0, -1), (0, 0, -1), (0, 0, -1), (0, 0, -1), (0, 0, -1), (0, 0, -1), (0, 0, -1), (-0.894427, 0.447214, 0), (-0.894427, 0.447214, 0), (-0.894427, 0.447214, 0), (-0.894427, 0.447214, 0), (-0.894427, 0.447214, 0), (-0.894427, 0.447214, 0), (-0.447214, 0.894427, 0), (-0.447214, 0.894427, 0), (-0.447214, 0.894427, 0), (-0.447214, 0.894427, 0), (-0.447214, 0.894427, 0), (-0.447214, 0.894427, 0), (1, 0, 0), (1, 0, 0), (1, 0, 0), (1, 0, 0), (1, 0, 0), (1, 0, 0), (-1, 0, 0), (-1, 0, 0), (-1, 0, 0), (-1, 0, 0), (-1, 0, 0), (-1, 0, 0), (-1, 0, 0), (-1, 0, 0), (-1, 0, 0), (-1, 0, 0), (-1, 0, 0), (-1, 0, 0), (-1, 0, 0), (-1, 0, 0), (-1, 0, 0), (-1, 0, 0), (-1, 0, 0), (-1, 0, 0), (-1, 0, 0), (-1, 0, 0), (-1, 0, 0), (-1, 0, 0), (-1, 0, 0), (-1, 0, 0), (-1, 0, 0), (-1, 0, 0), (-1, 0, 0), (1, 0, 0), (1, 0, 0), (1, 0, 0), (1, 0, 0), (1, 0, 0), (1, 0, 0), (1, 0, 0), (1, 0, 0), (1, 0, 0), (1, 0, 0), (1, 0, 0), (1, 0, 0), (1, 0, 0), (1, 0, 0), (1, 0, 0), (1, 0, 0), (1, 0, 0), (1, 0, 0), (1, 0, 0), (1, 0, 0), (1, 0, 0), (1, 0, 0), (1, 0, 0), (1, 0, 0), (1, 0, 0), (1, 0, 0), (1, 0, 0), (0, 0, -1), (0, 0, -1), (0, 0, -1), (0, 0, -1), (0, 0, -1), (0, 0, -1), (0, 0, -1), (0, 0, -1), (0, 0, -1), (0, 0, -1), (0, 0, -1), (0, 0, -1), (0, 0, -1), (0, 0, -1), (0, 0, -1), (0, 0, -1), (0, 0, -1), (0, 0, -1), (0.894427, -0.447214, 0), (0.894427, -0.447214, 0), (0.894427, -0.447214, 0), (0.894427, -0.447214, 0), (0.894427, -0.447214, 0), (0.894427, -0.447214, 0), (-0.894427, 0.447214, 0), (-0.894427, 0.447214, 0), (-0.894427, 0.447214, 0), (-0.894427, 0.447214, 0), (-0.894427, 0.447214, 0), (-0.894427, 0.447214, 0), (0, 0, 1), (0, 0, 1), (0, 0, 1), (0, 0, 1), (0, 0, 1), (0, 0, 1), (0, 0, 1), (0, 0, 1), (0, 0, 1), (0, 0, 1), (0, 0, 1), (0, 0, 1), (0, 0, 1), (0, 0, 1), (0, 0, 1), (0, 0, 1), (0, 0, 1), (0, 0, 1), (-0.894427, -0.447214, 0), (-0.894427, -0.447214, 0), (-0.894427, -0.447214, 0), (-0.894427, -0.447214, 0), (-0.894427, -0.447214, 0), (-0.894427, -0.447214, 0), (0.894427, 0.447214, 0), (0.894427, 0.447214, 0), (0.894427, 0.447214, 0), (0.894427, 0.447214, 0), (0.894427, 0.447214, 0), (0.894427, 0.447214, 0), (0.447214, 0.894427, 0), (0.447214, 0.894427, 0), (0.447214, 0.894427, 0), (0.447214, 0.894427, 0), (0.447214, 0.894427, 0), (0.447214, 0.894427, 0), (-1, 0, 0), (-1, 0, 0), (-1, 0, 0), (-1, 0, 0), (-1, 0, 0), (-1, 0, 0), (0.447214, -0.894427, 0), (0.447214, -0.894427, 0), (0.447214, -0.894427, 0), (0.447214, -0.894427, 0), (0.447214, -0.894427, 0), (0.447214, -0.894427, 0)] (interpolation = "faceVarying")
        texCoord2f[] primvars:st = [(7.87402, 52.2896), (23.6221, 39.8397), (23.6221, 52.2896), (23.6221, 39.8397), (7.87402, 52.2896), (7.87402, 44.8197), (7.87402, 39.8397), (23.6221, 39.8397), (7.87402, 44.8197), (-7.87402, -51.1811), (-23.6221, -47.2441), (-23.6221, -51.1811), (-23.6221, -47.2441), (-7.87402, -51.1811), (-7.87402, -47.2441), (47.2441, 23.6221), (51.1811, 3.93701), (51.1811, 23.6221), (51.1811, 3.93701), (47.2441, 23.6221), (35.4331, 11.811), (51.1811, 3.93701), (35.4331, 11.811), (11.811, 3.93701), (35.4331, 11.811), (47.2441, 23.6221), (35.4331, 19.685), (11.811, 3.93701), (35.4331, 11.811), (11.811, 11.811), (7.87402, -11.811), (23.6221, -51.1811), (23.6221, -11.811), (23.6221, -51.1811), (7.87402, -11.811), (7.87402, -43.3071), (23.6221, -51.1811), (7.87402, -43.3071), (7.87402, -51.1811), (-43.3071, 3.93701), (-51.1811, 23.6221), (-51.1811, 3.93701), (-51.1811, 23.6221), (-43.3071, 3.93701), (-47.2441, 23.6221), (-47.2441, 23.6221), (-43.3071, 3.93701), (-43.3071, 19.685), (-40.1575, 21.2598), (-47.2441, 23.6221), (-43.3071, 19.685), (-7.87402, -29.9316), (-7.87402, -21.1282), (-7.87402, -26.4103), (7.87402, -12.3248), (-7.87402, -21.1282), (-7.87402, -29.9316), (-7.87402, -21.1282), (7.87402, -12.3248), (-7.87402, -12.3248), (7.87402, -12.3248), (-7.87402, -29.9316), (7.87402, -21.1282), (7.87402, -21.1282), (-7.87402, -29.9316), (7.87402, -26.4103), (7.87402, -29.9316), (7.87402, -26.4103), (-7.87402, -29.9316), (35.4331, 19.685), (40.1575, 21.2598), (35.4331, 23.6221), (27.5591, 27.5591), (19.685, 23.6221), (35.4331, 23.6221), (19.685, 23.6221), (27.5591, 27.5591), (11.811, 27.5591), (19.685, 23.6221), (11.811, 27.5591), (19.685, 19.685), (19.685, 19.685), (11.811, 27.5591), (11.811, 19.685), (7.87402, 19.685), (-7.87402, 3.93701), (7.87402, 3.93701), (-7.87402, 3.93701), (7.87402, 19.685), (-7.87402, 19.685), (7.87402, 26.7362), (-7.87402, 42.9689), (-7.87402, 26.7362), (-7.87402, 42.9689), (7.87402, 26.7362), (7.87402, 42.9689), (7.87402, -27.5591), (-7.87402, -11.811), (-7.87402, -27.5591), (-7.87402, -11.811), (7.87402, -27.5591), (7.87402, -11.811), (-7.87402, -11.811), (7.87402, -27.5591), (7.87402, -11.811), (7.87402, -27.5591), (-7.87402, -11.811), (-7.87402, -27.5591), (11.811, 3.93701), (27.5591, 0), (43.3071, 3.93701), (27.5591, 0), (11.811, 3.93701), (11.811, 0), (40.1575, 21.2598), (43.3071, 19.685), (47.2441, 23.6221), (43.3071, 3.93701), (47.2441, 23.6221), (43.3071, 19.685), (51.1811, 3.93701), (47.2441, 23.6221), (43.3071, 3.93701), (47.2441, 23.6221), (51.1811, 3.93701), (51.1811, 23.6221), (-23.6221, 52.2896), (-7.87402, 44.8197), (-7.87402, 52.2896), (-7.87402, 44.8197), (-23.6221, 52.2896), (-7.87402, 39.8397), (-7.87402, 39.8397), (-23.6221, 52.2896), (-23.6221, 39.8397), (23.6221, -51.1811), (7.87402, -47.2441), (7.87402, -51.1811), (7.87402, -47.2441), (23.6221, -51.1811), (23.6221, -47.2441), (-51.1811, 3.93701), (-35.4331, 11.811), (-51.1811, 23.6221), (-35.4331, 11.811), (-51.1811, 3.93701), (-11.811, 3.93701), (-51.1811, 23.6221), (-35.4331, 11.811), (-47.2441, 23.6221), (-35.4331, 11.811), (-11.811, 3.93701), (-11.811, 11.811), (-35.4331, 19.685), (-47.2441, 23.6221), (-35.4331, 11.811), (-27.5591, -1.59162e-13), (-11.811, 3.93701), (-43.3071, 3.93701), (-11.811, 3.93701), (-27.5591, -1.59162e-13), (-11.811, -1.59162e-13), (-23.6221, -11.811), (-7.87402, -43.3071), (-7.87402, -11.811), (-23.6221, -51.1811), (-7.87402, -43.3071), (-23.6221, -11.811), (-7.87402, -43.3071), (-23.6221, -51.1811), (-7.87402, -51.1811), (-35.4331, 19.685), (-35.4331, 23.6221), (-40.1575, 21.2598), (-19.685, 23.6221), (-27.5591, 27.5591), (-35.4331, 23.6221), (-27.5591, 27.5591), (-19.685, 23.6221), (-11.811, 27.5591), (-11.811, 27.5591), (-19.685, 23.6221), (-11.811, 19.685), (-11.811, 19.685), (-19.685, 23.6221), (-19.685, 19.685), (-27.5591, 14.9168), (-3.93701, 11.4444), (-3.93701, 14.9168), (-3.93701, 11.4444), (-27.5591, 14.9168), (-27.5591, 11.4444), (27.5591, -4.49418e-13), (3.93701, 2.64102), (3.93701, -4.49418e-13), (3.93701, 2.64102), (27.5591, -4.49418e-13), (27.5591, 2.64102), (-27.5591, 2.64102), (-3.93701, -0.831282), (-3.93701, 2.64102), (-3.93701, -0.831282), (-27.5591, 2.64102), (-27.5591, -0.831282), (27.1434, 3.10573), (22.4409, 1.5748), (25.5906, 0), (22.4409, 1.5748), (27.1434, 3.10573), (23.6221, 3.93701), (23.6221, 3.93701), (27.1434, 3.10573), (27.1434, 12.6423), (23.6221, 3.93701), (27.1434, 12.6423), (23.6221, 11.811), (23.6221, 11.811), (27.1434, 12.6423), (22.4409, 14.1732), (22.4409, 14.1732), (27.1434, 12.6423), (25.5906, 15.748), (27.5591, -19.3675), (3.93701, -22.8889), (27.5591, -22.8889), (3.93701, -22.8889), (27.5591, -19.3675), (3.93701, -19.3675), (-22.4409, 1.5748), (-27.1434, 3.10573), (-25.5906, 0), (-27.1434, 3.10573), (-22.4409, 1.5748), (-23.6221, 3.93701), (-27.1434, 3.10573), (-23.6221, 3.93701), (-27.1434, 12.6423), (-27.1434, 12.6423), (-23.6221, 3.93701), (-23.6221, 11.811), (-27.1434, 12.6423), (-23.6221, 11.811), (-22.4409, 14.1732), (-27.1434, 12.6423), (-22.4409, 14.1732), (-25.5906, 15.748), (27.5591, 11.4444), (3.93701, 14.0855), (3.93701, 11.4444), (3.93701, 14.0855), (27.5591, 11.4444), (27.5591, 14.0855), (3.93701, 26.4103), (27.5591, 29.9316), (3.93701, 29.9316), (27.5591, 29.9316), (3.93701, 26.4103), (27.5591, 26.4103), (-27.5591, 12.6423), (-3.93701, 3.10573), (-3.93701, 12.6423), (-3.93701, 3.10573), (-27.5591, 12.6423), (-27.5591, 3.10573), (27.5591, 3.93701), (3.93701, 6.06352), (3.93701, 3.93701), (3.93701, 6.06352), (27.5591, 3.93701), (11.811, 6.06352), (11.811, 6.06352), (27.5591, 3.93701), (11.811, 8.03203), (27.5591, 11.811), (11.811, 8.03203), (27.5591, 3.93701), (27.5591, 11.811), (11.811, 10.0005), (11.811, 8.03203), (3.93701, 11.811), (11.811, 10.0005), (27.5591, 11.811), (11.811, 10.0005), (3.93701, 11.811), (3.93701, 10.0005), (27.5591, 11.811), (27.5591, 3.93701), (39.3701, 4.92126), (27.5591, 11.811), (39.3701, 4.92126), (39.3701, 10.8268), (-27.5591, 11.811), (-3.93701, 9.84252), (-3.93701, 11.811), (-3.93701, 9.84252), (-27.5591, 11.811), (-11.811, 9.84252), (-11.811, 9.84252), (-27.5591, 11.811), (-11.811, 5.90551), (-27.5591, 3.93701), (-11.811, 5.90551), (-27.5591, 11.811), (-3.93701, 3.93701), (-11.811, 5.90551), (-27.5591, 3.93701), (-11.811, 5.90551), (-3.93701, 3.93701), (-3.93701, 5.90551), (-27.5591, 3.93701), (-27.5591, 11.811), (-39.3701, 10.8268), (-27.5591, 3.93701), (-39.3701, 10.8268), (-39.3701, 4.92126), (-11.811, 5.90551), (-11.811, 7.87402), (-11.811, 9.84252), (27.1434, 3.10573), (22.4409, 1.5748), (25.5906, 0), (22.4409, 1.5748), (27.1434, 3.10573), (23.6221, 3.93701), (23.6221, 3.93701), (27.1434, 3.10573), (27.1434, 12.6423), (23.6221, 3.93701), (27.1434, 12.6423), (23.6221, 11.811), (23.6221, 11.811), (27.1434, 12.6423), (22.4409, 14.1732), (22.4409, 14.1732), (27.1434, 12.6423), (25.5906, 15.748), (-27.5591, 2.64102), (-3.93701, -4.47642e-13), (-3.93701, 2.64102), (-3.93701, -4.47642e-13), (-27.5591, 2.64102), (-27.5591, -4.47642e-13), (27.5591, -0.831282), (3.93701, 2.64102), (3.93701, -0.831282), (3.93701, 2.64102), (27.5591, -0.831282), (27.5591, 2.64102), (-22.4409, 1.5748), (-27.1434, 3.10573), (-25.5906, -6.69465e-30), (-27.1434, 3.10573), (-22.4409, 1.5748), (-23.6221, 3.93701), (-27.1434, 3.10573), (-23.6221, 3.93701), (-27.1434, 12.6423), (-27.1434, 12.6423), (-23.6221, 3.93701), (-23.6221, 11.811), (-27.1434, 12.6423), (-23.6221, 11.811), (-22.4409, 14.1732), (-27.1434, 12.6423), (-22.4409, 14.1732), (-25.5906, 15.748), (27.5591, 11.4444), (3.93701, 14.9168), (3.93701, 11.4444), (3.93701, 14.9168), (27.5591, 11.4444), (27.5591, 14.9168), (-27.5591, 14.0855), (-3.93701, 11.4444), (-3.93701, 14.0855), (-3.93701, 11.4444), (-27.5591, 14.0855), (-27.5591, 11.4444), (-3.93701, 29.9316), (-27.5591, 26.4103), (-3.93701, 26.4103), (-27.5591, 26.4103), (-3.93701, 29.9316), (-27.5591, 29.9316), (27.5591, 3.10573), (3.93701, 12.6423), (3.93701, 3.10573), (3.93701, 12.6423), (27.5591, 3.10573), (27.5591, 12.6423), (-27.5591, -22.8889), (-3.93701, -19.3675), (-27.5591, -19.3675), (-3.93701, -19.3675), (-27.5591, -22.8889), (-3.93701, -22.8889)] (interpolation = "faceVarying")
        uniform token subdivisionScheme = "none"
        rel material:binding = </Vehicle/Materials/metalDark>
    }
    def Mesh "mesh_metal" {
        int[] faceVertexCounts = [3, 3, 3, 3, 3, 3, 3, 3, 3, 3, 3, 3, 3, 3, 3, 3, 3, 3, 3, 3, 3, 3, 3, 3, 3, 3, 3, 3, 3, 3, 3, 3, 3, 3, 3, 3, 3, 3, 3, 3, 3, 3, 3, 3, 3, 3, 3, 3, 3, 3, 3, 3, 3, 3, 3, 3, 3, 3, 3, 3, 3, 3, 3, 3, 3, 3, 3, 3, 3, 3, 3, 3, 3, 3, 3, 3, 3, 3, 3, 3, 3, 3, 3, 3, 3, 3, 3, 3, 3, 3, 3, 3, 3, 3, 3, 3, 3, 3, 3, 3, 3, 3, 3, 3, 3, 3, 3, 3, 3, 3]
        int[] faceVertexIndices = [35, 2, 29, 2, 35, 28, 2, 28, 4, 4, 28, 7, 0, 29, 2, 29, 0, 27, 27, 0, 7, 27, 7, 28, 37, 23, 26, 23, 37, 122, 123, 23, 122, 23, 123, 124, 37, 123, 122, 123, 37, 125, 125, 37, 126, 125, 126, 127, 126, 37, 43, 127, 128, 125, 126, 45, 129, 45, 126, 43, 123, 130, 124, 130, 123, 125, 128, 130, 125, 130, 128, 131, 131, 128, 132, 127, 132, 128, 132, 127, 133, 132, 134, 131, 134, 132, 133, 129, 127, 126, 127, 129, 134, 127, 134, 133, 61, 10, 54, 10, 61, 59, 10, 59, 15, 15, 59, 13, 8, 54, 10, 54, 8, 55, 55, 8, 13, 55, 13, 59, 135, 65, 40, 65, 135, 136, 136, 135, 137, 137, 135, 138, 139, 136, 137, 136, 139, 140, 135, 57, 58, 57, 135, 40, 58, 138, 135, 138, 58, 141, 94, 143, 142, 143, 94, 144, 143, 145, 142, 145, 143, 146, 143, 147, 146, 147, 143, 144, 147, 94, 93, 94, 147, 144, 146, 93, 145, 93, 146, 147, 150, 149, 148, 149, 150, 151, 152, 85, 87, 85, 152, 148, 148, 152, 150, 152, 151, 150, 151, 152, 153, 87, 153, 152, 153, 87, 88, 153, 88, 90, 92, 153, 90, 153, 92, 149, 153, 149, 151, 67, 136, 154, 136, 67, 65, 137, 141, 155, 141, 137, 138, 156, 137, 155, 137, 156, 139, 139, 156, 157, 159, 156, 158, 156, 159, 157, 139, 159, 140, 159, 139, 157, 140, 154, 136, 154, 140, 158, 158, 140, 159, 162, 161, 160, 161, 162, 163, 96, 162, 160, 162, 96, 164, 164, 96, 98, 164, 163, 162, 163, 164, 165, 165, 105, 99, 105, 165, 164, 105, 164, 98, 163, 102, 161, 102, 163, 165, 102, 165, 99, 166, 104, 103, 104, 166, 167, 166, 168, 167, 168, 166, 169, 170, 166, 103, 166, 170, 169, 168, 170, 171, 170, 168, 169, 168, 104, 167, 104, 168, 171]
        point3f[] points = [(0.5, 0.2, -1.3), (0.5, 0.2, -1.1), (0.3, 0.2, -1.3), (0.3, 0.2, -1.1), (0.3, 0.5, -1.3), (0.3, 0.5, -1.1), (0.5, 0.5, -1.1), (0.5, 0.5, -1.3), (-0.3, 0.2, -1.3), (-0.3, 0.2, -1.1), (-0.5, 0.2, -1.3), (-0.5, 0.2, -1.1), (-0.3, 0.5, -1.1), (-0.3, 0.5, -1.3), (-0.5, 0.5, -1.1), (-0.5, 0.5, -1.3), (-0.2, 0.69005, -0.100496), (-0.0999999, 0.478473, 0.312587), (-0.2, 0.266896, 0.325671), (0.1, 0.478473, 0.312587), (0.2, 0.69005, -0.100496), (0.2, 0.266896, 0.325671), (0.6, 0.6, -1.2), (0.6, 0.5, -0.9), (0.2, 0.6, -1.2), (0.2, 0.54, -1.02), (0.2, 0.5, -0.9), (0.6, 0.6, -1.3), (0.2, 0.6, -1.3), (0.6, 0.1, -1.3), (0.6, 0.3, -0.9), (0.6, 0.1, -0.3), (0.6, 0.3, -0.3), (0.2, 0.1, -0.3), (0.2, 0.1, -1.1), (0.2, 0.1, -1.3), (0.2, 0.5, -1.1), (0.2, 0.6, -0.9), (-0.2, 0.7, -0.7), (0.2, 0.7, -0.7), (-0.2, 0.6, -0.9), (-0.2, 0.54, -1.02), (-0.2, 0.5, -1.1), (0.2, 0.6, -0.5), (0.2, 0.7, -0.3), (0.2, 0.5, -0.5), (0.2, 0.5, -0.3), (-0.2, 0.1, -1.1), (0.2, 0, -0.7), (-0.2, 0, -0.7), (-0.2, 0.7, -0.3), (0.2, 0, -0.3), (-0.2, 0, -0.3), (-0.2, 0.6, -1.2), (-0.2, 0.1, -1.3), (-0.2, 0.6, -1.3), (-0.6, 0.6, -1.2), (-0.2, 0.5, -0.9), (-0.6, 0.5, -0.9), (-0.6, 0.6, -1.3), (-0.6, 0.3, -0.9), (-0.6, 0.1, -1.3), (-0.6, 0.1, -0.3), (-0.6, 0.3, -0.3), (-0.2, 0.1, -0.3), (-0.2, 0.6, -0.5), (-0.2, 0.5, -0.3), (-0.2, 0.5, -0.5), (0.689443, 0.0788854, 0.1), (0.65, 0, 0.1), (0.689443, 0.0788854, 0.7), (0.65, 0, 0.7), (0.6, 0.3, 0.1), (0.57, 0.36, 0.1), (0.6, 0.3, 0.7), (0.57, 0.36, 0.7), (0.65, 0.4, 0.1), (0.689443, 0.321115, 0.1), (0.65, 0.4, 0.7), (0.689443, 0.321115, 0.7), (0.57, 0.04, 0.7), (0.6, 0.1, 0.7), (0.57, 0.04, 0.1), (0.6, 0.1, 0.1), (0.4, 0.1, 0.1), (0.4, 0.154013, 0.1), (0.4, 0.1, 0.7), (0.4, 0.154013, 0.3), (0.4, 0.204014, 0.3), (0.4, 0.3, 0.7), (0.4, 0.254013, 0.3), (0.4, 0.3, 0.1), (0.4, 0.254013, 0.1), (0.4, 0.125, 1), (0.4, 0.275, 1), (-0.4, 0.3, 0.1), (-0.4, 0.25, 0.1), (-0.4, 0.3, 0.7), (-0.4, 0.25, 0.3), (-0.4, 0.15, 0.3), (-0.4, 0.1, 0.7), (-0.4, 0.1, 0.1), (-0.4, 0.15, 0.1), (-0.4, 0.275, 1), (-0.4, 0.125, 1), (-0.4, 0.2, 0.3), (-0.65, 0, 0.1), (-0.57, 0.04, 0.1), (-0.689443, 0.0788854, 0.1), (-0.6, 0.1, 0.1), (-0.689443, 0.321115, 0.1), (-0.6, 0.3, 0.1), (-0.57, 0.36, 0.1), (-0.65, 0.4, 0.1), (-0.57, 0.36, 0.7), (-0.6, 0.3, 0.7), (-0.689443, 0.321115, 0.7), (-0.65, 0.4, 0.7), (-0.65, 0, 0.7), (-0.689443, 0.0788854, 0.7), (-0.57, 0.04, 0.7), (-0.6, 0.1, 0.7), (0.6, 0.6, -0.9), (0.6, 0.6, -0.5), (0.6, 0.5, -0.5), (0.45, 0.6, -0.5), (0.35, 0.6, -0.5), (0.35, 0.6, -0.4), (0.45, 0.6, -0.4), (0.35, 0.5, -0.5), (0.45, 0.5, -0.5), (0.45, 0.5, -0.3), (0.45, 0.55, -0.3), (0.35, 0.55, -0.3), (0.35, 0.5, -0.3), (-0.6, 0.6, -0.9), (-0.35, 0.6, -0.5), (-0.45, 0.6, -0.5), (-0.6, 0.6, -0.5), (-0.45, 0.6, -0.4), (-0.35, 0.6, -0.4), (-0.6, 0.5, -0.5), (0.6, 0.275, 1), (0.6, 0.25, 1.3), (0.4, 0.25, 1.3), (0.6, 0.125, 1), (0.6, 0.15, 1.3), (0.4, 0.15, 1.3), (0.3, 0.154013, 0.1), (0.3, 0.254013, 0.1), (0.3, 0.154013, 0.2), (0.3, 0.254013, 0.2), (0.35, 0.154013, 0.3), (0.35, 0.254013, 0.3), (-0.35, 0.5, -0.5), (-0.45, 0.5, -0.5), (-0.45, 0.5, -0.3), (-0.45, 0.55, -0.3), (-0.35, 0.5, -0.3), (-0.35, 0.55, -0.3), (-0.3, 0.25, 0.1), (-0.3, 0.15, 0.1), (-0.3, 0.25, 0.2), (-0.3, 0.15, 0.2), (-0.35, 0.25, 0.3), (-0.35, 0.15, 0.3), (-0.4, 0.25, 1.3), (-0.4, 0.15, 1.3), (-0.6, 0.15, 1.3), (-0.6, 0.25, 1.3), (-0.6, 0.275, 1), (-0.6, 0.125, 1), (0.9, 0.3, -0.9), (0.9, 0.5, -0.9), (0.9, 0.5, -0.7), (0.9, 0.3, -0.7), (0.7, 0.5, -0.3), (0.7, 0.3, -0.3), (0.6, 0.5, -0.3), (0.2, 0.3, 0.1), (0.2, 0.1, 0.1), (-0.9, 0.3, -0.9), (-0.9, 0.5, -0.9), (-0.7, 0.3, -0.3), (-0.9, 0.3, -0.7), (-0.9, 0.5, -0.7), (-0.7, 0.5, -0.3), (0.2, 0.183448, 0.325671), (0.2, 0.05, 0.1), (-0.2, 0.183448, 0.325671), (-0.2, 0.05, 0.1), (-0.6, 0.5, -0.3), (-0.2, 0.1, 0.1), (-0.2, 0.3, 0.1)]
        normal3f[] normals = [(0, 0, -1), (0, 0, -1), (0, 0, -1), (0, 0, -1), (0, 0, -1), (0, 0, -1), (0, 0, -1), (0, 0, -1), (0, 0, -1), (0, 0, -1), (0, 0, -1), (0, 0, -1), (0, 0, -1), (0, 0, -1), (0, 0, -1), (0, 0, -1), (0, 0, -1), (0, 0, -1), (0, 0, -1), (0, 0, -1), (0, 0, -1), (0, 0, -1), (0, 0, -1), (0, 0, -1), (0, 0, -1), (0, 0, -1), (0, 0, -1), (0, 0, -1), (0, 0, -1), (0, 0, -1), (1, 0, 0), (1, 0, 0), (1, 0, 0), (1, 0, 0), (1, 0, 0), (1, 0, 0), (0, 1, 0), (0, 1, 0), (0, 1, 0), (0, 1, 0), (0, 1, 0), (0, 1, 0), (0, 1, 0), (0, 1, 0), (0, 1, 0), (0, 1, 0), (0, 1, 0), (0, 1, 0), (0, 1, 0), (0, 1, 0), (0, 1, 0), (0, 1, 0), (0, 1, 0), (0, 1, 0), (0, 0, 1), (0, 0, 1), (0, 0, 1), (0, 0, 1), (0, 0, 1), (0, 0, 1), (0, 0, 1), (0, 0, 1), (0, 0, 1), (0, 0, 1), (0, 0, 1), (0, 0, 1), (1, 0, 0), (1, 0, 0), (1, 0, 0), (1, 0, 0), (1, 0, 0), (1, 0, 0), (1, 0, 0), (1, 0, 0), (1, 0, 0), (0, 0.894427, 0.447214), (0, 0.894427, 0.447214), (0, 0.894427, 0.447214), (0, 0.894427, 0.447214), (0, 0.894427, 0.447214), (0, 0.894427, 0.447214), (0, 0, 1), (0, 0, 1), (0, 0, 1), (0, 0, 1), (0, 0, 1), (0, 0, 1), (-1, 0, 0), (-1, 0, 0), (-1, 0, 0), (-1, 0, 0), (-1, 0, 0), (-1, 0, 0), (-1, 0, 0), (-1, 0, 0), (-1, 0, 0), (0, 0, -1), (0, 0, -1), (0, 0, -1), (0, 0, -1), (0, 0, -1), (0, 0, -1), (0, 0, -1), (0, 0, -1), (0, 0, -1), (0, 0, -1), (0, 0, -1), (0, 0, -1), (0, 0, -1), (0, 0, -1), (0, 0, -1), (0, 0, -1), (0, 0, -1), (0, 0, -1), (0, 0, -1), (0, 0, -1), (0, 0, -1), (0, 0, -1), (0, 0, -1), (0, 0, -1), (0, 1, 0), (0, 1, 0), (0, 1, 0), (0, 1, 0), (0, 1, 0), (0, 1, 0), (0, 1, 0), (0, 1, 0), (0, 1, 0), (0, 1, 0), (0, 1, 0), (0, 1, 0), (0, 1, 0), (0, 1, 0), (0, 1, 0), (0, 1, 0), (0, 1, 0), (0, 1, 0), (0, 0, -1), (0, 0, -1), (0, 0, -1), (0, 0, -1), (0, 0, -1), (0, 0, -1), (-1, 0, 0), (-1, 0, 0), (-1, 0, 0), (-1, 0, 0), (-1, 0, 0), (-1, 0, 0), (0, 0.996546, 0.0830455), (0, 0.996546, 0.0830455), (0, 0.996546, 0.0830455), (0, 0.996546, 0.0830455), (0, 0.996546, 0.0830455), (0, 0.996546, 0.0830455), (1, 0, 0), (1, 0, 0), (1, 0, 0), (1, 0, 0), (1, 0, 0), (1, 0, 0), (0, 0, 1), (0, 0, 1), (0, 0, 1), (0, 0, 1), (0, 0, 1), (0, 0, 1), (-1, 0, 0), (-1, 0, 0), (-1, 0, 0), (-1, 0, 0), (-1, 0, 0), (-1, 0, 0), (0, -0.996546, 0.0830455), (0, -0.996546, 0.0830455), (0, -0.996546, 0.0830455), (0, -0.996546, 0.0830455), (0, -0.996546, 0.0830455), (0, -0.996546, 0.0830455), (-1, 0, 0), (-1, 0, 0), (-1, 0, 0), (-1, 0, 0), (-1, 0, 0), (-1, 0, 0), (0, -1, 0), (0, -1, 0), (0, -1, 0), (0, -1, 0), (0, -1, 0), (0, -1, 0), (0, -1, 0), (0, -1, 0), (0, -1, 0), (-0.894427, 0, 0.447214), (-0.894427, 0, 0.447214), (-0.894427, 0, 0.447214), (-0.894427, 0, 0.447214), (-0.894427, 0, 0.447214), (-0.894427, 0, 0.447214), (0, 0, 1), (0, 0, 1), (0, 0, 1), (0, 0, 1), (0, 0, 1), (0, 0, 1), (0, 0, 1), (0, 0, 1), (0, 0, 1), (0, 1, 0), (0, 1, 0), (0, 1, 0), (0, 1, 0), (0, 1, 0), (0, 1, 0), (0, 1, 0), (0, 1, 0), (0, 1, 0), (0, 0, 1), (0, 0, 1), (0, 0, 1), (0, 0, 1), (0, 0, 1), (0, 0, 1), (0, 0, 1), (0, 0, 1), (0, 0, 1), (0, 0, 1), (0, 0, 1), (0, 0, 1), (-1, 0, 0), (-1, 0, 0), (-1, 0, 0), (-1, 0, 0), (-1, 0, 0), (-1, 0, 0), (-1, 0, 0), (-1, 0, 0), (-1, 0, 0), (0, 0, 1), (0, 0, 1), (0, 0, 1), (0, 0, 1), (0, 0, 1), (0, 0, 1), (0, 0.894427, 0.447214), (0, 0.894427, 0.447214), (0, 0.894427, 0.447214), (0, 0.894427, 0.447214), (0, 0.894427, 0.447214), (0, 0.894427, 0.447214), (1, 0, 0), (1, 0, 0), (1, 0, 0), (1, 0, 0), (1, 0, 0), (1, 0, 0), (1, 0, 0), (1, 0, 0), (1, 0, 0), (1, 0, 0), (1, 0, 0), (1, 0, 0), (1, 0, 0), (1, 0, 0), (1, 0, 0), (0, 1, 0), (0, 1, 0), (0, 1, 0), (0, 1, 0), (0, 1, 0), (0, 1, 0), (0, 1, 0), (0, 1, 0), (0, 1, 0), (0.894427, 0, 0.447214), (0.894427, 0, 0.447214), (0.894427, 0, 0.447214), (0.894427, 0, 0.447214), (0.894427, 0, 0.447214), (0.894427, 0, 0.447214), (0, 0, 1), (0, 0, 1), (0, 0, 1), (0, 0, 1), (0, 0, 1), (0, 0, 1), (0, 0, 1), (0, 0, 1), (0, 0, 1), (0, -1, 0), (0, -1, 0), (0, -1, 0), (0, -1, 0), (0, -1, 0), (0, -1, 0), (0, -1, 0), (0, -1, 0), (0, -1, 0), (1, 0, 0), (1, 0, 0), (1, 0, 0), (1, 0, 0), (1, 0, 0), (1, 0, 0), (0, 0, 1), (0, 0, 1), (0, 0, 1), (0, 0, 1), (0, 0, 1), (0, 0, 1), (0, 0.996546, 0.0830455), (0, 0.996546, 0.0830455), (0, 0.996546, 0.0830455), (0, 0.996546, 0.0830455), (0, 0.996546, 0.0830455), (0, 0.996546, 0.0830455), (-1, 0, 0), (-1, 0, 0), (-1, 0, 0), (-1, 0, 0), (-1, 0, 0), (-1, 0, 0), (0, -0.996546, 0.0830455), (0, -0.996546, 0.0830455), (0, -0.996546, 0.0830455), (0, -0.996546, 0.0830455), (0, -0.996546, 0.0830455), (0, -0.996546, 0.0830455)] (interpolation = "faceVarying")
        texCoord2f[] primvars:st = [(-7.87402, 3.93701), (-11.811, 7.87402), (-23.6221, 3.93701), (-11.811, 7.87402), (-7.87402, 3.93701), (-7.87402, 23.6221), (-11.811, 7.87402), (-7.87402, 23.6221), (-11.811, 19.685), (-11.811, 19.685), (-7.87402, 23.6221), (-19.685, 19.685), (-19.685, 7.87402), (-23.6221, 3.93701), (-11.811, 7.87402), (-23.6221, 3.93701), (-19.685, 7.87402), (-23.6221, 23.6221), (-23.6221, 23.6221), (-19.685, 7.87402), (-19.685, 19.685), (-23.6221, 23.6221), (-19.685, 19.685), (-7.87402, 23.6221), (-7.87402, 23.6221), (-23.6221, 19.685), (-7.87402, 19.685), (-23.6221, 19.685), (-7.87402, 23.6221), (-23.6221, 23.6221), (19.685, 23.6221), (35.4331, 19.685), (35.4331, 23.6221), (35.4331, 19.685), (19.685, 23.6221), (19.685, 19.685), (-7.87402, -35.4331), (-23.6221, -19.685), (-23.6221, -35.4331), (-23.6221, -19.685), (-7.87402, -35.4331), (-17.7165, -19.685), (-17.7165, -19.685), (-7.87402, -35.4331), (-13.7795, -19.685), (-17.7165, -19.685), (-13.7795, -19.685), (-13.7795, -15.748), (-13.7795, -19.685), (-7.87402, -35.4331), (-7.87402, -19.685), (-13.7795, -15.748), (-17.7165, -15.748), (-17.7165, -19.685), (13.7795, 23.6221), (7.87402, 19.685), (13.7795, 19.685), (7.87402, 19.685), (13.7795, 23.6221), (7.87402, 23.6221), (23.6221, 23.6221), (17.7165, 19.685), (23.6221, 19.685), (17.7165, 19.685), (23.6221, 23.6221), (17.7165, 23.6221), (15.748, 23.6221), (19.685, 19.685), (19.685, 23.6221), (19.685, 19.685), (15.748, 23.6221), (11.811, 19.685), (11.811, 19.685), (15.748, 23.6221), (11.811, 21.6535), (13.7795, 24.6496), (17.7165, 20.2479), (17.7165, 24.6496), (17.7165, 20.2479), (13.7795, 24.6496), (13.7795, 20.2479), (17.7165, 21.6535), (13.7795, 19.685), (17.7165, 19.685), (13.7795, 19.685), (17.7165, 21.6535), (13.7795, 21.6535), (-19.685, 19.685), (-15.748, 23.6221), (-19.685, 23.6221), (-15.748, 23.6221), (-19.685, 19.685), (-11.811, 19.685), (-15.748, 23.6221), (-11.811, 19.685), (-11.811, 21.6535), (23.6221, 3.93701), (19.685, 7.87402), (7.87402, 3.93701), (19.685, 7.87402), (23.6221, 3.93701), (23.6221, 23.6221), (19.685, 7.87402), (23.6221, 23.6221), (19.685, 19.685), (19.685, 19.685), (23.6221, 23.6221), (11.811, 19.685), (11.811, 7.87402), (7.87402, 3.93701), (19.685, 7.87402), (7.87402, 3.93701), (11.811, 7.87402), (7.87402, 23.6221), (7.87402, 23.6221), (11.811, 7.87402), (11.811, 19.685), (7.87402, 23.6221), (11.811, 19.685), (23.6221, 23.6221), (23.6221, -35.4331), (7.87402, -19.685), (7.87402, -35.4331), (7.87402, -19.685), (23.6221, -35.4331), (13.7795, -19.685), (13.7795, -19.685), (23.6221, -35.4331), (17.7165, -19.685), (17.7165, -19.685), (23.6221, -35.4331), (23.6221, -19.685), (17.7165, -15.748), (13.7795, -19.685), (17.7165, -19.685), (13.7795, -19.685), (17.7165, -15.748), (13.7795, -15.748), (23.6221, 23.6221), (7.87402, 19.685), (23.6221, 19.685), (7.87402, 19.685), (23.6221, 23.6221), (7.87402, 23.6221), (-35.4331, 19.685), (-19.685, 23.6221), (-35.4331, 23.6221), (-19.685, 23.6221), (-35.4331, 19.685), (-19.685, 19.685), (15.748, -38.335), (23.6221, -50.1869), (23.6221, -38.335), (23.6221, -50.1869), (15.748, -38.335), (15.748, -50.1869), (-51.1811, 9.84252), (-39.3701, 4.92126), (-39.3701, 10.8268), (-39.3701, 4.92126), (-51.1811, 9.84252), (-51.1811, 5.90551), (23.6221, 9.84252), (15.748, 5.90551), (23.6221, 5.90551), (15.748, 5.90551), (23.6221, 9.84252), (15.748, 9.84252), (51.1811, 5.90551), (39.3701, 10.8268), (39.3701, 4.92126), (39.3701, 10.8268), (51.1811, 5.90551), (51.1811, 9.84252), (23.6221, 51.4947), (15.748, 39.6428), (23.6221, 39.6428), (15.748, 39.6428), (23.6221, 51.4947), (15.748, 51.4947), (7.87402, 6.06352), (3.93701, 10.0005), (3.93701, 6.06352), (3.93701, 10.0005), (7.87402, 6.06352), (7.87402, 10.0005), (13.7795, 11.811), (15.748, 3.93701), (15.748, 11.811), (15.748, 3.93701), (13.7795, 11.811), (11.811, 3.93701), (11.811, 3.93701), (13.7795, 11.811), (11.811, 7.87402), (16.7265, 6.06352), (12.3248, 10.0005), (12.3248, 6.06352), (12.3248, 10.0005), (16.7265, 6.06352), (16.7265, 10.0005), (15.748, 6.06352), (13.7795, 10.0005), (13.7795, 6.06352), (13.7795, 10.0005), (15.748, 6.06352), (15.748, 8.03203), (13.7795, 10.0005), (15.748, 8.03203), (15.748, 10.0005), (-15.748, 3.93701), (-13.7795, 11.811), (-15.748, 11.811), (-13.7795, 11.811), (-15.748, 3.93701), (-11.811, 3.93701), (-13.7795, 11.811), (-11.811, 3.93701), (-11.811, 7.87402), (-7.87402, 19.685), (-13.7795, 23.6221), (-13.7795, 19.685), (-13.7795, 23.6221), (-7.87402, 19.685), (-7.87402, 23.6221), (-17.7165, 23.6221), (-23.6221, 19.685), (-17.7165, 19.685), (-23.6221, 19.685), (-17.7165, 23.6221), (-23.6221, 23.6221), (-11.811, 19.685), (-19.685, 23.6221), (-19.685, 19.685), (-19.685, 23.6221), (-11.811, 19.685), (-15.748, 23.6221), (-15.748, 23.6221), (-11.811, 19.685), (-11.811, 21.6535), (-13.7795, 21.6535), (-17.7165, 19.685), (-13.7795, 19.685), (-17.7165, 19.685), (-13.7795, 21.6535), (-17.7165, 21.6535), (-17.7165, 24.6496), (-13.7795, 20.2479), (-13.7795, 24.6496), (-13.7795, 20.2479), (-17.7165, 24.6496), (-17.7165, 20.2479), (15.748, 23.6221), (19.685, 19.685), (19.685, 23.6221), (19.685, 19.685), (15.748, 23.6221), (11.811, 19.685), (11.811, 19.685), (15.748, 23.6221), (11.811, 21.6535), (-7.87402, 9.84252), (-3.93701, 5.90551), (-3.93701, 9.84252), (-3.93701, 5.90551), (-7.87402, 9.84252), (-7.87402, 5.90551), (15.748, 3.93701), (11.811, 7.87402), (11.811, 3.93701), (11.811, 7.87402), (15.748, 3.93701), (13.7795, 11.811), (13.7795, 11.811), (15.748, 3.93701), (15.748, 11.811), (-16.7265, 9.84252), (-12.3248, 5.90551), (-12.3248, 9.84252), (-12.3248, 5.90551), (-16.7265, 9.84252), (-16.7265, 5.90551), (-13.7795, 5.90551), (-15.748, 7.87402), (-15.748, 5.90551), (-15.748, 7.87402), (-13.7795, 5.90551), (-13.7795, 9.84252), (-15.748, 7.87402), (-13.7795, 9.84252), (-15.748, 9.84252), (-11.811, 7.87402), (-15.748, 3.93701), (-11.811, 3.93701), (-15.748, 3.93701), (-11.811, 7.87402), (-13.7795, 11.811), (-15.748, 3.93701), (-13.7795, 11.811), (-15.748, 11.811), (-51.1811, 9.84252), (-39.3701, 4.92126), (-39.3701, 10.8268), (-39.3701, 4.92126), (-51.1811, 9.84252), (-51.1811, 5.90551), (-15.748, 9.84252), (-23.6221, 5.90551), (-15.748, 5.90551), (-23.6221, 5.90551), (-15.748, 9.84252), (-23.6221, 9.84252), (-23.6221, -38.335), (-15.748, -50.1869), (-15.748, -38.335), (-15.748, -50.1869), (-23.6221, -38.335), (-23.6221, -50.1869), (51.1811, 5.90551), (39.3701, 10.8268), (39.3701, 4.92126), (39.3701, 10.8268), (51.1811, 5.90551), (51.1811, 9.84252), (-23.6221, 51.4947), (-15.748, 39.6428), (-15.748, 51.4947), (-15.748, 39.6428), (-23.6221, 51.4947), (-23.6221, 39.6428)] (interpolation = "faceVarying")
        uniform token subdivisionScheme = "none"
        rel material:binding = </Vehicle/Materials/metal>
    }
    def Mesh "mesh_metalRed" {
        int[] faceVertexCounts = [3, 3, 3, 3, 3, 3, 3, 3, 3, 3, 3, 3, 3, 3, 3, 3, 3, 3, 3, 3, 3, 3, 3, 3, 3, 3, 3, 3, 3, 3, 3, 3, 3, 3, 3, 3, 3, 3, 3, 3, 3, 3, 3, 3, 3, 3, 3, 3, 3, 3, 3, 3, 3, 3, 3, 3, 3, 3, 3, 3, 3, 3, 3, 3, 3, 3, 3, 3, 3, 3, 3, 3, 3, 3, 3, 3, 3, 3, 3, 3, 3, 3, 3, 3, 3, 3, 3, 3, 3, 3, 3, 3, 3, 3, 3, 3, 3, 3, 3, 3, 3, 3, 3, 3, 3, 3, 3, 3, 3, 3, 3, 3, 3, 3, 3, 3]
        int[] faceVertexIndices = [23, 172, 30, 172, 23, 173, 174, 172, 173, 172, 174, 175, 176, 175, 174, 175, 176, 177, 177, 172, 175, 172, 177, 30, 30, 177, 32, 23, 174, 173, 174, 23, 176, 176, 23, 178, 178, 23, 124, 178, 124, 130, 178, 130, 131, 129, 46, 134, 46, 129, 45, 176, 32, 177, 32, 176, 178, 131, 72, 178, 72, 131, 91, 91, 131, 134, 91, 134, 179, 179, 134, 46, 86, 83, 81, 83, 86, 31, 31, 86, 84, 31, 84, 33, 33, 84, 180, 72, 32, 178, 32, 72, 31, 31, 72, 83, 182, 60, 181, 60, 182, 58, 183, 60, 63, 60, 183, 181, 181, 183, 184, 184, 182, 181, 182, 184, 185, 183, 185, 184, 185, 183, 186, 50, 20, 44, 20, 50, 16, 189, 188, 187, 188, 189, 190, 20, 46, 44, 46, 20, 179, 179, 20, 21, 179, 21, 180, 180, 21, 188, 188, 21, 187, 51, 180, 188, 180, 51, 33, 21, 189, 187, 189, 21, 18, 190, 51, 188, 51, 190, 52, 91, 74, 72, 74, 91, 89, 142, 81, 74, 81, 142, 145, 74, 94, 142, 94, 74, 89, 93, 81, 145, 81, 93, 86, 191, 183, 63, 183, 191, 186, 190, 64, 52, 64, 190, 192, 192, 190, 189, 192, 189, 193, 18, 193, 189, 16, 193, 18, 50, 193, 16, 193, 50, 66, 121, 101, 100, 62, 101, 121, 64, 101, 62, 101, 64, 192, 62, 121, 109, 66, 95, 193, 95, 66, 158, 95, 158, 156, 95, 156, 111, 111, 156, 191, 85, 180, 84, 180, 85, 148, 148, 179, 180, 179, 148, 149, 179, 149, 92, 179, 92, 91, 182, 141, 58, 141, 182, 186, 186, 182, 185, 191, 141, 186, 156, 141, 191, 141, 156, 155, 154, 66, 67, 66, 154, 158, 192, 161, 101, 161, 192, 193, 101, 161, 102, 161, 193, 160, 95, 160, 193, 160, 95, 96, 111, 97, 95, 97, 111, 115, 115, 103, 97, 103, 115, 170, 171, 100, 104, 100, 171, 121, 109, 63, 62, 63, 109, 191, 191, 109, 111, 171, 115, 121, 115, 171, 170]
        point3f[] points = [(0.5, 0.2, -1.3), (0.5, 0.2, -1.1), (0.3, 0.2, -1.3), (0.3, 0.2, -1.1), (0.3, 0.5, -1.3), (0.3, 0.5, -1.1), (0.5, 0.5, -1.1), (0.5, 0.5, -1.3), (-0.3, 0.2, -1.3), (-0.3, 0.2, -1.1), (-0.5, 0.2, -1.3), (-0.5, 0.2, -1.1), (-0.3, 0.5, -1.1), (-0.3, 0.5, -1.3), (-0.5, 0.5, -1.1), (-0.5, 0.5, -1.3), (-0.2, 0.69005, -0.100496), (-0.0999999, 0.478473, 0.312587), (-0.2, 0.266896, 0.325671), (0.1, 0.478473, 0.312587), (0.2, 0.69005, -0.100496), (0.2, 0.266896, 0.325671), (0.6, 0.6, -1.2), (0.6, 0.5, -0.9), (0.2, 0.6, -1.2), (0.2, 0.54, -1.02), (0.2, 0.5, -0.9), (0.6, 0.6, -1.3), (0.2, 0.6, -1.3), (0.6, 0.1, -1.3), (0.6, 0.3, -0.9), (0.6, 0.1, -0.3), (0.6, 0.3, -0.3), (0.2, 0.1, -0.3), (0.2, 0.1, -1.1), (0.2, 0.1, -1.3), (0.2, 0.5, -1.1), (0.2, 0.6, -0.9), (-0.2, 0.7, -0.7), (0.2, 0.7, -0.7), (-0.2, 0.6, -0.9), (-0.2, 0.54, -1.02), (-0.2, 0.5, -1.1), (0.2, 0.6, -0.5), (0.2, 0.7, -0.3), (0.2, 0.5, -0.5), (0.2, 0.5, -0.3), (-0.2, 0.1, -1.1), (0.2, 0, -0.7), (-0.2, 0, -0.7), (-0.2, 0.7, -0.3), (0.2, 0, -0.3), (-0.2, 0, -0.3), (-0.2, 0.6, -1.2), (-0.2, 0.1, -1.3), (-0.2, 0.6, -1.3), (-0.6, 0.6, -1.2), (-0.2, 0.5, -0.9), (-0.6, 0.5, -0.9), (-0.6, 0.6, -1.3), (-0.6, 0.3, -0.9), (-0.6, 0.1, -1.3), (-0.6, 0.1, -0.3), (-0.6, 0.3, -0.3), (-0.2, 0.1, -0.3), (-0.2, 0.6, -0.5), (-0.2, 0.5, -0.3), (-0.2, 0.5, -0.5), (0.689443, 0.0788854, 0.1), (0.65, 0, 0.1), (0.689443, 0.0788854, 0.7), (0.65, 0, 0.7), (0.6, 0.3, 0.1), (0.57, 0.36, 0.1), (0.6, 0.3, 0.7), (0.57, 0.36, 0.7), (0.65, 0.4, 0.1), (0.689443, 0.321115, 0.1), (0.65, 0.4, 0.7), (0.689443, 0.321115, 0.7), (0.57, 0.04, 0.7), (0.6, 0.1, 0.7), (0.57, 0.04, 0.1), (0.6, 0.1, 0.1), (0.4, 0.1, 0.1), (0.4, 0.154013, 0.1), (0.4, 0.1, 0.7), (0.4, 0.154013, 0.3), (0.4, 0.204014, 0.3), (0.4, 0.3, 0.7), (0.4, 0.254013, 0.3), (0.4, 0.3, 0.1), (0.4, 0.254013, 0.1), (0.4, 0.125, 1), (0.4, 0.275, 1), (-0.4, 0.3, 0.1), (-0.4, 0.25, 0.1), (-0.4, 0.3, 0.7), (-0.4, 0.25, 0.3), (-0.4, 0.15, 0.3), (-0.4, 0.1, 0.7), (-0.4, 0.1, 0.1), (-0.4, 0.15, 0.1), (-0.4, 0.275, 1), (-0.4, 0.125, 1), (-0.4, 0.2, 0.3), (-0.65, 0, 0.1), (-0.57, 0.04, 0.1), (-0.689443, 0.0788854, 0.1), (-0.6, 0.1, 0.1), (-0.689443, 0.321115, 0.1), (-0.6, 0.3, 0.1), (-0.57, 0.36, 0.1), (-0.65, 0.4, 0.1), (-0.57, 0.36, 0.7), (-0.6, 0.3, 0.7), (-0.689443, 0.321115, 0.7), (-0.65, 0.4, 0.7), (-0.65, 0, 0.7), (-0.689443, 0.0788854, 0.7), (-0.57, 0.04, 0.7), (-0.6, 0.1, 0.7), (0.6, 0.6, -0.9), (0.6, 0.6, -0.5), (0.6, 0.5, -0.5), (0.45, 0.6, -0.5), (0.35, 0.6, -0.5), (0.35, 0.6, -0.4), (0.45, 0.6, -0.4), (0.35, 0.5, -0.5), (0.45, 0.5, -0.5), (0.45, 0.5, -0.3), (0.45, 0.55, -0.3), (0.35, 0.55, -0.3), (0.35, 0.5, -0.3), (-0.6, 0.6, -0.9), (-0.35, 0.6, -0.5), (-0.45, 0.6, -0.5), (-0.6, 0.6, -0.5), (-0.45, 0.6, -0.4), (-0.35, 0.6, -0.4), (-0.6, 0.5, -0.5), (0.6, 0.275, 1), (0.6, 0.25, 1.3), (0.4, 0.25, 1.3), (0.6, 0.125, 1), (0.6, 0.15, 1.3), (0.4, 0.15, 1.3), (0.3, 0.154013, 0.1), (0.3, 0.254013, 0.1), (0.3, 0.154013, 0.2), (0.3, 0.254013, 0.2), (0.35, 0.154013, 0.3), (0.35, 0.254013, 0.3), (-0.35, 0.5, -0.5), (-0.45, 0.5, -0.5), (-0.45, 0.5, -0.3), (-0.45, 0.55, -0.3), (-0.35, 0.5, -0.3), (-0.35, 0.55, -0.3), (-0.3, 0.25, 0.1), (-0.3, 0.15, 0.1), (-0.3, 0.25, 0.2), (-0.3, 0.15, 0.2), (-0.35, 0.25, 0.3), (-0.35, 0.15, 0.3), (-0.4, 0.25, 1.3), (-0.4, 0.15, 1.3), (-0.6, 0.15, 1.3), (-0.6, 0.25, 1.3), (-0.6, 0.275, 1), (-0.6, 0.125, 1), (0.9, 0.3, -0.9), (0.9, 0.5, -0.9), (0.9, 0.5, -0.7), (0.9, 0.3, -0.7), (0.7, 0.5, -0.3), (0.7, 0.3, -0.3), (0.6, 0.5, -0.3), (0.2, 0.3, 0.1), (0.2, 0.1, 0.1), (-0.9, 0.3, -0.9), (-0.9, 0.5, -0.9), (-0.7, 0.3, -0.3), (-0.9, 0.3, -0.7), (-0.9, 0.5, -0.7), (-0.7, 0.5, -0.3), (0.2, 0.183448, 0.325671), (0.2, 0.05, 0.1), (-0.2, 0.183448, 0.325671), (-0.2, 0.05, 0.1), (-0.6, 0.5, -0.3), (-0.2, 0.1, 0.1), (-0.2, 0.3, 0.1)]
        normal3f[] normals = [(0, 0, -1), (0, 0, -1), (0, 0, -1), (0, 0, -1), (0, 0, -1), (0, 0, -1), (1, 0, 0), (1, 0, 0), (1, 0, 0), (1, 0, 0), (1, 0, 0), (1, 0, 0), (0.894427, 0, 0.447214), (0.894427, 0, 0.447214), (0.894427, 0, 0.447214), (0.894427, 0, 0.447214), (0.894427, 0, 0.447214), (0.894427, 0, 0.447214), (0, -1, 0), (0, -1, 0), (0, -1, 0), (0, -1, 0), (0, -1, 0), (0, -1, 0), (0, -1, 0), (0, -1, 0), (0, -1, 0), (0, 1, 0), (0, 1, 0), (0, 1, 0), (0, 1, 0), (0, 1, 0), (0, 1, 0), (0, 1, 0), (0, 1, 0), (0, 1, 0), (0, 1, 0), (0, 1, 0), (0, 1, 0), (0, 1, 0), (0, 1, 0), (0, 1, 0), (0, 1, 0), (0, 1, 0), (0, 1, 0), (0, 1, 0), (0, 1, 0), (0, 1, 0), (0, 1, 0), (0, 1, 0), (0, 1, 0), (0, 0, 1), (0, 0, 1), (0, 0, 1), (0, 0, 1), (0, 0, 1), (0, 0, 1), (0, 0.894427, 0.447214), (0, 0.894427, 0.447214), (0, 0.894427, 0.447214), (0, 0.894427, 0.447214), (0, 0.894427, 0.447214), (0, 0.894427, 0.447214), (0, 0.894427, 0.447214), (0, 0.894427, 0.447214), (0, 0.894427, 0.447214), (0, 0.894427, 0.447214), (0, 0.894427, 0.447214), (0, 0.894427, 0.447214), (0, 0.894427, 0.447214), (0, 0.894427, 0.447214), (0, 0.894427, 0.447214), (0, -1, 0), (0, -1, 0), (0, -1, 0), (0, -1, 0), (0, -1, 0), (0, -1, 0), (0, -1, 0), (0, -1, 0), (0, -1, 0), (0, -1, 0), (0, -1, 0), (0, -1, 0), (0, -1, 0), (0, -1, 0), (0, -1, 0), (1, 0, 0), (1, 0, 0), (1, 0, 0), (1, 0, 0), (1, 0, 0), (1, 0, 0), (1, 0, 0), (1, 0, 0), (1, 0, 0), (0, 0, -1), (0, 0, -1), (0, 0, -1), (0, 0, -1), (0, 0, -1), (0, 0, -1), (0, -1, 0), (0, -1, 0), (0, -1, 0), (0, -1, 0), (0, -1, 0), (0, -1, 0), (0, -1, 0), (0, -1, 0), (0, -1, 0), (-1, 0, 0), (-1, 0, 0), (-1, 0, 0), (-1, 0, 0), (-1, 0, 0), (-1, 0, 0), (-0.894427, 0, 0.447214), (-0.894427, 0, 0.447214), (-0.894427, 0, 0.447214), (-0.894427, 0, 0.447214), (-0.894427, 0, 0.447214), (-0.894427, 0, 0.447214), (0, 0.998759, 0.0498137), (0, 0.998759, 0.0498137), (0, 0.998759, 0.0498137), (0, 0.998759, 0.0498137), (0, 0.998759, 0.0498137), (0, 0.998759, 0.0498137), (0, -0.860764, 0.509005), (0, -0.860764, 0.509005), (0, -0.860764, 0.509005), (0, -0.860764, 0.509005), (0, -0.860764, 0.509005), (0, -0.860764, 0.509005), (1, 0, 0), (1, 0, 0), (1, 0, 0), (1, 0, 0), (1, 0, 0), (1, 0, 0), (1, 0, 0), (1, 0, 0), (1, 0, 0), (1, 0, 0), (1, 0, 0), (1, 0, 0), (1, 0, 0), (1, 0, 0), (1, 0, 0), (1, 0, 0), (1, 0, 0), (1, 0, 0), (1, 0, 0), (1, 0, 0), (1, 0, 0), (1, 0, 0), (1, 0, 0), (1, 0, 0), (0, 0, 1), (0, 0, 1), (0, 0, 1), (0, 0, 1), (0, 0, 1), (0, 0, 1), (0, -0.992278, 0.124035), (0, -0.992278, 0.124035), (0, -0.992278, 0.124035), (0, -0.992278, 0.124035), (0, -0.992278, 0.124035), (0, -0.992278, 0.124035), (0, 1, 0), (0, 1, 0), (0, 1, 0), (0, 1, 0), (0, 1, 0), (0, 1, 0), (1, 0, 0), (1, 0, 0), (1, 0, 0), (1, 0, 0), (1, 0, 0), (1, 0, 0), (0, 0.996546, 0.0830455), (0, 0.996546, 0.0830455), (0, 0.996546, 0.0830455), (0, 0.996546, 0.0830455), (0, 0.996546, 0.0830455), (0, 0.996546, 0.0830455), (0, -0.996546, 0.0830455), (0, -0.996546, 0.0830455), (0, -0.996546, 0.0830455), (0, -0.996546, 0.0830455), (0, -0.996546, 0.0830455), (0, -0.996546, 0.0830455), (0, 0, 1), (0, 0, 1), (0, 0, 1), (0, 0, 1), (0, 0, 1), (0, 0, 1), (-1, 0, 0), (-1, 0, 0), (-1, 0, 0), (-1, 0, 0), (-1, 0, 0), (-1, 0, 0), (-1, 0, 0), (-1, 0, 0), (-1, 0, 0), (-1, 0, 0), (-1, 0, 0), (-1, 0, 0), (-1, 0, 0), (-1, 0, 0), (-1, 0, 0), (-1, 0, 0), (-1, 0, 0), (-1, 0, 0), (-1, 0, 0), (-1, 0, 0), (-1, 0, 0), (-1, 0, 0), (-1, 0, 0), (-1, 0, 0), (0, -1, 0), (0, -1, 0), (0, -1, 0), (0, -1, 0), (0, -1, 0), (0, -1, 0), (0, -1, 0), (0, -1, 0), (0, -1, 0), (0, -1, 0), (0, -1, 0), (0, -1, 0), (0, -1, 0), (0, -1, 0), (0, -1, 0), (0, 0.894427, 0.447214), (0, 0.894427, 0.447214), (0, 0.894427, 0.447214), (0, 0.894427, 0.447214), (0, 0.894427, 0.447214), (0, 0.894427, 0.447214), (0, 0.894427, 0.447214), (0, 0.894427, 0.447214), (0, 0.894427, 0.447214), (0, 0.894427, 0.447214), (0, 0.894427, 0.447214), (0, 0.894427, 0.447214), (0, 0.894427, 0.447214), (0, 0.894427, 0.447214), (0, 0.894427, 0.447214), (0, 0, 1), (0, 0, 1), (0, 0, 1), (0, 0, 1), (0, 0, 1), (0, 0, 1), (0, 0, 1), (0, 0, 1), (0, 0, 1), (0, 0, 1), (0, 0, 1), (0, 0, 1), (0, 0, 1), (0, 0, 1), (0, 0, 1), (0, 0, 1), (0, 0, 1), (0, 0, 1), (0, 1, 0), (0, 1, 0), (0, 1, 0), (0, 1, 0), (0, 1, 0), (0, 1, 0), (0, 1, 0), (0, 1, 0), (0, 1, 0), (0, 1, 0), (0, 1, 0), (0, 1, 0), (0, 1, 0), (0, 1, 0), (0, 1, 0), (0, 1, 0), (0, 1, 0), (0, 1, 0), (0, 1, 0), (0, 1, 0), (0, 1, 0), (0, 1, 0), (0, 1, 0), (0, 1, 0), (0, 0, 1), (0, 0, 1), (0, 0, 1), (0, 0, 1), (0, 0, 1), (0, 0, 1), (0, 0, 1), (0, 0, 1), (0, 0, 1), (0, 0, 1), (0, 0, 1), (0, 0, 1), (0, 0, 1), (0, 0, 1), (0, 0, 1), (0, 0, 1), (0, 0, 1), (0, 0, 1), (0, 1, 0), (0, 1, 0), (0, 1, 0), (0, 1, 0), (0, 1, 0), (0, 1, 0), (0, 0.996546, 0.0830455), (0, 0.996546, 0.0830455), (0, 0.996546, 0.0830455), (0, 0.996546, 0.0830455), (0, 0.996546, 0.0830455), (0, 0.996546, 0.0830455), (0, -0.996546, 0.0830455), (0, -0.996546, 0.0830455), (0, -0.996546, 0.0830455), (0, -0.996546, 0.0830455), (0, -0.996546, 0.0830455), (0, -0.996546, 0.0830455), (-1, 0, 0), (-1, 0, 0), (-1, 0, 0), (-1, 0, 0), (-1, 0, 0), (-1, 0, 0), (-1, 0, 0), (-1, 0, 0), (-1, 0, 0), (-1, 0, 0), (-1, 0, 0), (-1, 0, 0), (-1, 0, 0), (-1, 0, 0), (-1, 0, 0)] (interpolation = "faceVarying")
        texCoord2f[] primvars:st = [(-23.6221, 19.685), (-35.4331, 11.811), (-23.6221, 11.811), (-35.4331, 11.811), (-23.6221, 19.685), (-35.4331, 19.685), (27.5591, 19.685), (35.4331, 11.811), (35.4331, 19.685), (35.4331, 11.811), (27.5591, 19.685), (27.5591, 11.811), (22.8889, 19.685), (40.4957, 11.811), (40.4957, 19.685), (40.4957, 11.811), (22.8889, 19.685), (22.8889, 11.811), (27.5591, -11.811), (35.4331, -35.4331), (35.4331, -27.5591), (35.4331, -35.4331), (27.5591, -11.811), (23.6221, -35.4331), (23.6221, -35.4331), (27.5591, -11.811), (23.6221, -11.811), (-23.6221, -35.4331), (-35.4331, -27.5591), (-35.4331, -35.4331), (-35.4331, -27.5591), (-23.6221, -35.4331), (-27.5591, -11.811), (-27.5591, -11.811), (-23.6221, -35.4331), (-23.6221, -11.811), (-23.6221, -11.811), (-23.6221, -35.4331), (-23.6221, -19.685), (-23.6221, -11.811), (-23.6221, -19.685), (-17.7165, -19.685), (-23.6221, -11.811), (-17.7165, -19.685), (-17.7165, -11.811), (-13.7795, -19.685), (-7.87402, -11.811), (-13.7795, -11.811), (-7.87402, -11.811), (-13.7795, -19.685), (-7.87402, -19.685), (27.5591, 19.685), (23.6221, 11.811), (27.5591, 11.811), (23.6221, 11.811), (27.5591, 19.685), (23.6221, 19.685), (17.7165, 19.3675), (23.6221, 1.76068), (23.6221, 19.3675), (23.6221, 1.76068), (17.7165, 19.3675), (15.748, 1.76068), (15.748, 1.76068), (17.7165, 19.3675), (13.7795, 19.3675), (15.748, 1.76068), (13.7795, 19.3675), (7.87402, 1.76068), (7.87402, 1.76068), (13.7795, 19.3675), (7.87402, 19.3675), (15.748, 27.5591), (23.6221, 3.93701), (23.6221, 27.5591), (23.6221, 3.93701), (15.748, 27.5591), (23.6221, -11.811), (23.6221, -11.811), (15.748, 27.5591), (15.748, 3.93701), (23.6221, -11.811), (15.748, 3.93701), (7.87402, -11.811), (7.87402, -11.811), (15.748, 3.93701), (7.87402, 3.93701), (-3.93701, 11.811), (11.811, 11.811), (11.811, 19.685), (11.811, 11.811), (-3.93701, 11.811), (11.811, 3.93701), (11.811, 3.93701), (-3.93701, 11.811), (-3.93701, 3.93701), (35.4331, 19.685), (23.6221, 11.811), (35.4331, 11.811), (23.6221, 11.811), (35.4331, 19.685), (23.6221, 19.685), (-27.5591, -11.811), (-23.6221, -35.4331), (-23.6221, -11.811), (-23.6221, -35.4331), (-27.5591, -11.811), (-35.4331, -35.4331), (-35.4331, -35.4331), (-27.5591, -11.811), (-35.4331, -27.5591), (-27.5591, 11.811), (-35.4331, 19.685), (-35.4331, 11.811), (-35.4331, 19.685), (-27.5591, 11.811), (-27.5591, 19.685), (-22.8889, 11.811), (-40.4957, 19.685), (-40.4957, 11.811), (-40.4957, 19.685), (-22.8889, 11.811), (-22.8889, 19.685), (-7.87402, 13.1692), (7.87402, 5.30494), (7.87402, 13.1692), (7.87402, 5.30494), (-7.87402, 13.1692), (-7.87402, 5.30494), (-7.87402, 14.7127), (7.87402, 4.39081), (7.87402, 14.7127), (7.87402, 4.39081), (-7.87402, 14.7127), (-7.87402, 4.39081), (3.95655, 27.1673), (11.811, 19.685), (11.811, 27.5591), (11.811, 19.685), (3.95655, 27.1673), (-3.93701, 11.811), (-3.93701, 11.811), (3.95655, 27.1673), (-12.8217, 10.5077), (-3.93701, 11.811), (-12.8217, 10.5077), (-3.93701, 3.93701), (-3.93701, 3.93701), (-12.8217, 10.5077), (-3.93701, 1.9685), (-3.93701, 1.9685), (-12.8217, 10.5077), (-12.8217, 7.22237), (11.811, 0), (-3.93701, 3.93701), (-3.93701, 1.9685), (-3.93701, 3.93701), (11.811, 0), (11.811, 3.93701), (7.87402, 10.5077), (-7.87402, 7.22237), (7.87402, 7.22237), (-7.87402, 7.22237), (7.87402, 10.5077), (-7.87402, 10.5077), (-7.87402, 4.15077), (7.87402, -11.7198), (7.87402, 4.15077), (7.87402, -11.7198), (-7.87402, 4.15077), (-7.87402, -11.7198), (-15.748, 3.93701), (-23.6221, 27.5591), (-23.6221, 3.93701), (-23.6221, 27.5591), (-15.748, 3.93701), (-15.748, 27.5591), (-39.3701, 10.8268), (-27.5591, 3.93701), (-27.5591, 11.811), (-27.5591, 3.93701), (-39.3701, 10.8268), (-39.3701, 4.92126), (23.6221, -26.483), (15.748, -38.335), (23.6221, -38.335), (15.748, -38.335), (23.6221, -26.483), (15.748, -26.483), (15.748, 39.6428), (23.6221, 27.7908), (23.6221, 39.6428), (23.6221, 27.7908), (15.748, 39.6428), (15.748, 27.7908), (-23.6221, 19.685), (-27.5591, 11.811), (-23.6221, 11.811), (-27.5591, 11.811), (-23.6221, 19.685), (-27.5591, 19.685), (3.93701, 1.9685), (-11.811, 3.93701), (-11.811, -1.59162e-13), (-11.811, 3.93701), (3.93701, 1.9685), (3.93701, 3.93701), (3.93701, 3.93701), (3.93701, 1.9685), (12.8217, 7.22237), (3.93701, 3.93701), (12.8217, 7.22237), (3.93701, 11.811), (12.8217, 10.5077), (3.93701, 11.811), (12.8217, 7.22237), (-3.95655, 27.1673), (3.93701, 11.811), (12.8217, 10.5077), (-11.811, 27.5591), (3.93701, 11.811), (-3.95655, 27.1673), (3.93701, 11.811), (-11.811, 27.5591), (-11.811, 19.685), (-23.6221, 27.5591), (-15.748, 3.93701), (-15.748, 27.5591), (-23.6221, -11.811), (-15.748, 3.93701), (-23.6221, 27.5591), (-7.87402, -11.811), (-15.748, 3.93701), (-23.6221, -11.811), (-15.748, 3.93701), (-7.87402, -11.811), (-7.87402, 3.93701), (-23.6221, -11.811), (-23.6221, 27.5591), (-23.6221, 3.93701), (-7.87402, 19.3675), (-15.748, 1.76068), (-7.87402, 1.76068), (-15.748, 1.76068), (-7.87402, 19.3675), (-13.7795, 19.3675), (-15.748, 1.76068), (-13.7795, 19.3675), (-17.7165, 19.3675), (-15.748, 1.76068), (-17.7165, 19.3675), (-23.6221, 1.76068), (-23.6221, 1.76068), (-17.7165, 19.3675), (-23.6221, 19.3675), (15.748, 6.06352), (7.87402, 3.93701), (15.748, 3.93701), (7.87402, 3.93701), (15.748, 6.06352), (11.811, 6.06352), (11.811, 6.06352), (7.87402, 11.811), (7.87402, 3.93701), (7.87402, 11.811), (11.811, 6.06352), (11.811, 10.0005), (7.87402, 11.811), (11.811, 10.0005), (15.748, 10.0005), (7.87402, 11.811), (15.748, 10.0005), (15.748, 11.811), (35.4331, -35.4331), (23.6221, -19.685), (23.6221, -35.4331), (23.6221, -19.685), (35.4331, -35.4331), (27.5591, -11.811), (27.5591, -11.811), (35.4331, -35.4331), (35.4331, -27.5591), (23.6221, -11.811), (23.6221, -19.685), (27.5591, -11.811), (17.7165, -11.811), (23.6221, -19.685), (23.6221, -11.811), (23.6221, -19.685), (17.7165, -11.811), (17.7165, -19.685), (13.7795, -19.685), (7.87402, -11.811), (7.87402, -19.685), (7.87402, -11.811), (13.7795, -19.685), (13.7795, -11.811), (-7.87402, 3.93701), (-11.811, 5.90551), (-15.748, 3.93701), (-11.811, 5.90551), (-7.87402, 3.93701), (-7.87402, 11.811), (-15.748, 3.93701), (-11.811, 5.90551), (-15.748, 5.90551), (-11.811, 5.90551), (-7.87402, 11.811), (-11.811, 9.84252), (-15.748, 11.811), (-11.811, 9.84252), (-7.87402, 11.811), (-11.811, 9.84252), (-15.748, 11.811), (-15.748, 9.84252), (23.6221, 3.93701), (15.748, 27.5591), (15.748, 3.93701), (15.748, 27.5591), (23.6221, 3.93701), (23.6221, 27.5591), (-23.6221, -26.483), (-15.748, -38.335), (-15.748, -26.483), (-15.748, -38.335), (-23.6221, -26.483), (-23.6221, -38.335), (-23.6221, 39.6428), (-15.748, 27.7908), (-15.748, 39.6428), (-15.748, 27.7908), (-23.6221, 39.6428), (-23.6221, 27.7908), (3.93701, 3.93701), (-11.811, 11.811), (-11.811, 3.93701), (-11.811, 11.811), (3.93701, 3.93701), (-11.811, 19.685), (-11.811, 19.685), (3.93701, 3.93701), (3.93701, 11.811), (39.3701, 4.92126), (27.5591, 11.811), (27.5591, 3.93701), (27.5591, 11.811), (39.3701, 4.92126), (39.3701, 10.8268)] (interpolation = "faceVarying")
        uniform token subdivisionScheme = "none"
        rel material:binding = </Vehicle/Materials/metalRed>
    }
    def Scope "Materials" {
        def Material "dark" {
            token outputs:surface.connect = </Vehicle/Materials/dark/surface.outputs:surface>
            def Shader "surface" {
                uniform token info:id = "UsdPreviewSurface"
                float inputs:roughness = 0.7
                float inputs:metallic = 0
                color3f inputs:diffuseColor = (0.27451, 0.298039, 0.341176)
                token outputs:surface
            }
        }
        def Material "metalDark" {
            token outputs:surface.connect = </Vehicle/Materials/metalDark/surface.outputs:surface>
            def Shader "surface" {
                uniform token info:id = "UsdPreviewSurface"
                float inputs:roughness = 0.7
                float inputs:metallic = 0
                color3f inputs:diffuseColor = (0.675062, 0.710022, 0.773585)
                token outputs:surface
            }
        }
        def Material "metal" {
            token outputs:surface.connect = </Vehicle/Materials/metal/surface.outputs:surface>
            def Shader "surface" {
                uniform token info:id = "UsdPreviewSurface"
                float inputs:roughness = 0.7
                float inputs:metallic = 0
                color3f inputs:diffuseColor = (0.843137, 0.870588, 0.909804)
                token outputs:surface
            }
        }
        def Material "metalRed" {
            token outputs:surface.connect = </Vehicle/Materials/metalRed/surface.outputs:surface>
            def Shader "surface" {
                uniform token info:id = "UsdPreviewSurface"
                float inputs:roughness = 0.7
                float inputs:metallic = 0
                color3f inputs:diffuseColor = (1, 0.628524, 0.20283)
                token outputs:surface
            }
        }
    }
}
