#usda 1.0
(
    defaultPrim = "Vehicle"
    metersPerUnit = 1
    upAxis = "Y"
)
def Xform "Vehicle" {
    def Mesh "mesh_colormap" {
        int[] faceVertexCounts = [3, 3, 3, 3, 3, 3, 3, 3, 3, 3, 3, 3, 3, 3, 3, 3, 3, 3, 3, 3, 3, 3, 3, 3, 3, 3, 3, 3, 3, 3, 3, 3, 3, 3, 3, 3, 3, 3, 3, 3, 3, 3, 3, 3, 3, 3, 3, 3, 3, 3, 3, 3, 3, 3, 3, 3, 3, 3, 3, 3, 3, 3, 3, 3, 3, 3, 3, 3, 3, 3, 3, 3, 3, 3, 3, 3, 3, 3, 3, 3, 3, 3, 3, 3, 3, 3, 3, 3, 3, 3, 3, 3, 3, 3, 3, 3, 3, 3, 3, 3, 3, 3, 3, 3, 3, 3, 3, 3, 3, 3, 3, 3, 3, 3, 3, 3, 3, 3, 3, 3, 3, 3, 3, 3, 3, 3, 3, 3, 3, 3, 3, 3, 3, 3, 3, 3, 3, 3, 3, 3, 3, 3, 3, 3, 3, 3, 3, 3, 3, 3, 3, 3, 3, 3, 3, 3, 3, 3, 3, 3, 3, 3, 3, 3, 3, 3, 3, 3, 3, 3, 3, 3, 3, 3, 3, 3, 3, 3, 3, 3, 3, 3, 3, 3, 3, 3, 3, 3, 3, 3, 3, 3, 3, 3, 3, 3, 3, 3, 3, 3, 3, 3, 3, 3, 3, 3, 3, 3, 3, 3, 3, 3, 3, 3, 3, 3, 3, 3, 3, 3, 3, 3, 3, 3, 3, 3, 3, 3, 3, 3, 3, 3, 3, 3, 3, 3, 3, 3, 3, 3, 3, 3, 3, 3, 3, 3, 3, 3, 3, 3, 3, 3, 3, 3, 3, 3, 3, 3, 3, 3, 3, 3, 3, 3, 3, 3, 3, 3, 3, 3, 3, 3, 3, 3, 3, 3, 3, 3, 3, 3, 3, 3, 3, 3, 3, 3, 3, 3, 3, 3, 3, 3, 3, 3, 3, 3, 3, 3, 3, 3, 3, 3, 3, 3, 3, 3, 3, 3, 3, 3, 3, 3, 3, 3, 3, 3, 3, 3, 3, 3, 3, 3, 3, 3, 3, 3, 3, 3, 3, 3, 3, 3, 3, 3, 3, 3, 3, 3, 3, 3, 3, 3, 3, 3, 3, 3, 3, 3, 3, 3, 3, 3, 3, 3, 3, 3, 3, 3, 3, 3, 3, 3, 3, 3, 3, 3, 3, 3, 3, 3, 3, 3, 3, 3, 3, 3, 3, 3, 3, 3, 3, 3, 3, 3, 3, 3, 3, 3, 3, 3, 3, 3, 3, 3, 3, 3, 3, 3, 3, 3, 3, 3, 3, 3, 3, 3, 3, 3, 3, 3, 3, 3, 3, 3, 3, 3, 3, 3, 3, 3, 3, 3, 3, 3, 3, 3, 3, 3, 3, 3, 3, 3, 3, 3, 3, 3, 3, 3, 3, 3, 3, 3, 3, 3, 3, 3, 3, 3, 3, 3, 3, 3, 3, 3, 3, 3, 3, 3, 3, 3, 3, 3, 3, 3, 3, 3, 3, 3, 3, 3, 3, 3, 3, 3, 3, 3, 3, 3, 3, 3, 3, 3, 3, 3, 3, 3, 3, 3, 3, 3, 3, 3, 3, 3, 3, 3, 3, 3, 3, 3, 3, 3, 3, 3, 3, 3, 3, 3, 3, 3, 3, 3, 3, 3, 3, 3, 3, 3, 3, 3, 3, 3, 3, 3, 3, 3, 3, 3, 3, 3]
        int[] faceVertexIndices = [2, 1, 0, 1, 2, 3, 6, 5, 4, 5, 6, 7, 10, 9, 8, 9, 10, 11, 9, 12, 8, 12, 9, 13, 14, 7, 6, 7, 14, 15, 17, 3, 16, 3, 17, 18, 8, 19, 18, 19, 8, 12, 6, 13, 9, 13, 6, 4, 10, 18, 17, 18, 10, 8, 7, 20, 2, 20, 7, 15, 18, 1, 3, 1, 18, 19, 0, 7, 2, 7, 0, 5, 12, 1, 19, 1, 12, 0, 0, 12, 13, 0, 13, 4, 0, 4, 5, 11, 6, 9, 6, 11, 14, 23, 22, 21, 22, 23, 24, 26, 24, 25, 24, 26, 22, 26, 21, 22, 21, 26, 27, 21, 28, 23, 28, 21, 27, 28, 24, 23, 24, 28, 25, 31, 30, 29, 30, 31, 32, 35, 34, 33, 36, 34, 35, 36, 35, 37, 36, 37, 38, 39, 34, 36, 40, 34, 39, 40, 29, 34, 29, 40, 31, 35, 42, 41, 42, 35, 33, 43, 30, 32, 30, 43, 44, 44, 43, 45, 44, 45, 46, 44, 46, 42, 42, 46, 41, 41, 46, 47, 47, 46, 48, 47, 35, 41, 35, 47, 37, 48, 37, 47, 37, 48, 38, 46, 38, 48, 38, 46, 36, 39, 46, 45, 46, 39, 36, 40, 45, 43, 45, 40, 39, 31, 43, 32, 43, 31, 40, 51, 50, 49, 50, 51, 52, 55, 54, 53, 56, 54, 55, 56, 55, 57, 56, 57, 58, 59, 54, 56, 60, 54, 59, 60, 49, 54, 49, 60, 51, 55, 62, 61, 62, 55, 53, 63, 50, 52, 50, 63, 64, 64, 63, 65, 64, 65, 66, 64, 66, 62, 62, 66, 61, 61, 66, 67, 67, 66, 68, 67, 55, 61, 55, 67, 57, 68, 57, 67, 57, 68, 58, 66, 58, 68, 58, 66, 56, 59, 66, 65, 66, 59, 56, 60, 65, 63, 65, 60, 59, 51, 63, 52, 63, 51, 60, 8, 3, 18, 3, 8, 2, 2, 8, 9, 2, 9, 6, 2, 6, 7, 20, 3, 2, 3, 20, 16, 16, 20, 69, 69, 20, 70, 69, 70, 71, 71, 70, 72, 73, 16, 69, 16, 73, 74, 74, 73, 75, 74, 75, 76, 78, 76, 77, 78, 74, 76, 74, 78, 79, 79, 80, 74, 80, 79, 81, 81, 79, 82, 81, 82, 83, 83, 82, 84, 83, 84, 85, 85, 84, 86, 85, 86, 87, 85, 87, 88, 88, 87, 89, 89, 70, 88, 89, 72, 70, 72, 89, 90, 15, 70, 20, 70, 15, 88, 85, 15, 14, 15, 85, 88, 83, 14, 11, 14, 83, 85, 81, 11, 10, 11, 81, 83, 80, 10, 17, 10, 80, 81, 80, 16, 74, 16, 80, 17, 69, 91, 73, 25, 73, 91, 25, 91, 92, 25, 93, 73, 28, 93, 25, 25, 92, 26, 28, 94, 93, 26, 92, 95, 96, 26, 95, 97, 26, 96, 98, 26, 97, 94, 28, 27, 98, 27, 26, 98, 94, 27, 94, 98, 99, 87, 92, 89, 92, 87, 95, 87, 96, 95, 96, 87, 86, 86, 97, 96, 97, 86, 84, 84, 98, 97, 98, 84, 82, 98, 79, 99, 79, 98, 82, 99, 78, 94, 78, 99, 79, 100, 92, 91, 92, 100, 89, 89, 100, 90, 78, 93, 94, 93, 78, 101, 101, 78, 77, 71, 90, 100, 90, 71, 72, 100, 69, 71, 69, 100, 91, 73, 101, 75, 101, 73, 93, 76, 101, 77, 101, 76, 75, 104, 103, 102, 103, 104, 105, 107, 105, 106, 105, 107, 103, 107, 109, 108, 109, 107, 106, 105, 109, 106, 109, 105, 104, 102, 107, 108, 107, 102, 103, 112, 111, 110, 111, 112, 113, 115, 113, 114, 113, 115, 111, 115, 117, 116, 117, 115, 114, 113, 117, 114, 117, 113, 112, 110, 115, 116, 115, 110, 111, 119, 23, 118, 23, 119, 120, 23, 120, 121, 121, 120, 122, 121, 122, 123, 123, 124, 121, 124, 123, 125, 128, 127, 126, 24, 127, 128, 127, 24, 124, 127, 124, 129, 129, 124, 125, 127, 122, 120, 122, 127, 129, 128, 119, 118, 119, 128, 126, 119, 127, 120, 127, 119, 126, 129, 123, 122, 123, 129, 125, 128, 23, 24, 23, 128, 118, 132, 131, 130, 131, 132, 133, 132, 135, 134, 135, 132, 130, 131, 137, 136, 137, 131, 133, 130, 136, 135, 136, 130, 131, 137, 132, 134, 132, 137, 133, 140, 139, 138, 139, 140, 141, 140, 143, 142, 143, 140, 138, 139, 145, 144, 145, 139, 141, 138, 144, 143, 144, 138, 139, 145, 140, 142, 140, 145, 141, 148, 147, 146, 147, 148, 149, 152, 151, 150, 151, 152, 153, 154, 149, 148, 149, 154, 151, 149, 151, 153, 148, 155, 154, 155, 148, 146, 147, 155, 146, 155, 147, 150, 150, 147, 152, 149, 152, 147, 152, 149, 153, 2, 1, 0, 1, 2, 3, 6, 5, 4, 5, 6, 7, 10, 9, 8, 9, 10, 11, 9, 12, 8, 12, 9, 13, 14, 7, 6, 7, 14, 15, 17, 3, 16, 3, 17, 18, 8, 19, 18, 19, 8, 12, 6, 13, 9, 13, 6, 4, 10, 18, 17, 18, 10, 8, 7, 20, 2, 20, 7, 15, 18, 1, 3, 1, 18, 19, 0, 7, 2, 7, 0, 5, 12, 1, 19, 1, 12, 0, 0, 12, 13, 0, 13, 4, 0, 4, 5, 11, 6, 9, 6, 11, 14, 23, 22, 21, 22, 23, 24, 26, 24, 25, 24, 26, 22, 26, 21, 22, 21, 26, 27, 21, 28, 23, 28, 21, 27, 28, 24, 23, 24, 28, 25, 31, 30, 29, 30, 31, 32, 35, 34, 33, 36, 34, 35, 36, 35, 37, 36, 37, 38, 39, 34, 36, 40, 34, 39, 40, 29, 34, 29, 40, 31, 35, 42, 41, 42, 35, 33, 43, 30, 32, 30, 43, 44, 44, 43, 45, 44, 45, 46, 44, 46, 42, 42, 46, 41, 41, 46, 47, 47, 46, 48, 47, 35, 41, 35, 47, 37, 48, 37, 47, 37, 48, 38, 46, 38, 48, 38, 46, 36, 39, 46, 45, 46, 39, 36, 40, 45, 43, 45, 40, 39, 31, 43, 32, 43, 31, 40, 51, 50, 49, 50, 51, 52, 55, 54, 53, 56, 54, 55, 56, 55, 57, 56, 57, 58, 59, 54, 56, 60, 54, 59, 60, 49, 54, 49, 60, 51, 55, 62, 61, 62, 55, 53, 63, 50, 52, 50, 63, 64, 64, 63, 65, 64, 65, 66, 64, 66, 62, 62, 66, 61, 61, 66, 67, 67, 66, 68, 67, 55, 61, 55, 67, 57, 68, 57, 67, 57, 68, 58, 66, 58, 68, 58, 66, 56, 59, 66, 65, 66, 59, 56, 60, 65, 63, 65, 60, 59, 51, 63, 52, 63, 51, 60, 8, 3, 18, 3, 8, 2, 2, 8, 9, 2, 9, 6, 2, 6, 7, 20, 3, 2, 3, 20, 16, 16, 20, 69, 69, 20, 70, 69, 70, 71, 71, 70, 72, 73, 16, 69, 16, 73, 74, 74, 73, 75, 74, 75, 76, 78, 76, 77, 78, 74, 76, 74, 78, 79, 79, 80, 74, 80, 79, 81, 81, 79, 82, 81, 82, 83, 83, 82, 84, 83, 84, 85, 85, 84, 86, 85, 86, 87, 85, 87, 88, 88, 87, 89, 89, 70, 88, 89, 72, 70, 72, 89, 90, 15, 70, 20, 70, 15, 88, 85, 15, 14, 15, 85, 88, 83, 14, 11, 14, 83, 85, 81, 11, 10, 11, 81, 83, 80, 10, 17, 10, 80, 81, 80, 16, 74, 16, 80, 17, 69, 91, 73, 25, 73, 91, 25, 91, 92, 25, 93, 73, 28, 93, 25, 25, 92, 26, 28, 94, 93, 26, 92, 95, 96, 26, 95, 97, 26, 96, 98, 26, 97, 94, 28, 27, 98, 27, 26, 98, 94, 27, 94, 98, 99, 87, 92, 89, 92, 87, 95, 87, 96, 95, 96, 87, 86, 86, 97, 96, 97, 86, 84, 84, 98, 97, 98, 84, 82, 98, 79, 99, 79, 98, 82, 99, 78, 94, 78, 99, 79, 100, 92, 91, 92, 100, 89, 89, 100, 90, 78, 93, 94, 93, 78, 101, 101, 78, 77, 71, 90, 100, 90, 71, 72, 100, 69, 71, 69, 100, 91, 73, 101, 75, 101, 73, 93, 76, 101, 77, 101, 76, 75, 104, 103, 102, 103, 104, 105, 107, 105, 106, 105, 107, 103, 107, 109, 108, 109, 107, 106, 105, 109, 106, 109, 105, 104, 102, 107, 108, 107, 102, 103, 112, 111, 110, 111, 112, 113, 115, 113, 114, 113, 115, 111, 115, 117, 116, 117, 115, 114, 113, 117, 114, 117, 113, 112, 110, 115, 116, 115, 110, 111, 119, 23, 118, 23, 119, 120, 23, 120, 121, 121, 120, 122, 121, 122, 123, 123, 124, 121, 124, 123, 125, 128, 127, 126, 24, 127, 128, 127, 24, 124, 127, 124, 129, 129, 124, 125, 127, 122, 120, 122, 127, 129, 128, 119, 118, 119, 128, 126, 119, 127, 120, 127, 119, 126, 129, 123, 122, 123, 129, 125, 128, 23, 24, 23, 128, 118, 132, 131, 130, 131, 132, 133, 132, 135, 134, 135, 132, 130, 131, 137, 136, 137, 131, 133, 130, 136, 135, 136, 130, 131, 137, 132, 134, 132, 137, 133, 140, 139, 138, 139, 140, 141, 140, 143, 142, 143, 140, 138, 139, 145, 144, 145, 139, 141, 138, 144, 143, 144, 138, 139, 145, 140, 142, 140, 145, 141, 148, 147, 146, 147, 148, 149, 152, 151, 150, 151, 152, 153, 154, 149, 148, 149, 154, 151, 149, 151, 153, 148, 155, 154, 155, 148, 146, 147, 155, 146, 155, 147, 150, 150, 147, 152, 149, 152, 147, 152, 149, 153]
        point3f[] points = [(-0.408, 8.87237e-17, -1.235), (0.408, 8.87237e-17, -1.235), (-0.68, 0.3, -1.435), (0.68, 0.3, -1.435), (-0.2232, 9.02389e-17, 0.521), (-0.408, 9.02389e-17, 0.365), (-0.372, 0.3, 0.985), (-0.68, 0.3, 0.725), (0.372, 0.3, 0.985), (-2.65302e-14, 0.3, 1.085), (0.48825, 0.7, 1.30375), (1.00526e-13, 0.7, 1.435), (0.2232, 9.02389e-17, 0.521), (-2.05564e-13, 9.02389e-17, 0.581), (-0.48825, 0.7, 1.30375), (-0.8925, 0.7, 0.9625), (0.8925, 0.7, -1.435), (0.8925, 0.7, 0.9625), (0.68, 0.3, 0.725), (0.408, 0, 0.365), (-0.8925, 0.7, -1.435), (0.4925, 0.5, -0.129151), (-0.4925, 0.5, -0.129151), (0.4925, 0.5, -1.035), (-0.4925, 0.5, -1.035), (-0.4925, 0.8, -1.035), (-0.4925, 0.8, -0.129151), (0.4925, 0.8, -0.129151), (0.4925, 0.8, -1.035), (-0.8925, 0.7, 0.372527), (-0.8925, 0.7, -0.146746), (-0.946, 0.7, 0.372527), (-0.946, 0.7, -0.146746), (-0.6925, 1, 0.372527), (-0.8925, 1, 0.372527), (-0.6925, 1.05, 0.372527), (-0.97275, 1.075, 0.372527), (-0.7425, 1.1, 0.372527), (-0.8925, 1.1, 0.372527), (-0.9995, 1, 0.372527), (-0.9995, 0.7535, 0.372527), (-0.6925, 1.05, -0.146746), (-0.6925, 1, -0.146746), (-0.9995, 0.7535, -0.146746), (-0.8925, 1, -0.146746), (-0.9995, 1, -0.146746), (-0.97275, 1.075, -0.146746), (-0.7425, 1.1, -0.146746), (-0.8925, 1.1, -0.146746), (0.8925, 0.7, -0.146746), (0.8925, 0.7, 0.372527), (0.946, 0.7, -0.146746), (0.946, 0.7, 0.372527), (0.6925, 1, -0.146746), (0.8925, 1, -0.146746), (0.6925, 1.05, -0.146746), (0.97275, 1.075, -0.146746), (0.7425, 1.1, -0.146746), (0.8925, 1.1, -0.146746), (0.9995, 1, -0.146746), (0.9995, 0.7535, -0.146746), (0.6925, 1.05, 0.372527), (0.6925, 1, 0.372527), (0.9995, 0.7535, 0.372527), (0.8925, 1, 0.372527), (0.9995, 1, 0.372527), (0.97275, 1.075, 0.372527), (0.7425, 1.1, 0.372527), (0.8925, 1.1, 0.372527), (-0.2925, 0.8, -1.435), (-0.8925, 1, -1.435), (-0.2925, 0.9, -1.435), (-0.4925, 1, -1.435), (0.2925, 0.8, -1.435), (0.8925, 1, -1.435), (0.2925, 0.9, -1.435), (0.4925, 1, -1.435), (0.4925, 1, -1.235), (0.6925, 1, -1.235), (0.6925, 1, 0.869599), (0.8925, 1, 0.9625), (0.48825, 1, 1.30375), (0.393293, 1, 1.12218), (1.00526e-13, 1, 1.435), (2.54474e-14, 1, 1.2279), (-0.48825, 1, 1.30375), (-0.393293, 1, 1.12218), (-0.6925, 1, 0.869599), (-0.8925, 1, 0.9625), (-0.6925, 1, -1.235), (-0.4925, 1, -1.235), (-0.2925, 0.8, -1.235), (-0.6925, 0.8, -1.235), (0.2925, 0.8, -1.235), (0.6925, 0.8, -1.235), (-0.6925, 0.8, 0.869599), (-0.393293, 0.8, 1.12218), (2.54474e-14, 0.8, 1.2279), (0.393293, 0.8, 1.12218), (0.6925, 0.8, 0.869599), (-0.2925, 0.9, -1.235), (0.2925, 0.9, -1.235), (0.2925, 0.8, 0.970849), (0.2925, 0.9, 0.870849), (0.2925, 0.8, 0.470849), (0.2925, 0.9, 0.570848), (0.0925, 0.9, 0.570848), (0.0925, 0.9, 0.870849), (0.0925, 0.8, 0.970849), (0.0925, 0.8, 0.470849), (-0.0925, 0.8, 0.970849), (-0.0925, 0.9, 0.870849), (-0.0925, 0.8, 0.470849), (-0.0925, 0.9, 0.570848), (-0.2925, 0.9, 0.570848), (-0.2925, 0.9, 0.870849), (-0.2925, 0.8, 0.970849), (-0.2925, 0.8, 0.470849), (0.4925, 1, -1.035), (0.4925, 1, -0.935), (0.4925, 0.7, -0.835), (0.4925, 0.5, -0.535), (0.4925, 0.7, -0.635), (0.4925, 0.6, -0.535), (-0.4925, 0.5, -0.535), (-0.4925, 0.6, -0.535), (-0.4925, 1, -0.935), (-0.4925, 0.7, -0.835), (-0.4925, 1, -1.035), (-0.4925, 0.7, -0.635), (-0.5175, 1.43391, -1.40665), (-0.5175, 1.45891, -1.36335), (-0.5675, 1.43391, -1.40665), (-0.5675, 1.45891, -1.36335), (-0.5925, 0.72859, -1.0283), (-0.4925, 0.72859, -1.0283), (-0.4925, 0.77859, -0.941699), (-0.5925, 0.77859, -0.941699), (0.5675, 1.43391, -1.40665), (0.5675, 1.45891, -1.36335), (0.5175, 1.43391, -1.40665), (0.5175, 1.45891, -1.36335), (0.4925, 0.72859, -1.0283), (0.5925, 0.72859, -1.0283), (0.5925, 0.77859, -0.941699), (0.4925, 0.77859, -0.941699), (0.4925, 1.3, -0.229151), (0.4925, 1.3, -0.00210968), (-0.4925, 1.3, -0.229151), (-0.4925, 1.3, -0.00210968), (0.4925, 0.8, 0.670848), (-0.4925, 0.8, 0.670848), (0.4925, 0.940319, 0.670848), (-0.4925, 0.940319, 0.670848), (-0.4925, 0.8, -0.129151), (0.4925, 0.8, -0.129151)]
        normal3f[] normals = [(0, -0.5547, -0.83205), (0, -0.5547, -0.83205), (0, -0.5547, -0.83205), (0, -0.5547, -0.83205), (0, -0.5547, -0.83205), (0, -0.5547, -0.83205), (-0.236947, -0.848734, 0.472764), (-0.614369, -0.768993, 0.176638), (-0.257795, -0.846977, 0.464942), (-0.614369, -0.768993, 0.176638), (-0.236947, -0.848734, 0.472764), (-0.509689, -0.810035, 0.289931), (0.347397, -0.644064, 0.68154), (0, -0.658505, 0.752577), (0.364175, -0.642844, 0.67389), (0, -0.658505, 0.752577), (0.347397, -0.644064, 0.68154), (0, -0.658505, 0.752577), (0, -0.859293, 0.511484), (0.257795, -0.846977, 0.464942), (0.236947, -0.848734, 0.472764), (0.257795, -0.846977, 0.464942), (0, -0.859293, 0.511484), (0, -0.859293, 0.511484), (-0.347397, -0.644064, 0.68154), (-0.769315, -0.574561, 0.279347), (-0.364175, -0.642844, 0.67389), (-0.769315, -0.574561, 0.279347), (-0.347397, -0.644064, 0.68154), (-0.706938, -0.598928, 0.376197), (0.706938, -0.598928, 0.376197), (0.883116, -0.469155, 0), (0.883116, -0.469155, 0), (0.883116, -0.469155, 0), (0.706938, -0.598928, 0.376197), (0.769315, -0.574561, 0.279347), (0.236947, -0.848734, 0.472764), (0.614369, -0.768993, 0.176638), (0.509689, -0.810035, 0.289931), (0.614369, -0.768993, 0.176638), (0.236947, -0.848734, 0.472764), (0.257795, -0.846977, 0.464942), (-0.236947, -0.848734, 0.472764), (0, -0.859293, 0.511484), (0, -0.859293, 0.511484), (0, -0.859293, 0.511484), (-0.236947, -0.848734, 0.472764), (-0.257795, -0.846977, 0.464942), (0.347397, -0.644064, 0.68154), (0.769315, -0.574561, 0.279347), (0.706938, -0.598928, 0.376197), (0.769315, -0.574561, 0.279347), (0.347397, -0.644064, 0.68154), (0.364175, -0.642844, 0.67389), (-0.769315, -0.574561, 0.279347), (-0.883116, -0.469155, 0), (-0.883116, -0.469155, 0), (-0.883116, -0.469155, 0), (-0.769315, -0.574561, 0.279347), (-0.706938, -0.598928, 0.376197), (0.509689, -0.810035, 0.289931), (0.740833, -0.671689, 0), (0.740833, -0.671689, 0), (0.740833, -0.671689, 0), (0.509689, -0.810035, 0.289931), (0.614369, -0.768993, 0.176638), (-0.740833, -0.671689, 0), (-0.509689, -0.810035, 0.289931), (-0.740833, -0.671689, 0), (-0.509689, -0.810035, 0.289931), (-0.740833, -0.671689, 0), (-0.614369, -0.768993, 0.176638), (0, -1, 0), (0, -1, 0), (0, -1, 0), (0, -1, 0), (0, -1, 0), (0, -1, 0), (0, -1, 0), (0, -1, 0), (0, -1, 0), (0, -1, 0), (0, -1, 0), (0, -1, 0), (0, -1, 0), (0, -1, 0), (0, -1, 0), (0, -0.658505, 0.752577), (-0.364175, -0.642844, 0.67389), (0, -0.658505, 0.752577), (-0.364175, -0.642844, 0.67389), (0, -0.658505, 0.752577), (-0.347397, -0.644064, 0.68154), (0, 1, 0), (0, 1, 0), (0, 1, 0), (0, 1, 0), (0, 1, 0), (0, 1, 0), (1, 0, 0), (1, 0, 0), (1, 0, 0), (1, 0, 0), (1, 0, 0), (1, 0, 0), (0, 0, -1), (0, 0, -1), (0, 0, -1), (0, 0, -1), (0, 0, -1), (0, 0, -1), (-1, 0, 0), (-1, 0, 0), (-1, 0, 0), (-1, 0, 0), (-1, 0, 0), (-1, 0, 0), (0, 0, 1), (0, 0, 1), (0, 0, 1), (0, 0, 1), (0, 0, 1), (0, 0, 1), (-0.382683, -0.923879, 0), (0, -1, 0), (0, -1, 0), (0, -1, 0), (-0.382683, -0.923879, 0), (-0.382683, -0.923879, 0), (0, 0, 1), (0, 0, 1), (0, 0, 1), (0, 0, 1), (0, 0, 1), (0, 0, 1), (0, 0, 1), (0, 0, 1), (0, 0, 1), (0, 0, 1), (0, 0, 1), (0, 0, 1), (0, 0, 1), (0, 0, 1), (0, 0, 1), (0, 0, 1), (0, 0, 1), (0, 0, 1), (0, 0, 1), (0, 0, 1), (0, 0, 1), (0, 0, 1), (0, 0, 1), (0, 0, 1), (0.923879, 0.382683, 0), (1, 0, 0), (0.923879, 0.382683, 0), (1, 0, 0), (0.923879, 0.382683, 0), (1, 0, 0), (0, 0, -1), (0, 0, -1), (0, 0, -1), (0, 0, -1), (0, 0, -1), (0, 0, -1), (0, 0, -1), (0, 0, -1), (0, 0, -1), (0, 0, -1), (0, 0, -1), (0, 0, -1), (0, 0, -1), (0, 0, -1), (0, 0, -1), (0, 0, -1), (0, 0, -1), (0, 0, -1), (0, 0, -1), (0, 0, -1), (0, 0, -1), (0, 0, -1), (0, 0, -1), (0, 0, -1), (0.382683, 0.923879, 0), (0.923879, 0.382683, 0), (0.923879, 0.382683, 0), (0.923879, 0.382683, 0), (0.382683, 0.923879, 0), (0.382683, 0.923879, 0), (-0.150426, 0.988621, 0), (0.382683, 0.923879, 0), (0.382683, 0.923879, 0), (0.382683, 0.923879, 0), (-0.150426, 0.988621, 0), (-0.150426, 0.988621, 0), (-0.692606, 0.721316, 0), (-0.150426, 0.988621, 0), (-0.150426, 0.988621, 0), (-0.150426, 0.988621, 0), (-0.692606, 0.721316, 0), (-0.692606, 0.721316, 0), (-0.985364, 0.170464, 0), (-0.692606, 0.721316, 0), (-0.985364, 0.170464, 0), (-0.692606, 0.721316, 0), (-0.985364, 0.170464, 0), (-0.692606, 0.721316, 0), (-0.923879, -0.382683, 0), (-0.985364, 0.170464, 0), (-0.923879, -0.382683, 0), (-0.985364, 0.170464, 0), (-0.923879, -0.382683, 0), (-0.985364, 0.170464, 0), (-0.382683, -0.923879, 0), (-0.923879, -0.382683, 0), (-0.382683, -0.923879, 0), (-0.923879, -0.382683, 0), (-0.382683, -0.923879, 0), (-0.923879, -0.382683, 0), (0.382683, -0.923879, -3.59175e-13), (0, -1, 0), (0, -1, 0), (0, -1, 0), (0.382683, -0.923879, -3.59175e-13), (0.382683, -0.923879, -3.59175e-13), (-9.38569e-13, 0, -1), (-9.38569e-13, 0, -1), (-9.38569e-13, 0, -1), (-9.38569e-13, 0, -1), (-9.38569e-13, 0, -1), (-9.38569e-13, 0, -1), (-9.38569e-13, 0, -1), (-9.38569e-13, 0, -1), (-9.38569e-13, 0, -1), (-9.38569e-13, 0, -1), (-9.38569e-13, 0, -1), (-9.38569e-13, 0, -1), (-9.38569e-13, 0, -1), (-9.38569e-13, 0, -1), (-9.38569e-13, 0, -1), (-9.38569e-13, 0, -1), (-9.38569e-13, 0, -1), (-9.38569e-13, 0, -1), (-9.38569e-13, 0, -1), (-9.38569e-13, 0, -1), (-9.38569e-13, 0, -1), (-9.38569e-13, 0, -1), (-9.38569e-13, 0, -1), (-9.38569e-13, 0, -1), (-0.923879, 0.382683, 8.67124e-13), (-1, 0, 9.38569e-13), (-0.923879, 0.382683, 8.67124e-13), (-1, 0, 9.38569e-13), (-0.923879, 0.382683, 8.67124e-13), (-1, 0, 9.38569e-13), (9.38569e-13, 0, 1), (9.38569e-13, 0, 1), (9.38569e-13, 0, 1), (9.38569e-13, 0, 1), (9.38569e-13, 0, 1), (9.38569e-13, 0, 1), (9.38569e-13, 0, 1), (9.38569e-13, 0, 1), (9.38569e-13, 0, 1), (9.38569e-13, 0, 1), (9.38569e-13, 0, 1), (9.38569e-13, 0, 1), (9.38569e-13, 0, 1), (9.38569e-13, 0, 1), (9.38569e-13, 0, 1), (9.38569e-13, 0, 1), (9.38569e-13, 0, 1), (9.38569e-13, 0, 1), (9.38569e-13, 0, 1), (9.38569e-13, 0, 1), (9.38569e-13, 0, 1), (9.38569e-13, 0, 1), (9.38569e-13, 0, 1), (9.38569e-13, 0, 1), (-0.382683, 0.923879, 3.59175e-13), (-0.923879, 0.382683, 8.67124e-13), (-0.923879, 0.382683, 8.67124e-13), (-0.923879, 0.382683, 8.67124e-13), (-0.382683, 0.923879, 3.59175e-13), (-0.382683, 0.923879, 3.59175e-13), (0.150426, 0.988621, -1.41185e-13), (-0.382683, 0.923879, 3.59175e-13), (-0.382683, 0.923879, 3.59175e-13), (-0.382683, 0.923879, 3.59175e-13), (0.150426, 0.988621, -1.41185e-13), (0.150426, 0.988621, -1.41185e-13), (0.692606, 0.721316, -6.50059e-13), (0.150426, 0.988621, -1.41185e-13), (0.150426, 0.988621, -1.41185e-13), (0.150426, 0.988621, -1.41185e-13), (0.692606, 0.721316, -6.50059e-13), (0.692606, 0.721316, -6.50059e-13), (0.985364, 0.170464, -9.24832e-13), (0.692606, 0.721316, -6.50059e-13), (0.985364, 0.170464, -9.24832e-13), (0.692606, 0.721316, -6.50059e-13), (0.985364, 0.170464, -9.24832e-13), (0.692606, 0.721316, -6.50059e-13), (0.923879, -0.382683, -8.67124e-13), (0.985364, 0.170464, -9.24832e-13), (0.923879, -0.382683, -8.67124e-13), (0.985364, 0.170464, -9.24832e-13), (0.923879, -0.382683, -8.67124e-13), (0.985364, 0.170464, -9.24832e-13), (0.382683, -0.923879, -3.59175e-13), (0.923879, -0.382683, -8.67124e-13), (0.382683, -0.923879, -3.59175e-13), (0.923879, -0.382683, -8.67124e-13), (0.382683, -0.923879, -3.59175e-13), (0.923879, -0.382683, -8.67124e-13), (0, -1, 0), (0, -1, 0), (0, -1, 0), (0, -1, 0), (0, -1, 0), (0, -1, 0), (0, -1, 0), (0, -1, 0), (0, -1, 0), (0, -1, 0), (0, -1, 0), (0, -1, 0), (0, -1, 0), (0, -1, 0), (0, -1, 0), (0, 0, -1), (0, 0, -1), (0, 0, -1), (0, 0, -1), (0, 0, -1), (0, 0, -1), (0, 0, -1), (0, 0, -1), (0, 0, -1), (0, 0, -1), (0, 0, -1), (0, 0, -1), (0, 0, -1), (0, 0, -1), (0, 0, -1), (0, 0, -1), (0, 0, -1), (0, 0, -1), (0, 0, -1), (0, 0, -1), (0, 0, -1), (0, 0, -1), (0, 0, -1), (0, 0, -1), (0, 0, -1), (0, 0, -1), (0, 0, -1), (0, 0, -1), (0, 0, -1), (0, 0, -1), (0, 1, 0), (0, 1, 0), (0, 1, 0), (0, 1, 0), (0, 1, 0), (0, 1, 0), (0, 1, 0), (0, 1, 0), (0, 1, 0), (0, 1, 0), (0, 1, 0), (0, 1, 0), (0, 1, 0), (0, 1, 0), (0, 1, 0), (0, 1, 0), (0, 1, 0), (0, 1, 0), (0, 1, 0), (0, 1, 0), (0, 1, 0), (0, 1, 0), (0, 1, 0), (0, 1, 0), (0, 1, 0), (0, 1, 0), (0, 1, 0), (0, 1, 0), (0, 1, 0), (0, 1, 0), (0, 1, 0), (0, 1, 0), (0, 1, 0), (0, 1, 0), (0, 1, 0), (0, 1, 0), (0, 1, 0), (0, 1, 0), (0, 1, 0), (0, 1, 0), (0, 1, 0), (0, 1, 0), (0, 1, 0), (0, 1, 0), (0, 1, 0), (0, 1, 0), (0, 1, 0), (0, 1, 0), (-0.906932, 0, 0.421277), (-1, 0, 0), (-1, 0, 0), (-1, 0, 0), (-0.906932, 0, 0.421277), (-0.906932, 0, 0.421277), (-0.46342, 0, 0.886139), (-0.906932, 0, 0.421277), (-0.46342, 0, 0.886139), (-0.906932, 0, 0.421277), (-0.46342, 0, 0.886139), (-0.906932, 0, 0.421277), (0, 0, 1), (-0.46342, 0, 0.886139), (0, 0, 1), (-0.46342, 0, 0.886139), (0, 0, 1), (-0.46342, 0, 0.886139), (0.46342, 0, 0.886139), (0, 0, 1), (0.46342, 0, 0.886139), (0, 0, 1), (0.46342, 0, 0.886139), (0, 0, 1), (0.906932, 0, 0.421277), (0.46342, 0, 0.886139), (0.906932, 0, 0.421277), (0.46342, 0, 0.886139), (0.906932, 0, 0.421277), (0.46342, 0, 0.886139), (0.906932, 0, 0.421277), (1, 0, 0), (1, 0, 0), (1, 0, 0), (0.906932, 0, 0.421277), (0.906932, 0, 0.421277), (0, 1, 0), (0, 1, 0), (0, 1, 0), (0, 1, 0), (0, 1, 0), (0, 1, 0), (0, 1, 0), (0, 1, 0), (0, 1, 0), (0, 1, 0), (0, 1, 0), (0, 1, 0), (0, 1, 0), (0, 1, 0), (0, 1, 0), (0, 1, 0), (0, 1, 0), (0, 1, 0), (0, 1, 0), (0, 1, 0), (0, 1, 0), (0, 1, 0), (0, 1, 0), (0, 1, 0), (0, 1, 0), (0, 1, 0), (0, 1, 0), (0, 1, 0), (0, 1, 0), (0, 1, 0), (0, 1, 0), (0, 1, 0), (0, 1, 0), (0, 1, 0), (0, 1, 0), (0, 1, 0), (0, 1, 0), (0, 1, 0), (0, 1, 0), (0, 1, 0), (0, 1, 0), (0, 1, 0), (0, 1, 0), (0, 1, 0), (0, 1, 0), (1, 0, 0), (1, 0, 0), (1, 0, 0), (1, 0, 0), (1, 0, 0), (1, 0, 0), (0.645052, 0, -0.764139), (0.46342, 0, -0.886139), (0.645052, 0, -0.764139), (0.46342, 0, -0.886139), (0.645052, 0, -0.764139), (0.46342, 0, -0.886139), (0.46342, 0, -0.886139), (0, 0, -1), (0.46342, 0, -0.886139), (0, 0, -1), (0.46342, 0, -0.886139), (0, 0, -1), (0, 0, -1), (-0.46342, 0, -0.886139), (0, 0, -1), (-0.46342, 0, -0.886139), (0, 0, -1), (-0.46342, 0, -0.886139), (-0.46342, 0, -0.886139), (-0.645052, 0, -0.764139), (-0.645052, 0, -0.764139), (-0.645052, 0, -0.764139), (-0.46342, 0, -0.886139), (-0.46342, 0, -0.886139), (-1, 0, 0), (-1, 0, 0), (-1, 0, 0), (-1, 0, 0), (-1, 0, 0), (-1, 0, 0), (0, 0, 1), (0, 0, 1), (0, 0, 1), (0, 0, 1), (0, 0, 1), (0, 0, 1), (0, 0, 1), (0, 0, 1), (0, 0, 1), (0, 0, 1), (0, 0, 1), (0, 0, 1), (0, 0, 1), (0, 0, 1), (0, 0, 1), (0, 0, 1), (0, 0, 1), (0, 0, 1), (0.850651, 0.525731, 0), (0.447214, 0.894427, 0), (0.850651, 0.525731, 0), (0.447214, 0.894427, 0), (0.850651, 0.525731, 0), (0.447214, 0.894427, 0), (0.850651, 0.525731, 0), (1, 0, 0), (0.850651, 0.525731, 0), (1, 0, 0), (0.850651, 0.525731, 0), (1, 0, 0), (-1, 0, 0), (-0.850651, 0.525731, 0), (-0.850651, 0.525731, 0), (-0.850651, 0.525731, 0), (-1, 0, 0), (-1, 0, 0), (-0.447214, 0.894427, 0), (-0.850651, 0.525731, 0), (-0.447214, 0.894427, 0), (-0.850651, 0.525731, 0), (-0.447214, 0.894427, 0), (-0.850651, 0.525731, 0), (1, 0, 3.58942e-13), (1, 0, 3.58942e-13), (1, 0, 3.58942e-13), (1, 0, 3.58942e-13), (1, 0, 3.58942e-13), (1, 0, 3.58942e-13), (-1.37361e-13, 0.923879, 0.382683), (1.37361e-13, 0.923879, -0.382683), (1.37361e-13, 0.923879, -0.382683), (1.37361e-13, 0.923879, -0.382683), (-1.37361e-13, 0.923879, 0.382683), (-1.37361e-13, 0.923879, 0.382683), (-1, 0, -3.58942e-13), (-1, 0, -3.58942e-13), (-1, 0, -3.58942e-13), (-1, 0, -3.58942e-13), (-1, 0, -3.58942e-13), (-1, 0, -3.58942e-13), (1.37361e-13, 0.923879, -0.382683), (2.5381e-13, 0.707107, -0.707107), (1.37361e-13, 0.923879, -0.382683), (2.5381e-13, 0.707107, -0.707107), (1.37361e-13, 0.923879, -0.382683), (2.5381e-13, 0.707107, -0.707107), (-2.5381e-13, 0.707107, 0.707107), (-1.37361e-13, 0.923879, 0.382683), (-2.5381e-13, 0.707107, 0.707107), (-1.37361e-13, 0.923879, 0.382683), (-2.5381e-13, 0.707107, 0.707107), (-1.37361e-13, 0.923879, 0.382683), (1, 0, 3.58942e-13), (1, 0, 3.58942e-13), (1, 0, 3.58942e-13), (1, 0, 3.58942e-13), (1, 0, 3.58942e-13), (1, 0, 3.58942e-13), (-1.37361e-13, 0.923879, 0.382683), (1.37361e-13, 0.923879, -0.382683), (1.37361e-13, 0.923879, -0.382683), (1.37361e-13, 0.923879, -0.382683), (-1.37361e-13, 0.923879, 0.382683), (-1.37361e-13, 0.923879, 0.382683), (-1, 0, -3.58942e-13), (-1, 0, -3.58942e-13), (-1, 0, -3.58942e-13), (-1, 0, -3.58942e-13), (-1, 0, -3.58942e-13), (-1, 0, -3.58942e-13), (1.37361e-13, 0.923879, -0.382683), (2.5381e-13, 0.707107, -0.707107), (1.37361e-13, 0.923879, -0.382683), (2.5381e-13, 0.707107, -0.707107), (1.37361e-13, 0.923879, -0.382683), (2.5381e-13, 0.707107, -0.707107), (-2.5381e-13, 0.707107, 0.707107), (-1.37361e-13, 0.923879, 0.382683), (-2.5381e-13, 0.707107, 0.707107), (-1.37361e-13, 0.923879, 0.382683), (-2.5381e-13, 0.707107, 0.707107), (-1.37361e-13, 0.923879, 0.382683), (1, 0, 0), (1, 0, 0), (1, 0, 0), (1, 0, 0), (1, 0, 0), (1, 0, 0), (1, 0, 0), (1, 0, 0), (1, 0, 0), (1, 0, 0), (1, 0, 0), (1, 0, 0), (1, 0, 0), (1, 0, 0), (1, 0, 0), (0, 0.382683, 0.923879), (0, 0, 1), (0, 0, 1), (0, 0, 1), (0, 0.382683, 0.923879), (0, 0.382683, 0.923879), (-1, 0, 0), (-1, 0, 0), (-1, 0, 0), (-1, 0, 0), (-1, 0, 0), (-1, 0, 0), (-1, 0, 0), (-1, 0, 0), (-1, 0, 0), (-1, 0, 0), (-1, 0, 0), (-1, 0, 0), (-1, 0, 0), (-1, 0, 0), (-1, 0, 0), (0, 1, 0), (0, 0.923879, 0.382683), (0, 1, 0), (0, 0.923879, 0.382683), (0, 1, 0), (0, 0.923879, 0.382683), (0, 1, 0), (0, 0.811242, 0.58471), (0, 1, 0), (0, 0.811242, 0.58471), (0, 1, 0), (0, 0.811242, 0.58471), (0, 0.811242, 0.58471), (0, 0.316228, 0.948683), (0, 0.316228, 0.948683), (0, 0.316228, 0.948683), (0, 0.811242, 0.58471), (0, 0.811242, 0.58471), (0, 0.923879, 0.382683), (0, 0.382683, 0.923879), (0, 0.923879, 0.382683), (0, 0.382683, 0.923879), (0, 0.923879, 0.382683), (0, 0.382683, 0.923879), (0, 0, -1), (0, 0, -1), (0, 0, -1), (0, 0, -1), (0, 0, -1), (0, 0, -1), (0, 0.866025, -0.5), (0, 0.866025, -0.5), (0, 0.866025, -0.5), (0, 0.866025, -0.5), (0, 0.866025, -0.5), (0, 0.866025, -0.5), (-0.706417, -0.314973, -0.633851), (0.706417, -0.314973, -0.633851), (-0.706417, -0.314973, -0.633851), (0.706417, -0.314973, -0.633851), (-0.706417, -0.314973, -0.633851), (0.706417, -0.314973, -0.633851), (0.706417, 0.391445, 0.5897), (-0.706417, 0.391445, 0.5897), (0.706417, 0.391445, 0.5897), (-0.706417, 0.391445, 0.5897), (0.706417, 0.391445, 0.5897), (-0.706417, 0.391445, 0.5897), (0.706417, -0.314973, -0.633851), (0.706417, 0.391445, 0.5897), (0.706417, -0.314973, -0.633851), (0.706417, 0.391445, 0.5897), (0.706417, -0.314973, -0.633851), (0.706417, 0.391445, 0.5897), (-0.706417, 0.391445, 0.5897), (-0.706417, -0.314973, -0.633851), (-0.706417, -0.314973, -0.633851), (-0.706417, -0.314973, -0.633851), (-0.706417, 0.391445, 0.5897), (-0.706417, 0.391445, 0.5897), (0, 0.866025, -0.5), (0, 0.866025, -0.5), (0, 0.866025, -0.5), (0, 0.866025, -0.5), (0, 0.866025, -0.5), (0, 0.866025, -0.5), (-0.706417, -0.314973, -0.633851), (0.706417, -0.314973, -0.633851), (-0.706417, -0.314973, -0.633851), (0.706417, -0.314973, -0.633851), (-0.706417, -0.314973, -0.633851), (0.706417, -0.314973, -0.633851), (0.706417, 0.391445, 0.5897), (-0.706417, 0.391445, 0.5897), (0.706417, 0.391445, 0.5897), (-0.706417, 0.391445, 0.5897), (0.706417, 0.391445, 0.5897), (-0.706417, 0.391445, 0.5897), (0.706417, -0.314973, -0.633851), (0.706417, 0.391445, 0.5897), (0.706417, -0.314973, -0.633851), (0.706417, 0.391445, 0.5897), (0.706417, -0.314973, -0.633851), (0.706417, 0.391445, 0.5897), (-0.706417, 0.391445, 0.5897), (-0.706417, -0.314973, -0.633851), (-0.706417, -0.314973, -0.633851), (-0.706417, -0.314973, -0.633851), (-0.706417, 0.391445, 0.5897), (-0.706417, 0.391445, 0.5897), (0, 1, 0), (0, 0.970034, 0.242967), (0, 1, 0), (0, 0.970034, 0.242967), (0, 1, 0), (0, 0.970034, 0.242967), (0, 0.514114, 0.857722), (0, 0, 1), (0, 0, 1), (0, 0, 1), (0, 0.514114, 0.857722), (0, 0.514114, 0.857722), (-1, 0, 0), (-1, 0, 0), (-1, 0, 0), (-1, 0, 0), (-1, 0, 0), (-1, 0, 0), (-1, 0, 0), (-1, 0, 0), (-1, 0, 0), (0, -0.196116, -0.980581), (0, -0.196116, -0.980581), (0, -0.196116, -0.980581), (0, -0.196116, -0.980581), (0, -0.196116, -0.980581), (0, -0.196116, -0.980581), (1, 0, 0), (1, 0, 0), (1, 0, 0), (1, 0, 0), (1, 0, 0), (1, 0, 0), (1, 0, 0), (1, 0, 0), (1, 0, 0), (0, 0.970034, 0.242967), (0, 0.514114, 0.857722), (0, 0.970034, 0.242967), (0, 0.514114, 0.857722), (0, 0.970034, 0.242967), (0, 0.514114, 0.857722), (0, -0.5547, -0.83205), (0, -0.5547, -0.83205), (0, -0.5547, -0.83205), (0, -0.5547, -0.83205), (0, -0.5547, -0.83205), (0, -0.5547, -0.83205), (-0.236947, -0.848734, 0.472764), (-0.614369, -0.768993, 0.176638), (-0.257795, -0.846977, 0.464942), (-0.614369, -0.768993, 0.176638), (-0.236947, -0.848734, 0.472764), (-0.509689, -0.810035, 0.289931), (0.347397, -0.644064, 0.68154), (0, -0.658505, 0.752577), (0.364175, -0.642844, 0.67389), (0, -0.658505, 0.752577), (0.347397, -0.644064, 0.68154), (0, -0.658505, 0.752577), (0, -0.859293, 0.511484), (0.257795, -0.846977, 0.464942), (0.236947, -0.848734, 0.472764), (0.257795, -0.846977, 0.464942), (0, -0.859293, 0.511484), (0, -0.859293, 0.511484), (-0.347397, -0.644064, 0.68154), (-0.769315, -0.574561, 0.279347), (-0.364175, -0.642844, 0.67389), (-0.769315, -0.574561, 0.279347), (-0.347397, -0.644064, 0.68154), (-0.706938, -0.598928, 0.376197), (0.706938, -0.598928, 0.376197), (0.883116, -0.469155, 0), (0.883116, -0.469155, 0), (0.883116, -0.469155, 0), (0.706938, -0.598928, 0.376197), (0.769315, -0.574561, 0.279347), (0.236947, -0.848734, 0.472764), (0.614369, -0.768993, 0.176638), (0.509689, -0.810035, 0.289931), (0.614369, -0.768993, 0.176638), (0.236947, -0.848734, 0.472764), (0.257795, -0.846977, 0.464942), (-0.236947, -0.848734, 0.472764), (0, -0.859293, 0.511484), (0, -0.859293, 0.511484), (0, -0.859293, 0.511484), (-0.236947, -0.848734, 0.472764), (-0.257795, -0.846977, 0.464942), (0.347397, -0.644064, 0.68154), (0.769315, -0.574561, 0.279347), (0.706938, -0.598928, 0.376197), (0.769315, -0.574561, 0.279347), (0.347397, -0.644064, 0.68154), (0.364175, -0.642844, 0.67389), (-0.769315, -0.574561, 0.279347), (-0.883116, -0.469155, 0), (-0.883116, -0.469155, 0), (-0.883116, -0.469155, 0), (-0.769315, -0.574561, 0.279347), (-0.706938, -0.598928, 0.376197), (0.509689, -0.810035, 0.289931), (0.740833, -0.671689, 0), (0.740833, -0.671689, 0), (0.740833, -0.671689, 0), (0.509689, -0.810035, 0.289931), (0.614369, -0.768993, 0.176638), (-0.740833, -0.671689, 0), (-0.509689, -0.810035, 0.289931), (-0.740833, -0.671689, 0), (-0.509689, -0.810035, 0.289931), (-0.740833, -0.671689, 0), (-0.614369, -0.768993, 0.176638), (0, -1, 0), (0, -1, 0), (0, -1, 0), (0, -1, 0), (0, -1, 0), (0, -1, 0), (0, -1, 0), (0, -1, 0), (0, -1, 0), (0, -1, 0), (0, -1, 0), (0, -1, 0), (0, -1, 0), (0, -1, 0), (0, -1, 0), (0, -0.658505, 0.752577), (-0.364175, -0.642844, 0.67389), (0, -0.658505, 0.752577), (-0.364175, -0.642844, 0.67389), (0, -0.658505, 0.752577), (-0.347397, -0.644064, 0.68154), (0, 1, 0), (0, 1, 0), (0, 1, 0), (0, 1, 0), (0, 1, 0), (0, 1, 0), (1, 0, 0), (1, 0, 0), (1, 0, 0), (1, 0, 0), (1, 0, 0), (1, 0, 0), (0, 0, -1), (0, 0, -1), (0, 0, -1), (0, 0, -1), (0, 0, -1), (0, 0, -1), (-1, 0, 0), (-1, 0, 0), (-1, 0, 0), (-1, 0, 0), (-1, 0, 0), (-1, 0, 0), (0, 0, 1), (0, 0, 1), (0, 0, 1), (0, 0, 1), (0, 0, 1), (0, 0, 1), (-0.382683, -0.923879, 0), (0, -1, 0), (0, -1, 0), (0, -1, 0), (-0.382683, -0.923879, 0), (-0.382683, -0.923879, 0), (0, 0, 1), (0, 0, 1), (0, 0, 1), (0, 0, 1), (0, 0, 1), (0, 0, 1), (0, 0, 1), (0, 0, 1), (0, 0, 1), (0, 0, 1), (0, 0, 1), (0, 0, 1), (0, 0, 1), (0, 0, 1), (0, 0, 1), (0, 0, 1), (0, 0, 1), (0, 0, 1), (0, 0, 1), (0, 0, 1), (0, 0, 1), (0, 0, 1), (0, 0, 1), (0, 0, 1), (0.923879, 0.382683, 0), (1, 0, 0), (0.923879, 0.382683, 0), (1, 0, 0), (0.923879, 0.382683, 0), (1, 0, 0), (0, 0, -1), (0, 0, -1), (0, 0, -1), (0, 0, -1), (0, 0, -1), (0, 0, -1), (0, 0, -1), (0, 0, -1), (0, 0, -1), (0, 0, -1), (0, 0, -1), (0, 0, -1), (0, 0, -1), (0, 0, -1), (0, 0, -1), (0, 0, -1), (0, 0, -1), (0, 0, -1), (0, 0, -1), (0, 0, -1), (0, 0, -1), (0, 0, -1), (0, 0, -1), (0, 0, -1), (0.382683, 0.923879, 0), (0.923879, 0.382683, 0), (0.923879, 0.382683, 0), (0.923879, 0.382683, 0), (0.382683, 0.923879, 0), (0.382683, 0.923879, 0), (-0.150426, 0.988621, 0), (0.382683, 0.923879, 0), (0.382683, 0.923879, 0), (0.382683, 0.923879, 0), (-0.150426, 0.988621, 0), (-0.150426, 0.988621, 0), (-0.692606, 0.721316, 0), (-0.150426, 0.988621, 0), (-0.150426, 0.988621, 0), (-0.150426, 0.988621, 0), (-0.692606, 0.721316, 0), (-0.692606, 0.721316, 0), (-0.985364, 0.170464, 0), (-0.692606, 0.721316, 0), (-0.985364, 0.170464, 0), (-0.692606, 0.721316, 0), (-0.985364, 0.170464, 0), (-0.692606, 0.721316, 0), (-0.923879, -0.382683, 0), (-0.985364, 0.170464, 0), (-0.923879, -0.382683, 0), (-0.985364, 0.170464, 0), (-0.923879, -0.382683, 0), (-0.985364, 0.170464, 0), (-0.382683, -0.923879, 0), (-0.923879, -0.382683, 0), (-0.382683, -0.923879, 0), (-0.923879, -0.382683, 0), (-0.382683, -0.923879, 0), (-0.923879, -0.382683, 0), (0.382683, -0.923879, -3.59175e-13), (0, -1, 0), (0, -1, 0), (0, -1, 0), (0.382683, -0.923879, -3.59175e-13), (0.382683, -0.923879, -3.59175e-13), (-9.38569e-13, 0, -1), (-9.38569e-13, 0, -1), (-9.38569e-13, 0, -1), (-9.38569e-13, 0, -1), (-9.38569e-13, 0, -1), (-9.38569e-13, 0, -1), (-9.38569e-13, 0, -1), (-9.38569e-13, 0, -1), (-9.38569e-13, 0, -1), (-9.38569e-13, 0, -1), (-9.38569e-13, 0, -1), (-9.38569e-13, 0, -1), (-9.38569e-13, 0, -1), (-9.38569e-13, 0, -1), (-9.38569e-13, 0, -1), (-9.38569e-13, 0, -1), (-9.38569e-13, 0, -1), (-9.38569e-13, 0, -1), (-9.38569e-13, 0, -1), (-9.38569e-13, 0, -1), (-9.38569e-13, 0, -1), (-9.38569e-13, 0, -1), (-9.38569e-13, 0, -1), (-9.38569e-13, 0, -1), (-0.923879, 0.382683, 8.67124e-13), (-1, 0, 9.38569e-13), (-0.923879, 0.382683, 8.67124e-13), (-1, 0, 9.38569e-13), (-0.923879, 0.382683, 8.67124e-13), (-1, 0, 9.38569e-13), (9.38569e-13, 0, 1), (9.38569e-13, 0, 1), (9.38569e-13, 0, 1), (9.38569e-13, 0, 1), (9.38569e-13, 0, 1), (9.38569e-13, 0, 1), (9.38569e-13, 0, 1), (9.38569e-13, 0, 1), (9.38569e-13, 0, 1), (9.38569e-13, 0, 1), (9.38569e-13, 0, 1), (9.38569e-13, 0, 1), (9.38569e-13, 0, 1), (9.38569e-13, 0, 1), (9.38569e-13, 0, 1), (9.38569e-13, 0, 1), (9.38569e-13, 0, 1), (9.38569e-13, 0, 1), (9.38569e-13, 0, 1), (9.38569e-13, 0, 1), (9.38569e-13, 0, 1), (9.38569e-13, 0, 1), (9.38569e-13, 0, 1), (9.38569e-13, 0, 1), (-0.382683, 0.923879, 3.59175e-13), (-0.923879, 0.382683, 8.67124e-13), (-0.923879, 0.382683, 8.67124e-13), (-0.923879, 0.382683, 8.67124e-13), (-0.382683, 0.923879, 3.59175e-13), (-0.382683, 0.923879, 3.59175e-13), (0.150426, 0.988621, -1.41185e-13), (-0.382683, 0.923879, 3.59175e-13), (-0.382683, 0.923879, 3.59175e-13), (-0.382683, 0.923879, 3.59175e-13), (0.150426, 0.988621, -1.41185e-13), (0.150426, 0.988621, -1.41185e-13), (0.692606, 0.721316, -6.50059e-13), (0.150426, 0.988621, -1.41185e-13), (0.150426, 0.988621, -1.41185e-13), (0.150426, 0.988621, -1.41185e-13), (0.692606, 0.721316, -6.50059e-13), (0.692606, 0.721316, -6.50059e-13), (0.985364, 0.170464, -9.24832e-13), (0.692606, 0.721316, -6.50059e-13), (0.985364, 0.170464, -9.24832e-13), (0.692606, 0.721316, -6.50059e-13), (0.985364, 0.170464, -9.24832e-13), (0.692606, 0.721316, -6.50059e-13), (0.923879, -0.382683, -8.67124e-13), (0.985364, 0.170464, -9.24832e-13), (0.923879, -0.382683, -8.67124e-13), (0.985364, 0.170464, -9.24832e-13), (0.923879, -0.382683, -8.67124e-13), (0.985364, 0.170464, -9.24832e-13), (0.382683, -0.923879, -3.59175e-13), (0.923879, -0.382683, -8.67124e-13), (0.382683, -0.923879, -3.59175e-13), (0.923879, -0.382683, -8.67124e-13), (0.382683, -0.923879, -3.59175e-13), (0.923879, -0.382683, -8.67124e-13), (0, -1, 0), (0, -1, 0), (0, -1, 0), (0, -1, 0), (0, -1, 0), (0, -1, 0), (0, -1, 0), (0, -1, 0), (0, -1, 0), (0, -1, 0), (0, -1, 0), (0, -1, 0), (0, -1, 0), (0, -1, 0), (0, -1, 0), (0, 0, -1), (0, 0, -1), (0, 0, -1), (0, 0, -1), (0, 0, -1), (0, 0, -1), (0, 0, -1), (0, 0, -1), (0, 0, -1), (0, 0, -1), (0, 0, -1), (0, 0, -1), (0, 0, -1), (0, 0, -1), (0, 0, -1), (0, 0, -1), (0, 0, -1), (0, 0, -1), (0, 0, -1), (0, 0, -1), (0, 0, -1), (0, 0, -1), (0, 0, -1), (0, 0, -1), (0, 0, -1), (0, 0, -1), (0, 0, -1), (0, 0, -1), (0, 0, -1), (0, 0, -1), (0, 1, 0), (0, 1, 0), (0, 1, 0), (0, 1, 0), (0, 1, 0), (0, 1, 0), (0, 1, 0), (0, 1, 0), (0, 1, 0), (0, 1, 0), (0, 1, 0), (0, 1, 0), (0, 1, 0), (0, 1, 0), (0, 1, 0), (0, 1, 0), (0, 1, 0), (0, 1, 0), (0, 1, 0), (0, 1, 0), (0, 1, 0), (0, 1, 0), (0, 1, 0), (0, 1, 0), (0, 1, 0), (0, 1, 0), (0, 1, 0), (0, 1, 0), (0, 1, 0), (0, 1, 0), (0, 1, 0), (0, 1, 0), (0, 1, 0), (0, 1, 0), (0, 1, 0), (0, 1, 0), (0, 1, 0), (0, 1, 0), (0, 1, 0), (0, 1, 0), (0, 1, 0), (0, 1, 0), (0, 1, 0), (0, 1, 0), (0, 1, 0), (0, 1, 0), (0, 1, 0), (0, 1, 0), (-0.906932, 0, 0.421277), (-1, 0, 0), (-1, 0, 0), (-1, 0, 0), (-0.906932, 0, 0.421277), (-0.906932, 0, 0.421277), (-0.46342, 0, 0.886139), (-0.906932, 0, 0.421277), (-0.46342, 0, 0.886139), (-0.906932, 0, 0.421277), (-0.46342, 0, 0.886139), (-0.906932, 0, 0.421277), (0, 0, 1), (-0.46342, 0, 0.886139), (0, 0, 1), (-0.46342, 0, 0.886139), (0, 0, 1), (-0.46342, 0, 0.886139), (0.46342, 0, 0.886139), (0, 0, 1), (0.46342, 0, 0.886139), (0, 0, 1), (0.46342, 0, 0.886139), (0, 0, 1), (0.906932, 0, 0.421277), (0.46342, 0, 0.886139), (0.906932, 0, 0.421277), (0.46342, 0, 0.886139), (0.906932, 0, 0.421277), (0.46342, 0, 0.886139), (0.906932, 0, 0.421277), (1, 0, 0), (1, 0, 0), (1, 0, 0), (0.906932, 0, 0.421277), (0.906932, 0, 0.421277), (0, 1, 0), (0, 1, 0), (0, 1, 0), (0, 1, 0), (0, 1, 0), (0, 1, 0), (0, 1, 0), (0, 1, 0), (0, 1, 0), (0, 1, 0), (0, 1, 0), (0, 1, 0), (0, 1, 0), (0, 1, 0), (0, 1, 0), (0, 1, 0), (0, 1, 0), (0, 1, 0), (0, 1, 0), (0, 1, 0), (0, 1, 0), (0, 1, 0), (0, 1, 0), (0, 1, 0), (0, 1, 0), (0, 1, 0), (0, 1, 0), (0, 1, 0), (0, 1, 0), (0, 1, 0), (0, 1, 0), (0, 1, 0), (0, 1, 0), (0, 1, 0), (0, 1, 0), (0, 1, 0), (0, 1, 0), (0, 1, 0), (0, 1, 0), (0, 1, 0), (0, 1, 0), (0, 1, 0), (0, 1, 0), (0, 1, 0), (0, 1, 0), (1, 0, 0), (1, 0, 0), (1, 0, 0), (1, 0, 0), (1, 0, 0), (1, 0, 0), (0.645052, 0, -0.764139), (0.46342, 0, -0.886139), (0.645052, 0, -0.764139), (0.46342, 0, -0.886139), (0.645052, 0, -0.764139), (0.46342, 0, -0.886139), (0.46342, 0, -0.886139), (0, 0, -1), (0.46342, 0, -0.886139), (0, 0, -1), (0.46342, 0, -0.886139), (0, 0, -1), (0, 0, -1), (-0.46342, 0, -0.886139), (0, 0, -1), (-0.46342, 0, -0.886139), (0, 0, -1), (-0.46342, 0, -0.886139), (-0.46342, 0, -0.886139), (-0.645052, 0, -0.764139), (-0.645052, 0, -0.764139), (-0.645052, 0, -0.764139), (-0.46342, 0, -0.886139), (-0.46342, 0, -0.886139), (-1, 0, 0), (-1, 0, 0), (-1, 0, 0), (-1, 0, 0), (-1, 0, 0), (-1, 0, 0), (0, 0, 1), (0, 0, 1), (0, 0, 1), (0, 0, 1), (0, 0, 1), (0, 0, 1), (0, 0, 1), (0, 0, 1), (0, 0, 1), (0, 0, 1), (0, 0, 1), (0, 0, 1), (0, 0, 1), (0, 0, 1), (0, 0, 1), (0, 0, 1), (0, 0, 1), (0, 0, 1), (0.850651, 0.525731, 0), (0.447214, 0.894427, 0), (0.850651, 0.525731, 0), (0.447214, 0.894427, 0), (0.850651, 0.525731, 0), (0.447214, 0.894427, 0), (0.850651, 0.525731, 0), (1, 0, 0), (0.850651, 0.525731, 0), (1, 0, 0), (0.850651, 0.525731, 0), (1, 0, 0), (-1, 0, 0), (-0.850651, 0.525731, 0), (-0.850651, 0.525731, 0), (-0.850651, 0.525731, 0), (-1, 0, 0), (-1, 0, 0), (-0.447214, 0.894427, 0), (-0.850651, 0.525731, 0), (-0.447214, 0.894427, 0), (-0.850651, 0.525731, 0), (-0.447214, 0.894427, 0), (-0.850651, 0.525731, 0), (1, 0, 3.58942e-13), (1, 0, 3.58942e-13), (1, 0, 3.58942e-13), (1, 0, 3.58942e-13), (1, 0, 3.58942e-13), (1, 0, 3.58942e-13), (-1.37361e-13, 0.923879, 0.382683), (1.37361e-13, 0.923879, -0.382683), (1.37361e-13, 0.923879, -0.382683), (1.37361e-13, 0.923879, -0.382683), (-1.37361e-13, 0.923879, 0.382683), (-1.37361e-13, 0.923879, 0.382683), (-1, 0, -3.58942e-13), (-1, 0, -3.58942e-13), (-1, 0, -3.58942e-13), (-1, 0, -3.58942e-13), (-1, 0, -3.58942e-13), (-1, 0, -3.58942e-13), (1.37361e-13, 0.923879, -0.382683), (2.5381e-13, 0.707107, -0.707107), (1.37361e-13, 0.923879, -0.382683), (2.5381e-13, 0.707107, -0.707107), (1.37361e-13, 0.923879, -0.382683), (2.5381e-13, 0.707107, -0.707107), (-2.5381e-13, 0.707107, 0.707107), (-1.37361e-13, 0.923879, 0.382683), (-2.5381e-13, 0.707107, 0.707107), (-1.37361e-13, 0.923879, 0.382683), (-2.5381e-13, 0.707107, 0.707107), (-1.37361e-13, 0.923879, 0.382683), (1, 0, 3.58942e-13), (1, 0, 3.58942e-13), (1, 0, 3.58942e-13), (1, 0, 3.58942e-13), (1, 0, 3.58942e-13), (1, 0, 3.58942e-13), (-1.37361e-13, 0.923879, 0.382683), (1.37361e-13, 0.923879, -0.382683), (1.37361e-13, 0.923879, -0.382683), (1.37361e-13, 0.923879, -0.382683), (-1.37361e-13, 0.923879, 0.382683), (-1.37361e-13, 0.923879, 0.382683), (-1, 0, -3.58942e-13), (-1, 0, -3.58942e-13), (-1, 0, -3.58942e-13), (-1, 0, -3.58942e-13), (-1, 0, -3.58942e-13), (-1, 0, -3.58942e-13), (1.37361e-13, 0.923879, -0.382683), (2.5381e-13, 0.707107, -0.707107), (1.37361e-13, 0.923879, -0.382683), (2.5381e-13, 0.707107, -0.707107), (1.37361e-13, 0.923879, -0.382683), (2.5381e-13, 0.707107, -0.707107), (-2.5381e-13, 0.707107, 0.707107), (-1.37361e-13, 0.923879, 0.382683), (-2.5381e-13, 0.707107, 0.707107), (-1.37361e-13, 0.923879, 0.382683), (-2.5381e-13, 0.707107, 0.707107), (-1.37361e-13, 0.923879, 0.382683), (1, 0, 0), (1, 0, 0), (1, 0, 0), (1, 0, 0), (1, 0, 0), (1, 0, 0), (1, 0, 0), (1, 0, 0), (1, 0, 0), (1, 0, 0), (1, 0, 0), (1, 0, 0), (1, 0, 0), (1, 0, 0), (1, 0, 0), (0, 0.382683, 0.923879), (0, 0, 1), (0, 0, 1), (0, 0, 1), (0, 0.382683, 0.923879), (0, 0.382683, 0.923879), (-1, 0, 0), (-1, 0, 0), (-1, 0, 0), (-1, 0, 0), (-1, 0, 0), (-1, 0, 0), (-1, 0, 0), (-1, 0, 0), (-1, 0, 0), (-1, 0, 0), (-1, 0, 0), (-1, 0, 0), (-1, 0, 0), (-1, 0, 0), (-1, 0, 0), (0, 1, 0), (0, 0.923879, 0.382683), (0, 1, 0), (0, 0.923879, 0.382683), (0, 1, 0), (0, 0.923879, 0.382683), (0, 1, 0), (0, 0.811242, 0.58471), (0, 1, 0), (0, 0.811242, 0.58471), (0, 1, 0), (0, 0.811242, 0.58471), (0, 0.811242, 0.58471), (0, 0.316228, 0.948683), (0, 0.316228, 0.948683), (0, 0.316228, 0.948683), (0, 0.811242, 0.58471), (0, 0.811242, 0.58471), (0, 0.923879, 0.382683), (0, 0.382683, 0.923879), (0, 0.923879, 0.382683), (0, 0.382683, 0.923879), (0, 0.923879, 0.382683), (0, 0.382683, 0.923879), (0, 0, -1), (0, 0, -1), (0, 0, -1), (0, 0, -1), (0, 0, -1), (0, 0, -1), (0, 0.866025, -0.5), (0, 0.866025, -0.5), (0, 0.866025, -0.5), (0, 0.866025, -0.5), (0, 0.866025, -0.5), (0, 0.866025, -0.5), (-0.706417, -0.314973, -0.633851), (0.706417, -0.314973, -0.633851), (-0.706417, -0.314973, -0.633851), (0.706417, -0.314973, -0.633851), (-0.706417, -0.314973, -0.633851), (0.706417, -0.314973, -0.633851), (0.706417, 0.391445, 0.5897), (-0.706417, 0.391445, 0.5897), (0.706417, 0.391445, 0.5897), (-0.706417, 0.391445, 0.5897), (0.706417, 0.391445, 0.5897), (-0.706417, 0.391445, 0.5897), (0.706417, -0.314973, -0.633851), (0.706417, 0.391445, 0.5897), (0.706417, -0.314973, -0.633851), (0.706417, 0.391445, 0.5897), (0.706417, -0.314973, -0.633851), (0.706417, 0.391445, 0.5897), (-0.706417, 0.391445, 0.5897), (-0.706417, -0.314973, -0.633851), (-0.706417, -0.314973, -0.633851), (-0.706417, -0.314973, -0.633851), (-0.706417, 0.391445, 0.5897), (-0.706417, 0.391445, 0.5897), (0, 0.866025, -0.5), (0, 0.866025, -0.5), (0, 0.866025, -0.5), (0, 0.866025, -0.5), (0, 0.866025, -0.5), (0, 0.866025, -0.5), (-0.706417, -0.314973, -0.633851), (0.706417, -0.314973, -0.633851), (-0.706417, -0.314973, -0.633851), (0.706417, -0.314973, -0.633851), (-0.706417, -0.314973, -0.633851), (0.706417, -0.314973, -0.633851), (0.706417, 0.391445, 0.5897), (-0.706417, 0.391445, 0.5897), (0.706417, 0.391445, 0.5897), (-0.706417, 0.391445, 0.5897), (0.706417, 0.391445, 0.5897), (-0.706417, 0.391445, 0.5897), (0.706417, -0.314973, -0.633851), (0.706417, 0.391445, 0.5897), (0.706417, -0.314973, -0.633851), (0.706417, 0.391445, 0.5897), (0.706417, -0.314973, -0.633851), (0.706417, 0.391445, 0.5897), (-0.706417, 0.391445, 0.5897), (-0.706417, -0.314973, -0.633851), (-0.706417, -0.314973, -0.633851), (-0.706417, -0.314973, -0.633851), (-0.706417, 0.391445, 0.5897), (-0.706417, 0.391445, 0.5897), (0, 1, 0), (0, 0.970034, 0.242967), (0, 1, 0), (0, 0.970034, 0.242967), (0, 1, 0), (0, 0.970034, 0.242967), (0, 0.514114, 0.857722), (0, 0, 1), (0, 0, 1), (0, 0, 1), (0, 0.514114, 0.857722), (0, 0.514114, 0.857722), (-1, 0, 0), (-1, 0, 0), (-1, 0, 0), (-1, 0, 0), (-1, 0, 0), (-1, 0, 0), (-1, 0, 0), (-1, 0, 0), (-1, 0, 0), (0, -0.196116, -0.980581), (0, -0.196116, -0.980581), (0, -0.196116, -0.980581), (0, -0.196116, -0.980581), (0, -0.196116, -0.980581), (0, -0.196116, -0.980581), (1, 0, 0), (1, 0, 0), (1, 0, 0), (1, 0, 0), (1, 0, 0), (1, 0, 0), (1, 0, 0), (1, 0, 0), (1, 0, 0), (0, 0.970034, 0.242967), (0, 0.514114, 0.857722), (0, 0.970034, 0.242967), (0, 0.514114, 0.857722), (0, 0.970034, 0.242967), (0, 0.514114, 0.857722)] (interpolation = "faceVarying")
        texCoord2f[] primvars:st = [(0.71875, 0.085), (0.71875, 0.025), (0.71875, 0.025), (0.71875, 0.025), (0.71875, 0.085), (0.71875, 0.085), (0.71875, 0.085), (0.71875, 0.025), (0.71875, 0.025), (0.71875, 0.025), (0.71875, 0.085), (0.71875, 0.085), (0.71875, 0.165), (0.71875, 0.085), (0.71875, 0.085), (0.71875, 0.085), (0.71875, 0.165), (0.71875, 0.165), (0.71875, 0.085), (0.71875, 0.025), (0.71875, 0.085), (0.71875, 0.025), (0.71875, 0.085), (0.71875, 0.025), (0.71875, 0.165), (0.71875, 0.085), (0.71875, 0.085), (0.71875, 0.085), (0.71875, 0.165), (0.71875, 0.165), (0.71875, 0.165), (0.71875, 0.085), (0.71875, 0.165), (0.71875, 0.085), (0.71875, 0.165), (0.71875, 0.085), (0.71875, 0.085), (0.71875, 0.025), (0.71875, 0.085), (0.71875, 0.025), (0.71875, 0.085), (0.71875, 0.025), (0.71875, 0.085), (0.71875, 0.025), (0.71875, 0.085), (0.71875, 0.025), (0.71875, 0.085), (0.71875, 0.025), (0.71875, 0.165), (0.71875, 0.085), (0.71875, 0.165), (0.71875, 0.085), (0.71875, 0.165), (0.71875, 0.085), (0.71875, 0.085), (0.71875, 0.165), (0.71875, 0.085), (0.71875, 0.165), (0.71875, 0.085), (0.71875, 0.165), (0.71875, 0.085), (0.71875, 0.025), (0.71875, 0.085), (0.71875, 0.025), (0.71875, 0.085), (0.71875, 0.025), (0.71875, 0.025), (0.71875, 0.085), (0.71875, 0.085), (0.71875, 0.085), (0.71875, 0.025), (0.71875, 0.025), (0.71875, 0.025), (0.71875, 0.025), (0.71875, 0.025), (0.71875, 0.025), (0.71875, 0.025), (0.71875, 0.025), (0.71875, 0.025), (0.71875, 0.025), (0.71875, 0.025), (0.71875, 0.025), (0.71875, 0.025), (0.71875, 0.025), (0.71875, 0.025), (0.71875, 0.025), (0.71875, 0.025), (0.71875, 0.165), (0.71875, 0.085), (0.71875, 0.085), (0.71875, 0.085), (0.71875, 0.165), (0.71875, 0.165), (0.71875, 0.125), (0.71875, 0.125), (0.71875, 0.125), (0.71875, 0.125), (0.71875, 0.125), (0.71875, 0.125), (0.71875, 0.185), (0.71875, 0.125), (0.71875, 0.185), (0.71875, 0.125), (0.71875, 0.185), (0.71875, 0.125), (0.71875, 0.185), (0.71875, 0.125), (0.71875, 0.125), (0.71875, 0.125), (0.71875, 0.185), (0.71875, 0.185), (0.71875, 0.125), (0.71875, 0.185), (0.71875, 0.125), (0.71875, 0.185), (0.71875, 0.125), (0.71875, 0.185), (0.71875, 0.185), (0.71875, 0.125), (0.71875, 0.125), (0.71875, 0.125), (0.71875, 0.185), (0.71875, 0.185), (0.71875, 0.025), (0.71875, 0.025), (0.71875, 0.025), (0.71875, 0.025), (0.71875, 0.025), (0.71875, 0.025), (0.71875, 0.2), (0.71875, 0.175), (0.71875, 0.175), (0.71875, 0.2125), (0.71875, 0.175), (0.71875, 0.2), (0.71875, 0.2125), (0.71875, 0.2), (0.71875, 0.225), (0.71875, 0.2125), (0.71875, 0.225), (0.71875, 0.225), (0.71875, 0.175), (0.71875, 0.175), (0.71875, 0.2125), (0.71875, 0.05175), (0.71875, 0.175), (0.71875, 0.175), (0.71875, 0.05175), (0.71875, 0.025), (0.71875, 0.175), (0.71875, 0.025), (0.71875, 0.05175), (0.71875, 0.025), (0.71875, 0.2), (0.71875, 0.175), (0.71875, 0.2), (0.71875, 0.175), (0.71875, 0.2), (0.71875, 0.175), (0.71875, 0.05175), (0.71875, 0.025), (0.71875, 0.025), (0.71875, 0.025), (0.71875, 0.05175), (0.71875, 0.175), (0.71875, 0.175), (0.71875, 0.05175), (0.71875, 0.175), (0.71875, 0.175), (0.71875, 0.175), (0.71875, 0.2125), (0.71875, 0.175), (0.71875, 0.2125), (0.71875, 0.175), (0.71875, 0.175), (0.71875, 0.2125), (0.71875, 0.2), (0.71875, 0.2), (0.71875, 0.2125), (0.71875, 0.225), (0.71875, 0.225), (0.71875, 0.2125), (0.71875, 0.225), (0.71875, 0.225), (0.71875, 0.2), (0.71875, 0.2), (0.71875, 0.2), (0.71875, 0.225), (0.71875, 0.225), (0.71875, 0.225), (0.71875, 0.225), (0.71875, 0.225), (0.71875, 0.225), (0.71875, 0.225), (0.71875, 0.225), (0.71875, 0.2125), (0.71875, 0.225), (0.71875, 0.225), (0.71875, 0.225), (0.71875, 0.2125), (0.71875, 0.2125), (0.71875, 0.175), (0.71875, 0.2125), (0.71875, 0.175), (0.71875, 0.2125), (0.71875, 0.175), (0.71875, 0.2125), (0.71875, 0.05175), (0.71875, 0.175), (0.71875, 0.05175), (0.71875, 0.175), (0.71875, 0.05175), (0.71875, 0.175), (0.71875, 0.025), (0.71875, 0.05175), (0.71875, 0.025), (0.71875, 0.05175), (0.71875, 0.025), (0.71875, 0.05175), (0.71875, 0.025), (0.71875, 0.025), (0.71875, 0.025), (0.71875, 0.025), (0.71875, 0.025), (0.71875, 0.025), (0.71875, 0.2), (0.71875, 0.175), (0.71875, 0.175), (0.71875, 0.2125), (0.71875, 0.175), (0.71875, 0.2), (0.71875, 0.2125), (0.71875, 0.2), (0.71875, 0.225), (0.71875, 0.2125), (0.71875, 0.225), (0.71875, 0.225), (0.71875, 0.175), (0.71875, 0.175), (0.71875, 0.2125), (0.71875, 0.05175), (0.71875, 0.175), (0.71875, 0.175), (0.71875, 0.05175), (0.71875, 0.025), (0.71875, 0.175), (0.71875, 0.025), (0.71875, 0.05175), (0.71875, 0.025), (0.71875, 0.2), (0.71875, 0.175), (0.71875, 0.2), (0.71875, 0.175), (0.71875, 0.2), (0.71875, 0.175), (0.71875, 0.05175), (0.71875, 0.025), (0.71875, 0.025), (0.71875, 0.025), (0.71875, 0.05175), (0.71875, 0.175), (0.71875, 0.175), (0.71875, 0.05175), (0.71875, 0.175), (0.71875, 0.175), (0.71875, 0.175), (0.71875, 0.2125), (0.71875, 0.175), (0.71875, 0.2125), (0.71875, 0.175), (0.71875, 0.175), (0.71875, 0.2125), (0.71875, 0.2), (0.71875, 0.2), (0.71875, 0.2125), (0.71875, 0.225), (0.71875, 0.225), (0.71875, 0.2125), (0.71875, 0.225), (0.71875, 0.225), (0.71875, 0.2), (0.71875, 0.2), (0.71875, 0.2), (0.71875, 0.225), (0.71875, 0.225), (0.71875, 0.225), (0.71875, 0.225), (0.71875, 0.225), (0.71875, 0.225), (0.71875, 0.225), (0.71875, 0.225), (0.71875, 0.2125), (0.71875, 0.225), (0.71875, 0.225), (0.71875, 0.225), (0.71875, 0.2125), (0.71875, 0.2125), (0.71875, 0.175), (0.71875, 0.2125), (0.71875, 0.175), (0.71875, 0.2125), (0.71875, 0.175), (0.71875, 0.2125), (0.71875, 0.05175), (0.71875, 0.175), (0.71875, 0.05175), (0.71875, 0.175), (0.71875, 0.05175), (0.71875, 0.175), (0.71875, 0.025), (0.71875, 0.05175), (0.71875, 0.025), (0.71875, 0.05175), (0.71875, 0.025), (0.71875, 0.05175), (0.71875, 0.085), (0.71875, 0.085), (0.71875, 0.085), (0.71875, 0.085), (0.71875, 0.085), (0.71875, 0.085), (0.71875, 0.085), (0.71875, 0.085), (0.71875, 0.085), (0.71875, 0.085), (0.71875, 0.085), (0.71875, 0.085), (0.71875, 0.085), (0.71875, 0.085), (0.71875, 0.085), (0.71875, 0.415), (0.71875, 0.335), (0.71875, 0.335), (0.71875, 0.335), (0.71875, 0.415), (0.71875, 0.415), (0.71875, 0.415), (0.71875, 0.415), (0.71875, 0.435), (0.71875, 0.435), (0.71875, 0.415), (0.71875, 0.475), (0.71875, 0.435), (0.71875, 0.475), (0.71875, 0.455), (0.71875, 0.455), (0.71875, 0.475), (0.71875, 0.475), (0.71875, 0.435), (0.71875, 0.415), (0.71875, 0.435), (0.71875, 0.415), (0.71875, 0.435), (0.71875, 0.475), (0.71875, 0.475), (0.71875, 0.435), (0.71875, 0.455), (0.71875, 0.475), (0.71875, 0.455), (0.71875, 0.475), (0.71875, 0.475), (0.71875, 0.475), (0.71875, 0.475), (0.71875, 0.475), (0.71875, 0.475), (0.71875, 0.475), (0.71875, 0.475), (0.71875, 0.475), (0.71875, 0.475), (0.71875, 0.475), (0.71875, 0.475), (0.71875, 0.475), (0.71875, 0.475), (0.71875, 0.475), (0.71875, 0.475), (0.71875, 0.475), (0.71875, 0.475), (0.71875, 0.475), (0.71875, 0.475), (0.71875, 0.475), (0.71875, 0.475), (0.71875, 0.475), (0.71875, 0.475), (0.71875, 0.475), (0.71875, 0.475), (0.71875, 0.475), (0.71875, 0.475), (0.71875, 0.475), (0.71875, 0.475), (0.71875, 0.475), (0.71875, 0.475), (0.71875, 0.475), (0.71875, 0.475), (0.71875, 0.475), (0.71875, 0.475), (0.71875, 0.475), (0.71875, 0.475), (0.71875, 0.475), (0.71875, 0.475), (0.71875, 0.475), (0.71875, 0.475), (0.71875, 0.475), (0.71875, 0.475), (0.71875, 0.475), (0.71875, 0.475), (0.71875, 0.475), (0.71875, 0.475), (0.71875, 0.475), (0.71875, 0.415), (0.71875, 0.475), (0.71875, 0.415), (0.71875, 0.475), (0.71875, 0.415), (0.71875, 0.475), (0.71875, 0.475), (0.71875, 0.415), (0.71875, 0.415), (0.71875, 0.415), (0.71875, 0.475), (0.71875, 0.475), (0.71875, 0.475), (0.71875, 0.415), (0.71875, 0.415), (0.71875, 0.415), (0.71875, 0.475), (0.71875, 0.475), (0.71875, 0.475), (0.71875, 0.415), (0.71875, 0.415), (0.71875, 0.415), (0.71875, 0.475), (0.71875, 0.475), (0.71875, 0.475), (0.71875, 0.415), (0.71875, 0.415), (0.71875, 0.415), (0.71875, 0.475), (0.71875, 0.475), (0.71875, 0.475), (0.71875, 0.415), (0.71875, 0.475), (0.71875, 0.415), (0.71875, 0.475), (0.71875, 0.415), (0.71875, 0.435), (0.71875, 0.435), (0.71875, 0.435), (0.71875, 0.435), (0.71875, 0.435), (0.71875, 0.435), (0.71875, 0.435), (0.71875, 0.435), (0.71875, 0.435), (0.71875, 0.435), (0.71875, 0.435), (0.71875, 0.435), (0.71875, 0.435), (0.71875, 0.435), (0.71875, 0.435), (0.71875, 0.435), (0.71875, 0.435), (0.71875, 0.435), (0.71875, 0.435), (0.71875, 0.435), (0.71875, 0.435), (0.71875, 0.435), (0.71875, 0.435), (0.71875, 0.435), (0.71875, 0.435), (0.71875, 0.435), (0.71875, 0.435), (0.71875, 0.435), (0.71875, 0.435), (0.71875, 0.435), (0.71875, 0.435), (0.71875, 0.435), (0.71875, 0.435), (0.71875, 0.435), (0.71875, 0.435), (0.71875, 0.435), (0.71875, 0.435), (0.71875, 0.435), (0.71875, 0.435), (0.71875, 0.435), (0.71875, 0.435), (0.71875, 0.435), (0.71875, 0.435), (0.71875, 0.435), (0.71875, 0.435), (0.71875, 0.475), (0.71875, 0.435), (0.71875, 0.475), (0.71875, 0.435), (0.71875, 0.475), (0.71875, 0.435), (0.71875, 0.475), (0.71875, 0.435), (0.71875, 0.435), (0.71875, 0.435), (0.71875, 0.475), (0.71875, 0.475), (0.71875, 0.475), (0.71875, 0.435), (0.71875, 0.435), (0.71875, 0.435), (0.71875, 0.475), (0.71875, 0.475), (0.71875, 0.475), (0.71875, 0.435), (0.71875, 0.435), (0.71875, 0.435), (0.71875, 0.475), (0.71875, 0.475), (0.71875, 0.435), (0.71875, 0.475), (0.71875, 0.435), (0.71875, 0.475), (0.71875, 0.435), (0.71875, 0.475), (0.71875, 0.435), (0.71875, 0.475), (0.71875, 0.435), (0.71875, 0.475), (0.71875, 0.435), (0.71875, 0.475), (0.71875, 0.455), (0.71875, 0.435), (0.71875, 0.435), (0.71875, 0.435), (0.71875, 0.455), (0.71875, 0.475), (0.71875, 0.475), (0.71875, 0.455), (0.71875, 0.475), (0.71875, 0.475), (0.71875, 0.435), (0.71875, 0.435), (0.71875, 0.435), (0.71875, 0.475), (0.71875, 0.455), (0.71875, 0.455), (0.71875, 0.475), (0.71875, 0.475), (0.71875, 0.455), (0.71875, 0.475), (0.71875, 0.455), (0.71875, 0.475), (0.71875, 0.455), (0.71875, 0.475), (0.71875, 0.455), (0.71875, 0.435), (0.71875, 0.455), (0.71875, 0.435), (0.71875, 0.455), (0.71875, 0.435), (0.71875, 0.435), (0.71875, 0.455), (0.71875, 0.455), (0.71875, 0.455), (0.71875, 0.435), (0.71875, 0.435), (0.71875, 0.475), (0.71875, 0.455), (0.71875, 0.475), (0.71875, 0.455), (0.71875, 0.475), (0.71875, 0.455), (0.71875, 0.275), (0.71875, 0.475), (0.71875, 0.275), (0.71875, 0.475), (0.71875, 0.275), (0.71875, 0.475), (0.71875, 0.475), (0.71875, 0.475), (0.71875, 0.475), (0.71875, 0.475), (0.71875, 0.475), (0.71875, 0.475), (0.71875, 0.475), (0.71875, 0.275), (0.71875, 0.275), (0.71875, 0.275), (0.71875, 0.475), (0.71875, 0.475), (0.71875, 0.475), (0.71875, 0.275), (0.71875, 0.475), (0.71875, 0.275), (0.71875, 0.475), (0.71875, 0.275), (0.71875, 0.275), (0.71875, 0.475), (0.71875, 0.275), (0.71875, 0.475), (0.71875, 0.275), (0.71875, 0.475), (0.71875, 0.275), (0.71875, 0.475), (0.71875, 0.275), (0.71875, 0.475), (0.71875, 0.275), (0.71875, 0.475), (0.71875, 0.475), (0.71875, 0.475), (0.71875, 0.475), (0.71875, 0.475), (0.71875, 0.475), (0.71875, 0.475), (0.71875, 0.475), (0.71875, 0.275), (0.71875, 0.275), (0.71875, 0.275), (0.71875, 0.475), (0.71875, 0.475), (0.71875, 0.475), (0.71875, 0.275), (0.71875, 0.475), (0.71875, 0.275), (0.71875, 0.475), (0.71875, 0.275), (0.71875, 0.275), (0.71875, 0.475), (0.71875, 0.275), (0.71875, 0.475), (0.71875, 0.275), (0.71875, 0.475), (0.46875, 0.225), (0.46875, 0.025), (0.46875, 0.225), (0.46875, 0.025), (0.46875, 0.225), (0.46875, 0.105), (0.46875, 0.025), (0.46875, 0.105), (0.46875, 0.025), (0.46875, 0.025), (0.46875, 0.105), (0.46875, 0.105), (0.46875, 0.025), (0.46875, 0.105), (0.46875, 0.065), (0.46875, 0.065), (0.46875, 0.025), (0.46875, 0.025), (0.46875, 0.025), (0.46875, 0.065), (0.46875, 0.065), (0.46875, 0.225), (0.46875, 0.105), (0.46875, 0.225), (0.46875, 0.025), (0.46875, 0.105), (0.46875, 0.225), (0.46875, 0.105), (0.46875, 0.025), (0.46875, 0.025), (0.46875, 0.105), (0.46875, 0.025), (0.46875, 0.105), (0.46875, 0.105), (0.46875, 0.025), (0.46875, 0.065), (0.46875, 0.105), (0.46875, 0.105), (0.46875, 0.105), (0.46875, 0.105), (0.46875, 0.105), (0.46875, 0.105), (0.46875, 0.225), (0.46875, 0.225), (0.46875, 0.225), (0.46875, 0.225), (0.46875, 0.225), (0.46875, 0.225), (0.46875, 0.225), (0.46875, 0.105), (0.46875, 0.105), (0.46875, 0.105), (0.46875, 0.225), (0.46875, 0.225), (0.46875, 0.105), (0.46875, 0.065), (0.46875, 0.105), (0.46875, 0.065), (0.46875, 0.105), (0.46875, 0.065), (0.46875, 0.225), (0.46875, 0.025), (0.46875, 0.025), (0.46875, 0.025), (0.46875, 0.225), (0.46875, 0.225), (0.46875, 0.225), (0.46875, 0.225), (0.46875, 0.225), (0.46875, 0.225), (0.46875, 0.225), (0.46875, 0.225), (0.46875, 0.225), (0.46875, 0.025), (0.46875, 0.025), (0.46875, 0.025), (0.46875, 0.225), (0.46875, 0.225), (0.46875, 0.225), (0.46875, 0.025), (0.46875, 0.025), (0.46875, 0.025), (0.46875, 0.225), (0.46875, 0.225), (0.46875, 0.225), (0.46875, 0.025), (0.46875, 0.025), (0.46875, 0.025), (0.46875, 0.225), (0.46875, 0.225), (0.46875, 0.025), (0.46875, 0.225), (0.46875, 0.025), (0.46875, 0.225), (0.46875, 0.025), (0.46875, 0.225), (0.46875, 0.225), (0.46875, 0.225), (0.46875, 0.225), (0.46875, 0.225), (0.46875, 0.225), (0.46875, 0.225), (0.46875, 0.225), (0.46875, 0.025), (0.46875, 0.025), (0.46875, 0.025), (0.46875, 0.225), (0.46875, 0.225), (0.46875, 0.225), (0.46875, 0.025), (0.46875, 0.025), (0.46875, 0.025), (0.46875, 0.225), (0.46875, 0.225), (0.46875, 0.225), (0.46875, 0.025), (0.46875, 0.025), (0.46875, 0.025), (0.46875, 0.225), (0.46875, 0.225), (0.46875, 0.025), (0.46875, 0.225), (0.46875, 0.025), (0.46875, 0.225), (0.46875, 0.025), (0.46875, 0.225), (0.09375, 0.225), (0.09375, 0.225), (0.09375, 0.225), (0.09375, 0.225), (0.09375, 0.225), (0.09375, 0.225), (0.09375, 0.0811276), (0.09375, 0.025), (0.09375, 0.025), (0.09375, 0.025), (0.09375, 0.0811276), (0.09375, 0.0811276), (0.09375, 0.025), (0.09375, 0.225), (0.09375, 0.225), (0.09375, 0.225), (0.09375, 0.025), (0.09375, 0.025), (0.09375, 0.225), (0.09375, 0.025), (0.09375, 0.0811276), (0.09375, 0.225), (0.09375, 0.025), (0.09375, 0.025), (0.09375, 0.025), (0.09375, 0.225), (0.09375, 0.225), (0.09375, 0.225), (0.09375, 0.025), (0.09375, 0.225), (0.09375, 0.025), (0.09375, 0.225), (0.09375, 0.025), (0.09375, 0.025), (0.09375, 0.225), (0.09375, 0.0811276), (0.09375, 0.225), (0.09375, 0.0811276), (0.09375, 0.225), (0.09375, 0.0811276), (0.09375, 0.225), (0.09375, 0.0811276), (0.71875, 0.085), (0.71875, 0.025), (0.71875, 0.025), (0.71875, 0.025), (0.71875, 0.085), (0.71875, 0.085), (0.71875, 0.085), (0.71875, 0.025), (0.71875, 0.025), (0.71875, 0.025), (0.71875, 0.085), (0.71875, 0.085), (0.71875, 0.165), (0.71875, 0.085), (0.71875, 0.085), (0.71875, 0.085), (0.71875, 0.165), (0.71875, 0.165), (0.71875, 0.085), (0.71875, 0.025), (0.71875, 0.085), (0.71875, 0.025), (0.71875, 0.085), (0.71875, 0.025), (0.71875, 0.165), (0.71875, 0.085), (0.71875, 0.085), (0.71875, 0.085), (0.71875, 0.165), (0.71875, 0.165), (0.71875, 0.165), (0.71875, 0.085), (0.71875, 0.165), (0.71875, 0.085), (0.71875, 0.165), (0.71875, 0.085), (0.71875, 0.085), (0.71875, 0.025), (0.71875, 0.085), (0.71875, 0.025), (0.71875, 0.085), (0.71875, 0.025), (0.71875, 0.085), (0.71875, 0.025), (0.71875, 0.085), (0.71875, 0.025), (0.71875, 0.085), (0.71875, 0.025), (0.71875, 0.165), (0.71875, 0.085), (0.71875, 0.165), (0.71875, 0.085), (0.71875, 0.165), (0.71875, 0.085), (0.71875, 0.085), (0.71875, 0.165), (0.71875, 0.085), (0.71875, 0.165), (0.71875, 0.085), (0.71875, 0.165), (0.71875, 0.085), (0.71875, 0.025), (0.71875, 0.085), (0.71875, 0.025), (0.71875, 0.085), (0.71875, 0.025), (0.71875, 0.025), (0.71875, 0.085), (0.71875, 0.085), (0.71875, 0.085), (0.71875, 0.025), (0.71875, 0.025), (0.71875, 0.025), (0.71875, 0.025), (0.71875, 0.025), (0.71875, 0.025), (0.71875, 0.025), (0.71875, 0.025), (0.71875, 0.025), (0.71875, 0.025), (0.71875, 0.025), (0.71875, 0.025), (0.71875, 0.025), (0.71875, 0.025), (0.71875, 0.025), (0.71875, 0.025), (0.71875, 0.025), (0.71875, 0.165), (0.71875, 0.085), (0.71875, 0.085), (0.71875, 0.085), (0.71875, 0.165), (0.71875, 0.165), (0.71875, 0.125), (0.71875, 0.125), (0.71875, 0.125), (0.71875, 0.125), (0.71875, 0.125), (0.71875, 0.125), (0.71875, 0.185), (0.71875, 0.125), (0.71875, 0.185), (0.71875, 0.125), (0.71875, 0.185), (0.71875, 0.125), (0.71875, 0.185), (0.71875, 0.125), (0.71875, 0.125), (0.71875, 0.125), (0.71875, 0.185), (0.71875, 0.185), (0.71875, 0.125), (0.71875, 0.185), (0.71875, 0.125), (0.71875, 0.185), (0.71875, 0.125), (0.71875, 0.185), (0.71875, 0.185), (0.71875, 0.125), (0.71875, 0.125), (0.71875, 0.125), (0.71875, 0.185), (0.71875, 0.185), (0.71875, 0.025), (0.71875, 0.025), (0.71875, 0.025), (0.71875, 0.025), (0.71875, 0.025), (0.71875, 0.025), (0.71875, 0.2), (0.71875, 0.175), (0.71875, 0.175), (0.71875, 0.2125), (0.71875, 0.175), (0.71875, 0.2), (0.71875, 0.2125), (0.71875, 0.2), (0.71875, 0.225), (0.71875, 0.2125), (0.71875, 0.225), (0.71875, 0.225), (0.71875, 0.175), (0.71875, 0.175), (0.71875, 0.2125), (0.71875, 0.05175), (0.71875, 0.175), (0.71875, 0.175), (0.71875, 0.05175), (0.71875, 0.025), (0.71875, 0.175), (0.71875, 0.025), (0.71875, 0.05175), (0.71875, 0.025), (0.71875, 0.2), (0.71875, 0.175), (0.71875, 0.2), (0.71875, 0.175), (0.71875, 0.2), (0.71875, 0.175), (0.71875, 0.05175), (0.71875, 0.025), (0.71875, 0.025), (0.71875, 0.025), (0.71875, 0.05175), (0.71875, 0.175), (0.71875, 0.175), (0.71875, 0.05175), (0.71875, 0.175), (0.71875, 0.175), (0.71875, 0.175), (0.71875, 0.2125), (0.71875, 0.175), (0.71875, 0.2125), (0.71875, 0.175), (0.71875, 0.175), (0.71875, 0.2125), (0.71875, 0.2), (0.71875, 0.2), (0.71875, 0.2125), (0.71875, 0.225), (0.71875, 0.225), (0.71875, 0.2125), (0.71875, 0.225), (0.71875, 0.225), (0.71875, 0.2), (0.71875, 0.2), (0.71875, 0.2), (0.71875, 0.225), (0.71875, 0.225), (0.71875, 0.225), (0.71875, 0.225), (0.71875, 0.225), (0.71875, 0.225), (0.71875, 0.225), (0.71875, 0.225), (0.71875, 0.2125), (0.71875, 0.225), (0.71875, 0.225), (0.71875, 0.225), (0.71875, 0.2125), (0.71875, 0.2125), (0.71875, 0.175), (0.71875, 0.2125), (0.71875, 0.175), (0.71875, 0.2125), (0.71875, 0.175), (0.71875, 0.2125), (0.71875, 0.05175), (0.71875, 0.175), (0.71875, 0.05175), (0.71875, 0.175), (0.71875, 0.05175), (0.71875, 0.175), (0.71875, 0.025), (0.71875, 0.05175), (0.71875, 0.025), (0.71875, 0.05175), (0.71875, 0.025), (0.71875, 0.05175), (0.71875, 0.025), (0.71875, 0.025), (0.71875, 0.025), (0.71875, 0.025), (0.71875, 0.025), (0.71875, 0.025), (0.71875, 0.2), (0.71875, 0.175), (0.71875, 0.175), (0.71875, 0.2125), (0.71875, 0.175), (0.71875, 0.2), (0.71875, 0.2125), (0.71875, 0.2), (0.71875, 0.225), (0.71875, 0.2125), (0.71875, 0.225), (0.71875, 0.225), (0.71875, 0.175), (0.71875, 0.175), (0.71875, 0.2125), (0.71875, 0.05175), (0.71875, 0.175), (0.71875, 0.175), (0.71875, 0.05175), (0.71875, 0.025), (0.71875, 0.175), (0.71875, 0.025), (0.71875, 0.05175), (0.71875, 0.025), (0.71875, 0.2), (0.71875, 0.175), (0.71875, 0.2), (0.71875, 0.175), (0.71875, 0.2), (0.71875, 0.175), (0.71875, 0.05175), (0.71875, 0.025), (0.71875, 0.025), (0.71875, 0.025), (0.71875, 0.05175), (0.71875, 0.175), (0.71875, 0.175), (0.71875, 0.05175), (0.71875, 0.175), (0.71875, 0.175), (0.71875, 0.175), (0.71875, 0.2125), (0.71875, 0.175), (0.71875, 0.2125), (0.71875, 0.175), (0.71875, 0.175), (0.71875, 0.2125), (0.71875, 0.2), (0.71875, 0.2), (0.71875, 0.2125), (0.71875, 0.225), (0.71875, 0.225), (0.71875, 0.2125), (0.71875, 0.225), (0.71875, 0.225), (0.71875, 0.2), (0.71875, 0.2), (0.71875, 0.2), (0.71875, 0.225), (0.71875, 0.225), (0.71875, 0.225), (0.71875, 0.225), (0.71875, 0.225), (0.71875, 0.225), (0.71875, 0.225), (0.71875, 0.225), (0.71875, 0.2125), (0.71875, 0.225), (0.71875, 0.225), (0.71875, 0.225), (0.71875, 0.2125), (0.71875, 0.2125), (0.71875, 0.175), (0.71875, 0.2125), (0.71875, 0.175), (0.71875, 0.2125), (0.71875, 0.175), (0.71875, 0.2125), (0.71875, 0.05175), (0.71875, 0.175), (0.71875, 0.05175), (0.71875, 0.175), (0.71875, 0.05175), (0.71875, 0.175), (0.71875, 0.025), (0.71875, 0.05175), (0.71875, 0.025), (0.71875, 0.05175), (0.71875, 0.025), (0.71875, 0.05175), (0.71875, 0.085), (0.71875, 0.085), (0.71875, 0.085), (0.71875, 0.085), (0.71875, 0.085), (0.71875, 0.085), (0.71875, 0.085), (0.71875, 0.085), (0.71875, 0.085), (0.71875, 0.085), (0.71875, 0.085), (0.71875, 0.085), (0.71875, 0.085), (0.71875, 0.085), (0.71875, 0.085), (0.71875, 0.415), (0.71875, 0.335), (0.71875, 0.335), (0.71875, 0.335), (0.71875, 0.415), (0.71875, 0.415), (0.71875, 0.415), (0.71875, 0.415), (0.71875, 0.435), (0.71875, 0.435), (0.71875, 0.415), (0.71875, 0.475), (0.71875, 0.435), (0.71875, 0.475), (0.71875, 0.455), (0.71875, 0.455), (0.71875, 0.475), (0.71875, 0.475), (0.71875, 0.435), (0.71875, 0.415), (0.71875, 0.435), (0.71875, 0.415), (0.71875, 0.435), (0.71875, 0.475), (0.71875, 0.475), (0.71875, 0.435), (0.71875, 0.455), (0.71875, 0.475), (0.71875, 0.455), (0.71875, 0.475), (0.71875, 0.475), (0.71875, 0.475), (0.71875, 0.475), (0.71875, 0.475), (0.71875, 0.475), (0.71875, 0.475), (0.71875, 0.475), (0.71875, 0.475), (0.71875, 0.475), (0.71875, 0.475), (0.71875, 0.475), (0.71875, 0.475), (0.71875, 0.475), (0.71875, 0.475), (0.71875, 0.475), (0.71875, 0.475), (0.71875, 0.475), (0.71875, 0.475), (0.71875, 0.475), (0.71875, 0.475), (0.71875, 0.475), (0.71875, 0.475), (0.71875, 0.475), (0.71875, 0.475), (0.71875, 0.475), (0.71875, 0.475), (0.71875, 0.475), (0.71875, 0.475), (0.71875, 0.475), (0.71875, 0.475), (0.71875, 0.475), (0.71875, 0.475), (0.71875, 0.475), (0.71875, 0.475), (0.71875, 0.475), (0.71875, 0.475), (0.71875, 0.475), (0.71875, 0.475), (0.71875, 0.475), (0.71875, 0.475), (0.71875, 0.475), (0.71875, 0.475), (0.71875, 0.475), (0.71875, 0.475), (0.71875, 0.475), (0.71875, 0.475), (0.71875, 0.475), (0.71875, 0.475), (0.71875, 0.415), (0.71875, 0.475), (0.71875, 0.415), (0.71875, 0.475), (0.71875, 0.415), (0.71875, 0.475), (0.71875, 0.475), (0.71875, 0.415), (0.71875, 0.415), (0.71875, 0.415), (0.71875, 0.475), (0.71875, 0.475), (0.71875, 0.475), (0.71875, 0.415), (0.71875, 0.415), (0.71875, 0.415), (0.71875, 0.475), (0.71875, 0.475), (0.71875, 0.475), (0.71875, 0.415), (0.71875, 0.415), (0.71875, 0.415), (0.71875, 0.475), (0.71875, 0.475), (0.71875, 0.475), (0.71875, 0.415), (0.71875, 0.415), (0.71875, 0.415), (0.71875, 0.475), (0.71875, 0.475), (0.71875, 0.475), (0.71875, 0.415), (0.71875, 0.475), (0.71875, 0.415), (0.71875, 0.475), (0.71875, 0.415), (0.71875, 0.435), (0.71875, 0.435), (0.71875, 0.435), (0.71875, 0.435), (0.71875, 0.435), (0.71875, 0.435), (0.71875, 0.435), (0.71875, 0.435), (0.71875, 0.435), (0.71875, 0.435), (0.71875, 0.435), (0.71875, 0.435), (0.71875, 0.435), (0.71875, 0.435), (0.71875, 0.435), (0.71875, 0.435), (0.71875, 0.435), (0.71875, 0.435), (0.71875, 0.435), (0.71875, 0.435), (0.71875, 0.435), (0.71875, 0.435), (0.71875, 0.435), (0.71875, 0.435), (0.71875, 0.435), (0.71875, 0.435), (0.71875, 0.435), (0.71875, 0.435), (0.71875, 0.435), (0.71875, 0.435), (0.71875, 0.435), (0.71875, 0.435), (0.71875, 0.435), (0.71875, 0.435), (0.71875, 0.435), (0.71875, 0.435), (0.71875, 0.435), (0.71875, 0.435), (0.71875, 0.435), (0.71875, 0.435), (0.71875, 0.435), (0.71875, 0.435), (0.71875, 0.435), (0.71875, 0.435), (0.71875, 0.435), (0.71875, 0.475), (0.71875, 0.435), (0.71875, 0.475), (0.71875, 0.435), (0.71875, 0.475), (0.71875, 0.435), (0.71875, 0.475), (0.71875, 0.435), (0.71875, 0.435), (0.71875, 0.435), (0.71875, 0.475), (0.71875, 0.475), (0.71875, 0.475), (0.71875, 0.435), (0.71875, 0.435), (0.71875, 0.435), (0.71875, 0.475), (0.71875, 0.475), (0.71875, 0.475), (0.71875, 0.435), (0.71875, 0.435), (0.71875, 0.435), (0.71875, 0.475), (0.71875, 0.475), (0.71875, 0.435), (0.71875, 0.475), (0.71875, 0.435), (0.71875, 0.475), (0.71875, 0.435), (0.71875, 0.475), (0.71875, 0.435), (0.71875, 0.475), (0.71875, 0.435), (0.71875, 0.475), (0.71875, 0.435), (0.71875, 0.475), (0.71875, 0.455), (0.71875, 0.435), (0.71875, 0.435), (0.71875, 0.435), (0.71875, 0.455), (0.71875, 0.475), (0.71875, 0.475), (0.71875, 0.455), (0.71875, 0.475), (0.71875, 0.475), (0.71875, 0.435), (0.71875, 0.435), (0.71875, 0.435), (0.71875, 0.475), (0.71875, 0.455), (0.71875, 0.455), (0.71875, 0.475), (0.71875, 0.475), (0.71875, 0.455), (0.71875, 0.475), (0.71875, 0.455), (0.71875, 0.475), (0.71875, 0.455), (0.71875, 0.475), (0.71875, 0.455), (0.71875, 0.435), (0.71875, 0.455), (0.71875, 0.435), (0.71875, 0.455), (0.71875, 0.435), (0.71875, 0.435), (0.71875, 0.455), (0.71875, 0.455), (0.71875, 0.455), (0.71875, 0.435), (0.71875, 0.435), (0.71875, 0.475), (0.71875, 0.455), (0.71875, 0.475), (0.71875, 0.455), (0.71875, 0.475), (0.71875, 0.455), (0.71875, 0.275), (0.71875, 0.475), (0.71875, 0.275), (0.71875, 0.475), (0.71875, 0.275), (0.71875, 0.475), (0.71875, 0.475), (0.71875, 0.475), (0.71875, 0.475), (0.71875, 0.475), (0.71875, 0.475), (0.71875, 0.475), (0.71875, 0.475), (0.71875, 0.275), (0.71875, 0.275), (0.71875, 0.275), (0.71875, 0.475), (0.71875, 0.475), (0.71875, 0.475), (0.71875, 0.275), (0.71875, 0.475), (0.71875, 0.275), (0.71875, 0.475), (0.71875, 0.275), (0.71875, 0.275), (0.71875, 0.475), (0.71875, 0.275), (0.71875, 0.475), (0.71875, 0.275), (0.71875, 0.475), (0.71875, 0.275), (0.71875, 0.475), (0.71875, 0.275), (0.71875, 0.475), (0.71875, 0.275), (0.71875, 0.475), (0.71875, 0.475), (0.71875, 0.475), (0.71875, 0.475), (0.71875, 0.475), (0.71875, 0.475), (0.71875, 0.475), (0.71875, 0.475), (0.71875, 0.275), (0.71875, 0.275), (0.71875, 0.275), (0.71875, 0.475), (0.71875, 0.475), (0.71875, 0.475), (0.71875, 0.275), (0.71875, 0.475), (0.71875, 0.275), (0.71875, 0.475), (0.71875, 0.275), (0.71875, 0.275), (0.71875, 0.475), (0.71875, 0.275), (0.71875, 0.475), (0.71875, 0.275), (0.71875, 0.475), (0.46875, 0.225), (0.46875, 0.025), (0.46875, 0.225), (0.46875, 0.025), (0.46875, 0.225), (0.46875, 0.105), (0.46875, 0.025), (0.46875, 0.105), (0.46875, 0.025), (0.46875, 0.025), (0.46875, 0.105), (0.46875, 0.105), (0.46875, 0.025), (0.46875, 0.105), (0.46875, 0.065), (0.46875, 0.065), (0.46875, 0.025), (0.46875, 0.025), (0.46875, 0.025), (0.46875, 0.065), (0.46875, 0.065), (0.46875, 0.225), (0.46875, 0.105), (0.46875, 0.225), (0.46875, 0.025), (0.46875, 0.105), (0.46875, 0.225), (0.46875, 0.105), (0.46875, 0.025), (0.46875, 0.025), (0.46875, 0.105), (0.46875, 0.025), (0.46875, 0.105), (0.46875, 0.105), (0.46875, 0.025), (0.46875, 0.065), (0.46875, 0.105), (0.46875, 0.105), (0.46875, 0.105), (0.46875, 0.105), (0.46875, 0.105), (0.46875, 0.105), (0.46875, 0.225), (0.46875, 0.225), (0.46875, 0.225), (0.46875, 0.225), (0.46875, 0.225), (0.46875, 0.225), (0.46875, 0.225), (0.46875, 0.105), (0.46875, 0.105), (0.46875, 0.105), (0.46875, 0.225), (0.46875, 0.225), (0.46875, 0.105), (0.46875, 0.065), (0.46875, 0.105), (0.46875, 0.065), (0.46875, 0.105), (0.46875, 0.065), (0.46875, 0.225), (0.46875, 0.025), (0.46875, 0.025), (0.46875, 0.025), (0.46875, 0.225), (0.46875, 0.225), (0.46875, 0.225), (0.46875, 0.225), (0.46875, 0.225), (0.46875, 0.225), (0.46875, 0.225), (0.46875, 0.225), (0.46875, 0.225), (0.46875, 0.025), (0.46875, 0.025), (0.46875, 0.025), (0.46875, 0.225), (0.46875, 0.225), (0.46875, 0.225), (0.46875, 0.025), (0.46875, 0.025), (0.46875, 0.025), (0.46875, 0.225), (0.46875, 0.225), (0.46875, 0.225), (0.46875, 0.025), (0.46875, 0.025), (0.46875, 0.025), (0.46875, 0.225), (0.46875, 0.225), (0.46875, 0.025), (0.46875, 0.225), (0.46875, 0.025), (0.46875, 0.225), (0.46875, 0.025), (0.46875, 0.225), (0.46875, 0.225), (0.46875, 0.225), (0.46875, 0.225), (0.46875, 0.225), (0.46875, 0.225), (0.46875, 0.225), (0.46875, 0.225), (0.46875, 0.025), (0.46875, 0.025), (0.46875, 0.025), (0.46875, 0.225), (0.46875, 0.225), (0.46875, 0.225), (0.46875, 0.025), (0.46875, 0.025), (0.46875, 0.025), (0.46875, 0.225), (0.46875, 0.225), (0.46875, 0.225), (0.46875, 0.025), (0.46875, 0.025), (0.46875, 0.025), (0.46875, 0.225), (0.46875, 0.225), (0.46875, 0.025), (0.46875, 0.225), (0.46875, 0.025), (0.46875, 0.225), (0.46875, 0.025), (0.46875, 0.225), (0.09375, 0.225), (0.09375, 0.225), (0.09375, 0.225), (0.09375, 0.225), (0.09375, 0.225), (0.09375, 0.225), (0.09375, 0.0811276), (0.09375, 0.025), (0.09375, 0.025), (0.09375, 0.025), (0.09375, 0.0811276), (0.09375, 0.0811276), (0.09375, 0.025), (0.09375, 0.225), (0.09375, 0.225), (0.09375, 0.225), (0.09375, 0.025), (0.09375, 0.025), (0.09375, 0.225), (0.09375, 0.025), (0.09375, 0.0811276), (0.09375, 0.225), (0.09375, 0.025), (0.09375, 0.025), (0.09375, 0.025), (0.09375, 0.225), (0.09375, 0.225), (0.09375, 0.225), (0.09375, 0.025), (0.09375, 0.225), (0.09375, 0.025), (0.09375, 0.225), (0.09375, 0.025), (0.09375, 0.025), (0.09375, 0.225), (0.09375, 0.0811276), (0.09375, 0.225), (0.09375, 0.0811276), (0.09375, 0.225), (0.09375, 0.0811276), (0.09375, 0.225), (0.09375, 0.0811276)] (interpolation = "faceVarying")
        uniform token subdivisionScheme = "none"
        rel material:binding = </Vehicle/Materials/colormap>
    }
    def Scope "Materials" {
        def Material "colormap" {
            token outputs:surface.connect = </Vehicle/Materials/colormap/surface.outputs:surface>
            def Shader "surface" {
                uniform token info:id = "UsdPreviewSurface"
                float inputs:roughness = 0.7
                float inputs:metallic = 0
                color3f inputs:diffuseColor.connect = </Vehicle/Materials/colormap/texture.outputs:rgb>
                token outputs:surface
            }
            def Shader "stReader" {
                uniform token info:id = "UsdPrimvarReader_float2"
                token inputs:varname = "st"
                float2 outputs:result
            }
            def Shader "texture" {
                uniform token info:id = "UsdUVTexture"
                asset inputs:file = @kenney-water-colormap.png@
                float2 inputs:st.connect = </Vehicle/Materials/colormap/stReader.outputs:result>
                token inputs:wrapS = "repeat"
                token inputs:wrapT = "repeat"
                float3 outputs:rgb
            }
        }
    }
}
