#usda 1.0
(
    defaultPrim = "Vehicle"
    metersPerUnit = 1
    upAxis = "Y"
)
def Xform "Vehicle" {
    def Mesh "mesh_metal" {
        int[] faceVertexCounts = [3, 3, 3, 3, 3, 3, 3, 3, 3, 3, 3, 3, 3, 3, 3, 3, 3, 3, 3, 3, 3, 3, 3, 3, 3, 3, 3, 3, 3, 3, 3, 3, 3, 3, 3, 3, 3, 3, 3, 3, 3, 3, 3, 3, 3, 3, 3, 3, 3, 3]
        int[] faceVertexIndices = [2, 1, 0, 1, 2, 3, 1, 3, 4, 4, 3, 5, 6, 0, 1, 0, 6, 7, 7, 6, 5, 7, 5, 3, 10, 9, 8, 9, 10, 11, 11, 10, 12, 12, 10, 13, 14, 9, 11, 17, 16, 15, 16, 17, 18, 16, 18, 19, 19, 18, 20, 21, 15, 16, 15, 21, 22, 22, 21, 20, 22, 20, 18, 11, 24, 23, 24, 11, 12, 9, 25, 8, 25, 9, 26, 26, 9, 27, 14, 27, 9, 27, 14, 28, 29, 11, 23, 11, 29, 14, 14, 29, 28, 27, 29, 26, 29, 27, 28, 32, 31, 30, 31, 32, 33, 33, 32, 34, 37, 36, 35, 36, 37, 38, 39, 36, 38, 36, 39, 40, 40, 39, 41, 41, 32, 40, 32, 41, 34, 31, 43, 42, 43, 31, 37, 37, 31, 38, 38, 31, 39, 39, 31, 33, 33, 41, 39, 41, 33, 34]
        point3f[] points = [(0.45, 0.1, -0.912835), (0.25, 0.15, -0.912835), (0.2, 0.1, -0.912835), (0.2, 0.4, -0.912835), (0.25, 0.35, -0.912835), (0.4, 0.35, -0.912835), (0.4, 0.15, -0.912835), (0.45, 0.4, -0.912835), (0.45, 0.5, -0.512835), (0.45, 0.5, -0.0128353), (0.2, 0.5, -0.512835), (0.35, 0.5, -0.112835), (0.2, 0.5, -0.112835), (0.2, 0.5, -0.312835), (0.35, 0.5, -0.0128353), (-0.2, 0.1, -0.912835), (-0.4, 0.15, -0.912835), (-0.45, 0.1, -0.912835), (-0.45, 0.4, -0.912835), (-0.4, 0.35, -0.912835), (-0.25, 0.35, -0.912835), (-0.25, 0.15, -0.912835), (-0.2, 0.4, -0.912835), (0.35, 0.4, -0.112835), (0.2, 0.4, -0.112835), (0.45, 0.4, -0.512835), (0.45, 0.4, 0.0871648), (0.45, 0.45, 0.0871648), (0.35, 0.45, 0.0871648), (0.35, 0.4, 0.0871648), (-0.45, 0.4, -0.512835), (-0.45, 0.5, -0.512835), (-0.45, 0.4, 0.0871648), (-0.45, 0.5, -0.0128353), (-0.45, 0.45, 0.0871648), (-0.2, 0.4, -0.112835), (-0.35, 0.4, -0.112835), (-0.2, 0.5, -0.112835), (-0.35, 0.5, -0.112835), (-0.35, 0.5, -0.0128353), (-0.35, 0.4, 0.0871648), (-0.35, 0.45, 0.0871648), (-0.2, 0.5, -0.512835), (-0.2, 0.5, -0.312835), (0.45, 0.4, -0.812835), (0.2, 0.4, -0.812835), (0.45, 0.1, -0.512835), (0.2, 0.1, -0.512835), (0.45, 0.2, -0.512835), (0.6, 0.2, -0.512835), (0.6, 0, -0.512835), (0.6, 0.2, -0.212835), (0.6, 0, -0.212835), (0.2, 0, -0.512835), (0.2, 0.7, -0.312835), (0.2, 0.7, 0.0871648), (-0.2, 0.7, -0.312835), (-0.2, 0.7, 0.0871648), (0.2, 0.478473, 0.0871648), (0.2, 0.4, 0.212349), (-0.2, 0, -0.312835), (0.2, 0, -0.312835), (-0.2, 0.1, -0.312835), (0.2, 0.1, -0.312835), (-0.2, 0.4, -0.812835), (-0.45, 0.4, -0.812835), (-0.2, 0.1, -0.512835), (-0.45, 0.1, -0.512835), (-0.45, 0.2, -0.512835), (-0.6, 0, -0.512835), (-0.6, 0.2, -0.512835), (-0.6, 0, -0.212835), (-0.6, 0.2, -0.212835), (-0.2, 0, -0.512835), (0.05, 0, 0.587165), (0.05, 0, 0.487165), (-0.05, 0, 0.587165), (-0.05, 0, 0.487165), (0.2, 0, 0.487165), (-0.2, 0, 0.487165), (-0.2, 0.1, 0.487165), (-0.2, 0.227729, 0.487165), (-0.2, 0.12581, 0.649752), (0.2, 0.227729, 0.487165), (0.2, 0.1, 0.487165), (0.2, 0.12581, 0.649752), (-0.2, 0.4, 0.212349), (-0.2, 0.478473, 0.0871648), (-0.05, 0.1, 0.487165), (0.05, 0.1, 0.487165), (0.05, 0.131749, 0.687165), (0.05, 0.05, 0.687165), (-0.05, 0.131749, 0.687165), (-0.05, 0.05, 0.687165), (0.4, 0.35, -0.812835), (0.25, 0.35, -0.812835), (0.4, 0.15, -0.812835), (0.25, 0.15, -0.812835), (0.270711, 0.1, 0.157875), (0.529289, 0.1, 0.157875), (0.270711, 0.1, 0.416454), (0.270711, 0.3, 0.416454), (0.529289, 0.3, 0.157875), (0.270711, 0.3, 0.157875), (-0.25, 0.15, -0.812835), (-0.4, 0.15, -0.812835), (-0.4, 0.35, -0.812835), (-0.25, 0.35, -0.812835), (-0.270711, 0.1, 0.157875), (-0.270711, 0.3, 0.157875), (-0.270711, 0.1, 0.416454), (-0.270711, 0.3, 0.416454), (-0.529289, 0.1, 0.157875), (-0.529289, 0.3, 0.157875), (0.2, 0.266896, 1.01283), (-0.2, 0.266896, 1.01283), (0.1, 0.45, 0.937165), (-0.0999999, 0.45, 0.937165), (0.2, 0.69005, 0.286668), (-0.2, 0.69005, 0.286668), (-0.2, 0.1, -1.01283), (0.2, 0.1, -1.01283), (-0.2, 0.5, -1.01283), (-0.0999999, 0.5, -1.01283), (0.1, 0.5, -1.01283), (-0.0999999, 0.75, -1.01283), (0.1, 0.75, -1.01283), (0.2, 0.5, -1.01283), (0.6, 0.4, -0.512835), (0.6, 0, 0.0871648), (0.6, 0.4, 0.0871648), (0.2, 0.4, 0.487165), (-0.0999999, 0.614286, -0.612835), (0.1, 0.614286, -0.612835), (0.1, 0.75, -0.912835), (-0.0999999, 0.75, -0.912835), (-0.6, 0.4, -0.512835), (-0.6, 0, 0.0871648), (-0.6, 0.4, 0.0871648), (-0.2, 0.4, 0.487165), (0.2, 0.183448, 1.01283), (-0.2, 0.183448, 1.01283)]
        normal3f[] normals = [(0, 0, -1), (0, 0, -1), (0, 0, -1), (0, 0, -1), (0, 0, -1), (0, 0, -1), (0, 0, -1), (0, 0, -1), (0, 0, -1), (0, 0, -1), (0, 0, -1), (0, 0, -1), (0, 0, -1), (0, 0, -1), (0, 0, -1), (0, 0, -1), (0, 0, -1), (0, 0, -1), (0, 0, -1), (0, 0, -1), (0, 0, -1), (0, 0, -1), (0, 0, -1), (0, 0, -1), (0, 1, 0), (0, 1, 0), (0, 1, 0), (0, 1, 0), (0, 1, 0), (0, 1, 0), (0, 1, 0), (0, 1, 0), (0, 1, 0), (0, 1, 0), (0, 1, 0), (0, 1, 0), (0, 1, 0), (0, 1, 0), (0, 1, 0), (0, 0, -1), (0, 0, -1), (0, 0, -1), (0, 0, -1), (0, 0, -1), (0, 0, -1), (0, 0, -1), (0, 0, -1), (0, 0, -1), (0, 0, -1), (0, 0, -1), (0, 0, -1), (0, 0, -1), (0, 0, -1), (0, 0, -1), (0, 0, -1), (0, 0, -1), (0, 0, -1), (0, 0, -1), (0, 0, -1), (0, 0, -1), (0, 0, -1), (0, 0, -1), (0, 0, -1), (0, 0, 1), (0, 0, 1), (0, 0, 1), (0, 0, 1), (0, 0, 1), (0, 0, 1), (1, 0, 0), (1, 0, 0), (1, 0, 0), (1, 0, 0), (1, 0, 0), (1, 0, 0), (1, 0, 0), (1, 0, 0), (1, 0, 0), (0, 0.894427, 0.447214), (0, 0.894427, 0.447214), (0, 0.894427, 0.447214), (0, 0.894427, 0.447214), (0, 0.894427, 0.447214), (0, 0.894427, 0.447214), (-1, 0, 0), (-1, 0, 0), (-1, 0, 0), (-1, 0, 0), (-1, 0, 0), (-1, 0, 0), (-1, 0, 0), (-1, 0, 0), (-1, 0, 0), (0, 0, 1), (0, 0, 1), (0, 0, 1), (0, 0, 1), (0, 0, 1), (0, 0, 1), (-1, 0, 0), (-1, 0, 0), (-1, 0, 0), (-1, 0, 0), (-1, 0, 0), (-1, 0, 0), (-1, 0, 0), (-1, 0, 0), (-1, 0, 0), (0, 0, 1), (0, 0, 1), (0, 0, 1), (0, 0, 1), (0, 0, 1), (0, 0, 1), (1, 0, 0), (1, 0, 0), (1, 0, 0), (1, 0, 0), (1, 0, 0), (1, 0, 0), (1, 0, 0), (1, 0, 0), (1, 0, 0), (0, 0, 1), (0, 0, 1), (0, 0, 1), (0, 0, 1), (0, 0, 1), (0, 0, 1), (0, 1, 0), (0, 1, 0), (0, 1, 0), (0, 1, 0), (0, 1, 0), (0, 1, 0), (0, 1, 0), (0, 1, 0), (0, 1, 0), (0, 1, 0), (0, 1, 0), (0, 1, 0), (0, 1, 0), (0, 1, 0), (0, 1, 0), (0, 0.894427, 0.447214), (0, 0.894427, 0.447214), (0, 0.894427, 0.447214), (0, 0.894427, 0.447214), (0, 0.894427, 0.447214), (0, 0.894427, 0.447214)] (interpolation = "faceVarying")
        texCoord2f[] primvars:st = [(-7.87402, 3.93701), (-9.84252, 5.90551), (-17.7165, 3.93701), (-9.84252, 5.90551), (-7.87402, 3.93701), (-7.87402, 15.748), (-9.84252, 5.90551), (-7.87402, 15.748), (-9.84252, 13.7795), (-9.84252, 13.7795), (-7.87402, 15.748), (-15.748, 13.7795), (-15.748, 5.90551), (-17.7165, 3.93701), (-9.84252, 5.90551), (-17.7165, 3.93701), (-15.748, 5.90551), (-17.7165, 15.748), (-17.7165, 15.748), (-15.748, 5.90551), (-15.748, 13.7795), (-17.7165, 15.748), (-15.748, 13.7795), (-7.87402, 15.748), (-7.87402, -20.1904), (-17.7165, -0.505327), (-17.7165, -20.1904), (-17.7165, -0.505327), (-7.87402, -20.1904), (-13.7795, -4.44233), (-13.7795, -4.44233), (-7.87402, -20.1904), (-7.87402, -4.44233), (-7.87402, -4.44233), (-7.87402, -20.1904), (-7.87402, -12.3163), (-13.7795, -0.505327), (-17.7165, -0.505327), (-13.7795, -4.44233), (17.7165, 3.93701), (15.748, 5.90551), (7.87402, 3.93701), (15.748, 5.90551), (17.7165, 3.93701), (17.7165, 15.748), (15.748, 5.90551), (17.7165, 15.748), (15.748, 13.7795), (15.748, 13.7795), (17.7165, 15.748), (9.84252, 13.7795), (9.84252, 5.90551), (7.87402, 3.93701), (15.748, 5.90551), (7.87402, 3.93701), (9.84252, 5.90551), (7.87402, 15.748), (7.87402, 15.748), (9.84252, 5.90551), (9.84252, 13.7795), (7.87402, 15.748), (9.84252, 13.7795), (17.7165, 15.748), (13.7795, 19.685), (7.87402, 15.748), (13.7795, 15.748), (7.87402, 15.748), (13.7795, 19.685), (7.87402, 19.685), (0.505327, 19.685), (20.1904, 15.748), (20.1904, 19.685), (20.1904, 15.748), (0.505327, 19.685), (-3.43168, 15.748), (-3.43168, 15.748), (0.505327, 19.685), (-3.43168, 17.7165), (13.7795, 9.2554), (17.7165, 4.85369), (17.7165, 9.2554), (17.7165, 4.85369), (13.7795, 9.2554), (13.7795, 4.85369), (3.43168, 15.748), (-4.44233, 19.685), (-4.44233, 15.748), (-4.44233, 19.685), (3.43168, 15.748), (-0.505327, 19.685), (-0.505327, 19.685), (3.43168, 15.748), (3.43168, 17.7165), (17.7165, 17.7165), (13.7795, 15.748), (17.7165, 15.748), (13.7795, 15.748), (17.7165, 17.7165), (13.7795, 17.7165), (3.43168, 15.748), (-20.1904, 19.685), (-20.1904, 15.748), (-20.1904, 19.685), (3.43168, 15.748), (-0.505327, 19.685), (-0.505327, 19.685), (3.43168, 15.748), (3.43168, 17.7165), (-7.87402, 19.685), (-13.7795, 15.748), (-7.87402, 15.748), (-13.7795, 15.748), (-7.87402, 19.685), (-13.7795, 19.685), (0.505327, 19.685), (4.44233, 15.748), (4.44233, 19.685), (4.44233, 15.748), (0.505327, 19.685), (-3.43168, 15.748), (-3.43168, 15.748), (0.505327, 19.685), (-3.43168, 17.7165), (-13.7795, 17.7165), (-17.7165, 15.748), (-13.7795, 15.748), (-17.7165, 15.748), (-13.7795, 17.7165), (-17.7165, 17.7165), (17.7165, -20.1904), (7.87402, -12.3163), (7.87402, -20.1904), (7.87402, -12.3163), (17.7165, -20.1904), (7.87402, -4.44233), (7.87402, -4.44233), (17.7165, -20.1904), (13.7795, -4.44233), (13.7795, -4.44233), (17.7165, -20.1904), (13.7795, -0.505327), (13.7795, -0.505327), (17.7165, -20.1904), (17.7165, -0.505327), (-17.7165, 9.2554), (-13.7795, 4.85369), (-13.7795, 9.2554), (-13.7795, 4.85369), (-17.7165, 9.2554), (-17.7165, 4.85369)] (interpolation = "faceVarying")
        uniform token subdivisionScheme = "none"
        rel material:binding = </Vehicle/Materials/metal>
    }
    def Mesh "mesh_metalDark" {
        int[] faceVertexCounts = [3, 3, 3, 3, 3, 3, 3, 3, 3, 3, 3, 3, 3, 3, 3, 3, 3, 3, 3, 3, 3, 3, 3, 3, 3, 3, 3, 3, 3, 3, 3, 3, 3, 3, 3, 3, 3, 3, 3, 3, 3, 3, 3, 3, 3, 3, 3, 3, 3, 3, 3, 3, 3, 3, 3, 3, 3, 3, 3, 3, 3, 3, 3, 3, 3, 3, 3, 3, 3, 3]
        int[] faceVertexIndices = [45, 8, 44, 8, 45, 10, 47, 0, 46, 0, 47, 2, 44, 0, 7, 0, 44, 46, 46, 44, 8, 46, 8, 25, 46, 25, 48, 3, 44, 7, 44, 3, 45, 51, 50, 49, 50, 51, 52, 47, 50, 53, 50, 47, 46, 50, 46, 49, 49, 46, 48, 56, 55, 54, 55, 56, 57, 55, 13, 54, 13, 55, 12, 12, 55, 24, 24, 55, 58, 24, 58, 59, 62, 61, 60, 61, 62, 63, 18, 64, 22, 64, 18, 65, 67, 15, 66, 15, 67, 17, 65, 42, 64, 42, 65, 31, 67, 18, 17, 18, 67, 65, 65, 67, 31, 31, 67, 68, 31, 68, 30, 71, 70, 69, 70, 71, 72, 69, 67, 73, 67, 69, 70, 67, 70, 68, 66, 73, 67, 76, 75, 74, 77, 75, 76, 60, 75, 77, 61, 75, 60, 75, 61, 78, 60, 77, 79, 82, 81, 80, 85, 84, 83, 86, 37, 35, 37, 86, 87, 57, 37, 87, 56, 37, 57, 37, 56, 43, 88, 79, 77, 79, 88, 80, 84, 75, 78, 75, 84, 89, 90, 75, 89, 75, 90, 74, 74, 90, 91, 76, 88, 77, 88, 76, 92, 92, 76, 93, 93, 74, 91, 74, 93, 76, 90, 93, 91, 93, 90, 92]
        point3f[] points = [(0.45, 0.1, -0.912835), (0.25, 0.15, -0.912835), (0.2, 0.1, -0.912835), (0.2, 0.4, -0.912835), (0.25, 0.35, -0.912835), (0.4, 0.35, -0.912835), (0.4, 0.15, -0.912835), (0.45, 0.4, -0.912835), (0.45, 0.5, -0.512835), (0.45, 0.5, -0.0128353), (0.2, 0.5, -0.512835), (0.35, 0.5, -0.112835), (0.2, 0.5, -0.112835), (0.2, 0.5, -0.312835), (0.35, 0.5, -0.0128353), (-0.2, 0.1, -0.912835), (-0.4, 0.15, -0.912835), (-0.45, 0.1, -0.912835), (-0.45, 0.4, -0.912835), (-0.4, 0.35, -0.912835), (-0.25, 0.35, -0.912835), (-0.25, 0.15, -0.912835), (-0.2, 0.4, -0.912835), (0.35, 0.4, -0.112835), (0.2, 0.4, -0.112835), (0.45, 0.4, -0.512835), (0.45, 0.4, 0.0871648), (0.45, 0.45, 0.0871648), (0.35, 0.45, 0.0871648), (0.35, 0.4, 0.0871648), (-0.45, 0.4, -0.512835), (-0.45, 0.5, -0.512835), (-0.45, 0.4, 0.0871648), (-0.45, 0.5, -0.0128353), (-0.45, 0.45, 0.0871648), (-0.2, 0.4, -0.112835), (-0.35, 0.4, -0.112835), (-0.2, 0.5, -0.112835), (-0.35, 0.5, -0.112835), (-0.35, 0.5, -0.0128353), (-0.35, 0.4, 0.0871648), (-0.35, 0.45, 0.0871648), (-0.2, 0.5, -0.512835), (-0.2, 0.5, -0.312835), (0.45, 0.4, -0.812835), (0.2, 0.4, -0.812835), (0.45, 0.1, -0.512835), (0.2, 0.1, -0.512835), (0.45, 0.2, -0.512835), (0.6, 0.2, -0.512835), (0.6, 0, -0.512835), (0.6, 0.2, -0.212835), (0.6, 0, -0.212835), (0.2, 0, -0.512835), (0.2, 0.7, -0.312835), (0.2, 0.7, 0.0871648), (-0.2, 0.7, -0.312835), (-0.2, 0.7, 0.0871648), (0.2, 0.478473, 0.0871648), (0.2, 0.4, 0.212349), (-0.2, 0, -0.312835), (0.2, 0, -0.312835), (-0.2, 0.1, -0.312835), (0.2, 0.1, -0.312835), (-0.2, 0.4, -0.812835), (-0.45, 0.4, -0.812835), (-0.2, 0.1, -0.512835), (-0.45, 0.1, -0.512835), (-0.45, 0.2, -0.512835), (-0.6, 0, -0.512835), (-0.6, 0.2, -0.512835), (-0.6, 0, -0.212835), (-0.6, 0.2, -0.212835), (-0.2, 0, -0.512835), (0.05, 0, 0.587165), (0.05, 0, 0.487165), (-0.05, 0, 0.587165), (-0.05, 0, 0.487165), (0.2, 0, 0.487165), (-0.2, 0, 0.487165), (-0.2, 0.1, 0.487165), (-0.2, 0.227729, 0.487165), (-0.2, 0.12581, 0.649752), (0.2, 0.227729, 0.487165), (0.2, 0.1, 0.487165), (0.2, 0.12581, 0.649752), (-0.2, 0.4, 0.212349), (-0.2, 0.478473, 0.0871648), (-0.05, 0.1, 0.487165), (0.05, 0.1, 0.487165), (0.05, 0.131749, 0.687165), (0.05, 0.05, 0.687165), (-0.05, 0.131749, 0.687165), (-0.05, 0.05, 0.687165), (0.4, 0.35, -0.812835), (0.25, 0.35, -0.812835), (0.4, 0.15, -0.812835), (0.25, 0.15, -0.812835), (0.270711, 0.1, 0.157875), (0.529289, 0.1, 0.157875), (0.270711, 0.1, 0.416454), (0.270711, 0.3, 0.416454), (0.529289, 0.3, 0.157875), (0.270711, 0.3, 0.157875), (-0.25, 0.15, -0.812835), (-0.4, 0.15, -0.812835), (-0.4, 0.35, -0.812835), (-0.25, 0.35, -0.812835), (-0.270711, 0.1, 0.157875), (-0.270711, 0.3, 0.157875), (-0.270711, 0.1, 0.416454), (-0.270711, 0.3, 0.416454), (-0.529289, 0.1, 0.157875), (-0.529289, 0.3, 0.157875), (0.2, 0.266896, 1.01283), (-0.2, 0.266896, 1.01283), (0.1, 0.45, 0.937165), (-0.0999999, 0.45, 0.937165), (0.2, 0.69005, 0.286668), (-0.2, 0.69005, 0.286668), (-0.2, 0.1, -1.01283), (0.2, 0.1, -1.01283), (-0.2, 0.5, -1.01283), (-0.0999999, 0.5, -1.01283), (0.1, 0.5, -1.01283), (-0.0999999, 0.75, -1.01283), (0.1, 0.75, -1.01283), (0.2, 0.5, -1.01283), (0.6, 0.4, -0.512835), (0.6, 0, 0.0871648), (0.6, 0.4, 0.0871648), (0.2, 0.4, 0.487165), (-0.0999999, 0.614286, -0.612835), (0.1, 0.614286, -0.612835), (0.1, 0.75, -0.912835), (-0.0999999, 0.75, -0.912835), (-0.6, 0.4, -0.512835), (-0.6, 0, 0.0871648), (-0.6, 0.4, 0.0871648), (-0.2, 0.4, 0.487165), (0.2, 0.183448, 1.01283), (-0.2, 0.183448, 1.01283)]
        normal3f[] normals = [(0, 0.948683, -0.316228), (0, 0.948683, -0.316228), (0, 0.948683, -0.316228), (0, 0.948683, -0.316228), (0, 0.948683, -0.316228), (0, 0.948683, -0.316228), (0, -1, 0), (0, -1, 0), (0, -1, 0), (0, -1, 0), (0, -1, 0), (0, -1, 0), (1, 0, 0), (1, 0, 0), (1, 0, 0), (1, 0, 0), (1, 0, 0), (1, 0, 0), (1, 0, 0), (1, 0, 0), (1, 0, 0), (1, 0, 0), (1, 0, 0), (1, 0, 0), (1, 0, 0), (1, 0, 0), (1, 0, 0), (0, 1, 0), (0, 1, 0), (0, 1, 0), (0, 1, 0), (0, 1, 0), (0, 1, 0), (1, 0, 0), (1, 0, 0), (1, 0, 0), (1, 0, 0), (1, 0, 0), (1, 0, 0), (0, 0, -1), (0, 0, -1), (0, 0, -1), (0, 0, -1), (0, 0, -1), (0, 0, -1), (0, 0, -1), (0, 0, -1), (0, 0, -1), (0, 0, -1), (0, 0, -1), (0, 0, -1), (0, 1, 0), (0, 1, 0), (0, 1, 0), (0, 1, 0), (0, 1, 0), (0, 1, 0), (1, 0, 0), (1, 0, 0), (1, 0, 0), (1, 0, 0), (1, 0, 0), (1, 0, 0), (1, 0, 0), (1, 0, 0), (1, 0, 0), (1, 0, 0), (1, 0, 0), (1, 0, 0), (1, 0, 0), (1, 0, 0), (1, 0, 0), (0, 0, -1), (0, 0, -1), (0, 0, -1), (0, 0, -1), (0, 0, -1), (0, 0, -1), (0, 1, 0), (0, 1, 0), (0, 1, 0), (0, 1, 0), (0, 1, 0), (0, 1, 0), (0, -1, 0), (0, -1, 0), (0, -1, 0), (0, -1, 0), (0, -1, 0), (0, -1, 0), (0, 0.948683, -0.316228), (0, 0.948683, -0.316228), (0, 0.948683, -0.316228), (0, 0.948683, -0.316228), (0, 0.948683, -0.316228), (0, 0.948683, -0.316228), (-1, 0, 0), (-1, 0, 0), (-1, 0, 0), (-1, 0, 0), (-1, 0, 0), (-1, 0, 0), (-1, 0, 0), (-1, 0, 0), (-1, 0, 0), (-1, 0, 0), (-1, 0, 0), (-1, 0, 0), (-1, 0, 0), (-1, 0, 0), (-1, 0, 0), (-1, 0, 0), (-1, 0, 0), (-1, 0, 0), (-1, 0, 0), (-1, 0, 0), (-1, 0, 0), (0, 0, -1), (0, 0, -1), (0, 0, -1), (0, 0, -1), (0, 0, -1), (0, 0, -1), (0, 0, -1), (0, 0, -1), (0, 0, -1), (0, 0, -1), (0, 0, -1), (0, 0, -1), (0, -1, 0), (0, -1, 0), (0, -1, 0), (0, -1, 0), (0, -1, 0), (0, -1, 0), (0, -1, 0), (0, -1, 0), (0, -1, 0), (0, -1, 0), (0, -1, 0), (0, -1, 0), (0, -1, 0), (0, -1, 0), (0, -1, 0), (0, -1, 0), (0, -1, 0), (0, -1, 0), (-1, 0, 0), (-1, 0, 0), (-1, 0, 0), (1, 0, 0), (1, 0, 0), (1, 0, 0), (-1, 0, 0), (-1, 0, 0), (-1, 0, 0), (-1, 0, 0), (-1, 0, 0), (-1, 0, 0), (-1, 0, 0), (-1, 0, 0), (-1, 0, 0), (-1, 0, 0), (-1, 0, 0), (-1, 0, 0), (-1, 0, 0), (-1, 0, 0), (-1, 0, 0), (0, 0, 1), (0, 0, 1), (0, 0, 1), (0, 0, 1), (0, 0, 1), (0, 0, 1), (0, 0, 1), (0, 0, 1), (0, 0, 1), (0, 0, 1), (0, 0, 1), (0, 0, 1), (1, 0, 0), (1, 0, 0), (1, 0, 0), (1, 0, 0), (1, 0, 0), (1, 0, 0), (1, 0, 0), (1, 0, 0), (1, 0, 0), (-1, 0, 0), (-1, 0, 0), (-1, 0, 0), (-1, 0, 0), (-1, 0, 0), (-1, 0, 0), (-1, 0, 0), (-1, 0, 0), (-1, 0, 0), (0, -0.894427, 0.447214), (0, -0.894427, 0.447214), (0, -0.894427, 0.447214), (0, -0.894427, 0.447214), (0, -0.894427, 0.447214), (0, -0.894427, 0.447214), (0, 0, 1), (0, 0, 1), (0, 0, 1), (0, 0, 1), (0, 0, 1), (0, 0, 1)] (interpolation = "faceVarying")
        texCoord2f[] primvars:st = [(-7.87402, -25.3792), (-17.7165, -12.9293), (-17.7165, -25.3792), (-17.7165, -12.9293), (-7.87402, -25.3792), (-7.87402, -12.9293), (7.87402, -20.1904), (17.7165, -35.9384), (17.7165, -20.1904), (17.7165, -35.9384), (7.87402, -20.1904), (7.87402, -35.9384), (32.0014, 15.748), (35.9384, 3.93701), (35.9384, 15.748), (35.9384, 3.93701), (32.0014, 15.748), (20.1904, 3.93701), (20.1904, 3.93701), (32.0014, 15.748), (20.1904, 19.685), (20.1904, 3.93701), (20.1904, 19.685), (20.1904, 15.748), (20.1904, 3.93701), (20.1904, 15.748), (20.1904, 7.87402), (-7.87402, -35.9384), (-17.7165, -32.0014), (-17.7165, -35.9384), (-17.7165, -32.0014), (-7.87402, -35.9384), (-7.87402, -32.0014), (8.37934, 7.87402), (20.1904, 0), (20.1904, 7.87402), (20.1904, 0), (8.37934, 7.87402), (8.37934, 0), (-7.87402, 3.93701), (-23.6221, 0), (-7.87402, 0), (-23.6221, 0), (-7.87402, 3.93701), (-17.7165, 3.93701), (-23.6221, 0), (-17.7165, 3.93701), (-23.6221, 7.87402), (-23.6221, 7.87402), (-17.7165, 3.93701), (-17.7165, 7.87402), (7.87402, -12.3163), (-7.87402, 3.43168), (-7.87402, -12.3163), (-7.87402, 3.43168), (7.87402, -12.3163), (7.87402, 3.43168), (-3.43168, 27.5591), (12.3163, 19.685), (12.3163, 27.5591), (12.3163, 19.685), (-3.43168, 27.5591), (4.44233, 19.685), (4.44233, 19.685), (-3.43168, 27.5591), (4.44233, 15.748), (4.44233, 15.748), (-3.43168, 27.5591), (-3.43168, 18.8375), (4.44233, 15.748), (-3.43168, 18.8375), (-8.36021, 15.748), (7.87402, 3.93701), (-7.87402, -3.55652e-13), (7.87402, -3.55652e-13), (-7.87402, -3.55652e-13), (7.87402, 3.93701), (-7.87402, 3.93701), (17.7165, -35.9384), (7.87402, -32.0014), (7.87402, -35.9384), (7.87402, -32.0014), (17.7165, -35.9384), (17.7165, -32.0014), (-17.7165, -20.1904), (-7.87402, -35.9384), (-7.87402, -20.1904), (-7.87402, -35.9384), (-17.7165, -20.1904), (-17.7165, -35.9384), (17.7165, -25.3792), (7.87402, -12.9293), (7.87402, -25.3792), (7.87402, -12.9293), (17.7165, -25.3792), (17.7165, -12.9293), (-20.1904, 3.93701), (-35.9384, 15.748), (-35.9384, 3.93701), (-35.9384, 15.748), (-20.1904, 3.93701), (-32.0014, 15.748), (-32.0014, 15.748), (-20.1904, 3.93701), (-20.1904, 19.685), (-20.1904, 19.685), (-20.1904, 3.93701), (-20.1904, 7.87402), (-20.1904, 19.685), (-20.1904, 7.87402), (-20.1904, 15.748), (-8.37934, 0), (-20.1904, 7.87402), (-20.1904, 0), (-20.1904, 7.87402), (-8.37934, 0), (-8.37934, 7.87402), (23.6221, 0), (17.7165, 3.93701), (7.87402, 0), (17.7165, 3.93701), (23.6221, 0), (23.6221, 7.87402), (17.7165, 3.93701), (23.6221, 7.87402), (17.7165, 7.87402), (7.87402, 3.93701), (7.87402, 0), (17.7165, 3.93701), (-1.9685, 23.1167), (1.9685, 19.1797), (1.9685, 23.1167), (-1.9685, 19.1797), (1.9685, 19.1797), (-1.9685, 23.1167), (-7.87402, -12.3163), (1.9685, 19.1797), (-1.9685, 19.1797), (7.87402, -12.3163), (1.9685, 19.1797), (-7.87402, -12.3163), (1.9685, 19.1797), (7.87402, -12.3163), (7.87402, 19.1797), (-7.87402, -12.3163), (-1.9685, 19.1797), (-7.87402, 19.1797), (25.5808, 4.95315), (19.1797, 8.96572), (19.1797, 3.93701), (-25.5808, 4.95315), (-19.1797, 3.93701), (-19.1797, 8.96572), (8.36021, 15.748), (-4.44233, 19.685), (-4.44233, 15.748), (-4.44233, 19.685), (8.36021, 15.748), (3.43168, 18.8375), (3.43168, 27.5591), (-4.44233, 19.685), (3.43168, 18.8375), (-12.3163, 27.5591), (-4.44233, 19.685), (3.43168, 27.5591), (-4.44233, 19.685), (-12.3163, 27.5591), (-12.3163, 19.685), (-1.9685, 3.93701), (-7.87402, 0), (-1.9685, 0), (-7.87402, 0), (-1.9685, 3.93701), (-7.87402, 3.93701), (7.87402, 3.93701), (1.9685, 0), (7.87402, 0), (1.9685, 0), (7.87402, 3.93701), (1.9685, 3.93701), (-27.0537, 5.18698), (-19.1797, 0), (-19.1797, 3.93701), (-19.1797, 0), (-27.0537, 5.18698), (-23.1167, 0), (-23.1167, 0), (-27.0537, 5.18698), (-27.0537, 1.9685), (23.1167, 0), (19.1797, 3.93701), (19.1797, 0), (19.1797, 3.93701), (23.1167, 0), (27.0537, 5.18698), (27.0537, 5.18698), (23.1167, 0), (27.0537, 1.9685), (-1.9685, 25.0779), (1.9685, 20.6762), (1.9685, 25.0779), (1.9685, 20.6762), (-1.9685, 25.0779), (-1.9685, 20.6762), (1.9685, 5.18698), (-1.9685, 1.9685), (1.9685, 1.9685), (-1.9685, 1.9685), (1.9685, 5.18698), (-1.9685, 5.18698)] (interpolation = "faceVarying")
        uniform token subdivisionScheme = "none"
        rel material:binding = </Vehicle/Materials/metalDark>
    }
    def Mesh "mesh_dark" {
        int[] faceVertexCounts = [3, 3, 3, 3, 3, 3, 3, 3, 3, 3, 3, 3, 3, 3, 3, 3, 3, 3, 3, 3, 3, 3, 3, 3, 3, 3, 3, 3, 3, 3, 3, 3, 3, 3, 3, 3, 3, 3]
        int[] faceVertexIndices = [95, 5, 94, 5, 95, 4, 1, 96, 6, 96, 1, 97, 95, 96, 97, 96, 95, 94, 96, 5, 6, 5, 96, 94, 95, 1, 4, 1, 95, 97, 100, 99, 98, 103, 102, 101, 102, 98, 99, 98, 102, 103, 101, 98, 103, 98, 101, 100, 16, 104, 21, 104, 16, 105, 106, 16, 19, 16, 106, 105, 106, 104, 105, 104, 106, 107, 106, 20, 107, 20, 106, 19, 104, 20, 21, 20, 104, 107, 110, 109, 108, 109, 110, 111, 112, 110, 108, 113, 109, 111, 109, 112, 108, 112, 109, 113, 116, 115, 114, 115, 116, 117, 114, 118, 116, 119, 116, 118, 116, 119, 117, 115, 117, 119]
        point3f[] points = [(0.45, 0.1, -0.912835), (0.25, 0.15, -0.912835), (0.2, 0.1, -0.912835), (0.2, 0.4, -0.912835), (0.25, 0.35, -0.912835), (0.4, 0.35, -0.912835), (0.4, 0.15, -0.912835), (0.45, 0.4, -0.912835), (0.45, 0.5, -0.512835), (0.45, 0.5, -0.0128353), (0.2, 0.5, -0.512835), (0.35, 0.5, -0.112835), (0.2, 0.5, -0.112835), (0.2, 0.5, -0.312835), (0.35, 0.5, -0.0128353), (-0.2, 0.1, -0.912835), (-0.4, 0.15, -0.912835), (-0.45, 0.1, -0.912835), (-0.45, 0.4, -0.912835), (-0.4, 0.35, -0.912835), (-0.25, 0.35, -0.912835), (-0.25, 0.15, -0.912835), (-0.2, 0.4, -0.912835), (0.35, 0.4, -0.112835), (0.2, 0.4, -0.112835), (0.45, 0.4, -0.512835), (0.45, 0.4, 0.0871648), (0.45, 0.45, 0.0871648), (0.35, 0.45, 0.0871648), (0.35, 0.4, 0.0871648), (-0.45, 0.4, -0.512835), (-0.45, 0.5, -0.512835), (-0.45, 0.4, 0.0871648), (-0.45, 0.5, -0.0128353), (-0.45, 0.45, 0.0871648), (-0.2, 0.4, -0.112835), (-0.35, 0.4, -0.112835), (-0.2, 0.5, -0.112835), (-0.35, 0.5, -0.112835), (-0.35, 0.5, -0.0128353), (-0.35, 0.4, 0.0871648), (-0.35, 0.45, 0.0871648), (-0.2, 0.5, -0.512835), (-0.2, 0.5, -0.312835), (0.45, 0.4, -0.812835), (0.2, 0.4, -0.812835), (0.45, 0.1, -0.512835), (0.2, 0.1, -0.512835), (0.45, 0.2, -0.512835), (0.6, 0.2, -0.512835), (0.6, 0, -0.512835), (0.6, 0.2, -0.212835), (0.6, 0, -0.212835), (0.2, 0, -0.512835), (0.2, 0.7, -0.312835), (0.2, 0.7, 0.0871648), (-0.2, 0.7, -0.312835), (-0.2, 0.7, 0.0871648), (0.2, 0.478473, 0.0871648), (0.2, 0.4, 0.212349), (-0.2, 0, -0.312835), (0.2, 0, -0.312835), (-0.2, 0.1, -0.312835), (0.2, 0.1, -0.312835), (-0.2, 0.4, -0.812835), (-0.45, 0.4, -0.812835), (-0.2, 0.1, -0.512835), (-0.45, 0.1, -0.512835), (-0.45, 0.2, -0.512835), (-0.6, 0, -0.512835), (-0.6, 0.2, -0.512835), (-0.6, 0, -0.212835), (-0.6, 0.2, -0.212835), (-0.2, 0, -0.512835), (0.05, 0, 0.587165), (0.05, 0, 0.487165), (-0.05, 0, 0.587165), (-0.05, 0, 0.487165), (0.2, 0, 0.487165), (-0.2, 0, 0.487165), (-0.2, 0.1, 0.487165), (-0.2, 0.227729, 0.487165), (-0.2, 0.12581, 0.649752), (0.2, 0.227729, 0.487165), (0.2, 0.1, 0.487165), (0.2, 0.12581, 0.649752), (-0.2, 0.4, 0.212349), (-0.2, 0.478473, 0.0871648), (-0.05, 0.1, 0.487165), (0.05, 0.1, 0.487165), (0.05, 0.131749, 0.687165), (0.05, 0.05, 0.687165), (-0.05, 0.131749, 0.687165), (-0.05, 0.05, 0.687165), (0.4, 0.35, -0.812835), (0.25, 0.35, -0.812835), (0.4, 0.15, -0.812835), (0.25, 0.15, -0.812835), (0.270711, 0.1, 0.157875), (0.529289, 0.1, 0.157875), (0.270711, 0.1, 0.416454), (0.270711, 0.3, 0.416454), (0.529289, 0.3, 0.157875), (0.270711, 0.3, 0.157875), (-0.25, 0.15, -0.812835), (-0.4, 0.15, -0.812835), (-0.4, 0.35, -0.812835), (-0.25, 0.35, -0.812835), (-0.270711, 0.1, 0.157875), (-0.270711, 0.3, 0.157875), (-0.270711, 0.1, 0.416454), (-0.270711, 0.3, 0.416454), (-0.529289, 0.1, 0.157875), (-0.529289, 0.3, 0.157875), (0.2, 0.266896, 1.01283), (-0.2, 0.266896, 1.01283), (0.1, 0.45, 0.937165), (-0.0999999, 0.45, 0.937165), (0.2, 0.69005, 0.286668), (-0.2, 0.69005, 0.286668), (-0.2, 0.1, -1.01283), (0.2, 0.1, -1.01283), (-0.2, 0.5, -1.01283), (-0.0999999, 0.5, -1.01283), (0.1, 0.5, -1.01283), (-0.0999999, 0.75, -1.01283), (0.1, 0.75, -1.01283), (0.2, 0.5, -1.01283), (0.6, 0.4, -0.512835), (0.6, 0, 0.0871648), (0.6, 0.4, 0.0871648), (0.2, 0.4, 0.487165), (-0.0999999, 0.614286, -0.612835), (0.1, 0.614286, -0.612835), (0.1, 0.75, -0.912835), (-0.0999999, 0.75, -0.912835), (-0.6, 0.4, -0.512835), (-0.6, 0, 0.0871648), (-0.6, 0.4, 0.0871648), (-0.2, 0.4, 0.487165), (0.2, 0.183448, 1.01283), (-0.2, 0.183448, 1.01283)]
        normal3f[] normals = [(0, -1, 0), (0, -1, 0), (0, -1, 0), (0, -1, 0), (0, -1, 0), (0, -1, 0), (0, 1, 0), (0, 1, 0), (0, 1, 0), (0, 1, 0), (0, 1, 0), (0, 1, 0), (0, 0, -1), (0, 0, -1), (0, 0, -1), (0, 0, -1), (0, 0, -1), (0, 0, -1), (-1, 0, 0), (-1, 0, 0), (-1, 0, 0), (-1, 0, 0), (-1, 0, 0), (-1, 0, 0), (1, 0, 0), (1, 0, 0), (1, 0, 0), (1, 0, 0), (1, 0, 0), (1, 0, 0), (0, 1, 0), (0, 1, 0), (0, 1, 0), (0, -1, 0), (0, -1, 0), (0, -1, 0), (0, 0, 1), (0, 0, 1), (0, 0, 1), (0, 0, 1), (0, 0, 1), (0, 0, 1), (1, 0, 0), (1, 0, 0), (1, 0, 0), (1, 0, 0), (1, 0, 0), (1, 0, 0), (0, 1, 0), (0, 1, 0), (0, 1, 0), (0, 1, 0), (0, 1, 0), (0, 1, 0), (1, 0, 0), (1, 0, 0), (1, 0, 0), (1, 0, 0), (1, 0, 0), (1, 0, 0), (0, 0, -1), (0, 0, -1), (0, 0, -1), (0, 0, -1), (0, 0, -1), (0, 0, -1), (0, -1, 0), (0, -1, 0), (0, -1, 0), (0, -1, 0), (0, -1, 0), (0, -1, 0), (-1, 0, 0), (-1, 0, 0), (-1, 0, 0), (-1, 0, 0), (-1, 0, 0), (-1, 0, 0), (-1, 0, 0), (-1, 0, 0), (-1, 0, 0), (-1, 0, 0), (-1, 0, 0), (-1, 0, 0), (0, 1, 0), (0, 1, 0), (0, 1, 0), (0, -1, 0), (0, -1, 0), (0, -1, 0), (0, 0, 1), (0, 0, 1), (0, 0, 1), (0, 0, 1), (0, 0, 1), (0, 0, 1), (0, 0.381936, 0.924189), (0, 0.381936, 0.924189), (0, 0.381936, 0.924189), (0, 0.381936, 0.924189), (0, 0.381936, 0.924189), (0, 0.381936, 0.924189), (0.768496, 0.55284, 0.322152), (0.768496, 0.55284, 0.322152), (0.768496, 0.55284, 0.322152), (0, 0.938159, 0.346205), (0, 0.938159, 0.346205), (0, 0.938159, 0.346205), (0, 0.938159, 0.346205), (0, 0.938159, 0.346205), (0, 0.938159, 0.346205), (-0.768496, 0.55284, 0.322152), (-0.768496, 0.55284, 0.322152), (-0.768496, 0.55284, 0.322152)] (interpolation = "faceVarying")
        texCoord2f[] primvars:st = [(9.84252, -32.0014), (15.748, -35.9384), (15.748, -32.0014), (15.748, -35.9384), (9.84252, -32.0014), (9.84252, -35.9384), (-9.84252, -35.9384), (-15.748, -32.0014), (-15.748, -35.9384), (-15.748, -32.0014), (-9.84252, -35.9384), (-9.84252, -32.0014), (-9.84252, 13.7795), (-15.748, 5.90551), (-9.84252, 5.90551), (-15.748, 5.90551), (-9.84252, 13.7795), (-15.748, 13.7795), (-32.0014, 5.90551), (-35.9384, 13.7795), (-35.9384, 5.90551), (-35.9384, 13.7795), (-32.0014, 5.90551), (-32.0014, 13.7795), (32.0014, 13.7795), (35.9384, 5.90551), (35.9384, 13.7795), (35.9384, 5.90551), (32.0014, 13.7795), (32.0014, 5.90551), (-10.6579, 16.3958), (-20.8382, 6.21557), (-10.6579, 6.21557), (10.6579, 6.21557), (20.8382, 6.21557), (10.6579, 16.3958), (20.8382, 11.811), (10.6579, 3.93701), (20.8382, 3.93701), (10.6579, 3.93701), (20.8382, 11.811), (10.6579, 11.811), (-16.3958, 11.811), (-6.21557, 3.93701), (-6.21557, 11.811), (-6.21557, 3.93701), (-16.3958, 11.811), (-16.3958, 3.93701), (15.748, -35.9384), (9.84252, -32.0014), (9.84252, -35.9384), (9.84252, -32.0014), (15.748, -35.9384), (15.748, -32.0014), (32.0014, 13.7795), (35.9384, 5.90551), (35.9384, 13.7795), (35.9384, 5.90551), (32.0014, 13.7795), (32.0014, 5.90551), (15.748, 13.7795), (9.84252, 5.90551), (15.748, 5.90551), (9.84252, 5.90551), (15.748, 13.7795), (9.84252, 13.7795), (-15.748, -32.0014), (-9.84252, -35.9384), (-9.84252, -32.0014), (-9.84252, -35.9384), (-15.748, -32.0014), (-15.748, -35.9384), (-32.0014, 5.90551), (-35.9384, 13.7795), (-35.9384, 5.90551), (-35.9384, 13.7795), (-32.0014, 5.90551), (-32.0014, 13.7795), (16.3958, 3.93701), (6.21557, 11.811), (6.21557, 3.93701), (6.21557, 11.811), (16.3958, 3.93701), (16.3958, 11.811), (20.8382, 6.21557), (10.6579, 16.3958), (10.6579, 6.21557), (-20.8382, 6.21557), (-10.6579, 6.21557), (-10.6579, 16.3958), (-10.6579, 11.811), (-20.8382, 3.93701), (-10.6579, 3.93701), (-20.8382, 3.93701), (-10.6579, 11.811), (-20.8382, 11.811), (3.93701, 2.2814), (-7.87402, -5.51874), (7.87402, -5.51874), (-7.87402, -5.51874), (3.93701, 2.2814), (-3.93701, 2.2814), (-33.7308, -3.78122), (-7.36449, 16.2114), (-32.5053, 4.86982), (-7.87402, -1.18277), (3.93701, -28.481), (7.87402, -1.18277), (3.93701, -28.481), (-7.87402, -1.18277), (-3.93701, -28.481), (33.7308, -3.78122), (32.5053, 4.86982), (7.36449, 16.2114)] (interpolation = "faceVarying")
        uniform token subdivisionScheme = "none"
        rel material:binding = </Vehicle/Materials/dark>
    }
    def Mesh "mesh_metalRed" {
        int[] faceVertexCounts = [3, 3, 3, 3, 3, 3, 3, 3, 3, 3, 3, 3, 3, 3, 3, 3, 3, 3, 3, 3, 3, 3, 3, 3, 3, 3, 3, 3, 3, 3, 3, 3, 3, 3, 3, 3, 3, 3, 3, 3, 3, 3, 3, 3, 3, 3, 3, 3, 3, 3, 3, 3, 3, 3, 3, 3, 3, 3, 3, 3, 3, 3, 3, 3, 3, 3, 3, 3, 3, 3, 3, 3, 3, 3, 3, 3, 3, 3, 3, 3, 3, 3, 3, 3, 3, 3, 3, 3, 3, 3, 3, 3, 3, 3, 3, 3, 3, 3, 3, 3, 3, 3, 3, 3, 3, 3, 3, 3, 3, 3, 3, 3, 3, 3, 3, 3, 3, 3, 3, 3, 3, 3]
        int[] faceVertexIndices = [62, 47, 63, 47, 62, 2, 2, 62, 66, 15, 2, 66, 120, 2, 15, 2, 120, 121, 122, 121, 120, 121, 122, 123, 124, 121, 123, 125, 124, 123, 124, 125, 126, 121, 124, 127, 25, 49, 48, 49, 25, 128, 78, 52, 129, 52, 78, 50, 50, 78, 53, 53, 78, 61, 130, 102, 129, 102, 130, 131, 102, 131, 101, 101, 131, 100, 99, 129, 102, 129, 99, 78, 78, 99, 100, 78, 100, 131, 78, 131, 83, 78, 83, 84, 130, 49, 128, 49, 130, 51, 51, 130, 52, 52, 130, 129, 127, 3, 121, 3, 127, 54, 3, 54, 45, 45, 54, 10, 10, 54, 13, 2, 121, 3, 122, 132, 123, 56, 132, 122, 56, 133, 132, 54, 133, 56, 54, 124, 133, 124, 54, 127, 134, 124, 126, 124, 134, 133, 123, 135, 125, 135, 123, 132, 135, 133, 134, 133, 135, 132, 125, 134, 126, 134, 125, 135, 61, 47, 53, 47, 61, 63, 62, 73, 66, 73, 62, 60, 136, 68, 70, 68, 136, 30, 137, 60, 79, 60, 137, 73, 73, 137, 69, 69, 137, 71, 137, 112, 138, 112, 137, 79, 112, 79, 110, 110, 79, 111, 113, 138, 112, 138, 113, 139, 139, 113, 111, 139, 111, 79, 139, 79, 80, 139, 80, 81, 137, 72, 71, 138, 72, 137, 136, 72, 138, 72, 136, 70, 24, 29, 23, 29, 24, 59, 131, 29, 59, 131, 26, 29, 130, 26, 131, 130, 25, 26, 25, 130, 128, 15, 122, 120, 122, 15, 22, 122, 22, 56, 56, 22, 64, 56, 64, 42, 56, 42, 43, 57, 118, 55, 118, 57, 119, 114, 141, 140, 141, 114, 115, 86, 57, 87, 57, 86, 119, 119, 86, 139, 119, 139, 115, 115, 139, 81, 115, 81, 82, 115, 82, 141, 141, 85, 140, 85, 141, 90, 85, 90, 84, 90, 141, 92, 92, 141, 88, 88, 141, 80, 80, 141, 82, 89, 84, 90, 118, 58, 55, 58, 118, 59, 59, 118, 131, 131, 118, 114, 131, 114, 83, 83, 114, 85, 85, 114, 140, 136, 32, 30, 138, 32, 136, 138, 40, 32, 139, 40, 138, 139, 35, 40, 35, 139, 86, 40, 35, 36]
        point3f[] points = [(0.45, 0.1, -0.912835), (0.25, 0.15, -0.912835), (0.2, 0.1, -0.912835), (0.2, 0.4, -0.912835), (0.25, 0.35, -0.912835), (0.4, 0.35, -0.912835), (0.4, 0.15, -0.912835), (0.45, 0.4, -0.912835), (0.45, 0.5, -0.512835), (0.45, 0.5, -0.0128353), (0.2, 0.5, -0.512835), (0.35, 0.5, -0.112835), (0.2, 0.5, -0.112835), (0.2, 0.5, -0.312835), (0.35, 0.5, -0.0128353), (-0.2, 0.1, -0.912835), (-0.4, 0.15, -0.912835), (-0.45, 0.1, -0.912835), (-0.45, 0.4, -0.912835), (-0.4, 0.35, -0.912835), (-0.25, 0.35, -0.912835), (-0.25, 0.15, -0.912835), (-0.2, 0.4, -0.912835), (0.35, 0.4, -0.112835), (0.2, 0.4, -0.112835), (0.45, 0.4, -0.512835), (0.45, 0.4, 0.0871648), (0.45, 0.45, 0.0871648), (0.35, 0.45, 0.0871648), (0.35, 0.4, 0.0871648), (-0.45, 0.4, -0.512835), (-0.45, 0.5, -0.512835), (-0.45, 0.4, 0.0871648), (-0.45, 0.5, -0.0128353), (-0.45, 0.45, 0.0871648), (-0.2, 0.4, -0.112835), (-0.35, 0.4, -0.112835), (-0.2, 0.5, -0.112835), (-0.35, 0.5, -0.112835), (-0.35, 0.5, -0.0128353), (-0.35, 0.4, 0.0871648), (-0.35, 0.45, 0.0871648), (-0.2, 0.5, -0.512835), (-0.2, 0.5, -0.312835), (0.45, 0.4, -0.812835), (0.2, 0.4, -0.812835), (0.45, 0.1, -0.512835), (0.2, 0.1, -0.512835), (0.45, 0.2, -0.512835), (0.6, 0.2, -0.512835), (0.6, 0, -0.512835), (0.6, 0.2, -0.212835), (0.6, 0, -0.212835), (0.2, 0, -0.512835), (0.2, 0.7, -0.312835), (0.2, 0.7, 0.0871648), (-0.2, 0.7, -0.312835), (-0.2, 0.7, 0.0871648), (0.2, 0.478473, 0.0871648), (0.2, 0.4, 0.212349), (-0.2, 0, -0.312835), (0.2, 0, -0.312835), (-0.2, 0.1, -0.312835), (0.2, 0.1, -0.312835), (-0.2, 0.4, -0.812835), (-0.45, 0.4, -0.812835), (-0.2, 0.1, -0.512835), (-0.45, 0.1, -0.512835), (-0.45, 0.2, -0.512835), (-0.6, 0, -0.512835), (-0.6, 0.2, -0.512835), (-0.6, 0, -0.212835), (-0.6, 0.2, -0.212835), (-0.2, 0, -0.512835), (0.05, 0, 0.587165), (0.05, 0, 0.487165), (-0.05, 0, 0.587165), (-0.05, 0, 0.487165), (0.2, 0, 0.487165), (-0.2, 0, 0.487165), (-0.2, 0.1, 0.487165), (-0.2, 0.227729, 0.487165), (-0.2, 0.12581, 0.649752), (0.2, 0.227729, 0.487165), (0.2, 0.1, 0.487165), (0.2, 0.12581, 0.649752), (-0.2, 0.4, 0.212349), (-0.2, 0.478473, 0.0871648), (-0.05, 0.1, 0.487165), (0.05, 0.1, 0.487165), (0.05, 0.131749, 0.687165), (0.05, 0.05, 0.687165), (-0.05, 0.131749, 0.687165), (-0.05, 0.05, 0.687165), (0.4, 0.35, -0.812835), (0.25, 0.35, -0.812835), (0.4, 0.15, -0.812835), (0.25, 0.15, -0.812835), (0.270711, 0.1, 0.157875), (0.529289, 0.1, 0.157875), (0.270711, 0.1, 0.416454), (0.270711, 0.3, 0.416454), (0.529289, 0.3, 0.157875), (0.270711, 0.3, 0.157875), (-0.25, 0.15, -0.812835), (-0.4, 0.15, -0.812835), (-0.4, 0.35, -0.812835), (-0.25, 0.35, -0.812835), (-0.270711, 0.1, 0.157875), (-0.270711, 0.3, 0.157875), (-0.270711, 0.1, 0.416454), (-0.270711, 0.3, 0.416454), (-0.529289, 0.1, 0.157875), (-0.529289, 0.3, 0.157875), (0.2, 0.266896, 1.01283), (-0.2, 0.266896, 1.01283), (0.1, 0.45, 0.937165), (-0.0999999, 0.45, 0.937165), (0.2, 0.69005, 0.286668), (-0.2, 0.69005, 0.286668), (-0.2, 0.1, -1.01283), (0.2, 0.1, -1.01283), (-0.2, 0.5, -1.01283), (-0.0999999, 0.5, -1.01283), (0.1, 0.5, -1.01283), (-0.0999999, 0.75, -1.01283), (0.1, 0.75, -1.01283), (0.2, 0.5, -1.01283), (0.6, 0.4, -0.512835), (0.6, 0, 0.0871648), (0.6, 0.4, 0.0871648), (0.2, 0.4, 0.487165), (-0.0999999, 0.614286, -0.612835), (0.1, 0.614286, -0.612835), (0.1, 0.75, -0.912835), (-0.0999999, 0.75, -0.912835), (-0.6, 0.4, -0.512835), (-0.6, 0, 0.0871648), (-0.6, 0.4, 0.0871648), (-0.2, 0.4, 0.487165), (0.2, 0.183448, 1.01283), (-0.2, 0.183448, 1.01283)]
        normal3f[] normals = [(0, -1, 0), (0, -1, 0), (0, -1, 0), (0, -1, 0), (0, -1, 0), (0, -1, 0), (0, -1, 0), (0, -1, 0), (0, -1, 0), (0, -1, 0), (0, -1, 0), (0, -1, 0), (0, -1, 0), (0, -1, 0), (0, -1, 0), (0, -1, 0), (0, -1, 0), (0, -1, 0), (0, 0, -1), (0, 0, -1), (0, 0, -1), (0, 0, -1), (0, 0, -1), (0, 0, -1), (0, 0, -1), (0, 0, -1), (0, 0, -1), (0, 0, -1), (0, 0, -1), (0, 0, -1), (0, 0, -1), (0, 0, -1), (0, 0, -1), (0, 0, -1), (0, 0, -1), (0, 0, -1), (0, 0, -1), (0, 0, -1), (0, 0, -1), (0, 0, -1), (0, 0, -1), (0, 0, -1), (0, -1, 0), (0, -1, 0), (0, -1, 0), (0, -1, 0), (0, -1, 0), (0, -1, 0), (0, -1, 0), (0, -1, 0), (0, -1, 0), (0, -1, 0), (0, -1, 0), (0, -1, 0), (0.707107, 0, 0.707107), (0.707107, 0, 0.707107), (0.707107, 0, 0.707107), (0.707107, 0, 0.707107), (0.707107, 0, 0.707107), (0.707107, 0, 0.707107), (0.707107, 0, 0.707107), (0.707107, 0, 0.707107), (0.707107, 0, 0.707107), (0.707107, 0, 0.707107), (0.707107, 0, 0.707107), (0.707107, 0, 0.707107), (0.707107, 0, 0.707107), (0.707107, 0, 0.707107), (0.707107, 0, 0.707107), (0.707107, 0, 0.707107), (0.707107, 0, 0.707107), (0.707107, 0, 0.707107), (0.707107, 0, 0.707107), (0.707107, 0, 0.707107), (0.707107, 0, 0.707107), (0.707107, 0, 0.707107), (0.707107, 0, 0.707107), (0.707107, 0, 0.707107), (0.707107, 0, 0.707107), (0.707107, 0, 0.707107), (0.707107, 0, 0.707107), (0.707107, 0, 0.707107), (0.707107, 0, 0.707107), (0.707107, 0, 0.707107), (1, 0, 0), (1, 0, 0), (1, 0, 0), (1, 0, 0), (1, 0, 0), (1, 0, 0), (1, 0, 0), (1, 0, 0), (1, 0, 0), (1, 0, 0), (1, 0, 0), (1, 0, 0), (1, 0, 0), (1, 0, 0), (1, 0, 0), (1, 0, 0), (1, 0, 0), (1, 0, 0), (1, 0, 0), (1, 0, 0), (1, 0, 0), (1, 0, 0), (1, 0, 0), (1, 0, 0), (1, 0, 0), (1, 0, 0), (1, 0, 0), (1, 0, 0), (1, 0, 0), (1, 0, 0), (0, 0.961524, -0.274721), (0, 0.961524, -0.274721), (0, 0.961524, -0.274721), (0, 0.961524, -0.274721), (0, 0.961524, -0.274721), (0, 0.961524, -0.274721), (0, 0.961524, -0.274721), (0, 0.961524, -0.274721), (0, 0.961524, -0.274721), (0, 0.961524, -0.274721), (0, 0.961524, -0.274721), (0, 0.961524, -0.274721), (0, 0.961524, -0.274721), (0, 0.961524, -0.274721), (0, 0.961524, -0.274721), (0, 0.961524, -0.274721), (0, 0.961524, -0.274721), (0, 0.961524, -0.274721), (1, 0, 0), (1, 0, 0), (1, 0, 0), (1, 0, 0), (1, 0, 0), (1, 0, 0), (-1, 0, 0), (-1, 0, 0), (-1, 0, 0), (-1, 0, 0), (-1, 0, 0), (-1, 0, 0), (0, 0.911108, 0.412168), (0, 0.911108, 0.412168), (0, 0.911108, 0.412168), (0, 0.911108, 0.412168), (0, 0.911108, 0.412168), (0, 0.911108, 0.412168), (0, 1, 0), (0, 1, 0), (0, 1, 0), (0, 1, 0), (0, 1, 0), (0, 1, 0), (-1, 0, 0), (-1, 0, 0), (-1, 0, 0), (-1, 0, 0), (-1, 0, 0), (-1, 0, 0), (1, 0, 0), (1, 0, 0), (1, 0, 0), (1, 0, 0), (1, 0, 0), (1, 0, 0), (0, 0, -1), (0, 0, -1), (0, 0, -1), (0, 0, -1), (0, 0, -1), (0, 0, -1), (0, -1, 0), (0, -1, 0), (0, -1, 0), (0, -1, 0), (0, -1, 0), (0, -1, 0), (0, -1, 0), (0, -1, 0), (0, -1, 0), (0, -1, 0), (0, -1, 0), (0, -1, 0), (-0.707107, 0, 0.707107), (-0.707107, 0, 0.707107), (-0.707107, 0, 0.707107), (-0.707107, 0, 0.707107), (-0.707107, 0, 0.707107), (-0.707107, 0, 0.707107), (-0.707107, 0, 0.707107), (-0.707107, 0, 0.707107), (-0.707107, 0, 0.707107), (-0.707107, 0, 0.707107), (-0.707107, 0, 0.707107), (-0.707107, 0, 0.707107), (-0.707107, 0, 0.707107), (-0.707107, 0, 0.707107), (-0.707107, 0, 0.707107), (-0.707107, 0, 0.707107), (-0.707107, 0, 0.707107), (-0.707107, 0, 0.707107), (-0.707107, 0, 0.707107), (-0.707107, 0, 0.707107), (-0.707107, 0, 0.707107), (-0.707107, 0, 0.707107), (-0.707107, 0, 0.707107), (-0.707107, 0, 0.707107), (-0.707107, 0, 0.707107), (-0.707107, 0, 0.707107), (-0.707107, 0, 0.707107), (-0.707107, 0, 0.707107), (-0.707107, 0, 0.707107), (-0.707107, 0, 0.707107), (-1, 0, 0), (-1, 0, 0), (-1, 0, 0), (-1, 0, 0), (-1, 0, 0), (-1, 0, 0), (-1, 0, 0), (-1, 0, 0), (-1, 0, 0), (-1, 0, 0), (-1, 0, 0), (-1, 0, 0), (0, 1, 0), (0, 1, 0), (0, 1, 0), (0, 1, 0), (0, 1, 0), (0, 1, 0), (0, 1, 0), (0, 1, 0), (0, 1, 0), (0, 1, 0), (0, 1, 0), (0, 1, 0), (0, 1, 0), (0, 1, 0), (0, 1, 0), (0, 1, 0), (0, 1, 0), (0, 1, 0), (0, 1, 0), (0, 1, 0), (0, 1, 0), (-1, 0, 0), (-1, 0, 0), (-1, 0, 0), (-1, 0, 0), (-1, 0, 0), (-1, 0, 0), (-1, 0, 0), (-1, 0, 0), (-1, 0, 0), (-1, 0, 0), (-1, 0, 0), (-1, 0, 0), (-1, 0, 0), (-1, 0, 0), (-1, 0, 0), (-1, 0, 0), (-1, 0, 0), (-1, 0, 0), (0, 0.998759, 0.0498137), (0, 0.998759, 0.0498137), (0, 0.998759, 0.0498137), (0, 0.998759, 0.0498137), (0, 0.998759, 0.0498137), (0, 0.998759, 0.0498137), (0, 0, 1), (0, 0, 1), (0, 0, 1), (0, 0, 1), (0, 0, 1), (0, 0, 1), (-1, 0, 0), (-1, 0, 0), (-1, 0, 0), (-1, 0, 0), (-1, 0, 0), (-1, 0, 0), (-1, 0, 0), (-1, 0, 0), (-1, 0, 0), (-1, 0, 0), (-1, 0, 0), (-1, 0, 0), (-1, 0, 0), (-1, 0, 0), (-1, 0, 0), (-1, 0, 0), (-1, 0, 0), (-1, 0, 0), (-1, 0, 0), (-1, 0, 0), (-1, 0, 0), (0, -0.987633, 0.156783), (0, -0.987633, 0.156783), (0, -0.987633, 0.156783), (0, -0.987633, 0.156783), (0, -0.987633, 0.156783), (0, -0.987633, 0.156783), (0, -0.987633, 0.156783), (0, -0.987633, 0.156783), (0, -0.987633, 0.156783), (0, -0.987633, 0.156783), (0, -0.987633, 0.156783), (0, -0.987633, 0.156783), (0, -0.987633, 0.156783), (0, -0.987633, 0.156783), (0, -0.987633, 0.156783), (0, -0.987633, 0.156783), (0, -0.987633, 0.156783), (0, -0.987633, 0.156783), (0, -0.987633, 0.156783), (0, -0.987633, 0.156783), (0, -0.987633, 0.156783), (0, -0.987633, 0.156783), (0, -0.987633, 0.156783), (0, -0.987633, 0.156783), (1, 0, 0), (1, 0, 0), (1, 0, 0), (1, 0, 0), (1, 0, 0), (1, 0, 0), (1, 0, 0), (1, 0, 0), (1, 0, 0), (1, 0, 0), (1, 0, 0), (1, 0, 0), (1, 0, 0), (1, 0, 0), (1, 0, 0), (1, 0, 0), (1, 0, 0), (1, 0, 0), (1, 0, 0), (1, 0, 0), (1, 0, 0), (0, 1, 0), (0, 1, 0), (0, 1, 0), (0, 1, 0), (0, 1, 0), (0, 1, 0), (0, 1, 0), (0, 1, 0), (0, 1, 0), (0, 1, 0), (0, 1, 0), (0, 1, 0), (0, 1, 0), (0, 1, 0), (0, 1, 0), (0, 1, 0), (0, 1, 0), (0, 1, 0), (0, 1, 0), (0, 1, 0), (0, 1, 0)] (interpolation = "faceVarying")
        texCoord2f[] primvars:st = [(-7.87402, -12.3163), (7.87402, -20.1904), (7.87402, -12.3163), (7.87402, -20.1904), (-7.87402, -12.3163), (7.87402, -35.9384), (7.87402, -35.9384), (-7.87402, -12.3163), (-7.87402, -20.1904), (-7.87402, -35.9384), (7.87402, -35.9384), (-7.87402, -20.1904), (-7.87402, -39.8754), (7.87402, -35.9384), (-7.87402, -35.9384), (7.87402, -35.9384), (-7.87402, -39.8754), (7.87402, -39.8754), (7.87402, 19.685), (-7.87402, 3.93701), (7.87402, 3.93701), (-7.87402, 3.93701), (7.87402, 19.685), (3.93701, 19.685), (-3.93701, 19.685), (-7.87402, 3.93701), (3.93701, 19.685), (3.93701, 29.5276), (-3.93701, 19.685), (3.93701, 19.685), (-3.93701, 19.685), (3.93701, 29.5276), (-3.93701, 29.5276), (-7.87402, 3.93701), (-3.93701, 19.685), (-7.87402, 19.685), (-17.7165, 15.748), (-23.6221, 7.87402), (-17.7165, 7.87402), (-23.6221, 7.87402), (-17.7165, 15.748), (-23.6221, 15.748), (7.87402, 19.1797), (23.6221, -8.37934), (23.6221, 3.43168), (23.6221, -8.37934), (7.87402, 19.1797), (23.6221, -20.1904), (23.6221, -20.1904), (7.87402, 19.1797), (7.87402, -20.1904), (7.87402, -20.1904), (7.87402, 19.1797), (7.87402, -12.3163), (14.2767, 15.748), (10.3397, 11.811), (14.2767, -8.07371e-15), (10.3397, 11.811), (14.2767, 15.748), (-7.99434, 15.748), (10.3397, 11.811), (-7.99434, 15.748), (-4.05733, 11.811), (-4.05733, 11.811), (-7.99434, 15.748), (-4.05733, 3.93701), (10.3397, 3.93701), (14.2767, -8.07371e-15), (10.3397, 11.811), (14.2767, -8.07371e-15), (10.3397, 3.93701), (-7.99434, -8.07371e-15), (-7.99434, -8.07371e-15), (10.3397, 3.93701), (-4.05733, 3.93701), (-7.99434, -8.07371e-15), (-4.05733, 3.93701), (-7.99434, 15.748), (-7.99434, -8.07371e-15), (-7.99434, 15.748), (-7.99434, 8.96572), (-7.99434, -8.07371e-15), (-7.99434, 8.96572), (-7.99434, 3.93701), (-3.43168, 15.748), (20.1904, 7.87402), (20.1904, 15.748), (20.1904, 7.87402), (-3.43168, 15.748), (8.37934, 7.87402), (8.37934, 7.87402), (-3.43168, 15.748), (8.37934, 0), (8.37934, 0), (-3.43168, 15.748), (-3.43168, 0), (39.8754, 19.685), (35.9384, 15.748), (39.8754, 3.93701), (35.9384, 15.748), (39.8754, 19.685), (12.3163, 27.5591), (35.9384, 15.748), (12.3163, 27.5591), (32.0014, 15.748), (32.0014, 15.748), (12.3163, 27.5591), (20.1904, 19.685), (20.1904, 19.685), (12.3163, 27.5591), (12.3163, 19.685), (35.9384, 3.93701), (39.8754, 3.93701), (35.9384, 15.748), (7.87402, -32.9333), (3.93701, -16.5551), (3.93701, -32.9333), (7.87402, -4.27141), (3.93701, -16.5551), (7.87402, -32.9333), (7.87402, -4.27141), (-3.93701, -16.5551), (3.93701, -16.5551), (-7.87402, -4.27141), (-3.93701, -16.5551), (7.87402, -4.27141), (-7.87402, -4.27141), (-3.93701, -32.9333), (-3.93701, -16.5551), (-3.93701, -32.9333), (-7.87402, -4.27141), (-7.87402, -32.9333), (35.9384, 29.5276), (39.8754, 19.685), (39.8754, 29.5276), (39.8754, 19.685), (35.9384, 29.5276), (24.1274, 24.1845), (-39.8754, 19.685), (-35.9384, 29.5276), (-39.8754, 29.5276), (-35.9384, 29.5276), (-39.8754, 19.685), (-24.1274, 24.1845), (-3.93701, 44.9141), (3.93701, 31.9507), (3.93701, 44.9141), (3.93701, 31.9507), (-3.93701, 44.9141), (-3.93701, 31.9507), (3.93701, -39.8754), (-3.93701, -35.9384), (-3.93701, -39.8754), (-3.93701, -35.9384), (3.93701, -39.8754), (3.93701, -35.9384), (-12.3163, 1.13687e-13), (-20.1904, 3.93701), (-20.1904, 1.13687e-13), (-20.1904, 3.93701), (-12.3163, 1.13687e-13), (-12.3163, 3.93701), (12.3163, 3.93701), (20.1904, -1.64164e-27), (20.1904, 3.93701), (20.1904, -1.64164e-27), (12.3163, 3.93701), (12.3163, -1.64164e-27), (23.6221, 15.748), (17.7165, 7.87402), (23.6221, 7.87402), (17.7165, 7.87402), (23.6221, 15.748), (17.7165, 15.748), (-23.6221, 3.43168), (-7.87402, -12.3163), (-7.87402, 19.1797), (-7.87402, -12.3163), (-23.6221, 3.43168), (-7.87402, -20.1904), (-7.87402, -20.1904), (-23.6221, 3.43168), (-23.6221, -20.1904), (-23.6221, -20.1904), (-23.6221, 3.43168), (-23.6221, -8.37934), (-14.2767, 1.00567e-14), (-10.3397, 3.93701), (-14.2767, 15.748), (-10.3397, 3.93701), (-14.2767, 1.00567e-14), (7.99434, 1.00567e-14), (-10.3397, 3.93701), (7.99434, 1.00567e-14), (4.05733, 3.93701), (4.05733, 3.93701), (7.99434, 1.00567e-14), (4.05733, 11.811), (-10.3397, 11.811), (-14.2767, 15.748), (-10.3397, 3.93701), (-14.2767, 15.748), (-10.3397, 11.811), (7.99434, 15.748), (7.99434, 15.748), (-10.3397, 11.811), (4.05733, 11.811), (7.99434, 15.748), (4.05733, 11.811), (7.99434, 1.00567e-14), (7.99434, 15.748), (7.99434, 1.00567e-14), (7.99434, 3.93701), (7.99434, 15.748), (7.99434, 3.93701), (7.99434, 8.96572), (3.43168, 0), (-8.37934, 7.87402), (-8.37934, 0), (3.43168, 15.748), (-8.37934, 7.87402), (3.43168, 0), (-20.1904, 15.748), (-8.37934, 7.87402), (3.43168, 15.748), (-8.37934, 7.87402), (-20.1904, 15.748), (-20.1904, 7.87402), (-7.87402, -4.44233), (-13.7795, 3.43168), (-13.7795, -4.44233), (-13.7795, 3.43168), (-7.87402, -4.44233), (-7.87402, 8.36021), (-7.87402, 19.1797), (-13.7795, 3.43168), (-7.87402, 8.36021), (-7.87402, 19.1797), (-17.7165, 3.43168), (-13.7795, 3.43168), (-23.6221, 3.43168), (-17.7165, 3.43168), (-7.87402, 19.1797), (-23.6221, 3.43168), (-17.7165, -20.1904), (-17.7165, 3.43168), (-17.7165, -20.1904), (-23.6221, 3.43168), (-23.6221, -20.1904), (-35.9384, 3.93701), (-39.8754, 19.685), (-39.8754, 3.93701), (-39.8754, 19.685), (-35.9384, 3.93701), (-35.9384, 15.748), (-39.8754, 19.685), (-35.9384, 15.748), (-12.3163, 27.5591), (-12.3163, 27.5591), (-35.9384, 15.748), (-32.0014, 15.748), (-12.3163, 27.5591), (-32.0014, 15.748), (-20.1904, 19.685), (-12.3163, 27.5591), (-20.1904, 19.685), (-12.3163, 19.685), (-7.87402, -2.0546), (7.87402, -9.91884), (7.87402, -2.0546), (7.87402, -9.91884), (-7.87402, -2.0546), (-7.87402, -9.91884), (7.87402, 10.5077), (-7.87402, 7.22237), (7.87402, 7.22237), (-7.87402, 7.22237), (7.87402, 10.5077), (-7.87402, 10.5077), (8.36021, 15.748), (3.43168, 27.5591), (3.43168, 18.8375), (3.43168, 27.5591), (8.36021, 15.748), (11.2862, 27.1673), (11.2862, 27.1673), (8.36021, 15.748), (19.1797, 15.748), (11.2862, 27.1673), (19.1797, 15.748), (39.8754, 10.5077), (39.8754, 10.5077), (19.1797, 15.748), (19.1797, 8.96572), (39.8754, 10.5077), (19.1797, 8.96572), (25.5808, 4.95315), (39.8754, 10.5077), (25.5808, 4.95315), (39.8754, 7.22237), (-7.87402, 40.5146), (7.87402, 26.041), (7.87402, 40.5146), (7.87402, 26.041), (-7.87402, 40.5146), (1.9685, 27.5324), (7.87402, 26.041), (1.9685, 27.5324), (7.87402, 19.5598), (1.9685, 27.5324), (-7.87402, 40.5146), (-1.9685, 27.5324), (-1.9685, 27.5324), (-7.87402, 40.5146), (-1.9685, 19.5598), (-1.9685, 19.5598), (-7.87402, 40.5146), (-7.87402, 19.5598), (-7.87402, 19.5598), (-7.87402, 40.5146), (-7.87402, 26.041), (1.9685, 19.5598), (7.87402, 19.5598), (1.9685, 27.5324), (-11.2862, 27.1673), (-3.43168, 18.8375), (-3.43168, 27.5591), (-3.43168, 18.8375), (-11.2862, 27.1673), (-8.36021, 15.748), (-8.36021, 15.748), (-11.2862, 27.1673), (-19.1797, 15.748), (-19.1797, 15.748), (-11.2862, 27.1673), (-39.8754, 10.5077), (-19.1797, 15.748), (-39.8754, 10.5077), (-19.1797, 8.96572), (-19.1797, 8.96572), (-39.8754, 10.5077), (-25.5808, 4.95315), (-25.5808, 4.95315), (-39.8754, 10.5077), (-39.8754, 7.22237), (23.6221, -20.1904), (17.7165, 3.43168), (17.7165, -20.1904), (23.6221, 3.43168), (17.7165, 3.43168), (23.6221, -20.1904), (23.6221, 3.43168), (13.7795, 3.43168), (17.7165, 3.43168), (7.87402, 19.1797), (13.7795, 3.43168), (23.6221, 3.43168), (7.87402, 19.1797), (7.87402, -4.44233), (13.7795, 3.43168), (7.87402, -4.44233), (7.87402, 19.1797), (7.87402, 8.36021), (13.7795, 3.43168), (7.87402, -4.44233), (13.7795, -4.44233)] (interpolation = "faceVarying")
        uniform token subdivisionScheme = "none"
        rel material:binding = </Vehicle/Materials/metalRed>
    }
    def Scope "Materials" {
        def Material "metal" {
            token outputs:surface.connect = </Vehicle/Materials/metal/surface.outputs:surface>
            def Shader "surface" {
                uniform token info:id = "UsdPreviewSurface"
                float inputs:roughness = 0.7
                float inputs:metallic = 0
                color3f inputs:diffuseColor = (0.843137, 0.870588, 0.909804)
                token outputs:surface
            }
        }
        def Material "metalDark" {
            token outputs:surface.connect = </Vehicle/Materials/metalDark/surface.outputs:surface>
            def Shader "surface" {
                uniform token info:id = "UsdPreviewSurface"
                float inputs:roughness = 0.7
                float inputs:metallic = 0
                color3f inputs:diffuseColor = (0.675062, 0.710022, 0.773585)
                token outputs:surface
            }
        }
        def Material "dark" {
            token outputs:surface.connect = </Vehicle/Materials/dark/surface.outputs:surface>
            def Shader "surface" {
                uniform token info:id = "UsdPreviewSurface"
                float inputs:roughness = 0.7
                float inputs:metallic = 0
                color3f inputs:diffuseColor = (0.27451, 0.298039, 0.341176)
                token outputs:surface
            }
        }
        def Material "metalRed" {
            token outputs:surface.connect = </Vehicle/Materials/metalRed/surface.outputs:surface>
            def Shader "surface" {
                uniform token info:id = "UsdPreviewSurface"
                float inputs:roughness = 0.7
                float inputs:metallic = 0
                color3f inputs:diffuseColor = (1, 0.628524, 0.20283)
                token outputs:surface
            }
        }
    }
}
