#usda 1.0
(
    defaultPrim = "Vehicle"
    metersPerUnit = 1
    upAxis = "Y"
)
def Xform "Vehicle" {
    def Mesh "mesh_metal" {
        int[] faceVertexCounts = [3, 3, 3, 3, 3, 3, 3, 3, 3, 3, 3, 3, 3, 3, 3, 3, 3, 3, 3, 3, 3, 3, 3, 3, 3, 3, 3, 3, 3, 3, 3, 3, 3, 3, 3, 3, 3, 3, 3, 3, 3, 3, 3, 3, 3, 3, 3, 3, 3, 3, 3, 3, 3, 3, 3, 3, 3, 3, 3, 3, 3]
        int[] faceVertexIndices = [2, 1, 0, 1, 2, 3, 6, 5, 4, 5, 6, 7, 7, 2, 5, 2, 7, 3, 1, 4, 0, 4, 1, 6, 2, 4, 5, 4, 2, 0, 10, 9, 8, 9, 10, 11, 9, 12, 8, 12, 9, 13, 12, 13, 14, 14, 11, 10, 14, 13, 15, 14, 15, 11, 18, 17, 16, 17, 18, 19, 19, 18, 20, 22, 18, 21, 18, 22, 20, 23, 20, 22, 20, 23, 19, 18, 24, 21, 24, 18, 16, 23, 24, 25, 24, 23, 21, 21, 23, 22, 28, 27, 26, 27, 28, 29, 29, 28, 30, 29, 30, 31, 31, 30, 32, 32, 30, 33, 27, 33, 26, 33, 27, 32, 36, 35, 34, 35, 36, 37, 34, 38, 36, 38, 34, 39, 41, 39, 40, 39, 41, 38, 36, 41, 37, 41, 36, 38, 41, 35, 37, 35, 41, 40, 44, 43, 42, 43, 44, 45, 45, 44, 46, 49, 48, 47, 48, 49, 50, 43, 49, 51, 49, 43, 50, 50, 43, 45, 48, 52, 47, 52, 48, 44, 44, 48, 46, 46, 50, 45, 50, 46, 48]
        point3f[] points = [(1.4, 0.15, -0.212835), (0.8, 0.2, -0.0128353), (1.4, 0.25, -0.212835), (0.8, 0.4, -0.0128353), (1.4, 0.15, -0.512835), (1.4, 0.25, -0.512835), (0.8, 0.2, -0.512835), (0.8, 0.4, -0.512835), (0.2, 0.2, -1.11284), (0.25, 0.264039, -1.11284), (0.2, 0.6, -1.11284), (0.25, 0.535961, -1.11284), (0.6, 0.3, -1.11284), (0.55, 0.339039, -1.11284), (0.6, 0.5, -1.11284), (0.55, 0.460961, -1.11284), (0.4, 0.4, -0.112835), (0.2, 0.4, -0.112835), (0.4, 0.45, -0.112835), (0.2, 0.5, -0.112835), (0.3, 0.5, -0.112835), (0.4, 0.45, -0.212835), (0.3, 0.5, -0.212835), (0.2, 0.5, -0.212835), (0.4, 0.4, -0.212835), (0.2, 0.4, -0.212835), (-0.2, 0.2, -1.11284), (-0.25, 0.264039, -1.11284), (-0.6, 0.3, -1.11284), (-0.55, 0.339039, -1.11284), (-0.6, 0.5, -1.11284), (-0.55, 0.460961, -1.11284), (-0.25, 0.535961, -1.11284), (-0.2, 0.6, -1.11284), (-0.8, 0.2, -0.0128353), (-0.8, 0.2, -0.512835), (-1.4, 0.15, -0.212835), (-1.4, 0.15, -0.512835), (-1.4, 0.25, -0.212835), (-0.8, 0.4, -0.0128353), (-0.8, 0.4, -0.512835), (-1.4, 0.25, -0.512835), (-0.2, 0.5, -0.160829), (-0.2, 0.5, -0.112835), (-0.2, 0.5, -0.212835), (-0.3, 0.5, -0.112835), (-0.3, 0.5, -0.212835), (-0.4, 0.4, -0.212835), (-0.4, 0.45, -0.212835), (-0.4, 0.4, -0.112835), (-0.4, 0.45, -0.112835), (-0.2, 0.4, -0.112835), (-0.2, 0.4, -0.212835), (0.6, 0.2, -0.512835), (0.6, 0.3, -0.512835), (0.6, 0.4, -0.512835), (0.6, 0.2, 0.0538313), (0.6, 0.3, 0.0538313), (0.2, 0.3, 0.187165), (0.2, 0.4, 0.187165), (0.6, 0.5, -0.912835), (0.6, 0.5, -0.512835), (0.2, 0.2, -0.512835), (0.2, 0.2, -0.912835), (0.2, 0.2, -0.712835), (0.2, 0.4, -0.512835), (0.2, 0.6, -0.512835), (0.405971, 0.548507, -0.512835), (0.405971, 0.548507, -0.912835), (0.2, 0.6, -0.912835), (0.2, 0, 0.487165), (-0.2, 0, 0.487165), (0.2, 0.2, 0.487165), (-0.2, 0.2, 0.487165), (0.2, 5.77529e-15, -0.712835), (0.2, 0, -0.512835), (-0.2, 6.97018e-16, -0.512835), (-0.2, 1.6677e-29, -0.712835), (-0.2, 0.2, -0.712835), (0.05, 0.85, 0.187165), (-0.05, 0.85, 0.187165), (0.05, 0.9, 0.0871648), (-0.05, 0.9, 0.0871648), (0.05, 0.8, 0.187165), (0.00654316, 0.8, 0.187165), (-0.05, 0.8, 0.187165), (-0.05, 0.9, -0.212835), (-0.05, 0.8, -0.212835), (2.21729e-05, 0.8, -0.212835), (0.05, 0.8, -0.212835), (0.05, 0.9, -0.212835), (-0.2, 0.2, -0.512835), (-0.6, 0.3, -0.512835), (-0.2, 0.2, -0.912835), (-0.2, 0.6, -0.912835), (-0.6, 0.5, -0.912835), (-0.6, 0.4, -0.512835), (-0.6, 0.5, -0.512835), (-0.2, 0.4, -0.512835), (-0.2, 0.6, -0.512835), (-0.405971, 0.548507, -0.512835), (-0.2, 0.4, 0.187165), (-0.6, 0.2, 0.0538313), (-0.6, 0.2, -0.512835), (-0.2, 0.3, 0.187165), (-0.6, 0.3, 0.0538313), (0.2, 0.2, 0.587165), (-0.2, 0.2, 0.587165), (0.2, 0.239215, 0.834197), (-0.2, 0.239215, 0.834197), (0.2, 0.5, 0.386668), (0.2, 0.3, 0.487165), (-0.2, 0.3, 0.487165), (-0.2, 0.5, 0.386668), (-0.405971, 0.548507, -0.912835), (0.55, 0.339039, -1.01283), (0.25, 0.264039, -1.01283), (0.55, 0.460961, -1.01283), (0.25, 0.535961, -1.01283), (0.270711, 0.1, 0.157875), (0.529289, 0.1, 0.157875), (0.270711, 0.1, 0.416454), (0.270711, 0.2, 0.416454), (0.529289, 0.2, 0.157875), (0.270711, 0.2, 0.157875), (-0.25, 0.264039, -1.01283), (-0.25, 0.535961, -1.01283), (-0.55, 0.339039, -1.01283), (-0.55, 0.460961, -1.01283), (-0.270711, 0.1, 0.157875), (-0.270711, 0.2, 0.157875), (-0.270711, 0.1, 0.416454), (-0.270711, 0.2, 0.416454), (-0.529289, 0.1, 0.157875), (-0.529289, 0.2, 0.157875), (0.1, 0.766896, 0.712835), (0.2, 0.79005, 0.386668), (0.2, 0.366897, 1.11284), (-0.2, 0.79005, 0.386668), (-0.0999999, 0.766896, 0.712835), (-0.2, 0.366897, 1.11284), (0.632915, 0.631662, -0.912835), (0.632915, 0.631662, -0.812835), (0.438887, 0.680169, -0.912835), (0.438887, 0.680169, -0.812835), (0.6, 0, 0.0871648), (0.6, 0, -0.512835), (0.6, 0.3, 0.0871648), (0.2, 0.7, -0.912835), (0.2, 0.8, -0.212835), (-0.2, 0.7, -0.912835), (-0.2, 0.8, -0.212835), (0.2, 0.8, 0.187165), (-0.2, 0.8, 0.187165), (-0.6, 0, -0.512835), (-0.6, 0, 0.0871648), (-0.6, 0.3, 0.0871648), (-0.2, 0.283448, 1.11284), (0.2, 0.283448, 1.11284), (-0.438887, 0.680169, -0.812835), (-0.632915, 0.631662, -0.812835), (-0.438887, 0.680169, -0.912835), (-0.632915, 0.631662, -0.912835)]
        normal3f[] normals = [(0.316228, 0, 0.948683), (0.316228, 0, 0.948683), (0.316228, 0, 0.948683), (0.316228, 0, 0.948683), (0.316228, 0, 0.948683), (0.316228, 0, 0.948683), (0, 0, -1), (0, 0, -1), (0, 0, -1), (0, 0, -1), (0, 0, -1), (0, 0, -1), (0.242536, 0.970143, 0), (0.242536, 0.970143, 0), (0.242536, 0.970143, 0), (0.242536, 0.970143, 0), (0.242536, 0.970143, 0), (0.242536, 0.970143, 0), (-0.0830455, -0.996546, 0), (-0.0830455, -0.996546, 0), (-0.0830455, -0.996546, 0), (-0.0830455, -0.996546, 0), (-0.0830455, -0.996546, 0), (-0.0830455, -0.996546, 0), (1, 0, 0), (1, 0, 0), (1, 0, 0), (1, 0, 0), (1, 0, 0), (1, 0, 0), (0, 0, -1), (0, 0, -1), (0, 0, -1), (0, 0, -1), (0, 0, -1), (0, 0, -1), (0, 0, -1), (0, 0, -1), (0, 0, -1), (0, 0, -1), (0, 0, -1), (0, 0, -1), (0, 0, -1), (0, 0, -1), (0, 0, -1), (0, 0, -1), (0, 0, -1), (0, 0, -1), (0, 0, -1), (0, 0, -1), (0, 0, -1), (0, 0, -1), (0, 0, -1), (0, 0, -1), (0, 0, 1), (0, 0, 1), (0, 0, 1), (0, 0, 1), (0, 0, 1), (0, 0, 1), (0, 0, 1), (0, 0, 1), (0, 0, 1), (0.447214, 0.894427, 0), (0.447214, 0.894427, 0), (0.447214, 0.894427, 0), (0.447214, 0.894427, 0), (0.447214, 0.894427, 0), (0.447214, 0.894427, 0), (0, 1, 0), (0, 1, 0), (0, 1, 0), (0, 1, 0), (0, 1, 0), (0, 1, 0), (1, 0, 0), (1, 0, 0), (1, 0, 0), (1, 0, 0), (1, 0, 0), (1, 0, 0), (0, 0, -1), (0, 0, -1), (0, 0, -1), (0, 0, -1), (0, 0, -1), (0, 0, -1), (0, 0, -1), (0, 0, -1), (0, 0, -1), (0, 0, -1), (0, 0, -1), (0, 0, -1), (0, 0, -1), (0, 0, -1), (0, 0, -1), (0, 0, -1), (0, 0, -1), (0, 0, -1), (0, 0, -1), (0, 0, -1), (0, 0, -1), (0, 0, -1), (0, 0, -1), (0, 0, -1), (0, 0, -1), (0, 0, -1), (0, 0, -1), (0, 0, -1), (0, 0, -1), (0, 0, -1), (0, 0, -1), (0, 0, -1), (0, 0, -1), (0.0830455, -0.996546, 0), (0.0830455, -0.996546, 0), (0.0830455, -0.996546, 0), (0.0830455, -0.996546, 0), (0.0830455, -0.996546, 0), (0.0830455, -0.996546, 0), (-0.316228, 0, 0.948683), (-0.316228, 0, 0.948683), (-0.316228, 0, 0.948683), (-0.316228, 0, 0.948683), (-0.316228, 0, 0.948683), (-0.316228, 0, 0.948683), (-0.242536, 0.970143, 0), (-0.242536, 0.970143, 0), (-0.242536, 0.970143, 0), (-0.242536, 0.970143, 0), (-0.242536, 0.970143, 0), (-0.242536, 0.970143, 0), (-1, 0, 0), (-1, 0, 0), (-1, 0, 0), (-1, 0, 0), (-1, 0, 0), (-1, 0, 0), (0, 0, -1), (0, 0, -1), (0, 0, -1), (0, 0, -1), (0, 0, -1), (0, 0, -1), (0, 1, 0), (0, 1, 0), (0, 1, 0), (0, 1, 0), (0, 1, 0), (0, 1, 0), (0, 1, 0), (0, 1, 0), (0, 1, 0), (-1, 0, 0), (-1, 0, 0), (-1, 0, 0), (-1, 0, 0), (-1, 0, 0), (-1, 0, 0), (0, 0, 1), (0, 0, 1), (0, 0, 1), (0, 0, 1), (0, 0, 1), (0, 0, 1), (0, 0, 1), (0, 0, 1), (0, 0, 1), (0, 0, -1), (0, 0, -1), (0, 0, -1), (0, 0, -1), (0, 0, -1), (0, 0, -1), (0, 0, -1), (0, 0, -1), (0, 0, -1), (-0.447214, 0.894427, 0), (-0.447214, 0.894427, 0), (-0.447214, 0.894427, 0), (-0.447214, 0.894427, 0), (-0.447214, 0.894427, 0), (-0.447214, 0.894427, 0)] (interpolation = "faceVarying")
        texCoord2f[] primvars:st = [(54.9394, 9.84252), (30.0396, 7.87402), (54.9394, 5.90551), (30.0396, 7.87402), (54.9394, 9.84252), (30.0396, 15.748), (-31.4961, 7.87402), (-55.1181, 9.84252), (-55.1181, 5.90551), (-55.1181, 9.84252), (-31.4961, 7.87402), (-31.4961, 15.748), (20.1904, -26.7362), (8.37934, -51.0853), (20.1904, -51.0853), (8.37934, -51.0853), (20.1904, -26.7362), (0.505327, -26.7362), (-0.505327, -30.7334), (-20.1904, -54.4373), (-8.37934, -54.4373), (-20.1904, -54.4373), (-0.505327, -30.7334), (-20.1904, -30.7334), (8.37934, 9.84252), (20.1904, 5.90551), (20.1904, 9.84252), (20.1904, 5.90551), (8.37934, 9.84252), (8.37934, 5.90551), (-7.87402, 23.6221), (-9.84252, 10.3952), (-7.87402, 7.87402), (-9.84252, 10.3952), (-7.87402, 23.6221), (-9.84252, 21.1008), (-9.84252, 10.3952), (-23.6221, 11.811), (-7.87402, 7.87402), (-23.6221, 11.811), (-9.84252, 10.3952), (-21.6535, 13.348), (-23.6221, 11.811), (-21.6535, 13.348), (-23.6221, 19.685), (-23.6221, 19.685), (-9.84252, 21.1008), (-7.87402, 23.6221), (-23.6221, 19.685), (-21.6535, 13.348), (-21.6535, 18.1481), (-23.6221, 19.685), (-21.6535, 18.1481), (-9.84252, 21.1008), (15.748, 17.7165), (7.87402, 15.748), (15.748, 15.748), (7.87402, 15.748), (15.748, 17.7165), (7.87402, 19.685), (7.87402, 19.685), (15.748, 17.7165), (11.811, 19.685), (8.37934, -1.76068), (4.44233, -6.16239), (8.37934, -6.16239), (4.44233, -6.16239), (8.37934, -1.76068), (4.44233, -1.76068), (-7.87402, -8.37934), (-11.811, -4.44233), (-11.811, -8.37934), (-11.811, -4.44233), (-7.87402, -8.37934), (-7.87402, -4.44233), (4.44233, 17.7165), (8.37934, 15.748), (8.37934, 17.7165), (8.37934, 15.748), (4.44233, 17.7165), (4.44233, 15.748), (-7.87402, 19.685), (-15.748, 15.748), (-7.87402, 15.748), (-15.748, 15.748), (-7.87402, 19.685), (-15.748, 17.7165), (-15.748, 17.7165), (-7.87402, 19.685), (-11.811, 19.685), (23.6221, 11.811), (9.84252, 10.3952), (7.87402, 7.87402), (9.84252, 10.3952), (23.6221, 11.811), (21.6535, 13.348), (21.6535, 13.348), (23.6221, 11.811), (23.6221, 19.685), (21.6535, 13.348), (23.6221, 19.685), (21.6535, 18.1481), (21.6535, 18.1481), (23.6221, 19.685), (9.84252, 21.1008), (9.84252, 21.1008), (23.6221, 19.685), (7.87402, 23.6221), (9.84252, 10.3952), (7.87402, 23.6221), (7.87402, 7.87402), (7.87402, 23.6221), (9.84252, 10.3952), (9.84252, 21.1008), (8.37934, -54.4373), (20.1904, -30.7334), (0.505327, -30.7334), (20.1904, -30.7334), (8.37934, -54.4373), (20.1904, -54.4373), (-30.0396, 7.87402), (-54.9394, 9.84252), (-54.9394, 5.90551), (-54.9394, 9.84252), (-30.0396, 7.87402), (-30.0396, 15.748), (-20.1904, -51.0853), (-0.505327, -26.7362), (-20.1904, -26.7362), (-0.505327, -26.7362), (-20.1904, -51.0853), (-8.37934, -51.0853), (-8.37934, 5.90551), (-20.1904, 9.84252), (-20.1904, 5.90551), (-20.1904, 9.84252), (-8.37934, 5.90551), (-8.37934, 9.84252), (55.1181, 9.84252), (31.4961, 7.87402), (55.1181, 5.90551), (31.4961, 7.87402), (55.1181, 9.84252), (31.4961, 15.748), (7.87402, -8.37934), (7.87402, -4.44233), (7.87402, -6.33183), (7.87402, -4.44233), (7.87402, -8.37934), (11.811, -4.44233), (11.811, -4.44233), (7.87402, -8.37934), (11.811, -8.37934), (-4.44233, 15.748), (-8.37934, 17.7165), (-8.37934, 15.748), (-8.37934, 17.7165), (-4.44233, 15.748), (-4.44233, 17.7165), (-7.87402, 19.685), (-15.748, 15.748), (-7.87402, 15.748), (-15.748, 15.748), (-7.87402, 19.685), (-15.748, 17.7165), (-15.748, 17.7165), (-7.87402, 19.685), (-11.811, 19.685), (15.748, 17.7165), (7.87402, 15.748), (15.748, 15.748), (7.87402, 15.748), (15.748, 17.7165), (7.87402, 19.685), (7.87402, 19.685), (15.748, 17.7165), (11.811, 19.685), (-8.37934, -1.76068), (-4.44233, -6.16239), (-4.44233, -1.76068), (-4.44233, -6.16239), (-8.37934, -1.76068), (-8.37934, -6.16239)] (interpolation = "faceVarying")
        uniform token subdivisionScheme = "none"
        rel material:binding = </Vehicle/Materials/metal>
    }
    def Mesh "mesh_metalDark" {
        int[] faceVertexCounts = [3, 3, 3, 3, 3, 3, 3, 3, 3, 3, 3, 3, 3, 3, 3, 3, 3, 3, 3, 3, 3, 3, 3, 3, 3, 3, 3, 3, 3, 3, 3, 3, 3, 3, 3, 3, 3, 3, 3, 3, 3, 3, 3, 3, 3, 3, 3, 3, 3, 3, 3, 3, 3, 3, 3, 3, 3, 3, 3, 3, 3, 3, 3, 3, 3, 3, 3, 3, 3, 3, 3, 3, 3, 3, 3, 3, 3, 3, 3, 3, 3, 3, 3, 3, 3, 3, 3, 3, 3, 3, 3, 3, 3, 3, 3, 3, 3, 3, 3, 3, 3, 3, 3, 3, 3, 3, 3, 3, 3, 3, 3, 3, 3, 3]
        int[] faceVertexIndices = [54, 6, 53, 6, 54, 7, 7, 54, 55, 3, 56, 1, 56, 3, 57, 57, 3, 58, 58, 3, 59, 56, 6, 1, 6, 56, 53, 60, 12, 14, 12, 60, 54, 54, 60, 61, 54, 61, 55, 62, 12, 54, 12, 62, 63, 63, 62, 64, 8, 12, 63, 61, 65, 55, 65, 61, 66, 66, 61, 67, 10, 60, 14, 60, 10, 68, 68, 10, 67, 67, 10, 66, 66, 10, 69, 63, 10, 8, 10, 63, 69, 72, 71, 70, 71, 72, 73, 62, 74, 64, 74, 62, 75, 71, 75, 70, 75, 71, 76, 77, 75, 76, 75, 77, 74, 78, 74, 77, 74, 78, 64, 65, 24, 55, 24, 65, 25, 16, 55, 24, 3, 55, 16, 55, 3, 7, 3, 16, 59, 59, 16, 17, 81, 80, 79, 80, 81, 82, 79, 84, 83, 84, 79, 85, 85, 79, 80, 87, 82, 86, 82, 87, 85, 82, 85, 80, 87, 89, 88, 89, 87, 90, 90, 87, 86, 90, 82, 81, 82, 90, 86, 81, 89, 90, 89, 81, 83, 83, 81, 79, 92, 78, 91, 78, 92, 93, 28, 93, 92, 93, 28, 26, 94, 26, 33, 26, 94, 93, 92, 30, 28, 30, 92, 95, 95, 92, 96, 97, 95, 96, 76, 78, 77, 78, 76, 91, 99, 96, 98, 96, 99, 97, 97, 99, 100, 96, 52, 98, 52, 96, 47, 39, 47, 96, 39, 49, 47, 101, 49, 39, 49, 101, 51, 39, 96, 40, 34, 103, 102, 103, 34, 35, 40, 103, 35, 103, 40, 92, 92, 40, 96, 101, 105, 104, 39, 105, 101, 34, 105, 39, 105, 34, 102, 107, 72, 106, 72, 107, 73, 109, 106, 108, 106, 109, 107, 110, 17, 19, 17, 110, 59, 59, 110, 58, 58, 110, 111, 111, 110, 108, 111, 108, 72, 72, 108, 106, 107, 112, 73, 109, 112, 107, 113, 112, 109, 113, 104, 112, 113, 101, 104, 43, 101, 113, 101, 43, 51, 30, 94, 33, 94, 30, 114, 94, 114, 99, 114, 30, 95, 100, 99, 114]
        point3f[] points = [(1.4, 0.15, -0.212835), (0.8, 0.2, -0.0128353), (1.4, 0.25, -0.212835), (0.8, 0.4, -0.0128353), (1.4, 0.15, -0.512835), (1.4, 0.25, -0.512835), (0.8, 0.2, -0.512835), (0.8, 0.4, -0.512835), (0.2, 0.2, -1.11284), (0.25, 0.264039, -1.11284), (0.2, 0.6, -1.11284), (0.25, 0.535961, -1.11284), (0.6, 0.3, -1.11284), (0.55, 0.339039, -1.11284), (0.6, 0.5, -1.11284), (0.55, 0.460961, -1.11284), (0.4, 0.4, -0.112835), (0.2, 0.4, -0.112835), (0.4, 0.45, -0.112835), (0.2, 0.5, -0.112835), (0.3, 0.5, -0.112835), (0.4, 0.45, -0.212835), (0.3, 0.5, -0.212835), (0.2, 0.5, -0.212835), (0.4, 0.4, -0.212835), (0.2, 0.4, -0.212835), (-0.2, 0.2, -1.11284), (-0.25, 0.264039, -1.11284), (-0.6, 0.3, -1.11284), (-0.55, 0.339039, -1.11284), (-0.6, 0.5, -1.11284), (-0.55, 0.460961, -1.11284), (-0.25, 0.535961, -1.11284), (-0.2, 0.6, -1.11284), (-0.8, 0.2, -0.0128353), (-0.8, 0.2, -0.512835), (-1.4, 0.15, -0.212835), (-1.4, 0.15, -0.512835), (-1.4, 0.25, -0.212835), (-0.8, 0.4, -0.0128353), (-0.8, 0.4, -0.512835), (-1.4, 0.25, -0.512835), (-0.2, 0.5, -0.160829), (-0.2, 0.5, -0.112835), (-0.2, 0.5, -0.212835), (-0.3, 0.5, -0.112835), (-0.3, 0.5, -0.212835), (-0.4, 0.4, -0.212835), (-0.4, 0.45, -0.212835), (-0.4, 0.4, -0.112835), (-0.4, 0.45, -0.112835), (-0.2, 0.4, -0.112835), (-0.2, 0.4, -0.212835), (0.6, 0.2, -0.512835), (0.6, 0.3, -0.512835), (0.6, 0.4, -0.512835), (0.6, 0.2, 0.0538313), (0.6, 0.3, 0.0538313), (0.2, 0.3, 0.187165), (0.2, 0.4, 0.187165), (0.6, 0.5, -0.912835), (0.6, 0.5, -0.512835), (0.2, 0.2, -0.512835), (0.2, 0.2, -0.912835), (0.2, 0.2, -0.712835), (0.2, 0.4, -0.512835), (0.2, 0.6, -0.512835), (0.405971, 0.548507, -0.512835), (0.405971, 0.548507, -0.912835), (0.2, 0.6, -0.912835), (0.2, 0, 0.487165), (-0.2, 0, 0.487165), (0.2, 0.2, 0.487165), (-0.2, 0.2, 0.487165), (0.2, 5.77529e-15, -0.712835), (0.2, 0, -0.512835), (-0.2, 6.97018e-16, -0.512835), (-0.2, 1.6677e-29, -0.712835), (-0.2, 0.2, -0.712835), (0.05, 0.85, 0.187165), (-0.05, 0.85, 0.187165), (0.05, 0.9, 0.0871648), (-0.05, 0.9, 0.0871648), (0.05, 0.8, 0.187165), (0.00654316, 0.8, 0.187165), (-0.05, 0.8, 0.187165), (-0.05, 0.9, -0.212835), (-0.05, 0.8, -0.212835), (2.21729e-05, 0.8, -0.212835), (0.05, 0.8, -0.212835), (0.05, 0.9, -0.212835), (-0.2, 0.2, -0.512835), (-0.6, 0.3, -0.512835), (-0.2, 0.2, -0.912835), (-0.2, 0.6, -0.912835), (-0.6, 0.5, -0.912835), (-0.6, 0.4, -0.512835), (-0.6, 0.5, -0.512835), (-0.2, 0.4, -0.512835), (-0.2, 0.6, -0.512835), (-0.405971, 0.548507, -0.512835), (-0.2, 0.4, 0.187165), (-0.6, 0.2, 0.0538313), (-0.6, 0.2, -0.512835), (-0.2, 0.3, 0.187165), (-0.6, 0.3, 0.0538313), (0.2, 0.2, 0.587165), (-0.2, 0.2, 0.587165), (0.2, 0.239215, 0.834197), (-0.2, 0.239215, 0.834197), (0.2, 0.5, 0.386668), (0.2, 0.3, 0.487165), (-0.2, 0.3, 0.487165), (-0.2, 0.5, 0.386668), (-0.405971, 0.548507, -0.912835), (0.55, 0.339039, -1.01283), (0.25, 0.264039, -1.01283), (0.55, 0.460961, -1.01283), (0.25, 0.535961, -1.01283), (0.270711, 0.1, 0.157875), (0.529289, 0.1, 0.157875), (0.270711, 0.1, 0.416454), (0.270711, 0.2, 0.416454), (0.529289, 0.2, 0.157875), (0.270711, 0.2, 0.157875), (-0.25, 0.264039, -1.01283), (-0.25, 0.535961, -1.01283), (-0.55, 0.339039, -1.01283), (-0.55, 0.460961, -1.01283), (-0.270711, 0.1, 0.157875), (-0.270711, 0.2, 0.157875), (-0.270711, 0.1, 0.416454), (-0.270711, 0.2, 0.416454), (-0.529289, 0.1, 0.157875), (-0.529289, 0.2, 0.157875), (0.1, 0.766896, 0.712835), (0.2, 0.79005, 0.386668), (0.2, 0.366897, 1.11284), (-0.2, 0.79005, 0.386668), (-0.0999999, 0.766896, 0.712835), (-0.2, 0.366897, 1.11284), (0.632915, 0.631662, -0.912835), (0.632915, 0.631662, -0.812835), (0.438887, 0.680169, -0.912835), (0.438887, 0.680169, -0.812835), (0.6, 0, 0.0871648), (0.6, 0, -0.512835), (0.6, 0.3, 0.0871648), (0.2, 0.7, -0.912835), (0.2, 0.8, -0.212835), (-0.2, 0.7, -0.912835), (-0.2, 0.8, -0.212835), (0.2, 0.8, 0.187165), (-0.2, 0.8, 0.187165), (-0.6, 0, -0.512835), (-0.6, 0, 0.0871648), (-0.6, 0.3, 0.0871648), (-0.2, 0.283448, 1.11284), (0.2, 0.283448, 1.11284), (-0.438887, 0.680169, -0.812835), (-0.632915, 0.631662, -0.812835), (-0.438887, 0.680169, -0.912835), (-0.632915, 0.631662, -0.912835)]
        normal3f[] normals = [(0, 0, -1), (0, 0, -1), (0, 0, -1), (0, 0, -1), (0, 0, -1), (0, 0, -1), (0, 0, -1), (0, 0, -1), (0, 0, -1), (0.316228, 0, 0.948683), (0.316228, 0, 0.948683), (0.316228, 0, 0.948683), (0.316228, 0, 0.948683), (0.316228, 0, 0.948683), (0.316228, 0, 0.948683), (0.316228, 0, 0.948683), (0.316228, 0, 0.948683), (0.316228, 0, 0.948683), (0.316228, 0, 0.948683), (0.316228, 0, 0.948683), (0.316228, 0, 0.948683), (0, -1, 0), (0, -1, 0), (0, -1, 0), (0, -1, 0), (0, -1, 0), (0, -1, 0), (1, 0, 0), (1, 0, 0), (1, 0, 0), (1, 0, 0), (1, 0, 0), (1, 0, 0), (1, 0, 0), (1, 0, 0), (1, 0, 0), (1, 0, 0), (1, 0, 0), (1, 0, 0), (0.242536, -0.970143, 0), (0.242536, -0.970143, 0), (0.242536, -0.970143, 0), (0.242536, -0.970143, 0), (0.242536, -0.970143, 0), (0.242536, -0.970143, 0), (0.242536, -0.970143, 0), (0.242536, -0.970143, 0), (0.242536, -0.970143, 0), (0.242536, -0.970143, 0), (0.242536, -0.970143, 0), (0.242536, -0.970143, 0), (0, 0, 1), (0, 0, 1), (0, 0, 1), (0, 0, 1), (0, 0, 1), (0, 0, 1), (0, 0, 1), (0, 0, 1), (0, 0, 1), (0.242536, 0.970143, 0), (0.242536, 0.970143, 0), (0.242536, 0.970143, 0), (0.242536, 0.970143, 0), (0.242536, 0.970143, 0), (0.242536, 0.970143, 0), (0.242536, 0.970143, 0), (0.242536, 0.970143, 0), (0.242536, 0.970143, 0), (0.242536, 0.970143, 0), (0.242536, 0.970143, 0), (0.242536, 0.970143, 0), (0.242536, 0.970143, 0), (0.242536, 0.970143, 0), (0.242536, 0.970143, 0), (-1, 0, 0), (-1, 0, 0), (-1, 0, 0), (-1, 0, 0), (-1, 0, 0), (-1, 0, 0), (0, 0, 1), (0, 0, 1), (0, 0, 1), (0, 0, 1), (0, 0, 1), (0, 0, 1), (1, 0, 0), (1, 0, 0), (1, 0, 0), (1, 0, 0), (1, 0, 0), (1, 0, 0), (0, -1, 0), (0, -1, 0), (0, -1, 0), (0, -1, 0), (0, -1, 0), (0, -1, 0), (0, -1, 0), (0, -1, 0), (0, -1, 0), (0, -1, 0), (0, -1, 0), (0, -1, 0), (0, 0, -1), (0, 0, -1), (0, 0, -1), (0, 0, -1), (0, 0, -1), (0, 0, -1), (0, 1, 0), (0, 1, 0), (0, 1, 0), (0, 1, 0), (0, 1, 0), (0, 1, 0), (0, 1, 0), (0, 1, 0), (0, 1, 0), (0, 1, 0), (0, 1, 0), (0, 1, 0), (0, 1, 0), (0, 1, 0), (0, 1, 0), (0, 1, 0), (0, 1, 0), (0, 1, 0), (0, 1, 0), (0, 1, 0), (0, 1, 0), (0, 0.894427, 0.447214), (0, 0.894427, 0.447214), (0, 0.894427, 0.447214), (0, 0.894427, 0.447214), (0, 0.894427, 0.447214), (0, 0.894427, 0.447214), (0, 0, 1), (0, 0, 1), (0, 0, 1), (0, 0, 1), (0, 0, 1), (0, 0, 1), (0, 0, 1), (0, 0, 1), (0, 0, 1), (-1, 0, 0), (-1, 0, 0), (-1, 0, 0), (-1, 0, 0), (-1, 0, 0), (-1, 0, 0), (-1, 0, 0), (-1, 0, 0), (-1, 0, 0), (0, 0, -1), (0, 0, -1), (0, 0, -1), (0, 0, -1), (0, 0, -1), (0, 0, -1), (0, 0, -1), (0, 0, -1), (0, 0, -1), (0, 1, 0), (0, 1, 0), (0, 1, 0), (0, 1, 0), (0, 1, 0), (0, 1, 0), (1, 0, 0), (1, 0, 0), (1, 0, 0), (1, 0, 0), (1, 0, 0), (1, 0, 0), (1, 0, 0), (1, 0, 0), (1, 0, 0), (-0.242536, -0.970143, 0), (-0.242536, -0.970143, 0), (-0.242536, -0.970143, 0), (-0.242536, -0.970143, 0), (-0.242536, -0.970143, 0), (-0.242536, -0.970143, 0), (-0.242536, -0.970143, 0), (-0.242536, -0.970143, 0), (-0.242536, -0.970143, 0), (-0.242536, -0.970143, 0), (-0.242536, -0.970143, 0), (-0.242536, -0.970143, 0), (1, 0, 0), (1, 0, 0), (1, 0, 0), (1, 0, 0), (1, 0, 0), (1, 0, 0), (-1, 0, 0), (-1, 0, 0), (-1, 0, 0), (-1, 0, 0), (-1, 0, 0), (-1, 0, 0), (-1, 0, 0), (-1, 0, 0), (-1, 0, 0), (-1, 0, 0), (-1, 0, 0), (-1, 0, 0), (-1, 0, 0), (-1, 0, 0), (-1, 0, 0), (-1, 0, 0), (-1, 0, 0), (-1, 0, 0), (0, 0, 1), (0, 0, 1), (0, 0, 1), (0, 0, 1), (0, 0, 1), (0, 0, 1), (0, 0, 1), (0, 0, 1), (0, 0, 1), (0, 1, 0), (0, 1, 0), (0, 1, 0), (0, 1, 0), (0, 1, 0), (0, 1, 0), (0, 1, 0), (0, 1, 0), (0, 1, 0), (0, 1, 0), (0, 1, 0), (0, 1, 0), (0, 1, 0), (0, 1, 0), (0, 1, 0), (0, 1, 0), (0, 1, 0), (0, 1, 0), (0, 1, 0), (0, 1, 0), (0, 1, 0), (0, -1, 0), (0, -1, 0), (0, -1, 0), (0, -1, 0), (0, -1, 0), (0, -1, 0), (0, 0, -1), (0, 0, -1), (0, 0, -1), (0, 0, -1), (0, 0, -1), (0, 0, -1), (0, 0, -1), (0, 0, -1), (0, 0, -1), (-0.316228, 0, 0.948683), (-0.316228, 0, 0.948683), (-0.316228, 0, 0.948683), (-0.316228, 0, 0.948683), (-0.316228, 0, 0.948683), (-0.316228, 0, 0.948683), (-0.316228, 0, 0.948683), (-0.316228, 0, 0.948683), (-0.316228, 0, 0.948683), (-0.316228, 0, 0.948683), (-0.316228, 0, 0.948683), (-0.316228, 0, 0.948683), (0, -1, 0), (0, -1, 0), (0, -1, 0), (0, -1, 0), (0, -1, 0), (0, -1, 0), (0, -0.987633, 0.156783), (0, -0.987633, 0.156783), (0, -0.987633, 0.156783), (0, -0.987633, 0.156783), (0, -0.987633, 0.156783), (0, -0.987633, 0.156783), (1, 0, 0), (1, 0, 0), (1, 0, 0), (1, 0, 0), (1, 0, 0), (1, 0, 0), (1, 0, 0), (1, 0, 0), (1, 0, 0), (1, 0, 0), (1, 0, 0), (1, 0, 0), (1, 0, 0), (1, 0, 0), (1, 0, 0), (1, 0, 0), (1, 0, 0), (1, 0, 0), (1, 0, 0), (1, 0, 0), (1, 0, 0), (-1, 0, 0), (-1, 0, 0), (-1, 0, 0), (-1, 0, 0), (-1, 0, 0), (-1, 0, 0), (-1, 0, 0), (-1, 0, 0), (-1, 0, 0), (-1, 0, 0), (-1, 0, 0), (-1, 0, 0), (-1, 0, 0), (-1, 0, 0), (-1, 0, 0), (-1, 0, 0), (-1, 0, 0), (-1, 0, 0), (-1, 0, 0), (-1, 0, 0), (-1, 0, 0), (-0.242536, 0.970143, 0), (-0.242536, 0.970143, 0), (-0.242536, 0.970143, 0), (-0.242536, 0.970143, 0), (-0.242536, 0.970143, 0), (-0.242536, 0.970143, 0), (-0.242536, 0.970143, 0), (-0.242536, 0.970143, 0), (-0.242536, 0.970143, 0), (-0.242536, 0.970143, 0), (-0.242536, 0.970143, 0), (-0.242536, 0.970143, 0), (-0.242536, 0.970143, 0), (-0.242536, 0.970143, 0), (-0.242536, 0.970143, 0)] (interpolation = "faceVarying")
        texCoord2f[] primvars:st = [(-23.6221, 11.811), (-31.4961, 7.87402), (-23.6221, 7.87402), (-31.4961, 7.87402), (-23.6221, 11.811), (-31.4961, 15.748), (-31.4961, 15.748), (-23.6221, 11.811), (-23.6221, 15.748), (30.0396, 15.748), (21.7397, 7.87402), (30.0396, 7.87402), (21.7397, 7.87402), (30.0396, 15.748), (21.7397, 11.811), (21.7397, 11.811), (30.0396, 15.748), (5.13976, 11.811), (5.13976, 11.811), (30.0396, 15.748), (5.13976, 15.748), (23.6221, 2.11935), (31.4961, -20.1904), (31.4961, -0.505327), (31.4961, -20.1904), (23.6221, 2.11935), (23.6221, -20.1904), (35.9384, 19.685), (43.8124, 11.811), (43.8124, 19.685), (43.8124, 11.811), (35.9384, 19.685), (20.1904, 11.811), (20.1904, 11.811), (35.9384, 19.685), (20.1904, 19.685), (20.1904, 11.811), (20.1904, 19.685), (20.1904, 15.748), (20.1904, 9.54865), (43.8124, 25.7813), (20.1904, 25.7813), (43.8124, 25.7813), (20.1904, 9.54865), (35.9384, 9.54865), (35.9384, 9.54865), (20.1904, 9.54865), (28.0644, 9.54865), (43.8124, 9.54865), (43.8124, 25.7813), (35.9384, 9.54865), (23.6221, 19.685), (7.87402, 15.748), (23.6221, 15.748), (7.87402, 15.748), (23.6221, 19.685), (7.87402, 23.6221), (7.87402, 23.6221), (23.6221, 19.685), (15.9831, 21.5948), (43.8124, -1.90973), (35.9384, -18.1424), (43.8124, -18.1424), (35.9384, -18.1424), (43.8124, -1.90973), (35.9384, -10.2684), (35.9384, -10.2684), (43.8124, -1.90973), (20.1904, -10.2684), (20.1904, -10.2684), (43.8124, -1.90973), (20.1904, -1.90973), (20.1904, -1.90973), (43.8124, -1.90973), (35.9384, -1.90973), (-35.9384, 7.87402), (-43.8124, 23.6221), (-43.8124, 7.87402), (-43.8124, 23.6221), (-35.9384, 7.87402), (-35.9384, 23.6221), (7.87402, 7.87402), (-7.87402, 0), (7.87402, 0), (-7.87402, 0), (7.87402, 7.87402), (-7.87402, 7.87402), (20.1904, 7.87402), (28.0644, 5.68434e-14), (28.0644, 7.87402), (28.0644, 5.68434e-14), (20.1904, 7.87402), (20.1904, -1.7053e-13), (-7.87402, 19.1797), (7.87402, -20.1904), (7.87402, 19.1797), (7.87402, -20.1904), (-7.87402, 19.1797), (-7.87402, -20.1904), (-7.87402, -28.0644), (7.87402, -20.1904), (-7.87402, -20.1904), (7.87402, -20.1904), (-7.87402, -28.0644), (7.87402, -28.0644), (7.87402, 7.87402), (-7.87402, 2.27374e-13), (7.87402, 6.56575e-28), (-7.87402, 2.27374e-13), (7.87402, 7.87402), (-7.87402, 7.87402), (-7.87402, -20.1904), (-15.748, -8.37934), (-23.6221, -20.1904), (-15.748, -8.37934), (-7.87402, -20.1904), (-7.87402, -8.37934), (-15.748, -4.44233), (-23.6221, -20.1904), (-15.748, -8.37934), (-31.4961, -0.505327), (-23.6221, -20.1904), (-15.748, -4.44233), (-23.6221, -20.1904), (-31.4961, -0.505327), (-31.4961, -20.1904), (-31.4961, -0.505327), (-15.748, -4.44233), (-7.87402, 7.36869), (-7.87402, 7.36869), (-15.748, -4.44233), (-7.87402, -4.44233), (1.9685, 12.7768), (-1.9685, 8.37505), (1.9685, 8.37505), (-1.9685, 8.37505), (1.9685, 12.7768), (-1.9685, 12.7768), (1.9685, 33.4646), (0.257605, 31.4961), (1.9685, 31.4961), (0.257605, 31.4961), (1.9685, 33.4646), (-1.9685, 31.4961), (-1.9685, 31.4961), (1.9685, 33.4646), (-1.9685, 33.4646), (-8.37934, 31.4961), (3.43168, 35.4331), (-8.37934, 35.4331), (3.43168, 35.4331), (-8.37934, 31.4961), (7.36869, 31.4961), (3.43168, 35.4331), (7.36869, 31.4961), (7.36869, 33.4646), (1.9685, 31.4961), (-1.9685, 31.4961), (-0.000870685, 31.4961), (-1.9685, 31.4961), (1.9685, 31.4961), (-1.9685, 35.4331), (-1.9685, 35.4331), (1.9685, 31.4961), (1.9685, 35.4331), (-1.9685, -8.37934), (1.9685, 3.43168), (-1.9685, 3.43168), (1.9685, 3.43168), (-1.9685, -8.37934), (1.9685, -8.37934), (-3.43168, 35.4331), (8.37934, 31.4961), (8.37934, 35.4331), (8.37934, 31.4961), (-3.43168, 35.4331), (-7.36869, 31.4961), (-7.36869, 31.4961), (-3.43168, 35.4331), (-7.36869, 33.4646), (-20.1904, 25.7813), (-28.0644, 9.54865), (-20.1904, 9.54865), (-28.0644, 9.54865), (-20.1904, 25.7813), (-35.9384, 9.54865), (-43.8124, 25.7813), (-35.9384, 9.54865), (-20.1904, 25.7813), (-35.9384, 9.54865), (-43.8124, 25.7813), (-43.8124, 9.54865), (35.9384, 23.6221), (43.8124, 7.87402), (43.8124, 23.6221), (43.8124, 7.87402), (35.9384, 23.6221), (35.9384, 7.87402), (-20.1904, 11.811), (-43.8124, 19.685), (-43.8124, 11.811), (-43.8124, 19.685), (-20.1904, 11.811), (-35.9384, 19.685), (-35.9384, 19.685), (-20.1904, 11.811), (-20.1904, 15.748), (-20.1904, 19.685), (-35.9384, 19.685), (-20.1904, 15.748), (-20.1904, 4.82189e-13), (-28.0644, 7.87402), (-28.0644, 4.54747e-13), (-28.0644, 7.87402), (-20.1904, 4.82189e-13), (-20.1904, 7.87402), (-7.87402, 23.6221), (-23.6221, 15.748), (-7.87402, 15.748), (-23.6221, 15.748), (-7.87402, 23.6221), (-23.6221, 19.685), (-23.6221, 19.685), (-7.87402, 23.6221), (-15.9831, 21.5948), (23.6221, -20.1904), (7.87402, -8.37934), (7.87402, -20.1904), (7.87402, -8.37934), (23.6221, -20.1904), (15.748, -8.37934), (31.4961, -0.505327), (15.748, -8.37934), (23.6221, -20.1904), (31.4961, -0.505327), (15.748, -4.44233), (15.748, -8.37934), (7.87402, 7.36869), (15.748, -4.44233), (31.4961, -0.505327), (15.748, -4.44233), (7.87402, 7.36869), (7.87402, -4.44233), (31.4961, -0.505327), (23.6221, -20.1904), (31.4961, -20.1904), (-31.4961, -0.505327), (-23.6221, -20.1904), (-23.6221, 2.11935), (-23.6221, -20.1904), (-31.4961, -0.505327), (-31.4961, -20.1904), (31.4961, 15.748), (23.6221, 7.87402), (31.4961, 7.87402), (23.6221, 7.87402), (31.4961, 15.748), (23.6221, 11.811), (23.6221, 11.811), (31.4961, 15.748), (23.6221, 15.748), (-5.13976, 15.748), (-21.7397, 11.811), (-5.13976, 11.811), (-30.0396, 15.748), (-21.7397, 11.811), (-5.13976, 15.748), (-30.0396, 7.87402), (-21.7397, 11.811), (-30.0396, 15.748), (-21.7397, 11.811), (-30.0396, 7.87402), (-21.7397, 7.87402), (-7.87402, 23.1167), (7.87402, 19.1797), (7.87402, 23.1167), (7.87402, 19.1797), (-7.87402, 23.1167), (-7.87402, 19.1797), (-7.87402, 33.9128), (7.87402, 24.0653), (7.87402, 33.9128), (7.87402, 24.0653), (-7.87402, 33.9128), (-7.87402, 24.0653), (-15.2232, 19.685), (4.44233, 15.748), (4.44233, 19.685), (4.44233, 15.748), (-15.2232, 19.685), (-7.36869, 15.748), (-7.36869, 15.748), (-15.2232, 19.685), (-7.36869, 11.811), (-7.36869, 11.811), (-15.2232, 19.685), (-19.1797, 11.811), (-19.1797, 11.811), (-15.2232, 19.685), (-32.8424, 9.41793), (-19.1797, 11.811), (-32.8424, 9.41793), (-19.1797, 7.87402), (-19.1797, 7.87402), (-32.8424, 9.41793), (-23.1167, 7.87402), (23.1167, 7.87402), (19.1797, 11.811), (19.1797, 7.87402), (32.8424, 9.41793), (19.1797, 11.811), (23.1167, 7.87402), (15.2232, 19.685), (19.1797, 11.811), (32.8424, 9.41793), (15.2232, 19.685), (7.36869, 11.811), (19.1797, 11.811), (15.2232, 19.685), (7.36869, 15.748), (7.36869, 11.811), (-4.44233, 19.685), (7.36869, 15.748), (15.2232, 19.685), (7.36869, 15.748), (-4.44233, 19.685), (-4.44233, 15.748), (-43.8124, -18.1424), (-35.9384, -1.90973), (-43.8124, -1.90973), (-35.9384, -1.90973), (-43.8124, -18.1424), (-35.9384, -10.2684), (-35.9384, -1.90973), (-35.9384, -10.2684), (-20.1904, -1.90973), (-35.9384, -10.2684), (-43.8124, -18.1424), (-35.9384, -18.1424), (-20.1904, -10.2684), (-20.1904, -1.90973), (-35.9384, -10.2684)] (interpolation = "faceVarying")
        uniform token subdivisionScheme = "none"
        rel material:binding = </Vehicle/Materials/metalDark>
    }
    def Mesh "mesh_dark" {
        int[] faceVertexCounts = [3, 3, 3, 3, 3, 3, 3, 3, 3, 3, 3, 3, 3, 3, 3, 3, 3, 3, 3, 3, 3, 3, 3, 3, 3, 3, 3, 3, 3, 3, 3, 3, 3, 3, 3, 3, 3, 3]
        int[] faceVertexIndices = [9, 115, 13, 115, 9, 116, 118, 15, 117, 15, 118, 11, 118, 115, 116, 115, 118, 117, 115, 15, 13, 15, 115, 117, 118, 9, 11, 9, 118, 116, 121, 120, 119, 124, 123, 122, 123, 119, 120, 119, 123, 124, 122, 119, 124, 119, 122, 121, 127, 126, 125, 126, 127, 128, 128, 32, 126, 32, 128, 31, 128, 29, 31, 29, 128, 127, 29, 125, 27, 125, 29, 127, 125, 32, 27, 32, 125, 126, 131, 130, 129, 130, 131, 132, 130, 133, 129, 133, 130, 134, 134, 130, 132, 133, 131, 129, 137, 136, 135, 140, 139, 138, 135, 140, 137, 140, 135, 139, 138, 135, 136, 135, 138, 139]
        point3f[] points = [(1.4, 0.15, -0.212835), (0.8, 0.2, -0.0128353), (1.4, 0.25, -0.212835), (0.8, 0.4, -0.0128353), (1.4, 0.15, -0.512835), (1.4, 0.25, -0.512835), (0.8, 0.2, -0.512835), (0.8, 0.4, -0.512835), (0.2, 0.2, -1.11284), (0.25, 0.264039, -1.11284), (0.2, 0.6, -1.11284), (0.25, 0.535961, -1.11284), (0.6, 0.3, -1.11284), (0.55, 0.339039, -1.11284), (0.6, 0.5, -1.11284), (0.55, 0.460961, -1.11284), (0.4, 0.4, -0.112835), (0.2, 0.4, -0.112835), (0.4, 0.45, -0.112835), (0.2, 0.5, -0.112835), (0.3, 0.5, -0.112835), (0.4, 0.45, -0.212835), (0.3, 0.5, -0.212835), (0.2, 0.5, -0.212835), (0.4, 0.4, -0.212835), (0.2, 0.4, -0.212835), (-0.2, 0.2, -1.11284), (-0.25, 0.264039, -1.11284), (-0.6, 0.3, -1.11284), (-0.55, 0.339039, -1.11284), (-0.6, 0.5, -1.11284), (-0.55, 0.460961, -1.11284), (-0.25, 0.535961, -1.11284), (-0.2, 0.6, -1.11284), (-0.8, 0.2, -0.0128353), (-0.8, 0.2, -0.512835), (-1.4, 0.15, -0.212835), (-1.4, 0.15, -0.512835), (-1.4, 0.25, -0.212835), (-0.8, 0.4, -0.0128353), (-0.8, 0.4, -0.512835), (-1.4, 0.25, -0.512835), (-0.2, 0.5, -0.160829), (-0.2, 0.5, -0.112835), (-0.2, 0.5, -0.212835), (-0.3, 0.5, -0.112835), (-0.3, 0.5, -0.212835), (-0.4, 0.4, -0.212835), (-0.4, 0.45, -0.212835), (-0.4, 0.4, -0.112835), (-0.4, 0.45, -0.112835), (-0.2, 0.4, -0.112835), (-0.2, 0.4, -0.212835), (0.6, 0.2, -0.512835), (0.6, 0.3, -0.512835), (0.6, 0.4, -0.512835), (0.6, 0.2, 0.0538313), (0.6, 0.3, 0.0538313), (0.2, 0.3, 0.187165), (0.2, 0.4, 0.187165), (0.6, 0.5, -0.912835), (0.6, 0.5, -0.512835), (0.2, 0.2, -0.512835), (0.2, 0.2, -0.912835), (0.2, 0.2, -0.712835), (0.2, 0.4, -0.512835), (0.2, 0.6, -0.512835), (0.405971, 0.548507, -0.512835), (0.405971, 0.548507, -0.912835), (0.2, 0.6, -0.912835), (0.2, 0, 0.487165), (-0.2, 0, 0.487165), (0.2, 0.2, 0.487165), (-0.2, 0.2, 0.487165), (0.2, 5.77529e-15, -0.712835), (0.2, 0, -0.512835), (-0.2, 6.97018e-16, -0.512835), (-0.2, 1.6677e-29, -0.712835), (-0.2, 0.2, -0.712835), (0.05, 0.85, 0.187165), (-0.05, 0.85, 0.187165), (0.05, 0.9, 0.0871648), (-0.05, 0.9, 0.0871648), (0.05, 0.8, 0.187165), (0.00654316, 0.8, 0.187165), (-0.05, 0.8, 0.187165), (-0.05, 0.9, -0.212835), (-0.05, 0.8, -0.212835), (2.21729e-05, 0.8, -0.212835), (0.05, 0.8, -0.212835), (0.05, 0.9, -0.212835), (-0.2, 0.2, -0.512835), (-0.6, 0.3, -0.512835), (-0.2, 0.2, -0.912835), (-0.2, 0.6, -0.912835), (-0.6, 0.5, -0.912835), (-0.6, 0.4, -0.512835), (-0.6, 0.5, -0.512835), (-0.2, 0.4, -0.512835), (-0.2, 0.6, -0.512835), (-0.405971, 0.548507, -0.512835), (-0.2, 0.4, 0.187165), (-0.6, 0.2, 0.0538313), (-0.6, 0.2, -0.512835), (-0.2, 0.3, 0.187165), (-0.6, 0.3, 0.0538313), (0.2, 0.2, 0.587165), (-0.2, 0.2, 0.587165), (0.2, 0.239215, 0.834197), (-0.2, 0.239215, 0.834197), (0.2, 0.5, 0.386668), (0.2, 0.3, 0.487165), (-0.2, 0.3, 0.487165), (-0.2, 0.5, 0.386668), (-0.405971, 0.548507, -0.912835), (0.55, 0.339039, -1.01283), (0.25, 0.264039, -1.01283), (0.55, 0.460961, -1.01283), (0.25, 0.535961, -1.01283), (0.270711, 0.1, 0.157875), (0.529289, 0.1, 0.157875), (0.270711, 0.1, 0.416454), (0.270711, 0.2, 0.416454), (0.529289, 0.2, 0.157875), (0.270711, 0.2, 0.157875), (-0.25, 0.264039, -1.01283), (-0.25, 0.535961, -1.01283), (-0.55, 0.339039, -1.01283), (-0.55, 0.460961, -1.01283), (-0.270711, 0.1, 0.157875), (-0.270711, 0.2, 0.157875), (-0.270711, 0.1, 0.416454), (-0.270711, 0.2, 0.416454), (-0.529289, 0.1, 0.157875), (-0.529289, 0.2, 0.157875), (0.1, 0.766896, 0.712835), (0.2, 0.79005, 0.386668), (0.2, 0.366897, 1.11284), (-0.2, 0.79005, 0.386668), (-0.0999999, 0.766896, 0.712835), (-0.2, 0.366897, 1.11284), (0.632915, 0.631662, -0.912835), (0.632915, 0.631662, -0.812835), (0.438887, 0.680169, -0.912835), (0.438887, 0.680169, -0.812835), (0.6, 0, 0.0871648), (0.6, 0, -0.512835), (0.6, 0.3, 0.0871648), (0.2, 0.7, -0.912835), (0.2, 0.8, -0.212835), (-0.2, 0.7, -0.912835), (-0.2, 0.8, -0.212835), (0.2, 0.8, 0.187165), (-0.2, 0.8, 0.187165), (-0.6, 0, -0.512835), (-0.6, 0, 0.0871648), (-0.6, 0.3, 0.0871648), (-0.2, 0.283448, 1.11284), (0.2, 0.283448, 1.11284), (-0.438887, 0.680169, -0.812835), (-0.632915, 0.631662, -0.812835), (-0.438887, 0.680169, -0.912835), (-0.632915, 0.631662, -0.912835)]
        normal3f[] normals = [(-0.242536, 0.970143, 0), (-0.242536, 0.970143, 0), (-0.242536, 0.970143, 0), (-0.242536, 0.970143, 0), (-0.242536, 0.970143, 0), (-0.242536, 0.970143, 0), (-0.242536, -0.970143, 0), (-0.242536, -0.970143, 0), (-0.242536, -0.970143, 0), (-0.242536, -0.970143, 0), (-0.242536, -0.970143, 0), (-0.242536, -0.970143, 0), (0, 0, -1), (0, 0, -1), (0, 0, -1), (0, 0, -1), (0, 0, -1), (0, 0, -1), (-1, 0, 0), (-1, 0, 0), (-1, 0, 0), (-1, 0, 0), (-1, 0, 0), (-1, 0, 0), (1, 0, 0), (1, 0, 0), (1, 0, 0), (1, 0, 0), (1, 0, 0), (1, 0, 0), (0, 1, 0), (0, 1, 0), (0, 1, 0), (0, -1, 0), (0, -1, 0), (0, -1, 0), (0, 0, 1), (0, 0, 1), (0, 0, 1), (0, 0, 1), (0, 0, 1), (0, 0, 1), (1, 0, 0), (1, 0, 0), (1, 0, 0), (1, 0, 0), (1, 0, 0), (1, 0, 0), (0, 0, -1), (0, 0, -1), (0, 0, -1), (0, 0, -1), (0, 0, -1), (0, 0, -1), (0.242536, -0.970143, 0), (0.242536, -0.970143, 0), (0.242536, -0.970143, 0), (0.242536, -0.970143, 0), (0.242536, -0.970143, 0), (0.242536, -0.970143, 0), (1, 0, 0), (1, 0, 0), (1, 0, 0), (1, 0, 0), (1, 0, 0), (1, 0, 0), (0.242536, 0.970143, 0), (0.242536, 0.970143, 0), (0.242536, 0.970143, 0), (0.242536, 0.970143, 0), (0.242536, 0.970143, 0), (0.242536, 0.970143, 0), (-1, 0, 0), (-1, 0, 0), (-1, 0, 0), (-1, 0, 0), (-1, 0, 0), (-1, 0, 0), (-1, 0, 0), (-1, 0, 0), (-1, 0, 0), (-1, 0, 0), (-1, 0, 0), (-1, 0, 0), (0, 0, 1), (0, 0, 1), (0, 0, 1), (0, 0, 1), (0, 0, 1), (0, 0, 1), (0, -1, 0), (0, -1, 0), (0, -1, 0), (0, 1, 0), (0, 1, 0), (0, 1, 0), (0.821764, 0.492336, 0.286895), (0.821764, 0.492336, 0.286895), (0.821764, 0.492336, 0.286895), (-0.821764, 0.492336, 0.286895), (-0.821764, 0.492336, 0.286895), (-0.821764, 0.492336, 0.286895), (0, 0.707107, 0.707107), (0, 0.707107, 0.707107), (0, 0.707107, 0.707107), (0, 0.707107, 0.707107), (0, 0.707107, 0.707107), (0, 0.707107, 0.707107), (0, 0.99749, 0.0708074), (0, 0.99749, 0.0708074), (0, 0.99749, 0.0708074), (0, 0.99749, 0.0708074), (0, 0.99749, 0.0708074), (0, 0.99749, 0.0708074)] (interpolation = "faceVarying")
        texCoord2f[] primvars:st = [(-43.8124, 12.0699), (-39.8754, 24.2444), (-43.8124, 24.2444), (-39.8754, 24.2444), (-43.8124, 12.0699), (-39.8754, 12.0699), (-39.8754, -4.43094), (-43.8124, -16.6055), (-39.8754, -16.6055), (-43.8124, -16.6055), (-39.8754, -4.43094), (-43.8124, -4.43094), (-9.84252, 21.1008), (-21.6535, 13.348), (-9.84252, 10.3952), (-21.6535, 13.348), (-9.84252, 21.1008), (-21.6535, 18.1481), (-39.8754, 13.348), (-43.8124, 18.1481), (-43.8124, 13.348), (-43.8124, 18.1481), (-39.8754, 13.348), (-39.8754, 18.1481), (39.8754, 21.1008), (43.8124, 10.3952), (43.8124, 21.1008), (43.8124, 10.3952), (39.8754, 21.1008), (39.8754, 10.3952), (-10.6579, 16.3958), (-20.8382, 6.21557), (-10.6579, 6.21557), (10.6579, 6.21557), (20.8382, 6.21557), (10.6579, 16.3958), (20.8382, 7.87402), (10.6579, 3.93701), (20.8382, 3.93701), (10.6579, 3.93701), (20.8382, 7.87402), (10.6579, 7.87402), (-16.3958, 7.87402), (-6.21557, 3.93701), (-6.21557, 7.87402), (-6.21557, 3.93701), (-16.3958, 7.87402), (-16.3958, 3.93701), (21.6535, 13.348), (9.84252, 21.1008), (9.84252, 10.3952), (9.84252, 21.1008), (21.6535, 13.348), (21.6535, 18.1481), (39.8754, -16.6055), (43.8124, -4.43094), (39.8754, -4.43094), (43.8124, -4.43094), (39.8754, -16.6055), (43.8124, -16.6055), (39.8754, 18.1481), (43.8124, 13.348), (43.8124, 18.1481), (43.8124, 13.348), (39.8754, 18.1481), (39.8754, 13.348), (43.8124, 24.2444), (39.8754, 12.0699), (43.8124, 12.0699), (39.8754, 12.0699), (43.8124, 24.2444), (39.8754, 24.2444), (-39.8754, 10.3952), (-43.8124, 21.1008), (-43.8124, 10.3952), (-43.8124, 21.1008), (-39.8754, 10.3952), (-39.8754, 21.1008), (16.3958, 3.93701), (6.21557, 7.87402), (6.21557, 3.93701), (6.21557, 7.87402), (16.3958, 3.93701), (16.3958, 7.87402), (-10.6579, 7.87402), (-20.8382, 3.93701), (-10.6579, 3.93701), (-20.8382, 3.93701), (-10.6579, 7.87402), (-20.8382, 7.87402), (-20.8382, 6.21557), (-10.6579, 6.21557), (-10.6579, 16.3958), (20.8382, 6.21557), (10.6579, 16.3958), (10.6579, 6.21557), (-38.7687, 1.80292), (-11.7771, 20.9429), (-25.1984, 19.8957), (38.7687, 1.80292), (25.1984, 19.8957), (11.7771, 20.9429), (3.93701, 1.505), (-7.87402, -20.7661), (7.87402, -20.7661), (-7.87402, -20.7661), (3.93701, 1.505), (-3.93701, 1.505), (-7.87402, -12.9825), (3.93701, -25.8561), (7.87402, -12.9825), (3.93701, -25.8561), (-7.87402, -12.9825), (-3.93701, -25.8561)] (interpolation = "faceVarying")
        uniform token subdivisionScheme = "none"
        rel material:binding = </Vehicle/Materials/dark>
    }
    def Mesh "mesh_metalRed" {
        int[] faceVertexCounts = [3, 3, 3, 3, 3, 3, 3, 3, 3, 3, 3, 3, 3, 3, 3, 3, 3, 3, 3, 3, 3, 3, 3, 3, 3, 3, 3, 3, 3, 3, 3, 3, 3, 3, 3, 3, 3, 3, 3, 3, 3, 3, 3, 3, 3, 3, 3, 3, 3, 3, 3, 3, 3, 3, 3, 3, 3, 3, 3, 3, 3, 3, 3, 3, 3, 3, 3, 3, 3, 3, 3, 3, 3, 3, 3, 3, 3, 3, 3, 3, 3, 3, 3, 3, 3, 3, 3, 3, 3, 3, 3, 3, 3, 3, 3, 3, 3, 3, 3, 3, 3, 3, 3, 3, 3, 3, 3, 3, 3]
        int[] faceVertexIndices = [142, 60, 141, 60, 142, 61, 68, 144, 143, 144, 68, 67, 143, 142, 141, 142, 143, 144, 68, 141, 60, 141, 68, 143, 144, 61, 142, 61, 144, 67, 70, 146, 145, 146, 70, 75, 145, 120, 70, 120, 145, 147, 120, 147, 123, 123, 147, 122, 122, 147, 72, 72, 147, 111, 70, 121, 72, 121, 70, 120, 72, 121, 122, 58, 147, 57, 147, 58, 111, 62, 146, 75, 146, 62, 53, 53, 62, 54, 147, 56, 57, 145, 56, 147, 146, 56, 145, 56, 146, 53, 150, 149, 148, 149, 150, 89, 89, 150, 88, 88, 150, 87, 87, 150, 151, 94, 63, 93, 63, 94, 69, 69, 94, 150, 69, 150, 148, 64, 93, 63, 93, 64, 78, 89, 152, 149, 152, 89, 83, 87, 153, 85, 153, 87, 151, 103, 76, 154, 76, 103, 91, 91, 103, 92, 71, 154, 76, 154, 71, 155, 155, 133, 156, 133, 155, 71, 133, 71, 131, 131, 71, 132, 134, 156, 133, 156, 134, 112, 112, 134, 132, 112, 132, 71, 112, 71, 73, 154, 102, 103, 102, 154, 155, 102, 155, 105, 105, 155, 156, 105, 112, 104, 112, 105, 156, 83, 136, 152, 136, 83, 138, 138, 83, 84, 138, 84, 85, 138, 85, 153, 52, 99, 98, 151, 99, 52, 150, 99, 151, 99, 150, 94, 151, 52, 44, 151, 44, 42, 151, 42, 153, 153, 42, 43, 153, 43, 113, 153, 113, 138, 138, 113, 109, 138, 109, 140, 140, 109, 157, 137, 157, 158, 157, 137, 140, 152, 23, 149, 23, 152, 19, 19, 152, 110, 110, 152, 136, 110, 136, 137, 110, 137, 108, 108, 137, 158, 25, 149, 23, 65, 149, 25, 66, 149, 65, 69, 149, 66, 149, 69, 148, 157, 108, 158, 108, 157, 109, 159, 97, 100, 97, 159, 160, 162, 159, 161, 159, 162, 160, 162, 114, 95, 114, 162, 161, 159, 114, 161, 114, 159, 100, 95, 160, 162, 160, 95, 97]
        point3f[] points = [(1.4, 0.15, -0.212835), (0.8, 0.2, -0.0128353), (1.4, 0.25, -0.212835), (0.8, 0.4, -0.0128353), (1.4, 0.15, -0.512835), (1.4, 0.25, -0.512835), (0.8, 0.2, -0.512835), (0.8, 0.4, -0.512835), (0.2, 0.2, -1.11284), (0.25, 0.264039, -1.11284), (0.2, 0.6, -1.11284), (0.25, 0.535961, -1.11284), (0.6, 0.3, -1.11284), (0.55, 0.339039, -1.11284), (0.6, 0.5, -1.11284), (0.55, 0.460961, -1.11284), (0.4, 0.4, -0.112835), (0.2, 0.4, -0.112835), (0.4, 0.45, -0.112835), (0.2, 0.5, -0.112835), (0.3, 0.5, -0.112835), (0.4, 0.45, -0.212835), (0.3, 0.5, -0.212835), (0.2, 0.5, -0.212835), (0.4, 0.4, -0.212835), (0.2, 0.4, -0.212835), (-0.2, 0.2, -1.11284), (-0.25, 0.264039, -1.11284), (-0.6, 0.3, -1.11284), (-0.55, 0.339039, -1.11284), (-0.6, 0.5, -1.11284), (-0.55, 0.460961, -1.11284), (-0.25, 0.535961, -1.11284), (-0.2, 0.6, -1.11284), (-0.8, 0.2, -0.0128353), (-0.8, 0.2, -0.512835), (-1.4, 0.15, -0.212835), (-1.4, 0.15, -0.512835), (-1.4, 0.25, -0.212835), (-0.8, 0.4, -0.0128353), (-0.8, 0.4, -0.512835), (-1.4, 0.25, -0.512835), (-0.2, 0.5, -0.160829), (-0.2, 0.5, -0.112835), (-0.2, 0.5, -0.212835), (-0.3, 0.5, -0.112835), (-0.3, 0.5, -0.212835), (-0.4, 0.4, -0.212835), (-0.4, 0.45, -0.212835), (-0.4, 0.4, -0.112835), (-0.4, 0.45, -0.112835), (-0.2, 0.4, -0.112835), (-0.2, 0.4, -0.212835), (0.6, 0.2, -0.512835), (0.6, 0.3, -0.512835), (0.6, 0.4, -0.512835), (0.6, 0.2, 0.0538313), (0.6, 0.3, 0.0538313), (0.2, 0.3, 0.187165), (0.2, 0.4, 0.187165), (0.6, 0.5, -0.912835), (0.6, 0.5, -0.512835), (0.2, 0.2, -0.512835), (0.2, 0.2, -0.912835), (0.2, 0.2, -0.712835), (0.2, 0.4, -0.512835), (0.2, 0.6, -0.512835), (0.405971, 0.548507, -0.512835), (0.405971, 0.548507, -0.912835), (0.2, 0.6, -0.912835), (0.2, 0, 0.487165), (-0.2, 0, 0.487165), (0.2, 0.2, 0.487165), (-0.2, 0.2, 0.487165), (0.2, 5.77529e-15, -0.712835), (0.2, 0, -0.512835), (-0.2, 6.97018e-16, -0.512835), (-0.2, 1.6677e-29, -0.712835), (-0.2, 0.2, -0.712835), (0.05, 0.85, 0.187165), (-0.05, 0.85, 0.187165), (0.05, 0.9, 0.0871648), (-0.05, 0.9, 0.0871648), (0.05, 0.8, 0.187165), (0.00654316, 0.8, 0.187165), (-0.05, 0.8, 0.187165), (-0.05, 0.9, -0.212835), (-0.05, 0.8, -0.212835), (2.21729e-05, 0.8, -0.212835), (0.05, 0.8, -0.212835), (0.05, 0.9, -0.212835), (-0.2, 0.2, -0.512835), (-0.6, 0.3, -0.512835), (-0.2, 0.2, -0.912835), (-0.2, 0.6, -0.912835), (-0.6, 0.5, -0.912835), (-0.6, 0.4, -0.512835), (-0.6, 0.5, -0.512835), (-0.2, 0.4, -0.512835), (-0.2, 0.6, -0.512835), (-0.405971, 0.548507, -0.512835), (-0.2, 0.4, 0.187165), (-0.6, 0.2, 0.0538313), (-0.6, 0.2, -0.512835), (-0.2, 0.3, 0.187165), (-0.6, 0.3, 0.0538313), (0.2, 0.2, 0.587165), (-0.2, 0.2, 0.587165), (0.2, 0.239215, 0.834197), (-0.2, 0.239215, 0.834197), (0.2, 0.5, 0.386668), (0.2, 0.3, 0.487165), (-0.2, 0.3, 0.487165), (-0.2, 0.5, 0.386668), (-0.405971, 0.548507, -0.912835), (0.55, 0.339039, -1.01283), (0.25, 0.264039, -1.01283), (0.55, 0.460961, -1.01283), (0.25, 0.535961, -1.01283), (0.270711, 0.1, 0.157875), (0.529289, 0.1, 0.157875), (0.270711, 0.1, 0.416454), (0.270711, 0.2, 0.416454), (0.529289, 0.2, 0.157875), (0.270711, 0.2, 0.157875), (-0.25, 0.264039, -1.01283), (-0.25, 0.535961, -1.01283), (-0.55, 0.339039, -1.01283), (-0.55, 0.460961, -1.01283), (-0.270711, 0.1, 0.157875), (-0.270711, 0.2, 0.157875), (-0.270711, 0.1, 0.416454), (-0.270711, 0.2, 0.416454), (-0.529289, 0.1, 0.157875), (-0.529289, 0.2, 0.157875), (0.1, 0.766896, 0.712835), (0.2, 0.79005, 0.386668), (0.2, 0.366897, 1.11284), (-0.2, 0.79005, 0.386668), (-0.0999999, 0.766896, 0.712835), (-0.2, 0.366897, 1.11284), (0.632915, 0.631662, -0.912835), (0.632915, 0.631662, -0.812835), (0.438887, 0.680169, -0.912835), (0.438887, 0.680169, -0.812835), (0.6, 0, 0.0871648), (0.6, 0, -0.512835), (0.6, 0.3, 0.0871648), (0.2, 0.7, -0.912835), (0.2, 0.8, -0.212835), (-0.2, 0.7, -0.912835), (-0.2, 0.8, -0.212835), (0.2, 0.8, 0.187165), (-0.2, 0.8, 0.187165), (-0.6, 0, -0.512835), (-0.6, 0, 0.0871648), (-0.6, 0.3, 0.0871648), (-0.2, 0.283448, 1.11284), (0.2, 0.283448, 1.11284), (-0.438887, 0.680169, -0.812835), (-0.632915, 0.631662, -0.812835), (-0.438887, 0.680169, -0.912835), (-0.632915, 0.631662, -0.912835)]
        normal3f[] normals = [(0.970143, -0.242536, 0), (0.970143, -0.242536, 0), (0.970143, -0.242536, 0), (0.970143, -0.242536, 0), (0.970143, -0.242536, 0), (0.970143, -0.242536, 0), (-0.970143, 0.242536, 0), (-0.970143, 0.242536, 0), (-0.970143, 0.242536, 0), (-0.970143, 0.242536, 0), (-0.970143, 0.242536, 0), (-0.970143, 0.242536, 0), (0.242536, 0.970143, 0), (0.242536, 0.970143, 0), (0.242536, 0.970143, 0), (0.242536, 0.970143, 0), (0.242536, 0.970143, 0), (0.242536, 0.970143, 0), (0, 0, -1), (0, 0, -1), (0, 0, -1), (0, 0, -1), (0, 0, -1), (0, 0, -1), (0.220976, 0.883904, 0.412168), (0.220976, 0.883904, 0.412168), (0.220976, 0.883904, 0.412168), (0.220976, 0.883904, 0.412168), (0.220976, 0.883904, 0.412168), (0.220976, 0.883904, 0.412168), (0, -1, 0), (0, -1, 0), (0, -1, 0), (0, -1, 0), (0, -1, 0), (0, -1, 0), (0.707107, 0, 0.707107), (0.707107, 0, 0.707107), (0.707107, 0, 0.707107), (0.707107, 0, 0.707107), (0.707107, 0, 0.707107), (0.707107, 0, 0.707107), (0.707107, 0, 0.707107), (0.707107, 0, 0.707107), (0.707107, 0, 0.707107), (0.707107, 0, 0.707107), (0.707107, 0, 0.707107), (0.707107, 0, 0.707107), (0.707107, 0, 0.707107), (0.707107, 0, 0.707107), (0.707107, 0, 0.707107), (0.707107, 0, 0.707107), (0.707107, 0, 0.707107), (0.707107, 0, 0.707107), (0.707107, 0, 0.707107), (0.707107, 0, 0.707107), (0.707107, 0, 0.707107), (0.707107, 0, 0.707107), (0.707107, 0, 0.707107), (0.707107, 0, 0.707107), (0.707107, 0, 0.707107), (0.707107, 0, 0.707107), (0.707107, 0, 0.707107), (0, 1, 0), (0, 1, 0), (0, 1, 0), (0, 1, 0), (0, 1, 0), (0, 1, 0), (0, 0, -1), (0, 0, -1), (0, 0, -1), (0, 0, -1), (0, 0, -1), (0, 0, -1), (0, 0, -1), (0, 0, -1), (0, 0, -1), (1, 0, 0), (1, 0, 0), (1, 0, 0), (1, 0, 0), (1, 0, 0), (1, 0, 0), (1, 0, 0), (1, 0, 0), (1, 0, 0), (1, 0, 0), (1, 0, 0), (1, 0, 0), (0, 0.98995, -0.141421), (0, 0.98995, -0.141421), (0, 0.98995, -0.141421), (0, 0.98995, -0.141421), (0, 0.98995, -0.141421), (0, 0.98995, -0.141421), (0, 0.98995, -0.141421), (0, 0.98995, -0.141421), (0, 0.98995, -0.141421), (0, 0.98995, -0.141421), (0, 0.98995, -0.141421), (0, 0.98995, -0.141421), (0, 0.98995, -0.141421), (0, 0.98995, -0.141421), (0, 0.98995, -0.141421), (0, 0, -1), (0, 0, -1), (0, 0, -1), (0, 0, -1), (0, 0, -1), (0, 0, -1), (0, 0, -1), (0, 0, -1), (0, 0, -1), (0, 0, -1), (0, 0, -1), (0, 0, -1), (0, -1, 0), (0, -1, 0), (0, -1, 0), (0, -1, 0), (0, -1, 0), (0, -1, 0), (0, 1, 0), (0, 1, 0), (0, 1, 0), (0, 1, 0), (0, 1, 0), (0, 1, 0), (0, 1, 0), (0, 1, 0), (0, 1, 0), (0, 1, 0), (0, 1, 0), (0, 1, 0), (0, 0, -1), (0, 0, -1), (0, 0, -1), (0, 0, -1), (0, 0, -1), (0, 0, -1), (0, 0, -1), (0, 0, -1), (0, 0, -1), (0, -1, 0), (0, -1, 0), (0, -1, 0), (0, -1, 0), (0, -1, 0), (0, -1, 0), (-0.707107, 0, 0.707107), (-0.707107, 0, 0.707107), (-0.707107, 0, 0.707107), (-0.707107, 0, 0.707107), (-0.707107, 0, 0.707107), (-0.707107, 0, 0.707107), (-0.707107, 0, 0.707107), (-0.707107, 0, 0.707107), (-0.707107, 0, 0.707107), (-0.707107, 0, 0.707107), (-0.707107, 0, 0.707107), (-0.707107, 0, 0.707107), (-0.707107, 0, 0.707107), (-0.707107, 0, 0.707107), (-0.707107, 0, 0.707107), (-0.707107, 0, 0.707107), (-0.707107, 0, 0.707107), (-0.707107, 0, 0.707107), (-0.707107, 0, 0.707107), (-0.707107, 0, 0.707107), (-0.707107, 0, 0.707107), (-0.707107, 0, 0.707107), (-0.707107, 0, 0.707107), (-0.707107, 0, 0.707107), (-0.707107, 0, 0.707107), (-0.707107, 0, 0.707107), (-0.707107, 0, 0.707107), (-1, 0, 0), (-1, 0, 0), (-1, 0, 0), (-1, 0, 0), (-1, 0, 0), (-1, 0, 0), (-1, 0, 0), (-1, 0, 0), (-1, 0, 0), (-1, 0, 0), (-1, 0, 0), (-1, 0, 0), (0, 1, 0), (0, 1, 0), (0, 1, 0), (0, 1, 0), (0, 1, 0), (0, 1, 0), (0, 0.998759, 0.0498137), (0, 0.998759, 0.0498137), (0, 0.998759, 0.0498137), (0, 0.998759, 0.0498137), (0, 0.998759, 0.0498137), (0, 0.998759, 0.0498137), (0, 0.998759, 0.0498137), (0, 0.998759, 0.0498137), (0, 0.998759, 0.0498137), (0, 0.998759, 0.0498137), (0, 0.998759, 0.0498137), (0, 0.998759, 0.0498137), (0, 0.998759, 0.0498137), (0, 0.998759, 0.0498137), (0, 0.998759, 0.0498137), (-1, 0, 0), (-1, 0, 0), (-1, 0, 0), (-1, 0, 0), (-1, 0, 0), (-1, 0, 0), (-1, 0, 0), (-1, 0, 0), (-1, 0, 0), (-1, 0, 0), (-1, 0, 0), (-1, 0, 0), (-1, 0, 0), (-1, 0, 0), (-1, 0, 0), (-1, 0, 0), (-1, 0, 0), (-1, 0, 0), (-1, 0, 0), (-1, 0, 0), (-1, 0, 0), (-1, 0, 0), (-1, 0, 0), (-1, 0, 0), (-1, 0, 0), (-1, 0, 0), (-1, 0, 0), (-1, 0, 0), (-1, 0, 0), (-1, 0, 0), (-1, 0, 0), (-1, 0, 0), (-1, 0, 0), (-1, 0, 0), (-1, 0, 0), (-1, 0, 0), (-1, 0, 0), (-1, 0, 0), (-1, 0, 0), (0, 0, 1), (0, 0, 1), (0, 0, 1), (0, 0, 1), (0, 0, 1), (0, 0, 1), (1, 0, 0), (1, 0, 0), (1, 0, 0), (1, 0, 0), (1, 0, 0), (1, 0, 0), (1, 0, 0), (1, 0, 0), (1, 0, 0), (1, 0, 0), (1, 0, 0), (1, 0, 0), (1, 0, 0), (1, 0, 0), (1, 0, 0), (1, 0, 0), (1, 0, 0), (1, 0, 0), (1, 0, 0), (1, 0, 0), (1, 0, 0), (1, 0, 0), (1, 0, 0), (1, 0, 0), (1, 0, 0), (1, 0, 0), (1, 0, 0), (1, 0, 0), (1, 0, 0), (1, 0, 0), (1, 0, 0), (1, 0, 0), (1, 0, 0), (1, 0, 0), (1, 0, 0), (1, 0, 0), (0, -0.987633, 0.156783), (0, -0.987633, 0.156783), (0, -0.987633, 0.156783), (0, -0.987633, 0.156783), (0, -0.987633, 0.156783), (0, -0.987633, 0.156783), (-0.220976, 0.883904, 0.412168), (-0.220976, 0.883904, 0.412168), (-0.220976, 0.883904, 0.412168), (-0.220976, 0.883904, 0.412168), (-0.220976, 0.883904, 0.412168), (-0.220976, 0.883904, 0.412168), (-0.242536, 0.970143, 0), (-0.242536, 0.970143, 0), (-0.242536, 0.970143, 0), (-0.242536, 0.970143, 0), (-0.242536, 0.970143, 0), (-0.242536, 0.970143, 0), (0, 0, -1), (0, 0, -1), (0, 0, -1), (0, 0, -1), (0, 0, -1), (0, 0, -1), (0.970143, 0.242536, 0), (0.970143, 0.242536, 0), (0.970143, 0.242536, 0), (0.970143, 0.242536, 0), (0.970143, 0.242536, 0), (0.970143, 0.242536, 0), (-0.970143, -0.242536, 0), (-0.970143, -0.242536, 0), (-0.970143, -0.242536, 0), (-0.970143, -0.242536, 0), (-0.970143, -0.242536, 0), (-0.970143, -0.242536, 0)] (interpolation = "faceVarying")
        texCoord2f[] primvars:st = [(32.0014, 30.1696), (35.9384, 24.8265), (35.9384, 30.1696), (35.9384, 24.8265), (32.0014, 30.1696), (20.1904, 24.8265), (-35.9384, 24.8265), (-32.0014, 30.1696), (-35.9384, 30.1696), (-32.0014, 30.1696), (-35.9384, 24.8265), (-20.1904, 24.8265), (35.9384, -10.2684), (32.0014, -18.1424), (35.9384, -18.1424), (32.0014, -18.1424), (35.9384, -10.2684), (32.0014, -10.2684), (-15.9831, 21.5948), (-24.9179, 24.8686), (-23.6221, 19.685), (-24.9179, 24.8686), (-15.9831, 21.5948), (-17.279, 26.7783), (30.3493, 30.2361), (30.3588, 15.0687), (37.0817, 26.1526), (30.3588, 15.0687), (30.3493, 30.2361), (23.6264, 19.1523), (7.87402, 19.1797), (23.6221, -20.1904), (23.6221, 3.43168), (23.6221, -20.1904), (7.87402, 19.1797), (7.87402, -20.1904), (14.2767, -2.92405e-14), (10.3397, 3.93701), (-7.99434, -2.92405e-14), (10.3397, 3.93701), (14.2767, -2.92405e-14), (14.2767, 11.811), (10.3397, 3.93701), (14.2767, 11.811), (10.3397, 7.87402), (10.3397, 7.87402), (14.2767, 11.811), (-4.05733, 7.87402), (-4.05733, 7.87402), (14.2767, 11.811), (-7.99434, 7.87402), (-7.99434, 7.87402), (14.2767, 11.811), (-7.99434, 11.811), (-7.99434, -2.92405e-14), (-4.05733, 3.93701), (-7.99434, 7.87402), (-4.05733, 3.93701), (-7.99434, -2.92405e-14), (10.3397, 3.93701), (-7.99434, 7.87402), (-4.05733, 3.93701), (-4.05733, 7.87402), (-7.87402, 7.36869), (-23.6221, 3.43168), (-23.6221, 2.11935), (-23.6221, 3.43168), (-7.87402, 7.36869), (-7.87402, 19.1797), (-7.87402, 7.87402), (-23.6221, 0), (-7.87402, 0), (-23.6221, 0), (-7.87402, 7.87402), (-23.6221, 7.87402), (-23.6221, 7.87402), (-7.87402, 7.87402), (-23.6221, 11.811), (-3.43168, 11.811), (-2.11935, 7.87402), (-2.11935, 11.811), (-3.43168, 0), (-2.11935, 7.87402), (-3.43168, 11.811), (20.1904, 0), (-2.11935, 7.87402), (-3.43168, 0), (-2.11935, 7.87402), (20.1904, 0), (20.1904, 7.87402), (7.87402, -31.6798), (-7.87402, -3.84091), (-7.87402, -31.6798), (-7.87402, -3.84091), (7.87402, -31.6798), (-1.9685, -3.84091), (-1.9685, -3.84091), (7.87402, -31.6798), (-0.000870622, -3.84091), (-0.000870622, -3.84091), (7.87402, -31.6798), (1.9685, -3.84091), (1.9685, -3.84091), (7.87402, -31.6798), (7.87402, -3.84091), (7.87402, 23.6221), (-7.87402, 7.87402), (7.87402, 7.87402), (-7.87402, 7.87402), (7.87402, 23.6221), (-7.87402, 23.6221), (-7.87402, 23.6221), (7.87402, 23.6221), (7.87402, 27.5591), (-7.87402, 23.6221), (7.87402, 27.5591), (-7.87402, 27.5591), (7.87402, -28.0644), (-7.87402, -35.9384), (7.87402, -35.9384), (-7.87402, -35.9384), (7.87402, -28.0644), (-7.87402, -28.0644), (-1.9685, -8.37934), (-7.87401, 7.36869), (-7.87401, -8.37934), (-7.87401, 7.36869), (-1.9685, -8.37934), (-1.9685, 7.36869), (1.9685, -8.37934), (7.87401, 7.36869), (1.9685, 7.36869), (7.87401, 7.36869), (1.9685, -8.37934), (7.87401, -8.37934), (23.6221, 7.87402), (7.87402, 5.6593e-14), (23.6221, 2.91513e-14), (7.87402, 5.6593e-14), (23.6221, 7.87402), (7.87402, 7.87402), (7.87402, 7.87402), (23.6221, 7.87402), (23.6221, 11.811), (-7.87402, 19.1797), (-23.6221, -20.1904), (-7.87402, -20.1904), (-23.6221, -20.1904), (-7.87402, 19.1797), (-23.6221, 3.43168), (-14.2767, -1.12889e-13), (-10.3397, 3.93701), (-14.2767, 11.811), (-10.3397, 3.93701), (-14.2767, -1.12889e-13), (7.99434, -1.12889e-13), (-10.3397, 3.93701), (7.99434, -1.12889e-13), (4.05733, 3.93701), (4.05733, 3.93701), (7.99434, -1.12889e-13), (4.05733, 7.87402), (-10.3397, 7.87402), (-14.2767, 11.811), (-10.3397, 3.93701), (-14.2767, 11.811), (-10.3397, 7.87402), (7.99434, 11.811), (7.99434, 11.811), (-10.3397, 7.87402), (4.05733, 7.87402), (7.99434, 11.811), (4.05733, 7.87402), (7.99434, -1.12889e-13), (7.99434, 11.811), (7.99434, -1.12889e-13), (7.99434, 7.87402), (-20.1904, 8.76182e-14), (2.11935, 7.87402), (-20.1904, 7.87402), (2.11935, 7.87402), (-20.1904, 8.76182e-14), (3.43168, 8.76182e-14), (2.11935, 7.87402), (3.43168, 8.76182e-14), (2.11935, 11.811), (2.11935, 11.811), (3.43168, 8.76182e-14), (3.43168, 11.811), (23.6221, 2.11935), (7.87402, 19.1797), (7.87402, 7.36869), (7.87402, 19.1797), (23.6221, 2.11935), (23.6221, 3.43168), (1.9685, -5.79061), (7.87402, -13.6548), (7.87402, -5.79061), (7.87402, -13.6548), (1.9685, -5.79061), (-7.87402, -13.6548), (-7.87402, -13.6548), (1.9685, -5.79061), (0.257605, -5.79061), (-7.87402, -13.6548), (0.257605, -5.79061), (-1.9685, -5.79061), (-7.87402, -13.6548), (-1.9685, -5.79061), (-7.87402, -5.79061), (-8.37934, 15.748), (-20.1904, 23.6221), (-20.1904, 15.748), (-8.37934, 31.4961), (-20.1904, 23.6221), (-8.37934, 15.748), (-35.9384, 27.5591), (-20.1904, 23.6221), (-8.37934, 31.4961), (-20.1904, 23.6221), (-35.9384, 27.5591), (-35.9384, 23.6221), (-8.37934, 31.4961), (-8.37934, 15.748), (-8.37934, 19.685), (-8.37934, 31.4961), (-8.37934, 19.685), (-6.33183, 19.685), (-8.37934, 31.4961), (-6.33183, 19.685), (7.36869, 31.4961), (7.36869, 31.4961), (-6.33183, 19.685), (-4.44233, 19.685), (7.36869, 31.4961), (-4.44233, 19.685), (15.2232, 19.685), (7.36869, 31.4961), (15.2232, 19.685), (15.2232, 31.1043), (15.2232, 31.1043), (15.2232, 19.685), (32.8424, 9.41793), (15.2232, 31.1043), (32.8424, 9.41793), (43.8124, 14.4447), (43.8124, 14.4447), (32.8424, 9.41793), (43.8124, 11.1594), (7.87402, 14.4447), (-7.87402, 11.1594), (7.87402, 11.1594), (-7.87402, 11.1594), (7.87402, 14.4447), (-7.87402, 14.4447), (-7.36869, 31.4961), (8.37934, 19.685), (8.37934, 31.4961), (8.37934, 19.685), (-7.36869, 31.4961), (4.44233, 19.685), (4.44233, 19.685), (-7.36869, 31.4961), (-15.2232, 19.685), (-15.2232, 19.685), (-7.36869, 31.4961), (-15.2232, 31.1043), (-15.2232, 19.685), (-15.2232, 31.1043), (-43.8124, 14.4447), (-15.2232, 19.685), (-43.8124, 14.4447), (-32.8424, 9.41793), (-32.8424, 9.41793), (-43.8124, 14.4447), (-43.8124, 11.1594), (8.37934, 15.748), (8.37934, 31.4961), (8.37934, 19.685), (20.1904, 15.748), (8.37934, 31.4961), (8.37934, 15.748), (20.1904, 23.6221), (8.37934, 31.4961), (20.1904, 15.748), (35.9384, 23.6221), (8.37934, 31.4961), (20.1904, 23.6221), (8.37934, 31.4961), (35.9384, 23.6221), (35.9384, 27.5591), (-7.87402, 45.0202), (7.87402, 33.9128), (7.87402, 45.0202), (7.87402, 33.9128), (-7.87402, 45.0202), (-7.87402, 33.9128), (-30.3493, 30.2361), (-30.3588, 15.0687), (-23.6264, 19.1523), (-30.3588, 15.0687), (-30.3493, 30.2361), (-37.0817, 26.1526), (-35.9384, -18.1424), (-32.0014, -10.2684), (-35.9384, -10.2684), (-32.0014, -10.2684), (-35.9384, -18.1424), (-32.0014, -18.1424), (24.9179, 24.8686), (15.9831, 21.5948), (23.6221, 19.685), (15.9831, 21.5948), (24.9179, 24.8686), (17.279, 26.7783), (32.0014, 30.1696), (35.9384, 24.8265), (35.9384, 30.1696), (35.9384, 24.8265), (32.0014, 30.1696), (20.1904, 24.8265), (-35.9384, 24.8265), (-32.0014, 30.1696), (-35.9384, 30.1696), (-32.0014, 30.1696), (-35.9384, 24.8265), (-20.1904, 24.8265)] (interpolation = "faceVarying")
        uniform token subdivisionScheme = "none"
        rel material:binding = </Vehicle/Materials/metalRed>
    }
    def Scope "Materials" {
        def Material "metal" {
            token outputs:surface.connect = </Vehicle/Materials/metal/surface.outputs:surface>
            def Shader "surface" {
                uniform token info:id = "UsdPreviewSurface"
                float inputs:roughness = 0.7
                float inputs:metallic = 0
                color3f inputs:diffuseColor = (0.843137, 0.870588, 0.909804)
                token outputs:surface
            }
        }
        def Material "metalDark" {
            token outputs:surface.connect = </Vehicle/Materials/metalDark/surface.outputs:surface>
            def Shader "surface" {
                uniform token info:id = "UsdPreviewSurface"
                float inputs:roughness = 0.7
                float inputs:metallic = 0
                color3f inputs:diffuseColor = (0.675062, 0.710022, 0.773585)
                token outputs:surface
            }
        }
        def Material "dark" {
            token outputs:surface.connect = </Vehicle/Materials/dark/surface.outputs:surface>
            def Shader "surface" {
                uniform token info:id = "UsdPreviewSurface"
                float inputs:roughness = 0.7
                float inputs:metallic = 0
                color3f inputs:diffuseColor = (0.27451, 0.298039, 0.341176)
                token outputs:surface
            }
        }
        def Material "metalRed" {
            token outputs:surface.connect = </Vehicle/Materials/metalRed/surface.outputs:surface>
            def Shader "surface" {
                uniform token info:id = "UsdPreviewSurface"
                float inputs:roughness = 0.7
                float inputs:metallic = 0
                color3f inputs:diffuseColor = (1, 0.628524, 0.20283)
                token outputs:surface
            }
        }
    }
}
