#usda 1.0
(
    defaultPrim = "Vehicle"
    metersPerUnit = 1
    upAxis = "Y"
)
def Xform "Vehicle" {
    def Mesh "mesh_colormap" {
        int[] faceVertexCounts = [3, 3, 3, 3, 3, 3, 3, 3, 3, 3, 3, 3, 3, 3, 3, 3, 3, 3, 3, 3, 3, 3, 3, 3, 3, 3, 3, 3, 3, 3, 3, 3, 3, 3, 3, 3, 3, 3, 3, 3, 3, 3, 3, 3, 3, 3, 3, 3, 3, 3, 3, 3, 3, 3, 3, 3, 3, 3, 3, 3, 3, 3, 3, 3, 3, 3, 3, 3, 3, 3, 3, 3, 3, 3, 3, 3, 3, 3, 3, 3, 3, 3, 3, 3, 3, 3, 3, 3, 3, 3, 3, 3, 3, 3, 3, 3, 3, 3, 3, 3, 3, 3, 3, 3, 3, 3, 3, 3, 3, 3, 3, 3, 3, 3, 3, 3, 3, 3, 3, 3, 3, 3, 3, 3, 3, 3, 3, 3, 3, 3, 3, 3, 3, 3, 3, 3, 3, 3, 3, 3, 3, 3, 3, 3, 3, 3, 3, 3, 3, 3, 3, 3, 3, 3, 3, 3, 3, 3, 3, 3, 3, 3, 3, 3, 3, 3, 3, 3, 3, 3, 3, 3, 3, 3, 3, 3, 3, 3, 3, 3, 3, 3, 3, 3, 3, 3, 3, 3, 3, 3, 3, 3, 3, 3, 3, 3, 3, 3, 3, 3, 3, 3, 3, 3, 3, 3, 3, 3, 3, 3, 3, 3, 3, 3, 3, 3, 3, 3, 3, 3, 3, 3, 3, 3, 3, 3, 3, 3, 3, 3, 3, 3, 3, 3, 3, 3, 3, 3, 3, 3, 3, 3, 3, 3, 3, 3, 3, 3, 3, 3, 3, 3, 3, 3, 3, 3, 3, 3, 3, 3, 3, 3, 3, 3, 3, 3, 3, 3, 3, 3, 3, 3, 3, 3, 3, 3, 3, 3, 3, 3, 3, 3, 3, 3, 3, 3, 3, 3, 3, 3, 3, 3, 3, 3, 3, 3, 3, 3, 3, 3, 3, 3, 3, 3, 3, 3, 3, 3, 3, 3, 3, 3, 3, 3, 3, 3, 3, 3, 3, 3, 3, 3, 3, 3, 3, 3, 3, 3, 3, 3, 3, 3, 3, 3, 3, 3, 3, 3, 3, 3, 3, 3, 3, 3, 3, 3, 3, 3, 3, 3, 3, 3, 3, 3, 3, 3, 3, 3, 3, 3, 3, 3, 3, 3, 3, 3, 3, 3, 3, 3, 3, 3, 3, 3, 3, 3, 3, 3, 3, 3, 3, 3, 3, 3, 3, 3, 3, 3, 3, 3, 3, 3, 3, 3, 3, 3, 3, 3, 3, 3, 3, 3, 3, 3, 3, 3, 3, 3, 3, 3, 3, 3, 3, 3, 3, 3, 3, 3, 3, 3, 3, 3, 3, 3, 3, 3, 3, 3, 3, 3, 3, 3, 3, 3, 3, 3, 3, 3, 3, 3, 3, 3, 3, 3, 3, 3, 3, 3, 3, 3, 3, 3, 3, 3, 3, 3, 3, 3, 3, 3, 3, 3, 3, 3, 3, 3, 3, 3, 3, 3, 3, 3, 3, 3, 3, 3, 3, 3, 3, 3, 3, 3, 3, 3, 3, 3, 3, 3, 3, 3, 3, 3, 3, 3, 3, 3, 3, 3, 3, 3]
        int[] faceVertexIndices = [2, 1, 0, 1, 2, 3, 6, 5, 4, 5, 6, 7, 10, 9, 8, 9, 10, 11, 14, 13, 12, 13, 14, 15, 8, 17, 16, 17, 8, 9, 19, 3, 18, 3, 19, 20, 13, 1, 21, 1, 13, 0, 0, 13, 15, 0, 15, 16, 0, 16, 17, 12, 21, 20, 21, 12, 13, 0, 9, 2, 9, 0, 17, 8, 15, 14, 15, 8, 16, 9, 22, 2, 22, 9, 11, 23, 8, 14, 8, 23, 10, 20, 1, 3, 1, 20, 21, 24, 14, 12, 14, 24, 23, 24, 20, 19, 20, 24, 12, 27, 26, 25, 26, 27, 28, 31, 30, 29, 32, 30, 31, 32, 31, 33, 32, 33, 34, 35, 30, 32, 36, 30, 35, 36, 25, 30, 25, 36, 27, 31, 38, 37, 38, 31, 29, 39, 26, 28, 26, 39, 40, 40, 39, 41, 40, 41, 42, 40, 42, 38, 38, 42, 37, 37, 42, 43, 43, 42, 44, 43, 31, 37, 31, 43, 33, 44, 33, 43, 33, 44, 34, 42, 34, 44, 34, 42, 32, 35, 42, 41, 42, 35, 32, 36, 41, 39, 41, 36, 35, 27, 39, 28, 39, 27, 36, 47, 46, 45, 46, 47, 48, 51, 50, 49, 52, 50, 51, 52, 51, 53, 52, 53, 54, 55, 50, 52, 56, 50, 55, 56, 45, 50, 45, 56, 47, 51, 58, 57, 58, 51, 49, 59, 46, 48, 46, 59, 60, 60, 59, 61, 60, 61, 62, 60, 62, 58, 58, 62, 57, 57, 62, 63, 63, 62, 64, 63, 51, 57, 51, 63, 53, 64, 53, 63, 53, 64, 54, 62, 54, 64, 54, 62, 52, 55, 62, 61, 62, 55, 52, 56, 61, 59, 61, 56, 55, 47, 59, 48, 59, 47, 56, 67, 66, 65, 66, 67, 68, 66, 70, 69, 70, 66, 68, 70, 71, 69, 71, 70, 72, 72, 68, 67, 68, 72, 70, 66, 71, 65, 71, 66, 69, 75, 74, 73, 74, 75, 76, 74, 78, 77, 78, 74, 76, 78, 79, 77, 79, 78, 80, 80, 76, 75, 76, 80, 78, 74, 79, 73, 79, 74, 77, 22, 3, 2, 3, 22, 18, 18, 22, 81, 81, 22, 82, 81, 82, 83, 83, 82, 84, 85, 18, 81, 18, 85, 86, 86, 85, 87, 86, 87, 88, 91, 90, 89, 90, 91, 92, 92, 93, 90, 93, 92, 94, 94, 95, 93, 95, 94, 96, 95, 98, 97, 98, 95, 96, 101, 100, 99, 100, 101, 102, 102, 101, 103, 106, 105, 104, 105, 106, 107, 107, 106, 108, 83, 103, 101, 103, 83, 84, 101, 81, 83, 81, 101, 99, 85, 107, 87, 107, 85, 105, 88, 107, 108, 107, 88, 87, 109, 23, 24, 23, 109, 110, 111, 24, 19, 24, 111, 109, 110, 10, 23, 10, 110, 112, 97, 106, 104, 106, 97, 98, 91, 100, 102, 100, 91, 89, 111, 18, 86, 18, 111, 19, 112, 11, 10, 11, 112, 113, 11, 82, 22, 82, 11, 113, 106, 88, 108, 106, 86, 88, 86, 106, 98, 98, 111, 86, 111, 98, 109, 109, 98, 96, 109, 96, 110, 110, 96, 94, 110, 94, 112, 112, 94, 92, 112, 92, 91, 112, 91, 113, 113, 91, 102, 102, 82, 113, 102, 84, 82, 84, 102, 103, 116, 115, 114, 115, 116, 117, 117, 116, 118, 118, 116, 119, 119, 116, 120, 4, 122, 121, 122, 4, 5, 123, 5, 7, 5, 123, 122, 123, 121, 122, 121, 123, 124, 121, 6, 4, 6, 121, 124, 126, 4, 125, 4, 126, 127, 4, 127, 128, 128, 127, 129, 128, 129, 130, 130, 131, 128, 131, 130, 132, 135, 134, 133, 5, 134, 135, 134, 5, 131, 134, 131, 136, 136, 131, 132, 134, 129, 127, 129, 134, 136, 135, 126, 125, 126, 135, 133, 126, 134, 127, 134, 126, 133, 136, 130, 129, 130, 136, 132, 135, 4, 5, 4, 135, 125, 12, 3, 20, 3, 12, 2, 2, 12, 14, 2, 14, 8, 2, 8, 9, 81, 99, 85, 7, 85, 99, 7, 99, 100, 7, 105, 85, 6, 105, 7, 7, 100, 123, 6, 104, 105, 123, 100, 89, 90, 123, 89, 93, 123, 90, 95, 123, 93, 104, 6, 124, 95, 124, 123, 95, 104, 124, 104, 95, 97, 138, 120, 137, 138, 119, 120, 117, 139, 115, 140, 139, 117, 118, 138, 141, 119, 138, 118, 117, 141, 140, 118, 141, 117, 116, 143, 142, 143, 116, 114, 137, 116, 142, 116, 137, 120, 115, 143, 114, 143, 115, 139, 2, 1, 0, 1, 2, 3, 6, 5, 4, 5, 6, 7, 10, 9, 8, 9, 10, 11, 14, 13, 12, 13, 14, 15, 8, 17, 16, 17, 8, 9, 19, 3, 18, 3, 19, 20, 13, 1, 21, 1, 13, 0, 0, 13, 15, 0, 15, 16, 0, 16, 17, 12, 21, 20, 21, 12, 13, 0, 9, 2, 9, 0, 17, 8, 15, 14, 15, 8, 16, 9, 22, 2, 22, 9, 11, 23, 8, 14, 8, 23, 10, 20, 1, 3, 1, 20, 21, 24, 14, 12, 14, 24, 23, 24, 20, 19, 20, 24, 12, 27, 26, 25, 26, 27, 28, 31, 30, 29, 32, 30, 31, 32, 31, 33, 32, 33, 34, 35, 30, 32, 36, 30, 35, 36, 25, 30, 25, 36, 27, 31, 38, 37, 38, 31, 29, 39, 26, 28, 26, 39, 40, 40, 39, 41, 40, 41, 42, 40, 42, 38, 38, 42, 37, 37, 42, 43, 43, 42, 44, 43, 31, 37, 31, 43, 33, 44, 33, 43, 33, 44, 34, 42, 34, 44, 34, 42, 32, 35, 42, 41, 42, 35, 32, 36, 41, 39, 41, 36, 35, 27, 39, 28, 39, 27, 36, 47, 46, 45, 46, 47, 48, 51, 50, 49, 52, 50, 51, 52, 51, 53, 52, 53, 54, 55, 50, 52, 56, 50, 55, 56, 45, 50, 45, 56, 47, 51, 58, 57, 58, 51, 49, 59, 46, 48, 46, 59, 60, 60, 59, 61, 60, 61, 62, 60, 62, 58, 58, 62, 57, 57, 62, 63, 63, 62, 64, 63, 51, 57, 51, 63, 53, 64, 53, 63, 53, 64, 54, 62, 54, 64, 54, 62, 52, 55, 62, 61, 62, 55, 52, 56, 61, 59, 61, 56, 55, 47, 59, 48, 59, 47, 56, 67, 66, 65, 66, 67, 68, 66, 70, 69, 70, 66, 68, 70, 71, 69, 71, 70, 72, 72, 68, 67, 68, 72, 70, 66, 71, 65, 71, 66, 69, 75, 74, 73, 74, 75, 76, 74, 78, 77, 78, 74, 76, 78, 79, 77, 79, 78, 80, 80, 76, 75, 76, 80, 78, 74, 79, 73, 79, 74, 77, 22, 3, 2, 3, 22, 18, 18, 22, 81, 81, 22, 82, 81, 82, 83, 83, 82, 84, 85, 18, 81, 18, 85, 86, 86, 85, 87, 86, 87, 88, 91, 90, 89, 90, 91, 92, 92, 93, 90, 93, 92, 94, 94, 95, 93, 95, 94, 96, 95, 98, 97, 98, 95, 96, 101, 100, 99, 100, 101, 102, 102, 101, 103, 106, 105, 104, 105, 106, 107, 107, 106, 108, 83, 103, 101, 103, 83, 84, 101, 81, 83, 81, 101, 99, 85, 107, 87, 107, 85, 105, 88, 107, 108, 107, 88, 87, 109, 23, 24, 23, 109, 110, 111, 24, 19, 24, 111, 109, 110, 10, 23, 10, 110, 112, 97, 106, 104, 106, 97, 98, 91, 100, 102, 100, 91, 89, 111, 18, 86, 18, 111, 19, 112, 11, 10, 11, 112, 113, 11, 82, 22, 82, 11, 113, 106, 88, 108, 106, 86, 88, 86, 106, 98, 98, 111, 86, 111, 98, 109, 109, 98, 96, 109, 96, 110, 110, 96, 94, 110, 94, 112, 112, 94, 92, 112, 92, 91, 112, 91, 113, 113, 91, 102, 102, 82, 113, 102, 84, 82, 84, 102, 103, 116, 115, 114, 115, 116, 117, 117, 116, 118, 118, 116, 119, 119, 116, 120, 4, 122, 121, 122, 4, 5, 123, 5, 7, 5, 123, 122, 123, 121, 122, 121, 123, 124, 121, 6, 4, 6, 121, 124, 126, 4, 125, 4, 126, 127, 4, 127, 128, 128, 127, 129, 128, 129, 130, 130, 131, 128, 131, 130, 132, 135, 134, 133, 5, 134, 135, 134, 5, 131, 134, 131, 136, 136, 131, 132, 134, 129, 127, 129, 134, 136, 135, 126, 125, 126, 135, 133, 126, 134, 127, 134, 126, 133, 136, 130, 129, 130, 136, 132, 135, 4, 5, 4, 135, 125, 12, 3, 20, 3, 12, 2, 2, 12, 14, 2, 14, 8, 2, 8, 9, 81, 99, 85, 7, 85, 99, 7, 99, 100, 7, 105, 85, 6, 105, 7, 7, 100, 123, 6, 104, 105, 123, 100, 89, 90, 123, 89, 93, 123, 90, 95, 123, 93, 104, 6, 124, 95, 124, 123, 95, 104, 124, 104, 95, 97, 138, 120, 137, 138, 119, 120, 117, 139, 115, 140, 139, 117, 118, 138, 141, 119, 138, 118, 117, 141, 140, 118, 141, 117, 116, 143, 142, 143, 116, 114, 137, 116, 142, 116, 137, 120, 115, 143, 114, 143, 115, 139]
        point3f[] points = [(-0.408, 8.91582e-17, -1.735), (0.408, 8.91582e-17, -1.735), (-0.68, 0.3, -1.935), (0.68, 0.3, -1.935), (0.4925, 0.5, -1.535), (-0.4925, 0.5, -1.535), (0.4925, 0.8, -1.535), (-0.4925, 0.8, -1.535), (-0.372, 0.3, 1.485), (-0.68, 0.3, 1.225), (-0.48825, 0.7, 1.80375), (-0.8925, 0.7, 1.4625), (0.372, 0.3, 1.485), (0.2232, 9.02389e-17, 1.021), (7.24799e-13, 0.3, 1.585), (5.45765e-13, 9.02389e-17, 1.081), (-0.2232, 9.02389e-17, 1.021), (-0.408, 9.02389e-17, 0.865), (0.8925, 0.7, -1.935), (0.8925, 0.7, 1.4625), (0.68, 0.3, 1.225), (0.408, 0, 0.865), (-0.8925, 0.7, -1.935), (8.51855e-13, 0.7, 1.935), (0.48825, 0.7, 1.80375), (0.8925, 0.7, -1.14967), (0.8925, 0.7, -0.630401), (0.946, 0.7, -1.14967), (0.946, 0.7, -0.630401), (0.6925, 1, -1.14967), (0.8925, 1, -1.14967), (0.6925, 1.05, -1.14967), (0.97275, 1.075, -1.14967), (0.7425, 1.1, -1.14967), (0.8925, 1.1, -1.14967), (0.9995, 1, -1.14967), (0.9995, 0.7535, -1.14967), (0.6925, 1.05, -0.630401), (0.6925, 1, -0.630401), (0.9995, 0.7535, -0.630401), (0.8925, 1, -0.630401), (0.9995, 1, -0.630401), (0.97275, 1.075, -0.630401), (0.7425, 1.1, -0.630401), (0.8925, 1.1, -0.630401), (-0.8925, 0.7, -0.630401), (-0.8925, 0.7, -1.14967), (-0.946, 0.7, -0.630401), (-0.946, 0.7, -1.14967), (-0.6925, 1, -0.630401), (-0.8925, 1, -0.630401), (-0.6925, 1.05, -0.630401), (-0.97275, 1.075, -0.630401), (-0.7425, 1.1, -0.630401), (-0.8925, 1.1, -0.630401), (-0.9995, 1, -0.630401), (-0.9995, 0.7535, -0.630401), (-0.6925, 1.05, -1.14967), (-0.6925, 1, -1.14967), (-0.9995, 0.7535, -1.14967), (-0.8925, 1, -1.14967), (-0.9995, 1, -1.14967), (-0.97275, 1.075, -1.14967), (-0.7425, 1.1, -1.14967), (-0.8925, 1.1, -1.14967), (-0.4, 0.8, 1.0279), (-0.4, 0.9, 0.9279), (-0.2, 0.8, 1.0279), (-0.2, 0.9, 0.9279), (-0.4, 0.9, 0.3279), (-0.2, 0.9, 0.3279), (-0.4, 0.8, 0.2279), (-0.2, 0.8, 0.2279), (0.2, 0.8, 1.0279), (0.2, 0.9, 0.9279), (0.4, 0.8, 1.0279), (0.4, 0.9, 0.9279), (0.2, 0.9, 0.3279), (0.4, 0.9, 0.3279), (0.2, 0.8, 0.2279), (0.4, 0.8, 0.2279), (-0.2925, 0.8, -1.935), (-0.8925, 1, -1.935), (-0.2925, 0.9, -1.935), (-0.4925, 1, -1.935), (0.2925, 0.8, -1.935), (0.8925, 1, -1.935), (0.2925, 0.9, -1.935), (0.4925, 1, -1.935), (-0.6925, 0.8, 1.3696), (-0.393293, 0.8, 1.62218), (-0.6925, 1, 1.3696), (-0.393293, 1, 1.62218), (7.76777e-13, 0.8, 1.7279), (7.76777e-13, 1, 1.7279), (0.393293, 0.8, 1.62218), (0.393293, 1, 1.62218), (0.6925, 0.8, 1.3696), (0.6925, 1, 1.3696), (-0.2925, 0.8, -1.735), (-0.6925, 0.8, -1.735), (-0.2925, 0.9, -1.735), (-0.6925, 1, -1.735), (-0.4925, 1, -1.735), (0.6925, 0.8, -1.735), (0.2925, 0.8, -1.735), (0.6925, 1, -1.735), (0.2925, 0.9, -1.735), (0.4925, 1, -1.735), (0.48825, 1, 1.80375), (8.51855e-13, 1, 1.935), (0.8925, 1, 1.4625), (-0.48825, 1, 1.80375), (-0.8925, 1, 1.4625), (0.519375, 1.2, -0.629151), (0.519375, 1.2, -0.407526), (-0.519375, 1.2, -0.629151), (0.332562, 1.2, -0.194992), (1.25945e-13, 1.2, -0.112027), (-0.332562, 1.2, -0.194992), (-0.519375, 1.2, -0.407526), (0.4925, 0.5, -0.629151), (-0.4925, 0.5, -0.629151), (-0.4925, 0.8, -0.629151), (0.4925, 0.8, -0.629151), (0.4925, 1, -1.535), (0.4925, 1, -1.435), (0.4925, 0.7, -1.335), (0.4925, 0.5, -1.035), (0.4925, 0.7, -1.135), (0.4925, 0.6, -1.035), (-0.4925, 0.5, -1.035), (-0.4925, 0.6, -1.035), (-0.4925, 1, -1.435), (-0.4925, 0.7, -1.335), (-0.4925, 1, -1.535), (-0.4925, 0.7, -1.135), (-0.6925, 0.8, -0.333651), (-0.443416, 0.8, -0.0502716), (0.6925, 0.8, -0.333651), (0.443416, 0.8, -0.0502716), (1.25945e-13, 0.8, 0.0603485), (-0.6925, 0.8, -0.629151), (0.6925, 0.8, -0.629151)]
        normal3f[] normals = [(0, -0.5547, -0.83205), (0, -0.5547, -0.83205), (0, -0.5547, -0.83205), (0, -0.5547, -0.83205), (0, -0.5547, -0.83205), (0, -0.5547, -0.83205), (0, 0, 1), (0, 0, 1), (0, 0, 1), (0, 0, 1), (0, 0, 1), (0, 0, 1), (-0.347397, -0.644064, 0.68154), (-0.769315, -0.574561, 0.279347), (-0.364175, -0.642844, 0.67389), (-0.769315, -0.574561, 0.279347), (-0.347397, -0.644064, 0.68154), (-0.706938, -0.598928, 0.376197), (0, -0.859293, 0.511484), (0.257795, -0.846977, 0.464942), (0.236947, -0.848734, 0.472764), (0.257795, -0.846977, 0.464942), (0, -0.859293, 0.511484), (0, -0.859293, 0.511484), (-0.236947, -0.848734, 0.472764), (-0.614369, -0.768993, 0.176638), (-0.257795, -0.846977, 0.464942), (-0.614369, -0.768993, 0.176638), (-0.236947, -0.848734, 0.472764), (-0.509689, -0.810035, 0.289931), (0.706938, -0.598928, 0.376197), (0.883116, -0.469155, 0), (0.883116, -0.469155, 0), (0.883116, -0.469155, 0), (0.706938, -0.598928, 0.376197), (0.769315, -0.574561, 0.279347), (0, -1, 0), (0, -1, 0), (0, -1, 0), (0, -1, 0), (0, -1, 0), (0, -1, 0), (0, -1, 0), (0, -1, 0), (0, -1, 0), (0, -1, 0), (0, -1, 0), (0, -1, 0), (0, -1, 0), (0, -1, 0), (0, -1, 0), (0.236947, -0.848734, 0.472764), (0.614369, -0.768993, 0.176638), (0.509689, -0.810035, 0.289931), (0.614369, -0.768993, 0.176638), (0.236947, -0.848734, 0.472764), (0.257795, -0.846977, 0.464942), (-0.740833, -0.671689, 0), (-0.509689, -0.810035, 0.289931), (-0.740833, -0.671689, 0), (-0.509689, -0.810035, 0.289931), (-0.740833, -0.671689, 0), (-0.614369, -0.768993, 0.176638), (-0.236947, -0.848734, 0.472764), (0, -0.859293, 0.511484), (0, -0.859293, 0.511484), (0, -0.859293, 0.511484), (-0.236947, -0.848734, 0.472764), (-0.257795, -0.846977, 0.464942), (-0.769315, -0.574561, 0.279347), (-0.883116, -0.469155, 0), (-0.883116, -0.469155, 0), (-0.883116, -0.469155, 0), (-0.769315, -0.574561, 0.279347), (-0.706938, -0.598928, 0.376197), (0, -0.658505, 0.752577), (-0.364175, -0.642844, 0.67389), (0, -0.658505, 0.752577), (-0.364175, -0.642844, 0.67389), (0, -0.658505, 0.752577), (-0.347397, -0.644064, 0.68154), (0.509689, -0.810035, 0.289931), (0.740833, -0.671689, 0), (0.740833, -0.671689, 0), (0.740833, -0.671689, 0), (0.509689, -0.810035, 0.289931), (0.614369, -0.768993, 0.176638), (0.347397, -0.644064, 0.68154), (0, -0.658505, 0.752577), (0.364175, -0.642844, 0.67389), (0, -0.658505, 0.752577), (0.347397, -0.644064, 0.68154), (0, -0.658505, 0.752577), (0.347397, -0.644064, 0.68154), (0.769315, -0.574561, 0.279347), (0.706938, -0.598928, 0.376197), (0.769315, -0.574561, 0.279347), (0.347397, -0.644064, 0.68154), (0.364175, -0.642844, 0.67389), (0.382683, -0.923879, -3.59175e-13), (0, -1, 0), (0, -1, 0), (0, -1, 0), (0.382683, -0.923879, -3.59175e-13), (0.382683, -0.923879, -3.59175e-13), (-9.38569e-13, 0, -1), (-9.38569e-13, 0, -1), (-9.38569e-13, 0, -1), (-9.38569e-13, 0, -1), (-9.38569e-13, 0, -1), (-9.38569e-13, 0, -1), (-9.38569e-13, 0, -1), (-9.38569e-13, 0, -1), (-9.38569e-13, 0, -1), (-9.38569e-13, 0, -1), (-9.38569e-13, 0, -1), (-9.38569e-13, 0, -1), (-9.38569e-13, 0, -1), (-9.38569e-13, 0, -1), (-9.38569e-13, 0, -1), (-9.38569e-13, 0, -1), (-9.38569e-13, 0, -1), (-9.38569e-13, 0, -1), (-9.38569e-13, 0, -1), (-9.38569e-13, 0, -1), (-9.38569e-13, 0, -1), (-9.38569e-13, 0, -1), (-9.38569e-13, 0, -1), (-9.38569e-13, 0, -1), (-0.923879, 0.382683, 8.67124e-13), (-1, 0, 9.38569e-13), (-0.923879, 0.382683, 8.67124e-13), (-1, 0, 9.38569e-13), (-0.923879, 0.382683, 8.67124e-13), (-1, 0, 9.38569e-13), (9.38569e-13, 0, 1), (9.38569e-13, 0, 1), (9.38569e-13, 0, 1), (9.38569e-13, 0, 1), (9.38569e-13, 0, 1), (9.38569e-13, 0, 1), (9.38569e-13, 0, 1), (9.38569e-13, 0, 1), (9.38569e-13, 0, 1), (9.38569e-13, 0, 1), (9.38569e-13, 0, 1), (9.38569e-13, 0, 1), (9.38569e-13, 0, 1), (9.38569e-13, 0, 1), (9.38569e-13, 0, 1), (9.38569e-13, 0, 1), (9.38569e-13, 0, 1), (9.38569e-13, 0, 1), (9.38569e-13, 0, 1), (9.38569e-13, 0, 1), (9.38569e-13, 0, 1), (9.38569e-13, 0, 1), (9.38569e-13, 0, 1), (9.38569e-13, 0, 1), (-0.382683, 0.923879, 3.59175e-13), (-0.923879, 0.382683, 8.67124e-13), (-0.923879, 0.382683, 8.67124e-13), (-0.923879, 0.382683, 8.67124e-13), (-0.382683, 0.923879, 3.59175e-13), (-0.382683, 0.923879, 3.59175e-13), (0.150426, 0.988621, -1.41185e-13), (-0.382683, 0.923879, 3.59175e-13), (-0.382683, 0.923879, 3.59175e-13), (-0.382683, 0.923879, 3.59175e-13), (0.150426, 0.988621, -1.41185e-13), (0.150426, 0.988621, -1.41185e-13), (0.692606, 0.721316, -6.50059e-13), (0.150426, 0.988621, -1.41185e-13), (0.150426, 0.988621, -1.41185e-13), (0.150426, 0.988621, -1.41185e-13), (0.692606, 0.721316, -6.50059e-13), (0.692606, 0.721316, -6.50059e-13), (0.985364, 0.170464, -9.24832e-13), (0.692606, 0.721316, -6.50059e-13), (0.985364, 0.170464, -9.24832e-13), (0.692606, 0.721316, -6.50059e-13), (0.985364, 0.170464, -9.24832e-13), (0.692606, 0.721316, -6.50059e-13), (0.923879, -0.382683, -8.67124e-13), (0.985364, 0.170464, -9.24832e-13), (0.923879, -0.382683, -8.67124e-13), (0.985364, 0.170464, -9.24832e-13), (0.923879, -0.382683, -8.67124e-13), (0.985364, 0.170464, -9.24832e-13), (0.382683, -0.923879, -3.59175e-13), (0.923879, -0.382683, -8.67124e-13), (0.382683, -0.923879, -3.59175e-13), (0.923879, -0.382683, -8.67124e-13), (0.382683, -0.923879, -3.59175e-13), (0.923879, -0.382683, -8.67124e-13), (-0.382683, -0.923879, 0), (0, -1, 0), (0, -1, 0), (0, -1, 0), (-0.382683, -0.923879, 0), (-0.382683, -0.923879, 0), (0, 0, 1), (0, 0, 1), (0, 0, 1), (0, 0, 1), (0, 0, 1), (0, 0, 1), (0, 0, 1), (0, 0, 1), (0, 0, 1), (0, 0, 1), (0, 0, 1), (0, 0, 1), (0, 0, 1), (0, 0, 1), (0, 0, 1), (0, 0, 1), (0, 0, 1), (0, 0, 1), (0, 0, 1), (0, 0, 1), (0, 0, 1), (0, 0, 1), (0, 0, 1), (0, 0, 1), (0.923879, 0.382683, 0), (1, 0, 0), (0.923879, 0.382683, 0), (1, 0, 0), (0.923879, 0.382683, 0), (1, 0, 0), (0, 0, -1), (0, 0, -1), (0, 0, -1), (0, 0, -1), (0, 0, -1), (0, 0, -1), (0, 0, -1), (0, 0, -1), (0, 0, -1), (0, 0, -1), (0, 0, -1), (0, 0, -1), (0, 0, -1), (0, 0, -1), (0, 0, -1), (0, 0, -1), (0, 0, -1), (0, 0, -1), (0, 0, -1), (0, 0, -1), (0, 0, -1), (0, 0, -1), (0, 0, -1), (0, 0, -1), (0.382683, 0.923879, 0), (0.923879, 0.382683, 0), (0.923879, 0.382683, 0), (0.923879, 0.382683, 0), (0.382683, 0.923879, 0), (0.382683, 0.923879, 0), (-0.150426, 0.988621, 0), (0.382683, 0.923879, 0), (0.382683, 0.923879, 0), (0.382683, 0.923879, 0), (-0.150426, 0.988621, 0), (-0.150426, 0.988621, 0), (-0.692606, 0.721316, 0), (-0.150426, 0.988621, 0), (-0.150426, 0.988621, 0), (-0.150426, 0.988621, 0), (-0.692606, 0.721316, 0), (-0.692606, 0.721316, 0), (-0.985364, 0.170464, 0), (-0.692606, 0.721316, 0), (-0.985364, 0.170464, 0), (-0.692606, 0.721316, 0), (-0.985364, 0.170464, 0), (-0.692606, 0.721316, 0), (-0.923879, -0.382683, 0), (-0.985364, 0.170464, 0), (-0.923879, -0.382683, 0), (-0.985364, 0.170464, 0), (-0.923879, -0.382683, 0), (-0.985364, 0.170464, 0), (-0.382683, -0.923879, 0), (-0.923879, -0.382683, 0), (-0.382683, -0.923879, 0), (-0.923879, -0.382683, 0), (-0.382683, -0.923879, 0), (-0.923879, -0.382683, 0), (-2.5381e-13, 0.707107, 0.707107), (-1.37361e-13, 0.923879, 0.382683), (-2.5381e-13, 0.707107, 0.707107), (-1.37361e-13, 0.923879, 0.382683), (-2.5381e-13, 0.707107, 0.707107), (-1.37361e-13, 0.923879, 0.382683), (-1.37361e-13, 0.923879, 0.382683), (1.37361e-13, 0.923879, -0.382683), (1.37361e-13, 0.923879, -0.382683), (1.37361e-13, 0.923879, -0.382683), (-1.37361e-13, 0.923879, 0.382683), (-1.37361e-13, 0.923879, 0.382683), (1.37361e-13, 0.923879, -0.382683), (2.5381e-13, 0.707107, -0.707107), (1.37361e-13, 0.923879, -0.382683), (2.5381e-13, 0.707107, -0.707107), (1.37361e-13, 0.923879, -0.382683), (2.5381e-13, 0.707107, -0.707107), (1, 0, 3.58942e-13), (1, 0, 3.58942e-13), (1, 0, 3.58942e-13), (1, 0, 3.58942e-13), (1, 0, 3.58942e-13), (1, 0, 3.58942e-13), (-1, 0, -3.58942e-13), (-1, 0, -3.58942e-13), (-1, 0, -3.58942e-13), (-1, 0, -3.58942e-13), (-1, 0, -3.58942e-13), (-1, 0, -3.58942e-13), (-2.5381e-13, 0.707107, 0.707107), (-1.37361e-13, 0.923879, 0.382683), (-2.5381e-13, 0.707107, 0.707107), (-1.37361e-13, 0.923879, 0.382683), (-2.5381e-13, 0.707107, 0.707107), (-1.37361e-13, 0.923879, 0.382683), (-1.37361e-13, 0.923879, 0.382683), (1.37361e-13, 0.923879, -0.382683), (1.37361e-13, 0.923879, -0.382683), (1.37361e-13, 0.923879, -0.382683), (-1.37361e-13, 0.923879, 0.382683), (-1.37361e-13, 0.923879, 0.382683), (1.37361e-13, 0.923879, -0.382683), (2.5381e-13, 0.707107, -0.707107), (1.37361e-13, 0.923879, -0.382683), (2.5381e-13, 0.707107, -0.707107), (1.37361e-13, 0.923879, -0.382683), (2.5381e-13, 0.707107, -0.707107), (1, 0, 3.58942e-13), (1, 0, 3.58942e-13), (1, 0, 3.58942e-13), (1, 0, 3.58942e-13), (1, 0, 3.58942e-13), (1, 0, 3.58942e-13), (-1, 0, -3.58942e-13), (-1, 0, -3.58942e-13), (-1, 0, -3.58942e-13), (-1, 0, -3.58942e-13), (-1, 0, -3.58942e-13), (-1, 0, -3.58942e-13), (0, 0, -1), (0, 0, -1), (0, 0, -1), (0, 0, -1), (0, 0, -1), (0, 0, -1), (0, 0, -1), (0, 0, -1), (0, 0, -1), (0, 0, -1), (0, 0, -1), (0, 0, -1), (0, 0, -1), (0, 0, -1), (0, 0, -1), (0, 0, -1), (0, 0, -1), (0, 0, -1), (0, 0, -1), (0, 0, -1), (0, 0, -1), (0, 0, -1), (0, 0, -1), (0, 0, -1), (0, 0, -1), (0, 0, -1), (0, 0, -1), (0, 0, -1), (0, 0, -1), (0, 0, -1), (0.645052, 0, -0.764139), (0.46342, 0, -0.886139), (0.645052, 0, -0.764139), (0.46342, 0, -0.886139), (0.645052, 0, -0.764139), (0.46342, 0, -0.886139), (0.46342, 0, -0.886139), (0, 0, -1), (0.46342, 0, -0.886139), (0, 0, -1), (0.46342, 0, -0.886139), (0, 0, -1), (0, 0, -1), (-0.46342, 0, -0.886139), (0, 0, -1), (-0.46342, 0, -0.886139), (0, 0, -1), (-0.46342, 0, -0.886139), (-0.46342, 0, -0.886139), (-0.645052, 0, -0.764139), (-0.645052, 0, -0.764139), (-0.645052, 0, -0.764139), (-0.46342, 0, -0.886139), (-0.46342, 0, -0.886139), (0, 0, 1), (0, 0, 1), (0, 0, 1), (0, 0, 1), (0, 0, 1), (0, 0, 1), (0, 0, 1), (0, 0, 1), (0, 0, 1), (0, 0, 1), (0, 0, 1), (0, 0, 1), (0, 0, 1), (0, 0, 1), (0, 0, 1), (0, 0, 1), (0, 0, 1), (0, 0, 1), (0.850651, 0.525731, 0), (0.447214, 0.894427, 0), (0.850651, 0.525731, 0), (0.447214, 0.894427, 0), (0.850651, 0.525731, 0), (0.447214, 0.894427, 0), (0.850651, 0.525731, 0), (1, 0, 0), (0.850651, 0.525731, 0), (1, 0, 0), (0.850651, 0.525731, 0), (1, 0, 0), (-1, 0, 0), (-0.850651, 0.525731, 0), (-0.850651, 0.525731, 0), (-0.850651, 0.525731, 0), (-1, 0, 0), (-1, 0, 0), (-0.447214, 0.894427, 0), (-0.850651, 0.525731, 0), (-0.447214, 0.894427, 0), (-0.850651, 0.525731, 0), (-0.447214, 0.894427, 0), (-0.850651, 0.525731, 0), (0.46342, 0, 0.886139), (0, 0, 1), (0.46342, 0, 0.886139), (0, 0, 1), (0.46342, 0, 0.886139), (0, 0, 1), (0.906932, 0, 0.421277), (0.46342, 0, 0.886139), (0.906932, 0, 0.421277), (0.46342, 0, 0.886139), (0.906932, 0, 0.421277), (0.46342, 0, 0.886139), (0, 0, 1), (-0.46342, 0, 0.886139), (0, 0, 1), (-0.46342, 0, 0.886139), (0, 0, 1), (-0.46342, 0, 0.886139), (-1, 0, 0), (-1, 0, 0), (-1, 0, 0), (-1, 0, 0), (-1, 0, 0), (-1, 0, 0), (1, 0, 0), (1, 0, 0), (1, 0, 0), (1, 0, 0), (1, 0, 0), (1, 0, 0), (0.906932, 0, 0.421277), (1, 0, 0), (1, 0, 0), (1, 0, 0), (0.906932, 0, 0.421277), (0.906932, 0, 0.421277), (-0.46342, 0, 0.886139), (-0.906932, 0, 0.421277), (-0.46342, 0, 0.886139), (-0.906932, 0, 0.421277), (-0.46342, 0, 0.886139), (-0.906932, 0, 0.421277), (-0.906932, 0, 0.421277), (-1, 0, 0), (-1, 0, 0), (-1, 0, 0), (-0.906932, 0, 0.421277), (-0.906932, 0, 0.421277), (0, 1, 0), (0, 1, 0), (0, 1, 0), (0, 1, 0), (0, 1, 0), (0, 1, 0), (0, 1, 0), (0, 1, 0), (0, 1, 0), (0, 1, 0), (0, 1, 0), (0, 1, 0), (0, 1, 0), (0, 1, 0), (0, 1, 0), (0, 1, 0), (0, 1, 0), (0, 1, 0), (0, 1, 0), (0, 1, 0), (0, 1, 0), (0, 1, 0), (0, 1, 0), (0, 1, 0), (0, 1, 0), (0, 1, 0), (0, 1, 0), (0, 1, 0), (0, 1, 0), (0, 1, 0), (0, 1, 0), (0, 1, 0), (0, 1, 0), (0, 1, 0), (0, 1, 0), (0, 1, 0), (0, 1, 0), (0, 1, 0), (0, 1, 0), (0, 1, 0), (0, 1, 0), (0, 1, 0), (0, 1, 0), (0, 1, 0), (0, 1, 0), (0, 1, 0), (0, 1, 0), (0, 1, 0), (0, 1, 0), (0, 1, 0), (0, 1, 0), (0, 1, 0), (0, 1, 0), (0, 1, 0), (0, 1, 0), (0, 1, 0), (0, 1, 0), (0, 1, 0), (0, 1, 0), (0, 1, 0), (0, 1, 0), (0, 1, 0), (0, 1, 0), (0, 1, 0), (0, 1, 0), (0, 1, 0), (0, 1, 0), (0, 1, 0), (0, 1, 0), (1, 0, 0), (1, 0, 0), (1, 0, 0), (1, 0, 0), (1, 0, 0), (1, 0, 0), (0, 0, -1), (0, 0, -1), (0, 0, -1), (0, 0, -1), (0, 0, -1), (0, 0, -1), (-1, 0, 0), (-1, 0, 0), (-1, 0, 0), (-1, 0, 0), (-1, 0, 0), (-1, 0, 0), (1, 0, 0), (1, 0, 0), (1, 0, 0), (1, 0, 0), (1, 0, 0), (1, 0, 0), (1, 0, 0), (1, 0, 0), (1, 0, 0), (1, 0, 0), (1, 0, 0), (1, 0, 0), (1, 0, 0), (1, 0, 0), (1, 0, 0), (0, 0.382683, 0.923879), (0, 0, 1), (0, 0, 1), (0, 0, 1), (0, 0.382683, 0.923879), (0, 0.382683, 0.923879), (-1, 0, 0), (-1, 0, 0), (-1, 0, 0), (-1, 0, 0), (-1, 0, 0), (-1, 0, 0), (-1, 0, 0), (-1, 0, 0), (-1, 0, 0), (-1, 0, 0), (-1, 0, 0), (-1, 0, 0), (-1, 0, 0), (-1, 0, 0), (-1, 0, 0), (0, 1, 0), (0, 0.923879, 0.382683), (0, 1, 0), (0, 0.923879, 0.382683), (0, 1, 0), (0, 0.923879, 0.382683), (0, 1, 0), (0, 0.811242, 0.58471), (0, 1, 0), (0, 0.811242, 0.58471), (0, 1, 0), (0, 0.811242, 0.58471), (0, 0.811242, 0.58471), (0, 0.316228, 0.948683), (0, 0.316228, 0.948683), (0, 0.316228, 0.948683), (0, 0.811242, 0.58471), (0, 0.811242, 0.58471), (0, 0.923879, 0.382683), (0, 0.382683, 0.923879), (0, 0.923879, 0.382683), (0, 0.382683, 0.923879), (0, 0.923879, 0.382683), (0, 0.382683, 0.923879), (0, 0, -1), (0, 0, -1), (0, 0, -1), (0, 0, -1), (0, 0, -1), (0, 0, -1), (0, -1, 0), (0, -1, 0), (0, -1, 0), (0, -1, 0), (0, -1, 0), (0, -1, 0), (0, -1, 0), (0, -1, 0), (0, -1, 0), (0, -1, 0), (0, -1, 0), (0, -1, 0), (0, -1, 0), (0, -1, 0), (0, -1, 0), (0, 1, 0), (0, 1, 0), (0, 1, 0), (0, 1, 0), (0, 1, 0), (0, 1, 0), (0, 1, 0), (0, 1, 0), (0, 1, 0), (0, 1, 0), (0, 1, 0), (0, 1, 0), (0, 1, 0), (0, 1, 0), (0, 1, 0), (0, 1, 0), (0, 1, 0), (0, 1, 0), (0, 1, 0), (0, 1, 0), (0, 1, 0), (0, 1, 0), (0, 1, 0), (0, 1, 0), (0, 1, 0), (0, 1, 0), (0, 1, 0), (0, 1, 0), (0, 1, 0), (0, 1, 0), (0, 1, 0), (0, 1, 0), (0, 1, 0), (0, 1, 0), (0, 1, 0), (0, 1, 0), (0, 1, 0), (0, 1, 0), (0, 1, 0), (0, 1, 0), (0, 1, 0), (0, 1, 0), (0, 1, 0), (0, 1, 0), (0, 1, 0), (-0.441932, 0.410965, 0.797373), (-0.685704, 0.408096, 0.602717), (-0.685704, 0.408096, 0.602717), (-0.441932, 0.410965, 0.797373), (-0.461839, 0.412147, 0.785391), (-0.685704, 0.408096, 0.602717), (0.461839, 0.412147, 0.785391), (0.685704, 0.408096, 0.602717), (0.685704, 0.408096, 0.602717), (0.441932, 0.410965, 0.797373), (0.685704, 0.408096, 0.602717), (0.461839, 0.412147, 0.785391), (0, 0.395754, 0.918356), (-0.441932, 0.410965, 0.797373), (0, 0.395754, 0.918356), (-0.461839, 0.412147, 0.785391), (-0.441932, 0.410965, 0.797373), (0, 0.395754, 0.918356), (0.461839, 0.412147, 0.785391), (0, 0.395754, 0.918356), (0.441932, 0.410965, 0.797373), (0, 0.395754, 0.918356), (0, 0.395754, 0.918356), (0.461839, 0.412147, 0.785391), (0, 0, -1), (0, 0, -1), (0, 0, -1), (0, 0, -1), (0, 0, -1), (0, 0, -1), (-0.91773, 0.397205, 0), (-0.91773, 0.397205, 0), (-0.91773, 0.397205, 0), (-0.91773, 0.397205, 0), (-0.91773, 0.397205, 0), (-0.91773, 0.397205, 0), (0.91773, 0.397205, 0), (0.91773, 0.397205, 0), (0.91773, 0.397205, 0), (0.91773, 0.397205, 0), (0.91773, 0.397205, 0), (0.91773, 0.397205, 0), (0, -0.5547, -0.83205), (0, -0.5547, -0.83205), (0, -0.5547, -0.83205), (0, -0.5547, -0.83205), (0, -0.5547, -0.83205), (0, -0.5547, -0.83205), (0, 0, 1), (0, 0, 1), (0, 0, 1), (0, 0, 1), (0, 0, 1), (0, 0, 1), (-0.347397, -0.644064, 0.68154), (-0.769315, -0.574561, 0.279347), (-0.364175, -0.642844, 0.67389), (-0.769315, -0.574561, 0.279347), (-0.347397, -0.644064, 0.68154), (-0.706938, -0.598928, 0.376197), (0, -0.859293, 0.511484), (0.257795, -0.846977, 0.464942), (0.236947, -0.848734, 0.472764), (0.257795, -0.846977, 0.464942), (0, -0.859293, 0.511484), (0, -0.859293, 0.511484), (-0.236947, -0.848734, 0.472764), (-0.614369, -0.768993, 0.176638), (-0.257795, -0.846977, 0.464942), (-0.614369, -0.768993, 0.176638), (-0.236947, -0.848734, 0.472764), (-0.509689, -0.810035, 0.289931), (0.706938, -0.598928, 0.376197), (0.883116, -0.469155, 0), (0.883116, -0.469155, 0), (0.883116, -0.469155, 0), (0.706938, -0.598928, 0.376197), (0.769315, -0.574561, 0.279347), (0, -1, 0), (0, -1, 0), (0, -1, 0), (0, -1, 0), (0, -1, 0), (0, -1, 0), (0, -1, 0), (0, -1, 0), (0, -1, 0), (0, -1, 0), (0, -1, 0), (0, -1, 0), (0, -1, 0), (0, -1, 0), (0, -1, 0), (0.236947, -0.848734, 0.472764), (0.614369, -0.768993, 0.176638), (0.509689, -0.810035, 0.289931), (0.614369, -0.768993, 0.176638), (0.236947, -0.848734, 0.472764), (0.257795, -0.846977, 0.464942), (-0.740833, -0.671689, 0), (-0.509689, -0.810035, 0.289931), (-0.740833, -0.671689, 0), (-0.509689, -0.810035, 0.289931), (-0.740833, -0.671689, 0), (-0.614369, -0.768993, 0.176638), (-0.236947, -0.848734, 0.472764), (0, -0.859293, 0.511484), (0, -0.859293, 0.511484), (0, -0.859293, 0.511484), (-0.236947, -0.848734, 0.472764), (-0.257795, -0.846977, 0.464942), (-0.769315, -0.574561, 0.279347), (-0.883116, -0.469155, 0), (-0.883116, -0.469155, 0), (-0.883116, -0.469155, 0), (-0.769315, -0.574561, 0.279347), (-0.706938, -0.598928, 0.376197), (0, -0.658505, 0.752577), (-0.364175, -0.642844, 0.67389), (0, -0.658505, 0.752577), (-0.364175, -0.642844, 0.67389), (0, -0.658505, 0.752577), (-0.347397, -0.644064, 0.68154), (0.509689, -0.810035, 0.289931), (0.740833, -0.671689, 0), (0.740833, -0.671689, 0), (0.740833, -0.671689, 0), (0.509689, -0.810035, 0.289931), (0.614369, -0.768993, 0.176638), (0.347397, -0.644064, 0.68154), (0, -0.658505, 0.752577), (0.364175, -0.642844, 0.67389), (0, -0.658505, 0.752577), (0.347397, -0.644064, 0.68154), (0, -0.658505, 0.752577), (0.347397, -0.644064, 0.68154), (0.769315, -0.574561, 0.279347), (0.706938, -0.598928, 0.376197), (0.769315, -0.574561, 0.279347), (0.347397, -0.644064, 0.68154), (0.364175, -0.642844, 0.67389), (0.382683, -0.923879, -3.59175e-13), (0, -1, 0), (0, -1, 0), (0, -1, 0), (0.382683, -0.923879, -3.59175e-13), (0.382683, -0.923879, -3.59175e-13), (-9.38569e-13, 0, -1), (-9.38569e-13, 0, -1), (-9.38569e-13, 0, -1), (-9.38569e-13, 0, -1), (-9.38569e-13, 0, -1), (-9.38569e-13, 0, -1), (-9.38569e-13, 0, -1), (-9.38569e-13, 0, -1), (-9.38569e-13, 0, -1), (-9.38569e-13, 0, -1), (-9.38569e-13, 0, -1), (-9.38569e-13, 0, -1), (-9.38569e-13, 0, -1), (-9.38569e-13, 0, -1), (-9.38569e-13, 0, -1), (-9.38569e-13, 0, -1), (-9.38569e-13, 0, -1), (-9.38569e-13, 0, -1), (-9.38569e-13, 0, -1), (-9.38569e-13, 0, -1), (-9.38569e-13, 0, -1), (-9.38569e-13, 0, -1), (-9.38569e-13, 0, -1), (-9.38569e-13, 0, -1), (-0.923879, 0.382683, 8.67124e-13), (-1, 0, 9.38569e-13), (-0.923879, 0.382683, 8.67124e-13), (-1, 0, 9.38569e-13), (-0.923879, 0.382683, 8.67124e-13), (-1, 0, 9.38569e-13), (9.38569e-13, 0, 1), (9.38569e-13, 0, 1), (9.38569e-13, 0, 1), (9.38569e-13, 0, 1), (9.38569e-13, 0, 1), (9.38569e-13, 0, 1), (9.38569e-13, 0, 1), (9.38569e-13, 0, 1), (9.38569e-13, 0, 1), (9.38569e-13, 0, 1), (9.38569e-13, 0, 1), (9.38569e-13, 0, 1), (9.38569e-13, 0, 1), (9.38569e-13, 0, 1), (9.38569e-13, 0, 1), (9.38569e-13, 0, 1), (9.38569e-13, 0, 1), (9.38569e-13, 0, 1), (9.38569e-13, 0, 1), (9.38569e-13, 0, 1), (9.38569e-13, 0, 1), (9.38569e-13, 0, 1), (9.38569e-13, 0, 1), (9.38569e-13, 0, 1), (-0.382683, 0.923879, 3.59175e-13), (-0.923879, 0.382683, 8.67124e-13), (-0.923879, 0.382683, 8.67124e-13), (-0.923879, 0.382683, 8.67124e-13), (-0.382683, 0.923879, 3.59175e-13), (-0.382683, 0.923879, 3.59175e-13), (0.150426, 0.988621, -1.41185e-13), (-0.382683, 0.923879, 3.59175e-13), (-0.382683, 0.923879, 3.59175e-13), (-0.382683, 0.923879, 3.59175e-13), (0.150426, 0.988621, -1.41185e-13), (0.150426, 0.988621, -1.41185e-13), (0.692606, 0.721316, -6.50059e-13), (0.150426, 0.988621, -1.41185e-13), (0.150426, 0.988621, -1.41185e-13), (0.150426, 0.988621, -1.41185e-13), (0.692606, 0.721316, -6.50059e-13), (0.692606, 0.721316, -6.50059e-13), (0.985364, 0.170464, -9.24832e-13), (0.692606, 0.721316, -6.50059e-13), (0.985364, 0.170464, -9.24832e-13), (0.692606, 0.721316, -6.50059e-13), (0.985364, 0.170464, -9.24832e-13), (0.692606, 0.721316, -6.50059e-13), (0.923879, -0.382683, -8.67124e-13), (0.985364, 0.170464, -9.24832e-13), (0.923879, -0.382683, -8.67124e-13), (0.985364, 0.170464, -9.24832e-13), (0.923879, -0.382683, -8.67124e-13), (0.985364, 0.170464, -9.24832e-13), (0.382683, -0.923879, -3.59175e-13), (0.923879, -0.382683, -8.67124e-13), (0.382683, -0.923879, -3.59175e-13), (0.923879, -0.382683, -8.67124e-13), (0.382683, -0.923879, -3.59175e-13), (0.923879, -0.382683, -8.67124e-13), (-0.382683, -0.923879, 0), (0, -1, 0), (0, -1, 0), (0, -1, 0), (-0.382683, -0.923879, 0), (-0.382683, -0.923879, 0), (0, 0, 1), (0, 0, 1), (0, 0, 1), (0, 0, 1), (0, 0, 1), (0, 0, 1), (0, 0, 1), (0, 0, 1), (0, 0, 1), (0, 0, 1), (0, 0, 1), (0, 0, 1), (0, 0, 1), (0, 0, 1), (0, 0, 1), (0, 0, 1), (0, 0, 1), (0, 0, 1), (0, 0, 1), (0, 0, 1), (0, 0, 1), (0, 0, 1), (0, 0, 1), (0, 0, 1), (0.923879, 0.382683, 0), (1, 0, 0), (0.923879, 0.382683, 0), (1, 0, 0), (0.923879, 0.382683, 0), (1, 0, 0), (0, 0, -1), (0, 0, -1), (0, 0, -1), (0, 0, -1), (0, 0, -1), (0, 0, -1), (0, 0, -1), (0, 0, -1), (0, 0, -1), (0, 0, -1), (0, 0, -1), (0, 0, -1), (0, 0, -1), (0, 0, -1), (0, 0, -1), (0, 0, -1), (0, 0, -1), (0, 0, -1), (0, 0, -1), (0, 0, -1), (0, 0, -1), (0, 0, -1), (0, 0, -1), (0, 0, -1), (0.382683, 0.923879, 0), (0.923879, 0.382683, 0), (0.923879, 0.382683, 0), (0.923879, 0.382683, 0), (0.382683, 0.923879, 0), (0.382683, 0.923879, 0), (-0.150426, 0.988621, 0), (0.382683, 0.923879, 0), (0.382683, 0.923879, 0), (0.382683, 0.923879, 0), (-0.150426, 0.988621, 0), (-0.150426, 0.988621, 0), (-0.692606, 0.721316, 0), (-0.150426, 0.988621, 0), (-0.150426, 0.988621, 0), (-0.150426, 0.988621, 0), (-0.692606, 0.721316, 0), (-0.692606, 0.721316, 0), (-0.985364, 0.170464, 0), (-0.692606, 0.721316, 0), (-0.985364, 0.170464, 0), (-0.692606, 0.721316, 0), (-0.985364, 0.170464, 0), (-0.692606, 0.721316, 0), (-0.923879, -0.382683, 0), (-0.985364, 0.170464, 0), (-0.923879, -0.382683, 0), (-0.985364, 0.170464, 0), (-0.923879, -0.382683, 0), (-0.985364, 0.170464, 0), (-0.382683, -0.923879, 0), (-0.923879, -0.382683, 0), (-0.382683, -0.923879, 0), (-0.923879, -0.382683, 0), (-0.382683, -0.923879, 0), (-0.923879, -0.382683, 0), (-2.5381e-13, 0.707107, 0.707107), (-1.37361e-13, 0.923879, 0.382683), (-2.5381e-13, 0.707107, 0.707107), (-1.37361e-13, 0.923879, 0.382683), (-2.5381e-13, 0.707107, 0.707107), (-1.37361e-13, 0.923879, 0.382683), (-1.37361e-13, 0.923879, 0.382683), (1.37361e-13, 0.923879, -0.382683), (1.37361e-13, 0.923879, -0.382683), (1.37361e-13, 0.923879, -0.382683), (-1.37361e-13, 0.923879, 0.382683), (-1.37361e-13, 0.923879, 0.382683), (1.37361e-13, 0.923879, -0.382683), (2.5381e-13, 0.707107, -0.707107), (1.37361e-13, 0.923879, -0.382683), (2.5381e-13, 0.707107, -0.707107), (1.37361e-13, 0.923879, -0.382683), (2.5381e-13, 0.707107, -0.707107), (1, 0, 3.58942e-13), (1, 0, 3.58942e-13), (1, 0, 3.58942e-13), (1, 0, 3.58942e-13), (1, 0, 3.58942e-13), (1, 0, 3.58942e-13), (-1, 0, -3.58942e-13), (-1, 0, -3.58942e-13), (-1, 0, -3.58942e-13), (-1, 0, -3.58942e-13), (-1, 0, -3.58942e-13), (-1, 0, -3.58942e-13), (-2.5381e-13, 0.707107, 0.707107), (-1.37361e-13, 0.923879, 0.382683), (-2.5381e-13, 0.707107, 0.707107), (-1.37361e-13, 0.923879, 0.382683), (-2.5381e-13, 0.707107, 0.707107), (-1.37361e-13, 0.923879, 0.382683), (-1.37361e-13, 0.923879, 0.382683), (1.37361e-13, 0.923879, -0.382683), (1.37361e-13, 0.923879, -0.382683), (1.37361e-13, 0.923879, -0.382683), (-1.37361e-13, 0.923879, 0.382683), (-1.37361e-13, 0.923879, 0.382683), (1.37361e-13, 0.923879, -0.382683), (2.5381e-13, 0.707107, -0.707107), (1.37361e-13, 0.923879, -0.382683), (2.5381e-13, 0.707107, -0.707107), (1.37361e-13, 0.923879, -0.382683), (2.5381e-13, 0.707107, -0.707107), (1, 0, 3.58942e-13), (1, 0, 3.58942e-13), (1, 0, 3.58942e-13), (1, 0, 3.58942e-13), (1, 0, 3.58942e-13), (1, 0, 3.58942e-13), (-1, 0, -3.58942e-13), (-1, 0, -3.58942e-13), (-1, 0, -3.58942e-13), (-1, 0, -3.58942e-13), (-1, 0, -3.58942e-13), (-1, 0, -3.58942e-13), (0, 0, -1), (0, 0, -1), (0, 0, -1), (0, 0, -1), (0, 0, -1), (0, 0, -1), (0, 0, -1), (0, 0, -1), (0, 0, -1), (0, 0, -1), (0, 0, -1), (0, 0, -1), (0, 0, -1), (0, 0, -1), (0, 0, -1), (0, 0, -1), (0, 0, -1), (0, 0, -1), (0, 0, -1), (0, 0, -1), (0, 0, -1), (0, 0, -1), (0, 0, -1), (0, 0, -1), (0, 0, -1), (0, 0, -1), (0, 0, -1), (0, 0, -1), (0, 0, -1), (0, 0, -1), (0.645052, 0, -0.764139), (0.46342, 0, -0.886139), (0.645052, 0, -0.764139), (0.46342, 0, -0.886139), (0.645052, 0, -0.764139), (0.46342, 0, -0.886139), (0.46342, 0, -0.886139), (0, 0, -1), (0.46342, 0, -0.886139), (0, 0, -1), (0.46342, 0, -0.886139), (0, 0, -1), (0, 0, -1), (-0.46342, 0, -0.886139), (0, 0, -1), (-0.46342, 0, -0.886139), (0, 0, -1), (-0.46342, 0, -0.886139), (-0.46342, 0, -0.886139), (-0.645052, 0, -0.764139), (-0.645052, 0, -0.764139), (-0.645052, 0, -0.764139), (-0.46342, 0, -0.886139), (-0.46342, 0, -0.886139), (0, 0, 1), (0, 0, 1), (0, 0, 1), (0, 0, 1), (0, 0, 1), (0, 0, 1), (0, 0, 1), (0, 0, 1), (0, 0, 1), (0, 0, 1), (0, 0, 1), (0, 0, 1), (0, 0, 1), (0, 0, 1), (0, 0, 1), (0, 0, 1), (0, 0, 1), (0, 0, 1), (0.850651, 0.525731, 0), (0.447214, 0.894427, 0), (0.850651, 0.525731, 0), (0.447214, 0.894427, 0), (0.850651, 0.525731, 0), (0.447214, 0.894427, 0), (0.850651, 0.525731, 0), (1, 0, 0), (0.850651, 0.525731, 0), (1, 0, 0), (0.850651, 0.525731, 0), (1, 0, 0), (-1, 0, 0), (-0.850651, 0.525731, 0), (-0.850651, 0.525731, 0), (-0.850651, 0.525731, 0), (-1, 0, 0), (-1, 0, 0), (-0.447214, 0.894427, 0), (-0.850651, 0.525731, 0), (-0.447214, 0.894427, 0), (-0.850651, 0.525731, 0), (-0.447214, 0.894427, 0), (-0.850651, 0.525731, 0), (0.46342, 0, 0.886139), (0, 0, 1), (0.46342, 0, 0.886139), (0, 0, 1), (0.46342, 0, 0.886139), (0, 0, 1), (0.906932, 0, 0.421277), (0.46342, 0, 0.886139), (0.906932, 0, 0.421277), (0.46342, 0, 0.886139), (0.906932, 0, 0.421277), (0.46342, 0, 0.886139), (0, 0, 1), (-0.46342, 0, 0.886139), (0, 0, 1), (-0.46342, 0, 0.886139), (0, 0, 1), (-0.46342, 0, 0.886139), (-1, 0, 0), (-1, 0, 0), (-1, 0, 0), (-1, 0, 0), (-1, 0, 0), (-1, 0, 0), (1, 0, 0), (1, 0, 0), (1, 0, 0), (1, 0, 0), (1, 0, 0), (1, 0, 0), (0.906932, 0, 0.421277), (1, 0, 0), (1, 0, 0), (1, 0, 0), (0.906932, 0, 0.421277), (0.906932, 0, 0.421277), (-0.46342, 0, 0.886139), (-0.906932, 0, 0.421277), (-0.46342, 0, 0.886139), (-0.906932, 0, 0.421277), (-0.46342, 0, 0.886139), (-0.906932, 0, 0.421277), (-0.906932, 0, 0.421277), (-1, 0, 0), (-1, 0, 0), (-1, 0, 0), (-0.906932, 0, 0.421277), (-0.906932, 0, 0.421277), (0, 1, 0), (0, 1, 0), (0, 1, 0), (0, 1, 0), (0, 1, 0), (0, 1, 0), (0, 1, 0), (0, 1, 0), (0, 1, 0), (0, 1, 0), (0, 1, 0), (0, 1, 0), (0, 1, 0), (0, 1, 0), (0, 1, 0), (0, 1, 0), (0, 1, 0), (0, 1, 0), (0, 1, 0), (0, 1, 0), (0, 1, 0), (0, 1, 0), (0, 1, 0), (0, 1, 0), (0, 1, 0), (0, 1, 0), (0, 1, 0), (0, 1, 0), (0, 1, 0), (0, 1, 0), (0, 1, 0), (0, 1, 0), (0, 1, 0), (0, 1, 0), (0, 1, 0), (0, 1, 0), (0, 1, 0), (0, 1, 0), (0, 1, 0), (0, 1, 0), (0, 1, 0), (0, 1, 0), (0, 1, 0), (0, 1, 0), (0, 1, 0), (0, 1, 0), (0, 1, 0), (0, 1, 0), (0, 1, 0), (0, 1, 0), (0, 1, 0), (0, 1, 0), (0, 1, 0), (0, 1, 0), (0, 1, 0), (0, 1, 0), (0, 1, 0), (0, 1, 0), (0, 1, 0), (0, 1, 0), (0, 1, 0), (0, 1, 0), (0, 1, 0), (0, 1, 0), (0, 1, 0), (0, 1, 0), (0, 1, 0), (0, 1, 0), (0, 1, 0), (1, 0, 0), (1, 0, 0), (1, 0, 0), (1, 0, 0), (1, 0, 0), (1, 0, 0), (0, 0, -1), (0, 0, -1), (0, 0, -1), (0, 0, -1), (0, 0, -1), (0, 0, -1), (-1, 0, 0), (-1, 0, 0), (-1, 0, 0), (-1, 0, 0), (-1, 0, 0), (-1, 0, 0), (1, 0, 0), (1, 0, 0), (1, 0, 0), (1, 0, 0), (1, 0, 0), (1, 0, 0), (1, 0, 0), (1, 0, 0), (1, 0, 0), (1, 0, 0), (1, 0, 0), (1, 0, 0), (1, 0, 0), (1, 0, 0), (1, 0, 0), (0, 0.382683, 0.923879), (0, 0, 1), (0, 0, 1), (0, 0, 1), (0, 0.382683, 0.923879), (0, 0.382683, 0.923879), (-1, 0, 0), (-1, 0, 0), (-1, 0, 0), (-1, 0, 0), (-1, 0, 0), (-1, 0, 0), (-1, 0, 0), (-1, 0, 0), (-1, 0, 0), (-1, 0, 0), (-1, 0, 0), (-1, 0, 0), (-1, 0, 0), (-1, 0, 0), (-1, 0, 0), (0, 1, 0), (0, 0.923879, 0.382683), (0, 1, 0), (0, 0.923879, 0.382683), (0, 1, 0), (0, 0.923879, 0.382683), (0, 1, 0), (0, 0.811242, 0.58471), (0, 1, 0), (0, 0.811242, 0.58471), (0, 1, 0), (0, 0.811242, 0.58471), (0, 0.811242, 0.58471), (0, 0.316228, 0.948683), (0, 0.316228, 0.948683), (0, 0.316228, 0.948683), (0, 0.811242, 0.58471), (0, 0.811242, 0.58471), (0, 0.923879, 0.382683), (0, 0.382683, 0.923879), (0, 0.923879, 0.382683), (0, 0.382683, 0.923879), (0, 0.923879, 0.382683), (0, 0.382683, 0.923879), (0, 0, -1), (0, 0, -1), (0, 0, -1), (0, 0, -1), (0, 0, -1), (0, 0, -1), (0, -1, 0), (0, -1, 0), (0, -1, 0), (0, -1, 0), (0, -1, 0), (0, -1, 0), (0, -1, 0), (0, -1, 0), (0, -1, 0), (0, -1, 0), (0, -1, 0), (0, -1, 0), (0, -1, 0), (0, -1, 0), (0, -1, 0), (0, 1, 0), (0, 1, 0), (0, 1, 0), (0, 1, 0), (0, 1, 0), (0, 1, 0), (0, 1, 0), (0, 1, 0), (0, 1, 0), (0, 1, 0), (0, 1, 0), (0, 1, 0), (0, 1, 0), (0, 1, 0), (0, 1, 0), (0, 1, 0), (0, 1, 0), (0, 1, 0), (0, 1, 0), (0, 1, 0), (0, 1, 0), (0, 1, 0), (0, 1, 0), (0, 1, 0), (0, 1, 0), (0, 1, 0), (0, 1, 0), (0, 1, 0), (0, 1, 0), (0, 1, 0), (0, 1, 0), (0, 1, 0), (0, 1, 0), (0, 1, 0), (0, 1, 0), (0, 1, 0), (0, 1, 0), (0, 1, 0), (0, 1, 0), (0, 1, 0), (0, 1, 0), (0, 1, 0), (0, 1, 0), (0, 1, 0), (0, 1, 0), (-0.441932, 0.410965, 0.797373), (-0.685704, 0.408096, 0.602717), (-0.685704, 0.408096, 0.602717), (-0.441932, 0.410965, 0.797373), (-0.461839, 0.412147, 0.785391), (-0.685704, 0.408096, 0.602717), (0.461839, 0.412147, 0.785391), (0.685704, 0.408096, 0.602717), (0.685704, 0.408096, 0.602717), (0.441932, 0.410965, 0.797373), (0.685704, 0.408096, 0.602717), (0.461839, 0.412147, 0.785391), (0, 0.395754, 0.918356), (-0.441932, 0.410965, 0.797373), (0, 0.395754, 0.918356), (-0.461839, 0.412147, 0.785391), (-0.441932, 0.410965, 0.797373), (0, 0.395754, 0.918356), (0.461839, 0.412147, 0.785391), (0, 0.395754, 0.918356), (0.441932, 0.410965, 0.797373), (0, 0.395754, 0.918356), (0, 0.395754, 0.918356), (0.461839, 0.412147, 0.785391), (0, 0, -1), (0, 0, -1), (0, 0, -1), (0, 0, -1), (0, 0, -1), (0, 0, -1), (-0.91773, 0.397205, 0), (-0.91773, 0.397205, 0), (-0.91773, 0.397205, 0), (-0.91773, 0.397205, 0), (-0.91773, 0.397205, 0), (-0.91773, 0.397205, 0), (0.91773, 0.397205, 0), (0.91773, 0.397205, 0), (0.91773, 0.397205, 0), (0.91773, 0.397205, 0), (0.91773, 0.397205, 0), (0.91773, 0.397205, 0)] (interpolation = "faceVarying")
        texCoord2f[] primvars:st = [(0.71875, 0.085), (0.71875, 0.025), (0.71875, 0.025), (0.71875, 0.025), (0.71875, 0.085), (0.71875, 0.085), (0.71875, 0.185), (0.71875, 0.125), (0.71875, 0.125), (0.71875, 0.125), (0.71875, 0.185), (0.71875, 0.185), (0.71875, 0.165), (0.71875, 0.085), (0.71875, 0.085), (0.71875, 0.085), (0.71875, 0.165), (0.71875, 0.165), (0.71875, 0.085), (0.71875, 0.025), (0.71875, 0.085), (0.71875, 0.025), (0.71875, 0.085), (0.71875, 0.025), (0.71875, 0.085), (0.71875, 0.025), (0.71875, 0.025), (0.71875, 0.025), (0.71875, 0.085), (0.71875, 0.085), (0.71875, 0.165), (0.71875, 0.085), (0.71875, 0.165), (0.71875, 0.085), (0.71875, 0.165), (0.71875, 0.085), (0.71875, 0.025), (0.71875, 0.025), (0.71875, 0.025), (0.71875, 0.025), (0.71875, 0.025), (0.71875, 0.025), (0.71875, 0.025), (0.71875, 0.025), (0.71875, 0.025), (0.71875, 0.025), (0.71875, 0.025), (0.71875, 0.025), (0.71875, 0.025), (0.71875, 0.025), (0.71875, 0.025), (0.71875, 0.085), (0.71875, 0.025), (0.71875, 0.085), (0.71875, 0.025), (0.71875, 0.085), (0.71875, 0.025), (0.71875, 0.025), (0.71875, 0.085), (0.71875, 0.085), (0.71875, 0.085), (0.71875, 0.025), (0.71875, 0.025), (0.71875, 0.085), (0.71875, 0.025), (0.71875, 0.085), (0.71875, 0.025), (0.71875, 0.085), (0.71875, 0.025), (0.71875, 0.085), (0.71875, 0.165), (0.71875, 0.085), (0.71875, 0.165), (0.71875, 0.085), (0.71875, 0.165), (0.71875, 0.165), (0.71875, 0.085), (0.71875, 0.085), (0.71875, 0.085), (0.71875, 0.165), (0.71875, 0.165), (0.71875, 0.085), (0.71875, 0.025), (0.71875, 0.085), (0.71875, 0.025), (0.71875, 0.085), (0.71875, 0.025), (0.71875, 0.165), (0.71875, 0.085), (0.71875, 0.085), (0.71875, 0.085), (0.71875, 0.165), (0.71875, 0.165), (0.71875, 0.165), (0.71875, 0.085), (0.71875, 0.165), (0.71875, 0.085), (0.71875, 0.165), (0.71875, 0.085), (0.71875, 0.025), (0.71875, 0.025), (0.71875, 0.025), (0.71875, 0.025), (0.71875, 0.025), (0.71875, 0.025), (0.71875, 0.2), (0.71875, 0.175), (0.71875, 0.175), (0.71875, 0.2125), (0.71875, 0.175), (0.71875, 0.2), (0.71875, 0.2125), (0.71875, 0.2), (0.71875, 0.225), (0.71875, 0.2125), (0.71875, 0.225), (0.71875, 0.225), (0.71875, 0.175), (0.71875, 0.175), (0.71875, 0.2125), (0.71875, 0.05175), (0.71875, 0.175), (0.71875, 0.175), (0.71875, 0.05175), (0.71875, 0.025), (0.71875, 0.175), (0.71875, 0.025), (0.71875, 0.05175), (0.71875, 0.025), (0.71875, 0.2), (0.71875, 0.175), (0.71875, 0.2), (0.71875, 0.175), (0.71875, 0.2), (0.71875, 0.175), (0.71875, 0.05175), (0.71875, 0.025), (0.71875, 0.025), (0.71875, 0.025), (0.71875, 0.05175), (0.71875, 0.175), (0.71875, 0.175), (0.71875, 0.05175), (0.71875, 0.175), (0.71875, 0.175), (0.71875, 0.175), (0.71875, 0.2125), (0.71875, 0.175), (0.71875, 0.2125), (0.71875, 0.175), (0.71875, 0.175), (0.71875, 0.2125), (0.71875, 0.2), (0.71875, 0.2), (0.71875, 0.2125), (0.71875, 0.225), (0.71875, 0.225), (0.71875, 0.2125), (0.71875, 0.225), (0.71875, 0.225), (0.71875, 0.2), (0.71875, 0.2), (0.71875, 0.2), (0.71875, 0.225), (0.71875, 0.225), (0.71875, 0.225), (0.71875, 0.225), (0.71875, 0.225), (0.71875, 0.225), (0.71875, 0.225), (0.71875, 0.225), (0.71875, 0.2125), (0.71875, 0.225), (0.71875, 0.225), (0.71875, 0.225), (0.71875, 0.2125), (0.71875, 0.2125), (0.71875, 0.175), (0.71875, 0.2125), (0.71875, 0.175), (0.71875, 0.2125), (0.71875, 0.175), (0.71875, 0.2125), (0.71875, 0.05175), (0.71875, 0.175), (0.71875, 0.05175), (0.71875, 0.175), (0.71875, 0.05175), (0.71875, 0.175), (0.71875, 0.025), (0.71875, 0.05175), (0.71875, 0.025), (0.71875, 0.05175), (0.71875, 0.025), (0.71875, 0.05175), (0.71875, 0.025), (0.71875, 0.025), (0.71875, 0.025), (0.71875, 0.025), (0.71875, 0.025), (0.71875, 0.025), (0.71875, 0.2), (0.71875, 0.175), (0.71875, 0.175), (0.71875, 0.2125), (0.71875, 0.175), (0.71875, 0.2), (0.71875, 0.2125), (0.71875, 0.2), (0.71875, 0.225), (0.71875, 0.2125), (0.71875, 0.225), (0.71875, 0.225), (0.71875, 0.175), (0.71875, 0.175), (0.71875, 0.2125), (0.71875, 0.05175), (0.71875, 0.175), (0.71875, 0.175), (0.71875, 0.05175), (0.71875, 0.025), (0.71875, 0.175), (0.71875, 0.025), (0.71875, 0.05175), (0.71875, 0.025), (0.71875, 0.2), (0.71875, 0.175), (0.71875, 0.2), (0.71875, 0.175), (0.71875, 0.2), (0.71875, 0.175), (0.71875, 0.05175), (0.71875, 0.025), (0.71875, 0.025), (0.71875, 0.025), (0.71875, 0.05175), (0.71875, 0.175), (0.71875, 0.175), (0.71875, 0.05175), (0.71875, 0.175), (0.71875, 0.175), (0.71875, 0.175), (0.71875, 0.2125), (0.71875, 0.175), (0.71875, 0.2125), (0.71875, 0.175), (0.71875, 0.175), (0.71875, 0.2125), (0.71875, 0.2), (0.71875, 0.2), (0.71875, 0.2125), (0.71875, 0.225), (0.71875, 0.225), (0.71875, 0.2125), (0.71875, 0.225), (0.71875, 0.225), (0.71875, 0.2), (0.71875, 0.2), (0.71875, 0.2), (0.71875, 0.225), (0.71875, 0.225), (0.71875, 0.225), (0.71875, 0.225), (0.71875, 0.225), (0.71875, 0.225), (0.71875, 0.225), (0.71875, 0.225), (0.71875, 0.2125), (0.71875, 0.225), (0.71875, 0.225), (0.71875, 0.225), (0.71875, 0.2125), (0.71875, 0.2125), (0.71875, 0.175), (0.71875, 0.2125), (0.71875, 0.175), (0.71875, 0.2125), (0.71875, 0.175), (0.71875, 0.2125), (0.71875, 0.05175), (0.71875, 0.175), (0.71875, 0.05175), (0.71875, 0.175), (0.71875, 0.05175), (0.71875, 0.175), (0.71875, 0.025), (0.71875, 0.05175), (0.71875, 0.025), (0.71875, 0.05175), (0.71875, 0.025), (0.71875, 0.05175), (0.71875, 0.025), (0.71875, 0.225), (0.71875, 0.025), (0.71875, 0.225), (0.71875, 0.025), (0.71875, 0.225), (0.71875, 0.225), (0.71875, 0.225), (0.71875, 0.225), (0.71875, 0.225), (0.71875, 0.225), (0.71875, 0.225), (0.71875, 0.225), (0.71875, 0.025), (0.71875, 0.225), (0.71875, 0.025), (0.71875, 0.225), (0.71875, 0.025), (0.71875, 0.025), (0.71875, 0.225), (0.71875, 0.025), (0.71875, 0.225), (0.71875, 0.025), (0.71875, 0.225), (0.71875, 0.225), (0.71875, 0.025), (0.71875, 0.025), (0.71875, 0.025), (0.71875, 0.225), (0.71875, 0.225), (0.71875, 0.025), (0.71875, 0.225), (0.71875, 0.025), (0.71875, 0.225), (0.71875, 0.025), (0.71875, 0.225), (0.71875, 0.225), (0.71875, 0.225), (0.71875, 0.225), (0.71875, 0.225), (0.71875, 0.225), (0.71875, 0.225), (0.71875, 0.225), (0.71875, 0.025), (0.71875, 0.225), (0.71875, 0.025), (0.71875, 0.225), (0.71875, 0.025), (0.71875, 0.025), (0.71875, 0.225), (0.71875, 0.025), (0.71875, 0.225), (0.71875, 0.025), (0.71875, 0.225), (0.71875, 0.225), (0.71875, 0.025), (0.71875, 0.025), (0.71875, 0.025), (0.71875, 0.225), (0.71875, 0.225), (0.46875, 0.415), (0.46875, 0.335), (0.46875, 0.335), (0.46875, 0.335), (0.46875, 0.415), (0.46875, 0.415), (0.46875, 0.415), (0.46875, 0.415), (0.46875, 0.435), (0.46875, 0.435), (0.46875, 0.415), (0.46875, 0.475), (0.46875, 0.435), (0.46875, 0.475), (0.46875, 0.455), (0.46875, 0.455), (0.46875, 0.475), (0.46875, 0.475), (0.46875, 0.435), (0.46875, 0.415), (0.46875, 0.435), (0.46875, 0.415), (0.46875, 0.435), (0.46875, 0.475), (0.46875, 0.475), (0.46875, 0.435), (0.46875, 0.455), (0.46875, 0.475), (0.46875, 0.455), (0.46875, 0.475), (0.46875, 0.475), (0.46875, 0.435), (0.46875, 0.435), (0.46875, 0.435), (0.46875, 0.475), (0.46875, 0.475), (0.46875, 0.475), (0.46875, 0.435), (0.46875, 0.435), (0.46875, 0.435), (0.46875, 0.475), (0.46875, 0.475), (0.46875, 0.475), (0.46875, 0.435), (0.46875, 0.435), (0.46875, 0.435), (0.46875, 0.475), (0.46875, 0.475), (0.46875, 0.435), (0.46875, 0.475), (0.46875, 0.435), (0.46875, 0.475), (0.46875, 0.435), (0.46875, 0.475), (0.46875, 0.455), (0.46875, 0.435), (0.46875, 0.435), (0.46875, 0.435), (0.46875, 0.455), (0.46875, 0.475), (0.46875, 0.475), (0.46875, 0.455), (0.46875, 0.475), (0.46875, 0.475), (0.46875, 0.435), (0.46875, 0.435), (0.46875, 0.435), (0.46875, 0.475), (0.46875, 0.455), (0.46875, 0.455), (0.46875, 0.475), (0.46875, 0.475), (0.46875, 0.455), (0.46875, 0.475), (0.46875, 0.455), (0.46875, 0.475), (0.46875, 0.455), (0.46875, 0.475), (0.46875, 0.455), (0.46875, 0.435), (0.46875, 0.455), (0.46875, 0.435), (0.46875, 0.455), (0.46875, 0.435), (0.46875, 0.435), (0.46875, 0.455), (0.46875, 0.455), (0.46875, 0.455), (0.46875, 0.435), (0.46875, 0.435), (0.46875, 0.475), (0.46875, 0.455), (0.46875, 0.475), (0.46875, 0.455), (0.46875, 0.475), (0.46875, 0.455), (0.46875, 0.475), (0.46875, 0.415), (0.46875, 0.415), (0.46875, 0.415), (0.46875, 0.475), (0.46875, 0.475), (0.46875, 0.475), (0.46875, 0.415), (0.46875, 0.415), (0.46875, 0.415), (0.46875, 0.475), (0.46875, 0.475), (0.46875, 0.475), (0.46875, 0.415), (0.46875, 0.415), (0.46875, 0.415), (0.46875, 0.475), (0.46875, 0.475), (0.46875, 0.435), (0.46875, 0.475), (0.46875, 0.435), (0.46875, 0.475), (0.46875, 0.435), (0.46875, 0.475), (0.46875, 0.475), (0.46875, 0.435), (0.46875, 0.475), (0.46875, 0.435), (0.46875, 0.475), (0.46875, 0.435), (0.46875, 0.475), (0.46875, 0.415), (0.46875, 0.475), (0.46875, 0.415), (0.46875, 0.475), (0.46875, 0.415), (0.46875, 0.475), (0.46875, 0.415), (0.46875, 0.415), (0.46875, 0.415), (0.46875, 0.475), (0.46875, 0.475), (0.46875, 0.415), (0.46875, 0.475), (0.46875, 0.415), (0.46875, 0.475), (0.46875, 0.415), (0.46875, 0.475), (0.46875, 0.475), (0.46875, 0.475), (0.46875, 0.475), (0.46875, 0.475), (0.46875, 0.475), (0.46875, 0.475), (0.46875, 0.475), (0.46875, 0.475), (0.46875, 0.475), (0.46875, 0.475), (0.46875, 0.475), (0.46875, 0.475), (0.46875, 0.475), (0.46875, 0.475), (0.46875, 0.475), (0.46875, 0.475), (0.46875, 0.475), (0.46875, 0.475), (0.46875, 0.475), (0.46875, 0.475), (0.46875, 0.475), (0.46875, 0.475), (0.46875, 0.475), (0.46875, 0.475), (0.46875, 0.475), (0.46875, 0.475), (0.46875, 0.475), (0.46875, 0.475), (0.46875, 0.475), (0.46875, 0.475), (0.46875, 0.475), (0.46875, 0.475), (0.46875, 0.475), (0.46875, 0.475), (0.46875, 0.475), (0.46875, 0.475), (0.46875, 0.475), (0.46875, 0.475), (0.46875, 0.475), (0.46875, 0.475), (0.46875, 0.475), (0.46875, 0.475), (0.46875, 0.475), (0.46875, 0.475), (0.46875, 0.475), (0.46875, 0.475), (0.46875, 0.475), (0.46875, 0.475), (0.46875, 0.475), (0.46875, 0.475), (0.46875, 0.475), (0.46875, 0.475), (0.46875, 0.475), (0.46875, 0.475), (0.46875, 0.475), (0.46875, 0.475), (0.46875, 0.475), (0.46875, 0.475), (0.46875, 0.475), (0.46875, 0.475), (0.46875, 0.475), (0.46875, 0.475), (0.46875, 0.475), (0.46875, 0.125), (0.46875, 0.125), (0.46875, 0.125), (0.46875, 0.125), (0.46875, 0.125), (0.46875, 0.125), (0.46875, 0.185), (0.46875, 0.125), (0.46875, 0.185), (0.46875, 0.125), (0.46875, 0.185), (0.46875, 0.125), (0.46875, 0.185), (0.46875, 0.125), (0.46875, 0.125), (0.46875, 0.125), (0.46875, 0.185), (0.46875, 0.185), (0.46875, 0.125), (0.46875, 0.185), (0.46875, 0.125), (0.46875, 0.185), (0.46875, 0.125), (0.46875, 0.185), (0.46875, 0.225), (0.46875, 0.025), (0.46875, 0.225), (0.46875, 0.025), (0.46875, 0.225), (0.46875, 0.105), (0.46875, 0.025), (0.46875, 0.105), (0.46875, 0.025), (0.46875, 0.025), (0.46875, 0.105), (0.46875, 0.105), (0.46875, 0.025), (0.46875, 0.105), (0.46875, 0.065), (0.46875, 0.065), (0.46875, 0.025), (0.46875, 0.025), (0.46875, 0.025), (0.46875, 0.065), (0.46875, 0.065), (0.46875, 0.225), (0.46875, 0.105), (0.46875, 0.225), (0.46875, 0.025), (0.46875, 0.105), (0.46875, 0.225), (0.46875, 0.105), (0.46875, 0.025), (0.46875, 0.025), (0.46875, 0.105), (0.46875, 0.025), (0.46875, 0.105), (0.46875, 0.105), (0.46875, 0.025), (0.46875, 0.065), (0.46875, 0.105), (0.46875, 0.105), (0.46875, 0.105), (0.46875, 0.105), (0.46875, 0.105), (0.46875, 0.105), (0.46875, 0.225), (0.46875, 0.225), (0.46875, 0.225), (0.46875, 0.225), (0.46875, 0.225), (0.46875, 0.225), (0.46875, 0.225), (0.46875, 0.105), (0.46875, 0.105), (0.46875, 0.105), (0.46875, 0.225), (0.46875, 0.225), (0.46875, 0.105), (0.46875, 0.065), (0.46875, 0.105), (0.46875, 0.065), (0.46875, 0.105), (0.46875, 0.065), (0.46875, 0.225), (0.46875, 0.025), (0.46875, 0.025), (0.46875, 0.025), (0.46875, 0.225), (0.46875, 0.225), (0.71875, 0.085), (0.71875, 0.085), (0.71875, 0.085), (0.71875, 0.085), (0.71875, 0.085), (0.71875, 0.085), (0.71875, 0.085), (0.71875, 0.085), (0.71875, 0.085), (0.71875, 0.085), (0.71875, 0.085), (0.71875, 0.085), (0.71875, 0.085), (0.71875, 0.085), (0.71875, 0.085), (0.84375, 0.185), (0.84375, 0.185), (0.84375, 0.185), (0.84375, 0.185), (0.84375, 0.185), (0.84375, 0.185), (0.84375, 0.185), (0.84375, 0.185), (0.84375, 0.185), (0.84375, 0.185), (0.84375, 0.185), (0.84375, 0.185), (0.84375, 0.185), (0.84375, 0.185), (0.84375, 0.185), (0.84375, 0.185), (0.84375, 0.185), (0.84375, 0.185), (0.84375, 0.185), (0.84375, 0.185), (0.84375, 0.185), (0.84375, 0.185), (0.84375, 0.185), (0.84375, 0.185), (0.84375, 0.185), (0.84375, 0.185), (0.84375, 0.185), (0.84375, 0.185), (0.84375, 0.185), (0.84375, 0.185), (0.84375, 0.185), (0.84375, 0.185), (0.84375, 0.185), (0.84375, 0.185), (0.84375, 0.185), (0.84375, 0.185), (0.84375, 0.185), (0.84375, 0.185), (0.84375, 0.185), (0.84375, 0.185), (0.84375, 0.185), (0.84375, 0.185), (0.84375, 0.185), (0.84375, 0.185), (0.84375, 0.185), (0.09375, 0.025), (0.09375, 0.225), (0.09375, 0.025), (0.09375, 0.025), (0.09375, 0.225), (0.09375, 0.225), (0.09375, 0.225), (0.09375, 0.025), (0.09375, 0.225), (0.09375, 0.025), (0.09375, 0.025), (0.09375, 0.225), (0.09375, 0.225), (0.09375, 0.025), (0.09375, 0.025), (0.09375, 0.225), (0.09375, 0.025), (0.09375, 0.225), (0.09375, 0.225), (0.09375, 0.025), (0.09375, 0.025), (0.09375, 0.225), (0.09375, 0.025), (0.09375, 0.225), (0.09375, 0.225), (0.09375, 0.025), (0.09375, 0.025), (0.09375, 0.025), (0.09375, 0.225), (0.09375, 0.225), (0.09375, 0.025), (0.09375, 0.225), (0.09375, 0.025), (0.09375, 0.225), (0.09375, 0.025), (0.09375, 0.225), (0.09375, 0.225), (0.09375, 0.025), (0.09375, 0.225), (0.09375, 0.025), (0.09375, 0.225), (0.09375, 0.025), (0.71875, 0.085), (0.71875, 0.025), (0.71875, 0.025), (0.71875, 0.025), (0.71875, 0.085), (0.71875, 0.085), (0.71875, 0.185), (0.71875, 0.125), (0.71875, 0.125), (0.71875, 0.125), (0.71875, 0.185), (0.71875, 0.185), (0.71875, 0.165), (0.71875, 0.085), (0.71875, 0.085), (0.71875, 0.085), (0.71875, 0.165), (0.71875, 0.165), (0.71875, 0.085), (0.71875, 0.025), (0.71875, 0.085), (0.71875, 0.025), (0.71875, 0.085), (0.71875, 0.025), (0.71875, 0.085), (0.71875, 0.025), (0.71875, 0.025), (0.71875, 0.025), (0.71875, 0.085), (0.71875, 0.085), (0.71875, 0.165), (0.71875, 0.085), (0.71875, 0.165), (0.71875, 0.085), (0.71875, 0.165), (0.71875, 0.085), (0.71875, 0.025), (0.71875, 0.025), (0.71875, 0.025), (0.71875, 0.025), (0.71875, 0.025), (0.71875, 0.025), (0.71875, 0.025), (0.71875, 0.025), (0.71875, 0.025), (0.71875, 0.025), (0.71875, 0.025), (0.71875, 0.025), (0.71875, 0.025), (0.71875, 0.025), (0.71875, 0.025), (0.71875, 0.085), (0.71875, 0.025), (0.71875, 0.085), (0.71875, 0.025), (0.71875, 0.085), (0.71875, 0.025), (0.71875, 0.025), (0.71875, 0.085), (0.71875, 0.085), (0.71875, 0.085), (0.71875, 0.025), (0.71875, 0.025), (0.71875, 0.085), (0.71875, 0.025), (0.71875, 0.085), (0.71875, 0.025), (0.71875, 0.085), (0.71875, 0.025), (0.71875, 0.085), (0.71875, 0.165), (0.71875, 0.085), (0.71875, 0.165), (0.71875, 0.085), (0.71875, 0.165), (0.71875, 0.165), (0.71875, 0.085), (0.71875, 0.085), (0.71875, 0.085), (0.71875, 0.165), (0.71875, 0.165), (0.71875, 0.085), (0.71875, 0.025), (0.71875, 0.085), (0.71875, 0.025), (0.71875, 0.085), (0.71875, 0.025), (0.71875, 0.165), (0.71875, 0.085), (0.71875, 0.085), (0.71875, 0.085), (0.71875, 0.165), (0.71875, 0.165), (0.71875, 0.165), (0.71875, 0.085), (0.71875, 0.165), (0.71875, 0.085), (0.71875, 0.165), (0.71875, 0.085), (0.71875, 0.025), (0.71875, 0.025), (0.71875, 0.025), (0.71875, 0.025), (0.71875, 0.025), (0.71875, 0.025), (0.71875, 0.2), (0.71875, 0.175), (0.71875, 0.175), (0.71875, 0.2125), (0.71875, 0.175), (0.71875, 0.2), (0.71875, 0.2125), (0.71875, 0.2), (0.71875, 0.225), (0.71875, 0.2125), (0.71875, 0.225), (0.71875, 0.225), (0.71875, 0.175), (0.71875, 0.175), (0.71875, 0.2125), (0.71875, 0.05175), (0.71875, 0.175), (0.71875, 0.175), (0.71875, 0.05175), (0.71875, 0.025), (0.71875, 0.175), (0.71875, 0.025), (0.71875, 0.05175), (0.71875, 0.025), (0.71875, 0.2), (0.71875, 0.175), (0.71875, 0.2), (0.71875, 0.175), (0.71875, 0.2), (0.71875, 0.175), (0.71875, 0.05175), (0.71875, 0.025), (0.71875, 0.025), (0.71875, 0.025), (0.71875, 0.05175), (0.71875, 0.175), (0.71875, 0.175), (0.71875, 0.05175), (0.71875, 0.175), (0.71875, 0.175), (0.71875, 0.175), (0.71875, 0.2125), (0.71875, 0.175), (0.71875, 0.2125), (0.71875, 0.175), (0.71875, 0.175), (0.71875, 0.2125), (0.71875, 0.2), (0.71875, 0.2), (0.71875, 0.2125), (0.71875, 0.225), (0.71875, 0.225), (0.71875, 0.2125), (0.71875, 0.225), (0.71875, 0.225), (0.71875, 0.2), (0.71875, 0.2), (0.71875, 0.2), (0.71875, 0.225), (0.71875, 0.225), (0.71875, 0.225), (0.71875, 0.225), (0.71875, 0.225), (0.71875, 0.225), (0.71875, 0.225), (0.71875, 0.225), (0.71875, 0.2125), (0.71875, 0.225), (0.71875, 0.225), (0.71875, 0.225), (0.71875, 0.2125), (0.71875, 0.2125), (0.71875, 0.175), (0.71875, 0.2125), (0.71875, 0.175), (0.71875, 0.2125), (0.71875, 0.175), (0.71875, 0.2125), (0.71875, 0.05175), (0.71875, 0.175), (0.71875, 0.05175), (0.71875, 0.175), (0.71875, 0.05175), (0.71875, 0.175), (0.71875, 0.025), (0.71875, 0.05175), (0.71875, 0.025), (0.71875, 0.05175), (0.71875, 0.025), (0.71875, 0.05175), (0.71875, 0.025), (0.71875, 0.025), (0.71875, 0.025), (0.71875, 0.025), (0.71875, 0.025), (0.71875, 0.025), (0.71875, 0.2), (0.71875, 0.175), (0.71875, 0.175), (0.71875, 0.2125), (0.71875, 0.175), (0.71875, 0.2), (0.71875, 0.2125), (0.71875, 0.2), (0.71875, 0.225), (0.71875, 0.2125), (0.71875, 0.225), (0.71875, 0.225), (0.71875, 0.175), (0.71875, 0.175), (0.71875, 0.2125), (0.71875, 0.05175), (0.71875, 0.175), (0.71875, 0.175), (0.71875, 0.05175), (0.71875, 0.025), (0.71875, 0.175), (0.71875, 0.025), (0.71875, 0.05175), (0.71875, 0.025), (0.71875, 0.2), (0.71875, 0.175), (0.71875, 0.2), (0.71875, 0.175), (0.71875, 0.2), (0.71875, 0.175), (0.71875, 0.05175), (0.71875, 0.025), (0.71875, 0.025), (0.71875, 0.025), (0.71875, 0.05175), (0.71875, 0.175), (0.71875, 0.175), (0.71875, 0.05175), (0.71875, 0.175), (0.71875, 0.175), (0.71875, 0.175), (0.71875, 0.2125), (0.71875, 0.175), (0.71875, 0.2125), (0.71875, 0.175), (0.71875, 0.175), (0.71875, 0.2125), (0.71875, 0.2), (0.71875, 0.2), (0.71875, 0.2125), (0.71875, 0.225), (0.71875, 0.225), (0.71875, 0.2125), (0.71875, 0.225), (0.71875, 0.225), (0.71875, 0.2), (0.71875, 0.2), (0.71875, 0.2), (0.71875, 0.225), (0.71875, 0.225), (0.71875, 0.225), (0.71875, 0.225), (0.71875, 0.225), (0.71875, 0.225), (0.71875, 0.225), (0.71875, 0.225), (0.71875, 0.2125), (0.71875, 0.225), (0.71875, 0.225), (0.71875, 0.225), (0.71875, 0.2125), (0.71875, 0.2125), (0.71875, 0.175), (0.71875, 0.2125), (0.71875, 0.175), (0.71875, 0.2125), (0.71875, 0.175), (0.71875, 0.2125), (0.71875, 0.05175), (0.71875, 0.175), (0.71875, 0.05175), (0.71875, 0.175), (0.71875, 0.05175), (0.71875, 0.175), (0.71875, 0.025), (0.71875, 0.05175), (0.71875, 0.025), (0.71875, 0.05175), (0.71875, 0.025), (0.71875, 0.05175), (0.71875, 0.025), (0.71875, 0.225), (0.71875, 0.025), (0.71875, 0.225), (0.71875, 0.025), (0.71875, 0.225), (0.71875, 0.225), (0.71875, 0.225), (0.71875, 0.225), (0.71875, 0.225), (0.71875, 0.225), (0.71875, 0.225), (0.71875, 0.225), (0.71875, 0.025), (0.71875, 0.225), (0.71875, 0.025), (0.71875, 0.225), (0.71875, 0.025), (0.71875, 0.025), (0.71875, 0.225), (0.71875, 0.025), (0.71875, 0.225), (0.71875, 0.025), (0.71875, 0.225), (0.71875, 0.225), (0.71875, 0.025), (0.71875, 0.025), (0.71875, 0.025), (0.71875, 0.225), (0.71875, 0.225), (0.71875, 0.025), (0.71875, 0.225), (0.71875, 0.025), (0.71875, 0.225), (0.71875, 0.025), (0.71875, 0.225), (0.71875, 0.225), (0.71875, 0.225), (0.71875, 0.225), (0.71875, 0.225), (0.71875, 0.225), (0.71875, 0.225), (0.71875, 0.225), (0.71875, 0.025), (0.71875, 0.225), (0.71875, 0.025), (0.71875, 0.225), (0.71875, 0.025), (0.71875, 0.025), (0.71875, 0.225), (0.71875, 0.025), (0.71875, 0.225), (0.71875, 0.025), (0.71875, 0.225), (0.71875, 0.225), (0.71875, 0.025), (0.71875, 0.025), (0.71875, 0.025), (0.71875, 0.225), (0.71875, 0.225), (0.46875, 0.415), (0.46875, 0.335), (0.46875, 0.335), (0.46875, 0.335), (0.46875, 0.415), (0.46875, 0.415), (0.46875, 0.415), (0.46875, 0.415), (0.46875, 0.435), (0.46875, 0.435), (0.46875, 0.415), (0.46875, 0.475), (0.46875, 0.435), (0.46875, 0.475), (0.46875, 0.455), (0.46875, 0.455), (0.46875, 0.475), (0.46875, 0.475), (0.46875, 0.435), (0.46875, 0.415), (0.46875, 0.435), (0.46875, 0.415), (0.46875, 0.435), (0.46875, 0.475), (0.46875, 0.475), (0.46875, 0.435), (0.46875, 0.455), (0.46875, 0.475), (0.46875, 0.455), (0.46875, 0.475), (0.46875, 0.475), (0.46875, 0.435), (0.46875, 0.435), (0.46875, 0.435), (0.46875, 0.475), (0.46875, 0.475), (0.46875, 0.475), (0.46875, 0.435), (0.46875, 0.435), (0.46875, 0.435), (0.46875, 0.475), (0.46875, 0.475), (0.46875, 0.475), (0.46875, 0.435), (0.46875, 0.435), (0.46875, 0.435), (0.46875, 0.475), (0.46875, 0.475), (0.46875, 0.435), (0.46875, 0.475), (0.46875, 0.435), (0.46875, 0.475), (0.46875, 0.435), (0.46875, 0.475), (0.46875, 0.455), (0.46875, 0.435), (0.46875, 0.435), (0.46875, 0.435), (0.46875, 0.455), (0.46875, 0.475), (0.46875, 0.475), (0.46875, 0.455), (0.46875, 0.475), (0.46875, 0.475), (0.46875, 0.435), (0.46875, 0.435), (0.46875, 0.435), (0.46875, 0.475), (0.46875, 0.455), (0.46875, 0.455), (0.46875, 0.475), (0.46875, 0.475), (0.46875, 0.455), (0.46875, 0.475), (0.46875, 0.455), (0.46875, 0.475), (0.46875, 0.455), (0.46875, 0.475), (0.46875, 0.455), (0.46875, 0.435), (0.46875, 0.455), (0.46875, 0.435), (0.46875, 0.455), (0.46875, 0.435), (0.46875, 0.435), (0.46875, 0.455), (0.46875, 0.455), (0.46875, 0.455), (0.46875, 0.435), (0.46875, 0.435), (0.46875, 0.475), (0.46875, 0.455), (0.46875, 0.475), (0.46875, 0.455), (0.46875, 0.475), (0.46875, 0.455), (0.46875, 0.475), (0.46875, 0.415), (0.46875, 0.415), (0.46875, 0.415), (0.46875, 0.475), (0.46875, 0.475), (0.46875, 0.475), (0.46875, 0.415), (0.46875, 0.415), (0.46875, 0.415), (0.46875, 0.475), (0.46875, 0.475), (0.46875, 0.475), (0.46875, 0.415), (0.46875, 0.415), (0.46875, 0.415), (0.46875, 0.475), (0.46875, 0.475), (0.46875, 0.435), (0.46875, 0.475), (0.46875, 0.435), (0.46875, 0.475), (0.46875, 0.435), (0.46875, 0.475), (0.46875, 0.475), (0.46875, 0.435), (0.46875, 0.475), (0.46875, 0.435), (0.46875, 0.475), (0.46875, 0.435), (0.46875, 0.475), (0.46875, 0.415), (0.46875, 0.475), (0.46875, 0.415), (0.46875, 0.475), (0.46875, 0.415), (0.46875, 0.475), (0.46875, 0.415), (0.46875, 0.415), (0.46875, 0.415), (0.46875, 0.475), (0.46875, 0.475), (0.46875, 0.415), (0.46875, 0.475), (0.46875, 0.415), (0.46875, 0.475), (0.46875, 0.415), (0.46875, 0.475), (0.46875, 0.475), (0.46875, 0.475), (0.46875, 0.475), (0.46875, 0.475), (0.46875, 0.475), (0.46875, 0.475), (0.46875, 0.475), (0.46875, 0.475), (0.46875, 0.475), (0.46875, 0.475), (0.46875, 0.475), (0.46875, 0.475), (0.46875, 0.475), (0.46875, 0.475), (0.46875, 0.475), (0.46875, 0.475), (0.46875, 0.475), (0.46875, 0.475), (0.46875, 0.475), (0.46875, 0.475), (0.46875, 0.475), (0.46875, 0.475), (0.46875, 0.475), (0.46875, 0.475), (0.46875, 0.475), (0.46875, 0.475), (0.46875, 0.475), (0.46875, 0.475), (0.46875, 0.475), (0.46875, 0.475), (0.46875, 0.475), (0.46875, 0.475), (0.46875, 0.475), (0.46875, 0.475), (0.46875, 0.475), (0.46875, 0.475), (0.46875, 0.475), (0.46875, 0.475), (0.46875, 0.475), (0.46875, 0.475), (0.46875, 0.475), (0.46875, 0.475), (0.46875, 0.475), (0.46875, 0.475), (0.46875, 0.475), (0.46875, 0.475), (0.46875, 0.475), (0.46875, 0.475), (0.46875, 0.475), (0.46875, 0.475), (0.46875, 0.475), (0.46875, 0.475), (0.46875, 0.475), (0.46875, 0.475), (0.46875, 0.475), (0.46875, 0.475), (0.46875, 0.475), (0.46875, 0.475), (0.46875, 0.475), (0.46875, 0.475), (0.46875, 0.475), (0.46875, 0.475), (0.46875, 0.475), (0.46875, 0.125), (0.46875, 0.125), (0.46875, 0.125), (0.46875, 0.125), (0.46875, 0.125), (0.46875, 0.125), (0.46875, 0.185), (0.46875, 0.125), (0.46875, 0.185), (0.46875, 0.125), (0.46875, 0.185), (0.46875, 0.125), (0.46875, 0.185), (0.46875, 0.125), (0.46875, 0.125), (0.46875, 0.125), (0.46875, 0.185), (0.46875, 0.185), (0.46875, 0.125), (0.46875, 0.185), (0.46875, 0.125), (0.46875, 0.185), (0.46875, 0.125), (0.46875, 0.185), (0.46875, 0.225), (0.46875, 0.025), (0.46875, 0.225), (0.46875, 0.025), (0.46875, 0.225), (0.46875, 0.105), (0.46875, 0.025), (0.46875, 0.105), (0.46875, 0.025), (0.46875, 0.025), (0.46875, 0.105), (0.46875, 0.105), (0.46875, 0.025), (0.46875, 0.105), (0.46875, 0.065), (0.46875, 0.065), (0.46875, 0.025), (0.46875, 0.025), (0.46875, 0.025), (0.46875, 0.065), (0.46875, 0.065), (0.46875, 0.225), (0.46875, 0.105), (0.46875, 0.225), (0.46875, 0.025), (0.46875, 0.105), (0.46875, 0.225), (0.46875, 0.105), (0.46875, 0.025), (0.46875, 0.025), (0.46875, 0.105), (0.46875, 0.025), (0.46875, 0.105), (0.46875, 0.105), (0.46875, 0.025), (0.46875, 0.065), (0.46875, 0.105), (0.46875, 0.105), (0.46875, 0.105), (0.46875, 0.105), (0.46875, 0.105), (0.46875, 0.105), (0.46875, 0.225), (0.46875, 0.225), (0.46875, 0.225), (0.46875, 0.225), (0.46875, 0.225), (0.46875, 0.225), (0.46875, 0.225), (0.46875, 0.105), (0.46875, 0.105), (0.46875, 0.105), (0.46875, 0.225), (0.46875, 0.225), (0.46875, 0.105), (0.46875, 0.065), (0.46875, 0.105), (0.46875, 0.065), (0.46875, 0.105), (0.46875, 0.065), (0.46875, 0.225), (0.46875, 0.025), (0.46875, 0.025), (0.46875, 0.025), (0.46875, 0.225), (0.46875, 0.225), (0.71875, 0.085), (0.71875, 0.085), (0.71875, 0.085), (0.71875, 0.085), (0.71875, 0.085), (0.71875, 0.085), (0.71875, 0.085), (0.71875, 0.085), (0.71875, 0.085), (0.71875, 0.085), (0.71875, 0.085), (0.71875, 0.085), (0.71875, 0.085), (0.71875, 0.085), (0.71875, 0.085), (0.84375, 0.185), (0.84375, 0.185), (0.84375, 0.185), (0.84375, 0.185), (0.84375, 0.185), (0.84375, 0.185), (0.84375, 0.185), (0.84375, 0.185), (0.84375, 0.185), (0.84375, 0.185), (0.84375, 0.185), (0.84375, 0.185), (0.84375, 0.185), (0.84375, 0.185), (0.84375, 0.185), (0.84375, 0.185), (0.84375, 0.185), (0.84375, 0.185), (0.84375, 0.185), (0.84375, 0.185), (0.84375, 0.185), (0.84375, 0.185), (0.84375, 0.185), (0.84375, 0.185), (0.84375, 0.185), (0.84375, 0.185), (0.84375, 0.185), (0.84375, 0.185), (0.84375, 0.185), (0.84375, 0.185), (0.84375, 0.185), (0.84375, 0.185), (0.84375, 0.185), (0.84375, 0.185), (0.84375, 0.185), (0.84375, 0.185), (0.84375, 0.185), (0.84375, 0.185), (0.84375, 0.185), (0.84375, 0.185), (0.84375, 0.185), (0.84375, 0.185), (0.84375, 0.185), (0.84375, 0.185), (0.84375, 0.185), (0.09375, 0.025), (0.09375, 0.225), (0.09375, 0.025), (0.09375, 0.025), (0.09375, 0.225), (0.09375, 0.225), (0.09375, 0.225), (0.09375, 0.025), (0.09375, 0.225), (0.09375, 0.025), (0.09375, 0.025), (0.09375, 0.225), (0.09375, 0.225), (0.09375, 0.025), (0.09375, 0.025), (0.09375, 0.225), (0.09375, 0.025), (0.09375, 0.225), (0.09375, 0.225), (0.09375, 0.025), (0.09375, 0.025), (0.09375, 0.225), (0.09375, 0.025), (0.09375, 0.225), (0.09375, 0.225), (0.09375, 0.025), (0.09375, 0.025), (0.09375, 0.025), (0.09375, 0.225), (0.09375, 0.225), (0.09375, 0.025), (0.09375, 0.225), (0.09375, 0.025), (0.09375, 0.225), (0.09375, 0.025), (0.09375, 0.225), (0.09375, 0.225), (0.09375, 0.025), (0.09375, 0.225), (0.09375, 0.025), (0.09375, 0.225), (0.09375, 0.025)] (interpolation = "faceVarying")
        uniform token subdivisionScheme = "none"
        rel material:binding = </Vehicle/Materials/colormap>
    }
    def Scope "Materials" {
        def Material "colormap" {
            token outputs:surface.connect = </Vehicle/Materials/colormap/surface.outputs:surface>
            def Shader "surface" {
                uniform token info:id = "UsdPreviewSurface"
                float inputs:roughness = 0.7
                float inputs:metallic = 0
                color3f inputs:diffuseColor.connect = </Vehicle/Materials/colormap/texture.outputs:rgb>
                token outputs:surface
            }
            def Shader "stReader" {
                uniform token info:id = "UsdPrimvarReader_float2"
                token inputs:varname = "st"
                float2 outputs:result
            }
            def Shader "texture" {
                uniform token info:id = "UsdUVTexture"
                asset inputs:file = @kenney-water-colormap.png@
                float2 inputs:st.connect = </Vehicle/Materials/colormap/stReader.outputs:result>
                token inputs:wrapS = "repeat"
                token inputs:wrapT = "repeat"
                float3 outputs:rgb
            }
        }
    }
}
