#usda 1.0
(
    defaultPrim = "Vehicle"
    metersPerUnit = 1
    upAxis = "Y"
)
def Xform "Vehicle" {
    def Mesh "mesh_colormap" {
        int[] faceVertexCounts = [3, 3, 3, 3, 3, 3, 3, 3, 3, 3, 3, 3, 3, 3, 3, 3, 3, 3, 3, 3, 3, 3, 3, 3, 3, 3, 3, 3, 3, 3, 3, 3, 3, 3, 3, 3, 3, 3, 3, 3, 3, 3, 3, 3, 3, 3, 3, 3, 3, 3, 3, 3, 3, 3, 3, 3, 3, 3, 3, 3, 3, 3, 3, 3, 3, 3, 3, 3, 3, 3, 3, 3, 3, 3, 3, 3, 3, 3, 3, 3, 3, 3, 3, 3, 3, 3, 3, 3, 3, 3, 3, 3, 3, 3, 3, 3, 3, 3, 3, 3, 3, 3, 3, 3, 3, 3, 3, 3, 3, 3, 3, 3, 3, 3, 3, 3, 3, 3, 3, 3, 3, 3, 3, 3, 3, 3, 3, 3, 3, 3, 3, 3, 3, 3, 3, 3, 3, 3, 3, 3, 3, 3, 3, 3, 3, 3, 3, 3, 3, 3, 3, 3, 3, 3, 3, 3, 3, 3, 3, 3, 3, 3, 3, 3, 3, 3, 3, 3, 3, 3, 3, 3, 3, 3, 3, 3, 3, 3, 3, 3, 3, 3, 3, 3, 3, 3, 3, 3, 3, 3, 3, 3, 3, 3, 3, 3, 3, 3, 3, 3, 3, 3, 3, 3, 3, 3, 3, 3, 3, 3, 3, 3, 3, 3, 3, 3, 3, 3, 3, 3, 3, 3, 3, 3, 3, 3, 3, 3, 3, 3, 3, 3, 3, 3, 3, 3, 3, 3, 3, 3, 3, 3, 3, 3, 3, 3, 3, 3, 3, 3, 3, 3, 3, 3, 3, 3, 3, 3, 3, 3, 3, 3, 3, 3, 3, 3, 3, 3, 3, 3, 3, 3, 3, 3, 3, 3, 3, 3, 3, 3, 3, 3, 3, 3, 3, 3, 3, 3, 3, 3, 3, 3, 3, 3, 3, 3, 3, 3, 3, 3, 3, 3, 3, 3, 3, 3, 3, 3, 3, 3, 3, 3, 3, 3, 3, 3, 3, 3, 3, 3, 3, 3, 3, 3, 3, 3, 3, 3, 3, 3, 3, 3, 3, 3, 3, 3, 3, 3, 3, 3, 3, 3, 3, 3, 3, 3, 3, 3, 3, 3, 3, 3, 3, 3, 3, 3, 3, 3, 3, 3, 3, 3, 3, 3, 3, 3, 3, 3, 3, 3, 3, 3, 3, 3, 3, 3, 3, 3, 3, 3, 3, 3, 3, 3, 3, 3, 3, 3, 3, 3, 3, 3, 3, 3, 3, 3, 3, 3, 3, 3, 3, 3, 3, 3, 3, 3, 3, 3, 3, 3, 3, 3, 3, 3, 3, 3, 3, 3, 3, 3, 3, 3, 3, 3, 3, 3, 3, 3, 3, 3, 3, 3, 3, 3, 3, 3, 3, 3, 3, 3, 3, 3, 3, 3, 3, 3, 3, 3, 3, 3, 3, 3, 3, 3, 3, 3, 3, 3, 3, 3, 3, 3, 3, 3, 3, 3, 3, 3]
        int[] faceVertexIndices = [2, 1, 0, 1, 2, 3, 6, 5, 4, 5, 6, 7, 10, 9, 8, 9, 10, 11, 9, 12, 8, 12, 9, 13, 14, 7, 6, 7, 14, 15, 17, 3, 16, 3, 17, 18, 8, 19, 18, 19, 8, 12, 6, 13, 9, 13, 6, 4, 10, 18, 17, 18, 10, 8, 7, 20, 2, 20, 7, 15, 18, 1, 3, 1, 18, 19, 0, 7, 2, 7, 0, 5, 12, 1, 19, 1, 12, 0, 0, 12, 13, 0, 13, 4, 0, 4, 5, 11, 6, 9, 6, 11, 14, 23, 22, 21, 22, 23, 24, 26, 24, 25, 24, 26, 22, 26, 21, 22, 21, 26, 27, 21, 28, 23, 28, 21, 27, 28, 24, 23, 24, 28, 25, 8, 3, 18, 3, 8, 2, 2, 8, 9, 2, 9, 6, 2, 6, 7, 20, 3, 2, 3, 20, 16, 16, 20, 29, 29, 20, 30, 29, 30, 31, 31, 30, 32, 33, 16, 29, 16, 33, 34, 34, 33, 35, 34, 35, 36, 38, 36, 37, 38, 34, 36, 34, 38, 39, 39, 40, 34, 40, 39, 41, 41, 39, 42, 41, 42, 43, 43, 42, 44, 43, 44, 45, 45, 44, 46, 45, 46, 47, 45, 47, 48, 48, 47, 49, 49, 30, 48, 49, 32, 30, 32, 49, 50, 15, 30, 20, 30, 15, 48, 45, 15, 14, 15, 45, 48, 43, 14, 11, 14, 43, 45, 41, 11, 10, 11, 41, 43, 40, 10, 17, 10, 40, 41, 40, 16, 34, 16, 40, 17, 29, 51, 33, 25, 33, 51, 25, 51, 52, 25, 53, 33, 28, 53, 25, 25, 52, 26, 28, 54, 53, 26, 52, 55, 56, 26, 55, 57, 26, 56, 58, 26, 57, 54, 28, 27, 58, 27, 26, 58, 54, 27, 54, 58, 59, 47, 52, 49, 52, 47, 55, 47, 56, 55, 56, 47, 46, 46, 57, 56, 57, 46, 44, 44, 58, 57, 58, 44, 42, 58, 39, 59, 39, 58, 42, 59, 38, 54, 38, 59, 39, 60, 52, 51, 52, 60, 49, 49, 60, 50, 38, 53, 54, 53, 38, 61, 61, 38, 37, 31, 50, 60, 50, 31, 32, 60, 29, 31, 29, 60, 51, 33, 61, 35, 61, 33, 53, 36, 61, 37, 61, 36, 35, 64, 63, 62, 63, 64, 65, 65, 64, 66, 66, 64, 67, 67, 64, 68, 71, 70, 69, 70, 71, 72, 74, 72, 73, 72, 74, 70, 74, 76, 75, 76, 74, 73, 72, 76, 73, 76, 72, 71, 69, 74, 75, 74, 69, 70, 79, 78, 77, 78, 79, 80, 82, 80, 81, 80, 82, 78, 82, 84, 83, 84, 82, 81, 80, 84, 81, 84, 80, 79, 77, 82, 83, 82, 77, 78, 87, 86, 85, 86, 87, 88, 91, 90, 89, 90, 91, 92, 95, 94, 93, 96, 94, 95, 96, 95, 89, 96, 89, 90, 87, 94, 96, 94, 87, 85, 87, 97, 88, 97, 87, 96, 97, 86, 88, 86, 97, 98, 98, 97, 99, 99, 97, 100, 100, 97, 92, 100, 92, 91, 96, 92, 97, 92, 96, 90, 89, 100, 91, 100, 89, 95, 95, 99, 100, 99, 95, 93, 109, 111, 115, 116, 115, 111, 111, 105, 116, 107, 116, 105, 106, 112, 108, 113, 108, 112, 107, 108, 116, 108, 113, 116, 116, 113, 115, 115, 113, 114, 114, 113, 102, 104, 102, 113, 112, 103, 113, 104, 113, 103, 101, 103, 110, 112, 110, 103, 106, 105, 112, 105, 111, 112, 111, 110, 112, 109, 110, 111, 108, 107, 106, 105, 106, 107, 104, 103, 102, 101, 102, 103, 118, 68, 117, 118, 67, 68, 65, 119, 63, 120, 119, 65, 66, 118, 121, 67, 118, 66, 65, 121, 120, 66, 121, 65, 64, 123, 122, 123, 64, 62, 117, 64, 122, 64, 117, 68, 63, 123, 62, 123, 63, 119, 125, 23, 124, 23, 125, 126, 23, 126, 127, 127, 126, 128, 127, 128, 129, 129, 130, 127, 130, 129, 131, 134, 133, 132, 24, 133, 134, 133, 24, 130, 133, 130, 135, 135, 130, 131, 133, 128, 126, 128, 133, 135, 134, 125, 124, 125, 134, 132, 125, 133, 126, 133, 125, 132, 135, 129, 128, 129, 135, 131, 134, 23, 24, 23, 134, 124, 2, 1, 0, 1, 2, 3, 6, 5, 4, 5, 6, 7, 10, 9, 8, 9, 10, 11, 9, 12, 8, 12, 9, 13, 14, 7, 6, 7, 14, 15, 17, 3, 16, 3, 17, 18, 8, 19, 18, 19, 8, 12, 6, 13, 9, 13, 6, 4, 10, 18, 17, 18, 10, 8, 7, 20, 2, 20, 7, 15, 18, 1, 3, 1, 18, 19, 0, 7, 2, 7, 0, 5, 12, 1, 19, 1, 12, 0, 0, 12, 13, 0, 13, 4, 0, 4, 5, 11, 6, 9, 6, 11, 14, 23, 22, 21, 22, 23, 24, 26, 24, 25, 24, 26, 22, 26, 21, 22, 21, 26, 27, 21, 28, 23, 28, 21, 27, 28, 24, 23, 24, 28, 25, 8, 3, 18, 3, 8, 2, 2, 8, 9, 2, 9, 6, 2, 6, 7, 20, 3, 2, 3, 20, 16, 16, 20, 29, 29, 20, 30, 29, 30, 31, 31, 30, 32, 33, 16, 29, 16, 33, 34, 34, 33, 35, 34, 35, 36, 38, 36, 37, 38, 34, 36, 34, 38, 39, 39, 40, 34, 40, 39, 41, 41, 39, 42, 41, 42, 43, 43, 42, 44, 43, 44, 45, 45, 44, 46, 45, 46, 47, 45, 47, 48, 48, 47, 49, 49, 30, 48, 49, 32, 30, 32, 49, 50, 15, 30, 20, 30, 15, 48, 45, 15, 14, 15, 45, 48, 43, 14, 11, 14, 43, 45, 41, 11, 10, 11, 41, 43, 40, 10, 17, 10, 40, 41, 40, 16, 34, 16, 40, 17, 29, 51, 33, 25, 33, 51, 25, 51, 52, 25, 53, 33, 28, 53, 25, 25, 52, 26, 28, 54, 53, 26, 52, 55, 56, 26, 55, 57, 26, 56, 58, 26, 57, 54, 28, 27, 58, 27, 26, 58, 54, 27, 54, 58, 59, 47, 52, 49, 52, 47, 55, 47, 56, 55, 56, 47, 46, 46, 57, 56, 57, 46, 44, 44, 58, 57, 58, 44, 42, 58, 39, 59, 39, 58, 42, 59, 38, 54, 38, 59, 39, 60, 52, 51, 52, 60, 49, 49, 60, 50, 38, 53, 54, 53, 38, 61, 61, 38, 37, 31, 50, 60, 50, 31, 32, 60, 29, 31, 29, 60, 51, 33, 61, 35, 61, 33, 53, 36, 61, 37, 61, 36, 35, 64, 63, 62, 63, 64, 65, 65, 64, 66, 66, 64, 67, 67, 64, 68, 71, 70, 69, 70, 71, 72, 74, 72, 73, 72, 74, 70, 74, 76, 75, 76, 74, 73, 72, 76, 73, 76, 72, 71, 69, 74, 75, 74, 69, 70, 79, 78, 77, 78, 79, 80, 82, 80, 81, 80, 82, 78, 82, 84, 83, 84, 82, 81, 80, 84, 81, 84, 80, 79, 77, 82, 83, 82, 77, 78, 87, 86, 85, 86, 87, 88, 91, 90, 89, 90, 91, 92, 95, 94, 93, 96, 94, 95, 96, 95, 89, 96, 89, 90, 87, 94, 96, 94, 87, 85, 87, 97, 88, 97, 87, 96, 97, 86, 88, 86, 97, 98, 98, 97, 99, 99, 97, 100, 100, 97, 92, 100, 92, 91, 96, 92, 97, 92, 96, 90, 89, 100, 91, 100, 89, 95, 95, 99, 100, 99, 95, 93, 109, 111, 115, 116, 115, 111, 111, 105, 116, 107, 116, 105, 106, 112, 108, 113, 108, 112, 107, 108, 116, 108, 113, 116, 116, 113, 115, 115, 113, 114, 114, 113, 102, 104, 102, 113, 112, 103, 113, 104, 113, 103, 101, 103, 110, 112, 110, 103, 106, 105, 112, 105, 111, 112, 111, 110, 112, 109, 110, 111, 108, 107, 106, 105, 106, 107, 104, 103, 102, 101, 102, 103, 118, 68, 117, 118, 67, 68, 65, 119, 63, 120, 119, 65, 66, 118, 121, 67, 118, 66, 65, 121, 120, 66, 121, 65, 64, 123, 122, 123, 64, 62, 117, 64, 122, 64, 117, 68, 63, 123, 62, 123, 63, 119, 125, 23, 124, 23, 125, 126, 23, 126, 127, 127, 126, 128, 127, 128, 129, 129, 130, 127, 130, 129, 131, 134, 133, 132, 24, 133, 134, 133, 24, 130, 133, 130, 135, 135, 130, 131, 133, 128, 126, 128, 133, 135, 134, 125, 124, 125, 134, 132, 125, 133, 126, 133, 125, 132, 135, 129, 128, 129, 135, 131, 134, 23, 24, 23, 134, 124]
        point3f[] points = [(-0.408, 9.02389e-17, -1.235), (0.408, 9.02389e-17, -1.235), (-0.68, 0.3, -1.435), (0.68, 0.3, -1.435), (-0.2232, 9.02389e-17, 0.521), (-0.408, 9.02389e-17, 0.365), (-0.372, 0.3, 0.985), (-0.68, 0.3, 0.725), (0.372, 0.3, 0.985), (9.55811e-13, 0.3, 1.085), (0.48825, 0.7, 1.30375), (1.08287e-12, 0.7, 1.435), (0.2232, 9.02389e-17, 0.521), (7.76777e-13, 9.02389e-17, 0.581), (-0.48825, 0.7, 1.30375), (-0.8925, 0.7, 0.9625), (0.8925, 0.7, -1.435), (0.8925, 0.7, 0.9625), (0.68, 0.3, 0.725), (0.408, 0, 0.365), (-0.8925, 0.7, -1.435), (0.4925, 0.5, -0.129151), (-0.4925, 0.5, -0.129151), (0.4925, 0.5, -1.035), (-0.4925, 0.5, -1.035), (-0.4925, 0.8, -1.035), (-0.4925, 0.8, -0.129151), (0.4925, 0.8, -0.129151), (0.4925, 0.8, -1.035), (-0.2925, 0.8, -1.435), (-0.8925, 1, -1.435), (-0.2925, 0.9, -1.435), (-0.4925, 1, -1.435), (0.2925, 0.8, -1.435), (0.8925, 1, -1.435), (0.2925, 0.9, -1.435), (0.4925, 1, -1.435), (0.4925, 1, -1.235), (0.6925, 1, -1.235), (0.6925, 1, 0.869599), (0.8925, 1, 0.9625), (0.48825, 1, 1.30375), (0.393293, 1, 1.12218), (1.08287e-12, 1, 1.435), (1.00779e-12, 1, 1.2279), (-0.48825, 1, 1.30375), (-0.393293, 1, 1.12218), (-0.6925, 1, 0.869599), (-0.8925, 1, 0.9625), (-0.6925, 1, -1.235), (-0.4925, 1, -1.235), (-0.2925, 0.8, -1.235), (-0.6925, 0.8, -1.235), (0.2925, 0.8, -1.235), (0.6925, 0.8, -1.235), (-0.6925, 0.8, 0.869599), (-0.393293, 0.8, 1.12218), (1.00779e-12, 0.8, 1.2279), (0.393293, 0.8, 1.12218), (0.6925, 0.8, 0.869599), (-0.2925, 0.9, -1.235), (0.2925, 0.9, -1.235), (0.519375, 1.2, -0.129151), (0.519375, 1.2, 0.0924735), (-0.519375, 1.2, -0.129151), (0.332562, 1.2, 0.305008), (3.52957e-13, 1.2, 0.387974), (-0.332562, 1.2, 0.305008), (-0.519375, 1.2, 0.0924735), (0.443416, 0.8, 0.749728), (0.443416, 0.9, 0.649728), (0.443416, 0.8, 0.249728), (0.443416, 0.9, 0.349728), (0.243416, 0.9, 0.349728), (0.243416, 0.9, 0.649728), (0.243416, 0.8, 0.749728), (0.243416, 0.8, 0.249728), (-0.243416, 0.8, 0.749728), (-0.243416, 0.9, 0.649728), (-0.243416, 0.8, 0.249728), (-0.243416, 0.9, 0.349728), (-0.443416, 0.9, 0.349728), (-0.443416, 0.9, 0.649728), (-0.443416, 0.8, 0.749728), (-0.443416, 0.8, 0.249728), (0.8925, 0.7, -0.649674), (0.8925, 0.7, -0.130402), (0.9995, 0.7, -0.649674), (0.9995, 0.7, -0.130402), (0.7925, 1.2, -0.649674), (0.9995, 1.2, -0.649674), (0.7925, 1.2, -0.130402), (0.9995, 1.2, -0.130402), (0.6925, 1, -0.649674), (0.8925, 1, -0.649674), (0.6925, 1.1, -0.649674), (1.0995, 1.1, -0.649674), (1.0995, 1.1, -0.130402), (0.8925, 1, -0.130402), (0.6925, 1, -0.130402), (0.6925, 1.1, -0.130402), (-0.8925, 0.7, -0.649674), (-0.8925, 0.7, -0.130402), (-0.9995, 0.7, -0.649674), (-0.9995, 0.7, -0.130402), (-0.7925, 1.2, -0.649674), (-0.9995, 1.2, -0.649674), (-0.7925, 1.2, -0.130402), (-0.9995, 1.2, -0.130402), (-0.6925, 1, -0.649674), (-0.8925, 1, -0.649674), (-0.6925, 1.1, -0.649674), (-1.0995, 1.1, -0.649674), (-1.0995, 1.1, -0.130402), (-0.8925, 1, -0.130402), (-0.6925, 1, -0.130402), (-0.6925, 1.1, -0.130402), (-0.6925, 0.8, 0.166349), (-0.443416, 0.8, 0.449728), (0.6925, 0.8, 0.166349), (0.443416, 0.8, 0.449728), (3.52957e-13, 0.8, 0.560349), (-0.6925, 0.8, -0.129151), (0.6925, 0.8, -0.129151), (0.4925, 1, -1.035), (0.4925, 1, -0.935), (0.4925, 0.7, -0.835), (0.4925, 0.5, -0.535), (0.4925, 0.7, -0.635), (0.4925, 0.6, -0.535), (-0.4925, 0.5, -0.535), (-0.4925, 0.6, -0.535), (-0.4925, 1, -0.935), (-0.4925, 0.7, -0.835), (-0.4925, 1, -1.035), (-0.4925, 0.7, -0.635)]
        normal3f[] normals = [(0, -0.5547, -0.83205), (0, -0.5547, -0.83205), (0, -0.5547, -0.83205), (0, -0.5547, -0.83205), (0, -0.5547, -0.83205), (0, -0.5547, -0.83205), (-0.236947, -0.848734, 0.472764), (-0.614369, -0.768993, 0.176638), (-0.257795, -0.846977, 0.464942), (-0.614369, -0.768993, 0.176638), (-0.236947, -0.848734, 0.472764), (-0.509689, -0.810035, 0.289931), (0.347397, -0.644064, 0.68154), (0, -0.658505, 0.752577), (0.364175, -0.642844, 0.67389), (0, -0.658505, 0.752577), (0.347397, -0.644064, 0.68154), (0, -0.658505, 0.752577), (0, -0.859293, 0.511484), (0.257795, -0.846977, 0.464942), (0.236947, -0.848734, 0.472764), (0.257795, -0.846977, 0.464942), (0, -0.859293, 0.511484), (0, -0.859293, 0.511484), (-0.347397, -0.644064, 0.68154), (-0.769315, -0.574561, 0.279347), (-0.364175, -0.642844, 0.67389), (-0.769315, -0.574561, 0.279347), (-0.347397, -0.644064, 0.68154), (-0.706938, -0.598928, 0.376197), (0.706938, -0.598928, 0.376197), (0.883116, -0.469155, 0), (0.883116, -0.469155, 0), (0.883116, -0.469155, 0), (0.706938, -0.598928, 0.376197), (0.769315, -0.574561, 0.279347), (0.236947, -0.848734, 0.472764), (0.614369, -0.768993, 0.176638), (0.509689, -0.810035, 0.289931), (0.614369, -0.768993, 0.176638), (0.236947, -0.848734, 0.472764), (0.257795, -0.846977, 0.464942), (-0.236947, -0.848734, 0.472764), (0, -0.859293, 0.511484), (0, -0.859293, 0.511484), (0, -0.859293, 0.511484), (-0.236947, -0.848734, 0.472764), (-0.257795, -0.846977, 0.464942), (0.347397, -0.644064, 0.68154), (0.769315, -0.574561, 0.279347), (0.706938, -0.598928, 0.376197), (0.769315, -0.574561, 0.279347), (0.347397, -0.644064, 0.68154), (0.364175, -0.642844, 0.67389), (-0.769315, -0.574561, 0.279347), (-0.883116, -0.469155, 0), (-0.883116, -0.469155, 0), (-0.883116, -0.469155, 0), (-0.769315, -0.574561, 0.279347), (-0.706938, -0.598928, 0.376197), (0.509689, -0.810035, 0.289931), (0.740833, -0.671689, 0), (0.740833, -0.671689, 0), (0.740833, -0.671689, 0), (0.509689, -0.810035, 0.289931), (0.614369, -0.768993, 0.176638), (-0.740833, -0.671689, 0), (-0.509689, -0.810035, 0.289931), (-0.740833, -0.671689, 0), (-0.509689, -0.810035, 0.289931), (-0.740833, -0.671689, 0), (-0.614369, -0.768993, 0.176638), (0, -1, 0), (0, -1, 0), (0, -1, 0), (0, -1, 0), (0, -1, 0), (0, -1, 0), (0, -1, 0), (0, -1, 0), (0, -1, 0), (0, -1, 0), (0, -1, 0), (0, -1, 0), (0, -1, 0), (0, -1, 0), (0, -1, 0), (0, -0.658505, 0.752577), (-0.364175, -0.642844, 0.67389), (0, -0.658505, 0.752577), (-0.364175, -0.642844, 0.67389), (0, -0.658505, 0.752577), (-0.347397, -0.644064, 0.68154), (0, 1, 0), (0, 1, 0), (0, 1, 0), (0, 1, 0), (0, 1, 0), (0, 1, 0), (1, 0, 0), (1, 0, 0), (1, 0, 0), (1, 0, 0), (1, 0, 0), (1, 0, 0), (0, 0, -1), (0, 0, -1), (0, 0, -1), (0, 0, -1), (0, 0, -1), (0, 0, -1), (-1, 0, 0), (-1, 0, 0), (-1, 0, 0), (-1, 0, 0), (-1, 0, 0), (-1, 0, 0), (0, 0, 1), (0, 0, 1), (0, 0, 1), (0, 0, 1), (0, 0, 1), (0, 0, 1), (0, -1, 0), (0, -1, 0), (0, -1, 0), (0, -1, 0), (0, -1, 0), (0, -1, 0), (0, -1, 0), (0, -1, 0), (0, -1, 0), (0, -1, 0), (0, -1, 0), (0, -1, 0), (0, -1, 0), (0, -1, 0), (0, -1, 0), (0, 0, -1), (0, 0, -1), (0, 0, -1), (0, 0, -1), (0, 0, -1), (0, 0, -1), (0, 0, -1), (0, 0, -1), (0, 0, -1), (0, 0, -1), (0, 0, -1), (0, 0, -1), (0, 0, -1), (0, 0, -1), (0, 0, -1), (0, 0, -1), (0, 0, -1), (0, 0, -1), (0, 0, -1), (0, 0, -1), (0, 0, -1), (0, 0, -1), (0, 0, -1), (0, 0, -1), (0, 0, -1), (0, 0, -1), (0, 0, -1), (0, 0, -1), (0, 0, -1), (0, 0, -1), (0, 1, 0), (0, 1, 0), (0, 1, 0), (0, 1, 0), (0, 1, 0), (0, 1, 0), (0, 1, 0), (0, 1, 0), (0, 1, 0), (0, 1, 0), (0, 1, 0), (0, 1, 0), (0, 1, 0), (0, 1, 0), (0, 1, 0), (0, 1, 0), (0, 1, 0), (0, 1, 0), (0, 1, 0), (0, 1, 0), (0, 1, 0), (0, 1, 0), (0, 1, 0), (0, 1, 0), (0, 1, 0), (0, 1, 0), (0, 1, 0), (0, 1, 0), (0, 1, 0), (0, 1, 0), (0, 1, 0), (0, 1, 0), (0, 1, 0), (0, 1, 0), (0, 1, 0), (0, 1, 0), (0, 1, 0), (0, 1, 0), (0, 1, 0), (0, 1, 0), (0, 1, 0), (0, 1, 0), (0, 1, 0), (0, 1, 0), (0, 1, 0), (0, 1, 0), (0, 1, 0), (0, 1, 0), (-0.906932, 0, 0.421277), (-1, 0, 0), (-1, 0, 0), (-1, 0, 0), (-0.906932, 0, 0.421277), (-0.906932, 0, 0.421277), (-0.46342, 0, 0.886139), (-0.906932, 0, 0.421277), (-0.46342, 0, 0.886139), (-0.906932, 0, 0.421277), (-0.46342, 0, 0.886139), (-0.906932, 0, 0.421277), (0, 0, 1), (-0.46342, 0, 0.886139), (0, 0, 1), (-0.46342, 0, 0.886139), (0, 0, 1), (-0.46342, 0, 0.886139), (0.46342, 0, 0.886139), (0, 0, 1), (0.46342, 0, 0.886139), (0, 0, 1), (0.46342, 0, 0.886139), (0, 0, 1), (0.906932, 0, 0.421277), (0.46342, 0, 0.886139), (0.906932, 0, 0.421277), (0.46342, 0, 0.886139), (0.906932, 0, 0.421277), (0.46342, 0, 0.886139), (0.906932, 0, 0.421277), (1, 0, 0), (1, 0, 0), (1, 0, 0), (0.906932, 0, 0.421277), (0.906932, 0, 0.421277), (0, 1, 0), (0, 1, 0), (0, 1, 0), (0, 1, 0), (0, 1, 0), (0, 1, 0), (0, 1, 0), (0, 1, 0), (0, 1, 0), (0, 1, 0), (0, 1, 0), (0, 1, 0), (0, 1, 0), (0, 1, 0), (0, 1, 0), (0, 1, 0), (0, 1, 0), (0, 1, 0), (0, 1, 0), (0, 1, 0), (0, 1, 0), (0, 1, 0), (0, 1, 0), (0, 1, 0), (0, 1, 0), (0, 1, 0), (0, 1, 0), (0, 1, 0), (0, 1, 0), (0, 1, 0), (0, 1, 0), (0, 1, 0), (0, 1, 0), (0, 1, 0), (0, 1, 0), (0, 1, 0), (0, 1, 0), (0, 1, 0), (0, 1, 0), (0, 1, 0), (0, 1, 0), (0, 1, 0), (0, 1, 0), (0, 1, 0), (0, 1, 0), (1, 0, 0), (1, 0, 0), (1, 0, 0), (1, 0, 0), (1, 0, 0), (1, 0, 0), (0.645052, 0, -0.764139), (0.46342, 0, -0.886139), (0.645052, 0, -0.764139), (0.46342, 0, -0.886139), (0.645052, 0, -0.764139), (0.46342, 0, -0.886139), (0.46342, 0, -0.886139), (0, 0, -1), (0.46342, 0, -0.886139), (0, 0, -1), (0.46342, 0, -0.886139), (0, 0, -1), (0, 0, -1), (-0.46342, 0, -0.886139), (0, 0, -1), (-0.46342, 0, -0.886139), (0, 0, -1), (-0.46342, 0, -0.886139), (-0.46342, 0, -0.886139), (-0.645052, 0, -0.764139), (-0.645052, 0, -0.764139), (-0.645052, 0, -0.764139), (-0.46342, 0, -0.886139), (-0.46342, 0, -0.886139), (-1, 0, 0), (-1, 0, 0), (-1, 0, 0), (-1, 0, 0), (-1, 0, 0), (-1, 0, 0), (0, 0, 1), (0, 0, 1), (0, 0, 1), (0, 0, 1), (0, 0, 1), (0, 0, 1), (0, 0, 1), (0, 0, 1), (0, 0, 1), (0, 0, 1), (0, 0, 1), (0, 0, 1), (0, 0, 1), (0, 0, 1), (0, 0, 1), (0, 0, 1), (0, 0, 1), (0, 0, 1), (0.850651, 0.525731, 0), (0.447214, 0.894427, 0), (0.850651, 0.525731, 0), (0.447214, 0.894427, 0), (0.850651, 0.525731, 0), (0.447214, 0.894427, 0), (0.850651, 0.525731, 0), (1, 0, 0), (0.850651, 0.525731, 0), (1, 0, 0), (0.850651, 0.525731, 0), (1, 0, 0), (-1, 0, 0), (-0.850651, 0.525731, 0), (-0.850651, 0.525731, 0), (-0.850651, 0.525731, 0), (-1, 0, 0), (-1, 0, 0), (-0.447214, 0.894427, 0), (-0.850651, 0.525731, 0), (-0.447214, 0.894427, 0), (-0.850651, 0.525731, 0), (-0.447214, 0.894427, 0), (-0.850651, 0.525731, 0), (0, 1, 0), (0, 1, 0), (0, 1, 0), (0, 1, 0), (0, 1, 0), (0, 1, 0), (0, 1, 0), (0, 1, 0), (0, 1, 0), (0, 1, 0), (0, 1, 0), (0, 1, 0), (0, 1, 0), (0, 1, 0), (0, 1, 0), (1, 0, 3.58942e-13), (1, 0, 3.58942e-13), (1, 0, 3.58942e-13), (1, 0, 3.58942e-13), (1, 0, 3.58942e-13), (1, 0, 3.58942e-13), (-1.37361e-13, 0.923879, 0.382683), (1.37361e-13, 0.923879, -0.382683), (1.37361e-13, 0.923879, -0.382683), (1.37361e-13, 0.923879, -0.382683), (-1.37361e-13, 0.923879, 0.382683), (-1.37361e-13, 0.923879, 0.382683), (-1, 0, -3.58942e-13), (-1, 0, -3.58942e-13), (-1, 0, -3.58942e-13), (-1, 0, -3.58942e-13), (-1, 0, -3.58942e-13), (-1, 0, -3.58942e-13), (1.37361e-13, 0.923879, -0.382683), (2.5381e-13, 0.707107, -0.707107), (1.37361e-13, 0.923879, -0.382683), (2.5381e-13, 0.707107, -0.707107), (1.37361e-13, 0.923879, -0.382683), (2.5381e-13, 0.707107, -0.707107), (-2.5381e-13, 0.707107, 0.707107), (-1.37361e-13, 0.923879, 0.382683), (-2.5381e-13, 0.707107, 0.707107), (-1.37361e-13, 0.923879, 0.382683), (-2.5381e-13, 0.707107, 0.707107), (-1.37361e-13, 0.923879, 0.382683), (1, 0, 3.58942e-13), (1, 0, 3.58942e-13), (1, 0, 3.58942e-13), (1, 0, 3.58942e-13), (1, 0, 3.58942e-13), (1, 0, 3.58942e-13), (-1.37361e-13, 0.923879, 0.382683), (1.37361e-13, 0.923879, -0.382683), (1.37361e-13, 0.923879, -0.382683), (1.37361e-13, 0.923879, -0.382683), (-1.37361e-13, 0.923879, 0.382683), (-1.37361e-13, 0.923879, 0.382683), (-1, 0, -3.58942e-13), (-1, 0, -3.58942e-13), (-1, 0, -3.58942e-13), (-1, 0, -3.58942e-13), (-1, 0, -3.58942e-13), (-1, 0, -3.58942e-13), (1.37361e-13, 0.923879, -0.382683), (2.5381e-13, 0.707107, -0.707107), (1.37361e-13, 0.923879, -0.382683), (2.5381e-13, 0.707107, -0.707107), (1.37361e-13, 0.923879, -0.382683), (2.5381e-13, 0.707107, -0.707107), (-2.5381e-13, 0.707107, 0.707107), (-1.37361e-13, 0.923879, 0.382683), (-2.5381e-13, 0.707107, 0.707107), (-1.37361e-13, 0.923879, 0.382683), (-2.5381e-13, 0.707107, 0.707107), (-1.37361e-13, 0.923879, 0.382683), (0, -1, 0), (0, -1, 0), (0, -1, 0), (0, -1, 0), (0, -1, 0), (0, -1, 0), (-0.382683, 0.923879, 3.59175e-13), (0.382683, 0.923879, -3.59175e-13), (-0.382683, 0.923879, 3.59175e-13), (0.382683, 0.923879, -3.59175e-13), (-0.382683, 0.923879, 3.59175e-13), (0.382683, 0.923879, -3.59175e-13), (-9.38569e-13, 0, -1), (-9.38569e-13, 0, -1), (-9.38569e-13, 0, -1), (-9.38569e-13, 0, -1), (-9.38569e-13, 0, -1), (-9.38569e-13, 0, -1), (-9.38569e-13, 0, -1), (-9.38569e-13, 0, -1), (-9.38569e-13, 0, -1), (-9.38569e-13, 0, -1), (-9.38569e-13, 0, -1), (-9.38569e-13, 0, -1), (-9.38569e-13, 0, -1), (-9.38569e-13, 0, -1), (-9.38569e-13, 0, -1), (-9.38569e-13, 0, -1), (-9.38569e-13, 0, -1), (-9.38569e-13, 0, -1), (0.970143, -0.242536, -9.10545e-13), (0.970143, -0.242536, -9.10545e-13), (0.970143, -0.242536, -9.10545e-13), (0.970143, -0.242536, -9.10545e-13), (0.970143, -0.242536, -9.10545e-13), (0.970143, -0.242536, -9.10545e-13), (9.38569e-13, 0, 1), (9.38569e-13, 0, 1), (9.38569e-13, 0, 1), (9.38569e-13, 0, 1), (9.38569e-13, 0, 1), (9.38569e-13, 0, 1), (9.38569e-13, 0, 1), (9.38569e-13, 0, 1), (9.38569e-13, 0, 1), (9.38569e-13, 0, 1), (9.38569e-13, 0, 1), (9.38569e-13, 0, 1), (9.38569e-13, 0, 1), (9.38569e-13, 0, 1), (9.38569e-13, 0, 1), (9.38569e-13, 0, 1), (9.38569e-13, 0, 1), (9.38569e-13, 0, 1), (0.707107, 0.707107, -6.63668e-13), (0.382683, 0.923879, -3.59175e-13), (0.707107, 0.707107, -6.63668e-13), (0.382683, 0.923879, -3.59175e-13), (0.707107, 0.707107, -6.63668e-13), (0.382683, 0.923879, -3.59175e-13), (-0.382683, 0.923879, 3.59175e-13), (-0.707107, 0.707107, 6.63668e-13), (-0.382683, 0.923879, 3.59175e-13), (-0.707107, 0.707107, 6.63668e-13), (-0.382683, 0.923879, 3.59175e-13), (-0.707107, 0.707107, 6.63668e-13), (-1, 0, 9.38569e-13), (-1, 0, 9.38569e-13), (-1, 0, 9.38569e-13), (-1, 0, 9.38569e-13), (-1, 0, 9.38569e-13), (-1, 0, 9.38569e-13), (1, 0, -9.38569e-13), (1, 0, -9.38569e-13), (1, 0, -9.38569e-13), (1, 0, -9.38569e-13), (1, 0, -9.38569e-13), (1, 0, -9.38569e-13), (0.707107, 0.707107, -6.63668e-13), (0.382683, 0.923879, -3.59175e-13), (0.707107, 0.707107, -6.63668e-13), (0.382683, 0.923879, -3.59175e-13), (0.707107, 0.707107, -6.63668e-13), (0.382683, 0.923879, -3.59175e-13), (-0.382683, 0.923879, 3.59175e-13), (-0.707107, 0.707107, 6.63668e-13), (-0.382683, 0.923879, 3.59175e-13), (-0.707107, 0.707107, 6.63668e-13), (-0.382683, 0.923879, 3.59175e-13), (-0.707107, 0.707107, 6.63668e-13), (9.38569e-13, 0, 1), (9.38569e-13, 0, 1), (9.38569e-13, 0, 1), (9.38569e-13, 0, 1), (9.38569e-13, 0, 1), (9.38569e-13, 0, 1), (9.38569e-13, 0, 1), (9.38569e-13, 0, 1), (9.38569e-13, 0, 1), (9.38569e-13, 0, 1), (9.38569e-13, 0, 1), (9.38569e-13, 0, 1), (9.38569e-13, 0, 1), (9.38569e-13, 0, 1), (9.38569e-13, 0, 1), (9.38569e-13, 0, 1), (9.38569e-13, 0, 1), (9.38569e-13, 0, 1), (-0.970143, -0.242536, 9.10545e-13), (-0.970143, -0.242536, 9.10545e-13), (-0.970143, -0.242536, 9.10545e-13), (-0.970143, -0.242536, 9.10545e-13), (-0.970143, -0.242536, 9.10545e-13), (-0.970143, -0.242536, 9.10545e-13), (-9.38569e-13, 0, -1), (-9.38569e-13, 0, -1), (-9.38569e-13, 0, -1), (-9.38569e-13, 0, -1), (-9.38569e-13, 0, -1), (-9.38569e-13, 0, -1), (-9.38569e-13, 0, -1), (-9.38569e-13, 0, -1), (-9.38569e-13, 0, -1), (-9.38569e-13, 0, -1), (-9.38569e-13, 0, -1), (-9.38569e-13, 0, -1), (-9.38569e-13, 0, -1), (-9.38569e-13, 0, -1), (-9.38569e-13, 0, -1), (-9.38569e-13, 0, -1), (-9.38569e-13, 0, -1), (-9.38569e-13, 0, -1), (-0.382683, 0.923879, 3.59175e-13), (0.382683, 0.923879, -3.59175e-13), (-0.382683, 0.923879, 3.59175e-13), (0.382683, 0.923879, -3.59175e-13), (-0.382683, 0.923879, 3.59175e-13), (0.382683, 0.923879, -3.59175e-13), (0, -1, 0), (0, -1, 0), (0, -1, 0), (0, -1, 0), (0, -1, 0), (0, -1, 0), (-0.441932, 0.410965, 0.797373), (-0.685704, 0.408096, 0.602717), (-0.685704, 0.408096, 0.602717), (-0.441932, 0.410965, 0.797373), (-0.461839, 0.412147, 0.785391), (-0.685704, 0.408096, 0.602717), (0.461839, 0.412147, 0.785391), (0.685704, 0.408096, 0.602717), (0.685704, 0.408096, 0.602717), (0.441932, 0.410965, 0.797373), (0.685704, 0.408096, 0.602717), (0.461839, 0.412147, 0.785391), (0, 0.395754, 0.918356), (-0.441932, 0.410965, 0.797373), (0, 0.395754, 0.918356), (-0.461839, 0.412147, 0.785391), (-0.441932, 0.410965, 0.797373), (0, 0.395754, 0.918356), (0.461839, 0.412147, 0.785391), (0, 0.395754, 0.918356), (0.441932, 0.410965, 0.797373), (0, 0.395754, 0.918356), (0, 0.395754, 0.918356), (0.461839, 0.412147, 0.785391), (0, 0, -1), (0, 0, -1), (0, 0, -1), (0, 0, -1), (0, 0, -1), (0, 0, -1), (-0.91773, 0.397205, 0), (-0.91773, 0.397205, 0), (-0.91773, 0.397205, 0), (-0.91773, 0.397205, 0), (-0.91773, 0.397205, 0), (-0.91773, 0.397205, 0), (0.91773, 0.397205, 0), (0.91773, 0.397205, 0), (0.91773, 0.397205, 0), (0.91773, 0.397205, 0), (0.91773, 0.397205, 0), (0.91773, 0.397205, 0), (1, 0, 0), (1, 0, 0), (1, 0, 0), (1, 0, 0), (1, 0, 0), (1, 0, 0), (1, 0, 0), (1, 0, 0), (1, 0, 0), (1, 0, 0), (1, 0, 0), (1, 0, 0), (1, 0, 0), (1, 0, 0), (1, 0, 0), (0, 0.382683, 0.923879), (0, 0, 1), (0, 0, 1), (0, 0, 1), (0, 0.382683, 0.923879), (0, 0.382683, 0.923879), (-1, 0, 0), (-1, 0, 0), (-1, 0, 0), (-1, 0, 0), (-1, 0, 0), (-1, 0, 0), (-1, 0, 0), (-1, 0, 0), (-1, 0, 0), (-1, 0, 0), (-1, 0, 0), (-1, 0, 0), (-1, 0, 0), (-1, 0, 0), (-1, 0, 0), (0, 1, 0), (0, 0.923879, 0.382683), (0, 1, 0), (0, 0.923879, 0.382683), (0, 1, 0), (0, 0.923879, 0.382683), (0, 1, 0), (0, 0.811242, 0.58471), (0, 1, 0), (0, 0.811242, 0.58471), (0, 1, 0), (0, 0.811242, 0.58471), (0, 0.811242, 0.58471), (0, 0.316228, 0.948683), (0, 0.316228, 0.948683), (0, 0.316228, 0.948683), (0, 0.811242, 0.58471), (0, 0.811242, 0.58471), (0, 0.923879, 0.382683), (0, 0.382683, 0.923879), (0, 0.923879, 0.382683), (0, 0.382683, 0.923879), (0, 0.923879, 0.382683), (0, 0.382683, 0.923879), (0, 0, -1), (0, 0, -1), (0, 0, -1), (0, 0, -1), (0, 0, -1), (0, 0, -1), (0, -0.5547, -0.83205), (0, -0.5547, -0.83205), (0, -0.5547, -0.83205), (0, -0.5547, -0.83205), (0, -0.5547, -0.83205), (0, -0.5547, -0.83205), (-0.236947, -0.848734, 0.472764), (-0.614369, -0.768993, 0.176638), (-0.257795, -0.846977, 0.464942), (-0.614369, -0.768993, 0.176638), (-0.236947, -0.848734, 0.472764), (-0.509689, -0.810035, 0.289931), (0.347397, -0.644064, 0.68154), (0, -0.658505, 0.752577), (0.364175, -0.642844, 0.67389), (0, -0.658505, 0.752577), (0.347397, -0.644064, 0.68154), (0, -0.658505, 0.752577), (0, -0.859293, 0.511484), (0.257795, -0.846977, 0.464942), (0.236947, -0.848734, 0.472764), (0.257795, -0.846977, 0.464942), (0, -0.859293, 0.511484), (0, -0.859293, 0.511484), (-0.347397, -0.644064, 0.68154), (-0.769315, -0.574561, 0.279347), (-0.364175, -0.642844, 0.67389), (-0.769315, -0.574561, 0.279347), (-0.347397, -0.644064, 0.68154), (-0.706938, -0.598928, 0.376197), (0.706938, -0.598928, 0.376197), (0.883116, -0.469155, 0), (0.883116, -0.469155, 0), (0.883116, -0.469155, 0), (0.706938, -0.598928, 0.376197), (0.769315, -0.574561, 0.279347), (0.236947, -0.848734, 0.472764), (0.614369, -0.768993, 0.176638), (0.509689, -0.810035, 0.289931), (0.614369, -0.768993, 0.176638), (0.236947, -0.848734, 0.472764), (0.257795, -0.846977, 0.464942), (-0.236947, -0.848734, 0.472764), (0, -0.859293, 0.511484), (0, -0.859293, 0.511484), (0, -0.859293, 0.511484), (-0.236947, -0.848734, 0.472764), (-0.257795, -0.846977, 0.464942), (0.347397, -0.644064, 0.68154), (0.769315, -0.574561, 0.279347), (0.706938, -0.598928, 0.376197), (0.769315, -0.574561, 0.279347), (0.347397, -0.644064, 0.68154), (0.364175, -0.642844, 0.67389), (-0.769315, -0.574561, 0.279347), (-0.883116, -0.469155, 0), (-0.883116, -0.469155, 0), (-0.883116, -0.469155, 0), (-0.769315, -0.574561, 0.279347), (-0.706938, -0.598928, 0.376197), (0.509689, -0.810035, 0.289931), (0.740833, -0.671689, 0), (0.740833, -0.671689, 0), (0.740833, -0.671689, 0), (0.509689, -0.810035, 0.289931), (0.614369, -0.768993, 0.176638), (-0.740833, -0.671689, 0), (-0.509689, -0.810035, 0.289931), (-0.740833, -0.671689, 0), (-0.509689, -0.810035, 0.289931), (-0.740833, -0.671689, 0), (-0.614369, -0.768993, 0.176638), (0, -1, 0), (0, -1, 0), (0, -1, 0), (0, -1, 0), (0, -1, 0), (0, -1, 0), (0, -1, 0), (0, -1, 0), (0, -1, 0), (0, -1, 0), (0, -1, 0), (0, -1, 0), (0, -1, 0), (0, -1, 0), (0, -1, 0), (0, -0.658505, 0.752577), (-0.364175, -0.642844, 0.67389), (0, -0.658505, 0.752577), (-0.364175, -0.642844, 0.67389), (0, -0.658505, 0.752577), (-0.347397, -0.644064, 0.68154), (0, 1, 0), (0, 1, 0), (0, 1, 0), (0, 1, 0), (0, 1, 0), (0, 1, 0), (1, 0, 0), (1, 0, 0), (1, 0, 0), (1, 0, 0), (1, 0, 0), (1, 0, 0), (0, 0, -1), (0, 0, -1), (0, 0, -1), (0, 0, -1), (0, 0, -1), (0, 0, -1), (-1, 0, 0), (-1, 0, 0), (-1, 0, 0), (-1, 0, 0), (-1, 0, 0), (-1, 0, 0), (0, 0, 1), (0, 0, 1), (0, 0, 1), (0, 0, 1), (0, 0, 1), (0, 0, 1), (0, -1, 0), (0, -1, 0), (0, -1, 0), (0, -1, 0), (0, -1, 0), (0, -1, 0), (0, -1, 0), (0, -1, 0), (0, -1, 0), (0, -1, 0), (0, -1, 0), (0, -1, 0), (0, -1, 0), (0, -1, 0), (0, -1, 0), (0, 0, -1), (0, 0, -1), (0, 0, -1), (0, 0, -1), (0, 0, -1), (0, 0, -1), (0, 0, -1), (0, 0, -1), (0, 0, -1), (0, 0, -1), (0, 0, -1), (0, 0, -1), (0, 0, -1), (0, 0, -1), (0, 0, -1), (0, 0, -1), (0, 0, -1), (0, 0, -1), (0, 0, -1), (0, 0, -1), (0, 0, -1), (0, 0, -1), (0, 0, -1), (0, 0, -1), (0, 0, -1), (0, 0, -1), (0, 0, -1), (0, 0, -1), (0, 0, -1), (0, 0, -1), (0, 1, 0), (0, 1, 0), (0, 1, 0), (0, 1, 0), (0, 1, 0), (0, 1, 0), (0, 1, 0), (0, 1, 0), (0, 1, 0), (0, 1, 0), (0, 1, 0), (0, 1, 0), (0, 1, 0), (0, 1, 0), (0, 1, 0), (0, 1, 0), (0, 1, 0), (0, 1, 0), (0, 1, 0), (0, 1, 0), (0, 1, 0), (0, 1, 0), (0, 1, 0), (0, 1, 0), (0, 1, 0), (0, 1, 0), (0, 1, 0), (0, 1, 0), (0, 1, 0), (0, 1, 0), (0, 1, 0), (0, 1, 0), (0, 1, 0), (0, 1, 0), (0, 1, 0), (0, 1, 0), (0, 1, 0), (0, 1, 0), (0, 1, 0), (0, 1, 0), (0, 1, 0), (0, 1, 0), (0, 1, 0), (0, 1, 0), (0, 1, 0), (0, 1, 0), (0, 1, 0), (0, 1, 0), (-0.906932, 0, 0.421277), (-1, 0, 0), (-1, 0, 0), (-1, 0, 0), (-0.906932, 0, 0.421277), (-0.906932, 0, 0.421277), (-0.46342, 0, 0.886139), (-0.906932, 0, 0.421277), (-0.46342, 0, 0.886139), (-0.906932, 0, 0.421277), (-0.46342, 0, 0.886139), (-0.906932, 0, 0.421277), (0, 0, 1), (-0.46342, 0, 0.886139), (0, 0, 1), (-0.46342, 0, 0.886139), (0, 0, 1), (-0.46342, 0, 0.886139), (0.46342, 0, 0.886139), (0, 0, 1), (0.46342, 0, 0.886139), (0, 0, 1), (0.46342, 0, 0.886139), (0, 0, 1), (0.906932, 0, 0.421277), (0.46342, 0, 0.886139), (0.906932, 0, 0.421277), (0.46342, 0, 0.886139), (0.906932, 0, 0.421277), (0.46342, 0, 0.886139), (0.906932, 0, 0.421277), (1, 0, 0), (1, 0, 0), (1, 0, 0), (0.906932, 0, 0.421277), (0.906932, 0, 0.421277), (0, 1, 0), (0, 1, 0), (0, 1, 0), (0, 1, 0), (0, 1, 0), (0, 1, 0), (0, 1, 0), (0, 1, 0), (0, 1, 0), (0, 1, 0), (0, 1, 0), (0, 1, 0), (0, 1, 0), (0, 1, 0), (0, 1, 0), (0, 1, 0), (0, 1, 0), (0, 1, 0), (0, 1, 0), (0, 1, 0), (0, 1, 0), (0, 1, 0), (0, 1, 0), (0, 1, 0), (0, 1, 0), (0, 1, 0), (0, 1, 0), (0, 1, 0), (0, 1, 0), (0, 1, 0), (0, 1, 0), (0, 1, 0), (0, 1, 0), (0, 1, 0), (0, 1, 0), (0, 1, 0), (0, 1, 0), (0, 1, 0), (0, 1, 0), (0, 1, 0), (0, 1, 0), (0, 1, 0), (0, 1, 0), (0, 1, 0), (0, 1, 0), (1, 0, 0), (1, 0, 0), (1, 0, 0), (1, 0, 0), (1, 0, 0), (1, 0, 0), (0.645052, 0, -0.764139), (0.46342, 0, -0.886139), (0.645052, 0, -0.764139), (0.46342, 0, -0.886139), (0.645052, 0, -0.764139), (0.46342, 0, -0.886139), (0.46342, 0, -0.886139), (0, 0, -1), (0.46342, 0, -0.886139), (0, 0, -1), (0.46342, 0, -0.886139), (0, 0, -1), (0, 0, -1), (-0.46342, 0, -0.886139), (0, 0, -1), (-0.46342, 0, -0.886139), (0, 0, -1), (-0.46342, 0, -0.886139), (-0.46342, 0, -0.886139), (-0.645052, 0, -0.764139), (-0.645052, 0, -0.764139), (-0.645052, 0, -0.764139), (-0.46342, 0, -0.886139), (-0.46342, 0, -0.886139), (-1, 0, 0), (-1, 0, 0), (-1, 0, 0), (-1, 0, 0), (-1, 0, 0), (-1, 0, 0), (0, 0, 1), (0, 0, 1), (0, 0, 1), (0, 0, 1), (0, 0, 1), (0, 0, 1), (0, 0, 1), (0, 0, 1), (0, 0, 1), (0, 0, 1), (0, 0, 1), (0, 0, 1), (0, 0, 1), (0, 0, 1), (0, 0, 1), (0, 0, 1), (0, 0, 1), (0, 0, 1), (0.850651, 0.525731, 0), (0.447214, 0.894427, 0), (0.850651, 0.525731, 0), (0.447214, 0.894427, 0), (0.850651, 0.525731, 0), (0.447214, 0.894427, 0), (0.850651, 0.525731, 0), (1, 0, 0), (0.850651, 0.525731, 0), (1, 0, 0), (0.850651, 0.525731, 0), (1, 0, 0), (-1, 0, 0), (-0.850651, 0.525731, 0), (-0.850651, 0.525731, 0), (-0.850651, 0.525731, 0), (-1, 0, 0), (-1, 0, 0), (-0.447214, 0.894427, 0), (-0.850651, 0.525731, 0), (-0.447214, 0.894427, 0), (-0.850651, 0.525731, 0), (-0.447214, 0.894427, 0), (-0.850651, 0.525731, 0), (0, 1, 0), (0, 1, 0), (0, 1, 0), (0, 1, 0), (0, 1, 0), (0, 1, 0), (0, 1, 0), (0, 1, 0), (0, 1, 0), (0, 1, 0), (0, 1, 0), (0, 1, 0), (0, 1, 0), (0, 1, 0), (0, 1, 0), (1, 0, 3.58942e-13), (1, 0, 3.58942e-13), (1, 0, 3.58942e-13), (1, 0, 3.58942e-13), (1, 0, 3.58942e-13), (1, 0, 3.58942e-13), (-1.37361e-13, 0.923879, 0.382683), (1.37361e-13, 0.923879, -0.382683), (1.37361e-13, 0.923879, -0.382683), (1.37361e-13, 0.923879, -0.382683), (-1.37361e-13, 0.923879, 0.382683), (-1.37361e-13, 0.923879, 0.382683), (-1, 0, -3.58942e-13), (-1, 0, -3.58942e-13), (-1, 0, -3.58942e-13), (-1, 0, -3.58942e-13), (-1, 0, -3.58942e-13), (-1, 0, -3.58942e-13), (1.37361e-13, 0.923879, -0.382683), (2.5381e-13, 0.707107, -0.707107), (1.37361e-13, 0.923879, -0.382683), (2.5381e-13, 0.707107, -0.707107), (1.37361e-13, 0.923879, -0.382683), (2.5381e-13, 0.707107, -0.707107), (-2.5381e-13, 0.707107, 0.707107), (-1.37361e-13, 0.923879, 0.382683), (-2.5381e-13, 0.707107, 0.707107), (-1.37361e-13, 0.923879, 0.382683), (-2.5381e-13, 0.707107, 0.707107), (-1.37361e-13, 0.923879, 0.382683), (1, 0, 3.58942e-13), (1, 0, 3.58942e-13), (1, 0, 3.58942e-13), (1, 0, 3.58942e-13), (1, 0, 3.58942e-13), (1, 0, 3.58942e-13), (-1.37361e-13, 0.923879, 0.382683), (1.37361e-13, 0.923879, -0.382683), (1.37361e-13, 0.923879, -0.382683), (1.37361e-13, 0.923879, -0.382683), (-1.37361e-13, 0.923879, 0.382683), (-1.37361e-13, 0.923879, 0.382683), (-1, 0, -3.58942e-13), (-1, 0, -3.58942e-13), (-1, 0, -3.58942e-13), (-1, 0, -3.58942e-13), (-1, 0, -3.58942e-13), (-1, 0, -3.58942e-13), (1.37361e-13, 0.923879, -0.382683), (2.5381e-13, 0.707107, -0.707107), (1.37361e-13, 0.923879, -0.382683), (2.5381e-13, 0.707107, -0.707107), (1.37361e-13, 0.923879, -0.382683), (2.5381e-13, 0.707107, -0.707107), (-2.5381e-13, 0.707107, 0.707107), (-1.37361e-13, 0.923879, 0.382683), (-2.5381e-13, 0.707107, 0.707107), (-1.37361e-13, 0.923879, 0.382683), (-2.5381e-13, 0.707107, 0.707107), (-1.37361e-13, 0.923879, 0.382683), (0, -1, 0), (0, -1, 0), (0, -1, 0), (0, -1, 0), (0, -1, 0), (0, -1, 0), (-0.382683, 0.923879, 3.59175e-13), (0.382683, 0.923879, -3.59175e-13), (-0.382683, 0.923879, 3.59175e-13), (0.382683, 0.923879, -3.59175e-13), (-0.382683, 0.923879, 3.59175e-13), (0.382683, 0.923879, -3.59175e-13), (-9.38569e-13, 0, -1), (-9.38569e-13, 0, -1), (-9.38569e-13, 0, -1), (-9.38569e-13, 0, -1), (-9.38569e-13, 0, -1), (-9.38569e-13, 0, -1), (-9.38569e-13, 0, -1), (-9.38569e-13, 0, -1), (-9.38569e-13, 0, -1), (-9.38569e-13, 0, -1), (-9.38569e-13, 0, -1), (-9.38569e-13, 0, -1), (-9.38569e-13, 0, -1), (-9.38569e-13, 0, -1), (-9.38569e-13, 0, -1), (-9.38569e-13, 0, -1), (-9.38569e-13, 0, -1), (-9.38569e-13, 0, -1), (0.970143, -0.242536, -9.10545e-13), (0.970143, -0.242536, -9.10545e-13), (0.970143, -0.242536, -9.10545e-13), (0.970143, -0.242536, -9.10545e-13), (0.970143, -0.242536, -9.10545e-13), (0.970143, -0.242536, -9.10545e-13), (9.38569e-13, 0, 1), (9.38569e-13, 0, 1), (9.38569e-13, 0, 1), (9.38569e-13, 0, 1), (9.38569e-13, 0, 1), (9.38569e-13, 0, 1), (9.38569e-13, 0, 1), (9.38569e-13, 0, 1), (9.38569e-13, 0, 1), (9.38569e-13, 0, 1), (9.38569e-13, 0, 1), (9.38569e-13, 0, 1), (9.38569e-13, 0, 1), (9.38569e-13, 0, 1), (9.38569e-13, 0, 1), (9.38569e-13, 0, 1), (9.38569e-13, 0, 1), (9.38569e-13, 0, 1), (0.707107, 0.707107, -6.63668e-13), (0.382683, 0.923879, -3.59175e-13), (0.707107, 0.707107, -6.63668e-13), (0.382683, 0.923879, -3.59175e-13), (0.707107, 0.707107, -6.63668e-13), (0.382683, 0.923879, -3.59175e-13), (-0.382683, 0.923879, 3.59175e-13), (-0.707107, 0.707107, 6.63668e-13), (-0.382683, 0.923879, 3.59175e-13), (-0.707107, 0.707107, 6.63668e-13), (-0.382683, 0.923879, 3.59175e-13), (-0.707107, 0.707107, 6.63668e-13), (-1, 0, 9.38569e-13), (-1, 0, 9.38569e-13), (-1, 0, 9.38569e-13), (-1, 0, 9.38569e-13), (-1, 0, 9.38569e-13), (-1, 0, 9.38569e-13), (1, 0, -9.38569e-13), (1, 0, -9.38569e-13), (1, 0, -9.38569e-13), (1, 0, -9.38569e-13), (1, 0, -9.38569e-13), (1, 0, -9.38569e-13), (0.707107, 0.707107, -6.63668e-13), (0.382683, 0.923879, -3.59175e-13), (0.707107, 0.707107, -6.63668e-13), (0.382683, 0.923879, -3.59175e-13), (0.707107, 0.707107, -6.63668e-13), (0.382683, 0.923879, -3.59175e-13), (-0.382683, 0.923879, 3.59175e-13), (-0.707107, 0.707107, 6.63668e-13), (-0.382683, 0.923879, 3.59175e-13), (-0.707107, 0.707107, 6.63668e-13), (-0.382683, 0.923879, 3.59175e-13), (-0.707107, 0.707107, 6.63668e-13), (9.38569e-13, 0, 1), (9.38569e-13, 0, 1), (9.38569e-13, 0, 1), (9.38569e-13, 0, 1), (9.38569e-13, 0, 1), (9.38569e-13, 0, 1), (9.38569e-13, 0, 1), (9.38569e-13, 0, 1), (9.38569e-13, 0, 1), (9.38569e-13, 0, 1), (9.38569e-13, 0, 1), (9.38569e-13, 0, 1), (9.38569e-13, 0, 1), (9.38569e-13, 0, 1), (9.38569e-13, 0, 1), (9.38569e-13, 0, 1), (9.38569e-13, 0, 1), (9.38569e-13, 0, 1), (-0.970143, -0.242536, 9.10545e-13), (-0.970143, -0.242536, 9.10545e-13), (-0.970143, -0.242536, 9.10545e-13), (-0.970143, -0.242536, 9.10545e-13), (-0.970143, -0.242536, 9.10545e-13), (-0.970143, -0.242536, 9.10545e-13), (-9.38569e-13, 0, -1), (-9.38569e-13, 0, -1), (-9.38569e-13, 0, -1), (-9.38569e-13, 0, -1), (-9.38569e-13, 0, -1), (-9.38569e-13, 0, -1), (-9.38569e-13, 0, -1), (-9.38569e-13, 0, -1), (-9.38569e-13, 0, -1), (-9.38569e-13, 0, -1), (-9.38569e-13, 0, -1), (-9.38569e-13, 0, -1), (-9.38569e-13, 0, -1), (-9.38569e-13, 0, -1), (-9.38569e-13, 0, -1), (-9.38569e-13, 0, -1), (-9.38569e-13, 0, -1), (-9.38569e-13, 0, -1), (-0.382683, 0.923879, 3.59175e-13), (0.382683, 0.923879, -3.59175e-13), (-0.382683, 0.923879, 3.59175e-13), (0.382683, 0.923879, -3.59175e-13), (-0.382683, 0.923879, 3.59175e-13), (0.382683, 0.923879, -3.59175e-13), (0, -1, 0), (0, -1, 0), (0, -1, 0), (0, -1, 0), (0, -1, 0), (0, -1, 0), (-0.441932, 0.410965, 0.797373), (-0.685704, 0.408096, 0.602717), (-0.685704, 0.408096, 0.602717), (-0.441932, 0.410965, 0.797373), (-0.461839, 0.412147, 0.785391), (-0.685704, 0.408096, 0.602717), (0.461839, 0.412147, 0.785391), (0.685704, 0.408096, 0.602717), (0.685704, 0.408096, 0.602717), (0.441932, 0.410965, 0.797373), (0.685704, 0.408096, 0.602717), (0.461839, 0.412147, 0.785391), (0, 0.395754, 0.918356), (-0.441932, 0.410965, 0.797373), (0, 0.395754, 0.918356), (-0.461839, 0.412147, 0.785391), (-0.441932, 0.410965, 0.797373), (0, 0.395754, 0.918356), (0.461839, 0.412147, 0.785391), (0, 0.395754, 0.918356), (0.441932, 0.410965, 0.797373), (0, 0.395754, 0.918356), (0, 0.395754, 0.918356), (0.461839, 0.412147, 0.785391), (0, 0, -1), (0, 0, -1), (0, 0, -1), (0, 0, -1), (0, 0, -1), (0, 0, -1), (-0.91773, 0.397205, 0), (-0.91773, 0.397205, 0), (-0.91773, 0.397205, 0), (-0.91773, 0.397205, 0), (-0.91773, 0.397205, 0), (-0.91773, 0.397205, 0), (0.91773, 0.397205, 0), (0.91773, 0.397205, 0), (0.91773, 0.397205, 0), (0.91773, 0.397205, 0), (0.91773, 0.397205, 0), (0.91773, 0.397205, 0), (1, 0, 0), (1, 0, 0), (1, 0, 0), (1, 0, 0), (1, 0, 0), (1, 0, 0), (1, 0, 0), (1, 0, 0), (1, 0, 0), (1, 0, 0), (1, 0, 0), (1, 0, 0), (1, 0, 0), (1, 0, 0), (1, 0, 0), (0, 0.382683, 0.923879), (0, 0, 1), (0, 0, 1), (0, 0, 1), (0, 0.382683, 0.923879), (0, 0.382683, 0.923879), (-1, 0, 0), (-1, 0, 0), (-1, 0, 0), (-1, 0, 0), (-1, 0, 0), (-1, 0, 0), (-1, 0, 0), (-1, 0, 0), (-1, 0, 0), (-1, 0, 0), (-1, 0, 0), (-1, 0, 0), (-1, 0, 0), (-1, 0, 0), (-1, 0, 0), (0, 1, 0), (0, 0.923879, 0.382683), (0, 1, 0), (0, 0.923879, 0.382683), (0, 1, 0), (0, 0.923879, 0.382683), (0, 1, 0), (0, 0.811242, 0.58471), (0, 1, 0), (0, 0.811242, 0.58471), (0, 1, 0), (0, 0.811242, 0.58471), (0, 0.811242, 0.58471), (0, 0.316228, 0.948683), (0, 0.316228, 0.948683), (0, 0.316228, 0.948683), (0, 0.811242, 0.58471), (0, 0.811242, 0.58471), (0, 0.923879, 0.382683), (0, 0.382683, 0.923879), (0, 0.923879, 0.382683), (0, 0.382683, 0.923879), (0, 0.923879, 0.382683), (0, 0.382683, 0.923879), (0, 0, -1), (0, 0, -1), (0, 0, -1), (0, 0, -1), (0, 0, -1), (0, 0, -1)] (interpolation = "faceVarying")
        texCoord2f[] primvars:st = [(0.71875, 0.085), (0.71875, 0.025), (0.71875, 0.025), (0.71875, 0.025), (0.71875, 0.085), (0.71875, 0.085), (0.71875, 0.085), (0.71875, 0.025), (0.71875, 0.025), (0.71875, 0.025), (0.71875, 0.085), (0.71875, 0.085), (0.71875, 0.165), (0.71875, 0.085), (0.71875, 0.085), (0.71875, 0.085), (0.71875, 0.165), (0.71875, 0.165), (0.71875, 0.085), (0.71875, 0.025), (0.71875, 0.085), (0.71875, 0.025), (0.71875, 0.085), (0.71875, 0.025), (0.71875, 0.165), (0.71875, 0.085), (0.71875, 0.085), (0.71875, 0.085), (0.71875, 0.165), (0.71875, 0.165), (0.71875, 0.165), (0.71875, 0.085), (0.71875, 0.165), (0.71875, 0.085), (0.71875, 0.165), (0.71875, 0.085), (0.71875, 0.085), (0.71875, 0.025), (0.71875, 0.085), (0.71875, 0.025), (0.71875, 0.085), (0.71875, 0.025), (0.71875, 0.085), (0.71875, 0.025), (0.71875, 0.085), (0.71875, 0.025), (0.71875, 0.085), (0.71875, 0.025), (0.71875, 0.165), (0.71875, 0.085), (0.71875, 0.165), (0.71875, 0.085), (0.71875, 0.165), (0.71875, 0.085), (0.71875, 0.085), (0.71875, 0.165), (0.71875, 0.085), (0.71875, 0.165), (0.71875, 0.085), (0.71875, 0.165), (0.71875, 0.085), (0.71875, 0.025), (0.71875, 0.085), (0.71875, 0.025), (0.71875, 0.085), (0.71875, 0.025), (0.71875, 0.025), (0.71875, 0.085), (0.71875, 0.085), (0.71875, 0.085), (0.71875, 0.025), (0.71875, 0.025), (0.71875, 0.025), (0.71875, 0.025), (0.71875, 0.025), (0.71875, 0.025), (0.71875, 0.025), (0.71875, 0.025), (0.71875, 0.025), (0.71875, 0.025), (0.71875, 0.025), (0.71875, 0.025), (0.71875, 0.025), (0.71875, 0.025), (0.71875, 0.025), (0.71875, 0.025), (0.71875, 0.025), (0.71875, 0.165), (0.71875, 0.085), (0.71875, 0.085), (0.71875, 0.085), (0.71875, 0.165), (0.71875, 0.165), (0.71875, 0.125), (0.71875, 0.125), (0.71875, 0.125), (0.71875, 0.125), (0.71875, 0.125), (0.71875, 0.125), (0.71875, 0.185), (0.71875, 0.125), (0.71875, 0.185), (0.71875, 0.125), (0.71875, 0.185), (0.71875, 0.125), (0.71875, 0.185), (0.71875, 0.125), (0.71875, 0.125), (0.71875, 0.125), (0.71875, 0.185), (0.71875, 0.185), (0.71875, 0.125), (0.71875, 0.185), (0.71875, 0.125), (0.71875, 0.185), (0.71875, 0.125), (0.71875, 0.185), (0.71875, 0.185), (0.71875, 0.125), (0.71875, 0.125), (0.71875, 0.125), (0.71875, 0.185), (0.71875, 0.185), (0.71875, 0.085), (0.71875, 0.085), (0.71875, 0.085), (0.71875, 0.085), (0.71875, 0.085), (0.71875, 0.085), (0.71875, 0.085), (0.71875, 0.085), (0.71875, 0.085), (0.71875, 0.085), (0.71875, 0.085), (0.71875, 0.085), (0.71875, 0.085), (0.71875, 0.085), (0.71875, 0.085), (0.34375, 0.415), (0.34375, 0.335), (0.34375, 0.335), (0.34375, 0.335), (0.34375, 0.415), (0.34375, 0.415), (0.34375, 0.415), (0.34375, 0.415), (0.34375, 0.435), (0.34375, 0.435), (0.34375, 0.415), (0.34375, 0.475), (0.34375, 0.435), (0.34375, 0.475), (0.34375, 0.455), (0.34375, 0.455), (0.34375, 0.475), (0.34375, 0.475), (0.34375, 0.435), (0.34375, 0.415), (0.34375, 0.435), (0.34375, 0.415), (0.34375, 0.435), (0.34375, 0.475), (0.34375, 0.475), (0.34375, 0.435), (0.34375, 0.455), (0.34375, 0.475), (0.34375, 0.455), (0.34375, 0.475), (0.34375, 0.475), (0.34375, 0.475), (0.34375, 0.475), (0.34375, 0.475), (0.34375, 0.475), (0.34375, 0.475), (0.34375, 0.475), (0.34375, 0.475), (0.34375, 0.475), (0.34375, 0.475), (0.34375, 0.475), (0.34375, 0.475), (0.34375, 0.475), (0.34375, 0.475), (0.34375, 0.475), (0.34375, 0.475), (0.34375, 0.475), (0.34375, 0.475), (0.34375, 0.475), (0.34375, 0.475), (0.34375, 0.475), (0.34375, 0.475), (0.34375, 0.475), (0.34375, 0.475), (0.34375, 0.475), (0.34375, 0.475), (0.34375, 0.475), (0.34375, 0.475), (0.34375, 0.475), (0.34375, 0.475), (0.34375, 0.475), (0.34375, 0.475), (0.34375, 0.475), (0.34375, 0.475), (0.34375, 0.475), (0.34375, 0.475), (0.34375, 0.475), (0.34375, 0.475), (0.34375, 0.475), (0.34375, 0.475), (0.34375, 0.475), (0.34375, 0.475), (0.34375, 0.475), (0.34375, 0.475), (0.34375, 0.475), (0.34375, 0.475), (0.34375, 0.475), (0.34375, 0.475), (0.34375, 0.415), (0.34375, 0.475), (0.34375, 0.415), (0.34375, 0.475), (0.34375, 0.415), (0.34375, 0.475), (0.34375, 0.475), (0.34375, 0.415), (0.34375, 0.415), (0.34375, 0.415), (0.34375, 0.475), (0.34375, 0.475), (0.34375, 0.475), (0.34375, 0.415), (0.34375, 0.415), (0.34375, 0.415), (0.34375, 0.475), (0.34375, 0.475), (0.34375, 0.475), (0.34375, 0.415), (0.34375, 0.415), (0.34375, 0.415), (0.34375, 0.475), (0.34375, 0.475), (0.34375, 0.475), (0.34375, 0.415), (0.34375, 0.415), (0.34375, 0.415), (0.34375, 0.475), (0.34375, 0.475), (0.34375, 0.475), (0.34375, 0.415), (0.34375, 0.475), (0.34375, 0.415), (0.34375, 0.475), (0.34375, 0.415), (0.34375, 0.435), (0.34375, 0.435), (0.34375, 0.435), (0.34375, 0.435), (0.34375, 0.435), (0.34375, 0.435), (0.34375, 0.435), (0.34375, 0.435), (0.34375, 0.435), (0.34375, 0.435), (0.34375, 0.435), (0.34375, 0.435), (0.34375, 0.435), (0.34375, 0.435), (0.34375, 0.435), (0.34375, 0.435), (0.34375, 0.435), (0.34375, 0.435), (0.34375, 0.435), (0.34375, 0.435), (0.34375, 0.435), (0.34375, 0.435), (0.34375, 0.435), (0.34375, 0.435), (0.34375, 0.435), (0.34375, 0.435), (0.34375, 0.435), (0.34375, 0.435), (0.34375, 0.435), (0.34375, 0.435), (0.34375, 0.435), (0.34375, 0.435), (0.34375, 0.435), (0.34375, 0.435), (0.34375, 0.435), (0.34375, 0.435), (0.34375, 0.435), (0.34375, 0.435), (0.34375, 0.435), (0.34375, 0.435), (0.34375, 0.435), (0.34375, 0.435), (0.34375, 0.435), (0.34375, 0.435), (0.34375, 0.435), (0.34375, 0.475), (0.34375, 0.435), (0.34375, 0.475), (0.34375, 0.435), (0.34375, 0.475), (0.34375, 0.435), (0.34375, 0.475), (0.34375, 0.435), (0.34375, 0.435), (0.34375, 0.435), (0.34375, 0.475), (0.34375, 0.475), (0.34375, 0.475), (0.34375, 0.435), (0.34375, 0.435), (0.34375, 0.435), (0.34375, 0.475), (0.34375, 0.475), (0.34375, 0.475), (0.34375, 0.435), (0.34375, 0.435), (0.34375, 0.435), (0.34375, 0.475), (0.34375, 0.475), (0.34375, 0.435), (0.34375, 0.475), (0.34375, 0.435), (0.34375, 0.475), (0.34375, 0.435), (0.34375, 0.475), (0.34375, 0.435), (0.34375, 0.475), (0.34375, 0.435), (0.34375, 0.475), (0.34375, 0.435), (0.34375, 0.475), (0.34375, 0.455), (0.34375, 0.435), (0.34375, 0.435), (0.34375, 0.435), (0.34375, 0.455), (0.34375, 0.475), (0.34375, 0.475), (0.34375, 0.455), (0.34375, 0.475), (0.34375, 0.475), (0.34375, 0.435), (0.34375, 0.435), (0.34375, 0.435), (0.34375, 0.475), (0.34375, 0.455), (0.34375, 0.455), (0.34375, 0.475), (0.34375, 0.475), (0.34375, 0.455), (0.34375, 0.475), (0.34375, 0.455), (0.34375, 0.475), (0.34375, 0.455), (0.34375, 0.475), (0.34375, 0.455), (0.34375, 0.435), (0.34375, 0.455), (0.34375, 0.435), (0.34375, 0.455), (0.34375, 0.435), (0.34375, 0.435), (0.34375, 0.455), (0.34375, 0.455), (0.34375, 0.455), (0.34375, 0.435), (0.34375, 0.435), (0.34375, 0.475), (0.34375, 0.455), (0.34375, 0.475), (0.34375, 0.455), (0.34375, 0.475), (0.34375, 0.455), (0.34375, 0.475), (0.34375, 0.475), (0.34375, 0.475), (0.34375, 0.475), (0.34375, 0.475), (0.34375, 0.475), (0.34375, 0.475), (0.34375, 0.475), (0.34375, 0.475), (0.34375, 0.475), (0.34375, 0.475), (0.34375, 0.475), (0.34375, 0.475), (0.34375, 0.475), (0.34375, 0.475), (0.34375, 0.275), (0.34375, 0.475), (0.34375, 0.275), (0.34375, 0.475), (0.34375, 0.275), (0.34375, 0.475), (0.34375, 0.475), (0.34375, 0.475), (0.34375, 0.475), (0.34375, 0.475), (0.34375, 0.475), (0.34375, 0.475), (0.34375, 0.475), (0.34375, 0.275), (0.34375, 0.275), (0.34375, 0.275), (0.34375, 0.475), (0.34375, 0.475), (0.34375, 0.475), (0.34375, 0.275), (0.34375, 0.475), (0.34375, 0.275), (0.34375, 0.475), (0.34375, 0.275), (0.34375, 0.275), (0.34375, 0.475), (0.34375, 0.275), (0.34375, 0.475), (0.34375, 0.275), (0.34375, 0.475), (0.34375, 0.275), (0.34375, 0.475), (0.34375, 0.275), (0.34375, 0.475), (0.34375, 0.275), (0.34375, 0.475), (0.34375, 0.475), (0.34375, 0.475), (0.34375, 0.475), (0.34375, 0.475), (0.34375, 0.475), (0.34375, 0.475), (0.34375, 0.475), (0.34375, 0.275), (0.34375, 0.275), (0.34375, 0.275), (0.34375, 0.475), (0.34375, 0.475), (0.34375, 0.475), (0.34375, 0.275), (0.34375, 0.475), (0.34375, 0.275), (0.34375, 0.475), (0.34375, 0.275), (0.34375, 0.275), (0.34375, 0.475), (0.34375, 0.275), (0.34375, 0.475), (0.34375, 0.275), (0.34375, 0.475), (0.46875, 0.025), (0.46875, 0.025), (0.46875, 0.025), (0.46875, 0.025), (0.46875, 0.025), (0.46875, 0.025), (0.46875, 0.225), (0.46875, 0.225), (0.46875, 0.225), (0.46875, 0.225), (0.46875, 0.225), (0.46875, 0.225), (0.46875, 0.185), (0.46875, 0.145), (0.46875, 0.145), (0.46875, 0.185), (0.46875, 0.145), (0.46875, 0.185), (0.46875, 0.185), (0.46875, 0.185), (0.46875, 0.225), (0.46875, 0.185), (0.46875, 0.225), (0.46875, 0.225), (0.46875, 0.025), (0.46875, 0.145), (0.46875, 0.185), (0.46875, 0.145), (0.46875, 0.025), (0.46875, 0.025), (0.46875, 0.025), (0.46875, 0.185), (0.46875, 0.025), (0.46875, 0.185), (0.46875, 0.025), (0.46875, 0.185), (0.46875, 0.185), (0.46875, 0.025), (0.46875, 0.025), (0.46875, 0.025), (0.46875, 0.185), (0.46875, 0.145), (0.46875, 0.145), (0.46875, 0.185), (0.46875, 0.145), (0.46875, 0.145), (0.46875, 0.185), (0.46875, 0.185), (0.46875, 0.185), (0.46875, 0.185), (0.46875, 0.225), (0.46875, 0.185), (0.46875, 0.225), (0.46875, 0.225), (0.46875, 0.185), (0.46875, 0.225), (0.46875, 0.185), (0.46875, 0.225), (0.46875, 0.185), (0.46875, 0.225), (0.46875, 0.225), (0.46875, 0.185), (0.46875, 0.225), (0.46875, 0.185), (0.46875, 0.225), (0.46875, 0.185), (0.46875, 0.185), (0.46875, 0.145), (0.46875, 0.185), (0.46875, 0.145), (0.46875, 0.185), (0.46875, 0.145), (0.46875, 0.145), (0.46875, 0.185), (0.46875, 0.145), (0.46875, 0.185), (0.46875, 0.145), (0.46875, 0.185), (0.46875, 0.185), (0.46875, 0.225), (0.46875, 0.185), (0.46875, 0.225), (0.46875, 0.185), (0.46875, 0.225), (0.46875, 0.225), (0.46875, 0.185), (0.46875, 0.225), (0.46875, 0.185), (0.46875, 0.225), (0.46875, 0.185), (0.46875, 0.225), (0.46875, 0.225), (0.46875, 0.185), (0.46875, 0.225), (0.46875, 0.185), (0.46875, 0.185), (0.46875, 0.185), (0.46875, 0.185), (0.46875, 0.145), (0.46875, 0.145), (0.46875, 0.185), (0.46875, 0.145), (0.46875, 0.145), (0.46875, 0.185), (0.46875, 0.025), (0.46875, 0.025), (0.46875, 0.025), (0.46875, 0.185), (0.46875, 0.185), (0.46875, 0.025), (0.46875, 0.185), (0.46875, 0.025), (0.46875, 0.185), (0.46875, 0.025), (0.46875, 0.025), (0.46875, 0.025), (0.46875, 0.145), (0.46875, 0.185), (0.46875, 0.145), (0.46875, 0.025), (0.46875, 0.225), (0.46875, 0.225), (0.46875, 0.185), (0.46875, 0.225), (0.46875, 0.185), (0.46875, 0.185), (0.46875, 0.185), (0.46875, 0.145), (0.46875, 0.185), (0.46875, 0.145), (0.46875, 0.145), (0.46875, 0.185), (0.46875, 0.225), (0.46875, 0.225), (0.46875, 0.225), (0.46875, 0.225), (0.46875, 0.225), (0.46875, 0.225), (0.46875, 0.025), (0.46875, 0.025), (0.46875, 0.025), (0.46875, 0.025), (0.46875, 0.025), (0.46875, 0.025), (0.09375, 0.025), (0.09375, 0.225), (0.09375, 0.025), (0.09375, 0.025), (0.09375, 0.225), (0.09375, 0.225), (0.09375, 0.225), (0.09375, 0.025), (0.09375, 0.225), (0.09375, 0.025), (0.09375, 0.025), (0.09375, 0.225), (0.09375, 0.225), (0.09375, 0.025), (0.09375, 0.025), (0.09375, 0.225), (0.09375, 0.025), (0.09375, 0.225), (0.09375, 0.225), (0.09375, 0.025), (0.09375, 0.025), (0.09375, 0.225), (0.09375, 0.025), (0.09375, 0.225), (0.09375, 0.225), (0.09375, 0.025), (0.09375, 0.025), (0.09375, 0.025), (0.09375, 0.225), (0.09375, 0.225), (0.09375, 0.025), (0.09375, 0.225), (0.09375, 0.025), (0.09375, 0.225), (0.09375, 0.025), (0.09375, 0.225), (0.09375, 0.225), (0.09375, 0.025), (0.09375, 0.225), (0.09375, 0.025), (0.09375, 0.225), (0.09375, 0.025), (0.84375, 0.225), (0.84375, 0.025), (0.84375, 0.225), (0.84375, 0.025), (0.84375, 0.225), (0.84375, 0.105), (0.84375, 0.025), (0.84375, 0.105), (0.84375, 0.025), (0.84375, 0.025), (0.84375, 0.105), (0.84375, 0.105), (0.84375, 0.025), (0.84375, 0.105), (0.84375, 0.065), (0.84375, 0.065), (0.84375, 0.025), (0.84375, 0.025), (0.84375, 0.025), (0.84375, 0.065), (0.84375, 0.065), (0.84375, 0.225), (0.84375, 0.105), (0.84375, 0.225), (0.84375, 0.025), (0.84375, 0.105), (0.84375, 0.225), (0.84375, 0.105), (0.84375, 0.025), (0.84375, 0.025), (0.84375, 0.105), (0.84375, 0.025), (0.84375, 0.105), (0.84375, 0.105), (0.84375, 0.025), (0.84375, 0.065), (0.84375, 0.105), (0.84375, 0.105), (0.84375, 0.105), (0.84375, 0.105), (0.84375, 0.105), (0.84375, 0.105), (0.84375, 0.225), (0.84375, 0.225), (0.84375, 0.225), (0.84375, 0.225), (0.84375, 0.225), (0.84375, 0.225), (0.84375, 0.225), (0.84375, 0.105), (0.84375, 0.105), (0.84375, 0.105), (0.84375, 0.225), (0.84375, 0.225), (0.84375, 0.105), (0.84375, 0.065), (0.84375, 0.105), (0.84375, 0.065), (0.84375, 0.105), (0.84375, 0.065), (0.84375, 0.225), (0.84375, 0.025), (0.84375, 0.025), (0.84375, 0.025), (0.84375, 0.225), (0.84375, 0.225), (0.71875, 0.085), (0.71875, 0.025), (0.71875, 0.025), (0.71875, 0.025), (0.71875, 0.085), (0.71875, 0.085), (0.71875, 0.085), (0.71875, 0.025), (0.71875, 0.025), (0.71875, 0.025), (0.71875, 0.085), (0.71875, 0.085), (0.71875, 0.165), (0.71875, 0.085), (0.71875, 0.085), (0.71875, 0.085), (0.71875, 0.165), (0.71875, 0.165), (0.71875, 0.085), (0.71875, 0.025), (0.71875, 0.085), (0.71875, 0.025), (0.71875, 0.085), (0.71875, 0.025), (0.71875, 0.165), (0.71875, 0.085), (0.71875, 0.085), (0.71875, 0.085), (0.71875, 0.165), (0.71875, 0.165), (0.71875, 0.165), (0.71875, 0.085), (0.71875, 0.165), (0.71875, 0.085), (0.71875, 0.165), (0.71875, 0.085), (0.71875, 0.085), (0.71875, 0.025), (0.71875, 0.085), (0.71875, 0.025), (0.71875, 0.085), (0.71875, 0.025), (0.71875, 0.085), (0.71875, 0.025), (0.71875, 0.085), (0.71875, 0.025), (0.71875, 0.085), (0.71875, 0.025), (0.71875, 0.165), (0.71875, 0.085), (0.71875, 0.165), (0.71875, 0.085), (0.71875, 0.165), (0.71875, 0.085), (0.71875, 0.085), (0.71875, 0.165), (0.71875, 0.085), (0.71875, 0.165), (0.71875, 0.085), (0.71875, 0.165), (0.71875, 0.085), (0.71875, 0.025), (0.71875, 0.085), (0.71875, 0.025), (0.71875, 0.085), (0.71875, 0.025), (0.71875, 0.025), (0.71875, 0.085), (0.71875, 0.085), (0.71875, 0.085), (0.71875, 0.025), (0.71875, 0.025), (0.71875, 0.025), (0.71875, 0.025), (0.71875, 0.025), (0.71875, 0.025), (0.71875, 0.025), (0.71875, 0.025), (0.71875, 0.025), (0.71875, 0.025), (0.71875, 0.025), (0.71875, 0.025), (0.71875, 0.025), (0.71875, 0.025), (0.71875, 0.025), (0.71875, 0.025), (0.71875, 0.025), (0.71875, 0.165), (0.71875, 0.085), (0.71875, 0.085), (0.71875, 0.085), (0.71875, 0.165), (0.71875, 0.165), (0.71875, 0.125), (0.71875, 0.125), (0.71875, 0.125), (0.71875, 0.125), (0.71875, 0.125), (0.71875, 0.125), (0.71875, 0.185), (0.71875, 0.125), (0.71875, 0.185), (0.71875, 0.125), (0.71875, 0.185), (0.71875, 0.125), (0.71875, 0.185), (0.71875, 0.125), (0.71875, 0.125), (0.71875, 0.125), (0.71875, 0.185), (0.71875, 0.185), (0.71875, 0.125), (0.71875, 0.185), (0.71875, 0.125), (0.71875, 0.185), (0.71875, 0.125), (0.71875, 0.185), (0.71875, 0.185), (0.71875, 0.125), (0.71875, 0.125), (0.71875, 0.125), (0.71875, 0.185), (0.71875, 0.185), (0.71875, 0.085), (0.71875, 0.085), (0.71875, 0.085), (0.71875, 0.085), (0.71875, 0.085), (0.71875, 0.085), (0.71875, 0.085), (0.71875, 0.085), (0.71875, 0.085), (0.71875, 0.085), (0.71875, 0.085), (0.71875, 0.085), (0.71875, 0.085), (0.71875, 0.085), (0.71875, 0.085), (0.34375, 0.415), (0.34375, 0.335), (0.34375, 0.335), (0.34375, 0.335), (0.34375, 0.415), (0.34375, 0.415), (0.34375, 0.415), (0.34375, 0.415), (0.34375, 0.435), (0.34375, 0.435), (0.34375, 0.415), (0.34375, 0.475), (0.34375, 0.435), (0.34375, 0.475), (0.34375, 0.455), (0.34375, 0.455), (0.34375, 0.475), (0.34375, 0.475), (0.34375, 0.435), (0.34375, 0.415), (0.34375, 0.435), (0.34375, 0.415), (0.34375, 0.435), (0.34375, 0.475), (0.34375, 0.475), (0.34375, 0.435), (0.34375, 0.455), (0.34375, 0.475), (0.34375, 0.455), (0.34375, 0.475), (0.34375, 0.475), (0.34375, 0.475), (0.34375, 0.475), (0.34375, 0.475), (0.34375, 0.475), (0.34375, 0.475), (0.34375, 0.475), (0.34375, 0.475), (0.34375, 0.475), (0.34375, 0.475), (0.34375, 0.475), (0.34375, 0.475), (0.34375, 0.475), (0.34375, 0.475), (0.34375, 0.475), (0.34375, 0.475), (0.34375, 0.475), (0.34375, 0.475), (0.34375, 0.475), (0.34375, 0.475), (0.34375, 0.475), (0.34375, 0.475), (0.34375, 0.475), (0.34375, 0.475), (0.34375, 0.475), (0.34375, 0.475), (0.34375, 0.475), (0.34375, 0.475), (0.34375, 0.475), (0.34375, 0.475), (0.34375, 0.475), (0.34375, 0.475), (0.34375, 0.475), (0.34375, 0.475), (0.34375, 0.475), (0.34375, 0.475), (0.34375, 0.475), (0.34375, 0.475), (0.34375, 0.475), (0.34375, 0.475), (0.34375, 0.475), (0.34375, 0.475), (0.34375, 0.475), (0.34375, 0.475), (0.34375, 0.475), (0.34375, 0.475), (0.34375, 0.475), (0.34375, 0.475), (0.34375, 0.415), (0.34375, 0.475), (0.34375, 0.415), (0.34375, 0.475), (0.34375, 0.415), (0.34375, 0.475), (0.34375, 0.475), (0.34375, 0.415), (0.34375, 0.415), (0.34375, 0.415), (0.34375, 0.475), (0.34375, 0.475), (0.34375, 0.475), (0.34375, 0.415), (0.34375, 0.415), (0.34375, 0.415), (0.34375, 0.475), (0.34375, 0.475), (0.34375, 0.475), (0.34375, 0.415), (0.34375, 0.415), (0.34375, 0.415), (0.34375, 0.475), (0.34375, 0.475), (0.34375, 0.475), (0.34375, 0.415), (0.34375, 0.415), (0.34375, 0.415), (0.34375, 0.475), (0.34375, 0.475), (0.34375, 0.475), (0.34375, 0.415), (0.34375, 0.475), (0.34375, 0.415), (0.34375, 0.475), (0.34375, 0.415), (0.34375, 0.435), (0.34375, 0.435), (0.34375, 0.435), (0.34375, 0.435), (0.34375, 0.435), (0.34375, 0.435), (0.34375, 0.435), (0.34375, 0.435), (0.34375, 0.435), (0.34375, 0.435), (0.34375, 0.435), (0.34375, 0.435), (0.34375, 0.435), (0.34375, 0.435), (0.34375, 0.435), (0.34375, 0.435), (0.34375, 0.435), (0.34375, 0.435), (0.34375, 0.435), (0.34375, 0.435), (0.34375, 0.435), (0.34375, 0.435), (0.34375, 0.435), (0.34375, 0.435), (0.34375, 0.435), (0.34375, 0.435), (0.34375, 0.435), (0.34375, 0.435), (0.34375, 0.435), (0.34375, 0.435), (0.34375, 0.435), (0.34375, 0.435), (0.34375, 0.435), (0.34375, 0.435), (0.34375, 0.435), (0.34375, 0.435), (0.34375, 0.435), (0.34375, 0.435), (0.34375, 0.435), (0.34375, 0.435), (0.34375, 0.435), (0.34375, 0.435), (0.34375, 0.435), (0.34375, 0.435), (0.34375, 0.435), (0.34375, 0.475), (0.34375, 0.435), (0.34375, 0.475), (0.34375, 0.435), (0.34375, 0.475), (0.34375, 0.435), (0.34375, 0.475), (0.34375, 0.435), (0.34375, 0.435), (0.34375, 0.435), (0.34375, 0.475), (0.34375, 0.475), (0.34375, 0.475), (0.34375, 0.435), (0.34375, 0.435), (0.34375, 0.435), (0.34375, 0.475), (0.34375, 0.475), (0.34375, 0.475), (0.34375, 0.435), (0.34375, 0.435), (0.34375, 0.435), (0.34375, 0.475), (0.34375, 0.475), (0.34375, 0.435), (0.34375, 0.475), (0.34375, 0.435), (0.34375, 0.475), (0.34375, 0.435), (0.34375, 0.475), (0.34375, 0.435), (0.34375, 0.475), (0.34375, 0.435), (0.34375, 0.475), (0.34375, 0.435), (0.34375, 0.475), (0.34375, 0.455), (0.34375, 0.435), (0.34375, 0.435), (0.34375, 0.435), (0.34375, 0.455), (0.34375, 0.475), (0.34375, 0.475), (0.34375, 0.455), (0.34375, 0.475), (0.34375, 0.475), (0.34375, 0.435), (0.34375, 0.435), (0.34375, 0.435), (0.34375, 0.475), (0.34375, 0.455), (0.34375, 0.455), (0.34375, 0.475), (0.34375, 0.475), (0.34375, 0.455), (0.34375, 0.475), (0.34375, 0.455), (0.34375, 0.475), (0.34375, 0.455), (0.34375, 0.475), (0.34375, 0.455), (0.34375, 0.435), (0.34375, 0.455), (0.34375, 0.435), (0.34375, 0.455), (0.34375, 0.435), (0.34375, 0.435), (0.34375, 0.455), (0.34375, 0.455), (0.34375, 0.455), (0.34375, 0.435), (0.34375, 0.435), (0.34375, 0.475), (0.34375, 0.455), (0.34375, 0.475), (0.34375, 0.455), (0.34375, 0.475), (0.34375, 0.455), (0.34375, 0.475), (0.34375, 0.475), (0.34375, 0.475), (0.34375, 0.475), (0.34375, 0.475), (0.34375, 0.475), (0.34375, 0.475), (0.34375, 0.475), (0.34375, 0.475), (0.34375, 0.475), (0.34375, 0.475), (0.34375, 0.475), (0.34375, 0.475), (0.34375, 0.475), (0.34375, 0.475), (0.34375, 0.275), (0.34375, 0.475), (0.34375, 0.275), (0.34375, 0.475), (0.34375, 0.275), (0.34375, 0.475), (0.34375, 0.475), (0.34375, 0.475), (0.34375, 0.475), (0.34375, 0.475), (0.34375, 0.475), (0.34375, 0.475), (0.34375, 0.475), (0.34375, 0.275), (0.34375, 0.275), (0.34375, 0.275), (0.34375, 0.475), (0.34375, 0.475), (0.34375, 0.475), (0.34375, 0.275), (0.34375, 0.475), (0.34375, 0.275), (0.34375, 0.475), (0.34375, 0.275), (0.34375, 0.275), (0.34375, 0.475), (0.34375, 0.275), (0.34375, 0.475), (0.34375, 0.275), (0.34375, 0.475), (0.34375, 0.275), (0.34375, 0.475), (0.34375, 0.275), (0.34375, 0.475), (0.34375, 0.275), (0.34375, 0.475), (0.34375, 0.475), (0.34375, 0.475), (0.34375, 0.475), (0.34375, 0.475), (0.34375, 0.475), (0.34375, 0.475), (0.34375, 0.475), (0.34375, 0.275), (0.34375, 0.275), (0.34375, 0.275), (0.34375, 0.475), (0.34375, 0.475), (0.34375, 0.475), (0.34375, 0.275), (0.34375, 0.475), (0.34375, 0.275), (0.34375, 0.475), (0.34375, 0.275), (0.34375, 0.275), (0.34375, 0.475), (0.34375, 0.275), (0.34375, 0.475), (0.34375, 0.275), (0.34375, 0.475), (0.46875, 0.025), (0.46875, 0.025), (0.46875, 0.025), (0.46875, 0.025), (0.46875, 0.025), (0.46875, 0.025), (0.46875, 0.225), (0.46875, 0.225), (0.46875, 0.225), (0.46875, 0.225), (0.46875, 0.225), (0.46875, 0.225), (0.46875, 0.185), (0.46875, 0.145), (0.46875, 0.145), (0.46875, 0.185), (0.46875, 0.145), (0.46875, 0.185), (0.46875, 0.185), (0.46875, 0.185), (0.46875, 0.225), (0.46875, 0.185), (0.46875, 0.225), (0.46875, 0.225), (0.46875, 0.025), (0.46875, 0.145), (0.46875, 0.185), (0.46875, 0.145), (0.46875, 0.025), (0.46875, 0.025), (0.46875, 0.025), (0.46875, 0.185), (0.46875, 0.025), (0.46875, 0.185), (0.46875, 0.025), (0.46875, 0.185), (0.46875, 0.185), (0.46875, 0.025), (0.46875, 0.025), (0.46875, 0.025), (0.46875, 0.185), (0.46875, 0.145), (0.46875, 0.145), (0.46875, 0.185), (0.46875, 0.145), (0.46875, 0.145), (0.46875, 0.185), (0.46875, 0.185), (0.46875, 0.185), (0.46875, 0.185), (0.46875, 0.225), (0.46875, 0.185), (0.46875, 0.225), (0.46875, 0.225), (0.46875, 0.185), (0.46875, 0.225), (0.46875, 0.185), (0.46875, 0.225), (0.46875, 0.185), (0.46875, 0.225), (0.46875, 0.225), (0.46875, 0.185), (0.46875, 0.225), (0.46875, 0.185), (0.46875, 0.225), (0.46875, 0.185), (0.46875, 0.185), (0.46875, 0.145), (0.46875, 0.185), (0.46875, 0.145), (0.46875, 0.185), (0.46875, 0.145), (0.46875, 0.145), (0.46875, 0.185), (0.46875, 0.145), (0.46875, 0.185), (0.46875, 0.145), (0.46875, 0.185), (0.46875, 0.185), (0.46875, 0.225), (0.46875, 0.185), (0.46875, 0.225), (0.46875, 0.185), (0.46875, 0.225), (0.46875, 0.225), (0.46875, 0.185), (0.46875, 0.225), (0.46875, 0.185), (0.46875, 0.225), (0.46875, 0.185), (0.46875, 0.225), (0.46875, 0.225), (0.46875, 0.185), (0.46875, 0.225), (0.46875, 0.185), (0.46875, 0.185), (0.46875, 0.185), (0.46875, 0.185), (0.46875, 0.145), (0.46875, 0.145), (0.46875, 0.185), (0.46875, 0.145), (0.46875, 0.145), (0.46875, 0.185), (0.46875, 0.025), (0.46875, 0.025), (0.46875, 0.025), (0.46875, 0.185), (0.46875, 0.185), (0.46875, 0.025), (0.46875, 0.185), (0.46875, 0.025), (0.46875, 0.185), (0.46875, 0.025), (0.46875, 0.025), (0.46875, 0.025), (0.46875, 0.145), (0.46875, 0.185), (0.46875, 0.145), (0.46875, 0.025), (0.46875, 0.225), (0.46875, 0.225), (0.46875, 0.185), (0.46875, 0.225), (0.46875, 0.185), (0.46875, 0.185), (0.46875, 0.185), (0.46875, 0.145), (0.46875, 0.185), (0.46875, 0.145), (0.46875, 0.145), (0.46875, 0.185), (0.46875, 0.225), (0.46875, 0.225), (0.46875, 0.225), (0.46875, 0.225), (0.46875, 0.225), (0.46875, 0.225), (0.46875, 0.025), (0.46875, 0.025), (0.46875, 0.025), (0.46875, 0.025), (0.46875, 0.025), (0.46875, 0.025), (0.09375, 0.025), (0.09375, 0.225), (0.09375, 0.025), (0.09375, 0.025), (0.09375, 0.225), (0.09375, 0.225), (0.09375, 0.225), (0.09375, 0.025), (0.09375, 0.225), (0.09375, 0.025), (0.09375, 0.025), (0.09375, 0.225), (0.09375, 0.225), (0.09375, 0.025), (0.09375, 0.025), (0.09375, 0.225), (0.09375, 0.025), (0.09375, 0.225), (0.09375, 0.225), (0.09375, 0.025), (0.09375, 0.025), (0.09375, 0.225), (0.09375, 0.025), (0.09375, 0.225), (0.09375, 0.225), (0.09375, 0.025), (0.09375, 0.025), (0.09375, 0.025), (0.09375, 0.225), (0.09375, 0.225), (0.09375, 0.025), (0.09375, 0.225), (0.09375, 0.025), (0.09375, 0.225), (0.09375, 0.025), (0.09375, 0.225), (0.09375, 0.225), (0.09375, 0.025), (0.09375, 0.225), (0.09375, 0.025), (0.09375, 0.225), (0.09375, 0.025), (0.84375, 0.225), (0.84375, 0.025), (0.84375, 0.225), (0.84375, 0.025), (0.84375, 0.225), (0.84375, 0.105), (0.84375, 0.025), (0.84375, 0.105), (0.84375, 0.025), (0.84375, 0.025), (0.84375, 0.105), (0.84375, 0.105), (0.84375, 0.025), (0.84375, 0.105), (0.84375, 0.065), (0.84375, 0.065), (0.84375, 0.025), (0.84375, 0.025), (0.84375, 0.025), (0.84375, 0.065), (0.84375, 0.065), (0.84375, 0.225), (0.84375, 0.105), (0.84375, 0.225), (0.84375, 0.025), (0.84375, 0.105), (0.84375, 0.225), (0.84375, 0.105), (0.84375, 0.025), (0.84375, 0.025), (0.84375, 0.105), (0.84375, 0.025), (0.84375, 0.105), (0.84375, 0.105), (0.84375, 0.025), (0.84375, 0.065), (0.84375, 0.105), (0.84375, 0.105), (0.84375, 0.105), (0.84375, 0.105), (0.84375, 0.105), (0.84375, 0.105), (0.84375, 0.225), (0.84375, 0.225), (0.84375, 0.225), (0.84375, 0.225), (0.84375, 0.225), (0.84375, 0.225), (0.84375, 0.225), (0.84375, 0.105), (0.84375, 0.105), (0.84375, 0.105), (0.84375, 0.225), (0.84375, 0.225), (0.84375, 0.105), (0.84375, 0.065), (0.84375, 0.105), (0.84375, 0.065), (0.84375, 0.105), (0.84375, 0.065), (0.84375, 0.225), (0.84375, 0.025), (0.84375, 0.025), (0.84375, 0.025), (0.84375, 0.225), (0.84375, 0.225)] (interpolation = "faceVarying")
        uniform token subdivisionScheme = "none"
        rel material:binding = </Vehicle/Materials/colormap>
    }
    def Scope "Materials" {
        def Material "colormap" {
            token outputs:surface.connect = </Vehicle/Materials/colormap/surface.outputs:surface>
            def Shader "surface" {
                uniform token info:id = "UsdPreviewSurface"
                float inputs:roughness = 0.7
                float inputs:metallic = 0
                color3f inputs:diffuseColor.connect = </Vehicle/Materials/colormap/texture.outputs:rgb>
                token outputs:surface
            }
            def Shader "stReader" {
                uniform token info:id = "UsdPrimvarReader_float2"
                token inputs:varname = "st"
                float2 outputs:result
            }
            def Shader "texture" {
                uniform token info:id = "UsdUVTexture"
                asset inputs:file = @kenney-water-colormap.png@
                float2 inputs:st.connect = </Vehicle/Materials/colormap/stReader.outputs:result>
                token inputs:wrapS = "repeat"
                token inputs:wrapT = "repeat"
                float3 outputs:rgb
            }
        }
    }
}
