#usda 1.0
(
    defaultPrim = "Vehicle"
    metersPerUnit = 1
    upAxis = "Y"
)
def Xform "Vehicle" {
    def Mesh "mesh_colormap" {
        int[] faceVertexCounts = [3, 3, 3, 3, 3, 3, 3, 3, 3, 3, 3, 3, 3, 3, 3, 3, 3, 3, 3, 3, 3, 3, 3, 3, 3, 3, 3, 3, 3, 3, 3, 3, 3, 3, 3, 3, 3, 3, 3, 3, 3, 3, 3, 3, 3, 3, 3, 3, 3, 3, 3, 3, 3, 3, 3, 3, 3, 3, 3, 3, 3, 3, 3, 3, 3, 3, 3, 3, 3, 3, 3, 3, 3, 3, 3, 3, 3, 3, 3, 3, 3, 3, 3, 3, 3, 3, 3, 3, 3, 3, 3, 3, 3, 3, 3, 3, 3, 3, 3, 3, 3, 3, 3, 3, 3, 3, 3, 3, 3, 3, 3, 3, 3, 3, 3, 3, 3, 3, 3, 3, 3, 3, 3, 3, 3, 3, 3, 3, 3, 3, 3, 3, 3, 3, 3, 3, 3, 3, 3, 3, 3, 3, 3, 3, 3, 3, 3, 3, 3, 3, 3, 3, 3, 3, 3, 3, 3, 3, 3, 3, 3, 3, 3, 3, 3, 3, 3, 3, 3, 3, 3, 3, 3, 3, 3, 3, 3, 3, 3, 3, 3, 3, 3, 3, 3, 3, 3, 3, 3, 3, 3, 3, 3, 3, 3, 3, 3, 3, 3, 3, 3, 3, 3, 3, 3, 3, 3, 3, 3, 3, 3, 3, 3, 3, 3, 3, 3, 3, 3, 3, 3, 3, 3, 3, 3, 3, 3, 3, 3, 3, 3, 3, 3, 3, 3, 3, 3, 3, 3, 3, 3, 3, 3, 3, 3, 3, 3, 3, 3, 3, 3, 3, 3, 3, 3, 3, 3, 3, 3, 3, 3, 3, 3, 3, 3, 3, 3, 3, 3, 3, 3, 3, 3, 3, 3, 3, 3, 3, 3, 3, 3, 3, 3, 3, 3, 3, 3, 3, 3, 3, 3, 3, 3, 3, 3, 3, 3, 3, 3, 3, 3, 3, 3, 3, 3, 3, 3, 3, 3, 3, 3, 3, 3, 3, 3, 3, 3, 3, 3, 3, 3, 3, 3, 3, 3, 3, 3, 3, 3, 3, 3, 3, 3, 3, 3, 3, 3, 3, 3, 3, 3, 3, 3, 3, 3, 3, 3, 3, 3, 3, 3, 3, 3, 3, 3, 3, 3, 3, 3, 3]
        int[] faceVertexIndices = [2, 1, 0, 1, 2, 3, 1, 5, 4, 5, 1, 6, 1, 7, 6, 7, 1, 3, 9, 5, 8, 5, 9, 4, 10, 9, 8, 9, 10, 11, 12, 1, 4, 1, 12, 0, 13, 9, 11, 9, 13, 14, 14, 4, 9, 4, 14, 12, 15, 14, 13, 14, 15, 16, 14, 16, 12, 12, 16, 0, 0, 16, 2, 3, 17, 7, 17, 3, 18, 15, 11, 19, 11, 15, 13, 16, 3, 2, 3, 16, 18, 20, 11, 10, 11, 20, 19, 20, 18, 19, 18, 20, 17, 19, 16, 15, 16, 19, 18, 21, 8, 5, 8, 21, 22, 7, 23, 6, 23, 7, 24, 22, 10, 8, 10, 22, 25, 23, 5, 6, 5, 23, 21, 28, 27, 26, 27, 28, 29, 29, 28, 30, 29, 30, 31, 29, 31, 32, 17, 24, 7, 24, 17, 33, 23, 32, 31, 32, 23, 24, 23, 30, 21, 30, 23, 31, 22, 26, 25, 26, 22, 28, 21, 28, 22, 28, 21, 30, 36, 35, 34, 35, 36, 37, 25, 20, 10, 20, 25, 38, 24, 29, 32, 29, 24, 37, 33, 37, 24, 37, 33, 35, 39, 29, 37, 29, 39, 40, 41, 26, 27, 26, 41, 25, 34, 25, 41, 25, 34, 38, 34, 41, 42, 34, 42, 36, 40, 43, 29, 43, 40, 44, 45, 41, 27, 41, 45, 46, 27, 43, 45, 43, 27, 29, 46, 40, 41, 40, 46, 44, 45, 44, 46, 44, 45, 43, 37, 47, 39, 47, 37, 48, 51, 50, 49, 50, 51, 52, 53, 37, 36, 37, 53, 48, 47, 53, 54, 53, 47, 48, 39, 49, 50, 49, 39, 42, 42, 39, 47, 42, 47, 54, 54, 36, 42, 36, 54, 53, 52, 56, 55, 56, 52, 51, 41, 58, 57, 58, 41, 40, 42, 59, 36, 59, 42, 49, 42, 51, 49, 41, 51, 42, 41, 56, 51, 56, 41, 57, 55, 58, 52, 40, 52, 58, 52, 40, 39, 52, 39, 50, 39, 60, 50, 60, 39, 37, 36, 60, 59, 60, 36, 37, 58, 56, 57, 56, 58, 55, 38, 17, 20, 17, 38, 33, 33, 38, 34, 33, 34, 35, 63, 62, 61, 62, 63, 64, 63, 65, 64, 65, 63, 66, 66, 63, 67, 66, 67, 68, 68, 67, 69, 70, 68, 69, 68, 70, 71, 69, 67, 72, 72, 67, 73, 72, 73, 74, 65, 76, 75, 76, 65, 66, 68, 76, 66, 76, 68, 77, 79, 73, 78, 73, 79, 74, 68, 80, 77, 80, 68, 71, 70, 82, 81, 82, 70, 69, 82, 80, 81, 80, 82, 77, 77, 82, 83, 77, 83, 76, 76, 83, 61, 62, 76, 61, 76, 62, 75, 61, 83, 84, 84, 83, 79, 84, 79, 78, 67, 61, 84, 61, 67, 63, 78, 67, 84, 67, 78, 73, 83, 74, 79, 74, 83, 72, 69, 83, 82, 83, 69, 72, 87, 86, 85, 86, 87, 88, 86, 90, 89, 90, 86, 88, 89, 92, 91, 92, 89, 90, 88, 92, 90, 92, 88, 87, 85, 89, 91, 89, 85, 86, 95, 94, 93, 94, 95, 96, 94, 98, 97, 98, 94, 96, 97, 100, 99, 100, 97, 98, 96, 100, 98, 100, 96, 95, 93, 97, 99, 97, 93, 94, 2, 1, 0, 1, 2, 3, 1, 5, 4, 5, 1, 6, 1, 7, 6, 7, 1, 3, 9, 5, 8, 5, 9, 4, 10, 9, 8, 9, 10, 11, 12, 1, 4, 1, 12, 0, 13, 9, 11, 9, 13, 14, 14, 4, 9, 4, 14, 12, 15, 14, 13, 14, 15, 16, 14, 16, 12, 12, 16, 0, 0, 16, 2, 3, 17, 7, 17, 3, 18, 15, 11, 19, 11, 15, 13, 16, 3, 2, 3, 16, 18, 20, 11, 10, 11, 20, 19, 20, 18, 19, 18, 20, 17, 19, 16, 15, 16, 19, 18, 21, 8, 5, 8, 21, 22, 7, 23, 6, 23, 7, 24, 22, 10, 8, 10, 22, 25, 23, 5, 6, 5, 23, 21, 28, 27, 26, 27, 28, 29, 29, 28, 30, 29, 30, 31, 29, 31, 32, 17, 24, 7, 24, 17, 33, 23, 32, 31, 32, 23, 24, 23, 30, 21, 30, 23, 31, 22, 26, 25, 26, 22, 28, 21, 28, 22, 28, 21, 30, 36, 35, 34, 35, 36, 37, 25, 20, 10, 20, 25, 38, 24, 29, 32, 29, 24, 37, 33, 37, 24, 37, 33, 35, 39, 29, 37, 29, 39, 40, 41, 26, 27, 26, 41, 25, 34, 25, 41, 25, 34, 38, 34, 41, 42, 34, 42, 36, 40, 43, 29, 43, 40, 44, 45, 41, 27, 41, 45, 46, 27, 43, 45, 43, 27, 29, 46, 40, 41, 40, 46, 44, 45, 44, 46, 44, 45, 43, 37, 47, 39, 47, 37, 48, 51, 50, 49, 50, 51, 52, 53, 37, 36, 37, 53, 48, 47, 53, 54, 53, 47, 48, 39, 49, 50, 49, 39, 42, 42, 39, 47, 42, 47, 54, 54, 36, 42, 36, 54, 53, 52, 56, 55, 56, 52, 51, 41, 58, 57, 58, 41, 40, 42, 59, 36, 59, 42, 49, 42, 51, 49, 41, 51, 42, 41, 56, 51, 56, 41, 57, 55, 58, 52, 40, 52, 58, 52, 40, 39, 52, 39, 50, 39, 60, 50, 60, 39, 37, 36, 60, 59, 60, 36, 37, 58, 56, 57, 56, 58, 55, 38, 17, 20, 17, 38, 33, 33, 38, 34, 33, 34, 35, 63, 62, 61, 62, 63, 64, 63, 65, 64, 65, 63, 66, 66, 63, 67, 66, 67, 68, 68, 67, 69, 70, 68, 69, 68, 70, 71, 69, 67, 72, 72, 67, 73, 72, 73, 74, 65, 76, 75, 76, 65, 66, 68, 76, 66, 76, 68, 77, 79, 73, 78, 73, 79, 74, 68, 80, 77, 80, 68, 71, 70, 82, 81, 82, 70, 69, 82, 80, 81, 80, 82, 77, 77, 82, 83, 77, 83, 76, 76, 83, 61, 62, 76, 61, 76, 62, 75, 61, 83, 84, 84, 83, 79, 84, 79, 78, 67, 61, 84, 61, 67, 63, 78, 67, 84, 67, 78, 73, 83, 74, 79, 74, 83, 72, 69, 83, 82, 83, 69, 72, 87, 86, 85, 86, 87, 88, 86, 90, 89, 90, 86, 88, 89, 92, 91, 92, 89, 90, 88, 92, 90, 92, 88, 87, 85, 89, 91, 89, 85, 86, 95, 94, 93, 94, 95, 96, 94, 98, 97, 98, 94, 96, 97, 100, 99, 100, 97, 98, 96, 100, 98, 100, 96, 95, 93, 97, 99, 97, 93, 94]
        point3f[] points = [(0.178089, 0, 0.431068), (0.296815, 0.2, 1.14151), (0.40698, 0, 0.06794), (0.6783, 0.2, 0.5363), (4.59322e-13, 0.2, 1.3058), (6.49274e-13, 0.6, 1.835), (0.390547, 0.6, 1.61883), (0.8925, 0.6, 0.8225), (-0.390547, 0.6, 1.61883), (-0.296815, 0.2, 1.14151), (-0.8925, 0.6, 0.8225), (-0.6783, 0.2, 0.5363), (1.8641e-13, 0, 0.52964), (-0.40698, 0, 0.06794), (-0.178089, 0, 0.431068), (-0.40698, 0, -1.635), (0.40698, 0, -1.635), (0.8925, 0.6, -1.835), (0.6783, 0.2, -1.735), (-0.6783, 0.2, -1.735), (-0.8925, 0.6, -1.835), (6.0185e-13, 0.8, 1.72475), (-0.371019, 0.8, 1.51939), (0.371019, 0.8, 1.51939), (0.847875, 0.8, 0.762875), (-0.847875, 0.8, 0.762875), (-0.551119, 0.9, 0.546575), (-0.551119, 0.9, 0.266993), (-0.241163, 0.9, 1.03831), (0.551119, 0.9, 0.266993), (4.46595e-13, 0.9, 1.17179), (0.241163, 0.9, 1.03831), (0.551119, 0.9, 0.546575), (0.847875, 0.8, -1.835), (-0.551119, 0.9, -1.835), (0.551119, 0.9, -1.835), (-0.551119, 0.9, -1.21259), (0.551119, 0.9, -1.21259), (-0.847875, 0.8, -1.835), (0.551119, 0.9, -1.06259), (0.551119, 0.9, -0.433007), (-0.551119, 0.9, -0.433007), (-0.551119, 0.9, -1.06259), (0.551119, 1.04975, -0.0830074), (0.551119, 1.04975, -0.433007), (-0.551119, 1.04975, -0.0830074), (-0.551119, 1.04975, -0.433007), (0.551119, 1, -1.11259), (0.551119, 1, -1.21259), (-0.551119, 0.8, -1.01259), (0.551119, 0.8, -1.01259), (-0.551119, 0.8, -0.81259), (0.551119, 0.8, -0.81259), (-0.551119, 1, -1.21259), (-0.551119, 1, -1.11259), (0.551119, 0.6, -0.81259), (-0.551119, 0.6, -0.81259), (-0.551119, 0.6, -0.433007), (0.551119, 0.6, -0.433007), (-0.551119, 0.8, -1.21259), (0.551119, 0.8, -1.21259), (0.551119, 0.973205, -1.68579), (0.551119, 0.8, -1.5858), (0.551119, 1.0732, -1.51259), (0.551119, 0.9, -1.41259), (0.351119, 0.9, -1.41259), (0.351119, 1.0732, -1.51259), (0.501119, 1.20311, -1.58759), (-0.351119, 1.0732, -1.51259), (-0.551119, 1.0732, -1.51259), (-0.551119, 0.9, -1.41259), (-0.351119, 0.9, -1.41259), (-0.501119, 1.20311, -1.58759), (0.351119, 1.24641, -1.61259), (-0.351119, 1.24641, -1.61259), (0.351119, 0.8, -1.5858), (0.351119, 0.973205, -1.68579), (-0.351119, 0.973205, -1.68579), (0.351119, 1.14641, -1.7858), (-0.351119, 1.14641, -1.7858), (-0.351119, 0.8, -1.5858), (-0.551119, 0.8, -1.5858), (-0.551119, 0.973205, -1.68579), (-0.501119, 1.10311, -1.7608), (0.501119, 1.10311, -1.7608), (0.0961406, 0.9, 0.45109), (0.0961406, 1, 0.55109), (0.0961406, 0.9, 0.95109), (0.0961406, 1, 0.85109), (0.296141, 1, 0.55109), (0.296141, 1, 0.85109), (0.296141, 0.9, 0.45109), (0.296141, 0.9, 0.95109), (-0.296141, 0.9, 0.45109), (-0.296141, 1, 0.55109), (-0.296141, 0.9, 0.95109), (-0.296141, 1, 0.85109), (-0.0961406, 1, 0.55109), (-0.0961406, 1, 0.85109), (-0.0961406, 0.9, 0.45109), (-0.0961406, 0.9, 0.95109)]
        normal3f[] normals = [(0.518084, -0.852925, 0.0640928), (0.192022, -0.952574, 0.236073), (0.261964, -0.939502, 0.220704), (0.192022, -0.952574, 0.236073), (0.518084, -0.852925, 0.0640928), (0.39343, -0.905541, 0.158773), (0.532339, -0.697377, 0.479875), (2.16437e-13, -0.797751, 0.602987), (2.16437e-13, -0.797751, 0.602987), (2.16437e-13, -0.797751, 0.602987), (0.532339, -0.697377, 0.479875), (0.4407, -0.728734, 0.524147), (0.532339, -0.697377, 0.479875), (0.754441, -0.597847, 0.270921), (0.4407, -0.728734, 0.524147), (0.754441, -0.597847, 0.270921), (0.532339, -0.697377, 0.479875), (0.81696, -0.55345, 0.162079), (-0.532339, -0.697377, 0.479875), (2.16437e-13, -0.797751, 0.602987), (-0.4407, -0.728734, 0.524147), (2.16437e-13, -0.797751, 0.602987), (-0.532339, -0.697377, 0.479875), (2.16437e-13, -0.797751, 0.602987), (-0.754441, -0.597847, 0.270921), (-0.532339, -0.697377, 0.479875), (-0.4407, -0.728734, 0.524147), (-0.532339, -0.697377, 0.479875), (-0.754441, -0.597847, 0.270921), (-0.81696, -0.55345, 0.162079), (8.9566e-14, -0.968368, 0.249528), (0.192022, -0.952574, 0.236073), (8.9566e-14, -0.968368, 0.249528), (0.192022, -0.952574, 0.236073), (8.9566e-14, -0.968368, 0.249528), (0.261964, -0.939502, 0.220704), (-0.518084, -0.852925, 0.0640928), (-0.192022, -0.952574, 0.236073), (-0.39343, -0.905541, 0.158773), (-0.192022, -0.952574, 0.236073), (-0.518084, -0.852925, 0.0640928), (-0.261964, -0.939502, 0.220704), (-0.261964, -0.939502, 0.220704), (8.9566e-14, -0.968368, 0.249528), (-0.192022, -0.952574, 0.236073), (8.9566e-14, -0.968368, 0.249528), (-0.261964, -0.939502, 0.220704), (8.9566e-14, -0.968368, 0.249528), (0, -1, 0), (0, -1, 0), (0, -1, 0), (0, -1, 0), (0, -1, 0), (0, -1, 0), (0, -1, 0), (0, -1, 0), (0, -1, 0), (0, -1, 0), (0, -1, 0), (0, -1, 0), (0, -1, 0), (0, -1, 0), (0, -1, 0), (0.81696, -0.55345, 0.162079), (0.881559, -0.472075, -3.16428e-13), (0.754441, -0.597847, 0.270921), (0.881559, -0.472075, -3.16428e-13), (0.81696, -0.55345, 0.162079), (0.881559, -0.472075, -3.16428e-13), (-0.593353, -0.804942, 2.12979e-13), (-0.39343, -0.905541, 0.158773), (-0.593353, -0.804942, 2.12979e-13), (-0.39343, -0.905541, 0.158773), (-0.593353, -0.804942, 2.12979e-13), (-0.518084, -0.852925, 0.0640928), (0.593353, -0.804942, -2.12979e-13), (0.39343, -0.905541, 0.158773), (0.518084, -0.852925, 0.0640928), (0.39343, -0.905541, 0.158773), (0.593353, -0.804942, -2.12979e-13), (0.593353, -0.804942, -2.12979e-13), (-0.881559, -0.472075, 3.16428e-13), (-0.81696, -0.55345, 0.162079), (-0.754441, -0.597847, 0.270921), (-0.81696, -0.55345, 0.162079), (-0.881559, -0.472075, 3.16428e-13), (-0.881559, -0.472075, 3.16428e-13), (-3.48225e-13, -0.242536, -0.970143), (-3.48225e-13, -0.242536, -0.970143), (-3.48225e-13, -0.242536, -0.970143), (-3.48225e-13, -0.242536, -0.970143), (-3.48225e-13, -0.242536, -0.970143), (-3.48225e-13, -0.242536, -0.970143), (-3.21048e-13, -0.447214, -0.894427), (-3.21048e-13, -0.447214, -0.894427), (-3.21048e-13, -0.447214, -0.894427), (-3.21048e-13, -0.447214, -0.894427), (-3.21048e-13, -0.447214, -0.894427), (-3.21048e-13, -0.447214, -0.894427), (3.14345e-13, 0.482759, 0.875753), (-0.605134, 0.401033, 0.687739), (3.14345e-13, 0.482759, 0.875753), (-0.605134, 0.401033, 0.687739), (3.14345e-13, 0.482759, 0.875753), (-0.661771, 0.384589, 0.643545), (0.909183, 0.291506, 0.297339), (0.661771, 0.384589, 0.643545), (0.605134, 0.401033, 0.687739), (0.661771, 0.384589, 0.643545), (0.909183, 0.291506, 0.297339), (0.93326, 0.276567, 0.229209), (-0.661771, 0.384589, 0.643545), (-0.909183, 0.291506, 0.297339), (-0.605134, 0.401033, 0.687739), (-0.909183, 0.291506, 0.297339), (-0.661771, 0.384589, 0.643545), (-0.93326, 0.276567, 0.229209), (0.661771, 0.384589, 0.643545), (3.14345e-13, 0.482759, 0.875753), (0.605134, 0.401033, 0.687739), (3.14345e-13, 0.482759, 0.875753), (0.661771, 0.384589, 0.643545), (3.14345e-13, 0.482759, 0.875753), (0, 1, 0), (0, 1, 0), (0, 1, 0), (0, 1, 0), (0, 1, 0), (0, 1, 0), (0, 1, 0), (0, 1, 0), (0, 1, 0), (0, 1, 0), (0, 1, 0), (0, 1, 0), (0, 1, 0), (0, 1, 0), (0, 1, 0), (0.976, 0.21777, -3.50328e-13), (0.93326, 0.276567, 0.229209), (0.909183, 0.291506, 0.297339), (0.93326, 0.276567, 0.229209), (0.976, 0.21777, -3.50328e-13), (0.976, 0.21777, -3.50328e-13), (0.137975, 0.976471, 0.165731), (0.280822, 0.958028, 0.0576383), (0.177293, 0.972005, 0.15419), (0.280822, 0.958028, 0.0576383), (0.137975, 0.976471, 0.165731), (0.259505, 0.961672, 0.0885686), (0.137975, 0.976471, 0.165731), (6.38771e-14, 0.984038, 0.177959), (6.38771e-14, 0.984038, 0.177959), (6.38771e-14, 0.984038, 0.177959), (0.137975, 0.976471, 0.165731), (0.177293, 0.972005, 0.15419), (-0.137975, 0.976471, 0.165731), (-0.280822, 0.958028, 0.0576383), (-0.259505, 0.961672, 0.0885686), (-0.280822, 0.958028, 0.0576383), (-0.137975, 0.976471, 0.165731), (-0.177293, 0.972005, 0.15419), (6.38771e-14, 0.984038, 0.177959), (-0.177293, 0.972005, 0.15419), (-0.137975, 0.976471, 0.165731), (-0.177293, 0.972005, 0.15419), (6.38771e-14, 0.984038, 0.177959), (6.38771e-14, 0.984038, 0.177959), (0, 1, 0), (0, 1, 0), (0, 1, 0), (0, 1, 0), (0, 1, 0), (0, 1, 0), (-0.93326, 0.276567, 0.229209), (-0.976, 0.21777, 3.50328e-13), (-0.909183, 0.291506, 0.297339), (-0.976, 0.21777, 3.50328e-13), (-0.93326, 0.276567, 0.229209), (-0.976, 0.21777, 3.50328e-13), (0.259505, 0.961672, 0.0885686), (0.319334, 0.947642, -1.14622e-13), (0.280822, 0.958028, 0.0576383), (0.319334, 0.947642, -1.14622e-13), (0.259505, 0.961672, 0.0885686), (0.319334, 0.947642, -1.14622e-13), (0.319334, 0.947642, -1.14622e-13), (0.319334, 0.947642, -1.14622e-13), (0.259505, 0.961672, 0.0885686), (0.319334, 0.947642, -1.14622e-13), (0.319334, 0.947642, -1.14622e-13), (0.319334, 0.947642, -1.14622e-13), (0.319334, 0.947642, -1.14622e-13), (0.319334, 0.947642, -1.14622e-13), (0.319334, 0.947642, -1.14622e-13), (0.319334, 0.947642, -1.14622e-13), (0.319334, 0.947642, -1.14622e-13), (0.319334, 0.947642, -1.14622e-13), (-0.319334, 0.947642, 1.14622e-13), (-0.280822, 0.958028, 0.0576383), (-0.319334, 0.947642, 1.14622e-13), (-0.280822, 0.958028, 0.0576383), (-0.319334, 0.947642, 1.14622e-13), (-0.259505, 0.961672, 0.0885686), (-0.319334, 0.947642, 1.14622e-13), (-0.259505, 0.961672, 0.0885686), (-0.319334, 0.947642, 1.14622e-13), (-0.259505, 0.961672, 0.0885686), (-0.319334, 0.947642, 1.14622e-13), (-0.319334, 0.947642, 1.14622e-13), (-0.319334, 0.947642, 1.14622e-13), (-0.319334, 0.947642, 1.14622e-13), (-0.319334, 0.947642, 1.14622e-13), (-0.319334, 0.947642, 1.14622e-13), (-0.319334, 0.947642, 1.14622e-13), (-0.319334, 0.947642, 1.14622e-13), (1, 0, -3.58942e-13), (1, 0, -3.58942e-13), (1, 0, -3.58942e-13), (1, 0, -3.58942e-13), (1, 0, -3.58942e-13), (1, 0, -3.58942e-13), (-1, 0, 3.58942e-13), (-1, 0, 3.58942e-13), (-1, 0, 3.58942e-13), (-1, 0, 3.58942e-13), (-1, 0, 3.58942e-13), (-1, 0, 3.58942e-13), (1.41196e-13, 0.919381, 0.393367), (7.20654e-14, 0.979638, 0.200772), (7.20654e-14, 0.979638, 0.200772), (7.20654e-14, 0.979638, 0.200772), (1.41196e-13, 0.919381, 0.393367), (1.41196e-13, 0.919381, 0.393367), (-3.58942e-13, 0, -1), (-3.58942e-13, 0, -1), (-3.58942e-13, 0, -1), (-3.58942e-13, 0, -1), (-3.58942e-13, 0, -1), (-3.58942e-13, 0, -1), (7.20654e-14, 0.979638, 0.200772), (0, 1, 0), (0, 1, 0), (0, 1, 0), (7.20654e-14, 0.979638, 0.200772), (7.20654e-14, 0.979638, 0.200772), (1, 0, -3.58942e-13), (1, 0, -3.58942e-13), (1, 0, -3.58942e-13), (1, 0, -3.58942e-13), (1, 0, -3.58942e-13), (1, 0, -3.58942e-13), (0, 1, 0), (1.88707e-13, 0.850651, 0.525731), (1.88707e-13, 0.850651, 0.525731), (1.88707e-13, 0.850651, 0.525731), (0, 1, 0), (0, 1, 0), (-3.58942e-13, 0, -1), (-3.58942e-13, 0, -1), (-3.58942e-13, 0, -1), (-3.58942e-13, 0, -1), (-3.58942e-13, 0, -1), (-3.58942e-13, 0, -1), (1.88707e-13, 0.850651, 0.525731), (0, 1, 0), (1.88707e-13, 0.850651, 0.525731), (0, 1, 0), (1.88707e-13, 0.850651, 0.525731), (0, 1, 0), (3.21048e-13, 0.447214, 0.894427), (1.88707e-13, 0.850651, 0.525731), (1.88707e-13, 0.850651, 0.525731), (1.88707e-13, 0.850651, 0.525731), (3.21048e-13, 0.447214, 0.894427), (3.21048e-13, 0.447214, 0.894427), (3.21048e-13, 0.447214, 0.894427), (3.21048e-13, 0.447214, 0.894427), (1.88707e-13, 0.850651, 0.525731), (3.21048e-13, 0.447214, 0.894427), (1.88707e-13, 0.850651, 0.525731), (1.88707e-13, 0.850651, 0.525731), (-1, 0, 3.58942e-13), (-1, 0, 3.58942e-13), (-1, 0, 3.58942e-13), (-1, 0, 3.58942e-13), (-1, 0, 3.58942e-13), (-1, 0, 3.58942e-13), (3.58942e-13, 0, 1), (3.58942e-13, 0, 1), (3.58942e-13, 0, 1), (3.58942e-13, 0, 1), (3.58942e-13, 0, 1), (3.58942e-13, 0, 1), (-3.58942e-13, 0, -1), (-3.58942e-13, 0, -1), (-3.58942e-13, 0, -1), (-3.58942e-13, 0, -1), (-3.58942e-13, 0, -1), (-3.58942e-13, 0, -1), (1, 0, -3.58942e-13), (1, 0, -3.58942e-13), (1, 0, -3.58942e-13), (1, 0, -3.58942e-13), (1, 0, -3.58942e-13), (1, 0, -3.58942e-13), (1, 0, -3.58942e-13), (1, 0, -3.58942e-13), (1, 0, -3.58942e-13), (1, 0, -3.58942e-13), (1, 0, -3.58942e-13), (1, 0, -3.58942e-13), (1, 0, -3.58942e-13), (1, 0, -3.58942e-13), (1, 0, -3.58942e-13), (1, 0, -3.58942e-13), (1, 0, -3.58942e-13), (1, 0, -3.58942e-13), (-1, 0, 3.58942e-13), (-1, 0, 3.58942e-13), (-1, 0, 3.58942e-13), (-1, 0, 3.58942e-13), (-1, 0, 3.58942e-13), (-1, 0, 3.58942e-13), (-1, 0, 3.58942e-13), (-1, 0, 3.58942e-13), (-1, 0, 3.58942e-13), (-1, 0, 3.58942e-13), (-1, 0, 3.58942e-13), (-1, 0, 3.58942e-13), (-1, 0, 3.58942e-13), (-1, 0, 3.58942e-13), (-1, 0, 3.58942e-13), (-1, 0, 3.58942e-13), (-1, 0, 3.58942e-13), (-1, 0, 3.58942e-13), (-3.58942e-13, 0, -1), (-3.58942e-13, 0, -1), (-3.58942e-13, 0, -1), (-3.58942e-13, 0, -1), (-3.58942e-13, 0, -1), (-3.58942e-13, 0, -1), (0, 1, 0), (0, 1, 0), (0, 1, 0), (0, 1, 0), (0, 1, 0), (0, 1, 0), (-3.58942e-13, 0, -1), (-3.58942e-13, 0, -1), (-3.58942e-13, 0, -1), (-3.58942e-13, 0, -1), (-3.58942e-13, 0, -1), (-3.58942e-13, 0, -1), (-3.58942e-13, 0, -1), (-3.58942e-13, 0, -1), (-3.58942e-13, 0, -1), (-3.58942e-13, 0, -1), (-3.58942e-13, 0, -1), (-3.58942e-13, 0, -1), (0.987088, 0.138722, -0.0800911), (1, 6.77626e-21, -5.42101e-20), (0.987088, 0.138722, -0.0800911), (1, 6.77626e-21, -5.42101e-20), (0.987088, 0.138722, -0.0800911), (1, 6.77626e-21, -5.42101e-20), (5.42101e-20, 0.5, 0.866026), (5.42101e-20, 0.5, 0.866026), (5.42101e-20, 0.5, 0.866026), (5.42101e-20, 0.5, 0.866026), (5.42101e-20, 0.5, 0.866026), (5.42101e-20, 0.5, 0.866026), (5.42101e-20, 0.5, 0.866026), (5.42101e-20, 0.5, 0.866026), (5.42101e-20, 0.5, 0.866026), (5.42101e-20, 0.5, 0.866026), (5.42101e-20, 0.5, 0.866026), (5.42101e-20, 0.5, 0.866026), (5.42101e-20, 0.5, 0.866026), (5.42101e-20, 0.5, 0.866026), (5.42101e-20, 0.5, 0.866026), (5.42101e-20, 0.5, 0.866026), (5.42101e-20, 0.5, 0.866026), (5.42101e-20, 0.5, 0.866026), (5.42101e-20, 0.5, 0.866026), (5.42101e-20, 0.5, 0.866026), (5.42101e-20, 0.5, 0.866026), (5.42101e-20, 0.5, 0.866026), (5.42101e-20, 0.5, 0.866026), (5.42101e-20, 0.5, 0.866026), (5.42101e-20, 0.5, 0.866026), (5.42101e-20, 0.5, 0.866026), (5.42101e-20, 0.5, 0.866026), (5.42101e-20, 0.5, 0.866026), (5.42101e-20, 0.5, 0.866026), (5.42101e-20, 0.5, 0.866026), (-1, -6.77626e-21, 5.42101e-20), (-1, -6.77626e-21, 5.42101e-20), (-1, -6.77626e-21, 5.42101e-20), (-1, -6.77626e-21, 5.42101e-20), (-1, -6.77626e-21, 5.42101e-20), (-1, -6.77626e-21, 5.42101e-20), (0, -0.866025, 0.5), (0, -0.866025, 0.5), (0, -0.866025, 0.5), (0, -0.866025, 0.5), (0, -0.866025, 0.5), (0, -0.866025, 0.5), (-0.160182, 0.854843, -0.493544), (0.160182, 0.854843, -0.493544), (0.160182, 0.854843, -0.493544), (0.160182, 0.854843, -0.493544), (-0.160182, 0.854843, -0.493544), (-0.160182, 0.854843, -0.493544), (1, 6.77626e-21, -5.42101e-20), (1, 6.77626e-21, -5.42101e-20), (1, 6.77626e-21, -5.42101e-20), (1, 6.77626e-21, -5.42101e-20), (1, 6.77626e-21, -5.42101e-20), (1, 6.77626e-21, -5.42101e-20), (-1, -6.77626e-21, 5.42101e-20), (-0.987088, 0.138722, -0.0800911), (-1, -6.77626e-21, 5.42101e-20), (-0.987088, 0.138722, -0.0800911), (-1, -6.77626e-21, 5.42101e-20), (-0.987088, 0.138722, -0.0800911), (-5.42101e-20, -0.5, -0.866026), (-5.42101e-20, -0.5, -0.866026), (-5.42101e-20, -0.5, -0.866026), (-5.42101e-20, -0.5, -0.866026), (-5.42101e-20, -0.5, -0.866026), (-5.42101e-20, -0.5, -0.866026), (-5.42101e-20, -0.5, -0.866026), (-5.42101e-20, -0.5, -0.866026), (-5.42101e-20, -0.5, -0.866026), (-5.42101e-20, -0.5, -0.866026), (-5.42101e-20, -0.5, -0.866026), (-5.42101e-20, -0.5, -0.866026), (-5.42101e-20, -0.5, -0.866026), (-5.42101e-20, -0.5, -0.866026), (-5.42101e-20, -0.5, -0.866026), (-5.42101e-20, -0.5, -0.866026), (-5.42101e-20, -0.5, -0.866026), (-5.42101e-20, -0.5, -0.866026), (-5.42101e-20, -0.5, -0.866026), (-5.42101e-20, -0.5, -0.866026), (-5.42101e-20, -0.5, -0.866026), (-5.42101e-20, -0.5, -0.866026), (-5.42101e-20, -0.5, -0.866026), (-5.42101e-20, -0.5, -0.866026), (-5.42101e-20, -0.5, -0.866026), (-5.42101e-20, -0.5, -0.866026), (-5.42101e-20, -0.5, -0.866026), (-5.42101e-20, -0.5, -0.866026), (-5.42101e-20, -0.5, -0.866026), (-5.42101e-20, -0.5, -0.866026), (0.707107, 0.612372, -0.353553), (0.987088, 0.138722, -0.0800911), (0.707107, 0.612372, -0.353553), (0.987088, 0.138722, -0.0800911), (0.707107, 0.612372, -0.353553), (0.987088, 0.138722, -0.0800911), (0.160182, 0.854843, -0.493544), (0.707107, 0.612372, -0.353553), (0.707107, 0.612372, -0.353553), (0.707107, 0.612372, -0.353553), (0.160182, 0.854843, -0.493544), (0.160182, 0.854843, -0.493544), (-0.707107, 0.612372, -0.353553), (-0.160182, 0.854843, -0.493544), (-0.160182, 0.854843, -0.493544), (-0.160182, 0.854843, -0.493544), (-0.707107, 0.612372, -0.353553), (-0.707107, 0.612372, -0.353553), (-0.987088, 0.138722, -0.0800911), (-0.707107, 0.612372, -0.353553), (-0.987088, 0.138722, -0.0800911), (-0.707107, 0.612372, -0.353553), (-0.987088, 0.138722, -0.0800911), (-0.707107, 0.612372, -0.353553), (-1, 0, 0), (-1, 0, 0), (-1, 0, 0), (-1, 0, 0), (-1, 0, 0), (-1, 0, 0), (0, 0.923879, -0.382683), (0, 0.923879, 0.382683), (0, 0.923879, -0.382683), (0, 0.923879, 0.382683), (0, 0.923879, -0.382683), (0, 0.923879, 0.382683), (1, 0, 0), (1, 0, 0), (1, 0, 0), (1, 0, 0), (1, 0, 0), (1, 0, 0), (0, 0.923879, 0.382683), (0, 0.707107, 0.707107), (0, 0.923879, 0.382683), (0, 0.707107, 0.707107), (0, 0.923879, 0.382683), (0, 0.707107, 0.707107), (0, 0.707107, -0.707107), (0, 0.923879, -0.382683), (0, 0.707107, -0.707107), (0, 0.923879, -0.382683), (0, 0.707107, -0.707107), (0, 0.923879, -0.382683), (-1, 0, 0), (-1, 0, 0), (-1, 0, 0), (-1, 0, 0), (-1, 0, 0), (-1, 0, 0), (0, 0.923879, -0.382683), (0, 0.923879, 0.382683), (0, 0.923879, -0.382683), (0, 0.923879, 0.382683), (0, 0.923879, -0.382683), (0, 0.923879, 0.382683), (1, 0, 0), (1, 0, 0), (1, 0, 0), (1, 0, 0), (1, 0, 0), (1, 0, 0), (0, 0.923879, 0.382683), (0, 0.707107, 0.707107), (0, 0.923879, 0.382683), (0, 0.707107, 0.707107), (0, 0.923879, 0.382683), (0, 0.707107, 0.707107), (0, 0.707107, -0.707107), (0, 0.923879, -0.382683), (0, 0.707107, -0.707107), (0, 0.923879, -0.382683), (0, 0.707107, -0.707107), (0, 0.923879, -0.382683), (0.518084, -0.852925, 0.0640928), (0.192022, -0.952574, 0.236073), (0.261964, -0.939502, 0.220704), (0.192022, -0.952574, 0.236073), (0.518084, -0.852925, 0.0640928), (0.39343, -0.905541, 0.158773), (0.532339, -0.697377, 0.479875), (2.16437e-13, -0.797751, 0.602987), (2.16437e-13, -0.797751, 0.602987), (2.16437e-13, -0.797751, 0.602987), (0.532339, -0.697377, 0.479875), (0.4407, -0.728734, 0.524147), (0.532339, -0.697377, 0.479875), (0.754441, -0.597847, 0.270921), (0.4407, -0.728734, 0.524147), (0.754441, -0.597847, 0.270921), (0.532339, -0.697377, 0.479875), (0.81696, -0.55345, 0.162079), (-0.532339, -0.697377, 0.479875), (2.16437e-13, -0.797751, 0.602987), (-0.4407, -0.728734, 0.524147), (2.16437e-13, -0.797751, 0.602987), (-0.532339, -0.697377, 0.479875), (2.16437e-13, -0.797751, 0.602987), (-0.754441, -0.597847, 0.270921), (-0.532339, -0.697377, 0.479875), (-0.4407, -0.728734, 0.524147), (-0.532339, -0.697377, 0.479875), (-0.754441, -0.597847, 0.270921), (-0.81696, -0.55345, 0.162079), (8.9566e-14, -0.968368, 0.249528), (0.192022, -0.952574, 0.236073), (8.9566e-14, -0.968368, 0.249528), (0.192022, -0.952574, 0.236073), (8.9566e-14, -0.968368, 0.249528), (0.261964, -0.939502, 0.220704), (-0.518084, -0.852925, 0.0640928), (-0.192022, -0.952574, 0.236073), (-0.39343, -0.905541, 0.158773), (-0.192022, -0.952574, 0.236073), (-0.518084, -0.852925, 0.0640928), (-0.261964, -0.939502, 0.220704), (-0.261964, -0.939502, 0.220704), (8.9566e-14, -0.968368, 0.249528), (-0.192022, -0.952574, 0.236073), (8.9566e-14, -0.968368, 0.249528), (-0.261964, -0.939502, 0.220704), (8.9566e-14, -0.968368, 0.249528), (0, -1, 0), (0, -1, 0), (0, -1, 0), (0, -1, 0), (0, -1, 0), (0, -1, 0), (0, -1, 0), (0, -1, 0), (0, -1, 0), (0, -1, 0), (0, -1, 0), (0, -1, 0), (0, -1, 0), (0, -1, 0), (0, -1, 0), (0.81696, -0.55345, 0.162079), (0.881559, -0.472075, -3.16428e-13), (0.754441, -0.597847, 0.270921), (0.881559, -0.472075, -3.16428e-13), (0.81696, -0.55345, 0.162079), (0.881559, -0.472075, -3.16428e-13), (-0.593353, -0.804942, 2.12979e-13), (-0.39343, -0.905541, 0.158773), (-0.593353, -0.804942, 2.12979e-13), (-0.39343, -0.905541, 0.158773), (-0.593353, -0.804942, 2.12979e-13), (-0.518084, -0.852925, 0.0640928), (0.593353, -0.804942, -2.12979e-13), (0.39343, -0.905541, 0.158773), (0.518084, -0.852925, 0.0640928), (0.39343, -0.905541, 0.158773), (0.593353, -0.804942, -2.12979e-13), (0.593353, -0.804942, -2.12979e-13), (-0.881559, -0.472075, 3.16428e-13), (-0.81696, -0.55345, 0.162079), (-0.754441, -0.597847, 0.270921), (-0.81696, -0.55345, 0.162079), (-0.881559, -0.472075, 3.16428e-13), (-0.881559, -0.472075, 3.16428e-13), (-3.48225e-13, -0.242536, -0.970143), (-3.48225e-13, -0.242536, -0.970143), (-3.48225e-13, -0.242536, -0.970143), (-3.48225e-13, -0.242536, -0.970143), (-3.48225e-13, -0.242536, -0.970143), (-3.48225e-13, -0.242536, -0.970143), (-3.21048e-13, -0.447214, -0.894427), (-3.21048e-13, -0.447214, -0.894427), (-3.21048e-13, -0.447214, -0.894427), (-3.21048e-13, -0.447214, -0.894427), (-3.21048e-13, -0.447214, -0.894427), (-3.21048e-13, -0.447214, -0.894427), (3.14345e-13, 0.482759, 0.875753), (-0.605134, 0.401033, 0.687739), (3.14345e-13, 0.482759, 0.875753), (-0.605134, 0.401033, 0.687739), (3.14345e-13, 0.482759, 0.875753), (-0.661771, 0.384589, 0.643545), (0.909183, 0.291506, 0.297339), (0.661771, 0.384589, 0.643545), (0.605134, 0.401033, 0.687739), (0.661771, 0.384589, 0.643545), (0.909183, 0.291506, 0.297339), (0.93326, 0.276567, 0.229209), (-0.661771, 0.384589, 0.643545), (-0.909183, 0.291506, 0.297339), (-0.605134, 0.401033, 0.687739), (-0.909183, 0.291506, 0.297339), (-0.661771, 0.384589, 0.643545), (-0.93326, 0.276567, 0.229209), (0.661771, 0.384589, 0.643545), (3.14345e-13, 0.482759, 0.875753), (0.605134, 0.401033, 0.687739), (3.14345e-13, 0.482759, 0.875753), (0.661771, 0.384589, 0.643545), (3.14345e-13, 0.482759, 0.875753), (0, 1, 0), (0, 1, 0), (0, 1, 0), (0, 1, 0), (0, 1, 0), (0, 1, 0), (0, 1, 0), (0, 1, 0), (0, 1, 0), (0, 1, 0), (0, 1, 0), (0, 1, 0), (0, 1, 0), (0, 1, 0), (0, 1, 0), (0.976, 0.21777, -3.50328e-13), (0.93326, 0.276567, 0.229209), (0.909183, 0.291506, 0.297339), (0.93326, 0.276567, 0.229209), (0.976, 0.21777, -3.50328e-13), (0.976, 0.21777, -3.50328e-13), (0.137975, 0.976471, 0.165731), (0.280822, 0.958028, 0.0576383), (0.177293, 0.972005, 0.15419), (0.280822, 0.958028, 0.0576383), (0.137975, 0.976471, 0.165731), (0.259505, 0.961672, 0.0885686), (0.137975, 0.976471, 0.165731), (6.38771e-14, 0.984038, 0.177959), (6.38771e-14, 0.984038, 0.177959), (6.38771e-14, 0.984038, 0.177959), (0.137975, 0.976471, 0.165731), (0.177293, 0.972005, 0.15419), (-0.137975, 0.976471, 0.165731), (-0.280822, 0.958028, 0.0576383), (-0.259505, 0.961672, 0.0885686), (-0.280822, 0.958028, 0.0576383), (-0.137975, 0.976471, 0.165731), (-0.177293, 0.972005, 0.15419), (6.38771e-14, 0.984038, 0.177959), (-0.177293, 0.972005, 0.15419), (-0.137975, 0.976471, 0.165731), (-0.177293, 0.972005, 0.15419), (6.38771e-14, 0.984038, 0.177959), (6.38771e-14, 0.984038, 0.177959), (0, 1, 0), (0, 1, 0), (0, 1, 0), (0, 1, 0), (0, 1, 0), (0, 1, 0), (-0.93326, 0.276567, 0.229209), (-0.976, 0.21777, 3.50328e-13), (-0.909183, 0.291506, 0.297339), (-0.976, 0.21777, 3.50328e-13), (-0.93326, 0.276567, 0.229209), (-0.976, 0.21777, 3.50328e-13), (0.259505, 0.961672, 0.0885686), (0.319334, 0.947642, -1.14622e-13), (0.280822, 0.958028, 0.0576383), (0.319334, 0.947642, -1.14622e-13), (0.259505, 0.961672, 0.0885686), (0.319334, 0.947642, -1.14622e-13), (0.319334, 0.947642, -1.14622e-13), (0.319334, 0.947642, -1.14622e-13), (0.259505, 0.961672, 0.0885686), (0.319334, 0.947642, -1.14622e-13), (0.319334, 0.947642, -1.14622e-13), (0.319334, 0.947642, -1.14622e-13), (0.319334, 0.947642, -1.14622e-13), (0.319334, 0.947642, -1.14622e-13), (0.319334, 0.947642, -1.14622e-13), (0.319334, 0.947642, -1.14622e-13), (0.319334, 0.947642, -1.14622e-13), (0.319334, 0.947642, -1.14622e-13), (-0.319334, 0.947642, 1.14622e-13), (-0.280822, 0.958028, 0.0576383), (-0.319334, 0.947642, 1.14622e-13), (-0.280822, 0.958028, 0.0576383), (-0.319334, 0.947642, 1.14622e-13), (-0.259505, 0.961672, 0.0885686), (-0.319334, 0.947642, 1.14622e-13), (-0.259505, 0.961672, 0.0885686), (-0.319334, 0.947642, 1.14622e-13), (-0.259505, 0.961672, 0.0885686), (-0.319334, 0.947642, 1.14622e-13), (-0.319334, 0.947642, 1.14622e-13), (-0.319334, 0.947642, 1.14622e-13), (-0.319334, 0.947642, 1.14622e-13), (-0.319334, 0.947642, 1.14622e-13), (-0.319334, 0.947642, 1.14622e-13), (-0.319334, 0.947642, 1.14622e-13), (-0.319334, 0.947642, 1.14622e-13), (1, 0, -3.58942e-13), (1, 0, -3.58942e-13), (1, 0, -3.58942e-13), (1, 0, -3.58942e-13), (1, 0, -3.58942e-13), (1, 0, -3.58942e-13), (-1, 0, 3.58942e-13), (-1, 0, 3.58942e-13), (-1, 0, 3.58942e-13), (-1, 0, 3.58942e-13), (-1, 0, 3.58942e-13), (-1, 0, 3.58942e-13), (1.41196e-13, 0.919381, 0.393367), (7.20654e-14, 0.979638, 0.200772), (7.20654e-14, 0.979638, 0.200772), (7.20654e-14, 0.979638, 0.200772), (1.41196e-13, 0.919381, 0.393367), (1.41196e-13, 0.919381, 0.393367), (-3.58942e-13, 0, -1), (-3.58942e-13, 0, -1), (-3.58942e-13, 0, -1), (-3.58942e-13, 0, -1), (-3.58942e-13, 0, -1), (-3.58942e-13, 0, -1), (7.20654e-14, 0.979638, 0.200772), (0, 1, 0), (0, 1, 0), (0, 1, 0), (7.20654e-14, 0.979638, 0.200772), (7.20654e-14, 0.979638, 0.200772), (1, 0, -3.58942e-13), (1, 0, -3.58942e-13), (1, 0, -3.58942e-13), (1, 0, -3.58942e-13), (1, 0, -3.58942e-13), (1, 0, -3.58942e-13), (0, 1, 0), (1.88707e-13, 0.850651, 0.525731), (1.88707e-13, 0.850651, 0.525731), (1.88707e-13, 0.850651, 0.525731), (0, 1, 0), (0, 1, 0), (-3.58942e-13, 0, -1), (-3.58942e-13, 0, -1), (-3.58942e-13, 0, -1), (-3.58942e-13, 0, -1), (-3.58942e-13, 0, -1), (-3.58942e-13, 0, -1), (1.88707e-13, 0.850651, 0.525731), (0, 1, 0), (1.88707e-13, 0.850651, 0.525731), (0, 1, 0), (1.88707e-13, 0.850651, 0.525731), (0, 1, 0), (3.21048e-13, 0.447214, 0.894427), (1.88707e-13, 0.850651, 0.525731), (1.88707e-13, 0.850651, 0.525731), (1.88707e-13, 0.850651, 0.525731), (3.21048e-13, 0.447214, 0.894427), (3.21048e-13, 0.447214, 0.894427), (3.21048e-13, 0.447214, 0.894427), (3.21048e-13, 0.447214, 0.894427), (1.88707e-13, 0.850651, 0.525731), (3.21048e-13, 0.447214, 0.894427), (1.88707e-13, 0.850651, 0.525731), (1.88707e-13, 0.850651, 0.525731), (-1, 0, 3.58942e-13), (-1, 0, 3.58942e-13), (-1, 0, 3.58942e-13), (-1, 0, 3.58942e-13), (-1, 0, 3.58942e-13), (-1, 0, 3.58942e-13), (3.58942e-13, 0, 1), (3.58942e-13, 0, 1), (3.58942e-13, 0, 1), (3.58942e-13, 0, 1), (3.58942e-13, 0, 1), (3.58942e-13, 0, 1), (-3.58942e-13, 0, -1), (-3.58942e-13, 0, -1), (-3.58942e-13, 0, -1), (-3.58942e-13, 0, -1), (-3.58942e-13, 0, -1), (-3.58942e-13, 0, -1), (1, 0, -3.58942e-13), (1, 0, -3.58942e-13), (1, 0, -3.58942e-13), (1, 0, -3.58942e-13), (1, 0, -3.58942e-13), (1, 0, -3.58942e-13), (1, 0, -3.58942e-13), (1, 0, -3.58942e-13), (1, 0, -3.58942e-13), (1, 0, -3.58942e-13), (1, 0, -3.58942e-13), (1, 0, -3.58942e-13), (1, 0, -3.58942e-13), (1, 0, -3.58942e-13), (1, 0, -3.58942e-13), (1, 0, -3.58942e-13), (1, 0, -3.58942e-13), (1, 0, -3.58942e-13), (-1, 0, 3.58942e-13), (-1, 0, 3.58942e-13), (-1, 0, 3.58942e-13), (-1, 0, 3.58942e-13), (-1, 0, 3.58942e-13), (-1, 0, 3.58942e-13), (-1, 0, 3.58942e-13), (-1, 0, 3.58942e-13), (-1, 0, 3.58942e-13), (-1, 0, 3.58942e-13), (-1, 0, 3.58942e-13), (-1, 0, 3.58942e-13), (-1, 0, 3.58942e-13), (-1, 0, 3.58942e-13), (-1, 0, 3.58942e-13), (-1, 0, 3.58942e-13), (-1, 0, 3.58942e-13), (-1, 0, 3.58942e-13), (-3.58942e-13, 0, -1), (-3.58942e-13, 0, -1), (-3.58942e-13, 0, -1), (-3.58942e-13, 0, -1), (-3.58942e-13, 0, -1), (-3.58942e-13, 0, -1), (0, 1, 0), (0, 1, 0), (0, 1, 0), (0, 1, 0), (0, 1, 0), (0, 1, 0), (-3.58942e-13, 0, -1), (-3.58942e-13, 0, -1), (-3.58942e-13, 0, -1), (-3.58942e-13, 0, -1), (-3.58942e-13, 0, -1), (-3.58942e-13, 0, -1), (-3.58942e-13, 0, -1), (-3.58942e-13, 0, -1), (-3.58942e-13, 0, -1), (-3.58942e-13, 0, -1), (-3.58942e-13, 0, -1), (-3.58942e-13, 0, -1), (0.987088, 0.138722, -0.0800911), (1, 6.77626e-21, -5.42101e-20), (0.987088, 0.138722, -0.0800911), (1, 6.77626e-21, -5.42101e-20), (0.987088, 0.138722, -0.0800911), (1, 6.77626e-21, -5.42101e-20), (5.42101e-20, 0.5, 0.866026), (5.42101e-20, 0.5, 0.866026), (5.42101e-20, 0.5, 0.866026), (5.42101e-20, 0.5, 0.866026), (5.42101e-20, 0.5, 0.866026), (5.42101e-20, 0.5, 0.866026), (5.42101e-20, 0.5, 0.866026), (5.42101e-20, 0.5, 0.866026), (5.42101e-20, 0.5, 0.866026), (5.42101e-20, 0.5, 0.866026), (5.42101e-20, 0.5, 0.866026), (5.42101e-20, 0.5, 0.866026), (5.42101e-20, 0.5, 0.866026), (5.42101e-20, 0.5, 0.866026), (5.42101e-20, 0.5, 0.866026), (5.42101e-20, 0.5, 0.866026), (5.42101e-20, 0.5, 0.866026), (5.42101e-20, 0.5, 0.866026), (5.42101e-20, 0.5, 0.866026), (5.42101e-20, 0.5, 0.866026), (5.42101e-20, 0.5, 0.866026), (5.42101e-20, 0.5, 0.866026), (5.42101e-20, 0.5, 0.866026), (5.42101e-20, 0.5, 0.866026), (5.42101e-20, 0.5, 0.866026), (5.42101e-20, 0.5, 0.866026), (5.42101e-20, 0.5, 0.866026), (5.42101e-20, 0.5, 0.866026), (5.42101e-20, 0.5, 0.866026), (5.42101e-20, 0.5, 0.866026), (-1, -6.77626e-21, 5.42101e-20), (-1, -6.77626e-21, 5.42101e-20), (-1, -6.77626e-21, 5.42101e-20), (-1, -6.77626e-21, 5.42101e-20), (-1, -6.77626e-21, 5.42101e-20), (-1, -6.77626e-21, 5.42101e-20), (0, -0.866025, 0.5), (0, -0.866025, 0.5), (0, -0.866025, 0.5), (0, -0.866025, 0.5), (0, -0.866025, 0.5), (0, -0.866025, 0.5), (-0.160182, 0.854843, -0.493544), (0.160182, 0.854843, -0.493544), (0.160182, 0.854843, -0.493544), (0.160182, 0.854843, -0.493544), (-0.160182, 0.854843, -0.493544), (-0.160182, 0.854843, -0.493544), (1, 6.77626e-21, -5.42101e-20), (1, 6.77626e-21, -5.42101e-20), (1, 6.77626e-21, -5.42101e-20), (1, 6.77626e-21, -5.42101e-20), (1, 6.77626e-21, -5.42101e-20), (1, 6.77626e-21, -5.42101e-20), (-1, -6.77626e-21, 5.42101e-20), (-0.987088, 0.138722, -0.0800911), (-1, -6.77626e-21, 5.42101e-20), (-0.987088, 0.138722, -0.0800911), (-1, -6.77626e-21, 5.42101e-20), (-0.987088, 0.138722, -0.0800911), (-5.42101e-20, -0.5, -0.866026), (-5.42101e-20, -0.5, -0.866026), (-5.42101e-20, -0.5, -0.866026), (-5.42101e-20, -0.5, -0.866026), (-5.42101e-20, -0.5, -0.866026), (-5.42101e-20, -0.5, -0.866026), (-5.42101e-20, -0.5, -0.866026), (-5.42101e-20, -0.5, -0.866026), (-5.42101e-20, -0.5, -0.866026), (-5.42101e-20, -0.5, -0.866026), (-5.42101e-20, -0.5, -0.866026), (-5.42101e-20, -0.5, -0.866026), (-5.42101e-20, -0.5, -0.866026), (-5.42101e-20, -0.5, -0.866026), (-5.42101e-20, -0.5, -0.866026), (-5.42101e-20, -0.5, -0.866026), (-5.42101e-20, -0.5, -0.866026), (-5.42101e-20, -0.5, -0.866026), (-5.42101e-20, -0.5, -0.866026), (-5.42101e-20, -0.5, -0.866026), (-5.42101e-20, -0.5, -0.866026), (-5.42101e-20, -0.5, -0.866026), (-5.42101e-20, -0.5, -0.866026), (-5.42101e-20, -0.5, -0.866026), (-5.42101e-20, -0.5, -0.866026), (-5.42101e-20, -0.5, -0.866026), (-5.42101e-20, -0.5, -0.866026), (-5.42101e-20, -0.5, -0.866026), (-5.42101e-20, -0.5, -0.866026), (-5.42101e-20, -0.5, -0.866026), (0.707107, 0.612372, -0.353553), (0.987088, 0.138722, -0.0800911), (0.707107, 0.612372, -0.353553), (0.987088, 0.138722, -0.0800911), (0.707107, 0.612372, -0.353553), (0.987088, 0.138722, -0.0800911), (0.160182, 0.854843, -0.493544), (0.707107, 0.612372, -0.353553), (0.707107, 0.612372, -0.353553), (0.707107, 0.612372, -0.353553), (0.160182, 0.854843, -0.493544), (0.160182, 0.854843, -0.493544), (-0.707107, 0.612372, -0.353553), (-0.160182, 0.854843, -0.493544), (-0.160182, 0.854843, -0.493544), (-0.160182, 0.854843, -0.493544), (-0.707107, 0.612372, -0.353553), (-0.707107, 0.612372, -0.353553), (-0.987088, 0.138722, -0.0800911), (-0.707107, 0.612372, -0.353553), (-0.987088, 0.138722, -0.0800911), (-0.707107, 0.612372, -0.353553), (-0.987088, 0.138722, -0.0800911), (-0.707107, 0.612372, -0.353553), (-1, 0, 0), (-1, 0, 0), (-1, 0, 0), (-1, 0, 0), (-1, 0, 0), (-1, 0, 0), (0, 0.923879, -0.382683), (0, 0.923879, 0.382683), (0, 0.923879, -0.382683), (0, 0.923879, 0.382683), (0, 0.923879, -0.382683), (0, 0.923879, 0.382683), (1, 0, 0), (1, 0, 0), (1, 0, 0), (1, 0, 0), (1, 0, 0), (1, 0, 0), (0, 0.923879, 0.382683), (0, 0.707107, 0.707107), (0, 0.923879, 0.382683), (0, 0.707107, 0.707107), (0, 0.923879, 0.382683), (0, 0.707107, 0.707107), (0, 0.707107, -0.707107), (0, 0.923879, -0.382683), (0, 0.707107, -0.707107), (0, 0.923879, -0.382683), (0, 0.707107, -0.707107), (0, 0.923879, -0.382683), (-1, 0, 0), (-1, 0, 0), (-1, 0, 0), (-1, 0, 0), (-1, 0, 0), (-1, 0, 0), (0, 0.923879, -0.382683), (0, 0.923879, 0.382683), (0, 0.923879, -0.382683), (0, 0.923879, 0.382683), (0, 0.923879, -0.382683), (0, 0.923879, 0.382683), (1, 0, 0), (1, 0, 0), (1, 0, 0), (1, 0, 0), (1, 0, 0), (1, 0, 0), (0, 0.923879, 0.382683), (0, 0.707107, 0.707107), (0, 0.923879, 0.382683), (0, 0.707107, 0.707107), (0, 0.923879, 0.382683), (0, 0.707107, 0.707107), (0, 0.707107, -0.707107), (0, 0.923879, -0.382683), (0, 0.707107, -0.707107), (0, 0.923879, -0.382683), (0, 0.707107, -0.707107), (0, 0.923879, -0.382683)] (interpolation = "faceVarying")
        texCoord2f[] primvars:st = [(0.46875, 0.025), (0.46875, 0.0631043), (0.46875, 0.025), (0.46875, 0.0631043), (0.46875, 0.025), (0.46875, 0.0631043), (0.46875, 0.0631043), (0.46875, 0.139313), (0.46875, 0.0631043), (0.46875, 0.139313), (0.46875, 0.0631043), (0.46875, 0.139313), (0.46875, 0.0631043), (0.46875, 0.139313), (0.46875, 0.139313), (0.46875, 0.139313), (0.46875, 0.0631043), (0.46875, 0.0631043), (0.46875, 0.0631043), (0.46875, 0.139313), (0.46875, 0.139313), (0.46875, 0.139313), (0.46875, 0.0631043), (0.46875, 0.0631043), (0.46875, 0.139313), (0.46875, 0.0631043), (0.46875, 0.139313), (0.46875, 0.0631043), (0.46875, 0.139313), (0.46875, 0.0631043), (0.46875, 0.025), (0.46875, 0.0631043), (0.46875, 0.0631043), (0.46875, 0.0631043), (0.46875, 0.025), (0.46875, 0.025), (0.46875, 0.025), (0.46875, 0.0631043), (0.46875, 0.0631043), (0.46875, 0.0631043), (0.46875, 0.025), (0.46875, 0.025), (0.46875, 0.025), (0.46875, 0.0631043), (0.46875, 0.0631043), (0.46875, 0.0631043), (0.46875, 0.025), (0.46875, 0.025), (0.46875, 0.025), (0.46875, 0.025), (0.46875, 0.025), (0.46875, 0.025), (0.46875, 0.025), (0.46875, 0.025), (0.46875, 0.025), (0.46875, 0.025), (0.46875, 0.025), (0.46875, 0.025), (0.46875, 0.025), (0.46875, 0.025), (0.46875, 0.025), (0.46875, 0.025), (0.46875, 0.025), (0.46875, 0.0631043), (0.46875, 0.139313), (0.46875, 0.139313), (0.46875, 0.139313), (0.46875, 0.0631043), (0.46875, 0.0631043), (0.46875, 0.025), (0.46875, 0.0631043), (0.46875, 0.0631043), (0.46875, 0.0631043), (0.46875, 0.025), (0.46875, 0.025), (0.46875, 0.025), (0.46875, 0.0631043), (0.46875, 0.025), (0.46875, 0.0631043), (0.46875, 0.025), (0.46875, 0.0631043), (0.46875, 0.139313), (0.46875, 0.0631043), (0.46875, 0.139313), (0.46875, 0.0631043), (0.46875, 0.139313), (0.46875, 0.0631043), (0.46875, 0.139313), (0.46875, 0.0631043), (0.46875, 0.0631043), (0.46875, 0.0631043), (0.46875, 0.139313), (0.46875, 0.139313), (0.46875, 0.0631043), (0.46875, 0.025), (0.46875, 0.025), (0.46875, 0.025), (0.46875, 0.0631043), (0.46875, 0.0631043), (0.71875, 0.427417), (0.71875, 0.389313), (0.71875, 0.389313), (0.71875, 0.389313), (0.71875, 0.427417), (0.71875, 0.427417), (0.71875, 0.389313), (0.71875, 0.427417), (0.71875, 0.389313), (0.71875, 0.427417), (0.71875, 0.389313), (0.71875, 0.427417), (0.71875, 0.427417), (0.71875, 0.389313), (0.71875, 0.389313), (0.71875, 0.389313), (0.71875, 0.427417), (0.71875, 0.427417), (0.71875, 0.427417), (0.71875, 0.389313), (0.71875, 0.389313), (0.71875, 0.389313), (0.71875, 0.427417), (0.71875, 0.427417), (0.71875, 0.446469), (0.71875, 0.446469), (0.71875, 0.446469), (0.71875, 0.446469), (0.71875, 0.446469), (0.71875, 0.446469), (0.71875, 0.446469), (0.71875, 0.446469), (0.71875, 0.446469), (0.71875, 0.446469), (0.71875, 0.446469), (0.71875, 0.446469), (0.71875, 0.446469), (0.71875, 0.446469), (0.71875, 0.446469), (0.71875, 0.389313), (0.71875, 0.427417), (0.71875, 0.389313), (0.71875, 0.427417), (0.71875, 0.389313), (0.71875, 0.427417), (0.71875, 0.427417), (0.71875, 0.446469), (0.71875, 0.446469), (0.71875, 0.446469), (0.71875, 0.427417), (0.71875, 0.427417), (0.71875, 0.427417), (0.71875, 0.446469), (0.71875, 0.427417), (0.71875, 0.446469), (0.71875, 0.427417), (0.71875, 0.446469), (0.71875, 0.427417), (0.71875, 0.446469), (0.71875, 0.427417), (0.71875, 0.446469), (0.71875, 0.427417), (0.71875, 0.446469), (0.71875, 0.427417), (0.71875, 0.446469), (0.71875, 0.427417), (0.71875, 0.446469), (0.71875, 0.427417), (0.71875, 0.446469), (0.71875, 0.446469), (0.71875, 0.446469), (0.71875, 0.446469), (0.71875, 0.446469), (0.71875, 0.446469), (0.71875, 0.446469), (0.71875, 0.427417), (0.71875, 0.389313), (0.71875, 0.389313), (0.71875, 0.389313), (0.71875, 0.427417), (0.71875, 0.427417), (0.71875, 0.427417), (0.71875, 0.446469), (0.71875, 0.446469), (0.71875, 0.446469), (0.71875, 0.427417), (0.71875, 0.446469), (0.71875, 0.427417), (0.71875, 0.446469), (0.71875, 0.427417), (0.71875, 0.446469), (0.71875, 0.427417), (0.71875, 0.446469), (0.71875, 0.446469), (0.71875, 0.446469), (0.71875, 0.446469), (0.71875, 0.446469), (0.71875, 0.446469), (0.71875, 0.446469), (0.71875, 0.446469), (0.71875, 0.446469), (0.71875, 0.446469), (0.71875, 0.446469), (0.71875, 0.446469), (0.71875, 0.427417), (0.71875, 0.446469), (0.71875, 0.427417), (0.71875, 0.446469), (0.71875, 0.427417), (0.71875, 0.446469), (0.71875, 0.427417), (0.71875, 0.446469), (0.71875, 0.446469), (0.71875, 0.446469), (0.71875, 0.446469), (0.71875, 0.446469), (0.71875, 0.446469), (0.09375, 0.196469), (0.09375, 0.225), (0.09375, 0.196469), (0.09375, 0.225), (0.09375, 0.196469), (0.09375, 0.225), (0.09375, 0.225), (0.09375, 0.196469), (0.09375, 0.196469), (0.09375, 0.196469), (0.09375, 0.225), (0.09375, 0.225), (0.09375, 0.196469), (0.09375, 0.225), (0.09375, 0.225), (0.09375, 0.225), (0.09375, 0.196469), (0.09375, 0.196469), (0.09375, 0.225), (0.59375, 0.196469), (0.59375, 0.196469), (0.59375, 0.196469), (0.09375, 0.225), (0.09375, 0.225), (0.09375, 0.225), (0.09375, 0.225), (0.09375, 0.225), (0.09375, 0.225), (0.09375, 0.225), (0.09375, 0.225), (0.84375, 0.196469), (0.84375, 0.215521), (0.84375, 0.196469), (0.84375, 0.215521), (0.84375, 0.196469), (0.84375, 0.215521), (0.84375, 0.177417), (0.84375, 0.177417), (0.84375, 0.177417), (0.84375, 0.177417), (0.84375, 0.177417), (0.84375, 0.177417), (0.84375, 0.215521), (0.59375, 0.196469), (0.59375, 0.196469), (0.59375, 0.196469), (0.84375, 0.215521), (0.84375, 0.215521), (0.84375, 0.215521), (0.84375, 0.215521), (0.84375, 0.215521), (0.84375, 0.215521), (0.84375, 0.215521), (0.84375, 0.215521), (0.84375, 0.196469), (0.84375, 0.177417), (0.84375, 0.177417), (0.84375, 0.177417), (0.84375, 0.196469), (0.84375, 0.196469), (0.84375, 0.196469), (0.84375, 0.196469), (0.84375, 0.215521), (0.84375, 0.196469), (0.84375, 0.215521), (0.84375, 0.215521), (0.84375, 0.215521), (0.84375, 0.196469), (0.84375, 0.196469), (0.84375, 0.196469), (0.84375, 0.215521), (0.84375, 0.215521), (0.84375, 0.177417), (0.84375, 0.139313), (0.84375, 0.139313), (0.84375, 0.139313), (0.84375, 0.177417), (0.84375, 0.177417), (0.59375, 0.196469), (0.59375, 0.139313), (0.59375, 0.139313), (0.59375, 0.139313), (0.59375, 0.196469), (0.59375, 0.196469), (0.59375, 0.196469), (0.59375, 0.177417), (0.59375, 0.196469), (0.59375, 0.177417), (0.59375, 0.196469), (0.59375, 0.177417), (0.59375, 0.196469), (0.59375, 0.177417), (0.59375, 0.177417), (0.59375, 0.196469), (0.59375, 0.177417), (0.59375, 0.196469), (0.59375, 0.196469), (0.59375, 0.139313), (0.59375, 0.177417), (0.59375, 0.139313), (0.59375, 0.196469), (0.59375, 0.139313), (0.59375, 0.139313), (0.59375, 0.139313), (0.59375, 0.177417), (0.59375, 0.196469), (0.59375, 0.177417), (0.59375, 0.139313), (0.59375, 0.177417), (0.59375, 0.196469), (0.59375, 0.196469), (0.59375, 0.177417), (0.59375, 0.196469), (0.59375, 0.177417), (0.59375, 0.196469), (0.59375, 0.177417), (0.59375, 0.177417), (0.59375, 0.177417), (0.59375, 0.196469), (0.59375, 0.196469), (0.59375, 0.196469), (0.59375, 0.177417), (0.59375, 0.177417), (0.59375, 0.177417), (0.59375, 0.196469), (0.59375, 0.196469), (0.59375, 0.139313), (0.59375, 0.139313), (0.59375, 0.139313), (0.59375, 0.139313), (0.59375, 0.139313), (0.59375, 0.139313), (0.71875, 0.177417), (0.71875, 0.139313), (0.71875, 0.139313), (0.71875, 0.139313), (0.71875, 0.177417), (0.71875, 0.177417), (0.71875, 0.177417), (0.71875, 0.177417), (0.71875, 0.196469), (0.71875, 0.177417), (0.71875, 0.196469), (0.71875, 0.196469), (0.71875, 0.125), (0.71875, 0.025), (0.71875, 0.125), (0.71875, 0.025), (0.71875, 0.125), (0.71875, 0.025), (0.71875, 0.125), (0.71875, 0.025), (0.71875, 0.025), (0.71875, 0.025), (0.71875, 0.125), (0.71875, 0.125), (0.71875, 0.125), (0.71875, 0.125), (0.71875, 0.2), (0.71875, 0.125), (0.71875, 0.2), (0.71875, 0.125), (0.71875, 0.125), (0.71875, 0.2), (0.71875, 0.125), (0.71875, 0.025), (0.71875, 0.125), (0.71875, 0.125), (0.71875, 0.125), (0.71875, 0.025), (0.71875, 0.025), (0.71875, 0.125), (0.71875, 0.2), (0.71875, 0.2), (0.71875, 0.2), (0.71875, 0.2), (0.71875, 0.225), (0.71875, 0.2), (0.71875, 0.225), (0.71875, 0.225), (0.71875, 0.025), (0.71875, 0.125), (0.71875, 0.025), (0.71875, 0.125), (0.71875, 0.025), (0.71875, 0.125), (0.71875, 0.125), (0.71875, 0.125), (0.71875, 0.125), (0.71875, 0.125), (0.71875, 0.125), (0.71875, 0.125), (0.71875, 0.225), (0.71875, 0.225), (0.71875, 0.225), (0.71875, 0.225), (0.71875, 0.225), (0.71875, 0.225), (0.71875, 0.125), (0.71875, 0.025), (0.71875, 0.125), (0.71875, 0.025), (0.71875, 0.125), (0.71875, 0.025), (0.71875, 0.025), (0.71875, 0.125), (0.71875, 0.025), (0.71875, 0.125), (0.71875, 0.025), (0.71875, 0.125), (0.71875, 0.125), (0.71875, 0.025), (0.71875, 0.025), (0.71875, 0.025), (0.71875, 0.125), (0.71875, 0.125), (0.71875, 0.125), (0.71875, 0.125), (0.71875, 0.2), (0.71875, 0.125), (0.71875, 0.2), (0.71875, 0.125), (0.71875, 0.125), (0.71875, 0.2), (0.71875, 0.125), (0.71875, 0.025), (0.71875, 0.125), (0.71875, 0.125), (0.71875, 0.125), (0.71875, 0.025), (0.71875, 0.025), (0.71875, 0.125), (0.71875, 0.2), (0.71875, 0.2), (0.71875, 0.2), (0.71875, 0.2), (0.71875, 0.225), (0.71875, 0.2), (0.71875, 0.225), (0.71875, 0.225), (0.71875, 0.2), (0.71875, 0.125), (0.71875, 0.2), (0.71875, 0.125), (0.71875, 0.2), (0.71875, 0.125), (0.71875, 0.225), (0.71875, 0.2), (0.71875, 0.2), (0.71875, 0.2), (0.71875, 0.225), (0.71875, 0.225), (0.71875, 0.2), (0.71875, 0.225), (0.71875, 0.225), (0.71875, 0.225), (0.71875, 0.2), (0.71875, 0.2), (0.71875, 0.125), (0.71875, 0.2), (0.71875, 0.125), (0.71875, 0.2), (0.71875, 0.125), (0.71875, 0.2), (0.71875, 0.025), (0.71875, 0.225), (0.71875, 0.025), (0.71875, 0.225), (0.71875, 0.025), (0.71875, 0.225), (0.71875, 0.225), (0.71875, 0.225), (0.71875, 0.225), (0.71875, 0.225), (0.71875, 0.225), (0.71875, 0.225), (0.71875, 0.225), (0.71875, 0.025), (0.71875, 0.025), (0.71875, 0.025), (0.71875, 0.225), (0.71875, 0.225), (0.71875, 0.225), (0.71875, 0.025), (0.71875, 0.225), (0.71875, 0.025), (0.71875, 0.225), (0.71875, 0.025), (0.71875, 0.025), (0.71875, 0.225), (0.71875, 0.025), (0.71875, 0.225), (0.71875, 0.025), (0.71875, 0.225), (0.71875, 0.025), (0.71875, 0.225), (0.71875, 0.025), (0.71875, 0.225), (0.71875, 0.025), (0.71875, 0.225), (0.71875, 0.225), (0.71875, 0.225), (0.71875, 0.225), (0.71875, 0.225), (0.71875, 0.225), (0.71875, 0.225), (0.71875, 0.225), (0.71875, 0.025), (0.71875, 0.025), (0.71875, 0.025), (0.71875, 0.225), (0.71875, 0.225), (0.71875, 0.225), (0.71875, 0.025), (0.71875, 0.225), (0.71875, 0.025), (0.71875, 0.225), (0.71875, 0.025), (0.71875, 0.025), (0.71875, 0.225), (0.71875, 0.025), (0.71875, 0.225), (0.71875, 0.025), (0.71875, 0.225), (0.46875, 0.025), (0.46875, 0.0631043), (0.46875, 0.025), (0.46875, 0.0631043), (0.46875, 0.025), (0.46875, 0.0631043), (0.46875, 0.0631043), (0.46875, 0.139313), (0.46875, 0.0631043), (0.46875, 0.139313), (0.46875, 0.0631043), (0.46875, 0.139313), (0.46875, 0.0631043), (0.46875, 0.139313), (0.46875, 0.139313), (0.46875, 0.139313), (0.46875, 0.0631043), (0.46875, 0.0631043), (0.46875, 0.0631043), (0.46875, 0.139313), (0.46875, 0.139313), (0.46875, 0.139313), (0.46875, 0.0631043), (0.46875, 0.0631043), (0.46875, 0.139313), (0.46875, 0.0631043), (0.46875, 0.139313), (0.46875, 0.0631043), (0.46875, 0.139313), (0.46875, 0.0631043), (0.46875, 0.025), (0.46875, 0.0631043), (0.46875, 0.0631043), (0.46875, 0.0631043), (0.46875, 0.025), (0.46875, 0.025), (0.46875, 0.025), (0.46875, 0.0631043), (0.46875, 0.0631043), (0.46875, 0.0631043), (0.46875, 0.025), (0.46875, 0.025), (0.46875, 0.025), (0.46875, 0.0631043), (0.46875, 0.0631043), (0.46875, 0.0631043), (0.46875, 0.025), (0.46875, 0.025), (0.46875, 0.025), (0.46875, 0.025), (0.46875, 0.025), (0.46875, 0.025), (0.46875, 0.025), (0.46875, 0.025), (0.46875, 0.025), (0.46875, 0.025), (0.46875, 0.025), (0.46875, 0.025), (0.46875, 0.025), (0.46875, 0.025), (0.46875, 0.025), (0.46875, 0.025), (0.46875, 0.025), (0.46875, 0.0631043), (0.46875, 0.139313), (0.46875, 0.139313), (0.46875, 0.139313), (0.46875, 0.0631043), (0.46875, 0.0631043), (0.46875, 0.025), (0.46875, 0.0631043), (0.46875, 0.0631043), (0.46875, 0.0631043), (0.46875, 0.025), (0.46875, 0.025), (0.46875, 0.025), (0.46875, 0.0631043), (0.46875, 0.025), (0.46875, 0.0631043), (0.46875, 0.025), (0.46875, 0.0631043), (0.46875, 0.139313), (0.46875, 0.0631043), (0.46875, 0.139313), (0.46875, 0.0631043), (0.46875, 0.139313), (0.46875, 0.0631043), (0.46875, 0.139313), (0.46875, 0.0631043), (0.46875, 0.0631043), (0.46875, 0.0631043), (0.46875, 0.139313), (0.46875, 0.139313), (0.46875, 0.0631043), (0.46875, 0.025), (0.46875, 0.025), (0.46875, 0.025), (0.46875, 0.0631043), (0.46875, 0.0631043), (0.71875, 0.427417), (0.71875, 0.389313), (0.71875, 0.389313), (0.71875, 0.389313), (0.71875, 0.427417), (0.71875, 0.427417), (0.71875, 0.389313), (0.71875, 0.427417), (0.71875, 0.389313), (0.71875, 0.427417), (0.71875, 0.389313), (0.71875, 0.427417), (0.71875, 0.427417), (0.71875, 0.389313), (0.71875, 0.389313), (0.71875, 0.389313), (0.71875, 0.427417), (0.71875, 0.427417), (0.71875, 0.427417), (0.71875, 0.389313), (0.71875, 0.389313), (0.71875, 0.389313), (0.71875, 0.427417), (0.71875, 0.427417), (0.71875, 0.446469), (0.71875, 0.446469), (0.71875, 0.446469), (0.71875, 0.446469), (0.71875, 0.446469), (0.71875, 0.446469), (0.71875, 0.446469), (0.71875, 0.446469), (0.71875, 0.446469), (0.71875, 0.446469), (0.71875, 0.446469), (0.71875, 0.446469), (0.71875, 0.446469), (0.71875, 0.446469), (0.71875, 0.446469), (0.71875, 0.389313), (0.71875, 0.427417), (0.71875, 0.389313), (0.71875, 0.427417), (0.71875, 0.389313), (0.71875, 0.427417), (0.71875, 0.427417), (0.71875, 0.446469), (0.71875, 0.446469), (0.71875, 0.446469), (0.71875, 0.427417), (0.71875, 0.427417), (0.71875, 0.427417), (0.71875, 0.446469), (0.71875, 0.427417), (0.71875, 0.446469), (0.71875, 0.427417), (0.71875, 0.446469), (0.71875, 0.427417), (0.71875, 0.446469), (0.71875, 0.427417), (0.71875, 0.446469), (0.71875, 0.427417), (0.71875, 0.446469), (0.71875, 0.427417), (0.71875, 0.446469), (0.71875, 0.427417), (0.71875, 0.446469), (0.71875, 0.427417), (0.71875, 0.446469), (0.71875, 0.446469), (0.71875, 0.446469), (0.71875, 0.446469), (0.71875, 0.446469), (0.71875, 0.446469), (0.71875, 0.446469), (0.71875, 0.427417), (0.71875, 0.389313), (0.71875, 0.389313), (0.71875, 0.389313), (0.71875, 0.427417), (0.71875, 0.427417), (0.71875, 0.427417), (0.71875, 0.446469), (0.71875, 0.446469), (0.71875, 0.446469), (0.71875, 0.427417), (0.71875, 0.446469), (0.71875, 0.427417), (0.71875, 0.446469), (0.71875, 0.427417), (0.71875, 0.446469), (0.71875, 0.427417), (0.71875, 0.446469), (0.71875, 0.446469), (0.71875, 0.446469), (0.71875, 0.446469), (0.71875, 0.446469), (0.71875, 0.446469), (0.71875, 0.446469), (0.71875, 0.446469), (0.71875, 0.446469), (0.71875, 0.446469), (0.71875, 0.446469), (0.71875, 0.446469), (0.71875, 0.427417), (0.71875, 0.446469), (0.71875, 0.427417), (0.71875, 0.446469), (0.71875, 0.427417), (0.71875, 0.446469), (0.71875, 0.427417), (0.71875, 0.446469), (0.71875, 0.446469), (0.71875, 0.446469), (0.71875, 0.446469), (0.71875, 0.446469), (0.71875, 0.446469), (0.09375, 0.196469), (0.09375, 0.225), (0.09375, 0.196469), (0.09375, 0.225), (0.09375, 0.196469), (0.09375, 0.225), (0.09375, 0.225), (0.09375, 0.196469), (0.09375, 0.196469), (0.09375, 0.196469), (0.09375, 0.225), (0.09375, 0.225), (0.09375, 0.196469), (0.09375, 0.225), (0.09375, 0.225), (0.09375, 0.225), (0.09375, 0.196469), (0.09375, 0.196469), (0.09375, 0.225), (0.59375, 0.196469), (0.59375, 0.196469), (0.59375, 0.196469), (0.09375, 0.225), (0.09375, 0.225), (0.09375, 0.225), (0.09375, 0.225), (0.09375, 0.225), (0.09375, 0.225), (0.09375, 0.225), (0.09375, 0.225), (0.84375, 0.196469), (0.84375, 0.215521), (0.84375, 0.196469), (0.84375, 0.215521), (0.84375, 0.196469), (0.84375, 0.215521), (0.84375, 0.177417), (0.84375, 0.177417), (0.84375, 0.177417), (0.84375, 0.177417), (0.84375, 0.177417), (0.84375, 0.177417), (0.84375, 0.215521), (0.59375, 0.196469), (0.59375, 0.196469), (0.59375, 0.196469), (0.84375, 0.215521), (0.84375, 0.215521), (0.84375, 0.215521), (0.84375, 0.215521), (0.84375, 0.215521), (0.84375, 0.215521), (0.84375, 0.215521), (0.84375, 0.215521), (0.84375, 0.196469), (0.84375, 0.177417), (0.84375, 0.177417), (0.84375, 0.177417), (0.84375, 0.196469), (0.84375, 0.196469), (0.84375, 0.196469), (0.84375, 0.196469), (0.84375, 0.215521), (0.84375, 0.196469), (0.84375, 0.215521), (0.84375, 0.215521), (0.84375, 0.215521), (0.84375, 0.196469), (0.84375, 0.196469), (0.84375, 0.196469), (0.84375, 0.215521), (0.84375, 0.215521), (0.84375, 0.177417), (0.84375, 0.139313), (0.84375, 0.139313), (0.84375, 0.139313), (0.84375, 0.177417), (0.84375, 0.177417), (0.59375, 0.196469), (0.59375, 0.139313), (0.59375, 0.139313), (0.59375, 0.139313), (0.59375, 0.196469), (0.59375, 0.196469), (0.59375, 0.196469), (0.59375, 0.177417), (0.59375, 0.196469), (0.59375, 0.177417), (0.59375, 0.196469), (0.59375, 0.177417), (0.59375, 0.196469), (0.59375, 0.177417), (0.59375, 0.177417), (0.59375, 0.196469), (0.59375, 0.177417), (0.59375, 0.196469), (0.59375, 0.196469), (0.59375, 0.139313), (0.59375, 0.177417), (0.59375, 0.139313), (0.59375, 0.196469), (0.59375, 0.139313), (0.59375, 0.139313), (0.59375, 0.139313), (0.59375, 0.177417), (0.59375, 0.196469), (0.59375, 0.177417), (0.59375, 0.139313), (0.59375, 0.177417), (0.59375, 0.196469), (0.59375, 0.196469), (0.59375, 0.177417), (0.59375, 0.196469), (0.59375, 0.177417), (0.59375, 0.196469), (0.59375, 0.177417), (0.59375, 0.177417), (0.59375, 0.177417), (0.59375, 0.196469), (0.59375, 0.196469), (0.59375, 0.196469), (0.59375, 0.177417), (0.59375, 0.177417), (0.59375, 0.177417), (0.59375, 0.196469), (0.59375, 0.196469), (0.59375, 0.139313), (0.59375, 0.139313), (0.59375, 0.139313), (0.59375, 0.139313), (0.59375, 0.139313), (0.59375, 0.139313), (0.71875, 0.177417), (0.71875, 0.139313), (0.71875, 0.139313), (0.71875, 0.139313), (0.71875, 0.177417), (0.71875, 0.177417), (0.71875, 0.177417), (0.71875, 0.177417), (0.71875, 0.196469), (0.71875, 0.177417), (0.71875, 0.196469), (0.71875, 0.196469), (0.71875, 0.125), (0.71875, 0.025), (0.71875, 0.125), (0.71875, 0.025), (0.71875, 0.125), (0.71875, 0.025), (0.71875, 0.125), (0.71875, 0.025), (0.71875, 0.025), (0.71875, 0.025), (0.71875, 0.125), (0.71875, 0.125), (0.71875, 0.125), (0.71875, 0.125), (0.71875, 0.2), (0.71875, 0.125), (0.71875, 0.2), (0.71875, 0.125), (0.71875, 0.125), (0.71875, 0.2), (0.71875, 0.125), (0.71875, 0.025), (0.71875, 0.125), (0.71875, 0.125), (0.71875, 0.125), (0.71875, 0.025), (0.71875, 0.025), (0.71875, 0.125), (0.71875, 0.2), (0.71875, 0.2), (0.71875, 0.2), (0.71875, 0.2), (0.71875, 0.225), (0.71875, 0.2), (0.71875, 0.225), (0.71875, 0.225), (0.71875, 0.025), (0.71875, 0.125), (0.71875, 0.025), (0.71875, 0.125), (0.71875, 0.025), (0.71875, 0.125), (0.71875, 0.125), (0.71875, 0.125), (0.71875, 0.125), (0.71875, 0.125), (0.71875, 0.125), (0.71875, 0.125), (0.71875, 0.225), (0.71875, 0.225), (0.71875, 0.225), (0.71875, 0.225), (0.71875, 0.225), (0.71875, 0.225), (0.71875, 0.125), (0.71875, 0.025), (0.71875, 0.125), (0.71875, 0.025), (0.71875, 0.125), (0.71875, 0.025), (0.71875, 0.025), (0.71875, 0.125), (0.71875, 0.025), (0.71875, 0.125), (0.71875, 0.025), (0.71875, 0.125), (0.71875, 0.125), (0.71875, 0.025), (0.71875, 0.025), (0.71875, 0.025), (0.71875, 0.125), (0.71875, 0.125), (0.71875, 0.125), (0.71875, 0.125), (0.71875, 0.2), (0.71875, 0.125), (0.71875, 0.2), (0.71875, 0.125), (0.71875, 0.125), (0.71875, 0.2), (0.71875, 0.125), (0.71875, 0.025), (0.71875, 0.125), (0.71875, 0.125), (0.71875, 0.125), (0.71875, 0.025), (0.71875, 0.025), (0.71875, 0.125), (0.71875, 0.2), (0.71875, 0.2), (0.71875, 0.2), (0.71875, 0.2), (0.71875, 0.225), (0.71875, 0.2), (0.71875, 0.225), (0.71875, 0.225), (0.71875, 0.2), (0.71875, 0.125), (0.71875, 0.2), (0.71875, 0.125), (0.71875, 0.2), (0.71875, 0.125), (0.71875, 0.225), (0.71875, 0.2), (0.71875, 0.2), (0.71875, 0.2), (0.71875, 0.225), (0.71875, 0.225), (0.71875, 0.2), (0.71875, 0.225), (0.71875, 0.225), (0.71875, 0.225), (0.71875, 0.2), (0.71875, 0.2), (0.71875, 0.125), (0.71875, 0.2), (0.71875, 0.125), (0.71875, 0.2), (0.71875, 0.125), (0.71875, 0.2), (0.71875, 0.025), (0.71875, 0.225), (0.71875, 0.025), (0.71875, 0.225), (0.71875, 0.025), (0.71875, 0.225), (0.71875, 0.225), (0.71875, 0.225), (0.71875, 0.225), (0.71875, 0.225), (0.71875, 0.225), (0.71875, 0.225), (0.71875, 0.225), (0.71875, 0.025), (0.71875, 0.025), (0.71875, 0.025), (0.71875, 0.225), (0.71875, 0.225), (0.71875, 0.225), (0.71875, 0.025), (0.71875, 0.225), (0.71875, 0.025), (0.71875, 0.225), (0.71875, 0.025), (0.71875, 0.025), (0.71875, 0.225), (0.71875, 0.025), (0.71875, 0.225), (0.71875, 0.025), (0.71875, 0.225), (0.71875, 0.025), (0.71875, 0.225), (0.71875, 0.025), (0.71875, 0.225), (0.71875, 0.025), (0.71875, 0.225), (0.71875, 0.225), (0.71875, 0.225), (0.71875, 0.225), (0.71875, 0.225), (0.71875, 0.225), (0.71875, 0.225), (0.71875, 0.225), (0.71875, 0.025), (0.71875, 0.025), (0.71875, 0.025), (0.71875, 0.225), (0.71875, 0.225), (0.71875, 0.225), (0.71875, 0.025), (0.71875, 0.225), (0.71875, 0.025), (0.71875, 0.225), (0.71875, 0.025), (0.71875, 0.025), (0.71875, 0.225), (0.71875, 0.025), (0.71875, 0.225), (0.71875, 0.025), (0.71875, 0.225)] (interpolation = "faceVarying")
        uniform token subdivisionScheme = "none"
        rel material:binding = </Vehicle/Materials/colormap>
    }
    def Scope "Materials" {
        def Material "colormap" {
            token outputs:surface.connect = </Vehicle/Materials/colormap/surface.outputs:surface>
            def Shader "surface" {
                uniform token info:id = "UsdPreviewSurface"
                float inputs:roughness = 0.7
                float inputs:metallic = 0
                color3f inputs:diffuseColor.connect = </Vehicle/Materials/colormap/texture.outputs:rgb>
                token outputs:surface
            }
            def Shader "stReader" {
                uniform token info:id = "UsdPrimvarReader_float2"
                token inputs:varname = "st"
                float2 outputs:result
            }
            def Shader "texture" {
                uniform token info:id = "UsdUVTexture"
                asset inputs:file = @kenney-water-colormap.png@
                float2 inputs:st.connect = </Vehicle/Materials/colormap/stReader.outputs:result>
                token inputs:wrapS = "repeat"
                token inputs:wrapT = "repeat"
                float3 outputs:rgb
            }
        }
    }
}
