#usda 1.0
(
    defaultPrim = "Vehicle"
    metersPerUnit = 1
    upAxis = "Y"
)
def Xform "Vehicle" {
    def Mesh "mesh_colormap" {
        int[] faceVertexCounts = [3, 3, 3, 3, 3, 3, 3, 3, 3, 3, 3, 3, 3, 3, 3, 3, 3, 3, 3, 3, 3, 3, 3, 3, 3, 3, 3, 3, 3, 3, 3, 3, 3, 3, 3, 3, 3, 3, 3, 3, 3, 3, 3, 3, 3, 3, 3, 3, 3, 3, 3, 3, 3, 3, 3, 3, 3, 3, 3, 3, 3, 3, 3, 3, 3, 3, 3, 3, 3, 3, 3, 3, 3, 3, 3, 3, 3, 3, 3, 3, 3, 3, 3, 3, 3, 3, 3, 3, 3, 3, 3, 3, 3, 3, 3, 3, 3, 3, 3, 3, 3, 3, 3, 3, 3, 3, 3, 3, 3, 3, 3, 3, 3, 3, 3, 3, 3, 3, 3, 3, 3, 3, 3, 3, 3, 3, 3, 3, 3, 3, 3, 3, 3, 3, 3, 3, 3, 3, 3, 3, 3, 3, 3, 3, 3, 3, 3, 3, 3, 3, 3, 3, 3, 3, 3, 3, 3, 3, 3, 3, 3, 3, 3, 3, 3, 3, 3, 3, 3, 3, 3, 3, 3, 3, 3, 3, 3, 3, 3, 3, 3, 3, 3, 3, 3, 3, 3, 3, 3, 3, 3, 3, 3, 3, 3, 3, 3, 3, 3, 3, 3, 3, 3, 3, 3, 3, 3, 3, 3, 3, 3, 3, 3, 3, 3, 3, 3, 3, 3, 3, 3, 3, 3, 3, 3, 3, 3, 3, 3, 3, 3, 3, 3, 3, 3, 3, 3, 3, 3, 3, 3, 3, 3, 3, 3, 3, 3, 3, 3, 3, 3, 3, 3, 3, 3, 3, 3, 3, 3, 3, 3, 3, 3, 3, 3, 3, 3, 3, 3, 3, 3, 3, 3, 3, 3, 3, 3, 3, 3, 3, 3, 3, 3, 3, 3, 3, 3, 3, 3, 3, 3, 3, 3, 3, 3, 3, 3, 3, 3, 3, 3, 3, 3, 3, 3, 3, 3, 3, 3, 3, 3, 3, 3, 3, 3, 3, 3, 3, 3, 3, 3, 3, 3, 3, 3, 3, 3, 3, 3, 3, 3, 3, 3, 3, 3, 3, 3, 3, 3, 3, 3, 3, 3, 3, 3, 3, 3, 3, 3, 3, 3, 3, 3, 3, 3, 3]
        int[] faceVertexIndices = [2, 1, 0, 1, 2, 3, 6, 5, 4, 5, 6, 7, 9, 2, 8, 2, 9, 3, 1, 9, 10, 9, 1, 3, 0, 4, 5, 4, 0, 11, 11, 0, 1, 11, 1, 10, 10, 8, 11, 8, 10, 9, 7, 13, 12, 13, 7, 6, 16, 15, 14, 15, 16, 17, 15, 17, 18, 15, 18, 19, 15, 19, 20, 23, 22, 21, 22, 23, 24, 27, 26, 25, 26, 27, 28, 30, 25, 29, 25, 30, 27, 22, 29, 21, 29, 22, 30, 28, 31, 26, 31, 28, 32, 33, 24, 23, 24, 33, 34, 37, 36, 35, 36, 37, 38, 36, 40, 39, 40, 36, 38, 39, 42, 41, 42, 39, 40, 38, 42, 40, 42, 38, 37, 35, 39, 41, 39, 35, 36, 45, 44, 43, 44, 45, 46, 44, 48, 47, 48, 44, 46, 47, 50, 49, 50, 47, 48, 46, 50, 48, 50, 46, 45, 43, 47, 49, 47, 43, 44, 14, 52, 51, 52, 14, 15, 11, 53, 8, 53, 11, 4, 11, 6, 4, 14, 6, 11, 14, 13, 6, 13, 14, 51, 12, 52, 7, 15, 7, 52, 7, 15, 0, 7, 0, 5, 0, 54, 5, 54, 0, 2, 8, 54, 53, 54, 8, 2, 52, 13, 51, 13, 52, 12, 8, 56, 55, 56, 8, 2, 22, 20, 19, 20, 22, 24, 20, 0, 15, 0, 20, 24, 0, 24, 2, 2, 24, 34, 34, 56, 2, 27, 16, 28, 16, 27, 17, 16, 32, 28, 32, 16, 14, 14, 55, 32, 55, 14, 11, 55, 11, 8, 22, 18, 30, 18, 22, 19, 30, 17, 27, 17, 30, 18, 59, 58, 57, 58, 59, 60, 59, 61, 60, 61, 59, 62, 62, 59, 63, 62, 63, 64, 64, 63, 65, 66, 64, 65, 64, 66, 67, 65, 63, 68, 68, 63, 69, 68, 69, 70, 61, 72, 71, 72, 61, 62, 64, 72, 62, 72, 64, 73, 75, 69, 74, 69, 75, 70, 64, 76, 73, 76, 64, 67, 66, 78, 77, 78, 66, 65, 78, 76, 77, 76, 78, 73, 73, 78, 79, 73, 79, 72, 72, 79, 57, 58, 72, 57, 72, 58, 71, 57, 79, 80, 80, 79, 75, 80, 75, 74, 63, 57, 80, 57, 63, 59, 74, 63, 80, 63, 74, 69, 79, 70, 75, 70, 79, 68, 65, 79, 78, 79, 65, 68, 32, 33, 31, 33, 32, 34, 34, 32, 55, 34, 55, 56, 81, 23, 21, 23, 81, 82, 83, 29, 25, 29, 83, 84, 26, 83, 25, 83, 26, 85, 87, 81, 86, 81, 87, 82, 81, 29, 84, 29, 81, 21, 88, 81, 84, 81, 88, 86, 89, 83, 85, 83, 89, 90, 90, 84, 83, 84, 90, 88, 93, 92, 91, 92, 93, 94, 31, 94, 93, 94, 31, 33, 92, 82, 87, 82, 92, 94, 93, 89, 85, 89, 93, 91, 82, 33, 23, 33, 82, 94, 31, 85, 26, 85, 31, 93, 91, 90, 89, 90, 91, 92, 90, 92, 88, 88, 92, 86, 86, 92, 87, 15, 96, 95, 96, 15, 97, 99, 97, 98, 97, 99, 96, 99, 14, 100, 14, 99, 98, 98, 15, 14, 15, 98, 97, 100, 96, 99, 96, 100, 95, 2, 1, 0, 1, 2, 3, 6, 5, 4, 5, 6, 7, 9, 2, 8, 2, 9, 3, 1, 9, 10, 9, 1, 3, 0, 4, 5, 4, 0, 11, 11, 0, 1, 11, 1, 10, 10, 8, 11, 8, 10, 9, 7, 13, 12, 13, 7, 6, 16, 15, 14, 15, 16, 17, 15, 17, 18, 15, 18, 19, 15, 19, 20, 23, 22, 21, 22, 23, 24, 27, 26, 25, 26, 27, 28, 30, 25, 29, 25, 30, 27, 22, 29, 21, 29, 22, 30, 28, 31, 26, 31, 28, 32, 33, 24, 23, 24, 33, 34, 37, 36, 35, 36, 37, 38, 36, 40, 39, 40, 36, 38, 39, 42, 41, 42, 39, 40, 38, 42, 40, 42, 38, 37, 35, 39, 41, 39, 35, 36, 45, 44, 43, 44, 45, 46, 44, 48, 47, 48, 44, 46, 47, 50, 49, 50, 47, 48, 46, 50, 48, 50, 46, 45, 43, 47, 49, 47, 43, 44, 14, 52, 51, 52, 14, 15, 11, 53, 8, 53, 11, 4, 11, 6, 4, 14, 6, 11, 14, 13, 6, 13, 14, 51, 12, 52, 7, 15, 7, 52, 7, 15, 0, 7, 0, 5, 0, 54, 5, 54, 0, 2, 8, 54, 53, 54, 8, 2, 52, 13, 51, 13, 52, 12, 8, 56, 55, 56, 8, 2, 22, 20, 19, 20, 22, 24, 20, 0, 15, 0, 20, 24, 0, 24, 2, 2, 24, 34, 34, 56, 2, 27, 16, 28, 16, 27, 17, 16, 32, 28, 32, 16, 14, 14, 55, 32, 55, 14, 11, 55, 11, 8, 22, 18, 30, 18, 22, 19, 30, 17, 27, 17, 30, 18, 59, 58, 57, 58, 59, 60, 59, 61, 60, 61, 59, 62, 62, 59, 63, 62, 63, 64, 64, 63, 65, 66, 64, 65, 64, 66, 67, 65, 63, 68, 68, 63, 69, 68, 69, 70, 61, 72, 71, 72, 61, 62, 64, 72, 62, 72, 64, 73, 75, 69, 74, 69, 75, 70, 64, 76, 73, 76, 64, 67, 66, 78, 77, 78, 66, 65, 78, 76, 77, 76, 78, 73, 73, 78, 79, 73, 79, 72, 72, 79, 57, 58, 72, 57, 72, 58, 71, 57, 79, 80, 80, 79, 75, 80, 75, 74, 63, 57, 80, 57, 63, 59, 74, 63, 80, 63, 74, 69, 79, 70, 75, 70, 79, 68, 65, 79, 78, 79, 65, 68, 32, 33, 31, 33, 32, 34, 34, 32, 55, 34, 55, 56, 81, 23, 21, 23, 81, 82, 83, 29, 25, 29, 83, 84, 26, 83, 25, 83, 26, 85, 87, 81, 86, 81, 87, 82, 81, 29, 84, 29, 81, 21, 88, 81, 84, 81, 88, 86, 89, 83, 85, 83, 89, 90, 90, 84, 83, 84, 90, 88, 93, 92, 91, 92, 93, 94, 31, 94, 93, 94, 31, 33, 92, 82, 87, 82, 92, 94, 93, 89, 85, 89, 93, 91, 82, 33, 23, 33, 82, 94, 31, 85, 26, 85, 31, 93, 91, 90, 89, 90, 91, 92, 90, 92, 88, 88, 92, 86, 86, 92, 87, 15, 96, 95, 96, 15, 97, 99, 97, 98, 97, 99, 96, 99, 14, 100, 14, 99, 98, 98, 15, 14, 15, 98, 97, 100, 96, 99, 96, 100, 95]
        point3f[] points = [(0.551119, 0.9, -1.36259), (0.551119, 1, -1.41259), (0.551119, 0.9, -1.51259), (0.551119, 1, -1.51259), (-0.551119, 0.8, -1.31259), (0.551119, 0.8, -1.31259), (-0.551119, 0.8, -1.11259), (0.551119, 0.8, -1.11259), (-0.551119, 0.9, -1.51259), (-0.551119, 1, -1.51259), (-0.551119, 1, -1.41259), (-0.551119, 0.9, -1.36259), (0.551119, 0.6, -1.11259), (-0.551119, 0.6, -1.11259), (-0.551119, 0.9, -0.733007), (0.551119, 0.9, -0.733007), (-0.551119, 0.9, 0.846575), (-0.241163, 0.9, 1.33831), (5.57165e-13, 0.9, 1.47179), (0.241163, 0.9, 1.33831), (0.551119, 0.9, 0.846575), (0.390547, 0.6, 1.91883), (0.371019, 0.8, 1.81939), (0.8925, 0.6, 1.1225), (0.847875, 0.8, 1.06288), (-0.390547, 0.6, 1.91883), (-0.8925, 0.6, 1.1225), (-0.371019, 0.8, 1.81939), (-0.847875, 0.8, 1.06288), (7.59122e-13, 0.6, 2.135), (7.06554e-13, 0.8, 2.02475), (-0.8925, 0.6, -2.135), (-0.847875, 0.8, -2.135), (0.8925, 0.6, -2.135), (0.847875, 0.8, -2.135), (-0.551119, 0.9, 0.346575), (-0.551119, 1, 0.446575), (-0.551119, 0.9, 0.846575), (-0.551119, 1, 0.746575), (-0.351119, 1, 0.446575), (-0.351119, 1, 0.746575), (-0.351119, 0.9, 0.346575), (-0.351119, 0.9, 0.846575), (0.351119, 0.9, 0.346575), (0.351119, 1, 0.446575), (0.351119, 0.9, 0.846575), (0.351119, 1, 0.746575), (0.551119, 1, 0.446575), (0.551119, 1, 0.746575), (0.551119, 0.9, 0.346575), (0.551119, 0.9, 0.846575), (-0.551119, 0.6, -0.733007), (0.551119, 0.6, -0.733007), (-0.551119, 0.8, -1.51259), (0.551119, 0.8, -1.51259), (-0.551119, 0.9, -2.135), (0.551119, 0.9, -2.135), (0.551119, 0.973205, -1.98579), (0.551119, 0.8, -1.8858), (0.551119, 1.0732, -1.81259), (0.551119, 0.9, -1.71259), (0.351119, 0.9, -1.71259), (0.351119, 1.0732, -1.81259), (0.501119, 1.20311, -1.88759), (-0.351119, 1.0732, -1.81259), (-0.551119, 1.0732, -1.81259), (-0.551119, 0.9, -1.71259), (-0.351119, 0.9, -1.71259), (-0.501119, 1.20311, -1.88759), (0.351119, 1.24641, -1.91259), (-0.351119, 1.24641, -1.91259), (0.351119, 0.8, -1.8858), (0.351119, 0.973205, -1.98579), (-0.351119, 0.973205, -1.98579), (0.351119, 1.14641, -2.0858), (-0.351119, 1.14641, -2.0858), (-0.351119, 0.8, -1.8858), (-0.551119, 0.8, -1.8858), (-0.551119, 0.973205, -1.98579), (-0.501119, 1.10311, -2.0608), (0.501119, 1.10311, -2.0608), (0.296815, 0.2, 1.44151), (0.6783, 0.2, 0.8363), (-0.296815, 0.2, 1.44151), (5.6917e-13, 0.2, 1.6058), (-0.6783, 0.2, 0.8363), (0.178089, 0, 0.731068), (0.40698, 0, 0.36794), (2.96349e-13, 0, 0.82964), (-0.40698, 0, 0.36794), (-0.178089, 0, 0.731068), (-0.40698, 0, -1.935), (0.40698, 0, -1.935), (-0.6783, 0.2, -2.035), (0.6783, 0.2, -2.035), (0.551119, 0.9, -0.0330075), (0.551119, 1.04975, -0.383007), (0.551119, 1.04975, -0.733007), (-0.551119, 1.04975, -0.733007), (-0.551119, 1.04975, -0.383007), (-0.551119, 0.9, -0.0330075)]
        normal3f[] normals = [(1, 0, -3.58942e-13), (1, 0, -3.58942e-13), (1, 0, -3.58942e-13), (1, 0, -3.58942e-13), (1, 0, -3.58942e-13), (1, 0, -3.58942e-13), (0, 1, 0), (1.88707e-13, 0.850651, 0.525731), (1.88707e-13, 0.850651, 0.525731), (1.88707e-13, 0.850651, 0.525731), (0, 1, 0), (0, 1, 0), (-3.58942e-13, 0, -1), (-3.58942e-13, 0, -1), (-3.58942e-13, 0, -1), (-3.58942e-13, 0, -1), (-3.58942e-13, 0, -1), (-3.58942e-13, 0, -1), (1.88707e-13, 0.850651, 0.525731), (0, 1, 0), (1.88707e-13, 0.850651, 0.525731), (0, 1, 0), (1.88707e-13, 0.850651, 0.525731), (0, 1, 0), (3.21048e-13, 0.447214, 0.894427), (1.88707e-13, 0.850651, 0.525731), (1.88707e-13, 0.850651, 0.525731), (1.88707e-13, 0.850651, 0.525731), (3.21048e-13, 0.447214, 0.894427), (3.21048e-13, 0.447214, 0.894427), (3.21048e-13, 0.447214, 0.894427), (3.21048e-13, 0.447214, 0.894427), (1.88707e-13, 0.850651, 0.525731), (3.21048e-13, 0.447214, 0.894427), (1.88707e-13, 0.850651, 0.525731), (1.88707e-13, 0.850651, 0.525731), (-1, 0, 3.58942e-13), (-1, 0, 3.58942e-13), (-1, 0, 3.58942e-13), (-1, 0, 3.58942e-13), (-1, 0, 3.58942e-13), (-1, 0, 3.58942e-13), (3.58942e-13, 0, 1), (3.58942e-13, 0, 1), (3.58942e-13, 0, 1), (3.58942e-13, 0, 1), (3.58942e-13, 0, 1), (3.58942e-13, 0, 1), (0, 1, 0), (0, 1, 0), (0, 1, 0), (0, 1, 0), (0, 1, 0), (0, 1, 0), (0, 1, 0), (0, 1, 0), (0, 1, 0), (0, 1, 0), (0, 1, 0), (0, 1, 0), (0, 1, 0), (0, 1, 0), (0, 1, 0), (0.909183, 0.291506, 0.297339), (0.661771, 0.384589, 0.643545), (0.605134, 0.401033, 0.687739), (0.661771, 0.384589, 0.643545), (0.909183, 0.291506, 0.297339), (0.93326, 0.276567, 0.229209), (-0.661771, 0.384589, 0.643545), (-0.909183, 0.291506, 0.297339), (-0.605134, 0.401033, 0.687739), (-0.909183, 0.291506, 0.297339), (-0.661771, 0.384589, 0.643545), (-0.93326, 0.276567, 0.229209), (3.14345e-13, 0.482759, 0.875753), (-0.605134, 0.401033, 0.687739), (3.14345e-13, 0.482759, 0.875753), (-0.605134, 0.401033, 0.687739), (3.14345e-13, 0.482759, 0.875753), (-0.661771, 0.384589, 0.643545), (0.661771, 0.384589, 0.643545), (3.14345e-13, 0.482759, 0.875753), (0.605134, 0.401033, 0.687739), (3.14345e-13, 0.482759, 0.875753), (0.661771, 0.384589, 0.643545), (3.14345e-13, 0.482759, 0.875753), (-0.93326, 0.276567, 0.229209), (-0.976, 0.21777, 3.50328e-13), (-0.909183, 0.291506, 0.297339), (-0.976, 0.21777, 3.50328e-13), (-0.93326, 0.276567, 0.229209), (-0.976, 0.21777, 3.50328e-13), (0.976, 0.21777, -3.50328e-13), (0.93326, 0.276567, 0.229209), (0.909183, 0.291506, 0.297339), (0.93326, 0.276567, 0.229209), (0.976, 0.21777, -3.50328e-13), (0.976, 0.21777, -3.50328e-13), (-1, 0, 0), (-1, 0, 0), (-1, 0, 0), (-1, 0, 0), (-1, 0, 0), (-1, 0, 0), (0, 0.923879, -0.382683), (0, 0.923879, 0.382683), (0, 0.923879, -0.382683), (0, 0.923879, 0.382683), (0, 0.923879, -0.382683), (0, 0.923879, 0.382683), (1, 0, 0), (1, 0, 0), (1, 0, 0), (1, 0, 0), (1, 0, 0), (1, 0, 0), (0, 0.923879, 0.382683), (0, 0.707107, 0.707107), (0, 0.923879, 0.382683), (0, 0.707107, 0.707107), (0, 0.923879, 0.382683), (0, 0.707107, 0.707107), (0, 0.707107, -0.707107), (0, 0.923879, -0.382683), (0, 0.707107, -0.707107), (0, 0.923879, -0.382683), (0, 0.707107, -0.707107), (0, 0.923879, -0.382683), (-1, 0, 0), (-1, 0, 0), (-1, 0, 0), (-1, 0, 0), (-1, 0, 0), (-1, 0, 0), (0, 0.923879, -0.382683), (0, 0.923879, 0.382683), (0, 0.923879, -0.382683), (0, 0.923879, 0.382683), (0, 0.923879, -0.382683), (0, 0.923879, 0.382683), (1, 0, 0), (1, 0, 0), (1, 0, 0), (1, 0, 0), (1, 0, 0), (1, 0, 0), (0, 0.923879, 0.382683), (0, 0.707107, 0.707107), (0, 0.923879, 0.382683), (0, 0.707107, 0.707107), (0, 0.923879, 0.382683), (0, 0.707107, 0.707107), (0, 0.707107, -0.707107), (0, 0.923879, -0.382683), (0, 0.707107, -0.707107), (0, 0.923879, -0.382683), (0, 0.707107, -0.707107), (0, 0.923879, -0.382683), (-3.58942e-13, 0, -1), (-3.58942e-13, 0, -1), (-3.58942e-13, 0, -1), (-3.58942e-13, 0, -1), (-3.58942e-13, 0, -1), (-3.58942e-13, 0, -1), (1, 0, -3.58942e-13), (1, 0, -3.58942e-13), (1, 0, -3.58942e-13), (1, 0, -3.58942e-13), (1, 0, -3.58942e-13), (1, 0, -3.58942e-13), (1, 0, -3.58942e-13), (1, 0, -3.58942e-13), (1, 0, -3.58942e-13), (1, 0, -3.58942e-13), (1, 0, -3.58942e-13), (1, 0, -3.58942e-13), (1, 0, -3.58942e-13), (1, 0, -3.58942e-13), (1, 0, -3.58942e-13), (1, 0, -3.58942e-13), (1, 0, -3.58942e-13), (1, 0, -3.58942e-13), (-1, 0, 3.58942e-13), (-1, 0, 3.58942e-13), (-1, 0, 3.58942e-13), (-0.187275, 0.982307, 6.7221e-14), (-1, 0, 3.58942e-13), (-1, 0, 3.58942e-13), (-1, 0, 3.58942e-13), (-0.187275, 0.982307, 6.7221e-14), (-0.0348894, 0.999391, 1.25233e-14), (-1, 0, 3.58942e-13), (-0.0348894, 0.999391, 1.25233e-14), (-1, 0, 3.58942e-13), (-1, 0, 3.58942e-13), (-1, 0, 3.58942e-13), (-1, 0, 3.58942e-13), (-1, 0, 3.58942e-13), (-1, 0, 3.58942e-13), (-1, 0, 3.58942e-13), (-3.58942e-13, 0, -1), (-3.58942e-13, 0, -1), (-3.58942e-13, 0, -1), (-3.58942e-13, 0, -1), (-3.58942e-13, 0, -1), (-3.58942e-13, 0, -1), (0, 1, 0), (0, 1, 0), (0, 1, 0), (0, 1, 0), (0, 1, 0), (0, 1, 0), (0, 1, 0), (0, 1, 0), (0, 1, 0), (0, 1, 0), (0, 1, 0), (0, 1, 0), (0.137975, 0.976471, 0.165731), (0.280822, 0.958028, 0.0576383), (0.177293, 0.972005, 0.15419), (0.280822, 0.958028, 0.0576383), (0.137975, 0.976471, 0.165731), (0.259505, 0.961672, 0.0885686), (0.280822, 0.958028, 0.0576383), (-0.0348894, 0.999391, 1.25233e-14), (-0.187275, 0.982307, 6.7221e-14), (-0.0348894, 0.999391, 1.25233e-14), (0.280822, 0.958028, 0.0576383), (0.259505, 0.961672, 0.0885686), (-0.0348894, 0.999391, 1.25233e-14), (0.259505, 0.961672, 0.0885686), (0.319334, 0.947642, -1.14622e-13), (0.319334, 0.947642, -1.14622e-13), (0.259505, 0.961672, 0.0885686), (0.319334, 0.947642, -1.14622e-13), (0.319334, 0.947642, -1.14622e-13), (0.319334, 0.947642, -1.14622e-13), (0.319334, 0.947642, -1.14622e-13), (-0.137975, 0.976471, 0.165731), (-0.280822, 0.958028, 0.0576383), (-0.259505, 0.961672, 0.0885686), (-0.280822, 0.958028, 0.0576383), (-0.137975, 0.976471, 0.165731), (-0.177293, 0.972005, 0.15419), (-0.280822, 0.958028, 0.0576383), (-0.319334, 0.947642, 1.14622e-13), (-0.259505, 0.961672, 0.0885686), (-0.319334, 0.947642, 1.14622e-13), (-0.280822, 0.958028, 0.0576383), (-0.319334, 0.947642, 1.14622e-13), (-0.319334, 0.947642, 1.14622e-13), (-0.319334, 0.947642, 1.14622e-13), (-0.319334, 0.947642, 1.14622e-13), (-0.319334, 0.947642, 1.14622e-13), (-0.319334, 0.947642, 1.14622e-13), (-0.319334, 0.947642, 1.14622e-13), (-0.319334, 0.947642, 1.14622e-13), (-0.319334, 0.947642, 1.14622e-13), (-0.319334, 0.947642, 1.14622e-13), (0.137975, 0.976471, 0.165731), (6.38771e-14, 0.984038, 0.177959), (6.38771e-14, 0.984038, 0.177959), (6.38771e-14, 0.984038, 0.177959), (0.137975, 0.976471, 0.165731), (0.177293, 0.972005, 0.15419), (6.38771e-14, 0.984038, 0.177959), (-0.177293, 0.972005, 0.15419), (-0.137975, 0.976471, 0.165731), (-0.177293, 0.972005, 0.15419), (6.38771e-14, 0.984038, 0.177959), (6.38771e-14, 0.984038, 0.177959), (0.987088, 0.138722, -0.0800911), (1, 6.77626e-21, -5.42101e-20), (0.987088, 0.138722, -0.0800911), (1, 6.77626e-21, -5.42101e-20), (0.987088, 0.138722, -0.0800911), (1, 6.77626e-21, -5.42101e-20), (5.42101e-20, 0.5, 0.866026), (5.42101e-20, 0.5, 0.866026), (5.42101e-20, 0.5, 0.866026), (5.42101e-20, 0.5, 0.866026), (5.42101e-20, 0.5, 0.866026), (5.42101e-20, 0.5, 0.866026), (5.42101e-20, 0.5, 0.866026), (5.42101e-20, 0.5, 0.866026), (5.42101e-20, 0.5, 0.866026), (5.42101e-20, 0.5, 0.866026), (5.42101e-20, 0.5, 0.866026), (5.42101e-20, 0.5, 0.866026), (5.42101e-20, 0.5, 0.866026), (5.42101e-20, 0.5, 0.866026), (5.42101e-20, 0.5, 0.866026), (5.42101e-20, 0.5, 0.866026), (5.42101e-20, 0.5, 0.866026), (5.42101e-20, 0.5, 0.866026), (5.42101e-20, 0.5, 0.866026), (5.42101e-20, 0.5, 0.866026), (5.42101e-20, 0.5, 0.866026), (5.42101e-20, 0.5, 0.866026), (5.42101e-20, 0.5, 0.866026), (5.42101e-20, 0.5, 0.866026), (5.42101e-20, 0.5, 0.866026), (5.42101e-20, 0.5, 0.866026), (5.42101e-20, 0.5, 0.866026), (5.42101e-20, 0.5, 0.866026), (5.42101e-20, 0.5, 0.866026), (5.42101e-20, 0.5, 0.866026), (-1, -6.77626e-21, 5.42101e-20), (-1, -6.77626e-21, 5.42101e-20), (-1, -6.77626e-21, 5.42101e-20), (-1, -6.77626e-21, 5.42101e-20), (-1, -6.77626e-21, 5.42101e-20), (-1, -6.77626e-21, 5.42101e-20), (0, -0.866025, 0.5), (0, -0.866025, 0.5), (0, -0.866025, 0.5), (0, -0.866025, 0.5), (0, -0.866025, 0.5), (0, -0.866025, 0.5), (-0.160182, 0.854843, -0.493544), (0.160182, 0.854843, -0.493544), (0.160182, 0.854843, -0.493544), (0.160182, 0.854843, -0.493544), (-0.160182, 0.854843, -0.493544), (-0.160182, 0.854843, -0.493544), (1, 6.77626e-21, -5.42101e-20), (1, 6.77626e-21, -5.42101e-20), (1, 6.77626e-21, -5.42101e-20), (1, 6.77626e-21, -5.42101e-20), (1, 6.77626e-21, -5.42101e-20), (1, 6.77626e-21, -5.42101e-20), (-1, -6.77626e-21, 5.42101e-20), (-0.987088, 0.138722, -0.0800911), (-1, -6.77626e-21, 5.42101e-20), (-0.987088, 0.138722, -0.0800911), (-1, -6.77626e-21, 5.42101e-20), (-0.987088, 0.138722, -0.0800911), (-5.42101e-20, -0.5, -0.866026), (-5.42101e-20, -0.5, -0.866026), (-5.42101e-20, -0.5, -0.866026), (-5.42101e-20, -0.5, -0.866026), (-5.42101e-20, -0.5, -0.866026), (-5.42101e-20, -0.5, -0.866026), (-5.42101e-20, -0.5, -0.866026), (-5.42101e-20, -0.5, -0.866026), (-5.42101e-20, -0.5, -0.866026), (-5.42101e-20, -0.5, -0.866026), (-5.42101e-20, -0.5, -0.866026), (-5.42101e-20, -0.5, -0.866026), (-5.42101e-20, -0.5, -0.866026), (-5.42101e-20, -0.5, -0.866026), (-5.42101e-20, -0.5, -0.866026), (-5.42101e-20, -0.5, -0.866026), (-5.42101e-20, -0.5, -0.866026), (-5.42101e-20, -0.5, -0.866026), (-5.42101e-20, -0.5, -0.866026), (-5.42101e-20, -0.5, -0.866026), (-5.42101e-20, -0.5, -0.866026), (-5.42101e-20, -0.5, -0.866026), (-5.42101e-20, -0.5, -0.866026), (-5.42101e-20, -0.5, -0.866026), (-5.42101e-20, -0.5, -0.866026), (-5.42101e-20, -0.5, -0.866026), (-5.42101e-20, -0.5, -0.866026), (-5.42101e-20, -0.5, -0.866026), (-5.42101e-20, -0.5, -0.866026), (-5.42101e-20, -0.5, -0.866026), (0.707107, 0.612372, -0.353553), (0.987088, 0.138722, -0.0800911), (0.707107, 0.612372, -0.353553), (0.987088, 0.138722, -0.0800911), (0.707107, 0.612372, -0.353553), (0.987088, 0.138722, -0.0800911), (0.160182, 0.854843, -0.493544), (0.707107, 0.612372, -0.353553), (0.707107, 0.612372, -0.353553), (0.707107, 0.612372, -0.353553), (0.160182, 0.854843, -0.493544), (0.160182, 0.854843, -0.493544), (-0.707107, 0.612372, -0.353553), (-0.160182, 0.854843, -0.493544), (-0.160182, 0.854843, -0.493544), (-0.160182, 0.854843, -0.493544), (-0.707107, 0.612372, -0.353553), (-0.707107, 0.612372, -0.353553), (-0.987088, 0.138722, -0.0800911), (-0.707107, 0.612372, -0.353553), (-0.987088, 0.138722, -0.0800911), (-0.707107, 0.612372, -0.353553), (-0.987088, 0.138722, -0.0800911), (-0.707107, 0.612372, -0.353553), (-3.58942e-13, 0, -1), (-3.58942e-13, 0, -1), (-3.58942e-13, 0, -1), (-3.58942e-13, 0, -1), (-3.58942e-13, 0, -1), (-3.58942e-13, 0, -1), (-3.58942e-13, 0, -1), (-3.58942e-13, 0, -1), (-3.58942e-13, 0, -1), (-3.58942e-13, 0, -1), (-3.58942e-13, 0, -1), (-3.58942e-13, 0, -1), (0.532339, -0.697377, 0.479875), (0.754441, -0.597847, 0.270921), (0.4407, -0.728734, 0.524147), (0.754441, -0.597847, 0.270921), (0.532339, -0.697377, 0.479875), (0.81696, -0.55345, 0.162079), (-0.532339, -0.697377, 0.479875), (2.16437e-13, -0.797751, 0.602987), (-0.4407, -0.728734, 0.524147), (2.16437e-13, -0.797751, 0.602987), (-0.532339, -0.697377, 0.479875), (2.16437e-13, -0.797751, 0.602987), (-0.754441, -0.597847, 0.270921), (-0.532339, -0.697377, 0.479875), (-0.4407, -0.728734, 0.524147), (-0.532339, -0.697377, 0.479875), (-0.754441, -0.597847, 0.270921), (-0.81696, -0.55345, 0.162079), (0.518084, -0.852925, 0.0640928), (0.192022, -0.952574, 0.236073), (0.261964, -0.939502, 0.220704), (0.192022, -0.952574, 0.236073), (0.518084, -0.852925, 0.0640928), (0.39343, -0.905541, 0.158773), (0.532339, -0.697377, 0.479875), (2.16437e-13, -0.797751, 0.602987), (2.16437e-13, -0.797751, 0.602987), (2.16437e-13, -0.797751, 0.602987), (0.532339, -0.697377, 0.479875), (0.4407, -0.728734, 0.524147), (8.9566e-14, -0.968368, 0.249528), (0.192022, -0.952574, 0.236073), (8.9566e-14, -0.968368, 0.249528), (0.192022, -0.952574, 0.236073), (8.9566e-14, -0.968368, 0.249528), (0.261964, -0.939502, 0.220704), (-0.518084, -0.852925, 0.0640928), (-0.192022, -0.952574, 0.236073), (-0.39343, -0.905541, 0.158773), (-0.192022, -0.952574, 0.236073), (-0.518084, -0.852925, 0.0640928), (-0.261964, -0.939502, 0.220704), (-0.261964, -0.939502, 0.220704), (8.9566e-14, -0.968368, 0.249528), (-0.192022, -0.952574, 0.236073), (8.9566e-14, -0.968368, 0.249528), (-0.261964, -0.939502, 0.220704), (8.9566e-14, -0.968368, 0.249528), (-3.21048e-13, -0.447214, -0.894427), (-3.21048e-13, -0.447214, -0.894427), (-3.21048e-13, -0.447214, -0.894427), (-3.21048e-13, -0.447214, -0.894427), (-3.21048e-13, -0.447214, -0.894427), (-3.21048e-13, -0.447214, -0.894427), (-3.48225e-13, -0.242536, -0.970143), (-3.48225e-13, -0.242536, -0.970143), (-3.48225e-13, -0.242536, -0.970143), (-3.48225e-13, -0.242536, -0.970143), (-3.48225e-13, -0.242536, -0.970143), (-3.48225e-13, -0.242536, -0.970143), (0.593353, -0.804942, -2.12979e-13), (0.39343, -0.905541, 0.158773), (0.518084, -0.852925, 0.0640928), (0.39343, -0.905541, 0.158773), (0.593353, -0.804942, -2.12979e-13), (0.593353, -0.804942, -2.12979e-13), (-0.593353, -0.804942, 2.12979e-13), (-0.518084, -0.852925, 0.0640928), (-0.39343, -0.905541, 0.158773), (-0.518084, -0.852925, 0.0640928), (-0.593353, -0.804942, 2.12979e-13), (-0.593353, -0.804942, 2.12979e-13), (0.81696, -0.55345, 0.162079), (0.881559, -0.472075, -3.16428e-13), (0.754441, -0.597847, 0.270921), (0.881559, -0.472075, -3.16428e-13), (0.81696, -0.55345, 0.162079), (0.881559, -0.472075, -3.16428e-13), (-0.881559, -0.472075, 3.16428e-13), (-0.81696, -0.55345, 0.162079), (-0.754441, -0.597847, 0.270921), (-0.81696, -0.55345, 0.162079), (-0.881559, -0.472075, 3.16428e-13), (-0.881559, -0.472075, 3.16428e-13), (0, -1, 0), (0, -1, 0), (0, -1, 0), (0, -1, 0), (0, -1, 0), (0, -1, 0), (0, -1, 0), (0, -1, 0), (0, -1, 0), (0, -1, 0), (0, -1, 0), (0, -1, 0), (0, -1, 0), (0, -1, 0), (0, -1, 0), (1, 0, -3.58942e-13), (1, 0, -3.58942e-13), (1, 0, -3.58942e-13), (1, 0, -3.58942e-13), (1, 0, -3.58942e-13), (1, 0, -3.58942e-13), (7.20654e-14, 0.979638, 0.200772), (0, 1, 0), (0, 1, 0), (0, 1, 0), (7.20654e-14, 0.979638, 0.200772), (7.20654e-14, 0.979638, 0.200772), (-1, 0, 3.58942e-13), (-1, 0, 3.58942e-13), (-1, 0, 3.58942e-13), (-1, 0, 3.58942e-13), (-1, 0, 3.58942e-13), (-1, 0, 3.58942e-13), (-3.58942e-13, 0, -1), (-3.58942e-13, 0, -1), (-3.58942e-13, 0, -1), (-3.58942e-13, 0, -1), (-3.58942e-13, 0, -1), (-3.58942e-13, 0, -1), (1.41196e-13, 0.919381, 0.393367), (7.20654e-14, 0.979638, 0.200772), (7.20654e-14, 0.979638, 0.200772), (7.20654e-14, 0.979638, 0.200772), (1.41196e-13, 0.919381, 0.393367), (1.41196e-13, 0.919381, 0.393367), (1, 0, -3.58942e-13), (1, 0, -3.58942e-13), (1, 0, -3.58942e-13), (1, 0, -3.58942e-13), (1, 0, -3.58942e-13), (1, 0, -3.58942e-13), (0, 1, 0), (1.88707e-13, 0.850651, 0.525731), (1.88707e-13, 0.850651, 0.525731), (1.88707e-13, 0.850651, 0.525731), (0, 1, 0), (0, 1, 0), (-3.58942e-13, 0, -1), (-3.58942e-13, 0, -1), (-3.58942e-13, 0, -1), (-3.58942e-13, 0, -1), (-3.58942e-13, 0, -1), (-3.58942e-13, 0, -1), (1.88707e-13, 0.850651, 0.525731), (0, 1, 0), (1.88707e-13, 0.850651, 0.525731), (0, 1, 0), (1.88707e-13, 0.850651, 0.525731), (0, 1, 0), (3.21048e-13, 0.447214, 0.894427), (1.88707e-13, 0.850651, 0.525731), (1.88707e-13, 0.850651, 0.525731), (1.88707e-13, 0.850651, 0.525731), (3.21048e-13, 0.447214, 0.894427), (3.21048e-13, 0.447214, 0.894427), (3.21048e-13, 0.447214, 0.894427), (3.21048e-13, 0.447214, 0.894427), (1.88707e-13, 0.850651, 0.525731), (3.21048e-13, 0.447214, 0.894427), (1.88707e-13, 0.850651, 0.525731), (1.88707e-13, 0.850651, 0.525731), (-1, 0, 3.58942e-13), (-1, 0, 3.58942e-13), (-1, 0, 3.58942e-13), (-1, 0, 3.58942e-13), (-1, 0, 3.58942e-13), (-1, 0, 3.58942e-13), (3.58942e-13, 0, 1), (3.58942e-13, 0, 1), (3.58942e-13, 0, 1), (3.58942e-13, 0, 1), (3.58942e-13, 0, 1), (3.58942e-13, 0, 1), (0, 1, 0), (0, 1, 0), (0, 1, 0), (0, 1, 0), (0, 1, 0), (0, 1, 0), (0, 1, 0), (0, 1, 0), (0, 1, 0), (0, 1, 0), (0, 1, 0), (0, 1, 0), (0, 1, 0), (0, 1, 0), (0, 1, 0), (0.909183, 0.291506, 0.297339), (0.661771, 0.384589, 0.643545), (0.605134, 0.401033, 0.687739), (0.661771, 0.384589, 0.643545), (0.909183, 0.291506, 0.297339), (0.93326, 0.276567, 0.229209), (-0.661771, 0.384589, 0.643545), (-0.909183, 0.291506, 0.297339), (-0.605134, 0.401033, 0.687739), (-0.909183, 0.291506, 0.297339), (-0.661771, 0.384589, 0.643545), (-0.93326, 0.276567, 0.229209), (3.14345e-13, 0.482759, 0.875753), (-0.605134, 0.401033, 0.687739), (3.14345e-13, 0.482759, 0.875753), (-0.605134, 0.401033, 0.687739), (3.14345e-13, 0.482759, 0.875753), (-0.661771, 0.384589, 0.643545), (0.661771, 0.384589, 0.643545), (3.14345e-13, 0.482759, 0.875753), (0.605134, 0.401033, 0.687739), (3.14345e-13, 0.482759, 0.875753), (0.661771, 0.384589, 0.643545), (3.14345e-13, 0.482759, 0.875753), (-0.93326, 0.276567, 0.229209), (-0.976, 0.21777, 3.50328e-13), (-0.909183, 0.291506, 0.297339), (-0.976, 0.21777, 3.50328e-13), (-0.93326, 0.276567, 0.229209), (-0.976, 0.21777, 3.50328e-13), (0.976, 0.21777, -3.50328e-13), (0.93326, 0.276567, 0.229209), (0.909183, 0.291506, 0.297339), (0.93326, 0.276567, 0.229209), (0.976, 0.21777, -3.50328e-13), (0.976, 0.21777, -3.50328e-13), (-1, 0, 0), (-1, 0, 0), (-1, 0, 0), (-1, 0, 0), (-1, 0, 0), (-1, 0, 0), (0, 0.923879, -0.382683), (0, 0.923879, 0.382683), (0, 0.923879, -0.382683), (0, 0.923879, 0.382683), (0, 0.923879, -0.382683), (0, 0.923879, 0.382683), (1, 0, 0), (1, 0, 0), (1, 0, 0), (1, 0, 0), (1, 0, 0), (1, 0, 0), (0, 0.923879, 0.382683), (0, 0.707107, 0.707107), (0, 0.923879, 0.382683), (0, 0.707107, 0.707107), (0, 0.923879, 0.382683), (0, 0.707107, 0.707107), (0, 0.707107, -0.707107), (0, 0.923879, -0.382683), (0, 0.707107, -0.707107), (0, 0.923879, -0.382683), (0, 0.707107, -0.707107), (0, 0.923879, -0.382683), (-1, 0, 0), (-1, 0, 0), (-1, 0, 0), (-1, 0, 0), (-1, 0, 0), (-1, 0, 0), (0, 0.923879, -0.382683), (0, 0.923879, 0.382683), (0, 0.923879, -0.382683), (0, 0.923879, 0.382683), (0, 0.923879, -0.382683), (0, 0.923879, 0.382683), (1, 0, 0), (1, 0, 0), (1, 0, 0), (1, 0, 0), (1, 0, 0), (1, 0, 0), (0, 0.923879, 0.382683), (0, 0.707107, 0.707107), (0, 0.923879, 0.382683), (0, 0.707107, 0.707107), (0, 0.923879, 0.382683), (0, 0.707107, 0.707107), (0, 0.707107, -0.707107), (0, 0.923879, -0.382683), (0, 0.707107, -0.707107), (0, 0.923879, -0.382683), (0, 0.707107, -0.707107), (0, 0.923879, -0.382683), (-3.58942e-13, 0, -1), (-3.58942e-13, 0, -1), (-3.58942e-13, 0, -1), (-3.58942e-13, 0, -1), (-3.58942e-13, 0, -1), (-3.58942e-13, 0, -1), (1, 0, -3.58942e-13), (1, 0, -3.58942e-13), (1, 0, -3.58942e-13), (1, 0, -3.58942e-13), (1, 0, -3.58942e-13), (1, 0, -3.58942e-13), (1, 0, -3.58942e-13), (1, 0, -3.58942e-13), (1, 0, -3.58942e-13), (1, 0, -3.58942e-13), (1, 0, -3.58942e-13), (1, 0, -3.58942e-13), (1, 0, -3.58942e-13), (1, 0, -3.58942e-13), (1, 0, -3.58942e-13), (1, 0, -3.58942e-13), (1, 0, -3.58942e-13), (1, 0, -3.58942e-13), (-1, 0, 3.58942e-13), (-1, 0, 3.58942e-13), (-1, 0, 3.58942e-13), (-0.187275, 0.982307, 6.7221e-14), (-1, 0, 3.58942e-13), (-1, 0, 3.58942e-13), (-1, 0, 3.58942e-13), (-0.187275, 0.982307, 6.7221e-14), (-0.0348894, 0.999391, 1.25233e-14), (-1, 0, 3.58942e-13), (-0.0348894, 0.999391, 1.25233e-14), (-1, 0, 3.58942e-13), (-1, 0, 3.58942e-13), (-1, 0, 3.58942e-13), (-1, 0, 3.58942e-13), (-1, 0, 3.58942e-13), (-1, 0, 3.58942e-13), (-1, 0, 3.58942e-13), (-3.58942e-13, 0, -1), (-3.58942e-13, 0, -1), (-3.58942e-13, 0, -1), (-3.58942e-13, 0, -1), (-3.58942e-13, 0, -1), (-3.58942e-13, 0, -1), (0, 1, 0), (0, 1, 0), (0, 1, 0), (0, 1, 0), (0, 1, 0), (0, 1, 0), (0, 1, 0), (0, 1, 0), (0, 1, 0), (0, 1, 0), (0, 1, 0), (0, 1, 0), (0.137975, 0.976471, 0.165731), (0.280822, 0.958028, 0.0576383), (0.177293, 0.972005, 0.15419), (0.280822, 0.958028, 0.0576383), (0.137975, 0.976471, 0.165731), (0.259505, 0.961672, 0.0885686), (0.280822, 0.958028, 0.0576383), (-0.0348894, 0.999391, 1.25233e-14), (-0.187275, 0.982307, 6.7221e-14), (-0.0348894, 0.999391, 1.25233e-14), (0.280822, 0.958028, 0.0576383), (0.259505, 0.961672, 0.0885686), (-0.0348894, 0.999391, 1.25233e-14), (0.259505, 0.961672, 0.0885686), (0.319334, 0.947642, -1.14622e-13), (0.319334, 0.947642, -1.14622e-13), (0.259505, 0.961672, 0.0885686), (0.319334, 0.947642, -1.14622e-13), (0.319334, 0.947642, -1.14622e-13), (0.319334, 0.947642, -1.14622e-13), (0.319334, 0.947642, -1.14622e-13), (-0.137975, 0.976471, 0.165731), (-0.280822, 0.958028, 0.0576383), (-0.259505, 0.961672, 0.0885686), (-0.280822, 0.958028, 0.0576383), (-0.137975, 0.976471, 0.165731), (-0.177293, 0.972005, 0.15419), (-0.280822, 0.958028, 0.0576383), (-0.319334, 0.947642, 1.14622e-13), (-0.259505, 0.961672, 0.0885686), (-0.319334, 0.947642, 1.14622e-13), (-0.280822, 0.958028, 0.0576383), (-0.319334, 0.947642, 1.14622e-13), (-0.319334, 0.947642, 1.14622e-13), (-0.319334, 0.947642, 1.14622e-13), (-0.319334, 0.947642, 1.14622e-13), (-0.319334, 0.947642, 1.14622e-13), (-0.319334, 0.947642, 1.14622e-13), (-0.319334, 0.947642, 1.14622e-13), (-0.319334, 0.947642, 1.14622e-13), (-0.319334, 0.947642, 1.14622e-13), (-0.319334, 0.947642, 1.14622e-13), (0.137975, 0.976471, 0.165731), (6.38771e-14, 0.984038, 0.177959), (6.38771e-14, 0.984038, 0.177959), (6.38771e-14, 0.984038, 0.177959), (0.137975, 0.976471, 0.165731), (0.177293, 0.972005, 0.15419), (6.38771e-14, 0.984038, 0.177959), (-0.177293, 0.972005, 0.15419), (-0.137975, 0.976471, 0.165731), (-0.177293, 0.972005, 0.15419), (6.38771e-14, 0.984038, 0.177959), (6.38771e-14, 0.984038, 0.177959), (0.987088, 0.138722, -0.0800911), (1, 6.77626e-21, -5.42101e-20), (0.987088, 0.138722, -0.0800911), (1, 6.77626e-21, -5.42101e-20), (0.987088, 0.138722, -0.0800911), (1, 6.77626e-21, -5.42101e-20), (5.42101e-20, 0.5, 0.866026), (5.42101e-20, 0.5, 0.866026), (5.42101e-20, 0.5, 0.866026), (5.42101e-20, 0.5, 0.866026), (5.42101e-20, 0.5, 0.866026), (5.42101e-20, 0.5, 0.866026), (5.42101e-20, 0.5, 0.866026), (5.42101e-20, 0.5, 0.866026), (5.42101e-20, 0.5, 0.866026), (5.42101e-20, 0.5, 0.866026), (5.42101e-20, 0.5, 0.866026), (5.42101e-20, 0.5, 0.866026), (5.42101e-20, 0.5, 0.866026), (5.42101e-20, 0.5, 0.866026), (5.42101e-20, 0.5, 0.866026), (5.42101e-20, 0.5, 0.866026), (5.42101e-20, 0.5, 0.866026), (5.42101e-20, 0.5, 0.866026), (5.42101e-20, 0.5, 0.866026), (5.42101e-20, 0.5, 0.866026), (5.42101e-20, 0.5, 0.866026), (5.42101e-20, 0.5, 0.866026), (5.42101e-20, 0.5, 0.866026), (5.42101e-20, 0.5, 0.866026), (5.42101e-20, 0.5, 0.866026), (5.42101e-20, 0.5, 0.866026), (5.42101e-20, 0.5, 0.866026), (5.42101e-20, 0.5, 0.866026), (5.42101e-20, 0.5, 0.866026), (5.42101e-20, 0.5, 0.866026), (-1, -6.77626e-21, 5.42101e-20), (-1, -6.77626e-21, 5.42101e-20), (-1, -6.77626e-21, 5.42101e-20), (-1, -6.77626e-21, 5.42101e-20), (-1, -6.77626e-21, 5.42101e-20), (-1, -6.77626e-21, 5.42101e-20), (0, -0.866025, 0.5), (0, -0.866025, 0.5), (0, -0.866025, 0.5), (0, -0.866025, 0.5), (0, -0.866025, 0.5), (0, -0.866025, 0.5), (-0.160182, 0.854843, -0.493544), (0.160182, 0.854843, -0.493544), (0.160182, 0.854843, -0.493544), (0.160182, 0.854843, -0.493544), (-0.160182, 0.854843, -0.493544), (-0.160182, 0.854843, -0.493544), (1, 6.77626e-21, -5.42101e-20), (1, 6.77626e-21, -5.42101e-20), (1, 6.77626e-21, -5.42101e-20), (1, 6.77626e-21, -5.42101e-20), (1, 6.77626e-21, -5.42101e-20), (1, 6.77626e-21, -5.42101e-20), (-1, -6.77626e-21, 5.42101e-20), (-0.987088, 0.138722, -0.0800911), (-1, -6.77626e-21, 5.42101e-20), (-0.987088, 0.138722, -0.0800911), (-1, -6.77626e-21, 5.42101e-20), (-0.987088, 0.138722, -0.0800911), (-5.42101e-20, -0.5, -0.866026), (-5.42101e-20, -0.5, -0.866026), (-5.42101e-20, -0.5, -0.866026), (-5.42101e-20, -0.5, -0.866026), (-5.42101e-20, -0.5, -0.866026), (-5.42101e-20, -0.5, -0.866026), (-5.42101e-20, -0.5, -0.866026), (-5.42101e-20, -0.5, -0.866026), (-5.42101e-20, -0.5, -0.866026), (-5.42101e-20, -0.5, -0.866026), (-5.42101e-20, -0.5, -0.866026), (-5.42101e-20, -0.5, -0.866026), (-5.42101e-20, -0.5, -0.866026), (-5.42101e-20, -0.5, -0.866026), (-5.42101e-20, -0.5, -0.866026), (-5.42101e-20, -0.5, -0.866026), (-5.42101e-20, -0.5, -0.866026), (-5.42101e-20, -0.5, -0.866026), (-5.42101e-20, -0.5, -0.866026), (-5.42101e-20, -0.5, -0.866026), (-5.42101e-20, -0.5, -0.866026), (-5.42101e-20, -0.5, -0.866026), (-5.42101e-20, -0.5, -0.866026), (-5.42101e-20, -0.5, -0.866026), (-5.42101e-20, -0.5, -0.866026), (-5.42101e-20, -0.5, -0.866026), (-5.42101e-20, -0.5, -0.866026), (-5.42101e-20, -0.5, -0.866026), (-5.42101e-20, -0.5, -0.866026), (-5.42101e-20, -0.5, -0.866026), (0.707107, 0.612372, -0.353553), (0.987088, 0.138722, -0.0800911), (0.707107, 0.612372, -0.353553), (0.987088, 0.138722, -0.0800911), (0.707107, 0.612372, -0.353553), (0.987088, 0.138722, -0.0800911), (0.160182, 0.854843, -0.493544), (0.707107, 0.612372, -0.353553), (0.707107, 0.612372, -0.353553), (0.707107, 0.612372, -0.353553), (0.160182, 0.854843, -0.493544), (0.160182, 0.854843, -0.493544), (-0.707107, 0.612372, -0.353553), (-0.160182, 0.854843, -0.493544), (-0.160182, 0.854843, -0.493544), (-0.160182, 0.854843, -0.493544), (-0.707107, 0.612372, -0.353553), (-0.707107, 0.612372, -0.353553), (-0.987088, 0.138722, -0.0800911), (-0.707107, 0.612372, -0.353553), (-0.987088, 0.138722, -0.0800911), (-0.707107, 0.612372, -0.353553), (-0.987088, 0.138722, -0.0800911), (-0.707107, 0.612372, -0.353553), (-3.58942e-13, 0, -1), (-3.58942e-13, 0, -1), (-3.58942e-13, 0, -1), (-3.58942e-13, 0, -1), (-3.58942e-13, 0, -1), (-3.58942e-13, 0, -1), (-3.58942e-13, 0, -1), (-3.58942e-13, 0, -1), (-3.58942e-13, 0, -1), (-3.58942e-13, 0, -1), (-3.58942e-13, 0, -1), (-3.58942e-13, 0, -1), (0.532339, -0.697377, 0.479875), (0.754441, -0.597847, 0.270921), (0.4407, -0.728734, 0.524147), (0.754441, -0.597847, 0.270921), (0.532339, -0.697377, 0.479875), (0.81696, -0.55345, 0.162079), (-0.532339, -0.697377, 0.479875), (2.16437e-13, -0.797751, 0.602987), (-0.4407, -0.728734, 0.524147), (2.16437e-13, -0.797751, 0.602987), (-0.532339, -0.697377, 0.479875), (2.16437e-13, -0.797751, 0.602987), (-0.754441, -0.597847, 0.270921), (-0.532339, -0.697377, 0.479875), (-0.4407, -0.728734, 0.524147), (-0.532339, -0.697377, 0.479875), (-0.754441, -0.597847, 0.270921), (-0.81696, -0.55345, 0.162079), (0.518084, -0.852925, 0.0640928), (0.192022, -0.952574, 0.236073), (0.261964, -0.939502, 0.220704), (0.192022, -0.952574, 0.236073), (0.518084, -0.852925, 0.0640928), (0.39343, -0.905541, 0.158773), (0.532339, -0.697377, 0.479875), (2.16437e-13, -0.797751, 0.602987), (2.16437e-13, -0.797751, 0.602987), (2.16437e-13, -0.797751, 0.602987), (0.532339, -0.697377, 0.479875), (0.4407, -0.728734, 0.524147), (8.9566e-14, -0.968368, 0.249528), (0.192022, -0.952574, 0.236073), (8.9566e-14, -0.968368, 0.249528), (0.192022, -0.952574, 0.236073), (8.9566e-14, -0.968368, 0.249528), (0.261964, -0.939502, 0.220704), (-0.518084, -0.852925, 0.0640928), (-0.192022, -0.952574, 0.236073), (-0.39343, -0.905541, 0.158773), (-0.192022, -0.952574, 0.236073), (-0.518084, -0.852925, 0.0640928), (-0.261964, -0.939502, 0.220704), (-0.261964, -0.939502, 0.220704), (8.9566e-14, -0.968368, 0.249528), (-0.192022, -0.952574, 0.236073), (8.9566e-14, -0.968368, 0.249528), (-0.261964, -0.939502, 0.220704), (8.9566e-14, -0.968368, 0.249528), (-3.21048e-13, -0.447214, -0.894427), (-3.21048e-13, -0.447214, -0.894427), (-3.21048e-13, -0.447214, -0.894427), (-3.21048e-13, -0.447214, -0.894427), (-3.21048e-13, -0.447214, -0.894427), (-3.21048e-13, -0.447214, -0.894427), (-3.48225e-13, -0.242536, -0.970143), (-3.48225e-13, -0.242536, -0.970143), (-3.48225e-13, -0.242536, -0.970143), (-3.48225e-13, -0.242536, -0.970143), (-3.48225e-13, -0.242536, -0.970143), (-3.48225e-13, -0.242536, -0.970143), (0.593353, -0.804942, -2.12979e-13), (0.39343, -0.905541, 0.158773), (0.518084, -0.852925, 0.0640928), (0.39343, -0.905541, 0.158773), (0.593353, -0.804942, -2.12979e-13), (0.593353, -0.804942, -2.12979e-13), (-0.593353, -0.804942, 2.12979e-13), (-0.518084, -0.852925, 0.0640928), (-0.39343, -0.905541, 0.158773), (-0.518084, -0.852925, 0.0640928), (-0.593353, -0.804942, 2.12979e-13), (-0.593353, -0.804942, 2.12979e-13), (0.81696, -0.55345, 0.162079), (0.881559, -0.472075, -3.16428e-13), (0.754441, -0.597847, 0.270921), (0.881559, -0.472075, -3.16428e-13), (0.81696, -0.55345, 0.162079), (0.881559, -0.472075, -3.16428e-13), (-0.881559, -0.472075, 3.16428e-13), (-0.81696, -0.55345, 0.162079), (-0.754441, -0.597847, 0.270921), (-0.81696, -0.55345, 0.162079), (-0.881559, -0.472075, 3.16428e-13), (-0.881559, -0.472075, 3.16428e-13), (0, -1, 0), (0, -1, 0), (0, -1, 0), (0, -1, 0), (0, -1, 0), (0, -1, 0), (0, -1, 0), (0, -1, 0), (0, -1, 0), (0, -1, 0), (0, -1, 0), (0, -1, 0), (0, -1, 0), (0, -1, 0), (0, -1, 0), (1, 0, -3.58942e-13), (1, 0, -3.58942e-13), (1, 0, -3.58942e-13), (1, 0, -3.58942e-13), (1, 0, -3.58942e-13), (1, 0, -3.58942e-13), (7.20654e-14, 0.979638, 0.200772), (0, 1, 0), (0, 1, 0), (0, 1, 0), (7.20654e-14, 0.979638, 0.200772), (7.20654e-14, 0.979638, 0.200772), (-1, 0, 3.58942e-13), (-1, 0, 3.58942e-13), (-1, 0, 3.58942e-13), (-1, 0, 3.58942e-13), (-1, 0, 3.58942e-13), (-1, 0, 3.58942e-13), (-3.58942e-13, 0, -1), (-3.58942e-13, 0, -1), (-3.58942e-13, 0, -1), (-3.58942e-13, 0, -1), (-3.58942e-13, 0, -1), (-3.58942e-13, 0, -1), (1.41196e-13, 0.919381, 0.393367), (7.20654e-14, 0.979638, 0.200772), (7.20654e-14, 0.979638, 0.200772), (7.20654e-14, 0.979638, 0.200772), (1.41196e-13, 0.919381, 0.393367), (1.41196e-13, 0.919381, 0.393367)] (interpolation = "faceVarying")
        texCoord2f[] primvars:st = [(0.84375, 0.205), (0.84375, 0.225), (0.84375, 0.205), (0.84375, 0.225), (0.84375, 0.205), (0.84375, 0.225), (0.84375, 0.185), (0.84375, 0.185), (0.84375, 0.185), (0.84375, 0.185), (0.84375, 0.185), (0.84375, 0.185), (0.84375, 0.225), (0.59375, 0.205), (0.59375, 0.205), (0.59375, 0.205), (0.84375, 0.225), (0.84375, 0.225), (0.84375, 0.225), (0.84375, 0.225), (0.84375, 0.225), (0.84375, 0.225), (0.84375, 0.225), (0.84375, 0.225), (0.84375, 0.205), (0.84375, 0.185), (0.84375, 0.185), (0.84375, 0.185), (0.84375, 0.205), (0.84375, 0.205), (0.84375, 0.205), (0.84375, 0.205), (0.84375, 0.225), (0.84375, 0.205), (0.84375, 0.225), (0.84375, 0.225), (0.84375, 0.225), (0.84375, 0.205), (0.84375, 0.205), (0.84375, 0.205), (0.84375, 0.225), (0.84375, 0.225), (0.84375, 0.185), (0.84375, 0.145), (0.84375, 0.145), (0.84375, 0.145), (0.84375, 0.185), (0.84375, 0.185), (0.34375, 0.455), (0.34375, 0.455), (0.34375, 0.455), (0.34375, 0.455), (0.34375, 0.455), (0.34375, 0.455), (0.34375, 0.455), (0.34375, 0.455), (0.34375, 0.455), (0.34375, 0.455), (0.34375, 0.455), (0.34375, 0.455), (0.34375, 0.455), (0.34375, 0.455), (0.34375, 0.455), (0.34375, 0.395), (0.34375, 0.435), (0.34375, 0.395), (0.34375, 0.435), (0.34375, 0.395), (0.34375, 0.435), (0.34375, 0.435), (0.34375, 0.395), (0.34375, 0.395), (0.34375, 0.395), (0.34375, 0.435), (0.34375, 0.435), (0.34375, 0.435), (0.34375, 0.395), (0.34375, 0.395), (0.34375, 0.395), (0.34375, 0.435), (0.34375, 0.435), (0.34375, 0.435), (0.34375, 0.395), (0.34375, 0.395), (0.34375, 0.395), (0.34375, 0.435), (0.34375, 0.435), (0.34375, 0.435), (0.34375, 0.395), (0.34375, 0.395), (0.34375, 0.395), (0.34375, 0.435), (0.34375, 0.435), (0.34375, 0.395), (0.34375, 0.435), (0.34375, 0.395), (0.34375, 0.435), (0.34375, 0.395), (0.34375, 0.435), (0.34375, 0.275), (0.34375, 0.475), (0.34375, 0.275), (0.34375, 0.475), (0.34375, 0.275), (0.34375, 0.475), (0.34375, 0.475), (0.34375, 0.475), (0.34375, 0.475), (0.34375, 0.475), (0.34375, 0.475), (0.34375, 0.475), (0.34375, 0.475), (0.34375, 0.275), (0.34375, 0.275), (0.34375, 0.275), (0.34375, 0.475), (0.34375, 0.475), (0.34375, 0.475), (0.34375, 0.275), (0.34375, 0.475), (0.34375, 0.275), (0.34375, 0.475), (0.34375, 0.275), (0.34375, 0.275), (0.34375, 0.475), (0.34375, 0.275), (0.34375, 0.475), (0.34375, 0.275), (0.34375, 0.475), (0.34375, 0.275), (0.34375, 0.475), (0.34375, 0.275), (0.34375, 0.475), (0.34375, 0.275), (0.34375, 0.475), (0.34375, 0.475), (0.34375, 0.475), (0.34375, 0.475), (0.34375, 0.475), (0.34375, 0.475), (0.34375, 0.475), (0.34375, 0.475), (0.34375, 0.275), (0.34375, 0.275), (0.34375, 0.275), (0.34375, 0.475), (0.34375, 0.475), (0.34375, 0.475), (0.34375, 0.275), (0.34375, 0.475), (0.34375, 0.275), (0.34375, 0.475), (0.34375, 0.275), (0.34375, 0.275), (0.34375, 0.475), (0.34375, 0.275), (0.34375, 0.475), (0.34375, 0.275), (0.34375, 0.475), (0.59375, 0.205), (0.59375, 0.145), (0.59375, 0.145), (0.59375, 0.145), (0.59375, 0.205), (0.59375, 0.205), (0.59375, 0.205), (0.59375, 0.185), (0.59375, 0.205), (0.59375, 0.185), (0.59375, 0.205), (0.59375, 0.185), (0.59375, 0.205), (0.59375, 0.185), (0.59375, 0.185), (0.59375, 0.205), (0.59375, 0.185), (0.59375, 0.205), (0.59375, 0.205), (0.59375, 0.145), (0.59375, 0.185), (0.59375, 0.145), (0.59375, 0.205), (0.59375, 0.145), (0.59375, 0.145), (0.59375, 0.145), (0.59375, 0.185), (0.59375, 0.205), (0.59375, 0.185), (0.59375, 0.145), (0.59375, 0.185), (0.59375, 0.205), (0.59375, 0.205), (0.59375, 0.185), (0.59375, 0.205), (0.59375, 0.185), (0.59375, 0.205), (0.59375, 0.185), (0.59375, 0.185), (0.59375, 0.185), (0.59375, 0.205), (0.59375, 0.205), (0.59375, 0.205), (0.59375, 0.185), (0.59375, 0.185), (0.59375, 0.185), (0.59375, 0.205), (0.59375, 0.205), (0.59375, 0.145), (0.59375, 0.145), (0.59375, 0.145), (0.59375, 0.145), (0.59375, 0.145), (0.59375, 0.145), (0.71875, 0.205), (0.71875, 0.205), (0.71875, 0.205), (0.71875, 0.205), (0.71875, 0.205), (0.71875, 0.205), (0.71875, 0.185), (0.71875, 0.205), (0.71875, 0.205), (0.71875, 0.205), (0.71875, 0.185), (0.71875, 0.185), (0.71875, 0.205), (0.71875, 0.205), (0.71875, 0.205), (0.71875, 0.205), (0.71875, 0.205), (0.71875, 0.185), (0.71875, 0.205), (0.71875, 0.185), (0.71875, 0.205), (0.71875, 0.205), (0.71875, 0.185), (0.71875, 0.185), (0.71875, 0.185), (0.71875, 0.205), (0.71875, 0.205), (0.71875, 0.185), (0.71875, 0.205), (0.71875, 0.185), (0.71875, 0.205), (0.71875, 0.185), (0.71875, 0.205), (0.71875, 0.205), (0.71875, 0.185), (0.71875, 0.185), (0.71875, 0.185), (0.71875, 0.205), (0.71875, 0.205), (0.71875, 0.205), (0.71875, 0.205), (0.71875, 0.185), (0.71875, 0.205), (0.71875, 0.205), (0.71875, 0.205), (0.71875, 0.205), (0.71875, 0.205), (0.71875, 0.205), (0.71875, 0.185), (0.71875, 0.205), (0.71875, 0.185), (0.71875, 0.205), (0.71875, 0.185), (0.71875, 0.205), (0.71875, 0.185), (0.71875, 0.205), (0.71875, 0.185), (0.71875, 0.205), (0.71875, 0.185), (0.71875, 0.205), (0.71875, 0.125), (0.71875, 0.025), (0.71875, 0.125), (0.71875, 0.025), (0.71875, 0.125), (0.71875, 0.025), (0.71875, 0.125), (0.71875, 0.025), (0.71875, 0.025), (0.71875, 0.025), (0.71875, 0.125), (0.71875, 0.125), (0.71875, 0.125), (0.71875, 0.125), (0.71875, 0.2), (0.71875, 0.125), (0.71875, 0.2), (0.71875, 0.125), (0.71875, 0.125), (0.71875, 0.2), (0.71875, 0.125), (0.71875, 0.025), (0.71875, 0.125), (0.71875, 0.125), (0.71875, 0.125), (0.71875, 0.025), (0.71875, 0.025), (0.71875, 0.125), (0.71875, 0.2), (0.71875, 0.2), (0.71875, 0.2), (0.71875, 0.2), (0.71875, 0.225), (0.71875, 0.2), (0.71875, 0.225), (0.71875, 0.225), (0.71875, 0.025), (0.71875, 0.125), (0.71875, 0.025), (0.71875, 0.125), (0.71875, 0.025), (0.71875, 0.125), (0.71875, 0.125), (0.71875, 0.125), (0.71875, 0.125), (0.71875, 0.125), (0.71875, 0.125), (0.71875, 0.125), (0.71875, 0.225), (0.71875, 0.225), (0.71875, 0.225), (0.71875, 0.225), (0.71875, 0.225), (0.71875, 0.225), (0.71875, 0.125), (0.71875, 0.025), (0.71875, 0.125), (0.71875, 0.025), (0.71875, 0.125), (0.71875, 0.025), (0.71875, 0.025), (0.71875, 0.125), (0.71875, 0.025), (0.71875, 0.125), (0.71875, 0.025), (0.71875, 0.125), (0.71875, 0.125), (0.71875, 0.025), (0.71875, 0.025), (0.71875, 0.025), (0.71875, 0.125), (0.71875, 0.125), (0.71875, 0.125), (0.71875, 0.125), (0.71875, 0.2), (0.71875, 0.125), (0.71875, 0.2), (0.71875, 0.125), (0.71875, 0.125), (0.71875, 0.2), (0.71875, 0.125), (0.71875, 0.025), (0.71875, 0.125), (0.71875, 0.125), (0.71875, 0.125), (0.71875, 0.025), (0.71875, 0.025), (0.71875, 0.125), (0.71875, 0.2), (0.71875, 0.2), (0.71875, 0.2), (0.71875, 0.2), (0.71875, 0.225), (0.71875, 0.2), (0.71875, 0.225), (0.71875, 0.225), (0.71875, 0.2), (0.71875, 0.125), (0.71875, 0.2), (0.71875, 0.125), (0.71875, 0.2), (0.71875, 0.125), (0.71875, 0.225), (0.71875, 0.2), (0.71875, 0.2), (0.71875, 0.2), (0.71875, 0.225), (0.71875, 0.225), (0.71875, 0.2), (0.71875, 0.225), (0.71875, 0.225), (0.71875, 0.225), (0.71875, 0.2), (0.71875, 0.2), (0.71875, 0.125), (0.71875, 0.2), (0.71875, 0.125), (0.71875, 0.2), (0.71875, 0.125), (0.71875, 0.2), (0.71875, 0.185), (0.71875, 0.145), (0.71875, 0.145), (0.71875, 0.145), (0.71875, 0.185), (0.71875, 0.185), (0.71875, 0.185), (0.71875, 0.185), (0.71875, 0.205), (0.71875, 0.185), (0.71875, 0.205), (0.71875, 0.205), (0.46875, 0.065), (0.46875, 0.145), (0.46875, 0.145), (0.46875, 0.145), (0.46875, 0.065), (0.46875, 0.065), (0.46875, 0.065), (0.46875, 0.145), (0.46875, 0.145), (0.46875, 0.145), (0.46875, 0.065), (0.46875, 0.065), (0.46875, 0.145), (0.46875, 0.065), (0.46875, 0.145), (0.46875, 0.065), (0.46875, 0.145), (0.46875, 0.065), (0.46875, 0.025), (0.46875, 0.065), (0.46875, 0.025), (0.46875, 0.065), (0.46875, 0.025), (0.46875, 0.065), (0.46875, 0.065), (0.46875, 0.145), (0.46875, 0.065), (0.46875, 0.145), (0.46875, 0.065), (0.46875, 0.145), (0.46875, 0.025), (0.46875, 0.065), (0.46875, 0.065), (0.46875, 0.065), (0.46875, 0.025), (0.46875, 0.025), (0.46875, 0.025), (0.46875, 0.065), (0.46875, 0.065), (0.46875, 0.065), (0.46875, 0.025), (0.46875, 0.025), (0.46875, 0.025), (0.46875, 0.065), (0.46875, 0.065), (0.46875, 0.065), (0.46875, 0.025), (0.46875, 0.025), (0.46875, 0.065), (0.46875, 0.025), (0.46875, 0.025), (0.46875, 0.025), (0.46875, 0.065), (0.46875, 0.065), (0.46875, 0.145), (0.46875, 0.065), (0.46875, 0.065), (0.46875, 0.065), (0.46875, 0.145), (0.46875, 0.145), (0.46875, 0.025), (0.46875, 0.065), (0.46875, 0.025), (0.46875, 0.065), (0.46875, 0.025), (0.46875, 0.065), (0.46875, 0.065), (0.46875, 0.025), (0.46875, 0.065), (0.46875, 0.025), (0.46875, 0.065), (0.46875, 0.025), (0.46875, 0.065), (0.46875, 0.145), (0.46875, 0.145), (0.46875, 0.145), (0.46875, 0.065), (0.46875, 0.065), (0.46875, 0.145), (0.46875, 0.065), (0.46875, 0.145), (0.46875, 0.065), (0.46875, 0.145), (0.46875, 0.065), (0.46875, 0.025), (0.46875, 0.025), (0.46875, 0.025), (0.46875, 0.025), (0.46875, 0.025), (0.46875, 0.025), (0.46875, 0.025), (0.46875, 0.025), (0.46875, 0.025), (0.46875, 0.025), (0.46875, 0.025), (0.46875, 0.025), (0.46875, 0.025), (0.46875, 0.025), (0.46875, 0.025), (0.09375, 0.025), (0.09375, 0.125), (0.09375, 0.025), (0.09375, 0.125), (0.09375, 0.025), (0.09375, 0.125), (0.09375, 0.125), (0.09375, 0.125), (0.09375, 0.125), (0.09375, 0.125), (0.09375, 0.125), (0.09375, 0.125), (0.09375, 0.125), (0.09375, 0.025), (0.09375, 0.025), (0.09375, 0.025), (0.09375, 0.125), (0.09375, 0.125), (0.09375, 0.125), (0.09375, 0.025), (0.09375, 0.025), (0.09375, 0.025), (0.09375, 0.125), (0.09375, 0.125), (0.09375, 0.025), (0.09375, 0.125), (0.09375, 0.125), (0.09375, 0.125), (0.09375, 0.025), (0.09375, 0.025), (0.84375, 0.205), (0.84375, 0.225), (0.84375, 0.205), (0.84375, 0.225), (0.84375, 0.205), (0.84375, 0.225), (0.84375, 0.185), (0.84375, 0.185), (0.84375, 0.185), (0.84375, 0.185), (0.84375, 0.185), (0.84375, 0.185), (0.84375, 0.225), (0.59375, 0.205), (0.59375, 0.205), (0.59375, 0.205), (0.84375, 0.225), (0.84375, 0.225), (0.84375, 0.225), (0.84375, 0.225), (0.84375, 0.225), (0.84375, 0.225), (0.84375, 0.225), (0.84375, 0.225), (0.84375, 0.205), (0.84375, 0.185), (0.84375, 0.185), (0.84375, 0.185), (0.84375, 0.205), (0.84375, 0.205), (0.84375, 0.205), (0.84375, 0.205), (0.84375, 0.225), (0.84375, 0.205), (0.84375, 0.225), (0.84375, 0.225), (0.84375, 0.225), (0.84375, 0.205), (0.84375, 0.205), (0.84375, 0.205), (0.84375, 0.225), (0.84375, 0.225), (0.84375, 0.185), (0.84375, 0.145), (0.84375, 0.145), (0.84375, 0.145), (0.84375, 0.185), (0.84375, 0.185), (0.34375, 0.455), (0.34375, 0.455), (0.34375, 0.455), (0.34375, 0.455), (0.34375, 0.455), (0.34375, 0.455), (0.34375, 0.455), (0.34375, 0.455), (0.34375, 0.455), (0.34375, 0.455), (0.34375, 0.455), (0.34375, 0.455), (0.34375, 0.455), (0.34375, 0.455), (0.34375, 0.455), (0.34375, 0.395), (0.34375, 0.435), (0.34375, 0.395), (0.34375, 0.435), (0.34375, 0.395), (0.34375, 0.435), (0.34375, 0.435), (0.34375, 0.395), (0.34375, 0.395), (0.34375, 0.395), (0.34375, 0.435), (0.34375, 0.435), (0.34375, 0.435), (0.34375, 0.395), (0.34375, 0.395), (0.34375, 0.395), (0.34375, 0.435), (0.34375, 0.435), (0.34375, 0.435), (0.34375, 0.395), (0.34375, 0.395), (0.34375, 0.395), (0.34375, 0.435), (0.34375, 0.435), (0.34375, 0.435), (0.34375, 0.395), (0.34375, 0.395), (0.34375, 0.395), (0.34375, 0.435), (0.34375, 0.435), (0.34375, 0.395), (0.34375, 0.435), (0.34375, 0.395), (0.34375, 0.435), (0.34375, 0.395), (0.34375, 0.435), (0.34375, 0.275), (0.34375, 0.475), (0.34375, 0.275), (0.34375, 0.475), (0.34375, 0.275), (0.34375, 0.475), (0.34375, 0.475), (0.34375, 0.475), (0.34375, 0.475), (0.34375, 0.475), (0.34375, 0.475), (0.34375, 0.475), (0.34375, 0.475), (0.34375, 0.275), (0.34375, 0.275), (0.34375, 0.275), (0.34375, 0.475), (0.34375, 0.475), (0.34375, 0.475), (0.34375, 0.275), (0.34375, 0.475), (0.34375, 0.275), (0.34375, 0.475), (0.34375, 0.275), (0.34375, 0.275), (0.34375, 0.475), (0.34375, 0.275), (0.34375, 0.475), (0.34375, 0.275), (0.34375, 0.475), (0.34375, 0.275), (0.34375, 0.475), (0.34375, 0.275), (0.34375, 0.475), (0.34375, 0.275), (0.34375, 0.475), (0.34375, 0.475), (0.34375, 0.475), (0.34375, 0.475), (0.34375, 0.475), (0.34375, 0.475), (0.34375, 0.475), (0.34375, 0.475), (0.34375, 0.275), (0.34375, 0.275), (0.34375, 0.275), (0.34375, 0.475), (0.34375, 0.475), (0.34375, 0.475), (0.34375, 0.275), (0.34375, 0.475), (0.34375, 0.275), (0.34375, 0.475), (0.34375, 0.275), (0.34375, 0.275), (0.34375, 0.475), (0.34375, 0.275), (0.34375, 0.475), (0.34375, 0.275), (0.34375, 0.475), (0.59375, 0.205), (0.59375, 0.145), (0.59375, 0.145), (0.59375, 0.145), (0.59375, 0.205), (0.59375, 0.205), (0.59375, 0.205), (0.59375, 0.185), (0.59375, 0.205), (0.59375, 0.185), (0.59375, 0.205), (0.59375, 0.185), (0.59375, 0.205), (0.59375, 0.185), (0.59375, 0.185), (0.59375, 0.205), (0.59375, 0.185), (0.59375, 0.205), (0.59375, 0.205), (0.59375, 0.145), (0.59375, 0.185), (0.59375, 0.145), (0.59375, 0.205), (0.59375, 0.145), (0.59375, 0.145), (0.59375, 0.145), (0.59375, 0.185), (0.59375, 0.205), (0.59375, 0.185), (0.59375, 0.145), (0.59375, 0.185), (0.59375, 0.205), (0.59375, 0.205), (0.59375, 0.185), (0.59375, 0.205), (0.59375, 0.185), (0.59375, 0.205), (0.59375, 0.185), (0.59375, 0.185), (0.59375, 0.185), (0.59375, 0.205), (0.59375, 0.205), (0.59375, 0.205), (0.59375, 0.185), (0.59375, 0.185), (0.59375, 0.185), (0.59375, 0.205), (0.59375, 0.205), (0.59375, 0.145), (0.59375, 0.145), (0.59375, 0.145), (0.59375, 0.145), (0.59375, 0.145), (0.59375, 0.145), (0.71875, 0.205), (0.71875, 0.205), (0.71875, 0.205), (0.71875, 0.205), (0.71875, 0.205), (0.71875, 0.205), (0.71875, 0.185), (0.71875, 0.205), (0.71875, 0.205), (0.71875, 0.205), (0.71875, 0.185), (0.71875, 0.185), (0.71875, 0.205), (0.71875, 0.205), (0.71875, 0.205), (0.71875, 0.205), (0.71875, 0.205), (0.71875, 0.185), (0.71875, 0.205), (0.71875, 0.185), (0.71875, 0.205), (0.71875, 0.205), (0.71875, 0.185), (0.71875, 0.185), (0.71875, 0.185), (0.71875, 0.205), (0.71875, 0.205), (0.71875, 0.185), (0.71875, 0.205), (0.71875, 0.185), (0.71875, 0.205), (0.71875, 0.185), (0.71875, 0.205), (0.71875, 0.205), (0.71875, 0.185), (0.71875, 0.185), (0.71875, 0.185), (0.71875, 0.205), (0.71875, 0.205), (0.71875, 0.205), (0.71875, 0.205), (0.71875, 0.185), (0.71875, 0.205), (0.71875, 0.205), (0.71875, 0.205), (0.71875, 0.205), (0.71875, 0.205), (0.71875, 0.205), (0.71875, 0.185), (0.71875, 0.205), (0.71875, 0.185), (0.71875, 0.205), (0.71875, 0.185), (0.71875, 0.205), (0.71875, 0.185), (0.71875, 0.205), (0.71875, 0.185), (0.71875, 0.205), (0.71875, 0.185), (0.71875, 0.205), (0.71875, 0.125), (0.71875, 0.025), (0.71875, 0.125), (0.71875, 0.025), (0.71875, 0.125), (0.71875, 0.025), (0.71875, 0.125), (0.71875, 0.025), (0.71875, 0.025), (0.71875, 0.025), (0.71875, 0.125), (0.71875, 0.125), (0.71875, 0.125), (0.71875, 0.125), (0.71875, 0.2), (0.71875, 0.125), (0.71875, 0.2), (0.71875, 0.125), (0.71875, 0.125), (0.71875, 0.2), (0.71875, 0.125), (0.71875, 0.025), (0.71875, 0.125), (0.71875, 0.125), (0.71875, 0.125), (0.71875, 0.025), (0.71875, 0.025), (0.71875, 0.125), (0.71875, 0.2), (0.71875, 0.2), (0.71875, 0.2), (0.71875, 0.2), (0.71875, 0.225), (0.71875, 0.2), (0.71875, 0.225), (0.71875, 0.225), (0.71875, 0.025), (0.71875, 0.125), (0.71875, 0.025), (0.71875, 0.125), (0.71875, 0.025), (0.71875, 0.125), (0.71875, 0.125), (0.71875, 0.125), (0.71875, 0.125), (0.71875, 0.125), (0.71875, 0.125), (0.71875, 0.125), (0.71875, 0.225), (0.71875, 0.225), (0.71875, 0.225), (0.71875, 0.225), (0.71875, 0.225), (0.71875, 0.225), (0.71875, 0.125), (0.71875, 0.025), (0.71875, 0.125), (0.71875, 0.025), (0.71875, 0.125), (0.71875, 0.025), (0.71875, 0.025), (0.71875, 0.125), (0.71875, 0.025), (0.71875, 0.125), (0.71875, 0.025), (0.71875, 0.125), (0.71875, 0.125), (0.71875, 0.025), (0.71875, 0.025), (0.71875, 0.025), (0.71875, 0.125), (0.71875, 0.125), (0.71875, 0.125), (0.71875, 0.125), (0.71875, 0.2), (0.71875, 0.125), (0.71875, 0.2), (0.71875, 0.125), (0.71875, 0.125), (0.71875, 0.2), (0.71875, 0.125), (0.71875, 0.025), (0.71875, 0.125), (0.71875, 0.125), (0.71875, 0.125), (0.71875, 0.025), (0.71875, 0.025), (0.71875, 0.125), (0.71875, 0.2), (0.71875, 0.2), (0.71875, 0.2), (0.71875, 0.2), (0.71875, 0.225), (0.71875, 0.2), (0.71875, 0.225), (0.71875, 0.225), (0.71875, 0.2), (0.71875, 0.125), (0.71875, 0.2), (0.71875, 0.125), (0.71875, 0.2), (0.71875, 0.125), (0.71875, 0.225), (0.71875, 0.2), (0.71875, 0.2), (0.71875, 0.2), (0.71875, 0.225), (0.71875, 0.225), (0.71875, 0.2), (0.71875, 0.225), (0.71875, 0.225), (0.71875, 0.225), (0.71875, 0.2), (0.71875, 0.2), (0.71875, 0.125), (0.71875, 0.2), (0.71875, 0.125), (0.71875, 0.2), (0.71875, 0.125), (0.71875, 0.2), (0.71875, 0.185), (0.71875, 0.145), (0.71875, 0.145), (0.71875, 0.145), (0.71875, 0.185), (0.71875, 0.185), (0.71875, 0.185), (0.71875, 0.185), (0.71875, 0.205), (0.71875, 0.185), (0.71875, 0.205), (0.71875, 0.205), (0.46875, 0.065), (0.46875, 0.145), (0.46875, 0.145), (0.46875, 0.145), (0.46875, 0.065), (0.46875, 0.065), (0.46875, 0.065), (0.46875, 0.145), (0.46875, 0.145), (0.46875, 0.145), (0.46875, 0.065), (0.46875, 0.065), (0.46875, 0.145), (0.46875, 0.065), (0.46875, 0.145), (0.46875, 0.065), (0.46875, 0.145), (0.46875, 0.065), (0.46875, 0.025), (0.46875, 0.065), (0.46875, 0.025), (0.46875, 0.065), (0.46875, 0.025), (0.46875, 0.065), (0.46875, 0.065), (0.46875, 0.145), (0.46875, 0.065), (0.46875, 0.145), (0.46875, 0.065), (0.46875, 0.145), (0.46875, 0.025), (0.46875, 0.065), (0.46875, 0.065), (0.46875, 0.065), (0.46875, 0.025), (0.46875, 0.025), (0.46875, 0.025), (0.46875, 0.065), (0.46875, 0.065), (0.46875, 0.065), (0.46875, 0.025), (0.46875, 0.025), (0.46875, 0.025), (0.46875, 0.065), (0.46875, 0.065), (0.46875, 0.065), (0.46875, 0.025), (0.46875, 0.025), (0.46875, 0.065), (0.46875, 0.025), (0.46875, 0.025), (0.46875, 0.025), (0.46875, 0.065), (0.46875, 0.065), (0.46875, 0.145), (0.46875, 0.065), (0.46875, 0.065), (0.46875, 0.065), (0.46875, 0.145), (0.46875, 0.145), (0.46875, 0.025), (0.46875, 0.065), (0.46875, 0.025), (0.46875, 0.065), (0.46875, 0.025), (0.46875, 0.065), (0.46875, 0.065), (0.46875, 0.025), (0.46875, 0.065), (0.46875, 0.025), (0.46875, 0.065), (0.46875, 0.025), (0.46875, 0.065), (0.46875, 0.145), (0.46875, 0.145), (0.46875, 0.145), (0.46875, 0.065), (0.46875, 0.065), (0.46875, 0.145), (0.46875, 0.065), (0.46875, 0.145), (0.46875, 0.065), (0.46875, 0.145), (0.46875, 0.065), (0.46875, 0.025), (0.46875, 0.025), (0.46875, 0.025), (0.46875, 0.025), (0.46875, 0.025), (0.46875, 0.025), (0.46875, 0.025), (0.46875, 0.025), (0.46875, 0.025), (0.46875, 0.025), (0.46875, 0.025), (0.46875, 0.025), (0.46875, 0.025), (0.46875, 0.025), (0.46875, 0.025), (0.09375, 0.025), (0.09375, 0.125), (0.09375, 0.025), (0.09375, 0.125), (0.09375, 0.025), (0.09375, 0.125), (0.09375, 0.125), (0.09375, 0.125), (0.09375, 0.125), (0.09375, 0.125), (0.09375, 0.125), (0.09375, 0.125), (0.09375, 0.125), (0.09375, 0.025), (0.09375, 0.025), (0.09375, 0.025), (0.09375, 0.125), (0.09375, 0.125), (0.09375, 0.125), (0.09375, 0.025), (0.09375, 0.025), (0.09375, 0.025), (0.09375, 0.125), (0.09375, 0.125), (0.09375, 0.025), (0.09375, 0.125), (0.09375, 0.125), (0.09375, 0.125), (0.09375, 0.025), (0.09375, 0.025)] (interpolation = "faceVarying")
        uniform token subdivisionScheme = "none"
        rel material:binding = </Vehicle/Materials/colormap>
    }
    def Scope "Materials" {
        def Material "colormap" {
            token outputs:surface.connect = </Vehicle/Materials/colormap/surface.outputs:surface>
            def Shader "surface" {
                uniform token info:id = "UsdPreviewSurface"
                float inputs:roughness = 0.7
                float inputs:metallic = 0
                color3f inputs:diffuseColor.connect = </Vehicle/Materials/colormap/texture.outputs:rgb>
                token outputs:surface
            }
            def Shader "stReader" {
                uniform token info:id = "UsdPrimvarReader_float2"
                token inputs:varname = "st"
                float2 outputs:result
            }
            def Shader "texture" {
                uniform token info:id = "UsdUVTexture"
                asset inputs:file = @kenney-water-colormap.png@
                float2 inputs:st.connect = </Vehicle/Materials/colormap/stReader.outputs:result>
                token inputs:wrapS = "repeat"
                token inputs:wrapT = "repeat"
                float3 outputs:rgb
            }
        }
    }
}
